<?xml version="1.0" encoding="UTF-8" standalone="no"?>
<svg
    xmlns:dc="http://purl.org/dc/elements/1.1/"
    xmlns:cc="http://creativecommons.org/ns#"
    xmlns:rdf="http://www.w3.org/1999/02/22-rdf-syntax-ns#"
    xmlns:svg="http://www.w3.org/2000/svg"
    xmlns="http://www.w3.org/2000/svg"
    version="1.1"
    style="fill-rule:evenodd"
    preserveAspectRatio="none"
    viewBox="0 0 10 8"
    id="calendar-day-disabled">
<defs
    id="calendar-day-disabled_defs" />
<g
    id="calendar-day-disabled_g"
    transform="matrix(3.576282097e-4,0,0,3.768613286e-4,-483.8550521,-395.4881663)">
<path
    d="m 1380277,1068163 c -10,-94 -34,-283 -34,-283 -49,196 -33,4 -34,18 13,-64 218,-908 190,-908 -23,-393 -146,-984 -219,-1388 9,-60 29,-180 29,-180 l 78,-393 c -16,349 -1,295 98,642 -2,-335 -7,-512 53,-848 25,-14 74,-43 74,-43 -7,-23 -20,-68 -20,-68 l 73,-368 -9,727 -49,240 0,-8 c -86,235 -86,211 -88,197 -10,65 -29,197 -29,197 47,165 141,496 141,496 13,-211 88,-625 88,-625 -8,-283 -24,-848 -24,-848 81,-793 77,-810 83,-762 26,315 -10,1006 -10,994 5,-9 5,9 5,8 0,51 -9,153 -10,162 l 0,-8 c -2,8 -5,26 -5,26 0,-3 0,-9 0,-9 -1,0 -5,0 -5,0 4,-25 10,-77 10,-77 -67,-364 -13,151 -10,189 -3,65 -10,197 -10,197 49,-289 147,-865 147,-865 0,-443 -34,-1328 -34,-1328 -16,-299 23,-464 -108,-711 -102,-209 -11,-1110 -5,-1165 -21,-47 -58,-145 -58,-145 24,-14 73,-43 73,-43 13,-208 39,-625 39,-625 -6,-147 -29,-196 -19,-359 -23,151 -69,453 -69,453 -133,345 -132,358 -131,326 11,-206 132,-618 131,-617 8,182 10,56 15,-51 18,-63 54,-189 54,-189 62,-333 63,-322 68,-308 8,-137 24,-411 24,-411 -78,176 -29,4 -24,-17 13,75 13,17 15,-9 45,-247 30,-550 29,-805 66,-440 103,-908 127,-1353 -53,273 -122,823 -122,823 23,45 35,93 -10,128 3,37 10,111 10,111 -5,-22 -19,-65 -20,-68 3,63 20,66 15,188 -7,-48 -20,-145 -20,-145 -181,793 -179,811 -180,762 7,-259 -33,-576 -54,-839 -23,94 -78,282 -78,282 -143,840 -138,846 -147,822 11,358 3,375 10,351 -14,166 -44,497 -44,497 -3,-40 -9,-120 -9,-120 -112,310 -12,-157 -10,-155 l -15,-179 c -1,26 -5,77 -5,77 -27,-231 -83,-694 -83,-693 145,-1331 136,-1352 152,-1285 42,283 37,620 34,908 72,-426 171,-1285 171,-1285 34,-428 -20,-839 -20,-1267 13,-241 31,-487 49,-728 -32,325 -98,976 -98,976 -66,314 -200,942 -200,942 -140,333 -136,355 -137,326 27,-237 127,-483 137,-694 -13,-112 -39,-334 -39,-334 -18,48 -54,145 -53,145 -22,50 -15,215 -15,206 -35,-107 -56,-138 -59,-257 l -39,419 0,-8 c -16,151 -49,454 -49,454 -33,222 -47,289 -63,531 -21,-204 54,-608 54,-608 4,115 9,-64 9,-77 -2,5 -5,17 -5,17 36,-311 108,-933 108,-933 14,59 49,180 49,179 10,-89 -35,-119 -44,-214 15,-122 39,-368 39,-368 20,166 19,505 19,505 48,-232 22,-99 10,-308 81,-512 82,-471 88,-437 23,-168 68,-505 68,-505 -61,-77 55,-790 49,-754 -20,-53 -54,-162 -54,-162 9,-85 144,-1456 132,-1456 -7,-317 -42,-672 -66,-988 -6,-310 -53,-546 -166,-832 -116,-271 -239,-459 -437,-671 -204,-205 -383,-330 -642,-448 -273,-115 -491,-159 -785,-162 0,0 -551,49 -544,49 -293,-26 -850,-46 -964,-51 56,3 145,15 142,15 -120,14 14,0 16,0 l 97,10 -227,5 c -146,-26 -133,-25 -122,-25 -58,-4 -156,-5 -211,-5 -15,9 15,6 32,5 l 81,10 c -104,0 -308,-21 -308,-21 -171,0 -513,-10 -513,-10 138,23 415,67 415,67 120,4 358,20 358,20 -193,13 34,6 41,6 l 186,20 c -351,-3 -1049,-56 -1048,-56 -38,-11 -31,-11 -25,-11 -98,-9 -293,-30 -293,-30 -80,6 -823,31 -821,5 -977,-116 -1017,-264 -2025,123 45,11 -13,11 -25,10 -35,11 -106,42 -105,41 51,7 154,21 154,21 -11,-14 -32,-41 -32,-41 148,-1 308,-16 455,5 l -40,-10 219,15 c 120,37 126,37 114,36 -71,0 -212,-31 -212,-31 -41,-25 10,14 -57,0 69,26 -170,94 -186,98 299,65 263,62 252,62 -123,-2 -245,-13 -366,-26 -17,3 -49,10 -49,10 -6,-7 -16,-20 -16,-20 -68,-5 -204,-21 -204,-21 37,16 28,15 25,16 -58,-6 -172,-30 -179,-31 l 40,0 c -27,-4 -81,-11 -81,-10 -139,68 -415,210 -415,210 -84,-20 -252,-67 -252,-67 134,-6 38,2 -65,-25 7,20 -122,0 -122,0 -22,14 -57,51 -57,51 10,0 30,5 33,5 -17,0 -49,5 -49,5 l 145,11 -137,-6 c 183,69 -74,20 -41,26 -7,9 -24,26 -24,26 l 284,41 -558,-15 14,0 c -150,-28 -276,-7 -456,-42 -92,-30 212,-12 179,-15 l -130,-31 8,0 -121,-25 528,56 c -13,-3 -37,-9 -40,-10 l 32,0 -72,-15 72,10 c -22,-33 -65,-98 -65,-98 -95,3 -285,10 -285,10 47,30 -121,7 -122,5 l -187,6 186,10 -15,0 c 46,3 138,10 138,10 -274,9 -821,26 -821,26 l 756,92 -157,-5 c 27,2 35,9 76,5 -23,7 808,163 789,160 -17,1 -49,5 -49,5 -142,35 43,11 105,5 391,77 1172,242 1172,242 -5,3 -17,5 -17,5 22,1 65,5 65,5 -43,5 -130,15 -130,15 25,5 -19,0 -16,0 -197,17 -236,-31 -423,-31 -298,7 -895,21 -895,21 -268,-11 -805,-41 -805,-41 -246,14 -740,41 -740,41 -54,-6 -618,-67 -618,-67 -295,-28 -413,3 -699,46 -18,-2 -195,-16 -106,-41 -3,0 -8,0 -8,0 127,-8 382,-25 382,-25 -179,-6 -529,-93 -529,-93 20,-4 60,-10 65,-10 -185,8 -562,-21 -561,-21 -103,2 -309,5 -309,5 227,44 366,63 594,83 -39,0 -90,7 -130,10 46,12 176,-4 179,-5 l 260,25 -366,0 c -14,20 -161,2 -203,-5 -394,-58 -363,-56 -334,-56 -184,-20 -553,-42 -553,-42 -437,0 -1317,-82 -1317,-82 208,62 184,61 171,62 -234,8 -515,-20 -748,-51 59,-4 175,-15 186,-16 l -138,0 33,5 -236,0 c -19,5 -119,31 -122,-10 l -104,-5 15,0 -15,0 -2,0 -162,0 c -28,-3 -122,-16 -122,-16 63,-5 196,6 195,6 -54,8 23,5 40,5 47,-2 139,-5 139,-5 8,1 24,5 24,5 28,3 18,1 8,0 -5,-2 -16,-5 -16,-5 6,0 3,0 0,0 11,0 33,0 33,0 l -97,-11 259,0 c -19,-2 -69,-8 -16,-15 190,-5 569,36 569,36 -16,-10 35,-10 33,-10 200,-7 612,31 610,30 89,-5 268,-5 268,-5 -57,-5 -168,-19 -178,-20 l 577,0 c -291,-11 -871,-31 -871,-31 -256,-13 96,-3 57,-5 -118,-16 -178,-11 -293,-11 -151,-25 -157,-24 -146,-25 63,-6 181,2 217,4 l -258,-20 c -754,-54 -770,-51 -723,-56 367,-19 1126,10 1122,10 -5,3 -16,5 -16,5 52,0 153,5 168,5 l -6,0 283,11 -12,0 134,5 -543,0 c 34,5 -5,11 0,10 -26,7 41,5 57,5 l 40,5 -349,-5 c 393,31 1179,93 1179,93 l 195,0 226,-11 c -75,-1 -862,-17 -860,-36 0,0 -49,-5 -49,-5 -22,-10 -17,-10 -16,-10 -66,-11 21,-17 8,-15 71,0 212,5 212,5 l -178,-26 1292,46 c 100,7 301,21 301,21 -87,10 12,5 16,5 l 80,5 -178,0 c 151,20 168,15 318,10 -75,-14 -75,-14 -74,-15 -375,-47 -356,-45 -341,-46 -3,-2 -8,-5 -8,-5 119,-7 358,-21 357,-21 -51,-6 -154,-26 -154,-26 8,5 24,11 24,11 -51,-9 -154,-21 -154,-21 l -260,-36 16,0 -121,-20 502,36 -7,0 c 130,10 390,30 390,30 6,-3 17,-10 16,-10 -194,-44 -4,-41 41,-41 8,-10 25,-31 25,-31 -173,-12 -522,-77 -521,-77 -380,-31 -1131,-130 -1154,-133 27,0 81,-6 81,-6 95,0 277,5 305,6 l -4,0 c 43,5 130,15 130,15 422,-42 -3,-22 -25,-21 -221,-11 -667,-15 -667,-15 -188,-23 -362,-69 -553,-77 -389,-67 -415,-59 -390,-62 198,-4 411,15 610,31 436,-9 1309,20 1309,20 -560,58 80,9 122,6 95,3 285,10 285,10 l -211,-26 c 55,0 162,-5 162,-5 -92,-14 -276,-10 -276,-10 l -553,-82 317,15 c -505,-69 -987,-119 -1497,-123 92,35 93,34 90,36 8,0 24,0 24,0 -8,5 -24,5 -24,5 57,0 171,5 171,5 l 282,10 -12,0 136,5 c -532,15 -986,27 -1521,-5 -2,7 -8,21 -8,21 -92,-9 -276,-26 -276,-26 -54,0 -163,0 -163,0 -111,-19 24,-12 49,-10 -121,-23 -5,-47 -8,-46 -588,-9 -1765,-42 -1765,-42 -521,-21 -963,-138 -1472,-190 -13,-1 -101,-7 -90,-36 -166,-28 -446,-85 -609,-77 -327,25 -649,26 -976,26 54,5 162,15 162,15 316,95 336,93 309,93 -194,-11 -582,-90 -593,-93 300,6 -35,-5 -41,-5 -188,-26 -287,-13 -472,21 90,15 269,46 269,46 35,11 -9,10 -9,10 -100,-2 -209,-22 -308,-41 100,-6 -19,-5 -25,-5 -383,81 -1138,298 -1138,298 108,12 325,36 325,36 243,67 253,67 228,67 -162,-12 -327,-22 -488,-36 182,-81 -195,-24 -253,-10 119,36 111,35 106,36 -291,-11 -114,-37 -463,61 308,70 272,67 260,67 -125,-7 -250,-18 -374,-31 -66,19 -1188,341 -1188,304 5,-78 629,-325 716,-360 -211,-32 -634,-88 -634,-88 -184,88 34,48 32,62 135,26 140,25 130,26 -67,-1 -203,-20 -211,-21 55,2 -4,-1 -49,-5 -272,168 -797,540 -797,540 60,0 179,10 179,10 -155,19 20,0 24,0 l 130,15 c -130,2 -233,12 -365,0 -28,18 -82,57 -82,57 351,4 1049,26 1049,26 -570,49 94,6 122,5 204,8 610,25 610,25 -639,14 -1203,30 -1846,0 -58,50 -656,549 -472,689 224,-33 2204,-298 2204,-298 17,44 323,38 391,36 -743,86 -2229,257 -2228,257 70,4 211,10 211,10 150,53 136,52 130,52 -103,-1 -309,-41 -309,-41 166,-6 -19,-5 -24,-5 -36,0 -106,0 -106,0 502,77 1505,231 1505,231 35,0 105,0 105,0 -161,-28 126,-75 146,-77 -131,-146 635,-70 635,-67 526,54 1065,187 1578,221 12,40 368,85 471,97 -8,0 -16,0 -24,0 137,9 439,84 431,83 20,-13 96,-34 106,-36 -152,-33 -83,-31 -73,-31 -57,-8 -171,-21 -171,-21 683,-43 -86,-16 -106,-15 l -553,-82 98,5 c -99,-27 9,-30 32,-31 -344,-13 -1044,-108 -1041,-108 450,-6 -69,-15 -89,-15 l -415,-62 927,67 683,118 c 365,-5 746,28 1098,26 92,3 277,10 277,10 43,2 130,5 130,5 -271,5 -814,16 -814,16 139,5 415,15 415,15 223,31 667,103 667,103 215,21 683,15 699,15 l -32,5 146,0 -234,11 c 243,-4 716,14 745,15 l -120,5 c -44,10 -59,16 -56,19 l -7653,0 0,3113 c -227,305 -691,858 -691,858 -15,605 -44,1815 -44,1815 15,197 44,591 44,591 -62,497 -62,306 -64,265 -21,692 -68,2073 -68,2073 11,74 34,222 34,222 -60,-254 -185,-762 -185,-762 -20,-664 -240,-7975 -240,-7975 2,-215 33,-379 109,-578 79,-190 163,-322 299,-471 141,-145 265,-234 445,-319 189,-82 347,-117 551,-120 -208,3 -359,36 -551,118 -181,84 -306,174 -447,319 -138,150 -221,280 -301,471 -77,199 -108,364 -111,579 0,0 99,9813 99,9809 9,1071 71,2034 186,3100 74,651 183,1298 219,1953 26,608 -49,780 -107,1327 -4,43 -8,455 -8,455 3,155 27,275 84,418 58,137 119,231 220,337 101,103 193,166 323,225 136,56 247,79 394,79 1,3 473,-40 465,-39 109,30 204,51 317,36 175,-41 285,-97 472,-103 271,38 261,39 252,42 634,26 472,91 1204,25 99,-9 185,9 284,-15 -5,0 -16,0 -16,0 213,-17 156,5 333,-67 -10,0 -32,0 -32,0 l 145,-36 c -201,38 -217,34 -422,26 60,-14 179,-41 179,-41 93,0 277,5 277,5 37,-12 114,-31 114,-31 11,12 32,36 32,36 659,24 -135,45 33,41 2,3 8,10 8,10 90,1 278,11 276,11 41,-4 122,-11 122,-11 23,5 65,21 65,21 81,6 245,31 244,31 28,-4 82,-11 82,-11 480,89 441,91 406,98 161,28 480,93 480,93 -484,20 23,22 204,25 -112,-61 8,-43 32,-41 111,-3 333,-10 333,-10 -168,-52 -174,-52 -162,-52 61,6 188,42 187,42 l 65,10 c -196,-124 -30,-104 24,-98 125,10 375,46 374,46 30,-3 90,-10 90,-10 9,1 1,5 0,5 3,4 8,16 8,16 131,27 52,31 24,20 -19,0 -60,10 -64,11 108,0 317,30 316,30 14,-3 41,-10 41,-10 -117,-37 -2,-57 16,0 32,3 92,5 104,5 -11,1 -30,5 -30,5 898,82 -685,42 -561,47 196,66 916,51 862,51 -56,-24 66,8 56,5 36,0 106,0 106,0 92,41 277,124 277,124 65,-9 195,-26 195,-26 -46,-17 -138,-52 -138,-52 -36,-17 -180,-21 -195,-20 102,-37 130,-59 244,-62 -133,-13 -399,-41 -399,-41 -141,-17 -423,-51 -423,-51 -210,-35 -284,-51 -512,-67 46,-5 138,-16 138,-16 -71,-13 -212,-51 -211,-51 -185,0 -553,-46 -553,-46 -38,0 -114,0 -114,0 l 40,15 c -152,-15 -455,-20 -455,-20 16,7 49,20 49,20 -132,-19 -399,-31 -399,-31 35,11 102,35 106,36 -292,-4 39,10 49,11 54,18 162,56 162,56 126,16 173,-4 342,31 33,7 34,11 8,15 -95,11 -245,-1 -342,-15 142,-26 49,-17 33,-15 5,1 16,5 16,5 -38,-7 -140,-6 -203,-16 30,-1 89,-5 89,-5 -143,-22 -431,-67 -431,-67 -110,-28 -138,-46 -260,-56 1,0 43,-4 49,-5 -79,-24 -94,-6 -171,0 -168,-12 -504,-36 -504,-36 28,9 85,24 89,25 l -341,-71 c -194,-30 -340,-34 -537,-83 173,-3 248,4 415,41 -150,6 -39,1 57,16 -6,-16 290,26 284,26 84,0 253,0 252,0 l -154,-36 c 73,0 221,10 220,10 -97,17 -53,19 -41,20 594,-9 1119,-14 1716,21 331,-19 992,-57 992,-57 51,-44 578,-1 700,11 124,-4 374,-11 374,-11 -146,-23 -430,-80 -439,-82 348,11 640,72 992,72 437,1 1317,82 1317,82 -48,-7 -219,-46 -219,-46 54,-5 162,-15 162,-15 212,4 635,51 635,51 -61,7 -180,15 -194,16 l 112,0 c 79,-2 236,-6 236,-6 416,31 159,25 90,26 -55,3 -163,10 -163,10 35,16 21,16 16,16 -193,10 -577,-31 -577,-31 54,20 -381,-5 -430,-10 6,3 15,5 15,5 -165,-5 -496,-16 -496,-16 62,9 187,21 187,21 -612,7 84,20 106,20 59,4 179,11 179,11 32,7 30,9 16,9 l 228,11 c 152,26 157,24 146,26 -38,3 -105,2 -158,-1 l 198,11 c 701,68 434,62 367,62 94,5 284,15 284,15 408,61 419,59 390,62 -197,4 -411,-15 -609,-31 -176,9 -529,21 -529,21 -364,24 -1129,-11 -1122,-11 103,-8 309,-25 309,-25 -126,-5 -403,20 -399,20 -154,-7 -463,-20 -463,-20 230,-5 691,-16 691,-16 -174,-7 -521,-20 -521,-20 258,-10 773,-31 773,-31 l 6,0 -128,-5 c 550,-8 554,-4 537,-10 -5,-3 -41,-3 -90,-11 117,2 350,5 350,5 -377,-27 -1130,-82 -1130,-82 -101,-15 -301,-46 -301,-46 -88,0 -255,-4 -287,-5 14,1 35,5 35,5 -49,5 -147,15 -147,15 131,21 106,-2 220,-5 78,9 236,31 236,31 l -226,10 c 74,1 853,12 852,31 l 49,5 c 50,27 21,26 16,26 -70,6 -223,0 -220,0 l 187,26 -1301,-52 c -106,-6 -213,-24 -317,-20 l -73,-11 179,0 c -105,-15 -318,-5 -318,-5 15,2 65,11 74,11 338,69 48,70 -8,72 17,3 128,20 130,20 191,20 483,38 667,72 282,47 49,46 -49,46 l -69,5 -1,0 c -60,1 111,17 94,16 190,-4 299,-12 504,0 -2,-2 -8,-5 -8,-5 393,-16 500,-25 895,20 -134,7 -398,39 -414,41 157,3 463,-36 463,-36 40,4 122,11 122,11 105,5 317,15 317,15 -11,-4 -53,-11 -33,-26 -35,0 -106,-5 -106,-5 87,-10 30,-4 -24,0 l -129,-15 c 36,-1 439,-2 438,10 207,20 411,35 618,46 93,-1 277,-5 277,-5 l 844,31 -7,0 c 745,4 2237,26 2237,26 l 496,0 c 264,-7 805,-5 805,-5 25,-7 73,-21 73,-21 12,4 33,21 33,21 168,-4 496,-15 526,-16 -59,-2 -250,-38 -233,-36 65,-10 195,-36 195,-36 3,4 8,11 8,11 203,23 313,44 520,35 -94,-3 -284,-10 -284,-10 222,-19 667,-56 667,-56 502,48 507,44 488,51 14,0 211,0 211,0 753,3 1101,26 1846,-41 93,45 279,131 285,134 l 8,0 c 659,250 578,114 1106,164 60,8 128,26 187,41 -59,-5 -179,-5 -179,-5 0,5 0,16 0,16 82,1 145,13 228,0 131,29 389,95 398,97 l -56,-5 8,0 c -55,-5 -272,56 -253,51 -5,19 -16,57 -16,57 67,-5 436,-38 472,-62 169,48 706,191 821,314 176,132 1045,-37 1310,-46 -49,-13 -147,-31 -147,-31 53,-7 515,-11 515,-11 128,-2 238,-12 363,-39 118,-24 222,-56 334,-102 230,-101 394,-212 576,-392 180,-188 290,-353 397,-594 103,-256 151,-468 158,-746 l 9,-52 0,52 c -5,282 -46,492 -147,754 -104,247 -214,418 -393,612 -184,187 -347,302 -582,411 -245,105 -450,148 -715,151 0,0 -133,-3 -132,-3 l -57,10 189,8 c 268,-3 471,-47 721,-152 235,-109 402,-225 587,-413 180,-194 293,-369 398,-617 103,-263 144,-476 150,-761 -1,0 6,-168 6,-163 21,-106 63,-317 63,-317 z m -18386,-16363 c 63,-4 161,-13 237,-19 l 405,19 -642,0 z m -7716,5946 c -133,-11 -175,217 -291,354 -86,77 259,-1619 273,-1688 -10,-375 15,-1131 15,-1130 l 3,30 0,2434 z m 26468,3625 c 1,-3 1,-3 0,1 l 0,-1 z m 132,-3159 0,0 0,0 z m -517,1643 0,1 0,-1 z m -3414,-9970 -13,0 -6,0 -1,0 m -285,0 -3,0 3,0 0,0 z m -3,0 -38,0 38,0 z m -3632,272 0,0 0,0 z m -2294,87 0,0 0,0 z m -100,139 -3,0 -3,0 m -2375,242 1,0 -1,0 z m -3131,-93 1,0 -1,0 z m 559,-83 3,0 6,1 0,0 2,0 m 547,-46 -2,0 2,0 z m 713,113 17,0 c -6,0 -17,0 -17,0 z m 226,-11 2,0 -2,0 z m -801,-673 -2,0 2,0 z m -9835,1599 c 2,0 2,0 1,0 l -1,0 z m 3197,298 0,0 0,0 z m 1732,20 0,0 0,0 z m -88,11 -2,0 2,0 z m -7102,4651 c 1,-2 1,-3 0,1 l 0,-1 z m 3632,13133 0,0 1,0 0,0 m 3010,242 -1,0 1,0 z m 3677,-262 -2,0 2,0 z m -716,5 c -5,0 -6,0 -1,0 l 1,0 z m 7,50 c -13,0 -37,-1 -55,-3 l 55,3 z m -55,-3 -4,0 -3,-1 -3,0 m 281,40 -7,0 -71,-4 0,0 m -547,41 2,0 -2,0 z m -1049,-154 -2,0 -1,0 -3,0 m 124,56 -2,0 2,0 z m -202,226 2,0 m 1069,72 -1,0 1,0 z m 5513,52 8,0 c -3,0 -8,0 -8,0 z m 1437,-21 2,0 -2,0 z m 3703,52 0,0 0,0 z m 4213,642 0,0 0,0 z"
    id="calendar-day-disabled_path"
    style="fill:#999999" />
</g>
</svg>