<?xml version="1.0" encoding="UTF-8" standalone="no"?>
<svg
    xmlns:dc="http://purl.org/dc/elements/1.1/"
    xmlns:cc="http://creativecommons.org/ns#"
    xmlns:rdf="http://www.w3.org/1999/02/22-rdf-syntax-ns#"
    xmlns:svg="http://www.w3.org/2000/svg"
    xmlns="http://www.w3.org/2000/svg"
    version="1.1"
    id="order-next-button-active"
    preserveAspectRatio="none"
    viewBox="0 0 300 54">
    <g
        id="order-next-button-active-g"
        transform="matrix(0.0023070712,0,0,0.0031249812,-7.348021686,-5.245951622)">
        <path
            d="m 64328,5269 c -287,350 -394,637 -390,1002 52,758 154,1505 296,2262 18,-1 402,1937 380,1937 38,517 -91,818 -195,1309 -41,269 314,2697 314,2697 50,254 149,459 358,702 48,54 512,504 512,504 496,394 1027,675 1861,988 858,299 1587,488 2664,669 7,1 82,10 82,10 420,46 797,79 1231,105 596,129 1280,164 1964,164 66,-1 130,-1 196,-3 1814,-42 3611,-95 5429,-41 1513,15 4541,45 4541,45 578,-10 6099,-100 6099,-90 2309,52 4861,290 7173,344 1460,0 2907,-6 4366,-24 2677,-62 5367,-300 8029,-366 1226,-18 1339,135 2787,296 2271,230 2295,171 4343,206 931,35 4016,180 4717,299 217,45 729,35 976,31 1198,-20 2081,-99 3188,-254 0,0 896,-129 896,-129 1337,-213 2298,-436 3379,-788 -7,-4 362,-125 362,-125 931,-326 1627,-607 2254,-1020 -3,-1 236,-169 220,-171 412,-429 495,-902 418,-1352 -45,-138 -90,-276 -133,-414 65,-230 195,-691 195,-691 126,-42 380,-125 380,-125 -85,-207 -254,-620 -254,-620 -22,84 -67,251 -67,251 -127,-62 -381,-188 -381,-188 124,-419 149,-473 448,-878 -149,-630 -448,-1890 -448,-1890 -8,-332 -404,-3542 -295,-3536 0,0 31,-114 30,-114 79,-526 -119,-948 -597,-1448 -529,-494 -1113,-837 -2090,-1234 -1024,-392 -1953,-640 -3296,-878 -1434,-236 -2636,-346 -4209,-374 0,1 -1074,-21 -1074,-18 -4753,45 -9786,166 -14545,275 -1842,74 -1936,74 -1974,75 -1994,32 -4158,16 -6165,16 -1175,-1 -2340,-13 -3510,-16 -1466,36 -3016,195 -4542,215 -785,0 -1430,8 -2215,30 -840,25 -1481,30 -2325,30 -1741,2 -3481,14 -5222,15 -921,-2 -1783,-15 -2698,-45 -271,-5 -812,-15 -812,-15 l -1514,121 c -172,1 -1842,-4 -1864,109 1593,254 3024,435 4716,586 1441,47 4322,142 4322,142 -482,14 -1448,42 -1448,42 -424,-35 -1273,-106 -1272,-106 -439,-18 -1317,-54 -1317,-54 1475,115 3476,238 5003,205 -348,77 -1048,224 -1075,230 l 417,-46 c -527,111 -1580,333 -1580,333 -21,11 -66,33 -66,33 328,47 1009,118 1009,118 -161,16 -482,48 -482,48 1451,98 5058,113 5050,112 1361,19 4076,9 4075,9 -153,-35 -460,-106 -460,-106 1284,-19 1100,69 1667,82 595,-16 1778,-73 1778,-73 322,-28 877,-157 877,-157 380,0 1141,0 1141,0 373,-56 1119,-169 1119,-169 -271,90 -589,160 -966,169 -51,0 -102,0 -153,0 l -197,33 c 765,-58 2303,-154 2303,-154 5666,-325 7806,-596 13974,-546 3706,45 6344,36 10025,-82 1032,-31 1821,0 2816,105 990,118 1679,255 2491,491 0,0 21,7 20,7 449,106 1241,366 1241,366 223,153 386,290 537,454 0,0 11,11 11,11 -193,136 -140,310 -55,451 142,204 321,399 384,608 15,59 23,117 4,176 -98,327 -59,1077 -59,1059 -84,-126 -254,-377 -253,-377 -150,-20 -449,-62 -449,-62 384,418 1150,1254 1150,1254 -113,50 -432,182 -643,181 -18,38 -177,314 -185,313 -157,311 -137,911 -135,1247 9,1238 -1009,1639 -1150,2878 -22,513 -16,1023 2,1536 1,299 -109,521 -402,801 -311,270 -647,458 -1201,673 -8,-1 -278,98 -278,98 -498,162 -941,276 -1542,386 -782,138 -1435,203 -2304,230 -3,-1 -3762,82 -3762,64 0,42 -4344,-45 -4344,-45 -263,12 -790,36 -789,36 -276,-56 -511,-50 -835,-76 -160,8 -482,25 -482,25 -220,-6 -658,-18 -658,-18 -110,4 -329,12 -329,12 -30,37 -88,111 -88,111 44,83 -88,24 -88,24 -255,-119 -126,-146 -438,-18 -18,-38 -39,-91 -44,-129 92,-21 25,-19 0,-19 -317,32 -362,275 -527,206 -159,-121 13,-174 -526,-206 -152,11 -72,176 -219,139 -366,-137 -381,-249 -746,-133 -79,29 -312,4 -396,-6 -164,-16 -519,-11 -570,52 4,26 91,169 -44,139 -269,-96 -205,-154 -614,-203 -61,61 -270,259 -505,224 -287,-74 -614,-263 -614,-263 -263,55 -790,166 -790,166 -101,-45 -203,-79 -263,-136 -118,-59 -783,-64 -965,6 -95,102 511,268 -132,163 -814,-208 -914,-211 -921,-211 -181,-6 -709,31 -680,30 -82,2 -1147,76 -1141,52 -589,-21 -556,-61 -1273,-46 -66,2 -790,39 -789,33 -2644,-16 -5299,-37 -7942,-45 -4572,-61 -7214,-20 -11868,230 -3426,26 -5026,-18 -5795,-67 l -622,-7 c -430,-8 -832,-36 -1247,-77 -974,-106 -1485,-215 -2318,-409 -5,-1 -55,-13 -55,-13 -746,-202 -1286,-474 -1722,-766 -255,-183 -419,-338 -588,-532 -134,-154 -177,-314 -190,-475 26,-2 15,-2762 -58,-2760 -276,-1088 -611,-2159 -963,-3246 l 11,-2854 c -188,1081 -211,869 -225,655 -8,-416 132,-716 471,-1110 7,0 97,-115 97,-115 384,-431 838,-745 1600,-1107 269,-121 730,-315 1067,-415 542,-182 1041,-316 1676,-455 1268,-263 2331,-392 3783,-466 -1484,31 -2573,127 -3922,349 -1255,223 -2120,451 -3079,817 -913,367 -1468,691 -1966,1149 8,2 -306,351 -306,351 z m 18202,-1095 0,0 0,0 z m 13229,386 -1,0 1,0 z M 72884,16755 c -506,-33 -652,-67 -720,-87 2756,56 2094,73 1437,85 0,7 -367,5 -717,2 z"
            id="order-next-button-active-path1"
            style="fill:#999999" />
        <path
            d="m 128021,11667 c 0,-436 -268,-4396 -268,-4396 -23,-208 -47,-416 -72,-624 -56,-379 -236,-664 -671,-1014 -426,-325 -876,-557 -1596,-820 -8,2 -1125,-366 -1177,-342 -371,-86 -707,-151 -1114,-217 -977,-147 -1744,-212 -2811,-232 -3,1 -2342,-40 -2196,-38 -4693,-45 -14518,125 -14427,123 -3653,55 -11229,0 -11179,0 -626,12 -1881,35 -1881,35 l -2734,-51 c -2911,32 -5805,78 -8718,35 -2358,-12 -7077,-35 -7076,-35 -902,7 -9504,77 -9504,70 -3690,-42 -7490,-224 -11179,-266 -2270,1 -4533,5 -6803,19 -4173,48 -8347,230 -12512,282 -1762,12 -2481,-126 -4342,-228 -2843,-142 -4078,-137 -6768,-158 -1724,-34 -5867,-106 -7351,-231 -169,-21 -1521,-24 -1521,-24 -1291,14 -2255,99 -3402,293 0,0 -1476,299 -1428,318 -451,125 -798,233 -1194,379 -797,307 -1293,579 -1750,954 -426,380 -617,685 -682,1087 7,0 -7,61 -7,61 31,4 -372,1477 -318,1477 40,649 211,1322 324,1973 -54,331 -162,992 -162,992 -106,60 -317,181 -317,181 70,296 211,890 211,890 19,-120 57,-361 57,-361 106,90 317,271 317,271 -85,495 -163,773 -374,1262 0,4 7,43 6,43 62,436 269,766 762,1171 491,378 1015,650 1861,953 849,290 1627,475 2739,644 6,-3 599,78 599,78 929,114 1764,154 2758,157 0,0 13460,-70 13460,-70 0,0 20888,248 20888,247 7513,-36 15151,-126 22665,-212 2873,-57 3017,-57 3077,-58 l 9607,-12 c 242,0 5469,12 5469,12 2333,-26 4710,-149 7077,-165 1172,0 2281,-7 3453,-23 l 3623,-24 c 737,0 8137,-13 8137,-11 1410,1 2797,12 4205,35 421,4 1265,11 1265,11 l 2358,-93 c 207,0 2832,6 2907,-83 -1284,-103 -3271,-224 -4855,-314 l 4854,0 c 3306,0 6011,-1009 6011,-2243 l 0,-6728 c 0,-1169 -2433,-2137 -5504,-2234 651,8 1207,53 1872,138 834,119 1397,250 2047,460 667,227 1078,432 1478,720 411,316 590,573 664,916 -1,0 135,725 134,714 149,2299 164,2291 155,2333 7,744 35,1500 105,2244 74,477 200,960 315,1437 53,374 -30,685 -349,1043 -1,0 -7,8 -7,8 -328,352 -722,613 -1384,909 -704,298 -1374,494 -2357,686 -1073,194 -1959,282 -3179,315 1231,-15 2137,-92 3244,-270 1042,-183 1748,-370 2518,-664 745,-301 1195,-566 1596,-930 387,-384 525,-692 514,-1097 -1,0 -163,-1710 -163,-1708 z m -93666,3951 -1424,51 c -718,-12 -2154,-35 -2154,-35 l -87,-16 3665,0 z m -16332,0 -885,51 c -54,-8 -188,-27 -330,-51 l 1215,0 z m -7110,-265 c -276,-24 -549,-59 -845,-105 1,-1 -124,-20 -124,-20 -649,-111 -1098,-231 -1568,-414 -510,-214 -798,-404 -985,-668 -163,-279 -124,-492 2,-771 234,-565 300,-1096 325,-1666 l 7,-395 0,2061 c 0,854 1295,1600 3188,1978 z M 7725,9969 c -13,-1107 -57,-2214 -97,-3322 l 106,-401 c 16,-27 240,-298 240,-298 90,-80 182,-153 285,-222 -343,281 -534,593 -534,921 l 0,3322 z"
            id="order-next-button-active-path2"
            style="fill:#FFCC00" />
        <path
            d="m 119766,10545 c 37,-4 112,-11 112,-11 -52,36 6,15 5,15 16,-9 252,-167 261,-156 115,-20 432,-27 568,-32 18,-9 55,-27 55,-27 38,-22 114,-67 114,-67 -124,39 -106,26 -261,17 113,-27 163,-36 242,-74 -55,-6 -102,-10 -145,-13 l -10,6 c 1,-1 3,-1 3,-1 -12,7 -103,57 -41,53 -20,9 -60,29 -60,29 -75,-5 -225,-14 -225,-14 62,-21 155,-70 185,-86 -142,-16 -219,-51 -380,-203 17,0 7,-4 -6,-6 -10,-8 -27,-26 -27,-26 22,2 65,7 65,7 -9,4 -26,13 -25,13 55,14 112,34 172,39 -6,0 -18,1 -18,1 29,4 87,14 87,14 57,-3 59,-3 54,-4 -27,-6 -89,-7 -89,-7 -23,6 8,-5 -21,-5 35,-4 -40,-55 -40,-55 133,2 120,0 115,-1 -46,-11 -97,-18 -146,-24 -5,-2 -15,-8 -15,-8 -4,2 -13,6 -13,6 -25,-4 -77,-10 -82,-11 5,1 29,1 13,-3 -25,-4 -77,-5 -77,-5 5,2 16,4 16,4 -12,-1 -34,-3 -34,-3 -31,-40 -90,-120 -90,-120 -38,0 -115,3 -115,3 49,14 15,2 -33,4 9,-8 -46,-12 -46,-12 -4,-8 -5,-25 -5,-25 4,1 14,1 14,1 -6,-1 -17,-6 -17,-6 19,3 58,9 58,9 -17,-3 -53,-10 -53,-10 92,-10 -24,-15 -7,-14 0,-4 -1,-12 -1,-12 40,3 120,10 120,10 -61,-13 -157,-41 -216,-46 1,1 5,1 6,2 -67,-3 -86,-22 -184,-26 -47,3 69,23 62,22 -20,0 -59,0 -59,0 1,1 3,1 3,1 -18,0 -54,-1 -54,-1 l 217,27 -19,0 c 5,1 13,3 13,3 -11,0 -33,-1 -33,-1 11,1 31,3 31,3 -18,10 -55,32 -55,32 -35,-10 -104,-31 -104,-31 27,-7 -44,-13 -44,-13 l -69,-19 74,13 c -2,0 -7,-1 -7,-1 19,3 56,9 56,9 l -301,-86 c 106,12 206,28 314,34 l -63,-13 c 12,2 13,-1 32,5 -6,-4 354,11 347,11 -5,-2 -17,-6 -17,-6 -52,-29 30,3 42,7 172,6 516,14 516,14 0,-1 -4,-3 -4,-3 9,1 26,4 26,4 -15,-6 -44,-18 -44,-18 11,0 -8,-2 -6,-2 -87,-31 -76,-4 -169,-26 -110,-30 -330,-91 -330,-91 -104,-20 -315,-58 -315,-57 -89,-28 -266,-84 -266,-84 -22,-3 -253,-31 -253,-31 -127,-18 -152,-38 -248,-82 -15,-2 -78,-11 -53,6 -1,0 -3,-1 -3,-1 45,15 135,45 135,45 -72,-15 -228,-12 -228,-12 7,3 22,9 22,9 -65,-19 -219,-43 -218,-43 -38,-10 -115,-30 -114,-30 114,4 139,6 249,22 0,0 -46,-16 -46,-16 21,0 66,19 66,19 35,4 106,14 106,14 -46,-12 -138,-34 -138,-34 1,-9 -61,-16 -78,-17 -167,-14 -154,-11 -143,-8 -89,-11 -135,-15 -221,-35 -161,-39 -510,-88 -521,-89 13,0 139,10 83,-8 -82,-24 -205,-40 -297,-49 22,7 65,23 65,23 l -52,-13 14,1 c -29,-7 -89,-21 -89,-21 -11,-7 -36,-22 -49,-8 l -40,-7 -62,-15 c -53,-6 -54,-6 -51,-6 21,8 76,16 75,16 -20,-8 13,1 17,2 17,5 50,15 50,15 4,0 11,0 11,0 11,1 8,1 3,1 -2,0 -8,0 -8,0 4,1 1,0 0,0 4,1 13,3 13,3 -14,-1 -40,-5 -40,-5 32,8 98,24 98,24 -11,-1 -28,-3 -11,5 70,19 225,38 225,38 -9,3 9,7 9,7 72,20 241,44 239,44 32,10 99,27 99,27 -24,-4 -74,-9 -73,-9 l 216,53 -336,-68 c -102,-19 33,10 19,7 -56,-5 -64,-10 -113,-22 -66,-5 -67,-6 -63,-4 21,7 65,15 81,18 l -101,-16 c -293,-43 -304,-50 -290,-44 127,39 430,100 425,99 -1,-2 -5,-4 -4,-4 21,5 65,14 65,14 -1,0 -3,-1 -3,-1 l 110,22 -6,-1 c 18,3 54,11 54,11 -68,-17 -205,-50 -205,-50 14,1 3,-5 3,-4 -12,-6 22,2 23,3 6,0 17,2 17,2 -44,-10 -133,-31 -133,-31 158,25 473,73 473,73 l 75,18 -2,0 c 28,8 83,25 83,25 -25,-6 -332,-73 -336,-66 0,0 -20,-2 -20,-2 -2,0 -17,1 -9,2 -28,-1 0,8 -2,7 26,6 77,17 81,18 l -75,-7 c 167,34 500,101 500,101 40,6 120,20 120,20 -77,-27 22,3 8,-1 11,2 32,6 32,6 l -67,-17 c 74,7 57,7 122,25 -3,0 -32,-4 -32,0 -156,-17 -149,-16 -143,-14 l -5,1 c 43,14 128,41 128,41 -21,-2 -66,-4 -66,-4 4,-1 12,-2 12,-2 -21,-1 -64,-6 -64,-6 -37,-3 -110,-10 -109,-10 2,0 6,1 6,1 -18,-1 -53,-3 -53,-3 l 201,32 -3,0 c 52,8 157,24 157,24 1,2 3,5 3,5 -88,-1 -17,15 2,20 0,5 -1,14 -1,14 -67,-11 -222,-18 -220,-18 -156,-23 -476,-54 -476,-54 10,2 29,9 29,9 37,9 111,25 117,27 l -3,-1 c 18,2 54,6 54,6 106,44 28,19 -15,6 -86,-16 -257,-56 -256,-56 -81,-9 -153,-6 -232,-21 -171,-12 -175,-15 -166,-12 66,19 165,34 238,45 161,43 499,112 499,112 -198,-74 37,5 48,9 36,7 110,22 110,22 -29,-3 -88,-9 -88,-9 20,4 57,16 60,16 -40,-2 -107,-21 -107,-21 -78,-6 -234,-19 -234,-19 41,8 124,23 124,23 -214,-20 -401,-42 -602,-89 5,0 50,0 45,-6 4,1 10,2 10,2 -2,-2 -8,-4 -8,-4 21,5 66,14 66,14 l 110,22 -6,-2 c 18,4 54,11 54,11 -216,-60 -339,-96 -574,-138 1,-2 4,-8 4,-8 -38,-5 -112,-16 -112,-16 -21,-5 -62,-15 -62,-15 -48,-2 5,7 15,9 -31,-1 -36,3 -17,17 -224,-50 -677,-146 -677,-146 -225,-44 -392,-33 -613,-62 -16,-1 -41,-5 -45,6 -62,-4 -202,-9 -254,-26 -116,-40 -234,-69 -359,-99 22,3 66,9 66,9 151,-7 156,-6 146,-8 -78,-14 -254,-19 -253,-19 115,26 -13,-1 -17,-1 -80,-7 -112,-22 -170,-52 38,3 115,7 115,7 17,-1 0,-5 0,-5 -30,-6 -96,-12 -129,-12 97,26 -29,-5 -11,0 -63,-36 -152,-95 -222,-142 l -35,910 c -8,243 -54,424 -151,662 -61,139 -149,275 -180,418 -25,155 36,156 88,283 32,86 -36,270 -36,269 22,23 40,45 28,72 -31,38 -75,62 -80,106 1,3 8,81 32,57 25,178 88,53 20,270 -7,24 8,41 -12,64 0,-1 0,-3 0,-3 -16,56 4,36 -52,75 0,-3 0,-8 0,-8 l -27,33 c 32,-50 27,-42 19,-95 -10,14 -32,40 -32,40 0,21 4,63 4,63 -8,8 -23,25 -23,25 9,3 28,8 28,8 18,147 34,-26 31,7 3,1 8,2 8,2 1,19 8,63 8,62 -2,9 -8,28 -8,28 4,5 16,14 16,14 5,18 24,56 24,55 -3,6 -8,18 -8,18 l 34,54 104,-32 c -6,5 -15,9 -4,13 -13,3 -38,12 -38,12 38,-4 10,-1 -9,2 l -44,18 c 14,-3 167,-40 162,-44 72,-28 141,-51 217,-75 36,-8 106,-24 106,-23 l 308,-90 -3,1 c 264,-66 585,-137 833,-215 l 186,-46 c 79,-17 236,-64 305,-72 11,0 34,1 34,1 4,-3 5,-11 5,-11 68,-14 204,-42 204,-42 -9,2 -92,42 -77,35 28,-2 84,-4 84,-4 0,-1 0,-4 0,-4 79,-32 90,-43 184,-62 -34,10 -103,30 -103,30 89,-13 268,-39 268,-39 174,-65 177,-64 167,-65 6,-1 80,-19 80,-19 359,-89 330,-101 707,-154 20,-25 63,-75 65,-78 l 3,0 c 182,-171 200,-105 364,-166 0,0 57,-33 57,-33 -21,8 -66,19 -66,19 -1,-2 -5,-6 -5,-6 33,-9 48,-19 86,-21 41,-24 119,-75 119,-75 -7,3 -20,8 -20,8 1,-1 3,-1 3,-1 -16,6 -119,3 -111,3 -8,-7 -24,-20 -24,-20 29,-5 177,-25 197,-20 61,-43 206,-141 210,-196 24,-68 374,-76 506,-103 -14,9 -45,26 -45,26 71,-7 214,-48 211,-47 32,-17 97,-52 97,-52 -59,16 -177,48 -177,48 -8,0 -25,1 -25,1 77,-23 234,-69 234,-69 30,-18 92,-53 92,-53 z m 3337,-1083 c 113,-49 233,-92 357,-132 -89,51 -147,80 -253,122 -49,-13 -42,15 -42,15 l -23,3 211,40 c 39,8 78,17 117,27 l 61,-26 c 116,-43 255,-60 386,-86 l 0,25 -234,142 48,11 c 16,-9 31,-16 48,-21 44,-5 133,-14 133,-14 -12,12 -35,35 -35,35 -6,8 -32,16 -50,20 l 19,3 57,5 14,-2 0,1 -7,2 7,1 0,2 4,-2 3,0 0,-1 31,-14 -4,-15 -28,-2 0,-5 c 9,-1 17,0 25,1 -6,-13 -11,-11 -17,-9 69,-41 24,-19 96,-29 l 0,29 18,-7 -2,66 c 31,7 66,20 184,55 -50,-6 -135,-15 -186,-20 l 0,21 c 65,9 118,16 118,16 58,4 116,10 175,14 22,7 67,21 67,21 32,6 94,19 98,19 l -42,-3 c 47,15 141,44 141,44 -37,3 -42,2 -48,0 13,5 60,3 60,3 39,12 118,36 118,36 l 118,27 c -119,713 -190,732 -261,750 -70,29 -282,86 -294,89 -112,69 -179,110 -260,145 l -9,-239 c -1,167 -3,224 -4,244 l -4,2 4,2 c 0,7 -1,7 -1,7 l -21,-1 c -20,7 -41,15 -64,23 l 0,-27 c -32,-2 -55,-3 -72,-3 l -6,55 c -41,13 -89,26 -144,41 l -8,2 146,18 -1,10 -158,-24 c -466,120 -1383,323 -1383,323 -77,49 -148,78 -252,109 -451,130 -1426,312 -1425,312 -207,44 -605,152 -605,152 70,-11 210,-34 210,-34 53,-6 -190,53 -157,45 -190,51 -575,145 -575,145 18,-8 135,-66 136,-66 66,-27 194,-82 199,-85 -26,7 52,-20 44,-18 8,-4 23,-12 23,-12 -57,7 -224,66 -228,67 -136,56 -61,49 -241,54 -22,65 -40,-13 -116,34 -26,14 -75,19 -96,4 -6,-10 -12,-19 -19,-29 -9,0 -27,-1 -27,-1 -4,26 2,52 -29,72 -17,-12 -108,-74 -135,-53 -26,45 -7,65 -17,105 -52,-8 -156,-25 -156,-24 -4,16 -2,50 -2,50 -1,23 -94,49 -138,34 -22,-12 -24,-52 -24,-52 -18,14 -53,42 -53,42 -9,0 -25,1 -25,1 -25,56 -33,58 -36,59 -30,9 -51,7 -83,11 7,9 27,24 27,24 -34,-3 -104,-5 -104,-5 4,-3 22,-11 22,-10 -11,1 -153,12 -146,19 -60,19 -60,32 -125,49 8,30 -28,7 -27,7 -45,6 -136,18 -136,18 -77,21 -232,62 -232,62 4,8 9,24 9,24 -13,-5 -39,-17 -39,-17 -38,10 -112,30 -112,30 14,37 -55,70 -122,30 -40,12 -124,32 -124,32 10,27 31,15 9,29 -27,12 -90,1 -133,4 -22,6 -379,97 -379,97 -336,93 -511,147 -888,220 -628,162 -489,227 -1360,265 14,0 42,2 42,2 -38,8 -475,88 -475,88 -147,32 -267,42 -425,35 -155,-10 -268,-33 -398,-80 -126,-49 -203,-97 -277,-172 -66,-75 -92,-137 -90,-220 0,0 18,-63 18,-63 -9,3 -24,11 -24,11 4,-24 63,-266 91,-258 0,0 12,-15 12,-15 20,-96 60,-291 60,-291 59,-249 -20,-521 28,-776 48,-253 137,-514 215,-765 -9,11 -28,32 -28,32 -11,-22 -36,-64 -36,-64 0,-38 0,-114 0,-114 10,4 16,-16 16,-16 17,-44 20,-134 20,-134 0,-1 0,-2 0,-2 51,-45 17,-80 -4,-128 0,-25 -4,-75 -4,-75 -3,8 -12,24 -12,24 -5,-19 8,-51 8,-51 -14,-94 -40,-280 -40,-280 l 12,23 0,-1 c 6,10 15,19 8,29 18,13 35,7 36,22 0,-5 -4,-9 8,-9 4,41 47,119 48,122 l -20,-89 c 4,5 12,16 12,16 -5,-18 -16,-55 -16,-55 25,-10 31,-22 36,-38 23,67 82,199 84,203 -2,-39 -4,-115 -4,-115 18,30 14,109 24,150 l 55,113 -23,-95 c 2,8 11,23 12,24 -5,-51 5,13 4,3 22,28 -25,-95 -8,-93 8,-19 41,-167 12,-170 -3,-29 -8,-86 -8,-86 -22,60 -50,114 -44,176 -28,-83 -20,-73 -76,-152 -15,-28 -44,-85 -44,-85 -73,-72 -72,-75 -72,-69 11,54 50,94 68,145 l -36,34 c -100,-177 -99,-180 -99,-172 -7,-13 -20,-38 -20,-38 8,-21 -16,-64 -16,-64 -2,1 -4,3 -4,3 13,-39 56,-53 56,-65 7,14 15,43 15,43 5,-19 4,-6 4,4 7,4 20,13 20,13 -4,-17 -12,-51 -12,-51 -1,-6 -33,-44 -31,-17 -3,-13 -9,-38 -9,-38 5,4 13,13 13,13 -16,-36 -8,-108 -8,-108 10,29 43,86 43,86 -12,-111 5,3 5,7 22,30 16,24 -13,51 20,4 60,13 60,13 11,22 40,64 40,64 10,-15 7,5 32,44 -12,-36 -13,-65 -36,-101 11,3 32,8 32,8 2,-56 31,-169 -92,-64 -32,-90 -49,-100 -103,-182 -16,-19 -70,-68 -24,-82 21,-3 109,-15 99,-15 0,0 -91,8 -91,8 6,-33 100,-60 32,-125 -31,-24 -28,-46 -28,-75 1,-19 16,-11 48,-11 29,-9 34,-98 35,-119 -18,-64 -19,-196 -19,-196 42,-26 47,65 47,86 1,17 7,82 48,33 65,41 149,79 251,77 121,-7 140,41 251,75 72,17 -205,-339 -223,-360 9,-80 -12,-242 -12,-242 -34,98 -5,-15 -4,-20 -2,-21 -8,-62 -8,-62 l 66,23 -12,-29 c 22,6 70,13 70,13 -52,-22 8,1 9,2 18,2 54,6 54,6 -53,-14 -77,-25 -137,-34 -5,-10 -13,-29 -13,-29 133,30 403,86 403,86 -199,-71 35,6 47,9 79,16 237,46 237,46 -224,-61 -379,-105 -600,-151 34,1 69,1 106,-1 151,-8 264,-28 393,-73 l 18,-7 164,71 c 16,-12 88,3 131,15 l 1,-4 -250,-100 c 75,-33 131,-68 184,-113 l 13,6 c -51,24 3,45 69,60 l 23,-198 c 14,-29 22,-59 25,-91 l -12,-5 c -1,16 -4,32 -7,47 l 5,-47 c -48,-18 -83,-36 -66,-48 291,-26 531,-33 825,-23 l 653,107 -200,-56 c -69,-6 -207,-19 -207,-19 l -197,-29 c 225,14 563,47 766,108 -33,-36 -94,-109 -94,-109 15,9 44,26 46,28 -34,-42 -128,-135 -140,-173 58,-3 177,-2 177,-2 -19,-11 -57,-33 -57,-33 338,32 1290,268 1228,252 -269,-115 -807,-345 -807,-345 2,-8 8,-24 8,-24 62,-18 195,-45 195,-45 -12,-16 -35,-47 -35,-47 121,-10 718,74 712,85 190,33 358,67 530,123 -40,19 -120,56 -119,56 192,64 173,-10 262,-2 71,30 190,103 190,103 33,41 29,132 29,131 42,7 127,20 127,20 14,-8 41,-24 41,-24 3,6 16,46 0,46 0,0 -18,-5 -18,-5 7,4 23,13 22,13 51,48 182,132 182,132 348,225 1424,679 1376,658 -50,-36 -150,-108 -150,-108 241,49 725,146 725,146 76,51 233,150 233,150 -133,-14 -404,-27 -404,-27 207,79 66,35 32,25 94,37 281,113 281,113 300,72 860,254 860,254 13,3 31,10 39,2 23,4 70,12 70,12 -35,-19 -63,-20 -98,-50 133,51 102,50 264,76 -28,-1 -85,-4 -85,-4 208,45 623,136 623,136 31,14 92,44 92,44 l 542,104 z m 814,-12 0,147 6,-1 c -2,-147 -4,-147 -6,-146 z m 0,147 0,4 -9,-1 c 3,-1 6,-2 9,-3 z m 0,4 0,28 3,-1 -3,2 0,3 4,0 3,-1 -1,-31 -6,0 z m 0,70 0,13 7,1 0,-13 -7,-1 z m -63,1256 -6,61 85,10 -1,-96 c -24,8 -49,16 -78,25 z m -27,-1263 -6,2 14,3 10,-4 -8,-1 c 1,0 3,1 3,1 l -13,-1 z m 191,1209 13,4 0,-13 -13,5 0,4 z m -2396,-482 -2,-1 2,1 0,0 z m -1422,-477 -1,0 1,0 z m -482,-200 0,0 0,0 z m -280,-26 0,0 0,0 z m -178,-65 0,0 0,0 z m 251,21 0,0 0,0 z m -1874,-529 0,0 0,0 z m -201,-47 0,0 0,0 z m -164,-35 0,0 3,1 -3,-1 z m 0,0 -1,0 0,0 m 4,1 2,0 -2,0 z m 807,199 1,0 -1,0 z m -412,-69 2,0 1,0 2,1 1,0 0,0 0,0 m 497,90 2,1 2,0 0,0 m -209,-17 0,0 0,0 z m 518,102 0,0 0,0 z m -146,205 0,0 0,0 z m -3805,-832 -23,-16 25,3 1,-9 c -27,-8 -66,-25 -79,-33 57,-3 54,-4 51,-4 -116,-24 -40,13 -155,-67 138,1 125,-1 120,-2 -50,-8 -100,-16 -151,-22 l -76,-54 25,274 c -12,42 -36,126 -36,126 49,106 51,67 52,57 18,147 56,442 56,442 l -28,48 c 50,-55 152,-163 152,-163 l 66,-580 z m 91,-3 19,3 c 113,-4 117,-3 107,-5 l -125,-20 -1,22 z m -839,-560 -7,-1 c -101,-2 -191,-14 -295,-37 107,24 198,36 302,38 z m -7,-1 -87,-17 c -13,-50 -68,-273 41,-310 56,25 366,159 565,245 l -17,6 c -127,45 -239,66 -389,75 -40,1 -77,2 -113,1 z m 519,-82 5,2 c 16,-6 31,-12 46,-18 l -6,-3 c -15,6 -29,13 -45,19 z m 45,-19 -474,-190 c 27,5 83,15 83,15 68,-7 71,-6 65,-8 -39,-9 -129,-12 -129,-12 38,12 12,5 -11,-1 -13,-3 -40,-9 -40,-9 213,16 639,48 639,48 13,4 40,10 40,10 -51,-3 -15,20 10,33 -51,46 -108,81 -183,114 z m 183,-114 7,4 c 10,-9 21,-18 31,-28 34,-37 58,-70 74,-104 l 6,-49 c -13,52 -41,98 -89,150 -9,10 -19,19 -29,27 z m 126,78 c 57,10 112,16 112,16 214,27 470,28 663,60 -108,-27 241,11 208,5 0,0 -9,-2 -9,-2 50,8 196,8 188,8 3,6 30,25 28,23 -67,-1 -42,4 -37,5 -24,-1 -71,-7 -71,-7 243,79 -34,-1 -45,-4 -77,-6 -234,-19 -233,-19 12,2 38,7 38,7 -95,-13 -21,9 -1,14 -133,-26 -426,-53 -422,-53 168,44 -30,0 -39,-2 -58,-5 -175,-14 -175,-14 123,20 370,59 370,59 35,3 283,26 294,17 137,36 293,59 421,91 35,7 107,21 107,21 l 50,10 -300,-80 160,32 c 94,8 284,21 284,21 78,11 277,60 267,58 1,0 -10,-5 -10,-5 18,5 55,14 55,14 -29,-9 -86,-26 -86,-26 94,25 287,63 287,63 -15,-5 -45,-13 -45,-13 -74,-36 56,10 92,22 l 177,34 -350,-95 c -37,-8 -111,-23 -111,-23 -1,0 -3,0 -3,0 l 53,10 c -212,-57 -344,-95 -574,-135 2,-4 5,-11 5,-11 l -57,-7 c 80,3 237,15 237,15 -56,-14 -657,-169 -658,-168 -196,-47 -326,-64 -515,-101 93,-21 -180,-90 -186,-91 -11,-3 -92,-23 -158,-46 l -11,297 z m 841,106 c 4,1 6,2 3,1 l -3,-1 z m 306,49 0,-1 0,1 z m 144,-61 0,0 0,0 z m -486,-464 0,0 0,0 z m 9041,2130 0,0 0,0 z m -11079,-19 0,1 c 0,0 0,-2 0,-1 l 0,0 z m 267,-1221 c -1,-2 -1,-2 0,0 l 0,0 z m 531,3451 -1,0 1,0 z m 119,307 c 18,23 20,18 24,12 l 24,38 41,-11 -39,14 3,4 -4,1 4,-1 6,9 30,-8 c 51,-23 53,-23 47,-23 -13,2 -48,12 -69,18 l 81,-26 c 243,-90 144,-64 118,-57 34,-11 103,-32 103,-32 131,-62 138,-61 127,-60 -68,15 -157,46 -220,68 -68,12 -205,40 -205,40 -21,4 -45,9 -71,14 z m 53,57 0,0 12,-3 -12,3 z m 20,29 10,15 14,-5 1,-18 -25,8 z m 15,23 3,5 5,-1 0,-10 -8,6 z m 17,-33 3,16 41,-15 c -7,4 -25,11 -41,19 l 3,15 36,-5 c 77,-21 217,-76 222,-78 -27,4 -78,12 -78,12 14,-3 43,-10 43,-10 30,-7 90,-20 90,-20 147,-50 56,-25 25,-18 -21,3 -64,11 -64,11 5,-4 21,-13 1,-8 -76,14 -207,65 -207,65 8,-7 -32,4 -74,16 z m -106,139 c -8,3 -10,13 -7,30 19,11 56,40 63,46 54,56 77,104 79,168 0,-37 -1,-77 -6,-114 13,11 29,61 35,90 -6,-55 -29,-100 -79,-152 -27,-27 -54,-49 -85,-68 z m -1,52 2,7 c 3,9 8,22 13,35 23,28 38,54 47,86 l 1,8 c 4,-5 6,-13 -1,-18 0,-4 7,-14 8,-14 0,13 7,33 13,48 l -8,-32 c 4,9 12,25 13,26 -9,-43 -25,-75 -59,-113 l -29,-33 z m 70,104 0,0 0,0 z m 19,77 -3,3 c -5,-24 -15,-30 -21,-27 l 1,25 c 4,3 11,5 20,6 0,0 1,4 1,4 2,0 2,-5 2,-11 z m -14,-61 0,0 -1,-1 m 91,49 c 3,14 3,24 1,24 m -226,-277 c -12,-6 -25,-12 -39,-18 l 34,-11 -2,-26 -77,22 -2,-1 c 22,-9 55,-21 55,-21 l -70,15 -3,-1 0,2 c -36,8 -27,4 -3,-3 l -17,-7 -64,21 c 24,8 48,16 72,26 l 13,5 6,-2 0,5 c 40,18 72,35 100,56 l -9,-24 c 0,-8 0,-25 0,-25 4,3 12,9 12,9 -2,-6 -4,-14 -6,-22 z m -39,-18 -13,-5 11,6 2,-1 z m -2,1 c 7,5 4,4 -4,1 l 4,-1 z m -4,1 c -12,-5 -36,-16 -36,-16 l -3,-1 -11,3 9,-4 -15,-6 -3,1 7,40 52,-17 z m -81,-35 -5,-2 -30,-7 -23,6 17,-7 -12,-3 -71,21 c 19,4 38,9 56,14 30,-9 55,-17 68,-22 z m -81,-19 -42,-7 -75,22 28,3 89,-18 z m -47,-8 -32,-5 -32,5 -58,17 28,3 94,-20 z m -95,-16 -5,-1 -1,2 6,-1 z m -6,-1 -38,-7 c -102,-14 -189,-16 -285,-9 l -23,21 c -3,4 -19,11 -27,14 51,-11 102,-20 158,-24 -11,2 -159,38 -150,41 20,4 45,1 63,-4 -4,2 -51,20 -51,20 87,-17 163,-25 249,-23 26,-6 51,-12 104,-29 z m 346,25 -1,-10 11,7 1,0 2,-1 -6,-17 -103,35 1,13 c 29,-9 74,-21 95,-27 z m 2,-39 c -7,-26 -11,-50 -11,-50 9,8 28,24 28,24 -3,-66 8,8 8,11 l 9,7 24,-5 -27,-51 c -44,11 -91,23 -135,35 l 2,49 2,0 -2,0 1,3 101,-23 z m 39,-4 1,1 20,-5 -2,-4 0,0 c -1,1 -9,4 -19,8 z m 9,8 13,11 19,-8 -4,-13 -4,1 -3,13 -5,-10 -16,6 z m 14,11 3,3 8,-2 8,-5 -1,-1 c -2,0 -11,2 -18,5 z m 10,18 c 1,8 -2,14 0,23 l 30,-10 -7,-18 -6,2 c 1,-1 1,-1 3,-2 l -2,0 c -16,23 -11,7 -9,3 l -9,2 z m 9,-2 4,3 -1,-4 -3,1 z m -8,-43 0,0 0,1 0,-1 z m -55,-76 -1,-1 c -23,-26 -35,-26 -44,-58 0,0 -3,10 -4,11 -18,-18 -5,-19 0,-39 -9,-37 -28,-113 -28,-113 l 20,19 -55,-76 c -26,-49 -21,-71 -64,-121 -3,43 2,55 32,94 -4,-50 3,-3 12,13 -13,-2 20,65 20,64 0,18 0,56 0,56 l -28,-34 c 0,15 8,50 8,49 13,-22 15,-13 16,-9 -4,61 -7,114 -7,165 53,-8 103,-13 103,-13 l 20,-7 z m -123,26 0,21 c 23,-8 50,-19 87,-33 -23,4 -56,8 -87,12 z m 5,98 1,13 7,-3 c 7,-6 26,-18 -2,-11 l -6,1 z m -326,178 -57,-1 -70,34 c 18,-2 35,-3 51,-2 29,-11 53,-21 76,-31 z m -106,4 c -20,4 -39,7 -38,8 l 38,-8 z m 201,-39 8,-3 c -27,-4 -55,-7 -86,-9 l -7,0 -5,2 12,1 c 28,2 54,5 78,9 z m 14,-5 5,-1 c -26,-5 -52,-9 -82,-12 l -10,3 64,5 23,5 z m 66,-17 7,-2 c -58,-18 -61,-19 -59,-19 l -10,-1 -17,8 c 27,3 53,8 79,14 z m 469,-153 0,0 0,0 z m -129,26 c -1,1 -1,1 0,1 l 0,-1 z m 47,-50 -2,1 2,-1 z m -562,183 15,-3 c -195,-14 -15,-22 6,-22 l 5,0 38,-10 -41,-5 -28,-2 -157,46 c -2,1 -24,8 -24,8 79,-15 115,-15 186,-12 z m 63,-23 21,-9 -7,-1 -45,8 31,2 z m 186,-85 0,0 0,0 z m -459,81 -6,1 c -2,1 0,1 6,-1 z m 2505,-714 3,-1 0,0 0,0 m 1920,-483 0,0 c -4,1 -2,1 0,0 z"
            id="order-next-button-active-path3"
            style="fill:#000000" />
    </g>
</svg>