<svg id="city_pnz" data-name="pnz" xmlns="http://www.w3.org/2000/svg" width="52.5mm" height="52.5mm" viewBox="0 0 148.82 148.82">
  <title>pnz</title>
  <g id="pnz">
    <path d="M100.91,105.85a9.21,9.21,0,0,0,.06-2.41c-0.14-1.33.14-2-.26-2.49s-1.33-2.21-1-2.58a1.28,1.28,0,0,0,.57-1.13c0.09-.71-0.34-0.82.68-1.33a2.44,2.44,0,0,0,1.28-2.72c-0.17-1.22,0-2.32-.34-5.22s-0.91-9.61-1.3-12a114.46,114.46,0,0,0-2.49-11.45,7.68,7.68,0,0,1-.71-2.3,0.6,0.6,0,0,0-.4-0.48,5,5,0,0,1-2.07-4,3.29,3.29,0,0,0-.31-1.76c-0.2-.34-0.43-0.91-0.62-1.36s-0.54-.91-0.26-0.09,0.31,1.56,0,1a3.94,3.94,0,0,1-.48-3.32,3.76,3.76,0,0,1,0-2.18c0.28-.54-0.14-0.45-0.26-0.45s-1-.71-0.45-4.34,2-5.81,3.66-6.52,1.79-.62,2.07-1.11,1.87-2.66,2.89-2.92,1.33,0,1.42.14,0.28-.34.54-0.68a0.72,0.72,0,0,1,.71-0.43,2.12,2.12,0,0,0,1-.45,0.89,0.89,0,0,1,1,0,1.43,1.43,0,0,0,1.13.2,2.9,2.9,0,0,1,2.89,1.3c0.43,1,.88.57,1.19,0.28a1.75,1.75,0,0,1,1.84-.14c0.91,0.34,1.28.43,1.59,0.17a4,4,0,0,1,4.79.68,0.73,0.73,0,0,0,.85.43c0.31-.09,3.32-0.71,4.08,1.79a1.24,1.24,0,0,0,.85,1c1,0.17,1.64-.2,2.07,1.73s-0.31,2.72.77,3.6,2.86,2.55,3.15,4.05a6.52,6.52,0,0,1-1.36,4.39,3,3,0,0,0-.62,3.23,4,4,0,0,1-.62,3.77A22.54,22.54,0,0,0,125.12,67c-0.77,3.23-3.17,10.91-3.6,17.49-0.71,6-1.11,6.94-.82,8.76a19.68,19.68,0,0,1,.68,3.26,4.19,4.19,0,0,1-.31,3.09c-0.34.4-.14,1.33,0.2,2.66a37.65,37.65,0,0,1,.54,3.88l0.09,0.71,0.06,1.64,0,1.93,0.06,0.17c0.2,2.07.91,8.31,1.3,8,0,0-2.81.48-4.11,0.68a44.21,44.21,0,0,1-7,.26c-0.85.06-2.32-.31-2.69-0.17s-0.85.2-.74-0.26-1,.11-1.42.31-0.79.2-.91-0.2-0.48-.54-0.79-0.06-0.6.2-.79-0.2-1-.26-1.16-0.74a0.88,0.88,0,0,0-1.16-.37,3.24,3.24,0,0,1-2.21-1.33c-0.26-.62-1.28-0.31-1.47-0.91s0.17-.43.91-2.38,1.22-7.51,1.22-7.51Z"/>
    <path d="M63.18,104c0.4-.14.79-5.61,0.77-5.78a7.85,7.85,0,0,1-1-1.93,2.91,2.91,0,0,1,.4-2.49C63.75,93.06,64.12,93,64,92s-0.34-10-.6-10.74,0.26-1.7-.17-2.92-0.91-5.64-1.13-6.86a6.37,6.37,0,0,0-1.13-3.15c-0.57-.54-1.59-2.27-2.44-5.27s-1.11-5.56-.82-5.41,0.43,0.31.43-.11a1.8,1.8,0,0,0-.14-1.3,5.19,5.19,0,0,0-.68-0.88,2.77,2.77,0,0,1-.82-1.7c0-.48-0.11-2,0.17-1.9s0.31-.14.31-0.6a13.13,13.13,0,0,1-.11-2.75C57,48.13,57,48,57,47s0.4-3.51.74-3.6,0.45,0,.54-0.48,0.45-1,.82,0,0.85,1.76.74,0.71-0.34-3,.26-4,0.85-2.15,1.11-1.87,0.74-.57,1.16.4,0.71,1.45.82,0.74,0.71-3.37,1.47-4.17,1.73-.91,2,0,0.45,1,.82.2,1.7-2.44,1.79-1.45a3.47,3.47,0,0,0,.71,1.9c0.28,0.34.28,0.09,0.48-.4a4.22,4.22,0,0,1,1.11-1.76C72,33,72.74,32.37,73,33.31s0.28,1.28.45,0.74a3.29,3.29,0,0,1,.71-1.59,1,1,0,0,1,1.56.45,8.3,8.3,0,0,1,.85,2.21c0,0.48.28,0.11,0.6-.68s1.33-2.35,1.7-.91a45.94,45.94,0,0,1,.4,6.77c0,0.85.28,0.26,0.54-.91A7.23,7.23,0,0,1,81,36.74c0.28-.28.91,0.28,1.11,1.42a18.77,18.77,0,0,1,.09,3.23c0,0.54.2,0.34,0.34-.62s0.2-2.41.48-2.64,0.82-.28,1.19,1.13,0.11,3.51.31,3.91a36.38,36.38,0,0,1,2.58,4.73c0.28,1.11.4,1.47,0.62,1.3s1,0.34,1.11,1.3-0.26,1.42,0,2.15,0.54,2.18-.85,7.26-3.09,9.18-3.69,13.29S81.84,84.56,81.72,88s-0.26,5.64.17,6.12a3.64,3.64,0,0,1,.57,5.1,1.83,1.83,0,0,0-.11,1.28c0.17,0.82.57,3.06,0.62,3.43s-0.48,1.76.23,1.62a9.34,9.34,0,0,0,.2,2.38c0.26,1,1.81,8.9,2.07,8.73l-1,0a18.15,18.15,0,0,0-4.48.31,5,5,0,0,1-2.44.26,10.73,10.73,0,0,0-3.43.37,1.27,1.27,0,0,1-1.42-.31c-0.6-.37-1.22.11-1.7-0.06s-2.58.06-2.64-.31a0.77,0.77,0,0,0-1.16-.43c-0.6.31-1,.48-1.16,0.2a0.79,0.79,0,0,0-1-.17,1.08,1.08,0,0,1-1.16-.31,0.82,0.82,0,0,0-1.16-.2c-0.48.31-.62,0.31-1-0.06a1.23,1.23,0,0,0-1.11-.68c-0.6.06,0.2-2.13,0.91-3.74A51.6,51.6,0,0,0,63.27,104Z" style="fill: #fc0"/>
    <path d="M25.65,107.38c0.79-.85,1-3.06,1.28-3.49a1.46,1.46,0,0,0,.2-1.16,8.11,8.11,0,0,1-.2-3.23c0.17-1,.48-1.76,0-1.84s-0.74-.48-0.48-1.64,0.48-2.27.85-2.27,0.2-.2.06-0.91S27,90,26.87,87.7s-1.16-13.95-2.15-15.42a1.78,1.78,0,0,1-.6-1,1.08,1.08,0,0,0-.43-1c-0.48-.31-1.11-1.64-2-4.9A35,35,0,0,0,19.56,61c-0.6-1.16-1.19-2.35-.91-2.52s0.31-.43,0-0.77a0.89,0.89,0,0,1-.28-1,0.55,0.55,0,0,0-.14-0.85c-0.4-.28-0.57-1-0.28-1s0.57-.2.14-0.57-0.6-.88-0.17-0.91,0.54-.17.17-0.57S17.77,52,18.06,52s0.54,0,.14-0.45-0.43-.91,0-0.88,0.57,0.06.34-.43-0.11-1,.11-0.88,0.28,0.09.11-.57-0.26-1,.2-0.71,0.43,0,.06-0.68,0.06-.77.4-0.62,0.88,0.28.43-.74a8.2,8.2,0,0,1-.62-2.95C19.08,42,19,40.17,18.94,39s0.45-1.16.62-1,0.17,0.14.26-.43,0.48-.85.68-0.43,0.45,0.88.45,0.4a2.84,2.84,0,0,1,.34-1.64c0.28-.2.82-0.62,0.85-0.31s0.74,1.45.57,0.77-0.26-1.28-.4-1.62a0.73,0.73,0,0,1,.34-0.88c0.28-.17.57-0.11,0.6,0.2s0.4,1.47.43,0.62,0.14-1.3.31-1,0.48,1.16.57,0.28,0.31-.34.26,0.6-0.31,2.27-.28,2.75,0.43,0.48.6-.2,0.91-1.19,1.22-.34,1,1.56.68,0.48-0.11-1.9-.54-1.84-0.71-.28-0.77-1.16-0.54-1.11-.34-2,0.34-2,.62-1.56,0.14,1,.62.4,0.6-.6.74-0.4,0.11,0.48.57,0.14,0.91-.43,1,0.17,0.54,2.44.71,2.95,0.43,0.71.4-.2a11.81,11.81,0,0,1,0-2.44c0.14-.68.4-0.54,0.4,0.2s0.4-.48.45-0.82,0.45-.17.45,0.6a18.09,18.09,0,0,0,0,2.13c0.11,0.88.68,0.4,0.57-.82s-0.17-2.15-.17-2.72,0.45-.43.54,0.62,0.4,2.07.34,1.28a7.83,7.83,0,0,1,.14-2.15c0.14-.43.54-0.26,0.68,0.2s0.26,0.14.4-.28,0.28-.6.57-0.06a3.46,3.46,0,0,1,.71,1.42c-0.06.4,0.11,0.6,0.4,0.45s0.43-.26.62,0.28a8.64,8.64,0,0,1,.68,2.15c0,0.57.17,0.57,0.45,0.2s0.34-.43.57-0.14,0.43,0.6.57,0.17,0.43-1,.62-0.62,0.71,0.68.85,0.26,0.68-.11.91,0.14,0.71,0,1.13.43a8.54,8.54,0,0,1,1,1.45c0.17,0.31.26,0.68,0.48,0.4s0.4-.2.6,0.2,0.54,0.4.6,0.14,0.62-.17.74,0.26,1,1.25,1,2,0.17,1.64.4,1.47,0.2-.31.62,0.17a8.77,8.77,0,0,1,1.42,3.15,3.3,3.3,0,0,0,.31,1.45,4.33,4.33,0,0,1,1.36,2.78c0.4,2.21,1,6.86.43,9.33a64.5,64.5,0,0,1-2.21,6.72,40.43,40.43,0,0,0-1.9,6.55,12.75,12.75,0,0,1-1.47,4.45,16.7,16.7,0,0,0-1.22,5c-0.31,2.18-1.08,6.94-.88,8.82s0.48,4.34.54,5.1a5.49,5.49,0,0,1,.2,1.62,5.67,5.67,0,0,1-.57,2.64,2.53,2.53,0,0,0-.31,1.45c0,0.4.54,4.85,0.71,5.81a0.19,0.19,0,0,0,0,.17,0.06,0.06,0,0,0,0,.06c0.43,0.94.88,4.51,1.19,5.22s1,3.83,2,6.07l-5.41.85c-5.44.74-6.77,0.62-7.4,0.17s-1.16-.11-1.64-0.31a4.27,4.27,0,0,0-2.64.11,5.2,5.2,0,0,1-3.06.11,1.1,1.1,0,0,0-1.36,0c-0.37.37-.91-0.26-1.53-0.26a1.3,1.3,0,0,1-1-1.47c0-.74.74-1,1.42-2.21a7.15,7.15,0,0,0,.79-3.91A4.69,4.69,0,0,1,25.65,107.38Z" style="fill: #999"/>
  </g>
</svg>
