<svg id="city_sdvin" data-name="sdvin" xmlns="http://www.w3.org/2000/svg" width="52.5mm" height="52.5mm" viewBox="0 0 148.82 148.82">
    <g
        transform="matrix(0.0283466687,0,0,0.0283466716,-446.765551,-892.8036314)"
        style="clip-rule:evenodd;fill-rule:evenodd;image-rendering:optimizeQuality;shape-rendering:geometricPrecision;text-rendering:geometricPrecision"
        id="sdvin">
        <path
            id="path2880"
            class="fil3"
            d="m 18839,32848 c 0,0 67,-58 107,-177 40,-118 109,-179 109,-179 95,-108 271,-111 317,31 0,0 74,273 122,421 48,147 149,412 149,412 46,142 -98,242 -238,211 0,0 -91,-8 -194,-81 -102,-72 -195,-80 -195,-80 -137,-5 -166,112 -56,188 -4,-2 76,46 201,47 125,2 204,48 204,48 132,58 189,223 68,311 0,0 -236,155 -362,246 -125,91 -346,269 -346,269 -121,88 -261,-18 -275,-161 0,0 -20,-90 18,-209 37,-120 16,-210 16,-210 -38,-133 -158,-124 -196,4 0,-4 -20,87 17,206 37,119 17,209 17,209 -14,143 -154,249 -275,161 0,0 -220,-177 -346,-269 -125,-91 -362,-246 -362,-246 -121,-88 -63,-253 68,-311 0,0 79,-46 204,-48 126,-1 205,-49 205,-49 115,-77 70,-189 -64,-186 4,0 -89,8 -191,80 -102,73 -193,81 -193,81 -141,32 -284,-69 -238,-211 0,0 100,-265 148,-412 48,-148 122,-421 122,-421 47,-142 222,-139 317,-31 0,0 69,61 109,179 40,119 110,180 110,180 109,85 201,7 157,-119 1,4 -35,-82 -135,-157 -101,-74 -137,-158 -137,-158 -73,-124 -22,-292 128,-292 0,0 282,14 437,14 155,0 438,-14 438,-14 149,0 200,168 128,292 0,0 -37,84 -137,158 -101,75 -137,161 -137,161 -47,129 52,196 161,112 l 0,0 z m -371,70 c 0,-45 37,-82 82,-82 46,0 82,37 82,82 l -164,0 z m -242,26 c -27,-37 -18,-88 18,-115 37,-27 88,-18 115,18 l -133,97 z m -181,163 c -43,-14 -67,-61 -53,-104 14,-43 61,-67 104,-53 l -51,157 z m -51,238 c -43,14 -89,-10 -103,-53 -14,-43 9,-89 53,-103 l 50,156 z m 99,222 c -26,37 -78,45 -114,18 -37,-26 -45,-78 -19,-114 l 133,96 z m 211,122 c 0,45 -37,82 -82,82 -45,0 -82,-37 -82,-82 l 164,0 z m 242,-25 c 27,36 19,88 -18,114 -36,27 -88,19 -114,-18 l 132,-96 z m 181,-163 c 43,14 67,60 53,103 -14,43 -60,67 -103,53 l 50,-156 z m 51,-238 c 43,-14 89,9 103,52 14,43 -9,90 -52,104 l -51,-156 z m -99,-223 c 27,-37 78,-45 115,-18 36,27 45,78 18,115 l -133,-97 z m -558,264 c 0,-147 119,-266 265,-266 147,0 266,119 266,266 0,146 -119,265 -266,265 -146,0 -265,-119 -265,-265 z"
            style="fill:#ffcc00" />
        <path
            id="path2941"
            class="fil4"
            d="m 16551,35396 c 0,182 182,364 365,364 l 1094,0 c 182,0 365,199 365,365 0,-166 182,-365 364,-365 l 1095,0 c 182,0 364,-182 364,-364 l 0,-256 c 0,0 -105,-73 -166,-73 -60,0 -165,73 -165,73 0,0 -106,73 -166,73 -60,0 -166,-73 -166,-73 0,0 -105,-73 -166,-73 -60,0 -165,73 -165,73 0,0 -106,73 -166,73 -61,0 -166,-73 -166,-73 0,0 -105,-73 -166,-73 -60,0 -166,73 -166,73 0,0 -105,73 -165,73 -61,0 -166,-73 -166,-73 0,0 -106,-73 -166,-73 -60,0 -166,73 -166,73 0,0 -105,73 -166,73 -60,0 -165,-73 -165,-73 0,0 -106,-73 -166,-73 -60,0 -166,73 -166,73 0,0 -105,73 -166,73 -60,0 -165,-73 -165,-73 0,0 -106,-73 -166,-73 -61,0 -166,73 -166,73 l 0,256 z"
            style="fill:#999999" />
    </g>
</svg>