<?xml version="1.0" encoding="UTF-8" standalone="no"?>
<svg
    xmlns:dc="http://purl.org/dc/elements/1.1/"
    xmlns:cc="http://creativecommons.org/ns#"
    xmlns:rdf="http://www.w3.org/1999/02/22-rdf-syntax-ns#"
    xmlns:svg="http://www.w3.org/2000/svg"
    xmlns="http://www.w3.org/2000/svg"
    version="1.1"
    id="related-event"
    preserveAspectRatio="none"
    viewBox="0 0 340 54">
<path
    d="m 332.4645676,47.67350376 c -0.129921,-0.25510923 -0.4114175,-0.73343854 -0.4114175,-0.73343854 -0.5846454,0.51021812 -0.3897637,0.0318886 -0.4114172,0.0637775 0.1515746,-0.1594431 2.5767717,-2.32787013 2.2519685,-2.32787013 -0.2814962,-0.98854758 -1.7322835,-2.48731327 -2.5984252,-3.50774947 0.1299209,-0.1594431 0.3464567,-0.47832949 0.3464567,-0.47832949 l 0.9311024,-0.98854757 c -0.1948819,0.89288169 -0.021654,0.73343853 1.1476376,1.62632022 -0.021654,-0.86099304 -0.086613,-1.30743389 0.6279529,-2.16842696 0.3031497,-0.0318886 0.8661418,-0.0956659 0.8661418,-0.0956659 -0.064961,-0.0637775 -0.2165356,-0.1594431 -0.2165356,-0.1594431 l 0.8444885,-0.95665895 -0.1082675,1.84954061 -0.5629922,0.60588403 0,0 c -1.0177165,0.57399535 -1.0177165,0.51021811 -1.0393701,0.47832947 -0.1299209,0.19133199 -0.3464566,0.51021811 -0.3464566,0.51021811 0.5413386,0.4145522 1.6673228,1.27554526 1.6673228,1.27554526 0.1515745,-0.54210676 1.0393702,-1.59443157 1.0393702,-1.59443157 -0.1082675,-0.73343856 -0.3031497,-2.16842696 -0.3031497,-2.16842696 0.9744095,-2.00898383 0.9094487,-2.04087245 0.996063,-1.94520653 0.3031497,0.82910439 -0.129921,2.58297915 -0.129921,2.55109053 0.064961,-0.0318886 0.064961,0 0.064961,0 0,0.12755448 -0.1082676,0.4145522 -0.1082676,0.4145522 l 0,0 c -0.043307,0 -0.064961,0.0637775 -0.064961,0.0637775 0,-0.0318886 0,-0.0318886 0,-0.0318886 -0.021654,0 -0.064961,0 -0.064961,0 0.043307,-0.0637775 0.1299209,-0.19133172 0.1299209,-0.19133172 -0.8011809,-0.92477034 -0.173228,0.38266358 -0.1299209,0.47832946 -0.021654,0.1594431 -0.1082675,0.51021811 -0.1082675,0.51021811 0.5846456,-0.7334385 1.7322835,-2.20031557 1.7322835,-2.20031557 0,-1.14799076 -0.4114176,-3.38019496 -0.4114176,-3.38019496 -0.1732279,-0.76532718 0.2814961,-1.1798794 -1.2559053,-1.81765202 -1.2125985,-0.54210673 -0.129921,-2.83808822 -0.064961,-2.96564276 -0.2598425,-0.12755448 -0.6929134,-0.35077495 -0.6929134,-0.35077495 0.3031497,-0.0637775 0.8661418,-0.12755449 0.8661418,-0.12755449 0.1515745,-0.51021811 0.4547245,-1.59443157 0.4547245,-1.59443157 -0.064961,-0.35077496 -0.3464569,-0.47832949 -0.2165357,-0.89288172 -0.281496,0.38266361 -0.8228346,1.14799076 -0.8011809,1.14799076 -1.5807088,0.86099304 -1.5807088,0.89288169 -1.5590551,0.82910442 0.129921,-0.54210673 1.5590551,-1.59443157 1.5590551,-1.56254295 0.064961,0.44644084 0.1082675,0.12755448 0.1515746,-0.1594431 0.2165354,-0.15944311 0.6496062,-0.47832947 0.6496062,-0.47832947 0.7362205,-0.82910442 0.7362205,-0.7972158 0.8011811,-0.76532715 0.086614,-0.35077496 0.2814961,-1.05232485 0.2814961,-1.05232485 -0.9094488,0.44644085 -0.3464567,0 -0.2814961,-0.0318886 0.1515746,0.19133172 0.1515746,0.0318886 0.173228,-0.0318886 0.5413387,-0.63777264 0.3681104,-1.4030998 0.3464567,-2.04087245 0.7795268,-1.11610289 1.2125978,-2.32787089 1.4940938,-3.443973 -0.6279529,0.70154989 -1.4291339,2.07276107 -1.4291339,2.07276107 0.2598425,0.12755448 0.4114173,0.25510896 -0.1299211,0.35077495 0.043307,0.0956659 0.1299211,0.28699767 0.1299211,0.28699767 -0.064961,-0.0637772 -0.2381889,-0.19133172 -0.2381889,-0.19133172 0.021654,0.1594431 0.2381889,0.1594431 0.1732279,0.47832949 -0.086614,-0.12755448 -0.2381889,-0.35077496 -0.2381889,-0.35077496 -2.1437008,2.0089838 -2.1220473,2.04087245 -2.1220473,1.91331791 0.086614,-0.63777264 -0.3897637,-1.46687707 -0.6279528,-2.13653833 -0.2814961,0.25510896 -0.9311023,0.73343853 -0.9311023,0.73343853 -1.6889763,2.13653834 -1.6240159,2.13653834 -1.7322836,2.07276107 0.1299211,0.92477031 0.021654,0.95665896 0.1299211,0.92477031 -0.173228,0.41455222 -0.5196849,1.24365665 -0.5196849,1.24365665 -0.043307,-0.0956659 -0.1299211,-0.28699769 -0.1299211,-0.28699769 -1.320866,0.76532718 -0.129921,-0.4145522 -0.1082674,-0.4145522 l -0.1732281,-0.44644085 c -0.021654,0.0637772 -0.064961,0.19133173 -0.064961,0.19133173 -0.3248033,-0.57399538 -0.9744095,-1.75387476 -0.9744095,-1.75387476 1.71063,-3.38019498 1.6023621,-3.44397225 1.7972441,-3.2845291 0.4763779,0.73343856 0.4330708,1.59443161 0.3897637,2.32787014 0.8661418,-1.08421346 2.0137797,-3.28452907 2.0137797,-3.28452907 0.4114172,-1.08421349 -0.2381892,-2.13653833 -0.2165357,-3.22075182 0.1299211,-0.605884 0.3464568,-1.24365662 0.5629922,-1.84954062 -0.3681101,0.82910442 -1.1476378,2.48731326 -1.1476378,2.48731326 -0.7795275,0.79721581 -2.3602363,2.39164738 -2.3602363,2.39164738 -1.6456693,0.86099307 -1.602362,0.89288169 -1.6240155,0.82910442 0.3248029,-0.605884 1.4940943,-1.211768 1.6240155,-1.75387473 -0.1515744,-0.28699769 -0.4547244,-0.86099307 -0.4547244,-0.86099307 -0.2165353,0.12755448 -0.6496062,0.38266358 -0.6496062,0.38266358 -0.2598425,0.12755448 -0.1732281,0.54210673 -0.1732281,0.51021811 -0.4114172,-0.25510896 -0.6496063,-0.35077495 -0.6929132,-0.63777264 l -0.4547245,1.05232487 0,-0.0318886 c -0.1948818,0.38266357 -0.5629921,1.17987935 -0.5629921,1.17987935 -0.4114174,0.54210676 -0.5629921,0.73343856 -0.7578742,1.33932256 -0.2381888,-0.51021811 0.6279529,-1.56254298 0.6279529,-1.56254298 0.064961,0.31888631 0.1082675,-0.1594431 0.129921,-0.19133173 -0.043307,0.0318886 -0.064961,0.0637772 -0.064961,0.0637772 0.4114173,-0.79721578 1.2559056,-2.39164738 1.2559056,-2.39164738 0.1732282,0.1594431 0.5846457,0.47832949 0.5846457,0.47832949 0.129921,-0.25510896 -0.4114173,-0.31888634 -0.5196851,-0.57399538 0.173228,-0.28699769 0.4547243,-0.92477031 0.4547243,-0.92477031 0.2381891,0.4145522 0.2381891,1.27554527 0.2381891,1.27554527 0.5629921,-0.57399538 0.2598425,-0.25510896 0.1082676,-0.76532718 0.9744095,-1.30743389 0.9744095,-1.211768 1.0393699,-1.11610212 0.2814963,-0.41455219 0.8228346,-1.27554526 0.8228346,-1.27554526 -0.7362203,-0.19133172 0.6279529,-2.0089838 0.5629924,-1.91331789 -0.2381891,-0.1594431 -0.6279528,-0.41455222 -0.6279528,-0.41455222 0.086613,-0.22322034 1.6889763,-3.730969914 1.5590551,-3.730969914 -0.086613,-0.797215802 -0.4980316,-1.690097491 -0.7795277,-2.487313266 -0.086613,-0.797215801 -0.6496062,-1.403099801 -1.9704722,-2.136538335 -1.3641734,-0.669661267 -2.8149608,-1.147990732 -5.1535434,-1.690097491 -2.4035435,-0.542106732 -4.5255908,-0.860993042 -7.5787402,-1.147990731 -3.226378,-0.28699769 -5.8031498,-0.414552198 -9.2677166,-0.414552198 0,0 -6.4960632,0.127554481 -6.4311025,0.127554481 -3.4429134,-0.06377724 -10.0255907,-0.127554481 -11.3681102,-0.127554481 0.6712597,0 1.7106297,0.03188862 1.6889762,0.03188862 -1.4291338,0.03188862 0.1515745,0 0.1948819,0 l 1.1259842,0.03188862 -2.6633858,0 c -1.7322836,-0.06377724 -1.5807087,-0.06377724 -1.4507873,-0.06377724 -0.6929135,0 -1.8405514,0 -2.4901576,0 -0.173228,0.03188862 0.1732279,0 0.3897638,0 l 0.952756,0.03188862 c -1.234252,0 -3.6377955,-0.03188862 -3.6377955,-0.03188862 -2.035433,0 -6.0629921,-0.03188862 -6.0629921,-0.03188862 1.6456694,0.06377724 4.893701,0.159443101 4.893701,0.159443101 1.4291336,0 4.222441,0.06377724 4.222441,0.06377724 -2.2736222,0.03188862 0.4114172,0 0.4980313,0 l 2.187008,0.06377724 C 287.6417316,1.403099046 279.413385,1.275544565 279.413385,1.275544565 c -0.4547244,-0.03188862 -0.3681102,-0.03188862 -0.3031495,-0.03188862 -1.1476379,0 -3.4429135,-0.06377724 -3.4429135,-0.06377724 -0.9527559,0.03188862 -9.7224411,0.06377724 -9.7007875,0 -11.5196851,-0.2869976894 -11.9960632,-0.6696612666 -23.9055119,0.31888631 0.5413384,0.03188862 -0.1515745,0.03188862 -0.2814961,0.03188862 -0.4114173,0.03188862 -1.2559055,0.09566586 -1.234252,0.09566586 0.6062993,0.03188862 1.8188976,0.06377724 1.8188976,0.06377724 -0.129921,-0.03188862 -0.3897637,-0.09566586 -0.3897637,-0.09566586 1.753937,0 3.6377953,-0.06377724 5.3700786,0 l -0.4763778,-0.03188862 2.5984251,0.03188862 c 1.4074806,0.09566586 1.472441,0.09566586 1.3425198,0.09566586 -0.8444881,0 -2.4901574,-0.06377724 -2.4901574,-0.06377724 -0.4980317,-0.06377724 0.1082675,0.03188862 -0.6929136,0 0.8228348,0.06377724 -2.0137794,0.223220341 -2.1870079,0.255108961 3.5295277,0.159443101 3.0964567,0.159443101 2.9665356,0.159443101 -1.4507875,-0.03188862 -2.8799214,-0.03188862 -4.3090551,-0.06377724 -0.194882,0 -0.5846458,0 -0.5846458,0 -0.064961,0 -0.1948819,-0.03188862 -0.1948819,-0.03188862 -0.8011809,-0.03188862 -2.4035433,-0.06377724 -2.4035433,-0.06377724 0.4330709,0.03188862 0.3248033,0.03188862 0.281496,0.03188862 -0.6712597,0 -2.0137794,-0.06377724 -2.1003937,-0.06377724 l 0.476378,0 c -0.3248031,0 -0.9527559,-0.03188862 -0.9527559,-0.03188862 -1.6456693,0.191331721 -4.8937007,0.542106732 -4.8937007,0.542106732 -0.996063,-0.06377724 -2.9881891,-0.159443101 -2.9881891,-0.159443101 1.5807085,-0.03188862 0.4547244,0 -0.757874,-0.09566586 0.086614,0.06377724 -1.4507875,0 -1.4507875,0 -0.238189,0.06377724 -0.6712597,0.159443101 -0.6712597,0.159443101 0.129921,0 0.3681102,0 0.3897637,0 -0.1948818,0 -0.5629922,0 -0.5629922,0 l 1.71063,0.03188862 -1.6240157,0 c 2.1653542,0.159443101 -0.8661418,0.03188862 -0.4763781,0.06377724 -0.086614,0.03188862 -0.3031496,0.06377724 -0.3031496,0.06377724 l 3.3562993,0.09566586 -6.5826772,-0.03188862 0.1732279,0 c -1.7755906,-0.06377724 -3.2696849,-0.03188862 -5.3917322,-0.09566586 -1.0826773,-0.09566586 2.511811,-0.03188862 2.1220473,-0.06377724 l -1.5374018,-0.06377724 0.086614,0 -1.4291337,-0.06377724 6.2362205,0.127554481 c -0.1515745,0 -0.433071,0 -0.4763779,0 l 0.3897637,0 -0.8661419,-0.06377724 0.8661419,0.03188862 c -0.2598425,-0.06377724 -0.7795277,-0.255108962 -0.7795277,-0.255108962 -1.1043307,0.03188862 -3.356299,0.03188862 -3.356299,0.03188862 0.562992,0.09566586 -1.4291339,0.03188862 -1.4507874,0.03188862 l -2.187008,0 2.187008,0.03188862 -0.1732281,0 c 0.5413387,0 1.6240158,0.03188862 1.6240158,0.03188862 -3.2263779,0 -9.7007875,0.06377724 -9.7007875,0.06377724 l 8.9212599,0.223220342 -1.8405511,0 c 0.3248032,0 0.4114173,0 0.8877951,0 -0.2598425,0.03188862 9.5492127,0.414552224 9.3110237,0.414552224 -0.194882,0 -0.5629921,0 -0.5629921,0 -1.6889764,0.09566586 0.4980316,0.03188862 1.2342521,0.03188862 4.6122047,0.191331721 13.8366143,0.605884 13.8366143,0.605884 -0.064961,0 -0.1948819,0 -0.1948819,0 0.2598423,0 0.7578739,0.03188862 0.7578739,0.03188862 -0.4980316,0 -1.5374016,0.03188862 -1.5374016,0.03188862 0.3031497,0 -0.2165352,0 -0.1948818,0 -2.3169291,0.03188862 -2.7716536,-0.06377724 -4.9803149,-0.06377724 -3.5295278,0 -10.5669294,0.03188862 -10.5669294,0.03188862 -3.1614173,-0.03188862 -9.5059054,-0.09566586 -9.5059054,-0.09566586 -2.901575,0.03188862 -8.7263783,0.09566586 -8.7263783,0.09566586 -0.6279526,0 -7.2972439,-0.159443101 -7.2972439,-0.159443101 -3.4862206,-0.06377724 -4.8720474,0 -8.2500003,0.127554481 -0.2165355,-0.03188862 -2.2952757,-0.06377724 -1.2559054,-0.127554481 -0.021654,0 -0.086614,0 -0.086614,0 1.4940944,0 4.5039371,-0.06377724 4.5039371,-0.06377724 -2.1003938,0 -6.2362207,-0.223220342 -6.2362207,-0.223220342 0.2381889,-0.03188862 0.7145671,-0.03188862 0.7578741,-0.03188862 -2.187008,0.03188862 -6.6259843,-0.06377724 -6.6043307,-0.06377724 -1.2125986,0.03188862 -3.6594489,0.03188862 -3.6594489,0.03188862 2.6850393,0.09566586 4.3090551,0.159443101 7.0157481,0.191331721 -0.4547244,0 -1.0610238,0.03188862 -1.5374016,0.03188862 0.5413386,0.03188862 2.0787401,0 2.1220472,0 l 3.0531496,0.06377724 -4.3090551,0 c -0.1732281,0.03188862 -1.9055119,0 -2.4035433,-0.03188862 -4.6338585,-0.12755448 -4.2874017,-0.12755448 -3.9409449,-0.12755448 -2.1653545,-0.06377724 -6.5177167,-0.09566586 -6.5177167,-0.09566586 -5.1751969,0 -15.5472442,-0.223220341 -15.5472442,-0.223220341 2.4468504,0.159443101 2.1653543,0.159443101 2.0137795,0.159443101 -2.7499999,0.03188862 -6.0629922,-0.06377724 -8.8346457,-0.127554481 0.714567,0 2.0787403,-0.03188862 2.2086615,-0.03188862 l -1.6240158,0 0.3681102,0 -2.7716535,0 c -0.238189,0 -1.4074803,0.09566586 -1.4507875,-0.03188862 l -1.2125983,0 0.173228,0 -0.173228,0 -0.021654,0 -1.9271654,0 c -0.324803,0 -1.4291339,-0.03188862 -1.4291339,-0.03188862 0.7362205,-0.03188862 2.3169293,0 2.2952756,0 -0.6279526,0.03188862 0.2814962,0 0.4763782,0 0.5413386,0 1.6456693,0 1.6456693,0 0.086614,0 0.281496,0 0.281496,0 0.324803,0.03188862 0.2165353,0.03188862 0.086614,0 -0.064961,0 -0.1948819,0 -0.1948819,0 0.086615,0 0.043307,0 0,0 0.129921,0 0.3897638,0 0.3897638,0 l -1.1476379,-0.03188862 3.0748033,0 c -0.2381892,0 -0.8228346,0 -0.194882,-0.03188862 2.2519685,0 6.7125985,0.09566586 6.7125985,0.09566586 -0.1732281,-0.03188862 0.4114175,-0.03188862 0.3897637,-0.03188862 2.3602364,-0.03188862 7.2322836,0.06377724 7.1889767,0.06377724 1.0610234,0 3.1830706,0 3.1830706,0 -0.6929132,0 -1.9921258,-0.03188862 -2.1003935,-0.06377724 l 6.7992127,0 c -3.4212601,0 -10.2637798,-0.06377724 -10.2637798,-0.06377724 -3.0314959,-0.03188862 1.1259843,0 0.6712599,0 -1.4074803,-0.06377724 -2.1003937,-0.03188862 -3.4645671,-0.03188862 -1.797244,-0.06377724 -1.8622045,-0.06377724 -1.7322835,-0.06377724 0.7578742,-0.03188862 2.143701,0 2.5767717,0 l -3.0531491,-0.06377721 c -8.8996064,-0.127554484 -9.0944883,-0.127554484 -8.5314961,-0.127554484 4.3307086,-0.06377724 13.2952756,0.03188862 13.2303149,0.03188862 -0.043307,0 -0.1948818,0 -0.1948818,0 0.6279527,0 1.8188977,0 1.992126,0.03188862 l -0.064961,0 3.3346456,0 -0.1299209,0 1.5807085,0.03188862 -6.4094488,0 c 0.3897639,0 -0.064961,0.03188862 0,0.03188862 -0.3248031,0 0.4763781,0 0.6712599,0 l 0.476378,0 -4.1358269,0 c 4.655512,0.06377724 13.9232285,0.223220341 13.9232285,0.223220341 l 2.2952757,0 2.6850393,0 c -0.8877953,-0.03188862 -10.1771655,-0.06377724 -10.155512,-0.09566586 l -0.5846456,-0.03188862 c -0.2598425,-0.03188862 -0.1948818,-0.03188862 -0.1948818,-0.03188862 -0.7795277,0 0.2598425,-0.03188862 0.1082675,-0.03188862 0.8228347,0 2.4901575,0.03188862 2.4901575,0.03188862 l -2.1003937,-0.06377724 15.2440945,0.09566586 c 1.1909449,0.03188862 3.5511811,0.06377724 3.5511811,0.06377724 -1.0177164,0.03188862 0.1515746,0 0.194882,0 l 0.9527559,0.03188862 -2.1003937,0 c 1.7755905,0.03188862 1.9704724,0.03188862 3.746063,0.03188862 -0.8877952,-0.06377724 -0.8877952,-0.06377724 -0.8661419,-0.06377724 -4.4389762,-0.09566586 -4.2007873,-0.09566586 -4.027559,-0.09566586 -0.043307,0 -0.1082675,-0.03188862 -0.1082675,-0.03188862 1.4074804,0 4.222441,-0.03188862 4.222441,-0.03188862 -0.6062991,-0.03188862 -1.8188975,-0.06377724 -1.8188975,-0.06377724 0.086615,0 0.281496,0 0.281496,0 -0.6062993,0 -1.8188976,-0.03188862 -1.8188976,-0.03188862 l -3.0531498,-0.09566586 0.1732281,0 -1.4291339,-0.06377724 5.9330711,0.09566586 -0.086614,0 c 1.5374015,0.03188862 4.6122047,0.09566586 4.6122047,0.09566586 0.064961,-0.03188862 0.1948819,-0.03188862 0.1948819,-0.03188862 -2.2952756,-0.127554481 -0.064961,-0.127554481 0.4763779,-0.127554481 0.086614,0 0.281496,-0.06377724 0.281496,-0.06377724 -2.035433,-0.03188862 -6.1496063,-0.191331722 -6.1496063,-0.191331722 -4.4822834,-0.09566586 -13.3385826,-0.350774957 -13.6200787,-0.350774957 0.324803,0 0.9527558,0 0.9527558,0 1.1259843,0 3.2913387,0 3.6161417,0 l -0.064961,0 c 0.519685,0.03188862 1.5374016,0.03188862 1.5374016,0.03188862 5.0019687,-0.09566586 -0.021654,-0.03188862 -0.281496,-0.03188862 -2.6200786,-0.03188862 -7.8818898,-0.03188862 -7.8602363,-0.03188862 -2.2303149,-0.06377724 -4.2874014,-0.191331721 -6.5393702,-0.223220341 -4.5905511,-0.159443101 -4.8937007,-0.127554481 -4.6122047,-0.159443101 2.3385828,0 4.8720474,0.06377724 7.2106299,0.09566586 5.1535435,-0.03188862 15.4389767,0.06377724 15.4389767,0.06377724 -6.6043309,0.127554481 0.9527557,0 1.4507874,0 1.1259843,0 3.3562991,0.03188862 3.3562991,0.03188862 l -2.4901574,-0.06377724 c 0.6496063,0 1.9271654,-0.03188862 1.9055117,-0.03188862 -1.0826771,-0.03188862 -3.2480315,0 -3.2480315,0 l -6.5393701,-0.223220341 3.746063,0.03188862 c -5.9547245,-0.1594431 -11.6496063,-0.2869976892 -17.647638,-0.3188863364 1.0610237,0.095665861 1.0826773,0.095665861 1.0393702,0.095665861 0.1082675,0 0.3031496,0 0.3031496,0 -0.1082675,0.03188862 -0.3031496,0.03188862 -0.3031496,0.03188862 0.6712597,0 2.0354331,0 2.0354331,0 l 3.3346456,0.03188862 -0.1515744,0 1.6023622,0 c -6.2795277,0.03188862 -11.6279528,0.06377724 -17.9507875,0 -0.021654,0 -0.086613,0.06377724 -0.086613,0.06377724 -1.0826771,-0.03188862 -3.2696851,-0.09566586 -3.2696851,-0.09566586 -0.6279526,0 -1.9271654,0 -1.9271654,0 -1.2992126,-0.03188862 0.2814961,0 0.5846458,0 -1.429134,-0.063777241 -0.064961,-0.1275544838 -0.086614,-0.1275544838 -6.9507874,-0.03188862 -20.8307089,-0.09566586 -20.8307089,-0.09566586 -6.1496063,-0.06377724 -11.3681103,-0.350774957 -17.3877953,-0.5102181119 -0.1515745,0 -1.1909449,0 -1.0393702,-0.06377724 C 104.5826776,0.1275544852 101.2696854,4.433289291e-9 99.34252007,4.433289291e-9 95.48818935,0.095665865 91.69881929,0.095665865 87.82283507,0.095665865 c 0.64960628,0 1.92716537,0.0318886202 1.92716537,0.0318886202 3.72440935,0.2232203413 3.9625984,0.2232203413 3.63779518,0.2232203413 -2.29527561,-0.03188862 -6.86417332,-0.2232203413 -6.99409449,-0.2232203413 3.55118117,0 -0.41141743,-0.0318886202 -0.47637793,-0.0318886202 -2.2303151,-0.0637772404 -3.39960632,-0.0318886202 -5.56496073,0.0637772404 1.03937002,0.03188862 3.16141745,0.1275544807 3.16141745,0.1275544807 0.41141723,0.03188862 -0.1082675,0.03188862 -0.1082675,0 -1.1692914,0 -2.46850398,-0.03188862 -3.63779537,-0.095665861 1.1909449,0 -0.21653555,0 -0.28149605,0 -4.52559071,0.1913317211 -13.44685055,0.7653271815 -13.44685055,0.7653271815 1.27755907,0.03188862 3.83267722,0.06377724 3.83267722,0.06377724 2.87992121,0.191331721 2.98818889,0.191331721 2.70669285,0.191331721 -1.92716537,-0.03188862 -3.87598424,-0.06377724 -5.75984242,-0.09566586 2.14370073,-0.191331724 -2.29527561,-0.06377724 -2.98818908,-0.03188862 1.40748027,0.09566586 1.29921259,0.09566586 1.25590559,0.09566586 -3.4429135,-0.03188862 -1.34251976,-0.09566586 -5.47834654,0.159443101 3.63779535,0.159443101 3.20472443,0.159443101 3.07480306,0.159443101 -1.47244093,0 -2.94488188,-0.03188862 -4.41732282,-0.06377724 -0.77952748,0.03188862 -14.00984266,1.860993042 -14.00984266,1.765327154 0.043307,-0.191331721 7.40551191,-1.829104422 8.44488211,-1.924770309 -2.49015766,-0.06377724 -7.49212609,0.776779659 -7.49212609,0.776779659 -2.16535442,0.223220341 0.41141724,0.12755448 0.38976373,0.1594431 1.60236232,0.06377724 1.64566932,0.06377724 1.53740164,0.06377724 -0.80118116,0 -2.40354329,-0.03188862 -2.49015748,-0.03188862 0.6496063,0 -0.043307,0 -0.58464578,-0.03188862 -3.20472444,0.446440845 -9.39763777,0.371211154 -9.39763777,0.371211154 0.69291328,0 2.10039373,0.03188862 2.10039373,0.03188862 -1.81889768,0.06377724 0.23818886,0 0.30314955,0 l 1.51574812,0.03188862 c -1.51574812,0 -2.75,0.03188862 -4.30905514,0 -0.32480324,0.06377724 -0.95275603,0.159443101 -0.95275603,0.159443101 4.13582679,0 12.36417335,1.06377724 12.36417335,1.06377724 -6.71259843,0.127554481 1.10433071,0 1.45078745,0 2.40354328,0.03188862 7.18897635,-0.93622276 7.18897635,-0.93622276 -7.53543309,0.03188862 -14.18307084,0.09566586 -21.78346463,0 -0.69291346,0.127554481 -7.73031513,1.403099801 -5.56496071,1.753874759 2.64173233,-0.06377724 26.00590577,-0.765327182 26.00590577,-0.765327182 0.19488187,0.127554481 3.81102354,0.09566586 4.61220469,0.09566586 -8.76968517,0.223220341 -26.28740182,0.669661267 -26.28740182,0.669661267 0.82283466,0 2.49015748,0.03188862 2.49015748,0.03188862 1.753937,0.12755448 1.60236232,0.12755448 1.53740162,0.12755448 -1.23425189,0 -3.65944886,-0.12755448 -3.65944886,-0.12755448 1.97047255,0 -0.21653536,0 -0.28149606,0 -0.41141723,0 -1.25590557,0 -1.25590557,0 5.93307097,0.191331721 17.75590571,0.605884026 17.75590571,0.605884026 0.43307091,0 1.25590557,0 1.25590557,0 -1.90551186,-0.09566586 1.49409445,-0.191331721 1.7322835,-0.223220341 -1.55905512,-0.350774957 7.49212591,-0.159443101 7.49212591,-0.159443101 6.19291352,0.127554481 12.55905522,0.478329465 18.62204754,0.573995352 0.129921,0.09566586 4.33070865,0.191331721 5.56496055,0.223220342 -0.10826751,0 -0.19488188,0 -0.30314955,0 1.6240158,0.03188862 5.17519679,0.223220341 5.08858281,0.223220341 0.23818886,-0.03188862 1.14763769,-0.09566586 1.25590538,-0.09566586 -1.79724399,-0.06377724 -0.99606303,-0.06377724 -0.86614166,-0.06377724 -0.67125997,-0.03188862 -2.01377955,-0.06377724 -2.01377955,-0.06377724 8.0551182,-0.09566586 -1.01771652,-0.03188862 -1.25590557,-0.03188862 l -6.51771657,-0.223220341 1.14763789,0.03188862 C 77.92716588,5.452955811 79.20472477,5.421067191 79.486221,5.421067191 75.41535472,5.389178571 67.16535466,5.165958229 67.18700835,5.165958229 72.51378002,5.134069609 66.38582718,5.102180989 66.14763814,5.102180989 l -4.89370076,-0.159443101 10.9350394,0.191331721 8.05511819,0.28699769 c 4.30905514,0 8.81299218,0.06377724 12.97047263,0.06377724 1.08267702,0.03188862 3.24803145,0.03188862 3.24803145,0.03188862 0.5196851,0 1.53740163,0 1.53740163,0 -3.20472445,0.03188862 -9.59251983,0.06377724 -9.59251983,0.06377724 1.62401582,0 4.89370076,0.03188862 4.89370076,0.03188862 2.62007884,0.06377724 7.88188979,0.255108961 7.86023629,0.255108961 2.5551182,0.06377724 8.0551182,0.03188862 8.2500001,0.03188862 l -0.3681102,0.03188862 1.7322835,0 -2.7716536,0.03188862 c 2.8799213,-0.03188862 8.444882,0.03188862 8.7913387,0.03188862 l -1.4291339,0 c -0.4980314,0.03188862 -0.6929134,0.03188862 -0.6496063,0.06377724 l -90.3169298,0 0,7.90838067 c -2.68503953,0.76532724 -8.16338589,2.16842704 -8.16338589,2.16842704 -0.173228,1.56254295 -0.5196851,4.6238516 -0.5196851,4.6238516 0.173228,0.51021811 0.5196851,1.49876571 0.5196851,1.49876571 -0.71456697,1.27554527 -0.71456697,0.79721578 -0.73622047,0.70154989 -0.25984255,1.75387476 -0.82283465,5.26162427 -0.82283465,5.26162427 0.1515745,0.19133173 0.41141723,0.57399536 0.41141723,0.57399536 -0.71456697,-0.6696613 -2.18700791,-1.94520656 -2.18700791,-1.94520656 C 12.66338584,25.16013021 10.0649605,6.569057895 10.0649605,6.569057895 c 0.043307,-0.542106759 0.38976392,-0.988547603 1.29921258,-1.466877068 0.93110252,-0.510218112 1.92716536,-0.829104422 3.52952767,-1.211767999 1.66732282,-0.382663577 3.11811026,-0.605884 5.24015749,-0.797215802 2.23031492,-0.223220341 4.09251979,-0.31888631 6.49606307,-0.31888631 -2.44685047,0 -4.22244097,0.09566586 -6.49606307,0.28699769 C 18.01181101,3.284528747 16.53937007,3.507749251 14.87204725,3.890412828 13.22637794,4.273076405 12.25196842,4.591962715 11.32086608,5.070292207 10.41141724,5.580510292 10.043307,5.995062516 10,6.569057895 l 1.16929121,24.936910025 c 0.1082675,2.71053372 0.84448834,5.16595836 2.18700792,7.87649205 0.88779534,1.65820885 2.16535441,3.31641769 2.59842533,4.97462656 0.30314955,1.53065431 -0.58464579,1.97709515 -1.27755908,3.38019495 -0.043307,0.0956659 -0.086614,1.14799074 -0.086614,1.14799074 0.0216535,0.3826636 0.32480306,0.70154988 0.99606303,1.05232484 0.69291329,0.35077496 1.40748026,0.605884 2.59842515,0.86099307 1.1909449,0.25510896 2.27362211,0.44644084 3.81102356,0.57399535 1.6023623,0.1594431 2.90157488,0.22322061 4.63385837,0.22322061 0.0216535,0 5.58661423,-0.12755448 5.50000005,-0.12755448 1.29921257,0.0956661 2.40354329,0.12755448 3.74606304,0.0956661 2.05708656,-0.0956661 3.35629913,-0.22322061 5.56496074,-0.25510923 3.20472444,0.0956659 3.07480306,0.0956659 2.96653538,0.0956659 7.49212609,0.0637775 5.58661423,0.25510896 14.20472452,0.0637775 1.19094491,0 2.18700792,1.0318886 3.37795282,0.9681114 -0.0649604,0 -0.19488187,0 -0.19488187,0 2.51181097,-0.0318886 1.84055118,0.0318886 3.91929123,-0.1594431 -0.129921,0 -0.36811024,0 -0.36811024,0 l 1.71062999,-0.0956659 c -2.38188977,0.0956659 -2.55511814,0.0956659 -4.98031492,0.0637775 0.69291328,-0.0318886 2.10039373,-0.0956659 2.10039373,-0.0956659 1.1043307,0 3.26968493,0 3.26968493,0 0.45472443,-0.0318886 1.34251977,-0.0637775 1.34251977,-0.0637775 0.129921,0.0318886 0.38976373,0.0956659 0.38976373,0.0956659 7.77362215,0.0637775 -1.60236212,0.0956659 0.38976373,0.0956659 0.0216535,0 0.086614,0.0318886 0.086614,0.0318886 1.06102371,0 3.29133862,0.0318886 3.26968512,0.0318886 0.47637792,-0.0318886 1.42913396,-0.0318886 1.42913396,-0.0318886 0.25984236,0 0.77952745,0.0318886 0.77952745,0.0318886 0.93110236,0.0318886 2.8799214,0.0956659 2.8799214,0.0956659 0.32480305,0 0.95275583,-0.0318886 0.95275583,-0.0318886 5.67322842,0.22322061 5.19685051,0.22322061 4.80708658,0.25510923 1.88385837,0.0637772 5.65157491,0.22322061 5.65157491,0.22322061 -5.71653541,0.0637775 0.25984256,0.0637775 2.40354329,0.0637775 -1.32086608,-0.1594431 0.10826749,-0.0956659 0.38976373,-0.0956659 1.29921277,0 3.91929141,-0.0318886 3.91929141,-0.0318886 -1.97047236,-0.12755448 -2.03543304,-0.12755448 -1.90551186,-0.12755448 0.71456697,0 2.2086616,0.0956659 2.2086616,0.0956659 l 0.75787397,0.0318886 c -2.3169291,-0.31888633 -0.34645673,-0.25510896 0.30314956,-0.25510896 1.47244095,0.0318886 4.41732283,0.12755448 4.39566933,0.12755448 0.3681102,0 1.0610237,-0.0318886 1.0610237,-0.0318886 0.1082675,0 0.021653,0.0318886 0,0.0318886 0.043307,0 0.1082675,0.0318886 0.1082675,0.0318886 1.5374015,0.0637775 0.6062991,0.0637775 0.2814961,0.0318886 -0.2381891,0 -0.714567,0.0318886 -0.7578742,0.0318886 1.2775591,0 3.7244095,0.0956659 3.7244095,0.0956659 0.1732281,-0.0318886 0.4980315,-0.0318886 0.476378,-0.0318886 -1.3858268,-0.0956659 -0.021653,-0.1594431 0.1948818,0 0.3897639,0 1.0826772,0 1.2342521,0 -0.129921,0 -0.3681102,0.0318886 -0.3681102,0.0318886 10.6102363,0.19133173 -8.07677172,0.0956659 -6.6259843,0.0956659 2.3385826,0.191332 10.8267718,0.15944311 10.1771654,0.15944311 -0.6496065,-0.0637775 0.801181,0 0.6712598,0 0.4114173,0 1.2559055,0 1.2559055,0 1.0826771,0.0956659 3.269685,0.31888631 3.269685,0.31888631 0.7578742,-0.0318886 2.2952757,-0.0637775 2.2952757,-0.0637775 -0.5413386,-0.0637775 -1.6240157,-0.12755449 -1.6240157,-0.12755449 -0.4330709,-0.0637775 -2.1220474,-0.0637775 -2.2952756,-0.0637775 1.1909449,-0.0956659 1.5157479,-0.1594431 2.8582677,-0.1594431 -1.5590552,-0.0318886 -4.6988191,-0.0956659 -4.6988191,-0.0956659 -1.6673228,-0.0637775 -5.0019684,-0.12755448 -4.9803149,-0.12755448 -2.4901574,-0.0956659 -3.3779528,-0.12755448 -6.0629921,-0.19133199 0.5413386,0 1.6456693,-0.0318886 1.6456693,-0.0318886 -0.8444882,-0.0318886 -2.511811,-0.12755448 -2.511811,-0.12755448 -2.16535439,0 -6.51771672,-0.12755448 -6.51771672,-0.12755448 -0.45472443,0 -1.34251958,0 -1.34251958,0 l 0.47637791,0.0637775 c -1.79724416,-0.0637775 -5.37007884,-0.0637775 -5.37007884,-0.0637775 0.19488205,0.0318886 0.58464577,0.0637775 0.56299229,0.0637775 -1.55905513,-0.0637775 -4.69881908,-0.0956659 -4.69881908,-0.0956659 0.41141742,0.0318886 1.21259858,0.0956659 1.25590558,0.0956659 -3.4429135,0 0.45472442,0.0318886 0.5629921,0.0318886 0.64960629,0.0318886 1.92716536,0.12755448 1.92716536,0.12755448 1.49409445,0.0637772 2.03543306,0 4.02755911,0.0956659 0.38976374,0 0.41141742,0.0318886 0.1082675,0.0318886 -1.12598421,0.0318886 -2.90157489,0 -4.0275591,-0.0318886 1.66732281,-0.0637775 0.56299209,-0.0637775 0.36811024,-0.0318886 0.0649605,0 0.19488185,0 0.19488185,0 -0.45472442,-0.0318886 -1.64566931,-0.0318886 -2.40354327,-0.0318886 0.36811024,0 1.06102371,-0.0318886 1.06102371,-0.0318886 -1.6889765,-0.0318886 -5.08858281,-0.1594431 -5.08858281,-0.1594431 -1.29921258,-0.0637775 -1.62401581,-0.12755448 -3.07480307,-0.12755448 0.0216535,-0.0318886 0.51968491,-0.0318886 0.58464561,-0.0318886 -0.93110236,-0.0637775 -1.10433072,0 -2.01377956,0 -1.99212604,-0.0318886 -5.95472446,-0.0956659 -5.95472446,-0.0956659 0.32480324,0.0318886 0.99606302,0.0637775 1.0610237,0.0637775 l -4.02755909,-0.1594431 c -2.2952756,-0.0956659 -4.02755909,-0.0956659 -6.34448838,-0.22322061 2.03543324,0 2.92322838,0 4.89370094,0.0956659 -1.753937,0.0318886 -0.45472442,0 0.67125978,0.0318886 -0.0649606,-0.0318886 3.42125981,0.0956659 3.35629931,0.0956659 0.99606302,0 2.98818889,0 2.98818889,0 l -1.8188975,-0.0956659 c 0.84448817,0 2.59842515,0 2.57677166,0 -1.1476379,0.0637772 -0.62795279,0.0637772 -0.4763781,0.0637772 7.01574817,-0.0318886 13.20866168,-0.0318886 20.24606317,0.0637775 3.91929142,-0.0637775 11.71456705,-0.1594431 11.71456705,-0.1594431 0.6062993,-0.0956659 6.8208663,0 8.25,0.0318886 1.472441,0 4.4173228,-0.0318886 4.4173228,-0.0318886 -1.7106298,-0.0637772 -5.0669291,-0.19133172 -5.1751968,-0.19133172 4.1141733,0.0318886 7.5570867,0.1594431 11.7145671,0.1594431 5.1535433,0 15.5472441,0.22322061 15.5472441,0.22322061 -0.5629921,-0.0318886 -2.5984251,-0.12755448 -2.5984251,-0.12755448 0.6279528,0 1.9271653,-0.0318886 1.9271653,-0.0318886 2.4901575,0 7.4704725,0.12755448 7.4704725,0.12755448 -0.7145668,0.0318886 -2.1003936,0.0318886 -2.273622,0.0318886 l 1.3208661,0 c 0.9311023,0 2.793307,0 2.793307,0 4.893701,0.0637772 1.8622049,0.0637772 1.0393702,0.0637772 -0.6279527,0 -1.9055118,0.0318886 -1.9055118,0.0318886 0.4114174,0.0318886 0.238189,0.0318886 0.1948819,0.0318886 -2.2952757,0.0318886 -6.8208662,-0.0637775 -6.8208662,-0.0637775 0.6279528,0.0318886 -4.503937,-0.0318886 -5.0669293,-0.0318886 0.064961,0 0.173228,0 0.173228,0 -1.9488188,0 -5.8681103,-0.0318886 -5.8681103,-0.0318886 0.7362205,0.0318886 2.2086617,0.0637772 2.2086617,0.0637772 -7.2106301,0 0.9960627,0.0318886 1.2559053,0.0318886 0.6929135,0.0318886 2.1003938,0.0318886 2.1003938,0.0318886 0.3897637,0.0318886 0.3681102,0.0318886 0.2165355,0.0318886 l 2.6633858,0.0318886 c 1.797244,0.0637772 1.8622048,0.0637772 1.7322834,0.0637772 -0.4330708,0 -1.2342519,0 -1.8622047,0 l 2.3385827,0.0318886 c 8.2716536,0.1594431 5.1318899,0.1594431 4.3307087,0.1594431 1.1259842,0 3.3562994,0.0318886 3.3562994,0.0318886 4.8070865,0.1594431 4.9370077,0.12755448 4.6122047,0.1594431 -2.3385829,0 -4.8720474,-0.0637775 -7.2106301,-0.0956659 -2.07874,0.0318886 -6.2362206,0.0637772 -6.2362206,0.0637772 -4.2874016,0.0637775 -13.3169291,-0.0318886 -13.230315,-0.0318886 1.2125985,-0.0318886 3.6377954,-0.0637775 3.6377954,-0.0637775 -1.4940946,0 -4.7637795,0.0637775 -4.6988191,0.0637775 -1.8188976,-0.0318886 -5.4783464,-0.0637775 -5.4783464,-0.0637775 2.7283465,0 8.163386,-0.0318886 8.163386,-0.0318886 -2.0570868,-0.0318886 -6.1496066,-0.0637775 -6.1496066,-0.0637775 3.0531498,-0.0318886 9.1161419,-0.0637772 9.1161419,-0.0637772 l 0.086614,0 -1.5157482,-0.0318886 c 6.4960632,0 6.5393703,0 6.3228347,-0.0318886 -0.043307,0 -0.4763778,0 -1.03937,0 1.3641733,0 4.1141733,0 4.1141733,0 -4.4389763,-0.0637775 -13.3385829,-0.22322061 -13.3385829,-0.22322061 -1.1909449,-0.0318886 -3.5511809,-0.0956659 -3.5511809,-0.0956659 -1.0393702,0 -3.0098427,-0.0318886 -3.3779528,-0.0318886 0.1515745,0 0.4114172,0.0318886 0.4114172,0.0318886 -0.5846457,0 -1.7322836,0.0318886 -1.7322836,0.0318886 1.5374017,0.0637772 1.2559056,0 2.5984254,0 0.9094489,0 2.7716535,0.0637772 2.7716535,0.0637772 l -2.6633858,0.0318886 c 0.8661416,0 10.0688978,0.0318886 10.0472442,0.0637772 l 0.5846456,0.0318886 c 0.5846457,0.0637772 0.2381891,0.0637772 0.194882,0.0637772 -0.8228348,0 -2.6200789,0 -2.5984253,0 l 2.2086614,0.0637775 -15.3523623,-0.12755448 c -1.2559055,-0.0318886 -2.511811,-0.0637775 -3.7460631,-0.0637775 l -0.8661417,-0.0318886 2.1220473,0 c -1.2342519,-0.0318886 -3.746063,0 -3.746063,0 0.173228,0 0.7578741,0.0318886 0.8661417,0.0318886 3.984252,0.1594431 0.5629922,0.1594431 -0.1082675,0.1594431 0.2165354,0.0318886 1.515748,0.0637775 1.5374017,0.0637775 2.2736219,0.0637772 5.6948819,0.0956659 7.8818899,0.19133172 3.312992,0.12755448 0.5846455,0.0956659 -0.5846459,0.0956659 l -0.8011811,0.0318886 -0.021654,0 c -0.7145668,0 1.2992128,0.0318886 1.1043308,0.0318886 2.2519685,0 3.5295276,-0.0318886 5.9547244,0 -0.021654,0 -0.086613,0 -0.086613,0 4.6338583,-0.0637775 5.8897639,-0.0637775 10.5452756,0.0318886 -1.5807086,0.0318886 -4.6988188,0.0956659 -4.8720472,0.12755448 1.8405511,0 5.4566931,-0.0956659 5.4566931,-0.0956659 0.4763778,0 1.4291337,0.0318886 1.4291337,0.0318886 1.2559055,0 3.746063,0.0318886 3.746063,0.0318886 -0.129921,0 -0.6279528,-0.0318886 -0.3681102,-0.0637775 -0.4330707,0 -1.2559054,-0.0318886 -1.2559054,-0.0318886 1.0177165,0 0.3464566,0 -0.2814961,0 l -1.5374016,-0.0318889 c 0.4330707,0 5.1968504,0 5.1751968,0.0318886 2.4468504,0.0637775 4.8503937,0.0956659 7.2972442,0.12755448 1.0826771,-0.0318886 3.2696851,-0.0318886 3.2696851,-0.0318886 l 9.9606299,-0.9043339 -0.086613,0 c 8.7913387,0 26.3956695,0.0637775 26.3956695,0.0637775 l 5.8681102,0 c 3.0964569,-0.0318886 9.4842522,-0.0318886 9.4842522,-0.0318886 0.3031496,0 0.8661417,-0.0318886 0.8661417,-0.0318886 0.1515745,0 0.3897639,0.0318886 0.3897639,0.0318886 1.9921259,0 5.8464567,-0.0318886 6.2145669,-0.0318886 -0.7145668,0 -2.9665355,-0.0956659 -2.7500001,-0.0956659 0.7578742,-0.0318886 2.2952757,-0.0956659 2.2952757,-0.0956659 0.021654,0.0318886 0.086613,0.0318886 0.086613,0.0318886 2.4035435,0.0637775 3.7027561,0.12755448 6.1496063,0.0956659 -1.1259841,0 -3.356299,-0.0318886 -3.356299,-0.0318886 2.6200786,-0.0318886 7.8602363,-0.12755448 7.8602363,-0.12755448 5.9330707,0.12755448 5.9980315,0.0956659 5.7598423,0.12755448 0.1732281,0 2.4901577,0 2.4901577,0 8.8996065,0 13.0137798,0.0637775 21.8051182,-0.0956659 1.0826771,0.0956659 3.2913386,0.31888634 3.3562993,0.31888634 l 0.086615,0 c 7.7736221,0.63777262 6.8425197,0.28699766 13.0570866,0.4145522 0.714567,0.0318886 1.5157481,0.0637775 2.2086617,0.12755448 -0.6929136,-0.0318886 -2.1003938,-0.0318886 -2.1003938,-0.0318886 0,0.0318886 0,0.0318886 0,0.0318886 0.9527559,0.0318886 1.7106298,0.0637772 2.6850392,0 1.5374017,0.0956659 4.5905514,0.25510896 4.698819,0.25510896 l -0.6712598,0 0.086613,0 c -0.6496063,-0.0318886 -3.2047244,0.12755448 -2.9665355,0.12755448 -0.064961,0.0318886 -0.1948819,0.12755448 -0.1948819,0.12755448 0.8011812,0 5.1535435,-0.0956659 5.5649608,-0.1594431 1.992126,0.12755448 8.3366141,0.51021808 9.7007874,0.79721577 2.0787402,0.35077496 12.3208662,-0.0637775 15.4389764,-0.0956659 -0.5629921,-0.0318886 -1.7106298,-0.0956659 -1.7106298,-0.0956659 0.6062992,0 6.0629921,-0.0318886 6.0629921,-0.0318886 1.515748,0 2.8149606,-0.0318886 4.2874018,-0.0956659 1.4074801,-0.0637775 2.6200786,-0.12755448 3.9409449,-0.25510923 2.7066927,-0.25510896 4.6555115,-0.54210673 6.7992125,-0.98854758 2.1220473,-0.47832946 3.4212599,-0.89288169 4.6771655,-1.49876569 1.2342518,-0.66966126 1.7755904,-1.21176802 1.883858,-1.91331791 l 0.1082676,-0.12755448 -0.021654,0.12755448 c -0.043307,0.73343856 -0.5413386,1.24365665 -1.7322835,1.91331791 -1.2125984,0.63777262 -2.5334644,1.08421347 -4.6338582,1.56254296 -2.1653545,0.47832947 -4.0925198,0.76532716 -6.8641732,1.05232485 -2.901575,0.25510923 -5.3051183,0.38266357 -8.444882,0.38266357 l -1.5590551,0 -0.6712601,0 2.2303152,0.0318886 c 3.1614172,0 5.5649606,-0.12755448 8.5098425,-0.38266357 2.7716535,-0.28699767 4.7421259,-0.57399538 6.9291339,-1.05232485 2.1220473,-0.47832946 3.4645669,-0.92477031 4.6988189,-1.56254295 1.2125985,-0.66966124 1.6889764,-1.21176798 1.7539372,-1.94520654 l 0.086613,-0.4145522 c 0.2598424,-0.25510896 0.7578741,-0.7972158 0.7578744,-0.79721585 z M 115.4744083,6.058839324 c 0.7362205,-0.03188862 1.8838584,-0.03188862 2.7716535,-0.06377724 l 4.8070867,0.06377724 z M 24.39960457,21.17405077 c -1.58070882,-0.0318886 -2.05708674,0.54210673 -3.4429135,0.89288169 -0.99606303,0.19133172 3.07480326,-4.11363351 3.22637794,-4.27307667 -0.10826751,-0.95665896 0.173228,-2.90186549 0.173228,-2.90186549 l 0.043307,0.0956659 z M 291.9291343,1.179878681 l -0.1515745,0 -0.064961,0 -0.021654,0 m -3.3562994,0 -0.043307,0 z m -0.043307,0 -0.433071,0 z m -69.9409455,0.924770229 0.021654,0 z m -1.1692914,0.350774957 -0.043307,0 -0.021654,0 m -28.0413388,0.605883999 0.021654,0 z m -30.3366144,-0.446440682 0.021654,0 0.064961,0 0.021654,0 0,0 m 6.4744096,-0.127554481 -0.043307,0 z m 8.4015748,0.286997689 0.194882,0 c -0.064961,0 -0.194882,0 -0.194882,0 z m 2.6850394,0 0.021654,0 z m -9.4625986,-1.72198611 -0.021654,0 z M 50.88188806,5.102180503 c 0,0 0.0216535,0 0,0 z m 57.12204764,0.860993014 -0.021653,0 z M 24.18306882,17.7938559 c 0.0216535,-0.0318886 0.0216535,-0.0318886 0,0 z m 42.87401614,34.38739746 0,0 0,0 0,0 m 35.53346494,0.60588399 -0.021653,0 z m 43.393701,-0.66966124 -0.021654,0 z m -8.4448819,0.0318886 c -0.064961,0 -0.064961,0 -0.021654,0 z m 0.086614,0.12755449 c -0.1732281,0 -0.4547245,0 -0.6712598,0 z m -0.6712598,0 -0.021654,0 -0.043307,0 -0.043307,0 m 3.3129921,0.0956659 -0.086614,0 -0.8228347,-0.0318886 0,0 m -6.452756,0.12755448 0.021654,0 z m -12.3858268,-0.41455223 -0.021654,0 -0.021654,0 -0.021654,0 m 1.4507875,0.1594431 -0.021654,0 z m -2.3818898,0.57399536 0.021654,0 m 12.6240159,0.19133172 -0.021654,0 z m 65.068898,-0.87244552 0.086614,0 c -0.043307,0 -0.086614,0 -0.086614,0 z m 16.9547244,-0.0637775 0.021654,0 z"
    style="fill:#999999"
    id="background-grey-path" />
</svg>