<?xml version="1.0" encoding="UTF-8" standalone="no"?>
<svg
    xmlns:dc="http://purl.org/dc/elements/1.1/"
    xmlns:cc="http://creativecommons.org/ns#"
    xmlns:rdf="http://www.w3.org/1999/02/22-rdf-syntax-ns#"
    xmlns:svg="http://www.w3.org/2000/svg"
    xmlns="http://www.w3.org/2000/svg"
    version="1.1"
    id="order-button-main"
    preserveAspectRatio="none"
    viewBox="0 0 240 54">
<g
    id="order-button-main-g">
<path
    clip-rule="evenodd"
    d="m 100.341,5.052 c 11.973,0.841 18.771,0.981 30.532,0.775 6.8,-0.025 13.63,-0.096 20.431,-0.153 -0.002,-0.018 1.86,0.106 2.031,0.112 1.844,0.052 1.758,-0.084 3.274,-0.153 -0.015,-0.082 2.723,0.165 2.935,0.173 -0.074,-0.002 1.284,0.122 1.749,0.102 0.02,-0.001 2.466,-0.505 2.71,-0.163 0.468,0.236 2.18,0.222 2.483,0.02 0.154,-0.192 2.031,-0.085 2.708,0.102 0,0 2.722,-0.338 2.879,-0.132 1.051,-0.163 1.703,-0.303 1.693,-0.215 0.13,0.212 1.045,0.23 1.466,0.174 0.217,-0.033 0.814,-0.116 1.017,-0.021 0.94,0.391 2.092,-0.014 2.483,0.021 1.388,-0.108 1.893,-0.108 2.708,0 0.064,0.001 0.236,0.009 0,-0.061 0.015,-0.128 1.617,-0.166 1.693,-0.041 0,0 0.564,0.027 0.847,0.041 0,0 1.128,-0.041 1.693,-0.061 0,-0.001 0.829,0.054 1.242,0.081 0.833,-0.086 1.437,-0.066 2.146,-0.255 -0.002,0 1.353,0.082 2.031,0.122 0,0 11.176,-0.293 11.176,-0.153 0,-0.062 9.67,0.221 9.678,0.215 2.236,0.094 3.914,0.313 5.927,0.777 1.547,0.372 2.685,0.756 3.968,1.302 0,0 0.694,0.337 0.715,0.331 1.424,0.726 2.289,1.361 3.089,2.275 0.753,0.942 1.037,1.694 1.033,2.701 -0.046,1.732 -0.061,3.453 -0.005,5.185 0.362,4.182 2.982,5.537 2.958,9.713 -0.003,1.136 -0.056,3.161 0.348,4.208 0.021,-0.003 0.431,0.93 0.477,1.059 0.541,-0.004 0.284,3.784 0.5,3.361 0,-0.059 -0.1,2.471 0.153,3.573 0.049,0.199 0.028,0.394 -0.01,0.594 -0.164,0.708 -0.623,1.364 -0.989,2.052 -0.218,0.478 -0.354,1.066 0.141,1.522 l -0.026,0.04 c -0.389,0.552 -0.809,1.015 -1.383,1.53 0,0 -2.037,0.879 -3.192,1.238 0.002,-10e-4 -0.053,0.021 -0.053,0.021 -2.088,0.796 -3.861,1.262 -6.407,1.66 -2.561,0.353 -4.59,0.458 -7.244,0.352 -9.47,-0.399 -16.256,-0.427 -25.79,-0.274 -15.867,0.166 -74.037,-0.545 -73.143,-0.285 -3.927,-0.111 -9.075,0.304 -12.869,0.693 0,0 2.259,-0.122 3.387,-0.184 -0.001,10e-4 2.182,-0.238 3.273,-0.356 0,0 2.483,0.095 3.725,0.142 0,0 -7.413,0.319 -11.118,0.479 -4.354,0.507 -8.035,1.121 -12.134,1.978 0.057,0.379 4.353,0.365 4.796,0.367 l 3.894,0.408 c 0,0 1.393,-0.034 2.088,-0.051 2.354,-0.101 4.573,-0.145 6.942,-0.153 4.478,0.005 8.955,0.046 13.433,0.052 2.172,0 3.822,0.019 5.983,0.102 2.019,0.074 3.68,0.101 5.699,0.102 3.924,0.069 7.913,0.605 11.683,0.724 3.01,-0.009 6.007,-0.049 9.03,-0.051 5.164,0 10.73,-0.056 15.859,0.051 0.1,0.003 0.34,0.006 5.08,0.255 12.242,0.369 25.19,0.777 37.417,0.928 0,0.012 2.764,-0.062 2.764,-0.061 4.047,-0.094 7.139,-0.464 10.828,-1.261 3.454,-0.804 5.844,-1.642 8.477,-2.965 2.515,-1.341 4.016,-2.497 5.377,-4.163 1.23,-1.689 1.74,-3.111 1.537,-4.889 0.003,0 -0.079,-0.382 -0.079,-0.382 -0.279,0.018 0.74,-10.814 0.761,-11.935 0,0 0.768,-4.252 1.151,-6.379 -0.769,-1.368 -0.498,-3.387 -0.174,-3.6 0,0 0.174,-1.525 -0.151,-1.667 0,0 -0.333,-1.553 -0.5,-2.329 0.11,-0.466 0.226,-0.934 0.341,-1.4 0.199,-1.517 -0.014,-3.113 -1.076,-4.561 0.041,-0.007 -0.572,-0.574 -0.564,-0.577 -1.614,-1.395 -3.404,-2.344 -5.8,-3.444 0,0 -0.948,-0.408 -0.93,-0.422 -2.78,-1.189 -5.252,-1.942 -8.692,-2.66 l -2.306,-0.435 c -2.846,-0.523 -5.119,-0.79 -8.2,-0.858 -0.635,-0.011 -1.954,-0.044 -2.511,0.107 -1.804,0.402 -9.74,0.888 -12.134,1.009 -5.27,0.117 -5.331,-0.081 -11.174,0.693 -3.725,0.545 -4.014,1.061 -7.168,0.999 C 172.109,2.6 165.188,1.798 158.302,1.59 154.549,1.527 150.825,1.508 147.07,1.508 c -5.95,0.18 -12.513,0.985 -18.454,1.161 0,0.032 -14.204,-0.273 -15.69,-0.305 0,0 -7.789,0.102 -11.683,0.153 -4.675,0.182 -9.298,10e-4 -13.966,-0.141 -0.169,-0.004 -0.335,-0.007 -0.504,-0.01 -1.76,10e-4 -3.52,0.121 -5.052,0.554 -1.117,0.089 -2.087,0.198 -3.168,0.356 0,0 -0.194,0.029 -0.211,0.032 -2.771,0.608 13.185,1.655 21.999,1.744 z m 9.908,42.688 h -10e-4 10e-4 l 0,0 z m 34.032,-1.306 h -0.002 0.002 l 0,0 z"
    id="order-button-main-path1"
    style="fill:#FFCC00;fill-rule:evenodd" />
<path
    clip-rule="evenodd"
    d="m 139.659,48.948 c -11.973,-0.841 -18.771,-0.981 -30.532,-0.775 -6.8,0.025 -13.63,0.096 -20.431,0.153 0.002,0.018 -1.86,-0.106 -2.031,-0.112 -1.844,-0.052 -1.758,0.084 -3.274,0.153 0.015,0.082 -2.723,-0.165 -2.935,-0.173 0.074,0.002 -1.284,-0.122 -1.749,-0.102 -0.02,0.001 -2.466,0.505 -2.71,0.163 -0.468,-0.236 -2.18,-0.222 -2.483,-0.02 -0.154,0.192 -2.031,0.085 -2.708,-0.102 0,0 -2.722,0.338 -2.879,0.132 -1.051,0.163 -1.703,0.303 -1.693,0.215 -0.13,-0.212 -1.045,-0.23 -1.466,-0.174 -0.217,0.033 -0.814,0.116 -1.017,0.021 -0.94,-0.391 -2.092,0.014 -2.483,-0.021 -1.388,0.108 -1.893,0.108 -2.708,0 -0.064,-10e-4 -0.237,-0.009 0,0.061 -0.015,0.128 -1.617,0.166 -1.693,0.041 0,0 -0.564,-0.027 -0.847,-0.041 0,0 -1.128,0.041 -1.693,0.061 0,0.001 -0.828,-0.054 -1.242,-0.081 -0.833,0.086 -1.437,0.066 -2.146,0.255 0.002,0 -1.353,-0.082 -2.031,-0.122 0,0 -11.176,0.293 -11.176,0.153 0,0.062 -9.67,-0.221 -9.678,-0.215 -2.236,-0.094 -3.914,-0.313 -5.927,-0.777 -1.547,-0.372 -2.685,-0.756 -3.968,-1.302 0,0 -0.694,-0.337 -0.715,-0.331 -1.424,-0.726 -2.289,-1.361 -3.089,-2.275 -0.753,-0.942 -1.037,-1.694 -1.033,-2.701 0.046,-1.732 0.061,-3.453 0.005,-5.185 -0.362,-4.182 -2.982,-5.537 -2.958,-9.713 0.003,-1.136 0.056,-3.161 -0.348,-4.208 C 10,21.929 9.59,20.996 9.544,20.868 9.003,20.872 9.144,15.037 8.891,13.934 8.842,13.735 8.863,13.54 8.901,13.34 9.065,12.632 9.524,11.976 9.89,11.288 10.108,10.81 10.244,10.222 9.749,9.766 l 0.026,-0.04 c 0.389,-0.552 0.809,-1.015 1.383,-1.53 0,0 2.037,-0.879 3.192,-1.238 -0.002,10e-4 0.053,-0.021 0.053,-0.021 2.088,-0.796 3.861,-1.262 6.407,-1.66 2.561,-0.353 4.59,-0.458 7.244,-0.352 9.47,0.399 16.256,0.427 25.79,0.274 15.867,-0.166 82.218,-0.019 86.012,-0.408 0,0 -2.259,0.122 -3.387,0.184 0.001,-10e-4 -2.182,0.238 -3.273,0.356 0,0 -2.483,-0.095 -3.725,-0.142 0,0 7.413,-0.319 11.118,-0.479 4.354,-0.507 8.035,-1.121 12.134,-1.978 -0.057,-0.379 -4.353,-0.365 -4.796,-0.367 l -3.894,-0.408 c 0,0 -1.393,0.034 -2.088,0.051 -2.354,0.101 -4.573,0.145 -6.942,0.153 -4.478,-0.005 -8.955,-0.046 -13.433,-0.052 -2.172,0 -3.822,-0.019 -5.983,-0.102 -2.019,-0.074 -3.68,-0.101 -5.699,-0.102 C 105.964,1.836 101.975,1.3 98.205,1.181 95.195,1.19 92.198,1.23 89.175,1.232 84.011,1.232 78.445,1.288 73.316,1.181 73.216,1.178 72.976,1.175 68.236,0.926 55.993,0.56 43.045,0.152 30.818,0.001 c 0,-0.012 -2.764,0.062 -2.764,0.061 C 24.007,0.156 20.915,0.526 17.226,1.323 13.772,2.127 11.382,2.965 8.749,4.288 6.233,5.629 4.732,6.786 3.371,8.451 c -1.23,1.689 -1.74,3.111 -1.537,4.889 -0.003,0 0.079,0.382 0.079,0.382 0.279,-0.018 -0.74,10.814 -0.761,11.935 0,0 -0.768,4.252 -1.151,6.379 0.769,1.368 0.498,3.387 0.174,3.6 0,0 -0.174,1.525 0.151,1.667 0,0 0.333,1.553 0.5,2.329 -0.11,0.466 -0.226,0.934 -0.341,1.4 -0.199,1.517 0.014,3.113 1.076,4.561 -0.041,0.007 0.572,0.574 0.564,0.577 1.614,1.395 3.404,2.344 5.8,3.444 0,0 0.948,0.408 0.93,0.422 2.78,1.189 5.252,1.942 8.692,2.66 l 2.306,0.435 c 2.846,0.523 5.119,0.79 8.2,0.858 0.635,0.011 1.954,0.044 2.511,-0.107 1.804,-0.402 9.74,-0.888 12.134,-1.009 5.27,-0.117 5.331,0.081 11.174,-0.693 3.725,-0.545 4.014,-1.061 7.168,-0.999 6.849,0.223 13.77,1.025 20.656,1.233 3.753,0.063 7.477,0.082 11.232,0.082 5.95,-0.18 12.513,-0.985 18.454,-1.161 0,-0.032 14.204,0.273 15.69,0.305 0,0 7.789,-0.102 11.683,-0.153 4.675,-0.182 9.298,-0.001 13.966,0.141 0.169,0.004 0.335,0.007 0.504,0.01 1.76,-10e-4 3.52,-0.121 5.052,-0.554 1.117,-0.089 2.087,-0.198 3.168,-0.356 0,0 0.194,-0.029 0.211,-0.032 2.773,-0.612 -13.183,-1.659 -21.997,-1.748 z M 129.751,6.26 h 0.001 -0.001 l 0,0 z M 95.719,7.566 h 0.002 -0.002 l 0,0 z"
    id="order-button-main-path2"
    style="fill:#FFCC00;fill-rule:evenodd" />
</g>
<path
    clip-rule="evenodd"
    d="m 222.808,32.066 c -0.001,-1.379 -0.442,-13.914 -0.442,-13.914 -0.038,-0.658 -0.079,-1.315 -0.118,-1.973 -0.093,-1.201 -0.391,-2.103 -1.108,-3.212 -0.704,-1.028 -1.447,-1.761 -2.635,-2.592 -0.014,0.005 -1.86,-1.158 -1.944,-1.083 -0.614,-0.275 -1.168,-0.477 -1.84,-0.687 -1.613,-0.464 -2.879,-0.672 -4.643,-0.733 -0.004,0.003 -3.867,-0.126 -3.626,-0.122 -7.749,-0.143 -23.975,0.395 -23.825,0.39 -6.032,0.174 -18.544,0 -18.46,0 -1.035,0.037 -3.106,0.111 -3.106,0.111 L 156.545,8.089 C 151.737,8.19 146.96,8.335 142.149,8.199 138.254,8.162 130.462,8.089 130.462,8.089 128.974,8.112 114.768,8.333 114.768,8.31 108.674,8.177 102.399,7.604 96.306,7.471 92.555,7.473 88.819,7.485 85.07,7.53 78.179,7.682 71.285,8.256 64.407,8.42 61.496,8.461 60.31,8.023 57.236,7.699 52.541,7.25 50.502,7.266 46.059,7.199 43.213,7.094 36.37,6.865 33.921,6.47 33.641,6.404 31.408,6.392 31.408,6.392 29.276,6.436 27.685,6.707 25.79,7.321 c 0,0 -2.438,0.944 -2.357,1.005 -0.744,0.397 -1.318,0.74 -1.973,1.2 -1.316,0.97 -2.134,1.833 -2.89,3.02 -0.702,1.202 -1.018,2.166 -1.125,3.44 0.012,0 -0.013,0.193 -0.013,0.193 0.052,0.012 -0.614,4.675 -0.525,4.675 0.067,2.053 0.349,4.184 0.535,6.243 -0.088,1.047 -0.268,3.14 -0.268,3.14 -0.175,0.19 -0.523,0.571 -0.523,0.571 0.116,0.939 0.349,2.819 0.349,2.818 0.032,-0.38 0.094,-1.142 0.094,-1.141 0.175,0.285 0.524,0.856 0.524,0.856 -0.14,1.567 -0.269,2.448 -0.618,3.996 0.001,0.011 0.012,0.136 0.01,0.136 0.103,1.379 0.445,2.422 1.258,3.704 0.811,1.197 1.677,2.058 3.073,3.016 1.403,0.919 2.687,1.503 4.524,2.039 0.011,-0.009 0.989,0.246 0.989,0.246 1.533,0.363 2.912,0.488 4.554,0.497 l 22.229,-0.219 c 0,0 34.494,0.785 34.494,0.78 12.407,-0.114 25.02,-0.398 37.43,-0.67 4.745,-0.18 4.982,-0.181 5.081,-0.184 l 15.864,-0.037 c 0.401,0 9.033,0.037 9.033,0.037 3.852,-0.083 7.779,-0.473 11.686,-0.522 1.936,0 3.767,-0.022 5.703,-0.074 l 5.985,-0.073 c 1.216,0 13.436,-0.043 13.436,-0.036 2.329,0.003 4.619,0.038 6.945,0.109 0.696,0.012 2.089,0.037 2.089,0.037 l 3.895,-0.295 c 0.341,-0.001 4.676,0.018 4.799,-0.265 -2.12,-0.325 -5.401,-0.706 -8.018,-0.993 h 8.017 c 5.459,0 9.926,-3.194 9.926,-7.097 V 16.18 c 0,-3.702 -4.018,-6.766 -9.089,-7.072 1.075,0.027 1.994,0.167 3.091,0.437 1.377,0.375 2.307,0.791 3.381,1.455 1.102,0.72 1.779,1.368 2.44,2.28 0.678,0.998 0.975,1.814 1.096,2.9 -0.001,0 0.224,2.292 0.222,2.258 0.246,7.278 0.27,7.25 0.257,7.385 0.011,2.355 0.058,4.747 0.174,7.099 0.121,1.511 0.329,3.041 0.519,4.55 0.088,1.183 -0.049,2.168 -0.577,3.301 -0.001,0 -0.011,0.024 -0.011,0.024 -0.542,1.114 -1.192,1.941 -2.286,2.879 -1.162,0.941 -2.268,1.561 -3.893,2.17 -1.772,0.614 -3.235,0.892 -5.25,0.997 2.034,-0.05 3.53,-0.292 5.358,-0.856 1.72,-0.578 2.886,-1.172 4.158,-2.102 1.231,-0.95 1.973,-1.79 2.635,-2.943 0.639,-1.215 0.868,-2.19 0.849,-3.47 0,0 -0.269,-5.413 -0.268,-5.406 l 0,0 z M 68.126,44.57 65.773,44.732 c -1.185,-0.037 -3.556,-0.111 -3.556,-0.111 l -0.144,-0.052 h 6.053 l 0,10e-4 z m -26.972,0 -1.462,0.162 c -0.088,-0.024 -0.31,-0.085 -0.544,-0.162 h 2.006 l 0,0 z M 29.414,43.733 C 28.957,43.654 28.507,43.546 28.019,43.4 28.02,43.396 27.814,43.335 27.815,43.335 26.742,42.985 26,42.606 25.224,42.026 24.382,41.35 23.906,40.748 23.598,39.913 c -0.269,-0.884 -0.205,-1.558 0.004,-2.44 0.386,-1.788 0.495,-3.468 0.536,-5.273 l 0.011,-1.251 v 6.524 c -0.001,2.7 2.138,5.061 5.265,6.26 l 0,0 z M 24.148,26.693 C 24.126,23.189 24.055,19.684 23.988,16.18 l 0.175,-1.271 c 0.026,-0.084 0.396,-0.941 0.396,-0.941 0.149,-0.256 0.301,-0.486 0.471,-0.705 -0.566,0.891 -0.882,1.879 -0.882,2.917 v 10.513 z"
    id="order-button-main-path3"
    style="fill:#999999;fill-rule:evenodd" />
</svg>