<?xml version="1.0" encoding="UTF-8" standalone="no"?>
<svg
    xmlns:dc="http://purl.org/dc/elements/1.1/"
    xmlns:cc="http://creativecommons.org/ns#"
    xmlns:rdf="http://www.w3.org/1999/02/22-rdf-syntax-ns#"
    xmlns:svg="http://www.w3.org/2000/svg"
    xmlns="http://www.w3.org/2000/svg"
    xml:space="preserve"
    version="1.1"
    viewBox="0 0 50 50"
    id="bzlogo-mask-big">
    <defs
       id="defs4"><style
          type="text/css"
          id="style6">
    .fil4 {fill:none}
    .fil7 {fill:none;fill-rule:nonzero}
    .fil1 {fill:#999999}
    .fil3 {fill:#FFE57F}
    .fil0 {fill:#FFFFFF}
    .fil6 {fill:#999999;fill-rule:nonzero}
    .fil2 {fill:#FFE57F;fill-rule:nonzero}
    .fil5 {fill:#FFFFFF;fill-rule:nonzero}
   </style><clipPath
          id="id0"><path
             d="m 12450,322 c -62,6 -187,18 -187,18 130,24 2,16 11,17 -42,-6 -603,-110 -603,-96 -261,12 -653,74 -921,111 -40,-5 -120,-15 -120,-15 l -261,-40 c 232,9 196,1 426,-49 -222,1 -340,4 -563,-27 -9,-12 -28,-37 -28,-37 -16,4 -46,10 -46,10 l -244,-37 483,5 159,25 -5,0 c 156,43 140,43 130,44 44,5 131,15 131,15 110,-24 330,-72 330,-72 -140,-6 -415,-44 -415,-44 -188,4 -563,12 -563,12 -527,-40 -539,-38 -507,-41 210,-14 668,5 660,4 -5,-2 7,-2 6,-2 34,0 102,4 108,5 l -6,0 c 6,1 17,2 17,2 -1,0 -5,0 -5,0 0,1 0,3 0,3 -17,-2 -52,-5 -52,-5 -242,34 101,7 126,5 43,1 131,5 131,5 -192,-25 -575,-74 -575,-74 -294,0 -882,17 -882,17 -199,8 -308,-11 -472,54 -139,52 -738,6 -774,3 -31,11 -96,29 -96,29 -10,-12 -29,-37 -29,-37 -138,-6 -415,-19 -415,-19 -97,3 -130,15 -239,10 101,11 302,34 302,34 229,67 237,67 216,66 -137,-5 -411,-66 -410,-66 121,-4 37,-5 -34,-7 -41,-9 -125,-27 -125,-27 -221,-32 -214,-32 -205,-35 -91,-4 -273,-12 -273,-12 117,39 3,15 -11,12 49,-6 11,-7 -6,-7 C 6450,56 6249,63 6080,64 5787,31 5476,12 5181,0 c 181,27 546,61 546,61 30,-11 62,-17 85,5 25,-1 74,-5 74,-5 -15,3 -43,10 -45,10 42,-1 43,-10 125,-7 -33,3 -97,10 -97,10 527,91 539,90 506,91 -172,-4 -382,17 -557,27 62,12 188,39 188,39 557,73 562,70 546,74 237,-5 248,-1 233,-5 110,8 330,22 330,22 -27,2 -80,5 -80,5 206,57 -104,6 -103,5 l -119,8 c 17,0 52,2 52,2 -154,14 -461,42 -461,42 -884,-73 -898,-68 -854,-76 189,-21 413,-19 603,-18 -282,-36 -853,-86 -853,-86 -285,-17 -557,10 -842,10 -160,-6 -323,-15 -483,-25 216,17 648,50 648,50 209,33 626,101 626,101 221,70 236,68 216,69 -157,-14 -320,-64 -461,-69 -74,6 -221,19 -221,19 32,9 96,27 96,27 33,11 143,8 137,8 -71,17 -92,28 -171,29 l 278,20 -5,0 c 101,8 302,25 302,25 147,17 191,24 352,32 -135,10 -404,-27 -404,-27 77,-3 -42,-5 -51,-5 4,1 12,2 12,2 -207,-18 -620,-54 -620,-54 39,-7 119,-25 119,-25 -59,-5 -80,18 -142,22 -81,-7 -245,-19 -245,-19 111,-10 336,-10 336,-10 -155,-24 -66,-11 -205,-5 -340,-41 -313,-42 -290,-44 -112,-12 -336,-35 -336,-35 -51,31 -524,-27 -500,-24 -36,10 -108,27 -108,27 -56,-5 -967,-73 -967,-67 -210,4 -446,21 -657,34 -205,3 -362,27 -552,84 C 982,412 857,474 716,574 580,677 497,767 418,897 c -75,138 -105,248 -107,396 0,0 33,278 33,275 -18,147 -31,428 -34,486 2,-28 10,-73 10,-72 9,60 0,-7 0,-8 l 7,-49 3,114 c -17,74 -17,68 -17,62 -3,29 -3,79 -3,107 6,7 4,-8 3,-17 l 7,-41 c 0,53 -14,156 -14,156 0,86 -7,258 -7,258 16,-69 45,-209 45,-209 2,-60 13,-180 13,-180 9,97 4,-17 4,-21 l 13,-94 c -2,177 -37,529 -37,529 -7,19 -7,15 -7,12 -6,50 -20,148 -20,148 4,41 20,415 3,414 -77,493 -176,513 82,1021 7,-23 7,7 7,13 7,17 27,53 27,53 5,-26 14,-78 14,-78 -9,5 -28,16 -28,16 0,-75 -10,-155 4,-229 l -7,20 10,-111 c 25,-60 24,-63 24,-57 0,36 -20,107 -20,107 -17,20 8,-5 0,28 17,-34 62,87 64,95 43,-151 42,-133 41,-127 -1,61 -8,123 -17,184 2,8 7,25 7,25 -4,3 -14,8 -13,8 -4,34 -14,102 -14,102 10,-18 10,-14 10,-12 -4,29 -19,87 -20,90 l 0,-20 c -3,14 -7,41 -7,41 45,70 140,209 140,209 -14,43 -45,127 -45,127 -4,-67 1,-19 -17,33 14,-3 0,62 0,62 10,10 35,28 34,28 0,-5 3,-15 4,-16 0,8 3,24 3,24 l 7,-73 -3,69 c 45,-92 13,38 17,21 6,4 17,12 17,12 l 27,-143 -10,281 0,-7 c -19,76 -4,140 -27,230 -20,47 -9,-107 -11,-90 l -20,65 0,-4 -17,61 37,-266 c -1,7 -6,19 -6,21 l 0,-17 -11,37 7,-37 c -22,11 -65,33 -65,33 2,48 7,144 7,144 20,-24 5,61 3,61 l 4,94 7,-93 0,7 c 2,-23 7,-69 6,-69 6,138 18,414 18,414 l 61,-381 -3,79 c 1,-14 5,-18 3,-39 4,12 108,-407 106,-397 1,8 3,24 3,24 24,72 8,-22 4,-53 51,-197 160,-591 160,-591 2,3 4,9 4,9 1,-11 3,-33 3,-33 3,22 10,65 10,65 4,-12 0,10 0,9 11,99 -20,119 -20,213 4,150 13,451 13,451 -7,135 -27,406 -27,406 9,124 27,373 27,373 -3,27 -44,312 -44,312 -18,149 2,208 31,353 -2,9 -11,98 -28,53 0,1 0,4 0,4 -5,-64 -17,-193 -17,-193 -3,91 -61,267 -61,267 -3,-10 -6,-30 -7,-33 6,94 -14,283 -14,283 2,52 4,156 4,156 29,-114 42,-184 54,-300 1,20 5,46 7,66 8,-23 -2,-89 -3,-90 l 17,-131 0,184 c 13,8 1,81 -3,103 -39,198 -38,183 -38,168 -13,93 -27,279 -27,279 -1,220 -55,664 -55,664 41,-105 40,-93 41,-86 6,118 -13,259 -34,377 -2,-30 -10,-88 -10,-94 l 0,70 3,-17 0,119 c 3,10 21,60 -7,62 l -3,52 0,-7 0,7 0,1 0,82 c -2,14 -10,61 -10,61 -4,-31 3,-99 3,-98 6,27 4,-12 3,-20 -1,-24 -3,-70 -3,-70 1,-4 3,-13 3,-12 2,-14 2,-9 0,-5 -1,3 -3,9 -3,9 0,-3 0,-2 0,0 0,-6 0,-17 0,-17 l -7,49 0,-131 c -1,10 -5,35 -10,8 -4,-95 24,-287 24,-287 -7,8 -7,-17 -7,-16 -4,-101 21,-309 20,-308 -3,-45 -3,-135 -3,-135 -4,29 -13,85 -14,90 l 0,-291 c -6,146 -20,439 -20,439 -8,129 -2,-48 -3,-29 -11,60 -8,90 -7,148 -17,76 -16,79 -17,74 -4,-32 1,-92 3,-110 l -14,130 c -36,380 -34,389 -37,365 -13,-185 7,-568 7,-566 2,3 3,8 3,8 0,-26 3,-77 3,-85 l 0,3 7,-142 0,6 4,-68 0,274 c 3,-17 7,3 7,0 4,13 3,-21 3,-29 l 3,-20 -3,176 c 20,-198 61,-594 61,-594 l 0,-99 -6,-114 c -1,38 -12,435 -24,434 0,0 -4,25 -4,25 -7,11 -7,8 -7,8 -7,33 -11,-11 -10,-4 0,-36 4,-107 4,-107 l -17,90 30,-652 c 5,-50 14,-151 14,-151 7,43 3,-7 3,-9 l 4,-40 0,90 c 13,-76 10,-85 7,-160 -10,37 -10,37 -11,36 -31,190 -30,180 -30,173 -2,1 -4,4 -4,4 -4,-60 -14,-181 -13,-181 -4,27 -18,78 -18,78 4,-4 7,-12 7,-12 -5,26 -13,78 -13,78 l -24,131 0,-8 -14,61 24,-253 0,3 c 7,-65 20,-197 20,-197 -2,-2 -6,-8 -6,-8 -30,98 -27,3 -28,-20 -6,-4 -20,-13 -20,-13 -8,88 -52,264 -51,263 -21,192 -87,570 -89,582 0,-14 -4,-41 -4,-41 0,-48 3,-140 4,-154 l 0,3 c 3,-22 10,-66 10,-66 -28,-213 -14,1 -14,12 -7,112 -10,337 -10,336 -15,95 -45,183 -51,279 -44,196 -39,210 -41,197 -2,-100 10,-207 20,-307 -6,-220 14,-661 14,-661 39,283 6,-40 4,-61 2,-48 6,-144 6,-144 l -17,107 c 0,-28 -3,-82 -3,-82 -10,47 -7,139 -7,139 l -54,279 10,-160 c -46,255 -79,498 -82,755 23,-46 23,-47 24,-45 0,-4 0,-13 0,-13 3,5 3,13 3,13 0,-29 3,-86 3,-86 l 7,-143 0,6 4,-68 c 10,268 17,497 -4,767 5,1 14,4 14,4 -6,46 -17,139 -17,139 0,27 0,82 0,82 -13,56 -8,-12 -7,-25 -15,62 -31,3 -31,5 -6,296 -27,890 -27,889 -14,263 -92,486 -126,743 -1,6 -5,51 -24,45 -19,84 -57,225 -51,307 16,165 17,327 17,493 3,-28 10,-83 10,-83 63,-159 62,-169 61,-155 -7,98 -59,293 -61,299 4,-152 -3,18 -3,21 -18,94 -9,144 13,237 10,-45 31,-135 31,-135 7,-18 7,4 7,4 -2,51 -15,106 -28,156 -3,-51 -3,9 -3,12 54,194 198,574 198,574 8,-54 24,-164 24,-164 45,-122 44,-127 44,-114 -8,81 -14,164 -24,246 -53,-92 -15,98 -6,127 24,-60 23,-56 24,-54 -8,147 -25,58 40,234 47,-155 45,-137 45,-131 -5,63 -12,126 -21,189 13,33 227,598 202,598 -52,-2 -215,-316 -239,-361 -21,107 -58,320 -58,320 58,93 31,-17 41,-16 17,-68 17,-71 17,-66 0,34 -13,103 -14,107 1,-28 0,2 -3,25 112,137 358,402 358,401 0,-30 7,-90 7,-90 13,78 0,-10 0,-12 l 10,-65 c 1,65 8,117 0,184 12,14 38,41 38,41 2,-177 17,-529 17,-529 33,287 4,-47 3,-62 6,-102 17,-307 17,-307 10,322 20,607 0,931 33,29 365,330 458,238 -22,-113 -198,-1112 -198,-1112 29,-8 25,-162 24,-197 57,375 170,1124 170,1124 3,-36 7,-107 7,-107 35,-75 34,-68 34,-65 0,52 -27,156 -27,156 -4,-84 -3,9 -3,12 0,18 0,53 0,53 51,-253 153,-758 153,-758 0,-18 0,-54 0,-54 -18,82 -49,-63 -51,-74 -97,67 -46,-320 -44,-319 35,-266 124,-537 146,-796 27,-6 57,-186 65,-238 0,4 0,8 0,12 6,-69 56,-221 55,-217 -8,-10 -22,-49 -24,-53 -22,76 -20,42 -20,37 -6,28 -14,86 -14,86 -29,-345 -11,43 -10,53 l -55,279 3,-49 c -17,50 -19,-5 -20,-17 -8,174 -72,527 -72,525 -3,-227 -10,35 -10,45 l -41,209 44,-467 79,-345 c -3,-183 18,-375 17,-553 2,-47 7,-140 7,-140 1,-21 3,-65 3,-65 4,137 11,410 11,410 3,-70 10,-209 10,-209 20,-112 68,-337 68,-336 14,-109 11,-345 10,-353 l 4,16 0,-74 7,118 c -3,-122 9,-361 10,-375 l 3,61 c 7,22 11,29 12,28 l 0,3859 2069,0 c 202,114 569,348 569,348 402,8 1206,22 1206,22 131,-7 392,-22 392,-22 331,31 204,31 177,32 459,11 1376,35 1376,35 50,-6 148,-17 148,-17 -169,30 -506,93 -506,93 -442,10 -5298,121 -5298,121 -142,-1 -251,-17 -383,-55 -126,-40 -214,-82 -313,-151 -97,-71 -156,-133 -212,-224 -55,-96 -77,-175 -80,-278 3,105 24,181 79,278 55,91 115,154 211,225 100,70 186,112 313,152 133,39 242,55 385,56 0,0 6518,-50 6515,-50 712,-5 1351,-36 2059,-94 433,-37 862,-92 1297,-110 404,-13 519,24 882,54 29,2 302,4 302,4 104,-2 183,-14 278,-42 91,-30 153,-61 224,-111 68,-52 110,-98 149,-163 38,-69 53,-125 53,-199 2,-1 -27,-239 -26,-234 19,-56 34,-103 24,-160 -28,-89 -65,-144 -68,-238 25,-137 25,-132 27,-127 17,-320 61,-239 17,-607 -6,-51 6,-94 -10,-144 0,3 0,8 0,8 -12,-107 3,-78 -45,-168 0,6 0,17 0,17 l -24,-74 c 26,102 23,110 18,213 -10,-30 -28,-90 -28,-90 0,-47 4,-140 4,-140 -8,-19 -21,-57 -21,-57 8,-6 24,-17 24,-17 16,-332 30,69 27,-16 3,-1 7,-4 7,-4 0,-46 7,-140 7,-139 -2,-21 -7,-62 -7,-62 3,-11 14,-33 14,-33 4,-40 20,-123 20,-123 -2,-14 -7,-41 -7,-41 59,-242 61,-222 65,-205 19,-81 62,-242 62,-242 14,244 15,-11 17,-102 -41,56 -29,-5 -27,-17 -3,-56 -7,-168 -7,-168 -35,85 -35,88 -34,82 3,-31 27,-95 27,-94 l 7,-33 c -82,99 -69,15 -65,-12 6,-63 31,-189 31,-189 -3,-15 -7,-45 -7,-45 0,-5 3,-1 3,0 3,-2 10,-4 10,-4 19,-66 21,-27 14,-12 0,9 6,30 7,32 0,-54 20,-160 20,-160 -2,-6 -7,-20 -6,-20 -25,59 -38,1 0,-8 1,-16 3,-46 3,-53 0,6 3,16 3,16 55,-453 28,345 31,283 44,-99 34,-462 34,-435 -15,28 6,-34 4,-29 0,-17 0,-53 0,-53 27,-46 82,-139 82,-139 -6,-33 -17,-99 -17,-99 -12,23 -35,70 -35,70 -11,18 -14,90 -13,98 -25,-51 -40,-65 -41,-123 -9,67 -28,201 -28,201 -11,71 -34,214 -34,213 -23,107 -33,144 -44,259 -3,-23 -10,-70 -10,-70 -9,36 -35,107 -34,107 -1,93 -31,279 -31,279 0,19 0,57 0,57 l 10,-20 c -10,76 -14,229 -14,229 5,-8 14,-24 14,-24 -13,66 -20,201 -20,201 7,-18 22,-52 23,-54 -3,147 7,-19 7,-24 13,-28 38,-82 38,-82 10,-64 -3,-87 20,-173 5,-16 7,-17 11,-4 7,48 -2,124 -11,173 -17,-72 -11,-25 -10,-17 1,-3 4,-8 4,-8 -5,19 -4,71 -11,102 -1,-15 -3,-45 -3,-45 -15,73 -45,218 -45,218 -19,55 -31,69 -37,131 0,0 -3,-22 -3,-25 -16,40 -4,48 0,86 -8,85 -24,255 -24,255 5,-15 16,-43 17,-45 l -48,172 c -20,97 -22,171 -55,271 -2,-88 3,-126 28,-210 3,76 0,20 10,-28 -11,3 17,-147 17,-144 0,-42 0,-127 0,-127 l -24,78 c 0,-37 7,-111 7,-111 11,49 13,27 13,21 -6,-300 -9,-565 14,-866 -12,-166 -37,-500 -37,-500 -30,-26 -1,-291 6,-353 -2,-63 -6,-188 -6,-188 -16,73 -54,216 -55,221 7,-176 48,-323 48,-500 0,-221 54,-665 54,-665 -4,25 -30,111 -30,111 -4,-27 -11,-82 -11,-82 3,-107 35,-320 35,-320 4,31 9,91 10,98 l 0,-57 c -1,-39 -4,-119 -4,-119 21,-209 17,-80 17,-45 3,28 7,82 7,82 11,-18 11,-10 11,-8 6,97 -21,291 -21,291 13,-27 -3,192 -6,217 2,-3 3,-8 3,-8 -4,84 -11,251 -11,251 6,-32 14,-95 14,-95 5,309 13,-42 14,-53 2,-30 7,-90 7,-90 4,-17 6,-16 6,-9 l 7,-114 c 17,-77 16,-80 17,-74 2,19 1,53 0,80 l 7,-101 c 45,-353 41,-218 41,-184 4,-48 10,-144 10,-144 41,-205 39,-211 41,-197 3,100 -10,208 -20,308 6,89 13,267 13,267 17,183 -7,569 -6,565 -6,-51 -17,-155 -17,-155 -4,63 13,203 13,201 -4,77 -13,233 -13,233 -4,-116 -11,-348 -11,-348 -4,87 -13,262 -13,262 -7,-130 -21,-389 -21,-389 l 0,-3 -3,64 c -5,-277 -3,-279 -7,-270 -2,2 -2,20 -7,45 1,-59 3,-177 3,-177 -18,190 -54,570 -54,570 -10,51 -31,152 -31,152 0,44 -3,128 -3,145 0,-7 3,-18 3,-18 4,25 10,74 10,74 14,-66 -2,-53 -3,-111 6,-39 20,-119 20,-119 l 7,114 c 0,-37 8,-430 21,-429 l 3,-25 c 18,-25 17,-11 17,-8 4,35 0,112 0,110 l 17,-93 -34,655 c -4,54 -16,108 -13,160 l -7,37 0,-90 c -10,53 -4,160 -4,160 1,-7 7,-33 7,-37 46,-171 47,-24 48,4 2,-9 14,-65 14,-66 13,-96 25,-243 47,-336 31,-142 31,-25 31,25 l 3,34 0,1 c 1,30 12,-56 11,-48 -3,-95 -8,-150 0,-254 -2,2 -4,4 -4,4 -10,-198 -16,-252 14,-451 5,68 26,201 27,209 2,-79 -24,-233 -24,-233 3,-21 7,-62 7,-62 4,-53 10,-160 10,-160 -2,6 -7,27 -17,17 0,17 -3,53 -3,53 -7,-44 -3,-15 0,12 l -10,65 c -1,-18 -2,-221 7,-221 13,-104 23,-207 30,-311 -1,-47 -3,-140 -3,-140 l 20,-425 0,3 c 3,-375 17,-1128 17,-1128 l 0,-250 c -4,-133 -3,-406 -3,-406 -5,-12 -14,-37 -14,-37 3,-6 14,-16 14,-16 -3,-85 -10,-250 -10,-266 -2,30 -26,127 -24,118 -7,-33 -24,-99 -24,-98 2,-2 7,-5 7,-5 15,-102 29,-158 24,-262 -3,48 -7,144 -7,144 -13,-113 -38,-337 -38,-337 33,-253 30,-255 34,-246 0,-7 0,-106 0,-106 2,-380 18,-556 -27,-931 30,-47 87,-141 89,-144 l 0,-4 c 166,-332 76,-292 109,-558 5,-30 18,-64 27,-94 -3,30 -3,90 -3,90 3,0 10,0 10,0 1,-41 9,-73 0,-115 20,-66 64,-196 65,-201 l -3,29 0,-4 c -4,28 37,137 34,127 12,3 37,8 37,8 -3,-34 -25,-219 -41,-237 32,-86 127,-356 209,-415 87,-88 -25,-527 -31,-660 -8,24 -21,74 -21,74 -4,-27 -7,-260 -7,-260 -1,-64 -8,-120 -26,-183 -16,-60 -36,-112 -67,-168 -68,-116 -141,-199 -260,-290 -125,-91 -235,-147 -395,-201 -170,-52 -311,-76 -496,-80 l -34,-4 34,0 c 187,2 327,23 501,74 164,52 278,108 406,198 125,93 201,175 273,294 70,124 99,227 101,360 0,0 -2,67 -2,67 l 7,29 5,-96 c -2,-135 -31,-237 -101,-363 -72,-119 -149,-203 -275,-296 -128,-91 -244,-148 -409,-201 -175,-52 -316,-73 -506,-75 0,0 -112,-4 -108,-4 -70,-10 -211,-32 -211,-32 z M 1581,9594 c -2,-32 -8,-81 -12,-119 l 12,-205 0,324 z m 3950,3891 c -7,67 145,88 235,146 52,44 -1075,-130 -1121,-137 -249,5 -751,-8 -750,-8 l 19,-1 1617,0 z M 7939,138 c -2,0 -2,0 1,0 l -1,0 z m -2098,-67 0,0 0,0 z m 1091,261 1,0 -1,0 z m -6622,1722 0,6 0,3 0,1 0,-10 z m 0,154 0,1 0,-1 0,0 z m 0,1 0,19 0,-19 z m 180,1832 0,0 0,0 z m 58,1156 0,0 0,0 z m 93,51 0,1 0,1 0,-2 z m 160,1200 0,0 0,0 z m -61,1579 0,0 0,0 z m -55,-282 0,-1 0,-3 0,0 0,-1 0,5 z m -31,-281 0,1 0,-1 z m 75,-360 0,-8 c 0,3 0,8 0,8 z m -6,-114 0,-1 0,1 z m -448,404 0,1 0,-1 z m 1062,4959 c 0,0 0,0 0,0 l 0,0 z m 198,-1611 0,0 0,0 z m 14,-874 0,0 0,0 z m 7,44 0,1 0,-1 z m 3089,3582 c -1,-1 -2,-1 1,0 l -1,0 z m 8723,-1832 0,0 0,0 0,0 0,0 z m 161,-1518 0,0 0,0 z m -174,-1854 0,1 0,-1 z m 4,361 c -1,2 -1,3 -1,1 l 1,-1 z m 33,-4 c 0,7 -1,19 -3,28 l 3,-28 z m -3,28 0,2 0,1 0,2 0,-5 z m 27,-136 -1,3 -2,36 0,0 3,-39 z m 24,315 0,-1 0,1 z m -102,529 0,1 0,0 0,2 0,-3 z m 37,-60 0,1 0,-1 z m 150,102 0,-1 0,1 z m 48,-540 0,0 0,0 z m 34,-2780 0,-4 c 0,1 0,4 0,4 z m -13,-725 0,-1 0,1 z m 34,-1867 0,0 0,0 z m 427,-2124 0,0 0,0 z"
             id="path9" /></clipPath></defs><g
       id="Слой_x0020_1"
       transform="matrix(0.0035435861,0,0,0.0035435861,0,-3.73999864e-6)"><metadata
          id="CorelCorpID_0Corel-Layer" /><g
          id="_216823920"><polygon
             class="fil0"
             points="0,14110 0,0 14110,0 14110,14110 "
             id="polygon14"
             style="fill:#ffffff" /><polygon
             class="fil1"
             points="8,14110 8,0 14102,0 14102,14110 "
             id="polygon16"
             style="fill:#999999" /><path
             class="fil2"
             d="m 12450,322 c -62,6 -187,18 -187,18 130,24 2,16 11,17 -42,-6 -603,-110 -603,-96 -261,12 -653,74 -921,111 -40,-5 -120,-15 -120,-15 l -261,-40 c 232,9 196,1 426,-49 -222,1 -340,4 -563,-27 -9,-12 -28,-37 -28,-37 -16,4 -46,10 -46,10 l -244,-37 483,5 159,25 -5,0 c 156,43 140,43 130,44 44,5 131,15 131,15 110,-24 330,-72 330,-72 -140,-6 -415,-44 -415,-44 -188,4 -563,12 -563,12 -527,-40 -539,-38 -507,-41 210,-14 668,5 660,4 -5,-2 7,-2 6,-2 34,0 102,4 108,5 l -6,0 c 6,1 17,2 17,2 -1,0 -5,0 -5,0 0,1 0,3 0,3 -17,-2 -52,-5 -52,-5 -242,34 101,7 126,5 43,1 131,5 131,5 -192,-25 -575,-74 -575,-74 -294,0 -882,17 -882,17 -199,8 -308,-11 -472,54 -139,52 -738,6 -774,3 -31,11 -96,29 -96,29 -10,-12 -29,-37 -29,-37 -138,-6 -415,-19 -415,-19 -97,3 -130,15 -239,10 101,11 302,34 302,34 229,67 237,67 216,66 -137,-5 -411,-66 -410,-66 121,-4 37,-5 -34,-7 -41,-9 -125,-27 -125,-27 -221,-32 -214,-32 -205,-35 -91,-4 -273,-12 -273,-12 117,39 3,15 -11,12 49,-6 11,-7 -6,-7 C 6450,56 6249,63 6080,64 5787,31 5476,12 5181,0 c 181,27 546,61 546,61 30,-11 62,-17 85,5 25,-1 74,-5 74,-5 -15,3 -43,10 -45,10 42,-1 43,-10 125,-7 -33,3 -97,10 -97,10 527,91 539,90 506,91 -172,-4 -382,17 -557,27 62,12 188,39 188,39 557,73 562,70 546,74 237,-5 248,-1 233,-5 110,8 330,22 330,22 -27,2 -80,5 -80,5 206,57 -104,6 -103,5 l -119,8 c 17,0 52,2 52,2 -154,14 -461,42 -461,42 -884,-73 -898,-68 -854,-76 189,-21 413,-19 603,-18 -282,-36 -853,-86 -853,-86 -285,-17 -557,10 -842,10 -160,-6 -323,-15 -483,-25 216,17 648,50 648,50 209,33 626,101 626,101 221,70 236,68 216,69 -157,-14 -320,-64 -461,-69 -74,6 -221,19 -221,19 32,9 96,27 96,27 33,11 143,8 137,8 -71,17 -92,28 -171,29 l 278,20 -5,0 c 101,8 302,25 302,25 147,17 191,24 352,32 -135,10 -404,-27 -404,-27 77,-3 -42,-5 -51,-5 4,1 12,2 12,2 -207,-18 -620,-54 -620,-54 39,-7 119,-25 119,-25 -59,-5 -80,18 -142,22 -81,-7 -245,-19 -245,-19 111,-10 336,-10 336,-10 -155,-24 -66,-11 -205,-5 -340,-41 -313,-42 -290,-44 -112,-12 -336,-35 -336,-35 -51,31 -524,-27 -500,-24 -36,10 -108,27 -108,27 -56,-5 -967,-73 -967,-67 -210,4 -446,21 -657,34 -205,3 -362,27 -552,84 C 982,412 857,474 716,574 580,677 497,767 418,897 c -75,138 -105,248 -107,396 0,0 33,278 33,275 -18,147 -31,428 -34,486 2,-28 10,-73 10,-72 9,60 0,-7 0,-8 l 7,-49 3,114 c -17,74 -17,68 -17,62 -3,29 -3,79 -3,107 6,7 4,-8 3,-17 l 7,-41 c 0,53 -14,156 -14,156 0,86 -7,258 -7,258 16,-69 45,-209 45,-209 2,-60 13,-180 13,-180 9,97 4,-17 4,-21 l 13,-94 c -2,177 -37,529 -37,529 -7,19 -7,15 -7,12 -6,50 -20,148 -20,148 4,41 20,415 3,414 -77,493 -176,513 82,1021 7,-23 7,7 7,13 7,17 27,53 27,53 5,-26 14,-78 14,-78 -9,5 -28,16 -28,16 0,-75 -10,-155 4,-229 l -7,20 10,-111 c 25,-60 24,-63 24,-57 0,36 -20,107 -20,107 -17,20 8,-5 0,28 17,-34 62,87 64,95 43,-151 42,-133 41,-127 -1,61 -8,123 -17,184 2,8 7,25 7,25 -4,3 -14,8 -13,8 -4,34 -14,102 -14,102 10,-18 10,-14 10,-12 -4,29 -19,87 -20,90 l 0,-20 c -3,14 -7,41 -7,41 45,70 140,209 140,209 -14,43 -45,127 -45,127 -4,-67 1,-19 -17,33 14,-3 0,62 0,62 10,10 35,28 34,28 0,-5 3,-15 4,-16 0,8 3,24 3,24 l 7,-73 -3,69 c 45,-92 13,38 17,21 6,4 17,12 17,12 l 27,-143 -10,281 0,-7 c -19,76 -4,140 -27,230 -20,47 -9,-107 -11,-90 l -20,65 0,-4 -17,61 37,-266 c -1,7 -6,19 -6,21 l 0,-17 -11,37 7,-37 c -22,11 -65,33 -65,33 2,48 7,144 7,144 20,-24 5,61 3,61 l 4,94 7,-93 0,7 c 2,-23 7,-69 6,-69 6,138 18,414 18,414 l 61,-381 -3,79 c 1,-14 5,-18 3,-39 4,12 108,-407 106,-397 1,8 3,24 3,24 24,72 8,-22 4,-53 51,-197 160,-591 160,-591 2,3 4,9 4,9 1,-11 3,-33 3,-33 3,22 10,65 10,65 4,-12 0,10 0,9 11,99 -20,119 -20,213 4,150 13,451 13,451 -7,135 -27,406 -27,406 9,124 27,373 27,373 -3,27 -44,312 -44,312 -18,149 2,208 31,353 -2,9 -11,98 -28,53 0,1 0,4 0,4 -5,-64 -17,-193 -17,-193 -3,91 -61,267 -61,267 -3,-10 -6,-30 -7,-33 6,94 -14,283 -14,283 2,52 4,156 4,156 29,-114 42,-184 54,-300 1,20 5,46 7,66 8,-23 -2,-89 -3,-90 l 17,-131 0,184 c 13,8 1,81 -3,103 -39,198 -38,183 -38,168 -13,93 -27,279 -27,279 -1,220 -55,664 -55,664 41,-105 40,-93 41,-86 6,118 -13,259 -34,377 -2,-30 -10,-88 -10,-94 l 0,70 3,-17 0,119 c 3,10 21,60 -7,62 l -3,52 0,-7 0,7 0,1 0,82 c -2,14 -10,61 -10,61 -4,-31 3,-99 3,-98 6,27 4,-12 3,-20 -1,-24 -3,-70 -3,-70 1,-4 3,-13 3,-12 2,-14 2,-9 0,-5 -1,3 -3,9 -3,9 0,-3 0,-2 0,0 0,-6 0,-17 0,-17 l -7,49 0,-131 c -1,10 -5,35 -10,8 -4,-95 24,-287 24,-287 -7,8 -7,-17 -7,-16 -4,-101 21,-309 20,-308 -3,-45 -3,-135 -3,-135 -4,29 -13,85 -14,90 l 0,-291 c -6,146 -20,439 -20,439 -8,129 -2,-48 -3,-29 -11,60 -8,90 -7,148 -17,76 -16,79 -17,74 -4,-32 1,-92 3,-110 l -14,130 c -36,380 -34,389 -37,365 -13,-185 7,-568 7,-566 2,3 3,8 3,8 0,-26 3,-77 3,-85 l 0,3 7,-142 0,6 4,-68 0,274 c 3,-17 7,3 7,0 4,13 3,-21 3,-29 l 3,-20 -3,176 c 20,-198 61,-594 61,-594 l 0,-99 -6,-114 c -1,38 -12,435 -24,434 0,0 -4,25 -4,25 -7,11 -7,8 -7,8 -7,33 -11,-11 -10,-4 0,-36 4,-107 4,-107 l -17,90 30,-652 c 5,-50 14,-151 14,-151 7,43 3,-7 3,-9 l 4,-40 0,90 c 13,-76 10,-85 7,-160 -10,37 -10,37 -11,36 -31,190 -30,180 -30,173 -2,1 -4,4 -4,4 -4,-60 -14,-181 -13,-181 -4,27 -18,78 -18,78 4,-4 7,-12 7,-12 -5,26 -13,78 -13,78 l -24,131 0,-8 -14,61 24,-253 0,3 c 7,-65 20,-197 20,-197 -2,-2 -6,-8 -6,-8 -30,98 -27,3 -28,-20 -6,-4 -20,-13 -20,-13 -8,88 -52,264 -51,263 -21,192 -87,570 -89,582 0,-14 -4,-41 -4,-41 0,-48 3,-140 4,-154 l 0,3 c 3,-22 10,-66 10,-66 -28,-213 -14,1 -14,12 -7,112 -10,337 -10,336 -15,95 -45,183 -51,279 -44,196 -39,210 -41,197 -2,-100 10,-207 20,-307 -6,-220 14,-661 14,-661 39,283 6,-40 4,-61 2,-48 6,-144 6,-144 l -17,107 c 0,-28 -3,-82 -3,-82 -10,47 -7,139 -7,139 l -54,279 10,-160 c -46,255 -79,498 -82,755 23,-46 23,-47 24,-45 0,-4 0,-13 0,-13 3,5 3,13 3,13 0,-29 3,-86 3,-86 l 7,-143 0,6 4,-68 c 10,268 17,497 -4,767 5,1 14,4 14,4 -6,46 -17,139 -17,139 0,27 0,82 0,82 -13,56 -8,-12 -7,-25 -15,62 -31,3 -31,5 -6,296 -27,890 -27,889 -14,263 -92,486 -126,743 -1,6 -5,51 -24,45 -19,84 -57,225 -51,307 16,165 17,327 17,493 3,-28 10,-83 10,-83 63,-159 62,-169 61,-155 -7,98 -59,293 -61,299 4,-152 -3,18 -3,21 -18,94 -9,144 13,237 10,-45 31,-135 31,-135 7,-18 7,4 7,4 -2,51 -15,106 -28,156 -3,-51 -3,9 -3,12 54,194 198,574 198,574 8,-54 24,-164 24,-164 45,-122 44,-127 44,-114 -8,81 -14,164 -24,246 -53,-92 -15,98 -6,127 24,-60 23,-56 24,-54 -8,147 -25,58 40,234 47,-155 45,-137 45,-131 -5,63 -12,126 -21,189 13,33 227,598 202,598 -52,-2 -215,-316 -239,-361 -21,107 -58,320 -58,320 58,93 31,-17 41,-16 17,-68 17,-71 17,-66 0,34 -13,103 -14,107 1,-28 0,2 -3,25 112,137 358,402 358,401 0,-30 7,-90 7,-90 13,78 0,-10 0,-12 l 10,-65 c 1,65 8,117 0,184 12,14 38,41 38,41 2,-177 17,-529 17,-529 33,287 4,-47 3,-62 6,-102 17,-307 17,-307 10,322 20,607 0,931 33,29 365,330 458,238 -22,-113 -198,-1112 -198,-1112 29,-8 25,-162 24,-197 57,375 170,1124 170,1124 3,-36 7,-107 7,-107 35,-75 34,-68 34,-65 0,52 -27,156 -27,156 -4,-84 -3,9 -3,12 0,18 0,53 0,53 51,-253 153,-758 153,-758 0,-18 0,-54 0,-54 -18,82 -49,-63 -51,-74 -97,67 -46,-320 -44,-319 35,-266 124,-537 146,-796 27,-6 57,-186 65,-238 0,4 0,8 0,12 6,-69 56,-221 55,-217 -8,-10 -22,-49 -24,-53 -22,76 -20,42 -20,37 -6,28 -14,86 -14,86 -29,-345 -11,43 -10,53 l -55,279 3,-49 c -17,50 -19,-5 -20,-17 -8,174 -72,527 -72,525 -3,-227 -10,35 -10,45 l -41,209 44,-467 79,-345 c -3,-183 18,-375 17,-553 2,-47 7,-140 7,-140 1,-21 3,-65 3,-65 4,137 11,410 11,410 3,-70 10,-209 10,-209 20,-112 68,-337 68,-336 14,-109 11,-345 10,-353 l 4,16 0,-74 7,118 c -3,-122 9,-361 10,-375 l 3,61 c 7,22 11,29 12,28 l 0,3859 2069,0 c 202,114 569,348 569,348 402,8 1206,22 1206,22 131,-7 392,-22 392,-22 331,31 204,31 177,32 459,11 1376,35 1376,35 50,-6 148,-17 148,-17 -169,30 -506,93 -506,93 -442,10 -5298,121 -5298,121 -142,-1 -251,-17 -383,-55 -126,-40 -214,-82 -313,-151 -97,-71 -156,-133 -212,-224 -55,-96 -77,-175 -80,-278 3,105 24,181 79,278 55,91 115,154 211,225 100,70 186,112 313,152 133,39 242,55 385,56 0,0 6518,-50 6515,-50 712,-5 1351,-36 2059,-94 433,-37 862,-92 1297,-110 404,-13 519,24 882,54 29,2 302,4 302,4 104,-2 183,-14 278,-42 91,-30 153,-61 224,-111 68,-52 110,-98 149,-163 38,-69 53,-125 53,-199 2,-1 -27,-239 -26,-234 19,-56 34,-103 24,-160 -28,-89 -65,-144 -68,-238 25,-137 25,-132 27,-127 17,-320 61,-239 17,-607 -6,-51 6,-94 -10,-144 0,3 0,8 0,8 -12,-107 3,-78 -45,-168 0,6 0,17 0,17 l -24,-74 c 26,102 23,110 18,213 -10,-30 -28,-90 -28,-90 0,-47 4,-140 4,-140 -8,-19 -21,-57 -21,-57 8,-6 24,-17 24,-17 16,-332 30,69 27,-16 3,-1 7,-4 7,-4 0,-46 7,-140 7,-139 -2,-21 -7,-62 -7,-62 3,-11 14,-33 14,-33 4,-40 20,-123 20,-123 -2,-14 -7,-41 -7,-41 59,-242 61,-222 65,-205 19,-81 62,-242 62,-242 14,244 15,-11 17,-102 -41,56 -29,-5 -27,-17 -3,-56 -7,-168 -7,-168 -35,85 -35,88 -34,82 3,-31 27,-95 27,-94 l 7,-33 c -82,99 -69,15 -65,-12 6,-63 31,-189 31,-189 -3,-15 -7,-45 -7,-45 0,-5 3,-1 3,0 3,-2 10,-4 10,-4 19,-66 21,-27 14,-12 0,9 6,30 7,32 0,-54 20,-160 20,-160 -2,-6 -7,-20 -6,-20 -25,59 -38,1 0,-8 1,-16 3,-46 3,-53 0,6 3,16 3,16 55,-453 28,345 31,283 44,-99 34,-462 34,-435 -15,28 6,-34 4,-29 0,-17 0,-53 0,-53 27,-46 82,-139 82,-139 -6,-33 -17,-99 -17,-99 -12,23 -35,70 -35,70 -11,18 -14,90 -13,98 -25,-51 -40,-65 -41,-123 -9,67 -28,201 -28,201 -11,71 -34,214 -34,213 -23,107 -33,144 -44,259 -3,-23 -10,-70 -10,-70 -9,36 -35,107 -34,107 -1,93 -31,279 -31,279 0,19 0,57 0,57 l 10,-20 c -10,76 -14,229 -14,229 5,-8 14,-24 14,-24 -13,66 -20,201 -20,201 7,-18 22,-52 23,-54 -3,147 7,-19 7,-24 13,-28 38,-82 38,-82 10,-64 -3,-87 20,-173 5,-16 7,-17 11,-4 7,48 -2,124 -11,173 -17,-72 -11,-25 -10,-17 1,-3 4,-8 4,-8 -5,19 -4,71 -11,102 -1,-15 -3,-45 -3,-45 -15,73 -45,218 -45,218 -19,55 -31,69 -37,131 0,0 -3,-22 -3,-25 -16,40 -4,48 0,86 -8,85 -24,255 -24,255 5,-15 16,-43 17,-45 l -48,172 c -20,97 -22,171 -55,271 -2,-88 3,-126 28,-210 3,76 0,20 10,-28 -11,3 17,-147 17,-144 0,-42 0,-127 0,-127 l -24,78 c 0,-37 7,-111 7,-111 11,49 13,27 13,21 -6,-300 -9,-565 14,-866 -12,-166 -37,-500 -37,-500 -30,-26 -1,-291 6,-353 -2,-63 -6,-188 -6,-188 -16,73 -54,216 -55,221 7,-176 48,-323 48,-500 0,-221 54,-665 54,-665 -4,25 -30,111 -30,111 -4,-27 -11,-82 -11,-82 3,-107 35,-320 35,-320 4,31 9,91 10,98 l 0,-57 c -1,-39 -4,-119 -4,-119 21,-209 17,-80 17,-45 3,28 7,82 7,82 11,-18 11,-10 11,-8 6,97 -21,291 -21,291 13,-27 -3,192 -6,217 2,-3 3,-8 3,-8 -4,84 -11,251 -11,251 6,-32 14,-95 14,-95 5,309 13,-42 14,-53 2,-30 7,-90 7,-90 4,-17 6,-16 6,-9 l 7,-114 c 17,-77 16,-80 17,-74 2,19 1,53 0,80 l 7,-101 c 45,-353 41,-218 41,-184 4,-48 10,-144 10,-144 41,-205 39,-211 41,-197 3,100 -10,208 -20,308 6,89 13,267 13,267 17,183 -7,569 -6,565 -6,-51 -17,-155 -17,-155 -4,63 13,203 13,201 -4,77 -13,233 -13,233 -4,-116 -11,-348 -11,-348 -4,87 -13,262 -13,262 -7,-130 -21,-389 -21,-389 l 0,-3 -3,64 c -5,-277 -3,-279 -7,-270 -2,2 -2,20 -7,45 1,-59 3,-177 3,-177 -18,190 -54,570 -54,570 -10,51 -31,152 -31,152 0,44 -3,128 -3,145 0,-7 3,-18 3,-18 4,25 10,74 10,74 14,-66 -2,-53 -3,-111 6,-39 20,-119 20,-119 l 7,114 c 0,-37 8,-430 21,-429 l 3,-25 c 18,-25 17,-11 17,-8 4,35 0,112 0,110 l 17,-93 -34,655 c -4,54 -16,108 -13,160 l -7,37 0,-90 c -10,53 -4,160 -4,160 1,-7 7,-33 7,-37 46,-171 47,-24 48,4 2,-9 14,-65 14,-66 13,-96 25,-243 47,-336 31,-142 31,-25 31,25 l 3,34 0,1 c 1,30 12,-56 11,-48 -3,-95 -8,-150 0,-254 -2,2 -4,4 -4,4 -10,-198 -16,-252 14,-451 5,68 26,201 27,209 2,-79 -24,-233 -24,-233 3,-21 7,-62 7,-62 4,-53 10,-160 10,-160 -2,6 -7,27 -17,17 0,17 -3,53 -3,53 -7,-44 -3,-15 0,12 l -10,65 c -1,-18 -2,-221 7,-221 13,-104 23,-207 30,-311 -1,-47 -3,-140 -3,-140 l 20,-425 0,3 c 3,-375 17,-1128 17,-1128 l 0,-250 c -4,-133 -3,-406 -3,-406 -5,-12 -14,-37 -14,-37 3,-6 14,-16 14,-16 -3,-85 -10,-250 -10,-266 -2,30 -26,127 -24,118 -7,-33 -24,-99 -24,-98 2,-2 7,-5 7,-5 15,-102 29,-158 24,-262 -3,48 -7,144 -7,144 -13,-113 -38,-337 -38,-337 33,-253 30,-255 34,-246 0,-7 0,-106 0,-106 2,-380 18,-556 -27,-931 30,-47 87,-141 89,-144 l 0,-4 c 166,-332 76,-292 109,-558 5,-30 18,-64 27,-94 -3,30 -3,90 -3,90 3,0 10,0 10,0 1,-41 9,-73 0,-115 20,-66 64,-196 65,-201 l -3,29 0,-4 c -4,28 37,137 34,127 12,3 37,8 37,8 -3,-34 -25,-219 -41,-237 32,-86 127,-356 209,-415 87,-88 -25,-527 -31,-660 -8,24 -21,74 -21,74 -4,-27 -7,-260 -7,-260 -1,-64 -8,-120 -26,-183 -16,-60 -36,-112 -67,-168 -68,-116 -141,-199 -260,-290 -125,-91 -235,-147 -395,-201 -170,-52 -311,-76 -496,-80 l -34,-4 34,0 c 187,2 327,23 501,74 164,52 278,108 406,198 125,93 201,175 273,294 70,124 99,227 101,360 0,0 -2,67 -2,67 l 7,29 5,-96 c -2,-135 -31,-237 -101,-363 -72,-119 -149,-203 -275,-296 -128,-91 -244,-148 -409,-201 -175,-52 -316,-73 -506,-75 0,0 -112,-4 -108,-4 -70,-10 -211,-32 -211,-32 z M 1581,9594 c -2,-32 -8,-81 -12,-119 l 12,-205 0,324 z m 3950,3891 c -7,67 145,88 235,146 52,44 -1075,-130 -1121,-137 -249,5 -751,-8 -750,-8 l 19,-1 1617,0 z M 7939,138 c -2,0 -2,0 1,0 l -1,0 z m -2098,-67 0,0 0,0 z m 1091,261 1,0 -1,0 z m -6622,1722 0,6 0,3 0,1 m 0,144 0,1 0,-1 0,0 z m 0,1 0,19 0,-19 z m 180,1832 0,0 0,0 z m 58,1156 0,0 0,0 z m 93,51 0,1 0,1 m 160,1198 0,0 0,0 z m -61,1579 0,0 0,0 z m -55,-282 0,-1 0,-3 0,0 0,-1 m -31,-276 0,1 0,-1 z m 75,-360 0,-8 c 0,3 0,8 0,8 z m -6,-114 0,-1 0,1 z m -448,404 0,1 0,-1 z m 1062,4959 c 0,0 0,0 0,0 l 0,0 z m 198,-1611 0,0 0,0 z m 14,-874 0,0 0,0 z m 7,44 0,1 0,-1 z m 3089,3582 c -1,-1 -2,-1 1,0 l -1,0 z m 8723,-1832 0,0 0,0 0,0 m 161,-1518 0,0 0,0 z m -174,-1854 0,1 0,-1 z m 4,361 c -1,2 -1,3 -1,1 l 1,-1 z m 33,-4 c 0,7 -1,19 -3,28 l 3,-28 z m -3,28 0,2 0,1 0,2 m 27,-141 -1,3 -2,36 0,0 m 27,276 0,-1 0,1 z m -102,529 0,1 0,0 0,2 m 37,-63 0,1 0,-1 z m 150,102 0,-1 m 48,-539 0,0 0,0 z m 34,-2780 0,-4 c 0,1 0,4 0,4 z m -13,-725 0,-1 0,1 z m 34,-1867 0,0 0,0 z m 427,-2124 0,0 0,0 z"
             id="path18"
             style="fill:#ffe57f;fill-rule:nonzero" /><g
             id="g20"
             clip-path="url(#id0)"><g
                id="g22"><polygon
                   id="1"
                   class="fil3"
                   points="-4238,20260 -4238,-3733 18141,-3733 18141,20260 "
                   style="fill:#ffe57f" /><g
                   id="g25"><g
                      id="g27"><path
                         class="fil4"
                         d="m 1209,2096 c 3060,703 6253,-373 9069,-2650 l 3297,12933 c -898,786 -1897,1274 -2939,1547 -1721,394 -3341,400 -4870,50 -645,-115 -1275,-262 -1875,-423 L 1209,2096 z"
                         id="path29"
                         style="fill:none" /><path
                         class="fil5"
                         d="m 11692,13915 c 769,-336 1474,-792 2212,-1401 92,-83 145,-159 184,-268 35,-110 39,-197 14,-309 -1029,-4196 -2125,-8362 -3278,-12536 -25,-91 -64,-156 -138,-228 -77,-68 -150,-108 -256,-137 -107,-27 -195,-29 -304,-9 -108,23 -183,58 -265,121 7,8 -588,467 -588,467 -1129,836 -2281,1341 -3697,1775 -60,16 -120,32 -181,47 -1213,315 -2233,374 -3489,262 -246,-13 -970,-12 -773,353 14,19 24,36 34,44 0,1 26,32 45,68 5,105 17,199 26,293 472,3674 1303,7549 2073,11181 27,99 68,168 147,245 56,51 111,86 177,115 2664,908 5345,1075 8057,-83 z m -5713,59 c -668,-98 -1337,-248 -2061,-441 0,0 -1,0 -1,0 0,0 -1,-2 -1,-2 -68,-21 -2493,-11191 -2413,-10816 -32,-122 -67,-260 -107,-395 648,499 1767,470 2573,414 703,-40 1326,-153 2002,-324 693,-191 1398,-439 1989,-806 776,-511 1480,-1074 2164,-1666 63,212 123,424 180,638 321,1143 3186,11469 3120,11480 19,83 -603,514 -695,578 -1008,710 -1988,1084 -3181,1303 -1214,206 -2403,215 -3569,37 z"
                         id="path31"
                         style="fill:#ffffff;fill-rule:nonzero" /></g><path
                      class="fil5"
                      d="m 7887,2055 433,1690 c 28,106 11,208 -48,301 -59,93 -144,152 -253,170 l -675,116 675,3163 c 45,232 90,465 138,696 8,40 17,85 26,129 60,-40 118,-83 151,-108 l 220,-166 c 105,-79 231,-100 356,-57 124,43 211,136 245,263 l 516,1915 c 39,144 -5,289 -117,388 l -87,76 c -390,342 -851,551 -1360,646 -348,65 -699,46 -1033,-72 -323,-115 -602,-307 -811,-579 -205,-267 -340,-602 -441,-922 -144,-455 -236,-1004 -327,-1474 l -668,-3418 -279,52 c -199,37 -391,-86 -442,-282 L 3694,2976 c -82,-347 301,-344 664,-444 l -127,-624 2190,-2564 526,2679 c 516,-102 868,-310 940,32 z M 4126,5344 c 306,-60 599,120 653,401 55,281 -150,558 -456,617 -306,60 -599,-120 -653,-401 -55,-281 150,-558 456,-617 z m 4153,-809 c 306,-60 599,120 653,401 55,282 -150,558 -456,617 -306,60 -599,-120 -653,-401 -54,-281 150,-558 456,-617 z m -3394,6901 c 32,-88 98,-164 196,-209 l 3,-1 1,-1 c 97,-43 205,-47 300,-18 97,30 127,93 176,184 l 0,0 c 30,52 114,100 145,145 102,149 236,281 377,392 l 0,0 c 270,214 602,383 952,488 626,187 1202,154 1792,-124 l 0,0 c 336,-159 650,-383 903,-643 241,-249 427,-532 522,-822 l 1,0 c 32,-98 104,-175 195,-219 88,-43 195,-56 299,-29 l 0,0 c 7,2 15,4 23,7 l 0,0 c 720,237 -262,1362 -433,1540 -360,397 -1259,1068 -2278,1137 -410,33 -843,-20 -1257,-142 -599,-177 -1199,-510 -1614,-987 -17,-20 -104,-128 -180,-236 -98,-141 -188,-283 -123,-462 z"
                      id="path33"
                      style="fill:#ffffff;fill-rule:nonzero" /><path
                      class="fil6"
                      d="m 7475,2527 244,1197 -985,201 754,3707 c 126,619 208,978 248,1076 40,99 99,173 180,228 80,52 169,69 264,50 135,-27 314,-132 542,-311 l 439,1530 c -295,269 -654,446 -1080,532 -259,53 -506,40 -739,-37 -233,-79 -418,-207 -555,-379 -138,-173 -257,-420 -363,-742 -77,-225 -189,-695 -333,-1404 l -805,-3956 -662,135 -244,-1197 662,-135 -184,-909 1209,-1464 423,2078 985,-200 z"
                      id="path35"
                      style="fill:#999999;fill-rule:nonzero" /></g></g></g><path
             class="fil7"
             d="m 12450,322 c -62,6 -187,18 -187,18 130,24 2,16 11,17 -42,-6 -603,-110 -603,-96 -261,12 -653,74 -921,111 -40,-5 -120,-15 -120,-15 l -261,-40 c 232,9 196,1 426,-49 -222,1 -340,4 -563,-27 -9,-12 -28,-37 -28,-37 -16,4 -46,10 -46,10 l -244,-37 483,5 159,25 -5,0 c 156,43 140,43 130,44 44,5 131,15 131,15 110,-24 330,-72 330,-72 -140,-6 -415,-44 -415,-44 -188,4 -563,12 -563,12 -527,-40 -539,-38 -507,-41 210,-14 668,5 660,4 -5,-2 7,-2 6,-2 34,0 102,4 108,5 l -6,0 c 6,1 17,2 17,2 -1,0 -5,0 -5,0 0,1 0,3 0,3 -17,-2 -52,-5 -52,-5 -242,34 101,7 126,5 43,1 131,5 131,5 -192,-25 -575,-74 -575,-74 -294,0 -882,17 -882,17 -199,8 -308,-11 -472,54 -139,52 -738,6 -774,3 -31,11 -96,29 -96,29 -10,-12 -29,-37 -29,-37 -138,-6 -415,-19 -415,-19 -97,3 -130,15 -239,10 101,11 302,34 302,34 229,67 237,67 216,66 -137,-5 -411,-66 -410,-66 121,-4 37,-5 -34,-7 -41,-9 -125,-27 -125,-27 -221,-32 -214,-32 -205,-35 -91,-4 -273,-12 -273,-12 117,39 3,15 -11,12 49,-6 11,-7 -6,-7 C 6450,56 6249,63 6080,64 5787,31 5476,12 5181,0 c 181,27 546,61 546,61 30,-11 62,-17 85,5 25,-1 74,-5 74,-5 -15,3 -43,10 -45,10 42,-1 43,-10 125,-7 -33,3 -97,10 -97,10 527,91 539,90 506,91 -172,-4 -382,17 -557,27 62,12 188,39 188,39 557,73 562,70 546,74 237,-5 248,-1 233,-5 110,8 330,22 330,22 -27,2 -80,5 -80,5 206,57 -104,6 -103,5 l -119,8 c 17,0 52,2 52,2 -154,14 -461,42 -461,42 -884,-73 -898,-68 -854,-76 189,-21 413,-19 603,-18 -282,-36 -853,-86 -853,-86 -285,-17 -557,10 -842,10 -160,-6 -323,-15 -483,-25 216,17 648,50 648,50 209,33 626,101 626,101 221,70 236,68 216,69 -157,-14 -320,-64 -461,-69 -74,6 -221,19 -221,19 32,9 96,27 96,27 33,11 143,8 137,8 -71,17 -92,28 -171,29 l 278,20 -5,0 c 101,8 302,25 302,25 147,17 191,24 352,32 -135,10 -404,-27 -404,-27 77,-3 -42,-5 -51,-5 4,1 12,2 12,2 -207,-18 -620,-54 -620,-54 39,-7 119,-25 119,-25 -59,-5 -80,18 -142,22 -81,-7 -245,-19 -245,-19 111,-10 336,-10 336,-10 -155,-24 -66,-11 -205,-5 -340,-41 -313,-42 -290,-44 -112,-12 -336,-35 -336,-35 -51,31 -524,-27 -500,-24 -36,10 -108,27 -108,27 -56,-5 -967,-73 -967,-67 -210,4 -446,21 -657,34 -205,3 -362,27 -552,84 C 982,412 857,474 716,574 580,677 497,767 418,897 c -75,138 -105,248 -107,396 0,0 33,278 33,275 -18,147 -31,428 -34,486 2,-28 10,-73 10,-72 9,60 0,-7 0,-8 l 7,-49 3,114 c -17,74 -17,68 -17,62 -3,29 -3,79 -3,107 6,7 4,-8 3,-17 l 7,-41 c 0,53 -14,156 -14,156 0,86 -7,258 -7,258 16,-69 45,-209 45,-209 2,-60 13,-180 13,-180 9,97 4,-17 4,-21 l 13,-94 c -2,177 -37,529 -37,529 -7,19 -7,15 -7,12 -6,50 -20,148 -20,148 4,41 20,415 3,414 -77,493 -176,513 82,1021 7,-23 7,7 7,13 7,17 27,53 27,53 5,-26 14,-78 14,-78 -9,5 -28,16 -28,16 0,-75 -10,-155 4,-229 l -7,20 10,-111 c 25,-60 24,-63 24,-57 0,36 -20,107 -20,107 -17,20 8,-5 0,28 17,-34 62,87 64,95 43,-151 42,-133 41,-127 -1,61 -8,123 -17,184 2,8 7,25 7,25 -4,3 -14,8 -13,8 -4,34 -14,102 -14,102 10,-18 10,-14 10,-12 -4,29 -19,87 -20,90 l 0,-20 c -3,14 -7,41 -7,41 45,70 140,209 140,209 -14,43 -45,127 -45,127 -4,-67 1,-19 -17,33 14,-3 0,62 0,62 10,10 35,28 34,28 0,-5 3,-15 4,-16 0,8 3,24 3,24 l 7,-73 -3,69 c 45,-92 13,38 17,21 6,4 17,12 17,12 l 27,-143 -10,281 0,-7 c -19,76 -4,140 -27,230 -20,47 -9,-107 -11,-90 l -20,65 0,-4 -17,61 37,-266 c -1,7 -6,19 -6,21 l 0,-17 -11,37 7,-37 c -22,11 -65,33 -65,33 2,48 7,144 7,144 20,-24 5,61 3,61 l 4,94 7,-93 0,7 c 2,-23 7,-69 6,-69 6,138 18,414 18,414 l 61,-381 -3,79 c 1,-14 5,-18 3,-39 4,12 108,-407 106,-397 1,8 3,24 3,24 24,72 8,-22 4,-53 51,-197 160,-591 160,-591 2,3 4,9 4,9 1,-11 3,-33 3,-33 3,22 10,65 10,65 4,-12 0,10 0,9 11,99 -20,119 -20,213 4,150 13,451 13,451 -7,135 -27,406 -27,406 9,124 27,373 27,373 -3,27 -44,312 -44,312 -18,149 2,208 31,353 -2,9 -11,98 -28,53 0,1 0,4 0,4 -5,-64 -17,-193 -17,-193 -3,91 -61,267 -61,267 -3,-10 -6,-30 -7,-33 6,94 -14,283 -14,283 2,52 4,156 4,156 29,-114 42,-184 54,-300 1,20 5,46 7,66 8,-23 -2,-89 -3,-90 l 17,-131 0,184 c 13,8 1,81 -3,103 -39,198 -38,183 -38,168 -13,93 -27,279 -27,279 -1,220 -55,664 -55,664 41,-105 40,-93 41,-86 6,118 -13,259 -34,377 -2,-30 -10,-88 -10,-94 l 0,70 3,-17 0,119 c 3,10 21,60 -7,62 l -3,52 0,-7 0,7 0,1 0,82 c -2,14 -10,61 -10,61 -4,-31 3,-99 3,-98 6,27 4,-12 3,-20 -1,-24 -3,-70 -3,-70 1,-4 3,-13 3,-12 2,-14 2,-9 0,-5 -1,3 -3,9 -3,9 0,-3 0,-2 0,0 0,-6 0,-17 0,-17 l -7,49 0,-131 c -1,10 -5,35 -10,8 -4,-95 24,-287 24,-287 -7,8 -7,-17 -7,-16 -4,-101 21,-309 20,-308 -3,-45 -3,-135 -3,-135 -4,29 -13,85 -14,90 l 0,-291 c -6,146 -20,439 -20,439 -8,129 -2,-48 -3,-29 -11,60 -8,90 -7,148 -17,76 -16,79 -17,74 -4,-32 1,-92 3,-110 l -14,130 c -36,380 -34,389 -37,365 -13,-185 7,-568 7,-566 2,3 3,8 3,8 0,-26 3,-77 3,-85 l 0,3 7,-142 0,6 4,-68 0,274 c 3,-17 7,3 7,0 4,13 3,-21 3,-29 l 3,-20 -3,176 c 20,-198 61,-594 61,-594 l 0,-99 -6,-114 c -1,38 -12,435 -24,434 0,0 -4,25 -4,25 -7,11 -7,8 -7,8 -7,33 -11,-11 -10,-4 0,-36 4,-107 4,-107 l -17,90 30,-652 c 5,-50 14,-151 14,-151 7,43 3,-7 3,-9 l 4,-40 0,90 c 13,-76 10,-85 7,-160 -10,37 -10,37 -11,36 -31,190 -30,180 -30,173 -2,1 -4,4 -4,4 -4,-60 -14,-181 -13,-181 -4,27 -18,78 -18,78 4,-4 7,-12 7,-12 -5,26 -13,78 -13,78 l -24,131 0,-8 -14,61 24,-253 0,3 c 7,-65 20,-197 20,-197 -2,-2 -6,-8 -6,-8 -30,98 -27,3 -28,-20 -6,-4 -20,-13 -20,-13 -8,88 -52,264 -51,263 -21,192 -87,570 -89,582 0,-14 -4,-41 -4,-41 0,-48 3,-140 4,-154 l 0,3 c 3,-22 10,-66 10,-66 -28,-213 -14,1 -14,12 -7,112 -10,337 -10,336 -15,95 -45,183 -51,279 -44,196 -39,210 -41,197 -2,-100 10,-207 20,-307 -6,-220 14,-661 14,-661 39,283 6,-40 4,-61 2,-48 6,-144 6,-144 l -17,107 c 0,-28 -3,-82 -3,-82 -10,47 -7,139 -7,139 l -54,279 10,-160 c -46,255 -79,498 -82,755 23,-46 23,-47 24,-45 0,-4 0,-13 0,-13 3,5 3,13 3,13 0,-29 3,-86 3,-86 l 7,-143 0,6 4,-68 c 10,268 17,497 -4,767 5,1 14,4 14,4 -6,46 -17,139 -17,139 0,27 0,82 0,82 -13,56 -8,-12 -7,-25 -15,62 -31,3 -31,5 -6,296 -27,890 -27,889 -14,263 -92,486 -126,743 -1,6 -5,51 -24,45 -19,84 -57,225 -51,307 16,165 17,327 17,493 3,-28 10,-83 10,-83 63,-159 62,-169 61,-155 -7,98 -59,293 -61,299 4,-152 -3,18 -3,21 -18,94 -9,144 13,237 10,-45 31,-135 31,-135 7,-18 7,4 7,4 -2,51 -15,106 -28,156 -3,-51 -3,9 -3,12 54,194 198,574 198,574 8,-54 24,-164 24,-164 45,-122 44,-127 44,-114 -8,81 -14,164 -24,246 -53,-92 -15,98 -6,127 24,-60 23,-56 24,-54 -8,147 -25,58 40,234 47,-155 45,-137 45,-131 -5,63 -12,126 -21,189 13,33 227,598 202,598 -52,-2 -215,-316 -239,-361 -21,107 -58,320 -58,320 58,93 31,-17 41,-16 17,-68 17,-71 17,-66 0,34 -13,103 -14,107 1,-28 0,2 -3,25 112,137 358,402 358,401 0,-30 7,-90 7,-90 13,78 0,-10 0,-12 l 10,-65 c 1,65 8,117 0,184 12,14 38,41 38,41 2,-177 17,-529 17,-529 33,287 4,-47 3,-62 6,-102 17,-307 17,-307 10,322 20,607 0,931 33,29 365,330 458,238 -22,-113 -198,-1112 -198,-1112 29,-8 25,-162 24,-197 57,375 170,1124 170,1124 3,-36 7,-107 7,-107 35,-75 34,-68 34,-65 0,52 -27,156 -27,156 -4,-84 -3,9 -3,12 0,18 0,53 0,53 51,-253 153,-758 153,-758 0,-18 0,-54 0,-54 -18,82 -49,-63 -51,-74 -97,67 -46,-320 -44,-319 35,-266 124,-537 146,-796 27,-6 57,-186 65,-238 0,4 0,8 0,12 6,-69 56,-221 55,-217 -8,-10 -22,-49 -24,-53 -22,76 -20,42 -20,37 -6,28 -14,86 -14,86 -29,-345 -11,43 -10,53 l -55,279 3,-49 c -17,50 -19,-5 -20,-17 -8,174 -72,527 -72,525 -3,-227 -10,35 -10,45 l -41,209 44,-467 79,-345 c -3,-183 18,-375 17,-553 2,-47 7,-140 7,-140 1,-21 3,-65 3,-65 4,137 11,410 11,410 3,-70 10,-209 10,-209 20,-112 68,-337 68,-336 14,-109 11,-345 10,-353 l 4,16 0,-74 7,118 c -3,-122 9,-361 10,-375 l 3,61 c 7,22 11,29 12,28 l 0,3859 2069,0 c 202,114 569,348 569,348 402,8 1206,22 1206,22 131,-7 392,-22 392,-22 331,31 204,31 177,32 459,11 1376,35 1376,35 50,-6 148,-17 148,-17 -169,30 -506,93 -506,93 -442,10 -5298,121 -5298,121 -142,-1 -251,-17 -383,-55 -126,-40 -214,-82 -313,-151 -97,-71 -156,-133 -212,-224 -55,-96 -77,-175 -80,-278 3,105 24,181 79,278 55,91 115,154 211,225 100,70 186,112 313,152 133,39 242,55 385,56 0,0 6518,-50 6515,-50 712,-5 1351,-36 2059,-94 433,-37 862,-92 1297,-110 404,-13 519,24 882,54 29,2 302,4 302,4 104,-2 183,-14 278,-42 91,-30 153,-61 224,-111 68,-52 110,-98 149,-163 38,-69 53,-125 53,-199 2,-1 -27,-239 -26,-234 19,-56 34,-103 24,-160 -28,-89 -65,-144 -68,-238 25,-137 25,-132 27,-127 17,-320 61,-239 17,-607 -6,-51 6,-94 -10,-144 0,3 0,8 0,8 -12,-107 3,-78 -45,-168 0,6 0,17 0,17 l -24,-74 c 26,102 23,110 18,213 -10,-30 -28,-90 -28,-90 0,-47 4,-140 4,-140 -8,-19 -21,-57 -21,-57 8,-6 24,-17 24,-17 16,-332 30,69 27,-16 3,-1 7,-4 7,-4 0,-46 7,-140 7,-139 -2,-21 -7,-62 -7,-62 3,-11 14,-33 14,-33 4,-40 20,-123 20,-123 -2,-14 -7,-41 -7,-41 59,-242 61,-222 65,-205 19,-81 62,-242 62,-242 14,244 15,-11 17,-102 -41,56 -29,-5 -27,-17 -3,-56 -7,-168 -7,-168 -35,85 -35,88 -34,82 3,-31 27,-95 27,-94 l 7,-33 c -82,99 -69,15 -65,-12 6,-63 31,-189 31,-189 -3,-15 -7,-45 -7,-45 0,-5 3,-1 3,0 3,-2 10,-4 10,-4 19,-66 21,-27 14,-12 0,9 6,30 7,32 0,-54 20,-160 20,-160 -2,-6 -7,-20 -6,-20 -25,59 -38,1 0,-8 1,-16 3,-46 3,-53 0,6 3,16 3,16 55,-453 28,345 31,283 44,-99 34,-462 34,-435 -15,28 6,-34 4,-29 0,-17 0,-53 0,-53 27,-46 82,-139 82,-139 -6,-33 -17,-99 -17,-99 -12,23 -35,70 -35,70 -11,18 -14,90 -13,98 -25,-51 -40,-65 -41,-123 -9,67 -28,201 -28,201 -11,71 -34,214 -34,213 -23,107 -33,144 -44,259 -3,-23 -10,-70 -10,-70 -9,36 -35,107 -34,107 -1,93 -31,279 -31,279 0,19 0,57 0,57 l 10,-20 c -10,76 -14,229 -14,229 5,-8 14,-24 14,-24 -13,66 -20,201 -20,201 7,-18 22,-52 23,-54 -3,147 7,-19 7,-24 13,-28 38,-82 38,-82 10,-64 -3,-87 20,-173 5,-16 7,-17 11,-4 7,48 -2,124 -11,173 -17,-72 -11,-25 -10,-17 1,-3 4,-8 4,-8 -5,19 -4,71 -11,102 -1,-15 -3,-45 -3,-45 -15,73 -45,218 -45,218 -19,55 -31,69 -37,131 0,0 -3,-22 -3,-25 -16,40 -4,48 0,86 -8,85 -24,255 -24,255 5,-15 16,-43 17,-45 l -48,172 c -20,97 -22,171 -55,271 -2,-88 3,-126 28,-210 3,76 0,20 10,-28 -11,3 17,-147 17,-144 0,-42 0,-127 0,-127 l -24,78 c 0,-37 7,-111 7,-111 11,49 13,27 13,21 -6,-300 -9,-565 14,-866 -12,-166 -37,-500 -37,-500 -30,-26 -1,-291 6,-353 -2,-63 -6,-188 -6,-188 -16,73 -54,216 -55,221 7,-176 48,-323 48,-500 0,-221 54,-665 54,-665 -4,25 -30,111 -30,111 -4,-27 -11,-82 -11,-82 3,-107 35,-320 35,-320 4,31 9,91 10,98 l 0,-57 c -1,-39 -4,-119 -4,-119 21,-209 17,-80 17,-45 3,28 7,82 7,82 11,-18 11,-10 11,-8 6,97 -21,291 -21,291 13,-27 -3,192 -6,217 2,-3 3,-8 3,-8 -4,84 -11,251 -11,251 6,-32 14,-95 14,-95 5,309 13,-42 14,-53 2,-30 7,-90 7,-90 4,-17 6,-16 6,-9 l 7,-114 c 17,-77 16,-80 17,-74 2,19 1,53 0,80 l 7,-101 c 45,-353 41,-218 41,-184 4,-48 10,-144 10,-144 41,-205 39,-211 41,-197 3,100 -10,208 -20,308 6,89 13,267 13,267 17,183 -7,569 -6,565 -6,-51 -17,-155 -17,-155 -4,63 13,203 13,201 -4,77 -13,233 -13,233 -4,-116 -11,-348 -11,-348 -4,87 -13,262 -13,262 -7,-130 -21,-389 -21,-389 l 0,-3 -3,64 c -5,-277 -3,-279 -7,-270 -2,2 -2,20 -7,45 1,-59 3,-177 3,-177 -18,190 -54,570 -54,570 -10,51 -31,152 -31,152 0,44 -3,128 -3,145 0,-7 3,-18 3,-18 4,25 10,74 10,74 14,-66 -2,-53 -3,-111 6,-39 20,-119 20,-119 l 7,114 c 0,-37 8,-430 21,-429 l 3,-25 c 18,-25 17,-11 17,-8 4,35 0,112 0,110 l 17,-93 -34,655 c -4,54 -16,108 -13,160 l -7,37 0,-90 c -10,53 -4,160 -4,160 1,-7 7,-33 7,-37 46,-171 47,-24 48,4 2,-9 14,-65 14,-66 13,-96 25,-243 47,-336 31,-142 31,-25 31,25 l 3,34 0,1 c 1,30 12,-56 11,-48 -3,-95 -8,-150 0,-254 -2,2 -4,4 -4,4 -10,-198 -16,-252 14,-451 5,68 26,201 27,209 2,-79 -24,-233 -24,-233 3,-21 7,-62 7,-62 4,-53 10,-160 10,-160 -2,6 -7,27 -17,17 0,17 -3,53 -3,53 -7,-44 -3,-15 0,12 l -10,65 c -1,-18 -2,-221 7,-221 13,-104 23,-207 30,-311 -1,-47 -3,-140 -3,-140 l 20,-425 0,3 c 3,-375 17,-1128 17,-1128 l 0,-250 c -4,-133 -3,-406 -3,-406 -5,-12 -14,-37 -14,-37 3,-6 14,-16 14,-16 -3,-85 -10,-250 -10,-266 -2,30 -26,127 -24,118 -7,-33 -24,-99 -24,-98 2,-2 7,-5 7,-5 15,-102 29,-158 24,-262 -3,48 -7,144 -7,144 -13,-113 -38,-337 -38,-337 33,-253 30,-255 34,-246 0,-7 0,-106 0,-106 2,-380 18,-556 -27,-931 30,-47 87,-141 89,-144 l 0,-4 c 166,-332 76,-292 109,-558 5,-30 18,-64 27,-94 -3,30 -3,90 -3,90 3,0 10,0 10,0 1,-41 9,-73 0,-115 20,-66 64,-196 65,-201 l -3,29 0,-4 c -4,28 37,137 34,127 12,3 37,8 37,8 -3,-34 -25,-219 -41,-237 32,-86 127,-356 209,-415 87,-88 -25,-527 -31,-660 -8,24 -21,74 -21,74 -4,-27 -7,-260 -7,-260 -1,-64 -8,-120 -26,-183 -16,-60 -36,-112 -67,-168 -68,-116 -141,-199 -260,-290 -125,-91 -235,-147 -395,-201 -170,-52 -311,-76 -496,-80 l -34,-4 34,0 c 187,2 327,23 501,74 164,52 278,108 406,198 125,93 201,175 273,294 70,124 99,227 101,360 0,0 -2,67 -2,67 l 7,29 5,-96 c -2,-135 -31,-237 -101,-363 -72,-119 -149,-203 -275,-296 -128,-91 -244,-148 -409,-201 -175,-52 -316,-73 -506,-75 0,0 -112,-4 -108,-4 -70,-10 -211,-32 -211,-32 z M 1581,9594 c -2,-32 -8,-81 -12,-119 l 12,-205 0,324 z m 3950,3891 c -7,67 145,88 235,146 52,44 -1075,-130 -1121,-137 -249,5 -751,-8 -750,-8 l 19,-1 1617,0 z M 7939,138 c -2,0 -2,0 1,0 l -1,0 z m -2098,-67 0,0 0,0 z m 1091,261 1,0 -1,0 z m -6622,1722 0,6 0,3 0,1 m 0,144 0,1 0,-1 0,0 z m 0,1 0,19 0,-19 z m 180,1832 0,0 0,0 z m 58,1156 0,0 0,0 z m 93,51 0,1 0,1 m 160,1198 0,0 0,0 z m -61,1579 0,0 0,0 z m -55,-282 0,-1 0,-3 0,0 0,-1 m -31,-276 0,1 0,-1 z m 75,-360 0,-8 c 0,3 0,8 0,8 z m -6,-114 0,-1 0,1 z m -448,404 0,1 0,-1 z m 1062,4959 c 0,0 0,0 0,0 l 0,0 z m 198,-1611 0,0 0,0 z m 14,-874 0,0 0,0 z m 7,44 0,1 0,-1 z m 3089,3582 c -1,-1 -2,-1 1,0 l -1,0 z m 8723,-1832 0,0 0,0 0,0 m 161,-1518 0,0 0,0 z m -174,-1854 0,1 0,-1 z m 4,361 c -1,2 -1,3 -1,1 l 1,-1 z m 33,-4 c 0,7 -1,19 -3,28 l 3,-28 z m -3,28 0,2 0,1 0,2 m 27,-141 -1,3 -2,36 0,0 m 27,276 0,-1 0,1 z m -102,529 0,1 0,0 0,2 m 37,-63 0,1 0,-1 z m 150,102 0,-1 m 48,-539 0,0 0,0 z m 34,-2780 0,-4 c 0,1 0,4 0,4 z m -13,-725 0,-1 0,1 z m 34,-1867 0,0 0,0 z m 427,-2124 0,0 0,0 z"
             id="path37"
             style="fill:none" /></g>
    </g>
</svg>