<svg id="city_vrn" data-name="vrn" xmlns="http://www.w3.org/2000/svg" width="52.5mm" height="52.5mm" viewBox="0 0 148.82 148.82">
  <title>vrn</title>
  <g id="vrn">
    <path d="M86.6,109.67c-19.81.74-39.15,3.26-51.11,13.29a8.43,8.43,0,0,0-4.08,7.85,18.09,18.09,0,0,0,2.78.28L95.56,131c1-5.61,1.56-12.39-.79-16.36-4.56-5.56-3.26-3.74-8.14-4.93ZM59,94.68c-5.47-7-22.34-7.06-36.09-2.78v30.16c0.11,0.57.28,1.11,0.45,1.67a15.06,15.06,0,0,0,.65,1.56l0.51,0.94a12.69,12.69,0,0,0,.91,1.25c0.34,0.37.68,0.74,1,1.08s0.79,0.6,1.22.88,0.91,0.48,1.36.71,0.6,0.23.91,0.31c-0.09-2.3.91-4.54,2.66-7a40.88,40.88,0,0,1,13.86-8.53C44.82,108,50,101.28,59,94.65v0Zm24.46,2.07C81.35,92.32,77.27,90.09,71,91c-20.07,6.83-23,15.42-23.5,23.5,12.64-4.17,24.6-5.58,39.6-6-0.57-3.86-1.62-9.27-3.57-11.76v0Zm-7.46-7.29C75.32,78.6,72.54,74.21,61.8,75c-18.74,2-30.67,6-30.42,13.55,13.12-1.42,24.26-1.33,29.06,5.61C64.2,91.08,69.51,89.8,76.05,89.46ZM23,39V72.14c9-.91,15.36.74,19.16,5.47a40.74,40.74,0,0,1,10.23-2.3L43,47.74C39.66,39.26,33.11,36.48,23,39Zm0,34.41v17A26.12,26.12,0,0,1,30,88.78c0.79-5.67,4.79-9.07,10.66-10.63-4-4.62-9.67-5.78-17.74-4.79v0Z" style="fill: #fc0"/>
    <path d="M70.81,72.85C68.43,74.18,66.59,74.64,66,74a1.85,1.85,0,0,1-.34-1.39c-0.09-1-.2-2.07-0.34-3.12s-0.37-2-.62-2.92c-0.17-.62-0.37-1.22-0.6-1.84A18.84,18.84,0,0,0,63.33,63a17.88,17.88,0,0,0-1.19-2c-0.28-.4-0.57-0.77-0.85-1.13L61,59.53a10.15,10.15,0,0,1-2.58.23c-0.45,0-.88-0.06-1.33-0.11-0.74-.11-1.42-0.26-2.13-0.43a8.85,8.85,0,0,1-1.22-.43c-0.4-.17-0.79-0.34-1.19-0.54s-0.77-.43-1.13-0.68-0.74-.54-1.08-0.79l-1-.94a11.06,11.06,0,0,1-.94-1.08c-0.31-.43-0.62-0.82-0.91-1.28-0.77-1.64-1.53-3.29-2.27-5-2.52-5.67-4.85-11.42-7.57-17-0.26-.48-0.48-1-0.74-1.47-1.9.62-3.49,0.57-4.31-.37-1.45-1.7.28-5.58,3.86-8.65s7.68-4.17,9.13-2.47c0.85,1,.6,2.75-0.48,4.65,0.6,0.43,1.22.82,1.81,1.25,5.22,3.43,10.6,6.58,15.9,9.89,1.28,0.82,2.58,1.64,3.86,2.49l0.79,0.71c0.34,0.34.68,0.71,1,1.08s0.57,0.74.85,1.13,0.48,0.77.71,1.16,0.37,0.79.57,1.22L71,43.37q0.21,0.85.34,1.7c0.09,0.6.11,1.16,0.14,1.73s0,1.16-.09,1.76a13.57,13.57,0,0,1-.6,2.78c0.4,0.45.79,0.85,1.19,1.28s0.94,0.82,1.45,1.22,1,0.71,1.56,1,1.11,0.62,1.7.91,1.5,0.65,2.27,1c1,0.34,2,.65,2.95.91,0.77,0.2,1.84.2,2.35,0.82,0.82,1-.85,3.77-3.88,7L70.92,73Z"/>
    <path d="M125.86,128.83c-5.58-5-9.89-15.22-13.8-23.24C104.83,94.45,96.83,90,89.55,85.24c4.34,4,7.48,7.17,11.82,11.2q3.87,4.89,7.31,9.86c4.54,8.93,7.94,17.72,14.23,24.12l0.68-.26c0.48-.23.91-0.45,1.36-0.71a9.8,9.8,0,0,0,.88-0.62h0Zm-23.22-8.28c-2-3.71-3.74-12-5.56-15.82,2.35,7.46,4.51,17.94,2.49,26.28h12.25a30.26,30.26,0,0,1-9.16-10.46h0ZM114,131h2.52c0.68,0.06,1.36.11,2.07,0.11s1.22-.06,1.84-0.11a11.47,11.47,0,0,0,1.36-.26,42.32,42.32,0,0,1-10.29-16.36A69,69,0,0,0,92.78,89.26c-3.46-3.88-7.88-7.31-12.13-10.8A146.83,146.83,0,0,1,95,98.56c3.17,6,4.65,11.14,7.23,18.74A33.38,33.38,0,0,0,113.92,131h0ZM75.51,63.27l-0.2-.06-1.9,1.62a87,87,0,0,0,13,8.25C94.14,77,98.82,81.81,104,86.43c-3.74-6.12-9.81-11.79-17.89-16.7Zm-2.38,2-0.2,0-1.42,1.28V66.7A50.85,50.85,0,0,0,86.66,81.78a61.61,61.61,0,0,0,6.75,5.16,77,77,0,0,1,15.53,12.33c-4.45-9.81-18-18.37-28.26-26.93C91,79.06,99.95,85.95,107,93.71c-3.66-7.23-9.69-13.55-19-18.6L73.11,65.28h0Zm-2.21,1.84A3.92,3.92,0,0,0,70.64,71c5,10.2,16.44,18.79,25.29,31.38-3.6-8.45-10.18-16.61-17.26-24.72L70.92,67.15v0Z" style="fill: #999"/>
  </g>
</svg>
