<?xml version="1.0" encoding="UTF-8" standalone="no"?>
<svg
     xmlns:dc="http://purl.org/dc/elements/1.1/"
     xmlns:cc="http://creativecommons.org/ns#"
     xmlns:rdf="http://www.w3.org/1999/02/22-rdf-syntax-ns#"
     xmlns:svg="http://www.w3.org/2000/svg"
     xmlns="http://www.w3.org/2000/svg"
     xml:space="preserve"
     version="1.1"
     viewBox="0 0 190 40"
     id="bzlogo-transparent">
    <defs id="defs4" />
    <g
        id="Слой_x0020_1"
        transform="matrix(0.0036571517,0,0,0.0035692861,0,2.000667055)">
        <g
            id="_216805824">
            <path
                class="fil0"
                d="M 31620.56316,2091 C 33693.56316,2569 36131,1838 38039,293 l 2234,8776 c -608,534 -1285,865 -1991,1050 -1052,241 -2144,246 -3300,34 -437,-78 -864,-178 -1271,-287 z"
                id="path11"
                style="fill:#ffcc00" />
            <path
                class="fil1"
                d="m 36055,3485 471,2207 c 31,162 63,324 96,485 6,28 12,59 19,90 41,-27 82,-57 105,-75 l 154,-116 c 73,-55 161,-69 247,-40 87,30 148,95 172,184 l 360,1336 c 27,100 -4,201 -82,270 l -61,54 c -272,238 -593,384 -948,450 -243,46 -488,32 -721,-50 -225,-80 -420,-214 -566,-404 -143,-186 -237,-420 -308,-643 -100,-318 -164,-700 -227,-1029 l -467,-2384 c -244.38703,87.831805 -378.49261,-31.79521 -502,-160 l -5,-18 -1084,1687 c 74,339 151,688 227,1035 l 993,2394 0,0 c 79,189 -11,405 -199,484 -48,19 -97,28 -145,28 83,360 136,579 144,581 l 1,1 0,1 c 491,131 918,248 1371,314 879,98 1668,124 2444,-40 806,-148 1468,-401 2148,-879 l -12,-6 c -210,-100 -392,-250 -543,-448 -143,-187 -250,-397 -320,-630 l 0,0 c -2,-7 -4,-14 -6,-20 -64,-221 -96,-461 -96,-719 0,-173 15,-341 46,-502 32,-162 79,-316 143,-461 66,-151 146,-284 239,-401 69,-86 146,-162 230,-230 l -144,-526 -128,-32 c -204,-51 -325,-265 -264,-466 35,-168 77,-323 127,-467 -339,-1234 -665,-2486 -1029,-3713 -464,402 -941,784 -1467,1131 -20,12 -40,24 -60,37 l 328,1280 c 19,75 8,146 -33,210 -41,65 -101,107 -177,120 z m -2394,-354 -152,-592 c -509,21 -1388.43684,-7 -1762.43684,-295 27,91 51,185 73,268 -11,-49 42,194 135,619 z m 225,-1321 -2,-16 1527,-1789 234,1336 c 618,-240 1441,-731 1713,-933 272,-202 323,-253 398,-317 56,-43 107,-66 180,-82 74,-14 133,-12 206,6 72,20 122,47 174,94 50,48 93,154 93,154 l 2078.51929,8841.831929 C 40487.51929,9104.831929 39420,9927 38997,10112 c -1444,617 -3190,780 -5460,56 -44,-19 -81,-44 -119,-78 -54,-52 -100,-166 -100,-166 0,0 -1229.91345,-4771.656683 -2059.01373,-7662.910136 -53.57795,-186.837981 4.15514,-125.103005 -45.63517,-294.44083 -52.39369,-178.191997 79.42112,-225.704672 312.40355,-207.499948 328.04899,25.633012 743.18103,57.588391 840.24535,62.850914 547,49 1028,50 1520,-12 z m -76,2381 c 214,-41 418,84 456,280 38,196 -105,389 -318,430 -214,42 -418,-84 -456,-280 -38,-196 104,-389 318,-430 z m 2898,-564 c 213,-42 417,84 455,280 38,196 -104,389 -318,430 -214,42 -418,-84 -456,-280 -38,-196 105,-389 319,-430 z m -2368,4814 c 22,-62 68,-114 137,-146 l 2,-1 0,0 c 68,-30 143,-33 209,-13 68,21 89,65 124,129 l 0,0 c 20,36 79,69 101,101 71,103 164,195 262,273 l 1,0 c 188,150 420,268 663,341 437,130 839,107 1251,-87 l 0,0 c 234,-111 453,-267 629,-448 169,-174 299,-371 365,-574 l 0,0 c 23,-68 73,-122 137,-153 61,-30 136,-39 208,-20 l 0,0 c 5,2 11,3 16,5 l 1,0 c 66,22 118,65 150,118 33,56 44,121 27,186 -2,5 -3,10 -4,14 l 0,0 c -89,270 -258,529 -476,757 -251,276 -878,745 -1589,792 -286,24 -588,-14 -877,-99 -418,-123 -837,-356 -1126,-688 -12,-14 -72,-89 -125,-165 -69,-98 -132,-197 -86,-322 z"
                id="path13"
                style="fill:#ffffff;fill-rule:nonzero" />
            <path
                class="fil2"
                d="m 370,8900 0,-7454 1027,0 0,2685 c 317,-502 691,-753 1125,-753 473,0 864,239 1174,715 310,475 465,1159 465,2051 0,921 -159,1633 -475,2131 -315,498 -698,746 -1149,746 -222,0 -440,-76 -656,-231 -216,-154 -402,-381 -558,-683 l 0,793 -953,0 z m 39753,-3752 -932,-234 c 105,-523 284,-908 540,-1159 257,-250 636,-377 1140,-377 459,0 800,76 1025,227 223,151 381,342 472,575 92,232 138,657 138,1279 l -12,1667 c 0,474 17,824 50,1050 33,224 95,467 185,724 l -1017,0 c -26,-96 -60,-236 -98,-422 -17,-85 -29,-141 -37,-168 -175,237 -363,414 -562,534 -200,118 -413,177 -640,177 -400,0 -715,-151 -945,-451 -231,-302 -345,-684 -345,-1145 0,-304 52,-576 157,-816 105,-239 252,-422 440,-548 189,-127 462,-238 817,-333 480,-125 813,-243 997,-351 l 0,-142 c 0,-276 -48,-471 -146,-588 -97,-117 -280,-176 -551,-176 -183,0 -326,51 -428,151 -102,99 -185,274 -248,526 z m 1373,1159 c -131,61 -339,134 -625,219 -284,85 -470,168 -559,248 -133,134 -201,300 -201,503 0,201 54,373 161,519 108,146 244,219 410,219 186,0 361,-85 530,-254 125,-128 206,-286 244,-473 28,-122 40,-354 40,-696 l 0,-285 z m 1877,2593 0,-1428 1027,0 0,1428 -1027,0 z m 2918,0 -1027,0 0,-5399 953,0 0,767 c 163,-362 311,-602 440,-716 131,-115 279,-174 445,-174 234,0 459,90 676,271 l -318,1244 c -173,-155 -334,-233 -482,-233 -145,0 -266,54 -366,165 -101,110 -178,309 -235,597 -58,288 -86,892 -86,1810 l 0,1668 z m 4339,0 0,-809 c -142,288 -328,515 -557,682 -231,165 -475,248 -730,248 -261,0 -494,-80 -701,-238 -208,-159 -357,-383 -451,-671 -92,-288 -138,-687 -138,-1196 l 0,-3415 1026,0 0,2480 c 0,760 19,1225 58,1397 37,170 106,305 206,406 100,101 227,149 380,149 176,0 333,-66 472,-199 138,-136 233,-301 284,-498 51,-200 78,-686 78,-1458 l 0,-2277 1026,0 0,5399 -953,0 z M 1389,6083 c 0,559 64,972 190,1241 179,380 414,569 710,569 226,0 419,-135 579,-404 160,-269 240,-694 240,-1274 0,-616 -82,-1062 -243,-1334 -159,-273 -365,-410 -617,-410 -246,0 -451,134 -614,399 -163,267 -245,670 -245,1213 z m 5699,1099 1024,237 c -132,523 -339,920 -623,1193 -284,274 -639,409 -1066,409 -675,0 -1174,-305 -1498,-920 -256,-491 -385,-1112 -385,-1860 0,-895 169,-1596 506,-2103 335,-507 761,-760 1275,-760 577,0 1033,265 1367,796 333,531 493,1343 479,2438 l -2574,0 c 8,424 90,754 249,988 158,236 356,354 592,354 161,0 296,-61 406,-182 110,-124 193,-320 248,-590 z m 59,-1444 c -8,-415 -84,-729 -230,-944 -146,-215 -324,-323 -534,-323 -225,0 -409,115 -555,342 -146,226 -218,534 -216,925 l 1535,0 z m 1299,3162 0,-1114 1455,-2322 c 238,-380 415,-649 529,-809 -119,10 -276,16 -471,19 l -1371,11 0,-1184 3209,0 0,1012 -1483,2379 -523,788 c 284,-25 462,-37 530,-37 l 1590,0 0,1257 -3465,0 z m 4778,-3752 -932,-234 c 104,-523 284,-908 540,-1160 257,-250 636,-376 1140,-376 459,0 800,76 1025,227 223,151 381,342 473,575 91,232 137,657 137,1278 l -11,1668 c 0,474 16,824 49,1050 33,224 95,467 185,724 l -1017,0 c -26,-96 -60,-236 -98,-422 -17,-85 -29,-141 -37,-168 -175,237 -363,414 -562,534 -200,118 -413,177 -640,177 -400,0 -715,-151 -945,-451 -231,-302 -345,-684 -345,-1145 0,-304 52,-577 157,-816 105,-239 252,-422 440,-548 189,-127 462,-238 818,-334 479,-124 812,-243 996,-350 l 0,-142 c 0,-276 -48,-471 -146,-589 -97,-116 -280,-175 -551,-175 -183,0 -326,50 -428,151 -102,99 -185,274 -248,526 z m 1373,1159 c -131,61 -339,134 -625,219 -284,85 -470,168 -559,248 -133,133 -201,300 -201,503 0,201 54,373 161,519 108,146 244,219 410,219 186,0 361,-85 530,-254 125,-128 206,-286 244,-473 28,-122 40,-354 40,-696 l 0,-285 z m 5408,2593 -1027,0 0,-2756 c 0,-583 -22,-960 -66,-1132 -43,-170 -116,-303 -214,-399 -99,-93 -217,-142 -356,-142 -178,0 -338,68 -479,203 -141,137 -238,316 -291,540 -52,224 -78,637 -78,1241 l 0,2445 -1027,0 0,-5399 953,0 0,793 c 339,-611 766,-916 1280,-916 226,0 434,57 622,170 187,114 329,258 425,435 96,177 163,377 201,601 39,224 57,543 57,960 l 0,3356 z m 2676,-5399 0,1138 -701,0 0,2177 c 0,440 6,697 19,770 14,73 44,132 92,180 47,47 106,72 173,72 96,0 233,-47 414,-137 l 88,1107 c -240,142 -510,213 -813,213 -184,0 -352,-43 -500,-128 -148,-87 -257,-200 -327,-337 -70,-137 -117,-323 -145,-557 -21,-165 -32,-502 -32,-1006 l 0,-2354 -472,0 0,-1138 472,0 0,-174 1031,-833 0,1007 701,0 z m 1551,5399 -1027,0 0,-5399 953,0 0,767 c 164,-363 311,-602 441,-717 131,-114 278,-173 444,-173 235,0 459,90 676,271 l -318,1244 c -172,-155 -333,-233 -482,-233 -144,0 -265,54 -365,165 -101,109 -179,309 -236,597 -57,288 -86,892 -86,1810 l 0,1668 z m 2552,-3752 -932,-234 c 105,-523 284,-908 540,-1160 257,-250 636,-376 1141,-376 459,0 799,76 1024,227 223,151 382,342 473,575 91,232 137,657 137,1278 l -11,1668 c 0,474 16,824 50,1050 32,224 94,467 184,724 l -1017,0 c -26,-96 -59,-236 -98,-422 -16,-85 -29,-141 -36,-168 -176,237 -363,414 -563,534 -200,118 -413,177 -640,177 -399,0 -715,-151 -945,-451 -230,-302 -345,-684 -345,-1145 0,-304 52,-577 157,-816 105,-239 252,-422 440,-548 189,-127 462,-238 818,-334 479,-124 812,-243 997,-350 l 0,-142 c 0,-276 -49,-471 -146,-589 -98,-116 -281,-175 -552,-175 -183,0 -326,50 -428,151 -102,99 -184,274 -248,526 z m 1374,1159 c -131,61 -340,134 -625,219 -285,85 -471,168 -559,248 -134,133 -201,300 -201,503 0,201 53,373 161,519 107,146 243,219 409,219 186,0 362,-85 530,-254 125,-128 206,-286 245,-473 27,-122 40,-354 40,-696 l 0,-285 z m 1839,2593 0,-5406 1028,0 0,1907 1202,-1900 1265,0 -1326,1971 1421,3428 -1107,0 -977,-2425 -478,696 0,1729 -1028,0 z m 6150,-6674 170,835 -688,140 527,2586 c 87,432 145,683 173,751 28,69 69,121 125,159 56,36 118,48 184,35 94,-19 219,-92 379,-217 l 306,1068 c -206,187 -456,310 -753,371 -181,36 -354,27 -516,-26 -163,-56 -292,-145 -388,-265 -95,-121 -179,-293 -253,-517 -53,-157 -131,-485 -232,-980 l -561,-2760 -463,94 -170,-835 463,-94 -129,-634 843,-1022 296,1451 687,-140 z"
                id="path15"
                style="fill:#000000;fill-rule:nonzero" />
        </g>
    </g>
</svg>