<?xml version="1.0" encoding="UTF-8" standalone="no"?>
<svg
    xmlns:dc="http://purl.org/dc/elements/1.1/"
    xmlns:cc="http://creativecommons.org/ns#"
    xmlns:rdf="http://www.w3.org/1999/02/22-rdf-syntax-ns#"
    xmlns:svg="http://www.w3.org/2000/svg"
    xmlns="http://www.w3.org/2000/svg"
    version="1.1"
    id="order-button"
    preserveAspectRatio="none"
    viewBox="0 0 540 54">
<path
    clip-rule="evenodd"
    d="m 0.7068641932,33.6963597 c 0.002,-1.8099656 1.1579981448,-18.26165299 1.1579981448,-18.26165299 0.09999984,-0.8629836 0.20599967,-1.7259672 0.308999505,-2.58995078 0.243999609,-1.57597006 1.02299836,-2.75994756 2.898995354,-4.214919913 1.84099705,-1.348974366 3.783993937,-2.311956068 6.893988953,-3.401935356 0.0369999,0.0069999 4.86399221,-1.519971117 5.08499186,-1.420972998 1.60599742,-0.35999316 3.0549951,-0.625988105 4.81399228,-0.901982861 4.21999324,-0.608988428 7.53198793,-0.88198324 12.14498054,-0.962981701 0.011,0.0029999 10.11598379,-0.165996846 9.4859848,-0.15999696 20.27096752,-0.186996446 62.71789947,0.518990138 62.32390007,0.511990271 15.7779747,0.228995649 48.5099223,-9.99981e-4 48.2919226,0 2.7069957,0.04799909 8.124987,0.144997245 8.124987,0.144997245 l 11.8139811,-0.212995953 c 12.5759798,0.132997473 25.0739598,0.322993863 37.6589397,0.144997245 10.1889836,-0.04899907 30.571951,-0.144997245 30.569951,-0.144997245 3.8949937,0.02999943 41.0559342,0.31999392 41.0559342,0.28999449 15.9409744,-0.174996675 32.3569481,-0.926982385 48.2959226,-1.10197906 9.8059843,0.0029999 19.5799686,0.01899964 29.3869529,0.07799852 18.0269711,0.199996199 36.0599422,0.953981872 54.0519134,1.168977787 7.6149878,0.05399897 10.7169828,-0.5209901 18.7599699,-0.946982006 12.2819803,-0.588988808 17.6159718,-0.567989207 29.2369532,-0.655987534 7.445988,-0.1379973785 25.3469594,-0.4379916779 31.7539491,-0.955981835 C 495.5560712,0.0149997171 501.3960619,2.161215991e-9 501.3960619,2.161215991e-9 506.9720529,0.0589988811 511.1350463,0.4129921544 516.0920383,1.218976839 c 0,0 6.3769898,1.238976457 6.1669901,1.318974937 1.9479969,0.5209901 3.4469945,0.969981568 5.1609918,1.574970072 3.4429944,1.273975792 5.582991,2.406954263 7.5599878,3.964924658 1.8369971,1.576970034 2.6639958,2.842945984 2.9429953,4.513914224 -0.03,0 0.032,0.25399518 0.032,0.25399518 -0.1359998,0.0159997 1.6059974,6.1358834 1.3739978,6.1358834 -0.1749997,2.69394881 -0.9129986,5.49189565 -1.3999978,8.1938443 0.2319996,1.37397389 0.7009989,4.1209217 0.7009989,4.1209217 C 539.0870015,31.54540057 540,32.04539107 540,32.04539107 c -0.3049995,1.23297657 -0.9129985,3.6999297 -0.9129985,3.69792974 -0.082,-0.49899052 -0.2449996,-1.49897152 -0.2449996,-1.49697156 -0.4589993,0.37399289 -1.3719978,1.12297866 -1.3719978,1.12297866 0.3659994,2.05696092 0.7029988,3.21293895 1.6159974,5.24490034 -0.002,0.0149997 -0.03,0.17799662 -0.026,0.17799662 -0.2679996,1.8099656 -1.1639981,3.17993957 -3.2909947,4.86190761 -2.1209966,1.56997017 -4.385993,2.70094868 -8.0379871,3.95792479 -3.6699942,1.20597708 -7.0299888,1.97396249 -11.8339811,2.67594915 -0.028,-0.0109998 -2.5879958,0.32299386 -2.5879958,0.32299386 -4.0119936,0.47699094 -7.6189878,0.63998784 -11.9139809,0.65198761 L 443.245155,52.97599335 c 0,0 -90.2348554,1.02998043 -90.2348554,1.02398054 -32.456948,-0.14999715 -65.4508951,-0.52299006 -97.9138431,-0.87998328 -12.4119801,-0.23699549 -13.0319791,-0.23799548 -13.2919787,-0.24099542 l -41.4989335,-0.0479991 c -1.0489983,0 -23.6289621,0.0479991 -23.6289621,0.0479991 -10.0769839,-0.10899793 -20.3479674,-0.61998822 -30.569951,-0.68598696 -5.0659919,0 -9.8539842,-0.0289994 -14.9169761,-0.0969982 l -15.6539749,-0.0969982 c -3.1809949,0 -35.14894368,-0.0559989 -35.14894368,-0.0469991 -6.09299024,0.004 -12.08298064,0.0499991 -18.16697089,0.14399726 -1.81999709,0.0159997 -5.46299125,0.0489991 -5.46299125,0.0489991 L 46.56779071,51.75801649 c -0.89099857,-0.002 -12.2319804,0.0229996 -12.55497988,-0.34799338 5.54599111,-0.42699189 14.12797736,-0.92698239 20.97396639,-1.30297525 H 34.01381083 c -14.28097712,0 -25.9659584,-4.19192034 -25.9659584,-9.31582298 V 12.84475593 c 0,-4.858907676 10.50998316,-8.87983127 23.77596191,-9.281823631 -2.8129955,0.03599932 -5.21499165,0.21999582 -8.08598705,0.573989093 C 20.13483307,4.629912024 17.70283696,5.174901668 14.89184147,6.046885099 12.01084608,6.991867142 10.23884892,7.842850972 8.50985169,9.039828226 6.735854532,10.35080332 5.958855777,11.419783 5.642856284,12.84475593 c 0.004,0 -0.585999061,3.00794284 -0.579999071,2.96394368 -0.642998969,9.55181849 -0.707998865,9.51581917 -0.670998925,9.69381579 -0.02799996,3.08994129 -0.151999756,6.22988162 -0.45499927,9.31782294 -0.317999491,1.98196234 -0.860998621,3.99092417 -1.358997823,5.97088654 -0.228999633,1.55297049 0.126999797,2.84494594 1.507997584,4.33191769 0.004,0 0.02999995,0.0309994 0.02999995,0.0309994 1.416997729,1.46197222 3.117995003,2.5469516 5.978990421,3.77892819 3.03999513,1.23397655 5.9329905,2.04896107 10.18298369,2.8469459 4.63499257,0.80598469 8.46298644,1.16997777 13.73397799,1.30997511 -5.32099147,-0.0649988 -9.2349852,-0.38299272 -14.01697754,-1.12297866 C 15.4958405,51.20802694 12.44484539,50.42904175 9.116850715,49.20806495 5.896855875,47.96108864 3.953858988,46.85910958 2.222861762,45.34513835 0.5518644396,43.75016866 -0.0471346006,42.47119296 0.0028653193,40.79122488 c 0.0029999952,0 0.7059988687,-7.10386501 0.7039988719,-7.09486518 l 0,0 z M 405.3432158,50.10704786 l 6.1539901,0.21299596 c 3.100995,-0.0489991 9.3019851,-0.14499725 9.3019851,-0.14499725 l 0.3769994,-0.0669987 h -15.8329746 l 0,-9.9999e-4 z m 70.5568869,0 3.8229939,0.21299596 c 0.2319996,-0.0319994 0.8109987,-0.11199787 1.4239977,-0.21299596 h -5.2469916 l 0,0 z m 30.7129508,-1.09897911 c 1.1939981,-0.10299805 2.3739962,-0.24599533 3.6499942,-0.4369917 -0.002,-0.006 0.5369991,-0.0859984 0.5349991,-0.0859984 2.8059955,-0.45999126 4.7469924,-0.95598184 6.7769891,-1.71896734 2.2029965,-0.88698315 3.4469945,-1.67696813 4.2539932,-2.77294731 0.7029989,-1.15997796 0.5359992,-2.04496114 -0.011,-3.20293914 -1.0109983,-2.3469554 -1.2959979,-4.5519135 -1.4019977,-6.92086849 l -0.03,-1.64196879 v 8.56283728 c -10e-4,3.54593262 -5.593991,6.64487374 -13.7729779,8.21784385 l 0,0 z m 13.7719779,-22.36457503 c 0.058,-4.59891261 0.2439996,-9.1988252 0.4169994,-13.79873779 l -0.4569993,-1.66796831 c -0.067,-0.10999791 -1.0359983,-1.234976533 -1.0359983,-1.234976533 -0.3899994,-0.334993635 -0.7879988,-0.637987877 -1.2309981,-0.924982423 1.4799977,1.168977786 2.3069963,2.465953146 2.3069963,3.828927246 v 13.79773781 z"
    id="order-button-path3"
    style="fill:#000000;fill-rule:evenodd" />
</svg>