<svg id="city_sam" data-name="sam" xmlns="http://www.w3.org/2000/svg" width="52.5mm" height="52.5mm" viewBox="0 0 148.82 148.82">
  <title>sam</title>
  <path id="sam" d="M52.72,22.93c2.92-1.5,3.8-3.29,3.88-5.22-0.77,1.76-1.53,2.64-2.3,2.89a4.07,4.07,0,0,1-.62-1.79,5.79,5.79,0,0,0-.4,2,2.49,2.49,0,0,1-2.07,1.3,21.62,21.62,0,0,0,.11-4.22c-1.42,5.44-3.86,7.37-7.2,9.33A12.7,12.7,0,0,1,44,22.88a3.65,3.65,0,0,1-1.67,1.59,10.93,10.93,0,0,1-.11,3.63c-0.85,1.79-1.5,3.51-2.32,5.3-2.32,1.87-3.71,3.8-5.64,5.56A11.43,11.43,0,0,0,33,41a31.87,31.87,0,0,1-5.81,6.55A3.68,3.68,0,0,0,27,49.21a5,5,0,0,0,2.55,2.58,4.64,4.64,0,0,0,2.32-.14c1.16-.65,2.3-1,3.46-1.67a6.54,6.54,0,0,1,4.9.23,11.14,11.14,0,0,1,3.54,6.24c0.57,3.12.45,5.64,0.71,7.63,0.71,9.47,13.69,20.52,13.46,21.6,0.94,1.7.77,3.54,0.54,5.36a27.91,27.91,0,0,0,0,8.7c0.37,1.81,1.16,3.34,1.33,5.22,0.11,3.34-1.13,7.68-2.41,12.08a4.83,4.83,0,0,1-2.18,2.69,8.24,8.24,0,0,0-.62,2.52c-1.39,1.5-2.86,1.73-4.17,2.41-1,2,1,3.69,2.69,3.34,1.08-.48,2.1-1.28,3.17-1.76,3.57-.48,2.49-3,3-6.77,1.28-.88,2.13-2.61,2.49-5.41,0.45-2.49.91-5,1.33-7.51,0.4-2.81.79-5.64,1.22-8.45,0.77,0,1.33.79,1.22,4.17a10.81,10.81,0,0,0,2.27,6.43c1.42,1.87,1,9.5,2.27,12.08-0.51,2.38-1.33,3.43-1.33,4.71a15.27,15.27,0,0,0-3.09,3.49c-0.37,1.64.6,2.15,2.15,2.15l4.42-.54c0.88-.85,1.08-2.58.79-5a3.84,3.84,0,0,1,1.73-2.27,12.44,12.44,0,0,0-1.33-4.42c-0.37-3.63-.85-7.23-1.47-10.86-0.14-2.86.31-7.91-1.22-9.52a25.83,25.83,0,0,1,.14-7.11A14.2,14.2,0,0,0,70.78,85c8.08,0.45,16.33-.74,24.66-2.69-0.09,6.24,5.7,6.46,6.24,10.83,0.37,2.92,3.12,3.63,3.15,6.32,0.09,12.61-4.08,19.59-7.91,22.14-1.9,1.47-1.84,2.61.14,3.34a7.07,7.07,0,0,0,5.1-.79,22,22,0,0,0,.54-4.71,8.47,8.47,0,0,0,2.15-2.41,26,26,0,0,0,1.22-4.82c1.08-3,2.15-6.07,3.2-9.13,1.42-2.52,1.79-5.7-.54-9.64,0.85,0.09,1.7.23,2.55,0.4,1.42,1.08,3.94,5.7,5.9,8.45,0.14,4.05.26,8.14,0.4,12.19q-3.87,5.1-3.74,9.78a4.27,4.27,0,0,0,2,1.33,6.56,6.56,0,0,0,3.2-.4,41.36,41.36,0,0,1,0-5c1.36-1.16,2.07-2.21,1.87-3.09a1.38,1.38,0,0,1,.79-1.47A1,1,0,0,0,121,114a53.61,53.61,0,0,1-.4-12.47,12.25,12.25,0,0,0,.94-6c-4.56-4.34-9-8.59-8.45-15.14,0.09-1.7,1.13-7.23,3.09-7.23,0.34-10.35-5.13-15.93-15.42-17.55-9,1.11-18.06,1.9-27.07,2.27C67.38,59,62.25,59.07,59.78,56.81c-3.49-6.15-7-12.3-10.49-18.43,2.32-2.3,4.45-4.65,4.79-7.91-1.84-.09-4,1-6.89,4.73-0.31.14-.6,0.17-0.51-0.57,0.31-2.52,2.24-5,6.94-7.09,5.36-1.84,8.05-4.42,9.1-8.25-0.74,1.3-1.5,2.61-2.55,3a3.28,3.28,0,0,1-.79-1.45,6.19,6.19,0,0,0-.31,2.27,11.5,11.5,0,0,1-3.94,2.24,1.65,1.65,0,0,1-1.73-.34,4.49,4.49,0,0,1-.65-2.13h0Zm-0.2.09a2.46,2.46,0,0,1-.45,1.5l-7.94,7.6c-0.51.4-1.28,0.14-.82-0.74A25.64,25.64,0,0,1,51,23.67,10,10,0,0,0,52.5,23h0Z" style="fill: #fc0"/>
</svg>
