<svg id="city_sar" data-name="sar" xmlns="http://www.w3.org/2000/svg" width="52.5mm" height="52.5mm" viewBox="0 0 148.82 148.82">
  <title>sar</title>
  <g id="sar">
    <path d="M79.4,130.54a90.82,90.82,0,0,0-1.59-11.62,17.87,17.87,0,0,1-.4-4.93,0.43,0.43,0,0,1,.31-0.11c0.82-.06.6-0.17,0.51-1a5.64,5.64,0,0,1-.06-0.62,7,7,0,0,1,0-2l0.71-.31c0.09-1.16,0-2.38.06-3.57a2,2,0,0,1,.65-0.43c0.23,0,.17-0.26.2-0.31a26.32,26.32,0,0,0-.17-3c0.11-.34.74-0.17,0.74-0.45,0-1.42-.34-2.52-0.09-3.88A3.3,3.3,0,0,0,81,97.77c-0.23-1.13-.34-2.38-0.51-3.54-0.45-.6.48-0.74,0.71-1a40.91,40.91,0,0,0-1-4.31L81,88.16a32,32,0,0,1-1.25-4.08,6.89,6.89,0,0,1-.28-1.81c0.48-.54,0-1.13-0.17-1.7-0.37-1.42-1.11-2.72-1.59-4.08a6.56,6.56,0,0,1-1.84-5.22c0-.48.65-0.82,0.37-1.28a1.16,1.16,0,0,0-1-.51,2.58,2.58,0,0,0-2.24,1.87,21.88,21.88,0,0,1-1,3.29,16.47,16.47,0,0,0-.68,2.58l-0.06.26c-0.43,2-.45,4.14-1,6.15A9.22,9.22,0,0,0,70,84.81a1.05,1.05,0,0,1,.06.26c-1.7,1.25-3.88,2.49-4.25,4.45l0.43,0.34a6.83,6.83,0,0,0,1.39,1,2.19,2.19,0,0,0,1.19,1,2.81,2.81,0,0,0,.94-0.11c-0.06,2.1.26,4.17,0.31,6.21,0.26,3.29.57,6.8,1.11,10.18a1.35,1.35,0,0,1-1,.51,1.36,1.36,0,0,0,.2,1.22,1.29,1.29,0,0,0,.23.06c-0.11.11-.34,0.11-0.28,0.31s0.14,0.79.45,0.77a2.3,2.3,0,0,1-.26.28,2,2,0,0,0,.4,1.19,0.21,0.21,0,0,1,.11,0c-0.17.23-.51,0.28-0.28,0.6a2.66,2.66,0,0,0,.54.91,3.63,3.63,0,0,0,1-.4c0.17,0.65.31,1.19,0.43,1.84a23.05,23.05,0,0,1,.37,3.88c0,0.62-.17,1.13-0.23,1.67a20.47,20.47,0,0,0-.11,6.18,3.23,3.23,0,0,0,.06.71c0.79-.48,1.9-1.53,2.81-2A3.87,3.87,0,0,1,76.71,127a26.47,26.47,0,0,1,2.58,4.17,0.54,0.54,0,0,0,.23-0.57Z"/>
    <path d="M117.86,17.72a28.44,28.44,0,0,0-1,4.48,13.91,13.91,0,0,0-.11,1.56,5.75,5.75,0,0,0,1.53.31c0.48,0.06,1.33.14,1.7,0.23a0.19,0.19,0,0,1,.17.06c0,0.48-1.45,2-1.7,2.24-0.48.43-.91,0.82-1.28,1.13-1.59,1.39-1.84,1.53-2.92,2.38-1.67,1.47-2.61,3.29-3.86,5a3.16,3.16,0,0,1,1.11.31,1.67,1.67,0,0,1-.48,1.3,2,2,0,0,0-.4,0,0.36,0.36,0,0,1,.09.37c-0.34.31-.28,0.94-0.88,0.94a0.86,0.86,0,0,1-.17.74c-0.09.28-.6,0-0.28,0.37a2.16,2.16,0,0,1-.77.91,1.78,1.78,0,0,0-1.19-.09c-1.45,2-2.69,3.69-4.22,5.58a97.62,97.62,0,0,1-6.41,7.43,3.72,3.72,0,0,1,1,.77,2.83,2.83,0,0,1-.14,1.13c0.31,0.57.4,1.33,0.68,1.9a1.41,1.41,0,0,1-.88.68,4.19,4.19,0,0,1-1.36.37,37.38,37.38,0,0,1-4.37,0,0.73,0.73,0,0,1-.48.43,34.83,34.83,0,0,0-4.76,3.77,26.83,26.83,0,0,1-4.51,2.72c-1,.43-1.87,1.28-2.89,1.67a2.44,2.44,0,0,1-2.44-.43,0.82,0.82,0,0,1,0-1,4.77,4.77,0,0,0,2.58-2.41A5,5,0,0,0,80,59.19a18.85,18.85,0,0,0,1.13-2.58c0.09-.34.65-1.36,0.91-2.07,0.14-.51.88-0.45,1.11-0.85A28.87,28.87,0,0,0,85,50.43c0.28-.6.51-1.22,0.85-1.81,0.37-.06.88,0,1.25-0.06a1.48,1.48,0,0,0,.17-0.43,25.23,25.23,0,0,1,2-3.37,2.61,2.61,0,0,0,1,0c0.74-1.08,2.15-3,2.44-3.34a2.63,2.63,0,0,0,.68.11,9,9,0,0,0,2-2.1l0.88-.91c0.34,0,.74.43,1,0a16.67,16.67,0,0,1,2-2.32,7.69,7.69,0,0,0,.94.11c0.88-.77,1.76-1.79,2.66-2.61l0.71,0.2c1.08-.6,1.62-1.79,2.52-2.58a2.38,2.38,0,0,1,.65.26h0.11c2.49-2.1,3.86-4.93,5.61-7.4,0.26-.37.54-0.77,0.82-1.11,1.33-1.81,2.81-3.57,4.28-5.24a2.49,2.49,0,0,1,.28-0.17Z" style="fill: #fc0"/>
    <path d="M31.44,18.06a39,39,0,0,1,2.64,3.29c1,1.36,2.1,2.86,3,4.22,0.43,0.65,1,1.45,1.5,2.15a20.34,20.34,0,0,0,3.17,4,0.43,0.43,0,0,0,.31-0.11c0.65-.45.68,0,1.28,0.65l0.17,0.23A10.33,10.33,0,0,0,45.13,34l0.71-.2c1,0.77,1.7,1.79,2.61,2.61a2.19,2.19,0,0,0,.82-0.14,0.51,0.51,0,0,1,.31.09,26.3,26.3,0,0,1,2,2.41,6.22,6.22,0,0,1,.88-0.11c1.08,1,1.59,2.1,2.69,3a2.25,2.25,0,0,1,.91-0.09c0.65,1,1.45,1.93,2.13,2.89,0,0.68.77,0.31,1.13,0.37a18.4,18.4,0,0,1,2.44,3.86l1.08,0.06a23.55,23.55,0,0,0,2,3.83,6.64,6.64,0,0,0,1,1.53c0.74,0.11.88,0.85,1.13,1.36,0.74,1.28,1.11,2.66,1.7,3.94a6.87,6.87,0,0,0,2.38,5.1c0.43,0.4,1,.26,1.19.77a0.82,0.82,0,0,1-.34.85,3.05,3.05,0,0,1-3,.06,14.84,14.84,0,0,0-3.15-1.79,23,23,0,0,1-2.35-1.62L62.39,62c-1.76-1.22-2.44-2.07-4.28-3.26A6.47,6.47,0,0,1,57,57.91a0.19,0.19,0,0,0-.11-0.14c-2.15,0-3.88.6-6.29-.77l-0.14-.17a9,9,0,0,1,.54-1.9c0-.43-0.28-1.19.11-1.5A3.5,3.5,0,0,1,52,53c-1.53-1.53-2.81-3.26-4.25-4.82-2.18-2.61-4.45-5.41-6.46-8.25a1.59,1.59,0,0,0-1.25.06,0.8,0.8,0,0,1-.6-0.82,0.29,0.29,0,0,0,.11-0.2,0.78,0.78,0,0,1-.45-0.14,0.78,0.78,0,0,1-.2-0.77,1.2,1.2,0,0,0-.34-0.09A2.27,2.27,0,0,1,38,36.79,0.22,0.22,0,0,0,38,36.74a0.8,0.8,0,0,1-.71-0.26,3.5,3.5,0,0,1-.26-1.11,3.44,3.44,0,0,1,1.16-.28,16,16,0,0,0-1.08-1.62,29.05,29.05,0,0,0-1.76-2.41,12.62,12.62,0,0,0-2.15-1.87c-0.54-.45-1.08-0.91-1.56-1.33a16.47,16.47,0,0,1-2.92-3.17,0.86,0.86,0,0,1-.06-0.43c0.4-.11,2.18-0.2,3.12-0.37a4.21,4.21,0,0,0,0-1.47,24.76,24.76,0,0,0-1-4.71c0.06-.14.4,0.06,0.65,0.28Z" style="fill: #999"/>
  </g>
</svg>
