<svg id="city_vluki" data-name="vluki" xmlns="http://www.w3.org/2000/svg" width="52.5mm" height="52.5mm" viewBox="0 0 148.82 148.82">
  <title>vluki</title>
  <g id="vluki">
    <g>
      <path d="M49.41,23.5c0.4,1,.51,2.58-0.74,4.88-3.88,7-10.6,14.68-12,22.79-0.79,4.68-.2,9.58,3.06,13.32a14.89,14.89,0,0,0,3.46,2.86,4.11,4.11,0,0,0,.62.31V81.16a4.11,4.11,0,0,0-.62.31,15.5,15.5,0,0,0-3.46,2.86c-3.26,3.74-3.88,8.65-3.06,13.32,1.39,8.08,8.11,15.73,12,22.79,1.25,2.3,1.11,3.88.74,4.88A3,3,0,0,0,48,125a3.06,3.06,0,1,0,0,6.12,5.49,5.49,0,0,0,3.66-1.19v-111A5.3,5.3,0,0,0,48,17.74a3.06,3.06,0,0,0,0,6.12,3,3,0,0,0,1.42-.34v0Zm1.22,94.17A115.36,115.36,0,0,1,42,103.41c-1.53-3.09-2.78-6.94-2.38-10.69a11.6,11.6,0,0,1,4.11-8.08A10.32,10.32,0,0,1,46.66,83l-0.17-.14v-17l0.17-.14a10.32,10.32,0,0,1-2.89-1.62,11.65,11.65,0,0,1-4.11-8.08c-0.4-3.74.85-7.6,2.38-10.69a112,112,0,0,1,8.59-14.26v86.51Z" style="fill: #fc0"/>
      <path d="M110.21,23.5c0.4,1,.51,2.58-0.74,4.88-3.88,7-10.6,14.68-12,22.79-0.79,4.68-.2,9.58,3.06,13.32A14.89,14.89,0,0,0,104,67.35a4.11,4.11,0,0,0,.62.31V81.16a4.11,4.11,0,0,0-.62.31,15.5,15.5,0,0,0-3.46,2.86c-3.26,3.74-3.88,8.65-3.06,13.32,1.39,8.08,8.11,15.73,12,22.79,1.25,2.3,1.11,3.88.74,4.88a3,3,0,0,0-1.42-.34,3.06,3.06,0,0,0,0,6.12,5.49,5.49,0,0,0,3.66-1.19v-111a5.3,5.3,0,0,0-3.66-1.19,3.06,3.06,0,0,0,0,6.12,3,3,0,0,0,1.42-.34v0Zm1.22,94.17a119,119,0,0,1-8.59-14.26c-1.53-3.09-2.78-6.94-2.38-10.69a11.6,11.6,0,0,1,4.11-8.08A10.32,10.32,0,0,1,107.46,83l-0.17-.14v-17l0.17-.14a10.32,10.32,0,0,1-2.89-1.62,11.65,11.65,0,0,1-4.11-8.08c-0.4-3.74.85-7.6,2.38-10.69a115.36,115.36,0,0,1,8.59-14.26v86.51Z"/>
    </g>
    <path d="M79.8,23.5c0.4,1,.51,2.58-0.74,4.88-3.88,7-10.6,14.68-12,22.79-0.79,4.68-.2,9.58,3.06,13.32a14.89,14.89,0,0,0,3.46,2.86,4.11,4.11,0,0,0,.62.31V81.16a4.11,4.11,0,0,0-.62.31,15.5,15.5,0,0,0-3.46,2.86c-3.26,3.74-3.88,8.65-3.06,13.32,1.39,8.08,8.11,15.73,12,22.79,1.25,2.3,1.11,3.88.74,4.88a3,3,0,0,0-1.42-.34,3.06,3.06,0,1,0,0,6.12A5.49,5.49,0,0,0,82,129.91v-111a5.3,5.3,0,0,0-3.66-1.19,3.06,3.06,0,1,0,0,6.12,3,3,0,0,0,1.42-.34v0ZM81,117.67a119,119,0,0,1-8.59-14.26c-1.53-3.09-2.78-6.94-2.38-10.69a11.6,11.6,0,0,1,4.11-8.08A10.32,10.32,0,0,1,77,83l-0.17-.14v-17L77,65.79a10.32,10.32,0,0,1-2.89-1.62A11.65,11.65,0,0,1,70,56.1c-0.4-3.74.85-7.6,2.38-10.69A112,112,0,0,1,81,31.15v86.51Z" style="fill: #999"/>
  </g>
</svg>
