<svg id="city_oren" data-name="oren" xmlns="http://www.w3.org/2000/svg" width="52.5mm" height="52.5mm" viewBox="0 0 148.82 148.82">
  <title>oren</title>
  <g id="oren">
    <path d="M76.2,33.87a14.24,14.24,0,0,0,5.47,3c-1.42-.17-2.49-0.06-3.63-0.77a0.18,0.18,0,0,0-.2.06c0.74,1.5,2.3,1.93,3.57,2.55-0.79.34-1.53-.28-2.3,0.14a2.52,2.52,0,0,0,1.62,1.08,4.52,4.52,0,0,1-1.56,1.13,10.13,10.13,0,0,1-3,.65c-0.4.71,0.65,0.37,0.91,0.74l1.11,0.14a17,17,0,0,0-3.4,8.9,20.38,20.38,0,0,0-3.4-8.7c0.77-.14,1.76-0.2,2.07-1a18,18,0,0,1-2.1-.11,6.78,6.78,0,0,1-2.61-1.47,6.91,6.91,0,0,0,1.73-1.45l-0.14-.11a9.25,9.25,0,0,1-2.21.31A4.85,4.85,0,0,0,71,36.65l-0.14-.11a6.39,6.39,0,0,1-3.94.54,12.49,12.49,0,0,0,5.92-3.17,8.55,8.55,0,0,0,3.29,0h0ZM65.59,76.05S65.17,80.36,67,81a5.2,5.2,0,0,0,3,.54c1.76-.26,4.48.09,5.44,2.55,0.82-1.13,1.45-2.3,2.61-2.52A27.13,27.13,0,0,1,82,81.21,1.62,1.62,0,0,0,82.83,81c2.78-1.19,1.87-5.92,1.93-5.61C84.9,76,86.31,76.85,87,77c0.14-.14.34,0.37,0.48,0.06a7.15,7.15,0,0,1-.77-5.1c0.23-.68.82-0.65,1.22-1.13l1.84,1.3,0.48-.2c0.11,1.5-.43,3.34.6,4.56,0.77,0.23,1.36,1.19,2.07,1.11a4.59,4.59,0,0,1,1.22-1.36,5.8,5.8,0,0,0,.06-3A4.56,4.56,0,0,1,94,70.78c0.6,1.9.34,4.34,1.59,6a1.73,1.73,0,0,0,1.47.45c0.37,0,.62.48,1,0.28,0-.82.94-1.19,1-1.93-0.43-2-1.53-3.88-2.07-5.81h0.17c1,2,1.59,4.22,3.09,5.92,0.65,0.6,1.62.09,2.41,0.11,0.09-.79,1.13-1.3.79-2.18-0.91-1.81-2.47-3.23-3.43-5l0.06-.09c0.79,1,1.64,2.13,2.44,3.12a5.36,5.36,0,0,0,2.07,1.93,5.73,5.73,0,0,0,2.18-.14,4.28,4.28,0,0,0,0-2.66c-0.88-.88-2-2-3-2.89l0.06-.09c1.13,0.62,2.1,1.93,3.32,2.38,1,0.34,1.79-.14,2.75-0.37,0.77-.09.26-1,0.4-1.42,0.06-.71-0.74-0.94-0.65-1.59a3.78,3.78,0,0,0,3.15-1.39A4.49,4.49,0,0,0,110.66,63a4.89,4.89,0,0,1,1.28-.28,3.56,3.56,0,0,0,2.44-2.47,5.59,5.59,0,0,0-3.15-1.59,9.83,9.83,0,0,0,3.63-2.55,0.58,0.58,0,0,0-.2-0.74,19.72,19.72,0,0,0-4.14-.68V54.65A9.8,9.8,0,0,0,113.1,53c0.79-.74,1.93-1.33,1.93-2.52a1.35,1.35,0,0,0-1-.45,3.86,3.86,0,0,1-.85-0.11c-1.16.2-2.41,0.43-3.51,0.65a14.56,14.56,0,0,0,2.07-1.9c0.82-1.16,1.93-2.21,2.18-3.57a0.77,0.77,0,0,0-.31-0.57c-2.13.17-3.71,1.73-5.61,2.3a19.17,19.17,0,0,0,3.91-4.65c0.45-1.22.88-3.06,0-4.2-0.34-.31-0.68,0-1,0.2-1.62,2-3.49,4.42-5.61,5.7,0.88-1.5,2.27-2.72,3.2-4.22a8.73,8.73,0,0,0,.57-8.62c-0.14-.23-0.4,0-0.54.09-1.76,3.29-3.86,6.29-6,9.47-0.4.48-.65,1.59-1.47,1.13a23.69,23.69,0,0,1-3.4,4.79c-0.34-.06,0-0.57-0.43-0.43L95,48.5c-1.59,2-5.07,3.17-4.71,6.29,0.2,1.53,2.3,2.15,2.24,3.86a2.35,2.35,0,0,1-.85,2,3.91,3.91,0,0,1-3.94.65c-0.54-.48-1.39-0.62-1.59-1.45a3,3,0,0,0,2-1.9c0-.62.48-1.56-0.23-2a3.27,3.27,0,0,1-1.42,1,3.11,3.11,0,0,1-3.26-1.28l0.17-.2c1-.23,2.41-0.45,2.61-1.79a2.79,2.79,0,0,1-2.52.43,4.27,4.27,0,0,1-2-3.09c-0.23-1,.28-2,0.4-3.06a12.72,12.72,0,0,1,3-3c0.37-.26,1-0.51,1.25.06,1.13-.45,2.72-0.91,3.77,0a2.08,2.08,0,0,1,.54,2.1,2.64,2.64,0,0,0,1-.51A2.38,2.38,0,0,0,91,44.48c0.85,0,1.53.85,2.38,1a2.81,2.81,0,0,0,3.15-1c0.09-.57.62-1.19,0.14-1.67-1.76,3.32-4.51-.43-7,0.06A3.84,3.84,0,0,1,92.81,42a10.2,10.2,0,0,1,1.53.88,2.44,2.44,0,0,0,.79-1.13,2.52,2.52,0,0,0-.54-2.64c-0.79-.6-1.64-1.39-2.64-0.94-0.23-.09-0.11-0.31-0.14-0.48,0-.57-0.68-0.14-1-0.34V37a7.09,7.09,0,0,0,4.45-2c1.42-1.67,0-3.77-.14-5.61l0.11-.2a6.54,6.54,0,0,0,2.47.94c2.52,1.81-1,3.49-.45,5.61-0.2,1.39,1.67,1.67,1.53,3.06a2.24,2.24,0,0,1-.82,1,1.73,1.73,0,0,0,1.33-.11,2.08,2.08,0,0,0,1-1.7c0.09-.79-0.77-1.25-0.91-1.87,1,0.85,2,.4,3.09.28,0.51,0.14.09,0.68,0.14,0.94a0.38,0.38,0,0,0,.23-0.2,1.47,1.47,0,0,0,.23-1.47c-0.28-.91-1.3-0.71-2-0.88-0.37-1.22,1-1.84,1.13-2.95,0.31-2.95-2.83-1.76-4-3.74-0.74-.57-0.88-1.7-1.84-1.87-1.79-.77-2.47,1-3.8,1.76-1.59,2.55,1.7,4.14.88,6.72-0.68,1.33-2,1.5-3.2,1.93-0.45-1.73,1.16-3.34.77-5.27a2.36,2.36,0,0,0-1.39-1.08,1,1,0,0,0-1.19.34c-0.48.28-.2-0.4-0.62-0.48l0.26-.26a0.84,0.84,0,0,0-.2-0.88c0.06-.06.11-0.17,0.23-0.11v-0.4a0.46,0.46,0,0,1,.37.17c0.31-.23.09-0.91,0.14-1.33l-0.48-.06V26.73l-1.28.09L87,27.3c-0.26.26-.4-0.2-0.65-0.11l0,1.3h0.48c-0.06.17-.23,0.37,0.06,0.48-0.54.34,0.11,1.13-.31,1.36,0,0.09-.06.2,0.06,0.23l-0.11.14c-0.09.06-.14-0.06-0.23-0.11-0.65-.54-1.5.06-2.1,0.43-0.85,1.19-.14,2.75.23,3.94a3.21,3.21,0,0,1,.23,1.62,10.76,10.76,0,0,1-4.85-2.35c-0.74-.85-1.67-1.79-1.16-3.06a11.48,11.48,0,0,0,1.67-5.61,3.9,3.9,0,0,0-3-2.41c-0.48-.06-1.47-0.43-1.62.34-0.09,0-.2.06-0.23-0.09,0-.4-0.48-0.79.14-1a1.46,1.46,0,0,0,0-1.59c-0.2-.6.51-0.31,0.4-0.82a6.77,6.77,0,0,1,0-1.53c-0.26-.34-0.51.17-0.74,0.09,0-.31.43-0.57,0.11-0.88l-1.93.11-0.06.48a0.32,0.32,0,0,0-.4.2c0.11,0.68-.23,1.33.09,1.9l0.31-.06c-0.17.71-.23,2,0.48,2.58a0.78,0.78,0,0,0-.54.57c-0.43.37-.37-0.31-0.54-0.48a5.43,5.43,0,0,0-2.52.68A2.84,2.84,0,0,0,68.63,26c0.37,2.35,1.84,4.39,2,6.69a13.29,13.29,0,0,1-5.81,4l-0.17-.17c0.11-1.47,1.16-2.61.79-4.17-0.37-1.19-1.62-1.22-2.55-1.42l-0.34.26c-0.62-.51.26-1.3-0.4-1.79,0.43-.06,0-0.37.17-0.54L62.82,29a3,3,0,0,0-.09-1.5l-0.54.28a0.67,0.67,0,0,1,.06-0.57c-0.31-.43-0.77.09-1.16-0.14-0.26.14-.37,0.31-0.17,0.57a0.92,0.92,0,0,1-.48,0,2.69,2.69,0,0,0,.09,1.25l0.43-.09c0.26,0.23-.37.68,0.2,0.68-0.79.48,0.11,1.3-.43,2-0.31.06-.17-0.34-0.31-0.48-0.94.17-2.1,0.43-2.35,1.47,0.09,1.64.85,2.83,0.88,4.42A8.15,8.15,0,0,1,56.49,36c-2.69-2,.82-4.14.31-6.58-0.14-1.73-2.15-1.7-3.06-2.89-1.7-.17-2.64,1.7-3.63,2.75-1,.48-2.18.6-3,1.45-0.17.57-.65,1-0.45,1.67,0,1.42,2.15,1.62,1.39,3.06A1.26,1.26,0,0,1,47,35a2.32,2.32,0,0,0-.94.51,1.65,1.65,0,0,0-.28,1.25,2.87,2.87,0,0,0,1.11,1.42c0.06-.45-0.51-0.91,0-1.25a4.44,4.44,0,0,1,1.5.31,2.24,2.24,0,0,0,1.47-1c0.26,0.54-.37,1-0.62,1.5a2.09,2.09,0,0,0,.28,2,3.53,3.53,0,0,0,1.79.88,4.92,4.92,0,0,1-.68-1,2.31,2.31,0,0,1,.77-2.18c1.62-2.32-1.45-3.69-.79-6.07,0.57-1.28,2-1.3,3-2a1.11,1.11,0,0,1,.45.74,16.11,16.11,0,0,1-.65,2.81,2.81,2.81,0,0,0,.68,2.81c1.36,0.77,2.78,1.64,4.42,1.5a0.24,0.24,0,0,1,.2.31c0,0.26-.28.26-0.48,0.26a0.85,0.85,0,0,0-.45.71,4.18,4.18,0,0,0-1.79.34,3.22,3.22,0,0,0-1.45,2.92c0.17,0.77.34,1.73,1.13,2a2.73,2.73,0,0,1,2.47-1,1.35,1.35,0,0,0,.74.11c0.14,0.09.68,0,.71,0.34-2,.06-3.49,1.84-5.67,1.25a3.27,3.27,0,0,1-1-1l-0.26.2a2.09,2.09,0,0,0,.6,1.45,3.11,3.11,0,0,0,2.86,1c1.08,0.09,1.59-1.36,2.61-1.3a1.83,1.83,0,0,0-.48,1.56,1.88,1.88,0,0,0,.94,1c0.2-.37-0.26-0.62,0-1a3,3,0,0,1,3-1.42c0.88,0,1.7.74,2.52,0.26a9.1,9.1,0,0,1,3.15,6.07,4.25,4.25,0,0,1-1.84,3,1.69,1.69,0,0,1-1.93-.57,2.59,2.59,0,0,0,.77,1.9,2.32,2.32,0,0,0,1.93.31,3.31,3.31,0,0,1-1.73,1.16,2.44,2.44,0,0,1-2.66-1A4.3,4.3,0,0,0,62,57.94a2.86,2.86,0,0,0,1.93,2.35c-0.14.94-1,1-1.67,1.42a3.65,3.65,0,0,1-3.54-1.08c-0.77-.48-0.71-1.3-0.74-2.1,1-1.11,1.87-2.27,1.79-3.8-0.91-3.63-5.19-5.3-6.94-8.48a2.61,2.61,0,0,1-.45.94A10.32,10.32,0,0,1,49,42.69c-0.17-.43-0.54-0.11-0.71.14A9.33,9.33,0,0,1,47,41.5a1.68,1.68,0,0,0-.48-0.79c-2-2.92-3.49-5.87-5.24-9l-0.43-.11a1.68,1.68,0,0,0-1,.6c-1.84,4.05.68,8.19,3.26,11.17,0,0.09.06,0.2-.06,0.23-1.73-1.67-3.57-3.26-5.22-5H37.64a4.45,4.45,0,0,0-.51,3.86c0.34,1.16,1.36,2.13,1.87,3.15a5.11,5.11,0,0,1-1.13-.28,5,5,0,0,0-2-.06c-0.11,2.13,1.28,4,2.95,5.36a0.15,0.15,0,0,1-.17.06,8.05,8.05,0,0,0-3.86.09c0.11,2.52,2.81,3.6,4.62,4.56a10.24,10.24,0,0,0-4.05.79c0.28,2,2.49,3.12,4.17,3.6a11.44,11.44,0,0,0-3.32,1.56c0.51,1.67,2.15,2.44,3.8,2.64l-0.2.2c-2.35.34,0.14,3.4,2.18,3.26-2.38,1.53-1.81,3.12-1.73,3.49,1,1.22,2.61.54,2.86,0.85s-0.37,1.28.54,2.64a2.79,2.79,0,0,0,2.69.17,32.35,32.35,0,0,0,3.86-4.62c-0.82,1.93-4.28,4.17-2,6.66a1,1,0,0,0,.23.57c1.22-.17,2.69-0.37,3.09-1.81l0.85-1.79c-0.11,1.11-1.3,2.66-.14,3.8,0.57,0.23.57,1.19,1.33,1,0.68-.54,1.7-0.48,2.07-1.42,0.37-1.28.62-2.55,1-3.8a1.83,1.83,0,0,1,.45-1.42C56.86,73,56.32,74.64,56.83,76l1.47,1.5c0.48,0.34.62-.48,1-0.51a2.5,2.5,0,0,0,1.3-1.33,13.47,13.47,0,0,0,.14-3.4l0.43,0.09c0.26-.77,1.28-0.51,1.73-1.28,1.22,1.08,1.25,3.09,1.08,4.73a5,5,0,0,1-.85,1.7c2,0.2,2.49-1.59,2.72-1.59Z"/>
    <g id="_868960944" data-name=" 868960944">
      <polygon points="63.92 98.82 91.19 126 86.14 131.07 58.88 103.89 63.92 98.82"/>
      <polygon points="58.9 126.06 86.09 98.79 91.16 103.83 63.98 131.1 58.9 126.06"/>
    </g>
    <g id="_868959536" data-name=" 868959536">
      <path d="M128.95,77.13c-1.45,2-4.71,3.2-7.82,3.09a9.82,9.82,0,0,1-6.52-2.52,9.46,9.46,0,0,1-6.86,2.61,9.66,9.66,0,0,1-6.58-2.38,9.69,9.69,0,0,1-6.94,2.41,9.84,9.84,0,0,1-6.49-2.58c-1.5,1.7-4.28,2.66-7.11,2.66a9.92,9.92,0,0,1-6.09-2,11.41,11.41,0,0,1-13.15-.57,10.61,10.61,0,0,1-6.89,2.3,10.25,10.25,0,0,1-6.8-2.35,10.53,10.53,0,0,1-6.86,2.3A10.42,10.42,0,0,1,34,77.75a10.15,10.15,0,0,1-7.17,2.55A10.8,10.8,0,0,1,19.84,78L20,92l109-.85L129,77.1Z" style="fill: #999"/>
      <path d="M128.95,81.61c-1.45,2-4.71,3.17-7.82,3.09a9.88,9.88,0,0,1-6.52-2.52,9.46,9.46,0,0,1-6.86,2.61,9.66,9.66,0,0,1-6.58-2.38,8.34,8.34,0,0,1-6.38,2.41c-2.55-.09-5.56-1.08-7.06-2.58A9,9,0,0,1,80.9,84.9a11.27,11.27,0,0,1-6.38-2.35,10.74,10.74,0,0,1-6.29,2.21c-2.66,0-5.67-.77-7.29-2.24a9.37,9.37,0,0,1-6.46,2.15,10.25,10.25,0,0,1-6.8-2.35,10.53,10.53,0,0,1-6.86,2.3A10.42,10.42,0,0,1,34,82.23a10.15,10.15,0,0,1-7.17,2.55,10.69,10.69,0,0,1-6.89-2.35V80.36a10.43,10.43,0,0,0,6.89,2.35A10.28,10.28,0,0,0,34,80.16a10.57,10.57,0,0,0,6.86,2.38,10.58,10.58,0,0,0,6.86-2.3,10.25,10.25,0,0,0,6.8,2.35,10.66,10.66,0,0,0,6.89-2.3,10.57,10.57,0,0,0,6.86,2.38,10.94,10.94,0,0,0,6.29-2.21,10.4,10.4,0,0,0,6.09,2.35c2.83,0,5.61-1,7.11-2.66,1.5,1.5,4.51,2.49,7.06,2.58a8.13,8.13,0,0,0,6.38-2.41,9.91,9.91,0,0,0,6.58,2.38,9.62,9.62,0,0,0,6.86-2.61,9.79,9.79,0,0,0,6.52,2.52c3.12,0.09,6.35-1.16,7.8-3.12Z" style="fill: #fff"/>
    </g>
    <path d="M84.36,57.63L84.76,78a3.8,3.8,0,0,1-1.16,2.41c-1.9,1.73-4.56.06-6.49,1.67a5.57,5.57,0,0,0-1.59,2,4.55,4.55,0,0,0-3-2.47c-1.84-.17-4.25.14-5.61-0.54-1.13-.74-1.13-2.21-1.22-3.43,0.14-6.77-.4-13-0.17-19.81l17.06-.2,1.84,0.09h0Z" style="fill: #fc0"/>
  </g>
</svg>
