<svg id="city_tlt" data-name="tlt" xmlns="http://www.w3.org/2000/svg" width="52.5mm" height="52.5mm" viewBox="0 0 148.82 148.82">
  <title>tlt</title>
  <g id="tlt">
    <polygon points="73.73 92.89 73.73 92.89 75.12 92.89 75.12 95.75 78.12 95.75 78.12 97.14 75.12 97.14 75.12 103.07 73.73 103.07 73.73 97.14 70.72 97.14 70.72 95.75 73.73 95.75 73.73 92.89" style="fill: #fc0"/>
    <polygon points="32.37 47.03 32.37 47.03 27.44 41.75 45.04 17.72 55.42 32.54 59.84 26.45 63.81 33.02 74.3 18.79 74.32 18.54 74.41 18.65 74.49 18.54 74.52 18.79 85.04 33.02 88.98 26.45 93.43 32.54 103.81 17.72 121.41 41.75 116.48 47.03 103.95 29.91 93.6 44.7 89.15 38.3 85.04 44.39 74.41 29.88 63.81 44.39 59.7 38.3 55.25 44.7 44.87 29.91 32.37 47.03"/>
    <polygon points="72.06 86.2 72.06 86.2 63.38 95.05 54.71 86.2 63.38 77.33 72.06 86.2" style="fill: #fc0"/>
    <polygon points="83.22 97.57 83.22 97.57 74.55 106.44 65.88 97.57 74.55 88.72 83.22 97.57" style="fill: #fc0"/>
    <polygon points="94.11 86.43 94.11 86.43 85.44 95.3 76.76 86.43 85.44 77.58 94.11 86.43" style="fill: #fc0"/>
    <polygon points="82.97 75.06 82.97 75.06 74.3 83.91 65.62 75.06 74.3 66.19 82.97 75.06" style="fill: #fc0"/>
    <path d="M74.41,131.1L61.06,116.28l2.58-2.58-3.26-3.26L58,112.85,47.42,101.14l3.2-3.2a0.16,0.16,0,0,0,0-.26c-0.94-1-2.61-3-7.17-.94L35.55,88,60.6,62.9h0.09l0.09-.17,0.11-.11H60.8a4.75,4.75,0,0,0,.28-1.56,4.14,4.14,0,1,0-8.28,0,5.26,5.26,0,0,0,.2,1.36l-4.31-.11L36.51,50.46h25L71.83,61.91,52,81.84V82a5.92,5.92,0,0,0,.68,9.41l6.18,6.75-3,3,3.26,3.26L62,101.51l10.29,11.23L70,115.06a0.16,0.16,0,0,0,0,.26l4.42,4.42,4.42-4.42a0.16,0.16,0,0,0,0-.26l-2.32-2.32,10.29-11.23,2.89,2.89,3.26-3.26-3-3,6.18-6.75a5.85,5.85,0,0,0,2.69-5,5.93,5.93,0,0,0-2-4.45V81.84L76.93,61.91,87.22,50.46h25L100.06,62.31l-4.31.11a4.37,4.37,0,0,0-3.94-5.67,4.22,4.22,0,0,0-4.14,4.31A4.75,4.75,0,0,0,88,62.62H87.87L88,62.73l0.09,0.17h0.09L113.22,88l-7.91,8.79c-4.56-2.13-6.24,0-7.17.94a0.18,0.18,0,0,0,0,.26l3.2,3.2L90.79,112.85l-2.41-2.41-3.26,3.26,2.58,2.58L74.35,131.1h0.06Z" style="fill: #fc0"/>
  </g>
</svg>
