<?xml version="1.0" encoding="UTF-8" standalone="no"?>
<svg
    xmlns:dc="http://purl.org/dc/elements/1.1/"
    xmlns:cc="http://creativecommons.org/ns#"
    xmlns:rdf="http://www.w3.org/1999/02/22-rdf-syntax-ns#"
    xmlns:svg="http://www.w3.org/2000/svg"
    xmlns="http://www.w3.org/2000/svg"
    version="1.1"
    id="order-checkbox-selected"
    preserveAspectRatio="none"
    viewBox="0 0 96 78">
    <g
        id="order-checkbox-selected-g1"
        transform="matrix(0.0038223399,0,0,0.0038926472,3.857333368,-5.150965242)">
        <g
            id="order-checkbox-selected-g2">
            <path
                d="m 22568.73201,18251.13774 c -8.31499,-80.34923 -27.71664,-240.14489 -27.71664,-240.14489 -40.65106,166.11526 -27.71663,2.70839 -28.64052,14.4448 10.16276,-54.16803 180.15812,-771.89431 157.06093,-771.89431 -19.40165,-334.93893 -120.10542,-836.89594 -181.08201,-1180.86288 8.31498,-50.55682 24.02108,-152.57325 24.02108,-152.57325 l 64.67214,-334.93894 c -13.85832,297.02132 -0.92388,251.8813 80.37825,546.19422 -0.92389,-284.38211 -5.54333,-435.14977 44.34662,-721.33749 20.32553,-11.73641 60.97659,-36.11201 60.97659,-36.11201 -5.54332,-19.86161 -16.62998,-58.68203 -16.62998,-58.68203 l 60.9766,-312.36893 -8.31499,618.41825 -40.65107,204.03288 0,-7.2224 c -70.21547,199.51888 -70.21547,179.65728 -72.06325,167.92087 -8.31499,55.07082 -24.02109,167.01807 -24.02109,167.01807 38.8033,140.83685 116.40987,422.51057 116.40987,422.51057 11.08666,-179.65728 72.98715,-531.74942 72.98715,-531.74942 -6.46722,-240.14489 -20.32554,-721.33749 -20.32554,-721.33749 66.51992,-674.39187 63.74827,-688.83667 68.3677,-648.21065 22.17331,268.1317 -8.31499,855.85474 -7.3911,845.02113 3.69555,-7.2224 3.69555,8.12521 3.69555,7.2224 0,43.33442 -7.3911,130.90606 -8.31499,138.12846 l 0,-6.3196 c -1.84778,6.3196 -3.69556,21.66721 -3.69556,21.66721 0,-2.70841 0,-7.22241 0,-7.22241 -1.84776,0 -4.61943,0 -4.61943,0 2.77167,-22.57 8.31499,-65.90442 8.31499,-65.90442 -55.43327,-309.66053 -11.08665,128.19765 -8.31499,160.69846 -1.84778,55.07082 -7.39111,167.01807 -7.39111,167.01807 39.72718,-244.6589 121.02932,-735.7823 121.02932,-735.7823 0,-376.46775 -28.64053,-1129.40325 -28.64053,-1128.50045 -12.93443,-255.4925 19.40164,-395.42656 -88.69323,-604.87624 -84.0738,-177.85167 -9.23888,-945.23198 -4.61945,-991.2748 -16.62997,-40.62602 -48.04216,-123.68365 -48.04216,-123.68365 20.32553,-11.7364 60.97659,-36.11201 60.97659,-36.11201 10.16278,-176.94888 32.33608,-531.74942 32.33608,-531.74942 -5.54333,-124.58645 -24.94497,-167.01807 -16.62998,-306.04932 -18.47775,129.10045 -56.35716,386.39855 -56.35716,386.39855 -109.94265,293.41012 -109.01876,304.24373 -109.01876,276.25691 9.23888,-174.24047 109.94265,-525.42981 109.01876,-523.62421 6.46722,153.47606 8.315,46.94563 12.01054,-44.23721 14.78221,-53.26523 44.34662,-159.79567 44.34662,-159.79567 51.73772,-284.38212 52.6616,-275.35411 56.35716,-262.7149 7.3911,-116.46125 20.32553,-349.38374 20.32553,-349.38374 -64.67215,148.96206 -24.02109,2.7084 -20.32553,-14.44481 11.08665,63.19603 11.08665,14.44481 12.01054,-7.2224 37.87941,-211.25529 25.86886,-468.55339 24.94498,-685.22548 54.50938,-374.662148 84.99767,-772.797108 104.39932,-1151.070459 -44.34662,232.019693 -100.70378,699.67028 -100.70378,699.67028 19.40165,38.820416 28.64052,79.446432 -8.31499,109.238844 2.77167,31.598013 8.31499,94.794038 8.31499,94.794038 -4.61943,-18.958808 -15.70609,-55.973622 -16.62998,-58.682023 2.77166,54.168022 16.62998,55.973622 12.93444,160.698465 -5.54333,-41.528817 -16.62999,-123.683651 -16.62999,-123.683651 -149.66982,674.391876 -148.74594,689.739476 -148.74594,648.210656 5.54333,-220.28328 -27.71664,-490.220592 -44.34661,-714.115082 -19.40165,80.349233 -64.67216,240.144897 -64.67216,240.144897 -118.25764,715.017885 -114.56208,720.434685 -121.0293,699.670285 9.23887,304.24372 1.84778,318.68853 8.31499,298.82692 -12.01055,140.83685 -36.95551,422.51057 -36.95551,422.51057 -2.77167,-34.30642 -7.3911,-102.01645 -7.3911,-102.01645 -92.38879,263.61771 -10.16278,-133.61445 -8.315,-131.80885 l -12.01054,-152.57326 c -1.84778,21.6672 -4.61944,65.90443 -4.61944,65.90443 -22.17331,-196.81048 -68.3677,-590.43144 -68.3677,-590.43144 120.10542,-1131.208855 111.79043,-1149.264862 125.64874,-1092.388439 34.18386,241.047697 30.48831,527.235412 27.71664,771.894309 60.05271,-362.022945 141.35484,-1092.388438 141.35484,-1092.388438 27.71664,-364.731347 -16.62998,-714.115086 -16.62998,-1077.943633 10.16277,-205.838482 25.86886,-414.385366 40.65106,-619.321049 -26.79275,276.256911 -80.37824,830.576334 -80.37824,830.576334 -55.43327,266.326107 -165.37592,800.783922 -165.37592,800.783922 -116.40987,283.479313 -112.71432,302.438121 -112.71432,277.159711 21.24943,-201.324481 104.39933,-410.774165 112.71432,-590.431437 -11.08665,-94.794039 -32.33608,-284.382114 -32.33608,-284.382114 -14.7822,41.528816 -44.34661,124.58645 -44.34661,124.58645 -18.47776,41.528817 -12.01055,182.365673 -12.01055,174.240469 -28.64051,-90.280036 -46.19438,-116.461246 -48.96605,-218.477687 l -31.41219,356.606143 0,-6.319603 c -13.85831,128.197652 -40.65106,385.495755 -40.65106,385.495755 -27.71663,188.685276 -39.72717,245.561699 -52.6616,451.400181 -16.62999,-172.434868 44.34661,-516.401806 44.34661,-516.401806 3.69556,97.502438 8.31499,-55.070822 8.31499,-65.904427 -2.77166,4.514002 -4.61943,14.444805 -4.61943,14.444805 30.48829,-264.520506 88.69322,-793.561518 88.69322,-793.561518 12.01054,50.55682 40.65107,153.476062 40.65107,152.573262 9.23888,-75.835231 -28.64053,-102.016442 -36.03162,-182.365674 12.01054,-103.822042 32.33606,-313.271726 32.33606,-313.271726 16.62999,141.739657 15.7061,430.635773 15.7061,430.635773 39.72717,-198.61608 18.47776,-85.766034 8.31499,-262.714905 66.51993,-436.052576 68.3677,-399.940561 72.98714,-371.050949 18.47776,-143.545258 56.35716,-430.635774 56.35716,-430.635774 -51.73772,-65.001625 45.2705,-671.683469 39.72718,-640.988256 -16.62998,-45.140019 -44.34662,-138.128456 -44.34662,-138.128456 7.3911,-71.321229 119.18153,-1238.642098 109.01877,-1238.642098 -5.54334,-269.034507 -34.18386,-570.569829 -54.50939,-840.507137 -4.61944,-262.714906 -44.34661,-464.039386 -137.65928,-706.892684 -95.16045,-230.214093 -197.712,-390.912557 -360.31626,-570.569829 -169.07147,-174.24047 -315.96963,-280.770913 -530.31162,-381.884553 -225.42863,-96.599639 -405.58676,-134.517254 -648.56925,-137.225655 0,0 -455.4767,42.431617 -449.93338,41.528816 -242.05861,-22.570009 -701.23086,-39.723216 -795.46743,-43.334417 45.27051,2.708401 119.18154,12.639205 117.33376,12.639205 -98.856,11.736405 11.08665,0 12.93443,0 l 80.37824,9.028003 -187.54923,4.514002 c -121.0293,-22.570009 -110.86654,-21.667208 -100.70377,-22.570009 -48.04217,-2.708401 -129.3443,-3.611201 -174.6148,-3.611201 -12.93443,8.125203 12.01054,5.416802 26.79274,3.611201 l 66.51993,9.028004 c -85.92157,0 -254.99305,-17.153207 -254.99305,-17.153207 -140.43095,0 -423.14062,-9.028004 -423.14062,-9.028004 114.56209,19.861608 342.76238,56.876423 342.76238,56.876423 98.856,3.611202 295.64411,17.153207 295.64411,17.153207 -159.8326,11.736405 27.71664,5.416802 33.25996,4.514002 l 154.28927,18.056007 c -290.10078,-3.611201 -866.60679,-48.751219 -865.6829,-48.751219 -31.41219,-9.028004 -25.86886,-8.125204 -20.32553,-8.125204 -81.30213,-8.125203 -242.05861,-26.18121 -242.05861,-26.18121 -66.51993,5.416802 -679.98145,26.18121 -678.13368,3.611201 -807.47796,-97.502439 -840.73793,-223.89449 -1673.16086,105.627643 37.8794,9.930804 -11.08666,9.028003 -20.32553,8.125203 -28.64052,9.930804 -87.76935,35.209214 -86.84546,35.209214 42.49884,6.319603 127.49652,18.056007 127.49652,18.056007 -9.23888,-11.736404 -26.79274,-35.209214 -26.79274,-35.209214 122.87708,-0.9028 254.99303,-13.542005 376.02234,4.514002 l -33.25996,-9.028004 181.08202,12.639205 c 98.856,31.598013 103.47543,31.598013 94.23655,30.695213 -58.20493,0 -174.61479,-26.181211 -174.61479,-26.181211 -34.18386,-20.764408 7.39109,11.736405 -47.11829,0 56.35716,22.570009 -141.35484,80.349232 -154.28927,83.057634 246.67805,55.070822 217.11364,53.265221 207.87477,53.265221 -101.62767,-1.805601 -201.40755,-10.833604 -302.11132,-22.570009 -13.85832,2.708401 -40.65107,9.028004 -40.65107,9.028004 -4.61944,-6.319603 -12.93443,-18.056007 -12.93443,-17.153207 -56.35715,-4.514002 -168.14758,-18.056007 -168.14758,-18.056007 30.4883,13.542005 23.09719,13.542005 20.32552,13.542005 -48.04216,-4.514002 -142.27872,-25.278411 -147.82205,-26.181211 l 33.25997,0 c -22.17331,-3.611201 -67.44381,-9.028003 -67.44381,-9.028003 -114.56209,57.779223 -342.76239,179.657272 -342.76239,179.657272 -69.29159,-17.153207 -207.87477,-56.876423 -207.87477,-56.876423 109.94266,-5.416802 31.41219,0.9028 -53.58549,-22.570009 5.54333,17.153207 -100.70378,0 -100.70378,0 -18.47775,11.736405 -47.11827,44.237218 -47.11827,44.237218 8.31499,0 24.94497,3.611201 26.79275,4.514002 -13.85832,0 -40.65107,4.514001 -40.65107,4.514001 l 120.10542,8.125204 -112.71432,-4.514003 c 150.59372,58.682024 -61.90048,17.153207 -34.18384,22.57001 -5.54333,7.222403 -20.32554,21.667209 -20.32554,21.667209 l 234.66751,35.209214 -461.02003,-13.542005 12.01055,0 c -124.72486,-23.47281 -228.2003,-5.416803 -376.02235,-35.209215 -76.6827,-25.27841 174.61479,-10.833604 146.89816,-12.639205 l -107.17099,-26.18121 6.46721,0 -99.77988,-22.57001 436.07506,48.75122 c -10.16277,-2.708401 -30.4883,-8.125203 -33.25996,-9.028003 l 26.79275,0 -60.05271,-12.639206 60.05271,8.125204 c -18.47776,-27.986811 -53.58551,-83.057633 -53.58551,-83.057633 -78.53046,2.7084 -235.59139,9.028003 -235.59139,9.028003 38.80329,25.27841 -99.77988,5.416802 -100.70377,4.514002 l -154.28927,4.514002 153.36538,8.125203 -12.93443,0 c 38.80329,2.708401 114.56209,9.028004 114.56209,9.028004 -226.35252,7.222402 -678.13367,21.667208 -678.13367,21.667208 l 624.54817,78.543631 -129.34429,-3.611201 c 22.17331,0.9028 27.71664,7.222403 61.90048,3.611201 -18.47775,5.416803 667.97091,139.031257 652.26481,135.420055 -13.85831,1.805601 -40.65106,4.514002 -40.65106,4.514002 -117.33375,30.695212 36.03162,9.930804 86.84546,4.514001 323.36074,65.001627 967.31056,205.838483 967.31056,205.838483 -3.69555,2.708402 -12.93443,3.611202 -12.93443,3.611202 17.55387,1.805601 53.58549,4.514002 53.58549,4.514002 -36.03162,4.514001 -107.17098,13.542005 -107.17098,13.542005 20.32552,4.514002 -16.62999,0 -13.85832,0 -162.60426,14.444806 -194.94033,-27.084011 -349.2296,-26.181211 -246.67805,5.416803 -739.11027,17.153207 -739.11027,17.153207 -221.73308,-9.028003 -665.19924,-35.209214 -665.19924,-35.209214 -203.25532,11.736405 -610.68986,35.209214 -610.68986,35.209214 -44.34661,-4.514001 -510.90997,-56.876423 -510.90997,-56.876423 -243.90639,-23.472809 -341.8385,2.708401 -577.42989,39.723216 -15.7061,-1.805601 -161.68038,-14.444805 -87.76935,-35.209214 -1.84778,0 -6.46721,0 -6.46721,0 105.32321,-7.222402 315.96964,-21.667209 315.96964,-21.667209 -148.74594,-4.514001 -436.99895,-78.543631 -436.99895,-78.543631 16.62998,-3.611201 48.96606,-8.125203 53.58549,-9.028004 -153.36538,7.222404 -463.79169,-17.153207 -462.8678,-17.153207 -85.92157,0.902801 -255.91693,3.611202 -255.91693,3.611202 186.62534,37.917615 302.11131,54.168022 490.58444,70.418428 -32.33608,0.902801 -73.91103,6.319603 -107.17099,9.028004 37.8794,9.930804 145.05039,-3.611201 147.82205,-4.514002 l 214.34198,21.667209 -302.11132,0 c -12.01055,16.250407 -133.03985,1.805601 -168.14759,-4.514002 -324.28463,-48.751219 -299.33966,-47.848419 -275.31857,-47.848419 -152.4415,-17.153208 -456.40059,-35.209215 -456.40059,-35.209215 -361.24015,0 -1088.33987,-69.515627 -1088.33987,-69.515627 171.84313,52.36242 151.51761,51.45962 141.35483,52.36242 -193.09255,7.222404 -424.988396,-17.153206 -618.080953,-44.237217 48.966051,-2.708401 145.050394,-11.736405 153.365381,-12.639205 l -113.638205,0 26.792746,4.514002 -194.940333,0 c -15.706094,3.611201 -97.932111,26.18121 -100.703776,-9.028004 l -85.921561,-4.514002 12.934429,0 -12.934429,0 -0.923889,0 -133.963742,0 c -23.097193,-1.8056 -101.627655,-12.639204 -101.627655,-12.639204 52.661604,-4.514002 162.604256,4.514001 161.680367,4.514001 -44.346617,7.222403 19.401649,4.514002 33.259966,3.611201 38.803287,-0.9028 114.562085,-3.611201 114.562085,-3.611201 6.467219,0.9028 20.325536,3.611201 20.325536,3.611201 22.173305,2.708402 13.858318,1.805601 6.46721,0 -4.619433,-0.9028 -13.858317,-3.611201 -13.858317,-3.611201 5.54333,0 2.771665,0 0,0 9.238884,0 27.716635,0 27.716635,0 l -80.37824,-9.028003 214.341982,0 c -15.706095,-2.708402 -56.357159,-7.222404 -13.858318,-13.542006 157.060935,-4.514002 471.182791,30.695212 470.258911,30.695212 -12.93443,-8.125203 29.56441,-8.125203 27.71663,-8.125203 165.37592,-5.416802 505.36665,26.181211 503.51887,26.181211 73.91102,-5.416803 221.73308,-4.514002 221.73308,-4.514002 -48.04217,-5.416802 -138.58317,-16.250407 -146.89817,-18.056008 l 475.80224,0 c -239.28695,-8.125202 -718.78473,-26.18121 -718.78473,-26.18121 -211.57032,-10.833605 78.53046,-1.8056 47.11827,-4.514002 -97.93211,-13.542005 -146.89816,-9.028004 -242.05861,-8.125203 -125.64874,-21.667209 -130.26819,-20.764409 -121.0293,-21.667209 52.6616,-5.416802 149.66983,0.9028 179.23424,3.611201 l -212.49421,-17.153206 c -622.700396,-46.042819 -636.558713,-44.237218 -597.755426,-47.848419 303.959096,-16.250407 930.355046,8.125202 926.659496,8.125202 -3.69555,2.708402 -12.93443,4.514002 -12.93443,4.514002 43.42273,0 126.57263,3.611202 139.50706,4.514003 l -5.54332,0 233.74362,9.028003 -10.16277,0 110.86654,4.514002 -449.00948,0 c 28.64052,4.514002 -3.69556,9.028004 0,8.125203 -21.24943,6.319602 34.18384,4.514002 47.11827,4.514002 l 33.25997,4.514002 -288.253,-4.514002 c 325.20851,26.18121 973.77777,78.543631 973.77777,78.543631 l 161.68037,0 186.62534,-8.125202 c -61.90048,-0.902801 -712.31751,-15.347607 -710.46974,-30.695213 0,0 -40.65106,-4.514001 -40.65106,-4.514001 -18.47776,-9.028005 -13.85832,-9.028005 -12.93443,-9.028005 -55.43327,-9.028003 16.62997,-14.444805 6.46721,-12.639204 58.20494,0 174.6148,4.514001 174.6148,4.514001 l -146.89817,-22.570009 1067.09045,39.723217 c 83.14991,5.416801 248.52583,17.153206 248.52583,17.153206 -71.13937,9.028003 10.16276,4.514001 13.85832,4.514001 l 65.59603,4.514002 -146.89816,0 c 124.72486,17.153207 139.50706,12.639205 262.38414,9.028005 -60.97659,-12.639206 -60.97659,-12.639206 -60.05271,-13.542007 -310.42631,-39.723215 -294.72021,-38.820415 -282.70967,-38.820415 -1.84778,-1.8056 -6.46722,-4.514001 -6.46722,-4.514001 98.856,-6.319603 295.64411,-18.056008 295.64411,-18.056008 -42.49884,-4.514002 -127.49652,-21.667208 -127.49652,-21.667208 6.46722,4.514002 20.32553,9.028003 20.32553,9.028003 -42.49884,-7.222403 -128.42041,-18.056008 -128.42041,-18.056008 l -214.34198,-29.792411 12.93444,0 -99.77989,-18.056007 414.82564,30.695212 -5.54333,0 c 107.17098,9.028004 322.43685,26.181211 322.43685,26.181211 3.69556,-2.708402 12.93443,-9.028005 12.93443,-9.028005 -159.83259,-37.014814 -3.69555,-34.306413 33.25997,-34.306413 7.3911,-9.028003 20.32552,-26.18121 20.32552,-26.18121 -142.27872,-9.930805 -430.53173,-65.904427 -429.60784,-65.904427 -314.12186,-26.18121 -934.0506,-111.044445 -953.45224,-113.752846 23.09719,0 66.51992,-4.514001 66.51992,-4.514001 78.53046,0 229.12419,3.611201 252.22138,4.514001 l -3.69555,0 c 36.03163,4.514002 108.09487,13.542006 108.09487,13.542006 348.30572,-36.112015 -2.77165,-18.958808 -20.32552,-18.056007 -182.9298,-9.930804 -551.56104,-12.639205 -550.63715,-12.639205 -156.13705,-19.861608 -299.33966,-58.682024 -457.32448,-65.904427 -321.51297,-56.876423 -342.76239,-50.55682 -322.43685,-52.362421 163.52814,-2.708401 339.99071,12.639205 504.44275,26.18121 360.31625,-8.125203 1080.94876,17.153207 1080.94876,17.153207 -462.8678,49.65402 65.59605,7.222403 100.70378,4.514002 78.53047,2.708401 235.5914,9.028004 235.5914,9.028004 l -174.6148,-21.667209 c 45.27051,0 133.96373,-4.514002 133.96373,-4.514002 -76.68268,-12.639205 -228.20029,-9.028003 -228.20029,-9.028003 l -457.32448,-69.515628 262.38415,12.639205 c -416.67341,-58.682024 -814.86908,-101.113641 -1236.16192,-104.724842 75.75879,29.792412 76.68268,29.792412 73.91102,30.695212 6.46722,0 20.32553,0 20.32553,0 -6.46722,4.514002 -20.32553,4.514002 -20.32553,4.514002 47.11828,0 141.35484,3.611201 141.35484,3.611201 l 232.81973,9.028004 -9.23888,0 111.79043,4.514002 c -438.84672,12.639205 -813.94518,22.570009 -1255.56356,-4.514002 -2.771665,6.319603 -7.391107,18.056007 -7.391107,18.056007 -75.758798,-7.222403 -228.20029,-22.570009 -228.20029,-22.570009 -44.346618,0 -133.963742,0 -133.963742,0 -92.38878,-16.250406 19.401648,-9.930804 39.727176,-8.125203 -99.779879,-19.861608 -3.695545,-40.626016 -6.46721,-39.723216 -485.965002,-7.222403 -1457.895004,-35.209214 -1457.895004,-35.209214 -430.531731,-18.056007 -795.467424,-117.364047 -1215.836389,-161.601265 -11.086654,-0.9028 -83.149905,-5.416802 -73.911027,-30.695212 -137.659287,-23.47281 -368.631245,-72.224029 -503.518869,-65.001626 -269.775248,21.667208 -535.854944,21.667208 -806.55408,21.667208 45.270505,4.514002 134.887624,12.639205 134.887624,12.639205 260.536369,81.252033 277.16635,79.446432 254.993042,79.446432 -160.756483,-9.930804 -480.421673,-76.738031 -490.584439,-79.446432 248.525827,5.416802 -28.640523,-3.611201 -33.259962,-3.611201 -155.213156,-22.570009 -237.439174,-10.833605 -389.880666,17.153207 73.911027,13.542005 221.73308,39.723216 221.73308,39.723216 29.564411,9.028003 -6.467215,8.125203 -6.467215,8.125203 -83.149905,-1.805601 -173.690913,-18.056007 -255.91693,-34.306414 83.149905,-5.416802 -14.782205,-4.514002 -19.401645,-4.514002 -316.893526,68.612828 -940.517814,252.784102 -940.517814,252.784102 89.61712,10.833604 267.927471,30.695212 267.927471,30.695212 201.407548,57.779223 209.722539,56.876423 188.473118,56.876423 -133.039848,-9.930804 -269.775247,-18.056007 -402.815095,-30.695212 150.593717,-67.710027 -160.756483,-19.861608 -208.79865,-8.125204 98.855998,30.695213 91.464895,30.695213 87.769344,30.695213 -241.134724,-9.930804 -94.236559,-31.598013 -383.413451,52.362421 254.993042,59.584824 225.428632,56.876423 215.265865,56.876423 -102.551549,-6.319603 -206.026986,-15.347606 -308.578537,-26.181211 -54.509381,15.347606 -981.168879,289.798916 -981.168879,257.298103 3.695551,-65.904426 519.224962,-275.35411 591.288213,-306.049322 -174.6148,-27.084011 -523.844401,-74.02963 -523.844401,-74.02963 -152.441493,74.93243 27.716635,40.626016 26.792747,52.362421 111.790428,22.570009 115.48598,21.667209 107.170989,21.667209 -55.43327,0 -167.223698,-16.250407 -174.614801,-17.153207 46.194392,1.8056 -2.771664,-0.902801 -39.727177,-4.514002 -225.428631,143.545257 -658.732025,459.525385 -658.732025,459.525385 48.966055,0 147.822053,8.125202 147.822053,8.125202 -128.420409,16.250407 16.629981,0.902801 20.325533,0 l 107.170988,13.542007 c -107.170988,0.9028 -193.092557,9.930803 -302.111322,0 -23.097195,15.347606 -67.443811,47.848418 -67.443811,47.848418 289.176891,3.611202 866.606788,21.667209 866.606788,21.667209 -471.182795,42.431617 76.68269,6.319602 100.703774,4.514002 168.147585,7.222403 504.442757,21.667208 504.442757,21.667208 -528.463841,12.639206 -994.103309,26.181211 -1525.338814,0 -48.042167,42.431618 -541.39827,467.650589 -389.880665,585.917436 184.777566,-27.986811 1820.98292,-253.686902 1820.98292,-253.686902 12.93443,37.917615 266.079696,32.500813 322.436854,30.695212 -613.461521,73.126829 -1841.308453,219.380488 -1841.308453,219.380488 59.128821,2.708401 175.538688,8.125204 174.614801,8.125204 123.80097,45.140018 112.714316,43.334417 108.094876,44.237218 -84.997681,-0.902801 -255.91693,-35.209215 -254.993042,-35.209215 136.735399,-5.416802 -16.629981,-4.514001 -20.325533,-4.514001 -29.56441,0 -87.769343,0 -87.769343,0 414.825637,65.904426 1242.629136,196.810479 1242.629136,196.810479 29.564411,0 87.769345,0 87.769345,0 -133.963737,-23.47281 104.399324,-63.196026 121.029305,-65.904427 -109.018764,-123.68365 523.844403,-59.584824 523.844403,-56.876423 434.227281,46.042818 879.541217,159.795664 1303.605733,188.685276 9.238878,34.306413 303.03521,71.321228 388.956778,83.057633 -6.467215,0 -12.93443,0 -20.325533,0 113.638204,7.222403 363.08792,71.321229 356.620704,69.515628 15.706094,-9.930804 79.454354,-28.889611 86.845457,-30.695212 -124.724857,-27.986812 -68.3677,-26.181211 -60.052709,-26.181211 -47.11828,-7.222403 -141.354839,-17.153207 -141.354839,-17.153207 564.495467,-37.014814 -70.215476,-13.542005 -86.845457,-13.542005 l -457.324477,-69.515627 80.378241,4.514001 c -81.302129,-23.472809 8.314991,-25.27841 27.716635,-26.18121 -284.557453,-10.833605 -862.911236,-92.085637 -860.139573,-92.085637 371.402909,-5.416803 -57.281045,-12.639206 -73.911026,-13.542006 l -342.762386,-52.362421 765.903013,56.876422 564.495467,101.113642 c 301.187433,-4.514002 615.309297,23.472809 906.333965,21.667209 76.68269,2.7084 229.124183,8.125202 229.124183,8.125202 35.107738,1.805601 107.170989,4.514002 107.170989,4.514002 -223.580856,4.514002 -671.666456,13.542005 -671.666456,13.542005 113.638204,4.514003 342.762387,12.639205 342.762387,12.639205 183.853678,27.084012 550.637149,87.571636 550.637149,87.571636 177.386464,18.056007 563.571579,13.542005 577.429896,13.542005 l -26.792747,4.514002 121.029306,0 -193.092557,8.125203 c 200.483659,-2.708401 591.288214,12.639206 615.309297,13.542006 l -99.779886,4.514001 c -36.031626,8.125204 -48.966055,12.639206 -46.194391,15.347606 l -6321.240561,0 0,2647.913464 c -187.5492295,260.006504 -570.9626806,729.462693 -570.9626806,729.462693 -12.0105419,514.596207 -36.0316255,1544.691421 -36.0316255,1544.691421 12.0105418,167.018066 36.0316255,501.957001 36.0316255,501.957001 -50.8138308,423.413372 -50.8138308,260.909302 -52.6616065,226.602891 -17.5538688,587.723031 -56.3571578,1762.266311 -56.3571578,1762.266311 9.2388783,63.19603 27.716635,189.58807 27.716635,189.58807 -48.9660552,-216.67209 -152.4414926,-648.21066 -152.4414926,-648.21066 C 186.6253425,10721.78272 5.543327003,4502.391018 5.543327003,4502.391018 6.467214837,4320.025345 32.33607419,4180.994089 95.16044689,4011.267621 159.8325953,3849.666356 230.0480707,3737.719111 341.8384986,3610.42426 c 116.409867,-122.780849 218.9614165,-198.61608 367.7073578,-270.840109 156.137044,-69.515628 286.4052285,-99.30804 454.5528146,-102.016441 -171.8431371,2.708401 -295.6441071,30.695213 -454.5528146,100.21084 -148.7459413,71.321229 -252.2213787,148.05926 -369.5551335,270.840109 C 226.3525193,3736.81631 157.9848196,3846.957955 91.46489556,4009.46202 27.71663502,4179.188488 1.847775668,4319.122544 0,4502.391018 c 0,0 82.22601722,8347.292152 82.22601722,8343.680952 7.39110267,910.02277 58.20493358,1729.76549 153.36538048,2636.17706 60.976597,554.31942 150.5937169,1104.12484 181.0820154,1661.15266 21.2494201,517.30461 -40.6510647,663.55827 -88.693232,1129.40326 -3.6955514,36.11201 -6.4672149,386.39855 -6.4672149,386.39855 1.8477757,132.71165 22.173308,233.8253 69.2915875,355.70335 48.0421673,116.46124 98.8559982,195.90768 181.0820154,287.09051 84.0737929,86.66884 159.8325953,140.83686 267.0035841,190.49088 112.7143157,48.75121 204.1792108,67.71003 325.2085178,67.71003 1.847776,2.7084 390.804553,-33.40362 384.337339,-33.40362 90.541008,25.27841 168.147586,43.33442 262.384145,30.69521 144.126502,-35.20921 235.591397,-82.15483 389.880666,-87.57163 223.580855,32.50081 216.189753,33.40361 207.874762,35.20921 523.844402,22.57001 389.880666,78.54364 994.103309,21.66721 82.226018,-7.2224 153.365381,8.12521 235.591398,-12.63921 -4.619439,0 -13.858318,0 -13.858318,0 176.462577,-14.4448 129.344297,4.514 275.318575,-56.87641 -8.314991,0 -26.792747,0 -26.792747,0 l 120.105418,-30.69522 c -166.29981,32.50081 -179.23424,28.88961 -348.305713,21.66721 48.966055,-10.8336 147.822053,-34.30641 147.822053,-34.30641 76.68269,0 228.200295,3.6112 228.200295,3.6112 31.412186,-9.93081 94.236559,-26.18121 94.236559,-26.18121 9.238878,10.8336 26.792747,30.69521 26.792747,30.69521 544.169934,20.76441 -111.790428,38.82041 26.792747,35.20922 2.771664,2.7084 6.467215,9.028 6.467215,9.028 75.758803,0 230.048071,8.1252 229.124183,8.1252 33.259962,-2.7084 100.703774,-8.1252 100.703774,-8.1252 18.477756,3.6112 53.585494,17.1532 53.585494,17.1532 66.519924,4.51401 202.331436,26.18121 201.407548,26.18121 22.173308,-2.7084 67.443812,-9.028 67.443812,-9.028 396.34788,75.83523 364.011807,77.64083 335.371283,83.05764 133.039848,24.37561 396.347882,79.44643 396.347882,79.44643 -400.043433,17.1532 18.477756,18.9588 168.147585,21.6672 -91.464896,-52.36242 7.391103,-37.01481 26.792747,-35.20921 92.388784,-2.7084 275.318575,-9.028 275.318575,-9.028 -138.583175,-44.23722 -143.202614,-43.33442 -133.963736,-43.33442 50.813831,4.514 155.213156,35.20921 154.289268,35.20921 l 53.585494,8.12521 c -161.68037,-104.72484 -24.021083,-87.57164 20.325533,-83.05764 103.475437,9.028 309.502425,39.72322 309.502425,39.72322 24.021083,-2.7084 73.911026,-9.028 73.911026,-9.028 7.391103,0.90279 0.923888,3.61119 0,4.514 1.847776,3.6112 6.467215,13.54201 6.467215,13.54201 108.094877,23.4728 43.422728,26.1812 20.325532,17.1532 -16.629981,0 -49.889943,8.12521 -53.585494,9.028 88.693232,0 261.460257,26.18122 261.460257,26.18122 11.086654,-2.70841 34.18385,-9.02801 33.259962,-9.02801 -97.008223,-31.59801 -0.923888,-48.75122 13.858317,0 25.86886,2.7084 75.758803,3.6112 85.921569,4.51401 -10.162766,0 -25.868859,4.514 -25.868859,4.514 742.805818,69.51562 -565.419354,35.20921 -462.867805,38.82041 161.680371,56.87642 756.664136,44.23722 711.393632,44.23722 -45.270504,-19.86161 55.43327,6.3196 47.11828,4.514 29.564411,0 87.769344,0 87.769344,0 75.758802,34.30641 228.200295,104.72484 228.200295,104.72484 53.585494,-7.2224 161.680371,-21.66721 161.680371,-21.66721 -38.80329,-15.3476 -114.562092,-44.23721 -114.562092,-44.23721 -29.564411,-15.34761 -147.822053,-18.05601 -160.756483,-17.15322 84.073793,-31.598 107.170989,-50.55682 201.407548,-52.36241 -109.942652,-11.73641 -329.827956,-35.20922 -329.827956,-35.20922 -116.409868,-14.4448 -349.229602,-44.23721 -349.229602,-44.23721 -173.690913,-28.88962 -234.66751,-42.43162 -423.140628,-55.97363 37.879401,-4.514 114.562092,-13.54201 114.562092,-13.54201 -59.128822,-11.7364 -174.614801,-43.33441 -174.614801,-43.33441 -152.441493,-0.9028 -457.324478,-39.72322 -457.324478,-39.72322 -31.412186,0 -94.236559,0 -93.312671,0 l 33.259962,13.54201 c -125.648746,-12.63921 -376.022348,-18.05601 -376.022348,-18.05601 12.934429,6.31961 39.727176,18.05601 39.727176,18.05601 -109.018764,-17.15321 -328.904069,-27.08401 -328.904069,-27.08401 28.640523,9.9308 84.073793,29.79241 86.845456,30.69521 -240.210836,-3.6112 32.336075,9.028 40.651065,9.028 45.270505,16.25041 134.887624,47.84842 133.963737,47.84842 104.399324,13.54201 143.202613,-3.6112 282.709677,26.18122 26.792746,6.3196 28.640522,9.9308 6.467214,13.542 -78.530465,9.02801 -202.331435,-1.8056 -281.785789,-13.542 117.333755,-21.66722 39.727177,-13.54201 26.792747,-12.63921 4.61944,1.8056 12.93443,4.514 12.93443,4.514 -31.412187,-6.3196 -115.485979,-5.4168 -167.223698,-13.54201 24.021084,-0.90279 73.911027,-4.514 73.911027,-4.514 -119.181531,-18.95881 -356.620704,-56.87642 -356.620704,-56.87642 -90.541008,-24.37561 -113.638204,-39.72322 -214.341978,-47.84841 0,0 35.107738,-3.61121 39.727177,-4.51401 -64.672149,-19.86161 -77.606578,-4.514 -141.354838,0 -138.583175,-9.93081 -415.749526,-30.69521 -415.749526,-30.69521 23.097196,8.1252 69.291588,20.7644 72.987139,22.57001 l -281.785789,-61.39043 c -159.832595,-25.27841 -280.861902,-28.88961 -443.46616,-70.41843 143.202614,-2.7084 206.026987,3.61121 342.762386,35.20922 -123.80097,4.514 -31.412186,0 47.11828,13.54201 -4.61944,-13.54201 240.210836,21.6672 235.591397,21.6672 69.291588,0 207.874763,0 207.874763,0 l -127.496521,-30.69521 c 60.052709,0 182.005903,9.02801 181.082015,9.02801 -79.454353,14.4448 -43.422728,16.2504 -33.259962,17.1532 490.58444,-8.1252 924.811722,-12.6392 1417.243938,17.15321 273.470798,-15.34761 819.488508,-47.84842 819.488508,-47.84842 42.49884,-37.01481 477.650011,-0.90281 578.353784,9.028 102.55155,-2.7084 308.578537,-9.028 308.578537,-9.028 -120.105419,-19.86161 -354.772929,-68.61283 -363.087919,-69.51563 288.253004,9.028 529.387729,61.39042 819.488509,60.48763 362.16403,0.90279 1088.339868,70.41843 1088.339868,70.41843 -38.803289,-6.31961 -181.082015,-39.72323 -181.082015,-39.72323 44.346616,-4.514 133.963735,-12.6392 133.963735,-12.6392 175.538693,3.6112 524.768287,43.33442 524.768287,43.33442 -50.813828,5.4168 -148.745939,12.6392 -160.75648,13.54201 l 93.312669,0 c 64.672154,-1.80561 194.940333,-4.514 194.940333,-4.514 342.762381,26.1812 131.192077,20.7644 73.91103,21.6672 -45.270506,2.7084 -134.887621,9.028 -134.887621,9.028 29.564403,13.54201 17.553862,12.63921 13.858317,12.63921 -159.8326,9.02801 -476.726125,-26.18121 -476.726125,-26.18121 44.346618,17.15321 -315.045753,-3.6112 -354.772929,-8.1252 4.619439,2.7084 12.010541,3.6112 12.010541,3.6112 -136.735399,-3.6112 -410.206198,-12.6392 -410.206198,-12.6392 51.737719,7.2224 155.213156,17.1532 155.213156,17.1532 -506.290533,6.3196 69.291588,17.15321 86.845457,18.05601 48.966055,2.7084 147.822053,8.1252 147.822053,8.1252 26.792748,6.3196 25.868859,8.1252 13.858318,8.1252 l 187.54923,9.93081 c 125.64875,21.66721 130.268183,19.8616 121.029308,21.66721 -31.412189,2.70839 -86.845458,0.90279 -130.268186,-0.9028 l 163.528142,9.9308 c 578.353791,57.77922 358.468487,52.36242 303.035217,52.36242 77.606575,4.514 234.66751,12.6392 234.66751,12.6392 337.219051,52.36242 345.534051,49.65402 322.436851,52.36242 -163.528149,3.61121 -339.990723,-12.6392 -503.518867,-26.1812 -145.974283,8.1252 -436.998948,18.05601 -436.998948,18.05601 -301.187434,20.7644 -932.202824,-9.02801 -926.659497,-9.02801 84.99768,-7.2224 254.993042,-21.66721 254.993042,-21.66721 -104.399326,-4.514 -332.59962,17.15321 -328.904069,17.15321 -127.496521,-5.41681 -383.413451,-17.15321 -383.413451,-17.15321 190.320893,-4.514 570.962681,-13.54201 570.962681,-13.54201 -143.202614,-5.4168 -429.607843,-17.1532 -429.607843,-17.1532 212.494202,-9.028 638.406493,-26.18122 638.406493,-26.18122 l 4.61944,0 -105.323213,-4.514 c 453.628926,-6.31959 457.324477,-3.61119 442.542272,-9.028 -2.771663,-1.8056 -33.259962,-2.7084 -72.987139,-8.1252 96.084335,0.9028 288.253005,3.6112 288.253005,3.6112 -311.350201,-22.57 -934.050601,-69.51563 -934.050601,-69.51563 -82.226017,-12.6392 -248.525827,-39.72321 -247.601939,-39.72321 -72.987139,0 -210.646426,-3.61121 -237.439173,-3.61121 12.010542,0.90281 28.640523,3.61121 28.640523,3.61121 -40.651065,4.514 -121.029307,13.54201 -121.029307,13.54201 108.094877,17.1532 87.769345,-2.70841 182.005904,-4.51401 64.672148,7.2224 194.016444,26.18121 194.016444,26.18121 l -186.625342,9.028 c 60.976597,0 705.850305,9.9308 704.002529,26.18122 l 40.651065,4.514 c 41.574953,22.57 17.553869,21.66721 12.93443,21.66721 -57.281046,5.41679 -182.929792,0 -181.082016,0 l 154.289269,21.6672 -1074.481551,-43.33441 c -87.769344,-5.41681 -176.462576,-20.76442 -262.384144,-18.05601 l -60.05271,-8.1252 147.822053,0 c -86.845456,-13.54201 -262.384145,-4.51401 -262.384145,-4.51401 12.010543,1.80561 53.585495,8.12521 60.976597,8.12521 279.014126,59.58482 39.727178,60.48762 -7.391102,61.39042 14.782205,3.6112 107.170989,18.05601 108.094877,18.05601 157.984819,16.25041 399.119544,31.59801 550.637149,60.48763 232.819733,40.62601 40.651064,39.72321 -40.651065,39.72321 l -56.357158,4.514 -0.923888,0 c -49.889943,0.90281 91.464896,14.44481 77.606578,12.63921 157.060932,-3.61121 247.601939,-9.93081 416.673413,0 -1.847775,-0.90281 -6.467215,-4.514 -6.467215,-4.514 324.28463,-12.63921 412.977862,-20.76441 739.110267,18.05601 -110.86654,6.31959 -328.904069,33.4036 -342.762386,35.20921 130.268184,1.8056 382.489563,-30.69521 382.489563,-30.69521 34.18385,2.7084 100.703774,8.1252 100.703774,8.1252 87.769345,4.514 262.384141,13.542 262.384141,13.542 -9.238876,-2.7084 -43.42272,-9.9308 -26.792747,-21.6672 -29.564403,0 -87.769341,-4.514 -87.769341,-4.514 71.139368,-9.02801 24.944972,-3.61121 -20.325532,0 l -106.2471,-13.54201 c 29.56441,-0.90281 363.087921,-1.8056 362.164033,9.028 169.995354,17.15321 339.06683,29.79241 509.986082,39.72322 76.682686,-1.80561 229.124175,-4.51401 229.124175,-4.51401 l 696.61143,26.18122 -4.61943,0 c 614.3854,2.7084 1846.85177,21.6672 1846.85177,21.6672 l 410.2062,0 c 217.11364,-6.3196 665.19924,-4.514 665.19924,-4.514 19.40165,-5.4168 60.05272,-17.1532 60.05272,-17.1532 10.16276,2.7084 26.79274,17.1532 26.79274,17.1532 138.58318,-3.6112 409.28231,-11.7364 435.15117,-12.6392 -49.88994,-1.8056 -206.95088,-32.50082 -193.09256,-30.69522 53.58549,-9.028 160.75649,-30.6952 160.75649,-30.6952 2.77166,2.70839 7.3911,9.028 7.3911,9.028 167.2237,19.8616 258.68859,37.91761 429.60784,29.79241 -78.53046,-2.70841 -235.5914,-8.12521 -235.5914,-8.12521 183.85368,-16.2504 551.56104,-48.75121 551.56104,-48.75121 414.82563,41.52881 418.52119,37.91761 402.81509,44.23721 12.01054,0 174.61481,0 174.61481,0 621.77651,2.7084 909.10562,21.66722 1525.33881,-35.20921 75.7588,38.82042 230.04807,111.94725 234.66751,113.75284 l 6.46721,0 c 544.16994,213.06089 477.65002,97.50244 913.72508,139.93406 48.96605,6.3196 106.24709,22.57001 154.28926,35.20921 -48.96605,-4.514 -147.82205,-4.514 -147.82205,-4.514 0,4.514 0,13.54201 0,13.54201 67.44381,0.9028 120.10541,11.7364 188.47311,0 108.09488,24.37561 321.51297,80.34923 328.90408,83.05763 l -46.1944,-4.514 6.46722,0 c -45.27051,-4.514 -224.50474,46.94562 -208.79865,43.33441 -3.69555,16.25042 -12.93443,47.84842 -12.93443,47.84842 55.43327,-3.61119 360.31626,-31.598 388.95678,-52.36242 139.50706,41.52883 583.8971,162.50408 679.05756,267.22891 145.05038,111.94724 862.91123,-31.59801 1081.87265,-39.72321 -40.65106,-9.9308 -121.02931,-26.18121 -121.02931,-26.18121 43.42273,-6.3196 424.98841,-9.028 424.98841,-9.028 105.32321,-0.90281 195.86422,-10.83361 300.26354,-33.40362 97.00822,-20.76441 182.92979,-46.94562 275.31857,-86.66884 189.39701,-85.76603 325.20852,-180.56007 475.80224,-333.13333 148.74594,-159.79567 239.28695,-299.72972 327.98018,-505.5682 85.92157,-217.57489 124.72485,-398.13496 130.26819,-634.66866 l 8.31498,-43.33442 -0.92389,43.33442 c -3.69554,240.1449 -37.87939,418.89937 -121.0293,641.89106 -85.92157,209.44969 -177.38646,355.70334 -325.20851,520.01301 -151.51762,158.89286 -286.40524,257.2981 -480.42168,349.38374 -202.33143,89.37724 -371.40291,126.39205 -590.36432,129.10045 0,0 -109.94265,-2.7084 -109.01877,-2.7084 l -47.11828,8.1252 156.13705,6.3196 c 221.73308,-1.8056 388.95678,-38.82041 594.98376,-128.19765 194.94033,-92.98843 332.59962,-191.39368 485.04111,-352.09214 148.74594,-164.30966 242.05861,-313.27172 328.90407,-523.62421 84.99768,-223.89449 119.18154,-405.35736 123.80097,-648.21066 0,0 5.54333,-142.64245 5.54333,-139.03125 17.55387,-89.37724 51.73772,-269.03451 51.73772,-269.03451 z"
                id="order-checkbox-selected-path1"
                style="fill:none;stroke:#999999;stroke-width:2000;stroke-linecap:round;stroke-linejoin:round" />
            <path
                id="order-checkbox-selected-path2"
                d="m 22657.93962,18321.38891 c -8.38229,-81.16622 -27.94099,-242.58671 -27.94099,-242.58671 -40.98014,167.80434 -27.94101,2.73594 -28.87238,14.59168 10.24503,-54.7188 181.61651,-779.74299 158.33234,-779.74299 -19.5587,-338.34462 -121.07767,-845.40557 -182.54787,-1192.86999 8.3823,-51.07088 24.21553,-154.12464 24.21553,-154.12464 l 65.19568,-338.34462 c -13.97051,300.04145 -0.93137,254.44244 81.02889,551.74797 -0.93137,-287.27373 -5.5882,-439.57441 44.7056,-728.67211 20.49007,-11.85574 61.4702,-36.4792 61.4702,-36.4792 -5.5882,-20.06357 -16.7646,-59.27872 -16.7646,-59.27872 l 61.47021,-315.54511 -8.3823,624.70638 -40.98014,206.1075 0,-7.29585 c -70.78387,201.54762 -70.78387,181.48405 -72.6466,169.62831 -8.3823,55.63079 -24.21553,168.71633 -24.21553,168.71633 39.1174,142.26889 117.35219,426.80669 117.35219,426.80669 11.1764,-181.48405 73.57798,-537.15629 73.57798,-537.15629 -6.51957,-242.58671 -20.49008,-728.67212 -20.49008,-728.67212 67.0584,-681.24914 64.26431,-695.84082 68.92114,-654.80171 22.3528,270.8581 -8.3823,864.55714 -7.45093,853.61338 3.72546,-7.29584 3.72546,8.20783 3.72546,7.29585 0,43.77505 -7.45094,132.23711 -8.3823,139.53295 l 0,-6.38386 c -1.86273,6.38386 -3.72545,21.88753 -3.72545,21.88753 0,-2.73594 0,-7.29584 0,-7.29584 -1.86274,0 -4.65685,0 -4.65685,0 2.79411,-22.79951 8.3823,-66.57456 8.3823,-66.57456 -55.88199,-312.80918 -11.17639,129.50118 -8.3823,162.33246 -1.86273,55.6308 -7.45093,168.71632 -7.45093,168.71632 40.04876,-247.14661 122.00904,-743.2638 122.00904,-743.2638 0,-380.29569 -28.87238,-1140.8871 -28.87238,-1139.97513 -13.03912,-258.09037 19.55871,-399.44729 -89.41119,-611.02667 -84.75437,-179.66009 -9.31367,-954.84318 -4.65684,-1001.35416 -16.7646,-41.03911 -48.43107,-124.94128 -48.43107,-124.94128 20.49008,-11.85574 61.47022,-36.4792 61.47022,-36.4792 10.24502,-178.74811 32.59782,-537.15629 32.59782,-537.15629 -5.5882,-125.85326 -25.1469,-168.71631 -16.7646,-309.16125 -18.62734,130.41314 -56.81336,390.32748 -56.81336,390.32748 -110.83264,296.39353 -109.90127,307.3373 -109.90127,279.06591 9.31367,-176.01216 110.83263,-530.77242 109.90127,-528.94845 6.51955,155.03661 8.3823,47.42295 12.10776,-44.68703 14.90187,-53.80683 44.7056,-161.42049 44.7056,-161.42049 52.15654,-287.27373 53.0879,-278.15393 56.81336,-265.38621 7.45094,-117.64543 20.49008,-352.93632 20.49008,-352.93632 -65.19568,150.47672 -24.21554,2.73594 -20.49008,-14.59168 11.17642,63.83861 11.17642,14.59168 12.10778,-7.29584 38.18602,-213.40335 26.07827,-473.31767 25.1469,-692.1929 54.95062,-378.47175 85.68573,-780.654979 105.24442,-1162.774647 -44.70559,234.37889 -101.51897,706.784588 -101.51897,706.784588 19.55871,39.215144 28.87238,80.254249 -8.38229,110.349593 2.7941,31.919304 8.38229,95.757912 8.38229,95.757912 -4.65681,-19.151582 -15.83323,-56.542767 -16.76459,-59.278707 2.7941,54.718807 16.76459,56.542767 13.03914,162.33246 -5.58821,-41.951085 -16.7646,-124.941276 -16.7646,-124.941276 -150.88141,681.249147 -149.95004,696.752807 -149.95004,654.801717 5.5882,-222.52315 -27.94101,-495.205198 -44.7056,-721.376265 -19.55871,81.16623 -65.19566,242.58671 -65.19566,242.58671 -119.21494,722.288245 -115.48948,727.760125 -122.00905,706.784585 9.31367,307.33731 1.86274,321.92898 8.3823,301.86542 -12.10776,142.2689 -37.25466,426.8067 -37.25466,426.8067 -2.79409,-34.65524 -7.45093,-103.05374 -7.45093,-103.05374 -93.13667,266.29818 -10.24503,-134.97307 -8.3823,-133.14912 l -12.10776,-154.12462 c -1.86274,21.88752 -4.65684,66.57454 -4.65684,66.57454 -22.35281,-198.81167 -68.92114,-596.435 -68.92114,-596.435 121.07767,-1142.711081 112.69536,-1160.950685 126.66587,-1103.495937 34.46057,243.498689 30.7351,532.596386 27.941,779.742987 60.53883,-365.704016 142.4991,-1103.495927 142.4991,-1103.495927 27.941,-368.439966 -16.7646,-721.376269 -16.7646,-1088.904254 10.24503,-207.931466 26.07827,-418.598872 40.98014,-625.618356 -27.00963,279.065913 -81.02891,839.021702 -81.02891,839.021702 -55.88198,269.034133 -166.71462,808.92636 -166.71462,808.92636 -117.35221,286.361754 -113.62674,305.513336 -113.62674,279.977894 21.42143,-203.371565 105.24443,-414.950951 113.62674,-596.434993 -11.17642,-95.757912 -32.59785,-287.273735 -32.59785,-287.273735 -14.90186,41.951084 -44.7056,125.853255 -44.7056,125.853255 -18.62733,41.951085 -12.10775,184.219981 -12.10775,176.012161 -28.87239,-91.198011 -46.56834,-117.645433 -49.36244,-220.699186 l -31.66648,360.232143 0,-6.38386 c -13.97049,129.501176 -40.98013,389.415509 -40.98013,389.415509 -27.94099,190.603843 -40.04876,248.058589 -53.08789,455.990055 -16.76461,-174.188201 44.70559,-521.652625 44.70559,-521.652625 3.72548,98.493852 8.3823,-55.630787 8.3823,-66.574547 -2.79409,4.5599 -4.65682,14.591681 -4.65682,14.591681 30.73509,-267.210173 89.41119,-801.630518 89.41119,-801.630518 12.10778,51.070886 40.98014,155.036618 40.98014,154.124639 9.31366,-76.60633 -28.87236,-103.053753 -36.32331,-184.219983 12.10776,-104.877713 32.59785,-316.457099 32.59785,-316.457099 16.76459,143.180877 15.83322,435.014513 15.83322,435.014513 40.04877,-200.635625 18.62734,-86.638109 8.38231,-265.386212 67.0584,-440.486394 68.92113,-404.00719 73.57796,-374.823825 18.62734,-145.00484 56.81336,-435.014514 56.81336,-435.014514 -52.15653,-65.662568 45.63699,-678.513204 40.04877,-647.505881 -16.7646,-45.599006 -44.70559,-139.532956 -44.70559,-139.532956 7.45093,-72.04643 120.1463,-1251.236714 109.90127,-1251.236714 -5.58821,-271.770074 -34.46056,-576.371432 -54.95065,-849.053485 -4.65681,-265.386212 -44.70559,-468.757777 -138.77362,-714.080427 -95.93078,-232.55493 -199.31247,-394.887389 -363.23301,-576.371433 -170.4401,-176.012161 -318.52741,-283.625814 -534.60447,-385.767586 -227.25347,-97.581872 -408.86997,-135.885036 -653.81941,-138.620977 0,0 -459.16376,42.863066 -453.57556,41.951084 -244.01809,-22.799501 -706.90731,-40.127123 -801.90671,-43.775045 45.63696,2.735941 120.1463,12.767722 118.28357,12.767722 -99.65624,11.855742 11.17639,0 13.03913,0 l 81.02889,9.119801 -189.06743,4.559901 c -122.00903,-22.799502 -111.764,-21.887522 -101.51896,-22.799502 -48.43107,-2.735942 -130.39134,-3.647922 -176.02831,-3.647922 -13.03913,8.207822 12.10777,5.471882 27.00963,3.647922 l 67.05841,9.1198 c -86.6171,0 -257.05721,-17.327622 -257.05721,-17.327622 -141.56773,0 -426.56593,-9.119801 -426.56593,-9.119801 115.48946,20.063562 345.53703,57.454746 345.53703,57.454746 99.65624,3.647921 298.03735,17.327623 298.03735,17.327623 -161.12645,11.855741 27.94099,5.471881 33.52919,4.559901 l 155.53823,18.239602 c -292.44913,-3.64792 -873.62194,-49.246926 -872.69058,-49.246926 -31.66645,-9.119801 -26.07826,-8.207821 -20.49005,-8.207821 -81.96028,-8.207821 -244.01807,-26.447424 -244.01807,-26.447424 -67.0584,5.471882 -685.48588,26.447424 -683.62315,3.647922 -814.01447,-98.493853 -847.54367,-226.171069 -1686.70504,106.701671 38.18603,10.031782 -11.17641,9.119803 -20.49007,8.207822 -28.87237,10.031781 -88.47983,35.567225 -87.54847,35.567225 42.84287,6.38386 128.52861,18.239602 128.52861,18.239602 -9.31367,-11.855742 -27.00964,-35.567224 -27.00964,-35.567224 123.87177,-0.91198 257.05721,-13.679703 379.06624,4.559901 l -33.5292,-9.119802 182.54786,12.767722 c 99.65624,31.919304 104.31308,31.919304 94.9994,31.007323 -58.6761,0 -176.02829,-26.447423 -176.02829,-26.447423 -34.46057,-20.975543 7.45093,11.855741 -47.49971,0 56.81337,22.799503 -142.49909,81.166231 -155.53823,83.90217 248.6749,55.630787 218.87117,53.806827 209.55751,53.806827 -102.45035,-1.823961 -203.03794,-10.943761 -304.55691,-22.799504 -13.9705,2.735942 -40.98014,9.119802 -40.98014,9.119802 -4.65683,-6.38386 -13.03913,-18.239603 -13.03913,-17.327621 -56.81336,-4.559902 -169.50873,-18.239604 -169.50873,-18.239604 30.7351,13.679702 23.28416,13.679702 20.49007,13.679702 -48.43107,-4.5599 -143.43047,-25.535443 -149.01867,-26.447423 l 33.52919,0 c -22.35279,-3.647921 -67.98976,-9.119801 -67.98976,-9.119801 -115.48947,58.366727 -345.53704,181.484042 -345.53704,181.484042 -69.85249,-17.327622 -209.5575,-57.454747 -209.5575,-57.454747 110.83264,-5.471881 31.66647,0.91198 -54.01927,-22.799502 5.58821,17.327621 -101.51897,0 -101.51897,0 -18.62732,11.855742 -47.4997,44.687025 -47.4997,44.687025 8.38231,0 25.14691,3.647921 27.00964,4.5599 -13.9705,0 -40.98013,4.559901 -40.98013,4.559901 l 121.07766,8.207821 -113.62673,-4.5599 c 151.81278,59.278706 -62.40157,17.327621 -34.46056,22.799502 -5.58821,7.295842 -20.49008,21.887523 -20.49008,21.887523 l 236.56714,35.567224 -464.75196,-13.679701 12.10776,0 c -125.7345,-23.711483 -230.04757,-5.471881 -379.06625,-35.567225 -77.30342,-25.535443 176.02831,-10.943761 148.0873,-12.767722 l -108.03852,-26.447423 6.51957,0 -100.58761,-22.799502 439.60507,49.246925 c -10.24503,-2.73594 -30.73509,-8.20782 -33.5292,-9.1198 l 27.00964,0 -60.53883,-12.767722 60.53883,8.207821 c -18.62734,-28.271383 -54.01927,-83.90217 -54.01927,-83.90217 -79.16616,2.73594 -237.49851,9.119801 -237.49851,9.119801 39.1174,25.535443 -100.58759,5.471881 -101.51895,4.5599 l -155.53824,4.559901 154.60687,8.207821 -13.03914,0 c 39.11741,2.73594 115.48946,9.119801 115.48946,9.119801 -228.18482,7.295841 -683.62313,21.887523 -683.62313,21.887523 l 629.60387,79.34227 -130.39134,-3.647921 c 22.3528,0.911979 27.94101,7.295841 62.40157,3.647921 -18.62733,5.47188 673.37812,140.444937 657.54488,136.797017 -13.9705,1.82396 -40.98014,4.5599 -40.98014,4.5599 -118.28356,31.007324 36.3233,10.03178 87.54847,4.5599 325.97834,65.662569 975.14091,207.931466 975.14091,207.931466 -3.72546,2.735941 -13.03913,3.64792 -13.03913,3.64792 17.69596,1.82396 54.01926,4.559901 54.01926,4.559901 -36.3233,4.559901 -108.03853,13.679702 -108.03853,13.679702 20.49007,4.5599 -16.7646,0 -13.9705,0 -163.92054,14.591681 -196.51837,-27.359403 -352.05661,-26.447424 -248.67489,5.471881 -745.09333,17.327623 -745.09333,17.327623 -223.52801,-9.119802 -670.58402,-35.567224 -670.58402,-35.567224 -204.90065,11.855741 -615.63336,35.567224 -615.63336,35.567224 -44.70561,-4.559901 -515.04578,-57.454747 -515.04578,-57.454747 -245.8808,-23.711484 -344.60567,2.73594 -582.10416,40.127124 -15.83324,-1.82396 -162.98917,-14.591682 -88.47983,-35.567224 -1.86274,0 -6.51958,0 -6.51958,0 106.1758,-7.29584 318.5274,-21.887523 318.5274,-21.887523 -149.95003,-4.5599 -440.53643,-79.342269 -440.53643,-79.342269 16.7646,-3.647921 49.36243,-8.207821 54.01927,-9.119801 -154.60687,7.29584 -467.54607,-17.327623 -466.61471,-17.327623 -86.6171,0.91198 -257.98857,3.647921 -257.98857,3.647921 188.13607,38.303164 304.55691,54.718806 494.5557,71.134449 -32.59783,0.911979 -74.50933,6.38386 -108.03853,9.119801 38.18603,10.031781 146.22457,-3.647921 149.01867,-4.559901 l 216.07707,21.887523 -304.5569,0 c -12.10777,16.415641 -134.1168,1.82396 -169.50874,-4.559901 -326.90971,-49.246925 -301.76281,-48.334945 -277.54727,-48.334945 -153.6755,-17.327623 -460.09513,-35.567225 -460.09513,-35.567225 -364.16437,0 -1097.14995,-70.222469 -1097.14995,-70.222469 173.2342,52.894846 152.74414,51.982867 142.4991,52.894846 -194.65563,7.295841 -428.428663,-17.327621 -623.08429,-44.687024 49.362436,-2.735942 146.224566,-11.855742 154.606873,-12.767723 l -114.558102,0 27.009629,4.559901 -196.518369,0 c -15.833235,3.647921 -98.724862,26.447424 -101.518965,-9.119801 l -86.617104,-4.559901 13.039132,0 -13.039132,0 -0.931365,0 -135.048169,0 c -23.28417,-1.82396 -102.450341,-12.767721 -102.450341,-12.767721 53.087906,-4.5599 163.920539,4.559901 162.989175,4.559901 -44.705597,7.29584 19.558703,4.5599 33.529199,3.647919 39.117407,-0.911979 115.489473,-3.647919 115.489473,-3.647919 6.519561,0.91198 20.490058,3.647919 20.490058,3.647919 22.352806,2.735941 13.970506,1.823961 6.519571,0 -4.656832,-0.911979 -13.970497,-3.647919 -13.970497,-3.647919 5.588197,0 2.794103,0 0,0 9.313665,0 27.941004,0 27.941004,0 l -81.028908,-9.119801 216.077073,0 c -15.833236,-2.735941 -56.813371,-7.295841 -13.970506,-13.679702 158.332337,-4.5599 474.997011,31.007323 474.065641,31.007323 -13.03913,-8.20782 29.80373,-8.20782 27.941,-8.20782 166.71463,-5.47188 509.45756,26.447423 507.59482,26.447423 74.50934,-5.471881 223.528,-4.559901 223.528,-4.559901 -48.43106,-5.47188 -139.705,-16.415642 -148.08729,-18.239603 l 479.65384,0 c -241.22397,-8.20782 -724.60327,-26.447422 -724.60327,-26.447422 -213.28298,-10.943761 79.16616,-1.82396 47.49969,-4.5599 -98.72487,-13.679702 -148.0873,-9.119802 -244.01806,-8.207821 -126.66586,-21.887523 -131.32271,-20.975543 -122.00902,-21.887523 53.08788,-5.47188 150.88138,0.91198 180.68512,3.647919 l -214.21433,-17.327621 c -627.741139,-46.510986 -641.711636,-44.687026 -602.594239,-48.334946 306.419632,-16.415642 937.886229,8.20782 934.160769,8.20782 -3.72547,2.735942 -13.03913,4.559902 -13.03913,4.559902 43.77422,0 127.59722,3.64792 140.63636,4.559901 l -5.5882,0 235.63577,9.119801 -10.24504,0 111.76401,4.5599 -452.6442,0 c 28.87236,4.5599 -3.72548,9.119801 0,8.207821 -21.42144,6.38386 34.46056,4.5599 47.49969,4.5599 l 33.5292,4.559901 -290.58639,-4.559901 c 327.84106,26.447423 981.66047,79.342269 981.66047,79.342269 l 162.98916,0 188.13607,-8.20782 c -62.40157,-0.911979 -718.08371,-15.503661 -716.22098,-31.007323 0,0 -40.98013,-4.559901 -40.98013,-4.559901 -18.62733,-9.119802 -13.97049,-9.119802 -13.03913,-9.119802 -55.882,-9.119801 16.76461,-14.591681 6.51957,-12.767721 58.6761,0 176.0283,4.559901 176.0283,4.559901 l -148.0873,-22.799503 1075.72851,40.127125 c 83.823,5.47188 250.53763,17.327622 250.53763,17.327622 -71.71523,9.119801 10.24504,4.5599 13.97051,4.5599 l 66.12703,4.559901 -148.0873,0 c 125.7345,17.327621 140.63636,12.767722 264.50813,9.119801 -61.47021,-12.767722 -61.47021,-12.767722 -60.53883,-13.679702 -312.9392,-40.127125 -297.10597,-39.215144 -284.99821,-39.215144 -1.86273,-1.82396 -6.51956,-4.559901 -6.51956,-4.559901 99.65624,-6.383862 298.03733,-18.239602 298.03733,-18.239602 -42.84287,-4.559901 -128.52859,-21.887522 -128.52859,-21.887522 6.51956,4.5599 20.49006,9.119801 20.49006,9.119801 -42.84287,-7.295841 -129.45996,-18.239604 -129.45996,-18.239604 l -216.07707,-30.095343 13.03912,0 -100.58759,-18.239602 418.18364,31.007324 -5.5882,0 c 108.03852,9.119801 325.04696,26.447424 325.04696,26.447424 3.72547,-2.735942 13.03914,-9.119803 13.03914,-9.119803 -161.12644,-37.391184 -3.72548,-34.655244 33.52919,-34.655244 7.45094,-9.1198 20.49008,-26.447423 20.49008,-26.447423 -143.43047,-10.031782 -434.01687,-66.574548 -433.0855,-66.574548 -316.66468,-26.447423 -941.61172,-112.173553 -961.17043,-114.909494 23.28417,0 67.05841,-4.559901 67.05841,-4.559901 79.16616,0 230.97894,3.647921 254.2631,4.559901 l -3.72546,0 c 36.3233,4.559901 108.9699,13.679703 108.9699,13.679703 351.12523,-36.479205 -2.7941,-19.151583 -20.49008,-18.239604 -184.4106,-10.031781 -556.02589,-12.767721 -555.09453,-12.767721 -157.40096,-20.063562 -301.7628,-59.278707 -461.0265,-66.574548 -324.1156,-57.454748 -345.53704,-51.070886 -325.04696,-52.894846 164.8519,-2.735941 342.74292,12.767721 508.5262,26.447423 363.233,-8.207821 1089.69901,17.327622 1089.69901,17.327622 -466.61472,50.158906 66.12702,7.29584 101.51896,4.559901 79.16617,2.735939 237.49851,9.119801 237.49851,9.119801 l -176.02831,-21.887523 c 45.63697,0 135.04818,-4.559901 135.04818,-4.559901 -77.30345,-12.767721 -230.04758,-9.1198 -230.04758,-9.1198 l -461.02651,-70.22247 264.50814,12.767722 c -420.04637,-59.278707 -821.4654,-102.141772 -1246.1686,-105.789693 76.37206,30.095344 77.30343,30.095344 74.50932,31.007324 6.51957,0 20.49008,0 20.49008,0 -6.51957,4.5599 -20.49008,4.5599 -20.49008,4.5599 47.49971,0 142.4991,3.647921 142.4991,3.647921 l 234.7044,9.119801 -9.31366,0 112.69537,4.5599 c -442.39916,12.767722 -820.53404,22.799503 -1265.727303,-4.5599 -2.794102,6.38386 -7.450926,18.239603 -7.450926,18.239603 -76.372074,-7.295842 -230.047578,-22.799504 -230.047578,-22.799504 -44.705595,0 -135.048166,0 -135.048166,0 -93.136669,-16.415642 19.558703,-10.031781 40.048771,-8.207821 -100.587602,-20.063562 -3.725468,-41.039105 -6.519571,-40.127124 -489.898872,-7.295841 -1469.696613,-35.567225 -1469.696613,-35.567225 -434.016871,-18.239602 -801.906708,-118.557414 -1225.678544,-163.24444 -11.1764,-0.911979 -83.823,-5.471881 -74.509333,-31.007323 -138.773636,-23.711484 -371.615305,-72.958409 -507.59484,-65.662569 -271.959068,21.887523 -540.19267,21.887523 -813.083106,21.887523 45.636968,4.5599 135.979535,12.767722 135.979535,12.767722 262.645403,82.07821 279.410002,80.254249 257.057201,80.254249 -162.0578,-10.031781 -484.310671,-77.518309 -494.555704,-80.254249 250.537636,5.47188 -28.872365,-3.647921 -33.5292,-3.647921 -156.469601,-22.799503 -239.361235,-10.943761 -393.036737,17.327623 74.509334,13.679701 223.528003,40.127124 223.528003,40.127124 29.803733,9.119801 -6.519567,8.207821 -6.519567,8.207821 -83.823001,-1.82396 -175.096935,-18.239602 -257.988569,-34.655244 83.823,-5.471881 -14.901867,-4.5599 -19.558701,-4.5599 -319.458768,69.310487 -948.131274,255.354431 -948.131274,255.354431 90.342567,10.943762 270.096335,31.007323 270.096335,31.007323 203.037936,58.366728 211.420236,57.454748 189.998801,57.454748 -134.1168,-10.031782 -271.959068,-18.239603 -406.075868,-31.007324 151.812767,-68.398508 -162.057802,-20.063562 -210.488869,-8.20782 99.656233,31.007322 92.2053,31.007322 88.479834,31.007322 -243.086703,-10.031781 -94.999401,-31.919303 -386.517171,52.894847 257.057203,60.190687 227.253468,57.454746 217.008436,57.454746 -103.381701,-6.38386 -207.694769,-15.503662 -311.07647,-26.447422 -54.950634,15.503661 -989.111407,292.745616 -989.111407,259.914332 3.725465,-66.574549 523.428069,-278.153934 596.07467,-309.161258 -176.028301,-27.359404 -528.084903,-74.78237 -528.084903,-74.78237 -153.675501,75.69435 27.940999,41.039105 27.009633,52.894847 112.695367,22.799503 116.420834,21.887523 108.038533,21.887523 -55.881999,0 -168.577367,-16.415642 -176.0283,-17.327623 46.568334,1.823961 -2.7941,-0.911979 -40.048768,-4.5599 -227.253469,145.004839 -664.064439,464.197877 -664.064439,464.197877 49.362434,0 149.018669,8.20782 149.018669,8.20782 -129.459968,16.415643 16.764599,0.911981 20.490065,0 l 108.038535,13.679703 c -108.038535,0.91198 -194.655635,10.03178 -304.556902,0 -23.284167,15.503662 -67.989767,48.334945 -67.989767,48.334945 291.517768,3.647922 873.62194,21.887524 873.62194,21.887524 -474.997004,42.863065 77.303434,6.38386 101.518967,4.5599 169.508735,7.295841 508.526206,21.887523 508.526206,21.887523 -532.741739,12.767722 -1002.150543,26.447423 -1537.68638,0 -48.431068,42.863065 -545.7808714,472.405698 -393.036737,591.875092 186.273334,-28.271383 1835.723715,-256.266411 1835.723715,-256.266411 13.039134,38.303165 268.233603,32.831284 325.04697,31.007323 -618.427473,73.87039 -1856.213783,221.611169 -1856.213783,221.611169 59.607467,2.735939 176.959668,8.20782 176.028302,8.20782 124.803134,45.599006 113.626734,43.775046 108.969901,44.687025 -85.685735,-0.911979 -257.988569,-35.567224 -257.057203,-35.567224 137.842268,-5.47188 -16.764599,-4.5599 -20.490066,-4.5599 -29.803734,0 -88.479835,0 -88.479835,0 418.183638,66.574548 1252.688178,198.811664 1252.688178,198.811664 29.803733,0 88.479834,0 88.479834,0 -135.048168,-23.711483 105.244435,-63.838609 122.009035,-66.574548 -109.901267,-124.941275 528.084905,-60.190687 528.084905,-57.454747 437.742337,46.510985 886.661074,161.42048 1314.158377,190.603843 9.313666,34.655245 305.48827,72.04643 392.105371,83.90217 -6.519567,0 -13.039135,0 -20.490068,0 114.558101,7.295842 366.027104,72.046429 359.507536,70.222469 15.833234,-10.031781 80.097535,-29.183363 87.548468,-31.007324 -125.7345,-28.271384 -68.921134,-26.447423 -60.538834,-26.447423 -47.499699,-7.29584 -142.4991,-17.327623 -142.4991,-17.327623 569.065036,-37.391183 -70.783868,-13.6797 -87.548468,-13.6797 l -461.026504,-70.222469 81.0289,4.5599 c -81.960267,-23.711483 8.3823,-25.535443 27.941,-26.447423 -286.860935,-10.943761 -869.896473,-93.021971 -867.102373,-93.021971 374.409402,-5.471881 -57.744734,-12.767722 -74.509335,-13.679702 l -345.537035,-52.894847 772.102972,57.454747 569.065039,102.141773 c 303.625536,-4.5599 620.290205,23.711483 913.670706,21.887523 77.303436,2.73594 230.978937,8.207821 230.978937,8.207821 35.391933,1.82396 108.038534,4.559899 108.038534,4.559899 -225.390735,4.559902 -677.103572,13.679702 -677.103572,13.679702 114.558101,4.559901 345.537035,12.767723 345.537035,12.767723 185.341969,27.359403 555.094539,88.46207 555.094539,88.46207 178.822402,18.239602 568.133672,13.679703 582.104172,13.679703 l -27.009633,4.559899 122.009034,0 -194.655636,8.207822 c 202.106568,-2.73594 596.074673,12.767721 620.290206,13.679702 l -100.587601,4.5599 c -36.3233,8.20782 -49.362434,12.767721 -46.568334,15.503662 l -6372.4107879,0 0,2674.837669 c -189.0674349,262.650272 -575.5846049,736.87993 -575.5846049,736.87993 -12.1077667,519.828665 -36.3233002,1560.397972 -36.3233002,1560.397972 12.1077667,168.716322 36.3233002,507.060943 36.3233002,507.060943 -51.2251671,427.718665 -51.2251671,263.562255 -53.0879004,228.907008 -17.6959668,593.699057 -56.8133672,1780.185197 -56.8133672,1780.185197 9.3136668,63.8386 27.9410002,191.51582 27.9410002,191.51582 C 215.728233,11722.30083 111.4151655,11286.37433 111.4151655,11286.37433 94.65056539,10715.47476 -87.89730321,4432.843772 -87.89730321,4432.843772 -86.96593581,4248.62379 -60.88766931,4108.178852 2.445264645,3936.72659 67.64093191,3773.48215 138.4247991,3660.396617 251.1201668,3531.807421 c 117.3522009,-124.029296 220.7339018,-200.635625 370.6839365,-273.594034 157.4009681,-70.222468 288.7236698,-100.317812 458.2324047,-103.053752 -173.2342016,2.73594 -298.0373366,31.007324 -458.2324047,101.229792 -149.9500347,72.046429 -254.2631022,149.564738 -372.5466699,273.594034 -114.5581009,129.501176 -183.47923489,240.76275 -250.537635464,404.919169 -64.264300616,171.452261 -90.342567016,312.809179 -92.205300886,497.941142 0,0 82.89163416,8432.168138 82.89163416,8428.520208 7.450933325,919.27595 58.67610051,1747.3539 154.60686789,2662.98193 61.4702005,559.9558 151.812768,1115.35168 182.5478683,1678.04341 21.4214334,522.5646 -40.9801337,670.30537 -89.4112008,1140.88711 -3.7254666,36.47921 -6.5195667,390.3275 -6.5195667,390.3275 1.8627333,134.06107 22.3528002,236.20284 69.8525006,359.32016 48.4310671,117.64543 99.6562342,197.89968 182.5478683,290.00967 84.7543674,87.55009 161.1264346,142.2689 269.1649689,192.4278 113.6267348,49.24694 205.8320352,68.3985 327.8410703,68.3985 1.862732,2.73596 393.968103,-33.74325 387.448536,-33.74325 91.273933,25.53544 169.508735,43.77505 264.508136,31.00733 145.293201,-35.56723 237.498501,-82.9902 393.036736,-88.46208 225.390736,32.8313 217.939802,33.74327 209.557502,35.56723 528.084904,22.79951 393.036737,79.34227 1002.150543,21.88752 82.891634,-7.29584 154.606867,8.20782 237.498501,-12.76772 -4.656834,0 -13.9705,0 -13.9705,0 177.891035,-14.59168 130.391334,4.55991 277.547268,-57.45475 -8.382299,0 -27.009632,0 -27.009632,0 l 121.077667,-31.00732 c -167.646001,32.83129 -180.685136,29.18337 -351.125236,21.88752 49.362434,-10.94376 149.018669,-34.65524 149.018669,-34.65524 77.303433,0 230.047567,3.64793 230.047567,3.64793 31.666467,-10.0318 94.999401,-26.44744 94.999401,-26.44744 9.313667,10.94377 27.009633,31.00733 27.009633,31.00733 548.574972,20.97554 -112.695367,39.21514 27.009634,35.56722 2.7941,2.73594 6.519567,9.1198 6.519567,9.1198 76.372068,0 231.910302,8.20782 230.978935,8.20782 33.5292,-2.73594 101.518968,-8.20782 101.518968,-8.20782 18.627334,3.64792 54.019267,17.32763 54.019267,17.32763 67.058401,4.5599 203.969301,26.44742 203.037935,26.44742 22.3528,-2.73594 67.989767,-9.11981 67.989767,-9.11981 399.556304,76.60633 366.95847,78.43029 338.086103,83.90218 134.116802,24.62346 399.556304,80.25424 399.556304,80.25424 -403.281771,17.32763 18.627334,19.15159 169.508735,21.88753 -92.205301,-52.89484 7.450934,-37.39118 27.009633,-35.56722 93.136668,-2.73594 277.547268,-9.11981 277.547268,-9.11981 -139.705,-44.68702 -144.361834,-43.77504 -135.048167,-43.77504 51.225167,4.5599 156.469602,35.56723 155.538236,35.56723 l 54.019266,8.20781 c -162.989167,-105.78969 -24.215534,-88.46207 20.490067,-83.90216 104.313067,9.1198 312.007836,40.12712 312.007836,40.12712 24.215534,-2.73594 74.509335,-9.1198 74.509335,-9.1198 7.450932,0.91198 0.931366,3.64792 0,4.5599 1.862732,3.64792 6.519566,13.6797 6.519566,13.6797 108.9699,23.71148 43.774234,26.44743 20.490067,17.32763 -16.7646,0 -50.2938,8.20782 -54.019267,9.1198 89.4112,0 263.576768,26.44741 263.576768,26.44741 11.1764,-2.73593 34.460568,-9.11979 33.529201,-9.11979 -97.793502,-31.91931 -0.931367,-49.24692 13.9705,0 26.078267,2.73594 76.372068,3.64792 86.617101,4.5599 -10.245033,0 -26.078267,4.55989 -26.078267,4.55989 748.818806,70.22247 -569.996405,35.56724 -466.614704,39.21515 162.989168,57.45475 762.789306,44.68703 717.152339,44.68703 -45.636968,-20.06357 55.882001,6.38386 47.499701,4.5599 29.803734,0 88.479833,0 88.479833,0 76.372068,34.65524 230.047569,105.78969 230.047569,105.78969 54.019267,-7.29584 162.989168,-21.88752 162.989168,-21.88752 -39.1174,-15.50367 -115.489467,-44.68702 -115.489467,-44.68702 -29.803734,-15.50366 -149.018669,-18.23961 -162.057802,-17.32763 84.754368,-31.91931 108.038534,-51.07088 203.037936,-52.89484 -110.832636,-11.85574 -332.497904,-35.56723 -332.497904,-35.56723 -117.352201,-14.59169 -352.056603,-44.68703 -352.056603,-44.68703 -175.096935,-29.18336 -236.567135,-42.86305 -426.565937,-56.54276 38.186035,-4.5599 115.489468,-13.6797 115.489468,-13.6797 -59.607467,-11.85574 -176.028301,-43.77505 -176.028301,-43.77505 -153.675501,-0.91198 -461.026504,-40.12712 -461.026504,-40.12712 -31.666468,0 -94.999401,0 -94.068034,0 l 33.5292,13.67969 c -126.665868,-12.76771 -379.066236,-18.23959 -379.066236,-18.23959 13.039132,6.38385 40.048766,18.23959 40.048766,18.23959 -109.901268,-17.32761 -331.566536,-27.3594 -331.566536,-27.3594 28.872367,10.03179 84.754367,30.09535 87.548467,31.00732 -242.155335,-3.64792 32.597834,9.11981 40.980134,9.11981 45.636968,16.41564 135.979535,48.33495 135.048167,48.33495 105.244436,13.6797 144.361835,-3.64793 284.998202,26.44742 27.009635,6.38386 28.872369,10.03179 6.519568,13.6797 -79.166167,9.1198 -203.969301,-1.82396 -284.066836,-13.6797 118.283567,-21.88751 40.048767,-13.6797 27.009634,-12.76772 4.656833,1.82396 13.039133,4.5599 13.039133,4.5599 -31.666467,-6.38387 -116.420834,-5.47188 -168.577367,-13.67969 24.215533,-0.91199 74.509333,-4.55991 74.509333,-4.55991 -120.1463,-19.15159 -359.507536,-57.45476 -359.507536,-57.45476 -91.273935,-24.62345 -114.558102,-40.12712 -216.077069,-48.33495 0,0 35.391934,-3.64791 40.048768,-4.55989 -65.195668,-20.06356 -78.234802,-4.5599 -142.499102,0 -139.705002,-10.03178 -419.115004,-31.00731 -419.115004,-31.00731 23.284167,8.20781 69.852501,20.97553 73.577968,22.7995 l -284.066837,-62.01465 c -161.126434,-25.53545 -283.135468,-29.18337 -447.056003,-71.13445 144.361834,-2.73595 207.694769,3.64792 345.537036,35.56721 -124.803134,4.55991 -31.666467,0 47.499701,13.67971 -4.656834,-13.67971 242.155335,21.88753 237.498502,21.88753 69.8525,0 209.557501,0 209.557501,0 l -128.528601,-31.00733 c 60.538834,0 183.479235,9.1198 182.547869,9.1198 -80.097534,14.59169 -43.774234,16.41564 -33.529201,17.32763 494.555705,-8.20783 932.298042,-12.76774 1428.71648,17.32761 275.684535,-15.50366 826.12224,-48.33495 826.12224,-48.33495 42.842867,-37.39118 481.516571,-0.91197 583.035538,9.11981 103.381701,-2.73594 311.07647,-9.11981 311.07647,-9.11981 -121.077668,-20.06356 -357.644803,-69.31048 -366.027104,-70.22246 290.586403,9.1198 533.673106,62.01465 826.122241,61.10267 365.095737,0.91198 1097.149942,71.13444 1097.149942,71.13444 -39.1174,-6.38386 -182.547868,-40.12712 -182.547868,-40.12712 44.705602,-4.5599 135.048168,-12.76772 135.048168,-12.76772 176.95967,3.64793 529.016276,43.77505 529.016276,43.77505 -51.225165,5.47188 -149.950036,12.76771 -162.057804,13.67969 l 94.068039,0 c 65.195662,-1.82396 196.51836,-4.5599 196.51836,-4.5599 345.537036,26.44742 132.254076,20.97555 74.509336,21.88753 -45.636959,2.73594 -135.97953,9.1198 -135.97953,9.1198 29.803732,13.6797 17.695964,12.76772 13.970497,12.76772 -161.126431,9.1198 -480.585207,-26.44742 -480.585207,-26.44742 44.7056,17.32761 -317.596035,-3.64792 -357.644803,-8.20782 4.656835,2.73594 12.107768,3.64793 12.107768,3.64793 -137.842269,-3.64793 -413.526804,-12.76774 -413.526804,-12.76774 52.156534,7.29584 156.469601,17.32763 156.469601,17.32763 -510.388938,6.38386 69.852501,17.32761 87.548467,18.23961 49.362434,2.73593 149.018668,8.20781 149.018668,8.20781 27.009633,6.38386 26.078267,8.20783 13.970502,8.20783 l 189.067433,10.03177 c 126.665871,21.88753 131.322699,20.06357 122.009033,21.88753 -31.666469,2.73593 -87.548464,0.91198 -131.3227,-0.91199 l 164.851901,10.03178 c 583.035545,58.36674 361.370275,52.89485 305.488277,52.89485 78.234795,4.5599 236.567132,12.76774 236.567132,12.76774 339.948835,52.89483 348.331135,50.15889 325.046965,52.89483 -164.851897,3.64792 -342.74293,-12.76772 -507.594838,-26.44742 -147.155923,8.20782 -440.536435,18.2396 -440.536435,18.2396 -303.625536,20.97555 -939.748975,-9.1198 -934.160775,-9.1198 85.685734,-7.29584 257.057202,-21.88752 257.057202,-21.88752 -105.244433,-4.5599 -335.292002,17.32762 -331.566535,17.32762 -128.528601,-5.47188 -386.517171,-17.32762 -386.517171,-17.32762 191.861536,-4.5599 575.584606,-13.67969 575.584606,-13.67969 -144.361836,-5.4719 -433.085504,-17.32764 -433.085504,-17.32764 214.214335,-9.1198 643.574372,-26.44741 643.574372,-26.44741 l 4.656833,0 -106.175801,-4.55991 c 457.301038,-6.38387 461.026505,-3.64792 446.124638,-9.1198 -2.794101,-1.82396 -33.5292,-2.73593 -73.577968,-8.20783 96.862135,0.91199 290.586403,3.64792 290.586403,3.64792 -313.87057,-22.79949 -941.611709,-70.22247 -941.611709,-70.22247 -82.891633,-12.76771 -250.537635,-40.12712 -249.606268,-40.12712 -73.577967,0 -212.351602,-3.64792 -239.361236,-3.64792 12.107768,0.91198 28.872367,3.64792 28.872367,3.64792 -40.980134,4.55991 -122.009034,13.6797 -122.009034,13.6797 108.969901,17.32763 88.479834,-2.73593 183.479235,-4.5599 65.195667,7.29584 195.587001,26.44743 195.587001,26.44743 l -188.136068,9.1198 c 61.470201,0 711.56414,10.03178 709.701406,26.44742 l 40.980134,4.5599 c 41.9115,22.79951 17.695966,21.88753 13.039133,21.88753 -57.744733,5.47188 -184.4106,0 -182.547868,0 l 155.538234,21.88752 -1083.179441,-43.77505 c -88.479836,-5.47188 -177.891035,-20.97554 -264.508137,-18.2396 l -60.538833,-8.20781 149.018668,0 c -87.548467,-13.67971 -264.508137,-4.55991 -264.508137,-4.55991 12.107768,1.82396 54.019268,8.20782 61.470201,8.20782 281.272736,60.19069 40.048768,61.10267 -7.450933,62.01465 14.901867,3.64792 108.038534,18.2396 108.969901,18.2396 159.263701,16.41564 402.350404,31.91931 555.094538,61.10267 234.704402,41.0391 40.980134,40.12713 -40.980134,40.12713 l -56.813366,4.5599 -0.931368,0 c -50.2938,0.91197 92.205301,14.59167 78.234802,12.76771 158.332334,-3.64792 249.606269,-10.03177 420.04637,0 -1.862734,-0.91197 -6.519568,-4.5599 -6.519568,-4.5599 326.909704,-12.76771 416.320904,-20.97555 745.09334,18.23961 -111.764,6.38386 -331.566535,33.74326 -345.537035,35.56723 131.322701,1.82395 385.585803,-31.00734 385.585803,-31.00734 34.460566,2.73594 101.518967,8.20782 101.518967,8.20782 88.479835,4.55992 264.508138,13.67971 264.508138,13.67971 -9.313666,-2.73594 -43.774233,-10.03178 -27.009633,-21.88753 -29.803737,0 -88.479837,-4.55989 -88.479837,-4.55989 71.715237,-9.11981 25.146901,-3.64792 -20.490067,0 l -107.107167,-13.67971 c 29.803733,-0.91197 366.027112,-1.82395 365.095738,9.11981 171.371469,17.32761 341.811573,30.09534 514.114407,40.12713 77.303433,-1.82397 230.978929,-4.55991 230.978929,-4.55991 l 702.25047,26.44743 -4.65683,0 c 619.35883,2.73593 1861.80198,21.88752 1861.80198,21.88752 l 413.5268,0 c 218.87116,-6.38386 670.58401,-4.55991 670.58401,-4.55991 19.5587,-5.47188 60.53884,-17.32761 60.53884,-17.32761 10.24502,2.73593 27.00962,17.32761 27.00962,17.32761 139.705,-3.64792 412.59544,-11.85573 438.67371,-12.76771 -50.2938,-1.82397 -208.62614,-32.83129 -194.65564,-31.00733 54.01926,-9.1198 162.05781,-31.00732 162.05781,-31.00732 2.79409,2.73594 7.45093,9.11979 7.45093,9.11979 168.57736,20.06357 260.78267,38.30318 433.0855,30.09536 -79.16617,-2.73595 -237.49851,-8.20783 -237.49851,-8.20783 185.34198,-16.41564 556.02591,-49.24693 556.02591,-49.24693 418.18364,41.95109 421.90911,38.30317 406.07587,44.68703 12.10777,0 176.0283,0 176.0283,0 626.80978,2.73594 916.46482,21.88752 1537.68639,-35.56723 76.37207,39.21514 231.9103,113.08554 236.56713,114.9095 l 6.51957,0 c 548.57497,215.22731 481.51657,98.49385 921.12165,141.35691 49.36242,6.38386 107.10716,22.7995 155.53823,35.56723 -49.36244,-4.5599 -149.01868,-4.5599 -149.01868,-4.5599 0,4.5599 0,13.6797 0,13.6797 67.98977,0.91198 121.07767,11.85575 189.99882,0 108.96989,24.62346 324.11559,81.16624 331.56653,83.90217 l -46.56834,-4.55991 6.51956,0 c -45.63696,-4.55989 -226.3221,47.42298 -210.48886,43.77505 -3.72547,16.41564 -13.03913,48.33495 -13.03913,48.33495 55.882,-3.64792 363.23301,-31.91931 392.10536,-52.89484 140.63637,41.95108 588.62375,164.15642 684.55451,269.94611 146.22456,113.08553 869.89648,-31.91931 1090.63038,-40.12712 -40.98014,-10.03179 -122.00903,-26.44743 -122.00903,-26.44743 43.77422,-6.38386 428.42866,-9.1198 428.42866,-9.1198 106.1758,-0.91198 197.44974,-10.94376 302.69417,-33.74327 97.7935,-20.97554 184.41062,-47.42297 277.54728,-87.55009 190.93016,-86.63811 327.84106,-182.39602 479.65383,-336.52065 149.95004,-161.42048 241.22398,-302.7774 330.63517,-510.70886 86.6171,-219.78721 125.7345,-402.18324 131.3227,-641.12202 l 8.3823,-43.77505 -0.93137,43.77505 c -3.72546,242.5867 -38.18603,423.15876 -122.00903,648.41785 -86.61711,211.57939 -178.8224,359.32017 -327.84107,525.30055 -152.74414,160.5085 -288.72367,259.91434 -484.31067,352.9363 -203.96931,90.28603 -374.4094,127.67721 -595.14331,130.41316 0,0 -110.83264,-2.73595 -109.90126,-2.73595 l -47.4997,8.20782 157.40096,6.38387 c 223.528,-1.82396 392.10536,-39.21514 599.80014,-129.50117 196.51837,-93.93397 335.292,-193.33979 488.96751,-355.67225 149.95003,-165.98039 244.01806,-316.4571 331.56653,-528.94846 85.68573,-226.17108 120.14629,-409.47908 124.80314,-654.80172 0,0 5.5882,-144.09287 5.5882,-140.44493 17.69597,-90.28604 52.15653,-271.77009 52.15653,-271.77009 z"
                style="fill:#ffffff;fill-rule:nonzero" />
        </g>
    </g>
</svg>