<svg id="city_vlad" data-name="vlad" xmlns="http://www.w3.org/2000/svg" width="52.5mm" height="52.5mm" viewBox="0 0 148.82 148.82">
  <title>vlad</title>
  <g id="vlad">
    <path d="M42.72,83.08L43.2,84a5.85,5.85,0,0,0,1.59,1.56c-0.6-1.36,1.56-1.16,1.56-1.7a13.75,13.75,0,0,0,2.81.09c1.16,0,2.49-1.81,2.72-2.35,0.94,0,.77,2,0.77,3.15,1.62-.82,3.06-2.95,4.31-2.95,0.74,0,1,.77.85,2.18A3.72,3.72,0,0,0,59.92,83c0.54-.45,1.13-0.37,1.13.06A9.35,9.35,0,0,0,61,84.16c0.48-.17,1.3-0.77,1.39-0.2,0.17,1,1.11,1.11,1.64,2a0.74,0.74,0,0,1,.45-0.57c0.62,0,7.57,7.68,10.49,8.82,0.45,0.17,1.79.54,1.62,0.82s-1.59.74-2,1.36c1.16,0.09-.91,1.76-1.08,1.9-1.56,1.39-3.69,1.9-3.74,3.12l1.08-.17-2.18,3c-1.19,1.62-3.57,5.9-1.53,4.17,1.19-1,.94,3.32.28,4.39l-1.16,2c1.64,1.16,2.3-.17,4-0.06,0.45,0-.6,1.87.34,1.79a5,5,0,0,0,2.21-.91c0.91-.82-0.11,1.39,1,0.34,0.28-.28-4,7-4.76,7.46-0.4.26-3.74-.28-5.07-0.28s-3.09,2.47-3.09,3.43a3.84,3.84,0,0,0,0,1.28,2.64,2.64,0,0,1,1.93-.43,1.7,1.7,0,0,0,0,1.08,1.68,1.68,0,0,1,1.39-.45c0,0.62-.45,1,0.48,1.56a1.77,1.77,0,0,1,1.67-1.08c-1.33.45-.23,1.45,1.19,0.91a6.3,6.3,0,0,0,2.38-1.08l0,0.45a6.22,6.22,0,0,0,2.75-.43c0.94-.43,0-1.93,1.11-1.84a9.1,9.1,0,0,1,.26-1.81A36,36,0,0,1,79.65,118l3-.23a1.93,1.93,0,0,0,.91-1.08v-1.53c-0.31-.79-1.5-1.79-1.76-2.35-0.28-1,.51-0.34-0.14-1.13,0-.45.79,1,0.79,0.74,0.65-.54.14-2.72,0.14-2.72,0.31,0.79.57,0.48,0.65,0.57,1.08,1.13,2,7.4,3.6,5.67s2.15,2.58,2,4.59c2.32-.23,2-1.3,3.09-2.13a8.09,8.09,0,0,1,1.45,1.53c1.33,3,1.62,2.72,3.32.48,1.39-1.79,2.81.54,3.69,2.18,1.7,3.17-2.69,4.62-2.52,7.6a1.58,1.58,0,0,1,1.64-.2l-0.37.91c1.53-.74,3.32.62,4.48-0.34,0.85-.45,1.9-1.73,2.49-1.73,0-.23.85-1.08,1.16-0.79,0.85-3.34-3.86-3.46-2.61-6.66,0.31-.79-0.37.65-1.08-1.08-0.31-.79-0.45-2.61.54-2.66,2.35-.2,2.75-2.86,2.1-2.55a1.07,1.07,0,0,1-1.42-.37c-0.6-1.28.34-1.67,0.4-2.52-0.94.26-2.69,0.28-3.32-.43-0.48-.54.82-0.74,0-2.32-2.55.48-.4-5,0.06-2.35,0.37,2.07,1.16-7.6,1.19-5.47,0.11,4.68.79-5.53,1.39-4,0.94,2.47,1.87-3.15-.94-4.82,0.71,0.23,2-.26,2.13.34,0.37,1.45,1.59-.26,2,0.2,0.57,0.65,1-.43,1.36-0.26,1.11,0.54.82-.91,1.19-0.71,1.16,0.65.68-1.53,1-1.16,1.11,1.22.45-2,.91-1.59,0.65,0.65-.14-1.11.17-1.28a1,1,0,0,0,.48-1.59c-0.17-.37.4-0.85,0.11-1.62a3,3,0,0,1-.23-1.3c0-.65.54-0.62-0.14-1.9-0.28-.54,0-1.28-0.82-1.81-0.48-.34-0.09-1-1-1.73a8.29,8.29,0,0,1-1.25-1.67c-0.43-.51-0.79-1.47-1.28-2s-1.13-.65-1.56-1.11-1-1.16-1.39-1.59-0.85-.85-1.19-1.28c-4-5-5.67-8.93-5.67-16.24,0-.77,1.22-6.52,6.58-6.52,0.48,0,1.47,1.53,1.79,2.1,0,1.59-3.32,4.39-2.32,5.75,3.26-1.08,4.2-.23,4.17,3.91a3.89,3.89,0,0,0,2.58-1.7,9.15,9.15,0,0,0,4.68,4.34c0-1.5-.23-2.78-0.23-4.79a17.14,17.14,0,0,1,4.17-.45c-0.09-2.72-1.84-2.72-1.84-3.29s1.16-1.11,1.84-1.45c0-.94-2.92-1.62-2.92-2.61a3,3,0,0,1,1.47-2.1c-1.47-.94-2.35-0.26-3.71-0.26-0.74,0-2.24-.31-4.05-0.31-2.55,0-3.34-2.13-5.84-2.13-7.2,0-9.1,7.11-9.1,12.84,0,6.32,2,11.2,6.07,15.11,3,2.92,5.58,7.09,5.58,11.93,0,8.31-7.37,4.71-10.94,3.32-3.8-1.5-9.27-11.34-9.78-14.77V72.88a35.83,35.83,0,0,1-2.3-4.2c0-.54-0.77-2,1.36-2.55,0-1.79-1.36-2.18-1.36-3.66C85,61.65,85.86,62,86.71,61c-1.08-.62-1.7-2.86-0.09-3.54a6.73,6.73,0,0,1-1.22-2.3c0-1.47,1.11-.11,1.11-2.32-1.67-1.5-1.16-1.7-2.18-4.51,0.26-.57,3.15-0.31,1.25-1.64-2.15-1.5-1.25-2.3-.09-2C87,45.07,83.14,43.17,83,41.53l9.64-8.82a7,7,0,0,0-5.81-.85,8.67,8.67,0,0,0-1.19-1.3,17.26,17.26,0,0,0-3.88-2.61l-0.91-4.34-3.54,2.75a21.36,21.36,0,0,0-4-.45,7.62,7.62,0,0,0-2,.31c-1.25-1.9-3-3.6-5.19-3.71l1,13.1c-2.1.65-3.94-1.84-3.32-.23,0.71,1.84-2.86,2.83-4.25,2.83,1.36,2-2.83,2.61-1.7,3C60,42,56.64,42.86,56,43.14c0.48,0.48-.6.57,0.09,0.74,1,0.28-.48.43-2.21,2-0.62.82,0,2-.82,3L53.89,49a6.55,6.55,0,0,1-1.73,4.34c1,0.11,1.11,2.66.14,3.51C51,58,53.74,58,52,60.8c1.19,1.22.79,1.08,1.73,2-0.34.82,1.28,0.45,1.28,0.77l-0.82.85c-1.22-.31-2.13-0.91-3.09-0.65l-0.94-.54a5.35,5.35,0,0,1-2.27-.71l-1.13.06a8.76,8.76,0,0,1-3-2V59c0-.57-1.19-1.22-1.19-1.22l-2.27.57-1.22-.79-0.68.57-0.28-.31a2.33,2.33,0,0,0-1.22.91l-0.2.62v1.16l-1,1.19c0,1.16.85,3,.85,3.94,0,0.6,2.32,1.28,2.32,1.28l2,0.37,1.7,0.57c1-.23.71,0.51,1.39,2,1.39-.48,2.13-2.47,2.78-1.93,0.68,0,.74,1.53.37,2.83,1.13,0.54,2.41-1.3,2.66-1.3,0.17,0.34,1.87,2.1,1.42,4,1.08-.48,2.86-1.93,3.09-1.9,1.19,0.2,1,1.3,1.53,2,1-1.39,2,.11,4.59,0a45,45,0,0,1-6.55,2.13c-3.86.43-5.41,0.57-8.93,1.08a2.3,2.3,0,0,1-1.59.54H43.14l-0.48.14-1.16.68-1.13,1.28-1.22,2.18,1.22,0.51,0.91-.23L41.5,83.2l1.16-.2Z"/>
    <path d="M42.72,57.88V36.4c0-.82,0-2,1.87-2h3.26c1.11,0,2.92,1.16,4,1a2.78,2.78,0,0,0,2-2.18,2.45,2.45,0,0,0-2.24-2.47,29,29,0,0,0-3.54.82h-4c-1.45,0-1.3-1-1.3-2.52V23.47c0-1.19.85-2.49,0.79-3.66a2.45,2.45,0,0,0-2.24-2.13,2.42,2.42,0,0,0-2.64,2.81c0.4,1.64.6,1.53,0.6,3.12v5.47c0,1.7-.17,2.55-1.36,2.55H35.09c-1,0-2.41-1-3.17-1.11a2.43,2.43,0,1,0-.09,4.82c0.65-.09,2.55-0.94,3.09-0.94h3a1.28,1.28,0,0,1,1.36,1.47V57.63l1.22,0.79,2.27-.57ZM39.23,81.64v42.29A2,2,0,0,0,41,126.17c0.85,0,1.73-.74,1.73-2.32V83.11l-1.16.2-0.23-1.36-0.91.23-1.22-.51,1.22-2.18,1.13-1.28,1.16-.68V67.95L41,67.38,39,67a12.12,12.12,0,0,0,.2,1.39V81.64Z" style="fill: #fc0"/>
  </g>
</svg>
