<svg id="city_nvar" data-name="nvar" xmlns="http://www.w3.org/2000/svg" width="52.5mm" height="52.5mm" viewBox="0 0 148.82 148.82">
  <title>nvar</title>
  <g id="nvar">
    <path d="M101.48,64.29c-9.35,19.84-8.79,39.23,1.16,58.2h0a14.12,14.12,0,0,1-5.44,8.62H108a13.68,13.68,0,0,1-5.39-8.62,76.33,76.33,0,0,0,5.13-16,67.88,67.88,0,0,0,5.81,15.76L114,123c10.77-19.81,9.95-39.94.88-58.9a13.7,13.7,0,0,1,5.84-8.62H109a14.08,14.08,0,0,1,5.9,8.62h0a66,66,0,0,0-6.92,17.12,67.58,67.58,0,0,0-6.09-17.63Z" style="fill: #999"/>
    <path d="M51.45,128.58h0l-2.89-.11-0.06-7.09a32.94,32.94,0,0,1-11.71,5.22H26.93a49.35,49.35,0,0,0,12.59-14.26,16,16,0,0,1-8.19.62,61.39,61.39,0,0,0,12-13.21,10.71,10.71,0,0,1-8,.62,40,40,0,0,0,9.86-12.59,19.89,19.89,0,0,0-6.29.85,32,32,0,0,0,8.19-9.86,6.6,6.6,0,0,0-4.39.2,26.4,26.4,0,0,0,6.89-8.53,5.61,5.61,0,0,0-5.22.37,43.49,43.49,0,0,0,7.11-12.73V58l0,0,0-.06v0.09a43.85,43.85,0,0,0,7.11,12.73,5.6,5.6,0,0,0-5.22-.37,25.81,25.81,0,0,0,6.89,8.53,6.61,6.61,0,0,0-4.39-.2,32,32,0,0,0,8.19,9.86,19.89,19.89,0,0,0-6.29-.85,39.71,39.71,0,0,0,9.86,12.59,10.69,10.69,0,0,1-8-.62,60,60,0,0,0,12,13.21,16,16,0,0,1-8.19-.62,49,49,0,0,0,12.59,14.26H66.22a32.94,32.94,0,0,1-11.71-5.22l-0.06,7.11-2.92.06Z" style="fill: #fc0"/>
    <g>
      <path d="M78.38,36.37c-2.3,4.82-9.78,13.55-7,19.73,1.25,2.78,4.25,3.74,7.54,3.63,6.21-.23,7.71-5.73,6.52-9.58-0.62-2-7.06-13.29-7.06-13.75v0Zm4.68-3c1.64,2.47,3.6,5.13,3.15,8.28-0.65,4.51,6.72,8.87,10.18,5.56,1.62-1.56,2.41-2.78,2.21-6-0.11-1.84-1.36-3.37-3.09-4.62,0.37-9.69-6.75-18.06-16.19-18.82C69.65,17,61.2,24.43,60.43,34.44a19.18,19.18,0,0,0,0,2.21c-1.73,1.25-2.95,2.78-3.06,4.62-0.2,3.2.6,4.45,2.21,6,3.43,3.32,10.83-1,10.18-5.56-0.45-3.15,1.5-5.81,3.15-8.28,0-1-6-.31-10.46,2a1.38,1.38,0,0,1,0-.34c0.68-9.72,8.19-17,16.78-16.24,7.85,0.68,13.89,7.85,14.34,16.5-4.54-2.32-10.46-3.09-10.46-2H83.06Z"/>
      <path d="M78.43,63.54c-5,0-8.84-2.12-10.53-5.89a11.47,11.47,0,0,1-.81-6.41C63.34,53,59.48,52.51,56.91,50c-2.28-2.2-3.64-4.48-3.37-9a9.27,9.27,0,0,1,3.05-6.16c0-.25,0-0.49,0-0.73a22,22,0,0,1,7.67-15.22,20.83,20.83,0,0,1,15.32-5A21.64,21.64,0,0,1,99.3,34.78,9.25,9.25,0,0,1,102.39,41c0.28,4.51-1.08,6.78-3.37,9s-6,2.87-9.46,1.53a11.58,11.58,0,0,1-1.94,7.74,10.65,10.65,0,0,1-8.57,4.33H78.43Zm-0.25-19.3c-2.11,3.51-4.41,7.88-3.33,10.29,0.58,1.3,2.71,1.42,3.93,1.38,1.88-.07,2.44-0.86,2.62-1.12a4.24,4.24,0,0,0,.39-3.53C81.5,50.45,79.57,46.83,78.18,44.24ZM63,39.5l-0.34.24a3.22,3.22,0,0,0-1.49,1.77c-0.12,1.9.11,2.12,1.05,3a2.29,2.29,0,0,0,1.93-.33A3.14,3.14,0,0,0,66,42.27,10.57,10.57,0,0,1,66.24,38a17.85,17.85,0,0,0-2.06.91Zm26.72-1.63A10.56,10.56,0,0,1,90,42.18a3.11,3.11,0,0,0,1.82,1.94,2.3,2.3,0,0,0,2,.32c1-.93,1.16-1.12,1-3a3.21,3.21,0,0,0-1.52-1.77l-0.6-.43-0.83-.43A18.8,18.8,0,0,0,89.69,37.87Zm-13.3-2.81,3.79,0.86-4.24-6.36h6c1.63-.66,4-0.51,6.3,0A11.77,11.77,0,0,0,78.9,22.7a10.54,10.54,0,0,0-7.79,2.6,13.46,13.46,0,0,0-3.31,4.3c2.61-.56,5.24-0.67,6.88.33a4.1,4.1,0,0,1,2,3.52V34.6Z" style="fill: #999"/>
    </g>
  </g>
</svg>
