<svg id="city_vl" data-name="vl" xmlns="http://www.w3.org/2000/svg" width="52.5mm" height="52.5mm" viewBox="0 0 148.82 148.82">
  <title>vl</title>
  <g id="vl">
    <path d="M83.91,109.33a54,54,0,0,0-4.39,3.46c-0.62.62,1.87,3.46,2.83,4.39a19.1,19.1,0,0,0,1.25,1.87c0.94,0.94,12.25-.62,11.31,1.56-0.62,1.56-8.16-.31-6.29,2.52,0.94,1.25,3.46,4.39,5.33,3.46,1.25-.62,3.46-0.62,3.46-2.52,0-1.25,4.08,0,5,0a39.44,39.44,0,0,0,6.29-.62c3.46-.94,2.52-1.25,2.52-4.39,3.77,1.87,2.83,4.39,7.85,2.83,2.83-.94,7.54.94,5.33-3.77-0.94-2.21-5.64-2.83-8.16-2.83H113.1c-2.21,0-2.21,2.52-4.71.94-1.87-1.25-1.25-3.15-3.46-3.15-5.33,0-4.08,1.25-6,4.39-1.56,2.52-3.15-.31-0.94-2.52,1.25-1.25-1.87-4.39-2.52-4.71-2.21-.94-6.92-0.94-6.92-0.94-1.87-1.87-6,.31-4.71,0v0Zm-47.31,17c0.88-2.07,2-4.59,3.37-6s8.48-2.52,10.37-1.56c0.94,0.31,2.21,1.25,3.46.62,2.21-.94,6.29,3.15,7.54,4.39,0.31,0.31,1.56.94,1.56,1.25,0,0.62.62,0.94-.31,1.25a14.29,14.29,0,0,1-1.81.71h2c-12.59,0-27.58,0-36.06.09-4.54.06-9.61-6.21-2-12.5-0.51-1.28-8.28-14-4.31-13.8,4.93,0.2.6-10,5.53-13.29,3.34-3.12,10.06-1.33,13.35.17,6.6,3.15-.62,9.72-0.62,13.49-0.62,0,0,1.25,0,1.56,0.31,0,2.83,1.25,4.39,1.25,0-.31.31-0.31,0.62-0.31,0-1.25,3.77-3.46,3.77-4.08,0.62,0,2.52-.94,2.52-1.56,1.56,0,4.08.31,5.33,0.31,0,3.46,18.2,1.59,20.41,1.59,0,0.31,2.52-.06,2.52,1.22,0,3.46,2.21,12-4.08,12,0,0.62-4.39-.31-4.39,1.87H69.19c0,0.94-4.08-.31-4.08-0.31a4.58,4.58,0,0,1-2.21-3.46c-2.21,0-2.21,1.87-4.39,1.87H53.8c0-.31-0.31-0.31-0.62-0.31,0-.31-0.31-0.31-0.62-0.31,0-.94-9.41-2.83-10-2.83,0-.31-0.62-0.31-0.94-0.31,0,2.52,6.6,3.15,8.48,4.08,5.33,2.52-4.39,2.83-4.39,3.46-3.15,0-3.77,2.21-6.29-.31-0.62-.62-4.71-4.39-6-4.39,0-.31-0.31-0.31-0.62-0.31l-0.62-.62v-0.94c1.87,0,4.71-3.46,5.64-3.46v-0.94c-1.56,0-5-1.25-6.92-1.25a10.38,10.38,0,0,0-1.87-.94,6.39,6.39,0,0,0-2.21.62c0,0.62.62,0.94,0.62,1.25h0.94l2.52,1.56c0,1.25,1.56,4.71-1.25,4.71,0,0.31-.94.31-1.25,0.31,0,0.23-1.45.48-2.27,0.57l0,0.31,0.06,0.54L26.28,114l0.06,0.51,0.06,0.37h1.39l0.62-.31H29v-0.31H30V114h0.62l0.31-.31h0.94L32.14,114h0.31v0.31h0.62v0.31h0.31v0.62l0.31,0.31v1.25a12.43,12.43,0,0,0,.94,1.25,1.69,1.69,0,0,0,.94.62L36.51,119l0.31,0.94c0.31,0.31.31,0,.31,0.62a3.14,3.14,0,0,1-.31.94c-0.94.94,0.62-.31-0.62,0.94a2.4,2.4,0,0,0-.62.94,1.65,1.65,0,0,1-.62.94l-0.94.94a0.8,0.8,0,0,0-.17.09L34,125.35l0.43,0.17,0.45,0.14,0.45,0.14,0.48,0.14,0.48,0.11,0.37,0.09Zm18.74-11c0,1.87.94,3.46,2.83,3.46,0.94,0,1.25,1.56,1.56,1.87L60,121.27c1.87,0.94,5-1.25,7.23-1.25,1.25,0-.62,1.56-0.62,1.56l-0.94,1.87a7.49,7.49,0,0,0,2.52.62,15.06,15.06,0,0,1,4.71,3.15c0.62,0.62,1.56,2.52,3.15,1.87,0.62-.31,2.52-2.83,3.46-3.77,0.31-.31,1.87-1.56,1.87-0.62a6,6,0,0,1-.94,2.83,2.12,2.12,0,0,0,.62,2.21l1.25,0.62c0.62,0.31.94,1.25,1.87,0.31a21.41,21.41,0,0,0,2.21-3.46c0-.31.31-1.25,0.31-1.56a19,19,0,0,0-1.25-2.52c-1.25-1.25-6.29-3.46-8.16-3.46a6.17,6.17,0,0,1,2.21-.62c0.62,0,1.87,0,1.25-.62-1.25-1.25-2.52-4.08-4.08-4.71-0.31,0-1.25-.31-1.87-0.31A5.9,5.9,0,0,0,70.44,115l-1.25.94c0,2.21,6,0,6,2.83,0,0.94,0,.62-0.94.62-1.56,0-5-.94-5.64-1.56-0.31-.31-1.56-0.62-1.87-0.94-0.94-.94-1.87-2.21-2.83-3.15a5.27,5.27,0,0,0-1.87-.94c-1.25,0-2.52.62-3.46,0.62a6.28,6.28,0,0,0-1.87.62H56.35l-0.62.31c-0.62.31-.62,0-0.31,0.94Z" style="fill: #999"/>
    <path d="M39,27.33a10.82,10.82,0,0,1-.37-2.47l0.2-.2a15.43,15.43,0,0,0,5.41-1.25c1.59-.82,2.49-2.13,3.54-2,0-1.33,6.29-.37,7-0.37a2,2,0,0,0,1.13.37c0,0.2.37,0.2,0.57,0.2,0,0.2.2,0.2,0.37,0.2,0,0.2.2,0.2,0.37,0.2,0,0.37,3.43-.37,3.43-0.37,1,0,2.3-.37,3.63-0.37l1,1v2.47c-0.2,0-1.53,1.9-1.9,1.9,3.63,3.06,7.31,8.93,11,15.42,1,1.81,3.88,2.15,5.3,3.51S81.41,49,82.94,50c3.26,2,12.76,1.84,17.12,3.23,4,1.28,7.6,3.12,11.42,4.56,1.7,0.65,8.76,4.2,8.76,4.2,8.56,1,3.17-8.87.57-11.62C111.51,40.54,92.24,42.75,93,29c0.23-4,8-5,10.66-5.7s2.47-7.43,4.76-5.13c4.76,4.76-7.8,8.36-9.33,9.89C91.9,35.32,110,37.79,114.55,40.85c3.63,2.47,9.89,6.8,12.36,10.46,7.37,10.91-3.17,15.82-4.2,15.62-1.9,1.53-.57,21.88-0.57,25.51a10.42,10.42,0,0,0,2.1,5.13c1.9,1.9.57,6.09,0.57,9,0,1.7.2,3.63,0.2,5.13,0,2.1-2.1,4.2-2.1,5.13-0.37,0-18.28,2.66-13.52-2.1,3.23-3.23,8-1,8-7.8,0-7.63-9.16-13.27-12.36-20.18-4-8.56-17.26-.6-13.89,7.63-1.9,2.3-3.8,2.66-6.09,3.8-2.1,1-6.09,3.8-8.76,3.8-1.53,0-7.43-1-7.43-2.86-2.86,2.86-4,1.9-7.23,1.9-1.53,0-4.37.57-5.33-.37-0.77-.77-2.47-1.53-1.33-2.66a34.5,34.5,0,0,1,5.53-3.8c1-.57,2.47-1.33,3-2.47,0.37-1,.2-2.66.37-3.23-1.13-2.3,0-4-1.7-5.7-2.1-2.1.57-9.89-3.63-9.89-3.8,0-15.62-1.7-17.89.57a38.39,38.39,0,0,0-5.9,7.8c-0.57,1.13-1.33,1-2.47,1-3.2-.26-4.25,4-5.9-3.63,0.37,0,.37-2.3,1.13-2.3,0-.57,2.86-1.33,2.86-1.7h0.37l2.3-1.7,0.2-.2c0-.2.2-0.37,0.2-0.57a0.6,0.6,0,0,0,.37-0.57,8.71,8.71,0,0,0,1.33-2.3c0.37,0,0-.2.37-0.2a1.24,1.24,0,0,1,.77-1c0-.77,5.53-4.2,6.66-4.2a54,54,0,0,1,6.46-4.2c0-.2,1.13-1.33,1.13-2.1,0.2,0,.2-0.2.2-0.37a12.1,12.1,0,0,0,.2-2.86c0-1,.57-2.3.57-3-0.2,0-.57-0.77-0.77-0.77,0-.77.2-1.33,0.2-2.1a70.46,70.46,0,0,0-.57-9.13,5.35,5.35,0,0,0-2.1-1.7,2.84,2.84,0,0,0-1.53.57c-0.57.57-.57,1.53-1.53,1.53-1.13,0-2.47-1.13-3-1.33-0.37-.2-3.43-5.53-1.13-5.53a4.31,4.31,0,0,1,2.3.37c0.77,0.77,1.53,2.3,3,1.53,0.57-.2,1.53-2.1.2-2.1a4.93,4.93,0,0,1-1-.37H44.31c-0.77,0-1.53-.37-2.1-0.37-1.33,0-2.66,0-3.23-1.33a3.86,3.86,0,0,1-.57-1.33c0-.57.37-1.33,0.37-1.7a1,1,0,0,1-.37,1M70.75,94.76c0-1.53,1-2.66,1-4a13.42,13.42,0,0,1,.57-3c0-.2.2-1,0.2-1.33s0.37-1.9.37-2.47a12.22,12.22,0,0,1,.57-1.9c0-.2.2-1.33,0.2-1.53,0.2-.77,1-1.9,1-2.66a1.26,1.26,0,0,1,.77-1.13c1,0,2.1.37,3,.37a7.53,7.53,0,0,1,2.1.2L82,77.64a3.27,3.27,0,0,1-1.13,2.1c-0.37.37,0,1.9,0,1.9,0,1.13,1,3.43.57,4.76,0,0.37-.2,1.13-0.2,1.7,0,1.13-1,2.1-1.33,3a23,23,0,0,1-2.3,1.7A4.61,4.61,0,0,1,75.51,94H72.85c-0.37,0-2.3.57-2.1,0.77v0Z"/>
    <g id="_980952448" data-name=" 980952448">
      <path d="M40.68,26.36a4.56,4.56,0,0,1,4.2-.37c1.13,0.57.57,1.9,1.13,2.47,1.33,1.33,4.2-1,5-1.13,0.37,0,1.9-1,1.9-.37,0,0.77-1.7,1.7-2.1,2.1,0,0-1,0-.77.57,0.57,1.13,3.8-.77,4.2-1.13a5.43,5.43,0,0,0,1.33-3.8c1.13,2.47-.77,5.53-3.23,6.66s-0.2,1.13,1,.57c1.7-.77,3-3,3.8-4.56,0.57-1.13.37,1.9,0.37,2.3,0,2.66-3.63,3.43-5.13,4.2-1.33.57,0.2,1.33,0.77,1.13s2.3-.37,2.66-0.77c1.53-1.53,2.47-2.66,2.47-5.33a2.3,2.3,0,0,0-.2-1.13c-0.2-.37.37-0.77,0.57-0.37,0.37,1,0,3.63,0,4.76,0,0.37-.57,1.7.37,1.7,0.37,0,1.53-2.3,1.53-3.23,0-1.33.37-2.47-.77-3.63-2.47-2.47-1.9-4.2,1.9-4.2,4.2,0,.2,2.86-0.57,3.63-0.37.37,1,3.63,0.37,5.33a19.65,19.65,0,0,1-3.23,4.76C56.64,38,50,36.88,47.71,36.88c-1.33,0-1.7.77-2.66,1.13-0.77.37-2.1-.57-2.47-1.33-0.2-.57-1.13-1.53-1.13-2.3s3.43,1,4.37,1c0.77,0,2.86-.37,2.86-1.33,0-2.86-1.53-2.1-3.43-2.66-1.13-.37-1.7-0.37-2.3-1a16,16,0,0,1-1.13-1.9c-0.37,1,1.13,1.9,1.13,2.47,0,0.77-3,.37-3-1C39.91,29,39.91,26.19,40.68,26.36Z" style="fill: #fc0"/>
      <path d="M47.17,26c0,0.2-.37.77-0.37,1l0.2,0.2,0.37,0.2H48.9c0-.2.37-0.2,0.57-0.2V27l0.2-.2h0.2a1.38,1.38,0,0,1,.57-0.37,0.65,0.65,0,0,1,.37-0.57v-1a1.1,1.1,0,0,0-.77.37l-0.57.2H48.13l-0.2-.2c-0.2,0-.57-0.2-0.77-0.2l-0.2.2v0.2l-0.2.2c-0.2.37,0,.77,0.37,0.37h0Z" style="fill: #fc0"/>
      <path d="M49.27,21.8H50.6c0-.2.2-0.2,0.37-0.2l0.2,0.2h0.2l0.2,0.2,0.2,0.2a2.74,2.74,0,0,1,.37.77h0.2v0.2l0.2,0.2a2.74,2.74,0,0,0,.77.37,1.62,1.62,0,0,1,.37.57,0.4,0.4,0,0,1-.37.37H51.82a4.06,4.06,0,0,0-.77-0.2v-0.2h-0.2c-0.2,0-.37-0.57-0.57-0.57V23.33A0.66,0.66,0,0,1,49.92,23l-0.37-.2a1.75,1.75,0,0,1-.57-0.2H48.42c-0.2,0-.2-0.37-0.2-0.57h0.2l0.2-.2h0.2c0.2,0,.37-0.2.57,0H49.27Z" style="fill: #fc0"/>
      <path d="M63.33,33c-1.53,1.33-2.47,3.43-3.8,4.76a6.61,6.61,0,0,1-4.37,1.33c-1.53,0-3.23-.57-3.23.57,0,4-.57,6.46,1.7,10.09a5.35,5.35,0,0,1,1,2.1c0,0.37-1.7-1.33-1.9-1.13-1.13,1.13.2,3.8,1,4.56,2.3,2.3-.57,1-1.13,1-1.33,0,0,6.66.2,7,0.57,1.33,1.53,4.2,2.86,4.76,1,0.37,2.1,2.47,3.23,3,0.37,0.2.77-4.37,1-5a104.78,104.78,0,0,1,4.37-12.19c0.77-1.53,2.3-3.63,3-5,1.33-2.47,1.7-5.13,2.47-7.8,1-3-1.53.37-1.9,1.7-1,3.23-5,6.66-6.46,9.69-1,2.1-1,5.13-1.9,7,0-1.53-.2-3.63-0.2-5.13,0-1.13,4-8.19,4.56-8.76,0.37-.37,4.2-7.23,3.8-7.63-0.57-.57-5,5.13-5.13,5.7-0.77,1.53-3.63,3.8-3.63,5.7,0,3.63-2.1,1.33-1-.37,1.53-2.47,3.63-7.23,5.7-9.33a26.55,26.55,0,0,0,1.13-2.66c-0.37-.37-4.56,4.2-5.33,5-0.37.37-3.8,3.63-2.66,1.33,0.57-1.33,4-4.56,5.33-5.9a12.92,12.92,0,0,0,1.7-2.66c0-.77-0.57-1.7-0.37-1.9V33Z" style="fill: #fc0"/>
      <path d="M50.6,61.4A3.46,3.46,0,0,0,51,63.86l1.53,1.9c0,1.53,2.66,3.63,2.66,5.53l-0.2.2c-1.9,0-1.7.57-3.23-1a8.63,8.63,0,0,1-1-1.7c0-.2-1.13-1.53-1.13-1.7H49.07c0,1.7,1.33,2.86,1.33,4.56h-1c0,0.2-.2.2-0.37,0.2,0-.2-0.37-0.2-0.57-0.2,0-.2-0.2-0.2-0.37-0.2a0.65,0.65,0,0,0-.37-0.57V70.36a3.48,3.48,0,0,1-.37-1.53c-0.2,0-.2-0.77-0.77-0.77,0,0.77-.2,2.3-0.2,3.23-0.57,0-2.3.37-3.23,0.37H39.57c0.23,0.17-2.1,2.81-2.47,3.63a4.77,4.77,0,0,1-4.37,3c0,0.37-1.9.2-1.9,0.77-0.57,0-1.9,1.11-2.66.77-1.33-.6.57-3.43,0.57-3.63a21.86,21.86,0,0,0,4.2-1.9c1.13-1.13,2.64-1.9,3.43-3.23,1.13-1.9,1.9-4.2,4-5.13a17.2,17.2,0,0,1,5.33-1.53c0-.2.2-0.2,0.37-0.2,0-.2.2-0.2,0.37-0.2,0-.2.2-0.2,0.37-0.2,0-.37,2.66-1.9,2.66-2.3a2.24,2.24,0,0,0,1.13-.2V61.4Z" style="fill: #fc0"/>
      <path d="M60.49,70a8.72,8.72,0,0,1-.2-3c0.2,0,1-3.8,1.13-4,0-.37.2-2.1,0.57-2.1a11.92,11.92,0,0,1,.37-1.33c0.37,0,1.13-2.66,1.53-2.66,0-1.9,5-5.13,5-7.43l1.53-2.47c0-.2,1.53-3.43,1.53-3.43,3,0,0,7.43-.77,8.56-1,1.33-1.53,3.8-2.3,5.13A23.83,23.83,0,0,0,67.32,62a14,14,0,0,0-1.53,2.1c-0.37,0,0,.2-0.37.2a0.44,0.44,0,0,1-.57.37c0,0.2-.2.2-0.37,0.2l-0.2-.2c0-1,2.1-2.66,2.1-3.63a1,1,0,0,0,.37-0.77c-1,0-2.1,1.9-2.1,2.66-0.2,0-1,4.2-1.7,4.2v0.57c-0.2,0-.2.37-0.2,0.57l-0.57.57a8.43,8.43,0,0,0-1.33,1.33H60.49c0-.2-0.37-0.2,0-0.2v0Z" style="fill: #fc0"/>
      <path d="M61.82,72.62c-0.2-2.1,1.9-6.29,3.43-7S73,53.6,73,51.31c0-1.53,2.86-7.43,2.86-2.47,0,1.53-.2,5.9-0.77,7.23-1,1.9-1.9,2.47-1.9,4.76,0,2.47-4.76,5.9-5.53,8.19-0.57,2.1,5-4.76,5.33-5.53,1.33-2.66,3.8-5.9,3.8-9.13a17,17,0,0,1,1-4.56c0.77-1.7,1.33,4.56.57,6.09-1.53,3.23-1.53,9.52-3.43,11.42s-5,3.23-6.66,5c-0.57.57-4.2,3.8-5,3.8-4.2,0,2.3-6.66,2.86-7.8,1.7-3.43-.77.2-1.33,0.77A6,6,0,0,0,63.72,71c-0.2.37-1.53,1.53-1.53,1.7,0,0-.37-0.37-0.37,0v0Z" style="fill: #fc0"/>
      <path d="M62.76,79.29c0.37-2.47,3.63-5,5.7-5.9l1.53-.2c1,0,4-3.43,4.37-3.8a2.54,2.54,0,0,1,.77-0.57c0.77,0-.37,2.1-0.37,2.1a5.34,5.34,0,0,0-.57,1.9c0,2.86-4.37,2.86-6.09,4.56a12.24,12.24,0,0,0-2.3,3L65.23,81l-0.2.57c0,0.57-1.33,1-1.33,1.13l-0.77-.57a2.28,2.28,0,0,1-.77-1.53c0-.57,0-1.33.57-1.33Z" style="fill: #fc0"/>
      <path d="M64.29,83.85c0.77-1.53,3.43-5,4.37-5.33,0,0,5-2.86,5-1.33s-1.53,3-2.3,3.8c0,0-3.8,2.47-2.47,2.47,1.13,0,1.7-1.13,2.86-1.13,0.77,0-.2,2.66-0.2,2.86,0,0.37-1,5.33-1.13,5.9-1.33,2.86-.77,5.7-3,8a5.22,5.22,0,0,1-3.63,1.33c-1.7,0-2.66,1.13-3.63-.77,0,0.77-1.9,1.53-2.86,1.13-0.37-.2-1.33-0.37-0.77-1a7.11,7.11,0,0,1,1.13-1.13c-0.77-.37-1.53,1-2.3.2s3-2.66,3.43-3c0.77-.77,2.66-1.33,3.23-1.9,1-1,2.66-2.66,2.66-4.76,0-1.33-.57-5-0.37-5.33h0Z" style="fill: #fc0"/>
      <path d="M82,52.44l0.77-1c-1.9.2-2.47,1.7-2.1,3.8,0.37,1.9-1.7,7-2.47,7.8-1,1-3,12.19-2.47,12.36,3.63,1.7,7.63,1.33,12,1.33,1.9,0,3.8.37,5.9,0.37,3,0,8.76,5.9,10.66,1.9,1.13-2.3,4.2-6.29,4.2-9.69,0-2.1.37-9.89-1.9-10.66s-0.77,6.46-.77,8.19A13.85,13.85,0,0,1,102.36,76c-0.2.2,1.53-3.63,1.53-3.63,0.57-1.7,1.33-7,.37-9a35.17,35.17,0,0,1-.2-4.76c0-1.33-1.9-1.7-1.9-.2,0,2.3.77,4.37,0.77,7a41.9,41.9,0,0,1-1.9,6.46c-1.13,2.3-2.1,3.43-.37,0,1.7-3.63-.57-8.36-0.57-12.19,0-2.1.77-4.2-1.9-4.2-1.7,0,0,3.63,0,4.2,0,1.7-.2,4-0.2,5.7,0,2.47-.37,5.33-2.3,7.23-0.37.37-.77,1-1.13,1.33-1,1,.37-1.53,1-2.1,1.53-1.53,1.13-5,1.13-7,0-2.3-1-4.37-.37-6.86a3,3,0,0,0-3.23-3.63c-1.33,0,.37,4,0.37,4.76v4.37c0,3.23-.77,3.8-2.66,5.7-1.13,1.13,4.2-1.53,2.1.57-1.13,1.13-4.2,5.13-5.53,5.13-1.53,0,3.8-5,4.56-5,0,0-4.2,0-2.1-1,3-1.53,3.23-13.12-.57-14.29-2.3-.77.37,4,0.37,5.9a22.12,22.12,0,0,1-1.7,6.29c-0.2.37-3.8,4.56-3.43,4.2,0.57-.57,5.13-3.63,2.47-1-1,1-3.23,2.3-4.2,3.23-2.1,2.1.77-2.66,1-3,1-1.33,2.66-2.66,3-4.37,0.77-3.43,0-7.23,0-10.29,0-1-.57-2.66-1.9-2.1-1.7.77,1.13,7.63-.2,9-1,1-1.53,4.2-2.3,5-0.57.57-2.86,3-2.3,3.23,0.37,0.2,3.63-1.9,2.1-.37-0.57.57-2.1,2.47-2.66,2.66-1,.37-2.47,1-1-0.57,3-3-2.66,0-.57-2.1,1.33-1.33,2.66-2.47,3.23-3.8A40.56,40.56,0,0,0,82.71,58c0-1,.37-2.66.37-3.63,0-1.33-1.13-3.43-1.13-2.1Z" style="fill: #fc0"/>
      <path d="M90,78c-0.77,0-1.33-.37-1.9-0.37a7.39,7.39,0,0,1-2.1,0c-0.57-.2-1.9.37-2.3,0.37a4.61,4.61,0,0,0,3.8,2.1,4.23,4.23,0,0,1,3.23,1.33,6.34,6.34,0,0,0,2.47,1.33c2.1,0-.2-2.3-1-2.66a9.94,9.94,0,0,0-2.86-.77,4.22,4.22,0,0,1-1.9-.77,4.42,4.42,0,0,1,1.7-.37h0.77c0.2,0,.2-0.57,0-0.2H90Z" style="fill: #fc0"/>
      <path d="M92.83,78.72H95.1l0.57,0.2,0.57,0.37,0.2,0.37L97,80l0.37,0.2v0.37l-0.2.37-0.2.2-0.2.2-0.2.2H96v-0.2h-0.6v-0.2h-0.2V81H95a4.06,4.06,0,0,1-.57-0.37l-0.37-.37a0.74,0.74,0,0,0-.37-0.37l-0.2-.37h-0.2l-0.2-.2h-0.2a0.75,0.75,0,0,0-.37-0.37s0.57-.37.2-0.2h0.11Z" style="fill: #fc0"/>
      <path d="M82.94,79.48a2.06,2.06,0,0,0-1.13,1.33c0,1.7,2.1,1.13,3.43,1.13,1.13,0,3.63.2,3.63,1.33a17.58,17.58,0,0,1-3.23,0c-0.37,0-2.86-.77-3-0.2,0,0.2-.2,1-0.2,1.13,0,0.77,1.53,1.13,1.9,1.13a9.27,9.27,0,0,0,1-.2c1,0,3,1.33,4.2.57a7.11,7.11,0,0,1,1.13-1.13A1.25,1.25,0,0,0,91,83.45c0-.37-2.3-2.86-3-2.86A7.92,7.92,0,0,1,85.07,80a3.92,3.92,0,0,1-1-.37s-1.33-.77-1.13-0.2Z" style="fill: #fc0"/>
      <path d="M85.61,86.14c-1,0-1.9.37-2.86,0.37S82,88.81,82,89.38c0,1.13,2.47,1.33,3.23,1.33,0,0.77-4,.2-4.76.57-1.9,1-2.86,4.2-6.29,4.2-1,0-2.47-1-3.23-.2-0.2.2-.77,1.33-1,1.53,0,0-.57,1.13,0,1.13-0.37.77,1.9,2.3,1.9,0.57,0.37,1.53.2,1.33,2.1,2.3,1.13,0.57,5.13-1,6.09-1.33a16.62,16.62,0,0,0,4.56-2.86c2.1-2.1,4.76-.57,4.76-4.37,0-1.7-3.8-3-5.7-3,0-1.9,5.13,1.33,5.13-.37a2.71,2.71,0,0,0-1.13-1.9,4.69,4.69,0,0,0-2.1-.77Z" style="fill: #fc0"/>
      <path d="M110.72,59.67c-3,0-1.33,2.86-.77,4s0.2,2.66.2,4c0,1.9-1.7,5.7-2.66,7.63S105,78.92,105,81.38c0,1.53-.57,3,0.57,4.2,1.9,1.9,2.3-4.2,2.66-5,0.57-1.33,2.86-5.9,2.86-7.23,0.77,1.53-1.53,5.7-2.3,7.23-0.57,1.33-.37,3.8-1.13,5.33-0.37.77,0.57,2.3,1.13,1.33,1.9-2.86,1.9-10.29,6.09-6.09,0.2,0.2,6.29,4.37,6.29,2.47,0-.57-3.43-4.37-4-4.56-1.13-.57-5-6.66-5-8.19,0-1.7-.77-4.76-0.77-6.46v-3a2.12,2.12,0,0,0-.77-1.7v0Z" style="fill: #fc0"/>
      <path d="M111.29,61.6l1.9-.37c-0.77-.57-1-0.37-1,0.57a33.7,33.7,0,0,0,1.33,10.09c0.77,2.47,3.23,5.13,4.56,6.46,0.57,0.57,3,5.7,3,1.9,0-1.33-2.3-3-2.66-3.8s-1.7-1.53-1.7-2.66c0,0-1.33-2.47-1.33-2.66-1-1.9-1.13-6.66-1.13-8.76,0,0,1,5.33,1,5.53,0.57,1.33.37,3.43,1.33,4.37,0.37,0.37,1,2.3,1.7,2.66a7.34,7.34,0,0,1,1.7,1.9c0.57,0.57,1.33.2,0.77-1C119.45,73,116,68.23,116,64.63V63.3c0-1.9-1-1.33-1.9-2.3-0.2-.2-0.57-1.7-1.33-1a11.13,11.13,0,0,0-1.53,1.53Z" style="fill: #fc0"/>
      <path d="M119.48,63.3a4.93,4.93,0,0,1-1-.37h-0.77c-0.2,0,0,.37-0.37.37v0.77l-0.2.2v1.16c0.2,0,.2.2,0.2,0.37l0.2,0.2v0.2l0.2,0.2c0,0.2.2,0.57,0.2,0.77h0.2v0.6l0.2,0.2v0.37a1.42,1.42,0,0,0,.2.77,1.38,1.38,0,0,1,.37.57,0.67,0.67,0,0,0,.2.57l0.2,0.37,0.2,0.2V71l0.2,0.2c0,0.2.2,0.57,0.2,0.77,0.2,0,.2.37,0.2,0.57,0.2,0,.2.2,0.2,0.37,0.2,0,.2.2,0.2,0.37a0.4,0.4,0,0,0,.37-0.37l0.37-.37V70.58h0.2V69.05a1.75,1.75,0,0,0-.2-0.57l-0.37-.57-0.2-.2v-0.2l-0.2-.2L120.13,67a0.74,0.74,0,0,0-.37-0.37,4.06,4.06,0,0,1-.2-0.77V65.25l-0.2-.2V63.69l0.2-.2c0.37,0,0,.2,0-0.2h-0.09Z" style="fill: #fc0"/>
      <path d="M108.82,89a52.54,52.54,0,0,1,3.23-5.9c1.53-1.53,3.43-.77,4.76.57,0.77,0.77,2.66,2.3,3.43,3,1.7,1.7-1.7,2.3-2.66,2.3-0.77,0-3.63,1.13-4,1.9-1.7,3.63,3.23-.77,5.33-0.77,2.3,0,4.2,4.2,1.7,4.2-1.13,0-2.3-1.13-3.43,0-0.37.37-2.1,1-.37,1a12.45,12.45,0,0,1,5.53,1,5,5,0,0,1,1.33,1.53c0,0.2-4,.37-4.56.57a0.68,0.68,0,0,0,.37,1.13c2.1,0,5.13-.77,5.13,1.7s-0.77,4.56-.77,6.86c0,2.86.77,6.09-1.7,7.23a19.25,19.25,0,0,1-7.63,1.33c0-.37,1-1.33,1-1.7-1.13,0-2.1,1.9-4.2,1.9a4.63,4.63,0,0,1,2.1-1.7c-1.33-.57-2.1.57-2.86,1-1.33.57-.37-1.7,0.2-1.9,4.2-2.1,8.19-1.7,8.19-8.19,0-3.63-2.3-6.46-4.56-8.76-1.53-1.53-4-4.56-2.86-6.86,1.33-2.86,2.86-1.9,5.13-3,3.43-1.7-2.86-1.53-4-.37a13.52,13.52,0,0,0-2.3,3c-1.13,2.47-1.33-2.86-1.53-1Z" style="fill: #fc0"/>
      <path d="M121,64.06c0,0.37-.2,1-0.2,1.33v0.2L121,66v0.77l0.37,0.37h0.94l0.37-.37a0.67,0.67,0,0,1,.57-0.2l0.2-.2V65.4h-0.2V65a4.06,4.06,0,0,1-.2-0.77l-0.2-.2h-0.2v-0.2a0.75,0.75,0,0,1-.37-0.37h-0.4c-0.2,0-.57.57-0.77,0.57H121Z" style="fill: #fc0"/>
      <path d="M128,54.34h-1.7a0.65,0.65,0,0,1-.37.37v1c0,0.2-.2.37-0.2,0.57V58H126l0.2,0.2h1.33v0.2h0.4a4.06,4.06,0,0,0,.77.2l0.2-.2c0-.37.2-1,0.2-1.33v-1l-0.2-.37V55.33l-0.2-.2v-0.2c0-.2-0.37-0.57-0.37-0.77-0.37,0,0-.2-0.2.2Z" style="fill: #fc0"/>
      <path d="M123.48,47.88c-0.2.2-.77,0.57-1,0.77l-0.37.2v0.37l-0.37.2v0.37L122,50v0.6h0.2v0.2h0.2l0.2,0.2v0.2h0.2v0.2l0.37,0.57,0.37,0.2,0.57-.2,0.37-.2,0.37-.2,0.37-.2,0.2-.2h0.77v-0.2l-0.2-.37-0.2-.2a5.16,5.16,0,0,1-.77-1,1.08,1.08,0,0,0-.37-0.57L124,48.47l-0.2-.2h-0.2l-0.2-.2h-0.2a1.38,1.38,0,0,0-.57-0.37,1.84,1.84,0,0,0,.77.2Z" style="fill: #fc0"/>
      <path d="M125.21,61.2l-0.77.77v0.2a2.54,2.54,0,0,1-.77.57,0.4,0.4,0,0,0-.37.37,1.08,1.08,0,0,0,.37.57L124,64v0.4l0.2,0.2c0,0.2.2,0.57,0.2,0.77h0.37l0.2-.2h0.2a1.38,1.38,0,0,1,.57-0.37,2.54,2.54,0,0,0,.57-0.77l0.37-.2a6.41,6.41,0,0,0,.37-0.57l0.2-.2V61.94l-0.37-.2-0.37-.2H126v-0.2a4.06,4.06,0,0,0-.77-0.2V61.2Z" style="fill: #fc0"/>
      <path d="M116.82,42.75a5.74,5.74,0,0,0-1.13,1v0.2l-0.37.37a0.67,0.67,0,0,0-.2.57c0.37,0,.2.37,0.37,0.37l0.37,0.2,0.2,0.37h0.2l0.2,0.2a1,1,0,0,1,.77.37,5.78,5.78,0,0,1,1,.37h0.57c0.2,0,.37.2,0.57,0.2a1.75,1.75,0,0,0,.57-0.2l0.2-.2h0.2l0.2-.2c0-.2.2-0.57,0.2-0.77l-0.2-.2-0.37-.2a2.54,2.54,0,0,1-.57-0.77h-0.37L118.8,44l-0.2-.2-0.2-.2h-0.2c-0.2,0-.57-0.37-0.77-0.37v-0.2a2.39,2.39,0,0,0-.57-0.37Z" style="fill: #fc0"/>
      <path d="M110.72,39.88l-0.77.2a2.54,2.54,0,0,0-.57.77h-0.2a1.08,1.08,0,0,1-.37.57v0.4a2.78,2.78,0,0,0,.77.77v0.37h0.2a1.08,1.08,0,0,1,.57.37h0.57l0.37,0.2,0.37,0.2H112c0.2,0,.37.2,0.57,0.2,0-.2.2-0.37,0.2-0.57L113,43v-0.6c0-.2-0.2-0.57-0.2-0.77a0.6,0.6,0,0,1-.37-0.57,0.66,0.66,0,0,1-.37-0.37l-0.37-.37h-0.2l-0.2-.2h-0.2a0.85,0.85,0,1,0-.37-0.2v0Z" style="fill: #fc0"/>
      <path d="M104.06,37.22H102.9c-0.2,0-.57.2-0.77,0.2l-0.2.2-0.2.2V38c0,0.2-.37.57-0.37,0.77a1.38,1.38,0,0,0,.37.57l0.2,0.2h0.2l0.2,0.2a1.42,1.42,0,0,0,1,.37c0,0.37.2,0,.2,0.37h0.37l0.2,0.2h1.36c0-.2.37-0.57,0.37-0.77a0.44,0.44,0,0,0,.37-0.57l-0.2-.57-0.37-.37L105.22,38l-0.2-.2h-0.2a2.54,2.54,0,0,1-.77-0.57V37.22Z" style="fill: #fc0"/>
      <path d="M98.56,34.75l-1,.2-0.37.2H97a1.38,1.38,0,0,0-.37.57v0.57l0.57,0.57L97.6,37l0.2,0.2,0.2,0.2v0.2a2.39,2.39,0,0,0,.57.37v-0.2l0.2-.2,0.2-.37a7,7,0,0,0,.77-0.57,0.74,0.74,0,0,0,.37-0.37c0-.2.2-0.37-0.2-0.57l-0.37-.2-0.2-.2-0.2-.2h-0.2c-0.2,0-.57-0.57-0.37-0.37v0Z" style="fill: #fc0"/>
      <path d="M96.46,30.19a7.9,7.9,0,0,1-1-.2H95.1a7.9,7.9,0,0,1-1,.2c0,0.2-.2.57-0.2,0.77v2.1a4.06,4.06,0,0,0-.2.77h0.37c0.2,0,.37-0.37.57-0.37H95l0.2-.2c0.2,0,.57-0.2.77-0.2,0,0.2.2,0.2,0.37,0.2,0-.2.2-0.37,0.2-0.57V32.12a4.06,4.06,0,0,1,.2-0.77L97,31V30.61a0.38,0.38,0,0,0-.57-0.37Z" style="fill: #fc0"/>
      <path d="M98.93,27l-0.77-.77L97.6,26H96.26c0,0.37-.2.2-0.37,0.2l-0.37.2-0.2.2-0.2.2V27c0,0.37-.37.77-0.37,1.13l0.2,0.2h0.37l0.2,0.2h1v0.2a1.7,1.7,0,0,0,1,.2l0.2-.37L98,28.18h0.2l0.37-.37a0.67,0.67,0,0,1,.57-0.2c0-.2.2-0.37-0.2-0.57Z" style="fill: #fc0"/>
      <path d="M104.46,24.46a7.9,7.9,0,0,1-1-.2h-1.56c0,0.2-.37.2-0.57,0.2,0,0.37-.2,0-0.2.37-0.2,0-.37.2-0.57,0.2l-0.2.2c0,0.2.2,0.57,0.2,0.77,0.2,0,.37.2,0.57,0.2s0.57-.2.77-0.2l0.37-.2h0.2l0.2-.2c0.2,0,.57-0.2.77-0.2V25.2h0.4c0.2,0,.57-0.37.77-0.37,0-.37.2,0-0.2-0.37h0Z" style="fill: #fc0"/>
    </g>
    <path d="M24,110.18a2.08,2.08,0,0,0,.17-0.74,0.25,0.25,0,0,1-.17-0.09v0.82Z" style="fill: #00b1eb"/>
    <path d="M24.09,115.17l1-.43a5.33,5.33,0,0,1-1.08-.43v0.23l0,0.57v0.06h0Z" style="fill: #00b1eb"/>
  </g>
</svg>
