<svg id="city_ysah" data-name="ysah" xmlns="http://www.w3.org/2000/svg" width="52.5mm" height="52.5mm" viewBox="0 0 148.82 148.82">
  <title>ysah</title>
  <g id="ysah">
    <path d="M61,60.92l0.82-3c-4.56-3.46-.6-10.32-1-14.74a4.47,4.47,0,0,0,2-.51c2.3-1.11,4.31-3.83,6.72-5.75L71.74,38l-1.56.31-1.64,2.58c2,5.13,1.79,8.16,1.28,10.86,0.48,4.39,1.11,9.27-.26,9.33l-4.17,3.4c-0.26-1.11-.14-2.44-1.81-3.4A6,6,0,0,1,61,60.89Zm34.44-22c0.17,0.79.4,1.7,0.6,2.69l1.53,1.33,1-.28c0.91,0.14,3.6-1.42,5.47-2.61a9.8,9.8,0,0,0-2.47-.71c-1.25.51-.65,1.16-0.28,1.81a11.33,11.33,0,0,1-5.84-2.24h0Zm-40.85-1c-1,.88-4.56,3.06-6.72,2.95,0.51-.6,1-1.47-0.17-1.84a10.44,10.44,0,0,0-2.55.79c2,1.16,4.56,2.72,5.53,2.58l1,0.2,2.41-1.5a29.62,29.62,0,0,1,.45-3.2v0ZM52.13,69.76a4.28,4.28,0,0,1-.4-1c-0.6-2.15-3-3.6-3.29-4.05,0.14-3-.6-4.31-1.28-7.26a1.89,1.89,0,0,0,1.42.4c-1.42-2.47-2.15-5.27-4.45-7.71l-2.58-2c-0.6-.45-0.43-2.41-0.14-3.37a8.31,8.31,0,0,1,6.26,1.56,1.1,1.1,0,0,1-.88.51,6.19,6.19,0,0,0,4.54.45c0.57,3.29,1.73,8.82,1.22,12.13-1.42,3.4,2.15,7.6,5.3,5.75l-0.45,2.3L60.26,70c3,1.67,5.9.82,7.17,4.05,2.15-2.47,3-4.05,2-6.35a5,5,0,0,1,3.6.6l6.86-4.42,0.31-10.46-1.22-1.11-1.39-5.84,1.56-.79L78.6,41l0.28-1.81c-3.15-1.87-1.33-3.71,1.28-2.15s2.83,4.88,6.86,5l-1.11.6c3,5,4.11,9,1.84,16.44l0.82,1.36c-2.75,2-5.9,6.21-7.91,6.21l-3.51.88L76,71.66l-2-2v2.55c-0.71-1.33-1-1.19-2.27-1.56,2.27,5.61-3.86,11.68,1.67,14.66H73.7v4.17c-7.31-1-11.14-4-15.25-8.42,2-2.55,6.24-2.78,5.16-5.39-0.6-1.56-5.9-5.53-11.51-5.9Zm-9.78.06C40.56,70,38.69,70.1,37,70.27a6.43,6.43,0,0,0-.2-1.22c-0.14-.14-1-2.61-3.06-3.2,0.51-.91.91-3.51,1-6.07A10.33,10.33,0,0,0,37.5,57.4c1.22,0.6,1.81,3,2.55,3.94H38.72c1.33,1.56,1.64,5.39,2.15,7.26a1.86,1.86,0,0,0,1.5,1.22h0Zm55.08-.06c0-.11.14-0.4,0.17-0.71,0.48-2.15,2.89-3.6,3.06-3.94,0-3.15.65-4.37,1.53-7.34a3,3,0,0,1-1.56.4c1.56-2.55,2.13-5.3,4.42-7.71l2.61-2c0.65-.45.4-2.44,0.14-3.4a8.54,8.54,0,0,0-6.21,1.56,0.75,0.75,0,0,0,.82.45,7.68,7.68,0,0,1-4.17.79c-0.17,1.42-.77,1.7-1.36,2.86-0.82,4.05-.14,6.8-0.51,10.77l-1.64,1c-0.74,1.7-1.11,4-2.3,5.64l-1.22-.2a4.28,4.28,0,0,1-1,2l-1.33-.4c0,3.06-8.08,5.07-9.95,5.07,1.28,3.83.74,9-.74,10l-1.28.79v3.83C83.08,88,86.6,85.07,90.43,81c-2.1-2.55-6.24-2.72-5.16-5.39,0.6-1.56,5.9-5.5,11.37-5.9a3.69,3.69,0,0,1,.79,0v0Zm9.95,0.06c1.79,0.14,3.29.28,5,.31a8.2,8.2,0,0,1,.11-0.82c0.14-.14,1-2.69,3.15-3.29-0.57-.82-1-3.46-1.08-6-1.19-1-1.79-1-2.75-2.32-1.19.51-1.84,3.06-2.55,3.91h1.36c-1.36,1.56-1.7,5.44-2.24,7.17a1.56,1.56,0,0,1-1,1ZM73.87,110.66l-0.88-1-4.71.11-1.67,2-0.2-2h-3.6l-0.17,12.33-0.6.88v5.27l4.42-.11v-2.55l1.25,1.22,0.11,1.33h4.54l0.71-1.33h0.79v4.17l3.06,0.14-0.06-8c1,0.51,1.73,3.94,1.56,5l4.28-.28a12.59,12.59,0,0,1,2.55-3.66c-0.17-1.67.6-4.82,0.6-6.38h-1.5L85,116.53a17.25,17.25,0,0,1,.74-4.17l-0.65-2.72-5.47.11c-0.74,1.7-1.7,4.08-2.83,4.62L76.73,99.13c13.58-.77,24.15-15.11,24.35-19.64,0.26-1.42-.88-1.56-2.44-2.86,6.86-.4,21,8.16,31.46,4.31l-4.56-5.64,3-5.53a16.15,16.15,0,0,1-5.92.91,2.05,2.05,0,0,0,.65-1.73,2.78,2.78,0,0,0,1.5.26c-1.11-3.32-4.62-16.55-1.33-19.3l-0.77-3.51-1,.26c-0.51,0-.74-0.91-0.51-1.87l2.15-4.88a8.76,8.76,0,0,0,.4-6.41,1,1,0,0,1,.85.6c0.14-1.56,0-2.61-2.27-5,0.57,0.45.4,0,1.56,0.31-0.51-1.56-1.56-3.6-2.89-4.17a2.23,2.23,0,0,0-.77-3.29,2.36,2.36,0,0,0-2.61.74,4.68,4.68,0,0,0-3.29,0c-0.74.28-.91,0.51-1.79,0.85-1-.31-2.27-0.57-3.23-0.85a1.73,1.73,0,0,1-.2-0.82,1,1,0,0,0-.82.11c-0.28.14,0.14,2.83,0,3a0.94,0.94,0,0,0,.6,0l0.11,0.11a4,4,0,0,0,2.15,1.79,5.56,5.56,0,0,1-2.72-.51v0.45c0.71,0.45,1.73,3.34,3.17,3.6-1.08.28-1.16,1.42-2,2.3a3.14,3.14,0,0,0,1.84,0,1.55,1.55,0,0,1-1.25,1.16c-1.28-.06-4.56-0.57-5.75-1.42-2.27,1.56-7.43,1.11-8.84.51l-0.65-.71,0.2-.74-0.43.74-0.11.45L93.66,32v1l-0.85-.65a4.22,4.22,0,0,0-.51,3.49L84.39,31c-2,1.56-3.2-1-4.62-1.87-2.78-.28-4.56,1.16-5.84,4.17-4.45-1.79-2.44-2.89-1-4.59l-7.14,1.84c-0.62,4.42-3.69,3.6-3.91,1.7l-4.76,3a6.31,6.31,0,0,0-.62-3.2l-0.88.65v-1l-0.82.71-0.14-.6-0.31-.6,0.14,0.6L54,32.74c-1.56.6-6.6,1.08-8.87-.45a19.4,19.4,0,0,1-5.9,1.36,1.41,1.41,0,0,1-1.16-1.19,2.42,2.42,0,0,0,1.73,0c-0.82-.82-1-2-2-2.27,1.42-.2,2.55-3.15,3.29-3.6V26.11a5.43,5.43,0,0,1-2.83.6,3.49,3.49,0,0,0,2.15-1.81l0.26-.06a1.41,1.41,0,0,0,.51,0c-0.11-.26.2-2.92,0-3a0.7,0.7,0,0,0-.85-0.14,2.24,2.24,0,0,0-.26.82c-1,.2-2.3.48-3.29,0.79A15.79,15.79,0,0,0,35,22.51a3.42,3.42,0,0,0-3.15,0,2.36,2.36,0,0,0-2.78-.71,2.06,2.06,0,0,0-.6,3.2c-1.42.57-2.47,2.64-3,4.22,1.25-.4,1,0.06,1.56-0.4-2.3,2.41-2.41,3.46-2.3,5a1.92,1.92,0,0,1,.88-0.57,7.9,7.9,0,0,0,.4,6.24l2.1,5c0.4,1,0,1.87-.45,1.87l-1-.34-0.74,3.6c3.2,2.75-.26,16-1.36,19.33a4,4,0,0,0,1.5-.2c0,1.19.31,1.64,0.91,2a18.05,18.05,0,0,1-6.58-.91l3,5.5L18.77,81c10.54,3.83,24.66-4.71,31.46-4.31-1.56,1.28-2.61,1.36-2.44,2.86,0.28,4.62,11.57,20.18,26.14,19.73v11.51ZM80.45,45l3.32-1.16,1.11,0.45,0.6,0.85,0.82,1c0.14,2.41.6,4.85-.26,5l-1.87-1.87L81,46.23,80.42,45Zm0.71,9.41,3.2,1,1.25-.65,1.22,0.65a7.52,7.52,0,0,1-.91,4.9l-0.82.77-1.19-1.87Zm-17.8-.14,3.29-1.08,1.67,2.92-0.45,4.17-5-4.71-1.73-2,0.51-.45,1.73,1.08v0ZM62.16,44.19c1.56-.31,2.95-1.79,5-1.79,0.4,1.33.4,2.75,1.08,3.8L68.43,49l-2.55-1.25c-1.19-.91-2.55-1.28-3.71-2V44.19Zm8.05-26.48,2.55,0.91,1.42,1.56,2.3,1,2-.6L77.64,26.9H71Z"/>
    <polygon points="71.63 20.04 73.22 20.35 74.13 21.49 75.83 22.68 77.39 21.86 76.51 25.51 72.54 25.45 71.63 20.04" style="fill: #fc0"/>
    <path d="M41.44,50.4c0.31,2.61-1,4.56-2.55,6.52,2,0.74,2.41,4.25,3.6,5.67l-1.39-.17c1,1.08,1.25,5.27,2.1,5.67a7.07,7.07,0,0,0,4.62.82l1,0.77L49.29,69l0.85,0.51-0.06-.6L50.91,69c-0.51-.88-1.62-2.95-3.51-3.34a13,13,0,0,0-1.11-7.4,2.91,2.91,0,0,1-1.16,1.93c0.17-.6.62-4.17-0.2-5.53a1.82,1.82,0,0,1,1.5,1.16c-1.11-3-.85-3.51-4.17-6.38a10.86,10.86,0,0,1,.51,1.81,1.73,1.73,0,0,1-1.28-.91Zm0.31-8.82a1.88,1.88,0,0,1,.06,1.36c2.41,0.14,4.62,1.11,7.46,3.06l-0.34-.71c1.25,0.65,2,1,2.83.65L53,42.8l-1.19.82L49.27,43c-0.14-.65-4.39-2.61-5.58-2.92a11.43,11.43,0,0,0,.94,1.19,6.55,6.55,0,0,1-2.89.26ZM41,41.41c-0.65-.14-1.19-0.34-1.56-0.43a6.14,6.14,0,0,0,.6,2.38c-2.3-.14-2.61-3.2-9.27-4.54A11.68,11.68,0,0,1,38,40.37a2.72,2.72,0,0,1-.17-2.3,11.22,11.22,0,0,0,4,2c-0.31-.26-1-0.71-0.91-1,1.36,0.65,2.32.28,3.6,0,1.64-.17,5-2,5.33-1.42a2.24,2.24,0,0,1-.11,1.7c1.11-.2,7-2.75,6.66-6.12l-0.65.62L55.47,33l-0.31-.31-0.31.62c-2,.6-6.72,2-9.27.88A15.47,15.47,0,0,1,39,35a3.23,3.23,0,0,1-1.11-2.27c0-.51-0.65,1.08-2.3,1.53A7,7,0,0,0,35.09,32a7.64,7.64,0,0,1-1.56,1.11,12.85,12.85,0,0,0-1.67-3.8,10.63,10.63,0,0,1,2.78,2,3.65,3.65,0,0,1,.82-1c0.51,0.91,1,1.11,1.11,2,0.34-.51.51-0.45,1-1.11l1,0.6a11.08,11.08,0,0,0-2-1.73c2-.65,1.56-1.79,3-2.55,0.2-.74-2.13.26-2.18-0.51a15,15,0,0,0,3.15-2.24l0.11-.14a7.25,7.25,0,0,0,0-2.1l-0.2.45c0,0.28,0-.31-0.06-0.11-1.81.51-2.55,0.91-3.46,1.11a8.5,8.5,0,0,0-2.55-.74A11.14,11.14,0,0,0,32,23.5a0.74,0.74,0,0,0-.51.74c0.14,0,1.33-.4,1.25.14-0.14.31-1.81,1.22-2.24,0.11a1.33,1.33,0,0,1,.65-1.56,0.85,0.85,0,0,0-1.36-.11,1.5,1.5,0,0,0,.06,2.27,4.47,4.47,0,0,0-2.07,2.47A10.31,10.31,0,0,1,30,27c-0.6.48-2.3,2.24-2.55,3.71-0.06.14,1.42-.71,2.55-0.17a6.23,6.23,0,0,0-1.79,2.1C28.74,32,30,32.26,31,31.89c-0.71,1-2.78,1.19-2.92,4.31A2.06,2.06,0,0,1,26.84,34c-1.67,3.6,4.62,10.49,4.31,11.28,0.31,0.71,0,1.73-1.36,2.41a2.87,2.87,0,0,1-1.93-.26v1.64c4,2.07-.26,14.46-1,17.35,0.88-.06,1.25-0.28,1.93-1.39l0.17,1.5a2.07,2.07,0,0,0,1.39-.71,5.74,5.74,0,0,1-1.53,2.75c-1.42-1.25-.91-0.88-1.28-0.28,0.06,1,.6.74,1.11,1.25l3.77-.2A1.74,1.74,0,0,1,33.85,71l0.26-1,1,0.65-0.26-1,1.36,0.4c-0.65-1.11-.65-2.3-3-2.86a6.49,6.49,0,0,0-.82-1,24.81,24.81,0,0,0,1.28-7.29c1,0,2.47-.91,3.51-3.06a3.55,3.55,0,0,1,.45.62A9,9,0,0,0,39.29,52a1.54,1.54,0,0,1,.77,1.36,3.39,3.39,0,0,0,.28-1.73c0-2-.82-2.1-0.6-3.94a0.48,0.48,0,0,0,.45.45C39.29,44.84,41.3,43.46,41,41.41ZM32.34,27.89l0.6-1.11a4.88,4.88,0,0,0-.62.2C32.17,27,31.83,27.89,32.34,27.89ZM35,28.49a2.39,2.39,0,0,1,.28-1.19,0.62,0.62,0,0,0-.65.31c0-.4-0.31-0.45-0.51-0.17l-0.06.4L34,27.33a2.29,2.29,0,0,0-.45.45l0.2-.65a1.28,1.28,0,0,0-.82.51c-0.34.2,0,.79,0.4,0.6a0.5,0.5,0,0,0,.51.4L34,28l0.06,0.77,0.45-.91-0.17.77a0.84,0.84,0,0,0,.71-0.11Zm0.74-3.71,0.17-.91c-0.45.26-.82-0.14-2,0.26C34.72,24.26,34.87,24.77,35.77,24.77Z" style="fill: #fff"/>
    <path d="M67,64.94l5.39-2.61a29.39,29.39,0,0,1,.43-10.77l-1.42.26A53.65,53.65,0,0,0,72,40.39l1.79-2.61L70.1,35.38c-1,.74-2,1.64-3.29,1.42-2.13,2.3-4.05,4.39-6,3.49l-2.61,4a90.8,90.8,0,0,1-.51,14.88l6.41,5.61,0.6,1L67,65ZM67.61,66l-0.28,1.7-2.18.65-0.6-.65c-2-1-2.38-1.73-4.56-1.87l-0.51-2.69-1.19-.45c-3.51,1.81-6.07-4.56-3.71-5.3,0.45-2.55-.51-6.58-0.71-9.86,0-.71-0.79-0.45-0.88-1,3.94-3.37,4.25-7.71,5.9-9.18C59.33,36.23,61,34,62.16,34.75c1.36,1.11,3.69,1.64,4.42-2.32L70.3,31c-1.33,1.56,0,2.92,4,4.56,1.25-2.69,2.47-5.22,5-5,2.24,1.28,3.29,4.42,5.3,1.73l1,3.29,7,3.06c1.25,3,.28,7.26,2.95,9.86-1.33,5.53-2.24,8.16-2,12.44l-4.11,6.41L88,67l-4.73,5.19-4.45,1.33-1.56,2.1c1,2,1.11,1.56,1.39,3.77,0.17,2.58-.74,2.83-1.7,4.17l-2.15.14-1.36-1.36c-1.25-1.84,1.56-4.25.11-9.64,1.11,0.31.79,1,1.53,2.13a5.11,5.11,0,0,0,0-2.92l1.73,2,1.87-5.47,1.19,1.19c2.83-1.64,4.56-2.1,7.26-5v-1.5l3-2L91,48c-0.94-1-2.15-4.76-3.34-5.53l0.74-.14,0.82-2.55c-4.11,0-6.35-1.19-8.5-3.6-4.28-3.86-6.89,2.18-3.23,3.46v4.9l-2.61.91L78.21,54l-2,7.57,1,2-9.58,2.47Z" style="fill: #fc0"/>
    <path d="M74.24,85.29h1V128h-1v-5.22L73,125.38H68.77a10.61,10.61,0,0,0-1.93-2.55v2.41h-3.6l0.14-3.32,0.74-10.15,2.32,0,0.2,4.88,1.16,1.87h3.6l0.43-3.83-1-.06-0.34,1.79-3.37.26v-4.88h5.75c0.51,1,.51,2.18,1.36,2.64V85.32Zm2.61,30.19a7.45,7.45,0,0,0,3.6-4h3.37c-0.51,2.1-.11,2.41-0.11,5.22H82v-1.56l-0.88.17L81,117.78l0.51,0.71h3.06a13.78,13.78,0,0,0-.34,5.81,7.17,7.17,0,0,0-2.55,1.19H79.23c0.06-1.7-1.22-4.05-2.41-4.25v-5.75h0Z" style="fill: #fc0"/>
    <path d="M107.91,42a3.31,3.31,0,0,0-.11,1.42c-2.38.14-4.62,1.11-7.4,3l0.26-.65c-1.22.65-1.87,1-2.78,0.6l-1.25-3.15,1.19,0.91,2.61-.6c0.14-.71,4.37-2.69,5.47-3a3.48,3.48,0,0,1-.91,1.25,15.12,15.12,0,0,0,2.92.17v0Zm0.2,9.1a2.47,2.47,0,0,1-1.19.71,9.51,9.51,0,0,1,.45-1.87c-3.23,2.86-3,3.37-4.11,6.38,0.65-1,.65-0.77,1.5-1.16-0.82,1.36-.4,5-0.17,5.61a3.5,3.5,0,0,1-1.19-2,13,13,0,0,0-1.11,7.34c-1.87.4-3,2.47-3.51,3.4l0.88-.14L99.61,70l0.82-.45,0.4,0.62,1-.77a7.38,7.38,0,0,0,4.62-.77c0.88-.43,1.19-4.62,2.1-5.67l-1.28.17c1.19-1.5,1.64-5,3.51-5.67-1.5-2-2.92-3.77-2.61-6.29h0Zm1.36-5.67c-0.31-1.25-1-2.15-.91-3.54a2,2,0,0,0,1.64-.45,4.88,4.88,0,0,1-.51,2.38c2.3-.06,2.61-3.2,9.27-4.51a12.45,12.45,0,0,0-7.4,1.5,2.74,2.74,0,0,0,.28-2.3,10.84,10.84,0,0,1-4.05,2c0.4-.26,1.08-0.62.91-1-1.33.6-2.3,0.2-3.51,0-1.7-.26-5-2-5.36-1.42a2,2,0,0,0,.14,1.7c-1.11-.2-7-2.83-6.66-6.21l0.6,0.71,0.31-.77,0.31-.4,0.34,0.62c2,0.6,6.72,2.1,9.27.88a15.37,15.37,0,0,0,6.58.82,3.49,3.49,0,0,0,1-2.32c0-.45.65,1.08,2.32,1.62a5.65,5.65,0,0,1,.45-2.18s1.64,1.36,1.64,1a10.2,10.2,0,0,1,1.7-3.71,10.58,10.58,0,0,0-2.86,2,2.2,2.2,0,0,0-.79-1c-0.51.91-1,1.11-1.11,2-0.4-.51-0.6-0.45-1-1l-1,.51a16.64,16.64,0,0,1,2.1-1.73c-2-.6-1.56-1.79-3.06-2.47-0.14-.74,2.24.17,2.3-0.6a10.68,10.68,0,0,1-3.15-2.24l-0.14-.14c-0.2-.17.06-1.16,0.06-2.1l0.14,0.48c0.06,0.26,0-.28.11-0.14,1.79,0.51,2.58,1,3.49,1.19a6.61,6.61,0,0,1,2.55-.79,7.7,7.7,0,0,1,2.27.4c0.43,0.14.74,0.51,0.51,0.65-0.06,0-1.22-.4-1.22.14,0.17,0.31,1.81,1.22,2.27.14a1.38,1.38,0,0,0-.62-1.56,0.94,0.94,0,0,1,1.36-.14,1.52,1.52,0,0,1-.06,2.27,4.59,4.59,0,0,1,2,2.55c-0.74-.11-1.81-0.71-2.27-0.51,0.57,0.48,2.27,2.24,2.55,3.71,0,0.14-1.47-.77-2.55-0.17a5.7,5.7,0,0,1,1.73,2c-0.45-.6-1.7-0.43-2.69-0.79,0.74,1.11,2.75,1.19,2.95,4.39a2,2,0,0,0,1.08-2.24c1.7,3.66-4.56,10.52-4.28,11.28-0.28.74,0,1.79,1.42,2.41a2.17,2.17,0,0,0,1.81-.26v1.67c-4,2.1.34,14.43,1.11,17.32a2,2,0,0,1-1.87-1.33l-0.2,1.47a2.06,2.06,0,0,1-1.42-.74,5.91,5.91,0,0,0,1.5,2.75c1.5-1.19.91-.79,1.33-0.28,0,1-.6.79-1,1.33l-3.86-.28a1.69,1.69,0,0,0-1.36,1.64l-0.28-1.11-1,.74,0.28-1.11-1.42.4c0.71-1,.71-2.24,3-2.86a5.68,5.68,0,0,1,.91-0.94,24.62,24.62,0,0,1-1.28-7.34c-1,0-2.49-.88-3.63-3.06a4.24,4.24,0,0,0-.4.71,8.76,8.76,0,0,1-1.67-4.28,1.48,1.48,0,0,0-.79,1.28,2.76,2.76,0,0,1-.26-1.73c0-2,.82-2.1.57-3.86a2.1,2.1,0,0,1-.57.6,5.13,5.13,0,0,0,.11-3.37h0Zm7.77-17.18-0.51-1.19c0.34,0.2-.06-0.11.65,0.2,0.14,0.06.45,1-.14,1v0Zm-2.61.51a2.74,2.74,0,0,0-.31-1.11,0.68,0.68,0,0,1,.74.34c0-.43.31-0.51,0.45-0.28l0.11,0.4,0.14-.45a1.18,1.18,0,0,1,.45.4l-0.17-.62a1.81,1.81,0,0,1,.82.6c0.31,0.11,0,.71-0.4.51a0.78,0.78,0,0,1-.6.45l-0.2-.65-0.06.74-0.51-.94,0.28,0.88a1.59,1.59,0,0,1-.74-0.2ZM114,25.14l-0.26-.91c0.51,0.26.82-.14,2,0.26-0.77.14-.91,0.65-1.79,0.65h0Z" style="fill: #fff"/>
    <path d="M52.13,70.55a13,13,0,0,1,9.13,5.07c-2.27.6-2,1-3.66,2.72-3.91-9.84-30.08,4.11-33.65-.11L26,75l-2-2.92a86.84,86.84,0,0,0,8.84-.34L32.6,72.88c0.6-.4,1.64-0.51,1.7-1.42h0.11c0.74,0.4.6,1.25,1.19,1.56a6,6,0,0,1,.14-1.7,15.48,15.48,0,0,0,1.7,1.19,4,4,0,0,1-.34-1.33,83.75,83.75,0,0,1,9.78-.82,4.51,4.51,0,0,1,2,2.24c0.51-.28.51-1,0.65-1.7a6.45,6.45,0,0,0,1.64,1.33V70.44a4.87,4.87,0,0,0,1.42,1.5c-0.14-.4-0.28-0.77-0.51-1.36Zm64.52,1.16a67.61,67.61,0,0,0,8.16.34l-1.87,2.86,2,3.29c-3.6,4.17-29.74-9.72-33.73.14-1.64-1.7-1.33-2.15-3.6-2.75,2.27-3.15,5.61-4.56,9.5-5.07a4.51,4.51,0,0,1-.31,1.42,4.87,4.87,0,0,0,1.56-1.7v2a3.94,3.94,0,0,0,1.7-1.33c0.11,0.82.11,1.42,0.57,1.64,0.43-.6,1.33-2,2.44-2.24a69.59,69.59,0,0,1,8.93.91,2.52,2.52,0,0,1,0,1.47,7,7,0,0,1,1.84-1.25,5,5,0,0,1,.06,2c0.62-.4.51-1.28,1.42-1.5,0,0.79,1.11,1,1.56,1.42l-0.28-1.56ZM94.08,79.91a5,5,0,0,1,4.31-2.55l-0.45-.6A6.78,6.78,0,0,0,93,78.94c-0.85,1.11.14,2,1,.94v0Zm-17.15,17c11.08-1,20-11.06,21-13.38,2-3.06,1.22-4.31.06-4.25-1.64-.34-2.15,2.32-3.94,3.37-1.56.88-2.18,0.4-3-.71-2.27,2-5.84,7-14.2,8.48,0,0.65-.14,6.49.06,6.49h0Zm-3.06,0C62,96.66,52.13,85.95,51,83.48c-2-3.15-1.28-4.39-.14-4.17,1.7-.43,2.24,2.18,4,3.32,1.56,0.88,2.27.34,3-.82,2.41,2.27,6.29,7.71,16,8.82v6.24ZM54.88,80a5.08,5.08,0,0,0-4.31-2.55l0.45-.6a7,7,0,0,1,4.9,2.24C56.75,80.19,55.79,81.1,54.88,80Z" style="fill: #999"/>
  </g>
</svg>
