<svg id="city_krsk" data-name="krsk" xmlns="http://www.w3.org/2000/svg" width="52.5mm" height="52.5mm" viewBox="0 0 148.82 148.82">
  <title>krsk</title>
  <g id="krsk">
    <path d="M44.48,46.6c-0.48-.6-0.94-1.25-1.33-1.7a1.48,1.48,0,0,1,.57-1.64c0.51-.37,1.19-0.17,1-0.45-0.48-.79.17-1.81,1-2.27s1.73-.37,1.7-0.71c-0.14-2.35,1.33-2.47,4.14-.4L53,40.65,53.4,41,68.06,52.61l4.51-2c-1.76-.06-5.16.54-5.22-2.89,0-.79-0.11-2.24.4-2.32,2-.34,4.56.65,5.92,0.23a0.74,0.74,0,0,0,.62-0.85,15.69,15.69,0,0,1-3.66-.54,22.44,22.44,0,0,0-4.56-.06c-1.79.09-3,.45-3.6-0.17-0.34-.37,3-1.42,6.58-1.36a44.34,44.34,0,0,1,5.16.51c0.23,0,0-.45-0.11-0.62-0.51-1.19-6.24-.11-6.49-0.74a6.69,6.69,0,0,1-.48-3.94c0.14-.57-0.06-0.48-0.11-0.62-0.34-.91-0.2-1.79.17-1.87,2.07-.43,4.14-0.65,6-1.7,0.06-1,2.3-1.56,6.72-2,1.39-5.44,6.07-1.76,5.61,0,4.42-.79,7.74,1.11,9.61,5.16a25.61,25.61,0,0,1,2,7.6c0.2,1.73.82,3.63,0.91,5.56,0.17,4.93-.43,10.12-0.23,13.8a1.17,1.17,0,0,0,1.13,1.22,1.35,1.35,0,0,0,.91-0.4,1.89,1.89,0,0,1-1,1.87,2.33,2.33,0,0,1-2.07.26A4.25,4.25,0,0,1,95.3,64.2c-0.37-1.53-.37-3.2-0.54-2.86S94,66,95.13,67.8a4.83,4.83,0,0,0,1.73,1.39,3.2,3.2,0,0,1-3.12.26c-0.85-.34-1.93-2.3-2.35-2.24a0.63,0.63,0,0,0-.14.71c0.28,0.65,1.11,1.53,1,1.64a4.42,4.42,0,0,0-.77,3.09c0.43,3.06,4.08,5.24,7.26,6.07A6.67,6.67,0,0,1,103.46,85a8.37,8.37,0,0,0,2.1-.57,7.5,7.5,0,0,0,3.32-3c1.36-2.32.68-8.22,0.57-8.39s-0.45.54-.94,0.94c-1.08,1-2.78,1.81-2.49,1.19a4.55,4.55,0,0,0,.43-1,5.85,5.85,0,0,0,0-2.32c-0.54-2.41-2.86-5-2.47-6.52s2-1.76,1.7-2.24a15.33,15.33,0,0,1-1.08-9.21c0.94-4.17,3.34-5.27,3.66-6.69,0.26-1.19-2.44-.88-3.34-0.48a6.77,6.77,0,0,0-1,.54c-0.94.6-1.59,1.53-1.53,1a6.12,6.12,0,0,1,3.57-5c2.3-1.13,5.19-.09,6.21.48a1.48,1.48,0,0,0,.6-0.2c13.86-3.17,11.37,12.19,3.32,11.06a6.81,6.81,0,0,1-3.66-2c-0.71-.71-1-1.7-1.64-2.21-0.74.4-1.5,2.41-1.79,3.8a11.8,11.8,0,0,0,.6,6.32,0.72,0.72,0,0,0,.57.54c0.51,0,1.25-.34,3,1,1.25,0.94,1.42,2.41,1.45,3.88a14.05,14.05,0,0,0,.43,3.66,5.05,5.05,0,0,0,.79,1.93,7.72,7.72,0,0,0,.82.85c0.37,0.31.65,0.48,0.54,0.6a3,3,0,0,1-1.19,0,7.58,7.58,0,0,1-1.28-.31c-0.71-.2-1.3-0.82-1.3-0.68a30.47,30.47,0,0,1-.6,10.2c-0.82,3.2-3.71,5.67-6.26,6.72-0.94.37-2.95,0.85-3,.88-0.09.31-.4,6.52,0.34,9.3,0.65,2.44,1.5,5.58,5.33,4.82a4.72,4.72,0,0,1,5.27,3.88c0.09,1.13-.43,2.52-0.4,3.66,0,2.1-.09,4.25-0.09,6,0,2.1-.26,5.64.11,6.58a5.42,5.42,0,0,1,.06,3.54c-0.17.77-2.72,0.26-4.37,0.54-0.43.06-.28,0.85-0.57,1.28a1.89,1.89,0,0,1-1.5.74c-0.2,0-.37.91-0.54,0.91s-0.23-.43-0.6-0.71-1,0-1.42-.17a1.49,1.49,0,0,1-.31-0.4,1.32,1.32,0,0,0-.88-0.48c-0.77.11-1.47-.23-2.07,0.17-0.34.2,0.06,1.45,0.48,1.81a2.71,2.71,0,0,1-2.07-.82c-0.6-.74-0.68-2.21-1.59-2.49-0.48-.14-2,0.23-2.07-0.71a0.79,0.79,0,0,0-.37-0.28c-0.77-.09-1.08.79-1.47,1.84a9.19,9.19,0,0,1,.51-5.5,4,4,0,0,1,1.93-1.45,7.47,7.47,0,0,1,2.69-.37c0.57,0,1.11.4,1.67,0.4,0.37,0,.79-0.43,1.13-0.43a13.22,13.22,0,0,0,2.61-.06c0.51-.11.62-0.71,1-0.94,0.82-.45,1.62-0.68,1.47-1.42-0.31-1.62-.14-4.48-1.53-6.38-0.6-.79-1.7-0.74-2.81-1.08a15.47,15.47,0,0,1-3.2-1.64c-1.67-1-4.05.54-5.53-.77-0.91-.79-1-2.69-1.36-3-6.66-5.39-7.29-8.62-8.16-8.9-0.71-.23-7.31,1.42-8,4.11-0.31,1.22,4.2,4,4.76,4.65s2.1,2.86-.51,4a6.36,6.36,0,0,0-1.76.82c-1.53,1.73-2.49,2.49-3.71,3.74-2.44,2.49-4.56,4.2-4.45,4.56,0.71,2.75-1.11,4.88-2.47,5s-3.4-.43-3.83-1.64c-0.14-.4-0.48.09-0.88,0.26a3.22,3.22,0,0,1-1.64,0c-0.23-.06-0.2.62,0,1.33s0.68,1.39.45,1.33A4.44,4.44,0,0,1,60.94,124c-0.62-.85-0.85-2.21-1.11-2.18A2.37,2.37,0,0,1,57,120.33a4.81,4.81,0,0,0-1.9,1.84c-0.4-1.67.2-6,3-7.29,0.94-.4,2.41-1.08,3.4-0.28a2,2,0,0,0,2.44.23c0.57-.28,2.61.11,3.63-0.37a8.87,8.87,0,0,0,2.83-2.41c1.08-1.16,2.24-2,2.15-2.95-0.11-1.5-3.63-2.47-6.38-5.44s-2.72-4.37-3.91-7.77c-0.26-.77-1.19-0.74-1.62-1.3-1.13-1.62-.88-3.51-0.28-3.94,5.1-3.49,13.1-4.14,24.07-4.62,0-.31.17-1.42-0.74-1.47-7.31-.45-13.49-2.89-15.85-8.9a80.59,80.59,0,0,0-8.87.43,3.3,3.3,0,0,0-1.11,1,3.33,3.33,0,0,0-1.11,1.25c-0.28.82-.48,1.67-0.77,2.32-0.62,1.39-1.47,1.3-2.21,2.41a10.49,10.49,0,0,1-.48,1.13c-0.2.17-.14-0.06-0.82-0.37a7.27,7.27,0,0,0-2-.6c-0.4.09,0.88,1.19,0.57,1.22-1.87.2-2.61-1-3.6-1.73a0.74,0.74,0,0,0-.62-0.09c-1.11-.34-3-1.53-3.15-2.64s1.28-2.44,3.66-4.51L50.31,73C51,73,51.76,71.83,53.23,71c0.94-.57,2.1-0.17,3.12-0.6,1.28-.54,2.58-1.5,3.29-1.79,0.14-.06,4.85-1.33,4.82-1.36s-0.94-3.34-1-3a7.67,7.67,0,0,1-1.79,3.2,5,5,0,0,1-2.3.74c-1.42-.23-2.18-0.62-2.49-1.36,0.91,0.17,1.93.62,2.78-.51,0.48-.65.34-2.24,0.77-3.74a11.83,11.83,0,0,1,1.45-2.83,67.79,67.79,0,0,1-4.73-5.22c-1.25-1.62-2.38-4.28-3.83-5a8.55,8.55,0,0,0-2.89-.54c-0.6-.06-1-0.77-1.62-0.62a4.06,4.06,0,0,0,1.53,1.76c-1.33.06-2.3-.68-3.43-1.5-0.11-.09-0.31,0-0.43-0.09s-0.4-.31-0.54-0.43l-1.36-1.5Zm71.89,0h0.23l0.23,0L117,46.69l0.2,0.06,0.2,0.09,0.17,0.11,0.17,0.11,0.14,0.14,0.14,0.14,0.11,0.17,0.09,0.17,0.09,0.17L118.4,48l0.06,0.2,0,0.2V49l0,0.14,0,0.14,0,0.14-0.06.11-0.09.11-0.09.09-0.11.09-0.11.06-0.11.06-0.14,0-0.14,0H117.1l-0.2,0-0.2-.06-0.2-.09-0.2-.11-0.17-.14L116,49.41l-0.17-.17-0.17-.17-0.14-.17-0.14-.2-0.14-.2-0.11-.2L115,48.1l-0.11-.2-0.09-.17-0.09-.17-0.06-.14,0-.14,0-.14,0.06-.11,0.09-.09,0.09-.06,0.09-.06,0.09,0,0.06,0,0.06,0,0.06,0,0.06,0,0.09,0h1.08Z" style="fill: #fc0"/>
    <path d="M51.53,39.43L57,33.85l-2-2,1.62-1.67,2.07,2,4.54-4.62-3.43-3.06c2.78-2.69,4.93-5.07,7.14-6.15a6.27,6.27,0,0,1,3-.65,14.41,14.41,0,0,1,3.46.54A16.24,16.24,0,0,1,74,21.71a6.3,6.3,0,0,1-.51,3c-1,2.24-3.29,4.48-5.87,7.4l-3.2-3.32L60,33.42l2.15,2.07-1.62,1.67-2.13-2.07-5.3,5.53-1.5-1.22Zm-7.11,7.23,0.06-.06,1.36,1.5-14.4,15,2.21,2L31.95,67,26.08,61.6l1.7-1.87,2,1.81L44.42,46.63v0Z"/>
    <path d="M47.28,75.51c0.57-.48-0.26-0.79-0.85-1-0.34-.11-0.82.31-1.11,0.17a2.17,2.17,0,0,1-.85-1C44,73,43.6,72.34,43.85,72.11c5.9-4.93,2.66-10.37-1.7-10.4a6,6,0,0,0-4.71,2.21c-1.81,2-1.84,6.24-2.07,5.44A8.6,8.6,0,0,1,38.07,60a6.4,6.4,0,0,1,4-1.42,8.45,8.45,0,0,1,4.11.71c2.32,1.13,4.54,3.46,4.79,6.09a9.71,9.71,0,0,1-1.73,6.49c-0.43.26,0.37,1.11,1,1.11l-2.95,2.49h0Z" style="fill: #999"/>
  </g>
</svg>
