<svg id="city_vo" data-name="vo" xmlns="http://www.w3.org/2000/svg" width="52.5mm" height="52.5mm" viewBox="0 0 148.82 148.82">
  <title>vo</title>
  <g id="vo">
    <path d="M97.23,101.62a0.55,0.55,0,0,1,.2,0,1.57,1.57,0,0,1,.94.77,4.07,4.07,0,0,1,.4,1,1.34,1.34,0,0,1,.77.34,4.24,4.24,0,0,1,2.64-1,4.19,4.19,0,0,1,4.25,4.08,4.12,4.12,0,0,1-1.76,3.46,4.16,4.16,0,1,1-5.5,5.7,4,4,0,0,1-2.49.88,4.19,4.19,0,0,1-4.25-4.08,4.13,4.13,0,0,1,1.73-3.46,1.73,1.73,0,0,1-.57-0.62,4.07,4.07,0,0,1-.4-1,0.55,0.55,0,0,1-.2,0,1.57,1.57,0,0,1-.94-0.77,6.65,6.65,0,0,1-.28-0.62,4.53,4.53,0,0,1-3.66,1.93c-2.32,0-3.83-3.63-4.34-5.47l-0.17-.57,0.57-.2a20.44,20.44,0,0,1,3.12-.88,4.37,4.37,0,0,1-.14-0.48,0.55,0.55,0,0,1-.2,0A1.57,1.57,0,0,1,86,99.81a4.07,4.07,0,0,1-.4-1,0.55,0.55,0,0,1-.2,0,1.57,1.57,0,0,1-.94-0.77,4.07,4.07,0,0,1-.4-1,0.55,0.55,0,0,1-.2,0,1.57,1.57,0,0,1-.94-0.77,4.86,4.86,0,0,1-.26-0.54c-0.31.17-.65,0.37-1,0.51l-0.51.26L80.9,96c-0.11-.14-0.2-0.31-0.31-0.45l-0.2-.26-0.14-.17a4.93,4.93,0,0,0-.37-0.43l-0.09-.09-0.4.17,0-.57-0.17-.17L79.43,94V92.89l0-.28c0-.23,0-0.45-0.06-0.68l0-.26-0.06-.26c0-.23-0.09-0.45-0.11-0.68l-0.06-.26L79,90.26a5.71,5.71,0,0,0-.2-0.65l-0.09-.26-0.09-.17L78.58,89l-0.06-.11V88.75a2.75,2.75,0,0,0,0-.48l0-.26,0-.2a1.88,1.88,0,0,0-.17-0.57l-0.09-.2-0.09-.14a1.82,1.82,0,0,0-.28-0.37l-0.14-.11-0.14-.09a2.35,2.35,0,0,0-.6-0.17l-0.43,0-0.26.28a1.31,1.31,0,0,0-.26.43L75.94,87v0.11a3.84,3.84,0,0,0,.06.57l0.09,0.62h0a2,2,0,0,1,0,.4v0.2L76,89.06a0.4,0.4,0,0,0-.06.11l-0.14.23,0,0.11a1.42,1.42,0,0,0-.06.34h0v0.65l0.09,0.74,0,0.2,0,0.23c0,0.26.09,0.51,0.11,0.79l0.06,0.26,0,0.17c0.06,0.26.09,0.51,0.14,0.77l0,0.2,0.06,0.26,0.17,0.68,0.2,0.71-0.74.11c-0.09,0-.14,0-0.23,0l-0.28,0-0.23-.2L74.66,95l-0.2-.14-0.06-.26a0.4,0.4,0,0,0-.06-0.17l-0.06-.23L74.24,94,74,93.26l-0.06-.17-0.09-.26c-0.09-.26-0.2-0.54-0.31-0.79l-0.09-.23-0.09-.2c-0.11-.28-0.23-0.54-0.34-0.79L73,90.68l-0.14-.31c-0.11-.26-0.23-0.54-0.37-0.79l-0.06-.14-0.14-.31c-0.11-.26-0.26-0.51-0.37-0.79l-0.57-1.19,0.17,0a0.1,0.1,0,0,0,0-.06l-0.09-.23-0.11-.2a1.86,1.86,0,0,0-1.53-1,0.55,0.55,0,0,0-.23,0H69.42a2,2,0,0,0-.57.26l0,0L68.77,86a1.68,1.68,0,0,0-.37.51l0,0.09v0.14c0.09,0.37.17,0.74,0.28,1.08v0l0.62,1.87-0.17-.14c0,0.06,0,.09,0,0.14l0.09,0.43,0,0.11a4.53,4.53,0,0,0,.14.6l0.14,0.54-1,.4-0.26-.48c-0.14-.26-0.28-0.51-0.43-0.74l-0.43-.68-0.06,0-0.06-.09a7.63,7.63,0,0,0-.77-0.91l-0.11-.09-0.06-.11c-0.31-.77-1-2.15-2-2.15a0.62,0.62,0,0,0-.23,0h0l-0.11,0a2.06,2.06,0,0,0-.88.4h0L63,87.05a2.3,2.3,0,0,0-.26.28,3.66,3.66,0,0,0,.14.6L63,88.58l0.06,0.06,0,0.11a7.25,7.25,0,0,0,.31.68l0.09,0.17,0,0.2a1.47,1.47,0,0,0,.06.6l0.09,0.28,0,0s0,0.09,0,.11l0.2,0.65,0.06,0,0.06,0.14c0.09,0.2.14,0.37,0.23,0.54l1.11,2.38-2.07-1.62a4.15,4.15,0,0,0-1.56-.74l-0.23-.06-0.14-.2a5.6,5.6,0,0,0-1.7-1.56l-0.11-.06-0.09-.09L59,90.11l-0.17,0H58.76c-0.09,0-.14,0-0.23,0l-0.45.14-0.26-.37a19,19,0,0,1-2.61-5.39h0l-0.09-.37v0L55,83.65h0c-0.11-.43-0.2-0.85-0.28-1.3h0l-0.09-.65,0-.23h0v0c0-.09,0-0.17,0-0.26l0-.23-0.06-.06A2.34,2.34,0,0,1,53.55,79,2.49,2.49,0,0,1,54.48,77V77h0V76.85L54.57,76l-0.06,0,0.26-1.25A19.14,19.14,0,0,1,68.68,60.15l0.2-.48c0.48-1.19,1-2.38,1.5-3.57,0.34-.79.68-1.59,1-2.41l-5.87,2.47-0.88.37V47.14l0.88,0.37c2,0.79,3.91,1.64,5.87,2.47l-2.47-5.87-0.37-.88H78l-0.37.88c-0.79,2-1.64,3.91-2.47,5.87L81,47.51l0.88-.37v9.38L81,56.15c-2-.79-3.91-1.64-5.87-2.47,0.82,2,1.7,4,2.49,6l0.17,0.45A19.13,19.13,0,0,1,91.7,74.75L92,76,91.9,76c0,0.28.09,0.57,0.11,0.85V77h0V77a2.48,2.48,0,0,1,.94,1.9,2.54,2.54,0,0,1-1,2l0,0.2c0,0.11,0,.23-0.06.34v0h0v0a24.27,24.27,0,0,0,3.6-1.87,2.51,2.51,0,0,1-.82-0.43,2.3,2.3,0,0,1-.94-1.87,2.57,2.57,0,0,1,2.44-2.64h0.06a2.55,2.55,0,0,1,1.42.45l0.23-.26,0.48,0.31a3.81,3.81,0,0,1,1.79,3.09,5.12,5.12,0,0,1-.6,2.47,3,3,0,0,1,2.47-.34,2.18,2.18,0,0,1,.71.4,1.73,1.73,0,0,1,.48,1.25,7.78,7.78,0,0,1-1.59,4.25l-0.09.54a38.85,38.85,0,0,1-.79,4c-0.65,2.21-4.14,11.4-3.77,10.49ZM90.57,87.31l-0.11.06A18.06,18.06,0,0,1,88.24,91a0.21,0.21,0,0,1,.14,0,1.57,1.57,0,0,1,.94.77,4.07,4.07,0,0,1,.4,1,0.55,0.55,0,0,1,.2,0,1.57,1.57,0,0,1,.94.77,4.07,4.07,0,0,1,.4,1,0.55,0.55,0,0,1,.2,0,1.57,1.57,0,0,1,.94.77,4.07,4.07,0,0,1,.4,1,0.55,0.55,0,0,1,.2,0,1.57,1.57,0,0,1,.94.77,0.62,0.62,0,0,1,.09.14,8.46,8.46,0,0,1,1.47-1.56c0.6-.51,1.16-1.13,1.73-1.73a3.51,3.51,0,0,1-.51-2.1,7.81,7.81,0,0,1,.88-3.49,2.93,2.93,0,0,0-.6-0.2l-0.14,0L96.72,88a0.76,0.76,0,0,1-.2-0.23,0.11,0.11,0,0,0-.06-0.06l-0.14.57-0.11-.2,0.43,1.5-1.73-2.1a0.91,0.91,0,0,1-1.13.68H93.71a11.82,11.82,0,0,1-1.62-.51,5.66,5.66,0,0,0-1-.26l-0.48-.09H90.57ZM72.79,101.76l0.17,0a0.62,0.62,0,0,0,.23,0h0.45l1.39,0-0.91,1.08a9.6,9.6,0,0,1-.88,1,5.75,5.75,0,0,1-5.13,1.79,3.78,3.78,0,0,1-2.72-2.3l-0.23-.51,0.28-.17a2.61,2.61,0,0,1-.2-1.47v-0.06a2.56,2.56,0,0,1,3-2,2.69,2.69,0,0,1,.94.37l-0.06-.2,1.45,1.13,0.17,0.11,0.31,0.23,0.2,0.14a5.82,5.82,0,0,0,1.3.71l0.2,0.09Z" style="fill: #fc0"/>
    <path d="M119.57,122.4c-2.1-.85-3.2-3.29-3.2-5.61a10.3,10.3,0,0,1,.28-2.58,6.17,6.17,0,0,0,.71,0,2.5,2.5,0,0,1,1.9.54,7.53,7.53,0,0,0,3.46,2.58,5.13,5.13,0,0,0,3.26.06,16.12,16.12,0,0,0,3,4.59v9.1c-4.42-.17-9.47-3.6-10.49-8.7a8.54,8.54,0,0,0,.94.45c0.2,0.09.34,0,.34-0.11A0.28,0.28,0,0,0,119.57,122.4Zm-9.78-51.76a5.69,5.69,0,0,0,2.47-.11A3.89,3.89,0,0,0,114.58,72a6.35,6.35,0,0,0,.37,4.45A28.34,28.34,0,0,0,110.81,78c-2.58-3.6-1.45-6.46-1-7.31v0Zm17.52,45.84c-3.15-.45-4.73-2.58-5-6.43,0-.23,0-0.43,0-0.62a4,4,0,0,0-.79-2.64,4.2,4.2,0,0,1-.23-3.34l0.09-.34a7.78,7.78,0,0,0,.91,1.11c0.17,0.2.28,0.2,0.34,0.14a0.27,0.27,0,0,0-.06-0.34c-2.13-2.44-2-3.8-1.45-4.71a5.15,5.15,0,0,0,.23.82c0.06,0.17.11,0.23,0.26,0.2s0.09-.11.06-0.34c-0.71-2.69.11-3.66,0.68-4.31a2.59,2.59,0,0,0,.37-0.45,3,3,0,0,0,.43-2v0a1.42,1.42,0,0,0,.34.06c0.09,1.36,1.16,2.24,3.17,2.83a0.17,0.17,0,0,0,.23-0.11,0.19,0.19,0,0,0-.14-0.23c-2.55-.74-2.89-2-2.81-2.86-2.72-.37-3.32-1.25-3.94-2.86a3,3,0,0,1-2.3-2.66,3.94,3.94,0,0,1-1-4.79,6.43,6.43,0,0,1,.74,1c0.06,0.11.14,0.2,0.23,0.14a0.21,0.21,0,0,0,0-.28,5.91,5.91,0,0,0-.88-1.39,5.31,5.31,0,0,1-1.56-3.4,3.48,3.48,0,0,1,.2-1.3l0.26,0.45a0.18,0.18,0,0,0,.23.11c0.09,0,.09-0.14,0-0.26-1.87-3.57-1.59-6.24,1-8.42,0,0.09,0,.14.06,0.23a7.6,7.6,0,0,0,.45,1.13,0.17,0.17,0,0,0,.2.11c0.09,0,.11-0.09.06-0.23s-0.31-1.11-.31-1.19a4.06,4.06,0,0,1,.37-3.74,4,4,0,0,1,3.29-1.7,2.64,2.64,0,0,1,.43-1,11.39,11.39,0,0,0,6.8,3.32,3.86,3.86,0,0,0,.68.68v54.43a17.23,17.23,0,0,1-2.89-4.79,8,8,0,0,0,1.19.23,0.23,0.23,0,0,0,.28-0.14,0.28,0.28,0,0,0-.28-0.17ZM121.75,34.7a0.3,0.3,0,0,0,.26-0.28,7,7,0,0,1,7-6.83V66.36a5.77,5.77,0,0,1-.43-0.48c-4.59-.51-9.13-3.71-9.33-9.78a7.32,7.32,0,0,0,1.7,1,0.64,0.64,0,0,0,.2,0,0.22,0.22,0,0,0,.14-0.23,0.27,0.27,0,0,0-.2-0.23c-3-1.56-5.67-4.85-5.67-8.48a8.16,8.16,0,0,1,2.21-6,8.24,8.24,0,0,0,.48.79,0.19,0.19,0,0,0,.2.09,0.14,0.14,0,0,0,.17-0.14,0.67,0.67,0,0,0-.14-0.34,8.34,8.34,0,0,1-1.13-4.05c0-3.66,2-6.46,4.76-6.94a10,10,0,0,0-.45,2.75c0,0.26.11,0.28,0.2,0.28ZM106.81,64.52A6.82,6.82,0,0,1,104.37,59a6,6,0,0,1,2.38-4.88,2.24,2.24,0,0,0,.4.45,0.54,0.54,0,0,0,.28.14,0.24,0.24,0,0,0,.2-0.17,0.83,0.83,0,0,0-.06-0.26,4.87,4.87,0,0,1-.94-2.61,3.17,3.17,0,0,1,1.87-2.81,3.78,3.78,0,0,1,3.23-4.08,8.93,8.93,0,0,0,0,1,0.19,0.19,0,0,0,.17.2,0.16,0.16,0,0,0,.17-0.14c0.26-3.83,3.32-4.45,5.1-4.45a3.1,3.1,0,0,0,.23.43A8.55,8.55,0,0,0,115,48.3a10.29,10.29,0,0,0,3.8,7.46,10.26,10.26,0,0,0,2.44,6.89,2.57,2.57,0,0,0-.48,1,4.62,4.62,0,0,0-3.29,1.84,4.35,4.35,0,0,0-.6,3.43,7,7,0,0,0-2.1,2.66A4,4,0,0,1,112.42,70a7.59,7.59,0,0,1-1.56.14c-1.47,0-4.88-1.11-5.3-6.21a9,9,0,0,0,1,.94,0.24,0.24,0,0,0,.23.09,0.18,0.18,0,0,0,.17-0.17,0.45,0.45,0,0,0-.14-0.28Zm6.66,45.78c-2.15-.74-3.26-3.77-3.26-5.22v-0.54a6.94,6.94,0,0,0,1,.4,0.24,0.24,0,0,0,.28-0.17,0.25,0.25,0,0,0-.2-0.26,4.56,4.56,0,0,1-2.89-4.42v0l1-.45a6.9,6.9,0,0,1,2.81-.88l2,0c0.45,0,.82,0,1.11,0a6.53,6.53,0,0,0,2.41-.68,6.19,6.19,0,0,1,1.25-.45h0v0h0.14a3.7,3.7,0,0,1,1.76.23,4.17,4.17,0,0,0,0,1c-0.91,1.13-.91,2.32,0,3.83a6.59,6.59,0,0,1-.14.79,4.64,4.64,0,0,0,.28,3.66,3.9,3.9,0,0,1,.74,2.41,5.24,5.24,0,0,0,0,.65c0.23,3.57,1.56,5.53,3.66,6.35l0.23,0.6a4.66,4.66,0,0,1-3-.09,7.29,7.29,0,0,1-3.23-2.47,2.69,2.69,0,0,0-2.15-.74,4.91,4.91,0,0,1-4.51-3.15c0.17,0.06.37,0.17,0.48,0.2a0.24,0.24,0,0,0,.28-0.2,0.31,0.31,0,0,0-.2-0.28Z" style="fill: #999"/>
    <path d="M108.23,98a5,5,0,0,0-.94,1.7h-0.2c0.14-.54.51-1.33,0.54-1.62L107.57,98a5.66,5.66,0,0,0-.94,1.67h-0.2c0.14-.54.51-1.36,0.54-1.62L106.92,98a6.09,6.09,0,0,0-.94,1.64,0.62,0.62,0,0,1-.23,0c0.17-.54.51-1.36,0.54-1.64l-0.06-.06a7,7,0,0,0-.94,1.64c-0.09,0-.14,0-0.23,0,0.17-.54.54-1.42,0.57-1.64l-0.06-.06a7.39,7.39,0,0,0-.94,1.64c-0.09,0-.14,0-0.23,0A16.68,16.68,0,0,0,105,97.8l-0.06-.06a7,7,0,0,0-.94,1.67c-0.09,0-.17,0-0.23,0,0.17-.54.57-1.47,0.6-1.7l-0.06-.06a7.47,7.47,0,0,0-.94,1.67c-0.09,0-.17,0-0.23,0h0c0.17-.54.6-1.5,0.6-1.7l-0.06-.06a9.48,9.48,0,0,0-1,1.7l-0.26,0a14.09,14.09,0,0,0,.6-1.7l0,0a10.15,10.15,0,0,0-1,1.67l-0.26,0a16.08,16.08,0,0,0,.6-1.67l0,0a10,10,0,0,0-.94,1.67,0.55,0.55,0,0,1-.23,0,10.28,10.28,0,0,0,.57-1.62l0,0a9.71,9.71,0,0,0-.94,1.67H100.6c0.06-.14.14-0.34,0.2-0.51a1.07,1.07,0,0,0,.23-0.14V98.36l-0.17,0c0.06-.17.14-0.34,0.2-0.51s0.17-.09.2-0.11V97.71a0.31,0.31,0,0,0-.14,0,1.44,1.44,0,0,0,.06-0.26l0,0a2,2,0,0,0-.2.31c-0.14,0-.31.09-0.48,0.11a1,1,0,0,0,.09-0.31h0a4.65,4.65,0,0,0,.94-0.45V97.06a20.72,20.72,0,0,0-3.06.94s0-.06,0-0.09c0.82-.4,3-1.22,3.17-1.42V96.43a22.4,22.4,0,0,0-2.92.88s0-.06,0-0.09c0.82-.4,2.83-1.19,3-1.39V95.78a17.08,17.08,0,0,0-2.78.85s0-.06,0-0.09a29.84,29.84,0,0,0,2.86-1.33V95.16a14.75,14.75,0,0,0-2.64.82s0-.06,0-0.09c0.77-.37,2.55-1.11,2.72-1.28V94.56a16.78,16.78,0,0,0-2.52.77s0-.06,0-0.09c0.74-.37,2.41-1,2.58-1.22V94a15.08,15.08,0,0,0-2.38.74s0-.06,0-0.09a23.77,23.77,0,0,0,2.41-1.19V93.37a16.46,16.46,0,0,0-2.24.68s0-.06,0-0.09c0.68-.34,2.13-1,2.27-1.13V92.78a11.73,11.73,0,0,0-2.1.65s0-.06,0-0.09c0.65-.34,2-0.94,2.1-1.08V92.21a12.57,12.57,0,0,0-2,.6s0-.06,0-0.09c0.6-.31,1.84-0.91,2-1V91.64a11.85,11.85,0,0,0-1.81.57s0-.06,0-0.09c0.57-.31,1.67-0.85,1.81-1V91.08a13.49,13.49,0,0,0-1.67.51s0-.06,0-0.09a18.49,18.49,0,0,0,1.64-.94V90.51a11.55,11.55,0,0,0-1.53.48s0-.06,0-0.09c0.51-.28,1.39-0.77,1.5-0.88V90c-0.28.06-1,.28-1.39,0.43,0,0,0-.06,0-0.09a12.31,12.31,0,0,0,1.33-.82V89.43a5.65,5.65,0,0,0-1.25.4,0.1,0.1,0,0,1,0-.09,10,10,0,0,0,1.19-.77V88.92a5.91,5.91,0,0,0-1.11.34,0.1,0.1,0,0,1,0-.09c0.4-.26,1-0.62,1-0.71V88.41a4.65,4.65,0,0,0-1,.31,0.1,0.1,0,0,1,0-.09c0.34-.23.82-0.57,0.91-0.65V87.93a3.83,3.83,0,0,0-.82.26,0.1,0.1,0,0,1,0-.09,6.66,6.66,0,0,0,.77-0.6V87.45a2.72,2.72,0,0,0-.68.23,0.1,0.1,0,0,1,0-.09c0.26-.2.57-0.48,0.62-0.54V87c-0.14,0-.37.11-0.57,0.17a0.21,0.21,0,0,1,0-.11c0.2-.2.45-0.43,0.48-0.48V86.51l-0.43.14v0a5.93,5.93,0,0,0,1.53-4.28,10.75,10.75,0,0,0,1.62-.82,2.77,2.77,0,0,1,2.13-.68,5.84,5.84,0,0,1,3.94,4.05l0.06,0c-0.6-3-1.39-3.32-3.54-4.45A3.41,3.41,0,0,1,110,78.77a12.91,12.91,0,0,1,3.83.71l0.06,0a10.25,10.25,0,0,0-2.24-1A26.25,26.25,0,0,1,115,77.24a4,4,0,0,0-.34,1.73,5.49,5.49,0,0,0,1.56,3.54,2,2,0,0,0-.37.74,5.31,5.31,0,0,0,0-.6l-0.06,0c-0.14.51-.28,1.22-0.48,1.84a9.93,9.93,0,0,0,.17-2l-0.06,0a17.67,17.67,0,0,1-.51,1.9l0,0a10.49,10.49,0,0,0,.2-2l-0.06,0A17.72,17.72,0,0,1,114.6,84s0,0-.06,0a9.17,9.17,0,0,0,.17-2l-0.06,0c-0.11.4-.26,1.13-0.45,1.76a0.1,0.1,0,0,1-.06,0,7.79,7.79,0,0,0,.11-1.87h-0.06c-0.09.37-.23,1.08-0.43,1.67l-0.09-.06a8.09,8.09,0,0,0,.09-1.76h-0.06c-0.09.31-.23,1-0.4,1.62a0.42,0.42,0,0,0-.11-0.06,6.82,6.82,0,0,0,.06-1.64h-0.06c-0.06.26-.2,0.94-0.37,1.53a0.17,0.17,0,0,0-.11,0,7.11,7.11,0,0,0,0-1.53h0c-0.06.17-.17,0.79-0.31,1.33a4.58,4.58,0,0,0-.4-2.72l-0.06,0a5.33,5.33,0,0,1-.14,3.15,6.45,6.45,0,0,1,4.2,2.89,3.38,3.38,0,0,0,.23.45h0a5.72,5.72,0,0,0,.82,1.08,3.4,3.4,0,0,0,2.41,2.83c0,0.06.06,0.14,0.11,0.26a3.73,3.73,0,0,0,2.92,2.47v0.14a2.5,2.5,0,0,1-.37,1.7,3.68,3.68,0,0,1-.34.4,3.54,3.54,0,0,0-.91,1.59h0c0.11-.54.4-1.11,0.45-1.47l-0.06-.06a5.24,5.24,0,0,0-.85,1.39l-0.17,0a12,12,0,0,0,.4-1.3l-0.06-.06a6.05,6.05,0,0,0-.82,1.33h-0.14c0.14-.48.34-1,0.4-1.28L120,95.7a5.92,5.92,0,0,0-.79,1.3H119c0.14-.48.34-1,0.37-1.22l-0.06-.06a5.91,5.91,0,0,0-.79,1.33l-0.11,0c0.17-.51.37-1.08,0.4-1.28l-0.06,0a8.1,8.1,0,0,0-.85,1.5,0.64,0.64,0,0,1-.11,0,10.89,10.89,0,0,0,.43-1.45l-0.06,0a7.9,7.9,0,0,0-.91,1.7h0l-0.09,0c0.2-.6.48-1.45,0.51-1.67l-0.06,0a8.74,8.74,0,0,0-1,1.93,0.1,0.1,0,0,0-.06,0c0.2-.62.54-1.64,0.57-1.87l-0.06,0a9.64,9.64,0,0,0-1,2.1,0.06,0.06,0,0,0-.06,0c0.17-.6.6-1.81,0.62-2l-0.06,0a11.18,11.18,0,0,0-1.08,2.18h-0.06a19.94,19.94,0,0,0,.65-2.15l-0.06,0A14.7,14.7,0,0,0,115,98.19h-0.06c0.2-.62.65-2,0.65-2.15l-0.06,0a14.48,14.48,0,0,0-1,2.18h-0.09c0.23-.68.65-2,0.65-2.15L115,96a18,18,0,0,0-1,2.18h-0.11c0.06-.14.09-0.31,0.14-0.48a0.73,0.73,0,0,0,.14-0.06V97.57H114c0.06-.14.09-0.28,0.14-0.43a0.73,0.73,0,0,0,.14-0.06V97h-0.11c0.06-.17.09-0.31,0.14-0.45s0.09,0,.11-0.06V96.41h-0.09c0.06-.23.11-0.43,0.11-0.45s0,0,.06,0V95.87a11,11,0,0,0-1.22.09V95.87h-0.06a0.15,0.15,0,0,1-.06.09l-0.57.09a0.64,0.64,0,0,1,0-.11,14.79,14.79,0,0,0,1.9-.54V95.33a15.82,15.82,0,0,0-2.21.23s0-.09,0-0.11c0.68-.23,1.93-0.45,2.18-0.62V94.76a14.75,14.75,0,0,0-2.1.23s0-.09,0-0.11a17.63,17.63,0,0,0,2-.6V94.22a13,13,0,0,0-2,.2c0-.06,0-0.09,0-0.14a16.44,16.44,0,0,0,1.9-.57V93.66a8.89,8.89,0,0,0-1.84.2,0.26,0.26,0,0,1,0-.14,15.25,15.25,0,0,0,1.76-.54V93.12a10.14,10.14,0,0,0-1.73.17V93.15a10,10,0,0,0,1.62-.51V92.58a12.08,12.08,0,0,0-1.62.14V92.55c0.51-.17,1.25-0.34,1.47-0.45V92a7.79,7.79,0,0,0-1.5.14V92a12.67,12.67,0,0,0,1.33-.43V91.53a8.47,8.47,0,0,0-1.36.11,0.36,0.36,0,0,0,0-.17,7.34,7.34,0,0,0,1.22-.43V91a7.78,7.78,0,0,0-1.28.11c0-.06,0-0.11,0-0.17a5.43,5.43,0,0,0,1.11-.4V90.48a9.33,9.33,0,0,0-1.16.09c0-.06,0-0.11,0-0.17a7.51,7.51,0,0,0,1-.37V90a8.5,8.5,0,0,0-1.08.09,1.23,1.23,0,0,0,0-.14,7.81,7.81,0,0,0,.91-0.34v0a4.51,4.51,0,0,0-1,.09c0-.06,0-0.09-0.06-0.14a4.17,4.17,0,0,0,.79-0.34v0a6.21,6.21,0,0,0-.94.06c0-.06,0-0.09-0.06-0.14a4.1,4.1,0,0,0,.71-0.31v0a5.06,5.06,0,0,0-.85.06s0-.09-0.06-0.11a2.57,2.57,0,0,0,.62-0.31v0a4.63,4.63,0,0,0-.79.06s0-.06-0.06-0.09a2.22,2.22,0,0,0,.57-0.31v0c-0.11,0-.4,0-0.74,0,0,0,0,0,0-.06a3.19,3.19,0,0,0,1-1.47l-0.06,0c-0.31.28-.79,0.82-1.47,1.39,2.1,3.17,1.42,7.6-.14,10.54h0l-0.11,0c0.14-.51.37-1.08,0.43-1.42l-0.06-.06a3.48,3.48,0,0,0-.88,1.64l-0.09,0a8.81,8.81,0,0,0,.37-1.19l-0.06-.06a5.19,5.19,0,0,0-.85,1.45l-0.09,0a7.53,7.53,0,0,0,.34-1.11l-0.06-.06a6.07,6.07,0,0,0-.85,1.42l-0.14.06c0.14-.45.34-0.94,0.37-1.16L109,97.88a6.14,6.14,0,0,0-.88,1.47l-0.17.09c0.14-.51.4-1.08,0.43-1.36L108.28,98a4.83,4.83,0,0,0-.91,1.62,0.41,0.41,0,0,1-.2.06c0.14-.54.45-1.25,0.51-1.53l-0.06-.06ZM90.71,85.89l-0.54,1.16a19,19,0,0,1-2.35,3.83L87.68,91l0.23,0.2v0.09h0.2a1.73,1.73,0,0,1,1.28,1.56v0.23H89.6a1.78,1.78,0,0,1,1.25,1.56V94.9H91a1.78,1.78,0,0,1,1.25,1.56v0.23h0.23a1.37,1.37,0,0,1,1.08,1l0.17,0.37L94,97.71a7.52,7.52,0,0,1,1.5-1.64,5,5,0,0,0,1.59-1.93l0-.09,0-.09a5,5,0,0,1-.26-2,11.93,11.93,0,0,1,.71-3.43l0-.11-0.09-.09A2,2,0,0,0,96,87.73a13,13,0,0,0-1.81.14l-0.37.06-0.14,0A7.42,7.42,0,0,1,92,87.39a6.51,6.51,0,0,0-1.28-.34L90.45,87l0.11-1.08Zm-18.77.82h0a2.36,2.36,0,0,0-2-1.42,2.79,2.79,0,0,0-.48.06l-0.34.09-0.28.2a1.55,1.55,0,0,0-.68,1.13v0.06c0.09,0.4.2,0.77,0.28,1.13l0.17,0.6,0.09,0.28,0,0.14c0.09,0.37.17,0.71,0.23,1.08,0,0.11,0,.23.06,0.34l0.37,1.87-1-1.64c-0.17-.28-0.34-0.54-0.51-0.79h0a1.24,1.24,0,0,0-.65-0.48l-0.23,0,0-.23a3.43,3.43,0,0,0-.14-0.51h0c-0.4-.94-1.19-2.41-2.38-2.41a2.48,2.48,0,0,0-.45.06l-0.23.06h0l-0.14,0-0.28.14a1.66,1.66,0,0,0-.82.82l0,0.06v0.06a7.17,7.17,0,0,0,.74,2.24l0,0.06,0,0.37a7.15,7.15,0,0,0,.6,2l0.37,0.88-0.82-.48a6.91,6.91,0,0,0-.79-0.4h0A1.48,1.48,0,0,0,62.14,92h-0.2l-0.11-.17c-0.06-.11-0.14-0.23-0.2-0.34h0A4,4,0,0,0,59,89.8H58.79l-0.2.09a0.68,0.68,0,0,0-.31.17h0a3,3,0,0,0-.54.65l-0.11.2v0L57.57,91l-0.14.28v0l-0.06.11,0.09,0.11a20,20,0,0,0,1.7,1.76l0.17,0.14,0,0L59.5,93.6h0l0.34,0.28c0.28,0.23.57,0.48,0.85,0.74s0.85,0.71,1.25,1.08c0.17,0.14.31,0.31,0.48,0.45l0.6,0.6a6.45,6.45,0,0,0,1,.82,5.64,5.64,0,0,0,1,.37l1.79,0.65L67.83,99l1,0.34,0.06,0.06c0.91,0.88,3.12,2.86,4.37,2.86,0.43,0,.88,0,1.3,0h0l0.91-.09,0.4,0,0.2,0.06,0.28,0.11a4.91,4.91,0,0,0,1.64.45,32.63,32.63,0,0,1,3.34.17c0.34,0,.68.09,1,0.09a2.19,2.19,0,0,0,.43-0.06H82.8c0.88-.34,1.79-0.65,2.69-0.94a16.09,16.09,0,0,1,2-.51l0.28-.06-0.11-.26a3,3,0,0,1-.23-0.65h0v-0.2h-0.2a1.8,1.8,0,0,1-1.3-1.56V98.53h-0.2A1.81,1.81,0,0,1,84.5,97h0v-0.2H84.3a1.67,1.67,0,0,1-1.25-1.36L83,95.16l-0.23.14c-0.31.2-.62,0.37-0.94,0.54L81.55,96l-0.17-.23a9.61,9.61,0,0,0-.94-1.19h0a2.88,2.88,0,0,0-.37-0.26l-0.26-.11,0.09-.26a3.11,3.11,0,0,0,.17-0.74h0c0-.43-0.06-0.85-0.09-1.28h0a1,1,0,0,1,0-.28,15.86,15.86,0,0,0-.34-1.59v0h0a1.31,1.31,0,0,0-.37-0.51l-0.17-.14,0.06-.2a2.33,2.33,0,0,0,.06-0.77c-0.09-1.3-.62-2.55-2.13-2.55a1.16,1.16,0,0,0-.62.2L76,86.37h0.06l-0.14.37a1.14,1.14,0,0,0-.09.43,3.85,3.85,0,0,0,.09.82L76,88.72v0.14L75.88,89a2.38,2.38,0,0,0-.26,1.59c0.06,0.74.17,1.47,0.28,2.21,0.09,0.54.2,1.08,0.31,1.59,0.06,0.2.09,0.4,0.14,0.6l0.31,1.11-0.85-.79-0.17-.17-0.74-.68,0-.11c0-.17-0.06-0.34-0.09-0.48l-0.06-.26h0l-0.06-.2A37.15,37.15,0,0,0,73,89.29h0a0.9,0.9,0,0,0-.37-0.43l-0.17-.09v-0.2A5.06,5.06,0,0,0,72,86.74h0Z"/>
    <path d="M27.58,23.5a8.38,8.38,0,0,0-3.32-2.69l-0.37-.14L24,21.06a8.63,8.63,0,0,0,2.13,3.71c1,1.16,27.67,33.08,34.13,40.79a17.87,17.87,0,0,0-1.64,1.93c-25.51-32-30.3-37.7-31.89-39.57-0.31-.37-0.51-0.6-0.71-0.85-3.06-3.77-4.54-6.83-4.59-9.33,2.44,0.43,5.22,2.41,8.45,6l0.74,0.85C32.17,26.5,37,32.17,64.37,62.36a17.92,17.92,0,0,0-2.1,1.39c-6.8-7.88-33.7-39.06-34.7-40.22v0Z" style="fill: #999"/>
    <path d="M61.91,64c-0.48.4-1,.82-1.39,1.25C54,57.49,27.41,25.65,26.42,24.49a9.24,9.24,0,0,1-1.93-3.09,9.25,9.25,0,0,1,2.72,2.38C28.2,24.94,55,56,61.88,64Z" style="fill: #999"/>
  </g>
</svg>
