<?xml version="1.0" encoding="UTF-8" standalone="no"?>
<svg
    xmlns:dc="http://purl.org/dc/elements/1.1/"
    xmlns:cc="http://creativecommons.org/ns#"
    xmlns:rdf="http://www.w3.org/1999/02/22-rdf-syntax-ns#"
    xmlns:svg="http://www.w3.org/2000/svg"
    xmlns="http://www.w3.org/2000/svg"
    version="1.1"
    style="fill-rule:evenodd"
    preserveAspectRatio="none"
    viewBox="0 0 32 32"
    id="posters-level1-choose-button">
<g
    id="posters-level1-choose-button_g"
    transform="matrix(9.846199203e-4,0,0,9.846153846e-4,-1494.001889,-867.1310769)">
<path
    d="m 1519477,888047 387,1143 c -407,-215 -460,-520 -887,-483 -355,26 -662,-222 -886,-482 -157,330 -176,-203 -162,-203 -160,-794 -159,-599 -162,-559 -16,418 4,831 64,1244 -6,136 -26,702 -129,762 -88,-6 -24,-74 -87,0 l -65,63 c 0,190 -9,319 98,483 226,410 -99,592 -109,787 293,-28 23,37 -32,51 -698,528 1006,12965 1016,14027 126,-291 284,602 325,749 130,437 302,924 378,1371 14,-34 43,-102 43,-101 4,156 11,469 11,469 7,-25 22,-76 22,-76 10,156 32,470 32,470 47,-301 141,-902 141,-902 14,148 43,445 43,445 -31,151 -171,426 -173,533 64,-128 177,-455 173,-445 l -87,1143 c -47,-173 -140,-521 -140,-520 -22,264 -40,144 -43,127 -32,46 -76,-548 -76,-546 -58,-238 -170,-709 -173,-724 10,1050 122,2075 181,3121 5,259 45,458 142,697 100,228 206,387 377,565 175,172 332,279 555,378 237,97 425,135 681,139 187,-8 373,-11 560,-12 74,-10 850,-119 845,-77 11,51 -190,127 -236,143 4,-4 13,-11 13,-11 -233,178 112,75 199,22 118,13 39,-7 24,-11 189,-137 560,-419 560,-419 -815,80 -1290,238 -1965,326 -173,0 -313,-19 -481,-66 -15,-4 -186,-67 -186,-67 -228,-163 -104,-89 17,-41 225,79 411,106 650,98 1,3 155,-70 162,-73 -14,2 -162,29 -162,25 -231,-1 -405,-36 -619,-124 -204,-91 -344,-188 -503,-346 -154,-163 -249,-307 -337,-515 -85,-218 -119,-396 -120,-631 -7,-4 11,-163 11,-163 2,14 31,163 31,163 8,226 46,399 134,606 90,198 183,332 334,485 154,147 289,237 483,322 96,39 169,59 266,87 126,18 182,33 320,35 0,0 275,0 274,0 129,-61 398,-99 398,-99 -191,-11 -572,-33 -572,-33 191,-15 572,-44 572,-44 226,-23 203,-23 199,-23 199,-8 597,-33 597,-33 105,-89 664,-220 621,-209 285,-52 980,-22 958,-22 -209,54 -622,176 -622,176 -75,15 -224,44 -224,44 265,77 -38,103 -124,111 -195,180 -585,541 -585,541 88,0 262,44 262,44 232,79 -411,129 -461,132 l -37,33 c 547,-40 1642,-121 1641,-121 -841,243 -602,234 -1467,176 0,19 -75,34 -74,34 203,16 609,55 609,55 -97,28 -291,75 -298,77 l 410,-44 c 629,296 -217,279 -497,276 591,52 1778,121 1777,121 149,-29 1606,-196 1605,-165 1,-39 15927,563 15927,563 5,3 3276,58 3452,61 453,-6 798,-77 1218,-251 400,-179 676,-369 990,-679 304,-319 493,-603 669,-1010 172,-429 242,-782 250,-1246 168,-7012 551,-13803 1285,-20784 16,76 101,292 97,279 -82,-587 -47,-470 54,-1040 -74,137 -130,444 -130,444 -9,-85 -32,-254 -32,-254 -69,28 -65,-1209 -65,-1193 -15,29 -43,89 -43,88 -49,-776 10,-1615 59,-2392 -8,-647 -104,-1135 -341,-1735 -244,-569 -504,-966 -927,-1413 -435,-434 -823,-703 -1379,-955 -590,-247 -1068,-347 -1705,-359 -2009,267 -1062,550 -801,642 91,-1 800,-51 801,-43 550,7 967,93 1477,303 483,216 823,450 1201,824 369,386 598,732 812,1225 209,522 294,946 303,1511 -77,776 -79,759 -95,729 -18,436 -54,1308 -54,1308 l -22,-342 c 1,69 13,199 -32,253 80,338 167,705 141,1054 -100,72 -227,-467 -249,-559 -4,-254 -11,-761 -11,-761 -165,-89 -155,-69 -173,-115 -29,93 -86,280 -86,280 47,173 140,520 140,520 70,757 53,439 43,165 156,616 344,1369 400,1993 -103,46 -361,-1002 -410,-1193 l -195,-1331 c 42,334 97,1001 97,1001 -21,520 -65,1561 -65,1561 9,69 74,582 119,584 45,292 106,646 98,940 -49,264 -110,181 -108,622 -53,-451 -62,-355 -65,-330 -16,-76 -44,-229 -44,-229 -200,-484 -119,-739 -248,-1206 -297,-1351 -285,-1369 -303,-1307 -32,-197 -176,401 -194,489 14,-220 70,-243 86,-388 4,-98 10,-57 11,-51 90,-327 91,-310 97,-292 12,-68 21,-114 28,-144 -34,-199 -72,-480 -60,-668 47,9 112,415 119,495 5,7 10,25 10,25 l 87,-419 c 10,-469 14,-432 21,-406 26,163 42,189 33,356 96,-289 166,-419 151,-737 -9,-77 -105,-878 -75,-876 73,28 168,609 205,749 107,-332 96,-207 11,-545 -21,121 -9,-70 -11,-51 -28,-132 -86,-394 -86,-394 18,-101 54,-304 54,-304 28,101 86,304 86,304 5,152 -60,300 -43,419 25,-117 65,-356 65,-355 30,142 75,431 75,431 28,-100 -109,-996 -151,-1130 3,-10 37,-145 33,-145 -3,-481 -72,-842 -246,-1288 -181,-423 -373,-717 -687,-1049 -324,-322 -612,-520 -1026,-705 -437,-179 -794,-251 -1264,-253 -367,103 -335,442 -18,446 2,0 18,0 18,0 403,5 715,69 1089,224 355,160 606,332 885,608 272,284 441,540 598,903 154,383 217,700 223,1114 0,0 6,328 6,323 -6,-31 -32,-323 -22,-323 -6,-413 -67,-725 -220,-1107 -156,-362 -323,-616 -593,-900 -277,-274 -527,-449 -880,-607 -908,-213 -100,-21 -8,14 349,160 596,336 869,611 264,282 428,536 580,895 132,338 191,619 207,984 -22,-363 -85,-642 -224,-976 -157,-353 -322,-601 -590,-874 -500,-334 -349,-314 -6,4 265,273 431,522 587,873 153,371 216,680 226,1083 -3,3 33,179 31,171 -44,43 -44,2312 -44,2158 0,118 0,356 0,356 -51,-286 -18,-463 -43,-737 -15,99 -61,237 -65,267 4,-85 1,-54 0,-51 -46,-287 -294,-784 -411,-317 -8,-200 -32,-597 -32,-597 -22,68 -65,203 -65,203 -9,156 29,174 -76,317 -29,519 27,191 33,89 63,275 130,838 130,838 85,188 141,626 140,622 l -281,89 c 9,51 33,152 33,152 67,298 126,622 97,927 -127,53 -278,-923 -303,-1092 55,-199 43,-255 33,-457 18,60 54,178 54,178 29,-104 108,-305 108,-305 -149,-442 -132,-504 -141,-952 -41,10 -119,0 -119,0 -19,111 -64,273 -43,381 22,-118 65,-355 65,-355 24,775 -42,457 -65,368 -19,40 -12,-15 -11,-26 -28,-131 -86,-393 -86,-393 18,-102 54,-305 54,-305 29,98 86,292 86,292 l 119,-419 c 18,-72 54,-216 54,-216 21,24 54,77 54,77 -13,-110 -21,-345 -21,-343 -145,25 -433,76 -433,76 27,-108 243,-1033 368,-584 15,117 63,348 65,355 -10,-247 -21,-520 -4,-767 -2,-300 -45,-524 -151,-803 -115,-270 -228,-448 -419,-665 -117,-165 -3,-65 32,-34 215,200 349,391 476,659 126,287 180,528 193,843 0,1 55,176 56,183 l -12,-183 c -6,-323 -56,-569 -178,-867 -124,-284 -255,-480 -468,-702 -218,-213 -413,-347 -690,-469 -291,-120 -533,-169 -847,-171 0,0 -633,45 -627,44 33,19 100,56 100,56 -202,132 -488,-19 -759,0 62,-19 187,-56 187,-56 -74,-134 49,-242 49,-242 87,51 262,154 262,154 91,-29 273,-88 273,-88 37,2 515,32 515,31 329,7 577,59 881,187 288,132 487,269 712,495 218,230 354,437 479,731 122,310 171,563 175,897 4,315 28,45 32,0 -2,-337 -52,-597 -174,-910 -127,-300 -263,-509 -484,-745 -228,-229 -431,-372 -724,-506 -308,-131 -563,-185 -897,-193 -1,2 -371,-33 -353,-31 42,-11 352,-84 353,-82 351,0 620,51 948,182 -1,3 156,71 156,71 -13,-7 -152,-78 -152,-78 -329,-146 -594,-209 -952,-225 -52,-23 -135,-61 -167,-111 -58,6 -661,92 -659,66 -56,-99 431,-205 498,-221 -253,-99 -759,-298 -759,-298 -91,15 -273,44 -273,44 l -237,177 c -107,29 -323,88 -323,88 -319,4 -957,11 -957,11 291,-97 787,-293 1069,-331 228,-4 684,-11 684,-11 -451,-176 -375,-211 -846,-176 -526,-258 -1579,-773 -1579,-773 -184,12 -584,44 -584,44 -629,45 -1362,-107 -2027,-33 -430,53 -1287,366 -1280,364 -147,17 -411,122 -411,122 -855,148 -2013,529 -2872,783 360,11 673,-103 1082,-110 287,-52 234,-46 199,-44 126,-49 499,-79 186,33 -468,93 667,-93 560,-77 781,-170 761,-435 1355,-497 208,-11 -243,177 -296,198 339,-78 724,-173 1067,-209 -181,36 -1178,192 -808,486 17,1 -212,57 -199,55 248,11 746,33 746,33 -178,15 -535,44 -535,44 -902,319 33,457 75,464 -143,3 -382,22 -522,44 -359,2 -719,33 -1070,-55 -230,-84 361,-131 399,-133 220,-123 354,-202 432,-252 -252,6 -428,-4 -694,53 -318,10 -235,-11 -199,-22 -861,1 -820,72 -1653,320 362,-17 867,73 1181,34 238,-39 125,5 112,11 25,0 74,0 74,0 -91,11 -273,33 -273,33 -96,7 -286,22 -286,22 -957,100 -1827,151 -2785,309 l -286,77 c -96,19 -286,55 -286,55 236,41 709,122 708,122 -145,11 -435,33 -435,33 -172,-27 -405,-173 -534,-177 115,67 431,182 447,188 -273,13 -820,-11 -820,-11 -7,81 -632,234 -622,232 -319,7 -957,22 -957,22 128,-41 385,-122 385,-122 1202,178 283,14 75,-22 840,-177 849,-167 820,-187 l 510,-155 c -38,0 -112,-22 -112,-22 -19,-47 395,-64 485,-88 -13,-20 8,-13 12,-11 1142,-600 -40,-210 -261,-155 -752,-43 -387,22 -323,33 91,4 274,11 274,11 -295,30 -883,89 -883,89 -190,11 -175,11 -162,11 -309,15 -684,-1 -982,44 -304,111 -933,276 -933,276 -190,14 -572,44 -571,44 377,15 1131,44 1131,44 l -186,22 24,0 c -132,11 -398,33 -398,33 -70,8 -207,11 -232,11 l 21,0 c -442,36 -1330,55 -1330,55 52,48 -983,327 -958,321 -431,62 -1293,187 -1293,187 195,-55 585,-165 585,-165 1838,-85 -259,-23 112,-34 453,-124 1006,-269 1467,-320 -198,-50 -74,-62 -50,-66 211,-73 634,-221 634,-221 2687,169 -403,-91 149,-44 236,-248 -308,-57 -385,-33 25,0 74,0 74,0 -33,4 -99,11 -99,11 13,0 37,11 37,11 -750,272 -688,264 -659,265 -62,4 -186,11 -186,11 15,7 50,11 50,11 -689,152 -1319,441 -2064,585 -128,22 -1059,220 -883,-176 -280,-224 -334,-221 -361,-221 -519,170 -1303,536 -1703,651 l 2382,628 -1010,0 c -936,-255 -2220,-628 -2143,-606 -87,120 -57,348 26,606 l -242,0 0,932 c -453,-255 -1319,-748 -1310,-753 -41,-231 -37,-409 8,-639 55,-235 129,-402 262,-602 148,-207 289,-342 501,-481 237,-147 440,-221 714,-266 -282,7 -496,52 -757,163 -246,113 -420,235 -611,428 -186,198 -302,376 -408,628 -104,265 -145,484 -147,769 0,0 9,101 9,100 l 456,2805 z m 23439,-3084 c 384,-96 774,-184 1012,-220 -77,63 -239,140 -440,220 l -572,0 z m 2535,7960 c 253,-1507 343,-91 388,413 -1,39 -14,9 -32,-13 l -356,791 0,-1191 z m 0,1702 c 73,565 191,1527 247,1504 9,27 -138,1474 -247,3063 l 0,-4567 z m 0,8118 139,507 c 10,114 11,343 11,343 115,-562 197,-845 -21,-1422 -43,218 -98,109 -129,-5 l 0,-1113 c 69,283 150,649 150,649 0,-136 11,-407 11,-407 813,3498 582,2657 54,5459 -25,-292 -76,-876 -76,-876 47,-664 17,-366 -10,-165 -15,-239 -56,-1011 -33,-1206 2,-254 29,-415 -21,-673 -18,-216 -54,-647 -54,-647 l -21,-22 0,-422 z m 0,5829 21,99 0,546 -21,-24 0,-621 z m 0,1070 21,6 c 24,42 216,89 216,89 -49,84 -94,171 -145,257 -15,38 -31,61 -61,89 0,0 -31,22 -31,22 l 0,0 0,-463 z m -35,531 c -13,18 -27,32 -46,48 -35,25 -55,34 -94,48 -88,46 -64,56 0,78 0,1 0,1 0,1 -21,4 -121,0 -108,0 -303,-96 -543,-145 -785,-175 l 1033,0 z m -1862,0 c -48,37 -164,54 -164,54 129,26 108,29 100,33 -25,7 -75,22 -75,22 -58,10 -174,33 -174,33 11,41 -12,121 -12,121 320,-203 485,-191 845,-242 -519,126 -306,121 -274,121 -181,71 -433,157 -621,188 -89,-27 -188,-182 -373,-199 4,0 12,0 12,0 -16,-11 -50,-33 -49,-33 -209,35 -622,121 -622,121 58,11 174,33 174,33 -95,4 -286,11 -286,11 -120,8 -259,0 -373,23 104,20 311,66 311,66 -759,24 -451,-42 -361,-66 -270,-127 60,-221 162,-254 -10,-11 -18,-22 -24,-32 l 1804,0 z m -5819,0 c -70,48 -143,100 -288,142 17,0 50,0 50,0 -9,0 -25,11 -25,11 -157,18 -111,0 -87,-11 -1700,-210 -1443,438 -2537,508 71,0 212,0 212,0 -88,19 -261,66 -261,66 -9,-7 -25,-22 -25,-22 -142,7 -307,-13 -435,55 l 323,0 c 54,-3 162,-11 162,-11 414,-33 1243,-77 1243,-77 760,-164 1346,-327 2151,-453 -54,19 -162,55 -162,55 4,0 13,0 13,0 l -361,100 12,0 c -74,16 -219,54 -223,55 l 25,0 c -598,280 -434,258 -386,254 0,-108 107,-47 274,-44 303,-74 594,-209 907,-276 597,-44 1791,-133 1791,-133 -253,74 -759,221 -759,221 -317,18 -773,-91 -1057,-44 298,43 911,88 908,88 -282,227 822,62 1157,66 103,64 -2578,237 -2848,265 -772,158 -584,26 -1144,0 -212,41 -455,87 -671,67 -29,-5 -106,-18 -50,-56 -215,-7 -646,-22 -646,-22 -116,38 -252,84 -373,89 -45,-1 -43,-7 -13,-34 46,-22 137,-66 137,-66 -75,-3 -224,-11 -224,-11 -369,97 -1119,243 -1119,243 43,64 34,112 0,177 331,-58 650,-141 982,-188 l -111,44 559,-77 c -195,55 -584,166 -584,166 l -348,44 c 157,-5 259,20 422,22 -192,494 -2581,599 -2524,596 44,-94 655,-258 833,-309 54,-90 490,-265 610,-298 -46,-26 -137,-78 -137,-78 -522,54 -234,-57 -162,-88 -37,-22 -112,-66 -112,-66 136,-57 293,-87 435,-44 58,-20 175,-55 175,-55 -63,0 -187,0 -187,0 l 210,-12 c -30,0 -86,-11 -86,-11 66,-12 199,-22 199,-22 98,-47 299,-132 299,-132 248,-52 746,-155 746,-155 -25,-14 -75,-44 -75,-44 -29,22 -48,-11 -37,22 -105,-7 -62,-18 -50,-22 29,-4 87,-11 87,-11 -448,-66 -1343,-198 -1343,-198 -371,48 -1119,99 -1119,99 -88,2 -1083,-65 -1081,-44 -1980,-113 -1507,-169 -1318,-276 97,-10 55,-30 -2,-65 l 2006,0 -201,76 c 246,-34 746,-66 745,-66 l 18,-10 5480,0 z m -16975,-7016 c -139,286 -356,720 -356,720 108,-330 325,-990 325,-990 7,-142 18,-308 31,-485 l 0,755 z m 0,-7184 c -25,-220 -42,-436 -42,-436 -238,834 -714,2501 -714,2501 43,-200 63,-631 65,-838 -190,392 -40,-132 -11,-241 -14,-182 -43,-546 -43,-546 126,-368 378,-1105 378,-1105 -148,185 -302,13 -302,13 101,-173 302,-520 302,-520 47,111 65,235 55,355 79,-228 237,-685 237,-685 18,-436 54,-1308 54,-1308 6,68 13,135 21,203 l 0,2607 z m -1761,10900 0,0 0,0 z m 2098,4712 0,-1 0,1 z m 1131,529 c -4,1 -4,0 1,0 l -1,0 z m 374,254 0,0 0,0 z m 26296,-25531 0,-1 0,1 z m -432,306 0,-2 0,2 z m -491,1250 c 24,-118 9,0 5,30 l -5,-30 z m 156,-567 c 11,-53 4,-16 0,1 l 0,-1 z m -843,-1917 0,1 0,-1 z m 183,-584 0,1 0,-1 z m -9832,-3452 c -5,2 -7,3 -2,1 l 2,-1 z m -847,729 c 2,0 2,0 -1,0 l 1,0 z m 432,-252 c 22,-14 39,-26 52,-36 14,9 19,20 0,34 l -52,2 z m 52,-36 c 96,-70 -3,-40 -74,-21 7,1 52,8 74,21 z m -5570,851 0,0 0,0 z m -2511,298 -1,0 1,0 z m -606,44 -4,0 4,0 z m 6073,27415 25,0 c -9,0 -25,0 -25,0 z m 3046,-386 0,0 0,0 z m -211,55 0,0 0,0 z m -3220,640 0,0 0,0 z m -373,133 0,0 0,0 z m -437,-332 1,0 -1,0 z"
    id="posters-level1-choose-button_path"
    style="fill:#000000;fill-rule:nonzero" />
</g>
</svg>