<?xml version="1.0" encoding="UTF-8" standalone="no"?>
<svg
    xmlns:dc="http://purl.org/dc/elements/1.1/"
    xmlns:cc="http://creativecommons.org/ns#"
    xmlns:rdf="http://www.w3.org/1999/02/22-rdf-syntax-ns#"
    xmlns:svg="http://www.w3.org/2000/svg"
    xmlns="http://www.w3.org/2000/svg"
    version="1.1"
    style="fill-rule:evenodd"
    preserveAspectRatio="none"
    viewBox="0 0 150 32"
    id="posters-level2-price">
<g
    id="posters-level2-price_g"
    transform="matrix(3.881064618e-4,0,0,3.882074537e-4,-520.0334591,-393.2779257)">
<path
    d="m 1720037,1060734 c -1,-1829 -518,-18452 -518,-18452 -45,-872 -93,-1744 -139,-2617 -110,-1592 -458,-2789 -1299,-4259 -824,-1363 -1694,-2336 -3087,-3438 -17,7 -2179,-1536 -2277,-1436 -719,-364 -1369,-633 -2157,-912 -1889,-615 -3373,-891 -5439,-972 -5,3 -4530,-168 -4248,-162 -9079,-189 -43864,524 -43688,518 -7066,231 -48612,-1 -48514,0 -1212,49 -3639,147 -3639,147 l -5291,-215 c -5632,134 -11230,326 -16866,146 -4563,-50 -50355,-146 -50354,-146 -1745,30 -18388,323 -18388,292 -7139,-176 -56044,-936 -63182,-1113 -4392,3 -8769,19 -13161,79 -8073,202 -16149,964 -24207,1181 -3410,54 -22507,-526 -26109,-957 -5500,-595 -7889,-573 -13094,-663 -3334,-139 -11351,-442 -14221,-966 -328,-88 5605,-103 5605,-103 -2497,59 -12910,417 -15131,1232 0,0 -2855,1251 -2761,1332 -873,527 -1544,981 -2312,1592 -1541,1287 -2500,2431 -3386,4006 -822,1594 -1192,2872 -1317,4561 13,0 -15,256 -15,256 61,16 -719,6200 -615,6200 78,2723 409,5549 627,8279 -104,1389 -314,4165 -314,4164 -205,253 -614,758 -614,758 137,1245 409,3738 409,3737 37,-505 110,-1515 110,-1514 205,378 614,1135 614,1135 -164,2079 -315,3246 -724,5300 1,15 14,179 12,179 120,1830 521,3213 1474,4913 949,1587 1964,2730 3600,4000 1643,1219 3148,1994 5300,2703 12,-11 1159,327 1159,327 1796,481 3412,647 5335,659 0,0 26043,-291 26043,-291 0,0 58119,1041 58119,1035 14536,-151 70865,-528 85404,-889 5558,-239 5836,-240 5953,-244 l 55249,-48 c 470,0 10582,48 10582,48 4513,-109 9113,-626 13691,-692 2269,0 31300,-29 33568,-98 l 7011,-98 c 1425,0 15742,-56 15742,-47 2728,3 21186,51 23911,145 815,16 2447,49 2447,49 l 4564,-391 c 399,-1 5478,24 5622,-351 -2484,-431 -6327,-937 -9393,-1317 l 9392,0 c 6395,0 11629,-4236 11629,-9413 l 0,-28238 c 0,-4908 -4707,-8972 -10648,-9379 1260,36 2335,222 3621,580 1614,498 2703,1049 3962,1930 1291,954 2084,1815 2859,3024 794,1324 1142,2405 1284,3845 -2,0 262,3040 259,2995 288,9652 317,9615 301,9795 12,3122 67,6295 203,9415 143,2003 386,4032 609,6033 102,1570 -57,2875 -676,4378 -2,0 -13,31 -13,31 -635,1477 -1397,2574 -2678,3819 -1361,1247 -2657,2071 -4560,2877 -2076,814 -3790,1183 -6151,1323 2383,-66 4136,-386 6278,-1135 2014,-766 3381,-1554 4871,-2787 1442,-1260 2312,-2374 3088,-3904 748,-1612 1016,-2904 994,-4602 -1,0 -316,-7178 -315,-7169 z m -302097,16582 -2756,215 c -1389,-49 -4166,-147 -4166,-147 l -169,-68 7091,0 z m -49306,0 -1712,215 c -104,-32 -364,-113 -638,-215 l 2350,0 z m 13132,-1110 c -535,-104 -27950,-248 -28522,-441 1,-6 -240,-87 -239,-87 -1257,-464 -2126,-966 -3035,-1736 -987,-896 -1544,-1695 -1906,-2802 -315,-1173 -240,-2066 5,-3237 453,-2371 581,-4599 628,-6992 l 14,-1660 0,8652 c 0,5693 1410,6588 33055,8303 z m -33055,-22598 c -26,-4648 -110,-9295 -187,-13943 l 204,-1685 c 30,-112 464,-1248 464,-1248 175,-339 353,-645 552,-935 -663,1181 -1033,2492 -1033,3868 l 0,13943 z"
    id="posters-level2-price_path2"
    style="fill:#000000;fill-rule:nonzero" />
<!--
<path
    d="m 1563872,1028261 c -619,1805 -851,3281 -842,5164 113,3906 333,7753 638,11652 39,-3 866,9977 820,9978 82,2663 -195,4218 -420,6746 -89,1383 677,13896 677,13896 108,1309 320,2362 771,3613 105,280 1104,2600 1104,2600 1070,2027 2215,3477 4014,5087 1849,1543 3420,2516 5743,3449 15,4 177,49 177,49 906,241 1719,406 2655,543 1284,662 2759,845 4235,846 141,-5 280,-9 422,-15 3913,-217 7787,-493 11706,-215 3264,78 9792,234 9792,234 1246,-50 13151,-516 13151,-466 4980,270 10481,1498 15468,1773 3147,0 6268,-29 9414,-125 5772,-317 11573,-1542 17313,-1882 2644,-94 2886,693 6009,1525 4897,1181 4948,880 9366,1058 2006,184 8657,928 10170,1541 467,231 1573,179 2105,163 2582,-105 4488,-512 6873,-1311 0,0 1933,-664 1933,-664 2883,-1096 4955,-2246 7286,-4061 -15,-21 780,-643 780,-643 2008,-1679 3508,-3127 4861,-5257 -7,-5 508,-869 473,-881 890,-2209 1069,-4646 902,-6961 -96,-712 -194,-1426 -286,-2138 140,-1184 420,-3555 420,-3555 272,-216 819,-647 819,-647 -183,-1064 -547,-3191 -547,-3191 -48,430 -146,1293 -146,1292 -272,-323 -819,-970 -819,-968 266,-2162 320,-2438 965,-4526 -322,-3245 -965,-9736 -965,-9735 -18,-1713 -872,-18247 -638,-18220 0,0 68,-584 66,-584 170,-2713 -257,-4885 -1289,-7463 -1141,-2542 -2399,-4308 -4507,-6355 -2206,-2018 -4210,-3297 -7105,-4525 -3092,-1217 -5684,-1782 -9076,-1925 0,1 -2317,-111 -2317,-94 -10249,230 -21101,853 -31362,1416 -3973,380 -4174,384 -4258,389 -4299,164 -8964,79 -13293,79 -2534,-4 -5046,-65 -7569,-79 -3159,182 -6503,1000 -9792,1105 -1692,1 -3084,43 -4776,156 -1811,126 -3194,155 -5015,155 -3753,8 -7505,72 -11259,79 -1985,-12 -3845,-80 -5819,-234 -582,-26 -1750,-77 -1750,-77 l -3264,622 c -371,3 -3972,-18 -4020,560 3436,1308 6521,2245 10170,3019 3106,244 9319,731 9319,731 -1040,73 -3122,218 -3122,218 -914,-181 -2744,-545 -2743,-544 -946,-94 -2839,-281 -2839,-281 3180,594 7494,1227 10786,1058 -749,397 -2259,1156 -2317,1183 l 898,-233 c -1136,571 -3407,1712 -3407,1711 -44,59 -142,171 -142,171 707,244 2177,608 2177,608 -348,83 -1041,248 -1041,248 3129,507 10907,583 10889,576 2936,100 8790,47 8789,47 -330,-181 -993,-545 -993,-545 2769,-99 2372,357 3596,420 1283,-82 3832,-373 3832,-373 695,-146 1892,-809 1892,-809 819,0 2459,0 2459,0 805,-290 2413,-871 2413,-871 -583,466 -1270,824 -2081,871 -110,0 -222,0 -332,0 l -425,171 c 1650,-298 4967,-793 4967,-793 12217,-1678 16833,-3071 30132,-2817 7991,233 13679,190 21617,-418 2225,-162 3925,-3 6072,536 2133,608 3620,1319 5370,2534 0,0 45,33 44,32 968,547 2676,1889 2676,1888 481,787 833,1494 1159,2337 0,0 22,61 22,61 -416,696 -301,1593 -119,2324 307,1049 692,2051 829,3131 32,304 50,602 9,907 -212,1682 -128,5544 -128,5454 -182,-647 -547,-1940 -546,-1940 -323,-107 -967,-323 -967,-323 827,2155 2479,6464 2479,6464 -244,257 -932,935 -1385,929 -39,196 -383,1620 -401,1616 -338,1599 -294,4689 -291,6424 21,6374 -2175,8442 -2479,14826 -47,2644 -34,5271 4,7915 3,1537 -235,2684 -866,4122 -671,1395 -1396,2364 -2589,3472 -18,-9 -600,505 -600,505 -1075,834 -2029,1419 -3326,1987 -1687,709 -3093,1043 -4967,1186 -7,-8 -8112,423 -8112,329 0,213 -9367,-234 -9367,-234 -568,62 -1704,187 -1703,187 -594,-289 -1100,-259 -1798,-390 -347,41 -1041,126 -1041,124 -473,-30 -1419,-92 -1419,-92 -236,21 -709,62 -709,62 -63,191 -190,576 -189,575 94,424 -189,125 -189,125 -552,-614 -273,-754 -946,-93 -37,-197 -83,-473 -95,-669 198,-108 53,-97 0,-94 -683,165 -780,1417 -1136,1059 -342,-625 29,-894 -1134,-1059 -329,53 -155,903 -473,716 -788,-706 -821,-1282 -1609,-685 -170,146 -671,19 -852,-31 -354,-86 -1121,-59 -1229,265 8,135 195,870 -95,715 -580,-492 -443,-794 -1324,-1043 -132,315 -583,1333 -1089,1152 -619,-379 -1324,-1354 -1324,-1354 -568,286 -1704,856 -1704,856 -218,-231 -437,-407 -566,-699 -255,-308 -1690,-330 -2082,30 -205,523 1103,1380 -285,841 -1754,-1073 -1970,-1089 -1986,-1090 -389,-30 -1528,160 -1466,156 -177,12 -2472,390 -2460,265 -1270,-105 -1199,-314 -2744,-234 -143,9 -1704,198 -1702,171 -5701,-87 -11426,-195 -17125,-233 -9858,-315 -15556,-101 -25591,1182 -7388,136 -10837,-88 -12496,-343 l -1341,-38 c -927,-38 -1795,-182 -2688,-393 -2101,-548 -3203,-1110 -4998,-2109 -11,-5 -118,-69 -118,-69 -1611,-1039 -2774,-2437 -3714,-3946 -550,-941 -903,-1742 -1269,-2739 -289,-792 -381,-1620 -410,-2445 56,-15 33,-14231 -124,-14219 -596,-5609 -1318,-11126 -2077,-16725 l 23,-14706 c -404,5569 -454,4477 -485,3378 -17,-2146 284,-3688 1016,-5722 15,4 210,-592 210,-592 828,-2219 1806,-3836 3450,-5703 580,-624 1574,-1624 2300,-2136 1169,-940 2245,-1629 3615,-2343 2733,-1359 5025,-2020 8156,-2403 -3200,158 -5548,657 -8457,1798 -2705,1150 -4570,2326 -6638,4208 -1969,1893 -3165,3561 -4241,5921 18,9 -658,1808 -658,1808 z m 39248,-5643 -1,0 1,0 z m 28524,1992 -1,0 1,0 z m -49324,62826 c -1091,-168 -1406,-347 -1553,-446 5944,287 4516,376 3099,436 1,37 -791,28 -1546,10 z"
    id="posters-level2-price_path3"
    style="fill:#999999;fill-rule:nonzero" />
-->
<path
    d="m 1726215,1061676 c -1,-1961 -333,-19787 -333,-19787 -29,-935 -59,-1871 -89,-2806 -71,-1708 -295,-2991 -835,-4568 -530,-1462 -1089,-2505 -1984,-3686 -10,7 -1400,-1647 -1463,-1541 -462,-390 -879,-678 -1386,-977 -1214,-660 -2167,-956 -3495,-1043 -3,3 -2911,-180 -2730,-173 -5833,-203 -18049,562 -17936,555 -4540,248 -13960,-1 -13897,0 -779,52 -2338,157 -2338,157 l -3400,-230 c -3620,144 -7216,350 -10838,156 -2932,-53 -8798,-156 -8798,-156 -1121,32 -11815,346 -11815,313 -4587,-189 -9312,-1004 -13899,-1193 -2822,3 -5635,20 -8457,84 -5188,217 -10377,1034 -15555,1267 -2191,58 -3084,-565 -5399,-1026 -3534,-639 -5069,-615 -8414,-711 -2143,-150 -7294,-475 -9138,-1037 -211,-94 -1892,-110 -1892,-110 -1605,63 -2803,448 -4229,1321 0,0 -1836,1342 -1775,1429 -561,564 -992,1051 -1485,1707 -991,1380 -1607,2607 -2176,4295 -529,1710 -767,3081 -847,4892 9,0 -9,275 -9,275 39,17 -462,6648 -396,6648 51,2920 263,5951 403,8879 -66,1489 -202,4465 -202,4465 -131,270 -394,812 -394,812 88,1336 263,4009 263,4007 24,-540 70,-1624 70,-1622 132,405 395,1217 395,1217 -105,2229 -202,3481 -465,5683 1,16 9,192 8,192 77,1962 335,3446 947,5269 610,1701 1262,2927 2313,4289 1056,1307 2023,2138 3406,2899 8,-12 744,350 744,350 1155,517 2193,694 3429,707 0,0 16735,-312 16735,-312 0,0 25968,1117 25968,1110 9340,-162 18836,-566 28178,-953 3572,-257 3751,-257 3825,-262 l 11943,-52 c 302,0 6800,52 6800,52 2900,-117 5856,-672 8798,-742 1458,0 2836,-32 4293,-106 l 4505,-104 c 915,0 10115,-60 10115,-51 1754,4 3477,54 5229,155 523,18 1572,53 1572,53 l 2932,-418 c 257,-2 3520,25 3613,-377 -1596,-463 -4065,-1005 -6036,-1413 l 6036,0 c 4109,0 7472,-4542 7472,-10094 l 0,-30281 c 0,-5265 -3024,-9622 -6842,-10058 809,39 1500,238 2327,622 1037,534 1737,1124 2545,2070 830,1023 1340,1945 1837,3243 511,1419 735,2579 825,4123 -1,0 169,3259 167,3211 185,10351 204,10311 193,10504 9,3349 44,6751 131,10096 92,2149 248,4325 391,6470 66,1684 -36,3083 -434,4695 -1,0 -8,34 -8,34 -408,1584 -898,2759 -1721,4094 -875,1338 -1708,2221 -2931,3086 -1333,873 -2435,1268 -3952,1419 1531,-71 2658,-415 4034,-1217 1295,-822 2173,-1667 3130,-2990 927,-1351 1486,-2545 1984,-4185 481,-1729 654,-3115 639,-4936 0,0 -203,-7698 -202,-7688 z m -116448,17782 -1771,231 c -893,-53 -2677,-157 -2677,-157 l -109,-74 4557,0 z m -20306,0 -1100,231 c -67,-35 -233,-121 -410,-231 l 1510,0 z m -8838,-1190 c -344,-112 -683,-267 -1051,-473 1,-6 -154,-93 -154,-93 -807,-498 -1366,-1036 -1950,-1862 -634,-961 -992,-1817 -1224,-3005 -203,-1257 -155,-2216 3,-3471 291,-2542 373,-4932 403,-7498 l 9,-1780 0,9278 c 0,3842 1610,7200 3964,8904 z m -3964,-24234 c -17,-4983 -70,-9967 -120,-14951 l 131,-1808 c 20,-119 299,-1338 299,-1338 112,-363 226,-691 354,-1003 -426,1267 -664,2673 -664,4149 l 0,14951 z"
    id="posters-level2-price_path4"
    style="fill:#FFE57F;fill-rule:nonzero" />
</g>
</svg>