<svg id="city_rnd" data-name="rnd" xmlns="http://www.w3.org/2000/svg" width="52.5mm" height="52.5mm" viewBox="0 0 148.82 148.82">
  <title>rnd</title>
  <g id="rnd">
    <path d="M91.47,41c-0.31-5.9,2.32-10.12,7-10.77h0l1-1.9,1.87,0,0.85,2s0.09,0,.11-0.06c3.83,0.71,7.11,3.88,7.29,10.35l0,0v2l-3.54,1c-0.94-1.9-1.45-3.09-2.32-3-1,0-1.13,1.87-1.5,4.62l-3.4-.06c-0.71-4.11-.71-4.79-1.62-4.82s-1.45,1.28-2.3,3.32L91.5,42.15l0-1.19-0.06-.06Z" style="fill: #fc0"/>
    <path d="M98.76,45.24l3.4,0.06,0.09,6.8a5.28,5.28,0,0,1-3.57-.37Zm1.45,85.63h0l0-.43L98,121l1.42,0,0.26,3-0.23-3.09L101,121l-0.48,6.49,0.57-6.58L98,120.87l0.14-10.15,4.42,0.2-0.14,10h0l-2.15,9.67v0.06l0,0.2,0-.11,0,0.34,0-.26h0v0Z" style="fill: #999"/>
    <path d="M110.32,48.5l1.08-3.86L113,44.9l-1.59-.26,0.94-4.14a1.52,1.52,0,0,1,1.64.4l-1,4h0l-0.77,3.71-1.93-.11v0Zm4.25-14.63,0.79,7.48-2.13-1L114.35,35l-1.13,5.39-2-.09,3.4-6.43v0.06Z" style="fill: #999"/>
    <path d="M115.34,48.81a5.12,5.12,0,0,1,2.89,3.06L120.1,87c0.06,2.44-4.59,4.14-7.09,2.75l-1.64-27.44,2.32,46.15-3.63.09c-5.47,2.95-11.31,3.37-18.37.06l-3.43.06,1.67-46.6L88.21,90.37c-4.68.09-6.21-1.19-6.41-3.43l2-34.75a6.71,6.71,0,0,1,3-3.51l8.7-.51c2.66,5.56,8.7,5.19,11.48.09l8.5,0.51Z" style="fill: #fc0"/>
    <path d="M84.87,124.38l5.92-15.76,2.61,0.74-6.07,16.3Zm30.47-75.77,0.79-2.1h-0.09l-0.26-3.69,7.63-13-6.18,16.87h-0.09l0.65,0.68-0.57-.65,6.21-16.89-2.52,15.08L118,47.57l-0.06-.06-0.68,2.55-1.93-1.42v0Z" style="fill: #999"/>
    <path d="M108.65,109.22l3,8,2.38,0.85c-0.34,2.92,1.73,4.93,5.39,6.26-4.79,1.5-7.85-1.9-8.53-6h0l-3.26-8.7,1-.45h0ZM84.3,51L80.48,39.91l0.94,0.4L85,50.06,84.33,51h0Zm7.63-2.75c-0.34-1.81-4.17-5-11.23-8.28h0c-2.47-.94-4.05-5.67-1.39-9-0.43,3.09.6,6.29,2.44,7.11h0c7.37,2.13,13.41,7.54,13.66,10.09a23.76,23.76,0,0,1-3.46,0Zm21.37,46.2L113,94.05l-0.11-2.38c4.28,3.26,7.34,11.59,1.19,26.45l-2.38-.85s6.43-14.29,1.64-20V94.42Z"/>
    <path d="M31,47.42V39.57h3.37v3.74h1.5V39.57h4.62v3.74h1.64V39.57h6.12v3.74h1.64V39.57h2V20.15h1.5V39.57h1.13v3.74h1.5V39.57h3.37v7.85H31Zm22.76-28.6A1.13,1.13,0,1,0,52.64,20,1.14,1.14,0,0,0,53.77,18.82Zm-20.3,53.6H56.92V50.71H57l2.38-3.29H31l2.47,3.37h0V72.43Zm5.22-10V55.47a2,2,0,0,1,4,0v6.94h-4Zm9,0V55.47a2,2,0,0,1,4,0v6.94h-4Z" style="fill: #999"/>
    <path d="M27.27,78.26V67.21h2.24v5.16H31V67.21h3.37v5.16h1.5V67.21h4.62v5.16h1.64V67.21h6.12v5.16h1.64V67.21h4.62v5.16H56V67.21h3.37v5.16h1.5V67.21h2.24V78.26l-2.95,4.65L65.08,131H50.31l0-20c-1.16-2.66-8.45-2.81-10.2,0v20H25.37l4.88-48.13L27.3,78.24Z" style="fill: #999"/>
    <path d="M36.23,25.34c1.62-2,3.49-2.61,5.58-2,1,0.14,2.1.2,2.61-.34,2.18-2.21,3.94-3.32,5.73-3.32a5.13,5.13,0,0,1,1.79.51L51.87,31.83C51,30.9,49.29,31,46.35,33.28a3.25,3.25,0,0,1-3.23.51c-2.3-.09-4.59.88-6.89,2.86V25.34Z" style="fill: #fc0"/>
    <path d="M38.1,35.26a13.79,13.79,0,0,1,5.1-6c4-.31,7.51.65,8.65,2.47v-3a11.91,11.91,0,0,0-6.49-1.5,15.17,15.17,0,0,0,2.44-3.88,5.4,5.4,0,0,1,4.08-2.49V20.21A4.06,4.06,0,0,0,49,19.79a10.51,10.51,0,0,0-3,4,8.58,8.58,0,0,1-3.15,3.66c-2-1.36-3.83-2.78-4.93-3.6a7.31,7.31,0,0,0-1.64,1.47V26c1.28-.43,3.09.79,4.9,2.69a26,26,0,0,0-4.9,5.47v2.55l1.87-1.39Z"/>
  </g>
</svg>
