<?xml version="1.0" encoding="UTF-8" standalone="no"?>
<svg
    xmlns:dc="http://purl.org/dc/elements/1.1/"
    xmlns:cc="http://creativecommons.org/ns#"
    xmlns:rdf="http://www.w3.org/1999/02/22-rdf-syntax-ns#"
    xmlns:svg="http://www.w3.org/2000/svg"
    xmlns="http://www.w3.org/2000/svg"
    xmlns:sodipodi="http://sodipodi.sourceforge.net/DTD/sodipodi-0.dtd"
    xmlns:inkscape="http://www.inkscape.org/namespaces/inkscape"
    version="1.1"
    preserveAspectRatio="xMinYMin meet"
    viewBox="0 0 150 32"
    id="bzlogo">
    <defs
        id="defs10" />
    <g
        id="g3"
        transform="matrix(0.0011615365,0,0,0.0011336579,-10.99626649,-8.046520532)">
        <path
            d="m 138437.5101,24712.54629 c -0.9888,-946.5518 -276.8817,-9546.43591 -276.8817,-9546.43591 -23.7328,-450.69415 -49.4432,-902.3292 -74.1648,-1353.02334 -58.3429,-824.23398 -245.238,-1443.35035 -693.1931,-2203.60269 -441.033,-705.67977 -905.7989,-1209.06466 -1649.424,-1779.253921 -7.9109,3.763626 -1162.9033,-794.124965 -1215.3129,-742.375116 -384.6678,-188.181271 -730.7699,-327.435412 -1152.0257,-471.394085 -1008.6405,-318.967255 -1800.7199,-461.044115 -2904.2912,-503.384902 -1.9777,0.940907 -2418.7593,-87.504291 -2268.4521,-83.740665 -4847.4077,-97.854262 -14999.0779,270.981031 -14904.1471,268.158312 -3773.502,119.495108 -11601.3435,-0.940906 -11548.9338,0 -647.7055,24.463565 -1943.11602,75.272509 -1943.11602,75.272509 l -2825.182,-111.026951 c -3008.1219,69.627071 -5996.4665,169.363145 -9006.5663,75.272508 -2436.5591,-25.40447 -7310.6658,-75.272508 -7310.6658,-75.272508 -931.5092,15.995408 -9818.423,167.481331 -9818.423,151.485923 -3812.0676,-91.267916 -7737.8545,-484.566773 -11549.9223,-575.83469 -2344.5947,1.881813 -4682.2674,9.409064 -7026.8619,40.458974 -4311.4441,104.440605 -8623.8765,498.680369 -12926.4204,611.589131 -1821.4861,27.286285 -2563.1335,-272.862843 -4486.4725,-495.85765 -2936.9239,-307.676378 -4212.5576,-296.385502 -6992.2523,-342.489914 -1780.9427,-72.449789 -6061.7317,-228.640245 -7593.4809,-499.621276 -176.0176,-46.104411 -1572.2924,-53.631663 -1572.2924,-53.631663 -1332.9877,30.109004 -2328.773,216.408463 -3514.42,636.993605 0,0 -1524.8273,648.28448 -1475.3841,689.68436 -465.7546,271.921937 -823.7231,507.148527 -1234.1013,823.293063 -822.7343,666.161702 -1334.9654,1257.991806 -1807.6421,2072.816706 -439.0553,824.23396 -636.8279,1485.69114 -704.070597,2359.79313 7.9109,0 -7.9109,132.66781 -7.9109,132.66781 32.6324,7.52725 -383.679,3206.60887 -328.3026,3206.60887 42.5211,1408.53681 218.5387,2870.70529 335.2246,4283.00574 -55.3763,718.85245 -168.1067,2154.67555 -168.1067,2154.67555 -108.775,130.78599 -327.3138,391.41705 -327.3138,391.41705 73.1759,644.52085 218.5388,1934.50347 218.5388,1933.56256 19.7773,-260.63106 58.3429,-783.77499 58.3429,-782.83409 109.7638,195.70853 328.302597,587.12557 328.302597,587.12557 -88.008797,1075.45596 -168.106697,1679.51785 -386.645497,2741.80113 0,7.52724 6.922,92.20882 5.9332,92.20882 64.2761,946.5518 278.8594,1662.58153 787.135097,2542.32897 507.2869,820.47035 1049.1839,1411.35955 1922.3502,2069.05309 878.1106,630.40726 1681.0676,1031.23337 2830.1267,1398.18685 6.9221,-5.64544 619.0284,169.36314 619.0284,169.36314 959.1974,248.39928 1821.4862,334.02176 2848.9151,340.6081 0,0 13906.3839,-150.54502 13906.3839,-150.54502 0,0 21578.9736,539.13935 21578.9736,535.37572 7762.5764,-78.09522 15652.7159,-272.86284 23416.2811,-459.1623 2967.5785,-124.19964 3116.8968,-124.19964 3178.2063,-127.02235 l 9925.2203,-24.46357 c 250.1824,0 5650.3645,24.46357 5650.3645,24.46357 2409.8595,-56.45439 4866.19532,-323.6718 7310.66522,-357.54443 1211.3577,0 2356.4613,-15.0545 3567.8188,-50.80893 l 3743.8362,-50.80895 c 760.4358,0 8405.3374,-29.16809 8405.3374,-24.46357 1457.5846,1.88182 2889.4586,26.34539 4345.0656,75.27252 435.0997,8.46815 1306.2881,25.40447 1306.2881,25.40447 l 2436.5591,-202.29487 c 213.5945,-0.94091 2925.0574,12.23178 3002.1887,-181.59493 -1326.0654,-222.99481 -3377.9567,-484.56678 -5015.5142,-681.2162 l 5015.5142,0 c 3414.5446,0 6209.0723,-2191.37091 6209.0723,-4870.13131 l 0,-14607.5712 c 0,-2540.44715 -2512.7016,-4642.431967 -5685.9637,-4852.254085 673.4159,18.818127 1246.9565,114.790576 1934.2165,299.208222 861.2998,257.808341 1442.7514,542.902968 2115.1784,999.242553 689.2377,493.03493 1113.4601,938.08364 1526.805,1563.78636 424.2223,684.97983 610.1285,1244.81911 685.2822,1990.01695 -0.9888,0 140.4185,1572.25453 138.4409,1548.73186 154.2626,4993.39004 169.0955,4974.57191 161.1846,5066.78074 5.9333,1615.53621 35.5991,3257.41781 107.7862,4871.07221 76.1424,1036.8788 206.6723,2085.9894 325.3359,3120.98639 55.3764,812.00218 -30.6547,1487.57295 -360.935,2264.7616 -0.9889,0 -6.9221,16.93632 -6.9221,16.93632 -339.1801,764.01596 -745.6028,1331.38249 -1429.8963,1974.96244 -726.8145,645.46177 -1419.0188,1071.69234 -2434.5813,1488.51386 -1108.5157,421.52605 -2024.2029,611.58913 -3285.0036,684.97983 1272.667,-34.81353 2209.1204,-200.41305 3352.2463,-587.12557 1075.8832,-397.06248 1805.6642,-804.47493 2601.6991,-1442.40945 769.3358,-652.0481 1234.1015,-1227.88279 1648.4352,-2019.18504 399.5007,-834.58394 542.886,-1502.62745 531.0196,-2381.43399 -0.9888,0 -169.0956,-3713.75739 -168.1068,-3708.11195 z m -96768.17772,8578.24326 -1471.4286,111.02694 c -741.6474,-25.40446 -2223.9534,-76.21341 -2223.9534,-76.21341 l -89.9865,-34.81353 3785.3685,0 z m -16872.9739,0 -914.6985,111.02694 c -55.3764,-16.9363 -193.8172,-58.33619 -340.169,-111.02694 l 1254.8675,0 z m -7345.276,-574.89379 c -284.7926,-53.63165 -567.6075,-127.96327 -872.1774,-227.69933 0,-2.82272 -128.5522,-45.16351 -128.5522,-45.16351 -670.4493,-239.93112 -1135.2151,-499.62127 -1620.747,-898.56557 -526.0752,-462.92593 -823.723,-875.98382 -1016.5515,-1448.99579 -168.1067,-606.88461 -128.5522,-1068.86963 1.9779,-1674.81332 242.2715,-1226.00098 310.503,-2379.55218 335.2246,-3616.84404 l 7.9109,-859.0475 0,4475.89154 c 0,1853.58552 1336.9431,3473.82628 3292.9147,4295.23752 z m -3292.9147,-11690.7615 c -14.8329,-2404.01573 -59.3318,-4808.03148 -99.8752,-7212.04722 l 108.775,-872.22019 c 15.8218,-58.3362 248.2046,-645.46177 248.2046,-645.46177 92.9531,-175.94949 187.884,-334.02175 293.6924,-484.56677 -353.0242,611.58913 -550.7968,1289.98262 -550.7968,2002.24873 l 0,7212.04722 z"
            id="bzlogo-body"
            style="fill:#FFFFFF" />
        <g
            id="g33"
            transform="matrix(0.8857143216,0,0,0.7686932757,10084.79621,4696.149631)">
            <path
                d="m 86902.71442,13714.20065 c 4810,1108 9831,-587 14257.99998,-4170.999999 l 5182,20358.999999 c -1411,1239 -2684.183,3835.07133 -4620,4681.34622 -2376.47273,1038.91492 -5157.17245,662.38497 -7654.99998,79 -1303.44397,-304.4284 -2261.86301,-1663.44518 -2949,-2912.34622 -2912.18767,-5293.02636 -4216,-18036 -4216,-18036 z"
                id="bzlogo-mask"
                style="fill:#ffcc00" />
            <path
                style="fill:#ffffff"
                id="bzlogo-text-back"
                d="m 77372.71442,24719.20065 c -354,111 -720,209 -1058,359 -21,9 -267,123 -252,138 l -2,1 c -55,63 -98,130 -127,203 -35,88 -53,196 -53,325 0,149 18,281 53,395 34,109 85,210 153,302 141,192 314,193 520,94 219,-104 454,-341 566,-559 85,-164 99,-283 145,-443 16,-96 30,-239 41,-427 6,-109 10,-239 14,-388 z m 19185,-7771 1093,5119 c 72,376 145,752 223,1127 13,64 27,136 42,208 97,-64 190,-134 245,-175 l 356,-269 c 170,-128 374,-161 575,-92 201,69 342,220 398,426 l 833.99998,3100 c 63,233 -7,467 -189,627 l -140.99998,124 c -631,553 -1377,892 -2201,1045 -563,105 -1131,74 -1672,-117 -522,-185 -974,-496 -1312,-936 -332,-433 -551,-976 -714,-1492 -234,-738 -383,-1625 -529,-2387 l -1082,-5532 -452,84 c -321,60 -633,-139 -714,-455 l -10,-40 -2516,3911 c 173,787 351,1597 528,2403 l 2302,5553 2,0 c 181,438 -26,941 -464,1123 -110,45 -223,66 -335,66 192,835 411.49998,1342 430.49998,1348 2921.4656,4306.86387 11496.9468,3754.79904 13739.5,-1400 l -27,-13 c -488,-233 -909,-580 -1260,-1040 -333,-434 -580,-922 -743,-1461 l 0,0 c -5,-16 -9,-32 -13,-48 -149,-512 -224,-1068 -224,-1668 0,-402 36,-789 108,-1163 73,-376 183,-734 331,-1071 153,-350 338,-659 555,-929 160,-199 338,-377 533,-535 l -334,-1219 -297,-75 c -473,-118 -754,-614 -613,-1081 81,-389 179,-750 296,-1083 -788,-2863 -1544,-5769 -2388,-8613 -1074.99998,931 -2182.99998,1817 -3401.99998,2622 -47,29 -93,57 -141,85 l 762,2972 c 45,172 18,337 -78,487 -95,150 -233,247 -409,277 z m -5555,-823 -352,-1372 c -1180,49 -2586,-17 -3454,-686 63,213 118,430 168,623 -24,-114 99,451 313,1435 l 4,0 z m 523,-3065 -6,-35 3544,-4149.999999 542,3096.999999 c 1434,-555 3344,-1695 3975,-2162.999999 629.99998,-468 748.99998,-587 923.99998,-735 128,-100 247,-154 417,-191 172,-32 309,-28 478,14 167,47 282,109 403,217 115,112 177,214 216,359 724,2622.999999 1433,5244.999999 2127,7868.999999 108,-136 221,-263 340,-380 l -1,-2 c 399,-393 914,-683 1443,-858 528,-174 1129,-262 1803,-262 584,0 1109,52 1574,155 504,112 930,285 1279,520 57,-46 778,676 847,760 241,291 432,615 571,972 134,340 231,796 293,1370 57,535 86,1171 86,1909 0,1759 -84,3500 -1,5262 31,657 118,1267 298,1899 l 0,-2491 c 0,-475 384,-859 858,-859 l 2382,0 c 474,0 858,384 858,859 l 0,3313 c 0,475 -384,859 -858,859 l -2382,0 c -321,0 -600,-176 -748,-437 -155,277 -451,445 -767,437 l -2339,0 c -352,0 -655,-213 -787,-517 -409,308 -825,526 -1321,663 -451,125 -903,161 -1367,120 -930,705 -1843,3504.34622 -2823,3932.34622 -2314.2578,1741.71647 -8576.84109,3464.77508 -12666.99998,-992.67311 -104,-44 -189,-1223.67311 -278,-1303.67311 -123,-121 -189,-230 -231,-385 l -321,-1516 -1623,0 c -383,0 -708,-252 -818,-599 l -1647,-4085 -52,77 0,3747 c 0,475 -384,860 -858,860 l -2386,0 c -291,0 -548,-146 -703,-368 -164,236 -435,373 -721,368 l -2342,0 c -353,0 -656,-213 -788,-518 -118,89 -313,230 -445,297 -280,160 -572,282 -876,366 -328,91 -660,136 -994,136 -592,0 -1130,-115 -1612,-346 -488,-233 -909,-580 -1260,-1039 -333,-436 -580,-923 -743,-1462 -158,-524 -237,-1097 -237,-1716 0,-402 36,-790 108,-1164 73,-376 183,-733 331,-1070 152,-349 337,-658 554,-928 224,-279 483,-517 776,-714 271,-182 590,-348 955,-497 81,-33 165,-65 252,-97 l -2079,-523 -1,1 c -132,-33 -249,-95 -346,-177 -198,138 -452,192 -704,128 -162,-42 -302,-127 -409,-240 -118,-101 -228,-176 -331,-225 -65,-32 -120,-48 -165,-48 -50,0 -88,6 -114,17 -28,13 -60,39 -97,80 l 1,1 c -12,13 -24,26 -36,38 -35,50 -73,129 -115,236 -71,180 -135,415 -192,704 -60,302 -106,777 -137,1423 -31,653 -46,1523 -46,2608 l 0,3869 c 0,475 -385,860 -859,860 l -2382,0 c -259,0 -491,-115 -648,-297 -327,186 -673,328 -1041,424 -390,103 -795,154 -1215,154 -276,0 -550,-35 -822,-104 -276,-71 -531,-174 -764,-308 l -1,1 -30,-18 c -225,-134 -426,-293 -603,-476 -190,-195 -345,-410 -464,-644 -106,-208 -195,-454 -268,-736 -67,-260 -119,-542 -154,-845 l -1,0 c -3,-25 -5,-50 -6,-75 -23,-215 -41,-508 -53,-877 -15,-458 -22,-953 -22,-1483 l 0,-4600 -236,0 c -95,0 -186,-15 -271,-44 23,395 34,822 34,1282 l 0,7786 c 0,475 -384,860 -858,860 l -2383,0 c -474,0 -858,-385 -858,-860 l 0,-6393 c 0,-681 -12,-1221 -35,-1619 -19,-321 -1,-1403 -583,-1403 -96,0 -182,16 -256,48 -203,85 -412,329 -516,521 -76,141 -136,304 -179,490 -51,216 -90,538 -117,967 -28,444 -42,1016 -42,1717 l 0,5672 c 0,475 -384,860 -858,860 l -2383,0 c -314,0 -589,-170 -738,-422 -100,168 -256,303 -455,373 -99,35 -200,50 -299,49 l -2344,0 c -352,0 -655,-213 -787,-518 -128,96 -258,184 -391,264 l 1,3 c -18,11 -37,21 -56,30 -585,335 -1208,502 -1870,502 -592,0 -1129,-115 -1612,-346 -442,-211 -830,-517 -1160,-915 l 0,120 c 0,475 -385,860 -859,860 l -8038,0 c -474,0 -858,-385 -858,-860 l 0,-1001 c -228,360 -485,678 -771,952 l 1,2 c -16,15 -32,29 -48,43 -401,377 -852,660 -1351,852 -512,196 -1067,293 -1666,293 -942,0 -1771,-219 -2489,-660 -713,-437 -1295,-1081 -1744,-1932 l -2,1 c -14,-27 -27,-53 -38,-81 -213,-422 -391,-879 -533,-1368 -201,729 -474,1366 -819,1910 -431,680 -923,1199 -1474,1557 -589,382 -1227,573 -1916,573 -349,0 -699,-61 -1048,-183 -332,-117 -655,-288 -970,-513 -177,126 -283,415 -798,415 l -2212,0 c -474,0 -858,-385 -858,-860 l 0,-17291 c 0,-475 384,-860 858,-860 l 2383,0 c 474,0 858,385 858,860 l 0,4122 c 544,-334 1129,-501 1752,-501 707,0 1356,182 1949,543 566,345 1063,847 1493,1505 l 0,0 c 14,21 27,43 39,65 342,541 610,1174 803,1897 212,-701 498,-1321 856,-1860 460,-694 994,-1222 1602,-1585 632,-376 1323,-565 2071,-565 1654,0 2951,750 3896,2251 191,304 359,638 506,1003 l 0,-2109 c 0,-474 384,-859 858,-859 l 7445,0 c 474,0 858,385 858,859 l 0,1356 10,-21 c 253,-543 564,-995 932,-1358 l -1,-2 c 19,-19 39,-36 59,-53 384,-358 846,-627 1385,-805 528,-174 1129,-262 1803,-262 584,0 1109,52 1575,156 503,111 929,285 1278,519 l 2,-2 c 13,9 26,18 38,28 312,215 581,459 808,734 240,292 431,616 571,972 133,340 231,797 292,1370 57,535 86,1172 86,1910 0,1287 -20,2580 -29,3869 l 3,0 0,5 c 0,568 9,1031 26,1388 17,367 43,672 80,915 l 1,0 6,51 c 31,208 78,432 140,672 17,66 34,132 52,197 l 0,-11639 c 0,-474 384,-859 858,-859 l 2212,0 c 328,0 613,185 758,456 654,-495 1391,-742 2212,-742 330,0 656,45 978,133 323,88 626,217 905,386 l 1,-1 c 21,12 41,26 61,40 253,161 480,342 679,546 220,224 405,474 555,751 30,54 58,109 85,164 l 0,-874 c 0,-474 385,-859 859,-859 l 365,0 c 62,-99 143,-184 239,-251 l 2343,-1894 -1,-2 c 369,-298 909,-240 1207,129 128,160 190,351 190,540 l 0,0 0,1478 768,0 c 238,0 453,97 609,253 155,-156 371,-253 608,-253 l 2212,0 c 225,0 430,87 583,229 192,-150 396,-268 611,-353 274,-107 559,-162 858,-162 378,0 751,74 1118,221 341,137 673,339 997,608 l 2,-3 c 141,117 235,270 279,434 44,-47 88,-93 134,-138 l -1,-2 c 19,-19 39,-37 59,-53 384,-358 846,-627 1384,-805 528,-174 1129,-262 1804,-262 584,0 1108,52 1574,156 504,111 929,285 1278,519 l 2,-1 c 13,8 26,17 38,26 312,215 581,460 808,735 241,292 431,616 571,972 133,340 231,797 292,1370 58,535 87,1172 87,1910 0,1287 -21,2580 -30,3869 l 4,0 0,5 c 0,568 8,1031 25,1388 17,367 44,672 80,915 l 1,0 c 3,17 5,34 6,51 29,188 70,390 123,605 l 0,-11391 c 0,-474 384,-859 858,-859 l 2386,0 c 474,0 858,385 858,859 l 0,1466 1205,-1906 -1,-3 c 71,-113 165,-204 271,-270 -97,-661 -188,-1318 -272,-1972 -15,-148 -34,-297 -42,-462 -34,-63 -82,-117 -124,-176 -310,-574 829,-576 1215,-555 1269,113 2385,115 3527,-30 z m -15782,8249 c 384,-92 923,-254 1304,-388 118,-42 227,-82 325,-122 -10,-198 -5,-599 -242,-649 -165,-34 -343,-58 -513,-56 -312,5 -410,57 -540,334 -126,266 -182,671 -334,881 z m -9856,-903 c -109,51 -231,79 -359,79 l -768,0 0,4189 c 0,585 2,986 8,1194 2,103 5,189 8,257 97,-38 218,-94 364,-167 l 0,0 c 244,-122 518,-116 747,-9 z m -19975,4313 c -353,111 -719,209 -1057,359 -25,11 -256,135 -253,138 l -1,1 c -139,155 -180,323 -180,528 0,274 118,851 464,851 91,0 178,-20 262,-60 218,-104 454,-341 566,-559 136,-265 169,-578 185,-870 6,-109 11,-239 14,-388 z m -259,-4573 c -139,-30 -317,-54 -496,-52 -118,0 -212,13 -282,37 -46,17 -84,39 -110,65 l 1,2 c -10,10 -19,18 -29,27 -36,44 -77,111 -120,203 -71,151 -137,346 -197,585 l 0,3 c -27,109 -74,207 -136,293 499,-131 953,-265 1303,-388 119,-42 228,-82 326,-122 -9,-222 6,-596 -260,-653 z m -5063,307 -3025,4851 0,2 c -89,143 -192,288 -286,429 l 3052,0 c 15,-277 48,-548 99,-811 72,-376 183,-734 330,-1071 153,-350 339,-659 556,-929 224,-279 483,-517 775,-713 271,-182 590,-348 955,-497 81,-33 165,-66 251,-97 l -2079,-523 -1,1 c -323,-81 -558,-337 -627,-642 z m -12034,861 c -52,-289 -140,-606 -306,-850 -125,-185 -293,-370 -532,-370 -272,0 -429,182 -567,397 l 1,2 c -10,16 -21,32 -33,47 -139,233 -219,508 -267,774 z m 73,3748 -1807,0 c 15,84 33,166 53,244 112,446 418,1150 962,1150 270,0 398,-237 490,-455 120,-286 159,-713 302,-939 z m 2531,0 761,177 3,-1 c 184,42 340,141 455,274 l 2776,-4431 c 118,-189 227,-360 325,-515 l -2639,20 0,3 c -164,2 -318,-43 -449,-122 19,83 36,167 53,252 195,993 284,2157 268,3494 -4,279 -124,849 -855,849 l 0,0 z m -14169,-2087 c 0,606 34,1126 100,1562 62,403 148,721 257,954 149,318 310,547 483,685 115,93 245,139 389,139 86,0 166,-26 240,-77 120,-85 243,-231 366,-438 135,-228 239,-537 313,-929 81,-433 122,-963 122,-1590 0,-675 -42,-1241 -124,-1695 -74,-411 -180,-733 -317,-964 l -1,1 c -12,-20 -22,-39 -32,-59 -108,-173 -221,-298 -339,-376 -93,-63 -201,-94 -323,-94 -119,0 -225,31 -317,91 -130,84 -256,225 -378,422 l 1,0 -2,4 2,1 c -8,13 -16,26 -25,39 -126,220 -224,502 -293,845 -81,402 -122,894 -122,1479 z m 103311.99998,7393 -2382,0 c -474,0 -858,-384 -858,-859 l 0,-12524 c 0,-475 384,-859 858,-859 l 2211,0 c 225,0 430,86 583,229 193,-151 396,-268 612,-353 273,-108 559,-162 857,-162 379,0 751,74 1118,221 180,72 357,162 532,271 150,-129 344,-206 557,-206 l 2382,0 c 474,0 858,384 858,859 l 0,5753 c 0,914 10,1614 30,2098 19,487 46,805 80,954 l 2,0 1,5 c 65,291 174,613 523,613 476,0 818,-558 926,-974 l -3,-1 c 5,-19 10,-37 16,-55 39,-187 70,-510 95,-970 27,-521 41,-1235 41,-2141 l 0,-5282 c 0,-475 384,-859 858,-859 l 2382,0 c 474,0 858,384 858,859 l 0,12524 c 0,475 -384,859 -858,859 l -2211,0 c -336,0 -627,-193 -768,-475 -28,23 -56,42 -87,61 -320,221 -650,390 -990,505 -374,127 -755,191 -1142,191 -394,0 -772,-62 -1135,-185 -358,-122 -695,-303 -1010,-544 l -2,2 c -21,-17 -42,-34 -62,-52 -288,-232 -538,-506 -750,-822 -219,-328 -395,-695 -527,-1102 l -2,0 c -8,-25 -15,-50 -21,-75 -114,-376 -199,-805 -255,-1288 -58,-501 -87,-1060 -87,-1676 l 0,-4009 c -201,152 -467,214 -731,147 -162,-42 -301,-127 -408,-240 -183,-155 -496,-410 -707,-176 l 1,1 c -12,13 -24,26 -37,38 -151,219 -256,684 -307,940 -229,1147 -183,2850 -183,4031 l 0,3869 c 0,475 -384,859 -858,859 z m -11986,-5649 c -109,34 -223,69 -342,104 l 0,1 -1,0 1,1 c -14,5 -28,8 -41,12 -274,83 -499,163 -674,241 -126,56 -208,100 -247,132 l -6,6 1,0 -2,1 c -56,63 -98,130 -127,203 -80,199 -63,518 0,720 103,333 301,575 673,397 219,-105 454,-341 566,-560 136,-264 169,-578 185,-870 7,-109 11,-239 14,-388 z m -755,-4625 c -291,-18 -417,75 -540,334 -71,151 -137,347 -197,585 l -137,297 c 544,-144 1108,-300 1630,-510 -30,-706 -114,-664 -756,-706 z m -16212.99998,-1509 c 495,-96 969,195 1057,650 88,455 -243,902 -738,998 -496,97 -970,-195 -1058,-650 -88,-455 243,-902 739,-998 z m 6721,-1309 c 496,-96 970,195 1058,650 88,455 -243,902 -738,998 -496,96 -970,-195 -1058,-650 -88,-455 243,-902 738,-998 z m -5493,11168 c 52,-142 159,-264 318,-337 l 5,-2 1,-1 c 158,-70 332,-76 485,-29 157,48 206,151 286,297 l 0,0 c 48,85 184,162 234,235 165,240 382,454 610,635 l 0,0 c 437,346 975,620 1540,789 1013,303 1946,249 2901,-201 l 0,0 c 545,-257 1051.99998,-619 1460.99998,-1040 391,-404 692,-861 846,-1331 l 0,0 c 53,-158 170,-282 317,-354 143,-70 315,-91 483,-47 l 1,0 c 12,4 24,7 37,11 l 1,0 c 153,51 274,151 348,275 77,128 103,281 62,431 -3,12 -6,22 -9,31 l 0,1 c -206,626 -597,1228 -1103,1756 -583,641 -2036.99998,1728 -3685.99998,1839 -664,54 -1366,-33 -2035,-230 -969,-286 -1941,-826 -2612,-1597 -28,-33 -169,-207 -291,-382 -160,-229 -305,-459 -200,-749 z" />
            <path
                d="m 13768.71442,29509.20065 0,-17291 2383,0 0,6228 c 735,-1164 1603,-1747 2610,-1747 1098,0 2004,555 2724,1658 718,1103 1077,2690 1077,4759 0,2138 -367,3788 -1100,4944 -732,1155 -1621,1731 -2666,1731 -515,0 -1022,-177 -1522,-535 -501,-359 -932,-886 -1294,-1587 l 0,1840 -2212,0 z m 92225.99998,-8704 -2163,-543 c 244,-1212 660,-2106 1254,-2689 596,-580 1476,-874 2645,-874 1065,0 1856,177 2377,527 518,351 885,793 1097,1333 211,539 318,1526 318,2967 l -26,3869 c 0,1099 38,1912 116,2435 75,520 220,1083 428,1679 l -2359,0 c -61,-221 -139,-547 -229,-978 -37,-197 -66,-326 -83,-391 -409,552 -843,963 -1306,1240 -463,274 -958,411 -1485,411 -926,0 -1658,-350 -2191,-1047 -535,-700 -802,-1586 -802,-2657 0,-704 122,-1336 365,-1892 243,-555 585,-978 1022,-1272 437,-294 1071,-552 1896,-773 1111,-290 1884,-564 2312,-813 l 0,-330 c 0,-640 -112,-1091 -338,-1365 -226,-270 -651,-407 -1280,-407 -425,0 -755,117 -992,351 -238,229 -429,636 -576,1219 z m 3186,2690 c -304,141 -787,310 -1450,507 -660,197 -1091,390 -1296,576 -310,310 -466,696 -466,1167 0,467 124,866 373,1204 249,338 564,507 949,507 432,0 840,-197 1230,-588 290,-298 478,-664 568,-1099 63,-282 92,-821 92,-1614 l 0,-660 z m 4355,6014 0,-3313 2382,0 0,3313 -2382,0 z m 6768,0 -2382,0 0,-12524 2211,0 0,1779 c 379,-841 721,-1397 1022,-1662 304,-266 645,-403 1030,-403 545,0 1066,209 1569,628 l -738,2887 c -399,-359 -773,-540 -1117,-540 -336,0 -617,125 -848,383 -235,253 -414,716 -547,1384 -133,669 -200,2070 -200,4199 l 0,3869 z m 10068,0 0,-1876 c -330,668 -761,1196 -1294,1582 -535,383 -1100,576 -1693,576 -605,0 -1146,-185 -1627,-552 -480,-370 -828,-889 -1045,-1558 -214,-668 -321,-1594 -321,-2773 l 0,-7923 2382,0 0,5753 c 0,1763 44,2842 133,3241 87,394 246,708 478,942 231,233 527,346 883,346 408,0 772,-153 1094,-463 321,-314 541,-697 660,-1156 118,-463 179,-1590 179,-3381 l 0,-5282 2382,0 0,12524 -2211,0 z m -114237.99998,-6534 c 0,1296 148,2255 440,2879 414,881 961,1320 1647,1320 524,0 973,-314 1343,-938 371,-624 556,-1610 556,-2955 0,-1429 -188,-2464 -561,-3096 -371,-632 -849,-950 -1433,-950 -571,0 -1045,310 -1424,926 -380,620 -568,1554 -568,2814 z m 13221,2548 2376,552 c -307,1212 -787,2134 -1447,2766 -657,636 -1482,950 -2472,950 -1566,0 -2724,-709 -3476,-2134 -594,-1139 -892,-2580 -892,-4316 0,-2077 391,-3704 1172,-4879 779,-1176 1766,-1763 2959,-1763 1340,0 2396,616 3172,1847 773,1232 1143,3116 1112,5657 l -5972,0 c 17,982 208,1747 576,2291 368,547 828,821 1375,821 373,0 686,-141 941,-423 254,-286 448,-741 576,-1369 z m 136,-3349 c -18,-962 -194,-1691 -533,-2190 -338,-500 -752,-749 -1239,-749 -521,0 -949,266 -1288,793 -338,523 -506,1240 -501,2146 l 3561,0 z m 3014,7335 0,-2585 3375,-5386 c 553,-882 964,-1506 1228,-1876 -275,24 -640,36 -1092,44 l -3181,24 0,-2746 7445,0 0,2348 -3442,5519 -1213,1828 c 660,-57 1071,-85 1231,-85 l 3687,0 0,2915 -8038,0 z m 11084,-8704 -2162,-544 c 243,-1211 660,-2105 1253,-2689 597,-580 1477,-873 2646,-873 1065,0 1856,177 2377,527 518,350 885,793 1097,1333 211,539 318,1525 318,2967 l -26,3869 c 0,1099 38,1912 116,2435 75,520 220,1083 428,1679 l -2359,0 c -61,-221 -139,-547 -228,-978 -38,-197 -67,-326 -84,-391 -409,552 -843,963 -1306,1240 -463,274 -958,411 -1485,411 -926,0 -1659,-350 -2191,-1047 -536,-700 -802,-1586 -802,-2657 0,-704 122,-1337 365,-1892 243,-556 585,-978 1022,-1272 437,-294 1071,-552 1896,-773 1111,-290 1884,-564 2313,-814 l 0,-330 c 0,-640 -113,-1091 -339,-1364 -226,-270 -652,-407 -1280,-407 -425,0 -755,117 -993,350 -237,230 -428,636 -576,1220 z m 3188,2689 c -305,141 -788,310 -1451,508 -660,197 -1091,390 -1297,575 -309,310 -466,697 -466,1168 0,467 125,865 374,1204 249,338 564,507 949,507 431,0 840,-197 1230,-588 290,-298 478,-664 568,-1099 63,-282 93,-821 93,-1614 l 0,-661 z m 12546,6015 -2383,0 0,-6393 c 0,-1353 -52,-2226 -153,-2625 -101,-395 -269,-705 -498,-926 -229,-217 -504,-330 -825,-330 -414,0 -784,157 -1111,471 -328,318 -553,733 -675,1252 -121,519 -182,1477 -182,2879 l 0,5672 -2383,0 0,-12525 2212,0 0,1840 c 787,-1417 1777,-2125 2970,-2125 524,0 1007,132 1441,394 435,266 765,600 987,1011 223,410 380,873 466,1393 90,519 134,1260 134,2226 l 0,7786 z m 6206,-12525 0,2641 -1626,0 0,5049 c 0,1023 14,1618 46,1787 32,170 101,306 211,419 110,109 246,165 403,165 223,0 541,-108 961,-318 l 202,2569 c -556,330 -1181,495 -1884,495 -428,0 -816,-101 -1161,-298 -344,-201 -596,-463 -758,-781 -162,-318 -272,-749 -336,-1292 -49,-383 -75,-1164 -75,-2335 l 0,-5460 -1094,0 0,-2641 1094,0 0,-404 2391,-1933 0,2337 1626,0 z m 3599,12525 -2382,0 0,-12525 2212,0 0,1780 c 379,-842 720,-1397 1021,-1663 304,-266 646,-402 1031,-402 544,0 1065,209 1569,628 l -738,2886 c -400,-358 -773,-539 -1118,-539 -335,0 -616,124 -848,382 -234,254 -414,717 -547,1385 -133,668 -200,2069 -200,4199 l 0,3869 z m 5921,-8704 -2162,-544 c 243,-1211 659,-2105 1253,-2689 596,-580 1476,-873 2646,-873 1065,0 1855,177 2376,527 518,350 886,793 1097,1333 212,539 319,1525 319,2967 l -26,3869 c 0,1099 37,1912 115,2435 76,520 220,1083 429,1679 l -2359,0 c -61,-221 -139,-547 -229,-978 -38,-197 -67,-326 -84,-391 -408,552 -842,963 -1306,1240 -463,274 -958,411 -1484,411 -927,0 -1659,-350 -2192,-1047 -535,-700 -801,-1586 -801,-2657 0,-704 121,-1337 364,-1892 243,-556 585,-978 1022,-1272 437,-294 1071,-552 1896,-773 1111,-290 1884,-564 2313,-814 l 0,-330 c 0,-640 -113,-1091 -339,-1364 -226,-270 -651,-407 -1279,-407 -426,0 -756,117 -993,350 -237,230 -429,636 -576,1220 z m 3187,2689 c -304,141 -787,310 -1450,508 -660,197 -1092,390 -1297,575 -310,310 -466,697 -466,1168 0,467 124,865 373,1204 249,338 565,507 950,507 431,0 839,-197 1230,-588 289,-298 477,-664 567,-1099 64,-282 93,-821 93,-1614 l 0,-661 z m 4267,6015 0,-12541 2386,0 0,4425 2787,-4409 2935,0 -3077,4574 3297,7951 -2567,0 -2267,-5624 -1108,1614 0,4010 -2386,0 z m 14267,-15483 394,1938 -1594,324 1221,6000 c 204,1002 337,1583 402,1742 64,160 160,280 290,369 130,84 274,112 427,81 219,-44 509,-214 879,-503 l 710,2476 c -478,435 -1058,721 -1747,861 -420,86 -820,64 -1197,-60 -378,-129 -677,-335 -899,-614 -222,-280 -416,-680 -587,-1200 -124,-365 -306,-1125 -539,-2273 l -1303,-6402 -1072,218 -394,-1938 1072,-218 -299,-1471 1958,-2370 684,3365 1594,-325 z"
                id="bzlogo-text-front"
                style="fill:#000000" />
        </g>
    </g>
</svg>
