<svg id="city_kur" data-name="kur" xmlns="http://www.w3.org/2000/svg" width="52.5mm" height="52.5mm" viewBox="0 0 148.82 148.82">
  <title>kur</title>
  <g id="kur">
    <path d="M31.24,20.78h0l7.85-2.55c5.47,2,8.79,6.26,11.76,10.94h0c2.66,4.2.88,6.35-2.32,4.08-0.65,1.53-2,1.13-3.12.11a1.79,1.79,0,0,1-1.7.94c3.26,3.94,4.68,7.54,4.22,12.08a0.59,0.59,0,0,1-.6.54l-6.72-.17c-1,0-.43-1.64-2.18-4.08a9.46,9.46,0,0,0-2.81-2.58L35.23,40c0.09,0.94.11,2.27-.94,2.49,0.23,1.16.23,2.61-1,2.83a3.88,3.88,0,0,1-1.11,3.43,0.61,0.61,0,0,1-1-.17c-2.13-5-5.87-7.17-8.82-8.84-2.38-1.36-4.28-2.44-4.68-4.51a5.59,5.59,0,0,1,.37-4.9,9.25,9.25,0,0,1,3.77-3.17c-0.06-2.32.31-3.74-3-5a0.59,0.59,0,0,1,.2-1.13c1.45,0,2.64.14,3.74-.88,1.79-1.64,8-.26,7.17,2.1a1.86,1.86,0,0,0,1.22-1.42,0.3,0.3,0,0,1,.06-0.14c2.24-3.83,4.93-3,7.71-2.44a0.1,0.1,0,0,1,.09,0l-7.85,2.55V20.78Z" style="fill: #999"/>
    <path d="M110.52,103h0l19.62,8.39c2.66,4.2.88,6.35-2.32,4.08-0.65,1.53-2,1.13-3.12.11a1.79,1.79,0,0,1-1.7.94c3.26,3.94,4.68,7.54,4.22,12.08a0.59,0.59,0,0,1-.6.54l-6.72-.17c-1,0-.43-1.64-2.18-4.08a9.81,9.81,0,0,0-2.81-2.58l-0.4-.09c0.09,0.94.11,2.27-.94,2.49,0.23,1.16.23,2.61-1,2.83a3.88,3.88,0,0,1-1.11,3.43,0.61,0.61,0,0,1-1-.17c-2.13-5-5.87-7.17-8.82-8.84-2.38-1.36-4.28-2.44-4.68-4.54a5.59,5.59,0,0,1,.37-4.9,9.25,9.25,0,0,1,3.77-3.17c-0.06-2.32.31-3.74-3-5a0.59,0.59,0,0,1,.2-1.13c1.45,0,2.64.14,3.74-.88,1.79-1.64,8-.26,7.17,2.1a1.86,1.86,0,0,0,1.22-1.42,0.3,0.3,0,0,1,.06-0.14c2.24-3.83,4.93-3,7.71-2.44l0.09,0c5.47,2,8.79,6.26,11.79,10.94h0L110.55,103Z"/>
    <path d="M70.92,61.85h0l19.62,8.39c2.66,4.2.88,6.35-2.32,4.08-0.65,1.53-2,1.13-3.12.11a1.79,1.79,0,0,1-1.7.94c3.26,3.94,4.68,7.54,4.22,12.08A0.59,0.59,0,0,1,87,88l-6.72-.17c-1,0-.43-1.64-2.18-4.08a9.46,9.46,0,0,0-2.81-2.58l-0.4-.09C75,82,75,83.34,74,83.57c0.23,1.16.23,2.61-1,2.83a3.8,3.8,0,0,1-1.11,3.4,0.61,0.61,0,0,1-1-.17c-2.13-5-5.87-7.17-8.82-8.84-2.38-1.36-4.28-2.44-4.68-4.54a5.59,5.59,0,0,1,.37-4.9,9.25,9.25,0,0,1,3.77-3.17c-0.06-2.32.31-3.74-3-5a0.59,0.59,0,0,1,.2-1.13c1.45,0,2.64.14,3.74-.88,1.79-1.64,8-.26,7.17,2.1a1.86,1.86,0,0,0,1.22-1.42A0.3,0.3,0,0,1,71,61.71c2.24-3.83,4.93-3,7.71-2.44a0.1,0.1,0,0,1,.09,0c5.47,2,8.79,6.26,11.76,10.94h0Z" style="fill: #fc0"/>
  </g>
</svg>
