<?xml version="1.0" encoding="UTF-8" standalone="no"?>
<svg
    xmlns:dc="http://purl.org/dc/elements/1.1/"
    xmlns:cc="http://creativecommons.org/ns#"
    xmlns:rdf="http://www.w3.org/1999/02/22-rdf-syntax-ns#"
    xmlns:svg="http://www.w3.org/2000/svg"
    xmlns="http://www.w3.org/2000/svg"
    version="1.1"
    style="fill-rule:evenodd"
    preserveAspectRatio="none"
    viewBox="0 0 150 24"
    id="posters-level2-price"
    width="150"
    height="24">
   <g
       id="posters-level2-price_g"
       transform="matrix(3.942935301e-4,0,0,4.398583039e-4,-528.3236727,-451.5963626)">
      <path
          d="m 1720037,1060734 c -1,-1829 -518,-18452 -518,-18452 -45,-872 -93,-1744 -139,-2617 -110,-1592 -458,-2789 -1299,-4259 -824,-1363 -1694,-2336 -3087,-3438 -17,7 -2179,-1536 -2277,-1436 -719,-364 -1369,-633 -2157,-912 -1889,-615 -3373,-891 -5439,-972 -5,3 -4530,-168 -4248,-162 -9079,-189 -43864,524 -43688,518 -7066,231 -48612,-1 -48514,0 -1212,49 -3639,147 -3639,147 l -5291,-215 c -5632,134 -11230,326 -16866,146 -4563,-50 -50355,-146 -50354,-146 -1745,30 -18388,323 -18388,292 -7139,-176 -56044,-936 -63182,-1113 -4392,3 -8769,19 -13161,79 -8073,202 -16149,964 -24207,1181 -3410,54 -22507,-526 -26109,-957 -5500,-595 -7889,-573 -13094,-663 -3334,-139 -11351,-442 -14221,-966 -328,-88 5605,-103 5605,-103 -2497,59 -12910,417 -15131,1232 0,0 -2855,1251 -2761,1332 -873,527 -1544,981 -2312,1592 -1541,1287 -2500,2431 -3386,4006 -822,1594 -1192,2872 -1317,4561 13,0 -15,256 -15,256 61,16 -719,6200 -615,6200 78,2723 409,5549 627,8279 -104,1389 -314,4165 -314,4164 -205,253 -614,758 -614,758 137,1245 409,3738 409,3737 37,-505 110,-1515 110,-1514 205,378 614,1135 614,1135 -164,2079 -315,3246 -724,5300 1,15 14,179 12,179 120,1830 521,3213 1474,4913 949,1587 1964,2730 3600,4000 1643,1219 3148,1994 5300,2703 12,-11 1159,327 1159,327 1796,481 3412,647 5335,659 0,0 26043,-291 26043,-291 0,0 58119,1041 58119,1035 14536,-151 70865,-528 85404,-889 5558,-239 5836,-240 5953,-244 l 55249,-48 c 470,0 10582,48 10582,48 4513,-109 9113,-626 13691,-692 2269,0 31300,-29 33568,-98 l 7011,-98 c 1425,0 15742,-56 15742,-47 2728,3 21186,51 23911,145 815,16 2447,49 2447,49 l 4564,-391 c 399,-1 5478,24 5622,-351 -2484,-431 -6327,-937 -9393,-1317 l 9392,0 c 6395,0 11629,-4236 11629,-9413 l 0,-28238 c 0,-4908 -4707,-8972 -10648,-9379 1260,36 2335,222 3621,580 1614,498 2703,1049 3962,1930 1291,954 2084,1815 2859,3024 794,1324 1142,2405 1284,3845 -2,0 262,3040 259,2995 288,9652 317,9615 301,9795 12,3122 67,6295 203,9415 143,2003 386,4032 609,6033 102,1570 -57,2875 -676,4378 -2,0 -13,31 -13,31 -635,1477 -1397,2574 -2678,3819 -1361,1247 -2657,2071 -4560,2877 -2076,814 -3790,1183 -6151,1323 2383,-66 4136,-386 6278,-1135 2014,-766 3381,-1554 4871,-2787 1442,-1260 2312,-2374 3088,-3904 748,-1612 1016,-2904 994,-4602 -1,0 -316,-7178 -315,-7169 z m -302097,16582 -2756,215 c -1389,-49 -4166,-147 -4166,-147 l -169,-68 7091,0 z m -49306,0 -1712,215 c -104,-32 -364,-113 -638,-215 l 2350,0 z m 13132,-1110 c -535,-104 -27950,-248 -28522,-441 1,-6 -240,-87 -239,-87 -1257,-464 -2126,-966 -3035,-1736 -987,-896 -1544,-1695 -1906,-2802 -315,-1173 -240,-2066 5,-3237 453,-2371 581,-4599 628,-6992 l 14,-1660 0,8652 c 0,5693 1410,6588 33055,8303 z m -33055,-22598 c -26,-4648 -110,-9295 -187,-13943 l 204,-1685 c 30,-112 464,-1248 464,-1248 175,-339 353,-645 552,-935 -663,1181 -1033,2492 -1033,3868 l 0,13943 z"
          id="posters-level2-price_path2"
          style="fill:#000000;fill-rule:nonzero" />
   </g>
</svg>
