<svg id="city_chita" data-name="chita" xmlns="http://www.w3.org/2000/svg" width="52.5mm" height="52.5mm" viewBox="0 0 148.82 148.82">
  <title>chita</title>
  <g id="chita">
    <g id="_1003582928" data-name=" 1003582928">
      <path d="M58.11,41.84a32,32,0,0,0-9.61.68,50,50,0,0,1,9.61,1.56C59.3,43.77,59.3,43,58.11,41.84Z" style="fill: none"/>
      <path d="M74.44,33.9c-1.67-.65-4-0.65-6.24-0.68q-4.76,0-6,2.13c-11,.6-15.79-4.54-17.83-12.27-0.62-.74-1.08-0.74-1.39,0-0.79,8.28,3.4,13.72,10.37,17.55l-8.28,1.19c-1,.37-1.11.91-0.34,1.59Q53,50.16,59.41,48.87c0.94-.37.65,1.28,0.65,2.49-1.56,2.75-.85,5.73.88,8.76l3.15,4a20.62,20.62,0,0,0,1.19,5.75c-1.19,1.93-1.45,3.77.37,5.41,0.57,0.71,1.11,1.42,1.67,2.15,0.23,2.72,1.64,4,4.25,3.71a4.36,4.36,0,0,0,2.92.43v0h0.17c0,0.79.88-.77,0.85,0,1.36,0.09,2.18.09,2.92-.43,2.61,0.26,4-1,4.25-3.71,0.57-.71,1.11-1.42,1.67-2.15,1.79-1.64,1.56-3.46.37-5.41a19.13,19.13,0,0,0,1.19-5.75l3.15-4c1.73-3.06,2.44-6,.88-8.76,0-1.22-.28-2.86.65-2.49Q97,50.14,105.22,43.4c0.79-.68.68-1.22-0.34-1.59L96.6,40.62c7-3.83,11.14-9.24,10.37-17.55-0.31-.74-0.77-0.74-1.39,0-2,7.74-6.86,12.87-17.83,12.27-0.79-1.45-2.78-2.18-6-2.13-2.27,0-4.59,0-6.24.68-0.06.31-.51,0.28-1.08,0.2V33.9H74.44Zm-2.78,44h6.55C78.21,81.35,71.66,81.5,71.66,77.9ZM67,54.26c-1.5,1-2.66.77-3.32-.28l-0.51.68a3,3,0,0,0,4,.54c-0.09-.4-0.09-0.57-0.17-1v0Zm15.48,0c1.5,1,2.66.77,3.32-.28l0.51,0.68a3,3,0,0,1-4,.54c0.09-.4.09-0.57,0.17-1v0Z" style="fill: #fc0"/>
      <path d="M82.09,70.53l0.68-.68c1.76,3.06,2.64,5.9-2.78,7.14,0-.51,0-0.6,0-1.11,3.94-.62,3.86-2.95,2.13-5.36h0Zm1.3-13.46a11.42,11.42,0,0,0,3-1.53L86.83,56a4.34,4.34,0,0,1-3.09,1.62c-0.09-.28-0.26-0.23-0.34-0.51v0Zm0.74-4.34c1,0.09,1.42-.09,2.44,0,0.48,0,.51.11,0.09,0.4a6.05,6.05,0,0,1-3.06.88c-0.71-.45-0.11-0.68.51-1.25h0Zm-18.88,0c-1,.09-1.42-0.09-2.44,0-0.48,0-.51.11-0.09,0.4a6.05,6.05,0,0,0,3.06.88c0.71-.45.11-0.68-0.51-1.25h0ZM66,57.06a11.42,11.42,0,0,1-3-1.53L62.56,56a4.34,4.34,0,0,0,3.09,1.62c0.09-.28.26-0.23,0.34-0.51v0Zm1.84,13.46-0.68-.68c-1.76,3.06-2.64,5.9,2.78,7.14,0-.51,0-0.6,0-1.11-3.94-.62-3.86-2.95-2.13-5.36h0ZM78.77,69c-3.09-.79-5.58-0.82-7.48-0.11a4.2,4.2,0,0,0-2.13,3.34c-0.37-.06-0.74-0.11-1.13-0.14-0.11,1.16.17,1.7,2.15,2.27,0.28,0.31.45,1.19,0.74,1.53,0.23,0.82,1.28,1,1.22-.43,0.09-.45.14-0.88,0.23-1.33,0.71,0.45,1.67.11,2.64,0.14a10,10,0,0,0,3.09.14l1.28,1.5c0.09-.79.2-1.56,0.28-2.35l1.47-1.45a30.32,30.32,0,0,0-2.38-3.15ZM60.69,53.35L61.6,54c-0.28,2.78.06,5,2.13,6.55a20.2,20.2,0,0,1,3,8.42c-0.31.11-.26,0.11-0.57,0.23a11.88,11.88,0,0,0-1.67-5.44C61.77,60.29,59.53,56.83,60.69,53.35ZM68.17,58c-2.95.91-4.65,0-5.81-1.79a4.51,4.51,0,0,0,4.42,3.94,39.6,39.6,0,0,0,.51,8.36H68a13.37,13.37,0,0,1,1.53-5.87,11.83,11.83,0,0,0-1.33-4.62v0Zm20.89-1.11-1-.34c-2.89,4.17-3.2,7.37-3.69,10.6A39.81,39.81,0,0,1,89.06,56.92ZM84.93,60l-3.34-1.45a9.43,9.43,0,0,0,.79,8.7c0-1,.09-2,0.11-3,0.26-.11.48-0.26,0.74-0.37-0.11-.28-0.2-0.6-0.31-0.88-0.11-.68-0.2-1.36-0.31-2l1.3,0.34L83.4,60.18c0.51-.06,1-0.09,1.56-0.14h0ZM74.44,53.57c-0.17.23-.48,0.45-0.65,0.68l-1.7-2.55a17,17,0,0,0-5.47-3,19,19,0,0,1-3.09-2.52,1.71,1.71,0,0,0-1.16,2c-0.43,1.42.34,2.52,2.3,3.34,0.17-.51.37-1,0.54-1.56,0.2,0.11.4,0.23,0.57,0.34l1.36,1.13,1-.28c1.08,0,1.9.31,1.19,2.69,0.14,0.34.26,0.68,0.4,1a2.31,2.31,0,0,0,.57,1.45c0.62,1,.4,1.56-0.06,1.87A3.78,3.78,0,0,1,70.13,60c0.34-.31,3,5.3,2.47,4.45-0.06-.11-2.21-2.38-2.18-1.28,0.17,1.62.68,2.44,0.79,3.6,1.28,0.26,2,.26,3.23.51a6.91,6.91,0,0,0,0-.77l0.09,0.77c1.28-.26,2.21.09,3.46-0.17,0.6-.37,4.39,3.91,4.76,3.6s-1.56-2.35-2.27-3.88a2,2,0,0,1,.2-2c0.11-.45-2.21-1-2.15-1.64a4.88,4.88,0,0,1,.6-2.07c0,1.59,3-5,2.18-9,0.34,0.09.48,0.31,0.82,0.4,0.45-.37,1.59-0.88,2-1.25,0.2-.11.4-0.23,0.57-0.34,0.17,0.51.91,0.48,1.11,1,2-.82,3.37-0.71,2.95-2.13,0-.48-2-0.85-3.15-1.25-1.45-.51-2.1-1-2.58-1.11-0.48.51,1.22-.11-0.74,1.28-1-.45-1.3.37-1.45,0.94-0.26.88-1.36,0.37-1.36,1.08s-1.42.14-2.21,0.77c-1-.82-1.42-0.65-1.81.74-1.39-1.13-2,.65-1,1.33,0,0.06,0,.14-0.06.2v-0.2ZM57.8,47.2a6.61,6.61,0,0,0-6-1.67l-0.57.68a10.17,10.17,0,0,0,6.38,1.9ZM89,37.13c9.18,0.48,13.75-5.07,17-12-0.06,6-2.38,10.66-8.7,13.07L96.6,38c3.74-1.9,6.63-4.34,7.71-8C101,35,97.43,38.13,89,38.15v-1ZM92.13,47.2a6.61,6.61,0,0,1,6-1.67l0.57,0.68a10.17,10.17,0,0,1-6.38,1.9Zm-0.34-5.36a32,32,0,0,1,9.61.68,50,50,0,0,0-9.61,1.56C90.6,43.77,90.6,43,91.79,41.84ZM78.55,43.06c-1.56.17-3,.48-3.8,1.84-0.68-1.08-1.33-2.15-2-3.23-0.06-.51-3.17.31-1.62-1,0.37-.34,1.39-1.45,1.33-2-0.71-.79-1.42-1.59-2.15-2.38-0.54.6-1.08,1.19-1.59,1.81-2.3,3-.48,4.93,1.9,6.75,0.2-.77.37-1.53,0.57-2.3,0.09,2,2.24,2.89,4,4.05l4.25-2.89-0.88-.62v0Zm-3.06-7c2.3-1.28,4.62-1,6.92-.45,1.67,1.28,3.15,5.3,2.32,8.73,1.64-1.25,2.52-4.9,2.35-7.06,2.27,5.27-1.28,8.33-8.7,13a52.66,52.66,0,0,0,5.24-5.41c2.07-7.6-3.12.94-1.93,0-1.84,1.81-3.69,3.94-5.53,5.75-0.23-.31-0.45-1-0.68-1.3a9.23,9.23,0,0,1-1.08-1.28v1.28c-0.23.31-.45,1-0.68,1.3C71.89,48.7,70,46.57,68.2,44.76c0.77,1.16,1.5,2.32,2.27,3.49-1.39-1.16-2.78-2.32-4.2-3.46,0.77,2,2.66,3.71,5.24,5.41-7.71-3.09-11.4-7.17-8.7-13-0.17,2.15-.48,4.37,1.16,5.58-1.73-4.79.17-6.63,3.49-7.26,2.3-.51,4.62-0.82,6.92.45v0a6.66,6.66,0,0,1,1.08,0h0ZM60.92,37.13c-9.18.48-13.75-5.07-17-12,0.06,6,2.38,10.66,8.7,13.07L53.32,38c-3.74-1.9-6.63-4.34-7.71-8,3.29,5,6.89,8.11,15.31,8.14v-1Z" style="fill: #fc0"/>
    </g>
    <path d="M116.79,126.28H103.61V95l6.66-11.74L116.79,95v31.32Zm-85.89,0H17.72V95l6.66-11.74L30.9,95v31.32Zm28.63,0H46.35V95L53,83.23,59.53,95v31.32Zm28.63,0H75V95l6.66-11.74L88.16,95v31.32Z"/>
    <path d="M131.1,126.28H117.92V95l6.66-11.74L131.1,95v31.32Zm-85.89,0H32V95l6.66-11.74L45.21,95v31.32Zm28.63,0H60.66V95l6.66-11.74L73.84,95v31.32Zm28.63,0H89.29V95L96,83.23,102.47,95v31.32Z" style="fill: #999"/>
  </g>
</svg>
