<svg id="city_hab" data-name="hab" xmlns="http://www.w3.org/2000/svg" width="52.5mm" height="52.5mm" viewBox="0 0 148.82 148.82">
  <title>hab</title>
  <g id="hab">
    <path d="M57.94,68a3.12,3.12,0,0,1,1-.57l0.17,0.11a3.05,3.05,0,0,1-.17.57L59,68.34C62,65,66.13,69.28,69.59,68.4c1.11-.17,2.72.06,3.4,1.16a3.66,3.66,0,0,1,.51,1.11l0.17,0.11,0.17-.11c0.51-.57,0-1.39.11-2.13l0.23,0.06a5.88,5.88,0,0,0,.4,1.11,1.06,1.06,0,0,0,.23.17l0.11-.06c0.34-.88-0.06-1.73-0.11-2.66l0.11,0.06a7.68,7.68,0,0,1,.62,1.11l0.17,0.11,0.17-.06c0.4-.74.06-1.56,0.4-2.35l0.17,0.06a7.51,7.51,0,0,0,.28,2.47,2.48,2.48,0,0,0,.57.34l0.17-.17a6,6,0,0,1-.17-1.11h0.17c0.34,0.11.74,0.28,1.16,0.45l0.06,0.17a2.67,2.67,0,0,0,.06,2.18,0.31,0.31,0,0,0,.23.23l0.11-.06a7.58,7.58,0,0,1,.45-1.5h0.11c0.62,0.17,1.39.68,2,.17,0.94-1.5,2.83-1,4.34-1.16A2.06,2.06,0,0,0,87.73,67l0.11-.06a1.29,1.29,0,0,1,.51.45c1.33,1,3,1.33,4.56,2L94.76,70l0.17-.11H95a7.75,7.75,0,0,0,1,1.67h0.23a0.59,0.59,0,0,0,.28-0.34,3.83,3.83,0,0,1-.11-0.79H96.6c0.79,0.62,1.5,1.33,2.41,2l0.23-.06c0.17-.51-0.23-1-0.11-1.56l0.11-.06,0.28,0.06c0.45,0.51.94,1.11,1.45,1.67a0.61,0.61,0,0,0,.28.17c0.06-.06.28,0.11,0.34-0.11a5.94,5.94,0,0,1-.17-1.45,1.19,1.19,0,0,1,.23-0.34h0.11c0.11,0,.11.23,0.23,0.23a9.14,9.14,0,0,0,.68,1.73l0.17,0.11,0.17-.11a2.76,2.76,0,0,0,.17-0.4c-0.11-.17,0-0.34-0.11-0.51l0.17-.11,0.17,0.23c0,2.24.79,4.51,2.83,5.58a0.79,0.79,0,0,1,.17.51,1.38,1.38,0,0,1-.17.62,42.39,42.39,0,0,0-6.86,7l-0.11.06C96.8,88.3,94.76,92.21,96.6,96a3.05,3.05,0,0,0,.4.74c1.9,4.08,5.36,6.12,8,9.16a2.93,2.93,0,0,1-.34,3.23c-0.11.23-.23,0.34-0.4,0.62-2.3,3.23-7.74.45-9,4.9a4.35,4.35,0,0,0,.11,3.57,3.84,3.84,0,0,0,.34.51c0,0.68-.68,1.5-0.11,2.13a2.83,2.83,0,0,0,.74-0.74c0.34-.34.17-0.4,0.62-0.45a1.62,1.62,0,0,1,.28,1.39,3.87,3.87,0,0,0,.4.28c0.4,0,.28-0.74.57-1.16a0.79,0.79,0,0,1,.79-0.28c0.23,0.62,0,1.67.88,2.07,0.23-.17.06-1.56,0.74-1.45,0.94,1,.45,1.45.88,2.24,0.68,0.34.17-.4,0.94-1.11,0.28-.34.51-0.23,1-0.11,0.23,0.57-.17,1.39.11,2.07,0.06,0.06.23,0,.34,0.06,0.4-.4.23-1,0.57-1.45l0.11-.06c3.91-.51,8.48.23,12.1-2.18,0.11,0,.11-0.17.28-0.23,1.39-1.79,2.41-3.91,4.34-5.07a8.19,8.19,0,0,0,1.62-1.5c0.45-.06.94,0.17,1.39,0.11a5.7,5.7,0,0,1-1.11.79,13.85,13.85,0,0,1-7.85,7.37c-4.45,1.73-10.89,1.84-12.93,6.92a1.81,1.81,0,0,0,.17,1.62,2.84,2.84,0,0,0,2.18,1c4.79-2.83,10-4.22,15.05-6.07,2.66-1.9,5.07-3.69,6.86-6.75a14.28,14.28,0,0,0,1.28-2.55c1.5-9.58,2.24-19.08-1-28.49-0.68-.74-0.06-1.73.17-2.61,1.16-3.91-.51-7.91-0.62-11.88-2.61-7.74,1.84-15.34,2-23,0-6.58,1.28-13.27.17-19.9-0.23-2.07-.17-4.14-1.67-5.81-0.57-1.16-2.07-2-2.13-3.57A2,2,0,0,0,125,19a5.64,5.64,0,0,0-3.57-1.5,2.06,2.06,0,0,0-.4.17c-0.11,0-.06.17-0.23,0.23a3.16,3.16,0,0,1-1,.94,3.87,3.87,0,0,0-1.62,0,7.43,7.43,0,0,0-.79,1.5c-2,.88-5.41.23-6.41,2.83-1.56,1.16-4.14.88-5.41,2.55-0.11.57,0.45,1,.68,1.56-0.51,1.28,0,2.61.45,3.91a2.84,2.84,0,0,0,1.39.62A1.2,1.2,0,0,1,108.2,33l-0.17.06a1.6,1.6,0,0,1-.94-0.4,4.44,4.44,0,0,1-.34-1.28l-0.06-.06a3,3,0,0,0-.79.34l-0.28.28a1.22,1.22,0,0,0-.4,1l0.06,0.17a2.12,2.12,0,0,0,2.13,1.11c0.45-.11.94-0.28,1.45-0.4l-0.06.17a1.3,1.3,0,0,0-.4,1.28,1.79,1.79,0,0,0,.45.68,1.39,1.39,0,0,1-.23,1.45l0.06,0.11a2.31,2.31,0,0,0,.94-0.28,2.06,2.06,0,0,1,.51-0.45l0.17,0.06a1.53,1.53,0,0,1,0,.51l0.11,0.06c0.34-.11.68-0.4,1.22-0.62a1.42,1.42,0,0,0,.23.4l0.23-.17a5.35,5.35,0,0,0,.17-0.51c0.68-.45,1.45,0,2.18.17a1.49,1.49,0,0,1,.11,1.62c-1.56,1.11-2.78,2.35-4.39,3.46-1.16-.4-1.73-1.39-2.55-2.3h-0.06c-5-4.56-5.58-12-5.41-18.28-0.17-.34-0.17-0.45-0.28-0.62a6.47,6.47,0,0,0-2.47-2.24,4.81,4.81,0,0,0-4.22.06,2.16,2.16,0,0,0-.68.74v-0.4H56.69c-1.73,1-4.79.06-5.75,2.3-1.33,4.9-1.56,9.86-3.34,14.77-1.62,3.51-4.08,5.47-6.24,8.08a2.48,2.48,0,0,1-.57.34c-2-.68-2.89-2.61-4.22-4.14-0.57-1.11,1.84-2,2.55-1.45a2.58,2.58,0,0,0,1.28.62,1.34,1.34,0,0,0,.28-0.28,1.77,1.77,0,0,1,.88.23,0.22,0.22,0,0,0,.11-0.34,1,1,0,0,1,.68-0.11c0-.17-0.34-0.17-0.23-0.45a2.12,2.12,0,0,0,.4-0.34A2.61,2.61,0,0,0,43,37c0.28-.34.88-0.17,1.11-0.62-0.17-.11-1.5-0.4-1.16-0.79,2.07,0,2.55.23,4-1.28,0.28-.57.28-2.07-0.62-2.07-0.68.28-.68,1.45-1.33,2-0.94.23-1.67,0.23-1-.88,1.28-.51,2.18-1.39,1.84-2.95,0.11-.4.57-0.4,0.68-0.79a2.19,2.19,0,0,0-.17-1.45,6.25,6.25,0,0,0-1.22-.23,2.7,2.7,0,0,0-1.16.17c-1.33.57-2.89-.4-4.39-0.11a2.51,2.51,0,0,1-.88-1.11,0.8,0.8,0,0,1-.23-0.23c-1.79-.62-3.63.17-5.47-0.62,0.28-1.11,1.11-2.24,1-3.4l-0.17-.28c-1.73-.57-3.51.06-5.24,0.06l-0.11.11a1.85,1.85,0,0,0,.79.88,1.63,1.63,0,0,0-.17,1c0.45,0.4,1.22,1.11.94,1.9a1.21,1.21,0,0,1-1.16,0c-1-1.39-1.56-3.17-2.61-4.62L26,21.6c-2.41.11-3.29,2.72-5.36,3.06a0.44,0.44,0,0,0-.28.34,1,1,0,0,1,.88.57c-0.17.11-.45,0.11-0.79,0.28l-0.11.23a0.51,0.51,0,0,1,.45.34c0,0.28-.4.17-0.4,0.62a0.61,0.61,0,0,0,.28.17,5.76,5.76,0,0,1,1.9-.17,1.75,1.75,0,0,1,.17.74,2,2,0,0,1,.62-0.11c0,0.17.28,0.34,0.34,0.57a0.85,0.85,0,0,0,.4-0.17,2.36,2.36,0,0,1,.11.34c0.28,0,.51-0.23.57,0.17-2.13,3.74-1.22,8.59-4.28,11.48a0.53,0.53,0,0,0,.28.4,4.9,4.9,0,0,1-1.16,2.35,2.54,2.54,0,0,0,1.16-.34c0.17,0.79-.74,1.5-1,1.79,0.51,0.4,1.11-.28,1.45.11-0.17.62-1.84,1.73-2.13,3.17a2.18,2.18,0,0,1,1.39.11c-0.17.62-1,1.11-.94,2.66,0.57,0.06,1-.28,1,0.45-0.34.88-.94,1.11-0.94,2.66,0.51-.28.45-0.06,0.68,0.06a1.48,1.48,0,0,1,0,1.11,3.28,3.28,0,0,1,.88.74c0.17,2.18.62,4.45,0.79,6.69,0.34,1.67.17,3.06,0.45,4.56a2.12,2.12,0,0,0,.34.4c1.28,7,1.56,14-.4,20.92L22.51,88a2,2,0,0,0,1,0h0.06l0.17,0.34a1.24,1.24,0,0,0,.28.23,0.85,0.85,0,0,0,.4.17L24.52,89c0,1.73.17,3.4,0.06,5.13a0.79,0.79,0,0,0-.28.23,1.22,1.22,0,0,0-.23.4l0.06,0.17a0.39,0.39,0,0,0,.23.17,1.35,1.35,0,0,1,.17.4,0.83,0.83,0,0,0-.34.28,8.75,8.75,0,0,1-1.22.4,1,1,0,0,0,.11.94L23,97.2a7.8,7.8,0,0,0-1.11.06,2.67,2.67,0,0,1-.11.28,13.91,13.91,0,0,0,1,1.33L22.79,99l-0.11.06a3.39,3.39,0,0,1-1-.06,0.52,0.52,0,0,1-.17.28,6,6,0,0,0,.51.94c-0.11.34-.51,0.17-0.79,0.45v0.17c0.28,0.23.94,0.45,1.33,0.74l0.11,0.17a1.24,1.24,0,0,1-.28.17,1.51,1.51,0,0,0-.68.17c-0.06.11-.17,0.11-0.23,0.23a1.74,1.74,0,0,0,1.45,1.28v0.17l-0.06.11a5.59,5.59,0,0,1-1.22.4l-0.11.11,0.06,0.11a8.07,8.07,0,0,0,2,.51v0.17a0.72,0.72,0,0,0-.34.23,4.7,4.7,0,0,0-1,.45,0.39,0.39,0,0,0-.17.23v0.11l0.11,0.06c0.45,0.28.94-.17,1.45-0.06v0.11l-0.11.06a4,4,0,0,0-.68.17l-0.06.11,0.23,0.17a1.88,1.88,0,0,1,.94.17c0.06,1.56-.88,3.23-0.17,4.85A7.23,7.23,0,0,1,25,113.44c2.13,1.22,4.79,2,6.8,3.51,4.68,3.12,8.14,7.91,14.43,5.47a5.36,5.36,0,0,1,4,2l0.11-.11c-0.06-.68-0.74-1.45-0.79-2.13l0.11-.06a16.24,16.24,0,0,1,2.07,1.62l0.17-.06,0.11-.23a10.57,10.57,0,0,0-.51-1.79l0.11-.06A3.82,3.82,0,0,1,53.46,123L53.52,123l0.17-.11,0.11-.17a10.49,10.49,0,0,0-.51-2.13l0.17,0.06a8.26,8.26,0,0,1,.79,1.45l0.06,0.06a0.49,0.49,0,0,0,.34-0.17,3.19,3.19,0,0,0,0-.74l0.11,0.06c0.06,0.23.11,0.51,0.17,0.74a0.61,0.61,0,0,0,.34.06c-0.17-2.18.34-5-1.39-6.86-1.33-1.73-4-2.13-6.18-2.89a39.52,39.52,0,0,1-2.61-6.46c0.11-1.56,1.45-2.55,2.24-3.69,2.13-3.69,6.8-7.43,4.62-12.27a23.49,23.49,0,0,0-2.61-3.51l-0.06-.06c-1.79-2.13-2.78-5.3-4.9-7a3.2,3.2,0,0,1-.23-0.68c0.45-1,1-2,1.56-2.95,2.66-1.45,2.07-5.13,3.4-7.68L49.18,68,49.29,68a7.23,7.23,0,0,0,.4.68l0.17-.06a2.21,2.21,0,0,1,.28-1.11,5.07,5.07,0,0,1,1.16-.94l0.11,0.06,0.06,0.11a2.25,2.25,0,0,1-.62,1.33V68.4l0.23,0.11a1.48,1.48,0,0,0,.62-0.17,8.08,8.08,0,0,0,.62-0.68,0.78,0.78,0,0,0,.17-0.23,2.29,2.29,0,0,1,.94-0.51,1.14,1.14,0,0,1,.74.11v0.17c-0.23.28-.62,0.45-0.88,0.79l0.11,0.11a8.89,8.89,0,0,0,2.24-.62l0.11,0.06,1.79,0.17Zm18.11-5.9a7.09,7.09,0,0,0-2.72-2.61c-2.61-1.11-5.75-1.22-9.1-1L76.05,47,87.53,58.45c-3.34-.17-6.12-0.06-8.7,1C77.84,59.78,76.59,61.34,76.05,62.11Zm-20.18-40a0.61,0.61,0,0,1-.06-0.34A11.16,11.16,0,0,1,56.92,20l0.17,0.11a3.49,3.49,0,0,1-.28,1.62A1.66,1.66,0,0,1,55.87,22.08ZM56.1,25.2L56,25.14a0.35,0.35,0,0,1-.06-0.34,9.68,9.68,0,0,0,.94-1.33l0.06-.06a1.54,1.54,0,0,1-.11,1.33,2,2,0,0,1-.68.4V25.2h0Zm0.62,4.34a1.59,1.59,0,0,1-.79-1.39,1.27,1.27,0,0,1,.17-0.57,3.86,3.86,0,0,1,.68-0.88,21.19,21.19,0,0,1,.11,2.78Zm-19.25,5A1.69,1.69,0,0,1,37,33.28l0.11-.17A3.13,3.13,0,0,1,39.54,32a5.73,5.73,0,0,1,3,1.16,1.82,1.82,0,0,1,.06.79l-0.17.17a7,7,0,0,0-4.9.4H37.47v0Zm19.45-1.11V52.13a20.21,20.21,0,0,0,.51,3.23,6.69,6.69,0,0,0,3.12,3.34l-2.07-.34c-2-.45-4.85-1.33-6.24-3a2.47,2.47,0,0,1-.34-1.62,1.65,1.65,0,0,1,1.11.79,3.47,3.47,0,0,1,.34.23l0.06-.06,0.11-.11A33,33,0,0,0,53,51.31l0.23-.11,0.17,0.06a5.31,5.31,0,0,0,1.16,1h0.17c0.17-.06.06-0.23,0.11-0.4a1.94,1.94,0,0,1-.62-1.5l0.17-.17a2.52,2.52,0,0,1,.68.34,0.19,0.19,0,0,0,.23-0.17l-0.06-.34-0.06-.17a2.34,2.34,0,0,0-.68-0.45,1.26,1.26,0,0,1-.28-1l0.11-.06a4.25,4.25,0,0,1,1.22.57l0.11-.06-0.06-.17a4.81,4.81,0,0,1-.51-0.88l0.06-.17a1.19,1.19,0,0,1,.88.06V47.51a1.66,1.66,0,0,1-.23-0.45,1.67,1.67,0,0,1,.34-0.17l0.11-.17a0.81,0.81,0,0,0-.11-0.34,2.06,2.06,0,0,1-.68-1l0.06-.17h0.11a0.42,0.42,0,0,1,.34.11l0.17,0.11c0.06,0,.28,0,0.28-0.11l-0.11-.23A4.4,4.4,0,0,1,55,43.54l0.06-.17,0.17-.06c0.34,0.11.51,0.4,0.88,0.57h0.17l0.06-.11c-0.23-.68-0.68-1.33-1-2.07l0.11-.11a2.31,2.31,0,0,0,.88.17V41.64a2.85,2.85,0,0,1-.94-1V40.42l0.17-.06a4.32,4.32,0,0,0,.94.57l0.17-.06,0.06-.11V40.59a9.13,9.13,0,0,0-1-1c-0.17-1.33.34-2.72,0.06-4.08a2.45,2.45,0,0,1,1.16-2h0Zm34.19,25.2a6.67,6.67,0,0,0,2.95-3.29,20.27,20.27,0,0,0,.57-3.23l-0.11-19.5,0.06-.11a3.52,3.52,0,0,1,.88.94c0.06,2-.57,4-0.62,6l0.11,0.11a6.79,6.79,0,0,0,.68-0.62h0.17c0.62,1.5-1,3-.68,3.8l0.11,0.11a1.12,1.12,0,0,0,.68-0.34A11.13,11.13,0,0,1,95.39,47v0.28l0.11,0.06C96,47,96.43,46.57,97,46.2l0.11,0.06a34,34,0,0,1,.11,5.9h0.28c0.45-.28.62-0.94,1.16-1.28l0.06,0.06v0.23c-1,1-.4,2.83-1.5,4v0.17l0.17,0.11c0.4-.17.62-0.4,1-0.62L98.56,55a4,4,0,0,1-.4,1.22l-0.11.11a15,15,0,0,1-2.3.45c-0.45-.28-3.74,1.73-4.62,1.84h0Zm18.68-26.19a1.52,1.52,0,0,1,0-.88c0.79-.62,1.84-1.11,2.66-1.73a2.4,2.4,0,0,1,2.47-.45,2,2,0,0,1,1,1,4.73,4.73,0,0,1,.06.94l-0.11.11c-1.79-.62-3.51.34-5.36,0.34a1.8,1.8,0,0,1-.68.62h0Zm3.17,1a2.36,2.36,0,0,1-1.33-.45V32.83a3.8,3.8,0,0,1,3.23-.17,0.61,0.61,0,0,1,.17.28l-0.06.17a4.47,4.47,0,0,1-2,.4H113Zm11.76,65.28a1,1,0,0,1-.23-0.17,9.89,9.89,0,0,0-1.62-2.18,2.35,2.35,0,0,1-.17-2.3,11.41,11.41,0,0,1,.94-1.62l0.11,0.06c0.45,1.9.34,3.86,1,5.81v0.4h0ZM53.21,117.07c-2.61-2-5.7-1.45-8.65-2.24-2-1-3.23-2.78-4.56-4.51-0.62-.68-1.16-1.67-1.79-2.3,0.06-1.39,1.45-3.12,1.62-4.51,1.67-1.45,3.23-2.78,5-4.28,5.81-5.64,2.61-8.19,1.45-14.17-0.17-.4-1.56-2.72-1-2.89,1.73,2.66,4.39,5.9,3.8,13.44-1.84,5.9-9.35,6.52-8.87,12.76,1.73,2.07,2.66,4,5,5.47,3.34,0.06,5.75.23,8,3.23h0ZM38.38,62.65a3.34,3.34,0,0,0-.23-0.45,6.84,6.84,0,0,1-1.84.23,2.58,2.58,0,0,0,.79-0.79,1.11,1.11,0,0,1,1.33.34,1.54,1.54,0,0,0,.68-0.34,0.28,0.28,0,0,1,.34.17,4.89,4.89,0,0,0-1.11.88Zm17.06-41.3a1,1,0,0,1-.4-0.28,0.84,0.84,0,0,1-.11-0.51,2,2,0,0,1,1-1l0.17,0.06c0.06,0.11,0,.28.06,0.4a7.8,7.8,0,0,1-.74,1.33h0ZM37.87,28.83c-0.11-.17.17-0.45,0.34-0.51a0.7,0.7,0,0,1,.57.11c0.11,0.4,0,.45-0.4.62C38.1,29.06,38,29.11,37.87,28.83Zm-2.13,1.45a1.29,1.29,0,0,1-.45-0.94c-0.17,0-.34.17-0.57,0.17a2.72,2.72,0,0,1-1.5-.4L33.28,29a8,8,0,0,1,2,0,1,1,0,0,1,.4-0.28,0.4,0.4,0,0,1,.34.06c0.17,0.23-.23.4,0,0.74a0.68,0.68,0,0,0,1.11-.28,3.76,3.76,0,0,0-.23-1c0.06-.23.23-0.11,0.4,0a1.85,1.85,0,0,1-.34,2,1.07,1.07,0,0,1-1.22,0v0Zm9-.17A0.37,0.37,0,0,1,44.5,30l-0.11-.06a0.84,0.84,0,0,1,.11-0.88h0.11c0.17,0.34.4,0.45,0.62,0.88L45.18,30c-0.06.06-.23,0-0.34,0.06H44.79ZM43.11,34.5l-0.17-.17c0.23-.34.28-0.68,0.51-1.11h0.17l0.06,0.06A3,3,0,0,1,43.11,34.5Zm0.17-1.84A4.56,4.56,0,0,1,41.44,32a15,15,0,0,0,3.57.17l0.06,0.06a2.3,2.3,0,0,1-1.73.45H43.29Zm0.79,2.66a2.37,2.37,0,0,0-.79-0.11c-0.4-.06,0-0.45.45-0.51a2.06,2.06,0,0,0,1.84-.23c0.68-.57.79-1.67,1.16-1.56a0.77,0.77,0,0,1,.17.74C46.69,34.81,44.84,35.49,44.08,35.32Zm-1.84.74L42.12,36a1.5,1.5,0,0,1,.28-1.28,1.31,1.31,0,0,1,0,1.22Zm-3.69.4-0.28-.28a0.75,0.75,0,0,1,.17-0.4,6.94,6.94,0,0,1,3-.94,3.62,3.62,0,0,1,0,.79,10.39,10.39,0,0,0-2.89.79v0Zm0.79,0.94V37.28c1.11-.06,1.79-0.34,3.17-0.45L42.46,37a2.56,2.56,0,0,1-3.06.34H39.34Zm-4.62-.68a3.1,3.1,0,0,1-.34-2.3c0.17-.45,1.33-2,1.84-1.84a0.93,0.93,0,0,1-.11.51c-1,.88-1.33,3.17-0.11,3.86,0.11,0.06.57,0.23,0.4,0.4A1.8,1.8,0,0,1,34.72,36.71Zm-1.11,4.68a0.36,0.36,0,0,1,0-.34l-0.11-.17a3,3,0,0,1-.68.17l-0.11-.28a0.52,0.52,0,0,0-.34-0.06c-0.17.17-.45,0.17-0.74,0.4L31.52,41V40.76a2,2,0,0,1,.23-0.51l-0.06-.17c-0.62.17-1,.79-1.73,0.79-0.11,0-.11-0.11-0.23-0.28,0.17-.34.34-0.68,0.57-1.11l-0.06-.11a13.8,13.8,0,0,1-2.24,1l-0.11-.11A0.93,0.93,0,0,1,28,39.8a2.16,2.16,0,0,0,.68-0.74l-0.06-.17c-0.62-.11-1.33.74-2.07,0.74l-0.11-.17a3,3,0,0,1,.68-1.5c0-.23-0.11-0.57-0.11-0.88l0.17-.17L27.35,37c0.45,0.4.23,1,.28,1.56l0.11,0.06A4.38,4.38,0,0,1,29.54,38l0.06,0.11a7.86,7.86,0,0,0-.79,1.33L29,39.63c0.62-.4,1.28-0.88,2-1.33a1.11,1.11,0,0,1,.06.45A4.59,4.59,0,0,0,30.64,40l0.17,0.11a5.54,5.54,0,0,0,1.11-.94L32,39.2a1.32,1.32,0,0,0,0,.94l0.23,0.11a2,2,0,0,0,.88-0.34L33.19,40v0.79h0.17a0.78,0.78,0,0,0,.23-0.17,1.19,1.19,0,0,1,1-.06l0.06,0.11-0.06.17a1.76,1.76,0,0,1-.94.57h0ZM47,52.75c-2.89-1.62-6.12-4.08-9.69-4.39-1.67-1.39-3.74-1.45-5.75-1.73l-0.06-.11,0.23-.17c3.17-1.11,6.35.11,9.52-.06l0.11-.11c-0.11-.4-0.4-0.68-0.57-1.11V44.9a1.19,1.19,0,0,1,1.16.62c0.28,0.34.51,0.79,0.88,1.22L43,46.86c2,1.11,2.89,3.57,4.08,5.75L47,52.72Zm8.87-25.94-0.11-.06-0.06-.11a0.85,0.85,0,0,1-.17-0.4,0.76,0.76,0,0,1,.17-0.51,11.64,11.64,0,0,1,1.16-.68L57,25.11l0.11,0.11V25.4a9.42,9.42,0,0,1-1,1.33l-0.23.11v0Zm-0.28-2.47a0.76,0.76,0,0,1-.51-0.17L55,24.12a1.48,1.48,0,0,1,.17-0.62,12.07,12.07,0,0,1,1-.79l0.17,0.06v0.11a12.77,12.77,0,0,1-.4,1.39,0.27,0.27,0,0,1-.34.11ZM48,67.49c0.28-1,.88-1.73.74-2-1,.23-4.08,1.45-4.85.68,0.57-.62,1-0.88,1-1.45-0.94.23-3.74,1.79-4.45,0.57,0.57-.28.45-0.17,0.68-0.94a15.6,15.6,0,0,1-4.45.62,3.28,3.28,0,0,1,.45-1,1.37,1.37,0,0,1-1.39-.34c1.22,0.06,1.62-.4,2.61-0.28,0,0.74-1.16,1.11-.79,1.28,0.74-.34,4.79-1.39,5.19-0.94,0,0.51-.88,1-1.22,1.33,0.23,0.23,3.34-.88,4.08-0.94a0.3,0.3,0,0,1,.34.17c-0.17.4-1,1.28-1.11,1.56,0.11,0.4,3.69-1.16,4.56-1A3.57,3.57,0,0,1,48.67,67a9.94,9.94,0,0,0,1-.11,1.91,1.91,0,0,1-1.73.51Zm25.31,0.88a2.51,2.51,0,0,1-1.11-.88V67.15c0.06,0,.23-0.11.4-0.17L72.85,67a2.34,2.34,0,0,1,.4.62,1,1,0,0,1,.17.57l-0.11.11Zm-4.56-.45-0.28-.06a1,1,0,0,0-.34-0.34,2.58,2.58,0,0,1-.88-0.11,1.63,1.63,0,0,1,1.67-.23,1.14,1.14,0,0,1,.51.4v0.17l-0.11.11C69.17,67.92,68.94,67.86,68.77,67.92ZM74,67.18a2.56,2.56,0,0,1-.79-0.57L73,66.27V66.1c0-.06.17-0.06,0.28-0.17l0.23-.06L73.84,66,74,66.1a1.67,1.67,0,0,1,.17,1.11H74v0Zm-2.72-.28A4.91,4.91,0,0,1,70,66.33V66a1.47,1.47,0,0,1,.62-0.79,5.35,5.35,0,0,0,.51.17,1.12,1.12,0,0,1,.45.94,0.84,0.84,0,0,1-.11.51l-0.23.06Zm4.34-.28a2.55,2.55,0,0,1-1-1.62,0.61,0.61,0,0,1,.28-0.17,1,1,0,0,1,.57.11,2.3,2.3,0,0,1,.17,1.62l-0.06.06h0Zm-3.12-1.39-0.17-.17c-0.06-.06-0.06-0.23-0.17-0.4l-0.17-.11c-0.11.06-.23,0-0.4,0.06a0.67,0.67,0,0,1-.28-0.28,2.91,2.91,0,0,1,.34-1.11,0.34,0.34,0,0,1,.34.17,1.86,1.86,0,0,1,.94,1.5l-0.11.28a0.51,0.51,0,0,1-.28.06h0Zm0.79-2.07A0.3,0.3,0,0,1,73,63L73,62.93a1.23,1.23,0,0,0-.68-0.11l-0.17-.11a1,1,0,0,0-.17-0.23A0.62,0.62,0,0,1,72.11,62l0.11-.11a4.32,4.32,0,0,1,1.11.51l0.11,0.23V63l-0.17.17h0Zm35.8-30a0.58,0.58,0,0,1-.28-0.34,1.33,1.33,0,0,1,.11-0.62L109,32l0.23,0.06a2.34,2.34,0,0,1-.11,1H109v0Zm1.62,0.62a1.42,1.42,0,0,1-.4-0.23,1,1,0,0,0-.17-0.34,1.08,1.08,0,0,1,.17-0.51,0.81,0.81,0,0,0,.23-0.11,2.85,2.85,0,0,1,.57.79,0.4,0.4,0,0,1-.06.34Zm4.62-8a0.48,0.48,0,0,1-.34-0.11,1.59,1.59,0,0,1-.45-0.68l0.17-.17a0.81,0.81,0,0,1,.23.11L114.94,25a1.66,1.66,0,0,0,.45.23l0.17-.06a2.67,2.67,0,0,1,.17-0.51l0.11-.06H116l0.17,0.23a1.1,1.1,0,0,1-.17.68A0.84,0.84,0,0,1,115.29,25.71Z"/>
    <path d="M125.69,95.41l-0.28-.17a12.13,12.13,0,0,1-.45-2.66l0.11-.06c0.23,0,.51-0.06.79-0.06l0.23-.11a3.36,3.36,0,0,1,.45-0.45L126.65,92a4.17,4.17,0,0,1,.57,2.61l-0.17.17c-0.45.11-.88,0.51-1.39,0.68h0Zm0.34,9.3a6.34,6.34,0,0,1-1.33-1.62,1.35,1.35,0,0,0,.11-0.51,0.88,0.88,0,0,1,.45-0.11,0.85,0.85,0,0,1,.4.17l0.17,0.17a3.38,3.38,0,0,1,.17,1.84v0.06h0Zm1.5-1.9a0.61,0.61,0,0,1-.4-0.17c-0.11-1.22-2.07-2-1.11-3.34a0.83,0.83,0,0,1,.34-0.28,1.66,1.66,0,0,1,1.16.4c0,1.11.57,2.18,0.28,3.34Zm-21.06,26.25a3.42,3.42,0,0,1-.94-0.23,8.83,8.83,0,0,0-.79-1.67,0.37,0.37,0,0,1,.11-0.28,16.62,16.62,0,0,1,2-1.28,2.37,2.37,0,0,1,.45.34v0.17a3.47,3.47,0,0,1-.23.34l0.11,0.23a1.31,1.31,0,0,0,.4.4,1,1,0,0,1,.06.4l0.11,0.17a1.57,1.57,0,0,1,.51.06l0.11,0.17a1.33,1.33,0,0,1-1,1.11c-0.28.06-.57,0-0.94,0.06Zm5.3-2.18a1,1,0,0,1-.23-0.17c-0.28-.4-0.45-1.16-1.16-1.22l-0.06-.17a2.78,2.78,0,0,1,.45-1.28,7.57,7.57,0,0,0,1.9-.4,2.74,2.74,0,0,1,1,2.47l-0.06.06a3.22,3.22,0,0,0-1.56.68h-0.28v0Zm5.75-2a1.2,1.2,0,0,1-.88-0.74c-0.06-.34,0-0.68-0.06-1a1.08,1.08,0,0,1-.4-0.62,5.22,5.22,0,0,1,.17-0.51c0.4-.34,1.22-0.11,1.62-0.74a2.46,2.46,0,0,1,.28-0.06,3.87,3.87,0,0,1,1,.94,2.54,2.54,0,0,0-.06.68l0.11,0.11a5.82,5.82,0,0,1,.79.23v0.11A4.28,4.28,0,0,1,118,125h-0.45v0Zm5.58-3.8L123,121a0.56,0.56,0,0,0-.11-0.34,5.35,5.35,0,0,0-.51-0.17,2,2,0,0,1-.23-0.51,0.61,0.61,0,0,0-.28-0.17l-0.06-.23a3.37,3.37,0,0,0-.45-0.23l-0.06-.17a1.48,1.48,0,0,1,.17-0.45,5.83,5.83,0,0,1,1.62-1.73,0.69,0.69,0,0,1,.51.17c0.23,0.34.11,0.68,0.34,1.11a2.11,2.11,0,0,1,.94.17l0.17,0.23a0.93,0.93,0,0,1,.11.57,7.74,7.74,0,0,1-1.73,1.9h-0.28Zm2-7.74a0.53,0.53,0,0,1,.23-0.4l0.23,0.11a3.16,3.16,0,0,0,.28.45c0.17,0.06.34,0.06,0.45,0.11a1.19,1.19,0,0,1,.34-0.23,0.69,0.69,0,0,0,.51.17l0.11-.11c0.06-.57.4-1,0.4-1.56l-0.17-.17a4.76,4.76,0,0,1-1.79-.11,0.36,0.36,0,0,1,.11-0.34,6.83,6.83,0,0,0,1-.62,1.93,1.93,0,0,0,.45-0.94v-0.11a5.18,5.18,0,0,1-.79-0.4v-0.17c0.23-.11.28-0.17,0.4-0.23,0.11-.23.28-0.34,0.34-0.51a1.57,1.57,0,0,0,.88-0.06,2.9,2.9,0,0,0-.11-2.18c-0.28-.06-0.51.17-0.68,0.11a2.91,2.91,0,0,0-.68-0.28,1.57,1.57,0,0,0-.45.28c-0.17.23-.28,0.4-0.4,0.57a1.77,1.77,0,0,0-.23.88c0.11,0.23.23,0.34,0.28,0.45a1.08,1.08,0,0,1,.45.17l0.06,0.11c-0.28.34-1,.34-1.22,0.74a2.25,2.25,0,0,0,1.39.88v0.23a2.93,2.93,0,0,1-2.35.51,0.27,0.27,0,0,0-.11.34,1.19,1.19,0,0,0,.28.4c0.34,0.23.74,0.17,1.11,0.4l-0.06.28c-0.57.28-1.16,0.11-1.73,0.4v0.11l0.06,0.11c0.28,0.11.88,0.28,1,.34l0.34,0.23Zm-18.85,8a3.74,3.74,0,0,1-1.79-.51,1.06,1.06,0,0,1-.17-0.23,3.3,3.3,0,0,1,1-2.61,1.87,1.87,0,0,1,1.56-.11l0.17-.11c-0.51-1-.79-0.74-1.56-1.39h-0.17c0,1.67-2.13,2.07-1.84,3.91l-0.11.11a1.88,1.88,0,0,1-.88-0.28c-0.79-.88-0.28-2.24.4-3.06a7.81,7.81,0,0,1,1.84-.74l0.06-.11a0.94,0.94,0,0,0-1.28-.68c-0.88,1-1.84,1.9-2,3.46a1.29,1.29,0,0,1-.62.34c-0.62-.34,0-3.12.17-3.57,0.79-.68,1.16-2.18,2.55-2.24,2.83-.06,6.8,1,8.7-1.84a16.87,16.87,0,0,0,2-3.17c0.62-1.11,1.67-2.35.88-3.57a5.59,5.59,0,0,0-1.5-1.28,61.09,61.09,0,0,1-6.29-2.72c-2.47-1.33-4.39-2.61-5.75-4.68-1.73-3.23.11-6.8,2.13-9.58,1.84-3.91,6.35-6.69,6.07-11.48a3.11,3.11,0,0,1-.62-2.3L109,72.79l-0.17.06a1.71,1.71,0,0,0-.4,1.56c0.34,1,.68,1.9.17,2.78l-0.11.06a7.61,7.61,0,0,1-3.63-5.9,1,1,0,0,1,.88.11,4.16,4.16,0,0,1,.57.74,1.76,1.76,0,0,0,.34.23,0.86,0.86,0,0,0,.23-0.23,3.54,3.54,0,0,1,.23-2.72l0.17-.11c0.94,0.34,1.28,1.45,1.84,2.35a0.61,0.61,0,0,0,.28.17,0.87,0.87,0,0,0,.4-0.28,8.41,8.41,0,0,1-.28-1.79l0.11-.11,0.06-.06h0.17a18.49,18.49,0,0,1,1.56,1.16l0.17-.17-0.11-.28c-0.34-.4-1.16-0.79-1-1.62a0.93,0.93,0,0,1,.11-0.51c0.11-.11.17,0,0.34,0.06a1.89,1.89,0,0,0,.17.88l0.17,0.11,0.11-.06,0.06-.11a4.55,4.55,0,0,1,.11-1.22l0.11-.06c0.17,0.28.11,0.62,0.28,1h0.23a13.74,13.74,0,0,1,.23-1.5,0.83,0.83,0,0,0,.28-0.17l0.06,0.06a3.49,3.49,0,0,1,.06.74l0.17,0.17,0.28-.06a8.72,8.72,0,0,0,0-1.22l0.17-.17,0.17,0.06a1.24,1.24,0,0,0,.28.23H114c0-.68,0-1.73.79-2.13a9,9,0,0,1,2.3-.74c0.11,0,.17-0.17.06-0.34a6.86,6.86,0,0,0-2.95.4c-0.34.28-.62,0.88-1,1.22a2.86,2.86,0,0,1-2.47,1,4.06,4.06,0,0,1-1.16-.45l-0.28.11a8.3,8.3,0,0,1-.62,2.47l-0.11.06c-1.11-.23-1.84-1-2.83-1.5l-0.17.06c0.06,0.74.11,1.56,0.11,2.3l-0.11.11a2.87,2.87,0,0,1-2-1.9,5.35,5.35,0,0,1-.17-0.51L103.1,67l-0.28.11-0.11.17c0,0.88.28,1.79,0.23,2.72l-0.11.17L102.53,70c-0.4-.79-1.39-1.28-1.28-2.35l-0.17-.17H100.8c-0.06.06-.06,0.17-0.17,0.34a11.65,11.65,0,0,0,.11,2,0.93,0.93,0,0,1-.11.51l-0.23.06-0.11-.06A5.52,5.52,0,0,0,100,69.7c-0.4-.45-1.28-0.57-1.67-1.16A3.47,3.47,0,0,1,98,68.31l-0.23.11c0,0.62.34,1.28,0.28,2l-0.11.06c-2.3-2.35-6.29-3.17-9.47-3.86l-0.11-.17a3.13,3.13,0,0,1-.06-1l-0.11-.17L88,65.14a0.84,0.84,0,0,0-.51.11,3.2,3.2,0,0,0-.45.94,0.74,0.74,0,0,1-.45.34,19.3,19.3,0,0,1-4.34.4L82,67a3.64,3.64,0,0,0-.45,1.22l-0.11.06a1.63,1.63,0,0,1-1.73-.23,0.68,0.68,0,0,1-.28-0.28,1,1,0,0,1,.23-1c0.06-.11.23-0.23,0.34-0.4a7.21,7.21,0,0,1,.94-0.57L81,65.74a1.58,1.58,0,0,0-.4-0.74,0.39,0.39,0,0,0-.23-0.17H80.16c-0.68.34-.62,1.33-1.11,2a0.44,0.44,0,0,0-.23.17,1.62,1.62,0,0,1-1.33-1.11,1.25,1.25,0,0,1,.68-1.11c0.34-.23.79-0.45,1.22-0.68L79.51,64a8.39,8.39,0,0,1-.45-0.74,0.84,0.84,0,0,0-.74,0c-0.28.62-.34,1.39-1.16,1.62a5.22,5.22,0,0,1-.51-0.17,1.45,1.45,0,0,1-.34-0.88,1.5,1.5,0,0,1,.88-1.39,3.51,3.51,0,0,1,3.34-2.66c1,0,2.07,0,3.17-.06V60a6,6,0,0,0,1-.06,2.36,2.36,0,0,1,.11.34L85,60.35a3.83,3.83,0,0,1,.79-0.11,7.66,7.66,0,0,1,.23.88l0.11,0.06,0.17-.06A1.59,1.59,0,0,1,87,60.66l0.34,0.11,0.06,0.06a4.89,4.89,0,0,0-.17,1.33l0.11,0.06c0.57-.4.74-1.39,1.62-1.56L89,60.72l0.06,0.11a3.44,3.44,0,0,1-.88,2V62.9a1.37,1.37,0,0,0,.57.34l0.28,0.06c0.28-1.11.74-2.41,2-2.78a2.76,2.76,0,0,1,.68-0.06l0.06,0.11a3.37,3.37,0,0,0-.23.45,3.12,3.12,0,0,0-.51.4,5.68,5.68,0,0,1-.4,1.84l0.11,0.28c0.17,0.11.28,0.34,0.51,0.51L91.36,64a4.88,4.88,0,0,1,.45-1.28c0.06-.11.23-0.17,0.34-0.34a2.36,2.36,0,0,1,.34-0.11c0.51-.23.28-0.94,0.57-1.45,0.68-.74,1.16-1.67,2.35-2,0,1.11-.88,2.07-1.22,3.06L94.37,62v0.23H94.31a1,1,0,0,1-.11.28,1.24,1.24,0,0,0,.28.23V62.9c-0.11.06-.23,0.17-0.45,0.28a1,1,0,0,1-.17.23,2.85,2.85,0,0,1,.11.68,0.36,0.36,0,0,0,.34,0l0.06,0.06a2.47,2.47,0,0,1,.45,1,1.18,1.18,0,0,0,.57.45h0.06a6.4,6.4,0,0,0-.17-2.07A2,2,0,0,1,95.5,63c1.5-.62.57-2.95,2.35-3.57L98,59.27a2.08,2.08,0,0,1,.62-1.9,0.78,0.78,0,0,1,.51,0l0.06,0.11a3.33,3.33,0,0,1-.62,1.22v0.17a2.62,2.62,0,0,1,.4.4,0.93,0.93,0,0,1-.11.51,3.14,3.14,0,0,1-.45.34,1.41,1.41,0,0,0-.06.51c-0.4.28-.62,1-1.11,1.5l0.06,0.17,0.17,0.06a0.62,0.62,0,0,0,.34-0.17l0.17,0.17-0.11.23a1.84,1.84,0,0,0-.51.45v0.28l0.23,0.17a1.67,1.67,0,0,1-.45.45,0.79,0.79,0,0,1-.23.28l0.06,0.17a1.46,1.46,0,0,0,.28.11c0.11,0.17-.06.28,0.06,0.45L97.37,65l0.34-.17A0.31,0.31,0,0,1,98,65a7.18,7.18,0,0,0,.62.74l0.17-.06A1.63,1.63,0,0,0,98.84,65c-0.11-2.72,2.35-4.45,2.66-7a1.84,1.84,0,0,1,.57-0.74c0.11,0.79-.23-0.34-0.28-0.51a0.55,0.55,0,0,0,.28-0.34,2.58,2.58,0,0,1,.11-0.88,2.24,2.24,0,0,1,1-.57h0.11l0.06,0.11a4,4,0,0,1-.94,1.9l0.06,0.11a1.53,1.53,0,0,1,.51,0l0.11,0.23a2.06,2.06,0,0,1-.17.4,0.47,0.47,0,0,0-.28.28,7,7,0,0,1-.45,3l0.06,0.28,0.11,0.06a0.88,0.88,0,0,0,.34-0.17l0.06,0.11c-0.06.23-.23,0.28-0.28,0.51a8,8,0,0,0,.11,1.62,1,1,0,0,0,.57.06c0.11,0.17.17,0.17,0.28,0.34a3.25,3.25,0,0,1,.4.23L104,64V63.92c-1.28-2.41.74-4.9,0.94-7.37a5.7,5.7,0,0,0,1.73-2.47l0.11,0.06a1.11,1.11,0,0,1,.06.45,1.14,1.14,0,0,0-.11.34,1.49,1.49,0,0,1,0,1c0.06,0.17.23,0.06,0.4,0.11v0.11a2.55,2.55,0,0,0-.34.68L106.84,57c0.06,0.06.17,0.11,0.23,0.17,0,0.28-.23.51-0.23,0.79a0.51,0.51,0,0,1,.34.28c0.06,0.11-.17.23,0,0.4h0.11a0.59,0.59,0,0,0,.23-0.17l0.06,0.06a1.7,1.7,0,0,0-.23.94l0.11,0.11a3.49,3.49,0,0,1,.79-0.79h0.4l0.11-.11c-0.23-.51-0.45-1.22-0.68-1.79-0.28-1.79.57-3.46-.06-5.19A6,6,0,0,1,111.49,48a7.31,7.31,0,0,1,2.83-.62l0.11-.11a2.11,2.11,0,0,1-.17-0.88c1.16-.62,2.47-1.45,2.66-3.06h-0.17c-2.07,2.61-6.29,2.89-9,4.85-1,1-1.9,2-2.89,3.12a1.57,1.57,0,0,1-1.28.79l-0.06-.17a2.81,2.81,0,0,1,.51-1.22,10.68,10.68,0,0,1,2-3.86,22.41,22.41,0,0,1,6.75-4.9c2.47-1.22,2.66-5,5.07-6.07l0.06-.11V35.66a1,1,0,0,1-.34-0.17,4.38,4.38,0,0,0-1.62,1c-2.07-1.28-4.14-.45-6.24-0.57a1.85,1.85,0,0,1-.4-0.94,0.62,0.62,0,0,1,.17-0.51c2.07-.79,5.24,1.56,6.86-1a4.47,4.47,0,0,0,.4-3.91A2.59,2.59,0,0,0,114.55,28c-1.9,0-4,1.62-5.36,2.83a1.77,1.77,0,0,1-.57.28,1.56,1.56,0,0,1-1.28-1,3.34,3.34,0,0,1,.17-2.55,1.54,1.54,0,0,1,.57-0.45l0.06-.11a4.14,4.14,0,0,1-.51-0.74,0.37,0.37,0,0,1,.06-0.34,5.7,5.7,0,0,1,.94-0.45,12,12,0,0,0,2.61-.4,0.92,0.92,0,0,1,1-.28,4.41,4.41,0,0,0,1.22.23l0.23,0.11a2.73,2.73,0,0,0,.68.88,2,2,0,0,0,1.5,0,2.32,2.32,0,0,0,.74-1l0.11-.11a17.5,17.5,0,0,1,1.84-.45c0.17-.06.06-0.23,0.11-0.4a1.89,1.89,0,0,0-.34-0.17,3.07,3.07,0,0,1-2.95-.28l-0.17-.11a0.31,0.31,0,0,0-.28.17c-0.94.4-1.79,0.94-2.78,0.51a0.86,0.86,0,0,1,.06-0.74l0.11-.17a16.62,16.62,0,0,1,4-1.28h0.11l0.06,0.17a1.46,1.46,0,0,0-.28.68V22.9h0.17a6.56,6.56,0,0,0,1-1.11,1.66,1.66,0,0,1,.45-0.23h0.06l0.11,0.17c0,0.34-.06.62-0.06,1h0.34c0.4-.57.4-1.39,0.94-2.13l0.11-.06,0.06,0.06c0.62,0.62-.4,1.56,0,2.3l0.11,0.11,0.23-.11a3.14,3.14,0,0,1,.57-2,3.23,3.23,0,0,1-.06-0.74,1.24,1.24,0,0,1,.28-0.17,7.91,7.91,0,0,0,.51-1.39,0.76,0.76,0,0,0,.28-0.17,2,2,0,0,1,2.24.79,2.22,2.22,0,0,1,.45,2.13,1,1,0,0,1-.28.4,1.49,1.49,0,0,1-1.22.4h-0.45l-0.23.17v0.28a3.9,3.9,0,0,0,2.24-.34h0.11v0.28a20.59,20.59,0,0,0-2.18,2.24l0.06,0.17c0.74,0.17,1.16-.62,1.79-0.94a2.29,2.29,0,0,0,0,.62,2.08,2.08,0,0,1-.4.94c-0.28.28-.88,0.4-1.11,0.68l-0.06.28,0.17,0.11a3.73,3.73,0,0,0,1.39-.4,0.63,0.63,0,0,0,.28-0.28,1,1,0,0,0,.23-0.17h0.17a3.74,3.74,0,0,1-1.22,2.3c0.06,0.17.17,0.17,0.23,0.34a1.11,1.11,0,0,0,.45.06l0.23-.11a10.13,10.13,0,0,1,1.22-1.28h0.17l0.06,0.06a16.39,16.39,0,0,1-2.83,3.8v0.17a1.57,1.57,0,0,0,.45.28c0.23,0.06-.11.34,0.06,0.51a0.36,0.36,0,0,0,.34,0,7.89,7.89,0,0,1,.34-0.74,2.26,2.26,0,0,1,.74-0.4,0.85,0.85,0,0,0,.17-0.4,1,1,0,0,0,.28-0.11,5.23,5.23,0,0,1,.28-0.45c0.17,0,.45.06,0.62,0.06A2.76,2.76,0,0,1,125,32.06a12.92,12.92,0,0,0-2.78,2.47,0.89,0.89,0,0,0,.45.28l0.06,0.11a0.81,0.81,0,0,1-.11.34l0.06,0.17,0.11,0.11,0.17-.06a1.89,1.89,0,0,0,.17-0.34,1.47,1.47,0,0,0,.62-0.57l0.23-.17,0.17,0.11a0.36,0.36,0,0,0,0,.34l0.11,0.06a5.13,5.13,0,0,0,.34-0.62l0.11-.06a0.94,0.94,0,0,0,.68,0,5.27,5.27,0,0,1,.23-0.74l0.23-.11a2.56,2.56,0,0,1,.62.17,1.88,1.88,0,0,1-.68,1c-0.45.94-1.5,1.39-2.55,2a12.17,12.17,0,0,0-1.28,2,4.55,4.55,0,0,0-2.66,2.61,6.55,6.55,0,0,1-1.22.74l-0.11.17a4.48,4.48,0,0,0,2.18-.4,2.58,2.58,0,0,0,.74-0.88,2.11,2.11,0,0,0-.06.88h0.11a2.25,2.25,0,0,0,.62-1.33l0.23,0.06a1.08,1.08,0,0,1-.17.51,0.28,0.28,0,0,0,.17.34l0.17-.06a9.75,9.75,0,0,1,.4-1l0.17-.17c0.17,0,.11.17,0.23,0.34h0.23a1.88,1.88,0,0,1,.28-0.88l0.11-.11c0.11,0.17,0,.34.11,0.45h0.28l0.11-.17a6.36,6.36,0,0,1,.28-0.74l0.11-.06a3.23,3.23,0,0,1,.74.06,1.08,1.08,0,0,1,.45-0.17v0.11c0,0.79-.88,1.16-1.45,1.67a2.81,2.81,0,0,0-1.9,2c-1,.68-2.18,1.16-2.83,2.24A6.54,6.54,0,0,1,115.57,46c-0.06.11,0,.23-0.06,0.34a2.07,2.07,0,0,0,1.73.23,1.81,1.81,0,0,1,1.22-.68l0.11,0.17a3.58,3.58,0,0,1-.23.51l0.06,0.17h0.23a3.9,3.9,0,0,1,.94-0.79v0.11c0,0.62,0,1.11.62-.4a0.36,0.36,0,0,1,.34-0.11l0.06,0.11c-0.68,1.45.28,0.68,0.51-.28a9.92,9.92,0,0,0,1.84-1.62h0.23a0.37,0.37,0,0,0,.34-0.06,13,13,0,0,1,2-1.28l0.06,0.17c-0.57,2.61-3.86,2.47-4.79,4.73-0.45.79-1.9,0.88-2.47,1.67-0.51,1.79-3.12,1.73-4.56,4.14a5.88,5.88,0,0,1-.57.23,1.8,1.8,0,0,0-.28.34l0.06,0.17L113,54a4.35,4.35,0,0,0,1.16-.11,11.81,11.81,0,0,1,1.33-1.33h0.23c0.06,0.06.88,0.28,1,.34l0.17-.06a3.12,3.12,0,0,1,.51-0.79l0.11-.11a5,5,0,0,1-.11.88c0.06,0.06.17,0.11,0.28,0.23l0.11-.06c0.34-.62.74-1.45,1.11-2.24h0.23a1.52,1.52,0,0,1-.23,1.16L119,52l0.11-.06c0.17-.4.4-0.79,0.62-1.22h0.17a3.23,3.23,0,0,1-.06.74L120,51.68H120a6.91,6.91,0,0,0,.57-1.22,1.14,1.14,0,0,1,.62-0.51L121.35,50c-0.17.34-.23,0.62-0.45,1L121,51.22l0.06,0.06,0.28-.11a4.06,4.06,0,0,0,.68-1.5,4.77,4.77,0,0,1,2.18-.74L124.27,49A7.38,7.38,0,0,1,121,52.33c-0.23.11-.45,0-0.74,0.11a2.38,2.38,0,0,0-1.9.94c-0.28,1.39-2,1.28-2.55,2.47a2.26,2.26,0,0,0-.23.17,1.37,1.37,0,0,0-1,.06,10.14,10.14,0,0,0-.74.79c0.11,0.11,0,.23.11,0.34L114,57.26a7,7,0,0,0,1.33-.4l0.11,0.06,0.11,0.28a1.43,1.43,0,0,0,1,.28,0.8,0.8,0,0,0,.4-0.45,1,1,0,0,1,.28.11l0.17-.11a1.24,1.24,0,0,0,.17-0.28l0.23-.23a0.44,0.44,0,0,1,.23.17l0.17-.06a2.18,2.18,0,0,1,.28-0.68l0.11-.11c0.28,0,0,.4.28,0.4l0.17-.06a1.68,1.68,0,0,1,.23-0.62,0.59,0.59,0,0,0,.23-0.17h0.11a1.13,1.13,0,0,1,.06.62l0.17,0.11a8.66,8.66,0,0,0,.34-1.16l0.11-.06L120.42,55a0.87,0.87,0,0,1,.23.57l0.17-.11L121,55.3l0.23,0.06a1.12,1.12,0,0,0,.68-0.34,2.12,2.12,0,0,1,.4.34,1.19,1.19,0,0,0,.23-0.34,2.39,2.39,0,0,1,1.39-.45v0.28c-1.5,3.34-6.52,1.5-7.63,5.64a17.07,17.07,0,0,1-2.83,1.22l-0.06.06,0.06,0.28,0.17,0.11c0.68-.23,1.45.11,2.18-0.28a1.53,1.53,0,0,0,0,.51H116a2.46,2.46,0,0,0,.74-1,0.39,0.39,0,0,1,.28-0.17h0.17A1.76,1.76,0,0,1,117.5,61l0.11,0.17a0.52,0.52,0,0,0,.06.4l0.17,0.06a6.25,6.25,0,0,0,.45-1.11l0.11-.06c1.62,0.51,2.35-.45,3.17-0.06l0.17-.06a0.8,0.8,0,0,0,.23-0.23,2.93,2.93,0,0,1,.74-0.34l0.17,0.06L122.94,60a2.06,2.06,0,0,1-1.45,1.79c-0.79.28-1.5,0.62-2.35,1a5.45,5.45,0,0,0-1.79,2c-0.06,1.84-2,2.18-3.4,2.83a0.72,0.72,0,0,0-.23.34l0.06,0.06a0.39,0.39,0,0,0,.23.17,12.82,12.82,0,0,0,1.5.06l0.06-.06a1.06,1.06,0,0,0,.17-0.23l0.17-.11a0.69,0.69,0,0,1,.51.17h0.17l0.17-.11a1,1,0,0,1,.34-0.34,2,2,0,0,0,.68.17c0.68-.45,1-0.57,1.67-1h0.4a1,1,0,0,0-.06.68l0.06,0.06,0.17-.11a8.55,8.55,0,0,0,.68-1.45,1.62,1.62,0,0,1,1.28-.4l0.11,0.06a21.46,21.46,0,0,1-1.39,2.24c-0.79.62-1.9,0-2.83,0.68a10,10,0,0,0-.68,1c-2,.4-4.28.45-5.64,2.3a4.55,4.55,0,0,1-1.73.23l-0.11.17a1.86,1.86,0,0,0,.34.45,1.82,1.82,0,0,0,1.79.11c0.11-.06.23-0.17,0.4-0.28,2.61-1.73,5.53.4,8.25-1.56a10,10,0,0,1,1.33-.06l0.06,0.34c-0.68,1-1.79,1.5-2.72,2.35-0.79-.57-1.73-0.11-2.55-0.17-0.23-.11.06-0.4-0.06-0.51s-0.11.11-.34,0.23h-0.11l-0.23-.17-0.17.06a5,5,0,0,1-2,1,5.22,5.22,0,0,0-1.39,1.45,2.67,2.67,0,0,0-.28.11c-0.62,0-1.33-.51-2-0.4v0.17a3.41,3.41,0,0,0,2.89,1.5c1.9-.11,3.8-1.62,5.75-0.23a0.93,0.93,0,0,0,.51-0.11,1.05,1.05,0,0,1,.45-0.4c1,0.06,2.13-.62,3.17-0.74l0.06,0.17c-0.51.62-1.28,1.16-1.84,1.9a1.87,1.87,0,0,0-1.62.34l-0.17-.11a1.08,1.08,0,0,0,.17-0.45l-0.17-.06a1.84,1.84,0,0,0-.74.74l-0.17.17a0.8,0.8,0,0,0-.23-0.23l-0.17.06a21,21,0,0,1-2.72,1h-0.17a2.13,2.13,0,0,1,.06-0.57l-0.06-.06-0.28.11c-0.68,1.22-2,1.84-3.34,2.61a0.72,0.72,0,0,0-.23.34l0.06,0.11c0.79,0.34,1.73-.34,2.47-0.88,2.55-.06,5.13,1.11,7.74,0,0.4,0.17.74,0.4,1.16,0.62l0.17,0.23a1.31,1.31,0,0,1-.28.4,1.41,1.41,0,0,1-.94-0.11,1.55,1.55,0,0,0-.28-0.23,5.7,5.7,0,0,0-1.11.79l-0.06-.06a0.37,0.37,0,0,1,.11-0.28l-0.17-.17-0.17.06c-0.28.23-.57,0.57-0.94,0.88,0.11-.28.28-0.4,0.45-0.74l-0.11-.17-0.06-.06a0.49,0.49,0,0,0-.34.17,9,9,0,0,0-1,1h-0.17l-0.06-.11a2.22,2.22,0,0,1,.45-0.57L118,82c-0.28.17-.62,0.34-0.94,0.57L117,82.52a0.61,0.61,0,0,0,.17-0.28l-0.06-.06-0.17-.11c-0.28.06-.51,0.34-0.88,0.45a0.24,0.24,0,0,1-.17-0.17,1.44,1.44,0,0,0-.68-0.11l-0.28.11c-1.11,1.39-2.66,2.83-4.73,2.35l-0.23.23L110,85.1a6.49,6.49,0,0,0,3.29.74c0.74-.28,1.28-1,2.07-0.79,2.35,1.67,4.62-1.11,6.92.51a1.55,1.55,0,0,0,.79-0.23l0.28,0.11,0.06,0.17a3.25,3.25,0,0,1-.45.51,0.76,0.76,0,0,0-.28.17,1.57,1.57,0,0,0-.88.06,0.48,0.48,0,0,1-.34-0.11,9,9,0,0,1-1.67,1L119.74,87l-0.11-.11h-0.17a2.39,2.39,0,0,0-.68.79c0,0.06-.17.06-0.28,0.17l-0.11-.11c0.11-.23.28-0.23,0.4-0.45l-0.11-.17c-0.57.28-1.11,0.23-1.73,0.57l-0.11-.28H116.7a1.57,1.57,0,0,0-.51.28c-0.06,0-.28,0-0.28-0.17a3.14,3.14,0,0,0,.34-0.45c-1.79.74-3.69-.17-4.85,1.73a6.81,6.81,0,0,1-2.66,1.11l-0.06.17,0.06,0.17c1.5,1,3.12-.62,4.62-0.74,2.35,1.33,4.73.88,7.09,1.11v0.17c-1.22,1.67-4.85,0-6.75.62-1.39.94-1.9,3-4,3.06l-0.11.17,0.11,0.17a2.81,2.81,0,0,0,2.66-.28c1-.62,2.41-1.39,3.57-0.88a11.89,11.89,0,0,0,2.95,1.45,2.47,2.47,0,0,1,.34.4,1.24,1.24,0,0,1-.28.17,4.06,4.06,0,0,0-1.9.68l-0.17-.11,0.23-.11c0.06-.17.23-0.28,0.34-0.51l-0.11-.17a9.37,9.37,0,0,0-1.11.74l-0.11-.06a2.42,2.42,0,0,0,.62-0.68l-0.06-.11h-0.06a2,2,0,0,0-.88.45V95.47H115.6a4.32,4.32,0,0,1-.74.4l-0.11-.06,0.06-.17,0.11-.06a0.83,0.83,0,0,0,.11-0.23l-0.11-.17a1,1,0,0,0-.34.17c-0.74,1.39-2.61,1.73-3.4,3.12l0.06,0.23c0.94,0.28,1.67-.62,2.61-0.79L114,98a1.46,1.46,0,0,1,.11.28l0.11-.06a2,2,0,0,1,.51-0.4l0.06,0.06a3,3,0,0,1-.17.28h0.28v0.34l0.06,0.17h1a3,3,0,0,0,.68-0.4l0.06,0.06-0.23.17a1.89,1.89,0,0,0-.17.34V99a0.61,0.61,0,0,0,.28.17c1,0.11,2.07-.51,3.17-0.57,0.17,0.17.23,0.17,0.06,0.4a3.67,3.67,0,0,0-.51.45,9.93,9.93,0,0,1-1.79,1.67c-1.62-.23-2.24-0.11-3.17,1.22l0.06,0.06a2,2,0,0,0,1.39,0,5.85,5.85,0,0,1,2.89.45c1.22-.45,2.55-1.33,3.86-1.33l-0.06.57c-2.47.68-3.4,2.66-5.53,3.46l-0.06.11a2.23,2.23,0,0,0,.11.34,2.47,2.47,0,0,0,1.9.45,8.64,8.64,0,0,0,1.9-.51c0.4-.68,1.9-1.67,2.66-1.28a4.1,4.1,0,0,1-2.41,2.07c-1,.28-2.13.11-3.23,0.74a0.46,0.46,0,0,0,.06.68c1.11,0,.57-0.23,1.33.11a25.53,25.53,0,0,1,3.69-.57,1.62,1.62,0,0,1-1.16,1,10.82,10.82,0,0,0-4.45,1.16V110l0.06,0.23c0.88,0.79,2.61-.94,3.17.51l-0.06.11c-0.88.51-3.29,0.23-3.63,0.79l0.28,0.4c0.51,0,2.66.06,2.35,1-0.68.45-2-.51-2.35,0.23s1.62,0.06,1.33,1.28a17.21,17.21,0,0,0-2.13,3c-0.79,1.16-1.39,2.61-3,2.72-2.55.11-5.24-.17-7.8,0.94h-0.11Zm-7.54-2.55a1.59,1.59,0,0,1-.88-0.57,1.61,1.61,0,0,1,0-1.67,7.86,7.86,0,0,1,1.22-.51c0.34-.4-0.4-0.74-0.68-0.79a1,1,0,0,0-.88.74,7.56,7.56,0,0,0-.45,2l-0.17.11-0.17-.06a2.77,2.77,0,0,1-.51-2.66c1.16-.79,1.73-2.89,3.51-2.55a2.41,2.41,0,0,1,1,.45,0.76,0.76,0,0,0,.51.11,0.92,0.92,0,0,1,.34-0.17c2.35-2,5.47-3.17,6.52-6.52a2.35,2.35,0,0,0-1-2c-2.83-2.3-5.81-4-7.91-7.2L99,97.46A10.47,10.47,0,0,1,97.91,90a13.79,13.79,0,0,1,.79-1.33,98.19,98.19,0,0,1,6.8-7.68h0.17l0.11,0.17a2.23,2.23,0,0,1-.11.34C103.07,85.32,98.59,89.6,99,95c0.11,0.4.28,0.88,0.45,1.33,2.18,5.19,11.42,5.64,13.78,10.77a12.73,12.73,0,0,1-.68,1.9c-0.23.28-.4,0.79-0.68,1.11-2.61,4.68-9.41-.17-11.59,5-0.34.57-.06,1.22-0.28,1.84a2.36,2.36,0,0,0-.88.45,4.3,4.3,0,0,0-.45,1.45Z" style="fill: #fc0"/>
    <path d="M100,55.56l-0.11-.06c-0.34-1,.11-2.13-0.57-3.23-0.17-1.62.57-3.29,0.88-4.9L100,47.25a1.06,1.06,0,0,0-.4.34c-0.23.51-.28,1-0.51,1.56a1.76,1.76,0,0,1-.4.11,4.51,4.51,0,0,0-.51-2.95c-0.45-1.11.4-2.18,0.4-3.34a0.63,0.63,0,0,0-.45,0,2.21,2.21,0,0,1-1,1.56L97,44.48l-0.06-.11c0-2.3-.74-4.62.17-7L97,37.33l-0.11-.06a3.73,3.73,0,0,1-1.22.57l-0.06-.17c0.4-1.45.57-2.95,0.94-4.45a9.41,9.41,0,0,1,.74-0.79,4.43,4.43,0,0,1-2-.45l-0.51-.68c-1.11-2,0-3.86-.06-5.81A0.68,0.68,0,0,1,94.9,25a1,1,0,0,0,.34-0.17c0.45-.23.68-0.68,1.16-0.94a1.93,1.93,0,0,1,1.45.23L98,24.09a0.8,0.8,0,0,0,.17-0.28,2.74,2.74,0,0,0-.11-0.88,0.35,0.35,0,0,1-.23-0.11,3,3,0,0,1-1.56.28l-0.23.11a2,2,0,0,0-.45.68,0.84,0.84,0,0,1-.88-0.11c-0.11,0-.11-0.23-0.23-0.23a1.75,1.75,0,0,1-.06-1.67c0.62-.4,1.56-1.5,2.61-1a2,2,0,0,0,.68.68l0.11-.06c0.11-.4.11-0.94,0.23-1.39L97.85,20c-0.74.23-1.73,0-2.41,0.68a0.42,0.42,0,0,1-.34-0.11L95,20.47a2.06,2.06,0,0,1,.17-0.4l0.57-.57a3.54,3.54,0,0,1,3.51-.06,4.66,4.66,0,0,1,2.13,3.69c-0.28,3.34.74,6.52,0.62,9.69A15.1,15.1,0,0,1,99.64,36l0.06,0.11c1.33-.28,2.83-1.84,4.08-0.45a0.93,0.93,0,0,1,0,.68l-0.11.06a3.08,3.08,0,0,1-1.11-.4c-0.11-.11,0-0.34-0.23-0.4l-0.17.06a3.53,3.53,0,0,0-.45.68,0.57,0.57,0,0,1-.28.23,1.75,1.75,0,0,0-.45.11,1.53,1.53,0,0,1,0,.51c-0.11.06-.28,0.17-0.51,0.28l-0.11.17,0.06,0.06,0.06,0.06,0.06,0.06a0.68,0.68,0,0,1-.11.45,1.86,1.86,0,0,0,.17.34l-0.06.17a1.06,1.06,0,0,1-.23.17,0.78,0.78,0,0,0-.17.23v0.34a0.37,0.37,0,0,0-.28.11,1.06,1.06,0,0,0-.17.23L99.72,40a0.43,0.43,0,0,0,.28.11l0.11,0.17a2.28,2.28,0,0,1-1,.94,3.25,3.25,0,0,1-.23.4v0.17a0.52,0.52,0,0,1,.28.17c2-.51,2.24-3.8,4.79-3.8a0.78,0.78,0,0,0,.17-0.23L104.31,38a2,2,0,0,0-.34.51,0.41,0.41,0,0,1-.34-0.06l-0.17.06a10,10,0,0,1-.45,1,2.56,2.56,0,0,0-.62.17,1.11,1.11,0,0,0-.06.45,4.33,4.33,0,0,0-.51.51c-0.17.11,0,.11,0.17,0.23l-0.06.11a2.7,2.7,0,0,0-.79.28l-0.06.17a1.35,1.35,0,0,0,.51.17,6,6,0,0,1-.62.51,0.37,0.37,0,0,1-.11.28l0.06,0.17a1.22,1.22,0,0,0,.62.11,2.6,2.6,0,0,0-1,.4,2.4,2.4,0,0,0-.28.4,0.21,0.21,0,0,0,.28.23l0.06,0.11a3,3,0,0,1-.74.74v0.17A3.7,3.7,0,0,0,103,42.38a1.75,1.75,0,0,1,.28-0.68,6.77,6.77,0,0,1,2.78-.88,1.07,1.07,0,0,1,.23.51c-1.11.57-1.62,1.45-2.61,2.24-0.06.23,0.23,0.28,0.17,0.51a2.65,2.65,0,0,0-.57.28v0.23a0.26,0.26,0,0,1,.17.28v0.06a6.65,6.65,0,0,1-.62.28,0.76,0.76,0,0,0-.06.51l-0.17.11,0.06,0.23,0.11,0.17v0.11a3.31,3.31,0,0,0-1.45,1.11l0.11,0.23a6.73,6.73,0,0,0,3.86-3.17,2.94,2.94,0,0,1,2.72-1.5l0.28,0.17a1.63,1.63,0,0,1-1,1.33c-2.41,1.22-3.23,4-4.9,6-1,1.45-.17,3.57-1.62,4.62-0.17.11-.34,0.11-0.51,0.23h-0.11Z" style="fill: #fecc00"/>
    <path d="M93.17,25.91c0,7.85,0,26.25-.06,26.25L82,40.28l0.06-20,11-.06a4.78,4.78,0,0,0-1.9,1.79l0.11,0.06a1.56,1.56,0,0,1,1.56-.28,1.76,1.76,0,0,1,.23.34,0.93,0.93,0,0,1-.11.51c-0.23.23-.62,0.4-1,0.68a1,1,0,0,0-.11.57L92,24a2.71,2.71,0,0,0,.62-0.28l0.11,0.06a1.23,1.23,0,0,1,.34.4,1.12,1.12,0,0,1-.11.57,3.14,3.14,0,0,1-.88.68,0.59,0.59,0,0,1-.17.23L92,25.8a7.06,7.06,0,0,0,1.16.06Zm-35,9H69.7l-0.06,5.3L58.22,52.53S58.17,36.14,58.17,35Z" style="fill: #fc0"/>
    <path d="M76.05,45.13l13.1,13.15a5.65,5.65,0,0,0,4-4.14L80.84,40.93V20.3h-10V40.93L58.48,54.26a5.69,5.69,0,0,0,4.22,4L76.08,45.13h0ZM62.9,33.82V20.27h2.24V33.82H62.9Z" style="fill: #999"/>
    <path d="M26.11,38.21l-0.06-.06L25.94,38a1,1,0,0,1,.17-0.62l0.23-.11,0.06,0.06a4.16,4.16,0,0,1,.06.88l-0.34.06v0Z" style="fill: #fefefe"/>
    <path d="M60.18,24.89c-0.4,1.16-.79,8.48-0.79,8.93H58.45V20.27h3.69V33.82h-1c0-.45-0.4-7.8-0.79-8.93H60.18Zm7.48,0c-0.4,1.16-.74,8.48-0.79,8.93h-1V20.27h3.74l0.06,13.55h-1c0-.45-0.4-7.8-0.74-8.93H67.66Z" style="fill: #fefefe"/>
    <path d="M26.56,27.35a1.56,1.56,0,0,1-.74-1.11l-0.17-.11a12.39,12.39,0,0,0-1.39-.34l-0.06-.11a2.48,2.48,0,0,1,1.39-1.39l0.34,0.06a3.61,3.61,0,0,1,1.28,2.72,0.29,0.29,0,0,1-.23.28H26.56Z" style="fill: #fefefe"/>
    <path d="M76.05,62.14a7.09,7.09,0,0,0-2.72-2.61c-2.61-1.11-5.75-1.22-9.1-1L76.05,47,87.53,58.48c-3.34-.17-6.12-0.06-8.7,1C77.84,59.81,76.59,61.37,76.05,62.14Z" style="fill: #fc0"/>
    <path d="M60.24,22.05c0.17,0,.28.28,0.28,0.68a0.56,0.56,0,0,1-.28.62A0.64,0.64,0,0,1,60,22.73,0.7,0.7,0,0,1,60.24,22.05Zm7.48,0c0.17,0,.28.28,0.28,0.68a0.56,0.56,0,0,1-.28.62,0.64,0.64,0,0,1-.23-0.62A0.7,0.7,0,0,1,67.72,22.05Z" style="fill: #999"/>
    <path d="M69.31,56.3L69.19,56c0.06-.06.17-0.06,0.34-0.17a0.5,0.5,0,0,1-.06.4Zm1.5,0.4a0.86,0.86,0,0,1-.23-0.23V56.35a4.11,4.11,0,0,0,.28-0.68L71,55.62l0.17,0.11a1.11,1.11,0,0,1-.11.94l-0.23.06v0ZM72,57a25.57,25.57,0,0,1-4.62-.17l-0.06-.28c0.28-.34.62-0.57,1-1,1.5-1.56,3.57-.45,5.3-1.22,0.34-.4,1.9-0.68,2.13-0.23a1.32,1.32,0,0,0-.4.62,3,3,0,0,0,2.13.06,1.11,1.11,0,0,1,1.33-.57c-0.17.57-.06,0.57-0.17,0.88,0.94,0.57,2.35-.06,3.06-0.79a0.62,0.62,0,0,1,.45,0c0,0.28-.57.74-0.68,1.22a0.81,0.81,0,0,0,.11.34c0.28,0.34.57,0.34,0.88,0.74-1.16.28-2.13-1.33-3.4-.4L79,56.41a2.4,2.4,0,0,0,.23.68L78.86,57c-0.28-.17-0.34-0.51-0.62-0.68a24.81,24.81,0,0,1-4.56.79c-0.23.17-.11,0.4,0.06,0.57a1.07,1.07,0,0,1-.62.06,3.52,3.52,0,0,1-1-.79h0Z"/>
  </g>
</svg>
