<svg id="city_tam" data-name="tam" xmlns="http://www.w3.org/2000/svg" width="52.5mm" height="52.5mm" viewBox="0 0 148.82 148.82">
  <title>tam</title>
  <g id="tam">
    <path d="M67.95,118.71L67.69,107.8v-0.26l0.11-.23a9.73,9.73,0,0,1,5.33-4.82,7.43,7.43,0,0,1,2.92-.4,7.08,7.08,0,0,1,2.81.79,8.6,8.6,0,0,1,4.17,5l0.06,0.14v0.17l0.11,10.43v0.82l-0.82.17a31.37,31.37,0,0,1-6.86.62,45.61,45.61,0,0,1-6.77-.62l-0.82-.14,0-.82h0.06ZM69.73,108L70,117.84a42.08,42.08,0,0,0,5.64.48,31.2,31.2,0,0,0,5.61-.43l-0.11-9.44A6.75,6.75,0,0,0,78,104.68a5.62,5.62,0,0,0-2-.57,5,5,0,0,0-2.13.28A7.47,7.47,0,0,0,69.73,108Zm-21.06,6.49,0.09,0c0.17,0.09.37,0.14,0.54,0.23H48.61l-10.94,7.6v0.11H37.59v8.39h0.09v0.23H113.3v-8.7L102.93,115l-0.2-17.91V97h0V96.92l-0.06-16.81h0V79.37h0V78.46h0V75h0v0h0c0-.14,0-0.28-0.06-0.43V74.52l0-.26V74.21c-1.28-9-5.84-15.31-11.82-19.13h0L90.68,55a4.2,4.2,0,0,0-.37-0.23l-0.17-.11a21240015.37,21240015.37,0,0,1-.57-0.34l-0.2-.11a3.09,3.09,0,0,1-.31-0.17A28.47,28.47,0,0,0,76.2,50.74H74.92a32.09,32.09,0,0,0-3.29.26l-0.11,0-1.08.17-0.2,0c-0.34.06-.65,0.11-1,0.2L69,51.48c-0.31.06-.62,0.14-0.94,0.23a0.83,0.83,0,0,1-.26.06c-0.26.06-.48,0.14-0.74,0.2l-0.43.14L66,52.33l-0.45.17-0.65.26c-0.11.06-.23,0.09-0.37,0.14s-0.48.2-.71,0.31l-0.37.17a23.64,23.64,0,0,0-3.2,1.79h0l-0.09.06-0.23.14-0.09.06-0.57.4-0.06.06h0L59,56,59,56.07l-0.06.06-0.2.17-0.06.06a26.23,26.23,0,0,0-2.81,2.52h0l-0.06.06h0L55.7,59l-0.14.17-0.06.06a1.23,1.23,0,0,0-.17.2h0c-0.2.2-.37,0.43-0.57,0.65h0l-0.4.48,0,0,0,0,0,0.06,0,0.06A26.84,26.84,0,0,0,49,74v0.28l0,0.17v2.13h0v2h0V81h0V94.73l0,9.07h0l0,11.91Z" style="fill: #fc0"/>
    <path d="M65.57,39.23l0.23-.43,0.06-.06,0.06-.06L66,38.64l0.06-.06,0.06-.06,0.11-.11V38.3l0.06-.06V38.18h0.06V38h0.06V37.84l0.06-.17,0.06,0m14.26-19v0.6l-0.06.06-0.06.11-0.06.11-0.11.06-0.06.06v0.11l-0.06.06V20H80.33v0.11H80.28V20H80.22V19.9l-0.06-.11V19.73a0.44,0.44,0,0,1-.11-0.17c0-.06-0.06-0.11-0.06-0.17V19.22l-0.06-.11V19H79.88V19l-0.11-.11m5.56,15.34A2.5,2.5,0,0,1,85,33.9c-0.06,0-.06-0.06-0.11-0.06l-0.17-.17-0.17-.11a0.44,0.44,0,0,1-.11-0.17l-0.11-.17V33.11l-0.06-.06V32.94l-0.06-.11V32.71l-0.06-.06V32.54h0v0.74a1.29,1.29,0,0,0-.06.23c0,0.11,0,.06-0.06.11v0.17l-0.06.06V34H83.88v0.23m-0.77,5.07-0.23-.43-0.06-.06-0.06-.06-0.11-.06-0.06-.06-0.06-.06-0.11-.11V38.32l-0.06-.06V38.21H82.32V38H82.26V37.87L82.2,37.7l-0.11-.06L82,37.76,82,37.81H81.92l-0.06.06v0.06L82,37.87l-0.11.31-0.06.11v0.11a1.29,1.29,0,0,0-.06.23l-0.06.17L81.58,39,81.47,39H81.41l-0.06.06H81.3a0.44,0.44,0,0,1-.17.11m8.65-17c-1.73.48-4.05,0.77-5.16,1.84a5.57,5.57,0,0,1-2.32.43c-0.6,0-1.56.6-2.44,0.6m6.72,1.42a2.87,2.87,0,0,0-1.36-.54c-1.25,0-2.38-.43-3.63-0.43H81.47m9.16-1.73a13.34,13.34,0,0,0-5.53,1.19,7.26,7.26,0,0,1-2.61.77,13.9,13.9,0,0,1-2.18-.11,3.1,3.1,0,0,0-.77.11,4.1,4.1,0,0,0-.71.31H78.77v0.06m-10.89-7.4v0.6l0.06,0.06L68,19.45l0.06,0.11,0.11,0.06,0.06,0.06v0.11l0.06,0.06V20h0.06v0.11H68.4V20h0.06V19.9l0.06-.11V19.73a0.44,0.44,0,0,0,.11-0.17c0-.06.06-0.11,0.06-0.17V19.22l0.06-.11V19H68.8V19l0.11-.11M63.35,34.21a2.5,2.5,0,0,0,.37-0.31c0.06,0,.06-0.06.11-0.06L64,33.68l0.17-.11a0.44,0.44,0,0,0,.11-0.17l0.11-.17V33.11l0.06-.06V32.94l0.06-.11V32.71l0.06-.06V32.54h0v0.74a1.29,1.29,0,0,1,.06.23c0,0.11,0,.06.06,0.11v0.17l0.06,0.06V34H64.8v0.23m2,3.57h0.06l0.06,0.06v0.06l-0.11-.06,0.11,0.31L67,38.24v0.11a1.29,1.29,0,0,1,.06.23l0.06,0.17,0.11,0.17L67.29,39h0.06L67.41,39h0.06a0.44,0.44,0,0,0,.17.11M71,24.26a10.12,10.12,0,0,1-2.81-3.83A2.08,2.08,0,0,1,70,22.71a8.16,8.16,0,0,1,1.39.82c-1.19-2.27.34-2.81,2.49-3a0.87,0.87,0,0,0,.4-0.62v0a1,1,0,0,0,.4.62c2.07,0.17,3.54.74,2.27,3.15a7.16,7.16,0,0,1,1.59-1,2.1,2.1,0,0,1,1.79-2.27,10.12,10.12,0,0,1-2.81,3.83v0.06l0.14,0c1.19,0.54,2.58.2,4.05-.54l3-1.3a5.89,5.89,0,0,1,3.86-.71c1.56,0.14,2.32.79,2.27,2C90.51,26,89,27,86.37,26.5c1.39,2.75-6.29,2.92-9.33.23l-0.17,0a0.53,0.53,0,0,1-.06.2c-0.23,1.47-.82,2.41-2.38,2.66,1.7,0.45,3.15,1.56,3.54,5.61,0.34,2.83-1.19,5.44-4,7.88a11.35,11.35,0,0,1-3.88-7.94c0.23-2.95,1.16-5.07,3.66-5.53a2.25,2.25,0,0,1-1.36-.71,8.31,8.31,0,0,0-4.11,4.51l-0.06-.09a39,39,0,0,1-1.47,4.45h0a0.75,0.75,0,0,0-.17-0.14,0.8,0.8,0,0,0-.65-0.14,14.84,14.84,0,0,0,.23-2.64,1.83,1.83,0,0,0,1.56-1.84l0.48,0.26a2.34,2.34,0,0,0-1.36-.91,10,10,0,0,1,5.61-3.46A3.73,3.73,0,0,1,71.69,27a0.62,0.62,0,0,1,0-.23H71.55c-3,2.69-10.71,2.52-9.33-.23-2.64.45-4.11-.48-4.45-2.78,0-1.16.74-1.81,2.27-2a6,6,0,0,1,3.86.71l3,1.3c1.47,0.74,2.86,1.11,4.05.54l0.14,0V24.35Zm0.91-.17h0Zm2.38-2.86,4.54-3.54a6.19,6.19,0,0,1-3.88,1c0,0.57-.09,1.16-0.11,1.73h0.37c0-.34,0-0.68.06-1A4.9,4.9,0,0,0,78.86,17.69Zm-9,0a6.19,6.19,0,0,0,3.88,1c0,0.57.09,1.16,0.11,1.73H73.53c0-.34,0-0.68-0.06-1A4.9,4.9,0,0,1,69.9,17.69Zm7,9.81c3.06,0.65,5.87,1.7,7.34,4.59-1.16.45-1.79-.11-1.84-1.73-1.39.11-2.15-.31-2.27-1.3A2.81,2.81,0,0,1,76.93,27.5Zm3.4,5.75a39,39,0,0,0,1.47,4.45,1,1,0,0,1,.82-0.31,14.84,14.84,0,0,1-.23-2.64,1.83,1.83,0,0,1-1.56-1.84l-0.48.26a2.34,2.34,0,0,1,1.36-.91,9.85,9.85,0,0,0-5.67-3.46,8.35,8.35,0,0,1,4.17,4.54l0.06-.09h0.06Zm-8.7-5.75c-3.06.65-5.87,1.7-7.34,4.59,1.16,0.45,1.79-.11,1.84-1.73,1.39,0.11,2.15-.31,2.27-1.3A2.81,2.81,0,0,0,71.63,27.5Z" style="fill: #fc0"/>
    <path d="M43.68,53.57c0-.14-0.06-0.34-0.09-0.48V52.92l0.06-.11V52.64l0-.17,0-.06,0-.06V52.27l0-.06,0.06,0,0-.06,0-.06,0-.06,0-.06,0.06,0,0-.06,0-.06-0.06-.17,0-.06m-1.25-23.7a2.47,2.47,0,0,1,.26.31l0.11,0.14v0.09l0,0.14,0,0.14-0.06.11v0.09L42.72,29v0.09l0,0.06,0,0.06-0.06,0,0,0.06,0,0.06-0.06,0,0-.06,0-.06-0.06,0,0-.06-0.11-.06,0-.06a0.72,0.72,0,0,1-.2-0.06A0.32,0.32,0,0,0,42.07,29L42,28.83l-0.11-.06,0-.06-0.06,0,0-.06-0.17,0m14.12,8.19a2.29,2.29,0,0,1-.45,0c-0.06,0-.09,0-0.14,0l-0.26,0-0.23,0a0.72,0.72,0,0,1-.2-0.06l-0.2-.06-0.09-.09H54l-0.09-.09-0.11-.06-0.09-.09H53.66l-0.09-.09h0l0,0.06,0,0.06,0,0.06,0,0.06,0.09,0.09,0,0.06,0,0.06,0,0.06,0,0.06,0,0.06L54,37a0.56,0.56,0,0,0,.11.23c0.09,0.09,0,.06,0,0.14l0.11,0.14v0.09l0,0.06,0,0.06-0.06,0L54.4,38m2.66,4.39c-0.11-.06-0.34-0.11-0.45-0.17H56.44l-0.14,0H56.13l-0.17,0,0-.06,0-.06H55.81l0-.06-0.06,0,0-.06,0-.06,0-.06,0-.06-0.06,0,0-.06,0-.06-0.17-.11-0.14,0,0,0.14v0.09l-0.06,0V42l0,0.06,0.06-.11,0.11,0.31,0,0.14,0.09,0.09a0.56,0.56,0,0,0,.11.23l0.06,0.17,0,0.23-0.06.11-0.06,0v0.09l-0.06,0a0.72,0.72,0,0,1-.06.2M51.14,24.92c-1,1.5-2.64,3.2-2.75,4.73a5.39,5.39,0,0,1-1.5,1.84c-0.45.4-.82,1.47-1.47,2m6.07-3.23a2.78,2.78,0,0,0-1.39.45c-1,.79-2.1,1.19-3.06,2l-0.09.06m5.9-7.23A13.19,13.19,0,0,0,49.38,30a7.31,7.31,0,0,1-1.5,2.27,12,12,0,0,1-1.73,1.3,3.07,3.07,0,0,0-.51.57,3.26,3.26,0,0,0-.34.71l0,0,0,0M32.2,36.28a2.47,2.47,0,0,1,.26.31l0.11,0.14h0.09l0.11,0.06,0.11,0.06,0.14,0h0.09l0.09,0.09h0.09l0,0.06,0,0.06,0.06,0,0,0.06,0,0.06,0.06,0,0-.06,0-.06,0.06,0,0-.06,0-.14,0-.06a0.35,0.35,0,0,0,0-.23,1.18,1.18,0,0,0-.06-0.17l-0.11-.14,0-.14,0-.06,0.06,0,0-.06,0-.17M38.83,51a2,2,0,0,0,.09-0.45c0.06,0,0-.09.06-0.11l0-.26,0.06-.2a0.35,0.35,0,0,0,0-.23l0-.23-0.09-.09V49.38l-0.09-.09,0-.14-0.09-.09V49l-0.09-.09h0l0,0.06,0,0.06,0,0.06,0,0.06,0.09,0.09,0,0.06,0,0.06,0,0.06,0,0.06,0,0.06,0.09,0.09a1.93,1.93,0,0,0,.2.14c0.09,0.09,0,.06.11,0.06l0.11,0.14h0.09l0,0.06,0,0.06,0.06,0,0.14,0.17m3.8,1.47,0.06,0h0.09l0,0.06-0.14,0,0.28,0.14,0.11,0.06L44.14,52a1.93,1.93,0,0,0,.2.14l0.17,0.09,0.2,0.06,0.14,0,0.06,0H45l0.06,0a0.35,0.35,0,0,0,.23,0M38.32,38.58a10.17,10.17,0,0,1-4.62-1.13,2.09,2.09,0,0,1,2.83.6,8.14,8.14,0,0,1,1.59-.28c-2.38-1-1.56-2.38,0-3.88A0.87,0.87,0,0,0,38,33.14a0,0,0,0,0,0,0h0v0a0,0,0,0,0,0,0,0.86,0.86,0,0,0,.71.23c1.7-1.19,3.2-1.7,3.74.94a6.44,6.44,0,0,1,.6-1.76A2.09,2.09,0,0,1,43,29.62a10.1,10.1,0,0,1,.31,4.73l0,0,0.09-.11c1.28-.34,2.13-1.5,2.78-3l1.45-2.92a5.79,5.79,0,0,1,2.49-3c1.28-.88,2.3-0.88,3,0,1.22,2,.68,3.63-1.62,5,2.83,1.22-2.95,6.29-7,6.15l-0.11.11a1.63,1.63,0,0,0,.11.2c0.77,1.28.94,2.38-.11,3.57,1.59-.74,3.4-0.85,6.32,2,2.1,2,2.58,4.93,2,8.62a11.21,11.21,0,0,1-8.08-3.6c-1.73-2.38-2.38-4.65-.77-6.58a2.34,2.34,0,0,1-1.5.34,8.39,8.39,0,0,0-.26,6.09l-0.11,0a42.25,42.25,0,0,1,1.73,4.37H43.54a0.88,0.88,0,0,0-.6.31,15,15,0,0,0-1.5-2.15,1.81,1.81,0,0,0,0-2.41L42,47.23a2.57,2.57,0,0,0-1.64.17,10,10,0,0,1,2.07-6.24,3.49,3.49,0,0,1-1.81-1L40.42,40l-0.11.06c-0.57,4-6.58,8.82-7.29,5.84-1.73,2-3.46,2.3-5.19.74-0.77-.85-0.6-1.84.48-2.95a5.75,5.75,0,0,1,3.4-1.93c1-.31,2.07-0.62,3.12-0.91,1.62-.37,2.89-1,3.46-2.21l0.14-.06,0,0Zm0.57-.71h0Zm0-3.71,1.19-5.64a6.12,6.12,0,0,1-2.32,3.26l1,1.42A2.48,2.48,0,0,1,39,33l-0.6-.82a5,5,0,0,0,1.64-3.63h0Zm-6.86,5.75a6.1,6.1,0,0,0,3.63-1.73c0.4,0.43.79,0.82,1.22,1.25a2.48,2.48,0,0,1-.28.23c-0.23-.26-0.45-0.48-0.71-0.74a4.84,4.84,0,0,1-3.86,1v0Zm11.71,3c2.78-1.47,5.58-2.47,8.59-1.19-0.6,1.11-1.45,1-2.52-.14-1,1-1.84,1.13-2.58.45a2.78,2.78,0,0,1-3.46.88h0Zm6.32,2.21a33.57,33.57,0,0,0,4,2.44,1,1,0,0,1,.45-0.77,16.63,16.63,0,0,1-1.87-1.87,1.81,1.81,0,0,1-2.38-.43l-0.2.51a2.57,2.57,0,0,1,.45-1.59,9.78,9.78,0,0,0-6.58,1,8.4,8.4,0,0,1,6.12.79V39.49ZM40.85,40.68c-1.93,2.47-3.4,5.07-2.66,8.25,1.19-.4,1.3-1.25.31-2.52,1.13-.79,1.45-1.62.91-2.47a2.83,2.83,0,0,0,1.47-3.26h0Z" style="fill: #999"/>
    <path d="M91.76,42.35c0.11-.06.34-0.11,0.45-0.17h0.17l0.14,0h0.17l0.17,0,0-.06,0-.06H93L93,42l0.06,0,0-.06,0-.06,0-.06,0-.06,0.06,0,0-.06,0-.06,0.17-.09,0.06,0m23.1-5.36a2.47,2.47,0,0,0-.26.31l-0.11.14h-0.09l-0.11.06-0.11.06-0.14,0h-0.09l-0.09.09h-0.09l0,0.06,0,0.06-0.06,0,0,0.06,0,0.06-0.06,0,0-.06,0-.06-0.06,0,0-.06,0-.14,0-.06a0.35,0.35,0,0,1,0-.23,1.18,1.18,0,0,1,.06-0.17l0.11-.14,0-.14,0-.06-0.06,0,0-.06,0-.17M110,51.05a2,2,0,0,1-.09-0.45c-0.06,0,0-.09-0.06-0.11l0-.26-0.06-.2a0.35,0.35,0,0,1,0-.23l0-.23,0.09-.09V49.41l0.09-.09,0-.14,0.09-.09V49l0.09-.09h0l0,0.06,0,0.06,0,0.06,0,0.06-0.09.09,0,0.06,0,0.06,0,0.06,0,0.06,0,0.06-0.09.09a1.93,1.93,0,0,1-.2.14c-0.09.09,0,.06-0.11,0.06l-0.11.14h-0.09l0,0.06,0,0.06-0.06,0L109,50.2m-3.86,3.4c0-.14.06-0.34,0.09-0.48V53l-0.06-.11V52.67l0-.17,0-.06,0-.06V52.3l0-.06-0.06,0,0-.06,0-.06,0-.06,0-.06-0.06,0,0-.06,0-.06,0.06-.17-0.06-.11-0.11.06h-0.09l-0.06,0H105l0,0.06,0.14,0-0.28.14-0.11.06L104.6,52a1.93,1.93,0,0,1-.2.14l-0.17.09-0.2.06-0.14,0-0.06,0h-0.09l-0.06,0a0.35,0.35,0,0,1-.23,0M121,44.65c-1.64-.74-3.6-2-5.13-1.9a5.61,5.61,0,0,1-2.07-1.16c-0.45-.4-1.59-0.57-2.24-1.11m4.25,5.41a3.09,3.09,0,0,0-.68-1.28c-1-.79-1.56-1.87-2.49-2.66l-0.09-.06m8.14,4.56a13.44,13.44,0,0,0-5-2.64,7.26,7.26,0,0,1-2.49-1.11,16,16,0,0,1-1.59-1.47,2.68,2.68,0,0,0-.65-0.4,2.38,2.38,0,0,0-.74-0.2l0,0,0,0M106.61,28a2.47,2.47,0,0,0-.26.31l-0.11.14v0.09l0,0.14,0,0.14,0.06,0.11V29l-0.09.09v0.09l0,0.06,0,0.06,0.06,0,0,0.06,0,0.06,0.06,0,0-.06,0-.06,0.06,0,0-.06,0.11-.06,0-.06a0.72,0.72,0,0,0,.2-0.06,0.32,0.32,0,0,1,.17-0.09l0.11-.14,0.11-.06,0-.06,0.06,0,0-.06,0.17,0M93.2,36.94a2.29,2.29,0,0,0,.45,0c0.06,0,.09,0,0.14,0l0.26,0,0.23,0a0.72,0.72,0,0,0,.2-0.06l0.2-.06,0.09-.09h0.09l0.09-.09L95,36.62l0.09-.09h0.09l0.09-.09h0l0,0.06,0,0.06,0,0.06,0,0.06-0.09.09,0,0.06,0,0.06,0,0.06L95,37,95,37l-0.09.09a0.56,0.56,0,0,1-.11.23c-0.09.09,0,.06,0,0.14l-0.11.14v0.09l0,0.06,0,0.06,0.06,0L94.48,38m-0.79,4,0.06,0v0.09l0,0.06-0.06-.11-0.11.31,0,0.14-0.09.09a0.56,0.56,0,0,1-.11.23l-0.06.17,0,0.23,0.06,0.11,0.06,0v0.09l0.06,0a0.72,0.72,0,0,0,.06.2m12.16-9.21a10.1,10.1,0,0,1,.31-4.73,2.09,2.09,0,0,1-.09,2.89,6.87,6.87,0,0,1,.54,1.5c0.54-2.49,2.07-1.93,3.83-.68a0.86,0.86,0,0,0,.71-0.23,0,0,0,0,1,0,0v0h0a0,0,0,0,1,0,0,1,1,0,0,0-.11.74c1.47,1.47,2.24,2.83-.28,3.86a6.34,6.34,0,0,1,1.84.28,2.09,2.09,0,0,1,2.83-.6,10,10,0,0,1-4.62,1.13l0,0,0.14,0.06c0.57,1.19,1.84,1.81,3.46,2.21,1,0.31,2.07.62,3.12,0.91a6.05,6.05,0,0,1,3.4,1.93c1.11,1.11,1.25,2.1.48,2.95-1.73,1.56-3.46,1.3-5.19-.74-0.71,3-6.72-1.81-7.29-5.84l-0.14-.09-0.17.14c-1.11,1-2.18,1.33-3.54.51,1,1.45,1.42,3.2-.91,6.58-1.56,2.41-4.39,3.4-8.14,3.46A11.14,11.14,0,0,1,98,42.26c2.07-2.1,4.17-3.15,6.35-1.9a2.37,2.37,0,0,1-.6-1.42,8.56,8.56,0,0,0-6.07.79V39.63a33.57,33.57,0,0,1-4,2.44h0a0.53,0.53,0,0,0-.06-0.23,0.88,0.88,0,0,0-.4-0.54,16.63,16.63,0,0,0,1.87-1.87A1.81,1.81,0,0,0,97.46,39l0.2,0.51a2.57,2.57,0,0,0-.45-1.59,10,10,0,0,1,6.52,1,3.87,3.87,0,0,1,.68-2l0.11-.2-0.09-.09c-4.05.14-9.84-5-7-6.15-2.32-1.36-2.86-3-1.62-5,0.71-.91,1.73-0.91,3,0a5.91,5.91,0,0,1,2.49,3l1.45,2.92c0.65,1.53,1.5,2.69,2.78,3l0.09,0.11,0,0h0ZM106.41,35h0Zm3.66-.65,5.75,0.2a6.1,6.1,0,0,1-3.63-1.73L111,34a2.48,2.48,0,0,0,.28.23c0.23-.26.45-0.48,0.71-0.74a4.84,4.84,0,0,0,3.86,1ZM109,28.77A6.12,6.12,0,0,0,111.29,32l-1,1.42a2.48,2.48,0,0,0-.28-0.23l0.6-.82a5.09,5.09,0,0,1-1.64-3.63h0Zm-0.91,12c1.93,2.47,3.4,5.07,2.66,8.25-1.19-.4-1.3-1.25-0.31-2.52-1.13-.79-1.45-1.62-0.91-2.47A2.83,2.83,0,0,1,108,40.82h0ZM107,47.42a42.25,42.25,0,0,0-1.73,4.37,0.89,0.89,0,0,1,.82.31,15,15,0,0,1,1.5-2.15,1.81,1.81,0,0,1,0-2.41L107,47.42a2.57,2.57,0,0,1,1.64.17,9.83,9.83,0,0,0-2.13-6.29,8.38,8.38,0,0,1,.28,6.15l0.11,0h0Zm-3-10c-2.78-1.47-5.58-2.47-8.59-1.19,0.6,1.11,1.45,1,2.52-.14,1,1,1.84,1.13,2.58.45a2.78,2.78,0,0,0,3.46.88h0Z"/>
  </g>
</svg>
