<?xml version="1.0" encoding="UTF-8" standalone="no"?>
<svg
    xmlns:dc="http://purl.org/dc/elements/1.1/"
    xmlns:cc="http://creativecommons.org/ns#"
    xmlns:rdf="http://www.w3.org/1999/02/22-rdf-syntax-ns#"
    xmlns:svg="http://www.w3.org/2000/svg"
    xmlns="http://www.w3.org/2000/svg"
    version="1.1"
    style="fill-rule:evenodd"
    preserveAspectRatio="none"
    viewBox="0 0 150 24"
    id="posters-level2-price"
    width="150"
    height="24">
   <g
       id="posters-level2-price_g"
       transform="matrix(9.652268027e-4,0,0,4.101720427e-4,-1516.38482,-420.4936119)">
      <path
          d="m 1726215,1061676 c -1,-1961 -333,-19787 -333,-19787 -29,-935 -59,-1871 -89,-2806 -71,-1708 -295,-2991 -835,-4568 -530,-1462 -1089,-2505 -1984,-3686 -10,7 -1400,-1647 -1463,-1541 -462,-390 -879,-678 -1386,-977 -1214,-660 -2167,-956 -3495,-1043 -3,3 -2911,-180 -2730,-173 -5833,-203 -18049,562 -17936,555 -4540,248 -13960,-1 -13897,0 -779,52 -2338,157 -2338,157 l -3400,-230 c -3620,144 -7216,350 -10838,156 -2932,-53 -8798,-156 -8798,-156 -1121,32 -11815,346 -11815,313 -4587,-189 -9312,-1004 -13899,-1193 -2822,3 -5635,20 -8457,84 -5188,217 -10377,1034 -15555,1267 -2191,58 -3084,-565 -5399,-1026 -3534,-639 -5069,-615 -8414,-711 -2143,-150 -7294,-475 -9138,-1037 -211,-94 -1892,-110 -1892,-110 -1605,63 -2803,448 -4229,1321 0,0 -1836,1342 -1775,1429 -561,564 -992,1051 -1485,1707 -991,1380 -1607,2607 -2176,4295 -529,1710 -767,3081 -847,4892 9,0 -9,275 -9,275 39,17 -462,6648 -396,6648 51,2920 263,5951 403,8879 -66,1489 -202,4465 -202,4465 -131,270 -394,812 -394,812 88,1336 263,4009 263,4007 24,-540 70,-1624 70,-1622 132,405 395,1217 395,1217 -105,2229 -202,3481 -465,5683 1,16 9,192 8,192 77,1962 335,3446 947,5269 610,1701 1262,2927 2313,4289 1056,1307 2023,2138 3406,2899 8,-12 744,350 744,350 1155,517 2193,694 3429,707 0,0 16735,-312 16735,-312 0,0 25968,1117 25968,1110 9340,-162 18836,-566 28178,-953 3572,-257 3751,-257 3825,-262 l 11943,-52 c 302,0 6800,52 6800,52 2900,-117 5856,-672 8798,-742 1458,0 2836,-32 4293,-106 l 4505,-104 c 915,0 10115,-60 10115,-51 1754,4 3477,54 5229,155 523,18 1572,53 1572,53 l 2932,-418 c 257,-2 3520,25 3613,-377 -1596,-463 -4065,-1005 -6036,-1413 l 6036,0 c 4109,0 7472,-4542 7472,-10094 l 0,-30281 c 0,-5265 -3024,-9622 -6842,-10058 809,39 1500,238 2327,622 1037,534 1737,1124 2545,2070 830,1023 1340,1945 1837,3243 511,1419 735,2579 825,4123 -1,0 169,3259 167,3211 185,10351 204,10311 193,10504 9,3349 44,6751 131,10096 92,2149 248,4325 391,6470 66,1684 -36,3083 -434,4695 -1,0 -8,34 -8,34 -408,1584 -898,2759 -1721,4094 -875,1338 -1708,2221 -2931,3086 -1333,873 -2435,1268 -3952,1419 1531,-71 2658,-415 4034,-1217 1295,-822 2173,-1667 3130,-2990 927,-1351 1486,-2545 1984,-4185 481,-1729 654,-3115 639,-4936 0,0 -203,-7698 -202,-7688 z m -116448,17782 -1771,231 c -893,-53 -2677,-157 -2677,-157 l -109,-74 4557,0 z m -20306,0 -1100,231 c -67,-35 -233,-121 -410,-231 l 1510,0 z m -8838,-1190 c -344,-112 -683,-267 -1051,-473 1,-6 -154,-93 -154,-93 -807,-498 -1366,-1036 -1950,-1862 -634,-961 -992,-1817 -1224,-3005 -203,-1257 -155,-2216 3,-3471 291,-2542 373,-4932 403,-7498 l 9,-1780 0,9278 c 0,3842 1610,7200 3964,8904 z m -3964,-24234 c -17,-4983 -70,-9967 -120,-14951 l 131,-1808 c 20,-119 299,-1338 299,-1338 112,-363 226,-691 354,-1003 -426,1267 -664,2673 -664,4149 l 0,14951 z"
          id="posters-level2-price_path4"
          style="fill:#ffe57f;fill-rule:nonzero" />
   </g>
</svg>
