<svg id="city_rya" data-name="rya" xmlns="http://www.w3.org/2000/svg" width="52.5mm" height="52.5mm" viewBox="0 0 148.82 148.82">
  <title>rya</title>
  <g id="rya">
    <path d="M72.48,29c0-.4.62-0.57,1.64-0.62a2,2,0,0,1,1.64.91,0.23,0.23,0,0,1-.26.14,3.49,3.49,0,0,0-1.11-.6,5.18,5.18,0,0,0-1.67.28A0.2,0.2,0,0,1,72.48,29Zm18,16.87c0.6,0.62,1.42,1.67,2,2.3l2,2.3,1.62,2c0.43,0.57.85,1.16,1.28,1.76,0.6,0.85,1.19,1.73,1.79,2.61l-0.23,19L99,75.94V77l-1.28.85-1,.74-0.94.71-0.85.71-0.4.34-0.28.26c0.11,0.6.2,1.16,0.28,1.76s0.2,1.39.28,2.07L95,86.74c0.09,0.82.14,1.64,0.23,2.47,0.11,1.5.23,3,.31,4.48l0.26,5c0.06,1,.09,2.13.11,3.17,0.09,2.21.14,4.42,0.2,6.6a2.43,2.43,0,0,1,.57.37,2.82,2.82,0,0,1,.28.31l0.26,0.37c0.17,0.28.34,0.57,0.48,0.85a11.82,11.82,0,0,1,.71,1.9,5.35,5.35,0,0,1,.71.31,7.17,7.17,0,0,1,.62.37,5,5,0,0,1,.62.45l0.6,0.51c0.14,0.14.28,0.28,0.43,0.45l0.26,0.31,0.34,0.51,0.2,0.37,0.17,0.37,0.09,0.28,0.17,0.17c0.11,0.11.2,0.26,0.31,0.37l0.34,0.51,0.09,0.14h0s0,0,0,.06a4.17,4.17,0,0,1,.28.62l0.14,0.37-1.08.82-0.91.65-0.91.6-0.45.28L100,121l-0.45.26-0.45.23-0.45.23-0.43.2-0.43.17-0.43.17-0.43.14-0.43.11-0.43.09-0.43.09-0.4.06-0.4,0h-0.4l-0.4,0-0.4-.06-0.37-.09-0.37-.11-0.37-.14-0.34-.17-0.09-.06h0a0.1,0.1,0,0,1-.06,0h0L91.9,122l-0.34-.23-0.31-.26-0.31-.28-0.11-.11-0.68.14-0.85.26-1.67.43-1.36.26C88.7,124.47,89,124,90.62,125c0.94,0.79,2.18,3.37,1.73,3.91-0.6.74-2.89,0.31-4.45,0.2-1.79-.48-2.83-2.1-4.05-2.41-0.82-.26-2.47-0.62-2.61-1.39a12,12,0,0,1,0-2.66H81l-1.64,0-1.64-.11-0.2,0H77.39l-1.08-.09-1.11-.14-1-.17-1-.2-1-.23-0.94-.26-0.91-.28c-0.45-.14-0.91-0.31-1.33-0.48-0.17-.09-0.37-0.14-0.54-0.23l-0.14-.06-1.28-.51-0.26,2.69c0.17,1.36.88,4.08,0.57,4.2a53.8,53.8,0,0,0-7.8,3.91,6.49,6.49,0,0,1-5-.06c-0.23-1,.62-2.13,1.76-3.32,3.17-2.55,1.53-.23,5.58-4.2l-1.08-6.66L60.29,116l-1.16-.88L58,114.21l-1-1-1-1-0.91-1-0.82-1-0.77-1.08-0.17-.28-0.09-.14-0.48-.77-0.43-.77L52,106.38l-0.34-.77-0.28-.77-0.23-.74-0.09-.37L51,103.32v0l-0.51-1.13-0.57-1.3-0.51-1.3L48.9,98.22l-0.45-1.36L48,95.5l-0.4-1.39-0.37-1.42-0.34-1.42L46.6,89.83l-0.26-1.45-0.23-1.45-0.23-1.47L45.69,84l-0.17-1.5L45.38,81l-0.11-1.5L45.18,78l-0.06-1.5,0-1.53,0-1.53V71.89l0-1.53,0-1.53,0.06-1.53,0.09-1.53,0.09-1.53,0.11-1.53,0.11-1.53,0.14-1.53,0.14-1.5L46,56.64l0.06-.26,0.09-.28,0.11-.31,0.14-.31,0.17-.31,0.2-.34L47,54.48l0.23-.37,0.54-.74,0.6-.77,0.68-.79,1.11-1.22,1.19-1.22,1.25-1.19c0.43-.4.85-0.77,1.28-1.13s0.82-.71,1.25-1l1.19-.94,0.31-.31L46.83,23.19l-0.26-5.47,3.8,3.34,9,20.35c0.4-.34.82-0.65,1.22-1,0.62-.48,1.28-1,2-1.42l1.16-.77c0.31-.17.6-0.37,0.91-0.54s0.6-.34.91-0.48l0.6-.28c0.31-.14.6-0.26,0.91-0.37l0.6-.2,0.28-.09a19.74,19.74,0,0,0,.28-4.08C68,31.35,67.38,30.78,67.38,30c0-.6.45-1,0.48-1.59a1.83,1.83,0,0,1,.71-0.31,2.07,2.07,0,0,0-.79.4c-0.6-1-1.64-3.69-.43-4.22a7.68,7.68,0,0,1,2.1-3.15,2.79,2.79,0,0,1,1,.37V21.4c0.37-1.47,1.93-2,4.51-1.9a5.94,5.94,0,0,1,5,2.38A17.89,17.89,0,0,1,80,26a7.13,7.13,0,0,1,1.33,1.47c0.14,1.87-.28,3.09-1.59,3.46h0a8.82,8.82,0,0,1,.2,3.54,4.28,4.28,0,0,1,1,1.84C82,37.16,83,38,84,38.89c0.82,0.71,1.64,1.42,2.44,2.15s1.42,1.33,2.1,2c0.48,0.48,1,1,1.45,1.5l0.31,0.34c0,0.09.06,0.17,0.09,0.28s0,0.2.06,0.31a1.74,1.74,0,0,1,0,.4ZM76.28,28.6A4.06,4.06,0,0,1,76,28.18a20.66,20.66,0,0,0-7.37-.11l0.09,0a1.75,1.75,0,0,0-.06.68,15.92,15.92,0,0,1,0,3.29c0.31,1.3.51,1.84,0.68,1.81,0.71-.06.51-0.54,1.45-1h0a0.5,0.5,0,0,1-.2-0.23,0.28,0.28,0,0,1,0-.26l0.34-2.47H70.58a0.69,0.69,0,0,1-.4.26L70,30.1a1.82,1.82,0,0,1-.85-0.43s0-.06,0-0.09A1,1,0,0,1,70,29.14a1.21,1.21,0,0,1,.45.14H71V29.23a1.16,1.16,0,0,0-.88-0.4,2.15,2.15,0,0,0-1.3.43l0-.54a1.76,1.76,0,0,1,1.3-.4,2.49,2.49,0,0,1,1.28.51,0.4,0.4,0,0,1,.06.34L71,32.23a0.46,0.46,0,0,0,.54.28,0.68,0.68,0,0,1,.28-0.28,0.49,0.49,0,0,1,.48,0,1.22,1.22,0,0,0,.4.11,1,1,0,0,0,.37-0.09c0.2,0,.26.17,0.14,0.37H73.08c0.88,0.65,1.53,1.5,1.84,1.47s1.42-1.62,2-2.55c-0.09-.65-0.23-1.56-0.28-1.9s0.09-.71,0-1.13h0Zm-5.47,6.07a2.23,2.23,0,0,1,.94-0.34c0.23,0,.51.43,1.19,0.62a0.2,0.2,0,0,1-.14.23H72.06c0-.09-0.14-0.06-0.26-0.06a0.31,0.31,0,0,0-.28.06H71.06L70.81,35a0.34,0.34,0,0,1,0-.37h0Zm2.07-5.13c0.77-.6,1.3-0.37,2.07.14L74.86,30a2.47,2.47,0,0,0-1.19.2c-0.4,0-.37-0.51-0.82-0.57V29.54h0Z"/>
    <path d="M61.65,106.47a12.48,12.48,0,0,0,1.11-1c0.26,0.34.54,0.68,0.82,1l0.37,0.4,0.2,0.2,0.2,0.17,0.2,0.17,0.2,0.14,0.2,0.14,0.2,0.11,0.2,0.11,0.2,0.09,0.2,0.09,0.2,0.06,0.2,0.06,0.2,0.06,0.2,0h0.4l0.2,0,0.2,0,0.2-.06,0.17-.06,0.17-.09L68,108l0.17-.11,0.17-.11,0.17,2.66-0.74.34v0a3,3,0,0,1-2-.37,14.34,14.34,0,0,1-3.15-2.24l-0.09-.06-0.09.09c-0.51.54-1,1-1.39,1.33a7.9,7.9,0,0,1-1.08.77l-0.17,0a1.38,1.38,0,0,1-.34,0,7.37,7.37,0,0,1-.31-2.24v-0.17a5,5,0,0,0,.91-0.34c0.17-.09.34-0.17,0.48-0.26s0.26-.14.37-0.23,0.51-.37.77-0.57ZM79.71,37.73l0,0.06-0.45.77-0.51.79c-0.28.4-.54,0.82-0.82,1.22l-0.6.79-0.94,1.19c-0.43.51-.85,1-1.3,1.53S74,45.27,73.45,45.84s-1.13,1.16-1.7,1.73c-0.48-.85-0.94-1.67-1.39-2.52-0.28-.54-0.57-1.08-0.82-1.62s-0.4-.85-0.57-1.28l-0.34-.85-0.28-.82-0.11-.4-0.11-.4L68,39.32,68,38.95l-0.06-.34V38.47c0.85,1.11,1.62,3.09,2.15,3.32,0.57,0,.94-0.68,1.39-1A2,2,0,0,0,72.68,42C73.76,40.82,75,40.51,76,39.37c0.6-.82,1.13-2.1,1.81-2.49a7,7,0,0,0,2,.85H79.71Zm-8,10.4a1.2,1.2,0,0,1,1,1.36,1.22,1.22,0,0,1-1,1.36,1.2,1.2,0,0,1-1-1.36A1.22,1.22,0,0,1,71.69,48.13ZM85.29,62a15.9,15.9,0,0,1-2.18,3.8L82,65.85,80,66c-0.65.06-1.33,0.09-2,.11l-2,.09c-0.65,0-1.33,0-2,0h-2l-2,0-2-.06c-0.88,0-1.73-.09-2.61-0.14l-2-.14c-0.71-.06-1.47-0.28-2.18-0.34a6.42,6.42,0,0,1-.82-1.79L62.22,63l0-.14,0.31,0c0.57-.06,1.16-0.06,1.73-0.11l0.34,0,0.51-.09,0.37-.09,0.23-.09V63l-0.88.45,0.09,0.26a2.59,2.59,0,0,0,.2.4,1.49,1.49,0,0,0,.34.4l0.06,0.06,0.09,0.09,0.06,0.06h0a2.36,2.36,0,0,0,.71.34l0.34,0.06H67a1.66,1.66,0,0,0,.37-0.06,2.49,2.49,0,0,0,.43-0.14l0.17-.09,0.2-.14,0.17-.17,0.17-.17,0.06-.09h0l0.14-.2s0,0,0-.06h0a1,1,0,0,0,.11-0.26,3,3,0,0,0,.09-1,2.77,2.77,0,0,0-.17-0.65L68.68,62c-0.06-.11-0.14-0.23-0.2-0.34l-0.82.43-0.45-.28,0.17-.11,0.45-.34,0.28-.23,0.09-.37c0-.09,0-0.2,0-0.28V60.26l0-.17,0-.09,0-.06A0.67,0.67,0,0,0,68,59.81l0-.11c0-.11,0-0.2.06-0.31s0-.2,0-0.28a0.78,0.78,0,0,0,0-.26L68,58.71l0-.06a0.34,0.34,0,0,0-.14-0.14l0-.11V57.88l0-.11,0-.11,0-.11-0.06-.11-0.06-.09-0.09-.09-0.09-.06-0.09-.06-0.11,0-0.11,0H67a1.14,1.14,0,0,0-.09-0.43l0-.09-0.06-.09-0.06-.09-0.06-.06-0.06-.06-0.09-.06-0.09-.06-0.09,0c0.09-.06.2-0.09,0.28-0.14h0.11l0.26-.09,0.11-.06,0.45-.28,0.31-.26c0.06-.09.14-0.14,0.2-0.23l0.17-.26,0.09-.17,0.06-.17,0-.2v-0.2l-0.06-.17s0,0,0-.06h0l0.09-.06L69,53.55l0.48-.31,0.45-.31,0.45-.34,0.45-.34,0.43-.37,0.2-.2c0.77,0.77,1.53,1.5,2.32,2.24l0.88,0.79L76,55.87,77.33,57c0.45,0.37.94,0.74,1.42,1.11s1,0.71,1.45,1l1.47,1,1.53,1c0.51,0.31,1,.62,1.56.94l0.34,0.2ZM60.89,58.39L62,62.9l-1.81.79a9.83,9.83,0,0,1-2.07,2l0.71-5.58,0.14-.34,0.2-.34,0.23-.34,0.26-.31,0.14-.14h0.09a1.16,1.16,0,0,0,.31,0,3.3,3.3,0,0,0,.51-0.11l0.26-.09Zm22.2,9.47,0.09,0.54a1.83,1.83,0,0,0-.23.26l0.11,0.23c-0.57.28-1.13,0.54-1.67,0.82-0.82.43-1.62,0.85-2.41,1.33-0.17.09-.31,0.2-0.45,0.28l-0.09.2a2.59,2.59,0,0,1-.2.4,3.79,3.79,0,0,0-.2.51c0,0.11-.09.26-0.11,0.4a1.66,1.66,0,0,0-.06.37c0,0.14,0,.28,0,0.45v0.2l0,0.17L78,74.15l0.14,0.11,0.17,0.06h0.11l0,0.14v0.2l0.06,0.17L78.49,75l0.14,0.11,0.14,0.06,0.17,0,0,0.17V75.4l0,0.11v0.23l0,0.11,0,0.09L79.06,76l0.06,0.09,0.06,0.06,0.09,0.06,0.09,0.06,0.09,0,0.09,0h0.14v0.06a1.06,1.06,0,0,0,0,.28,1.73,1.73,0,0,1-.77.09,1.22,1.22,0,0,1-.65-0.28,2.33,2.33,0,0,1-.65-1,3.25,3.25,0,0,1-.2-1.28V74.07l-0.14.06a2.13,2.13,0,0,1-.68.11,1,1,0,0,1-.4-0.14A0.72,0.72,0,0,1,76,73.76a1.42,1.42,0,0,1-.06-0.62h0a1.74,1.74,0,0,1,.34-0.91,1.87,1.87,0,0,0,.37-1.33,1.43,1.43,0,0,0-1.19-1.39h0c-0.09,0-.17,0-0.23-0.06a1.72,1.72,0,0,0-1.13.14,1.48,1.48,0,0,0-.74.94h0c0,0.06,0,.14-0.06.2a1.67,1.67,0,0,0,.45,1.64,1.26,1.26,0,0,1,.34,1.3h0a2,2,0,0,1-.09.23,0.41,0.41,0,0,1-.28.2,0.63,0.63,0,0,1-.4,0h0a1.23,1.23,0,0,1-.45-0.2l-0.17-.11V74a3.57,3.57,0,0,1-.28,1.64,1.23,1.23,0,0,1-.94.68,2.7,2.7,0,0,1-.82,0A2.56,2.56,0,0,1,69.85,76l-0.11-.09-0.06.14a4,4,0,0,1-.23.51,1.9,1.9,0,0,1-.85.91,1.65,1.65,0,0,1-1.33,0,2.86,2.86,0,0,1-.43-0.2,1.34,1.34,0,0,1-.65-1.11,3.46,3.46,0,0,1,.34-1.81l0.09-.2-0.2,0a2.92,2.92,0,0,1-.48,0h0a1,1,0,0,1-.51-0.2,0.75,0.75,0,0,1-.26-0.54,3.8,3.8,0,0,1,0-.6,0.83,0.83,0,0,1,.28-0.54h0A1.76,1.76,0,0,0,65.91,71a2.25,2.25,0,0,0-.31-1.28,1.31,1.31,0,0,0-1-.57,0.36,0.36,0,0,1-.17,0h0a2,2,0,0,0-1.22.34,1.74,1.74,0,0,0-.74,1.22c0,0.09,0,.14,0,0.23a2.26,2.26,0,0,0,.37,1.28A1.32,1.32,0,0,1,63,73.5a0.63,0.63,0,0,1-.43.43,1.23,1.23,0,0,1-.71-0.17l-0.2-.11,0.06,0.23a1.46,1.46,0,0,1-.11,1.08,0.83,0.83,0,0,1-.26.28,0.88,0.88,0,0,1-.37.17,1.54,1.54,0,0,1-1-.2l-0.14-.09,0,0.14a2.92,2.92,0,0,1-.91,1.47,3,3,0,0,1-1.45.79,0.1,0.1,0,0,1-.09,0,1.33,1.33,0,0,1-.65.11,38.41,38.41,0,0,1,4.48-10.2L62,67.72l1.33,0.17L64.66,68,66,68.14l1.33,0.09,1.33,0.09c0.68,0,1.33.06,2,.06l2,0,2,0,2-.09,2-.11,2-.17,2.3-.2ZM86.54,96.8c-14.43,1.11-22.71,3.49-32.26,0,0.88-6.29,1.81-12.73,3.26-19h0a3.2,3.2,0,0,0,1.62-.85,3.26,3.26,0,0,0,1-1.47,1.59,1.59,0,0,0,1,.17,1,1,0,0,0,.43-0.2A0.81,0.81,0,0,0,61.91,75a1.48,1.48,0,0,0,.17-1,1.17,1.17,0,0,0,.65.11,0.77,0.77,0,0,0,.57-0.54,1.43,1.43,0,0,0-.2-1.45A2,2,0,0,1,62.76,71a0.42,0.42,0,0,1,0-.2,1.48,1.48,0,0,1,.62-1.08,1.63,1.63,0,0,1,1.08-.28h0.14a1.16,1.16,0,0,1,.82.48A1.78,1.78,0,0,1,65.71,71a1.64,1.64,0,0,1-.45,1.22h0a1,1,0,0,0-.34.68,1.63,1.63,0,0,0,0,.65,1.11,1.11,0,0,0,.34.65,1.22,1.22,0,0,0,.65.26H66.3A3.73,3.73,0,0,0,66,76.25a1.51,1.51,0,0,0,.77,1.28c0.17,0.09.31,0.14,0.45,0.2a1.94,1.94,0,0,0,1.5,0,2.2,2.2,0,0,0,.94-1c0.06-.14.14-0.26,0.2-0.43a2.11,2.11,0,0,0,.77.28,2.31,2.31,0,0,0,.88,0,1.43,1.43,0,0,0,1.08-.79,3.19,3.19,0,0,0,.31-1.56,0.81,0.81,0,0,0,.34.11h0a1,1,0,0,0,.51,0,0.8,0.8,0,0,0,.4-0.28,1,1,0,0,0,.14-0.31h0a1.53,1.53,0,0,0-.4-1.5,1.49,1.49,0,0,1-.4-1.47,0.53,0.53,0,0,1,.06-0.2h0a1.21,1.21,0,0,1,.62-0.79,1.64,1.64,0,0,1,1-.11,0.67,0.67,0,0,1,.23.06h0a1.55,1.55,0,0,1,.74.4,1.35,1.35,0,0,1,.31.79A1.66,1.66,0,0,1,76.11,72a2.08,2.08,0,0,0-.37,1h0a1.85,1.85,0,0,0,.06.71,0.8,0.8,0,0,0,.31.43,1,1,0,0,0,.51.2,1.65,1.65,0,0,0,.62-0.06,3.55,3.55,0,0,0,.2,1.22,2.65,2.65,0,0,0,.71,1,1.68,1.68,0,0,0,.77.34,2.18,2.18,0,0,0,.85-0.09l0.06,0.14L79.91,77l0.31,0.26a0.71,0.71,0,0,0,.2.11l0.17,0.06h0.26l0.09,0,0.2-.06v0l5.39,19.39ZM92,69.48l-3.09,1.36-0.79-.09L85.35,72.6l-2.13-3.91a11.39,11.39,0,0,1,2.41-2,2.46,2.46,0,0,0,.23-1.13A5,5,0,0,0,87,64.06a3.46,3.46,0,0,0,.77-0.85l0.11,0.06,0.54,0.34,0.48,0.34,0.43,0.37,0.37,0.37L90,65.08l0.31,0.4,0.28,0.4,0.23,0.43L91,66.73l0.2,0.43,0.17,0.45,0.17,0.45L91.87,69c0.06,0.17.09,0.31,0.14,0.48H92Zm-9.5,35.86c0.14,0.17.28,0.34,0.45,0.51a4.24,4.24,0,0,0,.37.31l0.4,0.26L84,106.58a1.6,1.6,0,0,0,.34.11l0.37,0.09c0.11,0,.26,0,0.37.06s0.23,0,.37,0a10.93,10.93,0,0,1,.26,1.39,5.14,5.14,0,0,1,0,1.47l-0.11,0h0a9.65,9.65,0,0,1-1.5-1.11A6.21,6.21,0,0,1,83,107.43l-0.11-.2-0.09.23a3.79,3.79,0,0,1-1.53,1.67,25.88,25.88,0,0,1-2.92,1.62h0l-0.34.17a0.72,0.72,0,0,1-.2.06H77.67a11.67,11.67,0,0,1-.37-1.33,8.28,8.28,0,0,1-.11-1.45,8.21,8.21,0,0,0,1.16-.17l0.43-.11,0.4-.11,0.4-.14,0.54-.26a4.93,4.93,0,0,0,.51-0.31c0.17-.11.34-0.23,0.48-0.34s0.31-.26.45-0.37L82,106c0.17-.17.34-0.37,0.48-0.54v-0.09Zm2.89,4.45,0.09,1.28c0.06,1,.11,2,0.14,3,0.06,2.47.06,5,.11,7.43V122c0.26,0.26.51,0.48,0.77,0.71s0.51,0.45.77,0.65,0.43,0.31.62,0.48,0.34,0.23.54,0.34l0.23,0.11c0.43,0.2.85,0.37,1.25,0.57l0.54,0.28a1.71,1.71,0,0,1,.23.23l0.26,0.34c0.09,0.11.17,0.26,0.26,0.4s0.28,0.48.4,0.71a2.19,2.19,0,0,1,.2.45c0.09,0.23.17,0.45,0.26,0.71l0.09,0.34,0,0.43a0.75,0.75,0,0,1-.4.26,1.21,1.21,0,0,1-.31.06,1.87,1.87,0,0,1-.4,0H90.2c-0.77,0-1.5-.14-2.27-0.2H87.82l-0.28-.09a2.86,2.86,0,0,1-.43-0.2l-0.43-.23L86.17,128c-0.45-.31-0.85-0.68-1.3-1a2.36,2.36,0,0,0-.34-0.23c-0.11-.06-0.23-0.14-0.37-0.2l-0.26-.09c-0.45-.14-0.91-0.26-1.36-0.43a3.38,3.38,0,0,1-.57-0.23l-0.31-.17-0.17-.14c0-.06-0.09-0.09-0.11-0.14s0-.09-0.06-0.14a8.53,8.53,0,0,1,0-1.7l0.09-1.36-0.17-.85c-0.09-.4-0.17-0.79-0.26-1.16s-0.2-.74-0.28-1.11-0.2-.71-0.31-1.08c-0.43-1.33-.88-2.66-1.28-4-0.14-.45-0.26-0.88-0.37-1.33s-0.17-.68-0.23-1l-0.14-.74a27.32,27.32,0,0,0,3-1.67,4.46,4.46,0,0,0,1.53-1.59,8.17,8.17,0,0,0,1,1,8,8,0,0,0,1.45,1.08ZM67.61,111l-1,11.51c0.09,0.77.26,1.53,0.4,2.27,0.09,0.4.14,0.79,0.2,1.19a1.72,1.72,0,0,1,0,.54h0c-0.6.23-1.19,0.48-1.79,0.74l-1.28.6-0.68.34L60,130.14l-0.51.28a6.16,6.16,0,0,1-.68.2l-0.74.17a2.48,2.48,0,0,1-.45.06,4.39,4.39,0,0,1-.62,0,2.75,2.75,0,0,1-.48,0L56,130.79l-0.31-.06a5.39,5.39,0,0,1-1-.34,1.15,1.15,0,0,1,0-.31,0.83,0.83,0,0,1,.06-0.26c0-.09.06-0.17,0.09-0.28a3.69,3.69,0,0,1,.23-0.48l0.11-.2c0.26-.37.54-0.71,0.82-1,0.14-.14.26-0.28,0.4-0.43l0.77-.6,0.57-.4a2.83,2.83,0,0,1,.4-0.23c0.17-.09.34-0.17,0.48-0.23s0.2-.09.28-0.14a2.45,2.45,0,0,0,.45-0.28l0.28-.23c0.85-.68,1.62-1.45,2.41-2.18l-2.07-12.7a7.9,7.9,0,0,0,1.08-.77,13.55,13.55,0,0,0,1.36-1.28,15.36,15.36,0,0,0,3.12,2.21,3,3,0,0,0,2,.4Z" style="fill: #fc0"/>
    <path d="M84.7,79.6l0.09,0H85l-0.71-2.38a0.63,0.63,0,0,1-.28.37,0.1,0.1,0,0,0-.06,0l0.6,2,0.09,0,0.09,0v0ZM59.53,56.47a0.87,0.87,0,0,1,.85.85l0,0c2.07-1.13,1.45-1.36,2.86-2.3h0c1.67-.4,1.42.2,3.66-0.54h0a0.88,0.88,0,0,1-.06-1.19,0.92,0.92,0,0,1,1.25,0,1,1,0,0,1,.2,1.16,2.38,2.38,0,0,1-1.11,1c-1.11.37-1.84,1-3.2,1.39-1.13.74-2.18,0.71-3.2,1.39a2.69,2.69,0,0,1-1.47.14,1,1,0,0,1-.71-0.94,0.9,0.9,0,0,1,.85-0.91h0Zm6.35,5.87A6.05,6.05,0,0,0,67,61.77l0.45,0.28c-0.51.31-1,.57-1.59,0.85V62.33Zm-0.79,1.19,3.34-1.76a2,2,0,0,1,.31,1l-3.06,1.59a2,2,0,0,1-.6-0.85v0Zm3.69-.6a1.91,1.91,0,0,1-.28,1l-1-.31,1.25-.65h0Zm-2.18,1.84a2.19,2.19,0,0,1-.82-0.28L67,63.86ZM68.43,64a2.1,2.1,0,0,1-.65.57,2.15,2.15,0,0,1-1,.23l0.45-1,0.14-.09ZM46.8,18.2l3.37,3L65,54.62H64.37a5.06,5.06,0,0,0-.65.06l-0.37.09L47.48,19.7l-0.14-.09-0.06.17L63.16,54.85a6.23,6.23,0,0,0-.51.4,2.82,2.82,0,0,0-.31.28L61.91,56,47,23.16l-0.23-4.93ZM84.47,73.3l10.66,39.15a0.15,0.15,0,0,1-.06-0.09h0a0.5,0.5,0,0,0-.11-0.14h0a0.43,0.43,0,0,0-.11-0.11h0L94.73,112s0,0-.06,0l-2.13-7.2a1.23,1.23,0,0,1,0-.14,3.61,3.61,0,0,0,0-.54,1.74,1.74,0,0,0,0-.37c0-.17,0-0.34-0.06-0.48a6.38,6.38,0,0,0-.14-0.62c0-.11-0.09-0.23-0.11-0.34a1.73,1.73,0,0,0-.2-0.4c-0.06-.11-0.14-0.23-0.23-0.37a1.42,1.42,0,0,0-.2-0.23l-0.17-.17-2-6.72a0.1,0.1,0,0,1,0-.09,3.8,3.8,0,0,0,0-.57,1.62,1.62,0,0,0,0-.37c0-.17,0-0.34-0.06-0.51a5.52,5.52,0,0,0-.17-0.65,3.18,3.18,0,0,0-.14-0.37C89.09,91.7,89,91.56,89,91.42A4.2,4.2,0,0,0,88.72,91a0.76,0.76,0,0,0-.2-0.23,0.43,0.43,0,0,0-.11-0.11h0l-1-3.32h0a0.61,0.61,0,0,0-.11-0.34L86.6,84.59l0.06-.14c0-.09.09-0.2,0.11-0.28l0.09-.43a4.19,4.19,0,0,0,0-.6,1.87,1.87,0,0,0,0-.4l-0.09-.54-0.17-.68a2,2,0,0,0-.14-0.37,3.38,3.38,0,0,0-.23-0.45L86,80.31c-0.06-.09-0.14-0.17-0.2-0.26a1.42,1.42,0,0,0-.23-0.2l-0.23-.17-0.17-.09-0.09,0-1.53-5.22c0.17-.14.34-0.31,0.51-0.48s0.2-.4.31-0.6Zm10,38.49-0.11-.09h0l-0.17-.09h0l-0.17-.06h0l-0.82-2.75a0.42,0.42,0,0,0,.06-0.11h0c0-.06,0-0.11,0-0.17v-0.11a0.74,0.74,0,0,0-.17-0.4,0.56,0.56,0,0,0-.4-0.14H92.64l0,0.17h0.09a0.48,0.48,0,0,1,.28.09,0.38,0.38,0,0,1,.11.28v0.09a0.14,0.14,0,0,1,0,.11h0a0.51,0.51,0,0,1-.14.2,0.47,0.47,0,0,1-.28.06l-0.26,0-0.06.17c0.06,0,.09,0,0.14,0l0.79,2.69-0.09.09h0l-0.11.14h0l-0.09.11h0l-0.09.11h0l-0.09.17-2.1-6.94a1.23,1.23,0,0,0,.2.17,0.62,0.62,0,0,0,.23.14l0.14,0.06,0.17,0.06h0.11l0.6,2.07,0.14-.06-0.6-2h0.06l0.09,0,0.09,0,0.09,0,0.14-.09,0,0,0.54,1.84,0.14,0-0.57-1.93a0.59,0.59,0,0,0,.11-0.17l0.09-.17,0.09-.23,2,6.77Zm-0.68-.23H93.74l-0.09,0h0l-0.09,0h0l-0.09,0h0l-0.09.06-0.77-2.61h0A0.78,0.78,0,0,0,93,109l0.09-.06,0.79,2.61H93.83Zm-1.13,1.11s0,0.06,0,.09h0c0,0.06,0,.11,0,0.17s0,0.11,0,.17h0c0,0.11,0,.2,0,0.31v0.31h0v0.06h0l-1,.2L89,104.63l1-.14a1.73,1.73,0,0,0,.2.4,1.91,1.91,0,0,0,.2.31h0Zm-4.11-9.61-2.44-8.79,0.74-.11c0.06,0.14.14,0.28,0.2,0.43a4.2,4.2,0,0,0,.23.37l0.17,0.23,2.21,7.46h0v0.14l-1.13.26Zm-2.49-9-0.34-1.25,1-.23c-0.09-1,.23-1.9.79-2s1.45,0.85,1.76,2.21,0,2.58-.68,2.72S87.42,95,87.05,94l-0.94.09Zm-0.4-1.45-2.47-8.93,0.88-.11,2.44,8.28c0,0.14,0,.28,0,0.43v0.11l-0.82.2v0Zm-2.52-9.13-0.37-1.3L84,81.89c-0.09-1.11.26-2,.82-2.13s1.53,0.88,1.81,2.3,0,2.69-.71,2.83-1.25-.57-1.62-1.59l-1.11.14v0Zm-0.43-1.53-1.53-5.53a1.56,1.56,0,0,0,.2-0.26,2,2,0,0,0,.26-0.57l0.09,0,1.81,6.18Zm-0.88-6.43s0.09,0,.11-0.06l0.48-.26,0.34,1.22,0.14-.06-0.37-1.25a0,0,0,0,0,0,0L83,74.83l0.37,1.33h0l0,0.23,0.23-.06a0.45,0.45,0,0,1,.34.11,0.49,0.49,0,0,1,.14.37v0.11a0.36,0.36,0,0,1,0,.17h0a0.36,0.36,0,0,1-.2.26,0.71,0.71,0,0,1-.37.09,1,1,0,0,1-.28,0l0-.11L83,77.36l0.85,2.92,0,0.09c0,0.09-.06.2-0.09,0.31a1.42,1.42,0,0,0-.06.34,4.19,4.19,0,0,0,0,.6v0.11h0l-1.81-6.21h0.06Zm1.28-.77,0.23-.17a0.62,0.62,0,0,0,.14-0.11L84,76.25a0.68,0.68,0,0,0-.43-0.11,0.1,0.1,0,0,0-.09,0h0l-0.4-1.39v0Zm7.48,26.05h0l-0.6-2a0.72,0.72,0,0,1-.34.06H89.57L90.23,101l0.11-.09,0.14-.09,0.09,0,0.09,0h0Zm0.17,0h0.14l0.17,0.06,0.14,0.06s0,0,.06,0l-1.84-6.29v0a2,2,0,0,1-.11.28l-0.09.17-0.09.14,0.68,2.32h0a0.63,0.63,0,0,1,.31.14,0.48,0.48,0,0,1,.17.4v0.11a0.36,0.36,0,0,1,0,.17h0a0.55,0.55,0,0,1-.14.26Zm-1.08,1.42V102.1c0-.11,0-0.2.06-0.31s0.06-.17.09-0.28l0.09-.17a1,1,0,0,1,.14-0.23h0l-0.79-2.69,0.14-.06,0.06,0.2a0.48,0.48,0,0,0,.2,0A0.71,0.71,0,0,0,90,98.53a0.25,0.25,0,0,0,.14-0.2h0a1.23,1.23,0,0,0,0-.14V98.11A0.38,0.38,0,0,0,90,97.82a0.42,0.42,0,0,0-.28-0.09H89.66l0-.17h0L89,95.39h0l-0.09.09-0.14.09-0.09,0-0.09,0-0.06,0,0.54,1.79L89,97.48l-0.54-1.81H88.36l-0.17,0L88,95.58l-0.17-.09-0.23-.14h0l2,6.83h0.09ZM86.49,86.68h0L86,85.07h0l-0.09,0H85.75l-0.17,0h0l0.62,2.07L86,87.19,85.38,85,85.24,85A1.57,1.57,0,0,1,85,84.78c-0.09-.06-0.14-0.14-0.23-0.2a1.56,1.56,0,0,1-.2-0.26l-0.17-.26h0l2.18,7.37s0-.09,0-0.11L86.71,91l0.09-.17,0.14-.23L87,90.57l-0.65-2.21,0.14-.06,0.65,2.18,0,0,0.14-.09,0.09,0,0.09,0h0.09L87,88.16a0.78,0.78,0,0,1-.26,0,1.66,1.66,0,0,1-.37-0.06l0.06-.2a1.42,1.42,0,0,0,.34.06,0.78,0.78,0,0,0,.37-0.09,0.45,0.45,0,0,0,.2-0.26h0c0-.06,0-0.11,0-0.17V87.36A0.63,0.63,0,0,0,87.19,87a0.47,0.47,0,0,0-.34-0.14l-0.23.06,0-.23H86.49Zm0.26-.06a0.65,0.65,0,0,1,.4.11l-0.62-2.07a0.39,0.39,0,0,0-.09.11l-0.14.11L86.14,85h0l0.48,1.64,0.09,0h0.06Zm0.68,1a0.66,0.66,0,0,1-.28.34,0.1,0.1,0,0,1-.09,0h0l0.65,2.21h0.09L88,90.31l0.17,0.09a0.21,0.21,0,0,0,.11.06ZM83.34,77.58L84,80h0l0.09-.14,0.11-.14,0.17-.11-0.6-2.07a0.87,0.87,0,0,1-.28,0,0.42,0.42,0,0,1-.2,0v0ZM90.68,101c0.65-.14,1.39.82,1.67,2.1s0,2.47-.65,2.61-1.13-.51-1.47-1.45l-1.22.14-0.31-1.19,1.25-.26c-0.06-1,.23-1.81.77-1.93Zm4.56,11.82L96,115.46c0.09,1.3-.06,2.13-1.08,2.64-1.11.31-1.7-.26-2.52-1.45l-0.71-2.55,1-.23h0.06V113.7h0v-0.28c0-.11,0-0.2,0-0.28s0-.11,0-0.17,0-.11,0-0.17h0a0.3,0.3,0,0,1,.06-0.14c0-.06,0-0.09.06-0.14l0.09-.17h0a0.21,0.21,0,0,0,.06-0.11h0l0.09-.11,0.11-.14,0.14-.11,0.14-.09,0.09,0,0.09,0h0.17l0.17,0,0.17,0.06,0.14,0.09L94.51,112l0.11,0.09h0a0.39,0.39,0,0,0,.11.09,0.43,0.43,0,0,1,.11.11h0a0.43,0.43,0,0,0,.11.11h0L95,112.48h0c0,0.06.09,0.09,0.11,0.14a1.33,1.33,0,0,1,.17.26ZM94.54,112h0Zm-1.53.31h0Zm-0.23.79h0Zm0,0.6h0Zm1.79-.94,0.26,0.85-0.17.06-0.26-.85ZM94,112.9l0.26,0.85-0.17.06L93.8,113Zm-0.48.62,1.11,3.69-0.17.06-1.11-3.69Zm-0.37.79,0.54,1.84-0.17.06-0.54-1.84ZM91,103.41c0.77,0.57,1-.45.37-0.51l0-.23a0.78,0.78,0,0,1,.37.06,0.53,0.53,0,0,1,.23.2,0.6,0.6,0,0,1-.14.82l0.17,0.6-0.17,0-0.14-.57a0.83,0.83,0,0,1-.45,0l0.26,0.82-0.17.06-0.31-1a0.67,0.67,0,0,1-.14-0.14Zm-0.71-.4,0.23,0.79-0.17.06-0.23-.79Zm0.37-.82L90.85,103l-0.17.06-0.23-.79Zm0.48-.43,0.23,0.79-0.17.06-0.23-.79Zm-3.29-8.7c0.79,0.6,1-.48.37-0.54l0-.23a1.26,1.26,0,0,1,.37.06,0.44,0.44,0,0,1,.23.23,0.64,0.64,0,0,1-.14.88l0.17,0.62-0.17.06-0.17-.6a1,1,0,0,1-.48,0l0.26,0.88L88,94.45l-0.31-1a0.34,0.34,0,0,1-.14-0.14l0.2-.14Zm-0.74-.43,0.26,0.82-0.17.06-0.26-.82Zm0.4-.88,0.26,0.82-0.17.06-0.26-.82ZM88,91.3l0.26,0.82L88,92.18l-0.26-.82ZM85.1,82.4c0.82,0.62,1.08-.48.4-0.57l0-.26a1.48,1.48,0,0,1,.4.06,0.67,0.67,0,0,1,.26.23,0.65,0.65,0,0,1-.17.91l0.17,0.68-0.17.06-0.17-.62a0.8,0.8,0,0,1-.51,0l0.28,0.91-0.17.06L85,82.71a0.67,0.67,0,0,1-.14-0.14l0.2-.14v0ZM84.33,82l0.26,0.85-0.17.06L84.16,82Zm0.4-.91L85,81.92,84.81,82l-0.26-.85Zm0.51-.48,0.26,0.85-0.17.06-0.26-.85Zm8.93,34c0.79,0.62,1-.48.4-0.57l0-.26a1.48,1.48,0,0,1,.4.06,0.67,0.67,0,0,1,.26.23,0.65,0.65,0,0,1-.17.91l0.37,1.33-0.17.06L94.85,115a0.8,0.8,0,0,1-.51,0l0.6,2-0.17.06-0.65-2.21a0.67,0.67,0,0,1-.14-0.14Z" style="fill: #999"/>
  </g>
</svg>
