<svg id="city_ussur" data-name="ussur" xmlns="http://www.w3.org/2000/svg" width="52.5mm" height="52.5mm" viewBox="0 0 148.82 148.82">
  <title>ussur</title>
  <g id="ussur">
    <path d="M60.09,103.44H87.56l0.34,0.34,0.14-.2,0.54,0.26,0.11,0.06,0.11,0.06L88.92,104,89,104.06l0.09,0.06,0.09,0.06,0.09,0.06,0.09,0.06,0.06,0.06,0.06,0.06,0.06,0.06,0.06,0.06,0.06,0.06,0.06,0.06,0.54,0.77,0.14-.28,0,0,0.14,0.09h0V131H60.12V103.38ZM89.77,78.6L92.35,75l-1.59-2.66,0.68-1.28L89.57,69.7l1.79-1.59L90.77,67,92,65.17l1.28,0.4,3.46-2.47L97,61.31,101,56.86,104.4,54l-0.28-1.19,4.45-4.37-1.39-2.58L108,44.79l-1.47-1,4-5,0.2-4.17-2.38-1-0.4-3.37h-0.68l-0.68-2.18-3.66-1.79-2-2.38L99.3,24l-2-1.28-0.88.68-2.38-1.39-1.19.4-3.06-1-0.6,1-2.38.09-2-1-0.6-.68L83,19.47l-2.38-.68-2.38,2.58L77.13,20l-2.78-.28-1.39-2-5,1.39-2.38-.48-4.45,1.79-1.59-.68L54.65,22.2,51,22.48,50.4,24l-2.86.79L46.86,26,42.8,28.09,42,30.76l-0.79.6-0.68,2.78L38.75,35l-0.48,3.17,3.17,4.25-0.79,6L44.7,53,44.5,55.5l4.65,5.24v1l5,3.77-0.2,1,1.19,2.07-0.28,1.59,2.38,3.66,1.16,0.4,0.4-.57,0.51,0.57,0.09,0.11,0.06,0.11,0.06,0.11,0.06,0.11,0,0.11,0,0.11,0,0.11,0,0.11v0.57l0,0.11-0.06.2-0.17.2-0.09.11-0.09.11-0.09.11-0.09.11L59,76.76,59,76.88,58.88,77l-0.09.11-0.09.09,1,1.53L59.84,79H89.72l0.09-.34Z" style="fill: #fc0"/>
    <path d="M92.24,65.65c10,5.92,10.63,22.88-.2,36.06l-1.5-1.45c8.11-11.54,9.81-22.11.14-31,0.4-.43.79-0.82,1.16-1.25-0.14-.34-0.31-0.71-0.45-1Zm-23.5.45c0.06,0.77.14,1.53,0.2,2.3A7.78,7.78,0,0,0,66,70.16a2.76,2.76,0,0,1-.26-1.76C65.57,68.14,68.68,65.85,68.74,66.1Zm-9.67,9.64a16.68,16.68,0,0,0-2.21,3.43,10.94,10.94,0,0,1,2-4.65A1.4,1.4,0,0,1,59.07,75.74Zm33.82,27.86a34.53,34.53,0,0,0,5.44,2.92,19.14,19.14,0,0,1,4.79,3.12c2,2,.11,4.37-2.61,2.92a27.57,27.57,0,0,1-4.79-4.25,15.41,15.41,0,0,0-3.91-3,3,3,0,0,1,1.08-1.7v0ZM92,102.93c0.23-.14.34-0.06,0.37,0.28A13,13,0,0,1,91,104.88c-0.37-.11-0.4-0.23-0.4-0.34A7.93,7.93,0,0,1,92,103v0Zm-4.17,0-0.4-.4a8.82,8.82,0,0,1,1.33-1.9,1.13,1.13,0,0,1,1,.11,4.45,4.45,0,0,0,2.07,1.53,9.75,9.75,0,0,0-1.67,2.18,3.43,3.43,0,0,0-1.5-1.16,5.88,5.88,0,0,1,1-1.84c0-.51-0.34-0.48-0.48-0.23A7.26,7.26,0,0,0,87.85,103v0Z" style="fill: #999"/>
    <polygon points="60.07 80.19 90.28 80.19 90.28 99.69 89.94 100.18 89.92 100.15 89.77 100.09 89.66 100.06 89.55 100.03 89.43 100.03 89.35 100.01 89.26 100.03 89.15 100.03 89.06 100.03 88.98 100.03 88.89 100.06 88.84 100.06 88.75 100.06 88.47 100.09 88.24 100.38 88.13 100.49 88.02 100.6 87.93 100.74 87.82 100.86 87.73 100.97 87.65 101.11 87.56 101.22 87.48 101.37 87.39 101.48 87.31 101.62 87.22 101.73 87.17 101.88 87.08 101.99 87 102.13 86.97 102.19 60.07 102.19 60.07 80.19"/>
  </g>
</svg>
