<svg id="city_chita" data-name="chita" xmlns="http://www.w3.org/2000/svg" width="52.5mm" height="52.5mm" viewBox="0 0 148.82 148.82">
   <g
        transform="matrix(0.0283466687,0,0,0.0283466716,-893.0366055,-1190.424785)"
        style="clip-rule:evenodd;fill-rule:evenodd;image-rendering:optimizeQuality;shape-rendering:geometricPrecision;text-rendering:geometricPrecision"
        id="chita">
        <path
            class="fil3"
            d="m 34125,43196 c -59,-22 -140,-22 -220,-24 -112,-1 -182,24 -210,76 -387,21 -558,-160 -630,-434 -21,-26 -37,-26 -48,0 -28,293 120,484 365,619 -97,14 -194,28 -292,42 -35,14 -39,32 -11,56 193,159 364,224 515,193 33,-12 24,45 23,88 -55,98 -30,202 31,310 37,47 74,95 111,142 3,68 17,135 42,203 -42,68 -51,133 13,191 19,25 39,50 59,75 8,97 58,140 150,132 67.82097,18.9636 186.91561,28.27543 242,0 92,8 142,-35 150,-132 20,-25 39,-50 59,-75 63,-58 55,-123 13,-191 24,-68 39,-135 42,-203 37,-47 74,-95 111,-142 61,-108 86,-212 31,-310 -1,-43 -10,-100 23,-88 150,31 322,-34 515,-193 28,-24 24,-42 -11,-56 -98,-14 -195,-28 -292,-42 245,-135 393,-326 365,-619 -11,-26 -27,-26 -49,0 -71,274 -242,455 -629,434 -28,-52 -98,-77 -210,-76 -80,2 -161,2 -220,24 -2,11 -18,11 -38,7 z m -98,1521.95052 231,0 c 0,122 -231,126 -231,0 z m -165,-856.57263 c -53,35 -94,27.00934 -117,-9.99066 L 33727,43929 c 38,43 86,49 141,19 -3,-14 -3,-73.62211 -6,-86.62211 z m 546,0 c 53,35 94,27.00934 117,-9.99066 6,8 12,69.61277 17,77.61277 -38,43 -85,49 -141,19 3,-14 3,-73.62211 7,-86.62211 z"
            id="path1116"
            style="fill:#ffcc00" />
        <path
            class="fil2"
            d="m 35619,46455 -464,0 0,-1104 235,-414 229,414 0,1104 z m -3030,0 -464,0 0,-1104 234,-414 230,414 0,1104 z m 1010,0 -464,0 0,-1104 234,-414 230,414 0,1104 z m 1010,0 -464,0 0,-1104 234,-414 230,414 0,1104 z"
            id="path1120"
            style="fill:#000000" />
        <path
            class="fil4"
            d="m 36125,46455 -465,0 0,-1104 235,-414 230,414 0,1104 z m -3031,0 -464,0 0,-1104 234,-414 230,414 0,1104 z m 1010,0 -464,0 0,-1104 234,-414 230,414 0,1104 z m 1010,0 -464,0 0,-1104 234,-414 230,414 0,1104 z"
            id="path1122"
            style="fill:#999999" />
    </g>
</svg>