<svg id="city_krd" data-name="krd" xmlns="http://www.w3.org/2000/svg" width="52.5mm" height="52.5mm" viewBox="0 0 148.82 148.82">
  <title>krd</title>
  <g id="krd">
    <path d="M55.56,88h4.28v6h2.83V88h5.67v6h2.83V88H77.1v6h2.83V88h6.72v6h2.83V88h2.86V72.51h8.16v7.14h5V72.51h7.17v7.14h6.83V72.51h7V131.1H80.14V110.21a7.14,7.14,0,0,0-14.29,0V131.1H22.22V73H30.3v6.89h5.1V73h7.77v6.89h5.1V73h7.26V88h0Z" style="fill: #999"/>
    <path d="M70.1,78A4.43,4.43,0,0,1,67,77.64a1.85,1.85,0,0,1-1-1.76,1.77,1.77,0,0,1,1.76-1.39H76v2.75c-0.6.06-2.75-.31-3.71,0.65a2.11,2.11,0,0,0,1.25,3.66c0.79,0.09,1.08-.23,1-0.82S73.73,80.42,73.3,80c-0.68-.71.06-1.47,1.11-1.45l1.59,0v2.38c0,0.43-3.74,2.38-1.08,4.05l2.47,0a0.58,0.58,0,1,0,0-1.16H76c-2-1.22,3.86-2.78,5.13-5,0.37-.62,0-1-0.43-0.54A2.89,2.89,0,0,1,78,79.34V74.49h6.26c3.12,0,1.81,3.91-.2,3-0.43-.2,0-1-0.34-1.33a0.78,0.78,0,0,0-1.16.09A2,2,0,0,0,83,78.49a2.73,2.73,0,0,0,4.28-.91,3.29,3.29,0,0,0,.14-2.78,2.83,2.83,0,0,0-2.89-1.7H78V70.58a1.83,1.83,0,0,1,1.81-1.53,1.15,1.15,0,0,1,1.13,1.42c-0.26,1.08-1.08.23-1.64,0.57a0.79,0.79,0,0,0,0,1.16,2.14,2.14,0,0,0,3-1.33,2.55,2.55,0,0,0-2.95-3.12,3.75,3.75,0,0,0-2.18,1.53C77,69,76.82,68.71,76.65,68.43c1.5-.88,3.26-1.76,4.14-3.15,0.6-.94-0.54-2.21-0.74-3.32,0.62-.43,1.11-1.59,1.87-1.5,2.66,0.2.26,4.28-.34,5.92,3.86,0.79,5.81,3,9.38,6.43-0.51,1.59.37,1.47,2.24,2.75-0.71-1.45-.85-1.45-0.06-2.89a10.86,10.86,0,0,1,5.75.23c2.81,1.11,1.13,1.67.31,2.52,2.3-.54,3.94-2.21,1.13-3.69-2.18-1.13-5.67.34-7.91-.65-2.86-1.25-3.49-4.51-5.9-6.46-1.13-2,.88-4.28,2-4.08,0.79-1.7,7.34,6.46,11.14,7.51a8.49,8.49,0,0,1-2.78-4.93c2.49,2.55,5.16,5.5,9.72,4.2-2.13-2.61-7.43-6.21-6.35-7.8,1.19-.26,6.72,7.68,9.84,7.23-2.52-2.13-6.77-5.36-5.92-6.35,0.14-2.3,5.7,8.22,12.25,4.28-3-2.69-6.49-5.61-9.5-8,3.71,2,7.29,3.49,10.12,3.09-1-.17-8.62-3.32-8.39-4.28-0.26-2,11.42,5.41,14.31-1.28-1.73-.45-13.27-1.87-12.73-3.32,0.2-1.42,8.76,1.62,11.79-1.33-3.32.09-9.64,0.6-10-.68,0.54-1.19,13.12.17,13.29-7.51-4.65,1.67-14.63,4.31-14.71,2.69-0.06-1.3,9.81-2.1,11.37-5.27-3.4,1.53-13.07,3.4-12,3,1.33-.45,14.66-3.83,12-10.69-1.42,1.3-11.74,7.82-13.58,6.94-0.91-1.3,13-6.89,12.87-9.84a49.26,49.26,0,0,1-7.8,4.65c1-2.72,7.63-5.36,5.07-10.63-4.08,3.54-6.77,7.82-12,9.92-1.19.48-2.55,0.2,0.09-1.36,6-4.48,6.72-5.73,7.23-8.39-0.91,2.18-6.32,6.43-8.48,7.51-0.85.57-2.81,0.6-.88-0.65,3.66-2.35,9.72-4.9,7.6-10.46a61.69,61.69,0,0,0-6.46,4.37C103,25.31,87.08,32.77,95,35.86c2.55,0.23,4.71,4.68,1.3,4.82-1.87.09-5.33-.74-6.58,4.93-0.45,2-4.42,2.38-4.59-1.9-0.09-2.1.37-2.1-2.13-3.06-1.93-.74-0.85-3.17.48-2.38-0.77-2.58.31-3.23,1.11-3.6,0.23-.11,3.71,0,3.91-1.25-1.64.17-2.92-.2-2.66-0.43,0.88-.85,3.34-0.88,4,0.31,0.28,0.51.57-3-1.59-3.71a7.57,7.57,0,0,0-2.52-.14c-1.08-.17-0.54-1.3-2.38-1.59l0.17-1.39-1.62,1.3-1.36-.91L79.8,28.32l-2-.06c0.26,0.4,1.28.85,1.13,1.25-0.43,1.13-.57,1.81-1,2.81,0.51-.11,1.79-0.57,1.19.79S76.82,37,76.42,38.38C76,37,75.57,34.38,75,33.11s0.68-.94,1.19-0.79c-0.45-1-.6-1.67-1-2.81-0.14-.37.88-0.85,1.13-1.25l-2,.06-0.74-1.45-1.36.91-1.62-1.3,0.17,1.39c-1.84.28-1.3,1.42-2.38,1.59a7.57,7.57,0,0,0-2.52.14c-2.15.68-1.87,4.22-1.59,3.71,0.68-1.19,3.15-1.16,4-.31,0.26,0.23-1,.6-2.66.43,0.2,1.25,3.66,1.16,3.88,1.25,0.79,0.4,1.87,1,1.11,3.6,1.33-.79,1.11,1.64-0.82,2.38-2.49,1-2,1-2.13,3.06-0.17,4.28-4.14,3.88-4.59,1.9-1.25-5.67-4.48-4.14-6.35-4.22-3.4-.14-1.25-4.59,1.3-4.82,7.88-3.06-2.64-11.23-5.36-13.35a61.69,61.69,0,0,0-6.46-4.37c-2.13,5.58,3.94,8.11,7.6,10.46,1.93,1.25,0,1.22-.88.65-2.18-1.08-7.57-5.33-8.48-7.51,0.51,2.66,1.16,3.88,7.23,8.39,2.64,1.56,1.28,1.84.09,1.36-5.16-2.13-7.88-6.41-11.93-9.92C37.3,27.52,43.94,30.16,45,32.91a50.13,50.13,0,0,1-7.8-4.65C37,31.18,50.94,36.79,50,38.1c-1.84.91-12.16-5.61-13.58-6.94-2.66,6.86,10.66,10.23,12,10.69,1.08,0.37-8.59-1.5-12-3,1.56,3.17,11.45,4,11.37,5.27-0.09,1.64-10.06-1-14.71-2.69,0.17,7.68,12.76,6.32,13.29,7.51-0.4,1.28-6.75.77-10,.68,3,3,11.59-.06,11.79,1.33,0.54,1.47-11,2.86-12.73,3.32C38.3,60.89,50,53.55,49.75,55.5c0.26,1-7.31,4.14-8.39,4.28,2.81,0.37,6.41-1.11,10.12-3.09-3,2.41-6.49,5.33-9.5,8,6.55,3.94,12.1-6.58,12.25-4.28,0.85,1-3.4,4.22-5.92,6.35,3.09,0.45,8.65-7.48,9.84-7.23,1.08,1.62-4.25,5.19-6.35,7.8,4.56,1.3,7.23-1.64,9.72-4.2a8.49,8.49,0,0,1-2.78,4.93c3.77-1,4.71-9.21,5.5-7.51,1.16-.2,0,3.37-1.16,5.36-2.41,2-4.37,4.68-7.23,5.92-2.27,1-5.75-.48-7.91.65-2.81,1.47-1.16,3.15,1.13,3.69-0.79-.85-2.49-1.45.31-2.52a11.14,11.14,0,0,1,5.75-.23c0.79,1.45.65,1.45-.06,2.89,1.84-1.28,2.75-1.16,2.24-2.75,3.57-3.46,7.26-5.84,11.11-6.63-0.57-1.53-.94-3.09,0-4.62,0.62-.54,1-1.53,1.87-1.59s1.25,0.88,1.87,1.3C72,63.16,71,64.43,71.6,65.37a5.43,5.43,0,0,0,1.47,1.42,2.49,2.49,0,0,0-.43.14,3,3,0,0,0-1.76,2.32,2.59,2.59,0,0,0,.79,2.27,2.83,2.83,0,0,0,1.67.48A0.93,0.93,0,0,0,74,70.38c-0.37-.48-1.13.11-1.56-0.28a1.12,1.12,0,0,1,.11-1.33c1.13-1.5,3.54-.23,3.57,1.42v3H67.58a3,3,0,0,0-2.92,3.32c0.43,2.89,3.49,3.83,5.56,1.62Z"/>
    <path d="M70.1,42.66h12V56.18a1.42,1.42,0,0,1-1.3,1.19H79.09c-1.08,0-2.61-.11-3,1.19-0.37-1.3-1.93-1.19-3-1.19H71.52a1.46,1.46,0,0,1-1.42-1.19V42.66Zm2.58-16.21A7.61,7.61,0,0,1,71,24.55c-1.33-2,.31-3.66,1.87-4.05s1.93,2.13,2.18,3.17a0.68,0.68,0,0,0,.6.43,0.49,0.49,0,0,0,.45-0.45c-0.09-1-.48-1.22-1-2.15-1-1.73.62-2.3,1.53-3.12A1.7,1.7,0,0,0,77,17.74a1.7,1.7,0,0,0,.34.62c0.91,0.82,2.55,1.39,1.53,3.12-0.54.94-.94,1.08-1,2.15a0.49,0.49,0,0,0,.45.45,0.61,0.61,0,0,0,.6-0.43c0.26-1,.65-3.54,2.18-3.17s3.17,2,1.87,4.05a8.3,8.3,0,0,1-1.67,1.9,31.13,31.13,0,0,1-8.59,0h0Z" style="fill: #fc0"/>
  </g>
</svg>
