<svg id="city_nnov" data-name="nnov" xmlns="http://www.w3.org/2000/svg" width="52.5mm" height="52.5mm" viewBox="0 0 148.82 148.82">
  <title>nnov</title>
  <g id="nnov">
    <path d="M61.85,42.18s-5.67-.45-7.8-4.79c0,0,3.91,3.06,6.89,2.52,0,0-6.12-7.91-10.49-11.23,0,0,5.5,3.86,6.43,4.48l-1.5-8.11a9.39,9.39,0,0,1-1.3-7.34s0.31,5.47,1.64,5.5c0,0,.91-0.45,1.84-4.9,0,0-.11,5.1-1.19,6.58,0,0,1,1,3.91-2.3,0,0-1.67,3.15-3.29,4.28l0.09,1.56s1.64,7.88,6.38,11.79c0,0,2.07,1.56,6,0,0,0-.91-1.08-1.33-4.14,0,0,1.87,2.92,3.32,3.8a1.55,1.55,0,0,0,.43.23c1.42,0.45,3.71.77,5.75-2.81a14.58,14.58,0,0,1-2.3-8s2,6.43,3.91,6.89c0,0,1,1,6.69-6.75,0,0,.4-4.9-2.07-7.46a36.56,36.56,0,0,1,3.26,4.39s2-.45,1.11-7.91c0,0,.68,3.94,1.16,6.12A24.55,24.55,0,0,0,92,19S91.08,31.61,72.09,43.43c0.14-.09-8.62-1-10.2-1.3Z"/>
    <path d="M52,50.23s-0.91-2.07-.09-2.21c1.19-.2,5.92-1.53,7.4-3.29,0,0,3.29-3.37,5.61-3.15,0,0,4.82.45,6.26,1.76,0,0,6.43-.11,7.74-0.91a1.46,1.46,0,0,1,0,2.27S77.39,47,71.83,47.51c0,0-.31,9-1.76,13-1,2.72-2.07,10.86,4.25,12.25,0,0,9,1.42,12.7,0s20.44-4,24.58,7c0,0,1.42,3.49-2.55,1.56,0,0-2.3,6.89-.57,12.13,0,0-.45,6.49,9.3,9.81,0,0-.34,12.93,4.14,17.57v1.64s-3.37,4.82-2.69,6.26h-3.69s3.29-5.56,4-6.66c0,0-2.55-8.67-2.92-12,0,0-2.18-4.14-4.48-4.82,0,0-8.79-1.08-13.1-5.56a19.65,19.65,0,0,1-4.25,10.86,4.58,4.58,0,0,0-1.56,2.18l-0.34,12.13s-3.49,2.44-3.49,3.91H84.9s4.48-5.61,4.93-5.78c0,0,2.69-10.86,2.55-13.21,0,0,.57-2.92-0.91-4.82,0,0-7.63-6.66-7.74-11,0,0-6.77,3.15-13.55,1.56a6.14,6.14,0,0,1-1.08,5s-0.74,5.78-.34,6.89c0,0,2.3,3,0,5.47l-0.23,10.26,1.16,0.45s-2.44,3.57-2.55,5.13H63.5s2-3.6,3.17-4.25L66.36,113.1s-2.18-1.11-.57-5c0,0,.09-3.94-1.11-5.13,0,0-5.78-5.78-5.78-9.41,0,0-9.3.54-13.86-3.17,0,0,.09-0.34-4.9-0.09a23.59,23.59,0,0,1-4.71,5.13S32.51,102,33,104.85l-1.93,2.44-3.63.74s2.66-5,3.63-7.29c0,0,3.91-10.63,5.27-12.59a4.39,4.39,0,0,1,4.14-2.92s8.67-.91,10.15-2.44a3.82,3.82,0,0,0,1-2.38s-3.09-4,1.3-12.36a47.57,47.57,0,0,0,7.85-12.5s-1.42-3.26-3.32-3.63a10,10,0,0,1-4.9-1.16L52,50.2v0Z" style="fill: #fc0"/>
    <polygon points="30.9 107.15 27.27 107.83 26.93 112 31.83 108.82 31.46 106.38 30.9 107.15"/>
    <path d="M63.35,128.66H67a14.65,14.65,0,0,1,.62,2.44H62.48A5.61,5.61,0,0,1,63.35,128.66Z"/>
    <path d="M84.78,128.66s-1.42,1.33-1.42,2.44h5.5a8,8,0,0,1,.4-2.44H84.78Z"/>
    <path d="M119.2,128.66h-3.71s-1.64,1.11-1.76,2.44h5.56C119.2,131.1,119.31,129.43,119.2,128.66Z"/>
  </g>
</svg>
