<svg id="city_obn" data-name="obn" xmlns="http://www.w3.org/2000/svg" width="52.5mm" height="52.5mm" viewBox="0 0 148.82 148.82">
    <g
        transform="matrix(0.0283466687,0,0,0.0283466716,-1190.676627,-596.2722489)"
        style="clip-rule:evenodd;fill-rule:evenodd;image-rendering:optimizeQuality;shape-rendering:geometricPrecision;text-rendering:geometricPrecision"
        id="obn">
        <path
            class="fil2"
            d="m 44637,22338 c 127,0 231,326 231,728 0,402 -104,728 -231,728 -128,0 -232,-326 -232,-728 0,-402 104,-728 232,-728 z m 0,137 c 103,0 187,264 187,591 0,326 -84,591 -187,591 -104,0 -188,-265 -188,-591 0,-327 84,-591 188,-591 z"
            id="path860"
            style="fill:#000000" />
        <path
            class="fil2"
            d="m 44122,22551 c 90,-91 394,67 678,351 284,284 442,588 351,678 -90,91 -394,-67 -678,-351 -284,-284 -442,-588 -351,-678 z m 97,97 c 73,-74 320,54 550,285 231,231 359,477 285,550 -73,74 -319,-54 -550,-285 -231,-230 -359,-477 -285,-550 z"
            id="path862"
            style="fill:#000000" />
        <path
            class="fil2"
            d="m 43909,23066 c 0,-128 326,-232 728,-232 402,0 727,104 727,232 0,127 -325,231 -727,231 -402,0 -728,-104 -728,-231 z m 137,0 c 0,-104 264,-188 591,-188 326,0 590,84 590,188 0,103 -264,187 -590,187 -327,0 -591,-84 -591,-187 z"
            id="path864"
            style="fill:#000000" />
        <path
            class="fil2"
            d="m 44122,23580 c -91,-90 67,-394 351,-678 284,-284 588,-442 678,-351 91,90 -67,394 -351,678 -284,284 -588,442 -678,351 z m 97,-97 c -74,-73 54,-319 285,-550 231,-231 477,-359 550,-285 74,73 -54,320 -285,550 -230,231 -477,359 -550,285 z"
            id="path866"
            style="fill:#000000" />
        <path
            class="fil2"
            d="m 44639,22933 c 75,0 136,60 136,135 0,75 -61,136 -136,136 -75,0 -135,-61 -135,-136 0,-75 60,-135 135,-135 z"
            id="path868"
            style="fill:#000000" />
        <path
            style="clip-rule:evenodd;fill-rule:evenodd;image-rendering:optimizeQuality;shape-rendering:geometricPrecision;text-rendering:geometricPrecision;fill:#ffcc00"
            d="M 87.20507812 33.52148438 C 85.54006994 33.41490831 83.15395845 34.29899716 81.63476562 37.02734375 C 81.50734936 37.23970425 81.2871549 37.55824669 81.10351562 37.83398438 C 80.17570441 37.57252022 79.12811561 37.65788901 78.08984375 38.1171875 C 78.72203448 37.22562199 79.03535885 36.23980513 79.25976562 35.04296875 C 77.48811221 35.07840182 74.7605499 36.63750287 73.91015625 40.28710938 C 73.84946607 40.52987011 73.76756718 40.8029504 73.6640625 41.11523438 C 72.72042146 41.09159054 71.73508876 41.39079473 70.81835938 42.015625 C 71.31361909 40.96894124 71.46243616 39.88189016 71.5 38.5859375 C 69.65748042 38.94026823 67.10545334 41.06665213 66.85742188 45.03515625 C 66.84269277 45.22663462 66.78342903 45.54743364 66.75390625 45.77148438 C 65.98455541 45.94615193 65.23136428 46.33187114 64.546875 46.9296875 C 64.93288843 45.79661205 64.95316442 44.66905137 64.80273438 43.33398438 C 62.96021479 43.93634661 60.62110916 46.41710733 60.86914062 50.52734375 C 60.88247333 50.70066889 60.88330538 50.89738681 60.88476562 51.09765625 C 60.16130634 51.53453665 59.52846085 52.19929362 59.05859375 53.06640625 C 59.01305047 51.88432319 58.63146478 50.83519533 58.03515625 49.64257812 C 56.51153429 50.88273568 55.20155644 53.99995367 56.90234375 57.75585938 C 56.98541693 57.97184967 57.09340124 58.31776664 57.18359375 58.5703125 C 56.60502643 59.41013841 56.27609499 60.46015113 56.25976562 61.62695312 C 55.64200443 60.58335237 54.77876028 59.83006974 53.64257812 59.06640625 C 52.86305063 60.97979217 53.18073345 64.52331435 56.546875 67.0390625 C 56.67247227 67.13040598 56.80937184 67.2493285 56.94335938 67.36132812 C 56.67784869 68.2156974 56.61398266 69.17159419 56.7890625 70.16992188 C 55.95208184 69.20149013 54.92200546 68.59548008 53.60546875 68.03125 C 53.14483885 70.19266743 54.13696503 73.807594 58.10546875 75.68554688 C 58.1531986 75.70757604 58.20780143 75.74194931 58.25585938 75.765625 C 58.02744196 76.75538316 58.06049871 77.86580377 58.39257812 79.0234375 C 57.26368596 77.94547456 55.94740317 77.26640182 54.31445312 76.64257812 C 54.03098859 79.12289322 55.73217609 83.33858257 60.76367188 85.5 C 60.90141917 85.56482227 61.05180054 85.64420396 61.19140625 85.71289062 C 61.18239283 86.87100877 61.54036584 88.09117796 62.30078125 89.25390625 C 60.8964146 88.53048105 59.4287643 88.25105168 57.64648438 88.12109375 C 58.14126655 90.55966338 60.96347829 94.0910976 66.39257812 94.70703125 C 66.84212531 95.69894059 67.57047984 96.64556235 68.58007812 97.47265625 C 66.81481137 97.11409517 65.14272888 97.24531352 63.20898438 97.6171875 C 64.55544097 100.0975026 68.84328896 103.003568 74.90234375 102.046875 C 75.1542663 102.0216828 75.60002771 101.995943 75.88476562 101.9707031 C 76.47353074 102.7580732 77.26337886 103.4746133 78.24804688 104.0722656 C 76.38796337 103.9723175 74.68836415 104.3555072 72.74023438 105.0234375 C 74.5118878 107.3620203 79.3312934 109.7353747 85.42578125 107.8574219 C 86.13444263 107.6448234 86.91358582 107.4687346 88.22460938 107.2207031 C 88.22460938 107.2207031 86.94858813 106.0873679 85.77929688 102.1542969 C 84.92890322 99.28421794 80.99546313 98.29064662 79.82617188 96.83789062 C 79.6432643 97.75242864 79.51212433 99.46156531 80.31835938 101.3730469 C 79.24190646 100.6594615 78.03491141 100.1042946 76.7109375 99.73046875 C 76.4690755 98.96397064 76.22433506 97.97453749 76.03515625 96.66210938 C 75.60995942 93.82746355 71.99520172 92.33835207 71.109375 90.77929688 C 70.7848617 91.63114437 70.4182958 93.23999361 70.91796875 95.17578125 C 70.22678432 94.56078294 69.46118637 94.01050733 68.6171875 93.546875 C 68.60025325 92.78452002 68.65866074 91.73725821 68.9140625 90.31835938 C 69.33925933 87.73174506 66.64506948 85.60593019 66.32617188 84.046875 C 65.82122299 84.71340759 65.06623429 86.01481094 64.94726562 87.796875 C 64.44819966 86.96788018 63.81638481 86.20413173 63.06445312 85.515625 C 63.23507939 84.74893027 63.60698076 83.58880588 64.4140625 81.9921875 C 65.58335377 79.68903778 63.63365837 76.85425391 63.77539062 75.25976562 C 63.10657779 75.74617504 61.99927052 76.78070747 61.37109375 78.46289062 C 61.11114935 77.43479034 60.67855444 76.43642386 60.07617188 75.49023438 C 60.30350483 74.84432249 60.69010141 73.94115632 61.4375 72.67382812 C 62.60679127 70.65414299 61.29493727 68.24321798 61.54296875 66.86132812 C 60.93098854 67.28971434 59.92959228 68.20729797 59.25585938 69.66992188 C 59.14616993 68.79318904 58.89222032 67.94163453 58.49804688 67.13085938 C 58.8239747 66.56580122 59.31852109 65.82845752 60.19726562 64.84179688 C 61.61458838 63.21187552 60.79913575 60.69691197 61.25976562 59.4921875 C 60.62824803 59.7570175 59.53595368 60.41659453 58.65429688 61.64648438 C 58.70792499 60.72163783 58.60762275 59.79030668 58.328125 58.875 C 58.84533422 58.5552808 59.62968119 58.15038246 60.86914062 57.72070312 C 62.81795942 57.04747475 63.24447901 54.53175754 64.20117188 53.71679688 C 63.54780178 53.63512558 62.33840146 53.65571617 61.046875 54.26757812 C 61.45564727 53.59238867 61.75065767 52.84517092 61.92773438 52.04101562 C 62.52690868 51.93399801 63.36694632 51.84154669 64.62695312 51.87304688 C 66.68207112 51.94391302 67.95766187 49.74746252 69.12695312 49.32226562 C 68.53847767 49.01788173 67.41511904 48.61584482 66.01367188 48.72460938 C 66.73034918 48.1594785 67.35678998 47.47025886 67.84570312 46.640625 C 68.43278317 46.61585267 69.20213639 46.63085748 70.33007812 46.80664062 C 72.27889692 47.09010523 73.76820873 45.10545338 74.9375 44.85742188 C 74.42991606 44.49196138 73.39791616 43.96938269 72.03320312 43.90820312 C 72.85180058 43.40881141 73.57870821 42.74521444 74.16601562 41.90039062 C 74.71857016 41.94258063 75.57825717 42.08955 76.81445312 42.51953125 C 78.62153964 43.08646041 80.32317304 41.49246432 81.45703125 41.45703125 C 81.03180429 41.03180425 80.15286012 40.37709827 78.89453125 40.09375 C 79.77076403 39.75279852 80.58054337 39.2290593 81.28515625 38.50585938 C 81.75928201 38.65398833 82.53667647 38.97821935 83.72460938 39.79101562 C 85.21279824 40.78314169 87.16161731 39.79130781 88.22460938 40.00390625 C 87.93905929 39.51439178 87.2972465 38.69289594 86.20898438 38.1171875 C 87.28136155 38.01304589 88.34191558 37.66829106 89.32226562 36.9921875 C 88.47976391 36.24765101 87.30852568 35.92428953 86.01367188 36.11328125 C 86.81028607 35.46465681 87.34824899 34.6501333 87.86914062 33.62695312 C 87.66540051 33.57380352 87.44293644 33.53670952 87.20507812 33.52148438 z M 98.421875 33.52148438 C 98.18311702 33.53670952 97.9595995 33.57380352 97.75585938 33.62695312 C 98.2771666 34.65094962 98.81539274 35.46417976 99.61328125 36.11328125 C 98.31842743 35.92428953 97.14523609 36.24765101 96.30273438 36.9921875 C 97.2826069 37.66796174 98.34417191 38.01285372 99.41601562 38.1171875 C 98.32821727 38.69291808 97.68784092 39.51448249 97.40234375 40.00390625 C 98.46533582 39.79130781 100.4141549 40.78314168 101.9023438 39.79101562 C 103.0897835 38.97855672 103.8675807 38.65604521 104.3417969 38.5078125 C 105.0455842 39.22999009 105.8553311 39.75302427 106.7304688 40.09375 C 105.472667 40.37690465 104.5950285 41.03192458 104.1699219 41.45703125 C 105.3037801 41.49246432 107.0034604 43.08646041 108.8105469 42.51953125 C 110.0545336 42.08684015 110.9142165 41.94149928 111.4667969 41.90039062 C 112.0632258 42.7453067 112.7914434 43.4087785 113.6074219 43.90820312 C 112.2473823 43.96869722 111.2177435 44.4916823 110.6894531 44.85742188 C 111.8587444 45.10545338 113.3461031 47.09010523 115.2949219 46.80664062 C 116.4379138 46.62851199 117.2163671 46.61404533 117.8046875 46.640625 C 118.2848271 47.4701834 118.9057245 48.1594739 119.6191406 48.72460938 C 118.2139962 48.6136612 117.0895731 49.01731397 116.5 49.32226562 C 117.6692913 49.74746252 118.944882 51.94391302 121 51.87304688 C 122.2576842 51.84160475 123.0966026 51.93426715 123.6953125 52.04101562 C 123.8729482 52.84533462 124.1712343 53.59227044 124.5800781 54.26757812 C 123.2885517 53.65571617 122.0791513 53.63512558 121.4257812 53.71679688 C 122.3824741 54.53175754 122.8070406 57.04747475 124.7558594 57.72070312 C 125.9968144 58.15090094 126.7817149 58.55707659 127.2988281 58.87695312 C 127.0196569 59.79072316 126.9173782 60.72126258 126.9707031 61.64453125 C 126.0893174 60.4161073 124.9963678 59.75685638 124.3652344 59.4921875 C 124.8258643 60.69691197 124.0123647 63.21187552 125.4296875 64.84179688 C 126.308432 65.82845752 126.8029785 66.56580122 127.1289062 67.13085938 C 126.7377519 67.93538994 126.4838169 68.78074169 126.3730469 69.65039062 C 125.6961978 68.19989759 124.6911506 67.28771172 124.0820312 66.86132812 C 124.3654958 68.24321797 123.0201619 70.65414299 124.1894531 72.67382812 C 124.9368517 73.94115631 125.3238931 74.84432249 125.5507812 75.49023438 C 124.9429733 76.44488608 124.5089143 77.45245154 124.2519531 78.49023438 C 123.6176913 76.80291797 122.5195718 75.74701111 121.8496094 75.25976562 C 121.9913417 76.85425392 120.0435994 79.68903778 121.2128906 81.9921875 C 122.0211165 83.5910693 122.3922052 84.75287297 122.5625 85.51953125 C 121.8089845 86.2120844 121.176999 86.98006867 120.6796875 87.81445312 C 120.5644766 86.0235332 119.8054035 84.71555461 119.2988281 84.046875 C 118.9799305 85.60593019 116.287417 87.73174505 116.7480469 90.31835938 C 116.9885907 91.73332344 117.0394518 92.77912186 117.0175781 93.54101562 C 116.169725 94.00574609 115.4009112 94.55835126 114.7070312 95.17578125 C 115.2067042 93.23999361 114.8401383 91.63114437 114.515625 90.77929688 C 113.6297983 92.33835207 110.0150402 93.82746353 109.5898438 96.66210938 C 109.4008202 97.97345989 109.1573939 98.96224332 108.9160156 99.72851562 C 107.59136 100.1018296 106.3830128 100.6576824 105.3066406 101.3710938 C 106.1122545 99.45997816 105.9816885 97.75219256 105.7988281 96.83789062 C 104.6295369 98.29064665 100.6960968 99.28421785 99.84570312 102.1542969 C 98.6764119 106.0873679 97.40234375 107.2207031 97.40234375 107.2207031 C 98.7133673 107.4687346 99.4925104 107.6448234 100.2011719 107.8574219 C 106.2956597 109.7353747 111.1150653 107.3620203 112.8867188 105.0234375 C 110.9567338 104.3553657 109.2546696 103.9720018 107.3886719 104.0722656 C 108.3757619 103.4748887 109.1697102 102.7595803 109.7578125 101.9726562 C 110.0371207 101.9974932 110.4767081 102.0220849 110.7246094 102.046875 C 116.7836642 103.003568 121.0712353 100.0975026 122.453125 97.6171875 C 120.5067898 97.24645695 118.8279284 97.11243783 117.0644531 97.46679688 C 118.068805 96.64101576 118.7908392 95.69644513 119.2363281 94.70703125 C 124.664143 94.09046791 127.4857463 90.559369 127.9804688 88.12109375 C 126.2075908 88.25036612 124.7433675 88.5254156 123.3457031 89.24023438 C 124.1050692 88.08016245 124.4605874 86.86376318 124.4453125 85.70898438 C 124.5809474 85.64124192 124.7332899 85.56401911 124.8613281 85.5 C 129.8928239 83.33858257 131.5940114 79.12289323 131.3105469 76.64257812 C 129.6674453 77.27027995 128.3567385 77.9551563 127.2324219 79.04492188 C 127.5668044 77.87919364 127.5992623 76.76170221 127.3691406 75.765625 C 127.4171986 75.74194931 127.4718015 75.70757604 127.5195312 75.68554688 C 131.488035 73.80759401 132.4801611 70.19266743 132.0195312 68.03125 C 130.7108997 68.59209224 129.683947 69.19405793 128.8496094 70.15234375 C 129.0251464 69.15600142 128.9644868 68.20172245 128.6953125 67.34960938 C 128.8237634 67.24245192 128.9569526 67.12718786 129.078125 67.0390625 C 132.4442665 64.52331435 132.7639025 60.97979217 131.984375 59.06640625 C 130.8487792 59.82967562 129.984892 60.58224676 129.3671875 61.625 C 129.350501 60.45845542 129.0201408 59.4098585 128.4414062 58.5703125 C 128.5320964 58.3176383 128.6415034 57.97193479 128.7246094 57.75585938 C 130.4608298 53.99995367 129.115142 50.88273568 127.6269531 49.64257812 C 127.0103451 50.83842417 126.6202327 51.89014547 126.5722656 53.07617188 C 126.1015601 52.20356614 125.4672537 51.53415795 124.7402344 51.09570312 C 124.7417366 50.8962688 124.7425723 50.70007577 124.7558594 50.52734375 C 125.0038909 46.41710733 122.6647852 43.93634661 120.8222656 43.33398438 C 120.6909471 44.66592918 120.7097304 45.79148347 121.0878906 46.921875 C 120.3997058 46.32326911 119.639134 45.93920421 118.8691406 45.76757812 C 118.8398781 45.5450672 118.7822252 45.22556868 118.7675781 45.03515625 C 118.5549797 41.06665213 116.0049058 38.94026823 114.1269531 38.5859375 C 114.1644962 39.88117441 114.3216376 40.96752175 114.8203125 42.01367188 C 113.9012828 41.38972551 112.9095421 41.09134815 111.9628906 41.11523438 C 111.8593859 40.8029504 111.777487 40.52987011 111.7167969 40.28710938 C 110.8664032 36.63750288 108.1368878 35.07840182 106.3652344 35.04296875 C 106.5894743 36.2389152 106.9037669 37.22600595 107.5351562 38.1171875 C 106.4974374 37.65836384 105.4505569 37.57293416 104.5234375 37.83398438 C 104.3397982 37.55824668 104.1196038 37.23970425 103.9921875 37.02734375 C 102.5039986 34.29899716 100.0931809 33.41490832 98.421875 33.52148438 z "
            transform="matrix(28.22222377,0,0,28.22222089,42004.11108,21035.0002)"
            id="path874" />
        <path
            class="fil8"
            d="m 42627,25196 c 23,4 45,6 68,6 99,0 202,-43 305,-86 109,-46 219,-92 331,-92 113,0 222,46 332,92 103,43 206,86 305,86 100,0 203,-43 306,-86 109,-46 218,-92 331,-92 l 0,0 0,0 c 121,0 238,46 356,91 112,44 223,87 332,87 109,0 220,-43 332,-87 117,-45 235,-91 356,-91 l 0,0 0,0 c 121,0 238,46 356,91 96,38 193,75 287,85 l 0,67 c -105,-9 -208,-49 -311,-89 -112,-43 -224,-87 -332,-87 l 0,0 0,0 c -109,0 -220,44 -332,87 -118,46 -236,91 -356,91 -121,0 -238,-45 -356,-91 -112,-43 -224,-87 -332,-87 l 0,0 0,0 c -100,0 -203,43 -306,87 -109,45 -218,91 -331,91 -113,0 -222,-46 -331,-91 -103,-44 -206,-87 -306,-87 -99,0 -202,43 -305,87 -109,45 -219,91 -331,91 -23,0 -45,-2 -67,-5 l -1,-68 z m 3998,-288 0,67 c -105,-9 -209,-49 -312,-89 -112,-43 -224,-87 -332,-87 l 0,0 0,0 c -109,0 -220,44 -332,87 -118,46 -236,91 -356,91 -121,0 -238,-45 -356,-91 -112,-43 -224,-87 -332,-87 l 0,0 0,0 c -100,0 -203,43 -306,87 -109,45 -218,91 -331,91 -113,0 -222,-46 -331,-91 -103,-44 -206,-87 -306,-87 -99,0 -202,43 -305,87 -109,45 -219,91 -331,91 -24,0 -47,-2 -69,-5 l -1,-68 c 23,4 47,6 70,6 99,0 202,-43 305,-86 109,-46 219,-92 331,-92 113,0 222,46 332,92 103,43 206,86 305,86 100,0 203,-43 306,-86 109,-46 218,-92 331,-92 l 0,0 0,0 c 121,0 238,46 356,91 112,44 223,87 332,87 109,0 220,-43 332,-87 117,-45 235,-91 356,-91 l 0,0 0,0 c 121,0 238,46 356,91 97,38 193,76 288,85 z m 0,146 -1,67 c -105,-9 -208,-49 -311,-89 -112,-43 -224,-87 -332,-87 l 0,0 0,0 c -109,0 -220,44 -332,87 -118,46 -236,91 -356,91 -121,0 -238,-45 -356,-91 -112,-43 -224,-87 -332,-87 l 0,0 0,0 c -100,0 -203,43 -306,87 -109,45 -218,91 -331,91 -113,0 -222,-46 -331,-91 -103,-44 -206,-87 -306,-87 -99,0 -202,43 -305,87 -109,45 -219,91 -331,91 -23,0 -46,-2 -68,-5 l -1,-68 c 23,4 46,6 69,6 99,0 202,-43 305,-86 109,-46 219,-92 331,-92 113,0 222,46 332,92 103,43 206,86 305,86 100,0 203,-43 306,-86 109,-46 218,-92 331,-92 l 0,0 0,0 c 121,0 238,46 356,91 112,44 223,87 332,87 109,0 220,-43 332,-87 117,-45 235,-91 356,-91 l 0,0 0,0 c 121,0 238,46 356,91 96,38 193,75 288,85 z"
            id="path856"
            style="fill:#999999;fill-rule:nonzero" />
    </g>
</svg>