<svg id="city_smol" data-name="smol" xmlns="http://www.w3.org/2000/svg" width="52.5mm" height="52.5mm" viewBox="0 0 148.82 148.82">
  <title>smol</title>
  <g id="smol">
    <path d="M22.82,73.53a2.38,2.38,0,0,0-1.28-.34M124,81a9,9,0,0,1-3.15-4.62,5.07,5.07,0,0,0-1.62-2.21,1.73,1.73,0,0,0-2.64.28H105.9a1.39,1.39,0,0,1-1.28.91,7.24,7.24,0,0,0-.79-0.23,1.11,1.11,0,0,0-1.56.68c-2.07,1.33-1.47-.79-1.47-0.79l-1.67-.28a0.44,0.44,0,0,0-.54.45c-0.28.45-1.36,0.06-1.36,0.06-1.36-1.08-3.09.88-3.09,0.88-0.88.74-1-.88-1-0.88-1-.11-3.77-0.14-7.29-0.14l-0.17-.2,0,0,0.14,0,0.65-.14,0,0.14h4.71l0.2-1s-2,.4-2.44-1c0,0-1.56-3.83-5.39-4.51A10,10,0,0,0,78,68.8a6.21,6.21,0,0,0-.82-0.26C70.72,66.9,68.74,72,68.74,72a2.25,2.25,0,0,1-1.47,1c-3.71-.09-4.51,2.15-4.51,2.15H69l0.28-.4a6.63,6.63,0,0,1,4-3.63s-0.11.09,0.2,0A5.61,5.61,0,0,1,75.06,71l-0.77.94A2,2,0,0,1,73,73s-3-.68-3.43,2.07h5.78A10,10,0,0,1,79,72a11.57,11.57,0,0,1,2.1,1.25,4,4,0,0,1,1.56,1.47l0.4,0a4.27,4.27,0,0,0-.31.4h0c-9.21.06-21.37,0.31-23.92,0.37a1.7,1.7,0,0,0-3.06.06l-18,.4h-0.2c-1.25-2.41-2.44-.28-2.44-0.28l0.06,0.17a86,86,0,0,1-12.44-2.32c-0.79-.2-1.28-0.34-1.28-0.34-4.11,1-3.83,10.57-3.83,10.57,0.74,10,5.73,7.48,5.73,7.48,1.19-.54,6.32-0.88,11.06-1.11,0.88,1.64,2.32.09,2.32,0.09l0.09-.2L39,89.89l-0.85.77S25.46,106,41,122.49c0,0,9.81,8.33,19.87,5.58,0,0-6.26-1.36-13.41-9.1,0,0-13.52-9.55-3.63-24.38a7.62,7.62,0,0,0,.54-0.91l0,7.46H44.33s-3,21.94,18.23,27.13c0,0,15.82,3.91,25.06-10.6l7.17,10.54,33.05-.14V124l-3.23-.6-3.69-5.58-1.76-1.47-3.23,1-1.33-4.11L112,109.84l-5.58.6L91.93,85.49l1.87-.06L97,91.36l4.48,0.06,0,0c0.62,3,3.29.14,3.29,0.14l0.06-.14h0.14l11.62,0.74a1.6,1.6,0,0,0,1.87.48c1.28-.48,2-2.49,2-2.49a10.56,10.56,0,0,1,3.63-4.42S122.66,83.17,124,81Zm-63.33,21.6-0.82-.14-0.37.68-1.7,0c-1.28-2.41-2.58-.06-2.58-0.06l-2.07,0-0.31-1L51.45,102c-0.54,5.22.14,6.75,0.14,6.75l1.39-.4,0.2-1.25,2.21,0L55.33,103l0.06,4.05c1.79,2.41,2.58-.54,2.58-0.54l0-3.37,0,3.37,1.7,0,0-3.46,0,3.46L60,107.26l0.65-.09c-1-1.81,0-4.56,0-4.56Zm-7.65.09,0.06,5Zm11.25,9-0.4.54-0.74-.28L62,113.16s1.59,2.61-1.39,2.21L59.07,117l0.77,1-0.68,1.28s-1.59-.6-5-4.59l1.08-.91,0.94,0.48,1.42-1.5s-0.79-2.58,1.81-1.81l1.16-1.22L60.38,109l0.65-.48s1.22,2.66,3.26,3.2v0ZM62,113.16l-2.44-2.32Zm-1.39,2.21-2.92-2.78Zm-1.19,2.1L55.79,114Zm3.74-5.56-2.49-2.38Zm6.69,0.4L69.93,113l-0.74.31,0,1.7s2.95,0.74.57,2.55l0.06,2.21,1.25,0.2,0.4,1.39s-1.53.71-6.75,0.2l0.11-1.39,1-.31,0-2.07s-2.38-1.28,0-2.58l0-1.7-0.68-.37,0.14-.82s2.75,1,4.56,0ZM69.25,115l-3.37.06Zm0.57,2.55-4.05.09Zm0.62,2.35-5,.11Zm-1.25-6.58-3.46.09Zm5.07-4.88,0.54,0.4-0.26.74,1.28,1.11s2.55-1.67,2.27,1.3l1.64,1.45,1-.79L82,113.27s-0.54,1.59-4.42,5.1l-0.94-1,0.45-1L75.57,115s-2.55.88-1.87-1.76l-1.28-1.11-0.71.26-0.51-.65s2.64-1.3,3.06-3.37v0Zm1.56,2.24-2.24,2.52Zm2.27,1.3-2.66,3Zm2.15,1.11-3.32,3.74Zm-5.7-3.54-2.3,2.58Zm0.17-6.83,0.65-.09,0.31,0.74,1.7,0a3.3,3.3,0,0,1,.17-0.48l-0.77-1.13H74.44l-0.31.23L74,101.71H73.25l1.28,3.51-1.16,3.51-3.23,2.83H65.71l-3.32-2.44-1.16-3.83,1-3.63H50.88c-3.23,16,13,20.58,13,20.58,13.95,1.64,18.51-7.6,19.67-10.74l-3.29-4.82h0s-1.28,2.38-2.58,0l-1.7,0-0.34.68-0.82-.14s1-2.75,0-4.56Zm2.66,0.62,0.06,3.37ZM80,106.47v0Zm-4.34-3.12,0.06,3.46Zm-32.85-.2-0.31-1L41.13,102c-0.54,5.22.14,6.75,0.14,6.75l1.39-.4,0.2-1.25,0.45,0v-3.91H42.83Zm0.4-16.87V85.72h0.62ZM86.34,74.41a6.85,6.85,0,0,1-.79-0.82c-1.13-.45-1.16-0.68-1.16-0.68L83.2,72a8.41,8.41,0,0,1,3.15,2.41v0Zm44.76,8.87a3.8,3.8,0,1,1-3.8-3.8A3.8,3.8,0,0,1,131.1,83.28Z"/>
    <path d="M120.22,39.69S118.4,30,127.3,26.33c0,0-3.71-3-7.82,2.35,0,0-1.36,1.16-3.34,9,0,0,4.42-20.27,12.84-15.08,0,0-1.16-5.1-8.22-2.64,0,0-7.65,3.91-7.26,21.54,0,0,2,13.27-6.77,18.06,5.33-5.33,4.34-7.4,3.77-8,0.65-1.76,0-2.52-.31-2.78,1.73-3.26.17-3.91,0.17-3.91l-0.23.23a4.47,4.47,0,0,0-1-5.13l-0.09.14a14.41,14.41,0,0,0-.54-4,8.24,8.24,0,0,1-3.32,7.54A16.86,16.86,0,0,0,99.86,55s0,2.07,1.56.88c0,0,2.64-.09,2,2.44,0,0-1.16,3.34-5.3-.2,0,0-2.44-1.56-1.08-8.14,0,0,1.67-5.47-3.83-4.22a9.72,9.72,0,0,1-3.66.6s4.54,0.68,2.47,5.75a21.15,21.15,0,0,0-1.47,4.51c-0.2,1.62-2.41,8.31,5.87,12.1,0.48,0.26.79,0.45,1.08,0.62-0.17.45-1.53,4-3.46,4.25a7.17,7.17,0,0,0-2.24.26S90.09,75.37,93,75c0,0,.88-0.2.09,0.48,0,0-.54,1.79,1.36.54a2,2,0,0,1,2.83-.82s1.47,0,.09-1c0,0-.88-0.28-0.4-1.47l1.84-2.89H98.9a19.4,19.4,0,0,0,2.83.4,11,11,0,0,0,1.59-.11l-1.08,2.69-0.79.62a5.05,5.05,0,0,1-1.7.23s-2.13.54,0,1.11l1.3,0.11s-1,2,.6,1.28c0.68-.28.4-1.67,1.64-1.16l0.79,0.14s2.07,0.14.4-1.13c0,0-1.47-.09-1-1,0,0,1.33-2.95,1.45-3.17a5.72,5.72,0,0,1-1.62.28,3.92,3.92,0,0,0,.57-0.09,25.46,25.46,0,0,0,2.44-.88c2.64-1.39,10.26-3.29,14.57-18.54a45.56,45.56,0,0,1,2.75-9.3,13.37,13.37,0,0,1,4.22-4.79s-4.31-1.62-7.77,3.15ZM94.93,45.52s4.34-1.9,2.95-3.83a4.38,4.38,0,0,1,1.28,2.07c0,0.09,0,.14.06,0.23a0.92,0.92,0,0,0,.26-0.23,2.74,2.74,0,0,0,.57-1.53s2.44,3.46-2.49,4.93A2.92,2.92,0,0,0,95,45.55Zm11.54,14.2a13.86,13.86,0,0,1-2,.82,8.93,8.93,0,0,0,1.81-1.13Z" style="fill: #fc0"/>
    <path d="M61.88,100.46h0a3.53,3.53,0,0,0-.54,1l-0.51-.43,0.28-.6-9.13.06a9.81,9.81,0,0,0-.34,1.5l1.3,0.11,0.31,1,2.07,0s1.3-2.35,2.58.06l1.7,0,0.37-.68,0.74,0.11a19.32,19.32,0,0,0,1.25-2.18ZM43.43,86.06v7.85a17.84,17.84,0,0,0,5,26.45l0.06-.28a24.61,24.61,0,1,0-1.39-2,16.56,16.56,0,0,1-3.69-21.91v6.94A39.4,39.4,0,0,1,45.13,96V87.68h5.5l2-1.62H43.43ZM67.66,128.3a23.07,23.07,0,1,1,23.07-23.07A23.08,23.08,0,0,1,67.66,128.3Zm16.61-23.07A16.61,16.61,0,1,1,67.66,88.61,16.62,16.62,0,0,1,84.27,105.22ZM67.66,87.31a17.91,17.91,0,1,0,17.91,17.91A17.92,17.92,0,0,0,67.66,87.31Zm7.2,17.91a7.2,7.2,0,1,1-7.2-7.2A7.21,7.21,0,0,1,74.86,105.22Zm-7.2-5.87a5.87,5.87,0,1,0,5.87,5.87A5.88,5.88,0,0,0,67.66,99.35Zm54.71,18.31c-1.67-3.91-4.59-2.35-4.59-2.35-1.16,1.28-1.28-.09-1.28-0.09-1-8.33-8.33-6.26-8.33-6.26-1.47,1.08-1.87-.48-1.87-0.48L93.77,85.95l-11.11,0a4.77,4.77,0,0,1,2.21,2h7.54l12.93,23.3a1.18,1.18,0,0,0,2.07.4s5.87-3,7.26,4.71c0,0-.09,3.63,2.44,2a2.38,2.38,0,0,1,3.83,1.36s2.35,6.18,5.78,5.47v2.15H95.56l-6.58-10a10.49,10.49,0,0,1-1.36,2.24l6.55,10H129l0.06-7.26c-3.17,2.75-6.72-4.59-6.72-4.59v0ZM59.3,128.15a5.56,5.56,0,0,0-1.87-.09c-12.73,0-23.56-10.23-23.56-23A23,23,0,0,1,39.4,90.23c-0.71.14-1.13-.2-1.84,0.11a26,26,0,0,0-4.76,14.51A24.24,24.24,0,0,0,57,129.09c2,0,2.64.23,4.54-.26a8.87,8.87,0,0,1-2.24-.68h0Zm18.51-27.61h-3l-0.2.2,0.2,0.74-0.34.23a2.56,2.56,0,0,1,.34,1l0.6-.09,0.31,0.71H76l1.39,0s0.4-1.5,1.28-1.5l-0.85-1.3v0Zm-3,2.3a3.12,3.12,0,0,1-.06.51H75A4,4,0,0,0,74.78,102.84Zm4.82,4.62,3,4.51c0.26-.71.77-1.79,1-2.49l-1.79-2.75-1.64,0A3.34,3.34,0,0,1,79.6,107.46Zm-28.2-4.37-0.06.26h0Z" style="fill: #999"/>
  </g>
</svg>
