<svg id="city_lip" data-name="lip" xmlns="http://www.w3.org/2000/svg" width="52.5mm" height="52.5mm" viewBox="0 0 148.82 148.82">
  <title>lip</title>
  <g id="lip">
    <path d="M35.09,106c1.28-4.79,1.16-5.5-.09-8.56a10.83,10.83,0,0,1-.6-5.64l-5.58,2C31,89.35,31,88.64,30.42,85.44a1.66,1.66,0,0,1-.06-0.37,12.35,12.35,0,0,1-3-.88L21.51,81.5c4.71-1.62,5.22-2.13,7-4.85,0.09-.11.14-0.23,0.23-0.34a13.48,13.48,0,0,1-4.54-4.59L21,66.1c4.76,1.45,5.47,1.33,8.53.17a1.4,1.4,0,0,1,.37-0.11A10.5,10.5,0,0,1,27.38,64c-2.15-2.49-2.69-2.92-7.6-4l5.53-3.34a13.81,13.81,0,0,1,8.39-1.79,13.8,13.8,0,0,1-1.3-8.22l1.13-6.38c2.78,4.14,3.37,4.54,6.49,5.58,0.11,0,.2.09,0.31,0.11A14,14,0,0,1,41,37.81l2.58-5.92c1.33,3.63,1.93,4.73,3.46,5.9a13.16,13.16,0,0,1,1.73-4.85l3.4-5.5c1,4.68,1.42,5.39,3.6,7.31a8.68,8.68,0,0,1,.14-0.91c0.65-3.26.62-4-1.59-8.42l6,2.24a10.35,10.35,0,0,1,1.16.51c-0.28-1.25-1-2.47-2.64-4.85l6.29,1.36A13.32,13.32,0,0,1,70,26.87h0l0-.11c0-.06,0-0.14.06-0.2l0-.11c0-.06,0-0.14.06-0.2l0-.11c0-.06,0-0.14.06-0.2l0-.09,0.09-.23,0-.09,0.09-.23,0-.06L70.61,25l0-.06a1,1,0,0,1,.11-0.26l0,0c0-.09.09-0.17,0.11-0.26l0,0c0-.09.09-0.17,0.11-0.26v0c0.06-.09.09-0.17,0.14-0.26h0c0.06-.09.09-0.17,0.14-0.26h0c0.06-.09.09-0.17,0.14-0.26h0a1.15,1.15,0,0,0,.14-0.26l3.54-5.41c0.91,4.93,1.33,5.47,3.77,7.68l0.17,0.14h0l0.14,0.14,0,0h0v0l0.11,0.11v0l0,0.06v0L79.48,26l0.09,0.09v0.14l0.09,0.11v0.06a12.51,12.51,0,0,1,3.94-1.59l6.29-1.36c-1.62,2.38-2.35,3.6-2.64,4.85a10.35,10.35,0,0,1,1.16-.51l6-2.24C92.27,30,92.24,30.73,92.86,34a8.68,8.68,0,0,1,.14.91c2.18-1.93,2.64-2.64,3.6-7.31l3.4,5.5a13,13,0,0,1,1.73,4.85c1.5-1.16,2.13-2.27,3.46-5.9l2.58,5.92a13.78,13.78,0,0,1,.68,8.19c0.11,0,.2-0.09.31-0.11,3.12-1,3.74-1.45,6.49-5.58l1.11,6.38A14,14,0,0,1,115.09,55a13.81,13.81,0,0,1,8.39,1.79l5.5,3.34c-4.85,1-5.41,1.47-7.57,4a11.07,11.07,0,0,1-2.55,2.13l0.34,0.11c3.09,1.16,3.8,1.28,8.56-.17l-3.17,5.61A13.84,13.84,0,0,1,120,76.42a3,3,0,0,0,.23.31c1.84,2.72,2.35,3.26,7,4.85l-5.9,2.69a11.91,11.91,0,0,1-2.95.88c0,0.11,0,.26-0.06.37-0.65,3.2-.65,3.91,1.59,8.39l-5.58-2a10.49,10.49,0,0,1-.62,5.64c-1.22,3.06-1.36,3.77-.06,8.56l-5.53-3.34a12.69,12.69,0,0,1-3.09-2.75c-0.85,1.53-1,2.83-.77,6.58l-4.48-4.28c-1.39,2.1-1.56,3.12-1.36,7.54l-4.65-4.45a13.19,13.19,0,0,1-3-4.59c-1.73,2.52-2,3.29-1.76,8.11l-4-3.74c0,0.85,0,1.93.06,3.32L80.45,104a11.19,11.19,0,0,1-1.76-2.18c-0.09-2.66-.09-5.56,0-8.73l-1.36,4c-2.13-4.51-2.66-5-5.56-6.49a9.11,9.11,0,0,1-1.3-.82,10.88,10.88,0,0,1-1.11.62l-1.9.94c3.74,3.37,1,10.63-2.78,13.78l-5,4.14c0.51-4.56.34-5.5-1-7.8A13.88,13.88,0,0,1,54.82,108L50,112.31c0.43-5,.17-5.61-1.64-8.39-0.17-.28-0.34-0.6-0.51-0.91l-3.37,3c0.28-3.69.23-5-.54-6.55a13,13,0,0,1-3.4,3.12L35,106Z" style="fill: #fc0"/>
    <path d="M67.95,91.36c0.09-1.25,1.19.48,1.93-.34s0.2-2.69.71-3.51,0.4-1,1.28,0a17.6,17.6,0,0,0,6.89,4.56c-0.74,29.65,5.19,35.86,3.74,37.53s-13.35,2.35-14.85,0,2.78,0.51,1.59-35.21c-0.09-2-1.36-1.81-1.25-3h0Z"/>
  </g>
</svg>
