<?xml version="1.0" encoding="UTF-8" standalone="no"?>
<svg
    xmlns:dc="http://purl.org/dc/elements/1.1/"
    xmlns:cc="http://creativecommons.org/ns#"
    xmlns:rdf="http://www.w3.org/1999/02/22-rdf-syntax-ns#"
    xmlns:svg="http://www.w3.org/2000/svg"
    xmlns="http://www.w3.org/2000/svg"
    xml:space="preserve"
    version="1.1"
    viewBox="0 0 300 40"
    id="bzlogo-telephone">
    <defs
       id="defs4"><style
          type="text/css"
          id="style6">
    .fil0 {fill:#FFCC00}
    .fil3 {fill:#FFFFFF}
    .fil2 {fill:#B2B3B3;fill-rule:nonzero}
    .fil4 {fill:#FEFEFE;fill-rule:nonzero}
    .fil1 {fill:#FFFFFF;fill-rule:nonzero}
    .fil5 {fill:#000000;fill-rule:nonzero}
   </style></defs><g
       id="Слой_x0020_1"
       transform="matrix(0.0035840153,0,0,0.0035694057,0,2.000666156)"><metadata
          id="CorelCorpID_0Corel-Layer" /><g
          id="_216819648"><path
             class="fil0"
             d="m 48609,2088 c 2072,476 4235,-253 6142,-1795 l 2233,8759 c -608,533 -1284,864 -1990,1048 -1166,267 -2263,272 -3299,34 -437,-77 -863,-177 -1270,-286 L 48609,2088 z"
             id="path11"
             style="fill:#fecc00" /><path
             class="fil1"
             d="m 53132,2060 293,1144 c 19,73 8,142 -32,204 -40,63 -98,104 -171,116 l -458,78 457,2143 c 31,157 61,315 94,471 5,27 11,57 17,88 41,-27 80,-57 103,-74 l 149,-112 c 71,-54 156,-68 241,-39 84,29 143,92 166,178 l 349,1298 c 27,97 -3,195 -79,262 l -59,52 c -264,232 -576,373 -921,437 -236,44 -473,31 -700,-49 -218,-77 -407,-207 -549,-391 -139,-181 -230,-409 -299,-625 -98,-308 -160,-680 -221,-998 l -453,-2316 -189,35 c -134,25 -265,-58 -299,-190 l -279,-1088 c -16,-69 -5,-118 24,-154 -526,28 -1184,15 -1581,-290 27,91 51,184 72,267 -53,-254 1589,7312 1635,7326 0,0 1,1 1,1 0,0 1,1 1,1 490,130 943,232 1396,298 789,121 1595,114 2417,-25 808,-148 1472,-402 2154,-883 63,-43 484,-335 471,-391 45,-8 -1896,-7002 -2113,-7776 -39,-145 -79,-288 -122,-432 -463,401 -940,782 -1466,1129 -127,79 -262,150 -403,214 193,-51 320,-71 354,91 z m -2318,-284 1325,-1552 219,1114 c 618,-239 1169,-528 1713,-931 -1,0 403,-311 398,-316 55,-43 106,-66 179,-82 74,-14 134,-12 206,6 72,20 122,47 174,93 50,48 76,92 93,155 781,2826 1523,5648 2220,8490 17,76 15,135 -9,210 -27,73 -62,125 -125,181 -500,413 -977,722 -1498,949 -1837,784 -3653,671 -5457,56 -45,-19 -82,-43 -120,-78 -53,-52 -82,-99 -99,-165 -522,-2461 -1085,-5086 -1404,-7574 -7,-64 -15,-127 -18,-198 -13,-24 -30,-46 -31,-46 -6,-6 -13,-17 -23,-30 -133,-247 357,-248 524,-239 625,56 1164,49 1733,-43 z m -230,2512 c 208,-41 406,81 443,272 37,190 -102,377 -309,417 -208,41 -406,-81 -443,-272 -36,-190 102,-377 309,-417 z m 2813,-548 c 208,-41 406,81 443,272 37,190 -102,377 -309,418 -208,40 -406,-82 -442,-272 -37,-191 101,-378 308,-418 z m -2299,4674 c 22,-60 67,-111 133,-141 l 3,-1 0,-1 c 66,-29 139,-32 203,-12 66,20 86,63 120,124 l 0,0 c 20,36 76,68 98,99 69,100 159,190 255,265 l 0,0 c 183,145 408,260 644,331 424,127 815,104 1214,-84 l 0,0 c 228,-108 441,-259 612,-436 164,-169 289,-360 354,-557 l 0,0 c 22,-66 71,-118 132,-148 60,-29 133,-38 203,-19 l 0,0 c 5,1 10,3 16,4 l 0,0 c 487,161 -178,923 -294,1044 -244,268 -852,723 -1542,769 -278,23 -572,-13 -852,-96 -406,-120 -812,-345 -1093,-668 -12,-14 -71,-87 -122,-160 -67,-96 -128,-192 -84,-313 z"
             id="path13"
             style="fill:#ffffff;fill-rule:nonzero" /><path
             class="fil2"
             d="m 52853,2380 165,811 -667,135 511,2511 c 85,419 141,663 168,729 27,67 67,118 121,155 54,35 115,47 179,34 91,-19 213,-90 368,-211 l 297,1037 c -200,181 -443,301 -731,360 -176,36 -344,27 -501,-26 -158,-53 -284,-140 -377,-257 -92,-116 -174,-284 -245,-501 -52,-153 -128,-471 -226,-952 l -545,-2679 -449,91 -165,-811 449,-91 -125,-616 819,-992 287,1408 667,-135 z"
             id="path15"
             style="fill:#b2b3b3;fill-rule:nonzero" /><path
             class="fil3"
             d="m 61868,4961 c 27,-160 61,-320 106,-476 64,-223 149,-443 265,-644 102,-175 230,-327 376,-466 10,-10 20,-19 30,-28 l 69,-58 2,3 c 138,-103 291,-183 457,-237 195,-65 399,-91 604,-91 204,0 409,26 603,91 193,64 369,163 524,295 163,139 294,308 400,494 109,193 186,407 252,618 3,9 6,18 9,28 l 17,62 -2,1 c 60,234 99,475 125,716 26,243 39,489 43,734 20,-4 41,-6 62,-6 l 1798,0 c 21,0 42,2 62,6 4,-247 19,-493 46,-738 29,-263 75,-526 147,-780 64,-223 149,-443 266,-644 102,-175 229,-327 376,-466 10,-10 19,-19 30,-28 l 69,-58 1,3 c 139,-103 292,-183 457,-237 195,-65 400,-91 605,-91 204,0 408,26 603,91 193,64 369,163 524,295 163,139 294,308 399,494 94,165 164,345 223,525 l 0,-14 c 0,-230 159,-463 405,-463 l 196,0 c 59,-3 118,-8 176,-18 56,-9 112,-23 164,-44 43,-17 86,-38 124,-63 18,-12 39,-26 53,-42 5,-5 9,-10 13,-15 l 21,-23 c 13,-16 26,-34 36,-52 10,-17 20,-34 26,-53 l 18,-55 c 4,-14 7,-30 10,-45 3,-14 8,-33 8,-47 l -1,-9 c -2,-231 160,-463 405,-463 l 740,0 c 246,0 405,233 405,463 l 0,2613 c 51,-26 108,-42 168,-42 l 1798,0 c 21,0 42,2 62,6 4,-247 18,-493 46,-738 29,-263 75,-526 147,-780 64,-223 149,-443 266,-644 101,-175 229,-327 375,-466 10,-10 20,-19 31,-28 l 69,-58 1,3 c 139,-103 292,-183 457,-237 195,-65 400,-91 605,-91 204,0 408,26 603,91 193,64 369,163 524,295 162,139 294,308 399,494 85,149 150,310 205,472 24,-75 50,-150 80,-224 45,-108 97,-212 160,-310 55,-86 115,-169 183,-245 60,-68 126,-129 195,-187 5,-4 10,-8 15,-12 l 71,-57 1,2 2,-2 1,1 c 44,-30 89,-59 135,-86 71,-41 146,-76 223,-105 65,-24 131,-47 198,-65 64,-17 130,-32 197,-41 44,-6 89,-9 133,-15 9,-1 18,-2 26,-2 l 79,-6 1,3 c 10,0 21,0 32,-1 10,0 19,-1 29,-1 128,0 256,11 382,33 l 64,12 0,3 c 88,20 174,48 261,75 12,4 25,8 37,12 110,43 214,99 315,160 8,4 15,8 22,13 l 57,37 -2,3 c 78,55 150,117 220,181 8,7 15,14 23,21 l 45,46 0,1 2,2 -2,1 c 77,83 146,173 206,268 68,108 122,225 173,342 5,12 11,23 15,36 l 17,45 -2,1 c 45,128 79,259 101,392 24,141 31,287 38,430 0,15 1,30 1,45 l 0,76 -2,0 c -3,105 -11,211 -25,315 -17,125 -43,249 -79,370 -32,106 -72,209 -117,311 l -27,60 -3,0 c -39,79 -84,157 -133,231 -53,80 -110,158 -172,232 -61,73 -125,143 -193,209 -61,58 -123,114 -186,169 -57,48 -116,93 -174,140 -5,4 -10,9 -16,13 l -72,56 -1,-1 c -41,32 -81,64 -121,96 l 916,0 c 247,0 405,233 405,462 l 0,937 c 0,229 -158,463 -405,463 l -3110,0 c -7,0 -14,0 -21,-1 -244,-15 -393,-255 -383,-484 l 3,-77 1,0 c 2,-43 4,-86 7,-128 4,-47 9,-94 14,-142 -17,32 -34,63 -51,94 -106,187 -238,357 -402,497 -156,133 -332,232 -526,297 -195,66 -400,94 -605,94 -206,0 -410,-28 -605,-94 -194,-65 -370,-164 -525,-297 -164,-140 -296,-311 -403,-497 -100,-177 -174,-371 -237,-565 l -2,1 -20,-71 c -1,-3 -2,-7 -3,-11 l -19,-67 1,0 c -9,-35 -18,-70 -26,-105 -60,41 -131,65 -207,65 l -1798,0 c -60,0 -117,-15 -168,-42 l 0,1070 c 0,229 -159,463 -405,463 l -899,0 c -246,0 -405,-234 -405,-463 l 0,-3239 -685,0 c -77,0 -147,-24 -206,-64 16,203 22,407 23,611 l 2,0 0,77 c 0,305 -14,612 -47,915 -28,254 -75,504 -136,752 -2,9 -4,18 -7,27 -62,224 -148,443 -263,646 -106,187 -238,357 -402,497 -156,133 -332,232 -526,297 -195,66 -399,94 -605,94 -206,0 -410,-28 -605,-94 -194,-65 -370,-164 -525,-297 -164,-140 -296,-311 -403,-497 -100,-177 -174,-371 -237,-565 l -2,1 -20,-70 c -1,-4 -2,-8 -3,-12 l -19,-67 1,0 c -9,-35 -18,-70 -26,-105 -60,41 -131,65 -207,65 l -1798,0 c -76,0 -147,-24 -207,-66 -12,49 -24,97 -36,146 -2,9 -4,18 -6,27 -63,224 -148,443 -264,646 -106,187 -238,357 -401,497 -156,133 -332,232 -526,297 -196,66 -400,94 -606,94 -205,0 -409,-28 -605,-94 -194,-65 -369,-164 -525,-297 -163,-140 -296,-311 -402,-497 -101,-177 -174,-371 -237,-565 l -2,1 -20,-70 c -1,-4 -3,-8 -4,-12 l -18,-67 0,0 c -34,-131 -61,-264 -83,-397 l 0,1385 c 0,229 -158,463 -405,463 l -898,0 c -246,0 -405,-234 -405,-463 l 0,-3239 -685,0 c -87,0 -166,-31 -230,-82 -2,12 -3,24 -5,36 -17,125 -42,249 -79,370 -32,108 -72,214 -119,316 -46,99 -100,195 -160,286 -54,80 -111,158 -172,232 -61,73 -125,143 -194,209 -60,58 -122,114 -186,169 -56,48 -116,93 -174,140 -5,4 -10,9 -15,13 l -71,55 -1,-2 c -41,33 -82,65 -123,98 l 917,0 c 246,0 405,233 405,462 l 0,937 c 0,229 -159,463 -405,463 l -3111,0 c -7,0 -13,0 -20,-1 -245,-15 -394,-255 -384,-484 l 3,-77 1,0 c 2,-43 5,-86 8,-128 4,-58 12,-116 16,-174 0,-11 1,-22 2,-33 l 8,-83 2,0 c 7,-53 16,-106 26,-159 15,-80 33,-159 54,-238 23,-89 52,-176 86,-262 35,-88 75,-174 119,-259 48,-92 102,-182 160,-268 61,-91 128,-178 197,-263 78,-94 161,-183 247,-269 85,-85 176,-162 262,-244 10,-10 21,-20 32,-30 l 59,-49 0,1 c 72,-61 144,-123 216,-185 82,-71 164,-143 245,-216 60,-55 119,-112 176,-171 46,-48 93,-97 135,-149 29,-36 56,-75 79,-115 14,-23 28,-48 37,-74 3,-9 5,-18 9,-27 l 9,-25 c 7,-23 12,-46 16,-70 5,-31 9,-63 8,-95 0,-11 -1,-22 -1,-33 0,-21 0,-45 -3,-67 -2,-13 -3,-27 -7,-40 -2,-7 -4,-14 -6,-21 l -10,-34 c -3,-7 -6,-14 -9,-21 -4,-8 -8,-18 -13,-25 -5,-8 -12,-16 -17,-24 l -11,-15 c -2,-3 -5,-6 -8,-9 -11,-10 -23,-18 -36,-26 -10,-5 -23,-9 -35,-12 -16,-4 -33,-8 -50,-8 -6,0 -12,1 -18,1 l -48,0 c -18,2 -36,4 -53,8 -8,2 -21,4 -29,8 -5,3 -10,6 -15,9 l -12,6 c -6,4 -12,8 -17,12 -3,3 -7,7 -9,10 -5,7 -10,14 -13,21 l -5,12 c -1,3 -3,6 -4,9 l -8,20 c -2,5 -4,10 -5,15 l -3,11 -3,9 c -8,26 -11,52 -15,78 -4,27 -7,54 -9,81 l 0,7 -1,7 c -3,37 -4,73 -5,109 -1,24 -3,48 -2,71 1,13 2,26 2,38 0,230 -159,463 -405,463 l -875,0 c -246,0 -404,-235 -403,-465 l 0,-77 2,0 c 2,-127 9,-254 23,-381 15,-133 38,-263 67,-394 2,-8 4,-17 6,-25 l 21,-81 2,0 c 27,-91 57,-181 94,-269 44,-108 97,-212 160,-310 54,-86 115,-169 183,-245 59,-68 125,-129 194,-187 5,-4 11,-8 16,-13 l 71,-55 1,1 2,-2 1,3 c 34,-23 67,-45 101,-67 11,-7 22,-15 33,-21 72,-41 146,-76 223,-105 65,-24 131,-47 198,-65 65,-17 131,-31 197,-41 45,-6 90,-9 134,-15 9,-1 17,-2 26,-2 l 79,-7 0,4 c 11,0 21,0 32,-1 10,0 20,-1 30,-1 127,0 253,12 379,33 l 73,12 0,4 c 99,21 197,50 291,87 118,46 230,104 336,173 100,65 189,141 277,220 7,7 15,14 22,21 l 46,46 -1,1 2,2 -1,1 c 77,83 145,173 206,268 68,108 122,225 172,342 1,2 3,5 4,7 57,-160 191,-288 374,-288 l 196,0 c 59,-3 118,-8 176,-18 56,-9 112,-23 164,-44 43,-17 85,-38 124,-63 17,-12 39,-26 53,-42 5,-5 9,-10 13,-15 l 23,-25 c 12,-16 24,-33 34,-50 10,-17 19,-34 25,-53 l 18,-55 c 5,-14 8,-30 11,-45 3,-14 7,-33 7,-47 l 0,-9 c -2,-231 160,-463 405,-463 l 739,0 c 247,0 405,233 405,463 l 0,1535 z m 18270,2351 c 41,-75 85,-147 133,-217 61,-91 127,-178 197,-263 77,-94 161,-183 247,-270 84,-84 175,-161 262,-243 10,-10 20,-20 31,-30 l 59,-49 1,1 c 72,-61 144,-123 215,-185 82,-71 164,-143 245,-216 61,-55 120,-112 177,-171 46,-48 93,-97 134,-149 29,-36 56,-75 80,-115 13,-23 27,-48 36,-74 3,-9 6,-18 9,-27 l 9,-25 c 7,-23 12,-46 16,-70 5,-31 10,-63 9,-95 0,-11 -1,-22 -1,-33 0,-21 0,-45 -3,-67 -2,-13 -4,-27 -7,-40 -2,-7 -5,-14 -7,-21 l -10,-35 c -2,-7 -5,-14 -9,-20 -3,-8 -7,-18 -12,-25 -6,-8 -12,-16 -18,-24 l -10,-15 c -3,-3 -6,-6 -9,-9 -11,-10 -23,-18 -35,-26 -11,-5 -24,-9 -35,-12 -17,-4 -34,-8 -51,-8 -5,0 -11,1 -17,1 l -48,0 c -18,2 -36,4 -54,8 -7,2 -19,4 -27,7 l -4,3 c -4,2 -9,4 -13,7 l -16,8 c -1,1 -2,1 -2,2 l -19,17 c 0,0 -1,1 -1,1 -8,13 -16,27 -22,41 -5,11 -10,23 -12,35 l -3,12 -3,9 c -9,26 -12,52 -16,78 -4,27 -7,54 -8,81 l 0,7 -1,7 c -4,37 -5,73 -6,109 -1,24 -2,48 -1,71 0,13 1,26 1,38 0,230 -159,463 -405,463 l -874,0 c -12,0 -24,-1 -36,-2 4,108 6,216 7,324 l 1,0 0,77 c 0,305 -13,612 -46,915 -8,72 -18,143 -28,214 z M 26369,3386 c 4,-4 7,-7 11,-11 l -1,-1 38,-38 c 6,-6 12,-11 18,-17 181,-163 385,-284 617,-361 251,-83 517,-114 781,-114 227,0 459,17 682,67 197,44 387,116 557,226 11,8 22,17 34,25 123,95 244,196 344,316 111,135 199,286 263,449 77,196 114,425 136,633 30,280 39,566 39,848 0,12 -1,25 -2,37 l -10,1570 1,0 0,80 c 0,198 1,398 11,596 5,116 11,238 28,354 l 0,-4621 c 0,-229 159,-462 405,-462 l 1038,0 c 247,0 405,233 405,462 l 0,497 446,-705 -1,0 36,-56 c 5,-9 11,-18 17,-26 l 31,-49 6,5 c 71,-75 167,-121 274,-121 l 1277,0 c 66,0 128,17 184,50 55,-33 118,-50 183,-50 l 159,0 c 28,-40 63,-74 102,-105 l 972,-786 0,-1 50,-41 c 193,-156 450,-87 571,121 45,78 68,167 68,257 l 0,555 303,0 c 246,0 405,233 405,462 l 0,595 c 11,-25 22,-49 33,-74 99,-212 226,-411 388,-580 l 0,-1 35,-35 c 6,-5 12,-11 18,-16 180,-164 385,-285 617,-362 251,-82 517,-114 780,-114 228,0 460,18 682,67 184,41 365,106 524,206 l 2,-1 32,22 c 12,8 22,16 33,25 124,95 245,195 344,316 112,135 200,285 264,448 77,196 113,425 136,633 30,281 39,566 39,848 0,12 -2,25 -2,37 l -10,1570 0,0 0,80 c 0,198 2,398 11,596 6,126 13,257 34,382 1,9 2,18 3,27 7,54 18,109 30,162 l 0,-821 c 0,-230 159,-463 405,-463 l 1037,0 c 246,0 404,233 404,463 l 0,1442 c 0,229 -158,462 -404,462 l -1037,0 c -141,0 -254,-77 -325,-187 -41,64 -97,117 -168,151 -51,24 -106,36 -162,36 l -1022,0 c -154,0 -279,-94 -347,-224 -55,41 -111,79 -169,114 -12,8 -24,14 -37,21 -119,60 -241,118 -370,154 -139,39 -283,58 -428,58 -242,0 -478,-46 -697,-150 -224,-107 -411,-267 -561,-464 -9,-12 -18,-24 -27,-36 -10,163 -97,320 -245,397 -146,77 -295,144 -455,186 -171,45 -347,67 -524,67 -120,0 -238,-14 -354,-44 -117,-30 -227,-76 -332,-135 -11,-6 -21,-12 -31,-19 -90,-60 -178,-124 -253,-202 -86,-89 -158,-189 -215,-300 -55,-110 -96,-227 -127,-346 -25,-99 -45,-201 -59,-303 l -1,1 -12,-97 c -17,-137 -21,-279 -26,-416 -7,-217 -9,-434 -9,-650 l 0,-1914 -72,0 c -246,0 -405,-233 -405,-462 l 0,-337 -830,1234 1329,3206 c 89,214 25,493 -183,612 -58,33 -122,49 -188,49 l -1112,0 c -180,0 -312,-134 -376,-293 l -688,-1706 0,1537 c 0,229 -158,462 -405,462 l -1038,0 c -126,0 -234,-64 -306,-160 -39,52 -89,95 -148,124 -51,24 -107,36 -164,36 l -1021,0 c -154,0 -279,-95 -347,-224 -54,41 -111,79 -168,114 -13,8 -25,14 -38,21 -119,60 -241,118 -369,154 -140,39 -284,58 -429,58 -242,0 -478,-46 -697,-150 -224,-107 -410,-267 -561,-464 -155,-202 -266,-429 -340,-672 -77,-256 -109,-522 -109,-789 0,-179 16,-359 50,-535 32,-170 83,-337 152,-496 66,-151 150,-294 253,-423 100,-124 215,-233 347,-322 83,-55 172,-104 263,-147 l -603,-152 0,1 -38,-10 c -57,-14 -109,-42 -154,-79 -96,68 -217,90 -334,49 -56,-20 -104,-54 -147,-95 -43,-40 -90,-73 -143,-99 -23,-11 -50,-21 -76,-21 -17,0 -38,2 -53,9 -8,4 -15,8 -21,13 l -25,27 c -12,13 -30,61 -37,78 -35,89 -58,189 -77,282 -37,188 -47,407 -56,598 -18,375 -20,752 -20,1128 l 0,1684 c 0,229 -159,462 -405,462 l -1037,0 c -111,0 -210,-51 -283,-131 0,1 -1,1 -2,1 -145,77 -295,144 -455,186 -171,45 -347,67 -524,67 -119,0 -238,-14 -354,-44 -116,-30 -227,-76 -332,-135 -11,-6 -21,-12 -31,-19 -90,-60 -177,-124 -253,-202 -86,-89 -158,-189 -214,-300 -56,-110 -97,-227 -128,-346 -25,-99 -44,-201 -59,-303 l -1,1 -12,-97 c -17,-137 -21,-279 -26,-416 -7,-217 -9,-434 -9,-650 l 0,-1914 -71,0 c -28,0 -55,-3 -81,-9 6,153 9,307 9,460 l 0,3389 c 0,229 -159,462 -405,462 l -1037,0 c -246,0 -405,-233 -405,-462 l 0,-2783 c 0,-231 -2,-464 -15,-695 -6,-92 -11,-213 -32,-305 l 0,-1 -4,-16 c -11,-40 -25,-78 -43,-115 -5,-9 -11,-22 -19,-33 l -37,-37 c -6,-6 -19,-12 -27,-15 -18,-7 -40,-10 -60,-10 -40,0 -80,6 -116,22 -27,11 -53,27 -76,46 l -41,38 c -36,33 -64,76 -87,119 -31,57 -53,118 -68,181 -29,123 -38,272 -46,398 -15,244 -18,492 -18,737 l 0,2469 c 0,229 -159,462 -405,462 l -1037,0 c -137,0 -250,-74 -321,-181 -41,61 -96,112 -164,145 -51,24 -106,36 -163,36 l -1022,0 c -153,0 -278,-95 -347,-224 -54,41 -110,79 -168,114 -12,8 -25,14 -38,21 -119,60 -240,118 -369,154 -140,39 -283,58 -428,58 -242,0 -478,-46 -698,-150 -186,-89 -347,-215 -482,-368 -28,205 -179,395 -401,395 l -3498,0 c -246,0 -405,-233 -405,-462 l 0,-296 c -76,111 -161,216 -256,312 l 1,2 -47,45 c -8,9 -17,16 -26,24 -178,153 -369,286 -589,370 -231,89 -474,128 -721,128 -376,0 -735,-81 -1059,-273 l 0,0 -22,-14 c -11,-7 -22,-15 -33,-22 -300,-211 -537,-471 -716,-789 l -1,0 -29,-54 c -5,-10 -10,-21 -15,-31 -82,-176 -156,-354 -215,-538 -82,272 -193,537 -346,777 -171,270 -386,519 -657,695 -252,164 -530,249 -831,249 -155,0 -306,-28 -452,-79 -152,-53 -294,-132 -425,-226 -6,-4 -12,-8 -18,-13 -71,115 -190,195 -330,195 l -963,0 C 159,9345 0,9112 0,8883 L 0,1357 C 0,1127 159,894 405,894 l 1037,0 c 246,0 405,233 405,463 l 0,1688 c 224,-131 468,-201 731,-201 303,0 586,78 844,236 262,159 472,384 642,637 l 2,0 22,35 c 6,8 11,17 17,26 145,245 258,501 339,771 88,-265 205,-520 361,-754 186,-281 419,-532 711,-706 276,-164 576,-245 898,-245 343,0 669,79 966,252 310,181 553,443 742,745 67,106 125,216 176,330 l 0,-740 c 0,-229 159,-462 405,-462 l 3241,0 c 246,0 405,233 405,462 l 0,426 c 90,-175 201,-339 338,-482 l -1,-1 38,-38 c 6,-6 12,-11 18,-17 181,-163 386,-284 617,-361 251,-83 518,-114 781,-114 228,0 459,17 682,67 197,44 387,116 557,226 12,8 23,17 34,26 123,95 245,195 344,315 111,136 200,286 264,449 76,196 113,425 135,633 30,280 39,566 39,848 0,12 -1,25 -1,37 l -11,1570 1,0 0,80 c 0,198 2,398 11,596 6,126 13,258 33,382 2,8 2,15 3,23 6,44 14,88 23,131 l 0,-4796 c 0,-229 159,-462 405,-462 l 962,0 c 144,0 264,83 335,201 10,-8 20,-16 30,-23 278,-198 587,-303 928,-303 115,0 228,12 340,36 l 0,-3 83,23 c 9,3 18,6 27,9 104,34 205,74 302,125 l 2,-2 63,37 c 5,3 10,7 15,10 113,73 220,155 314,251 95,98 177,207 244,326 l 0,-225 c 0,-229 158,-462 405,-462 l 158,0 c 29,-40 64,-74 102,-105 l 972,-786 0,-1 50,-41 c 193,-156 450,-87 571,121 46,78 68,167 68,257 l 0,555 303,0 c 103,0 195,43 265,112 70,-69 163,-112 265,-112 l 963,0 c 96,0 185,38 254,102 83,-62 172,-118 269,-156 119,-47 242,-71 370,-71 338,0 634,132 894,341 l 1,0 26,21 c 58,48 101,111 129,180 z m 21867,5753 -9,6 c -12,9 -24,16 -36,23 -135,84 -275,165 -425,217 -160,54 -325,83 -494,83 -167,0 -331,-27 -489,-81 -132,-45 -255,-107 -370,-185 l -2,3 -72,-55 c -6,-5 -12,-10 -18,-15 -114,-94 -216,-199 -304,-318 l -2,2 -42,-62 c -5,-7 -9,-14 -13,-20 -95,-153 -171,-317 -229,-488 -4,-11 -7,-22 -10,-33 -54,-194 -94,-389 -117,-589 -28,-247 -39,-498 -39,-747 l 0,-1637 c -91,57 -203,75 -314,36 -56,-20 -104,-54 -147,-95 -43,-40 -91,-73 -143,-98 -23,-11 -51,-21 -76,-21 -17,0 -38,1 -54,8 -6,3 -12,7 -17,10 l -28,30 c -12,13 -31,62 -37,78 -35,90 -58,189 -77,283 -37,187 -47,406 -56,597 -18,375 -21,753 -21,1128 l 0,1684 c 0,229 -158,462 -404,462 l -1037,0 c -246,0 -405,-233 -405,-462 l 0,-5452 c 0,-229 159,-462 405,-462 l 962,0 c 97,0 186,38 255,102 83,-62 172,-118 269,-156 119,-47 242,-71 369,-71 167,0 328,34 482,95 83,33 162,74 237,121 67,-57 151,-91 242,-91 l 1037,0 c 246,0 405,233 405,462 l 0,2504 c 0,302 0,606 13,907 4,104 6,251 25,360 l 7,28 c 2,9 3,19 5,28 6,30 18,59 32,87 12,24 27,46 46,64 10,11 21,19 35,24 23,9 57,11 82,11 38,0 77,-5 112,-20 28,-12 54,-29 77,-48 l 26,-24 c 6,-6 12,-12 19,-18 33,-31 58,-70 80,-109 19,-33 34,-67 47,-102 l 18,-66 c 30,-109 33,-288 39,-402 16,-307 18,-617 18,-925 l 0,-2299 c 0,-229 159,-462 405,-462 l 1037,0 c 246,0 405,233 405,462 l 0,5452 c 0,229 -159,462 -405,462 l -962,0 c -146,0 -267,-86 -337,-206 z M 28054,6897 c -27,8 -54,16 -80,24 l -1,1 -47,14 c -102,29 -205,63 -302,107 -23,10 -69,30 -95,48 l -16,14 c -13,11 -23,36 -29,52 -11,26 -14,59 -14,87 0,82 18,160 67,227 12,16 28,34 46,44 17,9 39,11 58,11 42,0 81,-10 118,-28 46,-22 88,-53 126,-88 l 25,-25 c 4,-5 9,-8 13,-13 26,-26 45,-57 62,-90 16,-31 28,-64 37,-97 l 7,-37 c 2,-8 4,-16 6,-25 11,-49 13,-114 16,-165 1,-20 2,-41 3,-61 z m -584,-1692 c 164,-39 320,-94 480,-150 34,-12 67,-24 100,-37 -2,-14 -4,-29 -7,-43 l -5,-23 c -2,-7 -3,-13 -5,-19 -1,-5 -3,-14 -6,-21 -10,-5 -24,-9 -32,-11 -71,-23 -161,-28 -235,-28 -44,0 -122,5 -161,34 l -7,7 c -4,4 -9,8 -13,12 -13,13 -28,48 -36,65 -31,65 -54,139 -72,209 l 0,2 -1,3 z m -4412,2028 0,-2212 c -39,15 -81,22 -125,22 l -303,0 0,1735 c 0,172 0,344 4,516 0,5 0,11 0,16 25,-9 49,-20 73,-31 l 0,0 62,-31 c 94,-47 197,-50 289,-15 z m -8697,-336 c -40,12 -80,24 -119,36 -104,31 -211,66 -310,110 -24,10 -70,30 -96,48 l -16,14 c -13,11 -23,36 -29,52 -11,26 -13,59 -13,87 0,82 17,160 67,227 11,16 27,34 46,44 17,9 39,11 58,11 41,0 80,-10 118,-28 45,-22 87,-53 125,-88 l 25,-25 c 4,-5 9,-8 13,-13 26,-26 46,-57 62,-90 16,-31 28,-64 37,-97 l 8,-37 c 2,-8 4,-16 6,-25 11,-49 12,-114 15,-165 1,-20 2,-41 3,-61 z m -1363,-1427 -604,-152 -1,1 -37,-10 c -138,-34 -235,-140 -284,-266 l -1268,2033 1,1 -30,47 c -5,10 -12,18 -19,27 l 1185,0 c 8,-98 21,-196 40,-293 33,-170 83,-337 152,-496 58,-132 130,-258 217,-374 l -3,-2 40,-49 c 7,-9 14,-17 22,-25 89,-100 185,-194 294,-272 l 0,-3 31,-20 c 5,-4 11,-7 16,-10 80,-50 163,-96 248,-137 z m 780,-265 c 164,-39 320,-94 480,-150 34,-12 67,-24 101,-37 -4,-37 -10,-80 -20,-100 l -5,-6 c -9,-5 -23,-9 -31,-11 -72,-23 -161,-28 -236,-28 -44,0 -122,5 -161,34 l -7,7 c -4,4 -9,8 -13,12 -12,13 -28,48 -36,65 -30,65 -53,137 -71,207 l 0,2 -1,5 z M 8503,7054 9700,5145 c 13,-22 27,-44 40,-65 l -957,7 0,1 -77,1 c -48,0 -94,-9 -137,-26 92,484 118,989 113,1482 l 2,1 -1,34 c -2,172 -93,344 -242,418 23,16 44,35 62,56 z M 6786,5227 c -20,-72 -48,-146 -90,-208 -26,-38 -59,-79 -97,-107 l -18,-11 c -6,-3 -11,-7 -17,-11 -24,-14 -60,-17 -87,-17 -42,0 -83,8 -119,30 -38,24 -72,63 -99,102 l -16,25 c -5,6 -9,12 -13,19 -35,52 -59,116 -76,178 l 632,0 z m 10,1809 -655,0 c 21,79 51,158 94,228 l 15,23 c 6,8 11,17 17,26 31,48 71,86 119,115 44,26 92,37 142,37 26,0 53,-3 76,-14 13,-6 25,-14 36,-23 l 27,-28 c 22,-23 41,-71 53,-100 33,-78 56,-165 73,-249 l 0,0 1,-8 c 1,-2 1,-5 2,-7 z m -4766,-1984 -18,28 c -4,8 -9,14 -13,21 -57,90 -88,221 -109,325 -40,199 -51,410 -51,613 0,216 8,441 41,655 19,126 48,264 102,380 45,94 108,205 190,271 51,40 107,59 171,59 39,0 74,-12 106,-35 59,-41 108,-109 144,-170 63,-106 99,-244 121,-363 41,-216 50,-446 50,-664 0,-234 -10,-479 -52,-710 -22,-124 -58,-269 -123,-378 -4,-8 -8,-16 -13,-24 -32,-58 -76,-109 -131,-146 -43,-28 -92,-41 -144,-41 -51,0 -98,13 -141,41 -52,33 -95,86 -130,138 z m 36909,1845 c -25,8 -51,16 -77,23 l 0,2 -51,14 c -102,29 -204,64 -301,107 -23,10 -82,35 -100,51 -19,17 -31,39 -41,63 -10,26 -13,59 -13,87 0,43 4,88 17,129 11,36 28,68 50,98 12,16 28,34 46,44 17,9 39,11 58,11 41,0 81,-10 118,-28 45,-22 88,-53 125,-88 l 26,-25 c 4,-4 8,-8 12,-12 26,-26 46,-58 63,-91 16,-31 28,-64 37,-97 l 7,-37 c 2,-8 4,-16 6,-24 11,-50 12,-115 15,-166 1,-20 2,-41 3,-61 z m -2424,320 c 7,-120 22,-240 44,-359 33,-170 83,-337 153,-495 57,-132 128,-259 214,-374 l -1,-2 41,-50 c 6,-9 14,-16 21,-24 97,-111 203,-213 325,-295 83,-56 172,-105 263,-148 l -603,-151 0,0 -38,-9 c -156,-40 -261,-171 -300,-321 -57,35 -122,54 -192,54 l -303,0 0,1735 c 0,172 -1,344 4,516 0,5 0,11 0,16 25,-9 49,-20 73,-31 l -1,0 63,-31 c 75,-38 158,-48 237,-31 z m 1841,-2011 c 164,-40 320,-95 480,-151 34,-12 68,-24 101,-37 -4,-37 -10,-80 -19,-100 l -5,-6 c -10,-4 -24,-9 -32,-11 -72,-23 -161,-27 -236,-27 -41,0 -88,3 -127,17 -11,4 -24,9 -34,17 l -6,6 c -5,4 -9,8 -13,12 -13,13 -29,48 -37,65 -30,65 -53,137 -71,208 l 0,1 -1,6 z m 25325,2415 c 3,3 7,6 12,8 14,7 29,11 45,11 11,-1 21,-2 32,-1 l 26,0 c 14,-1 28,-4 40,-10 3,-2 10,-5 12,-7 3,-4 7,-10 10,-14 l 13,-17 c 16,-28 29,-64 38,-91 28,-88 45,-183 58,-274 20,-148 31,-299 38,-448 9,-186 20,-370 13,-557 -1,-13 -2,-26 -2,-40 l 0,-77 1,0 c 0,-126 -2,-251 -6,-377 -5,-128 -11,-257 -22,-384 -8,-95 -19,-189 -35,-282 -10,-54 -20,-113 -38,-164 -3,-10 -7,-19 -10,-29 l -10,-33 c -8,-21 -18,-42 -29,-61 -4,-7 -12,-19 -18,-24 -5,-4 -11,-7 -18,-9 -13,-4 -26,-7 -40,-7 -10,0 -20,1 -30,1 l -29,0 c -12,1 -23,3 -33,6 -3,1 -7,2 -11,4 l -16,14 c -4,5 -7,11 -10,15 -14,23 -25,47 -33,73 -2,8 -5,17 -7,25 l -14,42 c -14,48 -24,98 -32,147 -16,86 -28,171 -34,257 0,9 -1,18 -1,26 l -7,78 -5,-1 c -10,101 -8,207 -11,306 -5,152 -7,304 -6,456 0,199 3,399 12,599 8,148 18,297 38,444 13,91 30,185 58,273 10,28 24,73 41,97 4,5 9,10 13,15 l 7,10 z m 5889,0 c 4,3 8,6 12,8 14,7 29,11 45,11 11,-1 21,-2 32,-1 l 27,0 c 14,-1 28,-4 40,-10 3,-2 9,-5 11,-7 4,-4 7,-10 11,-14 l 12,-17 c 16,-28 29,-64 38,-91 29,-88 46,-183 58,-274 20,-148 31,-299 39,-448 9,-186 19,-370 12,-557 -1,-13 -1,-26 -1,-40 l 0,-77 1,0 c 0,-126 -3,-251 -7,-377 -4,-128 -11,-257 -21,-384 -8,-95 -19,-189 -36,-282 -9,-54 -19,-113 -37,-164 -4,-10 -7,-19 -11,-29 l -10,-33 c -8,-21 -17,-42 -29,-61 -3,-7 -11,-19 -17,-24 -5,-4 -12,-7 -18,-9 -13,-4 -27,-7 -41,-7 -10,0 -19,1 -29,1 l -30,0 c -11,1 -22,3 -33,6 -3,1 -7,2 -10,4 l -17,14 c -3,5 -7,11 -9,15 -14,23 -25,47 -33,73 -3,8 -5,17 -8,25 l -14,42 c -13,48 -23,98 -32,147 -15,86 -28,171 -33,257 -1,9 -1,18 -2,26 l -6,78 -5,-1 c -10,101 -8,207 -11,306 -5,152 -7,304 -7,456 0,199 3,399 13,599 7,148 18,297 38,444 12,91 29,185 58,273 9,28 23,73 41,97 4,5 8,10 12,15 l 7,10 z m 8818,-2694 -12,-37 c -2,-7 -5,-15 -8,-22 l -10,-33 c -8,-21 -17,-42 -29,-61 -4,-7 -11,-19 -17,-24 -5,-4 -12,-7 -18,-9 -13,-4 -27,-7 -41,-7 -10,0 -19,1 -29,1 l -30,0 c -11,1 -22,3 -33,6 -3,1 -7,2 -10,4 l -17,14 c -4,5 -7,11 -10,15 -14,23 -25,47 -33,73 -2,8 -4,17 -7,25 l -14,43 c -13,48 -24,97 -32,146 -15,86 -28,171 -33,257 -1,9 -1,18 -2,26 l -7,78 -4,-1 c -10,101 -8,207 -11,306 -6,152 -7,304 -7,456 0,199 3,399 13,599 7,148 18,297 38,444 12,91 29,185 58,273 9,28 23,73 41,97 4,5 8,10 12,15 l 7,10 c 4,3 7,6 12,8 14,7 29,11 45,11 11,-1 21,-2 32,-1 l 27,0 c 14,-1 28,-4 40,-10 3,-2 9,-5 11,-7 4,-4 7,-10 10,-14 l 13,-17 c 16,-28 29,-64 38,-91 29,-88 46,-183 58,-274 20,-148 31,-299 39,-448 9,-186 19,-370 12,-557 -1,-13 -2,-26 -2,-40 l 1,-77 1,0 c -1,-126 -3,-252 -7,-378 -4,-128 -11,-256 -21,-383 -8,-95 -19,-189 -36,-282 -8,-43 -16,-90 -28,-134 z"
             id="path17"
             style="fill:#ffffff" /><path
             class="fil4"
             d="m 26328,3551 c -7,-111 -54,-217 -137,-286 l -1,0 c -276,-229 -565,-344 -871,-344 -118,0 -231,22 -341,66 -99,38 -191,94 -278,166 -9,6 -18,13 -26,21 l 0,1 -2,2 c -60,-80 -148,-131 -246,-131 l -963,0 c -109,0 -205,62 -265,158 -59,-96 -156,-158 -265,-158 l -380,0 0,-632 c 0,-75 -18,-151 -57,-218 -103,-176 -307,-220 -456,-100 l 0,1 -1022,826 c -44,31 -81,73 -108,123 l -201,0 c -181,0 -328,172 -328,385 l 0,579 c -38,-103 -83,-202 -135,-298 -66,-122 -146,-231 -241,-328 -90,-91 -190,-171 -301,-240 -4,-3 -9,-6 -13,-9 l -1,2 c -112,-68 -229,-120 -350,-155 -8,-3 -16,-5 -24,-8 l 0,1 c -130,-36 -264,-54 -402,-54 -320,0 -614,96 -883,289 -35,25 -70,52 -104,81 -48,-144 -167,-245 -306,-245 l -962,0 c -181,0 -328,172 -328,385 l 0,5346 c -3,-14 -7,-28 -12,-41 l -1,0 c -40,-114 -74,-228 -104,-343 -25,-100 -45,-196 -59,-287 -1,-7 -2,-14 -3,-21 l 0,0 c -15,-102 -26,-233 -34,-390 -7,-158 -11,-359 -11,-600 l 0,-3 -1,0 11,-1647 c 1,-13 1,-25 1,-37 0,-321 -13,-601 -38,-840 -28,-257 -72,-461 -131,-613 -61,-157 -145,-299 -251,-428 -93,-112 -204,-214 -332,-303 -9,-8 -19,-16 -29,-22 l 0,0 c -145,-97 -322,-169 -532,-216 -194,-43 -416,-65 -665,-65 -282,0 -534,37 -756,110 -231,76 -427,192 -590,346 -5,4 -11,9 -16,14 l 1,1 c -161,158 -297,355 -407,593 -36,77 -70,159 -101,245 l 0,-799 c 0,-213 -146,-385 -327,-385 l -3241,0 c -181,0 -327,172 -327,385 l 0,1166 c -84,-271 -190,-509 -319,-715 -200,-318 -439,-557 -716,-719 -277,-161 -586,-242 -927,-242 -311,0 -597,78 -859,234 -258,154 -487,382 -686,683 -190,285 -333,620 -430,1004 l -7,-33 c -87,-385 -219,-715 -394,-991 -4,-8 -9,-16 -14,-24 l -2,0 c -186,-285 -399,-501 -640,-648 -245,-150 -513,-225 -804,-225 -276,0 -533,81 -774,242 -11,8 -23,16 -34,24 l 0,-1830 c 0,-213 -147,-386 -328,-386 L 405,971 C 224,971 77,1144 77,1357 l 0,7526 c 0,212 147,385 328,385 l 963,0 c 136,0 253,-98 302,-237 30,25 60,48 91,70 133,95 269,167 405,215 142,50 285,75 427,75 283,0 546,-79 789,-237 236,-152 447,-376 634,-672 181,-285 317,-628 408,-1028 70,292 166,558 288,798 4,10 9,19 14,28 l 0,0 c 189,357 429,629 722,816 9,7 18,13 28,19 l 1,0 c 299,184 646,276 1040,276 249,0 480,-41 694,-123 207,-79 396,-198 565,-357 8,-6 16,-13 24,-20 l -1,-1 c 168,-161 312,-354 433,-580 l 0,573 c 0,212 147,385 328,385 l 3498,0 c 181,0 328,-173 328,-385 l 0,-152 c 18,26 37,51 56,76 149,196 327,343 533,441 199,95 420,143 664,143 138,0 274,-19 407,-55 121,-34 239,-83 356,-149 10,-5 21,-11 32,-17 l 0,0 c 82,-49 163,-107 242,-174 41,158 166,272 313,272 l 1022,0 c 44,1 87,-8 130,-29 105,-51 176,-159 196,-281 30,177 163,310 322,310 l 1037,0 c 181,0 328,-173 328,-385 l 0,-2469 c 0,-300 6,-547 18,-742 12,-188 28,-325 48,-410 17,-73 42,-139 75,-200 28,-52 62,-99 103,-140 l 8,-7 0,-1 1,-1 0,-1 c 42,-40 86,-70 130,-88 42,-19 91,-28 146,-28 34,0 64,6 89,16 19,7 36,18 52,31 l 9,9 1,-1 3,3 0,0 c 21,21 41,48 58,79 18,39 35,83 48,131 l 1,4 0,0 1,1 0,0 c 15,60 27,171 37,331 10,176 15,409 15,700 l 0,2783 c 0,212 147,385 328,385 l 1037,0 c 181,0 328,-173 328,-385 l 0,-3389 c 0,-212 -5,-405 -16,-579 49,32 105,51 165,51 l 148,0 0,1991 c 0,236 3,452 10,647 5,181 14,317 25,409 l 1,13 0,0 1,4 0,0 c 16,135 39,260 68,373 32,124 73,234 121,330 53,104 120,198 201,281 71,73 151,137 240,192 9,6 17,11 26,16 l 0,0 c 99,56 204,99 314,127 108,28 219,42 335,42 173,0 341,-22 505,-65 155,-41 301,-100 439,-179 20,-10 39,-21 56,-35 60,95 156,156 264,156 l 1037,0 c 181,0 328,-173 328,-385 l 0,-1684 c 0,-468 7,-845 20,-1132 13,-280 33,-483 58,-609 24,-120 51,-219 80,-295 19,-47 37,-82 53,-103 l 11,-12 0,0 c 18,-21 38,-36 59,-45 23,-10 52,-16 85,-16 34,0 70,10 110,29 49,24 103,61 162,112 34,35 74,62 120,78 113,40 230,4 313,-82 44,54 101,94 168,111 l 1,-1 862,217 c -19,7 -37,15 -56,22 -160,66 -296,135 -405,209 -122,82 -232,184 -330,305 -94,118 -175,253 -242,406 -66,150 -115,309 -148,479 -32,169 -48,342 -48,521 0,276 35,532 106,767 73,241 182,457 327,647 150,196 328,343 533,441 199,95 421,143 664,143 139,0 275,-19 408,-55 120,-34 239,-83 355,-149 11,-5 22,-11 32,-17 l 0,0 c 82,-49 163,-107 243,-174 41,158 165,272 313,272 l 1021,0 c 43,1 88,-8 130,-29 87,-42 151,-123 182,-219 47,145 166,248 306,248 l 1038,0 c 181,0 328,-173 328,-385 l 0,-1611 82,-120 754,1871 c 48,144 167,245 305,245 l 1112,0 c 50,1 101,-11 150,-39 162,-93 230,-324 150,-515 l 0,0 -1345,-3245 995,-1478 0,590 c 0,213 146,385 327,385 l 149,0 0,1991 c 0,236 3,452 9,647 6,181 15,317 25,409 l 2,13 0,0 0,4 1,0 c 16,135 39,260 68,373 32,124 73,234 121,330 53,104 120,198 201,281 70,73 150,137 240,192 9,6 17,11 26,16 l 0,0 c 99,56 203,99 314,127 107,28 219,42 335,42 173,0 341,-22 504,-65 156,-41 302,-100 439,-179 131,-62 217,-220 203,-393 l -1,0 -19,-242 c 53,105 115,203 186,295 150,196 327,343 533,441 199,95 420,143 664,143 139,0 275,-19 408,-55 120,-34 238,-83 355,-149 11,-5 22,-11 32,-17 l 0,0 c 82,-49 163,-107 242,-174 42,158 166,272 314,272 l 1022,0 c 43,1 87,-8 129,-29 113,-55 186,-175 200,-309 20,191 159,338 326,338 l 1037,0 c 181,0 327,-172 327,-385 l 0,-1442 c 0,-213 -146,-386 -327,-386 l -1037,0 c -181,0 -328,173 -328,386 l 0,1374 c -4,-26 -11,-53 -20,-79 l -1,0 c -39,-114 -74,-228 -103,-343 -26,-100 -46,-195 -59,-283 -1,-8 -2,-17 -3,-25 l -1,0 c -15,-102 -26,-233 -34,-390 -7,-158 -11,-358 -11,-600 l 0,-3 -1,0 11,-1647 c 1,-12 1,-25 1,-37 0,-321 -12,-601 -38,-840 -28,-256 -71,-460 -131,-613 -61,-156 -145,-299 -251,-427 -93,-113 -204,-214 -332,-304 -9,-8 -19,-15 -29,-22 l -1,0 c -145,-97 -322,-169 -530,-216 -195,-43 -417,-65 -666,-65 -282,0 -534,37 -756,111 -230,76 -427,191 -589,345 -6,4 -11,9 -16,14 l 0,1 c -161,158 -296,356 -407,593 -70,150 -130,317 -180,499 l 0,-1053 c 0,-213 -147,-385 -328,-385 l -380,0 0,-632 c 0,-75 -19,-151 -58,-218 -102,-176 -306,-220 -455,-100 l 0,1 -1023,826 c -43,31 -80,73 -108,123 l -201,0 c -68,0 -131,24 -183,66 -53,-42 -116,-66 -184,-66 l -1277,0 c -100,0 -199,54 -263,155 l 263,230 -263,-229 -623,986 0,-764 c 0,-213 -147,-385 -328,-385 l -1038,0 c -181,0 -327,172 -327,385 l 0,5262 c -33,-97 -62,-195 -87,-293 -26,-100 -46,-196 -59,-287 -1,-7 -2,-14 -3,-21 l 0,0 c -16,-102 -27,-233 -34,-390 -8,-158 -11,-359 -12,-600 l 0,-3 -1,0 11,-1647 c 1,-13 2,-25 2,-37 0,-321 -13,-601 -39,-840 -27,-257 -71,-461 -130,-613 -62,-157 -146,-299 -252,-428 -93,-112 -204,-214 -332,-304 -9,-7 -18,-15 -28,-21 l -1,0 c -144,-97 -321,-169 -531,-216 -195,-43 -416,-65 -665,-65 -283,0 -535,37 -757,110 -230,76 -427,192 -589,346 -6,4 -11,9 -16,14 l 0,1 c -50,49 -97,102 -143,159 z m 1806,3239 c -2,66 -4,123 -6,173 -5,79 -11,138 -17,177 -3,8 -4,16 -6,24 l 1,0 c -12,57 -29,108 -52,153 -20,39 -46,76 -77,110 -4,4 -8,8 -13,12 l 1,1 c -58,58 -116,101 -172,128 -50,23 -100,35 -152,35 -37,0 -69,-7 -94,-20 -26,-14 -50,-36 -72,-66 -55,-74 -82,-165 -82,-273 0,-46 6,-85 19,-116 12,-29 28,-56 50,-81 l 5,-5 0,0 c 20,-18 62,-41 126,-70 77,-34 181,-71 312,-110 l 8,-3 0,0 0,0 0,0 c 78,-23 152,-46 221,-69 z m -789,-1475 c 20,-33 36,-70 46,-111 l -1,-1 c 26,-101 53,-183 83,-245 18,-38 35,-67 51,-86 4,-4 9,-9 14,-13 l -1,-1 c 42,-41 116,-62 223,-62 108,0 194,11 259,31 29,9 49,18 59,26 l 3,3 1,0 1,1 c 9,11 17,30 25,57 1,7 3,13 4,19 l 1,0 0,0 1,0 c 9,37 15,83 19,136 -47,19 -99,39 -157,59 -160,56 -348,113 -562,169 -10,2 -20,4 -30,6 l 1,2 -40,10 z m -4210,2055 c -91,-85 -217,-110 -332,-53 l 1,1 c -77,38 -144,67 -203,87 -15,5 -28,9 -40,12 -2,-30 -3,-70 -4,-121 -3,-96 -4,-269 -4,-518 l 0,-1812 380,0 c 77,0 147,-30 202,-81 l 0,2485 z m -8694,-580 c -1,66 -3,123 -6,173 -4,79 -10,138 -17,177 -2,8 -4,16 -6,24 l 1,0 c -11,57 -29,108 -52,153 -20,39 -45,76 -76,110 -5,4 -9,8 -13,12 l 0,1 c -58,58 -115,101 -172,128 -49,23 -100,35 -151,35 -38,0 -69,-7 -95,-20 -25,-14 -49,-36 -72,-66 -54,-74 -81,-165 -81,-273 0,-46 6,-85 18,-116 12,-29 29,-56 51,-81 l 5,-5 -1,0 c 20,-18 62,-42 126,-70 81,-36 187,-74 319,-113 79,-23 153,-46 222,-69 z M 13238,5451 c -19,7 -38,15 -56,22 -154,63 -285,129 -391,199 -5,3 -10,6 -14,9 l 0,0 0,1 0,0 c -116,78 -219,172 -311,281 -6,7 -13,14 -19,22 l 2,1 c -97,121 -179,256 -245,407 -65,150 -114,310 -147,479 -23,117 -37,235 -44,356 l -1401,0 74,-110 c 8,-11 16,-22 24,-35 l -1,0 1407,-2257 c -13,191 96,368 259,409 l 0,-1 863,217 z m 415,-136 c 19,-33 35,-70 45,-111 l 0,-1 c 25,-101 53,-183 82,-245 18,-38 35,-67 51,-86 5,-4 10,-8 14,-13 l 0,-1 c 42,-41 116,-62 222,-62 108,0 195,11 259,31 30,9 49,18 60,26 l 3,3 0,0 1,1 c 27,33 44,103 51,212 -47,19 -100,38 -158,59 -160,56 -347,113 -561,169 -10,2 -20,4 -30,7 l 0,1 -39,10 z M 8506,7194 c -45,-92 -123,-162 -220,-184 l -63,378 63,-378 -221,-51 213,0 c 179,0 325,-169 328,-380 l -1,-1 c 7,-585 -32,-1097 -118,-1535 -12,-59 -24,-117 -38,-173 61,87 153,143 256,142 l 0,-2 1176,-9 c -37,60 -76,121 -116,185 L 8506,7194 z m -1623,-1890 -826,0 c 2,-14 6,-28 9,-42 23,-99 56,-184 100,-256 4,-6 8,-12 12,-18 l -1,0 c 45,-70 92,-120 141,-150 44,-28 97,-42 159,-42 47,0 89,10 126,28 6,4 12,8 18,11 l 0,-1 c 48,30 95,77 139,142 46,68 83,157 109,267 5,20 10,40 14,61 z m 20,1655 c -15,30 -26,64 -33,99 l 0,1 c -22,110 -49,200 -79,271 -21,51 -44,92 -68,123 l -10,10 1,0 0,0 0,0 c -24,26 -50,46 -78,59 -30,13 -66,20 -108,20 -68,0 -128,-16 -181,-47 -51,-31 -100,-78 -145,-140 -5,-9 -10,-17 -16,-25 l 0,1 c -54,-80 -95,-179 -125,-296 -6,-25 -12,-50 -17,-76 l 859,0 z M 1762,6039 c 0,-245 18,-454 53,-628 29,-145 69,-262 119,-351 4,-7 9,-13 13,-20 l -1,0 c 54,-88 112,-152 172,-191 54,-35 115,-53 183,-53 71,0 133,18 187,54 55,37 107,94 155,172 4,8 8,15 13,22 l 0,0 c 56,96 100,231 132,404 36,197 53,438 53,724 0,269 -17,495 -51,678 -31,165 -74,294 -130,388 -53,89 -109,154 -166,195 -46,32 -97,48 -151,48 -83,0 -156,-26 -219,-76 -76,-61 -147,-161 -211,-299 -48,-101 -84,-234 -109,-400 -28,-181 -42,-403 -42,-667 z m 46503,2978 c -27,22 -55,44 -84,65 l 1,1 c -11,7 -21,14 -32,20 -133,91 -269,161 -409,209 -155,52 -311,79 -469,79 -159,0 -314,-26 -465,-77 -149,-51 -289,-126 -420,-226 l -1,1 c -5,-4 -10,-9 -16,-13 -126,-100 -237,-221 -332,-363 l -1,1 c -4,-6 -8,-12 -11,-18 -91,-140 -165,-297 -222,-471 l 0,0 c -4,-10 -6,-20 -9,-30 -51,-165 -89,-358 -114,-577 -26,-223 -39,-469 -39,-738 l 0,-1826 c -78,135 -225,202 -365,152 -46,-16 -87,-43 -121,-78 -58,-50 -112,-88 -162,-112 -39,-19 -76,-28 -109,-28 -34,0 -62,5 -85,15 -23,10 -43,25 -60,44 l 1,2 -11,11 c -17,22 -34,56 -53,103 -30,76 -57,175 -81,296 -25,125 -44,328 -57,608 -14,287 -21,664 -21,1132 l 0,1684 c 0,213 -146,385 -327,385 l -1037,0 c -181,0 -328,-172 -328,-385 l 0,-5452 c 0,-212 147,-385 328,-385 l 962,0 c 98,0 187,51 247,131 l 2,-2 -1,-1 c 9,-8 18,-15 27,-21 87,-72 179,-128 277,-166 111,-44 224,-66 341,-66 154,0 305,30 453,90 94,37 186,87 276,148 60,-70 141,-113 232,-113 l 1037,0 c 181,0 327,173 327,385 l 0,2504 c 0,393 5,696 14,910 8,207 19,341 33,403 l 0,-1 c 2,9 4,18 6,26 10,41 23,76 38,107 17,32 37,60 60,84 19,18 39,32 62,41 28,11 64,16 110,16 53,0 101,-9 142,-26 44,-18 86,-47 127,-87 l 0,1 0,-1 -1,-1 c 6,-6 12,-11 18,-16 37,-40 69,-82 95,-128 30,-52 53,-109 69,-170 l 0,-1 0,-2 0,0 3,-12 c 17,-78 32,-218 42,-419 12,-229 19,-539 19,-929 l 0,-2299 c 0,-212 146,-385 327,-385 l 1037,0 c 181,0 328,173 328,385 l 0,5452 c 0,213 -147,385 -328,385 l -962,0 c -141,0 -261,-104 -308,-251 z M 39020,6791 c -2,65 -4,123 -7,172 -4,79 -10,138 -17,177 -2,8 -4,16 -5,24 l 1,0 c -12,57 -29,108 -53,153 -20,39 -45,76 -76,110 -4,4 -9,8 -13,12 l 1,1 c -58,58 -116,101 -173,128 -49,23 -100,35 -151,35 -37,0 -69,-6 -95,-20 -25,-14 -49,-36 -71,-66 -28,-38 -49,-78 -62,-121 -13,-43 -20,-94 -20,-152 0,-46 6,-85 19,-116 12,-32 33,-62 60,-91 22,-17 62,-39 120,-65 78,-34 182,-71 312,-110 l 9,-3 0,0 0,0 0,0 c 79,-24 153,-46 221,-68 z M 37816,5451 c -19,7 -38,15 -56,22 -160,66 -296,135 -405,209 -114,76 -218,170 -311,282 -6,6 -12,14 -18,21 l 0,1 0,1 0,0 c -96,118 -177,254 -244,406 -65,150 -114,310 -147,480 -28,147 -44,299 -48,454 -83,-49 -183,-56 -275,-10 l 0,1 c -76,38 -143,67 -202,87 -15,5 -28,9 -41,12 -1,-30 -2,-70 -3,-121 -3,-96 -4,-269 -4,-518 l 0,-1812 380,0 c 102,0 193,-54 253,-139 -14,190 95,367 258,408 l 1,-1 862,217 z m 415,-136 c 20,-33 35,-70 46,-111 l -1,-1 c 26,-101 53,-182 83,-245 17,-38 34,-66 51,-86 4,-4 9,-8 13,-13 l 0,0 c 17,-17 40,-31 69,-41 41,-14 92,-21 153,-21 109,0 195,10 259,30 30,10 50,18 60,26 l 3,3 1,0 0,1 c 28,33 44,104 51,212 -47,19 -100,39 -157,59 -161,56 -348,113 -562,169 -10,2 -20,4 -30,7 l 0,1 -39,10 z m 18773,-105 c 0,27 -1,52 -1,76 1,12 1,23 1,35 0,213 -146,386 -327,386 l -874,0 -1,0 c -181,-1 -327,-174 -326,-387 l 1,0 c 1,-161 9,-311 24,-450 15,-143 37,-271 66,-386 1,-7 3,-15 5,-23 l 1,0 c 32,-123 69,-236 112,-339 44,-108 95,-207 154,-299 56,-88 115,-166 175,-235 61,-68 123,-128 187,-179 4,-3 9,-7 13,-11 l 1,0 2,-1 0,0 c 53,-42 110,-80 168,-115 10,-7 19,-13 30,-19 l 0,0 c 66,-38 137,-71 212,-100 67,-25 131,-46 190,-62 66,-18 129,-31 188,-39 43,-6 87,-11 132,-15 8,-1 15,-2 23,-3 l 0,1 0,0 0,0 c 35,-2 72,-4 109,-4 8,-1 17,-1 26,-1 126,0 248,11 366,32 l 2,0 0,2 c 124,22 240,55 347,97 110,42 217,97 322,166 97,63 186,134 267,212 6,6 13,12 19,19 l 0,0 1,1 -1,1 c 92,92 172,193 242,303 64,101 120,212 167,331 5,10 9,21 13,32 l -1,1 c 47,125 83,255 108,390 l 0,-272 c 0,-213 147,-386 328,-386 l 132,0 2,0 0,2 c 89,-1 173,-8 250,-21 67,-11 128,-27 181,-49 53,-21 99,-44 137,-70 27,-18 50,-36 69,-54 4,-6 8,-11 13,-16 l 0,1 c 26,-29 48,-58 65,-87 13,-22 24,-45 33,-69 l 3,-8 0,0 c 13,-36 22,-70 28,-101 4,-22 7,-43 8,-63 l 0,-8 c 0,-213 147,-386 328,-386 l 739,0 c 181,0 328,173 328,386 l 0,5372 c 0,213 -147,386 -328,386 l -898,0 c -181,0 -328,-173 -328,-386 l 0,-3316 -762,0 c -126,0 -235,-83 -290,-205 -4,78 -11,153 -21,226 -18,130 -44,249 -76,357 -33,109 -72,211 -116,307 -43,93 -95,185 -155,275 -54,81 -109,156 -167,226 -63,75 -125,143 -187,203 -58,55 -119,111 -183,165 -55,47 -113,94 -172,139 -5,4 -10,8 -15,12 l 0,-1 -3,3 0,-1 c -78,60 -169,132 -276,218 -29,23 -58,47 -86,70 l 1135,0 c 181,0 328,172 328,385 l 0,937 c 0,213 -147,386 -328,386 l -3110,0 -1,0 c -5,0 -10,0 -16,-1 -181,-10 -320,-191 -311,-404 l 1,0 c 4,-84 7,-153 11,-203 3,-43 8,-100 16,-174 0,-10 0,-20 1,-30 l 1,0 c 7,-72 19,-151 35,-236 16,-84 33,-161 52,-232 22,-83 50,-168 84,-253 33,-83 71,-167 115,-252 46,-88 98,-175 156,-261 56,-83 120,-168 193,-257 68,-82 148,-170 242,-264 80,-80 167,-161 260,-242 9,-9 18,-18 28,-27 l 1,1 c 92,-77 184,-156 275,-235 90,-78 172,-150 246,-217 63,-57 123,-115 181,-174 60,-63 106,-114 139,-155 33,-40 61,-82 86,-125 17,-29 31,-58 43,-86 2,-9 5,-18 8,-26 l 1,0 c 12,-34 22,-71 28,-110 5,-35 9,-71 9,-109 0,-10 -1,-20 -1,-31 0,-32 -1,-58 -3,-77 -3,-17 -6,-34 -10,-51 -2,-7 -4,-14 -6,-21 l 1,0 -1,-5 c -6,-21 -14,-41 -23,-62 -6,-13 -12,-25 -19,-36 -6,-8 -12,-16 -18,-24 l 2,-1 c -8,-12 -19,-24 -32,-36 -16,-14 -32,-26 -50,-36 -15,-8 -33,-15 -55,-20 -21,-5 -44,-8 -69,-10 -5,0 -11,1 -17,1 l 0,-2 -2,0 -2,0 c -43,1 -80,5 -113,11 -18,4 -34,9 -48,15 -5,3 -10,6 -16,9 l 0,0 c -17,9 -32,19 -44,29 -10,9 -18,18 -23,26 -8,12 -15,24 -21,37 -2,5 -4,11 -7,17 l -9,-6 9,6 c -7,15 -12,31 -17,47 l -2,8 0,0 -2,5 0,0 c -8,36 -14,66 -18,92 -4,22 -7,51 -10,88 l 0,5 0,0 0,6 -1,0 c -3,51 -5,92 -6,114 z m 4898,1879 c -31,-282 -46,-585 -46,-906 0,-324 16,-627 47,-910 32,-284 80,-540 145,-767 68,-238 154,-446 258,-626 103,-177 224,-327 362,-449 9,-9 18,-17 27,-25 l 0,1 c 150,-125 317,-218 502,-279 176,-58 370,-87 580,-87 211,0 404,29 579,87 185,62 351,155 498,280 147,126 275,284 383,474 99,176 181,377 246,603 2,8 5,17 7,25 l -1,1 c 62,226 109,481 139,766 27,255 42,533 44,834 42,-23 89,-36 138,-36 l 1798,0 c 49,0 96,12 138,35 2,-297 17,-576 47,-837 31,-284 80,-540 145,-767 67,-238 153,-446 258,-626 102,-177 223,-327 362,-449 8,-9 17,-17 26,-25 l 1,1 c 149,-125 316,-218 501,-279 177,-58 370,-87 581,-87 211,0 403,29 578,87 186,62 352,155 499,280 147,126 274,284 382,474 100,176 182,377 246,603 3,8 6,17 8,25 l -1,1 c 47,172 85,362 114,569 l 0,-725 c 0,-213 147,-386 328,-386 l 132,0 2,0 0,2 c 89,-1 173,-8 251,-21 67,-11 127,-27 180,-49 53,-21 99,-44 138,-70 26,-18 49,-36 68,-54 4,-6 8,-11 13,-16 l 0,1 c 26,-29 48,-58 66,-87 13,-22 23,-45 32,-69 l 3,-8 1,0 c 12,-36 21,-70 27,-101 4,-22 7,-43 9,-63 l 0,-8 c 0,-213 146,-386 327,-386 l 740,0 c 181,0 327,173 327,386 l 0,2779 c 60,-80 148,-130 246,-130 l 1798,0 c 49,0 96,12 138,35 2,-297 17,-576 46,-837 32,-284 81,-540 145,-767 68,-238 154,-446 258,-626 103,-177 224,-327 363,-449 8,-9 17,-17 26,-25 l 1,1 c 149,-125 316,-218 501,-279 177,-58 370,-87 581,-87 211,0 403,29 578,87 186,62 352,155 498,280 148,126 275,284 383,474 100,176 182,377 246,603 3,8 5,17 8,25 l -1,1 c 9,32 17,64 25,97 8,-43 17,-84 27,-124 2,-7 4,-15 6,-23 l 0,0 c 33,-123 70,-236 112,-339 45,-108 96,-207 154,-299 57,-88 115,-166 176,-235 60,-68 122,-128 186,-179 5,-4 9,-7 14,-11 l 0,1 3,-2 0,0 c 66,-52 132,-97 197,-134 67,-38 138,-71 212,-100 68,-25 131,-46 191,-62 66,-18 129,-31 187,-39 43,-6 87,-11 133,-15 7,-1 14,-2 22,-3 l 0,1 0,0 0,0 c 36,-2 72,-4 109,-4 9,-1 18,-1 26,-1 127,0 250,11 368,32 l 1,0 -1,2 c 108,19 214,48 316,86 10,3 21,6 32,10 l 0,1 c 107,41 208,92 304,153 7,3 13,7 19,11 l -1,2 c 97,63 186,134 266,212 7,6 14,12 20,19 l -1,0 1,1 0,1 c 91,92 172,193 241,303 64,101 120,212 167,331 5,10 10,21 14,32 l -1,1 c 51,136 89,277 113,423 22,130 34,270 37,421 1,13 1,26 1,40 l -1,0 c -1,135 -9,262 -26,381 -18,131 -43,250 -76,358 -32,107 -70,208 -113,302 l -3,5 -1,0 c -45,98 -96,189 -153,275 -54,81 -110,157 -167,226 -63,75 -126,143 -188,203 -57,55 -119,111 -182,165 -55,47 -113,93 -172,139 -5,4 -10,8 -15,12 l 0,-1 -4,3 0,-1 c -78,60 -168,131 -275,218 -30,23 -58,47 -87,70 l 1135,0 c 181,0 328,172 328,385 l 0,937 c 0,213 -147,386 -328,386 l -3109,0 -1,0 c -5,0 -11,0 -16,-1 -181,-10 -320,-191 -311,-404 l 1,0 c 3,-84 7,-153 10,-203 3,-43 8,-100 16,-174 0,-10 1,-20 2,-30 l 0,0 c 8,-72 19,-151 35,-236 16,-84 34,-161 53,-232 22,-83 50,-168 83,-253 33,-83 72,-167 116,-252 45,-88 97,-175 156,-261 55,-83 120,-168 192,-257 68,-82 149,-170 243,-264 80,-80 167,-161 260,-242 9,-9 18,-18 28,-27 l 1,1 c 92,-77 184,-156 275,-234 90,-78 172,-151 246,-218 63,-57 123,-115 180,-174 61,-63 107,-114 139,-155 33,-40 62,-82 86,-125 17,-29 32,-58 43,-86 3,-9 5,-18 9,-26 l 0,0 c 13,-34 22,-71 28,-110 6,-35 9,-71 10,-109 -1,-10 -1,-20 -1,-31 0,-32 -1,-58 -4,-77 -2,-17 -5,-34 -9,-51 -2,-7 -4,-14 -6,-21 l 1,0 -1,-5 c -6,-20 -14,-41 -24,-62 -6,-13 -12,-25 -19,-36 -6,-8 -12,-16 -17,-24 l 1,-1 c -8,-12 -19,-24 -32,-36 -15,-14 -32,-26 -49,-36 -15,-8 -34,-15 -55,-20 -22,-5 -45,-8 -69,-10 -6,0 -12,1 -18,1 l 0,-2 -2,0 -1,0 c -43,1 -81,5 -114,11 -18,4 -34,9 -48,15 -5,4 -10,6 -15,9 l -5,-11 0,0 4,11 c -13,7 -24,14 -34,22 l -8,7 -1,0 0,0 -1,-1 c -8,8 -16,17 -22,27 -11,16 -21,34 -29,52 -6,15 -11,31 -17,49 l -1,8 -1,0 -1,5 0,0 c -9,36 -15,66 -19,92 -3,22 -6,51 -9,88 l 0,5 0,0 -1,6 0,0 c -3,51 -5,92 -6,114 -1,27 -1,52 -1,76 0,12 1,23 1,35 0,213 -147,386 -328,386 l -873,0 -1,0 c -42,0 -82,-10 -118,-26 8,159 12,327 12,502 l 1,0 c 0,322 -15,624 -46,907 -30,276 -75,523 -134,741 -2,9 -4,17 -6,25 l 0,0 c -66,236 -152,445 -256,629 -109,191 -237,350 -385,476 -149,127 -316,221 -500,283 -178,60 -372,89 -581,89 -209,0 -403,-29 -581,-89 -185,-62 -351,-156 -499,-283 -148,-126 -276,-285 -386,-476 -100,-177 -183,-379 -248,-607 -3,-7 -5,-14 -7,-22 l 1,0 -1,0 0,0 c -27,-96 -51,-197 -72,-304 -60,86 -151,141 -253,141 l -1798,0 c -98,0 -186,-51 -246,-131 l 0,1236 c 0,213 -146,386 -327,386 l -899,0 c -181,0 -328,-173 -328,-386 l 0,-3316 -762,0 c -143,0 -265,-108 -309,-258 l 6,53 c 29,275 44,577 43,906 l 1,0 c 0,322 -15,624 -46,907 -30,276 -75,523 -134,741 -2,9 -4,17 -6,25 l 0,0 c -66,236 -152,445 -256,629 -109,191 -237,350 -385,476 -149,127 -316,221 -500,283 -178,60 -372,89 -581,89 -209,0 -403,-29 -581,-89 -185,-62 -351,-156 -499,-283 -148,-126 -276,-285 -386,-476 -100,-177 -183,-379 -248,-606 -3,-8 -5,-15 -7,-23 l 1,0 0,0 -1,0 c -27,-96 -51,-197 -72,-304 -60,86 -151,141 -253,141 l -1798,0 c -101,0 -193,-55 -253,-141 -19,98 -40,191 -64,279 -2,9 -4,17 -7,25 l 0,0 c -66,236 -151,445 -256,629 -109,191 -237,350 -384,476 -149,127 -316,221 -501,283 -178,60 -371,89 -581,89 -209,0 -402,-29 -580,-89 -185,-62 -352,-156 -500,-283 -147,-126 -276,-285 -385,-476 -101,-177 -184,-379 -248,-606 -3,-8 -5,-15 -7,-23 l 0,0 0,0 0,0 c -63,-223 -110,-479 -142,-767 z m 1539,-1365 c -5,145 -7,298 -7,459 0,216 4,417 13,602 9,175 22,325 39,452 15,113 36,209 61,286 17,50 34,90 52,118 4,6 9,11 13,17 l -1,0 c 13,18 29,31 48,40 23,11 49,17 80,19 10,-1 20,-2 29,-1 l 0,1 c 41,1 74,-6 102,-19 14,-7 27,-16 38,-28 4,-5 7,-10 11,-15 l 2,0 c 21,-28 41,-72 61,-131 25,-77 46,-173 61,-287 17,-128 30,-279 39,-455 9,-174 13,-362 13,-564 -1,-12 -2,-24 -2,-36 l 1,0 c 1,-161 -1,-314 -6,-458 -5,-143 -12,-272 -22,-388 -9,-105 -21,-201 -36,-288 -12,-68 -26,-127 -41,-177 -3,-8 -7,-17 -10,-27 l 1,0 c -14,-46 -30,-82 -47,-110 -12,-20 -24,-34 -35,-43 -12,-10 -26,-18 -43,-23 -19,-6 -41,-10 -66,-11 -9,1 -18,1 -27,1 l 0,-2 c -33,0 -62,4 -87,12 -13,4 -24,9 -34,16 l -9,8 -1,-1 -2,1 0,0 c -10,9 -22,23 -33,42 -14,24 -28,54 -41,90 -2,8 -4,16 -7,24 l -1,-1 c -18,55 -33,122 -47,201 -14,78 -26,167 -35,265 0,9 0,17 -1,25 l -1,0 0,1 0,0 c -10,116 -17,244 -22,385 z m 5890,0 c -5,145 -8,298 -7,459 -1,216 4,417 13,602 8,175 21,325 38,452 16,113 36,209 61,286 17,50 34,90 52,118 5,6 9,11 13,17 l -1,0 c 13,18 30,31 49,40 22,11 49,17 80,19 9,-1 19,-2 29,-1 l 0,1 c 40,1 74,-6 101,-19 15,-7 27,-16 39,-28 3,-5 7,-10 11,-15 l 1,0 c 21,-28 42,-72 61,-131 26,-77 46,-173 62,-287 17,-128 30,-279 39,-455 8,-174 12,-362 12,-564 -1,-12 -1,-24 -1,-36 l 1,0 c 0,-161 -2,-314 -7,-458 -5,-143 -12,-272 -21,-388 -9,-105 -21,-201 -37,-288 -12,-68 -25,-127 -40,-177 -4,-8 -7,-17 -10,-27 l 1,0 c -15,-46 -31,-82 -48,-110 -12,-20 -23,-34 -34,-43 -12,-10 -27,-18 -43,-23 -20,-6 -42,-10 -66,-11 -9,1 -19,1 -28,1 l 0,-2 c -33,0 -62,4 -86,12 -13,4 -25,9 -35,16 l -9,8 -1,-1 -1,1 0,0 c -11,9 -22,23 -34,42 -14,24 -27,54 -40,90 -2,8 -5,16 -7,24 l -1,-1 c -18,55 -34,122 -48,201 -14,78 -25,167 -34,265 -1,9 -1,17 -2,25 l 0,0 -1,1 0,0 c -9,116 -17,244 -21,385 z m 8572,0 c -4,145 -7,298 -6,459 -1,216 4,417 13,602 8,175 21,325 38,452 16,113 36,209 61,286 17,50 34,90 52,118 5,6 9,11 13,17 l -1,0 c 13,18 29,31 49,40 22,11 49,17 80,19 9,-1 19,-2 29,-1 l 0,1 c 40,1 74,-6 101,-19 15,-7 27,-16 38,-28 4,-5 8,-10 12,-15 l 1,0 c 21,-28 42,-72 61,-131 26,-77 46,-173 61,-287 18,-128 31,-279 40,-455 8,-174 12,-362 12,-564 -1,-12 -1,-24 -1,-36 l 1,0 c 0,-161 -2,-314 -7,-458 -5,-143 -12,-272 -22,-388 -8,-105 -20,-201 -36,-288 -12,-68 -25,-127 -40,-177 -4,-8 -7,-17 -10,-27 l 306,-136 -306,136 c -14,-46 -30,-82 -47,-110 -12,-20 -23,-34 -34,-43 -12,-10 -27,-18 -44,-23 -19,-6 -41,-10 -65,-11 -9,1 -19,1 -28,1 l 0,-2 c -33,0 -62,4 -86,12 -13,4 -25,9 -35,16 l -9,8 -1,-1 -1,1 -1,0 c -10,9 -21,23 -33,42 -14,24 -28,54 -40,90 -2,8 -5,16 -7,24 l -1,-1 c -18,55 -34,122 -48,201 -14,78 -25,167 -34,265 -1,9 -1,17 -2,25 l -1,0 0,1 0,0 c -9,116 -17,244 -22,385 z"
             id="path19"
             style="fill:#fefefe;fill-rule:nonzero" /><path
             class="fil5"
             d="m 56677,5321 c -1,-81 2,-166 7,-257 7,-91 20,-180 42,-268 22,-88 56,-168 104,-240 46,-71 111,-130 193,-173 81,-43 185,-65 310,-66 110,1 205,24 285,69 80,45 144,104 195,178 52,74 90,157 115,246 25,90 36,180 36,271 1,148 -20,281 -64,401 -42,119 -110,236 -201,350 -93,115 -212,239 -358,371 -147,132 -323,286 -530,460 -197,168 -358,330 -487,487 -127,154 -228,304 -304,449 -74,144 -129,284 -166,420 -36,135 -61,267 -74,397 -14,129 -22,256 -28,382 l 3111,0 0,-937 -1982,0 c 35,-81 94,-168 178,-262 84,-92 196,-198 336,-317 140,-120 313,-259 518,-417 116,-88 231,-185 342,-292 112,-108 214,-230 305,-368 92,-137 165,-296 219,-474 54,-179 83,-382 84,-612 -1,-274 -43,-516 -122,-727 -80,-210 -191,-387 -335,-531 -142,-143 -308,-251 -498,-324 -189,-74 -393,-111 -613,-111 -69,-2 -153,5 -252,18 -99,14 -204,43 -316,85 -112,43 -222,105 -331,190 -108,84 -207,195 -296,335 -89,140 -161,313 -215,520 -53,208 -80,458 -82,747 l 874,0 z m 2798,-225 1090,0 0,3702 898,0 0,-5372 -739,0 c -3,102 -23,207 -60,315 -37,108 -97,208 -180,300 -83,94 -195,168 -338,225 -142,57 -322,87 -537,89 l -134,0 0,741 z m 2709,1087 c 0,626 56,1144 171,1552 113,410 288,715 521,914 234,200 529,299 888,299 360,0 655,-99 890,-299 233,-199 406,-504 521,-914 114,-408 170,-926 170,-1552 1,-628 -55,-1146 -167,-1555 -112,-407 -283,-709 -516,-908 -231,-197 -526,-296 -885,-294 -359,-2 -656,97 -892,294 -235,199 -411,501 -527,908 -117,409 -174,927 -174,1555 z m 924,0 c -1,-346 10,-641 30,-883 21,-243 55,-441 105,-592 49,-152 116,-262 201,-332 86,-70 192,-105 320,-104 129,-1 236,34 321,104 85,70 152,180 201,332 50,151 85,349 105,592 20,242 31,537 30,883 2,460 -17,832 -55,1114 -39,282 -105,487 -202,614 -96,129 -229,193 -400,190 -171,3 -303,-61 -399,-190 -96,-127 -164,-332 -202,-614 -38,-282 -56,-654 -55,-1114 z m 4500,277 -1798,0 0,847 1798,0 0,-847 z m 465,-277 c 0,626 57,1144 171,1552 114,410 288,715 522,914 234,200 529,299 888,299 359,0 654,-99 889,-299 234,-199 407,-504 522,-914 113,-408 170,-926 170,-1552 1,-628 -56,-1146 -167,-1555 -113,-407 -284,-709 -516,-908 -232,-197 -526,-296 -885,-294 -359,-2 -657,97 -893,294 -234,199 -411,501 -527,908 -116,409 -174,927 -174,1555 z m 924,0 c -1,-346 10,-641 30,-883 21,-243 55,-441 105,-592 49,-152 116,-262 201,-332 86,-70 192,-105 321,-104 128,-1 236,34 321,104 85,70 152,180 201,332 49,151 85,349 105,592 20,242 31,537 29,883 3,460 -17,832 -55,1114 -38,282 -105,487 -202,614 -95,129 -228,193 -399,190 -171,3 -304,-61 -400,-190 -95,-127 -163,-332 -201,-614 -39,-282 -57,-654 -56,-1114 z m 2824,-1087 1090,0 0,3702 899,0 0,-5372 -740,0 c -3,102 -23,207 -60,315 -36,108 -97,208 -180,300 -83,94 -195,168 -338,225 -142,57 -321,87 -537,89 l -134,0 0,741 z m 4360,1364 -1798,0 0,847 1798,0 0,-847 z m 465,-277 c 0,626 56,1144 171,1552 114,410 288,715 522,914 233,200 529,299 888,299 359,0 654,-99 889,-299 234,-199 407,-504 522,-914 113,-408 170,-926 170,-1552 1,-628 -56,-1146 -167,-1555 -113,-407 -284,-709 -517,-908 -231,-197 -525,-296 -884,-294 -359,-2 -657,97 -893,294 -235,199 -411,501 -527,908 -117,409 -174,927 -174,1555 z m 924,0 c -1,-346 10,-641 30,-883 21,-243 55,-441 105,-592 49,-152 116,-262 201,-332 86,-70 192,-105 321,-104 128,-1 236,34 321,104 85,70 152,180 200,332 50,151 85,349 106,592 20,242 30,537 29,883 2,460 -17,832 -55,1114 -38,282 -105,487 -202,614 -95,129 -228,193 -399,190 -171,3 -304,-61 -400,-190 -95,-127 -163,-332 -201,-614 -39,-282 -57,-654 -56,-1114 z m 3544,-862 c -1,-81 2,-166 8,-257 6,-91 20,-180 41,-268 22,-88 56,-168 104,-240 47,-71 112,-130 194,-173 80,-43 184,-65 310,-66 109,1 205,24 284,69 80,45 145,104 196,178 52,74 89,157 115,246 24,90 36,180 36,271 1,148 -20,281 -64,401 -43,119 -110,236 -202,350 -92,115 -211,239 -358,371 -146,132 -323,286 -530,460 -196,168 -358,330 -486,487 -128,154 -229,304 -304,449 -75,144 -130,284 -166,420 -36,135 -62,267 -74,397 -14,129 -23,256 -28,382 l 3110,0 0,-937 -1982,0 c 35,-81 95,-168 179,-262 84,-92 195,-198 335,-317 141,-120 314,-259 519,-417 116,-88 230,-185 342,-292 111,-108 213,-230 305,-368 91,-137 164,-296 219,-474 54,-179 82,-382 83,-612 -1,-274 -42,-516 -122,-727 -79,-210 -191,-387 -334,-531 -143,-143 -308,-251 -499,-324 -189,-74 -393,-111 -613,-111 -69,-2 -153,5 -251,18 -99,14 -204,43 -317,85 -111,43 -222,105 -330,190 -109,84 -207,195 -297,335 -89,140 -160,313 -214,520 -53,208 -81,458 -82,747 l 873,0 z m -50793,3562 0,-5459 1038,0 0,1926 1214,-1919 1277,0 -1339,1991 1435,3461 -1118,0 -986,-2448 -483,702 0,1746 -1038,0 z M 28464,6265 c -132,61 -343,135 -631,220 -288,86 -475,170 -565,251 -135,135 -203,303 -203,508 0,203 55,377 163,524 108,147 246,221 413,221 188,0 366,-86 536,-256 126,-130 207,-289 246,-478 28,-123 41,-358 41,-703 l 0,-287 z m -1387,-1171 -941,-236 c 105,-528 287,-917 545,-1171 260,-252 643,-380 1152,-380 463,0 807,77 1034,229 225,153 386,346 477,580 92,235 139,664 139,1292 l -11,1684 c 0,478 16,832 50,1060 33,226 96,471 187,731 l -1027,0 c -27,-97 -61,-239 -100,-426 -16,-86 -29,-142 -36,-170 -178,240 -367,419 -568,539 -202,120 -417,179 -647,179 -403,0 -722,-152 -954,-455 -233,-305 -348,-691 -348,-1157 0,-307 52,-582 158,-823 106,-242 255,-426 445,-554 190,-128 466,-240 825,-337 484,-126 820,-245 1007,-354 l 0,-143 c 0,-279 -49,-475 -148,-594 -98,-118 -283,-177 -556,-177 -186,0 -329,51 -433,152 -103,100 -186,277 -250,531 z m -2577,3789 -1037,0 0,-5452 963,0 0,775 c 165,-366 313,-608 444,-724 133,-116 281,-175 449,-175 237,0 463,91 683,273 l -322,1257 c -174,-156 -336,-235 -486,-235 -146,0 -268,54 -369,166 -102,111 -180,312 -238,603 -58,291 -87,901 -87,1828 l 0,1684 z m -1567,-5452 0,1150 -708,0 0,2197 c 0,445 7,705 21,778 13,74 44,133 92,182 47,48 107,72 175,72 97,0 235,-47 418,-138 l 88,1118 c -242,143 -514,215 -820,215 -186,0 -355,-44 -505,-129 -150,-88 -260,-202 -330,-340 -71,-139 -119,-326 -146,-563 -22,-166 -33,-506 -33,-1016 l 0,-2376 -476,0 0,-1150 476,0 0,-176 1040,-841 0,1017 708,0 z m -2701,5452 -1037,0 0,-2783 c 0,-589 -23,-969 -67,-1143 -44,-171 -117,-306 -216,-403 -100,-94 -220,-143 -359,-143 -181,0 -342,68 -484,205 -143,138 -241,319 -294,545 -53,226 -79,643 -79,1253 l 0,2469 -1037,0 0,-5452 962,0 0,801 c 343,-617 774,-925 1293,-925 228,0 439,58 628,172 189,115 332,261 429,439 97,179 165,381 203,607 39,226 58,548 58,969 l 0,3389 z M 14771,6265 c -132,61 -342,135 -631,220 -287,86 -475,170 -564,251 -135,135 -203,303 -203,508 0,203 54,377 162,524 109,147 246,221 414,221 187,0 365,-86 535,-256 126,-130 208,-289 247,-478 28,-123 40,-358 40,-703 l 0,-287 z m -1387,-1171 -941,-236 c 106,-528 287,-917 546,-1171 259,-252 642,-380 1151,-380 464,0 808,77 1034,229 226,153 386,346 478,580 92,235 138,664 138,1292 l -11,1684 c 0,478 17,832 51,1060 32,226 95,471 186,731 l -1027,0 c -26,-97 -60,-239 -99,-426 -17,-86 -29,-142 -37,-170 -178,240 -366,419 -568,539 -202,120 -417,179 -646,179 -404,0 -722,-152 -954,-455 -233,-305 -349,-691 -349,-1157 0,-307 53,-582 159,-823 106,-242 254,-426 444,-554 191,-128 467,-240 826,-337 483,-126 820,-245 1006,-354 l 0,-143 c 0,-279 -49,-475 -147,-594 -98,-118 -284,-177 -557,-177 -185,0 -329,51 -432,152 -103,100 -187,277 -251,531 z m -4824,3789 0,-1125 1469,-2345 c 240,-384 419,-655 534,-816 -120,10 -279,15 -475,19 l -1385,10 0,-1195 3241,0 0,1022 -1498,2402 -528,796 c 287,-25 466,-37 535,-37 l 1605,0 0,1269 -3498,0 z M 7248,5690 c -8,-419 -85,-736 -232,-953 -147,-218 -328,-326 -539,-326 -227,0 -414,115 -561,345 -147,228 -220,540 -218,934 l 1550,0 z m -59,1458 1034,240 c -134,527 -343,929 -630,1204 -286,277 -645,413 -1076,413 -682,0 -1185,-308 -1513,-928 -258,-496 -388,-1124 -388,-1879 0,-904 170,-1612 510,-2124 339,-511 769,-767 1288,-767 583,0 1043,268 1381,804 336,536 497,1356 483,2462 l -2599,0 c 8,428 91,761 251,997 160,238 360,358 598,358 163,0 299,-62 410,-184 111,-125 195,-323 251,-596 z M 1434,6039 c 0,564 65,981 192,1253 180,383 418,574 717,574 228,0 423,-136 584,-408 162,-272 242,-701 242,-1286 0,-622 -82,-1073 -244,-1348 -161,-275 -369,-413 -624,-413 -248,0 -455,135 -620,403 -165,270 -247,676 -247,1225 z m -1029,2844 0,-7526 1037,0 0,2710 c 320,-506 698,-760 1136,-760 478,0 872,242 1186,722 312,480 469,1170 469,2071 0,930 -160,1649 -479,2152 -319,503 -706,753 -1161,753 -224,0 -444,-77 -662,-233 -218,-156 -406,-385 -563,-690 l 0,801 -963,0 z m 48168,0 0,-817 c -144,291 -332,520 -563,689 -234,166 -479,250 -738,250 -263,0 -498,-80 -708,-240 -209,-161 -360,-387 -454,-678 -94,-291 -140,-694 -140,-1207 l 0,-3449 1037,0 0,2504 c 0,768 19,1237 58,1411 37,172 107,308 207,410 101,102 230,151 385,151 177,0 336,-67 476,-202 140,-137 236,-303 287,-503 52,-201 78,-692 78,-1472 l 0,-2299 1037,0 0,5452 -962,0 z m -4382,0 -1037,0 0,-5452 962,0 0,775 c 165,-366 314,-608 445,-724 132,-115 281,-175 448,-175 237,0 464,91 683,273 l -321,1257 c -174,-156 -336,-235 -486,-235 -146,0 -269,54 -369,166 -102,111 -181,312 -238,603 -58,291 -87,901 -87,1828 l 0,1684 z m -2946,0 0,-1442 1037,0 0,1442 -1037,0 z M 39350,6265 c -133,61 -343,135 -632,221 -287,85 -475,170 -564,250 -135,135 -203,303 -203,508 0,204 54,377 163,524 108,147 245,221 413,221 188,0 365,-86 535,-256 126,-130 208,-289 247,-478 28,-123 41,-358 41,-703 l 0,-287 z m -1387,-1171 -942,-236 c 106,-528 288,-917 546,-1171 259,-252 642,-380 1151,-380 464,0 808,77 1035,230 225,152 385,345 477,580 92,234 139,664 139,1291 l -12,1684 c 0,478 17,832 51,1060 33,226 96,471 186,731 l -1026,0 c -27,-97 -61,-239 -100,-426 -16,-86 -29,-142 -37,-170 -177,240 -366,419 -568,540 -201,119 -417,178 -646,178 -403,0 -722,-152 -954,-455 -233,-305 -349,-691 -349,-1157 0,-306 53,-582 159,-823 106,-242 255,-426 445,-554 190,-128 466,-240 825,-336 484,-127 820,-246 1007,-354 l 0,-144 c 0,-279 -50,-475 -148,-594 -98,-117 -283,-177 -557,-177 -185,0 -329,51 -432,152 -103,100 -186,277 -250,531 z m -1521,-1663 0,1150 -708,0 0,2197 c 0,445 7,705 20,778 14,74 45,133 92,182 48,48 107,72 175,72 98,0 236,-47 419,-138 l 88,1118 c -242,143 -514,215 -820,215 -187,0 -355,-44 -505,-129 -150,-88 -260,-202 -330,-340 -71,-139 -119,-326 -147,-563 -21,-166 -32,-506 -32,-1016 l 0,-2376 -477,0 0,-1150 477,0 0,-176 1040,-841 0,1017 708,0 z"
             id="path21"
             style="fill:#000000;fill-rule:nonzero" /></g>
    </g>
</svg>