<?xml version="1.0" encoding="UTF-8" standalone="no"?>
<svg
    xmlns:dc="http://purl.org/dc/elements/1.1/"
    xmlns:cc="http://creativecommons.org/ns#"
    xmlns:rdf="http://www.w3.org/1999/02/22-rdf-syntax-ns#"
    xmlns:svg="http://www.w3.org/2000/svg"
    xmlns="http://www.w3.org/2000/svg"
    version="1.1"
    style="fill-rule:evenodd"
    preserveAspectRatio="none"
    viewBox="0 0 120 32"
    id="events-menu-active">
<defs
    id="events-menu-active_defs" />
<g
    id="events-menu-active_g"
    transform="matrix(3.429678725e-4,0,0,3.315530702e-4,-463.2628695,-307.1497484)">
<path
    d="m 1427182,944194 c -1139,2113 -1567,3841 -1549,6047 208,4572 613,9078 1174,13642 71,-3 1595,11682 1509,11684 152,3118 -359,4938 -772,7898 -165,1620 1245,16270 1245,16270 200,1533 590,2766 1420,4230 192,329 2032,3046 2032,3046 1970,2373 4078,4071 7388,5956 3405,1806 6297,2946 10572,4037 28,6 327,58 327,58 1668,282 3163,476 4887,635 2364,776 5080,990 7795,992 261,-6 517,-11 777,-18 7204,-255 14336,-578 21549,-252 6009,91 18026,274 18026,274 2293,-58 24208,-604 24208,-546 9167,316 19294,1754 28474,2076 5793,0 11538,-33 17329,-146 10625,-371 21303,-1805 31870,-2204 4867,-110 5313,812 11060,1786 9016,1383 9109,1030 17241,1239 3693,216 15938,1086 18722,1804 860,271 2895,210 3875,191 4753,-122 8261,-600 12652,-1534 0,0 3559,-779 3559,-779 5307,-1282 9121,-2630 13411,-4754 -28,-25 1435,-753 1435,-753 3698,-1966 6459,-3661 8950,-6155 -13,-6 934,-1018 870,-1032 1638,-2587 1967,-5440 1661,-8151 -177,-833 -357,-1669 -527,-2502 259,-1387 772,-4163 772,-4163 501,-253 1509,-758 1509,-758 -337,-1245 -1008,-3737 -1008,-3737 -88,505 -268,1515 -268,1514 -501,-378 -1508,-1136 -1508,-1134 491,-2531 589,-2854 1776,-5299 -592,-3800 -1776,-11400 -1776,-11399 -33,-2006 -1605,-21365 -1175,-21333 0,0 127,-683 122,-683 314,-3178 -473,-5720 -2372,-8739 -2100,-2976 -4416,-5044 -8296,-7441 -4062,-2363 -7750,-3860 -13080,-5298 -5692,-1425 -10463,-2086 -16707,-2254 0,2 -4265,-130 -4265,-110 -18866,270 -38843,999 -57731,1658 -7315,445 -7684,450 -7839,456 -7914,192 -16501,92 -24469,92 -4665,-4 -9289,-76 -13933,-92 -5816,213 -11971,1171 -18025,1293 -3116,2 -5677,51 -8793,183 -3333,147 -5879,182 -9230,182 -6910,9 -13817,83 -20727,92 -3654,-14 -7079,-94 -10711,-274 -1073,-30 -3222,-91 -3222,-91 l -6008,729 c -683,4 -7312,-21 -7401,656 6325,1531 12005,2629 18722,3535 5717,286 17155,856 17155,856 -1916,85 -5748,254 -5748,254 -1683,-211 -5052,-637 -5049,-636 -1742,-110 -5227,-329 -5227,-329 5854,696 13797,1437 19856,1239 -1380,465 -4159,1353 -4265,1385 l 1653,-273 c -2091,668 -6272,2005 -6272,2003 -81,69 -261,201 -261,201 1301,285 4007,711 4007,711 -640,98 -1916,291 -1916,291 5760,593 20078,682 20045,674 5404,117 16181,55 16178,55 -607,-212 -1827,-638 -1827,-638 5097,-115 4366,418 6618,492 2362,-96 7054,-437 7054,-437 1281,-170 3483,-947 3483,-947 1508,0 4528,0 4528,0 1480,-340 4441,-1020 4441,-1020 -1073,546 -2338,965 -3831,1020 -203,0 -408,0 -610,0 l -783,201 c 3038,-350 9142,-930 9142,-930 22490,-1964 30987,-3595 55469,-3298 14710,274 25181,223 39792,-489 4095,-190 7226,-3 11177,628 3928,712 6664,1544 9886,2967 0,0 83,38 81,37 1781,641 4925,2212 4925,2211 886,921 1534,1748 2133,2736 0,0 41,71 41,71 -764,815 -554,1866 -218,2721 565,1229 1273,2402 1526,3667 59,356 92,705 16,1061 -390,1970 -236,6492 -236,6386 -334,-757 -1007,-2271 -1005,-2271 -594,-125 -1779,-378 -1779,-378 1521,2523 4563,7568 4563,7568 -450,301 -1716,1095 -2551,1088 -71,229 -703,1897 -736,1892 -623,1872 -542,5491 -537,7521 38,7464 -4004,9886 -4563,17361 -86,3094 -63,6171 7,9266 6,1800 -432,3143 -1594,4827 -1235,1633 -2569,2768 -4766,4066 -33,-11 -1103,591 -1103,591 -1980,976 -3736,1661 -6123,2326 -3105,830 -5694,1221 -9144,1389 -13,-10 -14933,494 -14933,384 0,251 -17243,-273 -17243,-273 -1046,73 -3136,218 -3134,218 -1093,-338 -2024,-302 -3310,-456 -638,48 -1916,147 -1916,146 -871,-36 -2612,-109 -2612,-109 -435,25 -1306,73 -1306,73 -116,224 -349,675 -347,674 172,496 -349,145 -349,145 -1015,-719 -501,-882 -1741,-108 -69,-231 -152,-554 -175,-784 364,-126 99,-113 0,-110 -1258,194 -1435,1660 -2091,1240 -630,-731 54,-1046 -2088,-1240 -605,62 -286,1057 -870,839 -1451,-826 -1511,-1501 -2962,-802 -313,171 -1235,22 -1569,-37 -650,-100 -2062,-69 -2262,311 15,158 359,1019 -175,837 -1068,-576 -815,-929 -2437,-1221 -243,369 -1073,1561 -2005,1349 -1139,-444 -2437,-1585 -2437,-1585 -1045,334 -3136,1002 -3136,1002 -402,-271 -805,-477 -1043,-819 -468,-361 -3110,-387 -3832,35 -377,612 2030,1616 -524,985 -3229,-1257 -3626,-1275 -3657,-1276 -716,-36 -2812,187 -2698,183 -326,14 -4551,456 -4528,309 -2338,-122 -2207,-367 -5052,-273 -263,11 -3135,232 -3133,200 -10493,-101 -21032,-228 -31523,-273 -18147,-369 -28635,-119 -47109,1384 -13599,160 -19949,-103 -23001,-401 l -2471,-46 c -1706,-44 -3303,-213 -4948,-459 -3867,-642 -5894,-1300 -9200,-2469 -20,-7 -217,-81 -217,-81 -2964,-1217 -5105,-2854 -6837,-4621 -1012,-1101 -1662,-2039 -2336,-3206 -531,-928 -701,-1897 -754,-2864 104,-16 61,-16662 -228,-16648 -1098,-6568 -2427,-13027 -3824,-19583 l 43,-17219 c -744,6521 -835,5242 -893,3956 -31,-2514 524,-4319 1870,-6700 28,4 387,-693 387,-693 1524,-2598 3323,-4492 6350,-6678 1069,-731 2898,-1901 4235,-2500 2151,-1102 4133,-1909 6654,-2745 5031,-1590 9250,-2364 15013,-2813 -5889,185 -10212,769 -15568,2105 -4978,1346 -8413,2724 -12219,4928 -3624,2216 -5826,4168 -7806,6932 33,11 -1212,2117 -1212,2117 z m 72249,-6607 -2,0 2,0 z m 52507,2333 -2,0 2,0 z m -90795,73561 c -2010,-197 -2590,-407 -2860,-523 10941,336 8314,440 5704,510 3,44 -1455,33 -2844,13 z"
    id="events-menu-active_path1"
    style="fill:#000000;fill-rule:nonzero" />
    <path
    d="m 1675322,983929 c -1,-2514 -697,-25363 -697,-25363 -60,-1199 -123,-2398 -186,-3597 -147,-2188 -616,-3834 -1745,-5854 -1108,-1874 -2278,-3211 -4149,-4726 -22,10 -2928,-2111 -3060,-1974 -967,-500 -1839,-870 -2898,-1253 -2540,-846 -4533,-1225 -7310,-1337 -6,4 -6088,-231 -5709,-222 -12200,-260 -37747,720 -37510,711 -9496,319 -29196,-1 -29064,0 -1630,67 -4890,202 -4890,202 l -7111,-295 c -7569,184 -15091,448 -22665,200 -6132,-68 -18400,-200 -18399,-200 -2344,42 -24709,444 -24709,402 -9594,-243 -19475,-1287 -29067,-1530 -5902,4 -11785,26 -17687,108 -10849,278 -21703,1325 -32531,1623 -4583,75 -6450,-723 -11291,-1315 -7392,-818 -10602,-788 -17596,-911 -4482,-192 -15255,-608 -19112,-1328 -441,-121 -3956,-142 -3956,-142 -3356,81 -5861,574 -8845,1693 0,0 -3838,1721 -3712,1832 -1172,724 -2074,1348 -3106,2188 -2071,1769 -3359,3342 -4550,5506 -1105,2191 -1603,3948 -1771,6270 18,0 -19,352 -19,352 82,22 -967,8522 -827,8522 105,3743 549,7627 842,11381 -139,1908 -422,5724 -422,5723 -274,347 -824,1041 -824,1041 184,1712 550,5139 550,5137 49,-694 147,-2082 147,-2080 276,519 825,1560 825,1560 -220,2857 -423,4461 -972,7284 1,21 18,247 15,247 162,2514 701,4416 1981,6753 1276,2181 2640,3752 4838,5497 2209,1676 4231,2741 7122,3717 17,-16 1558,449 1558,449 2414,662 4585,889 7170,905 0,0 34998,-399 34998,-399 0,0 54308,1431 54308,1422 19534,-208 39392,-725 58930,-1221 7470,-329 7843,-330 8000,-336 l 24976,-66 c 632,0 14221,66 14221,66 6065,-150 12247,-861 18399,-952 3049,0 5931,-39 8978,-134 l 9422,-134 c 1915,0 21155,-78 21155,-66 3667,6 7272,70 10934,200 1095,22 3288,68 3288,68 l 6132,-537 c 537,-2 7362,32 7556,-483 -3338,-593 -8502,-1288 -12623,-1811 l 12622,0 c 8595,0 15627,-5822 15627,-12938 l 0,-38815 c 0,-6748 -6325,-12333 -14309,-12892 1693,50 3138,305 4866,797 2169,685 3633,1442 5324,2654 1735,1311 2801,2493 3842,4156 1068,1820 1535,3306 1725,5285 -2,0 353,4178 350,4117 386,13267 425,13216 403,13463 17,4292 91,8654 274,12942 191,2753 518,5543 818,8293 138,2158 -77,3952 -908,6017 -3,0 -18,44 -18,44 -853,2030 -1877,3537 -3599,5248 -1829,1715 -3570,2847 -6128,3955 -2790,1119 -5093,1626 -8266,1819 3203,-91 5558,-532 8436,-1560 2708,-1054 4544,-2136 6547,-3832 1938,-1732 3107,-3263 4149,-5365 1005,-2216 1366,-3993 1336,-6326 -1,0 -424,-9868 -423,-9855 z m -243532,22793 -3704,296 c -1866,-68 -5598,-202 -5598,-202 l -227,-94 9529,0 z m -42465,0 -2301,296 c -139,-44 -489,-155 -857,-296 l 3158,0 z m -18485,-1525 c -719,-144 -1428,-342 -2197,-607 2,-8 -323,-119 -321,-119 -1689,-638 -2858,-1328 -4079,-2387 -1326,-1231 -2075,-2329 -2560,-3851 -424,-1612 -323,-2840 6,-4449 608,-3259 780,-6322 844,-9612 l 18,-2281 0,11893 c 0,4924 3367,9228 8289,11413 z m -8289,-31063 c -35,-6388 -147,-12776 -251,-19165 l 275,-2317 c 40,-153 623,-1715 623,-1715 235,-466 475,-886 741,-1285 -890,1623 -1388,3425 -1388,5317 l 0,19165 z"
    id="events-menu-active_path2"
    style="fill:#FFE57F;fill-rule:nonzero" />
    </g>
    </svg>