<?xml version="1.0" encoding="UTF-8" standalone="no"?>
<svg
    xmlns:dc="http://purl.org/dc/elements/1.1/"
    xmlns:cc="http://creativecommons.org/ns#"
    xmlns:rdf="http://www.w3.org/1999/02/22-rdf-syntax-ns#"
    xmlns:svg="http://www.w3.org/2000/svg"
    xmlns="http://www.w3.org/2000/svg"
    version="1.1"
    style="fill-rule:evenodd"
    preserveAspectRatio="none"
    viewBox="0 0 160 60"
    id="pic-bottom-right">
<g
    id="pic-bottom-right_g"
    transform="matrix(3.510237055e-4,0,0,3.431590311e-4,-426.3737366,-309.3647428)">
<path
    id="pic-bottom-right_path"
    d="m 1332387,1044439 c -1875,-351 -6233,-533 -6904,-2560 3201,228 6401,823 9708,823 5090,-1448 10836,-1936 13244,-7209 2621,-2286 2270,2743 1066,2743 -2011,4648 -12695,6035 -17114,6203 z m -24186,4740 c -4846,-1509 -13015,-7224 -1814,-2286 5350,1325 8352,-2805 12680,-2545 1189,-823 884,-930 1920,228 -350,3033 -10409,4557 -12786,4603 z m -26000,0 c -5227,-2926 -13456,-2896 -4312,-8992 15,-183 12634,-3033 -1098,3063 -3246,3079 6035,3505 8352,3277 1219,-381 13411,-9037 10287,-2393 -4618,2576 -8108,4222 -13229,5045 z m 823,-4191 c 884,-4984 5426,-7361 9876,-8520 1646,-1844 2789,-4495 5395,-5440 2347,0 13045,3109 11552,6294 -4023,-427 -7209,-7376 -12512,-4648 -5548,5151 -915,2240 4298,1813 2423,1158 10911,4176 5440,6569 -320,0 -5456,-4847 -5806,-5106 -3444,0 -7163,1677 -9998,3460 -2530,1234 -6446,5349 -8245,5578 z m 101026,-31212 c -1021,-945 2439,-4221 2972,-6020 2225,-1021 11918,-6370 11354,-1646 -4679,518 -8687,1143 -11780,4572 -336,488 -1997,2957 -2546,3094 z m -22860,6934 c 1418,-6385 2896,-8549 9510,-9586 2378,-1661 10074,-3962 10394,823 -5197,473 -15834,1509 -17938,7117 -899,137 -640,1479 -1966,1646 z m -22707,15880 c 2316,-11613 13701,-11689 23744,-11582 2408,6431 -10318,1112 -12832,4343 -5822,1159 -6310,1844 -9708,6569 -396,213 -793,442 -1204,670 z m 9875,11674 c -8016,-960 -8107,-2621 320,-2286 4679,-1356 7438,-2301 8962,-7208 0,-1341 -168,-9739 2804,-4557 -976,9235 -3109,11460 -12086,14051 z m 96744,3109 c -7148,-2042 -14691,-274 -22205,-3749 -6157,-3612 -12359,-6934 -18273,-10759 -5242,-4664 -5730,-4268 -12344,-4664 0,-2347 4892,-30 6005,-2179 853,-8093 7543,-8001 14234,-7757 823,259 6751,4785 2804,5105 -4801,-2987 -7757,-2880 -13167,-274 -3277,7208 1813,7513 7239,11049 1173,-61 5608,-5548 6248,-6843 6462,-3109 9754,-6386 17617,-3292 77,1951 -685,1936 -2468,1738 -5136,-2286 -19538,3901 -17938,10302 9495,5806 5944,-1997 10363,-1997 1174,-5334 15164,-4495 18928,-3383 2043,1128 13015,10363 5548,10897 -4572,-8702 -5151,-9251 -16414,-9251 -5959,2012 -6964,2210 -9631,7391 121,1677 11460,3094 12588,3368 5882,0 35524,3719 36865,-2087 -5516,960 -7879,-3033 -14645,-2652 -8809,1768 2499,-2088 -1981,-3201 0,-2484 -488,-2636 -1448,-4968 -3993,-2362 -10501,-2713 -14874,-3551 -412,-5395 -3887,-3901 -8017,-6172 -4297,-716 -16444,290 -4252,-4420 625,-1204 -30,-975 1616,-868 5075,1890 10698,1158 15788,-732 4831,-3566 3506,-1676 9221,-1630 7178,-580 14356,-3475 21549,-3475 640,289 1905,3566 2972,3566 2545,4709 12618,17435 8915,22113 -8001,4527 -14889,11552 -25039,11552 -5319,686 -10561,716 -15804,823 z m -21062,-44165 c -6507,-3292 -7376,-3948 838,-3384 2043,732 808,3170 -838,3384 z m 4283,8397 c -2393,-1844 426,-10226 1143,-10226 2194,9616 -2439,8199 8366,7208 2607,0 5197,183 7895,183 1173,-305 6233,-5959 5852,-3673 -2682,1707 3277,-1402 3749,-1691 0,472 30,1585 -640,1676 0,1341 15789,-7163 15103,854 -10638,4602 -29520,5394 -41468,5669 z m -27646,3642 c -6050,-670 9937,-2453 10775,-5288 4648,-6630 4237,-2911 -899,-7574 -1875,0 -3551,5029 -4938,5562 2088,-4877 5852,-8473 9175,-12314 8549,-3612 8884,-3215 17861,564 289,351 5684,4191 5441,2804 -7377,-9250 -18700,-8443 -27509,-1402 0,168 -1402,1402 -1768,1600 -3901,5853 -12573,18334 -5410,3201 3231,-4389 5807,-9540 10409,-12604 11979,-640 16719,-381 27006,5807 1996,350 5181,5745 5181,7986 -1813,4282 -8565,3017 -8367,91 3948,-2118 -12847,-8900 -14615,-9327 -3185,625 -11262,3444 -11933,7163 1585,122 9906,3155 7514,4176 -2530,3048 -2043,4694 -5395,6736 -4146,1249 -8321,2591 -12528,2819 z m -39166,15697 c -2591,-1036 6324,-3825 7239,-4130 3870,-3871 13944,-9890 6187,-14417 0,-2377 5075,-426 5898,625 1417,6370 -8062,15301 -14204,16917 -2012,883 -3033,944 -5120,1005 z m -33727,-1280 c 442,-3276 12162,-9174 10760,-3215 -4542,243 -6630,1935 -10760,3215 z m -17434,9678 c 2271,-7818 24018,-9403 22098,-4328 -1280,502 -2637,-564 -3704,-1052 -6126,-366 -12329,2393 -17556,5288 -274,31 -549,61 -838,92 z m -73228,4008 c -2149,-2576 -1890,1356 -2744,-915 -5501,-6827 2210,-320 1722,-4831 -2423,0 -16657,412 -16657,-2362 4328,-6355 7925,-4054 15042,-3932 1737,7407 6203,10912 13777,5609 229,-1646 6523,1783 4511,3794 -5136,488 -10363,2591 -14371,-365 -1814,-199 3581,2301 -1280,3002 z m 217520,29017 c -2179,-930 -13213,-198 -14798,-2103 -1646,0 -13274,-2393 -13670,-1997 -4846,-305 -13213,-564 -17359,-2926 -1158,930 -22311,-1539 -23119,-1829 -3855,-564 -27218,-10530 -27401,-13777 457,-1021 1234,-2042 2073,-2819 11551,-4100 20680,-12314 31120,-18486 1615,-3643 -5106,-5898 -1875,-10485 1509,-778 2987,-1799 4313,-2972 4724,-2637 3383,-13518 -4435,-6569 -3947,1753 4968,564 4968,2515 -5349,137 -10485,9296 -7863,14188 960,4694 1737,3826 -2043,6477 -1798,0 -3017,-8153 -3459,-8305 -793,6446 -11704,9098 -15682,11811 -213,1417 -412,4877 -1402,6309 -6096,3261 -20026,10318 -25329,3734 -1463,-869 -2012,-3063 -3170,-3155 -7208,6066 -15438,1951 -23515,7117 -9144,0 -17130,-6020 -25847,-1265 -10074,1052 -9815,1281 -17435,-5486 -1448,-2240 -7437,-5029 -1981,-3825 1371,1188 914,2712 2057,-457 412,-580 732,-1585 1265,-1784 3201,-4297 12680,-5349 17907,-4876 3688,-1402 3566,1173 2972,-2469 2332,0 2774,-4435 5258,-6294 5547,-961 13121,3505 15590,8534 1982,594 2073,1082 3003,-777 8565,-168 9677,-6142 18105,-7392 1600,-914 5303,-670 7239,-731 1768,-2804 9007,-4191 12664,-4557 10409,-152 3612,46 6005,-5197 228,-6766 2423,-6446 8809,-8671 5455,-595 10287,-839 16123,-549 4649,-3094 10242,-3749 15789,-4023 2972,-2576 10531,-9190 12177,-12497 6416,-3277 22022,-3063 26822,2286 2180,792 5502,7056 7605,6888 747,-2712 14691,823 14859,-2057 -2393,-4877 -6309,-9251 -9677,-12360 -92,-411 -7133,-9342 -7194,-9357 1707,9129 11141,10089 -4937,12497 -6828,0 -13640,-1296 -20559,-1357 289,-3657 9220,-1524 9616,-4755 -716,-1447 -3215,-5791 -1204,-5882 336,2377 19919,-12177 22677,-12543 0,-747 5517,-2408 7239,-2560 0,4237 5258,-3810 5517,-1463 -3977,5456 1814,777 2713,-1265 3734,-1555 -3642,5776 -320,3917 655,-747 4953,-6340 4679,-4100 -9449,11415 137,2545 167,3094 -807,640 -2484,2301 -2712,3292 1066,-138 7742,-5654 2834,-138 -487,183 -2591,2866 -1676,2957 6995,-4862 -945,1539 3779,-549 2210,-304 -1981,2606 -1981,3567 5715,-2454 -533,2164 579,3276 778,-503 1829,-1829 2713,-808 3703,0 472,-17465 -488,-19629 5578,-1326 6660,9083 6660,12604 -1204,5227 -3246,10531 -1646,15865 0,5090 14783,19598 19508,19172 -2378,-3658 -6828,-4908 -4542,-9495 1722,2957 -305,381 2926,503 122,3063 -2210,1204 -2667,2606 8626,229 17176,-1554 25832,-1554 11095,-1418 22784,-1143 33726,-3841 8275,0 44882,-11079 46741,-16688 2957,-2591 12238,-10912 11095,-13868 -625,-11491 -976,-18166 -8961,-25832 -1265,-1905 -7163,-7483 -8885,-6569 -2545,397 -7818,4481 -9388,6203 -1097,0 -2301,-838 -3322,-1143 -153,-686 11308,-10134 11308,-13914 -4603,-4923 -14356,-6279 -20696,-7986 0,-1188 9799,-2377 2027,-2499 -6782,1250 -20620,2164 -3795,5288 564,244 7605,3643 7605,4511 -3643,595 8245,1448 1737,2469 -305,1372 7300,107 4648,2149 -5425,0 1722,-351 412,2012 579,1478 -3582,8275 -5837,7117 -6569,-1448 -9921,-7590 -14981,-11506 -3947,-2683 -8306,-6127 -12665,-7575 0,-3048 3064,-4191 5761,-4648 3551,-4069 19706,-3856 23531,-4206 6172,-3445 17937,213 23363,3657 3871,1890 1828,5091 6416,6752 9418,7604 22784,18593 22784,32034 -1418,1951 -2302,15682 -4527,15682 -2514,8748 -7528,17328 -11643,25786 -2560,2027 -3688,5167 -5959,7163 -3200,-137 2560,-4054 3124,-5745 -2133,457 -4389,3977 -6736,5014 -6980,-1280 -3673,-3003 -548,-6523 3535,-1676 15499,-18654 16245,-21671 2896,-5654 8047,-14448 5929,-20620 -4069,-5807 -6233,-12802 -11476,-17846 -2987,-6371 -14859,-12268 -20361,-15652 -3154,-3612 -19080,-3688 -19080,-2819 6827,945 28179,7818 31989,13685 1905,1723 7803,8352 7696,10623 -2576,701 5517,6340 3261,6614 -4922,-4161 -762,1874 1966,2743 4740,5334 -8336,-5029 -3124,0 1372,2438 3901,3642 5791,5700 305,5349 -7391,-6889 -4465,-686 2774,1661 2133,5410 1173,3063 -2331,-1524 381,1860 473,2423 -4740,-137 -9754,-45 -1326,991 2484,3917 -716,2027 -747,2469 945,1036 -808,6507 -1478,4740 -518,594 -3246,10988 -4115,7300 -4572,10226 -290,-3308 -3779,5486 -2043,3353 -1540,4389 -1067,-366 -2241,838 -1265,6340 -3947,6752 2560,-9891 -366,15 -1814,365 1387,-6248 -3871,3704 -4907,5517 -3323,549 2865,-9159 -1311,-1097 -1798,152 1174,-3871 -2301,1280 -2119,0 -3582,6218 -3749,2682 3139,-6781 -2621,4999 -2957,1646 4603,-7559 -1707,2103 -4526,2743 411,-2682 472,-624 -3124,366 76,-640 45,-899 670,-1097 0,-594 -11521,3459 -11521,1829 -1478,198 -7468,1966 -8062,1371 2042,-2331 -3917,442 -4770,1082 -3825,519 -5852,930 -9220,1921 442,-2027 4739,-2134 -823,-1098 -519,-1585 -15408,4938 -7407,549 0,-2576 -9632,5319 -8382,2195 5669,-1814 -6629,1447 -6919,1463 0,-976 8519,-4771 2637,-3018 -2378,0 -7819,2682 -7819,2652 2530,-3185 -4846,2484 -3794,366 3139,-2820 -5441,1432 -2210,-366 0,-2835 -6035,4084 -5106,366 -5090,1219 -1493,335 -1143,-732 -2712,412 -11795,2774 -5593,4465 10607,7072 21138,0 32736,0 4572,-1706 18440,-76 22372,-3642 1722,0 3353,366 5273,366 13244,-2667 35342,-5715 48052,-1097 8885,1036 7178,6080 11872,11353 0,3658 3520,1890 5075,4618 -3825,838 990,1189 1554,3094 3521,3063 3368,5547 8641,8489 5030,4328 -5166,-3963 -2682,868 5060,3795 -1722,-853 1326,3277 427,152 3231,6949 3201,7666 -3445,426 3322,2987 137,3154 -1814,-777 1173,2058 1310,3185 -3947,-2179 4649,5761 -990,6386 487,1875 -1006,1600 579,3292 46,579 -3124,-320 411,2286 5014,6904 -4054,6614 -5898,2042 -2087,-1707 -2453,-16276 -3398,-20757 -107,-7087 -3993,-16048 -9678,-19842 -213,-1022 -822,-275 -152,1097 884,686 2088,1890 2088,3231 -2286,2499 -3841,-5685 -4328,-7163 -595,-107 -2926,19492 -6447,22220 -4648,5761 -9144,11933 -14066,17434 -4237,3277 -1158,10989 -3018,16109 -5364,3993 -7437,656 -11704,-1234 -7986,-1768 -23561,-183 -32080,-183 -2027,686 -12848,5639 -9876,274 2347,-518 7087,-9845 8794,-12405 9784,-11674 16687,-25878 26700,-36912 1021,-259 5685,-3947 5883,-502 -5609,3505 -7285,12527 -11979,15651 -4069,5685 -8169,10851 -12664,15865 -518,3124 10454,-10577 10744,-10805 2682,-4755 8854,-9556 12421,-14326 1920,-4404 6111,1494 5181,-2743 -6279,-3475 -1813,-7132 1646,-3368 412,777 3566,8214 5105,8214 4070,-4785 10440,-16611 9739,-22951 -1143,-137 -991,4877 -3155,4694 -1752,-701 -26502,-5350 -26502,-2103 5151,243 3947,137 1676,3520 -4648,4526 -10668,11826 -17145,13000 -13944,350 -21427,1874 -35372,-2012 -2210,-1234 -14508,-6111 -14966,-8108 -2209,-167 -17830,-10683 -18562,-12466 -4602,-3505 -9449,-8748 -12680,-13137 -6248,-4892 -11308,-12573 -17465,-17191 -5273,-5471 -6202,-8427 -11445,-1188 -229,2773 2103,-442 3292,1280 518,3673 3124,-3124 3124,3825 960,1646 -427,-1829 1235,-1920 533,625 1310,9159 1447,3520 1570,-305 2027,11476 2256,1875 1676,-1799 335,6614 2088,6614 320,-9586 -747,-2972 1417,3094 2118,0 -1402,-9586 1920,-4603 1966,14234 960,-4846 2469,3643 518,6035 1189,6598 823,365 1981,-2118 1936,14036 2896,4755 2575,503 1158,7651 1646,732 2545,244 2331,15316 2743,3048 2301,0 -274,5242 2377,5654 3673,9266 -746,-1280 1982,-1280 1036,1996 2087,14386 1569,2377 2027,-244 701,4785 1860,4785 -717,-10012 1386,7620 1386,-1082 1265,-1447 717,5106 2058,5106 -1494,-12634 1981,12131 1981,731 1234,518 366,3201 1067,4740 3916,-4465 -1494,-8687 1798,731 1539,-1676 594,-6202 1737,2378 656,0 884,-10302 1814,2911 914,-396 472,-2195 1219,-915 534,6569 1433,-8290 2149,0 -411,7834 457,2180 1768,2332 76,716 1432,5014 1798,5014 2332,-3642 -259,-30 1814,-549 1143,-2179 2514,-13639 3337,-6431 0,9327 -3779,22388 -13563,24552 -2073,1143 -9129,2316 -9541,3551 -10134,3871 -23362,4115 -34061,4115 -1143,243 -10592,61 -12177,-1098 -11353,-1752 -20543,-5700 -31105,-9311 -3733,-1662 -9144,-3460 -12999,-3460 -3033,1692 -18502,8397 -9541,8397 610,808 -3611,1555 2789,823 -106,1250 -3230,2225 366,2134 1036,2896 8413,152 10165,-412 8504,-4495 -548,1098 -2133,2561 914,1051 5105,-1920 6248,-2561 2576,0 -8550,5578 -488,3384 -442,2972 11263,-1951 12543,-1875 0,214 0,427 0,640 -9571,5441 -3917,3826 457,3429 -411,3765 9876,-3474 7757,-503 -7361,4405 4024,-533 -518,2591 549,747 12024,-2606 7026,229 -122,564 8443,-518 9098,-46 -1966,2469 4907,-2286 4450,1006 412,-15 7452,-1692 3780,-366 -122,2149 7239,-1341 8717,274 1676,-198 9754,-975 10866,-2194 3200,-457 7605,884 11506,-183 1448,-1067 11004,-6507 4786,-1814 -8200,4496 2286,168 3779,-91 -472,3322 1768,-457 3642,-229 686,2088 7453,-3337 8703,-3337 335,853 -823,1280 -1204,1692 -244,2194 6705,-5091 6370,-3064 -2271,2530 -4435,5700 747,1555 1630,167 5699,-2164 5715,-2149 -4770,6431 6812,-4100 7406,-3094 -122,198 -5197,5380 -3413,5060 1280,-1402 9083,-7132 9555,-7209 0,1768 -7635,8169 1143,1189 1737,-3475 7224,-3520 -168,2012 2195,0 8916,-7239 9876,-6203 -7391,6965 731,1372 3292,-1280 8808,-5730 -9099,10013 2987,1234 366,-1097 5242,-5440 6233,-5440 213,533 -5989,6507 -6462,7985 3780,336 8992,-8656 12223,-11079 4556,-427 -12954,12542 -5273,8946 2667,-2378 5547,-4526 7681,-7437 2072,-412 -2789,4191 -3125,5197 1875,152 7102,-7118 7209,-6066 -3383,6035 -320,4450 1311,366 4998,-4222 -3292,6614 -3780,8930 -4389,5990 -7498,12680 -11567,18852 -2347,1921 -6843,1143 -9738,2225 -26625,2835 -52258,8291 -78822,8855 z m 189388,-13320 c -838,-625 1585,-13061 1067,-15316 45,-1494 1310,-9815 350,-11263 -1341,-6370 259,-8488 -4938,-13502 -762,-1722 1783,-1174 -1646,-3109 -1950,-2393 3109,1143 -1844,-3551 1250,-2027 -5379,-2652 -2087,-4039 0,-1371 -7529,-3093 167,-2377 0,-884 -7269,-2759 -3779,-2911 0,-1128 -5883,-1920 -1037,-2271 -1143,-747 -5821,-2438 -2088,-2103 0,-1814 -15712,-4282 -8168,-4435 10988,2896 335,-686 -3170,-1646 -5273,168 -1174,-244 -1174,-777 -8244,-1204 -4023,-1021 -1920,-6065 899,-92 2545,-3734 2698,-2165 -6935,12147 2789,-3322 2789,46 -6737,9418 2849,-1143 3489,-3063 3871,-4298 -2667,5547 -2423,5639 1829,-1296 3109,-3826 4603,-5471 2743,0 -4039,4633 -351,2971 7011,-9738 1616,-2545 3947,-2926 564,-853 2225,-3581 3186,-3962 -1921,7391 -259,-366 3078,-46 2957,-4999 -107,2179 2240,-1051 1585,-4572 1326,716 2149,-2043 427,-716 4892,-3962 3216,-1432 594,990 1448,-2545 2469,-2545 350,1950 1600,-2835 2804,-3109 -1555,10454 6355,-11141 2377,-534 -183,4862 2972,-7178 2256,-243 1265,0 2469,-7224 2530,-1418 396,107 2225,-6721 1981,-2179 1204,0 2057,-7742 2134,-1097 2316,0 3246,-9922 3886,-3887 518,0 1006,-6949 1646,-4373 853,0 1524,-8139 1524,-8337 -1936,-4877 -4450,-9753 -8961,-12420 -1220,-2271 -4694,-3003 -5685,-6005 0,-9357 1814,-8321 -3399,-7407 -2606,-213 -19248,2347 -18044,4374 7102,0 -4450,1555 3993,1661 0,1829 -6035,1418 3201,1814 1935,-1097 3581,-518 45,533 -10256,1509 11263,46 -685,2393 -427,991 6370,137 1859,1768 0,1265 2773,-1280 2987,1112 -4054,1128 4084,-563 777,2393 -2575,1052 1722,-503 1631,1555 -1616,457 2911,-122 1326,2255 4861,930 975,-10637 4815,-10546 930,549 1662,1295 2789,1646 2896,3368 10790,14539 8885,18578 -5105,3459 -8778,11079 -14325,13853 -198,2240 -21428,15209 -24521,16413 0,671 -2607,1844 -3323,1966 137,-3886 2743,-6934 3947,-10576 5837,-3399 14631,-4938 19508,-10303 2453,-1249 18516,-14874 10073,-15712 -3414,-1296 -2987,1402 -5456,1250 -4130,-2256 -4038,807 -7025,-3429 -1692,-945 -1661,-2149 -3185,-3140 -2286,-4237 -7529,-4191 -8413,-9723 -1783,-2957 -3063,-5806 -5593,-8032 -1387,-3596 22540,-9037 26060,-9586 6523,0 3612,9023 7483,10958 1936,3536 4435,7971 8397,9678 762,822 6904,12603 4923,13441 61,4435 -213,15271 -2987,19203 -5456,2682 -8672,7391 -14981,9677 -4343,3140 -8961,4648 -13442,7635 -6020,412 -8077,4389 -13030,6736 0,595 777,92 686,1113 -7529,198 2865,4252 4983,7605 4450,4191 9160,6172 12832,12222 8779,5852 8931,34260 6066,42169 -960,5243 -686,6203 -6172,7468 z m -226573,-79934 c -549,-1173 -336,-12527 304,-13411 4816,-1265 2530,-2073 1585,-4999 -1630,-2972 -2880,-4587 -350,-7315 2728,-6020 15636,-10059 21473,-11232 8306,-4740 9357,2225 14585,6629 914,2104 -1997,1509 -3521,2317 -6172,1295 -28483,6934 -30282,14143 -2789,1234 -594,25283 -594,3627 2911,-9160 12725,-10851 20803,-13930 3825,-533 29260,-10089 29870,-3322 -701,366 -1204,640 -1737,31 -12832,792 -24217,9570 -36302,13091 -503,1356 -7605,3337 -9342,5273 0,8549 2834,8107 -6492,9098 z m -200742,64237 c 0,-412 -3734,-823 -1143,-1463 320,1463 1936,-2058 1478,731 1281,-122 3399,-1295 4283,-2270 2316,-945 11613,-2149 10028,2819 -4877,61 -9754,122 -14646,183 z"
    style="fill:#999999" />
</g>
</svg>