<?xml version="1.0" encoding="UTF-8" standalone="no"?>
<svg
    xmlns:dc="http://purl.org/dc/elements/1.1/"
    xmlns:cc="http://creativecommons.org/ns#"
    xmlns:rdf="http://www.w3.org/1999/02/22-rdf-syntax-ns#"
    xmlns:svg="http://www.w3.org/2000/svg"
    xmlns="http://www.w3.org/2000/svg"
    version="1.1"
    style="fill-rule:evenodd"
    preserveAspectRatio="none"
    viewBox="0 0 500 300"
    id="posters-level1-body">
<g
    id="posters-level1-body_g"
    transform="matrix(3.305388755e-4,0,0,3.275547317e-4,-232.6131359,-201.7469891)">
<path
    d="m 713072,726042 c 833,32656 3674,76404 2279,108213 -437,-3824 -1347,-21104 -2525,-22845 -1501,-978 -2359,-19609 -2526,-22845 l -461,-9619 c -13,-12186 357,-26386 -314,-38431 -301,1789 -140,10147 -148,11979 -46,19639 10,39278 184,58916 -24,9283 -152,36609 -369,36072 -207,-1090 -221,-512 -247,0 l -184,3005 c 0,7634 -21,15215 277,22846 489,12450 -308,37273 -308,37273 1057,-2206 50,1814 -93,2405 -12437,154217 2715,448233 2882,609853 14,995 168,1757 542,2678 383,873 794,1488 1457,2173 692,678 1306,1093 2191,1486 920,375 1669,529 2663,549 0,-7 53740,-13 53701,-13 -4895,-39 -10026,12 -14917,-196 9207,-1332 39090,-539 50387,-728 21638,-388 43287,-858 64928,-1078 -1603,-41 -4810,-123 -4810,-123 7415,-10 22244,-31 22244,-31 -1202,-20 -3607,-61 -3607,-61 7415,-31 22244,-93 22244,-93 -14228,-133 -42685,-400 -42684,-400 7013,-41 21041,-123 21041,-123 8252,81 24601,477 25229,492 -7015,-212 -21024,-492 -21021,-492 17394,-25 37489,-582 54107,246 -8216,134 -24649,401 -24649,401 4384,40 8825,-59 6012,123 90,3 -25901,215 -25851,215 -11243,165 -33554,483 -34251,493 62730,-6 188155,-585 188155,-585 3790,-30 40881,-331 40881,-216 151,244 -9675,366 -11423,401 l 596,-31 c -4328,78 -10109,-27 -14401,342 7155,350 16740,-22 24025,-281 4576,-4 2867,-5 1203,-30 9018,-381 27053,-1171 27053,-1171 -32466,174 -97392,924 -97392,924 -1107,-373 7908,-372 10220,-431 -9620,116 -28857,31 -28857,31 6403,-76 19238,-185 19238,-185 5010,0 15030,0 15030,0 6411,-176 19238,-277 19238,-277 -9219,-31 -27655,-92 -27655,-92 9218,-42 27655,-124 27655,-124 1906,-78 9618,-61 9619,-61 9619,-23 28857,-93 28856,-93 9904,-486 30135,-586 30060,-585 15422,-162 46297,-61 46291,-61 -10020,151 -30059,492 -30059,492 -3607,42 -10822,124 -10822,124 4682,11 10860,-200 15510,98 -6973,295 -14489,173 -21521,210 -9419,503 -28256,1509 -28256,1509 4208,0 12625,123 12625,123 -721,188 -2032,305 -3691,375 l 59000,-252 c -23931,400 -47008,584 -70940,493 -21,54 -3690,93 -3607,92 9819,46 29458,154 29458,154 -4726,81 -14093,211 -14419,216 l 19830,-123 c 3851,34 36777,-202 40775,560 -21352,547 -43399,224 -64823,209 28657,147 85970,339 85970,339 7247,-83 77553,-549 77553,-462 0,-107 770119,1571 770119,1571 0,0 166910,318 166911,173 1287,-19 2271,-218 3463,-702 1127,-495 1921,-1028 2806,-1883 871,-890 1414,-1692 1917,-2832 483,-1183 685,-2160 707,-3439 -1711,-649 3401,-892862 3028,-892863 -29,-1739 -286,-3034 -941,-4646 -661,-1499 -1378,-2582 -2521,-3758 -1208,-1173 -2249,-1889 -3792,-2570 -1598,-651 -2908,-924 -4635,-952 -34407,-202 -68813,-416 -103220,-645 4326,-56 12911,-269 13217,-277 -16587,140 -32708,23 -49288,-154 7012,227 21042,370 21042,370 -4008,26 -12024,92 -12024,92 -15252,1265 -40140,186 -56511,185 1402,41 4208,123 4208,123 -71723,157 -162597,-4215 -231644,-160 21251,1396 45044,1290 66318,1731 29368,-90 59551,-675 86571,123 20640,52 61922,154 61922,154 l -16201,62 c 4005,0 11993,92 11992,92 l 49899,-400 c -6273,632 -16727,569 -26452,708 -12024,10 -36072,31 -36071,31 -3019,60 -9877,-55 -12856,331 1095,46 10257,24 7445,162 4409,82 13226,246 13226,246 8216,-134 24649,-400 24649,-400 2202,-7 8715,88 16308,165 l -33743,296 c 11058,-83 29836,-185 40157,-239 6213,45 12548,60 17460,-13 l 63823,160 c 8995,-65 18733,85 27654,-339 3265,-30 44488,-277 44488,-277 0,2 7599,175 7598,175 1394,20 2455,238 3746,762 1220,539 2074,1111 3032,2039 943,964 1526,1829 2071,3063 522,1282 736,2333 762,3718 26,13 -119,21643 -120,21113 -29,-1928 -88,-21071 -84,-21071 -23,-1365 -228,-2402 -745,-3665 -520,-1178 -1090,-2042 -1990,-2963 -941,-915 -1788,-1498 -2991,-2024 -1259,-510 -2296,-730 -3655,-748 -531,25 -66,31 -26,32 1353,16 2392,234 3646,741 1193,527 2013,1079 2953,1985 918,940 1483,1777 2015,2981 509,1246 718,2273 743,3620 22,10 -52,5609 -51,5481 -8,-654 -66,-5440 -65,-5440 -24,-1344 -222,-2355 -732,-3600 -512,-1160 -1070,-2001 -1956,-2910 -931,-905 -1747,-1464 -2938,-1988 -1237,-503 -2253,-714 -3589,-734 -1540,16 -3079,32 -4618,49 -19035,508 -57113,708 -57113,708 -21195,143 -44032,-163 -61922,863 -53,125 1180,219 3109,290 -2096,-21 -1336,-7 -704,-13 -5081,-89 -10666,75 -13827,-277 -5696,-99 -11535,-250 -17226,-210 3916,95 7896,84 11815,117 -3289,34 -33065,185 -33065,185 1224,-90 2561,-158 3976,-206 -11862,126 -34036,114 -34036,114 4002,35 11774,170 12560,184 -1073,-17 -2339,1 -2339,1 -5211,50 -18832,-136 -15030,1170 -9418,23 -28256,92 -28256,92 3207,62 9619,185 9619,185 5088,19 9930,-8 15030,216 1849,13 6474,142 11550,247 -4444,22 -7342,30 -7342,30 567,169 80,258 0,339 6010,62 18036,123 18036,123 -5611,-64 -16834,-185 -16833,-185 3499,-45 7232,-130 11062,-217 5582,83 10817,85 12704,-172 l -1234,-21 -3709,28 2696,-45 c -7560,-124 -15171,-195 -22722,-220 13225,-182 39679,-369 39678,-369 9812,-268 29463,-401 29458,-401 4307,787 4505,796 4227,801 2410,-25 7196,-92 7196,-92 14626,-204 43887,-278 43886,-278 -6978,1622 -37853,739 -51701,863 -7215,-123 -21643,-93 -21643,-93 2805,-51 8417,-154 8416,-154 -4809,-82 -14428,-308 -14428,-308 -3798,79 -8556,143 -13546,196 3387,16 6666,84 9738,233 -7317,390 -15307,321 -22644,434 1193,77 -60,37 -1202,31 -6213,79 -18637,246 -18637,246 -4810,-51 -14429,-154 -14429,-154 4609,-82 13828,-246 13828,-246 -1886,-28 -19727,-272 -19839,-339 -3407,-52 -10221,-154 -10221,-154 1183,-61 3531,-151 3606,-154 -5410,39 -16231,61 -16230,61 1202,411 3607,1232 3607,1232 -8502,-126 -26183,231 -27609,-1004 -9516,150 -19505,226 -27170,-344 3703,-530 12044,-319 16303,-407 -17435,72 -52303,215 -52303,215 1603,52 4809,154 4809,154 -12073,457 -24534,-47 -36672,0 3006,-51 9018,-154 9018,-154 -3684,-387 2876,-701 2404,-677 4209,144 12625,431 12625,431 4409,-82 13227,-246 13226,-246 l 19145,67 c 559,2 33692,377 35213,83 -15507,-163 -31033,-193 -46542,-274 7014,-102 21041,-277 21041,-277 -3987,-82 -12024,-400 -12023,-400 -2992,17 -31864,257 -31863,185 -2716,-297 22303,-592 24047,-616 -12224,-277 -36672,-832 -36672,-832 -4409,41 -13226,123 -13226,123 -832,581 -7257,312 -11423,493 -5210,82 -15631,247 -15630,247 -15431,10 -46292,30 -46292,30 17231,-326 51702,-924 51702,-924 11022,-10 33066,-30 33065,-30 -13848,-313 -27032,-553 -40880,-493 -25450,-719 -76351,-2156 -76351,-2156 -9416,36 -28256,123 -28255,123 -32656,135 -65330,-301 -97993,-92 -20642,146 -61923,1016 -61922,1016 -6615,44 -19840,339 -19840,339 -46263,368 -138898,2187 -138874,2187 17435,52 52304,-308 52303,-308 3873,-55 9619,-124 9619,-124 4565,-102 11151,-453 9018,93 5091,81 16105,-119 27054,-216 21921,-275 43660,-1253 65529,-1386 -2715,437 -8908,414 -14428,555 11337,-151 30134,-356 41668,-480 -12637,154 -31791,495 -29044,1250 0,0 -9619,154 -9618,154 12023,30 36071,92 36071,92 -8617,41 -25852,123 -25851,123 -14782,461 -29377,565 -44121,872 15517,535 32140,276 47728,422 -8414,2 -16841,150 -25250,123 -17233,1 -51702,-154 -51702,-154 -2075,-308 17335,-360 19238,-370 13572,-363 27378,-485 40908,-1094 -1225,-245 -20000,215 -21069,232 3986,138 3722,149 3607,154 -12024,25 -36071,154 -36071,154 -4074,35 -12724,460 -9619,-62 -26825,2 -53135,432 -79958,893 5014,-24 57113,85 57113,93 3935,-28 7906,-166 5410,31 1203,0 3608,0 3607,0 -4408,30 -13226,92 -13226,92 -4609,21 -13827,62 -13827,62 -44889,279 -134665,862 -134665,862 -2543,424 -8702,232 -13827,216 -4609,51 -13828,154 -13828,154 11423,112 34268,338 34268,338 -7014,31 -21042,93 -21042,93 -8437,-45 -25132,-474 -25826,-492 7214,241 21623,523 21618,522 -13226,36 -39678,-30 -39678,-30 -8011,866 -21439,526 -30059,646 -15431,21 -46292,62 -46292,62 6213,-113 18637,-339 18637,-339 9867,83 19740,189 29607,232 -147,-56 -23313,-267 -26000,-293 13196,-178 28100,282 39678,-524 l 24637,-431 c -1807,-1 -5399,-62 -5399,-62 4282,-705 16670,-142 23447,-246 -708,-72 432,-34 601,-31 l 22262,-526 c 12555,-297 25364,-485 37921,-1019 -23104,-600 -49305,777 -72808,1114 -12420,-99 -25392,-446 -37791,-229 5846,570 15930,256 22160,321 4409,11 13226,31 13226,31 -14228,82 -42684,247 -42684,247 -1623,0 -7815,30 -7815,30 -15831,56 -47494,124 -47494,124 -15030,317 -45089,770 -45089,770 -9218,41 -27654,123 -27654,123 18236,41 54708,123 54708,123 l -9001,61 1185,0 c -6413,31 -19238,93 -19238,93 -3391,22 -9802,29 -11164,31 l 944,0 c -21442,99 -64327,154 -64327,154 -2573,623 -32801,764 -43542,862 l 251,-31 c -10617,-26 -21240,17 -31857,31 23645,-375 70940,-893 70940,-893 -3157,-2 -7175,135 -2405,-185 10220,-205 30661,-616 30661,-616 779,3 54163,154 54167,150 -15645,-159 -31307,-193 -46953,-273 3003,-47 11556,64 14307,-411 -7940,-766 -24664,168 -32944,319 1203,0 3607,0 3607,0 l -4773,30 c 613,2 1767,31 1767,31 -11952,138 -25506,-43 -31862,739 -3006,11 -9018,31 -9018,31 801,20 2405,31 2405,31 -33268,364 -99797,1632 -99797,1632 -2893,29 -42198,583 -42684,-493 -699,-16 -12563,-211 -17435,-616 -27453,510 -82367,1818 -82362,1817 l 115150,1752 -98207,0 c -19718,-695 -38691,-1429 -54216,-1690 -174,864 3138,1726 7690,2498 -5893,2025 -10157,7635 -10157,14192 l 0,33677 c -1580,-14825 -5090,-48171 -4971,-48177 6,-800 121,-1398 416,-2142 308,-710 625,-1193 1159,-1753 549,-541 1035,-877 1739,-1194 748,-311 1346,-439 2157,-458 -800,11 -1406,136 -2148,434 -711,310 -1213,649 -1770,1189 -534,549 -870,1045 -1180,1746 -308,749 -432,1359 -445,2169 -3,1 89,17512 88,17259 l 123,78755 z m 1074797,-96505 c 20059,-264 38908,-516 41872,-595 -5539,228 -11168,424 -16865,595 l -25007,0 z m 417112,70709 c 29,-13234 19,-29147 0,-42475 l 0,-13234 c 0,-289 -10,-575 -26,-860 -17,-8245 -33,-13638 -33,-13638 -3,-65 -9,-112 -35,-173 -23,-54 -52,-97 -93,-140 -47,-44 -82,-70 -141,-96 -56,-23 -110,-34 -171,-35 -3070,-6 -7364,75 -12029,149 -804,-135 -1631,-207 -2472,-207 l -21040,0 c -642,-49 -1242,-104 -1791,-167 11579,-696 25637,-324 37329,-410 153,0 279,26 421,83 131,56 240,128 342,228 104,105 175,208 234,344 60,144 84,262 88,418 208,30471 366,60944 522,91416 -70,592 -74,-232 -93,-602 l -1012,37456 0,-58057 z m 0,82152 c 203,26460 528,71316 704,71312 1395,72748 -31,148200 -704,223109 l 0,-294421 z m 0,304521 c 198,13447 427,30713 427,30713 1,-6413 31,-19238 31,-19238 l 495,35415 c 1054,75353 509,148049 -341,223096 -72,-13828 -216,-41482 -216,-41482 88,-13542 284,-27158 258,-40692 -147,10952 -197,21923 -288,32876 -73,-18997 -228,-38128 -93,-57113 1,-10621 -61,-31863 -61,-31863 -52,-10220 -154,-30660 -154,-30660 -15,-282 -36,-643 -58,-1017 l 0,-19994 396,24017 c 28,5411 31,16232 31,16232 278,-22568 454,-44739 -61,-67333 37,5167 247,11059 30,16212 -207,-1615 -328,-3851 -396,-6334 l 0,-62835 z m 0,354208 58,6557 c 5,8154 423,18071 0,25851 l -58,-1127 0,-31281 z m 0,52541 58,308 c 73,1526 305,2733 616,4208 -182,5612 -374,11223 -585,16833 8,488 157,7849 157,7849 0,111 -15,189 -54,292 -42,97 -84,166 -158,242 -71,73 -144,126 -238,167 -98,44 -189,63 -296,66 -1917,234 -781,202 -1,218 43,2 10,2 1,2 -1727,17 -3466,2 -5193,2 -12117,-232 -29915,-388 -45405,-489 l 36098,0 c 15192,0 15000,3831 15000,-15000 l 0,-14698 z m -84399,29698 c -2172,115 -6680,142 -7264,150 6212,78 4892,90 4810,92 -1203,21 -3608,62 -3607,62 -2807,29 -8417,92 -8417,92 749,157 -458,323 -593,339 3960,-151 9070,-271 14327,-366 4346,123 8968,26 13319,27 -10018,220 -30059,524 -30059,524 -6016,-104 -11949,-523 -18035,-554 200,0 601,0 601,0 -802,-31 -2405,-93 -2405,-93 -10020,97 -30059,339 -30059,339 2805,31 8416,92 8416,92 -4609,11 -13827,31 -13827,31 -6012,25 -18036,62 -18036,62 5010,57 15030,185 15030,185 -12389,153 -28142,875 -40200,248 7387,-377 15361,-319 22766,-433 -1932,-11 -16201,60 -16691,-122 7850,-503 16622,-436 24506,-586 l -355,-89 85773,0 z m -277026,0 c -5836,145 -11678,296 -17605,396 l 2367,0 c -412,3 -1164,31 -1164,31 -7117,22 -5632,7 -4208,-31 -41448,-295 -81537,1267 -122642,1417 3406,0 10220,0 10220,0 -4209,54 -12625,185 -12625,185 -401,-21 -1203,-62 -1202,-62 -6903,23 -20606,150 -21032,154 l 15621,0 c 2605,-10 7815,-30 7815,-30 20040,-94 60119,-216 60119,-216 34677,-430 69320,-951 104005,-1263 l -7811,154 597,0 -17426,277 593,0 c -3551,46 -10597,151 -10817,154 l 1198,0 c -5354,84 -25724,-171 -30503,658 3454,270 8334,68 11866,51 -33,-326 4393,-132 13226,-123 14630,-178 43887,-770 43886,-770 28857,-124 86571,-370 86571,-370 -12224,205 -36672,616 -36672,616 -17032,106 -51101,-123 -51101,-123 14628,123 43887,246 43887,246 -6234,107 -16014,-68 -22291,484 25818,443 52273,-318 78201,-299 -37430,2461 -92498,466 -137672,739 -18596,219 -36776,49 -55309,0 -2581,30 -32465,315 -32464,185 -3319,-136 -2500,-151 -2404,-154 -10421,-21 -31262,-62 -31262,-62 -6011,116 -18036,247 -18036,247 -1538,-57 -751,-85 -601,-93 2205,-61 6613,-184 6613,-184 -3607,-11 -10821,-31 -10821,-31 -18035,273 -54107,677 -54107,677 1222,392 245,467 0,493 15832,-151 47494,-524 47494,-524 l -5398,124 27041,-216 c -9419,154 -28256,462 -28256,462 l -16796,123 c 6825,-14 20403,62 20403,62 -34517,3198 -86233,1538 -122041,1663 -3497,-198 36144,-793 40280,-862 8781,-626 19585,-671 29458,-832 -2205,-72 -6613,-216 -6613,-216 -8117,153 -19514,798 -27377,344 5894,-527 13596,-440 19561,-590 -1803,-61 -5411,-185 -5410,-185 7009,-170 21041,-123 21041,-123 2762,-56 8242,-151 8413,-154 l -9014,0 10143,-31 c -1427,-1 -4131,-31 -4131,-31 3206,-36 9619,-61 9619,-61 4809,-134 14428,-370 14428,-370 12024,-143 36072,-431 36071,-431 -1202,-41 -3607,-123 -3607,-123 -1924,47 -1843,55 -1803,62 -4615,-76 -3209,-47 -2405,-62 1403,-11 4208,-31 4208,-31 -21642,-185 -64928,-554 -64928,-554 -18036,135 -54107,277 -54106,277 -4115,6 -52304,-180 -52304,-123 -20717,111 -84220,2610 -103710,166 13006,-840 26845,-504 39984,-936 310,-94 160,-145 -260,-181 l 98101,0 c -3571,65 -7130,134 -10668,212 12023,-94 36071,-185 36071,-185 l 976,-27 268525,0 z m -1125652,-27690 -801,27188 c 0,186 28,337 97,509 74,173 144,280 272,417 137,135 242,208 416,289 178,75 317,105 510,111 2060,61 4120,126 6181,188 -515,-10 -6175,-121 -6175,-121 -206,-5 -350,-36 -541,-114 -180,-82 -296,-161 -437,-299 -136,-145 -214,-259 -293,-441 -73,-186 -104,-336 -105,-537 -49,-33 765,-38965 787,-39951 22,-6756 53,-14598 89,-22999 l 0,35760 z m 0,-340179 c -71,-10440 -120,-20649 -120,-20649 -677,39478 -2032,118434 -2032,118434 165,-13206 175,-26471 184,-39679 -152,7180 -178,14668 -509,21835 -104,-10908 302,-22298 479,-33257 -41,-8617 -124,-25851 -124,-25851 360,-17434 1078,-52303 1078,-52303 -725,3560 -823,1295 -862,601 287,-8216 862,-24649 862,-24648 143,5609 154,16833 154,16833 226,-10822 678,-32464 678,-32464 51,-20641 154,-61923 154,-61923 19,4311 39,9797 58,15497 l 0,117574 z m 194224,371899 21,1 -21,-1 z m -45653,986 -16,0 16,0 z m 218209,-431 5,0 -5,0 z m 23969,837 c -3119,131 -7474,94 -11477,49 l 11477,-49 z m -11477,49 c -2673,-30 -5190,-64 -7076,-55 l -1800,93 8876,-38 z m -8876,38 -4,0 4,0 z m 19845,616 -10,0 10,0 z m 1006364,-912300 9,0 -9,0 z m -125607,2526 -31,0 31,0 z m 79981,645 c 131,-16 254,-32 361,-49 -13562,-30 -27133,22 -40695,50 31459,-484 94386,-1139 94386,-1139 -11732,1513 -35840,942 -54052,1138 z m 34478,2608 c -3794,-47 -17699,-235 -17699,-235 m -50732,-422 277,-9 556,0 -833,9 z m 277,-9 c 5805,-190 12899,-91 19193,-124 400,-20 1202,-30 1202,-30 -5158,-100 -19839,-247 -19839,-247 -7455,17 -15937,343 -19238,-61 5612,-51 16834,-93 16833,-93 -11664,-233 -23194,-464 -34868,-431 -3805,28 -41482,300 -41482,216 10048,-665 23299,-392 35470,-586 -8929,-172 -16921,-166 -25851,-30 1791,62 -2204,31 -2405,30 -6212,80 -18637,247 -18637,247 -4809,-51 -14428,-154 -14428,-154 4810,-82 14429,-247 14428,-246 6405,-25 19013,114 19801,122 -5624,-71 -16795,-184 -16795,-184 6814,-87 20441,-216 20441,-216 -17791,-135 -35702,311 -53506,431 -2216,-29 -31821,-564 -32824,650 2264,607 9366,484 11783,490 9819,-11 29458,-31 29458,-31 -9373,80 -18750,-19 -28110,64 4081,137 8391,87 12479,121 -3364,135 2586,11 8417,-62 33929,432 68230,119 102201,124 l 16277,0 z m -69821,-1387 1,0 38,1 m 54996,3501 -1013,-17 c 2977,-44 5938,-69 8821,-55 -2574,27 -5210,51 -7808,72 z m 49628,-206 -18,0 18,0 z m -101620,31 2,0 -2,0 z m -40232,289 c -17,-14 -34,-28 -46,-43 1731,-14 3995,-36 6299,-61 -2041,34 -4135,71 -6253,104 z m 6253,-104 c 5045,-55 10281,-121 10525,-124 -3196,6 -6769,60 -10525,124 z m 10525,-124 9,0 -9,0 z m -697942,371 -25,-1 25,1 z m -7852,-155 12,0 -12,0 z m -121410,831 -17,0 17,0 z m -29217,124 -258,0 258,0 z m -133029,1242 -39168,328 c 9418,-154 28256,-462 28256,-462 2059,-5 6144,65 10912,134 z m 81105,-2105 -36,0 36,0 z m 1068881,899488 -8,0 8,0 z m 25221,-529 c 8665,-107 15652,-148 15651,-148 -5201,95 -10432,107 -15651,148 z m -455067,1884 -10,0 10,0 z m 15621,0 1202,0 c -401,0 -1202,0 -1202,0 z m 164128,-1355 -4,0 4,0 z m -16829,277 -9,0 9,0 z m -10224,154 -5,0 5,0 z m -155699,1787 -13,0 13,0 z m -18011,369 -37,0 37,0 z m -22285,-893 4,0 -4,0 z m 1129,-31 77,0 -77,0 z m -915680,-42849 0,19 0,-19 z"
    id="posters-level1-body_path"
    style="fill:#999999;fill-rule:nonzero" />
</g>
</svg>