<?xml version="1.0" encoding="UTF-8" standalone="no"?>
<svg
    xmlns="http://www.w3.org/2000/svg"
    version="1.1"
    id="pdf_icon"
    x="0px"
    y="0px"
    viewBox="0 0 14 14"
    xml:space="preserve"
    width="14"
    height="14">
    <path
       style="fill:#e2e5e7"
       d="M 3.425,0 C 2.94375,0 2.55,0.39375 2.55,0.875 l 0,12.25 C 2.55,13.60625 2.94375,14 3.425,14 l 8.75,0 c 0.48125,0 0.875,-0.39375 0.875,-0.875 L 13.05,3.5 9.55,0 3.425,0 Z"
       id="path3"/>
    <path
       style="fill:#b0b7bd"
       d="m 10.425,3.5 2.625,0 -3.5,-3.5 0,2.625 c 0,0.48125 0.39375,0.875 0.875,0.875 z"
       id="path5" />
    <polygon
       style="fill:#cad1d8"
       points="480,128 480,224 384,128 "
       id="polygon7"
       transform="matrix(0.02734375,0,0,0.02734375,-0.075,0)" />
    <path
       style="fill:#f15642"
       d="m 11.3,11.375 c 0,0.240625 -0.196875,0.4375 -0.4375,0.4375 l -9.625,0 C 0.996875,11.8125 0.8,11.615625 0.8,11.375 L 0.8,7 C 0.8,6.759375 0.996875,6.5625 1.2375,6.5625 l 9.625,0 C 11.103125,6.5625 11.3,6.759375 11.3,7 l 0,4.375 z"
       id="path9" />
    <g
       id="g11"
       transform="matrix(0.02734375,0,0,0.02734375,-0.075,0)">
        <path
            style="fill:#ffffff"
            d="m 101.744,303.152 c 0,-4.224 3.328,-8.832 8.688,-8.832 l 29.552,0 c 16.64,0 31.616,11.136 31.616,32.48 0,20.224 -14.976,31.488 -31.616,31.488 l -21.36,0 0,16.896 c 0,5.632 -3.584,8.816 -8.192,8.816 -4.224,0 -8.688,-3.184 -8.688,-8.816 l 0,-72.032 z m 16.88,7.28 0,31.872 21.36,0 c 8.576,0 15.36,-7.568 15.36,-15.504 0,-8.944 -6.784,-16.368 -15.36,-16.368 l -21.36,0 z"
            id="path13" />
        <path
            style="fill:#ffffff"
            d="m 196.656,384 c -4.224,0 -8.832,-2.304 -8.832,-7.92 l 0,-72.672 c 0,-4.592 4.608,-7.936 8.832,-7.936 l 29.296,0 c 58.464,0 57.184,88.528 1.152,88.528 l -30.448,0 z m 8.064,-72.912 0,57.312 21.232,0 c 34.544,0 36.08,-57.312 0,-57.312 l -21.232,0 z"
            id="path15" />
        <path
            style="fill:#ffffff"
            d="m 303.872,312.112 0,20.336 32.624,0 c 4.608,0 9.216,4.608 9.216,9.072 0,4.224 -4.608,7.68 -9.216,7.68 l -32.624,0 0,26.864 c 0,4.48 -3.184,7.92 -7.664,7.92 -5.632,0 -9.072,-3.44 -9.072,-7.92 l 0,-72.672 c 0,-4.592 3.456,-7.936 9.072,-7.936 l 44.912,0 c 5.632,0 8.96,3.344 8.96,7.936 0,4.096 -3.328,8.704 -8.96,8.704 l -37.248,0 0,0.016 z"
            id="path17" />
    </g>
    <path
       style="fill:#cad1d8"
       d="m 10.8625,11.8125 -8.3125,0 0,0.4375 8.3125,0 c 0.240625,0 0.4375,-0.196875 0.4375,-0.4375 l 0,-0.4375 c 0,0.240625 -0.196875,0.4375 -0.4375,0.4375 z"
       id="path19" />
</svg>
