<?xml version="1.0" encoding="UTF-8" standalone="no"?>
<svg
    xmlns:dc="http://purl.org/dc/elements/1.1/"
    xmlns:cc="http://creativecommons.org/ns#"
    xmlns:rdf="http://www.w3.org/1999/02/22-rdf-syntax-ns#"
    xmlns:svg="http://www.w3.org/2000/svg"
    xmlns="http://www.w3.org/2000/svg"
    xml:space="preserve"
    version="1.1"
    style="fill-rule:evenodd"
    viewBox="0 0 200 60"
    preserveAspectRatio="none"
    id="posters-level2-special"
    width="100%"
    height="100%">
    <path
        d="M 1.206113267,8.658237706 C 1.29301282,10.94005266 1.68165906,14.66726368 1.440611055,16.84325033 1.375545561,16.55825506 1.234060862,15.22843422 1.060698438,15.11517879 0.822707201,15.04323442 0.703929922,13.63914729 0.680785821,13.38757249 l -0.06288209,-0.72780412 c 0.01266375,-0.88608329 0.08602619,-2.03905874 -0.0034934,-2.90703927 -0.03275109,0.08772626 -0.03624454,0.81785124 -0.03842794,0.90650585 -0.03144104,1.48485044 -0.04890829,2.97109375 -0.04323144,4.45594384 -0.01572052,0.72362727 -0.07292575,2.78821447 -0.104366799,2.72880172 -0.03187773,-0.0840129 -0.03493449,-0.0375966 -0.03973799,0 l -0.03362445,0.22697468 c -0.0091703,0.57880912 -0.02227074,1.15019076 0.01659389,1.72807118 0.05502183,1.00908565 -0.0742358,1.84736016 -0.09606986,2.81931266 0.136681207,-0.0984019 0.02838428,0.0946888 -0.01790393,0.18195129 C 0.1032455076,30.21288826 0.0864628715,51.45108179 0,59.11298537 c 4.366811694e-4,0.10025823 0.0244541455,0.17730885 0.082532741,0.27014137 0.0602620014,0.0877263 0.1244541333,0.148995 0.2292576139,0.21815539 0.1091702923,0.0682317 0.2074235556,0.11047004 0.3484715732,0.1499237 0.1475982352,0.0380615 0.2668121941,0.0533789 0.4270741829,0.0552352 7.365937962,-0.0102114 15.838426009,-0.0153174 23.204363969,-0.0157815 -0.58122263,-0.003713 -1.21397364,9.287e-4 -1.7947596,-0.0199584 0.70174664,-0.0849416 5.01484655,-0.0589489 6.0641914,-0.0738018 2.60436649,-0.039454 5.2104797,-0.0872621 7.81484619,-0.10954204 -0.19301308,-0.004178 -0.57860255,-0.012532 -0.57860255,-0.012532 0.89213965,-9.287e-4 2.67641888,-0.00325 2.67641888,-0.00325 -0.14454145,-0.001856 -0.43362439,-0.006034 -0.43362439,-0.006034 0.89213962,-0.003249 2.67641889,-0.009747 2.67641889,-0.009747 -1.71179019,-0.0134607 -5.13537056,-0.040382 -5.13537056,-0.040382 0.8441047,-0.004177 2.53231411,-0.0125323 2.53231411,-0.0125323 1.00917019,0.0106756 2.03231416,0.0492013 3.03755422,0.0501293 -0.84279467,-0.0218154 -2.53187743,-0.0501293 -2.53144075,-0.0501293 2.01877706,-0.002321 4.61397324,-0.0552348 6.51047956,0.025065 -0.98908283,0.0134603 -2.96681188,0.0403817 -2.96681188,0.0403817 0.52620083,0.004178 1.0650654,-0.005569 0.72314403,0.0125327 0.019214,9.2799e-4 -3.12183369,0.0218154 -3.11091665,0.0222796 -1.3746723,0.0167099 -4.12401698,0.0496651 -4.12401698,0.0496651 7.54759735,-4.6417e-4 22.64322872,-0.0594124 22.64322872,-0.0594124 0.45589513,-0.002785 4.91965002,-0.0334198 4.91965002,-0.0218161 0.0550218,0.0162461 -1.19301298,0.0375973 -1.37510898,0.0408462 l 0.0720524,-0.003249 c -0.47903924,0.007427 -1.26113518,4.6453e-4 -1.7340609,0.0348123 0.78820949,0.0329552 2.07598226,-0.004178 2.8917027,-0.028778 0.55152832,0 0.34410475,-4.6417e-4 0.14454145,-0.002785 1.08602608,-0.0389888 3.25720482,-0.11928862 3.25720482,-0.11928862 -3.90698638,0.0181024 -11.72052259,0.0942243 -11.72052259,0.0942243 -0.22270737,-0.0232083 1.02751084,-0.0394537 1.23056756,-0.0440954 -1.15764177,0.0120681 -3.47248867,0.003249 -3.47248867,0.003249 0.76986891,-0.007426 2.31528358,-0.0185662 2.31528358,-0.0185662 0.60262004,0 1.80829672,0 1.80829672,0 0.77205233,-0.0181021 2.31528358,-0.0283139 2.31528358,-0.0283139 -1.10917022,-0.003249 -3.32707384,-0.009283 -3.32707384,-0.009283 1.10917015,-0.004178 3.32751051,-0.0125323 3.32751051,-0.0125323 0.22925764,-0.007891 1.15764177,-0.006498 1.15764177,-0.006498 1.15764178,-0.002321 3.47248868,-0.009283 3.47248868,-0.009283 1.18864613,-0.0394537 2.42445385,-0.0450237 3.61790347,-0.0594124 1.85545828,-0.0167099 5.571615,-0.006498 5.57030501,-0.006498 -1.2061134,0.0157815 -3.61790351,0.0501296 -3.61790351,0.0501296 -0.43406107,0.004177 -1.30218322,0.012532 -1.30218322,0.012532 0.52096059,9.2799e-4 1.35109152,-0.0176382 1.86593863,0.0102115 -0.81921389,0.0292418 -1.75807842,0.0181024 -2.58995602,0.0213513 -1.13406103,0.0510576 -3.40218301,0.15317326 -3.40218301,0.15317326 0.5061135,0 1.51877714,0.0125323 1.51877714,0.0125323 -0.0838428,0.026921 -0.48471611,0.0371328 -0.96157195,0.0399182 l 7.61659294,-0.0273862 c -2.90698651,0.0408462 -5.63013031,0.0594128 -8.53711686,0.05013 -0.002183,0.00557 -0.44017461,0.009283 -0.43406109,0.009283 1.18165926,0.004642 3.54454107,0.0157815 3.54454107,0.0157815 -0.56724883,0.008355 -1.68995611,0.0213516 -1.73493429,0.0218158 l 2.38558924,-0.0125323 c 0.22270737,0.001856 4.64366754,0.0148528 4.90567621,0.0570919 -2.54585121,0.0552345 -5.23973732,0.0227434 -7.80043569,0.0213509 3.44803454,0.0148535 10.34410355,0.0343481 10.34410355,0.0343481 0.87205229,-0.008355 9.33274993,-0.055699 9.33274993,-0.0468801 0,-0.0111402 92.66461742,0.15967098 92.66461742,0.15967098 0,0 21.4113512,0.0320269 21.4117878,0.0176386 0.2008734,-0.001857 0.3554585,-0.0213516 0.5427947,-0.0686962 0.1812227,-0.0492009 0.3091702,-0.10257944 0.451965,-0.18844936 0.1371179,-0.0872624 0.2222707,-0.16477689 0.3039301,-0.2766398 0.080786,-0.11975315 0.1144105,-0.21769086 0.1200873,-0.34719235 -0.074236,-0.0167099 0.5882096,-14.32307486 0.6052401,-28.68792426 0.00393,-3.23241619 -0.4668121,-6.46854542 -0.5131003,-9.54500366 -0.1611354,-10.71468864 -0.098253,-19.49800424 -0.1004367,-19.49800424 -0.00175,-0.162456374 -0.037991,-0.284994915 -0.1327511,-0.4353827861 -0.096507,-0.1406409419 -0.20131,-0.2422920422 -0.3703056,-0.3527624336 -0.1786026,-0.110470037 -0.3336244,-0.1777737364 -0.5637554,-0.2418278689 -0.2336244,-0.060340747 -0.4323144,-0.086797912 -0.6860261,-0.089118778 l -1.7419212,-0.00789094 c -8.7720514,-0.037132795 -17.5441027,-0.081228187 -26.316154,-0.1295007847 0.520524,-0.00603425 1.5554583,-0.027849684 1.5908295,-0.0283135033 -2.0109168,0.0143886611 -3.9213969,0.002320512 -5.9305669,-0.0157818895 0.8432313,0.0232083066 2.5314407,0.0375973221 2.5314407,0.0375973221 -0.4825327,0.00278469 -1.4471614,0.00928311 -1.4471614,0.00928311 -1.5585151,0.1086136985 -5.0257636,0.019030748 -6.7999992,0.019030748 0.168559,0.00417756 0.5061135,0.012532322 0.5061135,0.012532322 l -2.3480347,0.00417756 c -7.42751,0.013460669 -18.5506527,-0.3666872758 -25.5253243,-0.020423622 2.4781656,0.1373920837 5.4934491,0.1322861783 7.9772916,0.1759177522 3.5109165,-0.00928382 7.1995624,-0.0682324 10.4165926,0.012531968 2.4838425,0.00510555 7.4510908,0.015317007 7.4510908,0.015317007 l -1.1174671,0.00371339 c 0.2096069,4.641732e-4 0.4165938,0.00371339 0.6104802,0.012068149 l 6.0048028,-0.04084618 c -0.7292576,0.06312614 -2.0318775,0.057556062 -3.1838424,0.071945431 -1.4467247,0.00139217 -4.3406108,0.00324886 -4.3406108,0.00324886 -0.2746725,0.00464138 -1.2742357,0.00371303 -1.5471614,0.033883582 0.3986899,0.01438937 0.8331876,9.283464e-4 0.8951964,0.016245708 0.5305676,0.00835512 1.5912661,0.025064645 1.5912661,0.025064645 0.9886462,-0.013460315 2.9668119,-0.04084618 2.9668119,-0.04084618 0.1729257,-4.641732e-4 2.228384,0.00603425 3.854148,0.00278539 L 157.7785833,0.4815802 c 1.9052399,-0.012068149 5.7152832,-0.028313858 5.7152832,-0.028313858 2.9655018,0.00603425 8.8973788,0.018566929 8.8973788,0.018566929 1.0615719,-0.00649843 2.2829692,0.00789059 3.3283839,-0.03434811 0.3925763,-0.00278504 5.3532744,-0.028313858 5.3532744,-0.028313858 -4.366e-4,0.01995874 3.5441044,0.031562716 3.5441044,0.031562716 -0.8847161,0.00789094 -1.8227072,-0.011139448 -1.8807858,0.018566575 -0.4344978,0.00464138 -1.3026199,0.012532677 -1.3026199,0.012532677 -2.296943,0.048272243 -4.5781654,0.039917834 -6.8733616,0.071944723 -2.5043665,0.01438937 -5.3628815,-0.014388661 -7.4524009,0.087726258 -0.1331878,0.028778031 2.4419211,0.05152181 2.8205237,0.056627715 -0.7528384,-0.00232051 -1.4938863,-0.020886732 -2.2423579,-0.025064645 -0.50262,-0.00464138 -0.3742357,-0.00232122 -0.2890829,-0.00324921 -0.5986899,-0.00928276 -1.3048033,0.00696224 -1.6637552,-0.028313858 -0.6803493,-0.00974693 -1.3921396,-0.025064645 -2.0720522,-0.021350905 0.468559,0.00974693 0.951965,0.00881894 1.4213973,0.012068149 -0.3956332,0.00324886 -3.9790389,0.01856622 -3.9790389,0.01856622 0.1480349,-0.00928346 0.3174673,-0.016246063 0.5008734,-0.020887441 -1.4218339,0.01299685 -4.1179035,0.011603976 -4.1179035,0.011603976 0.4834061,0.00371339 1.423144,0.017638228 1.5122269,0.019031102 -0.1292576,-0.0018574 -0.2825327,0 -0.2825327,0 -0.5262008,0.00417685 -2.3794757,0.00371268 -2.8454145,0.081692361 0.2624454,0.038060787 0.7659387,0.033883582 1.0349344,0.03713244 -1.1331876,0.00232122 -3.3999996,0.00928311 -3.3999996,0.00928311 0.3855894,0.00649807 1.1572051,0.019030748 1.1572051,0.019030748 0.6187772,0.00185634 1.1864627,-0.00139252 1.80786,0.021815433 1.0279475,0.00603425 2.058515,0.014853189 3.0873359,0.016709882 l 0.2174672,-0.00232087 c -0.9288208,-0.014389015 -1.8711788,-0.021350905 -2.7982529,-0.023672125 1.5917029,-0.01856622 4.7751086,-0.037596968 4.7751086,-0.037596968 1.1803492,-0.027385511 3.5462877,-0.04084618 3.5454143,-0.04084618 0.5262009,0.081692361 0.5401747,0.080764368 0.5048035,0.081228187 0.2895196,-0.00232122 0.8685589,-0.00928311 0.8685589,-0.00928311 1.7598251,-0.020423267 5.281222,-0.028314212 5.281222,-0.028314212 -0.4144104,0.1169688165 -4.8637549,0.077515156 -6.2227067,0.087726612 -0.8681221,-0.012532323 -2.6043665,-0.00928311 -2.6043665,-0.00928311 0.3379913,-0.00510591 1.0131004,-0.015781889 1.0131004,-0.015781889 -0.5786026,-0.00835441 -1.735371,-0.031098188 -1.735371,-0.031098188 -0.5353711,0.00881894 -1.0663754,0.016245708 -1.5960697,0.021815433 0.4082969,0.00139217 0.7943231,0.00742642 1.1371178,0.021815433 -0.8598252,0.038525314 -1.8620085,0.032491062 -2.7257639,0.044095393 0.1467249,0.00742642 -0.010044,0.00371303 -0.1445414,0.00278468 -0.7475982,0.00835512 -2.2427945,0.025064645 -2.2427945,0.025064645 -0.5790393,-0.00510555 -1.7362444,-0.015317362 -1.7362444,-0.015317362 0.5550218,-0.00835441 1.6646287,-0.025064291 1.664192,-0.025064291 -0.2248908,-0.00278504 -2.3737989,-0.028313858 -2.3864626,-0.034811928 -0.4100436,-0.00510626 -1.2296942,-0.015317716 -1.2296942,-0.015317716 0.1423581,-0.00603425 0.4248908,-0.015317362 0.4340611,-0.015781535 -0.6506549,0.00417756 -1.9528382,0.00649807 -1.9528382,0.00649807 0.1441048,0.041311062 0.4318777,0.1248597612 0.4318777,0.1248597612 -0.8707422,-0.011140157 -3.3960694,-0.00278504 -3.3266372,-0.1049006671 -1.1820959,0.012996496 -2.4550215,0.018566574 -3.2624449,-0.032027244 0.3471614,-0.041309999 1.5192137,-0.033419054 1.9624451,-0.041309999 -2.098253,0.00742677 -6.2938857,0.021815433 -6.2938857,0.021815433 0.1925764,0.00510591 0.5781659,0.015781889 0.5781659,0.015781889 -1.4401745,0.045951731 -2.9593883,-0.00510626 -4.4126632,0 0.3620087,-0.00510626 1.0855894,-0.015781889 1.0855894,-0.015781889 -0.4423581,-0.039453661 0.3441047,-0.071016022 0.290393,-0.068695865 0.5061134,0.01438937 1.5183404,0.043631574 1.5183404,0.043631574 0.5305676,-0.00835547 1.5917028,-0.025065354 1.5917028,-0.025065354 l 2.3039299,0.00696295 c 0.080349,4.641732e-4 4.1816588,0.0171737 4.2366807,0.00835441 -1.8646286,-0.016245354 -3.7344974,-0.019958385 -5.5995627,-0.02784933 0.8441047,-0.010211811 2.5323141,-0.027849685 2.5323141,-0.027849685 -0.4471615,-0.00835476 -1.0065501,-0.00928276 -1.446288,-0.04084618 -0.3598253,0.00185705 -3.8344973,0.025993346 -3.8344973,0.01856622 -0.3275109,-0.028777676 2.6838425,-0.059876573 2.8947594,-0.062197085 -1.4703055,-0.028313858 -4.4113531,-0.084941573 -4.4113531,-0.084941573 -0.5305677,0.00417791 -1.5917029,0.012532323 -1.5917029,0.012532323 -0.034498,0.051985629 -0.9157204,0.033419409 -1.375109,0.05012929 -0.6270742,0.00835512 -1.8812225,0.025064999 -1.8812225,0.025064999 -1.8567683,9.279921e-4 -5.570305,0.00324921 -5.570305,0.00324921 2.0733622,-0.032955944 6.2227067,-0.093760864 6.2227067,-0.093760864 1.3262007,-0.00139252 3.9786021,-0.00324886 3.9786021,-0.00324886 -1.6864627,-0.032027243 -3.231004,-0.056163542 -4.91834,-0.050129645 -3.061135,-0.072872715 -9.183405,-0.2190840899 -9.183405,-0.2190840899 -1.1327509,0.00371339 -3.3999996,0.012532323 -3.3999996,0.012532323 -3.9288205,0.013924842 -7.8606977,-0.030634369 -11.7912649,-0.00928311 -2.4842792,0.014853189 -7.4528375,0.1030439742 -7.4528375,0.1030439742 -0.7960698,0.00464138 -2.38777268,0.034348109 -2.38777268,0.034348109 -5.56462813,0.037596613 -16.71964859,0.2223329481 -16.71397172,0.2223329481 2.09737966,0.00324921 4.1943226,-0.029242558 6.29388568,-0.031098897 0.46593881,-0.00557008 1.15764181,-0.012532323 1.15764181,-0.012532323 0.49868988,-0.00974764 1.39956314,-0.042702873 1.08515269,0.00928311 0.60917023,0.00835512 1.94017442,-0.012068149 3.2554581,-0.021815433 2.64585123,-0.027849685 5.25327449,-0.1276448005 7.88733522,-0.1411051152 -0.30131,0.043167046 -1.0921396,0.042702873 -1.7371176,0.056627715 1.2978164,-0.014853189 3.4082965,-0.034347755 4.8056763,-0.046880078 -1.512227,0.015781181 -3.5991263,0.049665117 -3.2877726,0.1248586982 -0.3855895,0.00742713 -0.7720523,0.012068149 -1.1576418,0.015781889 1.4467247,0.00324921 4.3401742,0.00928346 4.3401742,0.00928346 -1.0371178,0.0041772 -3.1109167,0.012531968 -3.1109167,0.012531968 -1.7864626,0.047344251 -3.53231396,0.057556062 -5.31047968,0.088654959 1.82838409,0.053378148 3.89868948,0.028313503 5.74235738,0.043166692 -1.0117903,0 -2.027074,0.014853189 -3.03842755,0.012068149 -2.07379891,9.287008e-4 -4.14759776,0.00974764 -6.22095992,-0.015317362 -0.25065503,-0.031098188 2.0868993,-0.036668267 2.31572018,-0.037596613 1.62751075,-0.037133149 3.30480312,-0.049665471 4.92401689,-0.1113987378 -0.090393,-0.015317008 -2.46812195,0.022743779 -2.53537087,0.023671771 0.47903923,0.01438937 0.4480349,0.014853543 0.43362442,0.015781889 -1.44716139,0.00232087 -4.34061087,0.015317362 -4.34061087,0.015317362 -0.37074227,0.00278504 -1.65676833,0.037596968 -1.15720509,-0.0060339 -3.24454104,0 -6.37816512,0.043630865 -9.62270622,0.090975116 0.60305668,-0.00278504 6.87205154,0.00835476 6.87205154,0.00928311 0.47292572,-0.00278469 0.95327502,-0.0171737 0.65109167,0.00324921 0.14454145,0 0.43406102,0 0.43406102,0 -0.53056759,0.00278504 -1.59170283,0.00928311 -1.59170283,0.00928311 -0.55458509,0.00185705 -1.66419191,0.0060339 -1.66419191,0.0060339 -5.4017461,0.028314212 -16.20523819,0.087726967 -16.20523819,0.087726967 -0.27205239,0.041310353 -1.07292566,0.023672125 -1.66419199,0.021815433 -0.55458505,0.00510555 -1.66419191,0.015781535 -1.66419191,0.015781535 1.37423562,0.011603976 4.12270691,0.034347755 4.12270691,0.034347755 -0.84410471,0.00324921 -2.5318774,0.00928346 -2.5318774,0.00928346 -1.03537107,-0.00742677 -2.07816572,-0.048737125 -3.1100433,-0.05012929 0.86593874,0.024600118 2.60480319,0.053378148 2.60349312,0.053378148 -1.59126615,0.00371374 -4.77423521,-0.00324886 -4.77423521,-0.00324886 -0.81528373,0.074729762 -2.68733592,-0.3369649973 -3.61790351,-0.3258251943 -1.85676832,0.00185669 -5.57074165,0.0060339 -5.57030497,0.0060339 0.74759816,-0.011139449 2.24279446,-0.034347401 2.24279446,-0.034347401 1.18689946,0.00835476 2.37510891,0.019494921 3.56244498,0.023671771 -0.0157205,-0.00464173 -2.80698656,-0.026920629 -3.12838389,-0.029706023 1.54410464,-0.017638228 3.44934457,0.025529173 4.77554529,-0.053378503 0.98864615,-0.014389015 2.96681188,0.3481044453 2.96681188,0.3481044453 -0.21746724,0 -0.65109163,-0.00649843 -0.65109163,-0.00649843 0.34847156,-0.055699015 2.11965037,-0.015781181 2.82139701,-0.025064291 -0.0925764,-0.0060339 0.0598253,-0.00324921 0.0724891,-0.00278504 l 2.67991233,-0.05384303 c 1.50305659,-0.029705669 3.06069833,-0.049200944 4.56462827,-0.1035074388 -2.66943198,-0.058948581 -6.00654949,0.079835668 -8.762881,0.1132554307 -1.47729242,-0.00974799 -3.0733621,-0.4367594043 -4.54672436,-0.4149436173 0.58646281,0.048272243 2.00567664,0.4186562943 2.66593856,0.4242263733 0.53013092,0.00139287 1.59126616,0.00324921 1.59126616,0.00324921 -1.71222687,0.00835512 -5.13668063,-0.3666706663 -5.13668063,-0.3666706663 -0.19519642,0 -0.94017449,0.00324921 -0.94017449,0.00324921 -1.90523997,0.00557008 -5.71528317,0.012531968 -5.71528317,0.012531968 -1.80873339,0.032026889 -5.42663691,0.077978975 -5.42663691,0.077978975 -1.10917014,0.0041772 -3.32794718,0.012532677 -3.32794718,0.012532677 2.19432287,0.0041772 6.58296865,0.012531968 6.58253194,0.012531968 l -1.08296927,0.00649843 0.1427947,0 c -0.77161558,0.00324921 -2.31528354,0.00928346 -2.31528354,0.00928346 -0.42227067,0.00232051 -1.23406102,0.00324886 -1.35807846,0.00324886 l 0.12838429,0 c -2.58034903,0.010211456 -7.74061043,0.015781535 -7.74061043,0.015781535 -0.13100435,0.026457165 -3.95458464,0.071016377 -5.23275043,0.086333739 0.008297,-4.63819e-4 0.0157205,-0.0013922 0.0222707,-0.0018567 -1.27729242,-0.0027847 -2.55633157,0.0013929 -3.83362399,0.0027854 2.84585118,-0.0380615 8.53799022,-0.090511652 8.53755354,-0.090511652 -0.35720521,-4.641732e-4 -0.89213961,0.012068149 -0.28908293,-0.019030748 1.23013085,-0.020887086 3.69082923,-0.062661613 3.69039255,-0.062661613 2.17161545,0.00649807 4.34454096,0.016709882 6.5170298,0.016245708 -1.8807858,-0.017174055 -3.76637509,-0.020423267 -5.64847093,-0.028777677 0.20131002,-0.00232087 1.55851509,-0.01299685 1.71441025,-0.041310353 -0.58034925,-0.058020235 -3.30392973,0.022279606 -3.95676806,0.032026889 0.14454145,0 0.43406106,0 0.43406106,0 l -0.57641913,0.00324921 c 0.0729258,0 0.21441047,0.00324886 0.21441047,0.00324886 -1.39519634,0.013461023 -3.12969395,-0.00139252 -3.83493404,0.07519429 -0.3620087,9.283464e-4 -1.0855894,0.00278468 -1.08515269,0.00278468 0.0960698,0.00232087 0.28908293,0.00324957 0.28908293,0.00324957 -4.00349298,0.043166692 -8.00523921,0.1281082648 -12.01135225,0.1661690518 -0.35152834,0.0027854 -5.08209545,0.05755606 -5.13493387,-0.05012894 -0.0895196,-0.001857 -1.51091685,-0.02135161 -2.09694298,-0.062661613 -3.3043664,0.05152181 -9.914845945,0.18473598 -9.913535903,0.18473598 l 13.853710093,0.177773383 -11.23493312,0 C 7.781658438,0.8928425887 4.187772291,0.8162564877 2.393886047,0.7907276697 c -0.01484716,0.058484054 0.153711772,0.116504289 0.427510865,0.171739485 l -0.714847074,0 -0.060262,3.6863651983 C 1.808733281,3.524634936 1.280785747,0.9931015237 1.299999719,0.9926377047 c 0.0026201,-0.078907675 0.0209607,-0.136927556 0.06899562,-0.210265153 0.04847161,-0.068695865 0.100436669,-0.117432281 0.183842772,-0.17173913 0.08689955,-0.052914684 0.162445395,-0.085405392 0.272925731,-0.1165046435 0.117030553,-0.030170551 0.210917004,-0.042702519 0.336681181,-0.044559212 -0.124454133,0.00139217 -0.219650628,0.013460315 -0.335807819,0.042702873 -0.109606974,0.030170196 -0.18689954,0.06219744 -0.273799093,0.1141834228 -0.08602619,0.054770668 -0.138864612,0.1030436202 -0.189519628,0.1726678312 -0.04847161,0.07287271 -0.06899562,0.131821651 -0.07248907,0.210728617 -4.3668e-4,0 -0.0074236,1.3363196183 -0.0074236,1.3196097373 z M 131.8445253,1.35420282 c 2.4113534,-0.02692134 4.6768554,-0.0524498 5.0358073,-0.0603411 -0.6659388,0.02320831 -1.3458514,0.0431674 -2.0353709,0.0603411 z m 45.9855839,0 c -0.1109169,-0.0060339 -0.2192139,-0.01253232 -0.3248907,-0.01949492 5.1580779,-0.08262035 10.4030555,-0.06915968 15.5624435,-0.09283216 0.083406,0.0055701 -0.037555,0.0078906 -0.072489,0.0092835 l 4.506113,0.10304362 z m 19.7960675,1.738746814 c 4.366e-4,2.00146106 -0.00262,5.394476934 0.025764,5.394012761 0.132751,5.390763905 -0.1882096,11.148215085 -0.3890829,16.832328665 z m -0.3764192,23.030732356 c 0.015284,1.01744041 0.031004,2.32590999 0.031004,2.32590999 0.00786,-0.48504861 0.028821,-1.45514442 0.028821,-1.45514442 l 0.036244,2.67867207 c 0.078166,5.75837953 1.2288208,11.15749785 0.9965064,16.87456703 0.00568,-1.04575427 0.016594,-3.13772734 0.016594,-3.13772734 0.031004,-1.02254596 0.079913,-2.05623208 0.091703,-3.07785041 -0.037118,0.82806341 -0.058952,1.65844697 -0.087336,2.4869742 0.00262,-0.43306227 0.069432,-4.30230711 0.055895,-4.31994534 0.013101,-0.80346223 0.029694,-2.41038704 0.029694,-2.41038704 0.00393,-0.77282787 0.012664,-2.31894776 0.012664,-2.31894776 -0.00175,-0.0213513 -1.3323143,-0.0487364 -1.3358077,-0.0765861 l 0.024891,-1.51177213 1.3620086,1.81579708 c -0.00218,0.40892598 -0.014847,1.22770557 -0.014847,1.22770557 0.072926,-1.71414599 -1.1986898,-3.37491383 -1.254585,-5.09323702 0,0.37782708 0.024891,0.85080683 -0.014847,1.22631305 -0.034498,-0.13321417 -0.048472,-0.4093898 -0.052839,-0.70691668 z m 0.8895196,26.79414819 0.00131,0.49618806 c -0.00873,0.5885557 0.040611,1.40687147 -0.032314,1.95550933 l -0.00786,-0.0858696 z m -0.065065,3.97414516 0.00917,0.0236721 c 0.01048,0.1197535 0.044978,0.20469508 0.094323,0.31841433 -0.036245,0.42424333 -0.074236,0.84848596 -0.1157205,1.27319312 8.734e-4,0.0371328 0.016157,0.60619428 0.016157,0.60619428 0,0.007891 -0.00175,0.0139245 -0.00655,0.0213516 -0.0048,0.007426 -0.010044,0.012532 -0.018777,0.018102 -0.00917,0.00557 -0.016594,0.008819 -0.028384,0.0125323 -0.012227,0.003249 -0.021834,0.004641 -0.034934,0.005106 -0.2401746,0.0222796 -0.088646,0.0204229 -4.365e-4,0.0218151 0.00611,4.6453e-4 8.733e-4,4.6453e-4 0,4.6453e-4 -0.2069869,0.001856 -0.4179039,0 -0.6248908,0 -1.4589518,-0.0236725 -4.9305671,-0.0394537 -6.7956324,-0.0496655 l 7.4689948,0 z m -11.5061122,2.25117987 c -0.2606986,0.011604 -0.80393,0.014389 -0.8755457,0.0153177 0.7471615,0.007891 0.5890829,0.009283 0.5786025,0.009283 -0.1449781,0.002321 -0.434061,0.006498 -0.434061,0.006498 -0.3379913,0.002785 -1.0131003,0.009283 -1.0131003,0.009283 0.091266,0.0162461 -0.062009,0.0334198 -0.072489,0.0343481 0.4768558,-0.0153174 1.0925762,-0.0273855 1.7262006,-0.0371332 0.5131004,0.0120685 1.0868994,0.002785 1.6017466,0.002785 -1.2056768,0.02228 -3.6179035,0.0533785 -3.6179035,0.0533785 -0.7235807,-0.010676 -1.4301308,-0.0533785 -2.1694321,-0.0566277 0.024018,0 0.072489,0 0.072489,0 -0.096507,-0.003249 -0.2895196,-0.009283 -0.2895196,-0.009283 -1.2056767,0.009747 -3.6174668,0.0343481 -3.6174668,0.0343481 0.3375545,0.003249 1.0126636,0.009283 1.0126636,0.009283 -0.5545851,0.001393 -1.6637552,0.003249 -1.6637552,0.003249 -0.7235807,0.002785 -2.1703054,0.006498 -2.1703054,0.006498 0.60262,0.00557 1.8082967,0.0185662 1.8082967,0.0185662 -1.4021832,0.0148535 -3.5043664,0.0840136 -4.837554,0.0255292 0.8707422,-0.0375973 1.8655019,-0.0329556 2.7397376,-0.0440954 -0.251965,-0.001393 -1.9231438,0.005106 -2.0082967,-0.012532 0.9170305,-0.0496655 2.0266374,-0.0445599 2.9497813,-0.0598773 l -0.042358,-0.008819 z m -33.3392972,0 c -0.6982532,0.0148528 -1.3978164,0.0301702 -2.1152836,0.040382 l 0.2847162,0 c -0.049345,0 -0.1401747,0.003249 -0.1401747,0.003249 -0.2157205,0.00557 -0.853275,0.0236728 -0.5061135,-0.003249 -5.0414841,-0.0306344 -9.7921385,0.12857244 -14.7598235,0.1438898 0.4100436,0 1.2296942,0 1.2296942,0 -0.5065502,0.00557 -1.5192138,0.0190307 -1.5192138,0.0190307 -0.048472,-0.002321 -0.1445415,-0.006498 -0.1445415,-0.006498 -0.8410479,0.001857 -1.6925762,-0.006034 -2.5323141,0.0157819 l 1.8807858,0 c 0.3135371,-9.2835e-4 0.9406113,-0.003249 0.9406113,-0.003249 2.4113534,-0.009283 7.2344969,-0.0218161 7.2344969,-0.0218161 4.1742353,-0.0445589 8.341047,-0.0965448 12.5165923,-0.12857244 l -0.9401745,0.0157819 0.072052,0 -2.0973796,0.0283135 0.071179,0 c -0.4270741,0.004642 -1.275109,0.0153174 -1.3017465,0.0153174 l 0.1441048,0 c -0.2532751,0.003713 -3.4978162,0.0348126 -3.6646284,0.0668395 0.3262008,0.025993 1.072489,0.006962 1.4209605,0.005569 -0.00349,-0.0348119 1.5174671,-0.0129961 1.5917029,-0.012532 1.7606984,-0.0181024 5.2820954,-0.0784435 5.2820954,-0.0784435 3.4724887,-0.012532 10.417466,-0.0375963 10.417466,-0.0375963 -1.4711789,0.0208864 -4.4135366,0.0626616 -4.4135366,0.0626616 -2.047598,0.00557 -4.1030563,-0.0292422 -6.1489076,-0.0125327 1.7598252,0.0125327 5.2807854,0.0250646 5.2803488,0.0250646 -0.6489082,0.009283 -2.0209605,0 -2.6829691,0.0492009 3.0825323,0.0445596 6.3039293,-0.0320265 9.4104792,-0.0306347 -4.1358074,0.23393763 -11.4026188,0.0487371 -16.5672469,0.0751943 -2.2532749,0.02228 -4.41572,0.005106 -6.6550211,0 -0.3109169,0.003249 -3.9074231,0.0320272 -3.9069864,0.0190307 -0.3995633,-0.0139252 -0.3008733,-0.015317 -0.2890829,-0.0157815 -1.2537117,-0.002321 -3.7615716,-0.006498 -3.7615716,-0.006498 -0.723144,0.0120685 -2.1703054,0.025065 -2.1703054,0.025065 -0.1877729,-0.005106 -0.08821,-0.008355 -0.072489,-0.009284 0.2655022,-0.006034 0.7960698,-0.0185662 0.7960698,-0.0185662 -0.4340611,-9.2835e-4 -1.3017466,-0.003249 -1.3017466,-0.003249 -2.1707421,0.0278497 -6.5117896,0.0686959 -6.5117896,0.0686959 0.1467249,0.0399182 0.031004,0.047345 -8.733e-4,0.0501293 1.9052399,-0.0153174 5.7157198,-0.0529143 5.7157198,-0.0529143 l -0.6506549,0.0125327 3.2550214,-0.02228 c -1.1336243,0.0157815 -3.400873,0.0473443 -3.400873,0.0473443 l -2.0244539,0.0120681 c 0.8205239,-0.001393 2.458515,0.006499 2.458515,0.006499 -3.6847157,0.2877796 -10.7593873,0.15735047 -14.6877711,0.16895444 -0.4209607,-0.0199591 4.3528379,-0.080764 4.8480343,-0.0877266 1.0235807,-0.0617333 2.3834058,-0.0682317 3.5458511,-0.0844774 -0.2650655,-0.007426 -0.7951964,-0.0218154 -0.7951964,-0.0218154 -0.8917029,0.0143894 -2.4541482,0.0761223 -3.2947594,0.0348119 0.6563318,-0.0492006 1.6851527,-0.0454876 2.3545849,-0.0598766 -0.2165939,-0.006034 -0.650655,-0.0185662 -0.650655,-0.0185662 0.842358,-0.0167099 1.6903928,-0.0250646 2.5323141,-0.0125327 0.3323144,-0.006034 0.991703,-0.015317 1.012227,-0.0157808 l -1.0842794,0 1.224454,-0.00325 c -0.1707423,0 -0.50131,-0.003249 -0.50131,-0.003249 0.3860262,-0.003249 1.1576419,-0.006034 1.1576419,-0.006034 0.5790392,-0.013461 1.7366809,-0.0375973 1.7366809,-0.0375973 1.4471614,-0.0143887 4.3414842,-0.0436305 4.3410475,-0.0436305 -0.1445414,-0.004178 -0.4336244,-0.012533 -0.4336244,-0.012533 -0.231441,0.004642 -0.2222707,0.00557 -0.2170305,0.006034 -0.5716157,-0.006034 -0.3698689,-0.005106 -0.2895196,-0.006034 0.1689956,-0.001393 0.5065501,-0.003249 0.5065501,-0.003249 -2.6039298,-0.0190307 -7.8117894,-0.0561635 -7.8117894,-0.0561635 -2.1703054,0.0134607 -6.5109162,0.0278497 -6.5109162,0.0278497 -0.4951965,4.6418e-4 -6.293449,-0.018102 -6.293449,-0.0125323 l -3.782969,0.0171744 c -1.061572,0.005106 -7.6484707,0.11093421 -8.6965055,0 1.5362444,-0.0840136 3.2489079,-0.0519863 4.8126632,-0.0951534 0.042795,-0.009748 0.023581,-0.0148528 -0.030568,-0.0185666 l 11.8013086,0 c -0.4305677,0.006498 -0.8580785,0.0139248 -1.2816592,0.021352 1.4471613,-0.009284 4.3410475,-0.0185673 4.3410475,-0.0185673 l 0.1292576,-0.002785 z m -138.74758127,0 c 1.62489063,0.040382 4.10436632,0.10304362 4.10436632,0.10304362 -1.88034912,-0.0315627 -5.64061067,-0.0942247 -5.64061067,-0.0942247 -0.31484712,-4.6418e-4 -1.2336243,-0.004177 -2.40960669,-0.008819 z M 2.234934224,41.14531878 c 0.00131,-0.79092991 0.0061135,-1.56561446 0.0061135,-1.56561446 -0.158515265,2.98594659 -1.3602618426,8.9583043 -1.3602618426,8.9583043 0.043231436,-0.99748167 0.9462880936,-2.00331846 0.9641920216,-3.00126431 -0.03318777,0.53703424 -0.9331876586,1.11584266 -0.9947597031,1.65148438 -0.00305677,-0.81413821 0.9620086161,-1.69418689 1.0039300081,-2.5152877 0.0039301,-0.65214601 0.01179039,-1.95550969 0.01179039,-1.95550969 0.07991265,-1.31868032 0.2388646,-3.9560424 0.2388646,-3.9560424 -0.08777291,0.73337385 -0.154585134,-0.11000621 -0.140174655,0.0454879 0.05676855,-0.62151164 0.170305655,-1.86453457 0.170305655,-1.86453457 0.0161572,0.42424334 0.0039301,1.27319312 0.0039301,1.27319312 0.04978165,-0.81831506 0.149781641,-2.45541042 0.149781641,-2.45541042 0.03362445,-1.56143762 0.101310032,-4.68384724 0.101310032,-4.68384724 -0.0021834,0.32676944 -0.0056769,0.74219349 -0.009607,1.17432706 z m 59.676411906,18.46385394 0,0 z m 2.36550191,0.0867986 c -0.0986899,9.2799e-4 -0.20087337,9.2799e-4 -0.3039301,0.001392 z m -0.3039301,0.001392 c -0.54454141,4.6453e-4 -1.11965054,-0.005106 -1.41179022,-0.003713 l -0.21703056,0.009283 z m -1.62882078,0.00557 0,0 z m 2.38777265,0.062662 -0.001747,0 z M 171.1663546,0.099576271 l 0.00131,0 z m -14.2860244,0.253895664 -0.6,0.00185669 c 0.1960699,-9.283464e-4 0.3991266,-0.00232087 0.6,-0.00185669 z m -0.6,0.00185669 -0.231441,9.283465e-4 c 0.075546,0 0.1528384,-4.638189e-4 0.231441,-9.283465e-4 z m -0.231441,9.283465e-4 -0.0048,0 z m 9.5668111,0.065910825 c 0.049782,-0.00139217 0.083843,-0.00324921 0.09869,-0.00557008 -1.6310041,-0.00324886 -3.2650651,0.00232087 -4.8969426,0.00510591 3.7860257,-0.049200944 11.3593872,-0.1155759424 11.3593872,-0.1155759424 -1.1711789,0.1359988554 -4.4951959,0.09608173 -6.5611346,0.1160401124 z m -4.0113532,0.1977324761 0.028384,-9.279921e-4 0.049782,0 z m 0.028384,-9.279921e-4 c 0.6908297,-0.017638582 1.5746723,-0.00928311 2.2925762,-0.012532677 0.048035,-0.00185634 0.1445414,-0.00278504 0.1445414,-0.00278504 -0.6205239,-0.010211102 -2.3864626,-0.025064645 -2.3864626,-0.025064645 -0.8685588,0.00139252 -1.9606984,0.033419763 -2.3148469,-0.00649807 0.6751092,-0.00510591 2.025764,-0.00928311 2.025764,-0.00928311 -1.4074234,-0.02367248 -2.7855892,-0.04734496 -4.195196,-0.044095747 -0.4576418,0.00324957 -4.9921391,0.030635078 -4.9917025,0.02227996 1.1650654,-0.065910825 2.8331875,-0.04084618 4.2689952,-0.059412755 -1.10262,-0.018102047 -2.0074234,-0.017638228 -3.11048,-0.00324886 0.2152838,0.00649807 -0.2646288,0.00324886 -0.2895196,0.00324886 -0.7475982,0.00789094 -2.2432312,0.024600826 -2.2432312,0.024600826 -0.5786025,-0.00510555 -1.7358077,-0.015317362 -1.7358077,-0.015317362 0.5790393,-0.00835441 1.7366811,-0.025064291 1.7366811,-0.025064291 0.7956331,-0.00278539 2.3868993,0.012531968 2.3868993,0.012531968 -0.6746725,-0.00742677 -2.0248906,-0.019030748 -2.0248906,-0.019030748 0.8200872,-0.00881894 2.459825,-0.021815433 2.459825,-0.021815433 -2.1358076,-0.013460669 -4.2999995,0.031098543 -6.4388638,0.044095039 -0.3231441,-0.00371268 -3.7659384,-0.0594124 -3.9510912,0.065910825 0.2703056,0.061269447 1.1231439,0.049201298 1.4170303,0.049665117 1.1816593,-9.279922e-4 3.5449778,-0.00324886 3.5445411,-0.00324886 -1.1279475,0.00835512 -2.2567683,-0.00185669 -3.3825324,0.00649807 0.4838428,0.013925197 1.0161571,0.00881894 1.5017466,0.012532677 -0.3676856,0.00278539 -0.7384279,0.00324921 -1.1056767,0.00928346 0.6951964,0.00464138 1.4209605,-0.00835547 2.1183403,-0.01578189 4.0689952,0.04363122 8.219213,0.012068149 12.2978151,0.012532677 z m -2.0746722,0.2172270427 c 0.1104803,4.638189e-4 0.2209606,4.638189e-4 0.331441,4.638189e-4 -0.2135371,0.00185705 -0.4270742,0.00278504 -0.641048,0.00417791 0.1030568,-0.00139287 0.2065503,-0.00324921 0.309607,-0.00464173 z m 0.331441,4.638189e-4 0.081659,0 -0.025764,-4.638189e-4 z m 0.055895,-4.638189e-4 -0.169869,-0.00232087 c 0.3510917,-0.0041772 0.6986899,-0.00649842 1.0314409,-0.00510555 -0.2877728,0.00278468 -0.5746724,0.00556972 -0.8615719,0.00742642 z m -0.6969432,0.00464173 c -0.7537117,0.0041772 -1.5087334,0.0060339 -2.2716154,0.00649843 0.067249,0.0171737 0.010044,0.02645681 -8.734e-4,0.034811928 0.723144,0.0060339 2.1703054,0.012532323 2.1703054,0.012532323 -0.6751091,-0.00649843 -2.0253272,-0.019030748 -2.0253272,-0.019030748 0.6257641,-0.00649807 1.3720522,-0.023207952 2.1275106,-0.034811933 z m -5.671615,-0.024600826 4.366e-4,0 z m -4.8475977,0.026457165 c 4.366e-4,-4.641733e-4 4.366e-4,-9.279921e-4 8.734e-4,-0.00139217 0.117904,-9.283464e-4 0.2567685,-0.00185705 0.4056768,-0.00324957 z m 0.4065502,-0.00464173 c 0.6860261,-0.00556972 1.5816592,-0.015317362 1.6187771,-0.015317362 -0.441048,4.648819e-4 -1.0082968,0.00835547 -1.6187771,0.015317362 z m 1.6187771,-0.015317362 0.00131,0 z m -44.4772871,-0.4014988499 0.2855895,-0.00232087 c -0.058952,4.645276e-4 -0.157642,0.00139287 -0.2855895,0.00232087 z m -55.06069196,0.1160563713 -0.002183,0 z m -3.5305673,0.012532323 -0.0161572,0 z m -15.22707195,0.1206814961 -5.48122203,0.038989842 c 1.13362431,-0.01578153 3.40087294,-0.04688008 3.40087294,-0.04688008 0.18253273,-4.64173e-4 1.11222694,0.0055701 2.08034909,0.00789024 z m 8.99344868,-0.2084077516 -0.00262,0 z M 184.7515058,59.21788533 l -4.366e-4,0 z m 3.0331874,-0.0538427 c 1.0445413,-0.0106756 1.8864626,-0.0148535 1.8864626,-0.0148535 -0.6253274,0.009284 -1.257205,0.010676 -1.8864626,0.0148535 z m -52.8781595,0.19169858 0.1445414,0 c -0.048035,0 -0.1445414,0 -0.1445414,0 z m 19.751526,-0.1378559 -4.366e-4,0 z m -2.0253273,0.0283135 -8.734e-4,0 z m -1.2305675,0.0153174 -4.366e-4,0 z m -18.7388623,0.1819513 -4.366e-4,0 z m -2.1703055,0.0371324 -0.00131,0 z m -2.6768555,-0.0905106 4.366e-4,0 z m 0.1401746,-0.00325 0.00524,0 z"
        id="posters-level2-special_path"
        style="fill:#ffffff;fill-rule:nonzero" />
</svg>