<?xml version="1.0" encoding="UTF-8" standalone="no"?>
<svg
    xmlns:dc="http://purl.org/dc/elements/1.1/"
    xmlns:cc="http://creativecommons.org/ns#"
    xmlns:rdf="http://www.w3.org/1999/02/22-rdf-syntax-ns#"
    xmlns:svg="http://www.w3.org/2000/svg"
    xmlns="http://www.w3.org/2000/svg"
    xml:space="preserve"
    version="1.1"
    preserveAspectRatio="none"
    viewBox="0 0 150 45"
    id="event-description">
    <g
        id="event-description-g"
        transform="matrix(0.0035501702,0,0,0.0034657516,-0.4945980316,0.5784736357)">
        <path
            d="m 41860,1912 c -26,472 -120,1243 -77,1693 15,-59 49,-334 86,-358 50,-15 80,-305 86,-357 l 15,-150 c 1,-184 -11,-422 11,-602 7,19 5,170 5,188 2,307 0,614 -6,921 1,150 5,577 12,565 7,-18 8,-8 9,0 l 6,47 c 0,119 1,237 -9,357 -16,208 9,382 10,583 -28,-21 -6,19 3,37 263,1446 -85,5925 -93,7509 0,21 -6,37 -18,56 -13,18 -27,31 -49,45 -23,15 -44,23 -74,31 -31,8 -56,11 -90,12 -1549,-2 -3098,-3 -4647,-3 123,-1 256,0 378,-5 -148,-17 -1055,-12 -1275,-15 -548,-8 -1096,-18 -1643,-22 40,-1 122,-3 122,-3 -188,0 -563,-1 -563,-1 30,0 91,-1 91,-1 -188,-1 -563,-2 -563,-2 360,-3 1080,-8 1080,-8 -177,-1 -532,-3 -532,-3 -213,2 -428,10 -639,10 177,-4 532,-10 532,-10 -424,0 -970,-11 -1369,5 208,3 624,9 624,9 -111,0 -224,-2 -152,2 -4,0 656,5 654,5 289,3 867,10 867,10 -1587,0 -4761,-12 -4761,-12 -96,-1 -1035,-7 -1035,-5 -11,4 251,8 289,9 l -15,-1 c 101,2 265,0 365,7 -166,7 -437,-1 -608,-6 -116,0 -73,0 -31,0 -228,-8 -684,-25 -684,-25 821,4 2464,20 2464,20 47,-5 -216,-9 -259,-10 244,3 731,1 731,1 -162,-1 -487,-4 -487,-4 -127,0 -380,0 -380,0 -163,-3 -487,-6 -487,-6 233,0 699,-2 699,-2 -233,0 -699,-2 -699,-2 -48,-2 -244,-1 -244,-1 -243,-1 -730,-2 -730,-2 -250,-9 -510,-10 -760,-13 -391,-3 -1172,-1 -1172,-1 254,3 761,10 761,10 91,1 274,3 274,3 -110,0 -284,-4 -393,2 172,6 370,4 545,4 238,11 715,32 715,32 -107,0 -320,3 -320,3 18,5 102,7 202,8 l -1601,-6 c 611,9 1184,13 1795,11 0,1 92,2 91,2 -248,1 -745,3 -745,3 119,2 355,4 364,4 l -501,-2 c -47,0 -977,3 -1032,12 535,11 1102,4 1640,4 -725,3 -2175,7 -2175,7 -183,-2 -1962,-11 -1962,-10 0,-2 -19487,33 -19487,33 0,0 -4223,7 -4223,4 -43,0 -75,-4 -114,-14 -38,-10 -65,-21 -95,-39 -28,-18 -46,-34 -63,-57 -16,-25 -23,-45 -24,-72 32,-7 -80,-11938 -79,-11938 1,-34 9,-59 30,-90 21,-29 43,-50 79,-73 38,-23 71,-37 119,-50 50,-12 92,-18 145,-18 l 366,-2 c 1845,-8 3690,-17 5534,-27 -109,-1 -327,-6 -334,-6 423,3 825,1 1247,-3 -177,5 -532,8 -532,8 101,0 304,2 304,2 327,22 1057,4 1430,4 -36,1 -107,2 -107,2 l 494,1 c 1562,3 3902,-76 5368,-4 -522,28 -1156,27 -1678,36 -739,-2 -1514,-14 -2191,3 -522,1 -1567,3 -1567,3 l 235,1 c -44,0 -87,1 -128,2 l -1263,-8 c 153,13 427,12 670,15 304,0 912,0 912,0 58,1 268,1 326,7 -84,3 -176,1 -189,4 -111,1 -334,5 -334,5 -208,-3 -624,-9 -624,-9 -37,0 -469,2 -811,1 l 1252,9 c -401,-2 -1202,-6 -1202,-6 -623,2 -1871,4 -1871,4 -223,-1 -480,2 -700,-7 -82,0 -1125,-6 -1125,-6 0,4 -746,7 -746,7 187,1 384,-3 396,4 91,1 274,2 274,2 483,10 962,8 1445,15 526,3 1128,-3 1567,18 28,6 -514,11 -594,12 159,-1 315,-4 472,-5 106,-1 79,-1 61,-1 126,-2 274,2 350,-6 143,-2 293,-5 436,-4 -99,2 -201,2 -299,2 83,1 836,4 836,4 -31,-2 -66,-3 -105,-4 299,3 866,2 866,2 -102,1 -299,4 -318,4 27,0 59,0 59,0 111,1 501,1 598,17 -55,8 -161,7 -217,8 238,0 715,2 715,2 -82,1 -244,4 -244,4 -130,0 -249,-1 -380,4 -216,1 -433,3 -649,4 l -46,-1 c 195,-3 393,-4 588,-5 -334,-4 -1004,-8 -1004,-8 -248,-5 -745,-8 -745,-8 -111,17 -114,17 -107,17 -60,-1 -182,-2 -182,-2 -370,-4 -1111,-6 -1111,-6 87,24 1023,16 1309,18 182,-2 547,-2 547,-2 -71,-1 -213,-3 -213,-3 122,-2 365,-6 365,-6 113,1 225,3 336,4 -86,0 -167,2 -239,5 180,8 391,6 573,9 -31,1 2,0 30,0 157,2 472,5 472,5 121,-1 365,-3 365,-3 -117,-1 -350,-5 -350,-5 47,-1 499,-6 502,-7 86,-1 259,-3 259,-3 -30,-2 -90,-3 -92,-4 137,1 411,2 411,2 -30,8 -91,26 -91,26 183,-3 714,-1 700,-22 248,3 516,4 686,-7 -73,-8 -320,-7 -413,-8 441,1 1324,4 1324,4 -41,1 -122,4 -122,4 303,9 622,-2 928,0 -76,-2 -228,-4 -228,-4 93,-8 -72,-14 -61,-14 -107,3 -319,9 -319,9 -112,-2 -335,-5 -335,-5 l -485,1 c -17,0 -879,4 -891,2 393,-3 786,-4 1178,-6 -177,-2 -532,-5 -532,-5 94,-2 211,-2 304,-9 76,0 806,5 806,4 69,-6 -564,-12 -608,-13 309,-6 928,-17 928,-17 111,0 334,2 334,2 7,11 193,7 289,11 132,1 396,5 396,5 390,0 1171,0 1171,0 -436,-7 -1308,-19 -1308,-19 -279,0 -837,-1 -837,-1 355,-6 680,-11 1035,-10 644,-15 1932,-45 1932,-45 238,0 715,2 715,2 826,3 1653,-6 2479,-2 522,3 1567,22 1567,22 167,1 502,7 502,7 1170,7 3515,46 3514,46 -441,0 -882,-6 -1324,-7 -98,-1 -243,-2 -243,-2 -105,-2 -294,-9 -228,2 -128,1 -408,-3 -685,-5 -556,-6 -1104,-26 -1658,-29 63,9 230,9 365,12 -273,-3 -716,-8 -1010,-10 318,3 757,10 691,26 81,1 162,2 243,3 -304,1 -912,2 -912,2 218,1 654,3 654,3 375,9 742,11 1116,18 -385,11 -820,6 -1208,9 213,0 427,3 639,2 436,0 872,2 1308,-3 53,-6 -438,-8 -486,-8 -342,-7 -695,-10 -1035,-23 19,-3 519,5 533,5 -101,3 -95,3 -92,3 305,1 913,4 913,4 78,0 348,7 244,-2 682,0 1341,9 2023,19 -127,0 -1445,2 -1445,2 -100,-1 -201,-3 -137,1 -31,0 -92,0 -92,0 112,0 335,2 335,2 117,0 350,1 350,1 1136,6 3407,18 3407,18 57,9 226,5 350,5 117,1 350,3 350,3 -289,2 -867,7 -867,7 178,1 533,2 533,2 217,-2 437,-10 654,-10 -182,5 -548,11 -548,11 335,0 1004,-1 1004,-1 171,15 565,11 761,13 390,1 1171,2 1171,2 -157,-3 -472,-7 -472,-7 -249,1 -499,4 -749,5 3,-1 591,-6 658,-7 -325,-3 -725,6 -1004,-11 -208,-3 -624,-9 -624,-9 46,0 137,-1 137,-1 -73,-12 -445,-3 -593,-5 20,-1 -12,-1 -15,-1 l -563,-11 c -316,-6 -644,-10 -960,-21 562,-12 1263,16 1842,23 311,-2 647,-9 957,-5 -124,10 -422,6 -561,7 -112,0 -335,1 -335,1 360,1 1080,5 1080,5 41,0 198,1 198,1 400,1 1202,2 1202,2 380,7 1141,16 1141,16 233,1 699,3 699,3 -461,1 -1384,2 -1384,2 l 228,2 -30,0 c 162,0 487,2 487,2 88,0 259,0 285,0 l -27,0 c 543,2 1628,4 1628,4 27,5 831,14 1100,17 -2,0 -3,0 -5,0 269,-1 538,0 806,1 -598,-8 -1795,-19 -1795,-19 75,0 188,2 61,-4 -258,-4 -776,-13 -776,-13 -456,1 -913,4 -1370,3 395,-3 792,-4 1188,-5 -43,-1 -328,-3 -361,-9 123,-12 695,4 832,7 -30,0 -91,0 -91,0 l 121,0 c -15,0 -45,1 -45,1 294,3 658,0 806,15 76,1 229,1 229,1 -21,0 -61,1 -61,1 841,9 1683,26 2525,34 74,1 1068,12 1080,-10 19,-1 318,-5 441,-13 695,10 2084,38 2084,38 l -2914,37 2363,0 c 571,-15 1117,-31 1494,-36 3,12 -32,24 -90,36 l 150,0 0,762 c 54,-232 174,-756 170,-756 -1,-16 -4,-28 -14,-44 -10,-14 -21,-24 -38,-35 -18,-11 -34,-18 -57,-24 -25,-6 -44,-9 -71,-9 26,0 46,2 71,8 23,7 39,13 57,24 18,11 29,21 39,36 10,15 14,27 15,43 0,0 -4,277 -3,273 l -5,1232 z M 14624,402 c -506,-6 -983,-11 -1058,-13 140,5 283,9 428,13 l 630,0 z m -9670,0 c 24,-2 47,-3 69,-4 -1084,-17 -2187,-15 -3272,-20 -18,2 8,2 15,2 l -948,22 4136,0 z M 786,761 c -7,414 -18,1116 -24,1116 -47,1114 1,2305 24,3480 l 0,-4596 z m 0,4763 c -7,210 -15,481 -15,481 0,-101 -1,-301 -1,-301 l -17,554 c -36,1190 -17,2307 12,3489 2,-216 7,-649 7,-649 -3,-211 -10,-425 -9,-636 5,171 7,343 10,514 1,-89 1,-890 3,-893 0,-166 3,-499 3,-499 1,-159 5,-479 5,-479 0,-5 1,-10 2,-16 l 0,-313 -14,376 c -1,84 -1,254 -1,254 -9,-355 -15,-698 2,-1053 -1,78 -8,175 -1,253 8,-27 12,-85 14,-146 l 0,-936 z m 0,5540 -2,103 c 0,122 -14,291 0,404 l 2,-17 0,-490 z m 0,822 -2,5 c -3,25 -10,42 -21,66 6,88 13,175 20,263 -1,8 -6,125 -6,125 0,2 1,3 2,5 1,1 2,3 3,4 2,1 4,2 6,2 3,1 5,1 8,1 50,5 18,5 0,5 -2,0 0,0 0,0 43,0 88,0 131,0 307,-5 758,-8 1150,-10 l -1291,0 0,-466 z m 2132,466 c 55,2 169,3 184,3 -157,1 -123,2 -121,2 30,0 91,1 91,1 71,1 213,2 213,2 -19,3 13,7 15,7 -100,-3 -230,-6 -363,-8 -108,3 -228,1 -337,1 254,5 761,11 761,11 152,-2 301,-11 456,-12 -5,0 -15,0 -15,0 20,0 61,-2 61,-2 254,2 761,8 761,8 -71,0 -213,1 -213,1 116,1 350,1 350,1 152,1 456,1 456,1 -127,2 -380,4 -380,4 294,3 736,18 1017,6 -183,-8 -393,-7 -576,-10 53,0 404,2 422,-2 -193,-10 -426,-9 -620,-12 l 9,-2 -2171,0 z m 7011,0 c 147,3 294,6 445,8 l -60,0 c 10,0 29,1 29,1 46,1 180,5 107,-1 1060,-6 2058,27 3103,30 -86,0 -259,0 -259,0 107,1 320,4 320,4 10,-1 30,-2 30,-2 177,1 356,-1 533,4 l -396,0 c -66,-1 -198,-1 -198,-1 -507,-2 -1521,-5 -1521,-5 -877,-9 -1753,-20 -2631,-26 l 197,3 -15,0 441,6 -15,0 c 90,1 268,3 274,3 l -31,0 c 54,1 736,7 771,14 -69,5 -226,1 -299,1 1,-7 -319,-3 -335,-3 -370,-3 -1110,-16 -1110,-16 -730,-2 -2191,-7 -2191,-7 310,4 928,12 928,12 431,2 863,-6 1293,-2 -370,2 -1110,5 -1110,5 136,2 425,0 564,10 -648,9 -1326,-6 -1979,-6 869,48 2398,10 3484,15 473,5 928,2 1399,0 65,1 822,7 822,4 84,-2 63,-3 60,-3 264,0 791,-1 791,-1 153,2 457,5 457,5 39,-1 18,-2 15,-2 -56,-1 -167,-4 -167,-4 91,0 273,0 273,0 457,5 1370,14 1370,14 -31,8 -7,10 0,10 -401,-3 -1202,-11 -1202,-11 l 137,3 -685,-5 c 239,3 715,10 715,10 l 426,2 c -173,0 -517,2 -517,2 774,59 2262,32 3088,35 88,-4 -915,-17 -1019,-18 -215,-13 -501,-14 -746,-18 56,-1 168,-4 168,-4 187,3 515,15 692,7 -137,-10 -354,-10 -495,-13 46,-1 137,-3 137,-3 -177,-4 -355,-6 -532,-3 -70,-1 -209,-3 -213,-3 l 228,0 -257,-1 c 35,0 105,-1 105,-1 -81,0 -243,-1 -243,-1 -122,-3 -365,-8 -365,-8 -305,-3 -913,-9 -913,-9 30,-1 91,-2 91,-2 49,1 47,1 46,1 120,-1 77,-1 61,-1 -36,0 -107,-1 -107,-1 548,-4 1643,-12 1643,-12 456,3 1369,6 1369,6 104,0 1323,-4 1323,-2 l 796,3 c 223,1 1608,23 1829,0 -323,-17 -683,-11 -1012,-20 -9,-1 -5,-3 6,-3 l -2481,0 c 90,1 180,3 269,4 -304,-2 -913,-4 -913,-4 l -27,0 -6791,0 z m 29176,0 c -341,8 -863,21 -863,21 396,-7 1187,-19 1187,-19 66,-1 259,-1 506,-2 l -830,0 z m 2591,-3722 c 2,-164 4,-324 4,-324 23,618 69,1853 69,1853 -5,-207 -6,-415 -6,-621 5,111 6,231 17,342 4,-169 -10,-351 -16,-521 1,-134 4,-404 4,-404 -12,-273 -36,-818 -36,-818 16,152 33,-23 29,9 -10,-128 -29,-385 -29,-385 -5,88 -6,263 -6,263 -7,-169 -23,-508 -23,-508 -1,-322 -5,-968 -5,-968 -1,67 -1,153 -2,243 l 0,1839 z m -12566,3818 0,0 0,0 z m -498,18 c 21,0 43,0 64,0 l -64,0 z m 64,0 c 115,0 236,-1 297,0 l 46,1 -343,-1 z m 343,1 0,0 0,0 z m -503,13 1,0 -1,0 z M 6360,142 l 0,0 0,0 z m 3003,53 126,0 c -41,0 -83,0 -126,0 z m 126,0 49,0 c -16,0 -32,0 -49,0 z m 49,0 1,0 -1,0 z m -2012,14 c -10,0 -17,-1 -21,-1 343,-1 687,0 1030,1 -796,-10 -2388,-24 -2388,-24 246,28 945,20 1379,24 z m 843,41 -6,0 -10,0 16,0 z m -6,0 c -145,-4 -331,-2 -482,-3 -10,0 -30,-1 -30,-1 130,-2 502,-5 502,-5 182,1 412,7 486,-1 -142,-1 -426,-2 -426,-2 296,-5 586,-10 883,-9 96,1 1049,6 1049,5 -244,-14 -595,-9 -897,-13 232,-4 422,-3 654,0 -45,1 56,0 61,0 157,2 471,5 471,5 122,-1 365,-3 365,-3 -121,-2 -365,-5 -365,-5 -167,-1 -502,3 -502,3 142,-2 426,-4 426,-4 -172,-2 -517,-5 -517,-5 449,-3 904,7 1354,9 68,-1 792,-12 831,14 -58,13 -237,10 -299,10 -248,0 -745,0 -745,0 237,1 475,-1 711,1 -101,3 -213,2 -315,2 77,1 155,1 232,2 -146,1 -299,-1 -445,-3 -856,9 -1729,3 -2586,3 l -416,0 z m 436,45 c -24,0 -47,0 -70,0 45,0 90,0 135,1 -22,-1 -44,-1 -65,-1 z m -70,0 -17,0 5,0 12,0 z m -12,0 36,-1 c -74,-1 -147,-1 -217,-1 60,1 121,1 181,2 z m 147,1 c 158,0 317,1 477,1 -14,3 -2,5 0,7 -152,1 -456,3 -456,3 142,-2 426,-4 426,-4 -132,-2 -289,-5 -447,-7 z m 1192,-6 0,0 0,0 z m 1020,6 c 0,0 0,0 0,0 -25,-1 -55,-1 -86,-1 l 86,1 z m -86,-1 c -144,-1 -332,-3 -340,-3 93,0 212,1 340,3 z m -340,-3 0,0 0,0 z m 9354,-83 -60,-1 c 13,0 33,1 60,1 z m 11577,105 0,0 0,0 z m 742,2 4,0 -4,0 z m 3202,25 1152,8 c -238,-3 -715,-9 -715,-9 -38,0 -234,1 -437,1 z m -1891,-43 1,0 -1,0 z m -30334,12069 0,0 0,0 z m -638,-11 c -219,-2 -396,-3 -396,-3 131,2 264,2 396,3 z m 11119,40 -30,0 c 10,0 30,0 30,0 z m -4153,-29 0,0 0,0 z m 426,6 0,0 0,0 z m 259,3 0,0 0,0 z m 3940,38 0,0 0,0 z m 456,7 0,0 0,0 z m 563,-18 0,0 0,0 z m -29,-1 -1,0 1,0 z"
            style="fill:#FFE57F"
            id="event-description-path" />
    </g>
</svg>