<?xml version="1.0" encoding="UTF-8" standalone="no"?>
<svg
    xmlns:dc="http://purl.org/dc/elements/1.1/"
    xmlns:cc="http://creativecommons.org/ns#"
    xmlns:rdf="http://www.w3.org/1999/02/22-rdf-syntax-ns#"
    xmlns:svg="http://www.w3.org/2000/svg"
    xmlns="http://www.w3.org/2000/svg"
    xmlns:sodipodi="http://sodipodi.sourceforge.net/DTD/sodipodi-0.dtd"
    xmlns:inkscape="http://www.inkscape.org/namespaces/inkscape"
    width="80"
    height="100"
    id="svg2"
    version="1.1"
    inkscape:version="0.48.4 r9939"
    sodipodi:docname="ruble_sign.svg">
   <metadata
       id="metadata10">
      <rdf:RDF>
         <cc:Work
             rdf:about="">
            <dc:format>image/svg+xml</dc:format>
            <dc:type
                rdf:resource="http://purl.org/dc/dcmitype/StillImage" />
         </cc:Work>
      </rdf:RDF>
   </metadata>
   <defs
       id="defs8" />
   <sodipodi:namedview
       pagecolor="#ffffff"
       bordercolor="#666666"
       borderopacity="1"
       objecttolerance="10"
       gridtolerance="10"
       guidetolerance="10"
       inkscape:pageopacity="0"
       inkscape:pageshadow="2"
       inkscape:window-width="640"
       inkscape:window-height="480"
       id="namedview6"
       showgrid="false"
       inkscape:zoom="8"
       inkscape:cx="36.25"
       inkscape:cy="32.5"
       inkscape:current-layer="svg2" />
   <path
       style="fill-rule:evenodd"
       d="M 17,0 52.50000597,0 C 59.69948913,0 66.98447771,3.09359867 71.94544034,8.054563647 76.9064025,13.01552816 79.99999403,20.30051708 79.99999403,27.5 c 0,7.19948292 -3.09359153,14.48447184 -8.05455369,19.44543635 C 66.98447771,51.90640133 59.69948913,55 52.50000597,55 L 31,55 l 0,10 37,0 0,14 -37,0 0,21 -14,0 0,-21 -17,0 0,-14 17,0 0,-10 -17,0 0,-14 17,0 z m 14,14 21.50000597,0 c 4.58148929,0 9.27387947,1.9131585 12.37436732,5.12563141 2.06916322,2.14389835 3.12563268,5.39481551 3.12563268,8.37436859 0,2.97955308 -1.05646946,6.23047024 -3.12563268,8.37436859 C 61.77388544,39.0868415 57.08149526,41 52.50000597,41 L 31,41 z"
       id="path4"
       inkscape:connector-curvature="0"
       sodipodi:nodetypes="csasascccccccccccccccccsaaascc" />
</svg>
