<svg id="city_osk" data-name="osk" xmlns="http://www.w3.org/2000/svg" width="52.5mm" height="52.5mm" viewBox="0 0 148.82 148.82">
  <title>osk</title>
  <g id="osk">
    <path d="M89.91,77.1V72.6H89.09V77.1h0.82Zm2.27,0V72.6H91.36V77.1h0.82Zm2.27,0V72.6H93.63V77.1h0.82Zm2.27-.62V72.6H95.9V77.1h0.62A5.29,5.29,0,0,0,96.72,76.48ZM95.3,78.69l0.26,0.48,0.26-.48H95.3Zm21.4-6.07v4.51h0.82V72.62H116.7Zm-2.27,0v4.51h0.82V72.62h-0.82Zm-2.27,0v4.51H113V72.62h-0.82Zm-2.27,0v4.51h0.82V72.62H109.9Zm-8.53,35.18a7,7,0,0,1-2.64.62c0,7.17.43,14.29,0.74,21.46,0.09,1.64.2,1.59-.85,0.34a28.21,28.21,0,0,1-5-9.69c-2-6.24-2.55-13-2.78-19.5-0.09-2.92-.09-5.81.06-8.73s0.26-5.75,1.47-8.36a14.27,14.27,0,0,1,.79-1.39c0.2-.31.43-0.62,0.68-1l-1.39-2.83H86.8V77.19h0.82V72.68H86.94c-0.17,0-.14,0-0.14-0.14V71.26c0-.17,0-0.14.14-0.14h1.73L89.91,70a0.1,0.1,0,0,1,.09,0l1.53-.09a0.22,0.22,0,0,1,.14.06l0.79,1.22h4.9l0.09-1.59a1.75,1.75,0,0,1,.54-1.3,2.19,2.19,0,0,1,1.08-.48,26.29,26.29,0,0,1,4.14-.4,19,19,0,0,1,3.91.28c1.7,0.31,1.7.91,1.76,2.83v0.65h10.63c0.17,0,.14,0,0.14.14v1.28c0,0.17,0,.14-0.14.14h-0.68v4.51h0.68c0.17,0,.14,0,0.14.14V78.6c0,0.17,0,.14-0.14.14h-8.9q0.68,1.19,1.45,2.3c1.3,2,2.47,3.74,2.61,6.6,0,0.74.09,1.45,0.11,2.18a110.32,110.32,0,0,1-.06,13.35,57.35,57.35,0,0,1-2.52,13.27c-1.56,4.82-3.94,10.15-7.94,13.38-1,.82-0.91.88-0.79-0.43l1-11.25c-0.91-.28-1.33-1.81-1.47-2.61-0.26-1.39-.62-2.78-1-4.17-0.28-1.16-.62-2.35-0.82-3.54Z" style="fill: #fc0"/>
    <path d="M41.61,79.17a10.47,10.47,0,0,0-3.54,1.64c-4.17,3-6.6,7.88-8.65,12.47a2.58,2.58,0,0,0-.2,2,6.38,6.38,0,0,0,1.93,2.92,17.79,17.79,0,0,0,6.21,3.94,3.63,3.63,0,0,0,1.11.37c0.6,0.06.71-.14,0.74-0.62a21.18,21.18,0,0,1,.77-4c1.62-5.78,3.4-11.65,6.83-17,0.14-.23.4-0.77,0.77-0.62,0.11,0.06.14,0.23,0,.45-0.48.68-.11,0.85,0.45,0.4L48.16,81l1-.79a5.45,5.45,0,0,1,2.32-1.28c1.28-.28,2.61-0.34,3.83-0.65a3.14,3.14,0,0,0,2.38-1.59,5.79,5.79,0,0,0-.11-5.75,4.69,4.69,0,0,1-1-2.1c0-.31-0.06-0.34.23-0.2a18.31,18.31,0,0,0,6.49,2.18,12.53,12.53,0,0,0,7.77-1.47c3.4-1.9,6.21-5,8.9-7.77,3-3.29,6.09-6.6,9-10.09A80.51,80.51,0,0,0,94.56,43c1.87-3.51,2.61-7.46,4.25-11a1.58,1.58,0,0,0,.37-1.19v0.06L112.31,20.1l0-.45-1.22-1.81-0.88-.14L54.34,62.16l-0.74.06a3,3,0,0,0-2.75-1,3.31,3.31,0,0,0-.91,1.28C51,62.5,52.33,62,52.13,63.67l-0.57.48A6.35,6.35,0,0,0,50,65.82l-0.37.06c-0.17-.6-0.54-0.48-1.11-0.51l-0.34-.54c-0.37-.57-0.37-0.85,0-1.19,0.2-.17.43-0.31,0.62-0.45,0.4-.28.43-0.51,0.06-0.77A1.68,1.68,0,0,0,48,62.14a0.76,0.76,0,0,0-.74.43c-0.14.17-.11,0.2-0.28,0S46.54,62,46,62.25l-0.91.45c-0.31.14-.37,0.26-0.23,0.43a6.66,6.66,0,0,1,.54.71,1.44,1.44,0,0,1,.71,1.25,1.09,1.09,0,0,0,.37.74,2.76,2.76,0,0,0,.51.77,1.85,1.85,0,0,1,.71,1.11,1.88,1.88,0,0,0,.26.54L48,68.34a0.7,0.7,0,0,1,.11.74c-0.09.37-.23,0.11-0.85,0.51-2,1.22-4,7-5.58,9.38a0.28,0.28,0,0,1-.23.17ZM58.28,66.61c1.59,1.3,3,2.47,5.22,2.58a13.45,13.45,0,0,0,7.06-1.39C73.64,66.13,76.37,63,79,60.32a133.13,133.13,0,0,0,8.93-10,63.85,63.85,0,0,0,5.5-8.22c1.84-3.2,2.78-6.58,4.17-10L61.26,62c-0.62,2-1.76,2.89-3,4.25-0.2.23-.23,0.2,0,0.4h0ZM50.4,78.09a2,2,0,0,1,.14-1.39A5.31,5.31,0,0,1,51.73,75,11.06,11.06,0,0,0,53,73.36c0.09-.14.09-0.11,0.17,0,1,1.25,1.47,1.76,3.15,1.59l0.11-.45c-1.11.14-2.52-1.45-1.62-2.55a5.16,5.16,0,0,0,.68-0.82,2.91,2.91,0,0,0,0-1A0.18,0.18,0,0,1,55.5,70l0.4-.51c0.09-.11.09-0.11,0.17,0a5.32,5.32,0,0,1,.77,1.19,7.74,7.74,0,0,1,.6,2.13,5,5,0,0,1-.26,3.34,2.87,2.87,0,0,1-1.9,1.3c-1.56.34-3.09,0.06-4.71,0.77-0.17.09-.14,0.06-0.17-0.11v0Z"/>
  </g>
</svg>
