<?xml version="1.0" encoding="UTF-8" standalone="no"?>
<svg
    xmlns:dc="http://purl.org/dc/elements/1.1/"
    xmlns:cc="http://creativecommons.org/ns#"
    xmlns:rdf="http://www.w3.org/1999/02/22-rdf-syntax-ns#"
    xmlns:svg="http://www.w3.org/2000/svg"
    xmlns="http://www.w3.org/2000/svg"
    xmlns:sodipodi="http://sodipodi.sourceforge.net/DTD/sodipodi-0.dtd"
    xmlns:inkscape="http://www.inkscape.org/namespaces/inkscape"
    id="city_bel"
    data-name="bel"
    width="52.5mm"
    height="52.5mm"
    viewBox="0 0 148.82 148.82"
    version="1.1"
    inkscape:version="0.91 r13725"
    sodipodi:docname="_abakan.svg">
   <metadata
       id="metadata12">
      <rdf:RDF>
         <cc:Work
             rdf:about="">
            <dc:format>image/svg+xml</dc:format>
            <dc:type
                rdf:resource="http://purl.org/dc/dcmitype/StillImage" />
            <dc:title></dc:title>
         </cc:Work>
      </rdf:RDF>
   </metadata>
   <defs
       id="defs10" />
   <sodipodi:namedview
       pagecolor="#ffffff"
       bordercolor="#666666"
       borderopacity="1"
       objecttolerance="10"
       gridtolerance="10"
       guidetolerance="10"
       inkscape:pageopacity="0"
       inkscape:pageshadow="2"
       inkscape:window-width="640"
       inkscape:window-height="480"
       id="namedview8"
       showgrid="false"
       inkscape:zoom="1.268656085"
       inkscape:cx="93.01181102"
       inkscape:cy="93.01181102"
       inkscape:current-layer="city_bel" />
   <g
       style="clip-rule:evenodd;fill-rule:evenodd;image-rendering:optimizeQuality;shape-rendering:geometricPrecision;text-rendering:geometricPrecision"
       id="abakan"
       transform="matrix(0.0283466687,0,0,0.0283466716,-0.3779603675,1.716536053)">
      <path
          class="fil2"
          d="m 2639,3889 c 19,52 38,104 57,157 17,47 4,82 -22,113 -22,-44 -54,-66 -97,-66 -37,-48 -152,-94 -293,-27 -48,20 -43,34 -31,48 -34,26 -77,52 -103,78 49,-2 85,10 107,35 50,49 119,38 186,35 137,-17 187,4 198,41 -8,73 -15,146 0,219 0,84 31,91 59,103 -21,-77 -27,-158 -26,-241 18,-10 45,-3 80,20 60,37 86,68 107,99 16,-18 73,-24 128,-31 -30,-28 21,-40 95,-47 10,-22 41,-31 84,-31 -6,-19 13,-41 56,-66 -48,-52 67,-86 132,-62 -13,-34 7,-49 60,-45 -47,-31 -6,-54 74,-74 -46,-16 -86,-38 -115,-70 -26,-47 -85,-54 -149,-56 -53,11 -56,-8 -10,-58 -43,6 -85,11 -128,17 -45,9 -48,-7 -10,-48 -40,24 -77,33 -112,29 -89,17 -150,43 -146,93 -39,130 -96,207 -148,249 -7,19 13,7 61,-35 59,3 117,-5 176,-18 -75,47 -153,84 -233,109 -14,-33 -45,-59 12,-122 83,-80 59,-166 41,-251 -9,-32 -19,-65 -29,-97 -20,-14 -41,-14 -61,0 z"
          id="path1507"
          inkscape:connector-curvature="0"
          style="fill:#000000" />
      <path
          class="fil2"
          d="m 3717,672 c 65,2 109,33 132,94 173,207 269,432 292,681 17,232 15,448 -25,646 -24,119 -58,200 -123,176 -161,3 -322,6 -483,10 -60,-17 -76,-56 -85,-98 -17,-56 6,-221 47,-436 -78,-262 -102,-449 -47,-527 107,-234 111,-564 292,-546 z M 2314,956 c 14,-57 52,-75 113,-53 232,-11 391,-81 535,-164 47,-47 89,-47 128,0 228,454 151,699 116,972 -56,206 -52,392 12,558 -248,82 -532,51 -803,63 -27,-8 -55,-16 -83,-24 24,-185 -13,-366 -92,-544 -86,-379 -8,-596 74,-808 z M 1430,631 c 138,69 239,249 311,446 21,144 88,294 63,432 -24,250 -13,507 9,765 -172,-3 -343,-6 -515,-9 -31,-16 -61,-32 -92,-49 -11,-154 -30,-294 -40,-448 -35,-130 -110,-239 -95,-403 2,-121 16,-239 57,-351 77,-174 172,-317 302,-383 z m -17,-6 c -289,189 -477,660 -290,1100 19,20 18,40 10,60 7,4 20,9 27,13 16,531 33,422 50,440 32,33 29,-17 33,-50 23,-168 -37,-335 -80,-503 -156,-550 31,-875 267,-1047 -6,-4 -11,-9 -17,-13 z m 104,67 c -5,-17 -31,-21 -51,-4 -24,13 65,61 84,111 14,37 42,35 36,-23 -21,-29 -45,-54 -69,-84 z m -158,93 c 16,165 214,180 263,197 -133,-4 -257,-19 -280,-164 -2,-30 4,-41 17,-33 z m -72,124 c 38,24 63,63 67,124 26,67 66,89 124,45 8,-29 17,-37 25,-23 5,10 19,17 30,15 13,16 18,25 36,22 23,-6 45,-10 68,-16 4,-18 17,-20 22,0 2,39 -13,49 -36,47 -37,0 -72,12 -106,33 -8,4 -17,8 -25,13 -33,33 -48,29 -38,-12 -14,-9 -17,-23 -19,-32 -82,11 -111,-41 -130,-107 -17,-52 -23,-88 -18,-109 z m 120,323 c -82,-104 -107,-97 -116,-57 -5,22 23,67 44,115 5,29 13,33 23,13 0,-28 -67,-128 -44,-129 12,-13 46,30 81,74 22,10 26,4 12,-16 z m 200,-67 c -194,82 -250,219 -243,334 3,43 1,87 9,128 15,47 35,96 112,164 23,22 50,36 78,49 42,0 84,0 127,0 28,2 7,-29 -14,-35 -54,3 -101,3 -130,-25 -64,-52 -144,-80 -166,-172 -6,-18 -4,-55 2,-61 4,-58 8,-111 24,-167 22,-89 98,-155 222,-201 27,-4 24,-30 -21,-14 z m -149,255 c 60,2 102,14 132,34 21,7 30,12 19,23 -14,28 -11,-10 -24,-10 -29,0 -58,-1 -87,-1 0,-5 0,-11 0,-16 -18,-2 -35,-4 -52,-5 -33,-4 -25,-37 12,-25 z m 96,-97 c 51,15 45,33 32,48 -29,18 -43,11 -51,-8 -18,-17 -18,-53 19,-40 z m -22,-76 c 61,-9 172,48 163,130 0,18 0,36 0,54 -10,17 -16,36 -20,56 0,21 -10,23 -18,6 -8,-24 20,-51 15,-88 -9,-22 5,-48 -15,-48 -13,-23 -17,-35 -29,-61 -21,-41 -88,-36 -96,-49 z m -99,384 c 51,-34 101,-68 151,-102 16,3 23,7 23,12 -1,2 -2,4 -3,6 -44,32 -88,64 -132,96 -23,2 -34,-3 -39,-12 z m 279,-652 c 45,66 56,135 55,205 12,51 24,103 36,155 9,84 -15,140 -29,73 -17,-69 -31,-136 -37,-201 -1,-59 -14,-119 -49,-193 -29,-81 -20,-96 24,-39 z m 99,577 c -5,38 -8,76 -10,114 -1,98 -7,148 -24,89 -1,-45 -1,-90 -1,-135 -3,-45 11,-73 15,-117 7,-89 21,-51 20,49 z m -102,77 c 29,-5 29,14 24,35 1,21 -10,30 -31,21 -45,-9 -70,-19 -32,-46 9,-8 20,-13 39,-10 z m -1,-57 c -35,9 -97,13 -115,59 -30,41 -23,65 8,76 32,-1 63,1 74,20 57,7 75,37 18,25 -29,1 -34,-14 -59,-20 -14,0 -29,-1 -44,-1 -22,-17 -39,-37 -28,-68 27,-81 80,-100 146,-91 z m -335,212 c 10,-20 21,-18 33,-6 26,17 30,25 15,37 -15,25 -30,51 -42,65 -12,12 -14,21 -12,28 2,45 -3,83 -7,122 0,18 -2,35 -7,47 -5,-17 -7,-44 -8,-74 -14,-32 -9,-63 -13,-96 -8,-10 -5,-45 -4,-75 15,-16 30,-32 45,-48 z m 101,69 c 7,-24 62,3 49,26 -19,30 -30,67 -35,112 -9,27 -10,51 -13,77 -38,70 -29,68 -34,8 6,-67 -27,-110 5,-164 10,-20 19,-39 28,-59 z m 110,47 c -4,-34 16,-35 33,-8 1,12 2,19 6,20 10,11 19,23 28,34 -2,7 5,7 10,8 21,11 42,22 63,32 -54,-3 -109,-5 -140,-86 z m 48,129 c 7,-10 22,-8 21,4 1,9 -38,34 -22,72 10,20 16,27 34,25 11,9 26,16 42,17 32,9 29,23 9,24 -17,1 -40,-4 -67,-13 -27,-22 -45,-40 -45,-64 -1,-24 7,-46 28,-65 z m 68,35 c 17,-14 28,-11 32,11 2,22 -2,35 -18,30 -12,0 -19,-7 -23,-19 -4,-4 -1,-11 9,-22 z m 70,-280 c 9,6 18,13 27,20 5,193 15,306 18,383 15,59 11,84 20,92 -20,3 -39,6 -58,10 -4,-170 -11,-340 -7,-505 z m -476,432 c 115,-3 193,0 234,12 51,0 102,1 153,1 28,-1 38,17 40,44 -132,0 -263,0 -395,0 -21,-3 -33,-25 -32,-57 z M 2419,873 c 180,1 354,-48 522,-154 42,-21 37,9 35,20 -132,91 -305,156 -551,173 -30,8 -37,-34 -6,-39 z m 139,149 c -1,-6 -1,-12 -2,-18 33,-17 58,-24 69,-7 21,25 23,42 6,51 -9,-1 -17,-1 -26,-1 -13,28 -32,32 -53,27 -16,-15 -30,-36 6,-52 z m 263,-80 c -1,-5 -1,-10 -1,-15 7,-1 15,-2 23,-2 15,-11 29,-10 43,-7 2,-2 4,-4 6,-6 39,-6 44,3 39,16 -6,7 -6,16 1,25 35,25 29,38 26,52 -5,3 -13,5 -29,3 -5,1 -4,8 -6,16 -4,7 -16,8 -24,8 -9,17 -23,30 -40,41 -9,-6 -19,-12 -28,-18 23,-39 29,-65 2,-71 -23,-4 -33,-13 -32,-26 4,-14 11,-17 20,-16 z m 164,169 c 15,-63 47,-64 39,-112 0,-51 6,-87 32,-66 0,7 4,11 13,12 6,1 9,4 10,7 -14,12 -18,22 -2,28 0,5 0,10 0,15 -9,8 -11,20 -8,34 -19,21 -19,33 -8,52 -1,13 -36,0 -44,31 -10,22 -23,37 -39,45 -19,7 -25,-17 7,-46 z m 34,130 c 20,-5 42,-40 65,-80 16,7 24,20 23,42 -1,4 -1,7 -1,11 -18,12 -22,24 -13,37 14,16 17,26 8,30 -10,16 -24,16 -36,8 -21,-3 -40,-1 -36,-27 -9,-3 -10,-11 -10,-21 z m -433,-120 c 12,0 23,0 35,0 3,10 51,4 54,-6 28,-1 56,-1 84,-2 69,9 113,33 140,67 29,27 52,51 53,70 44,78 57,143 66,218 -5,25 -13,62 -2,74 -5,13 -11,27 -16,41 -1,32 -2,65 -3,97 0,17 1,34 2,52 -9,13 -19,25 -17,54 -8,15 -15,30 -22,45 -4,13 -7,27 -10,41 -4,9 -7,18 -11,27 -8,12 -20,19 -35,21 -37,25 -65,45 -82,59 -16,5 -32,11 -48,16 1,9 21,9 48,3 19,-13 33,-21 52,-26 29,-7 37,3 41,15 10,38 20,76 30,114 20,17 34,35 26,52 -10,18 -10,36 2,54 15,37 64,58 77,28 1,-50 2,-99 -32,-121 -23,-17 -48,-32 -64,-88 10,-33 13,-62 -10,-73 -25,-12 -25,-29 4,-45 26,-17 3,-47 42,-107 8,-23 16,-46 24,-69 -4,-43 -2,-87 4,-132 -1,-25 6,-42 21,-52 6,-10 9,-21 7,-34 18,-20 41,-26 59,-8 0,27 16,29 26,20 -4,-35 -45,-77 -10,-93 39,-37 3,-76 -9,-42 -14,21 -21,31 -35,52 -19,58 -32,56 -43,36 -19,-100 -27,-204 -99,-292 -34,-32 -67,-65 -145,-92 -32,-12 -67,-18 -114,-2 -33,-1 -70,-4 -62,13 -44,-1 -53,4 -28,15 z m 15,37 c -113,43 -131,104 -150,164 -25,112 -34,234 28,400 8,58 61,106 133,212 10,12 20,25 30,37 45,7 66,17 88,26 -53,-8 -104,-15 -101,8 0,27 -8,45 -17,61 -24,48 -46,75 -67,85 13,30 23,60 16,78 -14,36 -30,43 -46,26 -21,-12 -33,-31 -27,-63 -5,-37 24,-51 45,-70 30,-41 53,-83 68,-127 -2,-14 3,-22 15,-24 -5,-9 -15,-20 -20,-29 -50,-80 -120,-130 -141,-212 -28,-82 -43,-156 -41,-228 4,-90 7,-132 7,-165 -17,-14 -25,-25 -34,-45 -31,-14 -48,-18 -69,-37 -8,1 -13,2 -22,4 7,-38 21,-57 41,-70 14,1 25,-7 17,-67 9,-53 24,-57 43,-13 12,41 -2,73 -28,101 19,15 32,37 39,67 26,9 48,12 47,-15 18,-54 50,-89 93,-106 35,-7 53,-6 53,2 z m -200,767 c 3,-34 10,-44 22,-31 29,11 42,30 47,53 13,1 26,2 40,2 35,4 26,16 13,26 -9,-1 -7,12 -8,22 -21,14 -30,32 -33,51 -24,13 -35,10 -33,-12 0,-19 0,-38 -21,-57 -18,-17 -30,-35 -27,-54 z m 13,-99 c 19,-4 31,-2 43,1 -11,-27 -26,-54 -58,-84 -27,-18 -44,-44 -54,-80 -3,4 -6,8 -9,12 -14,39 -5,67 16,90 17,13 20,37 18,66 18,17 33,16 44,-5 z m -42,-229 c -3,-6 -7,-13 -11,-19 0,-14 -8,-24 -23,-28 -6,-6 -12,-12 -18,-18 -14,-8 -21,-5 -22,9 0,12 -1,26 -3,41 -2,6 13,9 46,10 8,6 19,7 31,5 z m -69,-257 c 3,20 14,30 35,30 13,5 14,13 15,23 19,-5 26,2 20,22 1,18 1,36 1,54 -13,-10 -18,-40 -57,-40 -9,1 -19,1 -28,2 -10,-12 -22,-23 -17,-37 -2,-15 7,-23 18,-29 1,-15 2,-28 13,-25 z m 331,-139 c -44,-7 -103,72 -138,187 -25,58 -21,116 -9,174 13,125 57,218 130,291 54,71 117,108 201,69 78,-31 117,-116 130,-237 1,-50 3,-100 19,-150 -4,-2 -9,-3 -13,-5 11,-7 20,-15 15,-28 -12,-18 -16,-35 -13,-53 -1,-40 -26,-112 -60,-194 -41,-60 -92,-112 -178,-85 -9,18 61,-24 126,38 -22,6 -36,15 -41,26 -44,25 -60,-19 -88,-14 -25,3 -42,41 -98,42 -31,1 -41,-26 17,-61 z m -69,73 c 39,0 67,13 71,54 -2,48 -42,47 -80,48 23,11 45,23 84,8 20,-10 40,-5 60,15 19,9 16,17 -10,26 -39,-4 -79,-7 -119,-11 -29,-4 -30,19 0,17 50,7 106,12 166,15 9,4 19,1 28,-10 32,-25 73,-32 125,-38 10,-3 28,-6 40,-5 9,24 13,48 13,71 2,19 -7,22 -23,17 -70,-17 -124,-20 -170,-17 -44,3 -79,13 -108,26 -13,-1 -23,3 -26,21 -22,-3 -34,4 -36,21 -29,5 -50,15 -54,35 -18,4 -24,1 -26,-15 -11,-137 21,-216 65,-278 z m 200,47 c 0,-2 -52,29 -59,-3 -2,-12 2,-18 7,-20 35,-10 40,26 51,17 1,-19 -6,-56 -36,-64 -36,-9 -54,12 -69,38 -5,19 7,38 37,58 21,39 38,77 69,71 13,-4 40,-15 75,-32 15,-6 51,-8 -19,-25 -20,-10 -32,-8 -43,-3 -23,-2 -24,-5 -13,-37 z m 46,-81 c -38,31 -37,63 -19,94 30,8 55,19 73,34 10,-6 24,-10 45,-11 14,-3 13,-15 -1,-33 -9,2 -14,1 -14,-2 1,-2 3,-5 4,-7 3,-25 -6,-37 -14,-49 -8,-35 -36,-38 -74,-26 z m 25,36 c 8,0 16,0 23,0 2,6 4,12 6,18 -2,13 -9,21 -22,24 -14,1 -26,-2 -27,-22 1,-11 8,-18 20,-20 z m -253,52 c 1,-17 27,2 23,12 -4,9 -21,3 -21,3 -14,-7 -15,-12 -2,-15 z m -63,265 c 8,-4 16,-8 20,-17 20,-10 40,-26 60,-45 12,4 23,-4 35,-24 31,2 62,-7 75,-14 12,-8 69,2 82,-7 13,-9 24,5 67,7 43,1 88,26 83,51 -1,36 -3,71 -4,107 0,7 -1,14 -2,21 -36,12 -28,23 -14,34 -12,145 -71,199 -151,212 -93,12 -143,-72 -198,-147 -9,-16 -19,-33 -28,-49 -6,-12 -4,-21 5,-28 23,-16 46,-34 65,-58 14,0 25,-5 34,-18 14,-15 27,-13 40,-3 12,11 24,10 36,-4 26,-28 47,-35 63,-23 23,-1 39,4 50,15 13,11 26,11 39,0 11,-6 23,-12 34,-18 -1,-7 -13,-6 -37,5 -13,4 -29,0 -47,-14 -30,-28 -56,-42 -76,-21 -24,33 -46,58 -55,31 -28,-30 -51,-22 -72,3 -19,29 -41,58 -70,85 -15,21 -23,21 -26,1 -6,-19 -12,-38 -19,-58 -1,-13 2,-21 11,-24 z m 90,141 c 118,-74 181,-87 219,-74 61,16 95,28 69,33 -10,10 -17,9 -19,-1 -22,-25 -64,-25 -116,-13 -58,21 -107,44 -143,68 -28,16 -36,4 -10,-13 z m 113,51 c 27,2 43,-10 65,-31 32,-16 53,-20 48,1 5,23 -2,31 -19,31 -23,3 -42,7 -50,14 -20,-1 -36,1 -46,8 -35,18 -23,-51 2,-23 z m 328,-60 c 1,-5 11,-5 31,-1 5,9 16,18 43,30 29,12 21,30 8,48 -34,22 -44,38 -33,50 15,41 16,70 -11,71 -21,8 -38,12 -30,-18 -9,-31 -6,-57 7,-77 14,-18 9,-35 -3,-52 1,-17 -3,-34 -12,-51 z m 6,-999 c 45,90 255,377 133,975 -16,75 -30,161 -35,269 -12,113 32,240 70,323 10,-4 15,-8 25,-12 -80,-141 -95,-317 -42,-528 97,-350 92,-687 -99,-1016 -38,-48 -47,-34 -52,-11 z m -753,214 c -101,203 -121,421 -110,645 37,269 101,378 115,504 10,75 9,150 -2,226 18,25 29,29 34,13 10,-84 8,-172 -3,-263 -10,-171 -95,-255 -115,-488 -13,-225 12,-437 105,-627 27,-80 19,-84 -24,-10 z m 84,1382 c 214,2 425,0 624,-13 73,-20 108,-17 145,-15 -42,29 -86,55 -142,49 -202,19 -392,19 -580,16 -78,2 -94,-10 -47,-37 z M 3771,1009 c 2,-23 9,-45 22,-65 22,-53 35,-39 16,5 -11,39 -6,76 5,112 4,46 46,41 52,-4 2,-66 36,-109 34,-33 -10,54 -14,115 -7,162 2,76 42,41 40,0 26,-91 44,-68 30,-2 -3,101 -17,190 -37,273 -8,39 -39,41 -25,1 -1,-64 6,-126 -35,-196 -13,-33 -44,-46 -41,-68 -31,-50 -66,-98 -105,-145 -19,-34 6,-45 23,-22 9,15 18,10 28,-18 z m -100,138 c -17,-32 -10,-34 21,-7 35,41 71,86 106,140 18,47 32,91 42,132 0,20 -4,40 -15,60 -23,14 -36,-5 -22,-13 19,-26 27,-54 9,-88 -27,-72 -59,-125 -94,-170 -21,-15 -36,-34 -47,-54 z m -24,156 c 11,-28 30,-12 49,0 7,12 4,25 -11,37 -38,11 -70,18 -54,-5 8,-7 13,-17 16,-32 z m -143,127 c -7,-91 26,-169 121,-225 24,-6 42,-9 18,10 -63,32 -103,90 -123,171 -2,20 1,32 9,39 -3,22 -16,22 -25,5 z m -33,68 c 58,-11 110,-40 162,-78 25,-32 52,-27 80,-11 63,24 52,50 9,34 -21,-10 -42,-18 -64,-5 -58,15 -79,49 -143,71 -60,9 -76,6 -44,-11 z m 242,-760 c 1,-27 28,-19 19,13 0,305 -136,397 -202,449 -51,33 -62,33 -28,2 172,-143 188,-251 208,-384 1,-27 3,-53 3,-80 z m -196,1058 c 34,-22 67,-44 101,-66 49,-34 83,-61 94,-79 26,-36 52,-63 78,-85 24,-33 29,-27 7,12 -44,69 -98,125 -158,174 -29,24 -63,46 -106,65 -12,6 -17,-1 -16,-21 z m 6,98 c 27,-13 51,-21 91,-62 25,-29 57,-53 93,-74 36,-35 63,-62 112,-116 -4,-14 14,-37 37,-64 24,-30 34,-25 28,17 -28,34 -54,69 -77,106 -35,39 -72,75 -113,109 -20,27 -46,52 -88,66 -23,16 -45,27 -68,34 -32,13 -32,-18 -15,-16 z m -32,-255 c 13,-8 26,-16 38,-24 28,-11 42,-8 43,9 -1,34 -9,47 -23,38 -20,-6 -32,-4 -38,4 -13,15 -20,15 -21,-2 1,-9 1,-17 1,-25 z m -29,421 c 10,-36 46,-23 46,11 10,35 7,49 -8,42 -36,8 -49,1 -40,-20 4,-7 4,-18 2,-33 z m 23,-61 c 29,-3 56,11 80,42 -2,20 23,23 24,1 -9,-31 -33,-55 -90,-64 -37,-8 -38,18 -14,21 z m -8,171 c 56,4 90,-14 101,-53 4,-25 22,-20 17,14 -1,44 -35,48 -63,69 -29,3 -46,1 -56,-5 -24,-4 -19,-30 1,-25 z m 213,-277 c -14,-11 -23,-22 5,-39 22,-15 42,-25 49,2 20,28 32,56 40,84 -2,97 0,168 16,171 17,11 20,19 7,24 29,18 30,27 2,26 -27,-13 -48,-40 -63,-81 -1,-42 -1,-84 -2,-126 -15,-28 -33,-48 -54,-61 z m 109,-102 c 18,-24 30,-48 36,-71 35,27 62,73 77,148 18,58 19,106 4,146 -4,41 -1,74 10,98 25,73 13,67 -4,49 -35,-30 -42,-79 -32,-139 8,-63 -3,-109 -22,-147 -23,-41 -46,-73 -69,-84 z m -330,473 c 33,0 65,0 98,0 0,6 0,13 0,19 60,0 119,1 179,1 14,1 27,2 41,4 32,-1 65,-2 98,-3 7,-8 21,-13 44,-15 22,-3 23,6 44,-11 20,-16 30,-33 42,-4 12,28 0,28 -15,34 -29,0 -65,7 -109,22 -10,15 -61,14 -117,10 -71,0 -125,-3 -169,-6 -74,-8 -116,-26 -136,-51 z M 3824,744 c 129,198 279,357 307,728 22,230 22,427 -28,590 -9,42 -19,84 -28,126 -30,58 2,102 19,15 20,-78 57,-172 67,-289 8,-93 -3,-190 2,-295 2,-39 -4,-81 -7,-125 -2,-178 -44,-354 -150,-527 -68,-84 -121,-173 -176,-261 -44,-33 -46,-21 -6,38 z m -94,-63 c -20,16 -117,1 -164,154 -59,123 -81,247 -113,370 -40,88 -71,168 -48,226 28,96 56,194 66,291 33,-22 60,-28 81,-21 25,-19 49,-38 74,-58 16,-30 11,-51 -14,-64 -25,22 -42,16 -50,-21 -25,15 -65,20 -104,33 3,-7 9,-33 39,-34 19,-6 38,-12 57,-18 36,-7 66,-6 81,11 21,28 30,55 25,82 -8,37 -26,56 -51,55 -8,8 -15,20 -27,14 -15,21 -29,18 -44,21 -18,17 -35,22 -53,14 -4,24 -8,47 -11,71 0,53 -7,103 -19,152 -17,70 -27,138 -22,200 19,87 23,133 -8,86 -24,-59 -26,-122 -17,-185 15,-81 30,-163 45,-244 -7,-67 -6,-132 -29,-204 -10,-35 -19,-69 -29,-104 -21,-62 -32,-130 -8,-222 36,-89 69,-188 101,-293 29,-95 37,-192 116,-282 40,-39 82,-49 126,-30 z"
          id="path1509"
          style="fill:#000000" />
      <path
          class="fil2"
          d="m 2108,3156 c 28,-77 93,-143 242,-154 34,-61 116,-85 205,-102 106,-21 164,-19 172,4 41,23 60,46 57,69 216,-86 364,25 361,173 180,10 180,112 172,192 23,114 -27,206 -90,279 87,5 72,97 65,127 -22,122 -158,153 -262,168 -111,27 -185,16 -242,-12 -48,-7 -95,-14 -143,-21 -64,23 -129,47 -193,70 -370,90 -404,-62 -410,-258 -20,-45 -38,-91 -37,-136 -23,-54 -165,-189 103,-399 z"
          id="path1511"
          style="fill:#000000" />
      <path
          class="fil3"
          d="m 2444,3064 c -83,-21 -167,-32 -250,24 -83,79 -52,134 35,99 61,-102 166,-85 215,-123 z m -59,-37 c 37,-71 127,-96 241,-101 88,-12 107,-1 99,33 -14,46 -52,75 -115,93 -75,-37 -150,-32 -225,-25 z m -17,118 c -63,10 -112,45 -148,105 -8,25 15,36 68,33 32,-9 51,-32 56,-68 11,-21 19,-44 24,-70 z m 17,134 c -5,-95 23,-177 113,-194 161,-30 214,29 225,80 -43,-9 -87,-16 -130,-8 -33,0 -66,14 -99,41 -36,27 -73,54 -109,81 z m 282,-221 c 285,-194 493,5 438,109 -107,-135 -268,-134 -438,-109 z m 81,54 c 136,-70 237,-23 324,78 -99,106 -204,118 -324,-78 z m 297,138 c 152,-188 376,79 119,138 19,-73 0,-125 -119,-138 z m -454,-56 c -30,41 -60,83 -91,124 -29,-3 -57,-6 -76,-15 45,-58 100,-94 167,-109 z m -45,103 c 27,-34 53,-68 80,-103 15,38 19,76 13,114 -31,-4 -62,-7 -93,-11 z m 117,29 c 4,-39 7,-78 11,-117 24,36 49,72 74,109 -28,3 -57,5 -85,8 z m 52,-111 c 53,-24 116,71 183,78 -29,23 -76,19 -111,19 -24,-33 -44,-90 -72,-97 z m -520,76 c -99,63 -52,172 42,223 -21,7 -59,-163 -42,-223 z m -97,23 c 14,88 -6,184 143,243 -5,85 39,135 90,181 -255,-85 -417,-227 -233,-424 z m 306,-2 c -97,-17 -181,-17 -178,99 15,40 29,79 44,119 30,2 59,-4 68,-64 4,-64 38,-107 66,-154 z m -56,245 c 25,-21 36,-45 33,-72 -7,-55 16,-92 53,-120 16,-24 139,-18 256,-14 152,51 228,118 270,192 -1,29 -5,57 -29,76 -8,78 -41,114 -99,109 -105,34 -194,41 -272,31 -103,1 -173,-25 -216,-74 -106,-94 -62,-116 4,-128 z m 466,-204 c 252,-98 371,-87 299,84 -39,27 -77,54 -116,81 -65,-86 -123,-120 -183,-165 z m -709,361 c 101,159 273,173 484,107 -166,-9 -329,-38 -484,-107 z m -17,47 c -14,202 328,217 470,111 -181,47 -333,8 -470,-111 z m 596,56 c 51,40 91,59 119,55 -67,-53 -96,-57 -119,-55 z m 152,35 c 137,34 269,-3 394,-128 41,-34 54,-29 39,14 -30,57 -53,117 -195,134 -99,35 -178,28 -238,-20 z m -82,-70 c 166,-8 291,-52 386,-120 102,-36 130,-29 84,23 -55,82 -143,132 -264,148 -43,3 -95,-5 -154,-24 -32,-1 -59,-5 -52,-27 z m 169,-60 c 259,-78 399,-213 363,-377 -186,125 -320,246 -363,377 z"
          id="path1513"
          style="fill:#ffcc00" />
      <g
          id="g1515">
         <path
             class="fil4"
             d="m 872,2450 c 136,171 577,170 707,-2 85,162 520,178 670,37 0,20 -6,41 -6,61 -173,102 -493,117 -660,-32 -184,136 -515,152 -713,-4 -1,-20 3,-41 2,-60 z"
             id="path1517"
             style="fill:#999999" />
         <path
             id="1"
             class="fil8"
             d="m 1588,2444 -17,9 16,1 -14,16 -15,16 -17,14 -19,13 -19,12 -21,11 -23,10 -23,8 -24,8 -25,7 -25,6 -26,4 -27,4 -27,2 -27,2 -27,1 -27,-1 -28,-1 -27,-3 -26,-3 -26,-5 -26,-5 -25,-7 -25,-7 -23,-9 -23,-10 -21,-11 -20,-11 -19,-13 -18,-14 -16,-15 -14,-17 15,-12 14,15 14,14 17,13 17,12 19,11 21,10 21,10 23,8 23,7 24,7 25,5 26,4 26,4 26,2 26,2 27,0 26,-1 27,-1 26,-3 26,-3 25,-5 25,-5 24,-7 23,-7 22,-9 21,-9 20,-10 19,-12 17,-12 16,-13 14,-14 12,-15 17,2 z m -17,-2 10,-12 7,14 -17,-2 z m 688,43 -20,0 17,7 -16,13 -17,13 -18,11 -20,10 -21,10 -22,8 -23,7 -24,7 -24,5 -25,5 -26,4 -26,2 -26,2 -26,1 -26,0 -27,0 -26,-2 -26,-3 -25,-3 -25,-5 -24,-5 -24,-6 -22,-7 -22,-8 -21,-9 -19,-10 -18,-11 -17,-11 -15,-13 -13,-14 -12,-15 -9,-15 17,-9 8,13 10,13 12,12 14,12 16,11 16,10 19,9 19,9 21,7 22,7 22,6 24,5 24,4 25,4 25,2 25,2 26,1 26,0 25,-1 26,-2 25,-3 25,-3 24,-5 24,-5 23,-6 21,-8 21,-8 20,-8 19,-10 17,-11 16,-11 14,-12 17,7 z m -17,-7 17,-16 0,23 -17,-7 z m 6,77 -10,-17 -5,8 0,-2 0,-2 0,-2 1,-2 0,-2 0,-2 0,-2 0,-2 0,-2 1,-2 0,-2 0,-2 0,-2 1,-2 0,-2 0,-2 1,-2 0,-1 0,-2 0,-2 1,-2 0,-2 0,-2 0,-2 0,-2 1,-1 0,-2 0,-2 0,-2 0,-1 0,-2 0,-2 20,0 0,2 0,2 0,2 -1,2 0,2 0,2 0,2 0,2 0,2 -1,2 0,2 0,2 0,2 -1,2 0,2 0,2 -1,2 0,2 0,2 0,2 -1,2 0,1 0,2 0,2 0,2 -1,2 0,2 0,1 0,2 0,2 0,2 0,1 -5,9 z m 5,-9 0,6 -5,3 5,-9 z m -664,-24 -12,-16 13,0 15,14 17,12 17,11 18,11 19,9 19,9 20,8 20,7 21,6 21,5 22,5 22,4 22,3 23,2 22,2 23,1 23,0 22,-1 23,-1 22,-3 22,-2 22,-4 22,-4 21,-4 21,-5 20,-6 20,-7 19,-7 19,-7 18,-8 17,-9 16,-9 10,17 -17,9 -18,9 -18,9 -20,8 -19,7 -21,6 -21,6 -21,6 -22,5 -22,4 -23,3 -23,3 -23,2 -23,2 -23,0 -23,0 -24,-1 -23,-1 -23,-3 -23,-3 -23,-4 -22,-4 -22,-6 -22,-6 -21,-8 -21,-8 -20,-9 -19,-10 -19,-11 -18,-12 -18,-13 -16,-14 12,1 z m -12,-16 7,-5 6,5 -13,0 z m -717,4 20,-1 -4,-7 19,14 19,13 20,12 20,11 22,10 21,9 22,8 23,7 23,6 23,6 24,4 23,4 24,3 24,2 24,1 25,0 24,-1 24,-2 23,-2 24,-3 24,-4 23,-5 23,-6 22,-6 22,-7 21,-8 21,-8 20,-10 20,-10 19,-11 18,-11 17,-12 12,16 -18,12 -19,12 -20,11 -20,11 -21,10 -22,8 -22,9 -22,7 -23,6 -24,6 -24,5 -24,4 -24,4 -25,2 -24,2 -25,0 -25,0 -25,-1 -25,-2 -24,-3 -25,-3 -24,-5 -24,-6 -24,-6 -23,-8 -23,-8 -22,-9 -22,-11 -22,-11 -20,-13 -21,-13 -19,-15 -4,-7 z m 4,7 -3,-2 -1,-5 4,7 z m 15,-73 -15,12 18,-6 0,2 0,2 0,1 0,2 0,2 0,2 0,2 0,2 0,2 0,2 -1,2 0,2 0,2 0,2 0,2 0,2 0,2 0,1 -1,2 0,2 0,2 0,2 0,2 0,1 0,2 0,2 0,2 0,1 0,2 0,2 0,1 0,2 -20,1 0,-2 0,-2 0,-2 0,-2 0,-2 0,-2 0,-1 0,-2 0,-2 0,-2 1,-2 0,-2 0,-2 0,-2 0,-2 0,-2 0,-2 1,-2 0,-1 0,-2 0,-2 0,-2 0,-2 0,-1 0,-2 0,-2 0,-2 0,-1 0,-2 0,-2 0,-1 0,-2 17,-7 z m -17,7 -2,-32 19,25 -17,7 z"
             inkscape:connector-curvature="0"
             style="fill:#999999;fill-rule:nonzero" />
      </g>
      <g
          id="g1520">
         <path
             class="fil4"
             d="m 872,2588 c 136,171 577,170 707,-2 85,161 520,177 670,36 0,21 -6,41 -6,62 -173,102 -493,117 -660,-33 -184,136 -515,153 -713,-4 -1,-19 3,-40 2,-59 z"
             id="path1522"
             inkscape:connector-curvature="0"
             style="fill:#999999" />
         <path
             id="path1524"
             class="fil8"
             d="m 1588,2581 -17,9 16,1 -14,17 -15,15 -17,14 -19,13 -19,12 -21,11 -23,10 -23,9 -24,8 -25,6 -25,6 -26,5 -27,3 -27,3 -27,1 -27,1 -27,0 -28,-2 -27,-2 -26,-4 -26,-4 -26,-6 -25,-6 -25,-8 -23,-9 -23,-9 -21,-11 -20,-12 -19,-13 -18,-14 -16,-15 -14,-16 15,-12 14,14 14,14 17,13 17,12 19,12 21,10 21,9 23,8 23,8 24,6 25,5 26,5 26,3 26,3 26,1 27,0 26,0 27,-2 26,-2 26,-4 25,-4 25,-6 24,-6 23,-8 22,-8 21,-10 20,-10 19,-11 17,-12 16,-13 14,-14 12,-15 17,1 z m -17,-1 10,-13 7,14 -17,-1 z m 688,42 -20,0 17,8 -16,13 -17,12 -18,11 -20,11 -21,9 -22,8 -23,8 -24,6 -24,6 -25,4 -26,4 -26,3 -26,2 -26,1 -26,0 -27,-1 -26,-2 -26,-2 -25,-4 -25,-4 -24,-5 -24,-7 -22,-7 -22,-8 -21,-9 -19,-9 -18,-11 -17,-12 -15,-13 -13,-13 -12,-15 -9,-16 17,-9 8,14 10,13 12,12 14,11 16,11 16,10 19,10 19,8 21,8 22,7 22,6 24,5 24,4 25,3 25,3 25,1 26,1 26,0 25,-1 26,-2 25,-2 25,-4 24,-4 24,-6 23,-6 21,-7 21,-8 20,-9 19,-10 17,-10 16,-12 14,-12 17,7 z m -17,-7 17,-15 0,22 -17,-7 z m 6,77 -10,-17 -5,9 0,-2 0,-2 0,-2 1,-2 0,-2 0,-2 0,-3 0,-2 0,-1 1,-3 0,-1 0,-2 0,-2 1,-2 0,-2 0,-2 1,-2 0,-2 0,-2 0,-2 1,-2 0,-2 0,-1 0,-2 0,-2 1,-2 0,-2 0,-2 0,-1 0,-2 0,-2 0,-2 20,0 0,2 0,3 0,2 -1,2 0,2 0,2 0,2 0,2 0,2 -1,2 0,2 0,2 0,2 -1,2 0,2 0,1 -1,2 0,2 0,2 0,2 -1,2 0,2 0,2 0,2 0,1 -1,2 0,2 0,2 0,2 0,1 0,2 0,2 -5,8 z m 5,-8 0,5 -5,3 5,-8 z m -664,-25 -12,-16 13,1 15,13 17,12 17,12 18,10 19,10 19,8 20,8 20,7 21,7 21,5 22,5 22,3 22,3 23,3 22,1 23,1 23,0 22,-1 23,-1 22,-2 22,-3 22,-3 22,-4 21,-5 21,-5 20,-6 20,-6 19,-7 19,-8 18,-8 17,-9 16,-9 10,17 -17,10 -18,9 -18,8 -20,8 -19,7 -21,7 -21,6 -21,5 -22,5 -22,4 -23,4 -23,2 -23,3 -23,1 -23,1 -23,0 -24,-1 -23,-2 -23,-2 -23,-3 -23,-4 -22,-5 -22,-6 -22,-6 -21,-7 -21,-9 -20,-9 -19,-10 -19,-11 -18,-12 -18,-13 -16,-14 12,1 z m -12,-16 7,-5 6,6 -13,-1 z m -717,5 20,-2 -4,-7 19,14 19,13 20,12 20,11 22,10 21,9 22,8 23,8 23,6 23,5 24,5 23,3 24,3 24,2 24,1 25,0 24,-1 24,-1 23,-3 24,-3 24,-4 23,-5 23,-5 22,-6 22,-8 21,-7 21,-9 20,-9 20,-10 19,-11 18,-12 17,-12 12,16 -18,13 -19,12 -20,11 -20,10 -21,10 -22,9 -22,8 -22,7 -23,7 -24,6 -24,5 -24,4 -24,3 -25,2 -24,2 -25,1 -25,0 -25,-1 -25,-2 -24,-3 -25,-4 -24,-5 -24,-5 -24,-7 -23,-7 -23,-9 -22,-9 -22,-10 -22,-12 -20,-12 -21,-14 -19,-14 -4,-7 z m 4,7 -3,-3 -1,-4 4,7 z m 15,-73 -15,12 18,-7 0,2 0,2 0,2 0,2 0,2 0,2 0,2 0,2 0,2 0,2 -1,2 0,1 0,2 0,2 0,2 0,2 0,2 0,2 -1,2 0,2 0,1 0,2 0,2 0,2 0,2 0,1 0,2 0,2 0,1 0,2 0,2 0,1 -20,2 0,-2 0,-2 0,-2 0,-2 0,-2 0,-2 0,-2 0,-2 0,-2 0,-2 1,-2 0,-2 0,-2 0,-2 0,-1 0,-2 0,-2 1,-2 0,-2 0,-2 0,-2 0,-1 0,-2 0,-2 0,-2 0,-2 0,-1 0,-2 0,-2 0,-1 0,-2 0,-2 17,-6 z m -17,6 -2,-31 19,25 -17,6 z"
             inkscape:connector-curvature="0"
             style="fill:#999999;fill-rule:nonzero" />
      </g>
      <g
          id="g1526">
         <g
             id="g1528">
            <path
                class="fil4"
                d="m 3003,2483 c 136,166 577,150 707,-26 85,158 520,159 670,13 0,21 -6,42 -6,62 -173,108 -493,134 -660,-10 -184,142 -515,171 -713,20 -1,-19 3,-40 2,-59 z"
                id="path1530"
                inkscape:connector-curvature="0"
                style="fill:#999999" />
            <path
                id="path1532"
                class="fil8"
                d="m 3719,2452 -17,9 16,1 -13,17 -16,16 -17,15 -18,13 -20,13 -21,12 -22,10 -23,10 -24,8 -25,8 -26,6 -26,6 -26,5 -27,3 -27,3 -28,1 -27,1 -27,-1 -27,-1 -27,-3 -26,-4 -26,-4 -25,-6 -24,-7 -24,-8 -22,-8 -22,-10 -20,-12 -19,-12 -17,-13 -16,-15 -15,-16 16,-12 13,14 14,14 16,12 18,11 19,11 21,9 21,9 23,8 23,6 24,6 25,4 26,4 25,2 27,2 26,0 27,0 26,-2 27,-2 26,-4 26,-4 25,-6 25,-6 23,-7 24,-9 22,-9 21,-10 20,-11 19,-12 17,-13 16,-13 14,-15 12,-15 17,1 z m -17,-1 10,-13 7,14 -17,-1 z m 688,19 -20,0 17,7 -16,14 -17,13 -18,12 -20,11 -21,10 -22,9 -23,8 -23,8 -25,6 -25,5 -25,5 -26,4 -26,3 -27,1 -26,1 -26,1 -26,-1 -26,-2 -26,-3 -25,-3 -24,-5 -23,-5 -23,-6 -22,-8 -20,-8 -20,-9 -18,-10 -17,-11 -15,-13 -13,-13 -12,-14 -9,-16 17,-9 8,13 10,13 12,12 14,11 16,10 16,10 19,8 19,8 21,7 22,6 22,5 24,4 24,4 24,2 26,2 25,1 26,0 25,-1 26,-2 25,-3 26,-3 25,-5 24,-5 23,-6 23,-7 22,-8 21,-9 20,-10 19,-10 17,-11 16,-12 14,-13 17,7 z m -17,-7 17,-16 0,23 -17,-7 z m 6,77 -10,-16 -5,8 0,-2 1,-2 0,-2 0,-2 0,-2 0,-2 0,-2 0,-2 1,-2 0,-2 0,-2 0,-2 1,-2 0,-2 0,-2 0,-2 1,-2 0,-2 0,-2 0,-2 1,-2 0,-1 0,-2 0,-2 1,-2 0,-2 0,-2 0,-1 0,-2 0,-2 0,-2 0,-2 20,0 0,2 0,3 0,2 0,2 -1,2 0,2 0,2 0,2 0,2 -1,2 0,2 0,2 0,2 -1,2 0,2 0,2 0,2 -1,1 0,2 0,2 0,2 -1,2 0,2 0,2 0,2 0,1 -1,2 0,2 0,2 0,2 0,1 0,2 -5,8 z m 5,-8 0,6 -5,2 5,-8 z m -664,-2 -12,-16 13,1 15,12 17,12 17,11 18,9 19,9 19,8 20,8 20,6 21,5 21,5 22,4 22,3 22,2 23,2 22,1 23,0 22,-1 23,-2 23,-2 22,-3 22,-3 22,-4 22,-5 21,-5 21,-6 20,-7 20,-7 19,-8 19,-8 18,-8 17,-10 16,-9 10,16 -17,11 -17,9 -19,9 -19,9 -20,7 -20,8 -21,7 -22,6 -22,5 -22,5 -23,4 -22,4 -23,3 -23,2 -24,1 -23,1 -23,0 -24,-1 -23,-1 -23,-2 -22,-4 -23,-4 -22,-4 -21,-6 -22,-7 -20,-7 -21,-9 -19,-9 -19,-10 -18,-12 -17,-12 -17,-14 12,1 z m -12,-16 7,-5 6,6 -13,-1 z m -716,29 19,-1 -4,-7 19,13 19,12 20,11 20,11 21,9 22,8 22,8 23,6 23,6 23,4 23,4 24,3 24,2 24,1 24,0 24,-1 24,-1 24,-3 24,-3 24,-4 23,-5 24,-5 22,-7 23,-7 22,-8 21,-8 21,-10 20,-10 20,-11 19,-11 18,-12 17,-13 12,16 -18,13 -19,13 -19,12 -21,11 -21,10 -21,10 -22,9 -23,8 -23,7 -24,7 -23,5 -24,5 -25,4 -24,4 -25,2 -25,2 -25,0 -24,0 -25,-1 -25,-2 -24,-3 -25,-3 -24,-5 -23,-6 -24,-7 -23,-7 -22,-9 -22,-10 -21,-10 -21,-12 -20,-13 -20,-14 -3,-7 z m 3,7 -3,-2 0,-5 3,7 z m 16,-73 -16,12 18,-7 0,2 0,2 0,2 0,2 0,2 0,2 0,2 0,2 0,2 0,2 0,2 -1,2 0,2 0,2 0,2 0,1 0,2 0,2 0,2 -1,2 0,2 0,2 0,1 0,2 0,2 0,2 0,1 0,2 0,2 0,1 0,2 0,2 -19,1 -1,-2 0,-2 0,-2 0,-2 0,-2 0,-2 0,-2 0,-2 0,-1 1,-2 0,-2 0,-2 0,-2 0,-2 0,-2 0,-2 0,-2 1,-2 0,-2 0,-1 0,-2 0,-2 0,-2 0,-2 0,-1 0,-2 0,-2 0,-2 0,-1 0,-2 0,-2 0,-1 18,-7 z m -18,7 -2,-31 20,24 -18,7 z"
                inkscape:connector-curvature="0"
                style="fill:#999999;fill-rule:nonzero" />
         </g>
         <g
             id="g1534">
            <path
                class="fil4"
                d="m 3003,2621 c 136,166 577,150 707,-27 85,159 520,160 670,14 0,20 -6,41 -6,62 -173,107 -493,133 -660,-11 -184,143 -515,171 -713,21 -1,-19 3,-40 2,-59 z"
                id="path1536"
                inkscape:connector-curvature="0"
                style="fill:#999999" />
            <path
                id="path1538"
                class="fil8"
                d="m 3719,2589 -17,10 16,1 -13,17 -16,15 -17,15 -18,14 -20,12 -21,12 -22,11 -23,9 -24,9 -25,7 -26,7 -26,5 -26,5 -27,4 -27,2 -28,2 -27,0 -27,0 -27,-2 -27,-2 -26,-4 -26,-5 -25,-5 -24,-7 -24,-8 -22,-9 -22,-10 -20,-11 -19,-12 -17,-14 -16,-14 -15,-16 16,-13 13,15 14,13 16,12 18,12 19,10 21,10 21,8 23,8 23,6 24,6 25,4 26,4 25,2 27,2 26,0 27,0 26,-1 27,-3 26,-3 26,-5 25,-5 25,-7 23,-7 24,-8 22,-9 21,-10 20,-11 19,-12 17,-13 16,-14 14,-14 12,-16 17,1 z m -17,-1 10,-12 7,13 -17,-1 z m 688,20 -20,0 17,7 -16,14 -17,13 -18,11 -20,11 -21,10 -22,9 -23,9 -23,7 -25,6 -25,6 -25,4 -26,4 -26,3 -27,2 -26,1 -26,0 -26,-1 -26,-2 -26,-2 -25,-4 -24,-4 -23,-6 -23,-6 -22,-7 -20,-8 -20,-10 -18,-10 -17,-11 -15,-12 -13,-13 -12,-15 -9,-15 17,-10 8,14 10,12 12,12 14,11 16,10 16,10 19,9 19,7 21,7 22,6 22,6 24,4 24,3 24,3 26,1 25,1 26,0 25,-1 26,-2 25,-2 26,-4 25,-4 24,-6 23,-6 23,-7 22,-8 21,-9 20,-9 19,-10 17,-12 16,-11 14,-13 17,7 z m -17,-7 17,-16 0,23 -17,-7 z m 6,77 -10,-17 -5,9 0,-2 1,-3 0,-2 0,-2 0,-2 0,-2 0,-2 0,-2 1,-2 0,-2 0,-2 0,-2 1,-2 0,-2 0,-2 0,-2 1,-2 0,-1 0,-2 0,-2 1,-2 0,-2 0,-2 0,-2 1,-2 0,-1 0,-2 0,-2 0,-2 0,-2 0,-1 0,-2 20,0 0,2 0,2 0,2 0,2 -1,2 0,2 0,2 0,2 0,2 -1,2 0,2 0,2 0,2 -1,2 0,2 0,2 0,2 -1,2 0,2 0,2 0,2 -1,1 0,2 0,2 0,2 0,2 -1,2 0,1 0,2 0,2 0,2 0,1 -5,9 z m 5,-9 0,6 -5,3 5,-9 z m -664,-2 -12,-15 13,0 15,13 17,11 17,11 18,10 19,9 19,8 20,7 20,6 21,6 21,5 22,3 22,4 22,2 23,1 22,1 23,0 22,-1 23,-1 23,-2 22,-3 22,-4 22,-4 22,-4 21,-6 21,-6 20,-6 20,-7 19,-8 19,-8 18,-9 17,-9 16,-10 10,17 -17,10 -17,10 -19,9 -19,8 -20,8 -20,7 -21,7 -22,6 -22,6 -22,5 -23,4 -22,3 -23,3 -23,2 -24,2 -23,1 -23,0 -24,-1 -23,-2 -23,-2 -22,-3 -23,-4 -22,-5 -21,-6 -22,-6 -20,-8 -21,-8 -19,-10 -19,-10 -18,-11 -17,-13 -17,-13 12,0 z m -12,-15 7,-5 6,5 -13,0 z m -716,29 19,-2 -4,-7 19,13 19,13 20,11 20,10 21,9 22,9 22,7 23,7 23,5 23,5 23,3 24,3 24,2 24,1 24,0 24,0 24,-2 24,-2 24,-4 24,-4 23,-4 24,-6 22,-6 23,-7 22,-8 21,-9 21,-9 20,-10 20,-11 19,-11 18,-13 17,-12 12,15 -18,14 -19,12 -19,12 -21,11 -21,11 -21,9 -22,9 -23,8 -23,8 -24,6 -23,6 -24,5 -25,4 -24,3 -25,3 -25,1 -25,1 -24,0 -25,-1 -25,-2 -24,-3 -25,-4 -24,-5 -23,-5 -24,-7 -23,-8 -22,-8 -22,-10 -21,-11 -21,-12 -20,-12 -20,-14 -3,-7 z m 3,7 -3,-3 0,-4 3,7 z m 16,-74 -16,13 18,-7 0,2 0,2 0,2 0,2 0,2 0,2 0,2 0,2 0,1 0,2 0,2 -1,2 0,2 0,2 0,2 0,2 0,2 0,2 0,2 -1,1 0,2 0,2 0,2 0,2 0,1 0,2 0,2 0,2 0,1 0,2 0,2 0,1 -19,2 -1,-2 0,-2 0,-2 0,-2 0,-2 0,-2 0,-2 0,-2 0,-2 1,-2 0,-2 0,-2 0,-2 0,-2 0,-2 0,-1 0,-2 1,-2 0,-2 0,-2 0,-2 0,-2 0,-1 0,-2 0,-2 0,-2 0,-1 0,-2 0,-2 0,-1 0,-2 0,-2 18,-7 z m -18,7 -2,-31 20,24 -18,7 z"
                inkscape:connector-curvature="0"
                style="fill:#999999;fill-rule:nonzero" />
         </g>
      </g>
      <g
          id="g1540">
         <path
             class="fil4"
             d="m 2312,2489 c 141,134 507,121 635,0 0,17 2,35 2,52 -176,117 -488,117 -636,0 0,-17 0,-35 -1,-52 z"
             id="path1542"
             inkscape:connector-curvature="0"
             style="fill:#999999" />
         <path
             id="path1544"
             class="fil8"
             d="m 2957,2489 -20,0 17,7 -13,12 -15,11 -16,10 -17,9 -18,9 -19,8 -19,7 -21,7 -21,5 -22,6 -22,4 -23,4 -23,3 -23,2 -24,1 -24,1 -24,0 -23,-1 -24,-2 -23,-2 -23,-3 -23,-4 -22,-5 -22,-6 -21,-6 -21,-7 -19,-9 -19,-9 -18,-9 -17,-11 -15,-12 -15,-13 14,-14 13,12 15,11 15,10 17,9 18,9 18,7 20,7 20,6 21,6 22,4 22,4 22,3 23,3 23,1 23,1 23,0 23,0 23,-2 23,-2 22,-3 23,-3 21,-5 21,-5 21,-5 19,-6 19,-7 18,-8 17,-8 16,-9 15,-9 13,-10 13,-11 16,7 z m -16,-7 16,-15 0,22 -16,-7 z m 13,67 -11,-16 -4,8 0,-2 0,-1 0,-2 0,-2 0,-1 0,-2 0,-1 0,-2 -1,-1 0,-2 0,-2 0,-1 0,-2 0,-1 0,-2 0,-2 0,-1 0,-2 0,-1 0,-2 0,-2 0,-1 0,-2 0,-2 0,-1 0,-2 0,-2 0,-1 -1,-2 0,-1 0,-2 0,-2 20,0 0,2 0,1 0,2 0,2 0,1 0,2 0,1 0,2 0,1 0,2 0,2 0,1 1,2 0,1 0,2 0,2 0,1 0,2 0,2 0,1 0,2 0,1 0,2 0,2 0,1 0,2 0,2 0,1 0,2 0,1 0,2 0,2 -4,8 z m 4,-8 0,5 -4,3 4,-8 z m -654,0 19,0 -3,-8 13,10 15,10 16,9 16,8 17,8 18,7 19,6 19,6 19,5 21,5 20,3 21,3 21,3 22,1 22,1 21,1 22,0 22,-1 22,-2 22,-3 22,-3 21,-3 22,-5 21,-5 20,-5 20,-7 20,-7 19,-8 19,-8 17,-9 18,-10 16,-10 11,16 -17,11 -18,10 -19,10 -19,8 -20,8 -20,8 -21,6 -21,6 -22,5 -22,5 -22,4 -22,3 -23,2 -22,2 -23,1 -23,0 -22,0 -22,-1 -22,-2 -22,-2 -22,-3 -21,-4 -21,-5 -20,-5 -20,-6 -20,-7 -18,-7 -18,-8 -18,-9 -16,-9 -16,-11 -15,-11 -3,-7 z m 3,7 -3,-2 0,-5 3,7 z m 12,-66 -14,14 17,-7 0,2 0,1 0,2 0,1 0,2 0,2 0,1 0,2 0,1 0,2 0,2 0,1 0,2 1,2 0,1 0,2 0,1 0,2 0,2 0,1 0,2 0,1 0,2 0,2 0,1 0,2 0,1 0,2 0,2 0,1 0,2 0,2 -19,0 0,-2 0,-1 0,-2 -1,-1 0,-2 0,-2 0,-1 0,-2 0,-1 0,-2 0,-2 0,-1 0,-2 0,-2 0,-1 0,-2 0,-1 0,-2 0,-2 0,-1 0,-2 0,-1 0,-2 0,-2 0,-1 0,-2 0,-1 0,-2 -1,-2 0,-1 0,-2 0,-2 17,-7 z m -17,7 0,-23 17,16 -17,7 z"
             inkscape:connector-curvature="0"
             style="fill:#999999;fill-rule:nonzero" />
      </g>
      <g
          id="g1546">
         <path
             class="fil4"
             d="m 2312,2624 c 141,134 507,121 635,0 0,17 2,34 2,51 -176,118 -488,117 -636,0 0,-17 0,-34 -1,-51 z"
             id="path1548"
             inkscape:connector-curvature="0"
             style="fill:#999999" />
         <path
             id="path1550"
             class="fil8"
             d="m 2957,2624 -20,0 17,7 -13,12 -15,10 -16,10 -17,10 -18,8 -19,8 -19,8 -21,6 -21,6 -22,5 -22,4 -23,4 -23,3 -23,2 -24,2 -24,0 -24,0 -23,-1 -24,-1 -23,-3 -23,-3 -23,-4 -22,-4 -22,-6 -21,-7 -21,-7 -19,-8 -19,-9 -18,-10 -17,-11 -15,-11 -15,-13 14,-14 13,11 15,11 15,10 17,10 18,8 18,8 20,7 20,6 21,5 22,5 22,4 22,3 23,2 23,2 23,1 23,0 23,-1 23,-1 23,-2 22,-3 23,-4 21,-4 21,-5 21,-6 19,-6 19,-7 18,-7 17,-9 16,-8 15,-10 13,-10 13,-10 16,7 z m -16,-7 16,-16 0,23 -16,-7 z m 13,67 -11,-17 -4,8 0,-1 0,-2 0,-1 0,-2 0,-1 0,-2 0,-2 0,-1 -1,-2 0,-1 0,-2 0,-2 0,-1 0,-2 0,-1 0,-2 0,-2 0,-1 0,-2 0,-2 0,-1 0,-2 0,-1 0,-2 0,-2 0,-1 0,-2 0,-2 -1,-1 0,-2 0,-2 0,-1 20,0 0,1 0,2 0,2 0,1 0,2 0,1 0,2 0,1 0,2 0,2 0,1 0,2 1,1 0,2 0,2 0,1 0,2 0,1 0,2 0,2 0,1 0,2 0,2 0,1 0,2 0,1 0,2 0,2 0,1 0,2 0,2 0,1 -4,9 z m 4,-9 0,6 -4,3 4,-9 z m -654,1 19,-1 -3,-7 13,10 15,10 16,9 16,8 17,8 18,7 19,6 19,6 19,5 21,4 20,4 21,3 21,2 22,2 22,1 21,0 22,0 22,-1 22,-2 22,-2 22,-3 21,-4 22,-4 21,-5 20,-6 20,-6 20,-7 19,-8 19,-9 17,-9 18,-9 16,-11 11,17 -17,10 -18,11 -19,9 -19,9 -20,8 -20,7 -21,7 -21,6 -22,5 -22,5 -22,3 -22,4 -23,2 -22,2 -23,1 -23,0 -22,0 -22,-1 -22,-2 -22,-3 -22,-3 -21,-4 -21,-4 -20,-5 -20,-6 -20,-7 -18,-7 -18,-8 -18,-9 -16,-10 -16,-10 -15,-11 -3,-7 z m 3,7 -3,-3 0,-4 3,7 z m 12,-66 -14,14 17,-7 0,1 0,2 0,1 0,2 0,2 0,1 0,2 0,1 0,2 0,2 0,1 0,2 0,2 1,1 0,2 0,1 0,2 0,2 0,1 0,2 0,1 0,2 0,2 0,1 0,2 0,1 0,2 0,2 0,1 0,2 0,2 0,1 -19,1 0,-2 0,-2 0,-1 -1,-2 0,-1 0,-2 0,-2 0,-1 0,-2 0,-2 0,-1 0,-2 0,-1 0,-2 0,-2 0,-1 0,-2 0,-1 0,-2 0,-2 0,-1 0,-2 0,-1 0,-2 0,-2 0,-1 0,-2 0,-2 -1,-1 0,-2 0,-1 0,-2 17,-7 z m -17,7 0,-24 17,17 -17,7 z"
             inkscape:connector-curvature="0"
             style="fill:#999999;fill-rule:nonzero" />
      </g>
   </g>
</svg>
