<?xml version="1.0" encoding="UTF-8" standalone="no"?>
<svg
    xmlns:dc="http://purl.org/dc/elements/1.1/"
    xmlns:cc="http://creativecommons.org/ns#"
    xmlns:rdf="http://www.w3.org/1999/02/22-rdf-syntax-ns#"
    xmlns:svg="http://www.w3.org/2000/svg"
    xmlns="http://www.w3.org/2000/svg"
    xmlns:sodipodi="http://sodipodi.sourceforge.net/DTD/sodipodi-0.dtd"
    xmlns:inkscape="http://www.inkscape.org/namespaces/inkscape"
    id="city_bel"
    data-name="bel"
    width="52.5mm"
    height="52.5mm"
    viewBox="0 0 148.82 148.82"
    version="1.1"
    inkscape:version="0.91 r13725"
    sodipodi:docname="_angarsk.svg">
   <metadata
       id="metadata12">
      <rdf:RDF>
         <cc:Work
             rdf:about="">
            <dc:format>image/svg+xml</dc:format>
            <dc:type
                rdf:resource="http://purl.org/dc/dcmitype/StillImage" />
            <dc:title></dc:title>
         </cc:Work>
      </rdf:RDF>
   </metadata>
   <defs
       id="defs10" />
   <sodipodi:namedview
       pagecolor="#ffffff"
       bordercolor="#666666"
       borderopacity="1"
       objecttolerance="10"
       gridtolerance="10"
       guidetolerance="10"
       inkscape:pageopacity="0"
       inkscape:pageshadow="2"
       inkscape:window-width="640"
       inkscape:window-height="480"
       id="namedview8"
       showgrid="false"
       inkscape:zoom="1.268656085"
       inkscape:cx="93.01181102"
       inkscape:cy="93.01181102"
       inkscape:current-layer="city_bel" />
   <g
       transform="matrix(0.0283466687,0,0,0.0283466716,-148.9050527,-0.0049330365)"
       style="clip-rule:evenodd;fill-rule:evenodd;image-rendering:optimizeQuality;shape-rendering:geometricPrecision;text-rendering:geometricPrecision"
       id="angarsk">
      <g
          id="g1682">
         <path
             id="path12"
             class="fil4"
             d="m 6100,4136 c 44,-23 85,-51 124,-84 15,183 148,182 402,-2 -4,189 151,157 395,2 5,195 164,149 393,-8 -5,184 125,185 390,3 17,188 164,167 398,3 9,194 162,159 395,-6 11,200 166,166 402,0 -3,192 140,170 384,3 14,164 120,167 273,80 l 0,82 -3556,3 0,-76 z"
             inkscape:connector-curvature="0"
             style="fill:#999999" />
         <path
             id="path14"
             class="fil4"
             d="m 9656,4412 -3556,5 0,-68 c 58,-22 128,-62 206,-120 5,179 122,206 404,11 -11,169 121,169 395,0 -5,185 141,162 390,-5 -2,184 146,163 398,3 1,203 172,138 390,-3 -4,177 126,178 390,3 26,200 197,137 410,0 -4,163 107,183 387,-6 3,132 74,163 186,122 l 0,58 z"
             inkscape:connector-curvature="0"
             style="fill:#999999" />
         <path
             id="path16"
             class="fil4"
             d="m 6100,4587 c 65,-9 158,-61 279,-156 -15,210 136,190 398,11 7,198 151,174 390,-2 11,184 142,185 393,2 -3,163 112,183 401,-5 -8,185 123,187 392,5 7,183 137,178 390,-14 -1,192 133,191 401,9 2,185 139,180 387,-9 23,105 64,154 125,148 l 0,40 -3556,9 0,-38 z"
             inkscape:connector-curvature="0"
             style="fill:#999999" />
      </g>
      <g
          id="g1687">
         <path
             id="path24"
             class="fil2"
             d="m 7235,654 c -54,9 -75,50 -68,107 -1,28 -23,61 -3,75 -1,8 -5,15 -14,20 l 12,11 c -5,208 53,237 128,216 l 23,66 c 10,16 -31,37 -46,56 -116,32 -146,88 -123,182 -28,12 -27,49 2,111 l -31,155 c -12,18 -21,35 -25,50 -36,38 -47,67 -33,87 -13,36 0,68 13,88 -5,8 -6,15 -5,21 -30,37 -40,70 -22,97 -19,38 -34,145 -78,195 -23,26 -49,37 -73,58 -28,26 -53,58 -73,90 -11,19 -12,37 -17,54 -11,34 -25,56 -21,67 3,8 15,9 36,-2 l 12,-6 c -9,61 3,64 25,42 l 20,-38 c 9,16 24,4 50,-69 30,-38 72,-52 101,-83 15,-17 5,-45 56,-110 l 77,-87 c 52,36 100,52 129,18 16,-22 37,-42 62,-61 15,-16 11,-39 -13,-68 l 5,-39 c 12,19 31,30 53,34 l 25,109 c -6,32 -8,60 6,88 -1,86 -23,84 -32,104 -5,12 -6,34 5,52 -21,154 -62,550 21,782 92,256 464,442 494,709 l 19,78 c -15,24 -19,53 -29,79 -19,52 19,54 49,38 20,-11 26,-32 38,-43 30,-17 46,-41 49,-72 2,-56 7,-112 15,-167 26,-32 59,-65 101,-100 18,-10 26,9 38,3 28,-63 63,-122 105,-160 51,40 91,79 114,50 28,5 50,20 64,43 11,42 44,37 48,-15 8,1 20,1 26,-3 6,-4 4,-17 9,-24 24,-32 34,-58 -16,-103 -22,-19 -40,-41 -90,-54 27,-101 28,-167 -20,-170 0,-68 82,-141 93,-235 -51,-27 -82,-130 -133,-108 l -17,-84 c 47,-32 89,20 109,5 13,-10 22,-41 27,-102 l -61,-94 c -49,-74 -203,2 -267,5 -89,-23 -136,-8 -155,33 0,-46 -23,-91 -67,-133 39,-143 60,-272 41,-368 67,17 133,22 195,-2 111,-92 320,-232 332,-275 39,-127 85,-253 146,-376 l 95,-359 c 30,-65 -15,-148 -22,-222 -9,-38 -60,-53 -101,-73 -23,-11 -42,-27 -62,-33 -33,-10 -62,-5 -70,12 L 8410,658 c -46,67 -144,89 -204,139 24,40 110,64 136,99 l -73,247 c -73,59 -132,152 -188,249 -62,-87 -184,-118 -276,-177 -12,-99 -70,-97 -130,-107 -72,-13 -146,-7 -136,5 l -39,-42 c 45,-1 79,-28 107,-66 l 25,-12 c 15,-2 35,18 69,21 35,3 83,-11 126,-28 46,45 74,72 106,83 22,8 45,2 63,-2 34,-8 65,-31 87,-74 3,-26 -89,13 -103,-10 l -18,-56 c 40,-32 65,-56 53,-78 11,-33 12,-53 4,-60 -9,-7 -24,9 -55,17 -15,-13 7,-41 -2,-47 -15,-10 -45,21 -72,23 -20,-24 -45,-32 -73,-24 -1,-33 -25,-58 -65,-66 -58,-12 -159,7 -195,2 -133,-70 -239,-92 -322,-40 l 0,0 z"
             inkscape:connector-curvature="0"
             style="fill:#000000" />
         <path
             id="path28"
             class="fil3"
             d="m 7821,1242 c 10,34 30,64 58,91 33,33 93,53 139,80 28,17 45,57 70,75 36,26 79,31 112,57 -2,12 -38,23 -40,36 -10,45 83,61 166,58 31,-1 48,-53 77,-78 29,-25 42,3 70,-1 13,-1 32,-25 44,-28 7,26 -20,45 -61,61 4,-21 -10,-20 -29,-1 -20,18 -45,53 -74,78 -25,21 -48,31 -66,42 16,23 14,55 -4,66 -27,17 -71,14 -115,25 -42,10 -61,37 -85,26 l -26,95 c 1,2 8,-15 10,-13 2,5 0,28 2,32 3,5 13,-12 17,-5 7,9 2,26 5,31 2,3 8,0 10,4 2,6 0,20 4,25 24,-34 34,-68 52,-90 26,-31 53,-40 65,-33 7,4 5,10 1,30 -1,7 8,19 19,20 7,1 16,-6 23,-7 9,-1 15,1 11,4 -34,21 -60,51 -80,59 -15,6 -27,-6 -29,-12 -2,-9 11,-31 44,-73 4,-19 -14,-15 -34,6 -22,22 -47,65 -49,96 -3,49 45,112 57,113 1,-1 4,0 7,-5 4,-5 3,-13 11,-20 13,-10 34,-19 52,-33 66,-54 142,-128 147,-137 2,-10 0,-20 5,-30 63,-53 166,-110 169,-209 -4,-14 -13,-28 -16,-48 -5,-38 -3,-85 -12,-110 -9,-24 -42,-7 -35,-25 40,-33 128,-29 119,-98 49,-253 -45,-433 -147,-609 -24,36 -17,103 3,184 32,131 176,152 124,421 -12,39 -25,-60 -37,-91 -22,1 -81,-4 -94,-25 -16,-25 14,-52 18,-76 2,-8 -3,-16 -6,-21 -2,-16 4,-26 23,-33 3,-7 1,-37 -12,-75 -13,-38 -34,-85 -53,-130 -14,-33 1,-97 -36,-87 -10,9 -18,-23 -23,-54 -5,-29 -8,-58 -21,-50 -7,3 -11,6 -12,0 -2,-6 16,-27 20,-31 11,-11 28,-20 41,-32 l -13,-25 c -23,40 -92,74 -161,109 -16,13 61,55 94,84 3,5 -3,14 1,23 30,11 44,34 47,65 4,38 -5,123 -35,190 -26,59 -72,102 -88,129 3,4 19,-5 16,5 -4,16 -30,52 -24,58 4,5 16,2 22,6 9,6 -33,33 -27,42 5,7 39,10 69,0 32,-10 65,-35 83,-31 13,3 -2,24 -19,66 0,9 -6,0 -15,4 -31,15 -86,58 -120,78 -38,-1 -72,-6 -105,-21 -45,-21 -68,-72 -109,-105 -63,-52 -144,-90 -215,-122 l 0,0 z m -279,-440 15,21 c 1,1 2,3 4,4 -1,2 -1,4 0,6 13,10 43,19 66,27 11,7 24,16 28,12 6,-4 3,-15 3,-23 1,-16 -5,-35 -20,-44 -13,-8 -38,-8 -58,-8 -22,0 -41,1 -38,5 z m 371,30 c 53,54 91,62 94,-28 -2,-4 -19,9 -40,14 -27,7 -57,9 -54,14 l 0,0 z m 541,2087 c 35,37 54,44 56,75 3,39 -39,84 -55,142 -8,6 -16,-16 -23,-50 -3,-11 -9,-27 -9,-39 0,-27 18,-56 20,-79 2,-14 -4,-25 -3,-33 1,-12 10,-18 14,-16 z m -65,2 -45,125 c -13,35 1,46 11,46 9,0 26,1 42,-47 6,-24 -4,-80 7,-119 -2,-19 -8,-23 -15,-5 z m -69,189 c 16,16 21,40 33,59 8,11 19,19 27,30 1,3 -11,-1 -26,-3 -15,-2 -34,-3 -41,-7 -13,-7 -10,-20 -21,-23 -43,-13 -80,16 -49,-30 1,-8 38,-10 55,-17 13,-5 19,-12 22,-9 l 0,0 z m -914,-755 c 9,-19 49,39 70,58 1,5 -13,-5 -13,2 0,8 12,32 8,38 -5,8 -17,7 -17,15 -1,7 22,17 21,23 -2,12 -17,15 -18,31 0,15 16,25 15,36 -1,9 -15,11 -16,22 0,6 12,20 13,30 1,7 -9,11 -11,15 -3,6 12,12 11,17 -1,5 -18,8 -19,14 -1,5 16,12 17,17 2,7 -11,12 -11,18 0,6 10,11 13,16 2,7 -4,15 -4,23 -1,8 11,15 11,24 2,24 -13,14 -13,22 0,6 8,13 8,19 -1,15 -11,29 -11,43 0,8 5,21 11,27 4,6 11,6 11,12 -2,22 1,56 1,81 0,20 -3,35 0,37 21,15 34,46 44,84 -27,-8 -33,24 -6,44 33,26 61,56 137,94 161,82 407,173 360,180 -5,1 16,9 42,27 19,13 21,39 45,56 41,29 144,58 138,71 l -56,75 c -7,6 -168,-168 -185,-151 -30,30 120,185 111,193 -66,50 -132,147 -193,146 -10,-53 -30,-123 -74,-185 -55,-78 -129,-148 -173,-194 -28,-29 -43,-48 -35,-50 5,0 -5,-9 -11,-27 -4,-11 -1,-21 -4,-33 -4,-16 -33,-42 -17,-46 12,0 33,7 57,24 17,13 34,34 57,49 31,21 72,36 107,57 26,16 46,37 69,52 17,12 37,19 52,29 11,6 11,-14 5,-35 -4,-15 -3,-30 -9,-36 -13,-13 -66,-3 -80,-17 -105,-108 -227,-182 -354,-243 -79,55 -102,-65 -119,-249 -6,-70 -11,-149 -9,-234 2,-103 15,-212 24,-321 l 0,0 z m 20,-103 c -4,32 -26,37 -27,49 0,17 17,20 36,28 19,8 44,22 69,25 3,-3 -19,-30 -39,-56 -19,-24 -37,-48 -39,-46 z m 569,337 c 12,18 1,26 -32,24 -4,0 -12,18 -31,28 -22,13 -59,31 -94,39 -17,4 -33,0 -49,4 -5,1 -8,9 -10,15 -6,23 -27,17 -48,27 -25,13 -53,40 -78,54 -9,-11 3,-35 31,-61 25,-24 63,-45 99,-73 41,-31 78,-69 106,-96 22,-29 57,0 83,25 8,7 18,6 23,14 l 0,0 z m -202,113 c -4,-8 27,-6 35,-3 5,1 -3,21 3,39 7,19 20,37 33,36 13,0 -2,-35 0,-54 1,-9 4,-11 21,-12 22,-8 58,-13 85,-22 27,-10 45,-24 51,-22 20,6 34,13 41,21 7,9 30,48 -2,66 -83,50 -290,82 -248,-32 -1,-6 -14,-9 -19,-17 l 0,0 z m 327,36 c 2,-31 -9,-60 -27,-74 -19,-14 -45,-13 -45,-17 2,-13 13,-32 36,-38 32,-8 77,-4 117,6 63,16 112,52 66,113 -9,11 -10,50 -30,62 -17,10 -41,22 -65,31 -9,2 -8,19 -4,31 5,16 14,28 -1,34 -26,10 -64,2 -102,2 -52,0 -107,6 -104,-2 3,-3 10,-8 16,-9 7,-1 7,-12 14,-12 33,-4 74,6 106,1 47,-9 4,-21 11,-29 12,-16 27,-30 17,-32 -7,0 -34,26 -66,35 -25,8 -53,-2 -68,4 -8,4 -2,10 -4,11 -37,6 -155,-18 -145,-21 12,-20 129,-5 206,-24 7,-2 22,-3 29,-5 79,-21 149,-52 171,-76 8,-8 4,-19 -1,-25 -5,-5 -47,-31 -39,-13 -17,3 -23,-1 -20,-10 12,-2 -9,-7 -31,-17 -21,-9 -41,-22 -45,-18 -7,8 0,31 7,52 4,15 13,26 14,35 2,10 -10,28 -13,5 l 0,0 z m 83,-134 c -8,3 9,9 39,11 40,2 100,0 127,10 27,10 29,29 36,41 7,12 19,16 14,21 -5,11 -30,26 -43,39 -17,6 -7,72 9,36 9,-24 80,-83 122,-75 -33,-54 -54,-95 -95,-108 -26,-9 -64,-4 -101,2 -34,5 -76,15 -108,23 l 0,0 z m 95,96 c 1,-10 46,23 46,29 3,12 4,50 -1,74 -6,31 -23,62 -26,93 -2,21 7,43 5,65 -2,14 -26,-29 -40,-31 -16,-2 -48,31 -50,21 l 32,-68 c 50,24 75,-110 35,-120 l -1,-63 0,0 z m 201,13 c -1,38 -5,62 -17,71 -4,4 -10,3 -16,3 -10,-1 -22,-5 -36,-17 -1,-2 8,-11 18,-22 9,-9 19,-22 29,-29 8,-6 21,-14 22,-6 l 0,0 z m -57,682 -21,90 c -5,24 14,10 34,2 4,-1 10,1 16,0 5,0 11,-5 10,-2 -19,50 -14,70 9,71 6,1 11,5 10,10 -1,6 -9,12 -11,20 -2,7 2,16 7,18 14,6 28,-9 21,-30 -4,-9 -6,-18 -25,-32 -21,-12 -9,-23 2,-23 9,-1 24,17 33,9 4,-3 -14,-20 -9,-26 6,-7 21,23 30,9 3,-6 -27,-26 -23,-30 4,-3 22,22 31,9 8,-11 -30,-25 -26,-31 3,-5 12,4 13,-2 7,-18 -92,-87 -101,-62 l 0,0 z m -441,442 c 11,21 32,65 23,91 -6,18 -23,30 -41,45 -11,9 -26,39 -38,48 -13,9 -28,9 -38,5 -5,-9 14,-7 27,-12 7,-3 10,-10 7,-16 2,-12 17,-59 28,-73 4,-8 -13,-2 -20,-4 -2,0 -5,-3 -3,-5 2,-3 9,-5 10,-10 1,-6 -7,-14 -3,-23 10,-25 38,-54 48,-46 l 0,0 z M 7313,1526 c -6,-7 45,-7 61,-3 3,7 -52,6 -61,3 z m -155,-6 26,44 2,72 c -3,7 -55,17 -58,14 7,-61 15,-116 30,-130 z m -314,894 c 1,-5 6,-7 10,-5 2,1 4,8 3,11 l -15,72 c -5,12 -15,11 -16,-1 l 18,-77 z m 273,-421 c 0,-16 -24,-25 -41,-17 -8,3 -12,12 -17,22 -27,52 -49,147 -87,194 -51,61 -125,73 -158,161 -5,12 -5,23 -8,36 -6,18 -15,38 -19,58 -4,16 7,21 13,6 7,-17 13,-56 23,-83 8,-20 19,-37 25,-45 16,-25 33,-39 36,-33 0,2 -3,5 -5,10 -3,7 -7,17 -12,25 -5,8 -12,14 -16,20 11,1 16,7 15,12 -3,5 -15,12 -25,8 -2,0 -3,-3 -5,-4 -4,11 -1,19 9,18 14,-1 30,-13 44,-33 11,-16 23,-35 37,-56 23,-38 85,-43 115,-91 35,-57 62,-140 75,-208 l 1,0 z m -25,-152 c 13,-4 26,-3 39,3 2,8 -40,20 -43,32 -1,8 28,3 27,11 -3,5 -31,9 -49,25 -13,12 -19,34 -18,52 18,-9 47,-7 76,10 61,34 128,111 135,144 -6,10 -52,-10 -78,-15 -21,3 17,43 82,36 16,-2 34,-30 40,-40 -14,-44 -66,-96 -99,-145 1,-15 84,34 127,58 -27,-49 -76,-85 -144,-110 -10,-30 87,25 119,54 7,1 12,-19 -1,-31 -68,-50 -198,-172 -205,-120 l -8,36 0,0 z m 94,-149 c 4,4 4,23 29,56 31,40 111,34 113,112 -9,0 -21,1 -29,-3 -12,-8 -19,-22 -28,-27 -10,-4 -20,1 -21,17 -15,0 -25,-11 -46,-25 -25,-15 -54,-31 -76,-40 -22,-8 -57,-9 -68,-11 -2,-12 20,-37 30,-47 -3,19 17,-4 44,-19 8,-5 18,-7 28,-9 9,-2 18,-4 24,-4 l 0,0 z m 626,-303 c 13,3 40,85 81,83 10,-1 -22,-72 -12,-70 36,54 63,124 91,195 l -63,7 c -12,0 -18,-19 -34,-20 -20,-2 -25,12 -36,12 -13,-1 -23,-11 -35,-10 -21,0 -44,9 -65,10 1,-72 27,-141 73,-207 z m -94,-71 c -11,2 -8,180 -3,264 3,5 15,13 18,12 -3,-80 44,-152 54,-216 8,-13 4,-21 -5,-25 -6,-3 -14,0 -20,-6 -9,-8 -16,-31 -24,-38 -9,-10 -18,-2 -20,9 z m 60,374 c -17,-88 -212,-189 -358,-174 -11,1 -154,75 -148,83 3,3 102,-45 135,-47 0,3 -35,17 -69,31 -32,14 -63,28 -62,31 2,3 38,-9 73,-17 31,-7 60,-9 60,-6 9,7 -45,20 -30,27 22,10 75,1 110,-4 20,-3 39,-1 58,0 14,1 29,0 42,4 36,14 93,108 96,96 l -8,-27 c -2,-4 20,13 44,18 22,5 52,-3 57,-15 z m 756,-864 c 58,-7 106,14 144,64 -12,28 -18,79 -27,119 -1,4 -26,-26 -26,-8 -1,17 -2,40 4,67 7,34 24,73 28,115 6,67 -7,143 -7,188 -8,34 15,100 21,100 7,-9 28,-110 54,-216 15,-64 50,-155 47,-180 0,-25 -10,-65 -18,-106 -7,-29 -12,-58 -21,-79 -13,-29 -58,-39 -89,-56 -38,-31 -72,-41 -99,-34 28,2 54,8 74,30 -41,-24 -106,-19 -85,-4 l 0,0 z m -265,319 c -69,68 -125,158 -176,256 91,-66 161,-144 176,-256 z m -167,266 67,-54 c -22,37 3,16 27,-4 16,-13 24,-11 30,-13 -69,70 -16,77 96,43 23,-7 42,-19 70,-29 18,-2 -28,36 -53,46 -135,52 -243,54 -237,11 l 0,0 z m -117,72 c 5,36 52,94 42,134 25,37 49,81 73,112 l -3,45 c 41,-17 94,-21 151,-21 l -9,-44 c -25,-5 -34,-13 -35,-20 -1,-8 5,-15 19,-21 29,-12 83,-15 88,-15 l -98,-18 c -15,12 -50,9 -62,-2 -53,-42 -50,-73 7,-94 -37,-3 -76,-6 -101,-19 -21,-11 -29,-30 -42,-37 -15,-8 -25,-4 -30,0 l 0,0 z m -89,314 c -40,-65 -83,-127 -133,-178 17,42 32,87 40,129 22,109 22,202 12,208 -21,10 -91,-201 -99,-180 l 19,89 c -11,-4 -27,-39 -52,-128 -3,-11 -28,-44 -31,-29 14,140 28,239 64,287 49,68 124,40 153,-65 3,-3 14,2 18,-16 10,-21 5,105 -8,122 -6,8 -50,10 -76,16 18,6 63,25 74,23 98,-97 124,-309 8,-468 -10,-15 -36,-15 -37,-5 -2,13 31,62 29,75 -19,-13 -30,-50 -48,-64 -19,-13 -58,-19 -64,-16 105,127 135,180 131,200 z m 36,-129 c 8,-6 43,-1 75,12 42,16 81,44 75,53 -6,7 -26,-5 -38,-6 -9,0 -12,9 -18,14 -7,5 -16,-11 -21,-1 -8,16 -15,79 -21,66 -17,-46 -57,-133 -52,-138 l 0,0 z M 7254,667 c -3,9 14,13 33,16 9,1 19,-1 26,2 8,3 6,17 12,20 7,1 2,-13 13,-17 7,-3 18,-4 31,-3 13,1 44,1 43,7 -6,7 -36,3 -54,3 -16,1 -15,5 -14,8 0,4 12,1 21,2 7,2 9,6 6,7 -8,3 -17,1 -27,5 -12,8 25,9 36,19 2,2 8,3 11,-1 3,-5 3,-14 5,-12 8,7 34,0 41,8 52,55 86,136 147,162 21,8 47,17 68,25 6,2 5,7 11,8 15,3 28,-10 58,-13 10,-1 11,5 21,4 15,-2 8,-21 22,-21 8,0 28,0 42,5 9,3 13,11 18,10 5,-9 -14,-39 -45,-46 -15,-3 -37,12 -62,18 -31,7 -67,6 -89,0 -69,-17 -104,-85 -145,-136 -19,-22 -40,-31 -60,-50 12,-10 55,34 79,53 15,12 35,12 53,17 16,4 34,12 48,21 15,9 42,5 56,23 6,8 7,23 9,35 2,7 4,13 9,17 40,20 57,-15 97,-16 27,-1 26,23 48,22 16,-2 17,-78 28,-85 19,-10 18,49 51,37 -33,-53 -60,-73 -77,-33 -3,12 -9,22 -18,25 -9,3 -21,-2 -32,-2 -19,0 -40,4 -37,-2 8,-20 -37,-38 -32,-49 19,-6 48,-6 58,-15 4,-33 -113,-3 -185,-31 -57,-22 -113,-51 -163,-64 -82,-22 -145,-10 -161,17 l 0,0 z m 570,213 c -9,7 7,22 22,49 22,37 53,87 85,108 15,9 30,10 43,5 3,-1 8,-7 3,-19 -9,-18 -80,-92 -57,-87 11,3 28,35 35,35 4,-3 1,-16 -3,-24 -5,-7 -13,-13 -19,-21 -14,-21 -29,-44 -52,-53 -18,-7 -39,-2 -57,7 l 0,0 z m -214,97 c -2,-35 161,-84 175,-33 2,16 -49,20 -96,26 -41,4 -78,11 -79,7 l 0,0 z M 7253,844 c 14,-46 62,-51 69,-11 -23,1 -46,5 -69,11 z m -62,9 c 13,-35 -15,-37 -31,5 10,-1 22,-7 31,-5 z m 399,626 c -34,-103 -48,-206 -71,-309 -27,19 -64,69 -86,105 -61,101 -94,174 -130,178 -49,6 -131,-149 -87,-216 -51,26 -69,59 -66,97 3,28 17,59 39,91 29,44 -11,232 33,278 29,32 75,36 120,36 56,0 71,49 127,30 -6,10 -5,15 -2,19 20,5 -149,-8 -145,6 14,35 47,75 67,115 11,22 8,43 19,66 27,52 52,103 70,147 5,13 3,25 2,34 -1,11 -2,19 -5,20 l -12,-9 -32,-44 c -30,-3 13,50 49,100 13,19 25,40 32,55 8,5 18,3 22,-3 5,-18 6,-37 10,-55 5,-21 14,-42 19,-63 -11,-16 -37,-32 -48,-48 -8,-12 -6,-25 -8,-39 -1,-7 6,-9 12,-1 17,17 32,42 51,52 6,2 18,7 29,4 25,-31 100,-86 109,-65 0,3 -29,12 -56,32 -26,20 -51,52 -60,75 65,-64 123,-116 139,-83 4,12 -8,31 -20,26 -116,85 -157,289 -176,500 -24,272 -10,543 78,567 4,2 6,-7 14,-8 11,-2 28,5 40,6 22,3 41,4 41,5 l -18,18 c -14,11 107,13 100,53 4,14 186,61 283,89 15,4 21,0 38,6 86,34 161,50 152,62 l -30,-3 4,11 c -31,2 -75,-17 -83,-12 -17,12 58,18 121,53 56,31 97,88 102,79 -18,-58 46,-132 72,-203 17,-46 10,-99 -8,-106 -26,-3 -61,-14 -94,-17 -9,-1 -14,7 -23,6 -10,-1 -21,-3 -31,-5 -31,-6 -62,-12 -91,-16 -31,-5 -54,-14 -80,-16 -13,-2 14,17 0,15 -1,4 -10,-4 -11,0 -2,4 3,20 2,24 -2,1 -27,2 -60,-3 -15,-2 -28,-9 -47,-11 -21,-1 -47,3 -70,1 -19,-2 -38,-9 -56,-10 -71,-5 -125,4 -126,1 1,-5 -4,-15 -15,-23 -24,-20 -69,-42 -61,-47 58,-1 115,7 173,5 65,-1 132,-15 197,-16 6,-1 15,7 22,16 7,9 10,22 15,24 3,2 16,1 31,2 26,1 60,4 74,0 4,-3 14,-14 12,-22 -1,-5 -19,1 -16,-7 1,-7 14,-13 13,-19 -2,-6 -19,-7 -25,-11 -4,-2 2,-7 1,-10 -7,-2 -48,2 -54,0 -7,-2 20,-10 13,-12 4,-2 -3,-4 -3,-9 -1,-5 5,-12 8,-15 4,-3 24,2 28,0 5,-3 13,-12 17,-13 5,-2 6,5 10,3 30,-29 71,-60 93,-89 5,-10 -26,0 -77,28 -40,21 -92,58 -149,78 -82,28 -186,22 -247,38 -14,3 -33,-14 -47,-10 -6,-10 40,-18 30,-33 -5,-7 -20,-21 -38,-27 -16,-5 -34,-2 -39,-9 -2,-10 24,-15 53,-9 19,5 33,19 53,24 22,5 49,0 63,-8 7,0 -11,-19 1,-30 8,-8 22,-13 19,-17 -39,-35 -115,-122 -117,-104 -13,6 -16,-14 -16,-18 1,-5 11,-10 29,1 l 150,155 c 10,4 9,-12 29,-6 6,3 22,5 35,12 17,10 33,25 42,27 11,0 34,-39 66,-63 13,-10 31,-21 46,-23 10,-2 17,5 22,4 11,-19 39,-44 33,-51 l -18,-7 c -12,1 -15,12 -26,13 -13,1 -34,-9 -47,-7 -18,2 -44,4 -69,9 -11,2 -20,8 -31,9 -32,3 -60,-4 -81,-1 -16,2 -20,13 -25,12 l -120,-95 c -15,-9 -33,-8 -43,-5 -16,6 -19,25 -3,42 l 90,75 c 37,36 16,50 -19,45 -44,-7 -111,-37 -139,-30 -39,9 -71,30 -76,28 -5,-2 12,-15 22,-20 13,-6 32,-8 41,-16 4,-3 -9,-13 1,-16 16,18 24,18 28,-3 2,-8 0,-18 1,-32 3,-1 6,-9 8,-12 3,-2 10,3 13,2 3,-6 0,-32 -1,-47 2,-22 -74,30 -77,-5 -1,-5 2,-17 11,-22 16,-9 44,-13 64,-27 17,-12 27,-37 29,-44 10,-10 9,-14 -3,-13 -29,16 -70,45 -99,61 -12,7 -20,3 -28,9 -7,6 -21,38 -23,52 -3,18 -10,17 -9,-2 l 6,-26 c 1,-3 -20,-1 -23,6 -5,12 -9,22 -15,26 -5,4 -11,0 -11,-2 -1,-3 8,-9 13,-20 1,-8 -30,-4 -27,-21 11,-63 16,-68 17,-24 2,4 11,0 14,4 2,4 -1,15 1,19 7,7 28,3 34,0 30,-36 36,-88 67,-124 31,-36 88,-58 119,-94 -4,-19 21,-58 43,-103 14,-28 24,-61 34,-85 5,-12 -17,-22 -16,-40 1,-16 24,-38 26,-55 1,-11 -32,-3 -30,-16 1,-11 34,-34 35,-51 -3,-11 -28,-5 -31,-20 -2,-11 6,-32 9,-42 13,-19 -26,1 -28,-6 -2,-9 27,-34 25,-46 0,-7 -14,-1 -15,-5 0,-5 10,-12 7,-22 0,-3 -10,-2 -20,-6 -10,-4 -23,-17 -26,-21 -6,-9 5,-13 -1,-18 -29,-22 -79,-32 -102,-65 -31,-45 -30,-122 -64,-161 6,-60 -135,-61 -204,-117 -52,-16 2,-16 3,-23 80,41 144,48 151,-69 -10,-16 -47,4 -74,2 -27,-3 -54,-4 -80,-3 -62,3 -109,18 -129,2 -23,0 -39,0 -48,-11 -11,-6 -17,-14 -13,-23 7,-15 35,-31 66,-54 -46,-4 -64,-8 -65,-16 -3,-23 -26,-31 164,-36 25,-28 43,-59 61,-97 13,-8 17,2 13,19 -4,22 -20,56 -22,78 l 82,8 c 16,-4 41,-16 45,-28 l 0,0 z m -228,-355 c -6,-13 -10,-26 -8,-41 3,0 -5,0 -8,-2 -2,-2 1,-9 27,-16 7,-2 12,-10 14,-4 1,3 4,4 4,17 l 14,2 1,19 c 4,2 19,-10 23,-9 4,2 -1,17 4,19 26,12 17,35 12,46 -6,14 -24,21 -47,25 -47,11 -49,33 -46,36 7,10 51,-33 66,-29 10,10 63,-15 69,-9 0,5 -16,21 -32,43 -18,24 -37,53 -48,71 -54,89 -75,150 -106,147 -39,-2 -176,-258 9,-220 0,0 4,1 6,-5 2,-8 -22,-9 -20,-19 2,-12 30,-32 37,-41 12,-17 32,-25 29,-30 l 0,0 z M 7167,778 c 11,-17 11,-36 22,-52 9,-14 24,-21 38,-42 27,25 54,43 83,38 17,37 39,59 72,45 22,62 15,124 1,174 -7,27 -22,56 -44,77 -36,35 -90,48 -130,20 -21,-12 -12,-20 21,-21 20,2 14,-18 -3,-11 -25,7 -39,3 -40,-2 -2,-12 7,-14 69,-21 10,1 11,-6 -1,-8 -7,-2 -15,-1 -23,-6 -8,-5 -15,-14 -20,-17 -3,-1 -7,3 -8,3 -15,-7 -16,-12 -2,-15 3,-1 8,-10 14,-9 6,0 14,11 19,10 6,0 12,-2 14,-6 4,-5 -4,-25 -7,-45 -2,-16 0,-32 9,-40 4,3 8,7 14,5 0,24 50,18 64,-11 l 29,-17 c 6,-3 -1,-8 -2,-12 0,-4 2,-8 -2,-11 -6,-6 -18,-9 -27,-13 -16,-6 -32,-11 -37,-4 -4,3 -32,2 -45,8 -15,7 -31,62 -48,96 -6,10 -10,17 -14,21 -7,5 -11,-1 -2,-21 37,-77 46,-122 -24,-81 l 10,-32 0,0 z m 381,336 c 36,-10 175,5 198,25 2,3 -17,8 -28,31 -7,15 -19,36 -25,59 -5,15 -4,32 -10,47 -4,12 -12,23 -17,35 -8,15 -14,31 -17,32 -3,-34 -2,-69 0,-104 -6,-5 -7,23 -12,29 -4,-3 -8,-7 -9,-24 -13,12 -17,27 -20,48 -5,-19 -9,-43 -8,-67 2,-39 11,-75 8,-79 -29,44 -16,123 8,212 -16,-27 -49,-64 -65,-107 -22,-56 -32,-119 -3,-137 l 0,0 z"
             inkscape:connector-curvature="0"
             style="fill:#ffcc00" />
         <path
             id="path30"
             class="fil0"
             d="m 7312,798 c -7,0 33,36 38,20 2,-8 -25,-13 -38,-20 z m 1255,2693 c -9,3 -8,15 2,14 7,-3 7,-11 -2,-14 z m -8,25 c 10,3 12,11 3,15 -12,0 -12,-15 -3,-15 z m -24,16 c -13,8 1,28 17,22 7,-10 -5,-28 -17,-22 z m -109,-111 c -19,22 -31,41 -39,77 1,12 51,38 76,58 -4,-16 3,-53 -7,-57 -11,-5 -37,23 -41,0 -3,-17 8,-60 11,-78 l 0,0 z m -469,507 c -26,52 -39,62 -43,43 2,-12 6,-26 12,-36 5,-11 11,-18 12,-22 l -13,-68 c -1,-8 1,-14 8,-18 39,-7 74,-45 111,-68 -1,36 -7,65 -9,91 -2,39 4,70 -7,94 -4,9 -8,17 -14,23 -6,6 -13,11 -20,15 -13,10 -28,37 -43,46 -3,2 -16,8 -26,8 -19,1 -36,-15 -9,-21 28,-6 46,-28 63,-43 27,-26 54,-45 45,-96 -13,-39 -19,-53 -34,-46 -32,17 -46,43 -42,80 1,4 -11,16 -9,19 2,3 17,-3 18,-1 l 0,0 z m -341,-748 c 8,3 54,-2 79,3 4,3 -21,7 -21,16 67,16 123,32 108,51 -6,4 -147,-45 -166,-70 l 0,0 z m 211,100 c 106,66 254,111 398,130 12,2 -34,-16 -25,-14 13,2 69,7 34,-3 l -407,-113 0,0 z m 178,94 c 96,37 250,71 287,112 -6,9 -42,40 -46,48 -35,-23 -95,-34 -131,-57 -22,-14 -22,-36 -38,-52 -9,-11 -30,-12 -42,-25 -6,-7 -20,-19 -30,-26 z m 1,132 c 5,-1 50,67 14,-4 -2,-28 103,85 154,127 -25,0 -35,23 -53,34 -39,-52 -95,-113 -115,-157 z m -365,-101 c 130,115 221,224 254,325 -60,-102 -150,-212 -254,-325 z m -192,-234 c 36,20 59,21 68,5 90,25 216,129 356,243 15,5 38,3 57,4 9,6 14,42 12,52 -32,-4 -74,-49 -118,-75 -32,-18 -66,-32 -94,-51 -29,-19 -46,-48 -68,-62 -31,-20 -60,-22 -70,-12 -4,2 9,25 20,44 10,17 5,39 1,43 -72,-49 -123,-114 -164,-191 l 0,0 z m 1047,-469 c 3,-12 -14,-10 -50,6 17,-2 41,1 50,-6 z m -25,8 c -24,16 -57,62 -71,47 4,-9 42,-30 71,-47 z m -185,-77 c 33,8 65,12 98,11 l 27,46 c -1,2 -11,5 -22,13 -9,7 -19,24 -27,24 -7,-6 -15,-13 -23,-18 -15,-9 -29,-16 -31,-23 l -22,-53 0,0 z m 165,276 c -3,10 -12,14 -15,23 -3,13 2,31 -2,45 -7,28 -15,61 -15,85 1,35 20,61 17,74 l -17,65 c -14,8 -70,-67 -65,-79 10,-21 42,-29 50,-65 11,-48 5,-116 11,-148 6,-25 23,-25 36,0 l 0,0 z m -33,-22 c -6,-2 -12,-1 -17,3 -7,7 -10,20 -11,30 l 13,4 c 3,-11 7,-33 15,-37 l 0,0 z m -61,-131 c -5,45 25,98 20,143 -4,26 -20,68 -31,105 -15,48 -26,87 -27,69 0,-21 -6,-19 -3,-42 2,-15 14,-55 15,-70 1,-8 -4,-15 -4,-23 1,-6 8,-8 8,-14 1,-16 -10,-28 -8,-44 5,-41 28,-73 30,-124 l 0,0 z m -658,383 310,16 -24,-23 c -1,-6 21,-9 66,-10 l 58,85 c -34,8 -73,-4 -112,-12 -18,-4 -37,5 -55,4 -21,-1 -35,-10 -55,-13 -40,-3 -86,0 -126,1 -11,-22 -34,-36 -62,-48 l 0,0 z m 492,20 c 14,-12 30,-23 50,-26 -8,9 -13,18 -14,27 l -36,-1 z m -57,11 c 70,-5 144,1 154,26 -18,2 -110,-18 -154,-26 z m 159,-142 21,74 c -6,11 -66,19 -99,30 -6,-6 15,-20 9,-26 -5,-5 -36,-2 -41,-8 -5,-4 19,-18 15,-22 -5,-5 -37,0 -41,-4 46,-10 92,-24 136,-44 l 0,0 z m 2,-70 c 16,28 14,48 -5,62 l -105,40 c 39,-31 77,-64 110,-102 z m -326,-63 c -26,36 50,27 154,4 -26,-11 -87,-8 -154,-4 z m -12,127 40,40 c 19,0 39,-5 58,-15 -44,-33 -79,-47 -98,-25 z m -160,11 14,40 179,-7 c -26,-25 -49,-53 -73,-80 -31,7 -12,51 -31,50 -29,10 -59,8 -89,-3 z m -54,-16 c 26,-5 41,2 44,21 -12,-11 -27,-18 -44,-21 z m 4,-157 c 9,25 18,41 33,54 18,16 40,25 53,35 23,18 30,32 25,40 -9,12 -51,5 -136,-27 -7,-8 1,-30 1,-45 4,-13 20,4 24,-5 4,-10 -4,-43 0,-52 l 0,0 z m 552,-91 c 32,5 15,127 -32,109 18,-34 31,-72 32,-109 z m -13,-31 c -2,-4 -14,31 -33,51 -19,20 -46,24 -58,39 -11,12 -2,35 -8,48 -6,12 -28,13 -39,26 -1,5 30,7 47,-2 28,-15 55,-49 55,-34 -5,35 -24,68 -53,99 -50,8 -79,28 -93,58 -5,9 98,-44 108,-54 43,-82 80,-162 74,-231 z m -178,84 c -11,12 -14,22 -11,32 l -80,-5 c 35,0 65,-10 91,-27 z m -279,20 141,23 c -30,13 -43,33 -39,60 l -102,-83 z m 206,-189 c 48,2 79,24 76,86 4,26 25,23 34,-9 3,-6 14,6 9,-22 -5,-24 -31,-19 -26,-46 l 100,40 c 19,17 3,34 -35,52 -36,16 -88,38 -151,50 -49,9 -104,10 -158,15 -73,7 -143,17 -192,31 -28,11 -42,0 -7,-18 31,-9 65,-35 83,-60 14,-19 5,-46 13,-48 11,-3 13,57 41,69 34,14 89,10 134,3 49,-9 121,-34 127,-69 2,-11 -3,-27 -11,-37 -17,-19 -43,-29 -37,-37 l 0,0 z m -392,125 c -30,41 -16,42 35,-5 -19,10 -31,11 -35,5 z m 125,-51 c -40,10 -75,29 -102,62 3,5 89,-48 102,-62 z m 237,-106 -38,-3 c -16,25 -65,49 -133,71 8,23 -1,75 24,69 13,-12 -18,-46 2,-58 28,-18 78,-14 110,-26 31,-10 45,-37 35,-53 l 0,0 z m -559,-411 c -17,-20 -22,30 -6,39 123,134 87,141 -21,91 2,13 55,47 69,67 10,14 -16,14 -14,23 1,6 13,15 12,21 -4,11 -19,10 -20,18 -1,12 17,7 17,22 -1,11 -16,20 -15,32 1,9 9,18 10,26 1,13 -13,24 -12,34 1,8 14,17 14,24 1,9 -12,17 -12,25 1,6 9,8 10,14 0,5 -12,9 -11,15 0,6 13,10 14,17 0,6 -11,8 -11,14 1,8 11,12 12,20 0,6 -5,13 -4,20 1,9 6,20 7,30 1,8 -6,14 -5,22 1,7 4,13 2,20 -2,8 -9,16 -10,27 -1,12 7,20 12,32 10,22 7,67 13,92 10,46 27,74 34,119 -33,-219 -35,-445 19,-688 -1,-8 -17,-30 -37,-62 -22,-36 -48,-83 -67,-114 l 0,0 z m -33,-212 c 34,124 60,204 58,127 -1,-14 -39,-84 -58,-127 z m 161,158 c 0,25 -2,50 -3,72 -2,69 -5,129 -20,131 -12,1 -33,-41 -58,-99 12,11 28,34 37,30 16,-7 22,-41 32,-85 3,-16 9,-31 12,-49 l 0,0 z m -50,-70 c -12,17 13,31 43,44 -19,-22 -43,-50 -43,-44 z m 139,29 c -51,43 -73,98 -84,158 28,-53 52,-108 84,-158 z m 52,-32 c -40,17 -66,79 -94,132 14,-20 29,-43 45,-63 12,-15 25,-27 35,-41 4,-5 15,2 24,-11 6,-8 1,-19 -10,-17 z m -524,-40 c -13,-11 -59,-62 -68,-27 -16,63 -48,156 -89,209 -47,61 -117,82 -117,88 l 82,-28 c 8,-3 12,1 6,7 -55,21 -105,45 -124,93 8,7 28,-38 42,-32 9,5 5,16 17,9 23,-22 68,-38 84,-66 21,-34 21,-67 45,-97 44,-54 82,-104 122,-156 z m 2,20 -20,22 c 23,13 44,19 64,18 l -44,-40 z m 20,-105 c 53,20 101,50 138,92 0,9 -22,23 -33,35 l -105,-127 z m 92,-35 c 32,14 41,34 26,60 10,22 17,41 18,51 l -69,-77 25,-34 0,0 z m -212,-82 0,22 26,-20 c -9,-6 -18,-6 -26,-2 z m 2,-53 c -37,-27 -60,42 -21,85 4,-16 6,-40 11,-58 4,-13 11,-22 10,-27 z m 159,59 30,42 -49,-42 c 6,1 17,6 19,0 z m 16,6 c 72,14 113,47 113,102 -45,-31 -96,-57 -113,-102 z m -64,-151 c 8,30 30,51 64,65 47,18 106,13 152,13 -7,-7 -44,-20 -78,-28 -26,-6 -62,-5 -87,-13 -24,-8 -36,-19 -51,-37 z m -100,-16 c -6,-10 20,-23 63,-31 -24,10 -46,19 -63,31 z m 81,-28 c 4,27 -48,35 -81,42 4,-4 8,-15 21,-22 24,-11 50,-28 60,-20 l 0,0 z m -44,-258 c -33,8 -10,64 36,142 -12,-48 -19,-124 -36,-142 z m 19,0 c 26,30 31,76 27,129 l -27,-129 z m 642,666 c 22,3 67,28 93,20 27,-8 44,-42 72,-47 50,153 21,308 -29,475 34,8 57,37 72,80 -26,-5 -52,-83 -91,-71 -35,11 -76,57 -119,98 -33,31 -69,59 -96,67 5,-34 66,-34 97,-83 8,-12 6,-23 12,-40 11,-28 37,-66 49,-96 10,-23 10,-40 15,-56 6,-21 -23,-12 -13,-29 13,-22 24,-43 33,-63 7,-13 -32,-4 -26,-17 5,-13 18,-26 22,-39 6,-18 -16,-22 -23,-36 -5,-10 4,-29 6,-42 3,-12 -29,3 -24,-14 2,-7 16,-16 17,-23 1,-11 -8,-9 -6,-21 0,-3 1,-6 1,-9 3,-18 -59,-6 -62,-54 l 0,0 z m -405,-512 c -26,-10 -167,53 -129,61 39,-20 120,-52 129,-61 z m -13,37 c -48,4 -112,18 -114,34 -2,18 67,-13 69,-14 46,-13 99,-23 45,-20 z m 68,-73 c -131,-5 -201,0 -180,15 9,6 90,2 135,6 l 45,-21 z m -47,86 c -36,5 -58,10 -73,15 -14,4 -22,9 -22,14 0,4 24,8 101,-11 l -6,-18 0,0 z m 36,19 c 41,-8 81,-10 122,-7 -41,10 -81,13 -122,7 z m 152,25 43,29 -1,55 c -26,13 -54,20 -83,20 25,8 57,6 84,-7 l -1,72 c -14,-13 -31,-23 -54,-31 -16,-5 -35,-10 -54,-17 -16,-5 -31,-11 -43,-18 -16,-9 -26,-17 -43,-25 -7,-3 -16,-4 -22,-7 l 16,-7 c 93,50 151,39 158,-64 z m 96,68 c 30,9 59,7 85,-8 13,7 30,121 23,130 l -108,-122 0,0 z m 58,89 c 38,108 57,137 51,53 l -51,-53 z m 126,146 c 4,17 10,67 -7,82 -17,15 -73,9 -96,9 28,-6 57,-15 75,-35 17,-19 24,-49 28,-56 l 0,0 z m 72,-220 c 33,68 45,154 43,252 -44,59 -74,89 -93,89 56,-96 91,-201 50,-341 z m 107,15 c 2,-5 20,0 25,8 6,82 -24,142 -65,196 -6,-2 -5,-52 -10,-75 -4,-16 -14,-27 -13,-35 2,-11 11,-23 13,-36 3,-17 -2,-34 2,-38 l 35,-5 c 28,73 17,3 13,-15 l 0,0 z m 11,147 c -23,43 -49,84 -82,124 l 26,103 c 64,27 126,29 185,6 -6,0 -89,-68 -79,-125 -4,-2 -12,6 -15,1 -1,-3 0,-18 -1,-21 -3,-6 -9,-1 -12,-6 -2,-5 -1,-21 -4,-24 -3,-5 -10,7 -15,6 -5,0 -9,-11 -10,-17 0,-3 -10,10 -10,7 -1,-11 11,-40 17,-54 l 0,0 z m 144,27 c -73,73 -1,53 25,14 2,-2 -2,-4 -9,-8 0,0 -2,3 -4,0 -3,-6 -9,-8 -12,-6 z m 321,-119 c 11,105 -216,228 -326,316 -2,-11 65,-61 124,-112 30,-26 57,-56 78,-77 21,-22 21,-37 39,-56 27,-29 68,-59 85,-71 z m -82,-231 c -24,8 -64,64 -103,100 -30,28 -64,37 -75,30 l 15,16 c 12,22 12,38 2,50 -16,20 -63,21 -106,29 -37,6 -81,38 -93,30 l 7,-33 c 22,-28 105,-26 158,-39 5,-2 -1,-14 -2,-24 -2,-11 -2,-23 -5,-24 -14,-2 -25,-8 -27,-13 -2,-5 8,-12 16,-16 14,-6 41,-5 62,-9 13,-3 24,-11 27,-16 3,-2 -27,-5 -40,-7 24,2 40,4 58,-5 24,-11 36,-47 54,-63 25,-25 50,-27 52,-6 l 0,0 z m 66,-29 c -1,18 -23,34 -53,41 17,-13 42,-37 53,-41 z m 126,-100 c 6,18 14,33 25,46 -35,57 -60,117 -80,191 -5,-3 -19,-43 -21,-66 -2,-30 4,-57 1,-78 -4,-18 -12,-30 -24,-34 -1,-5 18,-7 40,-18 18,-10 55,-47 59,-41 l 0,0 z M 8485,997 c 42,68 103,143 125,218 16,54 10,109 -8,156 -7,-1 -13,-43 -19,-64 l 6,-9 c 6,-13 -82,0 -95,-25 -16,-28 29,-74 25,-82 -9,-16 -10,-28 2,-32 24,-11 -17,-118 -36,-162 l 0,0 z m 136,60 c -12,-28 -16,-69 -27,-97 -16,-42 -39,-70 -56,-109 6,-37 119,7 121,52 -2,28 -6,85 -9,94 -32,-23 -41,-3 -29,60 l 0,0 z M 8389,730 c 16,-24 34,-30 45,-5 -16,-1 -32,0 -45,5 z m -4,9 c 27,-8 47,-13 61,-2 19,17 14,64 15,114 2,34 6,76 15,118 -17,-43 -22,-99 -38,-119 -7,-9 -15,-9 -24,-4 l -29,-107 0,0 z m -147,45 c -49,8 4,41 81,79 12,-10 -54,-52 -81,-79 z m 111,115 c 72,26 3,275 -113,370 30,-53 46,-151 68,-229 22,-79 41,-142 45,-141 z m -89,366 -81,83 c 14,3 56,-28 58,-13 -74,77 -17,71 59,53 -63,2 -73,-15 -29,-53 6,-5 -21,2 -22,-8 -3,-15 26,-43 15,-62 l 0,0 z m -126,182 c 26,0 54,1 81,-3 81,-12 157,-44 183,-79 l -12,40 c -4,-14 -89,41 -161,48 -46,5 -100,-6 -91,-6 l 0,0 z m 13,10 c 65,12 132,1 202,-39 -36,20 -72,41 -104,66 -12,-11 -77,-14 -98,-27 l 0,0 z m -236,162 c -7,1 -2,14 7,21 43,8 85,21 123,46 -19,-67 -67,-79 -130,-67 l 0,0 z m 107,-5 -34,-15 -100,-246 c 37,23 100,48 143,80 28,21 25,47 64,67 49,25 100,41 103,46 2,7 -41,20 -46,40 -2,10 9,23 25,33 9,6 21,8 31,12 -3,6 -27,11 -40,5 -30,-12 -50,-39 -42,-63 4,-12 20,-21 39,-32 -20,-8 -61,-9 -88,-22 -23,-11 -41,-33 -58,-43 -22,-12 -41,-11 -45,-4 16,47 60,128 48,142 l 0,0 z m -283,-448 c 88,81 136,183 154,299 -5,7 -26,-12 -47,-44 -11,-17 -19,-42 -33,-60 -8,-11 -32,-18 -42,-27 -15,-15 -16,-29 -26,-37 -10,-9 -19,-4 -23,2 -5,-43 3,-140 17,-134 l 0,1 z m -24,27 c -18,22 -16,58 -26,84 -15,37 -33,65 -31,97 3,53 37,98 41,88 6,-87 10,-182 16,-269 z m -86,61 c -17,48 -10,96 18,127 -6,-42 -12,-104 -18,-127 z m -54,54 c 34,75 78,147 130,219 5,0 4,-27 -2,-35 -21,-30 -38,-59 -49,-89 -29,-23 -55,-57 -79,-95 z m -23,-21 c 43,91 91,178 150,259 18,43 2,43 -48,-2 -21,-1 -59,-21 -85,-30 -7,-6 37,-17 32,-37 -14,-56 -41,-133 -49,-190 l 0,0 z m -81,144 -45,67 27,0 18,-67 z m 751,86 c 40,-22 77,-24 110,13 2,19 -19,51 -46,65 -22,11 -47,7 -70,3 1,-14 38,-14 39,-41 0,-22 -36,-22 -33,-40 l 0,0 z m -634,1068 c -15,7 -27,33 -31,52 -24,118 -8,151 37,52 -1,-7 -13,3 -15,-2 -12,-27 24,-106 9,-102 l 0,0 z m 47,-258 c -9,0 -18,-1 -25,9 -33,46 -44,192 -32,201 6,2 36,-50 55,-100 10,-26 20,-50 15,-69 -3,-9 -19,4 -18,1 4,-13 15,-33 5,-42 z m 50,-123 c -19,59 -52,120 -64,96 0,-9 13,-43 30,-71 20,-33 44,-56 34,-25 z m 741,1176 c 10,-48 16,-123 -17,-129 -13,-1 -13,14 -20,24 -11,-7 -18,-8 -21,-5 -3,5 -16,28 -8,47 8,20 40,32 52,66 3,5 10,5 14,-3 l 0,0 z M 7666,826 c 0,6 1,14 3,20 1,5 2,10 5,14 8,8 27,12 45,5 0,-4 -5,-11 -15,-14 -7,-3 -17,-1 -23,-5 -9,-5 -9,-15 -15,-20 l 0,0 z m -155,-58 c 7,6 14,16 21,17 l 36,-2 c 10,-6 -61,-25 -57,-15 z m 263,-16 c 6,-2 20,9 25,19 4,10 -2,19 -4,20 -5,3 -20,4 -38,-5 -9,-4 -35,-18 -31,-20 l 48,-14 0,0 z m -194,-50 c 123,-18 226,-18 232,63 -6,-1 -38,-34 -66,-39 -23,-3 -49,-2 -73,-3 -21,-1 -41,1 -51,-5 -4,-3 45,-6 40,-6 -26,-3 -56,-3 -82,-10 l 0,0 z m 312,92 c 8,1 59,-32 62,-27 4,8 -31,47 -48,51 -2,-8 -6,-16 -14,-24 z m -23,23 c -26,-2 -16,27 -22,42 30,-4 63,-3 83,13 13,10 12,38 24,45 19,-7 33,-19 42,-37 -72,11 -88,-51 -127,-63 z m 121,205 c 1,-6 -7,-14 1,-19 24,-16 89,-21 88,-13 -13,53 -84,91 -120,62 -3,-4 35,-15 46,-19 10,-4 -10,-8 -15,-11 z m -337,-38 c 26,37 83,31 165,-9 16,-10 -26,-10 -26,-20 12,-23 38,-8 80,46 8,5 12,0 10,-5 -22,-34 -43,-68 -70,-85 -23,-15 -53,-15 -52,-6 6,16 42,25 31,43 0,5 -13,12 -33,15 -42,8 -112,13 -105,21 l 0,0 z M 7496,811 c 28,54 62,96 91,115 27,19 51,17 50,-4 -7,-13 -54,-24 -78,-43 -23,-19 -44,-42 -63,-68 z m -89,26 c 17,10 26,29 24,55 7,11 16,14 27,9 18,20 -5,47 -10,51 -5,3 -14,-8 -16,-30 -8,49 -34,90 -74,124 11,9 36,-16 75,-76 10,-13 16,-11 18,7 15,53 39,97 72,134 8,12 7,20 -3,26 -38,33 -63,43 -82,43 24,-30 32,-57 6,-78 -5,-8 7,-25 2,-29 -7,-1 -24,13 -28,9 l 0,-28 c -6,-6 -14,16 -20,15 -3,-10 -2,-33 -9,-30 -20,17 -65,38 -61,46 l 23,37 c 0,7 -21,21 -27,31 -8,-25 -20,-45 -30,-68 7,-1 14,-5 18,-12 -67,18 -112,8 -123,-43 -1,-13 16,-19 32,-18 2,3 -5,2 -13,4 -9,3 -15,10 -13,13 18,30 106,60 170,-34 15,-21 31,-57 37,-96 3,-22 4,-44 5,-62 z m -13,-59 c 0,-4 14,11 34,19 16,6 39,8 49,13 13,6 8,13 -22,12 -22,2 24,6 46,26 14,12 24,32 39,49 19,22 42,42 58,57 2,9 -28,23 -43,24 -19,1 -40,-4 -41,-1 10,19 37,27 75,27 -5,15 -71,73 -91,60 -18,-12 -37,-80 -34,-115 1,-14 13,-21 19,-21 -39,-50 -72,-100 -89,-150 l 0,0 z m 16,-6 c -10,-4 -13,-8 -16,-11 -12,-11 74,-11 66,24 -6,15 -45,5 -50,-13 l 0,0 z m -9,-26 c -8,-8 31,-12 38,0 1,5 -35,3 -38,0 z m -95,-43 c 14,28 21,46 30,54 19,16 78,7 16,-11 46,-2 22,-8 -6,-19 -17,-7 -34,-19 -40,-24 l 0,0 z m -63,-31 c 8,27 28,43 58,30 0,-4 -15,-8 -29,-15 -14,-7 -26,-16 -29,-15 z m -20,-2 c -26,-9 -46,16 -52,52 7,-4 52,-45 52,-52 z m -27,305 c -2,-3 -2,-8 1,-11 1,-2 4,-3 6,-4 3,-1 7,-3 10,0 2,2 4,6 6,12 0,5 -20,7 -23,3 z m -8,-35 c -32,-15 -11,28 -12,46 5,5 8,-11 10,-25 2,-11 4,-18 2,-21 z m -12,-60 c -6,9 -10,24 -12,36 -2,-10 -3,-21 -1,-31 l 13,-5 z m 25,31 c 0,9 0,12 -10,8 -2,-6 5,-12 10,-8 z m 37,-89 c -5,31 -9,54 -2,87 2,11 0,18 -4,13 -4,-5 -16,-14 -24,-15 l 30,-85 0,0 z m -326,1550 c 10,6 -21,76 -26,67 -3,-6 20,-71 26,-67 z m -39,-78 c -3,21 -19,43 -46,66 10,-23 26,-45 46,-66 z m -54,85 c 17,15 -7,48 -19,76 l 19,-76 z m 27,-25 c -11,7 -9,11 5,9 4,-1 7,-3 11,-4 0,-3 -11,-5 -16,-5 l 0,0 z m 5,39 c 3,-2 7,-3 11,-6 4,-2 6,-6 8,-5 5,3 -20,74 -29,112 3,-34 -1,-88 10,-101 l 0,0 z m 50,-27 c -14,36 -28,102 -42,116 -1,-28 9,-65 28,-107 l 14,-9 0,0 z"
             inkscape:connector-curvature="0"
             style="fill:none" />
      </g>
   </g>
</svg>
