<?xml version="1.0" encoding="UTF-8" standalone="no"?>
<svg
    xmlns:dc="http://purl.org/dc/elements/1.1/"
    xmlns:cc="http://creativecommons.org/ns#"
    xmlns:rdf="http://www.w3.org/1999/02/22-rdf-syntax-ns#"
    xmlns:svg="http://www.w3.org/2000/svg"
    xmlns="http://www.w3.org/2000/svg"
    xmlns:sodipodi="http://sodipodi.sourceforge.net/DTD/sodipodi-0.dtd"
    xmlns:inkscape="http://www.inkscape.org/namespaces/inkscape"
    id="city_bel"
    data-name="bel"
    width="52.5mm"
    height="52.5mm"
    viewBox="0 0 148.82 148.82"
    version="1.1"
    inkscape:version="0.91 r13725"
    sodipodi:docname="_apatity.svg">
   <metadata
       id="metadata12">
      <rdf:RDF>
         <cc:Work
             rdf:about="">
            <dc:format>image/svg+xml</dc:format>
            <dc:type
                rdf:resource="http://purl.org/dc/dcmitype/StillImage" />
            <dc:title></dc:title>
         </cc:Work>
      </rdf:RDF>
   </metadata>
   <defs
       id="defs10" />
   <sodipodi:namedview
       pagecolor="#ffffff"
       bordercolor="#666666"
       borderopacity="1"
       objecttolerance="10"
       gridtolerance="10"
       guidetolerance="10"
       inkscape:pageopacity="0"
       inkscape:pageshadow="2"
       inkscape:window-width="640"
       inkscape:window-height="480"
       id="namedview8"
       showgrid="false"
       inkscape:zoom="1.268656085"
       inkscape:cx="93.01181102"
       inkscape:cy="93.01181102"
       inkscape:current-layer="city_bel" />
   <g
       transform="matrix(0.0283466687,0,0,0.0283466716,-296.9502575,1.261176973)"
       style="clip-rule:evenodd;fill-rule:evenodd;image-rendering:optimizeQuality;shape-rendering:geometricPrecision;text-rendering:geometricPrecision"
       id="apatity">
      <path
          class="fil2"
          d="m 11153,2649 c 11,27 1433,156 1531,191 -4,97 -88,252 -88,340 l 337,-105 183,1550 181,-1550 341,102 -101,-343 1566,-184 -1565,-182 103,-344 -170,51 c -58,19 -116,40 -173,50 l -184,-1543 -180,1547 -343,-105 100,345 -1538,180 z"
          id="path1594"
          inkscape:connector-curvature="0"
          style="fill:#000000" />
      <path
          class="fil3"
          d="m 12008,839 -3,-159 c -41,35 4,190 -24,247 -37,-62 15,-162 -28,-219 1,50 15,210 -11,252 -11,-51 -4,-184 -20,-210 l -6,258 c -35,-57 -2,-165 -28,-219 l -2,267 c -26,-19 -75,-51 -111,-69 5,52 24,67 27,105 3,45 -5,80 1,136 -73,-14 -52,-33 -97,-67 -31,-24 -100,-27 -134,-37 19,71 41,37 66,98 l 46,123 c -69,-5 -75,-27 -121,-32 -41,-5 -77,14 -130,15 37,48 65,29 105,70 l 86,99 c -42,13 -89,0 -135,14 -28,9 -45,29 -67,44 -3,2 -12,7 -14,9 l -14,10 c 50,28 72,-2 123,25 51,27 41,30 113,42 -41,82 -77,3 -163,138 -1,3 -3,5 -5,8 l -15,27 c 54,-4 69,-23 117,-23 51,0 69,5 126,0 -17,69 -33,47 -69,98 -24,33 -21,79 -37,125 67,-16 37,-44 111,-66 64,-20 63,-30 114,-49 2,83 -18,59 -30,115 -11,48 16,75 11,139 68,-44 18,-90 103,-110 -14,106 0,184 66,245 102,94 -2,231 91,220 14,-109 -22,-146 59,-220 71,-65 67,-108 69,-215 45,18 77,44 113,73 0,-63 -23,-63 -25,-112 -3,-59 13,-76 -6,-134 71,6 59,35 100,66 33,24 94,25 135,37 -19,-68 -43,-42 -66,-98 -8,-18 -10,-42 -17,-60 -12,-29 -19,-26 -33,-60 72,-4 168,64 248,2 -42,-35 -66,-22 -103,-64 -22,-26 -68,-63 -78,-93 115,-25 141,4 227,-79 -37,-18 -88,-5 -122,-22 -18,-10 -30,-21 -49,-29 l -56,-27 c 72,-75 71,2 155,-127 l 20,-34 c -49,4 -66,23 -116,23 -48,0 -75,-4 -127,-1 21,-67 39,-54 70,-97 21,-29 22,-85 36,-125 -60,17 -58,47 -95,64 -26,12 -41,7 -67,16 -38,14 -15,18 -65,28 3,-91 57,-115 21,-198 -14,-32 -6,-18 -26,-38 -7,20 -16,59 -34,79 -20,22 -2,6 -31,21 -4,-73 19,-256 -7,-302 l -12,249 c -25,-39 -17,-94 -16,-141 2,-43 13,-113 -6,-142 l -8,185 c -18,-23 -21,25 -19,-110 0,-37 4,-85 -6,-111 -11,21 -8,7 -10,43 l -1,186 c -45,-53 -21,-185 -20,-265 -17,21 -17,-8 -15,80 l -10,91 c -37,-56 8,-168 -23,-222 -28,63 22,159 -26,214 z"
          id="path1596"
          inkscape:connector-curvature="0"
          style="fill:#ffcc00" />
      <path
          class="fil4"
          d="m 13924,3723 c -7,-37 -18,-49 48,-98 40,-31 29,13 86,-59 26,-33 19,-34 57,-50 l 88,91 c -23,46 -47,37 -91,112 56,59 105,113 171,162 79,-60 108,-95 173,-162 -39,-66 -67,-73 -91,-112 34,-47 56,-37 88,-91 38,17 19,2 47,38 84,106 52,33 103,75 84,68 3,69 106,145 l -36,170 c -46,-28 -30,-33 -68,-70 -28,-27 -48,-50 -69,-65 -52,36 -122,101 -163,156 56,64 233,213 255,258 -23,33 -34,53 -69,68 -78,-50 -202,-189 -270,-245 -29,14 -49,29 -73,58 l -206,186 c -38,-13 -48,-33 -70,-67 22,-48 226,-217 255,-258 -44,-60 -107,-114 -163,-157 -48,34 -86,104 -135,135 -30,-133 -63,-178 27,-220 z m -294,-338 -3,77 -43,-6 -8,28 c -45,3 -52,-8 -72,22 l 0,1119 c 169,-5 684,-116 692,-87 4,13 46,35 83,36 53,2 76,-21 100,-43 101,-3 237,33 335,51 110,20 233,40 349,43 l 2,-1136 -69,-6 c -25,-36 -7,-27 -57,-18 l -1,-80 c -204,-9 -447,-99 -571,-14 -54,36 -47,77 -86,134 -68,-286 -406,-127 -651,-120 z"
          id="path1598"
          inkscape:connector-curvature="0"
          style="fill:#999999" />
   </g>
</svg>
