<?xml version="1.0" encoding="UTF-8" standalone="no"?>
<svg
    xmlns:dc="http://purl.org/dc/elements/1.1/"
    xmlns:cc="http://creativecommons.org/ns#"
    xmlns:rdf="http://www.w3.org/1999/02/22-rdf-syntax-ns#"
    xmlns:svg="http://www.w3.org/2000/svg"
    xmlns="http://www.w3.org/2000/svg"
    xmlns:sodipodi="http://sodipodi.sourceforge.net/DTD/sodipodi-0.dtd"
    xmlns:inkscape="http://www.inkscape.org/namespaces/inkscape"
    id="city_bel"
    data-name="bel"
    width="52.5mm"
    height="52.5mm"
    viewBox="0 0 148.82 148.82"
    version="1.1"
    inkscape:version="0.91 r13725"
    sodipodi:docname="_astrakhan.svg">
   <metadata
       id="metadata12">
      <rdf:RDF>
         <cc:Work
             rdf:about="">
            <dc:format>image/svg+xml</dc:format>
            <dc:type
                rdf:resource="http://purl.org/dc/dcmitype/StillImage" />
            <dc:title></dc:title>
         </cc:Work>
      </rdf:RDF>
   </metadata>
   <defs
       id="defs10" />
   <sodipodi:namedview
       pagecolor="#ffffff"
       bordercolor="#666666"
       borderopacity="1"
       objecttolerance="10"
       gridtolerance="10"
       guidetolerance="10"
       inkscape:pageopacity="0"
       inkscape:pageshadow="2"
       inkscape:window-width="640"
       inkscape:window-height="480"
       id="namedview8"
       showgrid="false"
       inkscape:zoom="1.268656085"
       inkscape:cx="93.01181102"
       inkscape:cy="93.01181102"
       inkscape:current-layer="city_bel" />
   <g
       transform="matrix(0.0283466687,0,0,0.0283466716,-745.0512468,1.72007946)"
       style="clip-rule:evenodd;fill-rule:evenodd;image-rendering:optimizeQuality;shape-rendering:geometricPrecision;text-rendering:geometricPrecision"
       id="astrakhan">
      <g
          id="g1616">
         <path
             class="fil3"
             d="m 27950,2666 3,1 -3,-1 z m -25,-503 c 34,-81 99,-161 189,-230 27,-368 345,-618 580,-725 -359,138 -776,333 -769,955 z m 915,-1252 0,0 c 9,-2 18,-3 27,-3 -9,0 -18,1 -27,3 z m 74,0 0,0 c -9,-2 -17,-3 -27,-3 9,0 18,1 27,3 z m 6,1 0,0 c 90,19 157,96 157,189 0,22 -4,43 -11,63 -43,-10 -87,-18 -130,-22 63,6 126,19 189,37 -9,-6 -16,-17 -15,-30 0,-19 16,-34 35,-34 20,1 35,17 34,36 0,1 0,1 0,2 6,-10 18,-17 31,-16 19,0 34,16 33,35 0,19 -15,34 -34,34 16,6 31,12 47,18 -9,-6 -15,-17 -14,-29 0,-19 16,-34 36,-33 19,0 34,16 33,35 0,20 -16,35 -35,34 -2,0 -3,0 -5,0 16,6 32,14 48,21 -8,-7 -13,-17 -13,-28 1,-19 17,-34 36,-34 19,1 34,17 34,36 -1,2 -1,3 -1,5 7,-8 17,-13 27,-12 20,0 35,16 34,35 0,20 -16,35 -36,34 -19,0 -34,-16 -33,-35 0,-2 0,-4 0,-5 -6,7 -16,12 -27,12 -2,0 -4,-1 -6,-1 55,27 110,58 161,93 -4,-7 -7,-15 -7,-24 1,-22 19,-38 40,-38 21,1 38,19 37,40 0,6 -1,13 -5,18 8,-9 19,-15 32,-15 22,1 38,18 38,40 0,6 -2,13 -5,18 7,-6 17,-10 28,-10 23,1 41,20 40,43 0,4 -1,9 -3,13 7,-4 15,-6 23,-6 25,1 45,21 44,46 -1,25 -21,45 -46,44 -6,0 -11,-1 -17,-4 17,18 34,36 49,55 -6,-9 -9,-19 -9,-30 1,-27 23,-48 50,-47 27,1 48,23 47,50 -1,27 -23,48 -50,47 -13,0 -25,-6 -33,-15 19,24 37,48 54,73 -4,-8 -7,-17 -6,-27 1,-29 25,-52 54,-51 30,1 53,25 52,54 -1,30 -25,53 -55,52 -16,0 -30,-8 -39,-19 46,69 81,144 102,223 5,17 9,34 13,51 -1,-3 -1,-6 -1,-10 1,-33 29,-60 63,-59 33,1 60,29 59,63 -1,25 -17,46 -39,55 l 1,0 c 34,1 60,29 59,62 -1,34 -29,61 -62,60 -34,-1 -60,-29 -59,-63 0,-25 17,-47 39,-55 l -2,0 c -27,-1 -49,-20 -56,-44 71,348 -53,702 -135,874 27,18 42,37 42,57 l 0,35 0,46 0,36 0,46 0,66 -4,0 c 3,5 4,10 4,16 0,99 -415,179 -926,179 -512,0 -926,-80 -926,-179 0,-6 1,-11 4,-16 l -12,0 0,-74 0,-46 0,-36 0,-46 0,-27 c 0,-22 18,-43 51,-62 -25,-49 -49,-97 -70,-144 l -1,-1 c -123,-274 -167,-515 -132,-724 -6,25 -28,43 -55,44 l -2,0 c 23,8 40,30 42,55 2,34 -23,62 -56,63 -34,1 -63,-26 -66,-60 -2,-33 23,-61 57,-62 l 1,0 c -22,-9 -40,-30 -41,-55 -3,-34 22,-62 56,-63 33,-1 63,26 65,59 0,4 0,7 0,11 9,-51 22,-99 40,-145 104,-267 406,-507 712,-605 -2,0 -4,1 -6,1 -13,0 -25,-7 -32,-17 0,1 0,2 0,2 2,20 -13,36 -32,36 -19,1 -36,-14 -37,-34 -1,-19 13,-35 32,-35 13,-1 25,6 32,16 -1,-1 -1,-1 -1,-2 -1,-19 13,-35 32,-36 20,0 36,15 38,34 1,15 -8,28 -21,33 86,-27 173,-43 255,-45 l 0,0 c -48,1 -98,7 -148,17 -4,-11 -6,-24 -7,-36 l 0,0 c -1,-6 -1,-12 -1,-19 0,-11 1,-22 3,-32 l 0,0 c 14,-76 73,-136 150,-154 l 0,0 -2,0 18,-109 -116,18 0,-99 115,18 -18,-116 100,0 -18,115 116,-17 0,99 -116,-17 17,108 c -2,0 -4,-1 -6,-1 z m -33,-4 c -3,0 -6,0 -10,0 4,0 7,0 10,0 z m -10,0 c -3,0 -7,0 -10,0 3,0 7,0 10,0 z m 12,230 c -3,0 -6,0 -9,-1 3,1 6,1 9,1 z m -456,633 c 76,-25 160,-43 249,-53 29,-188 82,-332 146,-428 -235,53 -345,259 -395,481 z m 676,-48 c 79,10 151,24 216,41 -39,-160 -131,-322 -354,-474 65,98 114,242 138,433 z m 484,151 c 122,75 200,168 244,267 -25,-578 -454,-759 -776,-916 253,177 455,356 532,649 z m -448,-689 c 14,4 28,9 42,13 -8,-6 -13,-16 -13,-28 0,0 0,-1 0,-2 -6,10 -17,17 -29,17 z m 372,181 c 34,24 67,50 98,76 -3,-6 -5,-13 -5,-21 0,-7 2,-14 6,-20 -7,6 -16,10 -26,9 -21,0 -38,-18 -38,-39 1,-7 2,-13 5,-18 -7,9 -18,15 -31,15 -3,-1 -6,-1 -9,-2 z m 119,95 c 12,11 23,21 35,32 -3,-5 -4,-12 -4,-18 0,-6 1,-11 3,-16 -6,3 -12,5 -20,5 -5,0 -9,-1 -14,-3 z m -1903,642 c -38,1 -67,33 -64,72 3,38 36,68 74,67 39,-1 68,-33 65,-71 -3,-39 -36,-69 -75,-68 z m 53,-339 c -29,0 -51,24 -48,53 2,29 27,52 55,51 29,-1 51,-25 49,-54 -2,-29 -27,-51 -56,-50 z m 645,-602 c -19,0 -33,16 -32,35 2,20 18,35 38,34 19,0 33,-16 32,-36 -2,-19 -18,-34 -38,-33 z m -62,28 c -20,1 -34,17 -33,36 0,2 1,3 1,5 -7,-8 -17,-13 -28,-12 -19,0 -33,16 -32,35 1,20 18,35 37,34 19,0 34,-16 32,-35 0,-2 0,-4 0,-5 7,7 17,12 28,12 19,-1 33,-17 32,-36 -2,-19 -18,-34 -37,-34 z m -123,61 c -19,0 -33,16 -32,36 2,19 18,34 37,33 20,0 34,-16 33,-35 -2,-20 -19,-35 -38,-34 z m -59,39 c -21,1 -37,19 -36,40 1,6 3,13 6,18 -8,-9 -20,-15 -32,-15 -22,1 -38,18 -36,40 0,6 2,13 6,18 -8,-6 -18,-10 -29,-10 -23,1 -40,20 -38,43 0,4 1,9 3,13 -7,-4 -15,-6 -23,-6 -25,1 -44,21 -42,46 2,25 23,45 48,44 25,-1 44,-21 42,-46 0,-6 -2,-11 -4,-16 6,3 13,5 20,5 23,-1 40,-20 39,-43 -1,-7 -3,-14 -7,-20 7,6 16,10 26,9 22,0 38,-18 36,-39 0,-7 -2,-13 -6,-18 8,9 20,15 33,15 21,-1 37,-19 35,-40 -1,-22 -20,-38 -41,-38 z m -247,205 c -26,1 -46,23 -44,50 1,27 25,48 51,47 27,-1 47,-23 45,-50 -2,-27 -25,-48 -52,-47 z m -63,77 c -29,1 -51,25 -49,54 2,30 28,53 57,52 29,-1 51,-25 49,-55 -2,-29 -28,-52 -57,-51 z m -54,91 c -29,1 -52,26 -50,56 3,29 29,53 58,52 30,-1 52,-26 50,-55 -2,-30 -28,-54 -58,-53 z m 2195,440 c 39,1 69,33 68,72 -1,38 -33,68 -72,67 -38,-1 -68,-33 -67,-71 1,-39 33,-69 71,-68 z m -68,-339 c 29,0 52,24 51,53 -1,29 -25,52 -54,51 -28,-1 -51,-25 -50,-54 1,-29 25,-51 53,-50 z m -483,-513 c 19,0 34,16 33,36 0,19 -16,34 -35,33 -19,0 -35,-16 -34,-35 1,-20 17,-35 36,-34 z m 441,412 c 30,1 54,26 53,56 -1,29 -26,53 -56,52 -30,-1 -53,-26 -52,-55 1,-30 26,-54 55,-53 z"
             id="path1618"
             inkscape:connector-curvature="0"
             style="fill:#ffcc00" />
      </g>
      <g
          id="g1620">
         <path
             class="fil2"
             d="m 29905,3956 3,3 -3,-3 z m 226,175 1,0 -1,0 z m 208,-104 4,2 -4,-2 z m 231,-137 3,1 -3,-1 z m 201,-140 1,0 -1,0 z m -863,206 c 34,-41 67,-87 135,-53 23,-65 63,-85 119,-61 9,-59 41,-94 123,-80 0,-51 37,-69 110,-55 19,-30 27,-76 89,-46 28,-61 78,-73 138,-61 19,-51 66,-57 126,-43 4,5 9,10 14,16 8,-32 37,-56 71,-56 41,0 74,33 74,74 0,36 -27,66 -61,72 3,51 -22,78 -74,81 0,2 -1,4 -1,5 l 0,1 c -9,39 -25,72 -88,65 -21,49 -59,73 -113,73 l 0,0 0,2 c 0,48 -32,72 -95,72 -27,61 -76,73 -135,61 l -1,2 0,2 c -19,62 -67,71 -125,63 -9,35 -24,63 -82,41 l 0,-1 -1,1 c -11,39 -31,70 -91,61 -85,-2 -129,-79 -132,-233 l 0,-3 z m 60,606 c -7,-7 -13,-17 -18,-27 l -5,-13 -71,-185 c -1,-2 -2,-4 -3,-7 -20,-51 -40,-102 -59,-153 -65,-167 -127,-335 -192,-501 0,0 0,-1 0,-1 l -13,-33 c -5,-14 -19,-22 -30,-18 l 0,0 c -12,4 -16,19 -11,33 l 13,35 40,101 c -72,22 -152,-20 -182,-97 -31,-81 4,-170 78,-198 60,-24 129,0 169,54 7,7 13,17 17,27 l 5,13 c 50,131 102,261 152,392 -1,-5 -2,-11 -2,-15 -5,-54 -4,-106 7,-151 11,-48 29,-88 46,-118 18,-31 35,-49 48,-58 12,-8 21,-6 25,4 2,3 -5,24 -11,49 -6,25 -12,55 -17,82 0,0 0,0 0,0 -3,27 -5,45 -7,54 -2,8 -5,5 -7,-2 -8,-20 -15,-31 -24,-31 -9,1 -19,13 -28,40 -8,27 -14,66 -11,114 4,46 19,100 43,157 9,19 17,32 16,34 -1,2 -9,-7 -23,-27 0,0 0,0 0,0 -4,-6 -8,-13 -12,-21 l 11,31 c 41,104 80,208 120,312 0,0 0,0 0,1 l 13,33 c 6,14 19,22 31,18 l 0,0 c 11,-5 16,-20 10,-34 l -13,-34 -39,-102 c 72,-22 153,20 183,97 31,81 -5,170 -79,199 -61,23 -130,0 -170,-54 z m -515,-679 c 94,47 158,97 196,143 3,3 5,6 7,9 14,-4 29,-8 43,-11 24,29 47,62 63,96 1,-7 2,-14 2,-22 0,-10 1,-15 5,-7 4,8 11,28 18,56 0,0 0,0 0,0 4,29 8,62 6,90 -2,27 -7,52 -10,58 -11,18 -22,29 -30,28 -7,0 -12,-8 -16,-25 -1115,256 -2073,104 -2889,-369 194,-127 389,-255 584,-383 657,497 1383,694 2199,495 -4,-5 -7,-9 -11,-14 -14,-18 -41,-47 -74,-73 -34,-28 -79,-52 -114,-71 0,0 0,0 0,0 -40,-18 -57,-26 -52,-26 6,1 38,8 73,26 z"
             id="path1622"
             inkscape:connector-curvature="0"
             style="fill:#000000" />
      </g>
   </g>
</svg>
