<?xml version="1.0" encoding="UTF-8" standalone="no"?>
<svg
    xmlns:dc="http://purl.org/dc/elements/1.1/"
    xmlns:cc="http://creativecommons.org/ns#"
    xmlns:rdf="http://www.w3.org/1999/02/22-rdf-syntax-ns#"
    xmlns:svg="http://www.w3.org/2000/svg"
    xmlns="http://www.w3.org/2000/svg"
    xmlns:sodipodi="http://sodipodi.sourceforge.net/DTD/sodipodi-0.dtd"
    xmlns:inkscape="http://www.inkscape.org/namespaces/inkscape"
    id="city_bel"
    data-name="bel"
    width="52.5mm"
    height="52.5mm"
    viewBox="0 0 148.82 148.82"
    version="1.1"
    inkscape:version="0.91 r13725"
    sodipodi:docname="_balakovo.svg">
   <metadata
       id="metadata12">
      <rdf:RDF>
         <cc:Work
             rdf:about="">
            <dc:format>image/svg+xml</dc:format>
            <dc:type
                rdf:resource="http://purl.org/dc/dcmitype/StillImage" />
            <dc:title></dc:title>
         </cc:Work>
      </rdf:RDF>
   </metadata>
   <defs
       id="defs10" />
   <sodipodi:namedview
       pagecolor="#ffffff"
       bordercolor="#666666"
       borderopacity="1"
       objecttolerance="10"
       gridtolerance="10"
       guidetolerance="10"
       inkscape:pageopacity="0"
       inkscape:pageshadow="2"
       inkscape:window-width="640"
       inkscape:window-height="480"
       id="namedview8"
       showgrid="false"
       inkscape:zoom="1.268656085"
       inkscape:cx="93.01181102"
       inkscape:cy="93.01181102"
       inkscape:current-layer="city_bel" />
   <g
       transform="matrix(0.0283466687,0,0,0.0283466716,-891.4932868,0.3861845411)"
       style="clip-rule:evenodd;fill-rule:evenodd;image-rendering:optimizeQuality;shape-rendering:geometricPrecision;text-rendering:geometricPrecision"
       id="balakovo">
      <path
          class="fil3"
          d="m 33868,3725 c 35,-182 64,-365 59,-555 -18,-114 -3,-241 -156,-304 -118,-40 -236,-79 -354,-118 17,-115 10,-227 245,-357 113,-50 228,-99 437,-101 119,6 216,-5 442,83 172,74 269,191 275,360 -110,56 -221,105 -334,148 -108,64 -140,173 -138,301 -15,200 25,392 59,584 -1,2 -1,3 -1,5 -40,3 -79,4 -119,3 -118,3 -227,-8 -330,-27 -30,-5 -58,-12 -86,-19 0,-1 1,-2 1,-3 z"
          id="path1698"
          inkscape:connector-curvature="0"
          style="fill:#ffcc00" />
      <path
          class="fil16"
          d="m 33275,1338 c 0,0 0,-1 0,-1 l 0,1 0,0 z"
          id="path1700"
          inkscape:connector-curvature="0"
          style="fill:#ffed00;fill-rule:nonzero" />
      <g
          id="g1702">
         <path
             class="fil3"
             d="m 34189,1537 c 11,1 23,2 34,3 l -6,-1 7,-8 5,-7 276,-452 15,-25 -4,29 -72,487 0,0 0,1 -1,3 663,-478 43,-31 -36,40 -491,548 0,0 -3,2 c 27,14 53,29 77,44 l -2,-1 c -8,-6 -16,-12 -25,-17 -8,-6 -17,-11 -26,-16 l 1,0 -9,-4 8,-6 9,-6 0,0 1,-1 1315,-440 75,-25 -70,36 -1140,579 -1,0 -1,0 -12,0 c 8,9 17,18 24,28 l 26,-2 1,0 856,0 55,0 -54,11 -771,165 -2,0 -1,0 -17,-3 c 3,13 6,27 8,40 l 13,-1 1,0 0,0 1092,86 77,6 -77,6 -1105,78 -4,1 -2,-4 -7,-14 c -4,12 -8,24 -13,36 l -1625,0 c -6,-14 -11,-28 -15,-42 l -11,20 -1,4 -4,-1 -1070,-98 -66,-6 66,-5 1060,-88 0,0 1,0 16,1 3,1 c 2,-12 5,-23 8,-34 l -26,4 -2,0 -1,0 -766,-186 -50,-12 51,1 869,10 0,0 17,1 -1138,-582 -74,-38 79,27 1308,455 1,0 1,1 8,6 4,2 c 9,-5 18,-10 28,-15 l -4,-4 0,0 -510,-551 -42,-46 49,37 659,488 -1,-4 0,0 0,-1 -68,-484 -4,-29 14,25 264,450 6,9 2,3 c 11,-1 21,-2 32,-3 l -6,-7 -1,-2 0,-3 93,-396 5,-22 6,22 108,381 0,1 0,2 -3,21 z m -799,258 1,-1 -9,0 2,1 6,0 z"
             id="path1704"
             inkscape:connector-curvature="0"
             style="fill:#ffcc00" />
         <path
             class="fil2"
             d="m 33563,1957 c 0,-15 -2,-31 9,-46 5,-13 53,-33 165,-63 53,-12 104,-11 154,-5 68,10 132,37 133,56 16,14 13,49 13,81 -20,-2 -41,0 -61,2 -28,7 -50,18 -71,29 -53,12 -92,9 -127,4 -19,-1 -32,-7 -46,-13 -1,9 -1,19 -1,28 -67,-57 -116,-63 -168,-73 z m 271,-36 c 29,0 52,16 52,36 0,21 -23,37 -52,37 -29,0 -52,-16 -52,-37 0,-20 23,-36 52,-36 z m -82,234 c 6,-18 4,-33 -6,-45 -68,-35 -130,-46 -188,-45 75,16 146,37 194,90 z m 680,-18 c -6,-17 -4,-32 5,-44 69,-36 130,-46 188,-45 -74,16 -145,37 -193,89 z m -43,-441 c -25,14 -55,27 -96,37 -162,5 -320,-4 -477,-20 184,4 361,18 573,-17 z m -629,54 c 226,6 452,8 678,4 -5,13 5,19 27,20 -48,-4 -96,-5 -146,-2 -21,-5 -57,-5 -97,-3 -108,1 -219,-7 -331,-3 -54,1 -108,3 -163,4 62,-5 61,-12 32,-20 z m 505,22 c -14,16 -29,31 -50,41 -125,5 -206,-2 -244,-20 -5,-3 146,7 235,0 35,-7 58,-17 59,-21 z m -431,165 c 18,0 33,9 33,20 0,12 -15,21 -33,21 -18,0 -33,-9 -33,-21 0,-11 15,-20 33,-20 z m -173,9 c 3,6 8,10 18,11 25,-16 48,-31 76,-37 33,-9 76,-15 133,-8 37,6 66,21 95,37 0,-16 -7,-28 -18,-39 l 1,14 c -15,-16 -57,-39 -147,-37 -57,1 -112,15 -158,59 z m 30,15 c 16,-12 33,-21 51,-27 -3,5 -4,11 -4,17 0,2 0,4 0,6 0,1 0,1 0,2 0,13 9,25 22,34 -23,-7 -46,-18 -69,-32 z m 238,-22 c 18,6 33,14 44,25 -17,13 -42,21 -63,24 13,-10 20,-23 20,-37 0,-4 0,-8 -1,-12 z m -490,0 c 35,12 73,13 116,-8 -4,9 -9,17 -4,26 -52,0 -89,-6 -112,-18 z m 200,60 c 35,13 64,28 88,45 -11,-17 -26,-32 -48,-45 3,4 6,8 4,12 -19,-11 -30,-9 -44,-12 z m 1097,-50 c -35,12 -73,13 -116,-8 3,8 9,17 4,26 52,-1 89,-7 112,-18 z m -138,24 c 0,-15 0,-42 -10,-57 -5,-13 -34,-41 -146,-71 -52,-11 -103,-11 -154,-5 -68,10 -132,37 -133,56 -16,14 -13,49 -13,82 5,-1 63,50 79,51 2,0 -38,-51 -18,-50 28,7 50,18 72,29 53,12 91,14 127,9 18,-2 71,-4 85,-9 1,9 2,18 1,27 68,-49 61,-41 110,-62 z m -253,-55 c -29,0 -52,16 -52,37 0,20 23,36 52,36 29,0 52,-16 52,-36 0,-21 -23,-37 -52,-37 z m 0,16 c -18,0 -33,9 -33,21 0,11 15,20 33,20 18,0 33,-9 33,-20 0,-12 -15,-21 -33,-21 z m 183,10 c -3,5 -8,9 -18,10 -26,-16 -48,-30 -76,-37 -33,-9 -76,-14 -133,-7 -37,5 -67,20 -95,36 0,-16 7,-28 18,-39 l -1,14 c 15,-16 57,-39 147,-37 57,1 111,15 158,60 z m -40,14 c -16,-11 -33,-21 -51,-27 3,5 4,11 4,17 0,2 0,4 0,6 0,1 0,2 0,3 0,12 -8,24 -22,33 23,-7 46,-17 69,-32 z m -237,-22 c -19,6 -33,14 -45,25 17,13 42,22 63,24 -13,-10 -20,-23 -20,-37 0,-4 0,-8 2,-12 z m -197,32 c -7,15 -3,30 12,44 -13,-13 -30,-16 -51,-8 19,-4 35,-10 39,-36 z m 7,-111 c -7,15 -28,34 -46,42 -1,7 7,6 6,13 9,-10 18,-16 27,-18 16,-2 26,5 37,11 -14,-18 -18,-35 -11,-53 -4,2 -9,3 -13,5 z m 89,-9 c -3,26 -18,37 -40,40 20,0 39,2 44,17 10,-10 19,-20 28,-30 -18,5 -27,3 -26,-6 -2,-7 -4,-14 -6,-21 z m -212,238 c 2,29 26,29 54,25 13,-5 35,2 63,23 11,4 21,6 31,6 10,0 20,-2 31,-6 28,-21 49,-28 62,-23 28,4 53,4 54,-25 18,13 19,27 -1,44 -23,18 -57,3 -83,17 -21,10 -41,15 -61,16 l 0,1 c -1,0 -2,0 -2,-1 -1,1 -1,1 -2,1 l 0,-1 c -20,-1 -41,-6 -62,-16 -26,-14 -60,1 -82,-17 -20,-17 -20,-31 -2,-44 z m 15,132 c 47,-39 85,-58 112,0 11,0 22,0 33,0 30,-56 57,-39 96,0 -80,0 -161,0 -241,0 z m 354,-84 c -6,32 -24,50 -51,55 4,-5 24,-21 51,-55 z m -223,34 c 1,13 15,22 -1,26 -13,-6 -1,-11 1,-26 z m 149,27 c 17,-13 34,-1 50,16 -13,-1 -26,0 -39,-1 13,-12 -3,-15 -11,-15 z m -360,4 c 2,-3 -1,-8 2,-11 5,-4 13,-9 18,-5 10,5 8,18 8,18 -1,3 1,7 0,9 l -46,0 c 2,-2 14,-6 18,-11 z"
             id="path1706"
             inkscape:connector-curvature="0"
             style="fill:#000000" />
      </g>
      <path
          class="fil4 str4"
          d="m 33109,3006 c 67,1 133,2 199,3 64,3 117,22 94,147 -12,135 -99,227 -110,342 -28,-29 -55,-52 -72,-30 -17,32 -33,65 -57,94 11,9 17,18 14,27 -17,21 -24,43 -22,64 -27,24 -34,46 -25,66 1,22 32,11 30,31 0,33 -7,73 -1,106 75,23 60,119 90,117 7,10 23,13 40,16 22,34 57,65 140,89 30,7 50,18 73,29 154,42 312,50 469,59 152,6 306,3 465,-16 141,-12 400,-41 438,-62 29,-14 111,-88 121,-104 25,-19 39,-8 75,-105 27,-12 29,-27 27,-46 6,-27 3,-53 2,-80 14,-8 25,-20 17,-57 -8,-27 -22,-61 -19,-78 9,-27 -22,-100 -59,-137 -20,12 -40,17 -59,14 -9,27 -22,43 -38,48 -22,-68 -43,-136 -64,-204 -9,-36 -8,-72 5,-107 12,-33 34,-59 75,-70 14,-14 48,-16 105,-8 2,35 3,70 5,105 -54,3 -71,28 -54,75 24,74 114,143 151,223 48,78 105,151 21,325 -115,137 -183,197 -236,217 -173,55 -384,88 -583,99 -181,6 -362,9 -537,-8 -169,-23 -339,-45 -494,-91 -137,-63 -275,-131 -295,-252 -5,-55 -6,-114 18,-204 11,-48 25,-95 65,-143 13,-26 22,-50 0,-62 -23,0 -47,0 -70,0 -14,-8 1,-35 11,-59 29,1 59,2 88,3 42,2 39,-51 -2,-51 -30,-2 -59,-4 -89,-5 3,-17 5,-34 8,-51 28,1 56,4 83,5 59,9 72,-61 8,-59 -30,-1 -60,-2 -91,-3 14,-70 27,-141 40,-212 z"
          id="path1708"
          inkscape:connector-curvature="0"
          style="fill:#999999;stroke:#000000;stroke-width:35.2799987793" />
      <path
          class="fil10"
          d="m 33927,3178 414,0 0,0 0,1 0,82 0,1 0,0 -414,0 0,0 0,-1 0,-82 0,-1 0,0 z m 413,1 -412,0 0,82 412,0 0,-82 z m -420,252 431,0 0,0 1,0 0,1 0,0 c 0,2 1,4 1,7 1,3 1,6 1,9 3,17 4,38 5,58 l 0,1 -1,0 -449,0 0,0 0,-1 0,0 c 0,-11 3,-22 5,-33 3,-14 6,-28 6,-41 l 0,-1 0,0 z m 431,1 -431,0 c 1,14 -2,28 -5,41 -2,11 -5,22 -5,33 l 448,0 c -1,-21 -2,-41 -4,-58 -1,-3 -1,-6 -2,-9 0,-2 -1,-5 -1,-7 z m -426,-127 415,0 0,0 0,1 c 0,11 0,22 1,34 0,11 0,22 0,33 l 0,1 0,0 -416,0 -1,0 0,-1 0,-67 0,-1 1,0 z m 414,1 -414,0 0,67 415,0 c 0,-11 0,-22 0,-33 0,-12 -1,-23 -1,-34 z"
          id="path1710"
          inkscape:connector-curvature="0"
          style="fill:#000000;fill-rule:nonzero" />
      <path
          class="fil2"
          d="m 33923,3179 c 139,0 279,0 418,0 0,27 0,55 0,82 -139,0 -279,0 -418,0 0,-27 0,-55 0,-82 z m -8,253 c 151,0 286,0 436,0 4,16 7,45 8,74 -150,0 -304,0 -455,0 2,-24 12,-50 11,-74 z m 5,-126 c 140,0 280,0 420,0 0,22 1,45 1,67 -140,0 -281,0 -421,0 0,-22 0,-45 0,-67 z"
          id="path1712"
          inkscape:connector-curvature="0"
          style="fill:#000000" />
      <path
          class="fil4"
          d="m 33160,3742 c 10,2 20,4 30,6 l 129,61 255,81 373,67 293,13 325,-29 287,-84 248,-101 c 1,26 3,52 -3,77 0,4 0,8 0,11 -8,11 -16,22 -24,32 -76,31 -147,54 -215,70 -155,45 -304,73 -451,97 -156,21 -308,22 -457,8 -113,-11 -226,-28 -338,-54 -132,-26 -225,-52 -285,-78 -56,-22 -112,-44 -168,-66 -6,-32 1,-71 1,-103 1,-4 0,-6 -1,-8 0,0 1,0 1,0 z"
          id="path1714"
          inkscape:connector-curvature="0"
          style="fill:#999999" />
      <path
          class="fil4"
          d="m 33188,3871 c 12,0 40,15 52,14 29,12 58,23 87,34 60,26 153,52 285,78 112,26 225,43 338,54 149,14 301,13 457,-8 147,-24 296,-52 451,-97 68,-16 139,-39 215,-70 8,-10 16,-21 24,-32 0,14 -6,26 -27,35 -13,35 -23,56 -32,70 -9,8 -19,17 -28,25 -3,2 -7,4 -11,7 -21,-2 -42,-3 -200,51 -104,28 -212,48 -323,62 -106,15 -216,25 -330,19 -130,2 -256,-11 -379,-30 -179,-12 -342,-64 -475,-94 -1,0 -1,1 -2,1 0,0 0,-1 -1,-1 -17,-3 -33,-6 -40,-16 -22,1 -20,-49 -46,-86 0,0 -16,-16 -15,-16 z m 1909,-30 c 0,0 0,0 0,0 0,0 0,0 0,0 z"
          id="path1716"
          inkscape:connector-curvature="0"
          style="fill:#999999" />
      <path
          class="fil4"
          d="m 33292,3495 c 77,43 156,86 290,137 114,48 235,89 371,115 103,19 212,30 330,27 137,5 268,-20 397,-59 136,-70 299,-147 264,-172 0,0 0,-1 0,-1 15,-6 26,-22 35,-47 19,3 38,-2 58,-13 20,37 40,74 60,111 1,5 1,9 1,12 -32,28 -69,50 -101,78 -100,59 -201,107 -308,145 -138,41 -270,54 -401,59 -164,-2 -289,-17 -389,-40 -137,-25 -257,-58 -365,-97 -127,-36 -206,-80 -282,-124 -36,-22 -65,-44 -88,-65 24,-29 39,-61 56,-93 17,-22 44,1 72,30 0,-1 0,-2 0,-3 z"
          id="path1718"
          inkscape:connector-curvature="0"
          style="fill:#999999" />
      <path
          class="fil4"
          d="m 33177,3587 27,7 c 14,11 30,22 48,32 76,44 155,88 282,124 108,39 228,72 365,97 100,23 225,38 389,40 131,-5 263,-18 401,-59 107,-38 208,-86 308,-145 26,-23 56,-42 83,-63 l 17,-4 c 0,1 0,2 0,2 -3,17 11,51 19,78 8,37 -3,49 -17,57 0,1 0,2 1,3 l -248,101 -287,84 -325,29 -293,-13 -373,-67 -255,-81 -189,-89 c 0,-1 0,-1 0,-1 -9,-20 -2,-42 25,-66 -2,-21 5,-43 22,-64 0,-1 0,-2 0,-2 z"
          id="path1720"
          inkscape:connector-curvature="0"
          style="fill:#999999" />
      <path
          class="fil4"
          d="m 33293,3994 c 2,-1 3,-2 5,-4 131,29 289,78 469,93 123,19 249,32 379,30 114,6 224,-4 330,-19 111,-14 219,-34 323,-62 110,-37 154,-48 177,-51 6,1 12,2 19,3 -6,9 -37,39 -67,65 -218,55 -443,85 -675,90 -227,13 -435,-4 -633,-35 -75,-10 -138,-21 -204,-32 -1,0 -2,1 -3,1 -67,-22 -100,-49 -120,-79 z"
          id="path1722"
          inkscape:connector-curvature="0"
          style="fill:#999999" />
      <g
          id="g1724">
         <path
             class="fil10"
             d="m 33203,3883 37,-2 1,0 1,0 86,34 1,0 c 29,13 67,26 115,39 47,13 103,26 168,39 l 1,0 c 56,13 112,23 168,32 57,9 113,16 169,22 75,7 150,10 226,9 75,-1 152,-7 230,-17 l 0,0 c 74,-12 148,-25 223,-41 75,-15 150,-33 228,-56 l 0,0 0,0 c 10,-2 19,-5 28,-7 10,-3 20,-5 30,-8 50,-15 101,-33 155,-54 l 24,-31 1,-1 -2,0 0,0 2,0 2,-3 0,-1 0,0 1,0 4,-5 -1,12 c 0,8 -2,15 -6,22 -5,6 -11,11 -22,16 -6,17 -12,31 -17,42 -5,11 -10,20 -15,27 l 0,0 0,1 -28,25 0,0 -1,1 c 0,0 -1,0 -1,0 -3,2 -7,4 -10,6 l -1,1 -1,0 c -10,-1 -21,-2 -48,5 -27,6 -72,19 -151,46 l 0,0 c -52,14 -105,26 -159,36 -54,11 -109,19 -164,26 l 0,0 c -54,8 -108,14 -163,17 -55,4 -111,5 -168,2 -65,1 -129,-2 -192,-7 -63,-5 -125,-13 -187,-23 l 0,0 0,0 c -136,-9 -263,-41 -374,-69 -35,-9 -69,-18 -101,-25 l 0,1 -4,1 -1,-2 c -8,-2 -16,-3 -23,-6 -7,-2 -13,-5 -17,-10 -14,-1 -19,-17 -25,-37 -5,-16 -11,-35 -22,-50 l -3,-4 4,-2 0,-1 1,0 1,0 z m 37,6 -30,2 c 10,15 15,32 20,46 5,18 10,32 19,32 l 2,0 1,2 c 3,4 8,7 15,9 6,2 14,4 23,5 l 1,0 1,0 1,0 c 33,7 66,16 102,25 111,28 237,60 373,69 l 0,0 0,0 c 61,9 123,17 186,23 63,5 127,8 192,6 l 0,0 c 57,3 113,3 168,-1 55,-3 109,-10 162,-17 l 0,0 c 55,-7 110,-16 163,-26 54,-10 107,-22 158,-36 80,-27 125,-40 153,-46 27,-7 38,-6 48,-5 3,-3 6,-4 9,-6 0,0 0,0 1,0 l 27,-25 c 4,-6 9,-15 14,-26 4,-9 9,-21 15,-36 -51,20 -100,37 -147,51 -10,2 -19,5 -29,8 -10,2 -20,5 -29,7 l 0,0 0,0 c -78,23 -154,41 -229,56 -75,16 -149,29 -223,41 l 0,0 c -78,10 -155,16 -231,17 -76,1 -152,-2 -226,-9 -57,-6 -113,-13 -170,-22 -56,-9 -113,-19 -169,-32 l 0,0 c -66,-13 -122,-26 -170,-39 -47,-13 -86,-26 -116,-39 l -85,-34 z m 1768,82 c 0,0 0,0 0,0 l 0,0 z"
             id="path1726"
             inkscape:connector-curvature="0"
             style="fill:#000000;fill-rule:nonzero" />
      </g>
      <path
          class="fil10"
          d="m 33294,3491 c 39,22 77,44 123,66 46,23 100,46 167,71 l 0,0 c 57,24 115,46 177,66 61,19 125,36 192,49 l 0,0 c 52,10 105,17 160,22 55,4 111,6 170,5 l 0,0 c 68,2 135,-3 201,-13 66,-11 131,-27 195,-46 17,-9 33,-17 49,-25 96,-49 192,-98 213,-126 4,-6 4,-10 0,-13 l -3,-3 2,-3 1,-1 0,-1 2,-1 0,0 c 1,-1 3,-2 5,-3 2,-1 3,-2 5,-4 9,-8 16,-20 22,-37 l 1,-4 3,1 c 9,1 19,1 28,-1 9,-2 18,-6 28,-12 l 3,-2 2,4 0,0 0,0 c 12,21 23,42 35,64 9,16 17,31 26,47 l 0,1 0,1 c 0,0 0,-1 0,0 0,1 1,1 1,2 0,0 0,1 0,2 0,3 0,6 0,8 l 1,2 -2,2 0,0 0,0 c -16,13 -32,25 -49,37 -18,13 -36,26 -52,40 l 0,0 -1,0 c -50,30 -100,57 -152,81 -51,24 -103,46 -157,65 l 0,0 c -69,20 -137,34 -204,43 -66,9 -132,13 -197,16 l -1,0 c -82,-1 -154,-5 -219,-12 -65,-7 -121,-17 -171,-28 l 0,0 c -69,-13 -133,-27 -193,-43 -61,-17 -118,-35 -173,-54 -63,-18 -115,-38 -160,-59 -45,-21 -84,-43 -122,-65 l 0,0 0,0 0,0 c -5,-3 -10,-6 -15,-9 -5,-3 -10,-7 -14,-10 -24,-16 -43,-32 -59,-48 l -3,-2 2,-3 c 22,-27 37,-57 52,-86 4,-9 1,-3 3,-6 l 0,0 0,-1 c 11,-12 23,-12 38,-5 11,6 23,16 35,29 l 0,-1 5,3 z m 120,73 c -44,-21 -82,-42 -118,-62 l -1,5 -6,-7 c -14,-14 -27,-26 -39,-32 -11,-6 -20,-6 -27,2 -3,7 0,1 -3,5 -14,29 -29,59 -50,85 15,15 34,30 55,45 5,3 10,6 14,9 5,3 10,6 15,9 38,22 77,43 122,64 44,21 95,41 159,59 l 0,0 c 54,20 111,38 172,54 60,16 124,30 193,43 l 0,0 c 50,11 106,21 170,28 64,7 136,11 218,12 65,-3 131,-7 197,-16 67,-9 134,-23 202,-43 l 0,0 c 54,-19 106,-40 157,-64 51,-24 101,-51 151,-81 17,-14 34,-27 52,-40 16,-11 32,-23 47,-35 0,-2 0,-4 0,-6 0,0 0,-1 -1,-2 0,-1 0,-1 0,-1 -8,-16 -17,-32 -25,-47 -11,-20 -22,-40 -33,-61 -9,5 -17,9 -26,11 -9,2 -19,2 -28,1 -6,17 -13,30 -22,38 -2,2 -4,4 -7,5 0,1 -1,1 -2,2 5,5 3,12 -2,21 -22,30 -119,79 -216,129 -18,8 -35,17 -50,25 l 0,0 0,0 0,0 c -65,19 -131,35 -197,46 -66,10 -134,15 -202,13 -59,1 -116,0 -171,-5 -55,-5 -108,-12 -160,-22 l 0,0 c -68,-13 -132,-30 -194,-49 -61,-20 -120,-42 -177,-66 l 0,0 c -68,-26 -121,-49 -167,-72 z m 1265,147 c 0,0 -1,1 -1,1 l 1,-1 z m -1,1 c 0,0 0,0 0,0 l 0,0 z"
          id="path1728"
          inkscape:connector-curvature="0"
          style="fill:#000000;fill-rule:nonzero" />
      <g
          id="g1730">
         <path
             class="fil10"
             d="m 33178,3583 27,7 1,1 1,0 0,0 c 1,1 3,3 6,5 2,1 4,3 6,4 11,8 22,15 35,23 38,22 77,43 122,64 44,21 95,41 159,59 l 0,0 c 54,20 111,38 172,54 60,16 124,30 193,43 l 0,0 c 50,11 106,21 170,28 64,7 136,11 218,12 65,-3 131,-7 197,-16 67,-9 134,-23 202,-43 l 0,0 c 54,-19 106,-40 157,-64 51,-24 101,-51 151,-81 17,-14 34,-27 52,-40 11,-7 21,-15 31,-22 l 0,-1 1,0 17,-4 7,-1 -2,6 c 0,1 0,1 0,2 0,0 0,0 0,0 0,0 0,0 0,0 0,0 0,0 0,0 -2,12 4,32 11,52 3,8 5,17 7,24 l 0,0 c 5,20 4,33 0,42 -3,8 -9,14 -15,18 0,0 0,1 0,1 l 0,3 -3,1 -247,101 0,0 -1,0 -287,84 0,0 -1,0 -325,29 0,0 0,0 -293,-13 0,0 0,0 -374,-67 0,0 0,0 -255,-81 -1,0 0,0 -189,-90 -2,-1 0,-2 c -2,-3 -3,-6 -3,-9 -1,-3 -1,-6 -1,-9 0,-16 10,-33 29,-50 -1,-22 6,-44 22,-65 0,0 0,0 0,0 0,-1 0,-1 0,-1 l 1,-4 4,1 z m 24,15 -22,-6 c -16,20 -22,41 -21,61 l 0,2 -1,1 c -19,16 -28,32 -28,46 0,3 0,5 1,8 0,2 1,4 2,7 l 187,88 255,81 373,67 292,13 324,-29 287,-83 244,-100 0,0 0,-1 0,0 0,-3 2,-1 c 6,-3 12,-8 15,-15 3,-8 3,-19 0,-37 -3,-7 -5,-15 -8,-23 -6,-20 -12,-39 -12,-52 l -10,2 c -10,7 -20,15 -30,22 -18,13 -36,26 -52,40 l 0,0 0,0 -1,0 c -50,30 -100,57 -152,81 -51,24 -103,46 -157,65 l 0,0 c -69,20 -137,34 -204,43 -66,9 -132,13 -197,16 l -1,0 c -82,-1 -154,-5 -219,-12 -65,-7 -121,-17 -171,-28 l 0,0 c -69,-13 -133,-27 -193,-43 -61,-17 -118,-35 -173,-54 -63,-18 -115,-38 -160,-59 -45,-21 -84,-43 -122,-65 l 0,0 c -13,-8 -25,-16 -36,-23 -2,-2 -4,-3 -6,-5 -2,-1 -4,-2 -6,-4 z m 1899,21 c 0,0 0,0 0,0 l 0,0 z"
             id="path1732"
             inkscape:connector-curvature="0"
             style="fill:#000000;fill-rule:nonzero" />
      </g>
      <g
          id="g1734">
         <path
             class="fil10"
             d="m 33161,3738 30,6 0,0 1,0 128,61 255,81 373,67 292,13 324,-29 287,-83 244,-100 c 0,-1 0,-1 0,-1 0,0 9,2 9,2 0,4 0,7 0,11 1,22 2,45 -3,68 0,1 0,3 0,5 0,2 0,4 0,5 l 0,2 -1,1 -24,32 -1,1 -1,0 c 0,0 0,0 0,0 l 0,0 c 0,0 0,0 0,0 -11,4 -21,8 -31,12 -11,4 -21,8 -31,12 -53,19 -104,34 -153,46 l 0,0 c -78,23 -154,41 -229,56 -75,16 -149,29 -223,41 l 0,0 c -78,10 -155,16 -231,17 -76,1 -152,-2 -226,-9 -57,-6 -113,-13 -170,-22 -56,-9 -113,-19 -169,-32 l 0,0 c -66,-13 -122,-26 -170,-39 -47,-13 -86,-26 -116,-39 l -168,-66 -2,-1 0,-2 c 0,0 0,0 0,0 -4,-23 -2,-49 0,-73 0,-11 1,-22 1,-31 l 0,0 c 0,-2 0,-3 0,-4 0,0 0,-1 -1,-2 l -4,-6 8,0 1,0 1,0 0,0 0,0 z m 27,14 -23,-5 c 0,1 0,2 0,3 l 0,0 c -1,10 -1,21 -2,31 -2,24 -4,48 -1,69 l 166,65 1,0 c 29,13 67,26 115,39 47,13 103,26 168,39 l 1,0 c 56,13 112,23 168,32 57,9 113,16 169,22 75,7 150,10 226,9 75,-1 152,-7 230,-17 l 0,0 c 74,-12 148,-25 223,-41 75,-15 150,-33 228,-56 l 0,0 c 49,-12 99,-27 152,-46 10,-3 20,-7 31,-11 10,-4 20,-8 30,-12 l 23,-30 c 0,-1 0,-3 0,-4 0,-2 0,-4 0,-5 l 0,-1 0,-1 c 5,-21 4,-44 3,-66 0,-1 0,-2 0,-4 l -242,99 0,0 -1,0 -287,84 0,0 -1,0 -325,29 0,0 0,0 -293,-13 0,0 0,0 -374,-67 0,0 0,0 -255,-81 -1,0 0,0 -129,-61 z m 1883,120 c 0,0 0,0 0,0 l 0,0 z m 30,-125 0,0 c 0,0 0,0 0,0 l 5,6 -5,-6 z"
             id="path1736"
             inkscape:connector-curvature="0"
             style="fill:#000000;fill-rule:nonzero" />
      </g>
      <path
          class="fil2"
          d="m 33430,4078 c 1,-1 2,-2 3,-3 60,10 118,20 187,29 198,31 406,48 633,35 232,-5 457,-35 675,-90 1,-1 1,-2 2,-3 0,0 0,0 0,0 -22,19 -44,36 -56,42 -38,21 -297,50 -438,62 -159,19 -313,22 -465,16 -157,-9 -315,-17 -469,-59 -23,-11 -43,-22 -72,-29 z"
          id="path1738"
          inkscape:connector-curvature="0"
          style="fill:#000000" />
   </g>
</svg>
