<?xml version="1.0" encoding="UTF-8" standalone="no"?>
<svg
    xmlns:dc="http://purl.org/dc/elements/1.1/"
    xmlns:cc="http://creativecommons.org/ns#"
    xmlns:rdf="http://www.w3.org/1999/02/22-rdf-syntax-ns#"
    xmlns:svg="http://www.w3.org/2000/svg"
    xmlns="http://www.w3.org/2000/svg"
    xmlns:sodipodi="http://sodipodi.sourceforge.net/DTD/sodipodi-0.dtd"
    xmlns:inkscape="http://www.inkscape.org/namespaces/inkscape"
    id="city_bel"
    data-name="bel"
    width="52.5mm"
    height="52.5mm"
    viewBox="0 0 148.82 148.82"
    version="1.1"
    inkscape:version="0.91 r13725"
    sodipodi:docname="_barnaul.svg">
   <metadata
       id="metadata12">
      <rdf:RDF>
         <cc:Work
             rdf:about="">
            <dc:format>image/svg+xml</dc:format>
            <dc:type
                rdf:resource="http://purl.org/dc/dcmitype/StillImage" />
            <dc:title></dc:title>
         </cc:Work>
      </rdf:RDF>
   </metadata>
   <defs
       id="defs10" />
   <sodipodi:namedview
       pagecolor="#ffffff"
       bordercolor="#666666"
       borderopacity="1"
       objecttolerance="10"
       gridtolerance="10"
       guidetolerance="10"
       inkscape:pageopacity="0"
       inkscape:pageshadow="2"
       inkscape:window-width="640"
       inkscape:window-height="480"
       id="namedview8"
       showgrid="false"
       inkscape:zoom="1.268656085"
       inkscape:cx="93.01181102"
       inkscape:cy="93.01181102"
       inkscape:current-layer="city_bel" />
   <g
       transform="matrix(0.0283466687,0,0,0.0283466716,-1041.79677,-9.627636359e-6)"
       style="clip-rule:evenodd;fill-rule:evenodd;image-rendering:optimizeQuality;shape-rendering:geometricPrecision;text-rendering:geometricPrecision"
       id="barnaul">
      <path
          class="fil3"
          d="m 38171,941 c 0,0 -23,-17 -8,-47 15,-31 56,-51 86,-71 30,-20 70,-55 70,-55 0,0 32,-34 68,-49 31,-14 44,-9 84,-18 -17,-16 -14,-42 -21,-48 60,1 73,28 79,38 9,0 26,-6 39,-9 43,-9 55,-5 87,-10 36,6 -37,65 61,43 34,-9 85,7 91,26 -18,0 -15,52 39,40 41,-8 119,25 119,37 0,13 -69,19 -35,46 54,-4 122,27 161,53 -75,6 -91,24 -76,55 65,-5 62,6 85,18 22,12 27,25 64,43 37,18 -114,13 -70,46 45,33 46,32 101,37 56,5 93,9 164,9 70,0 115,-25 175,-36 61,-10 176,-20 257,-10 80,10 145,21 175,41 31,20 41,40 71,35 30,-5 -15,-15 85,-50 101,-36 151,-28 256,7 94,31 256,90 352,91 -61,26 -120,15 -201,9 0,0 45,18 115,18 71,0 114,20 114,20 0,0 -42,4 -74,11 -81,9 -116,-8 -195,3 13,14 86,4 121,8 38,6 124,21 155,17 -84,26 -95,43 -259,40 -126,-2 -193,-34 -309,-79 0,0 -65,-55 -95,-55 -30,0 -60,0 -60,0 0,0 -10,10 10,45 20,35 10,50 80,91 70,40 55,65 116,70 60,5 110,-15 135,-15 25,0 40,-20 81,15 40,35 15,25 55,60 84,74 174,107 241,81 33,44 63,87 131,30 0,0 55,30 65,60 10,30 10,55 10,55 0,0 -35,20 -85,-5 -51,-25 -56,-10 -101,-25 -45,-15 -90,-25 -141,-55 -50,-30 -95,-50 -150,-60 -55,-11 -45,-31 -121,-46 -75,-15 -125,5 -125,5 21,2 43,4 65,5 0,0 40,-15 75,31 35,45 61,85 86,115 25,30 70,80 70,80 0,0 15,36 40,20 25,-15 35,31 35,31 4,11 7,23 10,35 20,-5 41,-10 61,-15 0,0 25,-15 45,25 20,40 20,115 20,115 0,0 -50,-5 -85,-15 -36,-10 -86,-20 -111,-55 -25,-35 -80,-100 -100,-126 -20,-25 -36,-60 -81,-95 -45,-35 -125,-60 -166,-50 -97,24 -306,40 -376,-40 -35,-41 -91,-31 -136,-41 -45,-10 -171,21 -226,36 -55,15 -115,30 -181,30 -65,0 -115,15 -191,-10 -75,-25 -100,-30 -140,-30 -40,0 -76,30 -76,30 0,0 -215,-40 -261,-61 -45,-20 -66,-26 -100,-25 -18,1 -40,-17 -49,-1 -8,13 -35,34 -51,39 -1,1 -26,13 -61,58 -35,45 -45,60 -60,95 -15,35 -45,35 -45,35 4,7 9,14 14,20 3,5 -4,42 -34,66 -31,23 -78,15 -83,-15 -5,-31 8,-46 19,-61 12,-15 30,-17 28,-20 -2,-2 -15,-25 10,-45 26,-20 26,-25 61,-60 35,-35 50,-35 75,-86 25,-50 55,-71 106,-82 -47,-8 -86,6 -106,13 -20,7 -30,37 -68,69 -39,33 -45,40 -75,78 -29,38 -23,43 -53,43 -30,0 -55,5 -55,5 -8,6 -15,12 -22,18 -1,0 7,9 8,27 1,17 -13,24 -23,33 -10,8 -61,41 -87,21 -10,-33 18,-66 18,-66 12,-14 25,-28 37,-42 14,-14 27,-29 41,-43 0,0 15,-14 46,-32 30,-17 29,-25 68,-57 40,-33 44,-41 72,-64 28,-23 50,-49 50,-49 0,0 17,-26 49,-30 32,-3 33,3 68,3 36,0 46,3 97,3 51,0 76,3 78,-13 2,-16 11,10 -7,-46 -17,-56 3,-97 23,-112 21,-15 31,-23 26,-51 -5,-28 -13,-94 -23,-114 -10,-21 -18,-69 -36,-99 -18,-31 -42,-52 -42,-52 0,0 -23,32 -58,42 -36,11 -73,12 -103,9 -31,-2 -36,4 -51,1 -15,-2 -33,7 -43,20 -11,13 -18,36 -39,36 -20,0 -50,-10 -46,-17 11,-14 10,-12 -4,-4 -2,1 -12,4 -15,-7 1,-12 -4,-16 -4,-16 z m 210,-187 c 10,-6 21,-5 26,2 4,7 -1,18 -11,24 -10,6 -21,5 -25,-3 -5,-7 0,-17 10,-23 z"
          id="path1742"
          inkscape:connector-curvature="0"
          style="fill:#ffcc00" />
      <path
          class="fil2"
          d="m 38900,3345 c 48,-220 136,-402 246,-511 l 0,-471 474,0 0,467 c 110,106 198,282 247,498 37,42 80,78 102,80 l 0,313 6,0 c 72,0 132,59 132,132 l 0,744 -1393,0 0,-744 c 0,-61 41,-113 97,-128 l 0,-317 c 17,1 54,-26 89,-63 z"
          id="path1744"
          inkscape:connector-curvature="0"
          style="fill:#000000" />
      <rect
          class="fil12"
          x="39357"
          y="2898"
          width="106"
          height="1699"
          id="rect1746"
          style="fill:#ffffff" />
      <path
          class="fil4"
          d="m 39739,3754 45,0 c 98,0 178,82 178,183 l 0,660 -401,0 0,-660 c 0,-101 80,-183 178,-183 z"
          id="path1748"
          inkscape:connector-curvature="0"
          style="fill:#999999" />
      <path
          class="fil3"
          d="m 39764,3777 c 0,0 0,0 0,0 0,54 31,98 69,98 22,0 41,-14 54,-36 9,15 14,32 14,50 0,41 -28,78 -69,97 l 0,-2 -141,0 0,0 c -39,-20 -64,-55 -64,-95 0,-17 4,-34 13,-48 12,21 31,34 52,34 38,0 69,-44 70,-98 0,0 1,0 2,0 z"
          id="path1750"
          inkscape:connector-curvature="0"
          style="fill:#ffcc00" />
      <rect
          class="fil2"
          x="39691"
          y="3984"
          width="141"
          height="613"
          id="rect1752"
          style="fill:#000000" />
      <path
          class="fil4"
          d="m 39015,3754 45,0 c 98,0 178,82 178,183 l 0,660 -401,0 0,-660 c 0,-101 80,-183 178,-183 z"
          id="path1754"
          inkscape:connector-curvature="0"
          style="fill:#999999" />
      <path
          class="fil3"
          d="m 39035,3777 c 0,0 0,0 0,0 0,54 32,98 70,98 21,0 40,-14 53,-36 9,15 14,32 14,50 0,41 -27,78 -69,97 l 0,-2 -140,0 0,0 c -39,-20 -65,-55 -65,-95 0,-17 5,-34 13,-48 13,21 32,34 53,34 38,0 69,-44 69,-98 1,0 2,0 2,0 z"
          id="path1756"
          inkscape:connector-curvature="0"
          style="fill:#ffcc00" />
      <rect
          class="fil2"
          x="38963"
          y="3984"
          width="141"
          height="613"
          id="rect1758"
          style="fill:#000000" />
      <path
          class="fil4"
          d="m 39369,2365 c -123,-45 -160,-316 9,-334 157,-16 124,-111 304,-111 64,0 34,77 90,64 98,-21 325,-4 248,154 0,0 137,-184 205,-115 22,21 112,-107 227,-52 30,13 12,53 22,3 18,-90 334,27 94,147 -47,22 21,112 -98,141 -73,18 -73,5 -125,43 -115,86 -85,137 -269,137 -69,0 -142,-8 -172,-8 -128,0 -167,103 -282,-52 -26,-38 -214,-17 -253,-17 z"
          id="path1760"
          inkscape:connector-curvature="0"
          style="fill:#999999" />
      <path
          class="fil4"
          d="m 38566,4297 0,300 -1189,0 0,-1638 c 13,5 49,20 88,51 49,39 128,126 128,126 0,0 29,29 78,29 49,0 215,5 239,19 25,15 216,165 235,194 20,29 15,266 15,266 0,0 59,63 122,131 64,67 132,247 147,329 15,82 10,121 10,121 l 63,5 c 0,0 -14,4 64,67 z m -794,-819 21,57 c 0,0 -21,19 18,38 39,19 82,31 82,-3 0,-35 7,-50 -22,-58 -28,-7 -60,-30 -60,-30 l -32,-23 -7,19 z m 170,290 c 75,8 146,85 146,85 0,0 50,14 57,67 8,53 0,165 0,165 0,0 -17,11 -32,-21 -14,-31 -7,-35 -28,-45 -22,-11 -11,-29 -22,-57 -10,-28 15,-46 -28,-84 -43,-39 -78,-71 -78,-71 0,0 -36,-7 -36,-28 0,-21 21,-11 21,-11 z m -32,-172 c 0,0 -32,-4 -14,21 18,25 64,4 64,4 l 14,-43 c 0,0 0,-28 -24,-14 -25,14 -40,32 -40,32 z m -533,380 0,-205 c 2,1 3,1 3,1 0,0 28,25 60,25 32,0 25,-29 68,-39 43,-11 160,-46 217,-11 57,36 143,99 168,120 25,21 110,113 128,141 18,28 50,85 21,99 -28,14 -53,3 -75,-22 -21,-24 7,-31 -10,-45 -18,-14 -11,0 -50,-43 -39,-42 14,-49 -61,-88 -74,-38 -67,-67 -117,-67 -50,0 -86,-3 -93,22 -7,24 -3,14 7,38 11,25 40,46 -7,67 -46,21 -82,32 -139,32 -40,0 -92,-16 -120,-25 z m 0,113 c 12,-3 27,-4 46,0 64,14 114,18 178,67 64,49 89,53 138,81 50,28 82,14 118,67 36,53 46,35 57,56 11,21 7,67 -25,81 -32,14 -32,43 -121,14 -89,-28 -85,-10 -100,-45 -14,-36 -60,-96 -60,-96 0,0 -39,-45 -54,-81 -14,-35 -71,-63 -96,-52 -23,9 -51,40 -81,45 l 0,-137 z m 0,-494 0,-138 c 28,-1 29,-11 63,11 36,21 56,57 82,65 25,8 50,19 50,49 0,31 8,42 -12,47 -21,6 -41,19 -82,8 -34,-9 -75,-29 -101,-42 z m 0,-283 0,-267 c 21,2 43,8 58,26 25,30 69,93 69,93 0,0 -8,31 23,73 30,43 61,73 56,104 -5,30 0,52 -33,52 -34,0 -64,-12 -82,-27 -18,-15 -58,-18 -79,-43 -3,-5 -7,-8 -12,-11 z m 526,47 c -23,-17 -23,-28 -23,-42 0,-13 9,-27 45,-8 36,19 92,69 97,97 6,27 6,55 6,55 0,0 -14,22 -39,-6 -25,-27 -86,-96 -86,-96 z"
          id="path1762"
          inkscape:connector-curvature="0"
          style="fill:#999999" />
      <path
          class="fil4"
          d="m 41377,3884 0,593 -38,26 -9,94 -128,0 c -4,-5 -10,-14 -21,-31 -31,-50 22,-113 4,-134 -19,-22 -32,12 -38,31 -7,19 -38,9 -57,-16 -19,-25 -3,-53 9,-109 13,-57 51,-50 82,-85 32,-34 86,-53 127,-47 41,7 31,-6 16,-34 -16,-28 -64,-16 -86,-6 -22,9 -91,47 -126,65 -35,19 -95,129 -117,160 -22,31 -3,72 -3,94 0,22 25,65 34,97 2,5 3,10 5,15 l -213,0 c 7,-13 20,-31 44,-50 51,-40 35,-40 25,-65 -9,-25 -44,-7 -75,3 -32,9 -19,31 -67,75 -25,23 -26,29 -26,37 l -142,0 c 26,-25 62,-56 76,-59 15,-3 102,-88 35,-113 -66,-25 -148,82 -221,129 -24,15 -40,30 -52,43 l -137,0 c 37,-58 113,-125 113,-125 l 44,-56 c 0,0 0,-60 -3,-97 -3,-38 51,-128 98,-175 48,-47 142,-119 209,-110 66,10 114,60 114,60 0,0 15,19 28,-13 13,-31 85,-103 101,-106 16,-3 63,-47 152,-69 88,-22 174,-22 196,-22 18,0 39,0 47,0 z"
          id="path1764"
          inkscape:connector-curvature="0"
          style="fill:#999999" />
   </g>
</svg>
