<?xml version="1.0" encoding="UTF-8" standalone="no"?>
<svg
    xmlns:dc="http://purl.org/dc/elements/1.1/"
    xmlns:cc="http://creativecommons.org/ns#"
    xmlns:rdf="http://www.w3.org/1999/02/22-rdf-syntax-ns#"
    xmlns:svg="http://www.w3.org/2000/svg"
    xmlns="http://www.w3.org/2000/svg"
    xmlns:sodipodi="http://sodipodi.sourceforge.net/DTD/sodipodi-0.dtd"
    xmlns:inkscape="http://www.inkscape.org/namespaces/inkscape"
    id="city_bel"
    data-name="bel"
    width="52.5mm"
    height="52.5mm"
    viewBox="0 0 148.82 148.82"
    version="1.1"
    inkscape:version="0.91 r13725"
    sodipodi:docname="_bratsk.svg">
   <metadata
       id="metadata12">
      <rdf:RDF>
         <cc:Work
             rdf:about="">
            <dc:format>image/svg+xml</dc:format>
            <dc:type
                rdf:resource="http://purl.org/dc/dcmitype/StillImage" />
            <dc:title></dc:title>
         </cc:Work>
      </rdf:RDF>
   </metadata>
   <defs
       id="defs10" />
   <sodipodi:namedview
       pagecolor="#ffffff"
       bordercolor="#666666"
       borderopacity="1"
       objecttolerance="10"
       gridtolerance="10"
       guidetolerance="10"
       inkscape:pageopacity="0"
       inkscape:pageshadow="2"
       inkscape:window-width="640"
       inkscape:window-height="480"
       id="namedview8"
       showgrid="false"
       inkscape:zoom="1.268656085"
       inkscape:cx="93.01181102"
       inkscape:cy="93.01181102"
       inkscape:current-layer="city_bel" />
   <g
       transform="matrix(0.0283466687,0,0,0.0283466716,0.3275576871,-148.7035019)"
       style="clip-rule:evenodd;fill-rule:evenodd;image-rendering:optimizeQuality;shape-rendering:geometricPrecision;text-rendering:geometricPrecision"
       id="bratsk">
      <path
          class="fil4"
          d="m 1956,5902 1306,0 c -76,79 -123,190 -123,313 0,140 61,264 156,343 -95,79 -156,203 -156,343 0,127 50,241 130,320 -80,79 -130,194 -130,321 0,135 57,256 147,335 -90,79 -147,200 -147,336 0,139 61,264 156,343 -95,78 -156,203 -156,343 0,127 50,241 130,320 -80,79 -130,193 -130,320 0,136 58,257 147,336 l -1355,0 c 90,-79 148,-200 148,-336 0,-127 -51,-241 -131,-320 80,-79 131,-193 131,-320 0,-140 -61,-265 -156,-343 95,-79 156,-204 156,-343 0,-136 -58,-257 -147,-336 89,-79 147,-200 147,-335 0,-127 -51,-242 -131,-321 80,-79 131,-193 131,-320 0,-140 -61,-264 -156,-343 95,-79 156,-203 156,-343 0,-123 -48,-234 -123,-313 z"
          id="path1768"
          inkscape:connector-curvature="0"
          style="fill:#999999" />
      <path
          class="fil2"
          d="m 2339,5902 539,0 c -75,79 -123,190 -123,313 0,140 62,264 156,343 -94,79 -156,203 -156,343 0,127 51,241 131,320 -80,79 -131,194 -131,321 0,135 58,256 147,335 -89,79 -147,200 -147,336 0,139 62,264 156,343 -94,78 -156,203 -156,343 0,127 51,241 131,320 -80,79 -131,193 -131,320 0,136 58,257 148,336 l -588,0 c 90,-79 147,-200 147,-336 0,-127 -50,-241 -130,-320 80,-79 130,-193 130,-320 0,-140 -61,-265 -155,-343 94,-79 155,-204 155,-343 0,-136 -57,-257 -147,-336 90,-79 147,-200 147,-335 0,-127 -50,-242 -130,-321 80,-79 130,-193 130,-320 0,-140 -61,-264 -155,-343 94,-79 155,-203 155,-343 0,-123 -47,-234 -123,-313 z"
          id="path1770"
          inkscape:connector-curvature="0"
          style="fill:#000000" />
      <path
          class="fil17"
          d="m 2279,5875 335,0 0,46 -232,0 c 26,33 47,71 63,111 21,55 33,115 33,178 0,72 -15,140 -43,201 -24,55 -59,103 -101,143 42,39 77,88 101,142 28,61 43,129 43,201 0,65 -12,127 -35,183 -21,51 -51,98 -86,137 35,39 65,85 86,137 23,56 35,118 35,183 0,70 -14,136 -40,195 -23,53 -56,101 -96,141 40,39 73,87 96,140 26,59 40,126 40,195 0,72 -15,140 -43,200 -24,55 -59,104 -101,143 42,40 77,88 101,143 28,60 43,128 43,200 0,65 -12,128 -35,184 -21,51 -51,97 -86,136 35,40 65,86 86,137 23,56 35,118 35,184 0,69 -14,135 -40,195 -24,53 -57,101 -97,141 l -67,0 c 55,-49 92,-91 122,-160 24,-53 37,-113 37,-176 0,-60 -12,-116 -33,-167 -21,-52 -52,-99 -91,-137 l -16,-17 16,-16 c 39,-38 70,-85 91,-137 21,-51 33,-108 33,-167 0,-65 -14,-127 -39,-181 -26,-57 -63,-106 -109,-144 l -21,-18 21,-17 c 46,-38 83,-88 109,-144 25,-55 39,-117 39,-182 0,-63 -13,-123 -37,-176 -24,-56 -59,-104 -102,-142 l -20,-17 20,-18 c 43,-38 78,-86 102,-142 24,-53 37,-113 37,-176 0,-59 -12,-115 -33,-166 -21,-53 -52,-100 -91,-138 l -16,-16 16,-16 c 39,-38 70,-85 91,-138 21,-51 33,-107 33,-166 0,-66 -14,-127 -39,-182 -26,-57 -63,-106 -109,-144 l -21,-17 21,-18 c 46,-38 83,-87 109,-144 25,-55 39,-116 39,-182 0,-57 -11,-112 -31,-161 -20,-51 -49,-97 -86,-135 l -37,-39 z"
          id="path1772"
          inkscape:connector-curvature="0"
          style="fill:#ffffff;fill-rule:nonzero" />
      <path
          class="fil17"
          d="m 2949,5875 -335,0 0,46 232,0 c -25,33 -47,71 -63,111 -21,55 -33,115 -33,178 0,72 15,140 43,201 25,55 59,103 101,143 -42,39 -76,88 -101,142 -28,61 -43,129 -43,201 0,65 13,127 35,183 21,51 51,98 87,137 -36,39 -66,85 -87,137 -22,56 -35,118 -35,183 0,70 14,136 40,195 24,53 56,101 96,141 -40,39 -72,87 -96,140 -26,59 -40,126 -40,195 0,72 15,140 43,200 25,55 59,104 101,143 -42,40 -76,88 -101,143 -28,60 -43,128 -43,200 0,65 13,128 35,184 21,51 51,97 87,136 -36,40 -66,86 -87,137 -22,56 -35,118 -35,184 0,69 14,135 40,195 24,53 57,101 97,141 l 67,0 -19,-18 c -43,-38 -79,-86 -103,-142 -23,-53 -37,-113 -37,-176 0,-60 12,-116 33,-167 21,-52 53,-99 91,-137 l 17,-17 -17,-16 c -38,-38 -70,-85 -91,-137 -21,-51 -33,-108 -33,-167 0,-65 14,-127 39,-181 26,-57 63,-106 109,-144 l 21,-18 -21,-17 c -46,-38 -83,-88 -109,-144 -25,-55 -39,-117 -39,-182 0,-63 14,-123 37,-176 24,-56 59,-104 103,-142 l 19,-17 -19,-18 c -44,-38 -79,-86 -103,-142 -23,-53 -37,-113 -37,-176 0,-59 12,-115 33,-166 21,-53 53,-100 91,-138 l 17,-16 -17,-16 c -38,-38 -70,-85 -91,-138 -21,-51 -33,-107 -33,-166 0,-66 14,-127 39,-182 26,-57 63,-106 109,-144 l 21,-17 -21,-18 c -46,-38 -83,-87 -109,-144 -25,-55 -39,-116 -39,-182 0,-57 11,-112 31,-161 20,-51 50,-97 86,-135 l 37,-39 z"
          id="path1774"
          inkscape:connector-curvature="0"
          style="fill:#ffffff;fill-rule:nonzero" />
      <path
          class="fil3"
          d="m 2766,6756 c 49,10 97,24 142,43 -13,-58 -14,-133 -11,-172 5,-72 99,-132 171,-172 42,-22 39,-69 39,-147 206,339 -87,340 -99,452 -13,41 -50,46 -79,47 29,13 57,28 84,45 l 392,-185 -180,382 c 32,46 60,96 82,149 30,-51 84,-106 114,-131 54,-47 164,-24 243,0 45,13 76,-22 131,-78 -94,386 -301,180 -390,250 -40,21 -70,-5 -92,-24 13,32 23,66 30,101 l 389,139 -382,137 c -10,60 -27,117 -51,170 59,-16 141,-17 182,-14 71,5 132,99 171,172 23,41 69,38 148,38 -340,206 -340,-86 -453,-99 -50,-16 -45,-67 -48,-95 -18,41 -40,80 -65,117 l 171,363 -363,-171 c -85,58 -183,98 -289,116 l -136,382 -140,-389 c -97,-21 -188,-62 -266,-119 l -383,181 185,-392 c -46,-75 -79,-158 -95,-247 l -417,-150 424,-151 c 19,-82 53,-158 97,-227 l -194,-410 411,194 c 34,-23 71,-42 110,-59 -52,-31 -108,-85 -134,-115 -47,-55 -23,-164 0,-243 14,-46 -22,-76 -77,-132 386,95 179,302 250,390 22,42 -8,73 -27,95 33,-13 68,-25 104,-33 l 152,-424 149,416 z m 136,1398 c 53,30 112,87 139,118 47,54 23,164 0,243 -14,45 22,76 77,132 -386,-95 -179,-302 -250,-390 -24,-48 17,-81 34,-103 z m -557,-4 c 16,59 17,141 14,182 -5,72 -99,132 -171,172 -42,22 -39,69 -39,147 -206,-339 87,-340 99,-452 16,-51 69,-46 97,-49 z m -391,-396 c -30,53 -88,111 -119,138 -54,47 -163,24 -243,0 -45,-13 -76,22 -131,77 94,-385 301,-179 390,-250 47,-24 81,17 103,35 z m 3,-557 c -58,16 -140,17 -182,14 -71,-5 -132,-99 -171,-172 -23,-42 -69,-38 -148,-38 340,-206 340,86 453,99 50,16 45,68 48,97 z"
          id="path1776"
          inkscape:connector-curvature="0"
          style="fill:#ffcc00" />
   </g>
</svg>
