<?xml version="1.0" encoding="UTF-8" standalone="no"?>
<svg
    xmlns:dc="http://purl.org/dc/elements/1.1/"
    xmlns:cc="http://creativecommons.org/ns#"
    xmlns:rdf="http://www.w3.org/1999/02/22-rdf-syntax-ns#"
    xmlns:svg="http://www.w3.org/2000/svg"
    xmlns="http://www.w3.org/2000/svg"
    xmlns:sodipodi="http://sodipodi.sourceforge.net/DTD/sodipodi-0.dtd"
    xmlns:inkscape="http://www.inkscape.org/namespaces/inkscape"
    id="city_nnov"
    data-name="nnov"
    width="52.5mm"
    height="52.5mm"
    viewBox="0 0 148.82 148.82"
    version="1.1"
    inkscape:version="0.91 r13725"
    sodipodi:docname="_cherepovets.svg">
   <metadata
       id="metadata22">
      <rdf:RDF>
         <cc:Work
             rdf:about="">
            <dc:format>image/svg+xml</dc:format>
            <dc:type
                rdf:resource="http://purl.org/dc/dcmitype/StillImage" />
            <dc:title></dc:title>
         </cc:Work>
      </rdf:RDF>
   </metadata>
   <defs
       id="defs20" />
   <sodipodi:namedview
       pagecolor="#ffffff"
       bordercolor="#666666"
       borderopacity="1"
       objecttolerance="10"
       gridtolerance="10"
       guidetolerance="10"
       inkscape:pageopacity="0"
       inkscape:pageshadow="2"
       inkscape:window-width="640"
       inkscape:window-height="480"
       id="namedview18"
       showgrid="false"
       inkscape:zoom="1.268656085"
       inkscape:cx="93.01181102"
       inkscape:cy="93.01181102"
       inkscape:current-layer="city_nnov" />
   <g
       transform="matrix(0.0283466687,0,0,0.0283466716,-742.5882361,-1190.462581)"
       style="clip-rule:evenodd;fill-rule:evenodd;image-rendering:optimizeQuality;shape-rendering:geometricPrecision;text-rendering:geometricPrecision"
       id="cherepovets">
      <path
          class="fil3"
          d="m 28977,42976 3,0 8,0 3,4 4,3 4,4 4,4 0,3 0,8 0,3 0,8 -4,3 -4,4 -4,4 -3,0 -8,3 -3,0 -8,0 -3,-3 -8,0 -3,-4 -4,-4 0,-3 -4,-8 0,-3 0,-8 4,-3 0,-4 4,-4 3,-3 8,-4 3,0 8,0 z m -176,0 3,0 8,0 3,4 4,3 4,4 0,4 3,3 0,8 0,3 -3,8 0,3 -4,4 -4,4 -3,0 -8,3 -3,0 -4,0 -7,-3 -4,0 -4,-4 -3,-4 -4,-3 0,-8 0,-3 0,-8 0,-3 4,-4 3,-4 4,-3 4,-4 7,0 4,0 z m -327,653 0,-4 4,-3 3,-4 4,-4 4,0 0,-3 3,0 0,-4 0,-15 0,-18 0,-18 0,-22 0,-22 0,-19 0,-14 0,-11 0,0 0,0 -3,0 -4,0 0,0 -4,0 -3,0 -4,0 0,161 z m 818,0 0,-4 -3,-3 -4,-4 -4,-4 -3,0 0,-3 -4,0 0,-4 0,-15 0,-18 0,-18 0,-22 0,-22 0,-19 0,-14 0,-11 0,0 0,0 4,0 3,0 4,0 0,0 4,0 3,0 0,161 z m -359,-393 154,-187 0,356 -154,-169 z m -242,268 396,0 -198,-220 -198,220 z m 157,-271 -157,-184 0,356 157,-172 z m -80,-184 242,0 -125,136 -117,-136 z m -206,929 -4,-8 -3,-7 0,-7 0,-8 3,-11 4,-7 4,-7 7,-8 -11,-18 -11,4 -7,7 -8,11 -7,11 -4,11 -3,15 -4,11 -4,11 -25,0 0,-305 3,0 8,-4 7,-3 11,-4 7,-7 4,-4 7,-7 8,-8 84,19 88,11 85,7 88,4 84,-4 88,-11 92,-15 92,-22 3,11 4,8 7,7 4,7 7,8 8,7 7,4 7,7 0,294 -36,0 -48,-77 -11,7 -4,7 0,8 4,11 4,7 0,7 3,11 0,8 0,11 -642,0 z m 697,-77 -3,0 -4,-4 -7,-4 -4,-7 -4,-7 -7,-4 -4,-7 -7,-8 11,-14 4,-19 3,-18 0,-18 0,-19 -7,-18 -4,-18 -7,-19 -18,7 -15,4 -18,8 -15,3 -18,4 -15,0 -18,4 -15,0 -4,22 11,3 4,4 7,4 4,3 4,8 3,7 4,7 4,11 7,4 4,0 7,4 7,0 11,3 8,0 11,0 7,0 4,26 -11,0 -11,4 -8,0 -11,0 -7,0 -11,-4 -11,0 -11,-4 -4,-3 -3,-8 -4,-7 -7,-11 -4,-7 -7,-11 -11,-11 -11,-8 -15,-7 -11,-4 -15,-3 -14,-4 -12,-7 -11,-11 -7,-15 -7,-15 33,-4 29,0 33,-3 33,-4 33,-3 37,-12 33,-11 37,-14 29,37 -4,198 z m -400,-195 -11,4 -7,7 -7,11 -8,8 -7,11 -4,11 -7,7 -4,4 -25,11 -22,11 -19,14 -18,11 -15,11 -14,15 -11,18 -4,19 -103,0 11,29 118,0 14,-33 11,-22 15,-15 18,-11 15,-7 18,-7 19,-11 18,-19 4,0 0,-7 7,-7 4,-8 7,-11 11,-7 7,-4 11,0 8,0 11,4 3,4 4,3 7,8 4,11 7,7 8,7 22,19 18,11 15,7 18,7 15,11 15,15 14,22 15,33 114,0 14,-29 -102,0 -8,-19 -11,-18 -11,-15 -14,-11 -19,-11 -22,-14 -22,-11 -22,-11 -7,-4 -4,-7 -7,-11 -8,-11 -7,-8 -7,-11 -8,-7 -7,-4 -7,0 -8,0 -3,0 -8,0 -3,0 -8,0 -7,0 -4,0 z m -348,198 3,-3 8,-4 3,-4 4,-3 7,-8 4,-7 4,-7 7,-4 -11,-18 -4,-15 -3,-18 0,-19 3,-18 4,-22 4,-18 7,-19 18,7 19,8 14,4 19,3 14,4 15,4 19,0 18,0 0,25 -7,0 -8,4 -3,4 -4,7 -4,4 -3,7 -8,11 -3,7 -4,4 -8,4 -7,0 -7,3 -11,0 -8,0 -7,0 -11,0 -4,30 11,0 11,0 8,0 11,0 11,0 7,0 11,-4 15,0 0,-7 4,-8 7,-7 4,-7 7,-11 7,-8 8,-11 11,-11 14,-3 15,-4 11,-4 15,-7 11,-7 11,-11 7,-11 7,-19 -29,0 -33,0 -33,-4 -33,-3 -33,-7 -33,-8 -37,-11 -37,-15 -25,34 0,201 z m 352,-1075 0,4 -4,11 0,14 0,19 0,18 0,15 0,7 0,4 -11,14 -11,4 -14,4 -19,0 -14,0 -19,0 -14,4 -15,7 -4,7 0,8 4,11 0,7 4,7 0,8 -4,7 -7,4 -272,-301 7,-8 8,-3 11,0 7,-4 7,-4 8,0 3,-7 0,-7 -3,-8 -8,-7 -3,-7 -8,-4 -3,-7 -8,-4 -3,-7 -8,-4 -7,4 -7,3 -4,8 -4,11 -7,7 -4,7 -7,4 -7,4 -8,-8 -7,-7 -4,-7 -3,-8 -4,-11 -4,-7 -3,-4 -4,-7 -7,7 -8,4 -7,4 -7,3 -8,4 -3,4 -8,7 -3,4 3,11 8,7 11,4 7,7 7,4 8,3 7,8 4,7 -4,7 -7,8 -8,3 -7,4 -7,4 -8,0 -7,3 -7,4 -4,15 7,7 4,7 7,8 8,7 7,7 7,8 8,0 11,0 3,-4 4,-4 4,-7 3,-11 4,-7 7,-8 4,-3 7,-4 176,202 4,26 0,524 -81,0 0,-150 -84,0 -4,580 -44,51 0,92 -172,0 0,92 4,0 7,0 11,0 11,0 7,0 4,0 0,0 -7,0 0,-41 1295,-3 0,44 33,0 0,-92 -206,0 0,-88 -47,-55 0,-580 -92,0 0,150 -70,0 0,-495 0,-37 173,-187 7,4 4,7 0,7 0,11 -4,11 0,8 4,7 3,7 19,-7 14,0 11,0 11,0 11,4 12,3 7,-3 4,-4 3,-7 -3,-11 0,-11 0,-11 -4,-8 0,-11 0,-11 0,-7 -11,-7 -8,0 -11,0 -11,0 -7,0 -11,0 -4,-4 -3,-7 3,-4 8,-7 3,-8 8,-3 3,-8 8,-3 3,0 0,-4 8,-4 7,0 8,-3 7,0 7,0 7,0 8,0 7,-4 0,-11 0,-11 4,-11 0,-11 0,-15 0,-11 0,-11 0,-11 -15,-3 -14,-4 -11,4 -15,0 -11,0 -11,3 -15,0 -11,4 -4,7 0,8 0,7 0,7 0,8 0,3 0,8 0,3 -3,8 -4,7 -7,7 -4,4 -4,7 -7,4 -4,4 -7,0 -7,-8 -4,-7 0,-7 0,-8 0,-7 0,-7 -4,-8 -3,-7 -22,-7 -11,0 -11,3 -8,0 -11,-3 -7,0 -7,0 -11,3 -8,4 -3,11 7,11 4,7 0,11 3,8 0,11 0,7 -3,7 0,11 11,4 7,0 11,0 11,0 7,0 8,0 7,4 7,11 -11,11 -25,29 -41,40 -44,48 -44,48 -36,40 -26,30 -11,11 -11,-4 -4,-7 4,-4 0,-7 4,-8 3,-11 4,-7 -4,-7 -11,-4 -18,-4 -22,0 -22,0 -22,0 -19,-4 -7,-3 -7,-4 -4,-3 0,-8 0,-3 0,-12 0,-11 0,-18 0,-15 0,-14 0,-11 0,-4 22,-4 22,0 18,4 15,7 15,4 18,7 19,4 22,0 14,-4 11,-3 4,-8 7,-11 0,-11 4,-11 4,-11 3,-11 8,-3 7,-8 4,-3 3,-8 0,-7 4,-7 0,-4 0,-7 -4,0 -3,0 -4,3 -7,0 -4,0 -4,0 0,0 -3,-3 0,-143 -37,0 0,143 0,0 -4,0 -3,0 -4,0 -7,0 -4,0 -4,0 -3,0 0,7 0,7 0,8 3,3 4,8 4,3 7,4 4,4 3,3 4,4 0,4 0,7 0,4 -4,7 -3,7 -8,4 -7,0 -7,0 -8,0 -7,-4 -11,-3 -4,-4 -7,-4 -7,-3 -4,-8 -11,-7 -11,-4 -11,-3 -11,-4 -11,-4 -11,-3 -11,-4 3,-7 0,-4 8,-7 3,-4 4,-7 4,-4 3,-7 4,-4 -4,0 -7,0 -7,0 -8,0 -7,0 -7,0 -4,-4 0,0 0,-172 -33,0 0,172 0,4 -4,4 -7,0 -7,0 -8,-4 -7,0 -7,0 -4,0 0,4 4,7 7,4 4,7 3,4 4,7 4,4 0,7 -8,4 -11,3 -11,4 -11,4 -14,3 -8,4 -11,7 -7,8 -4,3 -7,4 -7,4 -8,3 -7,4 -7,0 -8,0 -11,0 -3,-4 -4,-7 -4,-7 0,-4 0,-7 0,-4 0,-4 4,-3 7,-4 8,-4 3,-3 4,-8 0,-3 4,-8 0,-7 0,-7 -4,0 -4,0 -3,0 -8,0 -3,0 -4,0 -4,0 0,0 0,-143 -40,0 0,143 0,3 0,0 -4,0 -3,0 -8,0 -3,-3 -4,0 -4,0 0,7 0,4 0,7 4,7 4,8 3,3 8,8 7,3 4,11 3,11 0,11 4,11 4,11 7,8 11,3 15,4 22,0 18,-4 18,-7 15,-4 15,-7 18,-4 18,0 26,4 z m -172,-246 -8,0 -3,-3 -4,0 0,-4 -4,-4 0,-7 0,-4 0,-7 4,0 4,-4 3,-3 0,-4 4,-7 0,-11 0,-11 0,-8 4,4 0,4 3,7 0,7 4,8 0,3 0,8 0,3 7,8 4,3 0,8 0,3 -4,4 -3,4 -4,3 -7,0 z m 201,-47 -3,0 -8,0 -3,-4 -4,-4 0,-3 -4,-4 0,-4 0,-7 8,4 3,-4 4,-4 4,-7 0,-11 0,-11 0,-11 0,-11 3,3 4,4 4,7 3,8 0,7 0,7 4,8 0,3 4,4 3,4 0,4 -3,3 0,8 -4,3 -7,4 -8,4 z m 202,44 -3,0 -4,-4 -4,0 -3,-4 0,-3 -4,-8 0,-3 4,-8 3,0 4,-3 4,-4 0,-4 3,-7 0,-11 0,-7 0,-12 4,4 0,4 4,7 0,8 3,7 0,4 0,7 0,4 8,7 0,4 3,7 0,4 -3,3 -4,4 -7,4 -8,0 z m -657,1497 0,-4 0,-7 0,-4 0,-7 0,-8 0,-7 0,-7 -3,-11 910,0 0,7 3,7 -3,4 0,7 0,11 0,8 0,3 0,8 -907,0 z m 723,-1009 0,0 0,0 z"
          id="path2320"
          inkscape:connector-curvature="0"
          style="fill:#ffcc00" />
      <path
          class="fil2"
          d="m 28437,43934 -44,51 -25,11 -26,4 -22,0 -26,-4 -22,-4 -25,-7 -26,-11 -26,-15 -7,-11 -4,-14 -4,-15 -3,-11 -4,-15 -4,-11 0,-14 -7,-15 -11,-7 -15,-4 -11,0 -14,0 -11,0 -15,0 -11,0 -15,-4 -7,22 -7,22 -11,19 -15,18 -15,15 -18,14 -22,15 -22,11 -11,0 -7,0 -8,0 -7,0 -7,4 -8,0 -11,0 -11,0 11,117 11,7 11,4 15,4 15,0 14,3 15,4 11,11 7,15 4,4 0,3 0,4 4,4 0,3 3,4 4,4 4,3 -210,-3 -18,-22 -15,-26 -14,-29 -11,-30 -15,-33 -11,-33 -11,-33 -7,-33 18,-26 15,-29 11,-29 3,-33 0,-33 -3,-30 -8,-33 -11,-29 0,-4 -3,-7 0,-4 -4,-7 0,-4 0,-7 0,-4 4,-7 18,-8 26,-36 22,-33 18,-37 18,-37 30,-73 26,-73 22,-74 29,-73 15,-33 18,-33 18,-33 22,-33 8,-22 7,-26 7,-26 8,-25 11,-26 14,-22 22,-22 22,-15 -3,-7 -4,-8 -4,-3 -3,-8 -8,-3 -3,-8 0,-7 3,-11 4,-4 4,-3 7,-4 7,-4 8,-3 7,-4 7,0 8,0 7,7 4,4 3,7 4,4 0,7 0,4 4,7 0,8 136,3 11,22 121,19 3,3 0,4 0,8 -3,3 0,8 -4,3 0,7 4,8 -103,40 -11,15 -7,15 -8,18 -3,18 0,22 -4,19 -4,18 -7,18 29,4 22,-4 22,-7 22,-7 37,-26 37,-29 36,-30 37,-25 22,-8 22,-3 26,0 25,3 -3,63 -33,0 -37,33 -33,36 -33,33 -33,33 -33,30 -37,22 -18,11 -22,7 -22,7 -22,4 18,4 19,0 18,0 18,0 37,-11 40,-8 41,-11 40,-7 40,-4 37,4 -18,84 -8,0 -11,4 -11,4 -11,7 -11,4 -7,4 -7,3 -8,-7 -278,110 -78,198 4,-7 4,-4 3,-4 4,-3 4,-4 3,0 4,-4 4,0 22,0 22,0 18,8 19,7 18,11 15,15 14,11 8,11 11,29 7,26 7,26 4,25 0,26 -4,26 -7,25 -7,26 11,15 14,7 15,4 18,3 15,-3 18,0 19,3 14,8 z m -359,-158 0,-4 0,0 0,-3 3,0 0,0 4,0 4,-4 3,-4 0,8 -3,7 -4,11 -4,11 -7,7 -4,11 -3,4 -8,0 19,-44 z"
          id="path2322"
          inkscape:connector-curvature="0"
          style="fill:#000000" />
      <path
          class="fil2"
          d="m 29336,43934 44,51 26,11 26,4 22,0 26,-4 22,-4 25,-7 26,-11 26,-15 7,-11 4,-14 3,-15 4,-11 0,-15 4,-11 3,-14 8,-15 11,-7 11,-4 14,0 11,0 15,0 15,0 11,0 14,-4 8,22 7,22 11,19 11,18 18,15 19,14 22,15 22,11 7,0 11,0 8,0 7,0 7,4 8,0 11,0 11,0 -11,117 -11,7 -11,4 -15,4 -15,0 -14,3 -15,4 -11,11 -8,15 -3,4 0,3 -4,4 0,4 0,3 -4,4 -3,4 -4,3 217,-3 14,-22 15,-26 15,-29 11,-30 11,-33 11,-33 7,-33 11,-33 -18,-26 -15,-29 -11,-29 -4,-33 0,-33 4,-30 7,-33 11,-29 0,-4 4,-7 0,-4 0,-7 4,-4 0,-7 -4,-4 0,-7 -18,-8 -26,-36 -22,-33 -18,-37 -19,-37 -29,-73 -26,-73 -25,-74 -26,-73 -15,-33 -18,-33 -19,-33 -25,-33 -4,-22 -7,-26 -8,-26 -7,-25 -11,-26 -18,-22 -19,-22 -22,-15 0,-7 4,-8 7,-3 4,-8 4,-3 3,-8 4,-7 -4,-11 -3,-4 -4,-3 -7,-4 -8,-4 -7,-3 -7,-4 -8,0 -7,0 -7,7 -4,4 -4,7 -3,4 0,7 -4,4 0,7 0,8 -136,3 -11,22 -121,19 -4,3 0,4 0,8 0,3 4,8 0,3 0,7 0,8 103,40 11,15 7,15 8,18 3,18 0,22 4,19 4,18 3,18 -25,4 -23,-4 -21,-7 -23,-7 -36,-26 -37,-29 -37,-30 -40,-25 -18,-8 -26,-3 -22,0 -26,3 0,63 37,0 33,33 37,36 33,33 33,33 33,30 36,22 19,11 22,7 22,7 22,4 -18,4 -19,0 -18,0 -19,0 -40,-11 -37,-8 -40,-11 -40,-7 -41,-4 -40,4 22,84 7,0 11,4 11,4 11,7 8,4 11,4 7,3 7,-7 279,110 77,198 -3,-7 -4,-4 -4,-4 -3,-3 -4,-4 -4,0 -3,-4 -8,0 -18,0 -22,0 -18,8 -19,7 -18,11 -15,15 -14,11 -11,11 -8,29 -11,26 -3,26 -4,25 0,26 4,26 3,25 11,26 -11,15 -14,7 -15,4 -19,3 -18,-3 -15,0 -18,3 -15,8 z m 360,-158 0,-4 0,0 0,-3 -4,0 -3,0 0,0 -4,-4 -4,-4 0,8 4,7 4,11 3,11 4,7 7,11 4,4 7,0 -18,-44 z"
          id="path2324"
          inkscape:connector-curvature="0"
          style="fill:#000000" />
      <polygon
          class="fil2"
          points="28624,45886 28617,45875 28606,45860 28599,45846 28595,45831 28584,45816 28577,45802 28577,45787 28577,45769 28573,45754 28569,45736 28562,45721 28551,45706 28540,45691 28529,45680 28518,45673 28507,45669 28492,45666 28481,45666 28470,45666 28456,45662 28445,45658 28434,45651 28404,45629 28368,45611 28331,45596 28294,45581 28254,45570 28217,45556 28180,45534 28147,45508 28144,45508 28136,45508 28129,45512 28122,45512 28114,45515 28107,45519 28100,45523 28092,45523 28078,45512 28059,45497 28041,45490 28023,45482 28004,45475 27986,45475 27964,45479 27942,45490 27942,45490 27938,45490 27938,45493 27935,45497 27931,45501 27931,45508 27927,45512 27924,45515 27887,45504 27854,45497 27817,45493 27780,45493 27747,45497 27711,45504 27674,45515 27637,45530 27630,45534 27623,45537 27619,45545 27612,45552 27604,45556 27597,45563 27590,45570 27582,45574 27582,45570 27579,45567 27579,45567 27575,45563 27568,45559 27564,45556 27560,45552 27553,45548 27516,45570 27480,45592 27443,45618 27410,45647 27380,45677 27347,45706 27318,45736 27285,45761 27285,45772 27281,45780 27281,45791 27281,45802 27278,45813 27278,45824 27278,45838 27278,45849 27241,45868 27212,45886 27182,45912 27153,45934 27127,45959 27105,45989 27083,46022 27065,46058 27065,46066 27069,46077 27072,46088 27076,46099 27080,46110 27087,46121 27091,46132 27094,46139 28768,46157 28683,45992 28683,45981 28683,45967 28683,45956 28680,45945 28676,45930 28669,45923 28661,45912 28647,45904 28635,45897 "
          id="polygon2326"
          style="fill:#000000" />
      <path
          class="fil4"
          d="m 27322,46117 -4,-15 0,-14 4,-15 7,-11 11,-11 11,-15 11,-11 11,-11 26,-11 26,0 29,0 33,4 29,7 33,8 30,0 33,0 3,3 8,4 7,7 4,8 7,11 0,7 0,11 0,11 -7,4 -8,7 -7,7 -11,8 -11,3 -11,0 -11,4 -11,-4 0,-3 -4,-4 -3,0 -4,-4 -4,-3 -3,0 -8,-4 -3,-4 -213,26 z m -195,-18 -3,-4 -4,-4 0,-3 -4,0 -3,-4 -4,-4 -4,-7 -3,-7 11,-26 14,-26 15,-25 22,-22 26,-22 25,-19 26,-14 29,-11 74,88 0,11 -8,7 -3,4 -11,3 -8,4 -7,4 -7,3 0,8 -4,3 -7,0 -4,4 -7,0 -4,4 -7,0 -4,3 -7,0 0,8 0,7 3,4 4,3 4,4 7,0 4,4 7,0 -18,7 -22,0 -19,4 -18,3 -22,0 -18,4 -22,0 -19,4 z m 206,-198 -4,-4 -4,-4 -3,0 -4,-3 -4,-8 -3,-3 -4,-4 0,-4 -4,-11 0,-11 0,-11 4,-11 0,-7 4,-11 0,-11 3,-11 8,-15 11,-11 14,-11 11,-11 11,-7 15,-11 11,-11 15,-11 15,0 11,4 7,7 11,7 11,7 11,8 11,7 15,4 -26,11 -4,11 -7,7 -7,8 -8,3 -11,4 -11,7 -11,4 -15,7 0,22 8,0 7,0 4,0 7,0 4,4 7,0 8,0 7,0 22,-22 11,0 7,-4 8,-7 3,-7 8,-8 3,-7 4,-7 11,-4 18,26 -154,110 -3,0 -8,0 -7,0 -8,0 -7,0 -7,0 -8,0 -7,0 -7,0 z m 249,-158 -3,-22 0,-22 3,-26 4,-22 11,-22 11,-22 11,-18 15,-19 33,-14 33,-15 33,-7 29,-8 33,-3 33,0 33,7 33,7 4,11 4,11 0,8 -4,11 -4,7 0,11 -3,11 0,11 -8,-4 -3,0 -4,4 0,4 -4,3 0,8 0,3 -3,4 -4,4 -4,0 -3,0 -8,0 -4,0 -7,0 -3,0 -8,0 8,-22 -4,-4 -4,-4 -7,0 -8,4 -7,0 -7,0 -8,0 -7,0 0,11 0,11 4,11 0,11 0,15 0,11 -4,11 -4,11 -198,33 z m 375,-19 -4,-187 4,-3 3,-4 0,-4 4,-3 4,0 3,-4 8,-4 7,-3 4,0 7,0 7,-4 8,0 7,0 7,0 11,4 8,3 51,173 -4,7 -7,8 -11,3 -7,4 -11,3 -8,4 -11,0 -11,0 0,-14 4,-15 7,-15 4,-15 7,-14 4,-15 4,-18 -4,-15 -37,0 8,22 0,4 -4,0 -4,3 -3,0 -8,4 -3,4 0,3 0,8 0,7 0,7 -4,8 -4,11 -7,11 -7,11 -4,11 -4,11 -14,3 z m 190,-40 -18,-4 -4,-14 -3,-15 -4,-15 -4,-11 -3,-14 -4,-15 -4,-15 -3,-18 3,-7 15,-11 15,0 14,3 15,8 15,7 14,7 15,11 11,11 8,15 0,7 -4,8 -7,7 -4,7 -8,8 -3,7 -8,7 -3,8 -4,3 -4,0 -3,4 -8,4 -3,0 -8,3 -3,0 -8,4 z m -389,-84 -7,-19 0,0 7,0 8,-3 11,0 7,0 11,0 7,3 8,4 3,4 0,3 -3,4 -4,0 -7,0 -8,0 -3,0 -4,0 -26,4 z m 301,304 -3,-3 -4,0 -4,-4 -7,-4 -4,-3 -3,-4 -4,-4 -7,-7 0,-11 0,-11 0,-11 0,-11 3,-15 0,-11 4,-14 4,-11 99,-44 92,58 3,8 0,11 0,7 -3,11 -4,7 -4,11 -7,11 -4,11 -136,15 -11,18 z m 378,-77 -7,-11 7,-11 8,-11 7,-11 7,-11 4,-14 4,-11 -4,-15 -4,-15 4,-4 7,-3 4,0 7,0 8,3 11,4 7,0 7,0 0,4 4,3 0,4 4,4 3,7 0,8 4,7 0,7 -7,11 -8,11 -11,11 -11,8 -14,7 -15,7 -15,8 -11,3 z m -165,-3 -3,-15 -8,-11 -3,-15 -11,-11 -8,-11 -14,-11 -15,-7 -19,-7 78,-114 11,0 14,3 11,4 15,4 11,3 15,4 14,0 15,0 7,4 4,3 4,4 3,4 4,3 4,8 3,3 4,4 0,18 -4,19 -7,18 -11,19 -7,14 -4,19 0,7 4,11 3,7 4,8 -11,3 -11,0 -15,0 -14,0 -15,4 -15,0 -14,0 -15,4 -4,0 z m -378,-125 -3,-4 -4,0 -4,-4 -3,0 -4,-3 -4,-4 0,-4 4,-7 4,0 7,0 4,-4 3,0 4,-3 4,-4 3,-7 0,-8 11,8 4,3 4,8 0,7 0,4 0,7 -4,7 -4,4 -3,4 -19,0 z m 543,128 -7,-11 7,-11 8,-11 7,-11 7,-11 4,-14 4,-11 -4,-15 -4,-15 4,-4 7,-3 4,0 7,0 8,3 11,4 7,0 7,0 0,4 4,3 0,4 4,4 3,7 0,8 4,7 0,7 -7,11 -8,11 -11,11 -11,8 -14,7 -15,7 -15,8 -11,3 z m -25,294 -11,-4 -8,0 -11,0 -7,0 -11,0 -7,0 -11,0 -11,0 0,-7 -4,-8 0,-3 0,-8 0,-7 0,-7 0,-8 0,-7 11,-4 15,-7 11,-4 14,-3 11,-4 15,-4 15,-7 14,-4 4,4 7,4 4,3 7,8 8,3 7,8 7,3 8,4 -8,7 -11,8 -7,11 -7,11 -8,11 -11,7 -11,4 -14,0 z m 202,0 -12,-4 0,-7 -3,-4 0,-4 0,-3 0,-8 3,-3 0,-8 -3,-7 3,-4 4,-7 8,-4 7,-3 7,-8 11,-3 8,-4 11,-7 3,0 8,3 3,0 4,4 0,4 4,3 3,4 4,7 -4,8 -3,3 0,8 0,3 0,8 -4,3 0,8 -4,3 -3,8 -8,3 -7,4 -7,4 -8,0 -7,0 -11,0 -7,0 z m -459,-4 -19,-18 -7,-15 -4,-22 0,-18 0,-22 4,-22 4,-22 -4,-19 15,-11 18,-7 18,-11 19,-11 18,-7 18,0 19,0 18,7 52,88 -15,22 -4,7 -3,4 -4,0 -7,0 -8,0 -3,0 -8,0 -7,4 -4,7 -3,4 3,3 4,0 4,4 7,4 7,3 4,4 -11,11 -11,4 -11,0 -7,-8 -8,-3 -7,-4 -7,0 -8,4 -3,25 -8,8 -4,3 -7,0 -7,0 -8,0 -7,0 -7,0 -8,4 -3,0 z m -96,-29 -315,-4 -8,-7 -7,-15 -4,-15 -3,-18 -4,-15 0,-18 4,-15 3,-14 30,-15 29,-18 29,-15 33,-11 34,-11 33,-7 33,-4 29,-4 84,66 -11,8 -11,0 -11,0 -11,-4 -7,0 -11,0 -7,4 -8,11 4,7 11,4 11,3 11,4 15,0 11,4 11,3 11,8 -8,3 -11,4 -11,-4 -11,0 -11,0 -11,0 -11,4 -7,7 4,8 7,0 7,0 11,0 11,0 8,0 7,3 4,4 -11,4 -15,3 -11,0 -11,0 -11,-3 -15,0 -11,0 -11,0 -11,22 11,3 19,4 14,0 19,0 18,0 18,0 19,0 18,0 -15,26 z m 470,-77 -40,-143 7,-8 4,-7 7,-7 11,-4 7,-4 11,-3 11,0 8,3 88,107 0,25 -8,4 -7,4 -7,0 -7,3 -8,0 -7,4 -8,7 0,8 -7,3 -7,4 -8,0 -7,4 -7,0 -11,0 -8,0 -7,0 z m -169,-4 -77,-110 15,-7 18,-8 22,-11 19,-7 22,-7 22,-4 22,4 18,11 11,7 4,11 7,11 4,11 0,15 3,11 4,14 4,11 -118,48 z m -756,-22 -18,-4 -22,0 -22,0 -22,0 -22,0 -22,-3 -22,-8 -18,-7 -8,-18 0,-11 8,-15 11,-11 11,-11 11,-11 14,-11 8,-15 11,-3 14,-4 15,0 15,0 18,4 15,3 11,8 14,3 -25,19 0,18 3,4 8,0 7,0 7,3 8,0 7,0 7,4 8,0 18,-22 7,-4 4,0 4,0 7,4 4,4 7,0 7,3 8,4 0,7 0,11 -4,8 0,7 -4,11 -3,7 -8,8 -3,11 -8,3 -11,4 -7,0 -11,0 -7,0 -11,0 -8,0 -11,0 z m 55,-139 0,0 -3,-4 -4,-4 -4,-3 -7,-4 -4,-7 -3,-4 -4,-4 0,-25 33,-19 33,-14 37,-15 36,-15 37,-7 37,0 18,3 19,4 18,4 18,11 11,4 11,3 11,8 11,3 8,8 11,7 7,11 4,11 0,7 3,4 0,4 -3,3 0,8 -4,3 -4,4 -3,7 -4,4 -7,0 -8,0 -3,0 -8,0 -7,0 -7,0 -8,0 4,-7 0,-4 -4,-7 0,-4 -3,-7 -4,-4 0,-7 -4,-8 -3,-3 -4,0 -4,-4 -3,-7 -4,-4 0,-7 -4,-8 -3,-7 -15,0 -15,0 -11,-4 -11,-3 -11,-4 -15,0 -11,4 -14,7 7,7 4,8 11,3 7,0 11,4 8,0 10,4 15,7 -15,11 4,7 0,4 4,4 7,3 4,4 4,4 7,7 4,7 -221,8 z m 778,-19 -7,-11 7,-11 8,-11 7,-11 7,-11 4,-14 4,-11 -4,-15 -4,-15 4,-4 7,-3 4,0 7,0 8,3 11,4 7,0 7,0 0,4 4,3 0,4 4,4 3,7 0,8 4,7 0,7 -7,11 -8,11 -11,11 -11,8 -14,7 -15,7 -15,8 -11,3 z m -943,-154 -3,0 -8,-4 -3,0 -8,0 -3,0 -8,0 -7,0 -4,0 0,-22 107,-51 3,7 4,11 0,8 0,7 -4,11 -3,7 0,11 -4,8 -4,3 -7,0 -4,0 -7,0 -7,0 -4,0 -7,0 -8,0 -11,4 z"
          id="path2328"
          inkscape:connector-curvature="0"
          style="fill:#999999" />
      <polygon
          class="fil3"
          points="29303,45585 29303,45585 29303,45585 29300,45585 29300,45585 29300,45585 29300,45585 29300,45585 29300,45585 29208,45093 29193,45093 29278,45585 29278,45585 29278,45585 29274,45585 29274,45585 29274,45585 29274,45585 29274,45585 29274,45585 29138,45093 29124,45093 29245,45592 29245,45592 29241,45592 29241,45596 29237,45596 29237,45596 29234,45596 29234,45596 29230,45596 28991,45093 28969,45093 29204,45607 29204,45607 29204,45607 29201,45611 29201,45611 29201,45611 29201,45611 29201,45611 29197,45611 28900,45093 28881,45093 29182,45618 29179,45622 29179,45622 29179,45622 29179,45622 29179,45622 29175,45622 29175,45622 29175,45622 28867,45189 28867,45229 29149,45640 29146,45644 29146,45644 29142,45644 29142,45647 29142,45647 29138,45647 29138,45647 29135,45651 28867,45391 28867,45416 29120,45666 29116,45669 29116,45669 29116,45669 29116,45669 29116,45669 29116,45669 29113,45673 29113,45673 28867,45468 28867,45490 29102,45688 29102,45688 29098,45688 29098,45688 29098,45688 29098,45691 29098,45691 29098,45691 29094,45691 28867,45534 28867,45563 29080,45713 29080,45717 29080,45717 29076,45721 29076,45721 29076,45721 29072,45724 29072,45724 29072,45728 28867,45644 28867,45666 29058,45754 29058,45754 29058,45754 29058,45758 29058,45758 29058,45758 29058,45758 29054,45758 29054,45761 28867,45691 28867,45710 29047,45780 29047,45780 29047,45780 29047,45780 29047,45780 29047,45783 29047,45783 29047,45783 29047,45783 28867,45736 28867,45758 29039,45805 29039,45805 29039,45805 29039,45805 29039,45805 29039,45809 29039,45809 29039,45809 29039,45809 28867,45780 28867,45798 29036,45835 29036,45835 29032,45838 29032,45838 29032,45842 29032,45846 29032,45846 29032,45849 29032,45849 28867,45857 28867,45882 29032,45882 29032,45882 29032,45886 29032,45886 29032,45886 29032,45886 29032,45886 29032,45890 29032,45890 28867,45904 28867,45923 29032,45908 29032,45912 29032,45912 29032,45912 29032,45912 29032,45915 29032,45915 29032,45915 29032,45915 28867,45945 28867,45963 29036,45937 29036,45937 29036,45937 29036,45937 29036,45941 29036,45941 29036,45941 29036,45941 29036,45941 28867,45989 28867,46014 29043,45970 29047,45974 29047,45974 29047,45978 29047,45978 29047,45981 29050,45985 29050,45985 29050,45989 28867,46080 28867,46102 29061,46014 29061,46014 29061,46014 29061,46014 29061,46014 29061,46014 29065,46018 29065,46018 29065,46018 28867,46132 28867,46154 29076,46036 29076,46036 29076,46036 29076,46040 29076,46040 29076,46040 29076,46040 29076,46040 29076,46040 28867,46191 28867,46213 29091,46058 29091,46058 29091,46058 29091,46062 29091,46062 29091,46062 29091,46062 29094,46062 29094,46066 28867,46253 28867,46275 29109,46080 29109,46084 29109,46084 29113,46084 29113,46088 29113,46088 29116,46091 29116,46091 29120,46091 28867,46407 28867,46444 29146,46117 29146,46117 29146,46117 29146,46117 29149,46117 29149,46121 29149,46121 29149,46121 29149,46121 28867,46528 28867,46554 29168,46132 29168,46132 29168,46132 29171,46136 29171,46136 29171,46136 29171,46136 29171,46136 29175,46136 28867,46668 28867,46697 29190,46147 29193,46147 29193,46147 29193,46147 29193,46147 29193,46147 29197,46147 29197,46150 29197,46150 28901,46762 28901,46795 29223,46157 29223,46161 29226,46161 29226,46161 29230,46161 29230,46161 29230,46161 29234,46165 29234,46165 29080,46781 29083,46781 29087,46778 29091,46778 29091,46778 29094,46774 29098,46774 29102,46774 29105,46770 29267,46172 29267,46172 29270,46172 29270,46172 29270,46172 29270,46172 29270,46172 29270,46172 29274,46172 29175,46748 29175,46748 29179,46748 29179,46748 29182,46748 29186,46748 29186,46748 29190,46748 29190,46745 29292,46176 29292,46176 29296,46176 29296,46176 29296,46176 29296,46176 29296,46176 29300,46176 29300,46176 29252,46745 29267,46745 29322,46176 29322,46176 29322,46176 29322,46176 29322,46176 29325,46176 29325,46176 29325,46176 29325,46176 29329,46745 29344,46745 29344,46176 29347,46176 29347,46176 29347,46176 29347,46176 29351,46176 29351,46176 29351,46176 29355,46176 29406,46745 29421,46745 29373,46172 29373,46172 29373,46172 29373,46172 29377,46172 29377,46172 29377,46169 29377,46169 29377,46169 29483,46745 29498,46745 29406,46161 29406,46161 29410,46161 29410,46161 29413,46161 29413,46157 29417,46157 29417,46157 29421,46157 29641,46745 29659,46745 29443,46147 29447,46147 29447,46147 29447,46147 29447,46143 29447,46143 29450,46143 29450,46143 29450,46143 29733,46745 29747,46745 29469,46132 29469,46132 29469,46132 29469,46132 29469,46132 29472,46132 29472,46132 29472,46132 29472,46128 29832,46745 29850,46745 29498,46110 29498,46110 29502,46110 29502,46106 29502,46106 29505,46106 29505,46106 29505,46102 29509,46102 30056,46745 30074,46745 29527,46084 29527,46084 29527,46084 29527,46084 29527,46084 29527,46084 29527,46080 29527,46080 29527,46080 30195,46745 30213,46745 29542,46066 29542,46066 29542,46066 29542,46066 29542,46066 29542,46066 29546,46062 29546,46062 29546,46062 30364,46745 30379,46745 29557,46047 29557,46047 29557,46047 29557,46044 29557,46044 29557,46044 29557,46044 29557,46044 29560,46044 30558,46734 30558,46734 30562,46734 30562,46734 30566,46734 30566,46734 30566,46734 30569,46734 30569,46734 29568,46025 29568,46025 29568,46025 29568,46025 29571,46025 29571,46022 29571,46022 29571,46022 29571,46022 30720,46679 30724,46679 30724,46679 30724,46679 30724,46675 30724,46675 30727,46675 30727,46675 30727,46675 29582,45996 29582,45996 29582,45996 29582,45996 29586,45992 29586,45992 29586,45992 29586,45989 29586,45989 30859,46433 30859,46433 30859,46433 30859,46429 30859,46429 30859,46429 30859,46429 30859,46425 30859,46425 29597,45959 29597,45959 29597,45959 29597,45959 29597,45956 29597,45956 29597,45956 29597,45956 29597,45956 30874,46290 30874,46290 30874,46290 30874,46290 30874,46290 30874,46290 30874,46290 30874,46290 30874,46290 30874,46282 29601,45937 29601,45937 29601,45934 29601,45934 29601,45934 29601,45934 29601,45934 29601,45934 29601,45930 30874,46150 30874,46143 29604,45912 29604,45912 29604,45912 29604,45912 29604,45912 29604,45912 29604,45908 29604,45908 29604,45908 30874,46014 30874,46007 29604,45890 29604,45890 29604,45890 29604,45890 29604,45886 29604,45886 29604,45886 29604,45886 29604,45886 30874,45879 30874,45871 29604,45857 29604,45857 29604,45857 29604,45857 29604,45853 29604,45853 29604,45853 29604,45849 29604,45849 30874,45611 30874,45600 29601,45820 29601,45820 29601,45820 29601,45816 29601,45816 29601,45816 29601,45816 29601,45816 29601,45816 30874,45468 30874,45460 29593,45798 29593,45798 29593,45794 29593,45794 29593,45794 29593,45794 29593,45794 29593,45794 29593,45794 30870,45321 30867,45314 29586,45776 29586,45772 29586,45772 29586,45772 29586,45772 29586,45772 29586,45769 29586,45769 29586,45769 30845,45097 30823,45097 29571,45743 29571,45743 29571,45739 29571,45739 29571,45739 29571,45739 29571,45739 29571,45736 29571,45736 30463,45093 30445,45093 29553,45710 29553,45710 29553,45710 29553,45710 29553,45710 29553,45710 29553,45710 29553,45710 29553,45710 30276,45093 30261,45093 29542,45691 29542,45691 29538,45691 29538,45691 29538,45691 29538,45691 29538,45688 29538,45688 29538,45688 30125,45093 30111,45093 29524,45673 29524,45673 29524,45673 29524,45673 29524,45673 29524,45673 29524,45673 29524,45673 29520,45669 30001,45093 29986,45093 29509,45658 29509,45658 29509,45658 29505,45658 29505,45655 29505,45655 29505,45655 29505,45655 29505,45655 29894,45093 29876,45093 29487,45640 29483,45636 29483,45636 29483,45636 29480,45636 29480,45636 29480,45633 29476,45633 29476,45633 29718,45093 29696,45093 29450,45614 29447,45614 29447,45614 29447,45614 29447,45614 29447,45614 29447,45614 29447,45614 29443,45614 29630,45093 29615,45093 29428,45603 29424,45603 29424,45603 29424,45603 29424,45603 29424,45603 29424,45603 29421,45603 29421,45603 29557,45093 29542,45093 29402,45596 29402,45596 29402,45596 29402,45596 29402,45596 29399,45596 29399,45596 29399,45596 29399,45596 29483,45093 29469,45093 29369,45589 29369,45589 29366,45589 29366,45589 29362,45589 29362,45585 29358,45585 29358,45585 29355,45585 29355,45093 29333,45093 29329,45585 29329,45585 29329,45585 29325,45585 29325,45585 29325,45585 29325,45585 29325,45585 29322,45585 29278,45093 29263,45093 "
          id="polygon2330"
          style="fill:#ffcc00" />
      <polygon
          class="fil2"
          points="30026,46447 30617,46447 30617,45948 30588,45941 30555,45934 30529,45923 30500,45908 30474,45890 30448,45868 30426,45846 30404,45816 30386,45783 30368,45750 30353,45706 30338,45662 30327,45607 30320,45552 30316,45490 30313,45420 30026,45420 30026,45464 29791,45464 29791,45192 29832,45148 29681,45148 29722,45192 29722,45537 30026,45537 30026,45809 29997,45809 29997,45864 30026,45864 30026,46128 29997,46128 29997,46180 30026,46180 "
          id="polygon2332"
          style="fill:#000000" />
      <polygon
          class="fil4"
          points="28584,46565 28580,46561 28577,46554 28577,46546 28577,46536 28577,46517 28536,46517 28533,46513 28529,46513 28522,46510 28514,46510 28503,46506 28500,46502 28492,46502 28492,46502 28448,46546 28448,46546 28441,46546 28434,46546 28426,46546 28419,46546 28412,46546 28408,46546 28404,46546 28404,46561 28401,46572 28390,46576 28379,46576 28364,46572 28346,46572 28331,46572 28316,46576 28291,46602 28269,46620 28247,46635 28228,46646 28206,46653 28180,46657 28147,46660 28111,46660 28103,46653 28103,46646 28103,46638 28103,46631 28107,46627 28107,46624 28111,46620 28118,46620 28122,46624 28129,46624 28136,46620 28140,46616 28147,46613 28155,46609 28162,46605 28169,46605 28173,46602 28177,46598 28184,46594 28188,46591 28188,46583 28184,46580 28173,46576 28155,46576 28155,46569 28155,46565 28155,46565 28155,46565 28155,46565 28155,46565 28155,46565 28155,46561 28147,46561 28136,46561 28125,46561 28118,46561 28107,46561 28096,46561 28089,46561 28078,46561 28078,46550 28078,46543 28078,46536 28081,46532 28085,46532 28089,46532 28096,46532 28111,46532 28155,46532 28166,46528 28177,46521 28188,46517 28199,46513 28206,46510 28217,46506 28228,46502 28239,46502 28254,46502 28269,46502 28283,46502 28298,46502 28313,46502 28327,46502 28342,46502 28357,46502 28415,46484 28412,46469 28408,46455 28404,46447 28401,46444 28393,46440 28386,46440 28375,46440 28357,46440 28346,46440 28335,46440 28324,46440 28313,46440 28302,46440 28291,46440 28280,46440 28269,46440 28225,46455 28221,46455 28214,46455 28206,46455 28199,46455 28191,46455 28184,46455 28177,46455 28169,46455 28158,46447 28147,46440 28144,46433 28140,46429 28140,46422 28140,46414 28140,46403 28140,46385 27865,46429 27843,46341 27836,46341 27828,46341 27821,46341 27817,46341 27810,46341 27802,46341 27795,46341 27788,46341 27784,46334 27780,46334 27780,46330 27777,46330 27777,46330 27777,46330 27777,46326 27773,46326 27766,46323 27755,46319 27740,46315 27729,46312 27714,46308 27703,46304 27692,46301 27681,46297 27678,46297 27674,46297 27667,46301 27663,46304 27648,46319 27634,46341 27612,46363 27590,46381 27579,46389 27564,46396 27553,46400 27538,46400 27531,46403 27520,46403 27505,46403 27491,46400 27480,46400 27465,46396 27454,46396 27447,46396 27491,46455 27498,46455 27505,46455 27509,46458 27513,46458 27520,46462 27524,46462 27531,46466 27538,46469 27542,46469 27546,46469 27549,46466 27557,46466 27564,46462 27568,46458 27575,46458 27582,46455 27597,46455 27615,46455 27634,46455 27656,46455 27678,46455 27696,46455 27714,46455 27729,46455 27718,46462 27711,46473 27700,46484 27689,46491 27681,46502 27670,46513 27659,46525 27652,46532 27623,46532 27608,46539 27593,46550 27579,46558 27560,46569 27546,46576 27531,46583 27520,46594 27505,46605 27498,46605 27491,46605 27480,46605 27469,46605 27458,46605 27450,46605 27439,46605 27432,46605 27392,46620 27373,46620 27358,46620 27340,46620 27322,46620 27307,46620 27289,46620 27270,46620 27256,46620 27230,46576 27241,46576 27252,46572 27263,46569 27274,46569 27285,46565 27296,46565 27307,46561 27314,46561 27285,46517 27274,46513 27259,46510 27248,46506 27234,46502 27219,46495 27208,46491 27197,46488 27186,46484 27138,46502 27138,46502 27131,46502 27124,46502 27116,46502 27109,46502 27102,46502 27098,46502 27094,46502 27083,46502 27072,46506 27061,46510 27047,46510 27032,46513 27017,46513 27006,46517 26995,46517 26947,46502 26940,46491 26933,46484 26925,46473 26918,46458 26907,46447 26900,46436 26896,46425 26889,46414 26896,46414 26903,46414 26911,46411 26918,46407 26925,46407 26933,46403 26940,46400 26947,46400 26980,46414 26980,46414 26988,46414 26995,46414 27003,46414 27010,46414 27017,46414 27021,46414 27024,46414 27065,46429 27076,46429 27087,46429 27098,46429 27109,46429 27120,46429 27131,46429 27146,46429 27157,46429 27215,46385 27208,46381 27204,46378 27197,46374 27190,46370 27186,46367 27179,46363 27175,46359 27171,46356 27160,46352 27149,46348 27135,46345 27124,46341 27113,46337 27102,46330 27091,46326 27080,46326 27061,46326 27043,46326 27024,46326 27006,46326 26988,46326 26973,46326 26955,46326 26933,46326 26925,46319 26918,46315 26911,46308 26907,46301 26900,46297 26892,46293 26885,46290 26874,46286 26874,46275 26874,46260 26874,46249 26874,46242 26874,46231 26874,46220 26874,46209 26874,46194 26940,46194 27010,46191 27076,46191 27149,46187 27219,46183 27289,46180 27355,46180 27421,46180 27443,46180 27465,46176 27491,46176 27516,46176 27542,46176 27568,46176 27590,46176 27612,46176 27788,46180 27861,46180 27938,46180 28012,46180 28085,46180 28162,46180 28235,46180 28313,46180 28386,46180 28331,46224 28324,46227 28316,46227 28309,46231 28302,46231 28291,46235 28283,46235 28276,46238 28269,46238 28258,46238 28247,46238 28232,46238 28221,46238 28206,46238 28191,46238 28180,46238 28169,46238 28111,46249 28096,46249 28081,46249 28063,46249 28048,46249 28034,46249 28019,46249 28004,46249 27990,46249 27975,46246 27964,46242 27957,46242 27953,46242 27949,46246 27953,46253 27957,46264 27964,46279 28048,46326 28078,46326 28103,46326 28129,46326 28155,46326 28180,46326 28206,46326 28228,46326 28254,46326 28309,46312 28364,46297 28415,46282 28470,46264 28522,46249 28577,46235 28628,46224 28683,46209 28812,46165 28812,46172 28812,46180 28812,46187 28812,46194 28812,46202 28812,46209 28812,46216 28812,46224 28753,46264 28742,46264 28727,46268 28716,46268 28702,46271 28691,46271 28676,46275 28665,46279 28650,46279 28650,46279 28643,46279 28635,46279 28628,46279 28621,46279 28614,46279 28610,46279 28606,46279 28591,46282 28580,46286 28566,46290 28551,46293 28536,46301 28522,46304 28507,46308 28492,46312 28485,46315 28474,46319 28467,46326 28459,46330 28452,46337 28445,46345 28437,46348 28430,46356 28452,46363 28474,46370 28496,46378 28518,46385 28540,46392 28562,46400 28584,46407 28606,46414 28617,46422 28628,46425 28639,46433 28650,46436 28665,46444 28676,46447 28687,46451 28698,46455 28738,46484 28746,46484 28757,46484 28764,46484 28775,46484 28786,46484 28797,46484 28804,46484 28812,46484 28812,46576 28808,46580 28801,46580 28797,46583 28790,46587 28786,46587 28779,46591 28775,46591 28768,46591 28760,46598 28753,46602 28746,46609 28738,46616 28727,46624 28716,46627 28705,46631 28698,46631 28698,46646 28687,46638 28676,46631 28661,46616 28647,46605 28632,46594 28617,46583 28610,46580 28606,46576 28595,46572 28588,46569 "
          id="polygon2334"
          style="fill:#999999" />
      <path
          class="fil4"
          d="m 27333,44279 -19,18 -18,15 -22,7 -22,4 -22,0 -22,-11 -7,-4 -8,-11 -7,-7 -7,-11 -8,11 -3,7 -11,11 -8,4 -22,11 -22,0 -22,-4 -22,-7 -18,-15 -19,-18 -14,18 -19,15 -22,7 -22,4 -22,-4 -22,-7 -7,-8 -11,-7 -4,-7 -7,-11 0,55 11,18 18,11 22,7 22,4 22,-4 22,-7 19,-15 14,-18 19,18 18,15 22,7 22,4 22,-4 22,-7 8,-7 11,-8 3,-7 8,-11 7,11 7,7 8,8 7,7 22,7 22,4 22,-4 22,-7 18,-15 19,-18 0,-51 z m 0,135 -19,19 -18,14 -22,11 -22,0 -22,0 -22,-11 -7,-3 -8,-8 -7,-11 -7,-11 -11,22 -19,11 -22,11 -22,0 -22,0 -22,-11 -18,-14 -19,-19 -14,19 -19,14 -22,8 -22,3 -22,0 -22,-11 -7,-3 -11,-8 -4,-11 -7,-11 0,55 11,19 18,14 22,8 22,0 22,-4 22,-7 19,-15 14,-18 19,18 18,15 22,7 22,4 22,0 22,-11 8,-4 11,-7 3,-11 8,-11 7,11 7,11 8,7 7,4 22,11 22,0 22,-4 22,-7 18,-15 19,-18 0,-52 z m 0,136 -19,22 -18,11 -22,11 -22,4 -22,-4 -22,-7 -7,-7 -8,-8 -7,-11 -7,-11 -11,22 -19,15 -22,7 -22,4 -22,-4 -22,-11 -18,-11 -19,-22 -14,19 -19,14 -22,11 -22,0 -22,0 -22,-7 -7,-7 -11,-8 -4,-11 -7,-11 0,55 11,19 18,14 22,8 22,0 22,-4 22,-7 19,-15 14,-18 19,18 18,15 22,11 22,0 22,0 22,-8 8,-7 11,-7 3,-11 8,-11 7,11 7,11 8,7 7,7 22,8 22,0 22,0 22,-11 18,-15 19,-18 0,-52 z m 0,136 -19,22 -18,15 -22,7 -22,4 -22,-4 -22,-7 -7,-8 -8,-7 -7,-11 -7,-11 -11,22 -19,15 -22,7 -22,4 -22,-4 -22,-7 -18,-15 -19,-22 -14,22 -19,11 -22,11 -22,4 -22,-4 -22,-7 -18,-15 -11,-22 0,55 11,18 18,15 22,7 22,4 22,-4 22,-11 19,-14 14,-19 19,22 18,11 22,11 22,4 22,-4 22,-7 19,-15 11,-22 7,11 7,11 8,8 7,7 22,7 22,4 22,-4 22,-11 18,-11 19,-22 0,-51 z m 0,139 -19,19 -18,14 -22,8 -22,3 -22,-3 -22,-8 -7,-7 -8,-7 -7,-8 -7,-11 -8,11 -3,8 -11,7 -8,7 -22,8 -22,3 -22,-3 -22,-8 -18,-14 -19,-19 -14,19 -19,14 -22,8 -22,3 -22,-3 -22,-8 -7,-7 -11,-7 -4,-8 -7,-11 0,52 11,18 18,15 22,7 22,4 22,-4 22,-11 19,-11 14,-22 19,22 18,15 22,7 22,4 22,-4 22,-7 19,-15 11,-22 7,11 7,11 8,7 7,8 22,7 22,4 22,-4 22,-7 18,-15 19,-22 0,-48 z m 1809,-546 -18,18 -26,15 -29,7 -33,4 -30,0 -26,-11 -11,-4 -11,-11 -11,-7 -7,-11 -7,11 -11,7 -11,11 -11,4 -30,11 -29,0 -29,-4 -30,-7 -25,-15 -22,-18 -19,18 -25,15 -30,7 -33,4 -29,-4 -26,-7 -11,-8 -11,-7 -11,-7 -7,-11 0,55 7,7 11,11 11,7 11,4 26,7 29,4 33,-4 30,-7 25,-15 19,-18 22,18 25,15 30,7 29,4 29,-4 30,-7 11,-7 11,-8 11,-7 7,-11 7,11 11,7 11,8 11,7 26,7 30,4 33,-4 29,-7 26,-15 18,-18 0,-51 z m 0,135 -18,19 -26,14 -29,11 -33,0 -30,0 -26,-11 -11,-3 -11,-8 -11,-11 -7,-11 -7,11 -11,11 -11,8 -11,3 -30,11 -29,0 -29,0 -30,-11 -25,-14 -22,-19 -19,19 -25,14 -30,8 -33,3 -29,0 -26,-11 -11,-3 -11,-8 -11,-11 -7,-11 0,55 7,11 11,8 11,7 11,7 26,8 29,0 33,-4 30,-7 25,-15 19,-18 22,18 25,15 30,7 29,4 29,0 30,-11 11,-4 11,-7 11,-11 7,-11 7,11 11,11 11,7 11,4 26,11 30,0 33,-4 29,-7 26,-15 18,-18 0,-52 z m 0,136 -18,22 -26,11 -29,11 -33,4 -30,-4 -26,-7 -11,-7 -11,-8 -11,-11 -7,-11 -7,11 -11,11 -11,8 -11,7 -30,7 -29,4 -29,-4 -30,-11 -25,-11 -22,-22 -19,19 -25,14 -30,11 -33,0 -29,0 -26,-7 -11,-7 -11,-8 -11,-11 -7,-11 0,55 7,11 11,8 11,7 11,7 26,8 29,0 33,-4 30,-7 25,-15 19,-18 22,18 25,15 30,11 29,0 29,0 30,-8 11,-7 11,-7 11,-11 7,-11 7,11 11,11 11,7 11,7 26,8 30,0 33,0 29,-11 26,-15 18,-18 0,-52 z m 0,136 -18,22 -26,15 -29,7 -33,4 -30,-4 -26,-7 -11,-8 -11,-7 -11,-11 -7,-11 -7,11 -11,11 -11,7 -11,8 -30,7 -29,4 -29,-4 -30,-7 -25,-15 -22,-22 -19,22 -25,11 -30,11 -33,4 -29,-4 -26,-7 -11,-8 -11,-7 -11,-11 -7,-11 0,55 7,11 11,7 11,8 11,7 26,7 29,4 33,-4 30,-11 25,-14 19,-19 22,22 25,11 30,11 29,4 29,-4 30,-7 11,-7 11,-8 11,-11 7,-11 7,11 11,11 11,8 11,7 26,7 30,4 33,-4 29,-11 26,-11 18,-22 0,-51 z m 0,139 -18,19 -26,14 -29,8 -33,3 -30,-3 -26,-8 -11,-7 -11,-7 -11,-8 -7,-11 -7,11 -11,8 -11,7 -11,7 -30,8 -29,3 -29,-3 -30,-8 -25,-14 -22,-19 -19,19 -25,14 -30,8 -33,3 -29,-3 -26,-8 -11,-7 -11,-7 -11,-8 -7,-11 0,52 7,11 11,7 11,7 11,8 26,7 29,4 33,-4 30,-11 25,-11 19,-22 22,22 25,15 30,7 29,4 29,-4 30,-7 11,-8 11,-7 11,-11 7,-11 7,11 11,11 11,7 11,8 26,7 30,4 33,-4 29,-7 26,-15 18,-22 0,-48 z m 1732,-546 -18,18 -19,15 -22,7 -22,4 -22,0 -22,-11 -7,-4 -7,-11 -8,-7 -7,-11 -11,18 -18,15 -22,11 -22,0 -23,-4 -22,-7 -18,-15 -15,-18 -18,18 -18,15 -22,7 -22,4 -22,-4 -22,-7 -8,-8 -7,-7 -7,-7 -8,-11 0,55 15,18 15,11 22,7 22,4 22,-4 22,-7 18,-15 18,-18 15,18 18,15 22,7 23,4 22,-4 22,-7 18,-15 11,-18 7,11 8,7 7,8 7,7 22,7 22,4 22,-4 22,-7 19,-15 18,-18 0,-51 z m 0,135 -18,19 -19,14 -22,11 -22,0 -22,0 -22,-11 -7,-3 -7,-8 -8,-11 -7,-11 -11,22 -18,11 -22,11 -22,0 -23,0 -22,-11 -18,-14 -15,-19 -18,19 -18,14 -22,8 -22,3 -22,0 -22,-11 -15,-11 -15,-22 0,55 15,19 15,14 22,8 22,0 22,-4 22,-7 18,-15 18,-18 15,18 18,15 22,7 23,4 22,0 22,-11 18,-11 11,-22 7,11 8,11 7,7 7,4 22,11 22,0 22,-4 22,-7 19,-15 18,-18 0,-52 z m 0,136 -18,22 -19,11 -22,11 -22,4 -22,-4 -22,-7 -7,-7 -7,-8 -8,-11 -7,-11 -11,22 -18,15 -22,7 -22,4 -23,-4 -22,-11 -18,-11 -15,-22 -18,19 -18,14 -22,11 -22,0 -22,0 -22,-7 -8,-7 -7,-8 -7,-11 -8,-11 0,55 15,19 15,14 22,8 22,0 22,-4 22,-7 18,-15 18,-18 15,18 18,15 22,11 23,0 22,0 22,-8 18,-14 11,-22 7,11 8,11 7,7 7,7 22,8 22,0 22,0 22,-11 19,-15 18,-18 0,-52 z m 0,136 -18,22 -19,15 -22,7 -22,4 -22,-4 -22,-7 -7,-8 -7,-7 -8,-11 -7,-11 -11,22 -18,15 -22,7 -22,4 -23,-4 -22,-7 -18,-15 -15,-22 -18,22 -18,11 -22,11 -22,4 -22,-4 -22,-7 -15,-15 -15,-22 0,55 15,18 15,15 22,7 22,4 22,-4 22,-11 18,-14 18,-19 15,22 18,11 22,11 23,4 22,-4 22,-7 18,-15 11,-22 7,11 8,11 7,8 7,7 22,7 22,4 22,-4 22,-11 19,-11 18,-22 0,-51 z m 0,139 -18,19 -19,14 -22,8 -22,3 -22,-3 -22,-8 -7,-7 -7,-7 -8,-8 -7,-11 -11,19 -18,14 -22,8 -22,3 -23,-3 -22,-8 -18,-14 -15,-19 -18,19 -18,14 -22,8 -22,3 -22,-3 -22,-8 -15,-14 -15,-19 0,52 15,18 15,15 22,7 22,4 22,-4 22,-11 18,-11 18,-22 15,22 18,15 22,7 23,4 22,-4 22,-7 18,-15 11,-22 7,11 8,11 7,7 7,8 22,7 22,4 22,-4 22,-7 19,-15 18,-22 0,-48 z m -1116,92 0,-3 0,-4 -3,-4 0,-7 0,-4 0,-7 0,-4 0,-4 18,-3 22,-4 22,0 22,-4 26,0 22,0 22,0 22,0 26,-3 22,0 14,3 15,4 11,4 15,0 11,0 14,0 4,0 4,-4 0,-4 -4,-3 0,-4 0,-4 4,-3 3,-4 15,0 15,0 14,0 15,0 15,4 14,0 15,0 15,0 11,3 11,0 15,4 10,4 11,3 12,4 7,0 4,0 3,0 4,0 0,0 0,0 4,0 0,0 0,0 0,0 0,-7 0,-8 -8,-7 -3,-7 -8,-8 -7,-3 -8,-8 -3,-7 3,-7 8,-8 7,-7 8,-7 7,-8 4,-11 7,-11 4,-11 0,-3 0,0 0,-4 0,0 -4,-4 0,0 0,0 -4,0 -25,11 -26,4 -26,4 -26,3 -25,0 -26,-3 -26,-4 -25,-4 -4,-3 0,-4 0,0 0,-4 -4,-3 0,-4 0,-4 -3,-3 -15,-4 -15,-4 -18,-3 -15,-4 -18,-4 -15,-3 -18,0 -18,-4 -4,7 -7,4 -8,4 -7,3 -7,0 -11,0 -8,0 -7,0 -18,-3 -15,-4 -15,-4 -18,-3 -15,0 -18,-4 -15,0 -18,-4 0,-3 0,-4 0,-4 0,-3 3,-4 0,-4 4,-3 0,-4 -18,-4 -22,-3 -22,0 -19,0 -22,-4 -22,0 -18,0 -22,0 -11,15 -15,11 -14,7 -15,7 -33,11 -33,8 -37,7 -37,4 -40,11 -33,14 -4,4 -3,4 0,3 -4,4 0,4 0,0 0,3 0,4 7,7 4,8 4,3 0,4 3,4 0,3 0,8 4,3 26,11 25,8 26,3 30,4 29,4 29,0 26,3 29,8 19,18 14,15 15,7 11,7 11,0 15,4 18,4 22,4 7,0 11,3 15,0 15,0 14,0 11,4 8,0 3,-4 z m 0,-323 0,-3 0,-4 -3,-7 0,-4 0,-7 0,-4 0,-4 0,-3 18,-4 22,-4 22,-4 22,0 26,0 22,0 22,0 22,0 26,-3 22,0 14,3 15,4 11,0 15,4 11,0 14,0 4,0 4,-4 0,-4 -4,-3 0,-4 0,-3 4,-4 3,-4 15,0 15,0 14,0 15,0 15,0 14,4 15,0 15,0 11,4 11,0 15,3 10,4 11,3 12,4 7,0 4,0 3,0 4,0 0,0 0,0 4,0 0,0 0,0 0,0 0,-11 0,-7 -8,-4 -3,-7 -8,-8 -7,-3 -8,-8 -3,-7 3,-7 8,-8 7,-7 8,-7 7,-11 4,-8 7,-11 4,-11 0,-3 0,-4 0,0 0,0 -4,-4 0,0 0,0 -4,0 -25,11 -26,4 -26,4 -26,3 -25,0 -26,-3 -26,-4 -25,-4 -4,-3 0,-4 0,-4 0,0 -4,-3 0,-4 0,-4 -3,-3 -15,-4 -15,-4 -18,-3 -15,-4 -18,-4 -15,-3 -18,0 -18,-4 -4,4 -7,7 -8,4 -7,3 -7,0 -11,0 -8,0 -7,0 -18,-3 -15,-4 -15,-4 -18,-3 -15,0 -18,-4 -15,0 -18,-4 0,-3 0,-4 0,-4 0,-3 3,-4 0,-4 4,-3 0,-8 -18,0 -22,-3 -22,0 -19,-4 -22,0 -22,0 -18,0 -22,0 -11,15 -15,11 -14,7 -15,7 -33,11 -33,8 -37,3 -37,8 -40,11 -33,14 -4,4 -3,4 0,0 -4,3 0,4 0,4 0,3 0,4 7,7 4,8 4,3 0,4 3,4 0,3 0,8 4,3 26,11 25,8 26,3 30,4 29,0 29,4 26,4 29,7 19,18 14,15 15,7 11,4 11,4 15,3 18,4 22,4 7,0 11,0 15,3 15,0 14,0 11,0 8,0 3,0 z m -1783,0 0,-3 0,-4 4,-7 0,-4 0,-7 0,-4 0,-4 0,-3 -22,-4 -19,-4 -22,-4 -25,0 -22,0 -23,0 -21,0 -23,0 -25,-3 -22,0 -15,3 -15,4 -14,0 -11,4 -11,0 -15,0 -4,0 -3,-4 0,-4 3,-3 0,-4 0,-3 -3,-4 -4,-4 -15,0 -14,0 -15,0 -15,0 -14,0 -15,4 -15,0 -14,0 -11,4 -15,0 -11,3 -11,4 -11,3 -11,4 -7,0 -8,0 0,0 -3,0 0,0 0,0 -4,0 0,0 0,0 0,0 0,-11 0,-7 7,-4 4,-7 7,-8 8,-3 7,-8 4,-7 -4,-7 -7,-8 -8,-7 -7,-7 -7,-11 -4,-8 -7,-11 -4,-11 0,-3 0,-4 0,0 0,0 0,-4 4,0 0,0 3,0 26,11 26,4 25,4 26,3 26,0 25,-3 26,-4 26,-4 0,-3 3,-4 0,-4 0,0 4,-3 0,-4 0,-4 4,-3 14,-4 15,-4 18,-3 15,-4 18,-4 15,-3 18,0 19,-4 3,4 8,7 7,4 8,3 7,0 7,0 11,0 8,0 18,-3 15,-4 14,-4 19,-3 14,0 19,-4 14,0 19,-4 0,-3 0,-4 0,-4 0,-3 -4,-4 0,-4 -4,-3 0,-8 19,0 22,-3 22,0 18,-4 22,0 22,0 18,0 22,0 11,15 15,11 15,7 14,7 33,11 34,8 36,3 37,8 37,11 36,14 4,4 4,4 0,0 3,3 0,4 0,4 0,3 0,4 -7,7 -4,8 -3,3 0,4 -4,4 0,3 0,8 -4,3 -25,11 -26,8 -29,3 -26,4 -29,0 -30,4 -25,4 -30,7 -18,18 -15,15 -15,7 -11,4 -11,4 -14,3 -19,4 -22,4 -7,0 -11,0 -15,3 -14,0 -15,0 -11,0 -7,0 -4,0 z m 0,323 0,-3 0,-4 4,-4 0,-7 0,-4 0,-7 0,-4 0,-4 -22,-3 -19,-4 -22,0 -25,-4 -22,0 -23,0 -21,0 -23,0 -25,-3 -22,0 -15,3 -15,4 -14,4 -11,0 -11,0 -15,0 -4,0 -3,-4 0,-4 3,-3 0,-4 0,-4 -3,-3 -4,-4 -15,0 -14,0 -15,0 -15,0 -14,4 -15,0 -15,0 -14,0 -11,3 -15,0 -11,4 -11,4 -11,3 -11,4 -7,0 -8,0 0,0 -3,0 0,0 0,0 -4,0 0,0 0,0 0,0 0,-7 0,-8 7,-7 4,-7 7,-8 8,-3 7,-8 4,-7 -4,-7 -7,-8 -8,-7 -7,-7 -7,-8 -4,-11 -7,-11 -4,-11 0,-3 0,0 0,-4 0,0 0,-4 4,0 0,0 3,0 26,11 26,4 25,4 26,3 26,0 25,-3 26,-4 26,-4 0,-3 3,-4 0,0 0,-4 4,-3 0,-4 0,-4 4,-3 14,-4 15,-4 18,-3 15,-4 18,-4 15,-3 18,0 19,-4 3,7 8,4 7,4 8,3 7,0 7,0 11,0 8,0 18,-3 15,-4 14,-4 19,-3 14,0 19,-4 14,0 19,-4 0,-3 0,-4 0,-4 0,-3 -4,-4 0,-4 -4,-3 0,-4 19,-4 22,-3 22,0 18,0 22,-4 22,0 18,0 22,0 11,15 15,11 15,7 14,7 33,11 34,8 36,7 37,4 37,11 36,14 4,4 4,4 0,3 3,4 0,4 0,0 0,3 0,4 -7,7 -4,8 -3,3 0,4 -4,4 0,3 0,8 -4,3 -25,11 -26,8 -29,3 -26,4 -29,4 -30,0 -25,3 -30,8 -18,18 -15,15 -15,7 -11,7 -11,0 -14,4 -19,4 -22,4 -7,0 -11,3 -15,0 -14,0 -15,0 -11,4 -7,0 -4,-4 z"
          id="path2336"
          inkscape:connector-curvature="0"
          style="fill:#999999" />
      <path
          class="fil12"
          d="m 28001,44583 25,-3 26,-4 18,-4 19,0 11,-3 11,-4 3,0 4,0 0,0 4,-4 3,-3 4,0 4,-4 3,-8 4,-3 4,-4 -22,7 -19,0 -18,4 -18,4 -19,0 -18,0 -15,4 -11,0 4,3 0,0 0,4 0,4 0,3 -4,4 0,4 -3,3 z m -316,-40 0,0 0,-4 0,-3 0,-4 0,0 -4,-4 0,0 0,0 4,0 4,0 7,0 11,0 11,4 7,0 8,4 3,0 -51,7 z m 477,-173 -15,0 -18,0 -22,0 -22,0 -22,-3 -22,0 -15,0 -14,0 0,0 0,-4 -4,0 0,-4 0,-3 0,0 0,-4 0,0 11,-4 18,0 15,0 18,0 19,0 18,-3 18,0 11,0 4,3 4,4 0,4 3,3 4,4 4,4 3,3 4,0 z m -352,26 -11,4 -19,3 -18,0 -22,4 -18,4 -19,3 -18,4 -11,4 0,0 0,-4 0,0 4,-4 0,0 0,-3 0,0 0,-4 14,-4 11,-3 15,0 18,-4 15,-4 15,0 14,-3 15,-4 0,4 4,0 0,3 0,0 3,4 0,0 4,0 4,0 z m 411,106 -15,0 -11,-3 -11,-4 -11,-4 -7,-3 -4,-8 -7,-3 -4,-4 -4,0 0,-4 -3,-3 0,0 0,-4 0,-4 0,-3 3,-4 11,-4 11,-7 11,-7 11,-8 11,-7 12,-7 11,-4 10,-4 23,4 18,4 22,3 18,4 22,4 19,3 22,8 18,7 -4,4 -3,3 -8,0 -7,0 -7,0 -8,4 -7,4 -7,7 0,7 3,4 8,0 3,0 4,-4 7,0 4,4 0,7 -22,4 -18,7 -22,0 -19,4 -18,4 -18,0 -19,3 -18,0 z m 29,-58 -7,-11 0,-4 0,-4 4,0 0,-3 3,0 4,-4 7,0 8,0 0,0 3,4 0,0 4,0 0,3 0,0 4,4 0,4 -4,3 0,0 -4,4 -3,4 -4,0 -7,3 -4,0 -4,-3 z m 1479,88 51,-4 52,-3 51,-4 52,-4 51,-4 51,-3 52,0 47,-4 15,4 11,0 15,0 11,3 14,4 11,0 12,4 14,4 -4,-4 -3,-4 -4,-4 -3,-3 -4,-4 -4,-4 -4,-3 -3,-8 3,-7 4,-7 4,-4 4,-4 3,-3 7,-4 4,-7 4,-4 -22,0 -22,0 -26,0 -22,0 -26,-4 -22,0 -25,-3 -22,-4 -59,-11 -62,-11 -59,-11 -59,-7 -62,-8 -63,-3 -58,0 -63,7 8,7 7,8 7,11 8,7 7,7 4,11 3,11 0,11 -3,8 -4,7 -4,4 -7,7 -4,4 -7,3 -7,4 -8,0 158,26 z m 4,51 -30,-3 -22,-4 -18,-4 -18,0 -11,-3 -11,-4 -4,0 -4,0 0,0 -3,-4 -4,-3 -4,0 -3,-4 -4,-8 -4,-3 -3,-4 22,7 18,0 18,4 19,4 18,0 18,0 15,4 11,0 -4,3 0,0 0,4 0,4 0,3 4,4 0,4 4,3 z m 315,-40 -3,0 0,-4 3,-3 0,-4 0,0 0,-4 4,0 0,0 -4,0 -3,0 -11,0 -8,0 -11,4 -7,0 -7,4 -4,0 51,7 z m -477,-173 15,0 18,0 22,0 22,0 22,-3 19,0 18,0 11,0 4,0 0,-4 3,0 0,-4 0,-3 0,0 0,-4 0,0 -11,-4 -18,0 -18,0 -15,0 -18,0 -19,-3 -18,0 -11,0 -4,3 -3,4 0,4 -4,3 -4,4 -3,4 -4,3 -4,0 z m 353,26 14,4 15,3 22,0 18,4 19,4 18,3 18,4 11,4 0,0 0,-4 0,0 0,-4 -3,0 0,-3 0,0 0,-4 -11,-4 -15,-3 -15,0 -14,-4 -19,-4 -14,0 -15,-3 -11,-4 -4,4 -3,0 0,3 0,0 -4,4 0,0 -4,0 -3,0 z m -411,106 14,0 11,-3 11,-4 11,-4 8,-3 3,-8 8,-3 3,-4 4,0 0,-4 4,-3 0,0 0,-4 0,-4 0,-3 -4,-4 -7,-7 -8,-11 -11,-8 -11,-7 -11,-7 -14,-8 -11,0 -15,0 -22,4 -19,4 -21,3 -19,4 -22,4 -18,3 -22,8 -19,7 4,4 4,3 7,0 7,0 8,0 7,4 7,4 8,7 0,7 -4,4 -7,0 -4,0 -4,-4 -7,4 -4,0 0,7 22,4 19,7 22,4 18,0 18,4 19,0 18,3 19,0 z m -30,-58 8,-11 0,-4 0,-4 -4,0 0,-3 -4,0 -3,-4 -8,0 -7,0 0,0 -4,4 0,0 -4,0 0,3 0,0 -3,4 0,4 3,3 0,0 4,4 4,4 4,0 7,3 4,0 3,-3 z m -1479,411 -51,-4 -51,0 -52,-4 -51,-7 -52,-4 -51,-3 -51,0 -48,0 -15,0 -11,0 -14,0 -11,3 -15,4 -11,4 -11,0 -15,3 4,-3 4,-4 0,-4 7,-3 4,-4 3,-4 4,-3 4,-8 -4,-7 -4,-7 -3,-4 -4,-4 -4,-3 -7,-4 -4,-4 -3,-7 22,0 22,0 25,0 22,0 26,-4 22,0 26,-3 22,-4 58,-11 63,-11 59,-7 58,-11 63,-8 58,-3 63,3 62,8 -7,7 -8,7 -7,8 -7,7 -8,7 -3,11 -4,11 0,11 4,8 3,7 4,4 7,7 4,4 7,3 8,4 7,4 -158,22 z m -3,51 25,-4 26,-3 18,-4 19,0 11,-4 11,0 3,-3 4,0 0,0 4,-4 3,0 4,-4 4,-3 3,-4 4,-4 4,-3 -22,3 -19,4 -18,0 -18,4 -19,0 -18,3 -15,0 -11,0 4,4 0,0 0,4 0,3 0,4 -4,4 0,3 -3,4 z m -316,-40 0,0 0,-4 0,-4 0,-3 0,0 -4,-4 0,0 0,0 4,0 4,0 7,0 11,0 11,4 7,0 8,3 3,0 -51,8 z m 477,-169 -15,-4 -18,0 -22,0 -22,0 -22,0 -22,-3 -15,0 -14,0 0,0 0,0 -4,-4 0,-4 0,0 0,-3 0,-4 0,0 11,0 18,-4 15,0 18,0 19,0 18,0 18,-3 11,0 4,3 4,4 0,4 3,3 4,4 4,4 3,3 4,4 z m -352,26 -11,0 -19,3 -18,4 -22,0 -18,4 -19,3 -18,4 -11,4 0,0 0,0 0,-4 4,0 0,-4 0,-3 0,0 0,0 14,-4 11,-4 15,-3 18,-4 15,0 15,-4 14,-3 15,-4 0,4 4,3 0,0 0,4 3,0 0,0 4,0 4,4 z m 411,102 -15,0 -11,-3 -11,-4 -11,-4 -7,-3 -4,-4 -7,-7 -4,-4 -4,0 0,-4 -3,0 0,-3 0,-4 0,-4 0,-3 3,-4 8,-7 7,-11 11,-8 11,-7 11,-7 15,-4 11,-4 14,0 23,4 18,4 22,3 18,4 22,4 19,3 22,8 18,7 -4,7 -3,0 -8,4 -7,-4 -7,0 -11,4 -4,4 -7,11 0,3 3,4 4,0 7,0 4,0 7,0 4,0 0,7 -22,8 -18,3 -22,4 -19,0 -18,4 -18,0 -19,3 -18,0 z m 29,-58 -7,-11 0,-4 0,-4 4,0 0,-3 3,0 4,-4 7,0 4,0 4,0 3,4 0,0 4,0 0,3 0,4 4,0 0,4 -4,3 0,0 -4,4 -3,4 -4,0 -7,3 -4,0 -4,-3 z m 1479,88 51,-4 52,0 51,-4 52,-7 51,-4 51,-3 52,0 47,0 15,0 11,0 15,0 11,3 14,4 11,4 12,0 14,3 -4,-3 -3,-4 -4,-4 -3,-3 -4,-4 -4,-4 -4,-3 -3,-8 3,-7 4,-7 4,-4 4,-4 3,-3 7,-4 4,-4 4,-7 -22,0 -22,0 -26,0 -22,0 -26,-4 -22,0 -25,-3 -22,-4 -59,-11 -62,-11 -59,-7 -59,-11 -62,-8 -63,-3 -58,3 -63,8 8,7 7,7 7,8 8,7 7,7 4,11 3,11 0,11 -3,8 -4,7 -4,4 -7,7 -4,4 -7,3 -7,4 -8,4 158,22 z m 4,51 -30,-4 -22,-3 -18,-4 -18,0 -11,-4 -11,0 -4,-3 -4,0 0,0 -3,-4 -4,0 -4,-4 -3,-3 -4,-4 -4,-4 -3,-3 22,3 18,4 18,0 19,4 18,0 18,3 15,0 11,0 -4,4 0,0 0,4 0,3 0,4 4,4 0,3 4,4 z m 315,-40 -3,0 0,-4 3,-4 0,-3 0,0 0,-4 4,0 0,0 -4,0 -3,0 -11,0 -8,0 -11,4 -7,0 -7,3 -4,0 51,8 z m -477,-169 15,-4 18,0 22,0 22,0 22,0 19,-3 18,0 11,0 4,0 0,0 3,-4 0,-4 0,0 0,-3 0,-4 0,0 -11,0 -18,-4 -18,0 -15,0 -18,0 -19,0 -18,-3 -11,0 -4,3 -3,4 0,4 -4,3 -4,4 -3,4 -4,3 -4,4 z m 353,26 14,0 15,3 22,4 18,0 19,4 18,3 18,4 11,4 0,0 0,0 0,-4 0,0 -3,-4 0,-3 0,0 0,0 -11,-4 -15,-4 -15,-3 -14,-4 -19,0 -14,-4 -15,-3 -11,-4 -4,4 -3,3 0,0 0,4 -4,0 0,0 -4,0 -3,4 z m -411,102 14,0 11,-3 11,-4 11,-4 8,-3 3,-4 8,-7 3,-4 4,0 0,-4 4,0 0,-3 0,-4 0,-4 0,-3 -4,-4 -7,-7 -8,-11 -11,-8 -11,-7 -11,-7 -14,-4 -11,-4 -15,0 -22,4 -19,4 -21,3 -19,4 -22,4 -18,3 -22,8 -19,7 4,7 4,0 7,4 7,-4 8,0 7,4 7,4 8,11 0,3 -4,4 -7,0 -4,0 -4,0 -7,0 -4,0 0,7 22,8 19,3 22,4 18,0 18,4 19,0 18,3 19,0 z m -30,-58 8,-11 0,-4 0,-4 -4,0 0,-3 -4,0 -3,-4 -8,0 -7,0 0,0 -4,4 0,0 -4,0 0,3 0,4 -3,0 0,4 3,3 0,0 4,4 4,4 4,0 7,3 4,0 3,-3 z m -1479,-235 -51,-4 -51,0 -52,-4 -51,-7 -52,-4 -51,-3 -51,0 -48,0 -15,0 -11,0 -14,0 -11,3 -15,4 -11,4 -11,0 -15,3 4,-3 4,-4 0,-4 7,-3 4,-4 3,-4 4,-3 4,-8 -4,-7 -4,-7 -3,-4 -4,-4 -4,-3 -7,-4 -4,-4 -3,-7 22,0 22,0 25,0 22,0 26,-4 22,0 26,-3 22,-4 58,-11 63,-11 59,-7 58,-11 63,-8 58,-3 63,3 62,8 -7,7 -8,7 -7,8 -7,7 -8,7 -3,11 -4,11 0,11 4,8 3,7 4,4 7,7 4,4 7,3 8,4 7,4 -158,22 z"
          id="path2338"
          inkscape:connector-curvature="0"
          style="fill:#ffffff" />
   </g>
</svg>
