<?xml version="1.0" encoding="UTF-8" standalone="no"?>
<svg
    xmlns:dc="http://purl.org/dc/elements/1.1/"
    xmlns:cc="http://creativecommons.org/ns#"
    xmlns:rdf="http://www.w3.org/1999/02/22-rdf-syntax-ns#"
    xmlns:svg="http://www.w3.org/2000/svg"
    xmlns="http://www.w3.org/2000/svg"
    xmlns:sodipodi="http://sodipodi.sourceforge.net/DTD/sodipodi-0.dtd"
    xmlns:inkscape="http://www.inkscape.org/namespaces/inkscape"
    id="city_bel"
    data-name="bel"
    width="52.5mm"
    height="52.5mm"
    viewBox="0 0 148.82 148.82"
    version="1.1"
    inkscape:version="0.91 r13725"
    sodipodi:docname="_ekaterinburg.svg">
   <metadata
       id="metadata12">
      <rdf:RDF>
         <cc:Work
             rdf:about="">
            <dc:format>image/svg+xml</dc:format>
            <dc:type
                rdf:resource="http://purl.org/dc/dcmitype/StillImage" />
            <dc:title></dc:title>
         </cc:Work>
      </rdf:RDF>
   </metadata>
   <defs
       id="defs10" />
   <sodipodi:namedview
       pagecolor="#ffffff"
       bordercolor="#666666"
       borderopacity="1"
       objecttolerance="10"
       gridtolerance="10"
       guidetolerance="10"
       inkscape:pageopacity="0"
       inkscape:pageshadow="2"
       inkscape:window-width="640"
       inkscape:window-height="480"
       id="namedview8"
       showgrid="false"
       inkscape:zoom="1.268656085"
       inkscape:cx="93.01181102"
       inkscape:cy="93.01181102"
       inkscape:current-layer="city_bel" />
   <g
       transform="matrix(0.0283466687,0,0,0.0283466716,-1339.569079,-148.7035019)"
       style="clip-rule:evenodd;fill-rule:evenodd;image-rendering:optimizeQuality;shape-rendering:geometricPrecision;text-rendering:geometricPrecision"
       id="ekaterinburg">
      <polygon
          id="path5371"
          class="fil2"
          points="49902,8437 50097,8626 50097,8989 50204,8870 50480,8870 50480,9145 50368,9257 50473,9257 50660,9442 50473,9639 50096,9639 50096,9685 49902,9875 49713,9685 49713,9639 49338,9639 49144,9443 49334,9252 49437,9252 49327,9142 49327,8871 49594,8871 49716,8989 49716,8626 "
          sodipodi:nodetypes="ccccccccccccccccccccccccc"
          style="fill:#000000" />
      <path
          id="path5401"
          class="fil4"
          d="m 47934,7715 0,549 41,-1 c 179,18 365,139 533,139 181,0 423,-141 549,-141 126,0 377,141 543,141 166,0 433,-141 579,-141 146,0 363,141 539,141 176,0 392,-141 548,-141 157,0 378,141 549,141 l 0,-546 c -171,0 -392,-141 -549,-141 -156,0 -372,141 -548,141 -176,0 -393,-141 -539,-141 -146,0 -413,141 -579,141 -166,0 -417,-141 -543,-141 -126,0 -368,141 -549,141 -181,0 -382,-141 -574,-141 l 0,0 z"
          sodipodi:nodetypes="cccssssssccssssssc"
          inkscape:connector-curvature="0"
          style="fill:#999999" />
      <path
          id="path5401-0"
          class="fil3"
          d="m 51815,8155 c 1,0 0,167 0,167 -171,0 -387,-141 -543,-141 -157,0 -373,141 -549,141 -176,0 -393,-141 -539,-141 -146,0 -412,141 -579,141 -166,0 -417,-141 -543,-141 -126,0 -368,141 -549,141 -181,0 -387,-141 -579,-141 0,0 0,-167 0,-167 192,0 393,141 574,141 181,0 423,-141 549,-141 126,0 377,141 543,141 167,0 433,-141 579,-141 146,0 363,141 539,141 176,0 392,-141 548,-141 157,0 378,141 549,141 z"
          sodipodi:nodetypes="ccssssssccssssssc"
          inkscape:connector-curvature="0"
          style="fill:#ffcc00" />
      <path
          id="path5401-9"
          class="fil3"
          d="m 51815,7934 c 0,0 0,166 0,166 -171,0 -392,-141 -549,-141 -156,0 -372,141 -548,141 -176,0 -393,-141 -539,-141 -146,0 -412,141 -579,141 -166,0 -417,-141 -543,-141 -126,0 -368,141 -549,141 -181,0 -382,-141 -574,-141 0,1 0,-167 0,-166 192,0 393,141 574,141 181,0 423,-141 549,-141 126,0 377,141 543,141 167,0 433,-141 579,-141 146,0 363,141 539,141 176,0 392,-141 548,-141 157,0 378,141 549,141 z"
          sodipodi:nodetypes="ccssssssccssssssc"
          inkscape:connector-curvature="0"
          style="fill:#ffcc00" />
      <polygon
          id="_77263880"
          class="fil2"
          points="50911,6060 50882,6060 50882,6394 51339,6939 51339,7510 51353,7510 51353,7570 50836,7570 50836,7591 50251,7591 50251,7570 50081,7570 50081,7510 50088,7510 50088,7336 50087,6943 50374,6397 50374,6060 50313,6060 50313,5875 50911,5875 "
          style="fill:#000000" />
      <path
          id="_75867280"
          class="fil2"
          d="m 50889,5897 -191,0 0,140 191,0 0,-140 z m -29,505 -157,0 286,544 328,0 -457,-544 z m 457,945 -329,0 0,174 329,0 0,-174 z"
          inkscape:connector-curvature="0"
          style="fill:#000000" />
      <path
          id="_75867280_4"
          class="fil4"
          d="m 50691,6391 0,-342 -295,0 0,342 295,0 z m -403,945 -178,0 0,-378 189,0 c -7,22 -11,46 -11,71 0,6 0,0 0,5 l 0,302 0,0 z m 689,-378 0,378 -178,0 0,-301 c 0,-2 0,-4 0,-6 0,-25 -4,-49 -11,-71 l 189,0 z"
          inkscape:connector-curvature="0"
          style="fill:#999999" />
      <path
          id="_74542824"
          class="fil0"
          d="m 50702,6049 158,0 0,342 -158,0 0,-342 z m 286,1287 329,0 0,-378 -329,0 0,378 z m -615,162 0,-467 c 0,-23 5,-46 14,-68 28,-61 80,-98 148,-103 l 18,0 c 20,1 39,6 56,13 -35,45 -54,99 -54,156 0,2 0,4 0,6 l 0,463 -182,0 0,0 z m 193,0 0,-463 1,0 c -1,-2 -1,-4 -1,-6 0,-57 20,-110 53,-151 51,25 86,73 94,134 l 0,486 -147,0 z"
          inkscape:connector-curvature="0"
          style="fill:none" />
      <path
          id="_78999544"
          class="fil4"
          d="m 50110,7347 178,0 0,151 -26,0 0,49 -159,0 0,-15 7,0 0,-185 0,0 z m 163,162 26,0 0,-474 0,0 c 0,-2 0,-4 0,-6 0,-134 110,-244 244,-244 135,0 244,110 244,244 0,2 0,4 0,6 l 0,0 0,474 27,0 0,60 -541,0 0,-60 0,0 z m 89,0 363,0 0,-479 -1,-19 c -12,-91 -80,-156 -171,-163 l -19,0 c -72,6 -128,46 -157,111 -10,23 -15,47 -15,72 l 0,478 0,0 z m 437,-162 178,0 0,185 353,0 0,15 -505,0 0,-49 -26,0 0,-151 0,0 z m -403,-945 295,0 286,544 -192,0 c -35,-100 -130,-172 -242,-172 -111,0 -206,72 -241,172 l -192,0 286,-544 0,0 z m -61,-505 352,0 0,140 -352,0 0,-140 z"
          inkscape:connector-curvature="0"
          style="fill:#999999" />
      <path
          id="_30334960"
          class="fil3"
          d="m 50679,7490 -94,-4 c -49,-1 -98,-20 -129,-52 -45,-46 -59,-110 -49,-173 5,18 14,26 26,44 17,25 53,64 51,99 10,-23 7,-60 -5,-82 -7,-17 -24,-34 -35,-49 -12,-16 -20,-37 -9,-74 10,16 32,51 50,49 13,-38 -29,-68 -25,-113 27,33 54,39 62,72 6,-15 8,-39 -10,-68 -24,-38 -33,-77 -31,-122 12,20 48,49 48,65 10,-29 -38,-113 -10,-158 3,30 17,74 32,96 12,18 26,37 24,64 13,-22 -5,-70 11,-103 3,39 15,59 32,96 11,24 12,55 5,93 40,-24 21,-108 50,-148 -3,59 28,169 -17,236 -24,35 -41,66 -39,101 13,-42 29,-68 47,-88 17,-19 36,-34 44,-63 10,46 -1,104 -26,143 -13,20 -22,64 -3,139 l 0,0 z"
          inkscape:connector-curvature="0"
          style="fill:#ffcc00" />
      <g
          id="g1648">
         <path
             id="_56049648"
             class="fil2"
             d="m 49726,7493 16,0 0,79 -1232,0 0,-37 c -38,-11 -66,-46 -66,-86 0,-26 12,-50 30,-66 -18,-17 -30,-41 -30,-66 0,-26 12,-50 30,-67 -18,-16 -30,-40 -30,-66 0,-26 12,-50 30,-66 -18,-17 -30,-41 -30,-66 0,-48 39,-88 87,-89 l 2,0 51,0 0,-201 -96,0 0,-94 -138,0 0,-140 -76,0 0,-105 181,0 0,140 33,0 0,-82 96,0 0,-123 300,0 0,123 12,0 c 3,-24 24,-43 48,-43 13,0 26,5 35,14 8,-9 21,-14 34,-14 13,0 26,6 35,16 9,-10 22,-15 35,-15 13,0 26,5 35,14 9,-8 21,-13 33,-13 25,0 45,18 49,41 l 96,0 0,-123 300,0 0,123 38,0 3,0 5,1 c 23,4 39,20 50,40 l 0,1 5,10 2,4 c 5,14 9,29 11,44 l 78,0 0,141 75,0 0,105 -180,0 0,-92 c -13,16 -30,27 -52,27 l -35,0 0,201 130,0 0,530 0,0 z m -830,-731 -12,0 0,201 219,0 0,-161 c -6,3 -13,4 -20,4 -14,0 -26,-6 -35,-15 -9,9 -22,14 -35,14 -13,0 -26,-5 -34,-13 -9,8 -22,13 -35,13 -24,0 -45,-18 -48,-43 l 0,0 z m 304,201 96,0 0,-201 -96,0 0,201 z"
             inkscape:connector-curvature="0"
             style="fill:#000000" />
         <path
             id="_71643120"
             class="fil3"
             d="m 48433,6586 77,0 0,-83 85,0 0,237 -85,0 0,-94 -138,0 0,-28 0,-32 0,-81 -75,0 0,-60 136,0 0,37 0,23 0,81 z m 875,-83 -119,0 0,237 119,0 0,-237 z m -401,0 -111,0 c -79,0 -79,237 0,237 l 111,0 0,-237 z m 686,237 -106,0 c -79,0 -79,-237 0,-237 l 106,0 c -3,2 -4,4 -6,6 l -1,0 0,1 -3,3 0,0 0,1 c -3,3 -5,6 -8,10 l 0,0 c -9,16 -16,38 -19,60 l -1,2 0,0 0,4 0,2 -1,3 0,9 0,0 c -1,6 -1,12 -1,18 l 0,4 0,2 0,3 0,4 1,5 0,0 0,1 0,7 0,1 1,3 0,1 1,8 0,1 0,1 1,3 2,9 0,0 c 1,5 2,11 4,16 l 0,0 1,4 1,1 1,3 2,7 c 2,5 4,9 7,13 l 0,0 0,0 1,1 c 2,4 4,7 7,10 l 0,1 0,0 3,2 0,1 1,1 2,2 0,0 1,1 3,2 0,0 0,0 z m 112,-76 -95,0 0,-61 156,0 0,29 0,32 0,80 75,0 0,60 -136,0 0,-36 0,-24 0,-80 z"
             inkscape:connector-curvature="0"
             style="fill:#ffcc00" />
         <path
             id="_77038800"
             class="fil0"
             d="m 48693,6380 168,0 0,112 -65,0 c -94,0 -94,259 0,259 l 65,0 0,223 -168,0 0,-594 z m 712,0 169,0 0,112 -87,0 c -94,0 -94,259 0,259 l 87,0 0,223 -169,0 0,-594 z m 95,738 204,0 0,-133 -204,0 c 22,14 38,38 38,67 0,28 -15,52 -38,66 l 0,0 z m 10,390 194,0 0,-119 -194,0 c 17,15 28,36 28,60 0,24 -11,45 -28,59 l 0,0 z m -3,-130 197,0 0,-119 -192,0 c 16,14 26,35 26,58 0,25 -13,47 -31,61 z m -4,-130 201,0 0,-119 -189,0 c 14,14 23,34 23,55 0,27 -14,50 -35,64 l 0,0 z m 128,-745 c 33,0 52,41 58,89 l -90,0 0,83 86,0 c -9,37 -26,65 -54,65 l -8,0 c -79,0 -79,-237 0,-237 l 8,0 0,0 z"
             inkscape:connector-curvature="0"
             style="fill:none" />
         <path
             id="_77450488"
             class="fil4"
             d="m 48573,7118 22,0 0,-20 c -6,8 -14,15 -22,20 l 0,0 0,0 z m 120,0 614,0 0,-133 -614,0 0,133 z m 712,0 15,0 0,0 c -5,-4 -10,-8 -15,-12 l 0,12 0,0 z m 0,-121 c 5,-4 10,-8 15,-12 l -15,0 0,12 z m -810,-12 -22,0 c 8,6 16,12 22,20 l 0,-20 z m -12,523 12,0 0,-13 c -4,5 -8,10 -12,13 z m 110,0 614,0 0,-119 -614,0 0,119 z m 712,0 6,0 -6,-5 0,5 z m 0,-114 c 2,-1 4,-3 6,-5 l -6,0 0,5 z m -810,-5 -13,0 c 5,4 9,9 13,14 l 0,-14 z m -16,-11 16,0 0,-15 c -5,5 -10,11 -16,15 z m 114,0 614,0 0,-119 -614,0 0,119 z m 712,0 9,0 c -3,-2 -6,-5 -9,-7 l 0,7 z m 0,-116 3,-3 -3,0 0,3 z m -810,-3 -10,0 c 3,3 7,7 10,11 l 0,-11 z m -19,-11 19,0 0,-18 c -6,7 -12,13 -19,18 z m 117,0 614,0 0,-119 -614,0 0,119 z m 712,0 12,0 c -4,-3 -8,-6 -12,-10 l 0,10 z m 0,-118 1,-1 -1,0 0,1 z m -810,-1 -8,0 c 3,3 5,5 8,9 l 0,-9 z m -62,386 c -37,0 -66,-29 -66,-66 0,-37 29,-66 66,-66 37,0 66,-30 66,-66 0,-37 -29,-67 -66,-67 -37,0 -66,-29 -66,-66 0,-36 29,-66 66,-66 37,0 66,-30 66,-66 0,-37 -29,-67 -66,-67 -37,0 -66,30 -66,67 0,36 29,66 66,66 37,0 66,30 66,66 0,37 -29,66 -66,66 -37,0 -66,30 -66,67 0,36 29,66 66,66 37,0 66,29 66,66 0,37 -29,66 -66,66 z m 927,-265 c -36,0 -66,-29 -66,-66 0,-36 30,-66 66,-66 37,0 67,-30 67,-66 0,-37 -30,-67 -67,-67 -36,0 -66,30 -66,67 0,36 30,66 66,66 37,0 67,30 67,66 0,37 -30,66 -67,66 -36,0 -66,30 -66,67 0,36 30,66 66,66 37,0 67,29 67,66 0,37 -30,66 -67,66 -36,0 -66,-29 -66,-66 0,-37 30,-66 66,-66 37,0 67,-30 67,-66 0,-37 -30,-67 -67,-67 z m -309,-788 0,0 c 15,0 27,12 27,26 l 0,488 -53,0 0,-488 c 0,-14 12,-26 26,-26 z m -207,-2 0,0 c 15,0 27,12 27,27 l 0,270 c 0,14 -12,26 -27,26 l 0,0 c -14,0 -26,-12 -26,-26 l 0,-270 c 0,-15 12,-27 26,-27 z m 69,0 0,0 c -15,0 -27,12 -27,27 l 0,270 c 0,14 12,26 27,26 l 0,0 c 14,0 26,-12 26,-26 l 0,-270 c 0,-15 -12,-27 -26,-27 z m 70,1 0,0 c 15,0 27,12 27,27 l 0,270 c 0,14 -12,26 -27,26 l 0,0 c -14,0 -26,-12 -26,-26 l 0,-270 c 0,-15 12,-27 26,-27 z m 637,1089 -1188,0 0,-35 74,0 0,-1135 75,0 0,1135 637,0 0,-1135 76,0 0,1135 326,0 0,35 z"
             inkscape:connector-curvature="0"
             style="fill:#999999" />
      </g>
      <path
          id="path3227"
          class="fil12"
          d="m 49910,8479 152,144 -150,0 -2,-144 z m 2,168 151,0 0,342 -151,413 c 0,-255 0,-500 0,-755 z m -546,242 204,-2 -104,106 -100,-104 z m 118,121 111,-110 118,113 154,373 -383,-376 z m -296,442 147,3 -2,148 -145,-151 z m 174,3 517,0 -177,162 -340,0 0,-162 z m 550,11 157,198 -157,152 0,-350 z m 18,-11 527,0 0,162 -350,0 -177,-162 z m 551,0 135,0 -135,144 0,-144 z m 0,-154 144,133 -144,0 0,-133 z m -139,-280 112,108 -119,119 -374,163 381,-390 z m 15,-14 97,-101 -2,192 -95,-91 z"
          inkscape:connector-curvature="0"
          style="fill:#ffffff" />
   </g>
</svg>
