<?xml version="1.0" encoding="UTF-8" standalone="no"?>
<svg
    xmlns:dc="http://purl.org/dc/elements/1.1/"
    xmlns:cc="http://creativecommons.org/ns#"
    xmlns:rdf="http://www.w3.org/1999/02/22-rdf-syntax-ns#"
    xmlns:svg="http://www.w3.org/2000/svg"
    xmlns="http://www.w3.org/2000/svg"
    xmlns:sodipodi="http://sodipodi.sourceforge.net/DTD/sodipodi-0.dtd"
    xmlns:inkscape="http://www.inkscape.org/namespaces/inkscape"
    id="city_nnov"
    data-name="nnov"
    width="52.5mm"
    height="52.5mm"
    viewBox="0 0 148.82 148.82"
    version="1.1"
    inkscape:version="0.91 r13725"
    sodipodi:docname="_engels.svg">
   <metadata
       id="metadata22">
      <rdf:RDF>
         <cc:Work
             rdf:about="">
            <dc:format>image/svg+xml</dc:format>
            <dc:type
                rdf:resource="http://purl.org/dc/dcmitype/StillImage" />
            <dc:title></dc:title>
         </cc:Work>
      </rdf:RDF>
   </metadata>
   <defs
       id="defs20" />
   <sodipodi:namedview
       pagecolor="#ffffff"
       bordercolor="#666666"
       borderopacity="1"
       objecttolerance="10"
       gridtolerance="10"
       guidetolerance="10"
       inkscape:pageopacity="0"
       inkscape:pageshadow="2"
       inkscape:window-width="640"
       inkscape:window-height="480"
       id="namedview18"
       showgrid="false"
       inkscape:zoom="1.268656085"
       inkscape:cx="93.01181102"
       inkscape:cy="93.01181102"
       inkscape:current-layer="city_nnov" />
   <g
       transform="matrix(0.0283466687,0,0,0.0283466716,-1041.856616,-1189.067165)"
       style="clip-rule:evenodd;fill-rule:evenodd;image-rendering:optimizeQuality;shape-rendering:geometricPrecision;text-rendering:geometricPrecision"
       id="engels">
      <path
          class="fil2"
          d="m 40810,45668 c 0,0 0,0 0,0 0,6 1,11 2,17 0,5 1,11 2,17 6,29 15,55 21,69 8,18 3,31 -3,43 -1,4 0,9 -4,12 -15,11 -32,17 -24,-4 3,-6 4,-12 6,-18 4,-7 7,-14 3,-23 -7,-15 -17,-44 -22,-75 -1,-6 -2,-12 -3,-18 -1,-6 -2,-13 -2,-19 0,0 0,0 0,0 3,-19 8,-33 24,-1 z m -646,-1963 c 65,36 101,75 96,114 -4,42 -53,78 -134,108 -115,77 -243,139 -376,156 6,33 -1,53 -32,58 24,17 49,30 70,54 l 3,1 c 142,-16 319,-55 425,-47 106,8 124,62 186,93 55,18 98,55 128,111 150,62 324,93 462,100 137,8 307,-69 266,-245 -21,-88 -117,-148 -200,-171 -60,-17 -122,-19 -166,-14 -99,11 -119,38 -176,62 -135,56 -246,57 -316,26 113,-17 226,-53 267,-106 -96,27 -190,91 -289,82 -98,-8 -187,-67 -260,-131 79,-7 153,4 237,-21 84,-25 203,-112 299,-110 96,1 153,58 196,109 197,-33 531,21 524,316 -9,445 -544,287 -674,276 -103,-10 -106,36 -136,58 2,137 -42,251 -18,387 34,72 69,145 103,217 9,26 5,70 26,80 21,10 79,45 98,103 18,58 3,70 5,105 60,116 116,221 128,305 12,84 -27,146 -53,154 -27,7 -58,-22 -78,-23 -19,-2 -31,6 -33,23 -2,17 23,40 23,59 0,20 10,17 -30,43 -41,26 -133,43 -202,22 2,-13 3,-26 5,-39 -18,-2 -36,-3 -54,-5 25,-53 51,-104 103,-103 7,-36 90,-34 111,-59 -14,-19 -41,-26 -41,-57 -1,-31 53,-56 38,-111 -14,-55 -61,-138 -118,-191 -57,-52 -162,-81 -212,-116 -49,-34 -1,-17 -85,-90 -83,-72 -190,-141 -146,-64 21,80 77,133 120,172 44,38 22,105 -15,121 -37,16 -68,22 -87,50 -20,27 -28,47 -49,69 -22,23 -55,41 -78,65 -22,23 -38,42 -56,74 -19,32 -36,91 -52,116 -16,26 -20,30 -44,34 -24,4 -60,-7 -90,-11 -9,11 -19,21 -28,31 0,26 0,52 0,78 -84,0 -169,0 -253,0 22,-36 43,-71 65,-106 11,1 22,2 33,3 13,-20 15,-39 39,-60 23,-20 77,-31 98,-59 21,-28 -3,-66 18,-93 21,-26 61,-21 95,-51 34,-31 101,-79 103,-129 2,-50 -38,-83 -93,-101 -54,-17 -168,8 -208,6 -41,-3 -5,-26 -29,-18 -23,7 -47,61 -100,56 -53,-5 -136,-76 -186,-84 22,-15 38,-32 61,-47 72,-26 151,-74 226,-123 74,-34 176,-73 253,-91 -9,-36 -202,41 -264,70 -46,21 -92,46 -138,73 29,-31 57,-62 86,-94 -73,22 -121,95 -173,149 -20,20 -40,41 -60,61 -44,-3 -51,35 -81,45 -32,10 -52,10 -100,15 -49,6 -93,33 -124,60 28,67 47,134 59,201 20,15 53,44 52,95 -2,51 -26,48 -44,59 -18,12 -17,-3 -62,5 -46,8 -52,69 -44,122 -64,32 -140,55 -242,56 3,-15 5,-31 8,-46 -14,-4 -28,-9 -41,-13 -4,-36 25,-72 69,-108 21,-1 41,-2 62,-3 10,-14 28,-30 31,-44 3,-13 -14,-8 -18,-20 -5,-12 -12,-33 -8,-49 4,-16 24,-29 28,-41 5,-13 13,-12 0,-31 -12,-19 -48,-52 -72,-78 -17,-2 -34,0 -51,8 -145,45 -227,-7 -266,-126 -34,-10 -69,-7 -103,0 -34,8 -43,-25 -100,-21 -58,4 -80,72 -26,78 54,6 91,-16 113,23 23,39 6,44 8,67 4,8 9,17 13,26 18,0 36,1 54,2 0,-5 0,-10 0,-15 24,-7 48,-14 72,-21 72,67 139,135 83,255 -39,-23 -78,-41 -116,-49 -24,-15 -33,-36 -72,-46 -39,-10 -118,36 -155,-11 -37,-46 -55,-144 -98,-175 -43,-30 -35,-13 -95,-59 -61,-46 -108,-132 -54,-178 9,-80 92,-77 134,-108 41,-31 48,-85 69,-108 21,-24 36,-19 54,-29 9,46 39,68 68,71 26,3 57,-30 78,-83 -48,70 -156,78 -99,-19 19,-33 44,-95 36,-149 -17,98 -57,208 -137,160 -79,-48 -73,-82 -116,-83 2,25 8,50 -5,70 -19,24 -38,48 -57,72 -4,25 -18,40 -43,44 -18,13 -24,29 -60,33 -4,0 -8,0 -13,0 0,-32 0,-64 0,-97 -19,0 -38,0 -57,0 -12,18 -18,50 -16,95 -1,0 -3,0 -4,0 -10,-23 -16,-48 -5,-89 -17,-10 -30,-6 -42,0 0,26 0,52 -1,79 -2,-1 -4,-2 -6,-3 -33,-16 -19,-43 -28,-65 -15,-10 -32,-2 -44,-30 -12,-29 -18,-103 13,-114 30,-11 36,-2 54,-2 -12,-6 -24,-11 -36,-16 0,-60 -4,-124 -33,-164 -29,-41 -50,-51 -57,-70 -8,-20 10,-38 10,-52 -1,-14 -11,-16 -13,-28 -2,-12 1,-29 1,-43 -39,13 -69,40 -118,38 -48,-2 -107,-32 -160,-47 37,-62 87,-109 165,-123 -44,-55 -127,-81 -132,-165 -6,-85 76,-204 104,-279 27,-76 40,-117 61,-175 31,51 30,116 25,183 -6,67 -78,127 -57,209 21,82 102,95 147,108 29,-59 75,-97 147,-106 -17,21 -25,46 -17,78 31,-127 144,-124 248,-116 2,-45 30,-103 -15,-158 -44,-54 -114,-81 -190,-146 -76,-66 -69,-121 -57,-171 34,24 39,33 101,70 61,37 208,104 268,155 59,50 49,92 74,139 121,-104 241,-160 361,-168 99,18 200,30 292,61 -80,-55 -185,-101 -250,-166 -98,-43 -154,-91 -149,-139 5,-46 64,-86 161,-116 19,-23 39,-45 54,-56 23,-17 33,-1 49,-10 16,-9 29,-32 44,-41 14,-10 21,3 41,-17 20,-20 45,-83 75,-100 30,-17 58,8 77,6 20,-3 16,-19 23,-23 7,-4 20,4 27,-5 7,-10 37,-73 70,-95 33,-21 73,-1 104,-14 32,-14 53,-53 81,-63 27,-10 49,4 69,3 21,0 33,-15 59,-7 26,9 68,51 93,59 25,9 26,-14 41,-12 15,3 28,20 41,25 14,4 12,-18 39,0 27,17 90,80 117,99 26,20 26,7 41,17 15,11 35,33 49,46 14,14 25,23 34,34 9,11 4,21 19,32 15,11 50,16 68,32 19,16 22,39 46,58 24,20 68,34 93,53 25,20 35,39 44,61 2,6 3,12 4,17 z m 449,1638 c 36,23 62,80 22,93 -21,6 -1,-62 -22,-93 z m -513,-13 c 2,3 0,-1 0,2 4,15 7,29 20,38 0,0 0,0 0,0 0,0 0,0 0,0 1,0 1,0 1,0 2,2 5,4 8,6 3,2 6,5 8,7 0,0 0,0 0,0 14,12 26,26 29,43 4,17 -3,29 -11,41 -3,5 -4,11 -8,14 -12,9 -26,12 -22,-9 1,-7 6,-12 9,-17 5,-8 11,-16 9,-24 -3,-11 -11,-21 -22,-30 0,0 0,0 0,0 -2,-2 -5,-4 -7,-6 -2,-1 -4,-3 -7,-5 0,0 0,0 0,0 0,0 0,0 0,0 0,0 0,0 0,0 -22,-14 -26,-33 -30,-53 0,-1 -1,4 -1,-2 2,-20 13,-21 24,-5 z m 199,-112 c 9,8 7,22 13,33 6,10 20,17 25,32 7,21 -5,34 -17,17 -11,-15 -23,-25 -29,-38 -7,-12 -12,-25 -15,-37 -2,-13 12,-17 23,-7 z m 190,-227 c 41,41 78,85 114,126 10,11 -7,26 -17,16 -42,-38 -78,-82 -115,-125 -11,-14 5,-29 18,-17 z m 69,-588 c 15,35 15,78 15,118 0,22 -25,25 -24,3 3,-30 3,-76 -14,-118 -10,-24 13,-27 23,-3 z m -203,47 c 3,4 1,10 3,14 6,15 13,30 -12,69 0,0 0,0 0,0 -4,6 -9,14 -13,22 -4,9 -8,18 -12,28 -19,50 -30,115 -25,167 1,17 -20,20 -24,3 -12,-55 6,-125 27,-179 4,-10 8,-20 13,-29 4,-9 9,-18 14,-25 0,0 0,0 0,0 18,-29 14,-38 10,-46 -3,-8 -6,-15 -5,-27 2,-15 15,-12 24,3 z m -559,600 c 85,0 172,30 263,114 7,6 13,13 20,19 -9,0 -18,1 -27,2 -90,9 -165,32 -228,67 -63,35 -114,82 -155,139 -22,8 -28,3 -20,-14 44,-60 97,-109 163,-146 60,-33 131,-44 213,-55 -79,-66 -156,-102 -229,-102 -80,0 -177,27 -254,64 -19,-40 220,-88 254,-88 z m 119,-639 c 17,44 8,95 9,142 1,48 11,98 -9,138 -11,22 -27,12 -24,-4 9,-42 10,-87 9,-133 -1,-46 -4,-94 -9,-141 -1,-15 16,-24 24,-2 z m -26,356 c -65,103 -143,181 -176,201 -33,19 48,-75 157,-216 12,-16 31,-5 19,15 z m -1380,-566 c 20,-24 41,-48 85,-63 0,0 0,0 0,0 0,0 0,0 0,0 42,-14 101,-17 160,-21 29,-1 92,-4 119,-7 3,29 -103,31 -117,31 -58,3 -115,6 -154,20 0,0 0,0 0,0 0,0 0,0 0,0 -38,12 -56,34 -74,56 -10,11 -44,41 -57,52 -13,-15 29,-57 38,-68 z m 711,773 c -46,72 -110,131 -166,197 5,58 -2,130 -9,202 -21,37 -7,100 -34,109 -14,-36 -7,-73 10,-111 7,-74 15,-148 8,-206 -11,-95 -76,-74 -139,-93 34,-7 115,-85 159,67 51,-60 103,-120 153,-181 27,-32 38,-14 18,16 z m -446,376 c 32,1 59,11 59,43 -26,-19 -80,-19 -106,-4 2,-32 12,-39 47,-39 z m -84,79 c -2,18 6,60 12,77 7,17 30,42 55,60 -38,19 -63,-15 -77,-52 -13,-34 -10,-57 10,-85 z m -494,-72 c 6,16 10,29 12,42 6,31 10,34 -20,36 -1,-10 -2,-20 -4,-32 -6,-31 -21,-34 12,-46 z m 163,-84 c 7,13 17,26 31,40 0,0 0,0 0,0 0,0 0,0 0,0 0,0 0,0 0,0 23,21 39,51 56,81 9,15 20,36 28,49 -31,20 -32,-7 -49,-37 -16,-28 -32,-57 -51,-75 0,0 0,0 0,0 0,0 0,0 0,0 0,-1 0,-1 0,-1 -17,-16 -28,-30 -36,-45 -8,-15 -19,-41 -23,-59 37,-7 28,18 44,47 z m 51,-419 c 2,29 7,59 17,89 0,0 0,0 0,0 0,0 0,0 0,0 0,0 -1,0 -1,0 5,14 19,31 28,47 14,27 25,55 26,81 0,0 0,0 0,0 1,16 13,27 17,43 4,16 10,32 17,48 12,132 136,176 165,245 -75,-46 -168,-136 -197,-231 -8,-17 -14,-34 -18,-51 -4,-18 -7,-35 -8,-53 0,0 0,0 0,0 -1,-20 -15,-46 -28,-70 -10,-18 -19,-35 -24,-51 0,0 0,0 0,0 0,0 0,0 0,0 -11,-33 -16,-64 -18,-95 -2,-30 5,-88 6,-117 23,41 14,69 18,115 z m 792,-368 c 22,102 44,232 31,330 -2,21 -26,23 -24,2 11,-99 -5,-223 -31,-330 -4,-21 20,-23 24,-2 z m -1442,624 c 4,-12 -3,-22 -21,-29 12,-59 68,45 21,29 z m 132,-57 c -6,16 10,55 32,55 12,0 20,-17 31,-29 11,-12 25,-18 31,-28 12,-20 7,-42 -6,-50 -12,-8 -25,22 -26,31 0,8 17,-3 25,7 -16,17 -34,42 -47,42 -14,-9 -34,-43 -40,-28 z m -21,-83 c 12,-4 22,-17 35,-19 9,-2 16,-1 23,0 7,0 13,1 21,-1 0,0 0,0 0,0 3,-1 9,-5 14,-9 0,0 0,0 0,0 13,-11 28,-22 50,-15 20,6 37,25 54,44 7,9 11,29 19,35 -18,-2 -29,-16 -41,-30 -15,-16 -26,-22 -39,-26 -10,-4 -20,4 -28,11 0,0 0,0 0,0 -8,5 -15,11 -24,13 0,0 0,0 0,0 -11,3 -19,2 -28,2 -5,-1 -11,-1 -17,0 -10,2 -22,6 -34,10 -29,19 -34,-12 -5,-15 z m 354,-471 c -18,2 -25,-5 -23,-19 17,-19 21,-49 49,-58 28,-9 72,13 99,13 26,0 31,-18 58,-13 28,5 66,28 99,41 -17,2 -36,7 -51,6 -16,-1 -18,-14 -38,-13 -20,1 -53,19 -78,21 -25,1 -47,-18 -68,-14 -21,5 -31,24 -47,36 z m -12,-169 c 64,18 152,8 192,0 40,-9 31,-8 49,-3 17,5 27,13 51,32 23,19 69,62 90,82 20,21 43,19 39,41 -3,22 -32,41 -56,54 -24,14 -33,5 -80,17 -48,13 -98,65 -123,70 -25,5 -61,-29 -106,-41 40,256 -62,314 -146,399 102,-116 149,-259 115,-442 43,11 89,35 131,34 42,-2 74,-33 109,-44 35,-12 76,-9 100,-24 23,-16 20,-26 0,-52 -20,-25 -70,-71 -108,-88 -38,-16 -72,-7 -104,-1 -31,5 -50,-1 -78,0 -28,2 -58,4 -89,-10 -4,-10 -2,-19 14,-24 z m -352,616 c -22,-177 -2,-345 166,-485 11,7 12,16 4,27 -113,97 -166,253 -170,458 z m -406,-346 c 15,-17 40,-37 79,-36 40,0 57,5 85,8 -10,8 -12,19 -31,23 -19,3 -54,-4 -76,-3 -23,1 -38,6 -57,8 z"
          id="path1665"
          inkscape:connector-curvature="0"
          style="fill:#000000" />
      <path
          class="fil3"
          d="m 38453,45674 c 14,45 23,90 26,135 37,4 74,27 111,53 20,-70 -1,-140 -81,-210 -19,8 -37,15 -56,22 z m 1167,-2085 41,6 41,5 39,7 38,6 37,7 36,7 34,8 34,8 32,9 31,8 29,9 28,9 26,10 24,10 23,9 21,10 20,10 17,11 16,10 13,10 11,10 9,9 7,9 5,9 3,8 1,7 0,7 0,2 0,2 -1,3 -1,2 -1,2 -1,3 -1,2 -2,3 -2,3 -2,2 -2,3 -3,3 -3,3 -3,3 -3,3 -4,3 -4,3 -4,2 -4,3 -5,3 -4,3 -5,3 c -4,6 -21,11 -16,-32 3,-20 -9,-40 -33,-60 -95,-78 -383,-146 -730,-164 -325,-16 -609,16 -735,76 -42,20 -67,43 -70,69 -7,68 -47,20 -67,-18 l -1,-3 -2,-3 -1,-3 0,-3 -1,-2 0,-3 0,-3 0,-2 2,-7 3,-8 4,-7 7,-9 9,-8 12,-9 13,-9 15,-8 18,-9 19,-8 22,-8 23,-7 24,-7 27,-7 28,-7 29,-6 31,-5 32,-6 33,-4 35,-5 36,-4 37,-3 38,-3 39,-2 40,-2 41,-1 42,-1 42,0 44,0 43,1 45,2 45,2 45,3 44,3 44,4 42,4 42,5 z m 450,345 -11,7 -11,6 -10,6 -11,6 -11,6 -11,6 -11,6 -11,5 -11,6 -11,5 -11,5 -11,5 -12,5 -11,4 -11,4 -11,4 -12,4 -11,4 -12,4 -11,3 -12,3 -11,3 -12,3 -12,3 c -25,5 -45,10 -70,20 -133,-71 -264,-96 -383,-91 -81,-3 -163,3 -229,31 -26,11 -52,26 -60,38 -15,23 -78,13 -101,-3 l -9,-7 -9,-8 -9,-7 -10,-7 -10,-7 -10,-7 -10,-7 -10,-6 -11,-7 -10,-6 -11,-6 -11,-7 -10,-6 -11,-6 -10,-6 -11,-7 -11,-6 -10,-6 -10,-6 -10,-7 -10,-6 -10,-6 -10,-7 -9,-6 c -12,-9 -23,-18 -34,-27 l -8,-7 -11,-11 c -43,-44 -12,-101 26,-117 119,-51 391,-90 711,-73 359,19 650,92 710,180 9,12 15,32 14,44 -4,35 -28,44 -54,60 z m -433,183 c -14,-4 -44,-12 -75,-19 -59,-13 -115,-23 -168,-23 -26,-1 -129,8 -195,20 -47,9 -59,-44 -25,-73 21,-19 54,-15 83,-18 29,-4 59,-5 91,-4 67,2 133,13 208,30 31,7 64,20 100,27 5,1 32,27 27,40 -7,20 -36,23 -46,20 z m 108,67 2,2 3,3 3,2 2,3 3,2 2,3 3,2 2,3 3,3 2,3 2,3 c 12,23 14,43 4,52 -67,55 -241,3 -289,-8 l -23,-9 -24,-10 -25,-11 -26,-11 -26,-12 -26,-13 -28,-14 -27,-14 -28,-15 -29,-16 -21,-11 c 58,-16 121,-23 190,-22 112,5 237,14 351,85 z m -1822,564 c 1,-32 7,-62 18,-90 11,-30 32,-52 57,-74 26,16 44,45 44,78 0,50 -41,91 -91,91 -10,0 -19,-2 -28,-5 z m 18,-51 c 2,-12 5,-23 9,-34 3,-8 7,-15 11,-22 3,1 6,2 8,3 26,11 41,32 34,47 -7,15 -32,19 -57,8 -2,-1 -4,-1 -5,-2 z m 263,-610 c 0,0 0,-1 0,-1 0,-2 -1,-3 -1,-4 -1,-2 -1,-3 -2,-4 -10,-29 -26,-50 -49,-69 -2,-2 -4,-3 -6,-5 -2,-1 -4,-3 -6,-4 -3,-2 -5,-4 -7,-5 -2,-2 -5,-3 -7,-5 -3,-2 -5,-3 -8,-5 -32,-20 -66,-39 -100,-56 -3,-2 -6,-4 -9,-6 -19,-9 -38,-19 -56,-29 -3,-1 -6,-3 -9,-4 -3,-2 -6,-3 -8,-5 -3,-1 -6,-3 -8,-4 -3,-2 -6,-3 -8,-5 -18,-10 -36,-20 -54,-31 -1,-1 -2,-2 -4,-3 -1,-1 -3,-2 -4,-3 -1,-1 -2,-1 -4,-2 -1,-1 -2,-2 -3,-3 -2,-1 -3,-1 -4,-2 -1,-1 -2,-2 -3,-2 -1,-1 -2,-2 -3,-3 -1,0 -2,-1 -3,-2 -1,0 -2,-1 -3,-2 -1,0 -2,-1 -3,-2 -1,0 -2,-1 -3,-2 0,0 -1,-1 -2,-2 -1,0 -2,-1 -3,-1 0,-1 -1,-2 -2,-2 0,0 -1,-1 -1,-1 0,1 0,1 0,2 0,2 0,3 0,4 0,2 0,3 0,5 0,1 0,2 0,4 0,1 0,2 0,4 0,1 0,3 1,4 0,1 0,3 0,4 0,2 1,3 1,4 0,2 1,3 1,5 0,1 1,2 1,4 1,1 1,3 2,4 0,2 1,3 1,5 1,1 2,3 3,4 0,2 1,3 2,5 1,1 2,3 2,4 1,2 2,4 3,5 1,2 3,3 4,5 1,2 2,3 3,5 2,2 3,3 4,5 44,51 105,82 159,119 2,2 4,3 6,5 2,1 4,3 6,4 2,2 4,3 6,4 2,2 4,3 6,5 1,2 3,3 5,5 2,1 4,3 5,4 2,2 4,4 6,5 1,2 3,4 5,5 1,2 3,4 5,6 1,1 3,3 4,5 2,2 3,4 5,6 1,2 3,4 4,6 24,36 30,74 27,117 0,2 0,3 0,5 0,2 0,3 0,5 -11,84 -56,79 -72,116 -7,18 -6,42 4,58 13,20 35,39 59,41 23,3 49,-9 62,-27 63,-91 100,-195 53,-302 z m -411,1061 c 12,-6 25,-10 42,0 -13,46 -3,73 10,98 -3,-51 2,-85 15,-104 19,0 38,0 57,0 l 0,104 c 0,87 -126,95 -125,5 l 1,-103 z m -107,-735 c -3,0 -6,-1 -9,-2 -1,0 -3,-1 -4,-1 -2,-1 -3,-1 -5,-1 -1,-1 -3,-1 -5,-2 -1,0 -3,-1 -5,-1 -1,-1 -3,-1 -5,-2 -2,0 -4,-1 -5,-1 -2,-1 -4,-1 -6,-2 -2,0 -4,-1 -6,-2 -2,0 -4,-1 -6,-2 -1,0 -3,-1 -5,-2 -2,0 -4,-1 -6,-2 -2,-1 -4,-2 -6,-2 -2,-1 -5,-2 -7,-3 -2,-1 -4,-2 -6,-3 -2,-1 -4,-2 -6,-3 -2,-1 -4,-2 -6,-3 -2,-2 -4,-3 -6,-4 -2,-1 -4,-3 -6,-4 -2,-1 -4,-3 -6,-4 -1,-2 -3,-3 -5,-5 -2,-2 -4,-3 -6,-5 -2,-2 -3,-3 -5,-5 -2,-2 -4,-4 -5,-6 -2,-2 -4,-4 -5,-6 -2,-2 -4,-4 -5,-6 -2,-3 -3,-5 -5,-7 -1,-3 -2,-5 -4,-7 -29,-62 -15,-115 14,-173 1,-2 2,-4 3,-6 1,-2 2,-4 3,-6 1,-2 2,-4 3,-6 1,-2 2,-4 3,-6 1,-2 2,-4 3,-6 1,-2 2,-4 3,-6 1,-1 1,-3 2,-5 10,0 42,-189 -4,-107 0,1 -1,3 -1,5 -1,2 -2,4 -2,6 -1,1 -2,3 -2,5 -1,2 -2,4 -2,6 -1,2 -2,4 -2,6 -1,2 -2,4 -3,6 0,2 -1,4 -2,6 -1,2 -1,4 -2,6 -1,2 -2,4 -2,7 -1,2 -2,4 -3,6 -1,3 -1,5 -2,7 -1,2 -2,5 -3,7 -1,3 -2,5 -3,8 -1,2 -2,5 -3,8 -26,59 -59,115 -82,176 -1,3 -2,5 -3,8 0,3 -1,6 -2,9 -1,3 -2,5 -3,8 0,3 -1,6 -2,8 0,3 -1,6 -1,8 -1,3 -1,5 -2,8 0,2 0,5 -1,7 0,3 0,5 0,8 0,2 0,4 -1,6 1,3 1,5 1,7 0,2 0,4 0,6 1,2 1,4 1,6 1,2 1,4 1,6 1,2 1,4 2,5 1,2 1,4 2,5 1,2 1,4 2,5 1,2 2,4 2,5 1,2 2,3 3,5 1,1 2,3 3,4 1,2 2,3 3,5 1,1 2,3 4,4 1,2 2,3 3,4 2,2 3,3 4,5 46,46 99,86 158,111 9,-23 30,-35 57,-34 4,-23 5,-46 9,-70 z m 2897,1513 c -21,11 -53,45 -69,81 10,0 20,0 30,0 5,-9 17,-24 22,-32 7,-4 11,-3 12,4 -5,21 -9,43 -14,64 60,11 117,7 167,-17 -1,-19 4,-40 -2,-58 -4,-13 -13,-32 -27,-31 -42,6 -77,14 -119,-11 z m -995,10 c -24,12 -37,42 -51,70 68,0 136,-7 204,-1 4,-23 0,-40 -11,-67 -51,-8 -107,-22 -142,-2 z m -803,-50 c -27,24 -48,53 -62,86 12,3 23,6 34,9 8,-13 15,-26 23,-39 5,2 9,3 14,4 -5,23 -9,46 -14,69 59,4 117,-6 167,-41 -3,-16 -8,-39 -11,-55 -63,2 -107,-11 -151,-33 z"
          id="path1667"
          inkscape:connector-curvature="0"
          style="fill:#ffcc00" />
      <path
          class="fil12"
          d="m 38074,44518 c -2,92 -9,157 -32,204 -26,54 -68,78 -114,101 -4,-26 -6,-51 -5,-75 9,3 18,5 28,5 50,0 91,-41 91,-91 0,-33 -18,-62 -44,-78 24,-20 50,-39 76,-66 z m 958,-1119 2,-2 2,-2 1,-2 1,-2 1,-2 1,0 0,0 2,0 2,-1 2,0 2,0 2,0 2,-1 3,-1 2,-1 3,-1 2,-1 3,-2 2,-2 2,-2 2,-3 2,-2 1,-2 1,-2 2,-2 1,-2 1,-3 2,-2 1,-3 2,-3 2,-3 2,-3 1,-3 2,-4 3,-3 2,-3 2,-4 2,-3 2,-4 3,-3 2,-4 3,-3 2,-3 2,-4 3,-3 2,-3 3,-2 2,-3 3,-2 2,-3 2,-1 2,-2 2,-2 2,-1 2,-1 2,0 2,-1 2,-1 2,0 2,-1 2,0 3,-1 2,0 3,0 2,0 3,0 3,0 3,0 4,0 3,0 3,0 4,1 3,0 4,0 3,0 4,0 4,0 4,0 4,-1 4,0 5,-1 4,-1 4,-1 5,-1 4,-2 4,-2 4,-2 4,-2 3,-2 4,-2 3,-3 3,-2 3,-3 3,-2 3,-3 3,-3 2,-2 3,-3 3,-2 2,-3 2,-2 3,-3 2,-2 2,-2 3,-2 2,-2 2,-2 2,-2 2,-2 1,-1 2,-2 2,-1 2,-1 1,-1 1,-1 2,0 1,-1 1,0 2,-1 1,0 2,0 1,-1 2,0 1,0 1,0 2,0 1,0 2,0 1,1 2,0 2,0 1,0 2,1 2,0 2,1 2,0 2,0 2,1 2,0 2,1 3,0 2,1 2,0 3,1 3,0 2,0 3,1 3,0 3,0 3,-1 3,0 3,0 2,-1 3,0 2,-1 2,-1 2,0 2,-1 2,0 2,-1 2,-1 1,0 2,-1 1,0 2,-1 1,0 1,0 1,0 1,-1 1,0 1,0 1,0 0,0 1,0 1,0 1,0 1,0 1,0 2,1 1,0 1,0 2,1 1,0 2,1 2,1 2,2 3,1 2,2 3,1 3,2 2,2 3,2 3,2 3,2 3,3 3,2 3,2 3,3 4,2 3,2 3,3 3,2 3,2 4,3 3,2 3,2 3,2 4,2 3,2 3,2 4,1 3,2 4,1 3,1 4,1 4,1 3,0 4,1 3,-1 4,0 3,-1 3,0 3,-2 3,-1 3,-1 2,-2 2,-1 2,-1 2,-2 1,-1 0,0 0,0 1,1 1,0 1,1 1,1 1,1 1,1 1,1 2,1 1,1 1,1 2,1 1,1 2,1 2,1 1,1 2,2 2,1 2,1 2,1 2,1 3,1 3,1 3,1 3,0 4,0 4,0 3,0 3,-1 3,-1 3,-2 2,-1 1,-1 2,1 1,1 2,1 3,2 2,2 3,2 3,3 3,2 4,3 4,3 3,3 4,4 4,3 4,4 4,3 4,4 4,4 5,3 4,4 4,4 4,4 4,4 4,3 4,4 4,3 4,4 4,3 4,3 3,4 4,3 3,2 3,3 4,2 3,3 2,2 3,2 3,1 2,2 3,1 2,2 3,1 2,1 2,1 3,1 2,0 2,1 2,0 2,1 2,0 2,0 1,0 1,0 1,0 0,0 1,1 0,0 1,1 1,1 2,0 1,1 1,1 1,2 2,1 1,1 2,1 1,2 1,1 2,1 1,2 2,1 1,2 2,1 2,2 1,1 2,2 1,2 2,1 1,2 2,1 1,2 2,1 1,2 2,2 1,1 2,1 1,2 2,1 1,2 1,1 2,1 1,2 1,1 1,1 2,1 1,1 1,1 1,1 1,2 2,1 1,1 1,1 1,1 1,1 1,1 1,1 1,1 1,1 1,0 1,1 0,1 1,1 1,1 1,1 1,1 1,1 0,0 1,1 1,1 0,1 1,1 0,0 0,0 1,0 0,0 0,1 0,0 0,0 0,1 0,0 1,1 0,0 0,1 0,1 1,1 0,1 1,1 0,2 1,1 0,2 1,2 1,1 1,2 1,2 1,2 2,2 1,2 2,1 1,2 2,2 2,1 2,2 2,2 3,1 2,2 3,1 2,1 3,2 2,1 2,1 3,1 2,1 3,1 2,0 3,1 2,1 2,1 3,1 2,1 2,0 3,1 2,1 2,1 2,1 2,1 2,0 2,1 2,1 1,1 2,1 1,1 1,0 1,1 1,1 1,1 1,1 1,1 1,1 1,1 1,1 1,1 1,1 1,2 1,1 1,2 1,1 1,2 1,2 1,1 1,2 1,2 2,2 1,2 1,3 2,2 1,2 2,2 2,3 1,2 2,3 2,2 2,2 3,3 2,2 3,3 2,2 3,2 3,2 3,3 3,2 3,2 3,2 3,2 3,1 4,2 3,2 3,2 3,1 3,2 4,2 3,1 3,2 3,2 4,1 3,2 3,1 3,2 3,1 3,2 3,1 3,2 2,1 3,2 2,1 3,2 2,1 2,2 2,1 2,2 2,1 2,2 2,1 1,2 2,1 2,2 1,1 1,1 2,2 1,1 1,2 2,1 1,2 1,1 1,2 1,1 1,2 1,1 1,2 1,1 0,2 1,1 1,2 1,2 1,1 1,2 0,2 1,1 1,2 c -150,-71 -420,-128 -731,-145 -280,-15 -532,4 -699,47 l 1,0 2,-3 3,-2 2,-3 2,-2 2,-2 3,-2 2,-2 2,-2 1,-2 2,-1 2,-2 1,-1 2,-1 1,0 1,-1 0,0 1,-1 1,0 0,0 0,0 1,0 0,0 0,0 1,0 0,0 1,0 1,0 1,0 1,0 1,0 1,0 2,1 2,0 1,0 3,0 2,0 2,0 3,0 3,-1 3,0 3,-1 3,-1 3,-1 2,-2 3,-1 2,-2 2,-1 2,-2 2,-1 2,-2 2,-2 2,-1 2,-2 1,-2 2,-1 1,-2 2,-2 1,-1 2,-2 1,-1 2,-2 1,-1 1,-2 2,-1 1,-2 1,-1 1,-1 1,-1 1,-1 1,-1 1,-1 1,-1 1,-1 1,-1 1,0 0,0 0,-1 0,0 1,0 0,0 1,0 1,0 1,0 2,0 1,0 2,0 2,-1 2,0 3,0 2,-1 2,-1 3,-1 2,-1 3,-1 2,-2 3,-1 2,-2 3,-2 2,-2 3,-2 2,-2 3,-3 2,-3 3,-3 2,-4 2,-3 3,-3 2,-4 2,-3 2,-4 3,-3 2,-4 2,-4 2,-3 3,-4 2,-4 2,-4 3,-3 2,-4 2,-3 2,-4 3,-3 2,-3 2,-3 2,-3 2,-3 3,-2 2,-2 2,-2 1,-2 2,-1 2,-1 1,-1 2,-1 1,0 1,-1 2,0 1,-1 1,0 1,0 2,0 1,0 1,0 2,0 2,1 1,0 2,0 2,1 2,0 2,1 2,1 2,0 3,1 2,1 2,1 3,1 2,0 3,1 3,1 3,1 3,0 3,1 4,0 3,0 4,0 3,-1 3,0 3,-1 3,-1 3,-1 3,-2 2,-1 3,-2 2,-2 2,-2 z"
          id="path1669"
          inkscape:connector-curvature="0"
          style="fill:#ffffff" />
   </g>
</svg>
