<?xml version="1.0" encoding="UTF-8" standalone="no"?>
<svg
    xmlns:dc="http://purl.org/dc/elements/1.1/"
    xmlns:cc="http://creativecommons.org/ns#"
    xmlns:rdf="http://www.w3.org/1999/02/22-rdf-syntax-ns#"
    xmlns:svg="http://www.w3.org/2000/svg"
    xmlns="http://www.w3.org/2000/svg"
    xmlns:sodipodi="http://sodipodi.sourceforge.net/DTD/sodipodi-0.dtd"
    xmlns:inkscape="http://www.inkscape.org/namespaces/inkscape"
    id="city_nnov"
    data-name="nnov"
    width="52.5mm"
    height="52.5mm"
    viewBox="0 0 148.82 148.82"
    version="1.1"
    inkscape:version="0.91 r13725"
    sodipodi:docname="_hman.svg">
   <metadata
       id="metadata22">
      <rdf:RDF>
         <cc:Work
             rdf:about="">
            <dc:format>image/svg+xml</dc:format>
            <dc:type
                rdf:resource="http://purl.org/dc/dcmitype/StillImage" />
            <dc:title></dc:title>
         </cc:Work>
      </rdf:RDF>
   </metadata>
   <defs
       id="defs20" />
   <sodipodi:namedview
       pagecolor="#ffffff"
       bordercolor="#666666"
       borderopacity="1"
       objecttolerance="10"
       gridtolerance="10"
       guidetolerance="10"
       inkscape:pageopacity="0"
       inkscape:pageshadow="2"
       inkscape:window-width="640"
       inkscape:window-height="480"
       id="namedview18"
       showgrid="false"
       inkscape:zoom="1.268656085"
       inkscape:cx="93.01181102"
       inkscape:cy="93.01181102"
       inkscape:current-layer="city_nnov" />
   <g
       transform="matrix(0.0283466687,0,0,0.0283466716,-595.7871378,-1190.443683)"
       style="clip-rule:evenodd;fill-rule:evenodd;image-rendering:optimizeQuality;shape-rendering:geometricPrecision;text-rendering:geometricPrecision"
       id="hman">
      <circle
          class="fil3"
          cx="23624"
          cy="44922"
          r="1703"
          id="circle1626"
          style="fill:#ffcc00" />
      <path
          class="fil2"
          d="m 24363,43842 0,1103 -272,-401 134,0 -310,-513 102,0 -393,-665 -392,665 101,0 -310,513 134,0 -272,401 0,-1103 -854,1316 -94,0 c 115,829 826,1467 1687,1467 861,0 1572,-638 1687,-1467 l -93,0 -855,-1316 z"
          id="path1628"
          inkscape:connector-curvature="0"
          style="fill:#000000" />
      <path
          class="fil4"
          d="m 22714,43188 78,0 0,-115 98,60 41,-65 -101,-59 101,-61 -41,-69 -98,65 0,-116 -78,0 5,116 -102,-65 -37,69 102,61 -102,59 37,65 102,-60 -5,115 z m 869,-203 83,0 -5,-115 97,60 42,-65 -102,-60 102,-60 -42,-69 -97,64 5,-115 -83,0 5,115 -98,-64 -41,69 101,60 -101,60 41,65 98,-60 -5,115 z m 873,203 78,0 -5,-115 103,60 41,-65 -107,-59 107,-61 -41,-69 -103,65 5,-116 -78,0 0,116 -97,-65 -42,69 101,61 -101,59 42,65 97,-60 0,115 z"
          id="path1630"
          inkscape:connector-curvature="0"
          style="fill:#999999" />
      <path
          class="fil12"
          d="m 23624,46367 c -111,-148 -147,-268 -152,-434 -125,37 -208,4 -259,-83 l -591,0 c -195,0 -462,-181 -467,-328 l 1063,0 c 50,111 134,138 203,138 97,0 167,-134 184,-305 l 0,-601 c -50,-143 -36,-351 19,-517 56,166 70,374 19,517 l 0,601 c 18,171 92,305 184,305 70,0 153,-27 204,-138 l 1062,0 c -4,147 -268,328 -466,328 l -591,0 c -47,87 -135,120 -259,83 0,166 -42,286 -153,434 z"
          id="path1632"
          inkscape:connector-curvature="0"
          style="fill:#ffffff" />
   </g>
</svg>
