<?xml version="1.0" encoding="UTF-8" standalone="no"?>
<svg
    xmlns:dc="http://purl.org/dc/elements/1.1/"
    xmlns:cc="http://creativecommons.org/ns#"
    xmlns:rdf="http://www.w3.org/1999/02/22-rdf-syntax-ns#"
    xmlns:svg="http://www.w3.org/2000/svg"
    xmlns="http://www.w3.org/2000/svg"
    xmlns:sodipodi="http://sodipodi.sourceforge.net/DTD/sodipodi-0.dtd"
    xmlns:inkscape="http://www.inkscape.org/namespaces/inkscape"
    id="city_bel"
    data-name="bel"
    width="52.5mm"
    height="52.5mm"
    viewBox="0 0 148.82 148.82"
    version="1.1"
    inkscape:version="0.91 r13725"
    sodipodi:docname="_izhevsk.svg">
   <metadata
       id="metadata12">
      <rdf:RDF>
         <cc:Work
             rdf:about="">
            <dc:format>image/svg+xml</dc:format>
            <dc:type
                rdf:resource="http://purl.org/dc/dcmitype/StillImage" />
            <dc:title></dc:title>
         </cc:Work>
      </rdf:RDF>
   </metadata>
   <defs
       id="defs10" />
   <sodipodi:namedview
       pagecolor="#ffffff"
       bordercolor="#666666"
       borderopacity="1"
       objecttolerance="10"
       gridtolerance="10"
       guidetolerance="10"
       inkscape:pageopacity="0"
       inkscape:pageshadow="2"
       inkscape:window-width="640"
       inkscape:window-height="480"
       id="namedview8"
       showgrid="false"
       inkscape:zoom="1.268656085"
       inkscape:cx="93.01181102"
       inkscape:cy="93.01181102"
       inkscape:current-layer="city_bel" />
   <g
       transform="matrix(0.0283466687,0,0,0.0283466716,-298.6794039,-297.5235278)"
       style="clip-rule:evenodd;fill-rule:evenodd;image-rendering:optimizeQuality;shape-rendering:geometricPrecision;text-rendering:geometricPrecision"
       id="izhevsk">
      <path
          id="path3286"
          class="fil3"
          d="m 13514,13823 3,104 c -170,-188 -322,-383 -614,-518 10,0 -77,168 -137,233 -76,81 -295,115 -295,111 0,0 90,-156 145,-210 62,-60 243,-158 243,-158 -43,-34 -97,-66 -155,-96 0,0 -158,153 -244,187 -112,44 -399,39 -399,39 0,0 165,-186 259,-226 88,-36 321,-26 321,-26 l -260,-249 c 0,0 -101,165 -156,203 -78,53 -296,104 -296,104 0,0 101,-197 156,-249 62,-59 233,-99 233,-99 l -132,-106 c 12,-5 -62,128 -148,176 -72,41 -280,86 -280,86 0,0 101,-163 158,-207 65,-50 236,-83 236,-83 l -119,-99 c 0,0 -85,115 -132,153 -82,66 -317,72 -319,60 0,0 105,-156 169,-194 70,-44 256,-55 256,-55 l -18,-34 c 8,7 -220,-5 -345,-85 -62,-41 -176,-181 -176,-181 1,-1 246,-14 332,39 70,42 204,181 204,181 0,0 -40,-169 -33,-231 8,-71 90,-191 90,-191 0,0 102,164 99,243 -3,70 -106,207 -106,207 l 7,44 99,91 c 0,0 -10,-142 0,-202 12,-74 80,-236 80,-236 0,0 91,170 86,249 -5,74 -112,220 -112,220 l 132,117 c 0,0 -13,-150 -2,-210 14,-82 83,-264 83,-264 0,0 71,154 70,222 -2,90 -104,272 -104,272 l 267,244 c 0,0 -57,-189 -75,-272 -20,-92 -47,-329 -47,-329 0,0 155,117 197,215 17,39 50,190 46,233 -4,59 -51,192 -51,192 l 137,85 c 0,0 -2,-101 -5,-140 -14,-145 91,-314 101,-295 5,0 71,144 65,212 -10,99 -91,269 -96,259 276,142 424,304 582,464 z m -778,-8 -2,104 c 169,-188 322,-382 613,-518 -9,0 78,168 138,233 75,81 294,115 295,111 0,0 -90,-156 -145,-209 -63,-61 -244,-158 -244,-158 44,-35 98,-66 156,-96 0,0 158,152 243,186 112,44 399,39 399,39 0,0 -164,-186 -259,-225 -88,-37 -320,-27 -320,-27 l 259,-249 c 0,0 101,166 157,203 78,53 295,104 295,104 0,0 -100,-197 -155,-249 -62,-59 -233,-98 -233,-98 l 132,-106 c -12,-5 61,127 148,176 72,40 279,85 279,85 0,0 -100,-163 -158,-207 -65,-50 -235,-83 -235,-83 l 119,-98 c 0,0 85,114 132,152 81,66 316,72 318,60 0,0 -105,-155 -168,-194 -71,-44 -256,-55 -256,-55 l 18,-33 c -8,6 220,-5 344,-86 63,-40 176,-181 176,-181 0,-1 -245,-13 -331,39 -70,42 -205,181 -205,181 0,0 41,-169 34,-230 -8,-72 -91,-192 -91,-192 0,0 -102,165 -98,243 3,70 106,208 106,208 l -8,44 -98,90 c 0,0 10,-142 0,-202 -12,-73 -81,-235 -81,-235 0,0 -90,169 -85,248 5,74 111,220 111,220 l -132,117 c 0,0 13,-149 3,-210 -14,-82 -83,-264 -83,-264 0,0 -71,154 -70,223 2,90 104,272 104,272 l -267,243 c 0,0 57,-189 75,-272 20,-91 47,-329 47,-329 0,0 -155,117 -197,215 -17,40 -50,190 -47,233 5,59 52,192 52,192 l -137,85 c 0,0 1,-101 5,-139 13,-146 -92,-315 -101,-296 -6,0 -71,145 -65,213 10,98 91,269 96,259 -276,141 -425,303 -583,463 z"
          sodipodi:nodetypes="cccscsccscsccscsccscsccscsccscscscscccscsccscsccscssccscscc"
          inkscape:connector-curvature="0"
          style="fill:#ffcc00" />
      <path
          id="path3290"
          class="fil2"
          d="m 11594,14679 1073,-2153 c 52,-73 110,-142 219,-177 -265,-99 -350,-208 -354,-320 -8,-226 192,-343 266,-546 l 26,-130 78,0 5,171 c -39,123 -163,213 -156,400 5,154 195,295 323,306 l -11,-332 -187,31 c 111,-237 203,-498 255,-804 l 0,3995 -68,5 0,-88 -104,52 5,-846 115,-99 -5,-1623 c -68,7 -134,9 -240,140 l -1178,2080 c -40,18 -70,17 -62,-62 z"
          sodipodi:nodetypes="cccsccccscccccccccccccc"
          inkscape:connector-curvature="0"
          style="fill:#000000" />
      <path
          id="path3292"
          class="fil4"
          d="m 14668,14679 -1073,-2153 c -52,-73 -110,-142 -219,-177 265,-99 350,-208 354,-320 8,-226 -192,-343 -266,-546 l -26,-130 -78,0 -5,171 c 39,123 163,213 156,400 -5,154 -195,295 -323,306 l 11,-332 187,31 c -111,-237 -202,-498 -255,-804 l 0,3995 68,5 0,-88 104,52 -5,-846 -115,-99 5,-1623 c 68,7 134,9 240,140 l 1178,2080 c 40,18 71,17 62,-62 l 0,0 z"
          sodipodi:nodetypes="cccsccccscccccccccccccc"
          inkscape:connector-curvature="0"
          style="fill:#999999" />
   </g>
</svg>
