<?xml version="1.0" encoding="UTF-8" standalone="no"?>
<svg
    xmlns:dc="http://purl.org/dc/elements/1.1/"
    xmlns:cc="http://creativecommons.org/ns#"
    xmlns:rdf="http://www.w3.org/1999/02/22-rdf-syntax-ns#"
    xmlns:svg="http://www.w3.org/2000/svg"
    xmlns="http://www.w3.org/2000/svg"
    xmlns:sodipodi="http://sodipodi.sourceforge.net/DTD/sodipodi-0.dtd"
    xmlns:inkscape="http://www.inkscape.org/namespaces/inkscape"
    id="city_nnov"
    data-name="nnov"
    width="52.5mm"
    height="52.5mm"
    viewBox="0 0 148.82 148.82"
    version="1.1"
    inkscape:version="0.91 r13725"
    sodipodi:docname="_kamyshin.svg">
   <metadata
       id="metadata22">
      <rdf:RDF>
         <cc:Work
             rdf:about="">
            <dc:format>image/svg+xml</dc:format>
            <dc:type
                rdf:resource="http://purl.org/dc/dcmitype/StillImage" />
            <dc:title></dc:title>
         </cc:Work>
      </rdf:RDF>
   </metadata>
   <defs
       id="defs20" />
   <sodipodi:namedview
       pagecolor="#ffffff"
       bordercolor="#666666"
       borderopacity="1"
       objecttolerance="10"
       gridtolerance="10"
       guidetolerance="10"
       inkscape:pageopacity="0"
       inkscape:pageshadow="2"
       inkscape:window-width="640"
       inkscape:window-height="480"
       id="namedview18"
       showgrid="false"
       inkscape:zoom="1.268656085"
       inkscape:cx="93.01181102"
       inkscape:cy="93.01181102"
       inkscape:current-layer="city_nnov" />
   <g
       transform="matrix(0.0283466687,0,0,0.0283466716,-1041.47866,-297.5235278)"
       style="clip-rule:evenodd;fill-rule:evenodd;image-rendering:optimizeQuality;shape-rendering:geometricPrecision;text-rendering:geometricPrecision"
       id="kamyshin">
      <polygon
          class="fil4"
          points="38704,11421 38716,11403 38711,11380 38746,11291 38764,11315 38780,11282 38766,11256 38805,11125 38827,11249 38689,11490 38698,11494 38832,11277 38823,11383 38749,11442 38782,11449 38719,11527 38683,11530 38672,11545 38711,11540 38664,11599 38634,11612 38657,11624 38575,11732 38601,11734 38552,11803 38523,11968 38588,11807 38655,11697 38662,11739 38686,11681 38683,11647 38719,11582 38730,11634 38745,11613 38744,11558 38779,11496 38798,11555 38815,11520 38819,11456 38856,11376 38873,11416 38887,11390 38885,11293 38904,11248 38942,11354 38826,11535 38833,11539 38949,11370 38928,11473 38908,11493 38878,11488 38871,11502 38900,11506 38817,11599 38789,11591 38774,11614 38810,11610 38762,11675 38713,11690 38730,11709 38672,11784 38621,11807 38655,11818 38565,11903 38593,11912 38554,11974 38524,12105 38582,11958 38580,11998 38630,11871 38651,11859 38644,11897 38662,11891 38682,11827 38726,11761 38721,11798 38723,11809 38756,11756 38762,11721 38803,11675 38804,11704 38827,11681 38834,11642 38874,11591 38881,11613 38904,11590 38908,11554 38941,11502 38936,11615 38774,11767 38780,11781 38934,11636 38912,11721 38884,11732 38866,11729 38850,11748 38869,11746 38747,11859 38692,11874 38681,11890 38719,11891 38666,11941 38639,11939 38618,11967 38657,11958 38591,12037 38557,12067 38583,12065 38568,12121 38545,12134 38515,12217 38522,12289 38564,12145 38583,12156 38594,12091 38627,12046 38626,12089 38650,12056 38660,11996 38696,11954 38696,12002 38713,11979 38717,11939 38764,11885 38767,11917 38787,11892 38791,11860 38848,11800 38849,11830 38876,11796 38881,11764 38911,11740 38907,11823 38777,11931 38782,11944 38904,11846 38883,11921 38787,11981 38760,11971 38747,11984 38778,12003 38711,12049 38680,12038 38668,12052 38702,12066 38651,12120 38598,12147 38637,12152 38591,12211 38558,12208 38549,12240 38568,12265 38523,12339 38525,12394 38570,12283 38580,12305 38597,12284 38601,12247 38628,12195 38632,12221 38617,12244 38631,12253 38646,12188 38687,12130 38697,12166 38713,12107 38750,12073 38746,12106 38768,12084 38809,12019 38807,12064 38828,12046 38842,11989 38888,11948 38851,12070 38685,12192 38686,12202 38846,12088 38819,12176 38780,12192 38745,12180 38752,12207 38704,12241 38672,12214 38665,12236 38692,12251 38643,12293 38618,12287 38607,12304 38637,12313 38594,12353 38556,12363 38541,12381 38563,12379 38566,12403 38532,12451 38531,12549 38573,12446 38581,12478 38599,12425 38624,12384 38638,12396 38649,12379 38650,12356 38678,12332 38688,12350 38706,12333 38699,12315 38744,12275 38759,12307 38768,12253 38819,12195 38778,12325 38651,12397 38645,12424 38769,12348 38741,12425 38692,12414 38681,12424 38704,12440 38661,12467 38639,12448 38627,12450 38641,12474 38593,12525 38570,12523 38569,12544 38542,12587 38527,12694 38555,12626 38573,12640 38593,12573 38603,12595 38615,12574 38612,12561 38636,12537 38644,12551 38661,12537 38658,12523 38687,12495 38697,12515 38709,12474 38744,12441 38714,12531 38624,12579 38611,12607 38710,12549 38687,12621 38668,12621 38657,12601 38658,12626 38624,12640 38595,12614 38610,12652 38547,12704 38530,12753 38550,14280 38590,14063 38567,13940 38805,12903 38872,12742 38962,12617 39052,12472 39086,12424 39210,12291 39146,12495 39077,12547 38992,12728 38896,13103 38770,13599 38690,13938 38613,14283 38554,14559 38550,15123 38468,15125 38437,14959 38395,14771 38337,14574 38266,14414 38200,14428 38091,14691 38084,14741 38081,14819 38039,14666 38065,14496 38149,14305 38329,14230 38382,14228 38415,14413 38447,14620 38490,14980 38492,14793 38490,14614 38484,14407 38483,13951 38481,13851 38381,13596 38276,13357 38107,12944 38102,12793 38122,12628 38142,12508 38192,12361 38277,12151 38359,11988 38337,12295 38264,12367 38213,12443 38195,12584 38249,12876 38433,13365 38439,13414 38443,13572 38476,13655 38479,12147 38484,12080 38494,11991 38510,11886 38532,11775 38582,11631 38590,11656 38615,11621 38601,11585 38626,11521 38636,11564 38655,11525 38659,11480 38687,11400 "
          id="polygon2312"
          style="fill:#999999" />
      <polygon
          class="fil3"
          points="39459,11421 39472,11403 39466,11380 39502,11291 39520,11315 39536,11282 39522,11256 39561,11125 39583,11249 39445,11490 39454,11494 39588,11277 39579,11383 39505,11442 39538,11449 39475,11527 39438,11530 39427,11545 39467,11540 39420,11599 39389,11612 39413,11624 39331,11732 39357,11734 39307,11803 39279,11968 39344,11807 39411,11697 39418,11739 39441,11681 39439,11647 39475,11582 39486,11634 39501,11613 39500,11558 39535,11496 39554,11555 39571,11520 39575,11456 39612,11376 39629,11416 39643,11390 39641,11293 39660,11248 39698,11354 39582,11535 39589,11539 39705,11370 39684,11473 39664,11493 39634,11488 39627,11502 39656,11506 39573,11599 39545,11591 39529,11614 39566,11610 39518,11675 39468,11690 39486,11709 39427,11784 39376,11807 39411,11818 39321,11903 39349,11912 39310,11974 39279,12105 39337,11958 39336,11998 39386,11871 39407,11859 39400,11897 39417,11891 39438,11827 39482,11761 39476,11798 39479,11809 39512,11756 39518,11721 39559,11675 39559,11704 39582,11681 39590,11642 39630,11591 39637,11613 39659,11590 39663,11554 39696,11502 39692,11615 39530,11767 39536,11781 39690,11636 39668,11721 39640,11732 39622,11729 39606,11748 39625,11746 39503,11859 39447,11874 39437,11890 39475,11891 39422,11941 39395,11939 39374,11967 39413,11958 39347,12037 39313,12067 39338,12065 39324,12121 39300,12134 39271,12217 39278,12289 39320,12145 39338,12156 39349,12091 39383,12046 39381,12089 39406,12056 39416,11996 39452,11954 39452,12002 39469,11979 39472,11939 39519,11885 39523,11917 39543,11892 39547,11860 39604,11800 39605,11830 39632,11796 39636,11764 39667,11740 39663,11823 39532,11931 39537,11944 39660,11846 39639,11921 39543,11981 39516,11971 39503,11984 39534,12003 39467,12049 39435,12038 39424,12052 39458,12066 39406,12120 39354,12147 39393,12152 39346,12211 39313,12208 39304,12240 39324,12265 39279,12339 39281,12394 39326,12283 39336,12305 39352,12284 39357,12247 39384,12195 39388,12221 39373,12244 39387,12253 39401,12188 39443,12130 39453,12166 39469,12107 39505,12073 39502,12106 39523,12084 39565,12019 39563,12064 39584,12046 39598,11989 39644,11948 39607,12070 39441,12192 39441,12202 39602,12088 39575,12176 39535,12192 39501,12180 39508,12207 39460,12241 39428,12214 39420,12236 39448,12251 39399,12293 39374,12287 39363,12304 39393,12313 39350,12353 39312,12363 39297,12381 39318,12379 39322,12403 39288,12451 39287,12549 39329,12446 39337,12478 39355,12425 39380,12384 39393,12396 39405,12379 39405,12356 39434,12332 39444,12350 39461,12333 39455,12315 39500,12275 39514,12307 39524,12253 39575,12195 39534,12325 39407,12397 39401,12424 39525,12348 39497,12425 39447,12414 39437,12424 39460,12440 39417,12467 39395,12448 39383,12450 39397,12474 39349,12525 39325,12523 39324,12544 39298,12587 39282,12694 39311,12626 39329,12640 39348,12573 39359,12595 39370,12574 39368,12561 39392,12537 39400,12551 39416,12537 39414,12523 39443,12495 39452,12515 39465,12474 39500,12441 39470,12531 39380,12579 39367,12607 39466,12549 39443,12621 39424,12621 39412,12601 39414,12626 39379,12640 39351,12614 39366,12652 39303,12704 39285,12753 39306,14280 39346,14063 39323,13940 39561,12903 39628,12742 39718,12617 39807,12472 39842,12424 39966,12291 39902,12495 39832,12547 39748,12728 39652,13103 39526,13599 39445,13938 39369,14283 39310,14559 39306,15123 39224,15125 39193,14959 39151,14771 39092,14574 39021,14414 38956,14428 38847,14691 38839,14741 38837,14819 38795,14666 38821,14496 38905,14305 39085,14230 39138,14228 39171,14413 39203,14620 39246,14980 39248,14793 39246,14614 39240,14407 39239,13951 39237,13851 39137,13596 39032,13357 38863,12944 38858,12793 38878,12628 38898,12508 38947,12361 39032,12151 39115,11988 39093,12295 39020,12367 38968,12443 38951,12584 39004,12876 39189,13365 39195,13414 39199,13572 39232,13655 39235,12147 39239,12080 39250,11991 39266,11886 39288,11775 39338,11631 39346,11656 39371,11621 39356,11585 39381,11521 39391,11564 39411,11525 39415,11480 39443,11400 "
          id="polygon2314"
          style="fill:#ffcc00" />
      <polygon
          class="fil2"
          points="40205,11421 40218,11403 40212,11380 40247,11291 40265,11315 40281,11282 40267,11256 40307,11125 40329,11249 40190,11490 40200,11494 40334,11277 40324,11383 40251,11442 40283,11449 40220,11527 40184,11530 40173,11545 40212,11540 40166,11599 40135,11612 40158,11624 40077,11732 40103,11734 40053,11803 40025,11968 40090,11807 40156,11697 40163,11739 40187,11681 40184,11647 40220,11582 40231,11634 40247,11613 40246,11558 40280,11496 40300,11555 40316,11520 40321,11456 40358,11376 40374,11416 40388,11390 40387,11293 40406,11248 40443,11354 40328,11535 40334,11539 40451,11370 40430,11473 40409,11493 40380,11488 40373,11502 40401,11506 40319,11599 40290,11591 40275,11614 40312,11610 40263,11675 40214,11690 40232,11709 40173,11784 40122,11807 40157,11818 40066,11903 40094,11912 40056,11974 40025,12105 40083,11958 40082,11998 40131,11871 40152,11859 40146,11897 40163,11891 40184,11827 40228,11761 40222,11798 40225,11809 40258,11756 40263,11721 40304,11675 40305,11704 40328,11681 40336,11642 40375,11591 40382,11613 40405,11590 40409,11554 40442,11502 40437,11615 40276,11767 40281,11781 40435,11636 40414,11721 40386,11732 40367,11729 40352,11748 40370,11746 40248,11859 40193,11874 40182,11890 40221,11891 40168,11941 40140,11939 40119,11967 40158,11958 40093,12037 40059,12067 40084,12065 40069,12121 40046,12134 40017,12217 40024,12289 40065,12145 40084,12156 40095,12091 40129,12046 40127,12089 40152,12056 40162,11996 40197,11954 40198,12002 40214,11979 40218,11939 40265,11885 40269,11917 40289,11892 40292,11860 40349,11800 40350,11830 40378,11796 40382,11764 40413,11740 40408,11823 40278,11931 40283,11944 40405,11846 40384,11921 40289,11981 40261,11971 40249,11984 40279,12003 40213,12049 40181,12038 40169,12052 40203,12066 40152,12120 40100,12147 40139,12152 40092,12211 40059,12208 40050,12240 40070,12265 40024,12339 40026,12394 40072,12283 40081,12305 40098,12284 40103,12247 40130,12195 40134,12221 40119,12244 40133,12253 40147,12188 40189,12130 40199,12166 40214,12107 40251,12073 40248,12106 40269,12084 40310,12019 40309,12064 40330,12046 40343,11989 40389,11948 40353,12070 40187,12192 40187,12202 40347,12088 40321,12176 40281,12192 40246,12180 40253,12207 40205,12241 40173,12214 40166,12236 40193,12251 40144,12293 40119,12287 40108,12304 40138,12313 40096,12353 40057,12363 40042,12381 40064,12379 40067,12403 40033,12451 40033,12549 40074,12446 40082,12478 40100,12425 40126,12384 40139,12396 40150,12379 40151,12356 40179,12332 40190,12350 40207,12333 40201,12315 40245,12275 40260,12307 40270,12253 40320,12195 40280,12325 40152,12397 40146,12424 40270,12348 40242,12425 40193,12414 40183,12424 40206,12440 40163,12467 40140,12448 40129,12450 40143,12474 40094,12525 40071,12523 40070,12544 40044,12587 40028,12694 40057,12626 40075,12640 40094,12573 40104,12595 40116,12574 40114,12561 40138,12537 40145,12551 40162,12537 40159,12523 40189,12495 40198,12515 40211,12474 40245,12441 40216,12531 40125,12579 40113,12607 40212,12549 40189,12621 40170,12621 40158,12601 40159,12626 40125,12640 40097,12614 40111,12652 40048,12704 40031,12753 40052,14280 40091,14063 40069,13940 40307,12903 40373,12742 40464,12617 40553,12472 40588,12424 40711,12291 40648,12495 40578,12547 40493,12728 40398,13103 40272,13599 40191,13938 40115,14283 40056,14559 40051,15123 39970,15125 39939,14959 39897,14771 39838,14574 39767,14414 39702,14428 39592,14691 39585,14741 39582,14819 39540,14666 39566,14496 39651,14305 39831,14230 39884,14228 39917,14413 39949,14620 39992,14980 39993,14793 39992,14614 39986,14407 39985,13951 39982,13851 39882,13596 39777,13357 39609,12944 39604,12793 39624,12628 39644,12508 39693,12361 39778,12151 39860,11988 39839,12295 39765,12367 39714,12443 39696,12584 39750,12876 39934,13365 39940,13414 39945,13572 39977,13655 39981,12147 39985,12080 39996,11991 40011,11886 40034,11775 40084,11631 40091,11656 40116,11621 40102,11585 40127,11521 40137,11564 40157,11525 40161,11480 40188,11400 "
          id="polygon2316"
          style="fill:#000000" />
   </g>
</svg>
