<?xml version="1.0" encoding="UTF-8" standalone="no"?>
<svg
    xmlns:dc="http://purl.org/dc/elements/1.1/"
    xmlns:cc="http://creativecommons.org/ns#"
    xmlns:rdf="http://www.w3.org/1999/02/22-rdf-syntax-ns#"
    xmlns:svg="http://www.w3.org/2000/svg"
    xmlns="http://www.w3.org/2000/svg"
    xmlns:sodipodi="http://sodipodi.sourceforge.net/DTD/sodipodi-0.dtd"
    xmlns:inkscape="http://www.inkscape.org/namespaces/inkscape"
    id="city_nnov"
    data-name="nnov"
    width="52.5mm"
    height="52.5mm"
    viewBox="0 0 148.82 148.82"
    version="1.1"
    inkscape:version="0.91 r13725"
    sodipodi:docname="_kansk.svg">
   <metadata
       id="metadata22">
      <rdf:RDF>
         <cc:Work
             rdf:about="">
            <dc:format>image/svg+xml</dc:format>
            <dc:type
                rdf:resource="http://purl.org/dc/dcmitype/StillImage" />
            <dc:title></dc:title>
         </cc:Work>
      </rdf:RDF>
   </metadata>
   <defs
       id="defs20" />
   <sodipodi:namedview
       pagecolor="#ffffff"
       bordercolor="#666666"
       borderopacity="1"
       objecttolerance="10"
       gridtolerance="10"
       guidetolerance="10"
       inkscape:pageopacity="0"
       inkscape:pageshadow="2"
       inkscape:window-width="640"
       inkscape:window-height="480"
       id="namedview18"
       showgrid="false"
       inkscape:zoom="1.268656085"
       inkscape:cx="93.01181102"
       inkscape:cy="93.01181102"
       inkscape:current-layer="city_nnov" />
   <g
       transform="matrix(0.0283466687,0,0,0.0283466716,-1190.213997,-297.5184504)"
       style="clip-rule:evenodd;fill-rule:evenodd;image-rendering:optimizeQuality;shape-rendering:geometricPrecision;text-rendering:geometricPrecision"
       id="kansk">
      <path
          class="fil3"
          d="m 44112,12866 c 32,20 35,22 25,59 -40,24 -181,6 -257,-65 128,-93 140,-52 232,6 z m 836,-116 c -2,-222 57,-325 228,-314 3,138 -102,266 -228,314 z m -67,-382 c -3,153 -33,235 -74,343 -113,-60 -59,88 -68,-242 79,-18 -2,15 9,-8 0,0 -2,-32 45,-61 l 54,-22 c 7,-15 23,-7 34,-10 z m -656,1381 c 53,11 35,0 86,22 -43,-216 -43,-232 -163,-378 -37,-44 -47,-66 -90,-106 120,35 55,106 247,177 0,-142 -41,-238 -169,-272 -51,-14 -71,-10 -123,-10 l 240,51 c 24,-98 -8,-21 78,-51 l 36,38 12,-44 40,-2 c -34,-91 -48,-24 -99,-101 -25,-37 -29,-97 -34,-135 l 47,-7 c 6,1 15,2 21,4 64,23 42,32 65,73 24,42 31,69 66,113 -11,-77 8,-84 14,-117 l -11,-95 c 10,11 64,13 4,14 -52,2 -10,1 -52,-18 -11,-79 -17,-150 -40,-244 l -48,-149 c 51,-38 39,-26 83,-74 33,54 13,20 77,42 l -11,-174 c 138,64 13,67 122,113 l -11,82 c 37,-19 43,10 25,-22 10,132 -28,63 -22,201 l 17,76 c 65,117 48,33 51,32 -92,206 -89,225 21,305 8,-86 -6,-97 24,-155 12,-23 30,-52 49,-75 37,-45 22,-23 55,-50 39,196 9,116 -1,148 l 60,17 -30,80 c 200,-36 41,-81 228,-71 -77,137 -59,15 -156,146 l 5,124 c -120,123 -146,179 -147,396 8,-7 21,-26 26,-20 5,5 18,-13 23,-20 5,-5 13,-12 17,-18 33,-43 -1,6 27,-50 16,-31 30,-66 47,-102 175,-41 86,-67 199,-94 l 17,25 69,18 c 33,-235 184,31 525,-5 l 34,-102 c 154,36 152,58 248,-31 113,70 154,109 327,76 8,-163 16,-243 -97,-324 5,-3 44,-23 45,-23 l 28,-17 c 25,-14 70,-35 89,-42 -8,-174 -77,-198 -77,-198 58,-57 9,-9 72,-49 18,-11 40,-27 62,-43 -14,-152 -80,-161 -102,-209 l -6,-39 c -20,-117 -62,-130 -184,-173 l 33,-95 c -42,-57 -41,-59 -104,-102 72,-74 97,-104 116,-198 -128,-128 -219,-118 -417,-80 105,-271 -37,-289 -232,-198 -81,-108 -63,-43 -109,-70 l -1,-161 c -71,-14 -109,-27 -183,-5 -70,20 -87,62 -87,62 -51,-96 13,-21 -68,-86 l -157,51 c -70,-115 -29,-107 -142,-206 -160,29 -149,73 -220,167 -111,-48 -127,-73 -234,-11 -93,-101 -97,-94 -248,-121 -15,36 -24,73 -38,110 -87,-35 -117,-29 -233,-23 l -19,145 c -99,12 -103,-4 -136,88 -75,-85 -166,-55 -283,-32 l -4,141 c -335,-60 -463,112 -302,232 -46,68 -37,116 -96,164 l -84,67 c -58,108 49,23 -70,127 -148,128 -76,145 29,259 -16,47 -30,65 -52,124 27,32 34,43 53,74 -47,84 -68,111 -62,222 69,42 99,27 163,76 -50,148 -81,90 -76,297 99,0 199,11 282,-21 l 187,-71 c 7,162 -2,173 125,150 22,74 5,43 56,86 232,91 303,-329 579,126 71,118 70,176 79,248 z"
          id="path2280"
          inkscape:connector-curvature="0"
          style="fill:#ffcc00" />
      <path
          class="fil3"
          d="m 44328,15072 10,-16 c 19,-41 17,-30 47,-58 l 48,50 c 59,44 73,29 182,17 6,-43 -9,-23 7,-22 l 208,9 -63,-653 c 20,53 62,244 75,302 31,138 52,190 81,309 l 105,-4 91,-34 c 3,-9 13,-7 8,-8 l -63,-322 c -48,-44 -34,-7 -59,-74 l -57,-582 -84,-1 -411,3 -165,-18 -131,924 c 0,0 26,50 82,-6 l 2,114 c 137,42 43,-9 87,70 z"
          id="path2282"
          inkscape:connector-curvature="0"
          style="fill:#ffcc00" />
      <path
          class="fil3"
          d="m 44612,12501 c 24,169 -4,232 -51,359 l -9,288 -53,-144 c -6,33 -25,40 -14,117 l 13,205 -79,-152 -40,2 -12,44 c 15,83 48,151 43,256 -63,-60 -29,-51 -77,-117 -57,-78 -55,-36 -80,-126 l -240,-51 c 52,0 72,-4 123,10 128,34 169,130 169,272 -192,-71 -127,-142 -247,-177 43,40 53,62 90,106 120,146 120,162 163,378 45,39 218,68 299,71 120,4 238,-16 308,-65 15,-81 49,-168 74,-236 33,-89 73,-108 89,-188 l 66,21 -17,-25 c -113,27 -24,53 -199,94 -17,36 -31,71 -47,102 -28,56 6,7 -27,50 -4,6 -12,13 -17,18 -5,7 -18,25 -23,20 -5,-6 -18,13 -26,20 1,-217 27,-273 147,-396 l -5,-124 c 97,-131 79,-9 156,-146 -187,-10 -28,35 -228,71 -80,102 -87,207 -118,331 -45,-42 -36,-4 -55,-81 -3,-13 -1,-62 -1,-76 3,-48 13,-91 17,-139 -110,-80 -113,-99 -21,-305 -3,1 14,85 -51,-32 l -17,-76 c -6,-138 32,-69 22,-201 18,32 12,3 -25,22 z"
          id="path2284"
          inkscape:connector-curvature="0"
          style="fill:#ffcc00" />
      <path
          class="fil2"
          d="m 44250,13906 c 35,8 69,11 105,22 15,5 45,16 57,23 50,29 6,1 41,37 l 411,-3 c 32,-29 -9,-9 43,-32 20,-9 60,-19 85,-26 54,-79 40,-32 65,-136 -41,-78 -14,-11 -48,-48 -37,18 -47,20 -91,34 -70,49 -188,69 -308,65 -81,-3 -254,-32 -299,-71 -51,-22 -33,-11 -86,-22 l -42,42 c 16,41 9,35 37,81 4,7 29,33 30,34 z"
          id="path2286"
          inkscape:connector-curvature="0"
          style="fill:#000000" />
      <path
          class="fil3"
          d="m 44499,13004 53,144 9,-288 c 47,-127 75,-190 51,-359 l 11,-82 c -109,-46 16,-49 -122,-113 l 11,174 c -64,-22 -44,12 -77,-42 -44,48 -32,36 -83,74 l 48,149 c 23,94 29,165 40,244 42,19 0,20 52,18 60,-1 6,-3 -4,-14 l 11,95 z"
          id="path2288"
          inkscape:connector-curvature="0"
          style="fill:#ffcc00" />
      <path
          class="fil3"
          d="m 44338,15056 c 45,51 -42,11 55,49 152,59 555,-33 612,-28 l 23,-71 -105,4 c -29,-119 -50,-171 -81,-309 -13,-58 -55,-249 -75,-302 l 63,653 -208,-9 c -16,-1 -1,-21 -7,22 -109,12 -123,27 -182,-17 l -48,-50 c -30,28 -28,17 -47,58 z"
          id="path2290"
          inkscape:connector-curvature="0"
          style="fill:#ffcc00" />
      <path
          class="fil3"
          d="m 44328,15072 c -44,-79 50,-28 -87,-70 l -2,-114 c -56,56 -82,6 -82,6 l 131,-924 165,18 c -35,-36 9,-8 -41,-37 -12,-7 -42,-18 -57,-23 -36,-11 -70,-14 -105,-22 -25,59 -146,979 -128,1068 l 70,45 c 57,46 17,3 44,52 l 92,1 z"
          id="path2292"
          inkscape:connector-curvature="0"
          style="fill:#ffcc00" />
      <path
          class="fil3"
          d="m 44704,13093 c -4,48 -14,91 -17,139 0,14 -2,63 1,76 19,77 10,39 55,81 31,-124 38,-229 118,-331 l 30,-80 -60,-17 c 10,-32 40,48 1,-148 -33,27 -18,5 -55,50 -19,23 -37,52 -49,75 -30,58 -16,69 -24,155 z"
          id="path2294"
          inkscape:connector-curvature="0"
          style="fill:#ffcc00" />
      <path
          class="fil3"
          d="m 44948,12750 c 126,-48 231,-176 228,-314 -171,-11 -230,92 -228,314 z"
          id="path2296"
          inkscape:connector-curvature="0"
          style="fill:#ffcc00" />
      <path
          class="fil3"
          d="m 44864,13985 84,1 57,582 c 25,67 11,30 59,74 -5,-138 -29,-291 -42,-388 -9,-72 -8,-243 -30,-327 -25,7 -65,17 -85,26 -52,23 -11,3 -43,32 z"
          id="path2298"
          inkscape:connector-curvature="0"
          style="fill:#ffcc00" />
      <path
          class="fil3"
          d="m 44739,12469 c 9,330 -45,182 68,242 41,-108 71,-190 74,-343 -11,3 -27,-5 -34,10 l -54,22 c -47,29 -45,61 -45,61 -11,23 70,-10 -9,8 z"
          id="path2300"
          inkscape:connector-curvature="0"
          style="fill:#ffcc00" />
      <path
          class="fil3"
          d="m 44918,13777 c 44,-14 54,-16 91,-34 8,-87 22,-115 54,-181 48,-101 28,-97 106,-119 l -22,-69 -66,-21 c -16,80 -56,99 -89,188 -25,68 -59,155 -74,236 z"
          id="path2302"
          inkscape:connector-curvature="0"
          style="fill:#ffcc00" />
      <path
          class="fil3"
          d="m 44419,13174 79,152 -13,-205 c -35,-44 -42,-71 -66,-113 -23,-41 -1,-50 -65,-73 -6,-2 -15,-3 -21,-4 l -47,7 c 5,38 9,98 34,135 51,77 65,10 99,101 z"
          id="path2304"
          inkscape:connector-curvature="0"
          style="fill:#ffcc00" />
      <path
          class="fil3"
          d="m 44253,13233 c 25,90 23,48 80,126 48,66 14,57 77,117 5,-105 -28,-173 -43,-256 l -36,-38 c -86,30 -54,-47 -78,51 z"
          id="path2306"
          inkscape:connector-curvature="0"
          style="fill:#ffcc00" />
      <path
          class="fil3"
          d="m 43880,12860 c 76,71 217,89 257,65 10,-37 7,-39 -25,-59 -92,-58 -104,-99 -232,-6 z"
          id="path2308"
          inkscape:connector-curvature="0"
          style="fill:#ffcc00" />
   </g>
</svg>
