<?xml version="1.0" encoding="UTF-8" standalone="no"?>
<svg
    xmlns:dc="http://purl.org/dc/elements/1.1/"
    xmlns:cc="http://creativecommons.org/ns#"
    xmlns:rdf="http://www.w3.org/1999/02/22-rdf-syntax-ns#"
    xmlns:svg="http://www.w3.org/2000/svg"
    xmlns="http://www.w3.org/2000/svg"
    xmlns:sodipodi="http://sodipodi.sourceforge.net/DTD/sodipodi-0.dtd"
    xmlns:inkscape="http://www.inkscape.org/namespaces/inkscape"
    id="city_nnov"
    data-name="nnov"
    width="52.5mm"
    height="52.5mm"
    viewBox="0 0 148.82 148.82"
    version="1.1"
    inkscape:version="0.91 r13725"
    sodipodi:docname="_kazan.svg">
   <metadata
       id="metadata22">
      <rdf:RDF>
         <cc:Work
             rdf:about="">
            <dc:format>image/svg+xml</dc:format>
            <dc:type
                rdf:resource="http://purl.org/dc/dcmitype/StillImage" />
            <dc:title></dc:title>
         </cc:Work>
      </rdf:RDF>
   </metadata>
   <defs
       id="defs20" />
   <sodipodi:namedview
       pagecolor="#ffffff"
       bordercolor="#666666"
       borderopacity="1"
       objecttolerance="10"
       gridtolerance="10"
       guidetolerance="10"
       inkscape:pageopacity="0"
       inkscape:pageshadow="2"
       inkscape:window-width="640"
       inkscape:window-height="480"
       id="namedview18"
       showgrid="false"
       inkscape:zoom="1.268656085"
       inkscape:cx="93.01181102"
       inkscape:cy="93.01181102"
       inkscape:current-layer="city_nnov" />
   <g
       transform="matrix(0.0283466687,0,0,0.0283466716,-595.322504,-297.6348966)"
       style="clip-rule:evenodd;fill-rule:evenodd;image-rendering:optimizeQuality;shape-rendering:geometricPrecision;text-rendering:geometricPrecision"
       id="kazan">
      <path
          class="fil2"
          d="m 24814,11507 23,-31 13,37 c 86,260 -137,487 -284,637 -66,67 -140,142 -121,164 9,11 20,17 35,18 35,1 86,-26 124,-66 l 24,-25 10,33 c 45,133 -86,257 -181,348 -36,34 -85,81 -84,96 1,6 4,8 6,9 13,9 44,4 57,0 l 37,-10 -12,37 c -48,148 -129,189 -207,229 -57,29 -110,56 -155,123 -14,21 -4,54 5,89 13,45 27,96 -7,136 -33,39 -86,35 -138,31 -44,-3 -86,-6 -110,17 -19,18 -30,51 -40,82 -15,43 -29,88 -70,97 -33,7 -67,-8 -102,-24 -34,-15 -69,-30 -107,-30 -43,0 -86,35 -121,64 -36,29 -64,52 -91,39 -38,-19 -29,-70 -24,-104 2,-9 4,-22 4,-26 -2,-12 -18,-36 -41,-46 -20,-9 -42,-7 -65,7 -100,62 -152,24 -158,19 l -14,-11 10,-16 c 3,-5 77,-122 266,-210 204,-96 229,-188 230,-250 1,-41 -10,-74 -31,-95 -18,-18 -42,-28 -69,-28 -99,-1 -166,-36 -195,-102 -38,-89 -35,-272 219,-400 86,-43 142,-50 186,-57 25,-3 46,-6 69,-14 l 76,-27 c 267,-92 632,-219 1033,-740 z m -2504,496 -30,-25 c -100,-82 -168,-212 -171,-217 l -25,-50 51,21 c 76,30 231,59 232,59 l 43,8 c 0,0 -46,39 -58,50 202,128 344,161 344,161 l -24,59 -16,-3 c -132,-26 -276,-116 -337,-156 -2,26 -9,93 -9,93 z m 2299,2475 c -338,-29 -456,-322 -466,-378 49,-3 182,-138 233,-163 50,-25 65,-46 95,-69 30,-23 39,15 30,29 -66,114 65,187 123,169 57,-19 138,-133 31,-203 -107,-70 -241,-9 -346,78 -87,72 -309,231 -341,251 -32,19 -59,39 -53,-20 7,-59 -10,-196 -32,-223 -1,21 -8,358 -12,386 -4,33 -84,78 -149,164 -66,86 -81,123 -77,147 4,23 27,44 55,47 32,3 105,-44 142,-35 29,8 27,15 57,58 29,42 102,13 112,95 7,64 -50,109 -58,105 -21,-11 11,-65 -14,-85 -47,-38 -88,49 -174,18 -65,-24 -95,-90 -206,-74 -50,7 -88,64 -85,104 3,44 -7,67 -24,86 -33,37 -49,19 -73,48 -16,19 -47,-1 -80,27 -21,17 -9,97 -25,83 -83,-71 9,-157 38,-188 30,-30 31,-67 10,-81 -3,26 -25,30 -43,58 -18,29 -28,41 -69,53 -42,12 -86,-3 -99,-8 -13,-4 -23,18 -37,29 -14,11 -3,52 -10,53 -7,1 -24,-13 -30,-51 -7,-36 14,-61 35,-77 33,-25 76,-26 76,-26 26,-72 94,-42 104,-72 -38,6 -68,-7 -68,-7 -13,26 -20,5 -48,44 -27,40 -54,23 -80,29 -26,6 -46,66 -49,53 -24,-141 128,-156 128,-156 36,-72 118,-94 172,-90 55,4 87,29 161,-13 73,-43 185,-263 197,-345 13,-82 -91,-200 -179,-214 77,68 137,168 137,168 -95,32 -169,24 -169,24 -5,37 -113,93 -163,211 -29,68 -3,64 34,60 37,-4 80,-53 124,-30 43,24 35,74 -10,105 -45,32 -87,13 -124,10 -37,-3 -50,13 -84,15 -34,1 -53,12 -74,42 -20,30 -42,56 -56,52 -13,-4 -31,13 -55,13 -25,0 -36,37 -89,36 -53,-1 -74,-22 -74,-22 -61,0 -61,78 -75,79 -13,1 -43,-127 66,-136 34,-94 188,-16 215,-101 -67,49 -124,7 -182,22 -49,12 -66,66 -82,68 -20,2 -52,-38 -87,-31 -23,4 -24,51 -29,46 -19,-23 -17,-54 13,-82 13,-12 27,-19 61,-16 50,-124 149,-29 192,-60 -28,1 -106,-41 -147,-36 -51,7 -63,60 -64,40 -6,-91 80,-83 80,-83 43,-63 112,-56 151,-44 40,13 49,56 94,68 105,29 195,-232 195,-232 -111,-18 -429,-80 -601,-501 -122,-298 6,-553 129,-785 -36,6 -91,-4 -94,-4 -51,-10 -140,-37 -158,-114 -32,-128 139,-254 276,-355 59,-44 115,-85 128,-109 l 16,-30 c -15,-132 -72,-158 -96,-176 -92,-68 -234,18 -365,-77 -74,-53 -43,-120 -43,-120 0,0 86,33 174,55 89,22 88,-13 92,-29 3,-16 2,-46 -42,-66 -45,-21 -88,-51 -88,-51 -129,-23 -138,-131 -130,-158 8,-27 55,-93 129,-26 74,66 125,44 211,21 71,-19 133,-71 145,-114 l 0,-107 -231,-357 30,-5 c 44,-9 79,-3 101,19 18,16 24,38 26,55 24,-2 53,3 74,31 9,12 12,26 12,40 0,21 -7,40 -12,52 27,45 76,48 86,48 43,0 65,-22 75,-45 -2,0 -5,2 -8,2 -36,0 -66,-30 -66,-66 0,-32 24,-59 56,-64 -8,-14 -14,-31 -14,-48 0,-50 40,-91 89,-91 49,0 89,41 89,91 0,17 -6,34 -14,48 31,5 55,31 55,64 0,36 -29,66 -66,66 -2,0 -5,-2 -7,-2 10,23 32,45 75,45 10,0 59,-3 86,-48 -5,-12 -12,-31 -12,-52 0,-14 3,-28 12,-40 21,-28 50,-33 74,-31 2,-17 8,-39 26,-55 22,-22 57,-28 101,-19 l 30,5 -231,356 c 0,0 7,68 2,107 -5,38 -4,53 -4,53 170,52 175,-124 187,-89 54,156 -124,317 -124,317 16,58 19,125 18,185 l 28,-18 c 145,-97 588,-391 830,-906 l 18,-39 19,39 c 90,184 -32,365 -122,498 -38,57 -82,122 -68,139 4,5 10,8 17,8 39,1 111,-64 147,-104 l 51,-59 -16,76 c -1,9 -43,205 -182,275 -67,34 -303,150 -497,205 l -36,5 c -41,4 -110,11 -192,37 l -10,3 c -1,5 -2,9 -2,9 -222,95 -351,318 -278,472 73,155 198,78 264,119 56,34 53,137 -12,199 -84,80 -544,282 -461,409 84,127 188,-47 251,-14 62,33 -11,129 66,179 76,50 130,-87 200,-117 69,-29 175,89 260,58 86,-31 65,-136 134,-181 70,-45 127,-12 190,-31 62,-19 76,-94 76,-94 0,0 273,-150 596,0 246,114 342,296 372,464 61,332 -200,748 -511,721 z m 540,-2708 c -115,97 -66,362 -129,448 -2,42 -45,79 -61,142 -13,46 -69,76 -70,159 -1,82 11,240 -50,348 -61,109 -164,265 -111,393 -158,-101 -401,-46 -401,-46 0,0 56,-189 212,-339 -11,-153 187,-268 197,-396 22,-290 136,-325 177,-399 71,-129 33,-237 216,-342 19,-10 32,-13 39,0 5,10 -10,24 -19,32 z"
          id="path1930"
          inkscape:connector-curvature="0"
          style="fill:#000000" />
      <g
          id="g1932">
         <polygon
             class="fil3"
             points="23377,11650 23377,11553 22983,11553 22983,11650 "
             id="polygon1934"
             style="fill:#ffcc00" />
         <path
             class="fil3"
             d="m 23386,11535 209,-323 c -117,-23 -103,79 -103,79 0,0 -49,-20 -77,18 -23,30 7,81 7,81 -25,51 -75,67 -110,67 -94,0 -105,-86 -106,-106 8,13 22,22 38,22 26,0 46,-20 46,-45 0,-24 -19,-43 -42,-45 l 0,0 c 0,0 -18,0 -48,0 28,-9 48,-36 48,-67 0,-39 -30,-70 -68,-70 -38,0 -68,31 -68,70 0,31 20,58 48,67 -30,0 -48,0 -48,0 l 0,0 c -23,2 -42,21 -42,45 0,25 20,45 45,45 17,0 31,-9 39,-22 -1,20 -12,106 -106,106 -35,0 -85,-16 -110,-67 0,0 30,-51 7,-81 -28,-38 -77,-18 -77,-18 0,0 14,-102 -103,-79 l 209,323 412,0 z"
             id="path1936"
             inkscape:connector-curvature="0"
             style="fill:#ffcc00" />
      </g>
      <path
          class="fil4"
          d="m 24258,13290 c 0,0 112,37 124,190 0,0 47,-147 -63,-205 0,0 -35,-1 -61,15 z m 478,250 c 49,-24 94,-109 91,-168 -23,-20 -73,-43 -73,-43 0,0 31,124 -18,211 z m -478,731 26,22 c 0,0 -1,-56 0,-99 -9,9 -18,70 -26,77 z m 351,8 c 0,0 4,138 152,149 0,0 57,-26 75,-47 0,0 -126,43 -227,-102 z m 335,-227 c 0,0 62,34 135,-28 0,0 9,-39 8,-59 0,0 -66,68 -143,87 z m 12,-285 c 0,0 90,-26 105,-77 -10,-55 -22,-76 -22,-76 0,0 -46,116 -83,153 z m -2828,-2016 c 0,0 68,131 165,211 l 9,-90 c 0,0 192,141 358,174 l 11,-27 c 0,0 -130,-20 -354,-167 l 47,-41 c 0,0 -158,-28 -236,-60 z m 447,1140 c 26,108 232,114 243,97 20,-36 75,-139 120,-249 44,-110 39,-297 39,-297 -45,84 -444,276 -402,449 z m 1122,-671 c 159,-45 359,-136 493,-204 131,-66 171,-260 171,-260 0,0 -141,161 -195,96 -64,-78 323,-363 188,-641 -275,584 -809,889 -875,939 1,18 -12,112 -12,112 118,-36 209,-36 230,-42 z m -254,801 c 28,-61 18,-145 -102,-118 0,0 -65,122 -53,248 0,0 126,-68 155,-130 z m 985,-694 c -80,-99 532,-414 402,-808 -443,576 -837,673 -1118,775 -68,24 -123,5 -252,70 -253,126 -240,304 -210,373 30,69 104,89 176,89 71,1 122,54 121,145 -2,91 -56,180 -242,268 -186,87 -257,202 -257,202 0,0 42,35 133,-20 76,-47 132,20 137,53 4,23 -26,97 9,114 35,17 113,-105 203,-105 85,0 151,66 204,54 54,-11 50,-124 100,-173 62,-60 195,16 247,-46 52,-62 -39,-162 1,-223 112,-169 280,-104 360,-348 0,0 -81,24 -89,-26 -11,-68 328,-253 266,-440 -52,54 -145,102 -191,46 z m -376,965 c -3,4 -9,4 -12,1 -157,-148 -397,-228 -435,-237 -5,-1 -8,-6 -7,-11 1,-4 6,-7 11,-6 39,9 284,91 443,241 4,3 4,9 0,12 z m 309,-502 c 4,-2 9,0 12,4 2,4 0,10 -4,12 -93,45 -205,47 -323,49 -136,2 -290,4 -437,76 -4,2 -9,0 -12,-4 -2,-5 0,-10 5,-12 150,-73 306,-76 444,-78 116,-2 226,-3 315,-47 z m 212,-420 c -71,69 -211,99 -372,135 -229,50 -489,106 -643,289 -3,4 -8,5 -12,2 -4,-4 -4,-9 -1,-13 157,-188 420,-245 652,-296 159,-34 296,-64 363,-130 4,-3 9,-3 13,0 3,4 3,10 0,13 z m -12,487 c 0,0 45,-69 111,-93 0,0 -91,-18 -111,93 z m 193,-329 c 0,0 -31,-84 71,-49 0,0 -56,12 -71,49 z m 102,-341 c 0,0 61,-53 105,-52 0,0 -68,-35 -105,52 z m -1527,-359 c 48,-110 150,-58 221,-121 -29,82 -187,85 -221,121 z m -287,-49 c -81,0 -132,67 -130,74 16,25 48,61 124,61 77,0 126,-69 126,-69 0,0 -40,-66 -120,-66 z m -17,116 c -26,0 -48,-21 -48,-48 0,-26 22,-48 48,-48 27,0 48,22 48,48 0,27 -21,48 -48,48 z"
          id="path1938"
          inkscape:connector-curvature="0"
          style="fill:#999999" />
   </g>
</svg>
