<?xml version="1.0" encoding="UTF-8" standalone="no"?>
<svg
    xmlns:dc="http://purl.org/dc/elements/1.1/"
    xmlns:cc="http://creativecommons.org/ns#"
    xmlns:rdf="http://www.w3.org/1999/02/22-rdf-syntax-ns#"
    xmlns:svg="http://www.w3.org/2000/svg"
    xmlns="http://www.w3.org/2000/svg"
    xmlns:sodipodi="http://sodipodi.sourceforge.net/DTD/sodipodi-0.dtd"
    xmlns:inkscape="http://www.inkscape.org/namespaces/inkscape"
    id="city_nnov"
    data-name="nnov"
    width="52.5mm"
    height="52.5mm"
    viewBox="0 0 148.82 148.82"
    version="1.1"
    inkscape:version="0.91 r13725"
    sodipodi:docname="_kemerovo.svg">
   <metadata
       id="metadata22">
      <rdf:RDF>
         <cc:Work
             rdf:about="">
            <dc:format>image/svg+xml</dc:format>
            <dc:type
                rdf:resource="http://purl.org/dc/dcmitype/StillImage" />
            <dc:title></dc:title>
         </cc:Work>
      </rdf:RDF>
   </metadata>
   <defs
       id="defs20" />
   <sodipodi:namedview
       pagecolor="#ffffff"
       bordercolor="#666666"
       borderopacity="1"
       objecttolerance="10"
       gridtolerance="10"
       guidetolerance="10"
       inkscape:pageopacity="0"
       inkscape:pageshadow="2"
       inkscape:window-width="640"
       inkscape:window-height="480"
       id="namedview18"
       showgrid="false"
       inkscape:zoom="1.268656085"
       inkscape:cx="93.01181102"
       inkscape:cy="93.01181102"
       inkscape:current-layer="city_nnov" />
   <g
       transform="matrix(0.0283466687,0,0,0.0283466716,-1339.496638,-296.6009056)"
       style="clip-rule:evenodd;fill-rule:evenodd;image-rendering:optimizeQuality;shape-rendering:geometricPrecision;text-rendering:geometricPrecision"
       id="kemerovo">
      <path
          id="path28_7"
          class="fil2 str10"
          d="m 51194,13171 c -16,76 -38,150 -66,222 l -261,9 c -14,91 -82,204 -145,248 l 140,184 c -89,100 -191,187 -303,256 l -173,-163 c -86,59 -218,86 -305,99 l 0,246 c -69,11 -140,17 -212,17 -61,0 -122,-4 -181,-13 l -17,-258 c -108,-22 -216,-62 -301,-116 l -171,200 c -119,-70 -227,-160 -319,-264 l 168,-178 -151,-247 -284,-13 c -28,-72 -51,-148 -68,-227 l 2649,-2 z"
          inkscape:connector-curvature="0"
          style="fill:#000000;stroke:#000000;stroke-width:26.4599990845" />
      <path
          id="path30_8"
          class="fil4"
          d="m 50564,12355 c 93,145 149,321 149,511 0,499 -379,905 -846,905 -467,0 -845,-423 -845,-905 0,-482 338,-899 1168,-899 l 606,-6 0,185 c -56,5 -228,66 -281,128 15,29 34,53 49,81 z"
          inkscape:connector-curvature="0"
          style="fill:#999999" />
      <polygon
          id="path34"
          class="fil3"
          points="48757,13126 48466,13126 48709,12856 49006,12856 "
          style="fill:#ffcc00" />
      <polygon
          id="path36"
          class="fil3"
          points="48757,12533 48466,12533 48709,12804 49006,12804 "
          style="fill:#ffcc00" />
      <polygon
          id="path38"
          class="fil3"
          points="47875,12749 47875,12804 48618,12804 48369,12533 47875,12530 47875,12585 48124,12585 48173,12640 47875,12640 47875,12694 48222,12694 48272,12749 "
          sodipodi:nodetypes="ccccccccccccc"
          style="fill:#ffcc00" />
      <polygon
          id="path40"
          class="fil3"
          points="47875,12907 47875,12853 48618,12853 48369,13123 47875,13126 47875,13071 48124,13071 48173,13017 47875,13017 47875,12962 48222,12962 48272,12907 "
          sodipodi:nodetypes="ccccccccccccc"
          style="fill:#ffcc00" />
      <polygon
          id="path44"
          class="fil3"
          points="50993,13126 51284,13126 51041,12856 50744,12856 "
          style="fill:#ffcc00" />
      <polygon
          id="path46"
          class="fil3"
          points="50993,12533 51284,12533 51041,12804 50744,12804 "
          style="fill:#ffcc00" />
      <polygon
          id="path48"
          class="fil3"
          points="51875,12749 51875,12804 51132,12804 51381,12533 51875,12530 51875,12585 51626,12585 51577,12640 51875,12640 51875,12694 51527,12694 51478,12749 "
          sodipodi:nodetypes="ccccccccccccc"
          style="fill:#ffcc00" />
      <polygon
          id="path50"
          class="fil3"
          points="51875,12907 51875,12853 51132,12853 51381,13123 51875,13126 51875,13071 51626,13071 51577,13017 51875,13017 51875,12962 51527,12962 51478,12907 "
          sodipodi:nodetypes="ccccccccccccc"
          style="fill:#ffcc00" />
   </g>
</svg>
