<?xml version="1.0" encoding="UTF-8" standalone="no"?>
<svg
    xmlns:dc="http://purl.org/dc/elements/1.1/"
    xmlns:cc="http://creativecommons.org/ns#"
    xmlns:rdf="http://www.w3.org/1999/02/22-rdf-syntax-ns#"
    xmlns:svg="http://www.w3.org/2000/svg"
    xmlns="http://www.w3.org/2000/svg"
    xmlns:sodipodi="http://sodipodi.sourceforge.net/DTD/sodipodi-0.dtd"
    xmlns:inkscape="http://www.inkscape.org/namespaces/inkscape"
    id="city_nnov"
    data-name="nnov"
    width="52.5mm"
    height="52.5mm"
    viewBox="0 0 148.82 148.82"
    version="1.1"
    inkscape:version="0.91 r13725"
    sodipodi:docname="_murmansk.svg">
   <metadata
       id="metadata22">
      <rdf:RDF>
         <cc:Work
             rdf:about="">
            <dc:format>image/svg+xml</dc:format>
            <dc:type
                rdf:resource="http://purl.org/dc/dcmitype/StillImage" />
            <dc:title></dc:title>
         </cc:Work>
      </rdf:RDF>
   </metadata>
   <defs
       id="defs20" />
   <sodipodi:namedview
       pagecolor="#ffffff"
       bordercolor="#666666"
       borderopacity="1"
       objecttolerance="10"
       gridtolerance="10"
       guidetolerance="10"
       inkscape:pageopacity="0"
       inkscape:pageshadow="2"
       inkscape:window-width="640"
       inkscape:window-height="480"
       id="namedview18"
       showgrid="false"
       inkscape:zoom="1.268656085"
       inkscape:cx="93.01181102"
       inkscape:cy="93.01181102"
       inkscape:current-layer="city_nnov" />
   <g
       transform="matrix(0.0283466687,0,0,0.0283466716,-1190.790014,-446.3530416)"
       style="clip-rule:evenodd;fill-rule:evenodd;image-rendering:optimizeQuality;shape-rendering:geometricPrecision;text-rendering:geometricPrecision"
       id="murmansk">
      <path
          id="path18847"
          class="fil8"
          d="m 44205,19617 -149,124 c -878,-10 -1048,220 -1048,220 133,210 860,291 860,291 8,-242 -130,-360 -130,-360 0,0 -15,-10 -3,-30 11,-20 46,-1 46,-1 85,70 120,130 140,304 26,228 105,210 105,210 -25,-30 -1,-93 -1,-93 713,20 1253,-107 1333,-147 80,-40 104,-5 139,20 35,25 175,15 210,-50 35,-65 179,-74 179,-74 175,-10 360,69 360,69 -10,-104 -185,-209 -185,-209 80,-65 43,-207 43,-207 0,0 -128,152 -367,217 -241,65 -709,-30 -709,-30 l -9,-95 c -544,30 -814,-159 -814,-159 z m -652,190 c 47,0 86,39 86,86 0,48 -39,86 -86,86 -48,0 -86,-38 -86,-86 0,-47 38,-86 86,-86 z"
          inkscape:connector-curvature="0"
          style="fill:#999999;fill-rule:nonzero" />
      <path
          id="path19737"
          class="fil10"
          d="m 44018,18370 0,555 -184,0 -73,-73 -707,0 c 0,0 53,362 293,362 l 2676,0 176,-124 0,-120 -667,0 0,-517 -101,0 0,517 -281,0 0,-112 -71,-71 -203,0 0,-263 -154,0 -60,104 -277,0 0,297 -266,0 0,-555 -101,0 z"
          inkscape:connector-curvature="0"
          style="fill:#000000;fill-rule:nonzero" />
      <g
          id="g2259">
         <path
             id="path21515"
             class="fil3"
             d="m 42667,16883 486,1520 -486,-1520 z m 0,0 0,0 0,0 z m 246,-17 443,1514 -443,-1514 z m 0,0 0,0 0,0 z m 214,-169 360,1541 -360,-1541 z m 0,0 0,0 0,0 z m 521,1444 -330,-1687 330,1687 z m 0,0 0,0 0,0 z m -131,-1766 300,1694 -300,-1694 z m 0,0 0,0 0,0 z m 195,90 240,1559 -240,-1559 z m 0,0 0,0 0,0 z m 404,1638 -138,-1211 138,1211 z m 0,0 0,0 0,0 z m 72,-1199 82,1289 -82,-1289 z m 0,0 0,0 0,0 z m 266,1225 c 4,-18 -68,-1375 -68,-1375 l 68,1375 z m 0,0 0,0 0,0 z m 184,-1499 3,1331 -3,-1331 z m 0,0 0,0 0,0 z m 236,1263 -4,-1267 4,1267 z m 0,0 0,0 0,0 z m 240,-1199 -38,1060 38,-1060 z m 0,0 0,0 0,0 z m 123,1083 79,-1016 -79,1016 z m 0,0 0,0 0,0 z m 244,-926 -94,952 94,-952 z m 0,0 0,0 0,0 z m 82,888 94,-985 -94,985 z m 0,0 0,0 0,0 z m 300,-1079 -116,948 116,-948 z m 0,0 0,0 0,0 z m 60,900 154,-994 -154,994 z m 0,0 0,0 0,0 z m 293,-769 -150,918 150,-918 z m 0,0 0,0 0,0 z m 0,1008 157,-884 -157,884 z m 0,0 0,0 0,0 z m 371,-982 -195,919 195,-919 z m 0,0 0,0 0,0 z"
             sodipodi:nodetypes="cc"
             inkscape:connector-curvature="0"
             style="fill:#ffcc00" />
         <path
             id="path2262"
             class="fil9"
             d="m 43115,18415 -486,-1520 76,-24 486,1520 -76,24 z m -448,-1532 0,0 0,0 0,0 z m 0,0 0,0 0,0 0,0 z m 650,1509 -442,-1515 76,-22 443,1514 -77,23 z m -404,-1526 0,0 0,0 0,0 z m 0,0 0,0 0,0 0,0 z m 535,1381 -360,-1541 78,-18 359,1541 -77,18 z m -321,-1550 0,0 0,0 0,0 z m 0,0 0,0 0,0 0,0 z m 230,-251 330,1687 -78,15 -330,-1687 78,-15 z m 291,1695 0,0 0,0 0,0 z m 0,0 0,0 0,0 0,0 z m 129,-65 -299,-1694 78,-14 300,1694 -79,14 z m -260,-1701 0,0 0,0 0,0 z m 0,0 0,0 0,0 0,0 z m 395,1655 -240,-1559 79,-12 240,1559 -79,12 z m -200,-1565 0,0 0,0 0,0 z m 0,0 0,0 0,0 0,0 z m 305,423 139,1211 -79,9 -139,-1211 79,-9 z m 99,1215 0,0 0,0 0,0 z m 0,0 0,0 0,0 0,0 z m 114,93 -82,-1290 79,-5 83,1289 -80,6 z m -42,-1292 0,0 0,0 0,0 z m 0,0 0,0 0,0 0,0 z m 159,-148 79,-4 0,3 1,12 1,18 1,25 2,31 2,36 2,41 2,46 3,50 2,53 3,56 3,59 4,61 3,62 3,63 3,64 3,64 4,64 3,63 3,61 3,59 3,57 2,54 3,51 2,46 2,43 1,37 2,32 1,27 0,20 1,13 -1,14 -78,-15 -1,2 0,-12 -1,-20 -1,-26 -1,-31 -2,-38 -2,-42 -2,-47 -2,-50 -3,-54 -3,-57 -3,-59 -3,-61 -3,-63 -3,-64 -3,-64 -3,-63 -4,-64 -3,-62 -3,-61 -3,-59 -3,-56 -3,-53 -2,-50 -3,-46 -2,-41 -2,-36 -1,-31 -2,-25 -1,-18 0,-11 0,-4 z m 107,1373 0,0 0,0 0,0 z m 0,0 0,0 0,0 0,0 z m 148,-168 -4,-1331 79,0 4,1331 -79,0 z m 36,-1331 0,0 0,0 0,0 z m 0,0 0,0 0,0 0,0 z m 272,-4 3,1267 -79,0 -4,-1267 80,0 z m -36,1267 0,0 0,0 0,0 z m 0,0 0,0 0,0 0,0 z m 162,-140 38,-1061 79,3 -37,1061 -80,-3 z m 78,-1059 0,0 0,0 0,0 z m 0,0 0,0 0,0 0,0 z m 242,70 -79,1016 -79,-6 78,-1016 80,6 z m -119,1013 0,0 0,0 0,0 z m 0,0 0,0 0,0 0,0 z m 111,22 93,-952 80,8 -94,952 -79,-8 z m 133,-948 0,0 0,0 0,0 z m 0,0 0,0 0,0 0,0 z m 216,-94 -94,986 -79,-7 94,-986 79,7 z m -134,982 0,0 0,0 0,0 z m 0,0 0,0 0,0 0,0 z m 145,-136 116,-948 79,10 -116,948 -79,-10 z m 155,-943 0,0 0,0 0,0 z m 0,0 0,0 0,0 0,0 z m 253,-88 -153,994 -79,-13 154,-993 78,12 z m -193,988 0,0 0,0 0,0 z m 0,0 0,0 0,0 0,0 z m 103,143 150,-918 79,12 -150,919 -79,-13 z m 190,-912 0,0 0,0 0,0 z m 0,0 0,0 0,0 0,0 z m 196,131 -157,884 -78,-14 157,-884 78,14 z m -196,877 0,0 0,0 0,0 z m 0,0 0,0 0,0 0,0 z m 137,-72 195,-918 78,17 -195,918 -78,-17 z m 234,-910 0,0 0,0 0,0 z m 0,0 0,0 0,0 0,0 z"
             inkscape:connector-curvature="0"
             style="fill:#ffcc00;fill-rule:nonzero" />
      </g>
   </g>
</svg>
