<?xml version="1.0" encoding="UTF-8" standalone="no"?>
<svg
    xmlns:dc="http://purl.org/dc/elements/1.1/"
    xmlns:cc="http://creativecommons.org/ns#"
    xmlns:rdf="http://www.w3.org/1999/02/22-rdf-syntax-ns#"
    xmlns:svg="http://www.w3.org/2000/svg"
    xmlns="http://www.w3.org/2000/svg"
    xmlns:sodipodi="http://sodipodi.sourceforge.net/DTD/sodipodi-0.dtd"
    xmlns:inkscape="http://www.inkscape.org/namespaces/inkscape"
    id="city_nnov"
    data-name="nnov"
    width="52.5mm"
    height="52.5mm"
    viewBox="0 0 148.82 148.82"
    version="1.1"
    inkscape:version="0.91 r13725"
    sodipodi:docname="_murom.svg">
   <metadata
       id="metadata22">
      <rdf:RDF>
         <cc:Work
             rdf:about="">
            <dc:format>image/svg+xml</dc:format>
            <dc:type
                rdf:resource="http://purl.org/dc/dcmitype/StillImage" />
            <dc:title />
         </cc:Work>
      </rdf:RDF>
   </metadata>
   <defs
       id="defs20" />
   <sodipodi:namedview
       pagecolor="#ffffff"
       bordercolor="#666666"
       borderopacity="1"
       objecttolerance="10"
       gridtolerance="10"
       guidetolerance="10"
       inkscape:pageopacity="0"
       inkscape:pageshadow="2"
       inkscape:window-width="640"
       inkscape:window-height="480"
       id="namedview18"
       showgrid="false"
       inkscape:zoom="3.075715586"
       inkscape:cx="64.83694427"
       inkscape:cy="75.08496595"
       inkscape:current-layer="city_nnov" />
   <g
       id="murom">
      <path
          class="fil3"
          d="m 37.871162,78.88604292 c -2.91206858,0 -2.38006255,2.0720488 -3.38808795,2.7440658 -1.0080254,0.7000216 -2.60406474,1.708047 -8.73621879,3.4720902 -6.16014837,1.7920486 -9.63223827,4.7601268 -9.74424418,9.29624008 -0.11199627,4.5081096 3.5280879,10.5282677 14.14035753,13.2723324 10.61226964,2.7440658 19.68449792,-0.083962 23.6045919,-1.6800416 3.9200954,-1.6240444 7.75619734,-5.9361558 7.39218558,-10.8642752 -0.36400212,-4.92812108 -5.29213283,-8.14820508 -8.37220702,-9.46423438 -3.05208015,-1.2880352 -12.46031482,-2.8840759 -12.62831872,-3.5000953 -0.1680056,-0.6160181 0.3360078,-1.0360279 -0.0280536,-1.9320474 -0.36400354,-0.8960195 -1.09202734,-1.3440346 -2.24005269,-1.3440346 z m -2.10005274,5.656146 c -0.36401177,0.056008 -1.14802535,1.4840334 -4.98412729,3.1080782 -3.83609345,1.6240433 -6.41215423,2.5480664 -7.39218559,4.2281094 -0.98002116,1.70803528 -0.5600114,3.55608188 -0.3360078,3.64008388 0.25200585,0.083963 7.16818199,-3.47208 14.05635558,-3.55608188 6.91617613,-0.083964 13.91634571,2.66006268 14.22435948,2.52006248 0.28000017,-0.1680039 0.64401363,-2.2400627 -2.10005247,-3.92010538 -2.7440763,-1.7080353 -3.72409604,-2.2680566 -6.80417022,-3.360084 -3.05208015,-1.0920273 -4.11610354,-1.3160295 -5.06813094,-1.7360392 -0.98002115,-0.3920075 -1.3440332,-0.9520274 -1.59604075,-0.9240235 z"
          id="path3646"
          inkscape:connector-curvature="0"
          style="clip-rule:evenodd;fill:#999999;fill-rule:evenodd" />
      <path
          style="clip-rule:evenodd;fill:#ffcc00;fill-rule:evenodd"
          inkscape:connector-curvature="0"
          id="path3334"
          d="m 72.28403196,45.31319502 c -2.91207936,0 -2.38006256,2.04405475 -3.38808796,2.74407517 -1.00802539,0.67201674 -2.63206954,1.68004214 -8.7642233,3.47207998 -6.13215434,1.76404494 -9.60424424,4.76012625 -9.74424418,9.26823645 -0.11200591,4.536113 3.52808789,10.5562708 14.14035838,13.3003357 10.61226934,2.7440664 19.68449678,-0.083962 23.60459161,-1.7080455 3.92009426,-1.6240345 7.75619734,-5.9361459 7.39218558,-10.8642755 -0.36401318,-4.92812021 -5.29213283,-8.14820426 -8.34421298,-9.43623039 -3.08007419,-1.28803521 -12.48830971,-2.91207936 -12.65631361,-3.50009386 -0.1400008,-0.61600883 0.3360078,-1.06402339 -0.0280536,-1.96004288 -0.36400269,-0.8680246 -1.09202735,-1.31603917 -2.21204873,-1.31603917 z m -2.1000519,5.6561446 c -0.36401261,0.0560079 -1.17603015,1.484034 -5.01213266,3.10807814 -3.83609345,1.59603991 -6.41216415,2.52006335 -7.39218559,4.22810945 -0.95202712,1.70803591 -0.5600114,3.55608281 -0.30800384,3.64008441 0.22400189,0.083962 7.14017888,-3.47208051 14.02835134,-3.55608246 6.91617698,-0.0839623 13.94434966,2.66006326 14.22435948,2.49205936 0.28000102,-0.1399999 0.64401335,-2.21205862 -2.10005162,-3.92009451 -2.74407545,-1.68004299 -3.72409689,-2.24006375 -6.77617703,-3.33209109 -3.08007419,-1.09202735 -4.11610354,-1.3440332 -5.09612498,-1.73603985 -0.98002031,-0.42001089 -1.3440332,-0.98002144 -1.5680351,-0.92402345 z"
          class="fil3"
          sodipodi:nodetypes="ccccsssccccccccccccccc" />
      <path
          class="fil3"
          d="m 104.148825,78.24203072 c -2.9960723,0 -2.436062,2.0720488 -3.4720814,2.7440649 -1.03602939,0.7000216 -2.688067,1.7080464 -8.98822467,3.4720914 -6.27216391,1.7920472 -9.85625065,4.7601154 -9.96825656,9.29622868 -0.11199599,4.5081193 3.6120907,10.5282677 14.4763659,13.2723434 10.89227943,2.744065 20.18850983,-0.083964 24.22061083,-1.7080463 4.0040977,-1.5960394 7.9242019,-5.9081508 7.5601895,-10.8362718 -0.3640117,-4.92813078 -5.4041387,-8.14820488 -8.5682148,-9.46424408 -3.1360821,-1.2880255 -12.7683204,-2.8840759 -12.9363243,-3.5000842 -0.1680039,-0.616019 0.3080044,-1.0640333 -0.056008,-1.9320483 -0.3640131,-0.8960294 -1.1200313,-1.3440337 -2.2680665,-1.3440337 z m -2.1560508,5.6561449 c -0.3640132,0.056008 -1.2040332,1.4840331 -5.12412891,3.1080778 -3.92009511,1.6240334 -6.58016804,2.5480568 -7.58819344,4.2280995 -0.98002144,1.70804698 -0.56001111,3.55609218 -0.30800384,3.64009408 0.25200585,0.083962 7.30818221,-3.47208988 14.39236339,-3.55609208 7.0841817,-0.083962 14.280358,2.66007258 14.5603678,2.52006278 0.2800013,-0.1680039 0.6720176,-2.24005268 -2.1560606,-3.92009398 -2.800063,-1.7080467 -3.8080884,-2.2680566 -6.9441699,-3.360084 -3.1360821,-1.0920273 -4.2281095,-1.3160309 -5.2081309,-1.736041 -1.0080254,-0.3920157 -1.3720377,-0.9520271 -1.6240436,-0.9240231 z"
          id="path3336"
          inkscape:connector-curvature="0"
          style="clip-rule:evenodd;fill:#000000;fill-rule:evenodd"
          sodipodi:nodetypes="ccccccscsccccsccsccscc" />
   </g>
</svg>
