<?xml version="1.0" encoding="UTF-8" standalone="no"?>
<svg
    xmlns:dc="http://purl.org/dc/elements/1.1/"
    xmlns:cc="http://creativecommons.org/ns#"
    xmlns:rdf="http://www.w3.org/1999/02/22-rdf-syntax-ns#"
    xmlns:svg="http://www.w3.org/2000/svg"
    xmlns="http://www.w3.org/2000/svg"
    xmlns:sodipodi="http://sodipodi.sourceforge.net/DTD/sodipodi-0.dtd"
    xmlns:inkscape="http://www.inkscape.org/namespaces/inkscape"
    id="city_nnov"
    data-name="nnov"
    width="52.5mm"
    height="52.5mm"
    viewBox="0 0 148.82 148.82"
    version="1.1"
    inkscape:version="0.91 r13725"
    sodipodi:docname="_nab-chelny.svg">
   <metadata
       id="metadata22">
      <rdf:RDF>
         <cc:Work
             rdf:about="">
            <dc:format>image/svg+xml</dc:format>
            <dc:type
                rdf:resource="http://purl.org/dc/dcmitype/StillImage" />
            <dc:title />
         </cc:Work>
      </rdf:RDF>
   </metadata>
   <defs
       id="defs20" />
   <sodipodi:namedview
       pagecolor="#ffffff"
       bordercolor="#666666"
       borderopacity="1"
       objecttolerance="10"
       gridtolerance="10"
       guidetolerance="10"
       inkscape:pageopacity="0"
       inkscape:pageshadow="2"
       inkscape:window-width="640"
       inkscape:window-height="480"
       id="namedview18"
       showgrid="false"
       inkscape:zoom="2.812249248"
       inkscape:cx="112.2553416"
       inkscape:cy="81.22679744"
       inkscape:current-layer="city_nnov" />
   <g
       transform="matrix(0.0283466687,0,0,0.0283466716,-0.4881975883,-595.1603062)"
       style="clip-rule:evenodd;fill-rule:evenodd;image-rendering:optimizeQuality;shape-rendering:geometricPrecision;text-rendering:geometricPrecision"
       id="nab-chelny">
      <path
          class="fil3"
          d="m 1552,23520 c 48,-5 48,-4 95,-16 138,-36 294,56 279,181 -18,145 -95,186 -96,285 -1,116 239,120 221,74 -28,-75 23,-115 58,-72 -54,-30 -44,25 -25,69 47,107 -153,114 -235,29 -68,-70 -46,-115 1,-235 57,-148 85,-238 -46,-305 -58,-29 -145,-20 -191,-4 -49,17 -61,-6 -61,-6 l 0,0 z"
          id="path1942"
          inkscape:connector-curvature="0"
          style="fill:#ffcc00" />
      <polygon
          class="fil2"
          points="2318,21702 2369,21691 2392,24576 2316,24584 "
          id="polygon1944"
          style="fill:#000000" />
      <circle
          class="fil2"
          cx="2348"
          cy="21680"
          r="55"
          id="circle1946"
          style="fill:#000000" />
      <polygon
          class="fil3"
          points="3125,24442 3874,24415 4047,24370 3961,24570 3861,24712 3763,24795 2935,24819 1936,24753 1460,24563 1304,24166 1377,23883 1491,23738 1432,23728 1422,23698 1425,23684 1420,23676 1424,23663 1408,23648 1434,23560 1480,23499 1581,23507 1650,23555 1688,23634 1674,23983 1857,24215 2058,24303 2327,24367 "
          id="polygon1948"
          style="fill:#ffcc00" />
      <path
          class="fil2"
          d="m 1451,23527 c -13,13 -28,31 -31,57 -1,7 3,13 1,20 -8,25 -14,32 -28,46 l 25,12 c 0,0 -2,6 -10,12 4,7 9,7 14,10 -4,4 -12,12 -7,18 4,6 9,2 11,6 3,6 -5,17 -1,20 25,17 59,17 68,9 l 24,-21 c -40,14 -66,17 -79,3 -5,-5 6,-9 1,-19 -4,-7 -9,-1 -12,-5 -4,-5 3,-9 8,-11 -7,-3 -7,-4 -13,-10 7,-6 7,-9 9,-15 -6,-3 -10,-6 -20,-10 11,-15 14,-20 22,-41 2,-4 0,-8 -1,-14 10,-5 39,-3 52,4 -12,-10 -27,-17 -53,-13 6,-14 20,-42 30,-53 l -10,-5 z"
          id="path1950"
          inkscape:connector-curvature="0"
          style="fill:#000000" />
      <path
          class="fil3"
          d="m 3576,22662 c -127,-89 -348,-68 -444,33 -440,460 215,1469 783,1567 -266,49 -1281,-31 -1772,-602 -141,-163 -229,-374 -290,-588 -60,-209 -164,-374 -310,-406 -107,-23 -233,-3 -338,72 -30,-229 89,-526 416,-543 22,-186 272,-314 443,-232 72,-194 437,-264 594,-35 131,-77 423,-13 481,258 291,-9 446,280 437,476 l 0,0 z"
          id="path1952"
          inkscape:connector-curvature="0"
          style="fill:#ffcc00" />
      <path
          class="fil4"
          d="m 1986,23189 c -83,-340 -178,-621 -498,-628 -62,-1 -121,-4 -194,46 34,-189 221,-351 398,-319 0,-164 165,-331 424,-216 30,-231 421,-272 506,-40 110,-101 433,-41 448,235 242,-26 369,135 418,277 -165,-90 -344,5 -424,84 -25,24 -194,192 -174,488 -108,-87 -512,-106 -904,73 l 0,0 z"
          id="path1954"
          inkscape:connector-curvature="0"
          style="fill:#999999" />
      <path
          class="fil2"
          d="m 2034,23276 c 384,-207 846,-115 855,-75 38,184 110,372 205,517 187,286 440,459 541,492 -243,-20 -827,-147 -1164,-375 -216,-147 -367,-336 -437,-559 z"
          id="path1956"
          inkscape:connector-curvature="0"
          style="fill:#999999" />
      <circle
          class="fil3"
          cx="2084"
          cy="22586"
          r="68"
          id="circle1958"
          style="fill:#ffcc00" />
      <circle
          class="fil3"
          cx="2399"
          cy="22431"
          r="68"
          id="circle1960"
          style="fill:#ffcc00" />
      <circle
          class="fil3"
          cx="2721"
          cy="22541"
          r="68"
          id="circle1962"
          style="fill:#ffcc00" />
      <path
          class="fil2"
          d="m 1434,23603 c 0,0 7,1 13,3 -2,4 -3,10 2,14 0,0 5,0 10,-1 5,-1 9,-3 12,-4 -3,-3 -10,-7 -16,-9 -10,-2 -21,-3 -21,-3 z"
          id="path1964"
          inkscape:connector-curvature="0"
          style="fill:#000000" />
      <path
          class="fil2"
          d="m 1503,23516 c 39,7 68,14 90,27 -4,1 -9,2 -13,3 -21,-12 -49,-20 -83,-24 28,7 51,16 70,26 -4,1 -8,2 -12,3 -16,-9 -36,-16 -58,-22 18,8 34,16 47,24 -4,1 -8,3 -12,4 -17,-11 -36,-20 -56,-26 16,6 34,15 50,27 -4,2 -8,3 -11,4 -8,-5 -18,-10 -29,-15 -12,-6 -17,-11 -42,-13 l -13,22 c -1,1 13,-7 32,-2 16,5 33,16 46,29 0,2 0,3 1,2 22,24 33,55 18,83 -20,39 -41,56 -71,90 -97,114 -167,240 -175,370 -11,185 43,342 191,488 54,53 144,124 237,172 52,27 104,51 151,51 53,-1 53,-20 102,-22 50,-1 74,-15 124,-16 51,-2 62,18 112,20 50,2 55,37 112,35 57,-1 37,22 88,22 51,0 82,-59 130,-59 47,0 56,-18 100,-20 43,-2 83,18 127,20 45,2 93,62 138,62 46,0 68,-41 108,-41 41,0 89,-41 140,-41 52,0 59,20 117,20 57,0 46,40 102,39 56,-1 39,3 94,2 50,-1 59,-36 107,-36 21,1 73,-19 121,-19 50,0 61,5 163,18 158,-87 206,-326 246,-417 l 29,-10 c 0,0 -32,-54 -14,-121 13,-51 48,-63 73,-48 -13,-4 -45,14 -35,48 10,33 77,33 86,-15 15,-83 -83,-112 -134,-82 -67,40 -70,112 -86,161 -55,28 -429,78 -701,83 -49,-2 -316,1 -592,-27 -409,-41 -861,-89 -995,-415 -60,-148 29,-306 -55,-426 -1,-1 -1,-2 -2,-3 48,-4 115,-2 133,34 20,40 -31,129 -36,152 -15,60 33,103 92,122 61,19 116,15 125,-25 7,-29 -3,-35 0,-61 3,-29 81,-28 117,-25 -32,-16 -157,-16 -145,37 4,17 1,41 -28,50 -78,26 -141,-19 -140,-97 1,-62 69,-92 33,-158 -21,-40 -113,-48 -149,-46 -4,1 -9,1 -14,2 -39,-42 -89,-52 -149,-44 1,0 3,1 -1,20 31,-9 90,10 112,28 l 1,0 c -4,1 -8,1 -12,2 -26,-18 -59,-25 -102,-26 l 0,0 z m 31,60 c 3,-1 7,-2 10,-3 12,11 22,23 27,36 11,27 7,55 -8,83 -27,48 -62,91 -90,136 -42,65 -73,131 -88,199 -16,73 -11,167 14,242 26,75 68,139 121,188 237,222 570,226 779,248 57,6 550,37 957,45 265,5 409,-16 468,-21 35,-14 51,-21 84,-45 -36,6 -88,12 -136,16 -113,9 -272,18 -439,15 -384,-6 -817,-42 -903,-49 -137,-12 -274,-24 -405,-59 -229,-61 -407,-192 -463,-317 -57,-127 -51,-193 -35,-282 6,-38 21,-92 46,-136 55,-95 36,-57 75,-119 34,-55 52,-101 37,-141 -5,-15 -17,-29 -33,-42 3,-1 7,-2 10,-3 30,25 40,51 38,80 -3,80 -50,131 -81,184 -66,110 -83,183 -67,310 8,70 39,126 79,182 39,55 91,113 168,152 77,40 162,78 247,98 137,33 273,46 389,58 26,3 479,37 881,47 115,3 222,4 313,0 157,-7 273,-22 302,-25 l 34,-40 c -123,13 -334,38 -663,33 -254,-5 -550,-18 -834,-49 -150,-17 -285,-32 -418,-70 -48,-14 -98,-31 -147,-53 -60,-25 -120,-58 -174,-107 -44,-42 -92,-115 -124,-184 -44,-93 -27,-225 23,-314 26,-46 82,-141 86,-211 2,-44 -12,-73 -38,-94 4,-1 8,-2 12,-3 2,2 5,4 7,6 36,33 39,77 26,125 -11,44 -19,65 -34,99 -8,16 -17,39 -29,64 -86,167 -30,344 97,470 89,88 184,130 314,167 122,34 251,53 360,65 76,8 493,46 868,54 352,8 672,-32 685,-31 l 28,-45 c -19,1 -380,57 -725,40 -277,-13 -562,-22 -844,-59 -189,-25 -374,-53 -541,-148 -51,-28 -91,-60 -132,-103 -24,-26 -52,-53 -70,-92 -44,-97 -55,-190 -30,-287 9,-35 36,-85 54,-134 21,-62 37,-144 -22,-193 4,-1 8,-1 12,-2 53,49 44,128 27,185 -26,82 -56,161 -57,236 -3,109 54,195 120,258 133,128 287,185 462,217 123,22 251,37 376,46 152,12 599,57 993,39 182,-9 380,-34 390,-35 13,-15 22,-30 33,-49 -177,31 -368,47 -547,49 -418,5 -964,-45 -1189,-87 -204,-38 -314,-67 -468,-200 -87,-75 -137,-174 -138,-260 -1,-118 67,-256 48,-331 -6,-23 -20,-50 -40,-69 4,-1 7,-1 11,-2 39,39 51,91 43,146 -19,130 -42,179 -30,275 10,89 86,188 167,248 109,81 228,116 300,134 175,44 392,63 574,76 203,15 413,38 609,37 282,0 622,-37 714,-57 -44,125 -114,258 -203,320 -97,68 -351,50 -434,51 -225,5 -542,-5 -905,-29 -383,-25 -686,-57 -896,-201 -108,-74 -179,-167 -217,-308 -11,-43 -21,-98 0,-212 16,-87 77,-171 130,-251 39,-59 97,-117 71,-178 -5,-11 -12,-21 -22,-29 l 0,0 z"
          id="path1966"
          inkscape:connector-curvature="0"
          style="fill:#000000" />
      <path
          class="fil2"
          d="m 3142,24337 32,-14 c 0,0 16,243 54,318 38,74 261,325 352,439 l -165,-14 c -63,-109 -160,-256 -207,-382 -30,-81 -58,-256 -66,-347 z"
          id="path1968"
          inkscape:connector-curvature="0"
          style="fill:#000000" />
      <path
          class="fil2"
          d="m 1430,23556 c 20,1 55,5 82,32 l 1,-97 c -20,3 -33,3 -53,7 -12,15 -24,41 -30,58 z"
          id="path1970"
          inkscape:connector-curvature="0"
          style="fill:#000000" />
      <path
          class="fil2"
          d="m 3240,24341 30,-18 c 0,0 58,276 104,346 46,70 281,281 384,384 l -154,-8 c -75,-101 -185,-211 -245,-331 -38,-76 -73,-186 -119,-373 z"
          id="path1972"
          inkscape:connector-curvature="0"
          style="fill:#000000" />
      <path
          class="fil2"
          d="m 3344,24343 34,-16 c 0,0 97,292 152,355 55,63 319,235 435,324 l -185,8 c -87,-91 -183,-175 -259,-286 -48,-71 -147,-299 -177,-385 l 0,0 z"
          id="path1974"
          inkscape:connector-curvature="0"
          style="fill:#000000" />
      <path
          class="fil2"
          d="m 3036,24328 37,-10 c 0,0 -12,219 15,299 27,79 214,360 287,485 l -151,-23 c -47,-118 -133,-291 -161,-423 -18,-84 -32,-237 -27,-328 z"
          id="path1976"
          inkscape:connector-curvature="0"
          style="fill:#000000" />
      <path
          class="fil2"
          d="m 2921,24324 36,-6 c 0,0 -33,204 -14,285 18,82 171,377 230,510 l -145,-32 c -34,-121 -101,-307 -115,-441 -9,-85 -6,-226 8,-316 z"
          id="path1978"
          inkscape:connector-curvature="0"
          style="fill:#000000" />
      <path
          class="fil2"
          d="m 2781,24309 39,-3 c 0,0 -49,179 -38,262 10,83 142,405 188,543 l -141,-39 c -22,-124 -81,-334 -82,-468 0,-86 11,-207 34,-295 z"
          id="path1980"
          inkscape:connector-curvature="0"
          style="fill:#000000" />
      <path
          class="fil2"
          d="m 2644,24298 37,1 c -20,65 -58,174 -53,258 5,83 111,402 148,543 l -144,-52 c -15,-125 -46,-325 -39,-459 5,-87 23,-205 51,-291 z"
          id="path1982"
          inkscape:connector-curvature="0"
          style="fill:#000000" />
      <path
          class="fil4"
          d="m 894,25119 c 0,0 179,-75 299,-66 131,9 252,72 404,58 -52,43 -100,82 -220,70 -120,-12 -158,-76 -290,-82 -132,-6 -193,20 -193,20 z m 51,427 c 31,-19 210,-86 301,-61 109,31 233,84 316,62 -46,33 -73,56 -165,55 -93,-2 -162,-63 -278,-70 -115,-7 -174,14 -174,14 l 0,0 z m 1405,-184 c -83,3 -182,-25 -273,-57 -98,-35 -190,-74 -307,-77 -129,-3 -268,87 -294,105 48,-10 213,-40 318,-32 149,12 404,82 556,61 z m -308,-134 c 141,-95 363,-120 466,-105 122,19 262,105 396,105 -86,30 -188,39 -293,22 -106,-17 -191,-67 -311,-74 -120,-6 -258,52 -258,52 z m 166,333 c 53,-39 197,-83 300,-70 118,15 214,85 384,77 -51,35 -106,70 -211,52 -106,-17 -150,-77 -270,-83 -120,-6 -203,24 -203,24 l 0,0 z m 1459,-42 c 30,-19 210,-86 300,-61 109,31 234,84 316,62 -45,33 -72,56 -165,55 -93,-2 -162,-63 -277,-70 -115,-6 -174,14 -174,14 l 0,0 z m -794,-160 c 84,3 182,-24 274,-57 97,-35 189,-83 306,-74 171,13 292,144 369,113 -16,26 -56,41 -98,35 -119,-18 -237,-89 -361,-85 -113,4 -337,89 -490,68 z m 806,-272 c 0,0 180,-75 300,-66 131,9 240,87 392,74 -52,42 -84,86 -201,68 -117,-17 -166,-89 -297,-96 -132,-6 -194,20 -194,20 z m -890,-109 c 0,0 180,-75 300,-67 131,10 240,88 392,74 -52,43 -84,86 -201,69 -117,-18 -166,-90 -297,-97 -132,-6 -194,21 -194,21 z m -1063,-7 c 0,0 163,-75 271,-66 119,9 214,70 355,73 -53,33 -69,58 -176,51 -108,-8 -156,-72 -275,-78 -119,-7 -175,20 -175,20 z m -975,-119 c 84,1 157,-70 261,-71 104,-1 176,73 267,74 92,1 168,-75 270,-75 101,0 183,72 267,73 83,1 162,-72 268,-73 106,-1 175,72 268,73 92,1 168,-75 270,-75 101,0 183,72 267,73 83,1 170,-74 269,-73 100,1 178,76 267,77 93,2 169,-75 270,-75 102,0 183,72 267,73 88,1 167,-73 271,-74 104,0 184,69 268,70 l 0,38 c -94,0 -167,-69 -269,-70 -102,0 -173,71 -270,71 -94,0 -158,-70 -267,-71 -94,0 -174,73 -270,73 -93,0 -167,-76 -267,-76 -99,-1 -175,72 -269,72 -94,0 -158,-71 -267,-71 -94,-1 -174,73 -270,73 -94,0 -168,-71 -267,-71 -99,-1 -181,71 -269,71 -94,0 -158,-71 -267,-71 -95,-1 -174,73 -270,73 -94,0 -169,-69 -267,-70 -98,0 -175,69 -261,69 l 0,-37 z"
          id="path1984"
          inkscape:connector-curvature="0"
          style="fill:#999999" />
   </g>
</svg>
