<?xml version="1.0" encoding="UTF-8" standalone="no"?>
<svg
    xmlns:dc="http://purl.org/dc/elements/1.1/"
    xmlns:cc="http://creativecommons.org/ns#"
    xmlns:rdf="http://www.w3.org/1999/02/22-rdf-syntax-ns#"
    xmlns:svg="http://www.w3.org/2000/svg"
    xmlns="http://www.w3.org/2000/svg"
    xmlns:sodipodi="http://sodipodi.sourceforge.net/DTD/sodipodi-0.dtd"
    xmlns:inkscape="http://www.inkscape.org/namespaces/inkscape"
    id="city_nnov"
    data-name="nnov"
    width="52.5mm"
    height="52.5mm"
    viewBox="0 0 148.82 148.82"
    version="1.1"
    inkscape:version="0.91 r13725"
    sodipodi:docname="_norilsk.svg">
   <metadata
       id="metadata22">
      <rdf:RDF>
         <cc:Work
             rdf:about="">
            <dc:format>image/svg+xml</dc:format>
            <dc:type
                rdf:resource="http://purl.org/dc/dcmitype/StillImage" />
            <dc:title />
         </cc:Work>
      </rdf:RDF>
   </metadata>
   <defs
       id="defs20" />
   <sodipodi:namedview
       pagecolor="#ffffff"
       bordercolor="#666666"
       borderopacity="1"
       objecttolerance="10"
       gridtolerance="10"
       guidetolerance="10"
       inkscape:pageopacity="0"
       inkscape:pageshadow="2"
       inkscape:window-width="640"
       inkscape:window-height="480"
       id="namedview18"
       showgrid="false"
       inkscape:zoom="7.759503533"
       inkscape:cx="94.69291391"
       inkscape:cy="139.9071468"
       inkscape:current-layer="city_nnov" />
   <g
       transform="matrix(0.0283466687,0,0,0.0283466716,-744.7016376,-595.1679807)"
       style="clip-rule:evenodd;fill-rule:evenodd;image-rendering:optimizeQuality;shape-rendering:geometricPrecision;text-rendering:geometricPrecision"
       id="norilsk">
      <path
          class="fil4"
          d="m 28659,22480 c -2,-81 -14,-21 28,-68 57,159 -11,125 -11,125 -4,-13 -17,-45 -17,-57 z m -1,-168 c 107,0 65,-14 102,54 l -97,21 -5,-75 z m -1145,103 -44,-1 c -247,77 -157,1 -327,5 40,342 364,5 560,461 170,398 101,399 387,638 l -3,-108 c 144,54 183,142 265,179 l 6,-142 c 113,123 120,383 140,551 26,232 66,370 110,576 l 53,-75 121,393 c 46,23 -12,6 25,6 2,0 9,-5 11,-5 l 48,127 c 21,21 37,39 61,57 85,-56 19,-41 91,-121 l 79,-310 c 50,52 12,-47 50,82 71,-101 59,-320 62,-435 5,3 11,3 13,11 l 72,60 c 8,-136 25,-265 38,-393 10,-93 -14,-356 7,-398 97,25 26,9 58,37 l 157,22 43,-27 c -49,-38 -31,58 -44,-68 l 194,32 c -46,-63 -68,-44 -85,-146 l 199,29 34,-173 c 0,-154 147,-192 224,-270 10,-90 9,-183 38,-264 25,-68 58,-124 114,-154 28,-43 -10,-1 43,-53 13,-13 47,-39 51,-42 l -26,-111 -38,-10 c -42,186 -163,117 -332,187 l -35,33 -88,115 c -17,18 -36,40 -53,54 -44,37 -15,14 -62,37 -29,59 -81,87 -162,97 -85,9 -159,-15 -207,-56 l -206,-313 c -38,-24 -17,-6 -46,-32 -5,-4 -18,-17 -22,-22 -35,-39 -24,-31 -45,-72 l -17,-8 -52,19 c 11,88 51,103 13,207 -2,0 -30,26 -42,-44 -2,-8 -5,-11 -9,-16 -35,112 -63,134 -168,168 71,-113 122,-74 140,-291 -21,-44 -5,6 -16,-68 l 37,-50 -32,-15 c -78,-17 -631,-82 -506,142 30,53 126,34 185,55 -83,57 -76,-28 -144,17 78,53 307,105 190,290 -157,249 -623,-119 -751,-205 -108,-73 -219,-138 -357,-189 z"
          id="path2237"
          inkscape:connector-curvature="0"
          style="fill:#999999" />
      <path
          class="fil4"
          d="m 29017,24956 c -13,87 -61,113 -34,192 47,76 128,155 136,261 l -174,-11 52,136 61,-2 2,46 111,0 c 3,-1 9,-5 12,-7 l 27,-17 c 136,47 265,61 351,-29 l 28,-270 c 72,15 28,-8 46,45 52,-17 14,13 45,-25 l -82,-588 c 38,32 71,67 104,95 l -13,-113 -50,-217 c -59,-66 -107,-216 -144,-317 -43,-119 -72,-213 -115,-332 l -71,620 -67,0 c -7,184 -32,205 -86,352 -40,-10 -29,-19 -54,-11 -34,85 -29,132 -85,192 z"
          id="path2239"
          inkscape:connector-curvature="0"
          style="fill:#999999" />
      <path
          class="fil4"
          d="m 28870,25461 54,-303 c -5,-118 -11,-36 -59,-138 l -61,10 -128,-441 -56,61 c -92,-257 -129,-493 -157,-785 -69,121 -124,614 -151,789 -60,389 75,459 136,778 l -182,9 c 9,89 27,74 57,175 l 36,-67 49,57 c 18,-67 5,-34 32,-68 111,34 197,127 339,68 l 19,-174 72,29 z"
          id="path2241"
          inkscape:connector-curvature="0"
          style="fill:#999999" />
      <path
          class="fil2"
          d="m 29017,24956 c 56,-60 51,-107 85,-192 25,-8 14,1 54,11 54,-147 79,-168 86,-352 l 67,0 71,-620 c 43,119 72,213 115,332 37,101 85,251 144,317 l -219,-645 c -62,-184 -77,-162 -24,-197 -32,-28 39,-12 -58,-37 -21,42 3,305 -7,398 -13,128 -30,257 -38,393 l -72,-60 c -2,-8 -8,-8 -13,-11 -3,115 9,334 -62,435 -38,-129 0,-30 -50,-82 l -79,310 z"
          id="path2243"
          inkscape:connector-curvature="0"
          style="fill:#ffffff" />
      <path
          class="fil3"
          d="m 30416.3613,21915.54188 c 192,-95 382.6387,133.45812 174.6387,276.45812 -86.86355,28.00277 -187.89225,25.58123 -246,-36 -24,-26 -25.87649,-59 -24.87649,-100 -2.61242,-80.34013 38.80622,-112.78788 96.23779,-140.45812 z M 30682,22217 c 51,-83 113,-179 22,-292 -69,-87 -237.26015,-148.16126 -336,-63 -315.81659,272.38585 103.51192,558.81859 314,355 z m -746,-64 c 198,-118 414,160 197,272 -190,99 -440,-127 -197,-272 z m 106,-159 c -101.58698,-1.9672 -201.4502,-71.64441 -203,-153 -1,-162 248,-211 346,-101 96,148 -48.27327,248.91692 -143,254 z m -233,-26 -2146.77778,6 c 47.69207,143.65297 2.55555,190 2.55555,190 l 93.22223,0 c 652,-5 1438,15 2051,-7 -51,111 -53,144 -3,258 l 81,61 c 371.64826,137.48437 518.11645,-226.92888 325,-337 -101,-60 -142,-90 -298,-44 -27,-46 -1.33333,-80.77778 -1.33333,-80.77778 0,0 82.33333,46.77778 253.33333,17.77778 46,-40 94,-68 115,-144 21,-79 4,-122 -47,-176 -207.21802,-226.9661 -558.89078,-19.26187 -425,256 z m -2164,418 c 0,0 -11,-65 -68,-186 115.599,-118.94035 35.62466,-219.43562 5,-274 58,-83 68,-38 67,-174 l -253,2 c -4,171 7,79 46,193 -60,102 -123,76.06143 -194,5.06143 1,-113 41,-32.06143 42,-203.06143 l -259,1 c 4,205 31,60 68,197 -56,85 -46,14 -94,107 23,114 44,47 96,149 -57,112 -82,16 -65,187 l 248,-2 c 16,-171 -26,-90.94547 -40,-222.94547 68,-93 112,-63.05453 193,-8.05453 2,150 -53,45 -39,223 147.96136,7.10475 247,6 247,6 z"
          id="path2245"
          inkscape:connector-curvature="0"
          style="fill:#ffcc00"
          sodipodi:nodetypes="cccccccscccccccccccccccccccccccccccccccccccccccc" />
      <path
          class="fil2"
          d="m 28907,22438 c -18,217 -69,178 -140,291 105,-34 133,-56 168,-168 4,5 7,8 9,16 12,70 40,44 42,44 38,-104 -2,-119 -13,-207 l 52,-19 c -36,-71 7,-27 -73,-70 l 5,70 c -28,39 -28,29 -50,43 z m -244,-51 97,-21 c -37,-68 5,-54 -102,-54 l 5,75 z m 244,51 c 22,-14 22,-4 50,-43 l -5,-70 -24,-5 -37,50 c 11,74 -5,24 16,68 z m -231,99 c 0,0 68,34 11,-125 -42,47 -30,-13 -28,68 0,12 13,44 17,57 z"
          id="path2247"
          inkscape:connector-curvature="0"
          style="fill:#ffffff" />
      <path
          class="fil2"
          d="m 28865,25020 c 48,102 54,20 59,138 l 59,-10 c -27,-79 21,-105 34,-192 -72,80 -6,65 -91,121 -24,-18 -40,-36 -61,-57 z"
          id="path2249"
          inkscape:connector-curvature="0"
          style="fill:#ffffff" />
   </g>
</svg>
