<?xml version="1.0" encoding="UTF-8" standalone="no"?>
<svg
    xmlns:dc="http://purl.org/dc/elements/1.1/"
    xmlns:cc="http://creativecommons.org/ns#"
    xmlns:rdf="http://www.w3.org/1999/02/22-rdf-syntax-ns#"
    xmlns:svg="http://www.w3.org/2000/svg"
    xmlns="http://www.w3.org/2000/svg"
    xmlns:sodipodi="http://sodipodi.sourceforge.net/DTD/sodipodi-0.dtd"
    xmlns:inkscape="http://www.inkscape.org/namespaces/inkscape"
    id="city_nnov"
    data-name="nnov"
    width="52.5mm"
    height="52.5mm"
    viewBox="0 0 148.82 148.82"
    version="1.1"
    inkscape:version="0.91 r13725"
    sodipodi:docname="_novokuznetsk.svg">
   <metadata
       id="metadata22">
      <rdf:RDF>
         <cc:Work
             rdf:about="">
            <dc:format>image/svg+xml</dc:format>
            <dc:type
                rdf:resource="http://purl.org/dc/dcmitype/StillImage" />
            <dc:title></dc:title>
         </cc:Work>
      </rdf:RDF>
   </metadata>
   <defs
       id="defs20" />
   <sodipodi:namedview
       pagecolor="#ffffff"
       bordercolor="#666666"
       borderopacity="1"
       objecttolerance="10"
       gridtolerance="10"
       guidetolerance="10"
       inkscape:pageopacity="0"
       inkscape:pageshadow="2"
       inkscape:window-width="640"
       inkscape:window-height="480"
       id="namedview18"
       showgrid="false"
       inkscape:zoom="1.268656085"
       inkscape:cx="93.01181102"
       inkscape:cy="93.01181102"
       inkscape:current-layer="city_nnov" />
   <g
       transform="matrix(0.0283466687,0,0,0.0283466716,-446.5914416,-594.5821068)"
       style="clip-rule:evenodd;fill-rule:evenodd;image-rendering:optimizeQuality;shape-rendering:geometricPrecision;text-rendering:geometricPrecision"
       id="novokuznetsk">
      <path
          class="fil2"
          d="m 18032,21646 c -9,-3 -44,12 -51,14 -8,3 -36,2 -54,9 -19,7 -20,18 -34,17 -14,-1 -59,-6 -96,-5 -37,0 -57,7 -52,21 4,13 18,8 19,16 1,8 -2,18 -10,19 -8,2 -63,18 -129,46 -66,28 -80,28 -157,48 -77,20 -140,35 -158,42 -18,7 -17,27 -27,38 -9,11 -18,66 -6,82 12,16 110,10 106,22 -4,12 -78,39 -73,54 6,15 66,43 83,41 18,-1 101,-51 139,-53 39,-2 79,30 140,51 61,21 96,17 103,26 8,10 17,48 -9,113 -26,65 -90,213 -124,273 -34,60 -83,97 -128,216 -45,119 -60,193 -94,208 -33,14 -164,39 -276,41 -113,3 -153,5 -203,45 -50,41 -82,107 -167,164 -86,58 -161,127 -183,138 -23,10 -87,39 -143,91 -55,52 -76,69 -72,79 3,11 192,33 211,2 19,-31 6,-43 20,-58 14,-16 66,-4 80,-16 14,-12 50,-96 136,-159 85,-64 96,-76 126,-88 30,-12 60,-2 92,-18 31,-15 58,-28 85,-28 26,-1 83,10 165,26 81,17 158,48 192,47 33,-2 59,-23 62,-17 2,5 8,19 -1,23 -10,5 -118,50 -144,95 -27,45 -87,116 -108,145 -21,30 -112,134 -133,162 -20,27 -29,77 -40,95 -12,18 -55,50 -74,86 -19,37 -66,86 -36,105 30,20 186,-17 204,-56 18,-39 5,-77 15,-96 10,-20 36,-25 52,-43 15,-19 31,-149 87,-208 56,-59 84,-53 134,-82 49,-29 46,-40 72,-53 27,-13 57,-3 150,-29 93,-26 251,-52 274,-62 22,-10 25,-28 41,-32 16,-5 128,32 354,6 226,-26 349,-91 362,-93 14,-2 105,76 290,147 186,72 326,123 388,163 61,39 152,165 175,206 53,107 33,223 39,230 6,6 70,5 87,-5 16,-10 61,-61 61,-77 0,-16 -47,-99 -44,-112 2,-13 17,-35 17,-56 0,-21 -96,-76 -159,-153 -63,-77 -136,-158 -133,-165 3,-7 139,48 219,112 80,64 140,165 165,202 24,37 53,41 62,57 8,16 32,197 40,200 8,2 73,3 81,-5 8,-7 72,-119 72,-139 0,-20 -74,-49 -73,-64 1,-14 10,-53 -20,-84 -31,-31 -129,-114 -195,-207 -66,-93 -123,-181 -134,-185 -10,-4 -129,-10 -191,-86 -63,-77 -73,-167 -91,-228 -18,-62 -60,-123 -50,-130 11,-8 48,69 72,84 24,14 58,51 72,50 13,-1 13,-15 25,-14 12,1 16,11 35,12 19,1 32,-5 42,0 11,6 72,68 93,58 21,-10 -28,-82 -20,-83 7,-1 174,160 194,148 20,-12 -2,-35 8,-38 9,-4 25,43 47,55 21,12 50,8 63,15 13,6 31,25 43,22 12,-2 -26,-30 -14,-34 11,-4 41,21 50,34 9,12 48,42 68,40 20,-2 16,-14 29,-16 13,-1 68,47 88,55 21,8 41,9 48,2 8,-7 5,-16 14,-15 9,1 42,26 56,5 14,-20 -43,-78 -96,-166 -52,-87 -149,-221 -214,-263 -66,-41 -102,-75 -177,-134 -75,-59 -207,-96 -328,-84 -121,12 -230,53 -291,52 -61,0 -209,-46 -324,-41 -116,4 -246,27 -307,30 -62,4 -81,23 -81,14 1,-10 6,-10 4,-20 -3,-10 -62,-20 -62,-45 1,-26 5,-32 6,-56 0,-23 -24,-79 -77,-118 -52,-39 -91,-53 -86,-62 4,-10 22,-14 32,-3 11,10 45,41 56,30 12,-11 -13,-43 -14,-57 0,-14 3,-35 -3,-51 -7,-17 -52,-54 -50,-61 3,-8 20,2 24,-3 4,-6 -23,-86 -51,-108 -28,-21 -68,-36 -75,-47 -7,-10 -37,-55 -66,-96 -28,-40 -156,-70 -155,-80 1,-10 82,-62 75,-86 -7,-25 -89,4 -90,-8 -2,-12 36,-40 9,-48 z"
          id="path1554"
          inkscape:connector-curvature="0"
          style="fill:#000000" />
      <path
          class="fil3"
          d="m 18082,21961 c -9,8 9,30 4,37 -5,7 -17,-15 -23,-6 -5,10 8,22 2,30 -5,8 -23,-6 -28,0 -4,6 3,25 0,29 -3,3 -16,-20 -25,-10 -8,10 -12,57 -55,83 -44,27 -70,45 -71,54 -2,10 -4,30 0,35 4,6 46,-47 49,-35 4,12 -66,57 -60,65 5,8 77,-67 81,-58 4,9 -93,87 -90,95 3,8 36,-19 36,-7 0,12 -105,70 -103,87 1,16 53,-23 53,-12 1,11 -89,64 -89,76 0,12 17,-1 18,7 2,9 -57,41 -52,53 5,12 23,-5 23,6 0,10 -80,47 -76,59 3,12 40,-15 40,-4 0,11 -53,41 -80,56 -27,15 -66,60 -61,69 6,8 41,-29 43,-20 2,9 -14,19 -11,28 2,8 14,-5 16,2 1,7 -11,17 -19,40 -8,22 -18,66 -29,78 -10,13 -10,18 -14,32 -3,13 -12,27 -14,29 -3,2 -10,-4 -15,-1 -4,3 -1,12 -9,20 -8,8 -7,-13 -16,-3 -8,9 -19,35 -13,39 5,4 83,-68 86,-58 3,10 -25,66 -19,68 5,2 25,-42 31,-34 7,8 -11,44 -3,48 8,4 37,-96 50,-88 13,8 -15,58 4,55 18,-3 66,-179 74,-159 8,19 -49,149 -69,213 -20,64 -59,88 -48,102 11,14 22,-27 26,-16 4,10 -32,51 -31,63 1,11 -1,20 5,19 5,0 59,-93 66,-84 7,10 4,22 12,23 7,0 49,-72 54,-63 5,8 -22,60 -15,65 7,5 11,-22 20,-31 9,-8 23,-2 27,-10 4,-9 0,-23 4,-25 4,-2 12,42 25,33 13,-8 -11,-49 3,-52 14,-3 10,12 19,9 9,-3 22,-51 37,-38 14,12 2,28 11,31 8,4 34,-53 38,-45 4,9 -7,46 -6,59 0,13 7,31 3,39 -4,8 -59,24 -77,40 -18,15 -76,76 -148,101 -72,26 -189,76 -215,103 -26,28 -94,112 -90,121 4,10 38,-26 39,-18 1,7 -42,36 -39,44 3,7 23,-14 24,-5 0,9 -66,45 -63,54 2,9 30,-18 32,-8 1,11 -99,81 -96,89 2,8 19,-10 17,1 -3,11 -83,69 -92,70 -9,2 -31,4 -28,19 2,15 14,15 15,24 0,10 -7,51 -19,52 -12,2 -5,-15 -14,-11 -9,4 -3,20 -14,39 -12,19 -25,33 -21,41 5,7 84,9 91,-2 6,-11 3,-36 11,-51 8,-16 25,-26 30,-37 6,-12 -7,-60 1,-58 8,1 6,9 11,26 4,17 1,40 7,36 5,-5 -1,-21 0,-38 1,-18 -13,-38 -4,-40 10,-2 10,37 16,27 7,-9 -6,-60 2,-64 8,-4 4,15 11,11 8,-4 26,-46 62,-101 36,-54 63,-73 71,-79 8,-6 25,8 45,-5 20,-13 41,-26 39,-29 -3,-3 -29,13 -39,13 -10,0 -43,-2 -42,-10 2,-8 29,1 32,-5 4,-6 -12,-3 -11,-9 0,-5 16,-3 34,-3 18,-1 40,11 44,5 4,-7 20,-11 13,-15 -7,-4 -79,-9 -74,-16 4,-7 29,-3 49,-3 20,0 39,13 47,7 7,-6 24,-20 17,-21 -6,-2 -69,-2 -67,-11 3,-9 23,2 30,-5 6,-7 51,-73 56,-67 6,5 -47,65 -41,69 7,4 70,-79 74,-71 5,8 -44,59 -35,64 8,5 67,-75 74,-68 6,7 -28,37 -16,43 11,5 107,-112 111,-102 4,9 -70,71 -60,80 10,9 119,-130 127,-113 7,17 -93,93 -87,102 6,9 133,-136 138,-126 5,11 -95,100 -84,107 11,8 142,-128 145,-123 3,6 -98,101 -82,110 16,10 104,-115 108,-106 5,10 -63,89 -51,93 13,4 109,-144 117,-132 8,13 -72,105 -62,109 10,4 59,-64 74,-105 14,-42 -9,-81 2,-82 11,-1 27,61 12,93 -15,31 -66,93 -56,99 10,6 45,-72 53,-63 7,10 -33,63 -23,69 11,5 61,-73 108,-177 47,-104 57,-188 65,-181 8,7 -7,77 -38,152 -31,76 -45,99 -38,104 7,6 32,-36 54,-100 22,-64 35,-133 43,-126 8,7 -13,75 -34,132 -20,57 -42,101 -36,106 5,6 26,-33 48,-90 21,-58 28,-96 34,-89 5,6 -8,50 -25,103 -17,53 -31,78 -27,81 4,4 17,-23 37,-76 21,-53 36,-106 42,-96 6,9 -15,73 -30,114 -14,41 -31,66 -27,70 3,3 24,-16 44,-78 21,-61 33,-108 39,-98 5,10 -14,68 -32,112 -18,44 -27,63 -20,68 7,5 42,-83 57,-125 15,-42 19,-74 25,-69 7,5 -4,80 -25,125 -21,46 -39,75 -32,81 6,5 23,-30 50,-94 27,-64 41,-110 45,-102 4,9 -10,64 -28,106 -18,42 -34,71 -28,75 6,4 14,-5 45,-78 32,-73 36,-102 43,-96 6,6 -12,71 -28,107 -16,37 -30,68 -27,73 2,5 12,9 16,5 4,-4 12,-18 36,-75 23,-57 38,-116 46,-103 8,12 -16,64 -30,101 -13,36 -36,75 -31,80 4,5 18,6 21,1 4,-6 14,-35 30,-77 17,-43 30,-101 40,-94 9,6 -17,74 -32,107 -14,33 -25,64 -19,68 5,4 7,11 13,2 5,-10 66,-177 74,-170 8,7 -59,169 -53,173 6,4 17,7 20,2 3,-4 58,-161 64,-154 5,7 -35,109 -27,115 8,7 15,7 17,3 3,-4 39,-119 47,-110 9,9 -32,104 -28,108 4,4 19,7 24,2 6,-6 42,-128 51,-124 9,4 -34,118 -31,123 4,6 16,7 20,3 3,-4 59,-147 63,-143 4,4 -46,141 -40,142 5,2 13,3 16,1 3,-2 50,-129 55,-122 6,7 -33,109 -31,116 2,7 15,6 18,3 2,-2 54,-170 63,-156 9,14 -48,147 -41,150 7,3 69,-157 79,-146 9,10 -52,139 -44,145 8,7 74,-160 82,-145 9,15 -48,126 -42,132 5,5 61,-120 69,-109 7,11 -37,103 -32,107 6,4 50,-110 57,-99 7,11 -29,87 -20,90 8,3 43,-102 47,-97 4,5 -13,55 -8,59 5,4 59,-119 67,-106 7,14 -56,128 -55,136 1,8 83,11 148,56 64,45 99,76 150,97 50,21 159,50 227,68 68,19 169,54 195,70 26,15 36,35 48,31 12,-4 0,-18 11,-17 11,2 9,45 19,44 11,-2 4,-36 14,-33 10,3 9,58 21,62 12,4 6,-34 16,-30 9,4 15,74 21,74 5,0 -1,-25 13,-22 13,3 -2,47 21,67 23,20 60,52 74,66 14,13 68,89 74,87 6,-1 -25,-40 -13,-46 12,-5 40,46 33,55 -7,9 -31,11 -28,20 2,8 1,27 2,38 1,10 6,47 13,42 7,-6 20,-41 28,-59 8,-18 19,-22 19,-28 0,-6 -15,-22 -22,-36 -7,-14 -15,-29 -9,-32 5,-3 24,33 30,21 6,-12 4,-24 -33,-43 -36,-20 -76,-36 -80,-48 -4,-13 10,-4 12,-10 2,-5 -75,-55 -75,-64 0,-8 5,-7 6,-13 1,-5 -47,-38 -46,-47 0,-9 8,2 9,-8 2,-9 -99,-119 -103,-113 -4,7 12,31 7,37 -5,5 -31,-18 -31,-23 1,-6 13,1 13,-8 0,-10 -35,-31 -31,-35 5,-5 23,19 26,15 3,-4 -10,-14 -6,-18 5,-4 12,11 20,7 9,-4 9,-44 -17,-56 -26,-12 -56,-15 -62,-8 -5,7 0,25 -8,29 -8,3 -19,-39 -28,-38 -10,2 7,30 -15,29 -22,-1 -24,-54 -37,-48 -13,5 19,47 0,48 -18,2 -19,-54 -26,-50 -7,4 14,36 -1,40 -15,5 -8,-65 -24,-64 -15,0 0,28 -14,28 -15,0 3,-34 -11,-45 -14,-11 -64,-13 -65,-18 -1,-6 15,-5 16,-13 2,-9 5,-33 -4,-32 -10,1 -10,23 -18,17 -8,-5 2,-21 -6,-27 -8,-5 -12,6 -17,3 -6,-4 -28,-15 -28,-28 0,-14 4,-28 3,-40 -2,-12 -30,-17 -30,-30 0,-14 14,-2 15,-14 1,-12 -22,-15 -23,-23 0,-7 -1,-16 -7,-26 -7,-11 -18,-23 -16,-31 1,-8 6,-2 12,-17 6,-15 3,-39 -3,-35 -7,3 -7,33 -13,28 -6,-5 6,-44 -1,-52 -8,-8 -13,15 -20,4 -7,-12 14,-49 11,-60 -2,-12 -11,-16 -18,-9 -7,6 -14,36 -22,31 -8,-5 14,-48 7,-50 -6,-3 -26,33 -29,25 -2,-8 26,-67 16,-74 -9,-6 -31,47 -36,37 -5,-9 19,-42 11,-46 -8,-4 -13,20 -18,11 -5,-10 22,-42 1,-49 -21,-6 -21,39 -29,33 -8,-5 3,-28 -3,-34 -6,-5 -10,24 -21,19 -11,-5 0,-38 -6,-39 -6,-2 -29,56 -37,49 -9,-7 42,-89 28,-94 -13,-6 -31,56 -40,55 -9,0 20,-57 10,-62 -10,-5 -37,78 -46,57 -10,-20 28,-62 22,-65 -6,-3 -14,-2 -21,2 -6,4 -20,70 -36,64 -17,-6 18,-65 15,-69 -4,-4 -9,-6 -14,0 -5,7 -28,69 -38,66 -11,-2 28,-62 23,-67 -4,-4 -21,-5 -25,-1 -4,4 -39,101 -48,98 -10,-3 36,-90 31,-97 -5,-7 -8,-4 -14,2 -7,5 -40,94 -50,89 -10,-4 28,-83 25,-87 -3,-4 -11,-4 -15,1 -4,5 -40,91 -49,84 -10,-6 28,-78 26,-82 -2,-4 -16,-7 -22,1 -5,8 -41,90 -48,86 -7,-4 29,-77 26,-83 -3,-5 -12,-6 -19,1 -6,7 -27,83 -41,81 -14,-2 17,-72 12,-77 -5,-4 -44,89 -51,78 -7,-10 26,-72 20,-75 -5,-3 -20,-3 -25,2 -4,4 -22,76 -33,71 -11,-5 21,-64 16,-70 -6,-6 -11,-6 -15,0 -5,6 -28,91 -41,83 -13,-9 20,-73 15,-80 -6,-7 -13,-6 -17,0 -4,6 -20,81 -33,79 -13,-1 15,-79 8,-79 -7,0 -21,-14 -23,2 -2,16 -7,62 -11,72 -4,9 -10,14 -19,15 -9,2 -15,-6 -20,-6 -6,0 -6,11 -16,10 -9,-1 6,-31 -9,-33 -15,-2 -11,22 -19,20 -8,-1 6,-27 -2,-34 -8,-6 -37,46 -42,34 -6,-12 18,-40 7,-46 -11,-5 -34,55 -39,42 -4,-13 15,-40 7,-47 -8,-7 -26,47 -32,42 -7,-5 15,-51 3,-53 -12,-2 -46,95 -54,87 -8,-8 38,-90 25,-94 -13,-5 -56,100 -61,91 -5,-10 38,-69 18,-74 -20,-6 -39,83 -45,75 -7,-8 -11,-31 -9,-35 3,-4 14,-6 19,-18 5,-13 -21,-55 -25,-77 -3,-22 -8,-90 -20,-73 -12,17 2,66 7,92 4,25 18,58 11,66 -6,8 -23,-48 -36,-100 -12,-51 -39,-95 -41,-154 -2,-59 -20,-114 -31,-148 -11,-34 -29,-94 -17,-89 11,6 16,41 19,52 3,11 4,40 7,46 3,7 14,22 19,35 6,12 13,46 17,45 5,0 -23,-127 -47,-204 -24,-77 -61,-176 -71,-166 z m -140,138 c -10,2 -57,45 -55,55 1,10 63,-57 55,-55 z m -277,456 c -6,-2 -25,16 -20,21 5,5 25,-19 20,-21 z m 23,-45 c -5,-2 -24,16 -19,21 5,5 24,-19 19,-21 z m 36,-27 c -6,-2 -25,16 -20,22 5,5 25,-20 20,-22 z m -19,-15 c -6,-2 -25,16 -20,21 5,6 24,-19 20,-21 z m 46,-31 c -5,-2 -24,16 -19,21 5,5 24,-19 19,-21 z m -14,-29 c -6,-2 -25,16 -20,22 5,5 25,-20 20,-22 z m 44,-36 c -5,-2 -24,16 -19,22 5,5 24,-20 19,-22 z m -24,-14 c -5,-2 -24,16 -19,21 5,5 24,-19 19,-21 z m 38,-27 c -5,-2 -24,16 -19,21 5,5 24,-20 19,-21 z m 50,-33 c -6,-1 -24,16 -19,22 5,5 24,-20 19,-22 z m 12,-42 c -6,-2 -25,16 -20,21 5,5 25,-20 20,-21 z m 14,-44 c -6,-1 -25,16 -20,22 5,5 24,-20 20,-22 z m -35,24 c -6,-2 -25,16 -20,21 5,5 25,-19 20,-21 z m -34,27 c -6,-2 -24,16 -19,22 5,5 24,-20 19,-22 z m 16,-46 c -6,-2 -25,16 -20,21 5,5 25,-20 20,-21 z m 33,-36 c -6,-1 -25,17 -20,22 5,5 25,-20 20,-22 z m 35,-21 c -6,-2 -24,16 -19,21 5,5 24,-20 19,-21 z m 7,-42 c -6,-2 -25,16 -20,21 5,5 25,-20 20,-21 z m -38,30 c -6,-2 -25,16 -20,21 5,5 25,-20 20,-21 z m -33,31 c -6,-2 -25,16 -20,21 5,5 25,-19 20,-21 z m 4,-44 c -5,-2 -24,16 -19,21 5,5 24,-20 19,-21 z m 33,-24 c -5,-2 -24,16 -19,21 5,6 24,-19 19,-21 z m 30,-27 c -6,-2 -25,16 -19,21 5,5 24,-20 19,-21 z m -2,-27 c -6,-2 -25,16 -20,21 5,5 25,-20 20,-21 z m -32,26 c -5,-2 -24,16 -19,21 5,5 24,-20 19,-21 z m -30,20 c -6,-2 -25,16 -20,21 5,5 25,-19 20,-21 z m 78,-84 c -6,2 -11,27 -4,29 7,1 9,-30 4,-29 z m -1,43 c -6,2 -11,27 -4,28 7,2 9,-29 4,-28 z m 3,33 c -6,2 -11,27 -4,29 7,1 9,-30 4,-29 z m -86,187 c -6,-1 -25,16 -20,22 5,5 25,-20 20,-22 z m -38,28 c -6,-2 -25,16 -20,21 5,5 25,-19 20,-21 z m 233,-475 c -8,1 -16,27 -8,32 7,5 14,-32 8,-32 z m -26,-33 c -3,4 -6,18 -11,43 -5,26 -21,62 -17,68 4,7 21,-30 30,-53 10,-23 15,-32 15,-37 0,-6 -14,-26 -17,-21 z m 40,60 c -11,5 -34,60 -48,85 -14,24 -59,55 -59,64 -1,9 -8,25 -1,26 8,1 55,-41 79,-89 25,-49 35,-66 38,-71 2,-6 -3,-17 -9,-15 z m 14,38 c -9,4 -33,62 -60,89 -26,28 -60,60 -61,65 -1,4 -6,9 -1,12 6,4 36,-33 38,-26 2,6 -44,44 -42,52 2,7 1,15 7,12 7,-4 90,-83 90,-94 1,-11 -42,27 -41,18 1,-10 30,-43 47,-66 18,-24 39,-71 23,-62 z m 28,22 c -6,2 -31,53 -23,57 9,4 10,-16 13,-22 4,-5 11,0 15,-7 4,-7 5,-30 -5,-28 z m 31,19 c -8,7 -6,21 1,24 7,2 34,5 50,16 15,11 -39,-49 -51,-40 z m 46,-61 c -33,-25 -102,-52 -99,-45 4,7 93,53 126,92 34,38 62,68 90,84 27,16 55,42 63,30 9,-13 -67,-43 -106,-94 -39,-50 -49,-48 -74,-67 z m -138,-211 c -8,-8 -86,27 -81,35 5,7 39,18 47,10 8,-8 36,-42 34,-45 z m 43,52 c -10,-4 -65,4 -64,14 2,9 37,0 37,6 0,7 -66,34 -69,28 -3,-7 8,-20 -6,-26 -15,-5 -143,-2 -141,11 3,14 28,31 45,38 17,8 29,16 33,24 4,8 7,21 0,24 -7,3 -19,-10 -26,-19 -7,-9 -27,-11 -39,-22 -12,-12 -16,-29 -28,-33 -12,-4 -32,11 -54,12 -21,2 -74,14 -96,22 -23,9 -153,49 -154,55 -2,7 16,7 17,10 1,3 -16,16 -16,21 0,4 20,11 18,16 -3,6 -5,9 -20,-1 -15,-9 -28,-13 -50,-17 -23,-3 -82,-2 -84,5 -3,7 16,20 -1,30 -17,11 -27,15 -31,12 -4,-3 7,-11 -5,-11 -11,0 -21,22 -19,41 2,19 2,22 10,24 8,3 132,6 134,20 1,13 -81,58 -78,68 4,10 32,19 54,3 23,-17 49,-66 57,-61 8,5 -9,13 -3,17 7,4 46,-51 51,-44 5,6 -30,40 -23,48 7,8 50,-54 56,-44 5,9 -15,23 -6,28 9,6 44,-47 48,-41 4,5 -15,21 -11,27 4,7 27,-26 31,-18 4,8 -31,43 -25,49 7,5 75,-89 81,-78 5,11 -67,83 -59,90 8,7 89,-110 94,-100 6,9 -79,105 -70,113 10,8 97,-115 103,-104 6,10 -78,110 -69,119 9,8 65,-64 88,-96 23,-31 35,-46 35,-51 0,-6 -23,1 -71,-7 -48,-7 -64,-14 -63,-22 2,-8 39,1 78,8 39,6 71,6 73,14 1,9 -17,47 -50,89 -32,41 -67,72 -66,74 1,3 17,7 20,7 3,-1 52,-51 90,-104 39,-54 66,-91 71,-83 5,7 -34,52 -66,100 -31,48 -80,90 -76,95 4,6 60,-20 109,-90 49,-70 80,-122 85,-113 5,9 -20,63 -64,115 -45,52 -85,79 -82,86 3,8 70,-28 117,-106 47,-78 68,-187 75,-200 6,-12 36,-26 47,-37 11,-11 40,-30 28,-35 z m -440,150 c -11,-4 -41,6 -87,34 -47,28 -74,49 -67,55 8,7 25,-17 75,-47 51,-29 90,-38 79,-42 z m 154,-64 c -20,-3 -34,7 -49,11 -16,3 -23,-3 -26,7 -3,9 1,14 16,20 14,7 20,-3 21,3 2,7 5,12 -2,16 -7,4 -18,-3 -23,2 -4,6 21,31 29,27 8,-4 0,-16 4,-18 3,-3 10,1 20,-4 9,-6 3,-14 9,-14 7,0 11,12 22,16 11,5 25,6 29,1 4,-4 -13,-61 -50,-67 z m -10,45 c 0,3 -3,6 -8,6 -4,0 -8,-3 -8,-6 0,-4 4,-7 9,-7 4,0 8,3 7,7 z m 14,-30 c 0,2 -6,4 -13,4 -7,0 -12,-2 -12,-4 0,-3 5,-4 12,-4 7,0 13,2 13,4 z m 165,-39 c -4,4 8,33 1,39 -6,6 -23,13 -22,21 2,8 17,-5 17,1 1,5 -8,22 -1,25 7,2 12,-21 16,-29 4,-9 13,-7 14,-13 2,-6 -11,-2 -11,-9 0,-8 -7,-45 -14,-35 z m 359,516 c -26,-14 -80,-31 -78,-26 3,4 74,31 100,53 27,23 50,40 71,50 22,9 45,24 51,17 7,-7 -54,-25 -85,-54 -31,-30 -38,-29 -59,-40 z m 101,153 c 27,12 83,24 80,20 -3,-4 -76,-26 -104,-46 -28,-20 -52,-36 -75,-44 -22,-7 -46,-21 -52,-13 -5,8 56,20 89,48 34,27 41,25 62,35 z m 69,108 c 29,10 81,40 76,41 -4,0 -75,-35 -108,-41 -34,-6 -61,-12 -84,-22 -22,-10 -48,-17 -49,-26 -1,-9 56,24 97,29 41,5 46,11 68,19 z m -1,28 c 29,10 81,40 76,40 -4,1 -75,-34 -108,-40 -34,-6 -61,-12 -84,-22 -22,-10 -48,-17 -49,-26 -1,-9 56,24 97,29 41,4 46,11 68,19 z m -240,-558 c -1,8 43,43 67,56 25,12 47,40 54,34 6,-6 1,-20 -33,-36 -33,-16 -88,-63 -88,-54 z m -16,145 c 0,9 43,44 68,56 25,12 47,40 53,34 7,-6 1,-20 -32,-36 -34,-16 -89,-63 -89,-54 z m 5,-76 c 0,10 52,52 82,67 29,15 56,49 64,41 8,-7 1,-23 -39,-43 -40,-19 -106,-76 -107,-65 z m -10,112 c 0,11 64,57 100,73 37,15 70,53 79,44 10,-8 2,-25 -48,-46 -50,-21 -131,-82 -131,-71 z m 1,-164 c -6,9 71,68 95,79 24,11 34,18 50,35 17,17 30,50 38,48 8,-3 3,-30 -38,-58 -42,-28 -62,-43 -83,-56 -20,-14 -58,-54 -62,-48 z m 146,202 c 8,-8 -70,-79 -96,-94 -25,-15 -35,-23 -51,-43 -17,-19 -26,-55 -36,-54 -9,2 -7,30 35,65 43,34 63,52 85,68 21,17 58,64 63,58 z m -111,69 c -4,14 43,51 72,63 29,12 77,24 80,19 3,-6 -38,-20 -74,-38 -35,-19 -76,-49 -78,-44 z m 48,116 c -2,14 51,42 82,49 30,7 80,11 82,5 2,-6 -42,-13 -79,-25 -38,-12 -85,-35 -85,-29 z m 12,38 c -2,17 59,50 94,58 35,8 92,13 94,6 3,-7 -47,-16 -91,-30 -43,-14 -97,-41 -97,-34 z m -8,77 c -12,8 13,60 18,57 4,-3 -3,-67 -18,-57 z m -287,-336 c -8,7 -2,56 -5,116 -3,61 -21,151 -18,155 3,4 25,-36 30,-144 4,-109 1,-134 -7,-127 z m -50,100 c -8,7 -3,56 -6,116 -3,61 -21,151 -18,155 4,4 26,-36 30,-144 5,-109 2,-134 -6,-127 z m -41,83 c -12,7 -7,57 -15,120 -7,63 -40,155 -35,160 4,4 40,-36 53,-148 13,-112 10,-139 -3,-132 z m -50,47 c -13,7 -8,57 -15,120 -8,63 -41,155 -36,160 5,4 40,-36 53,-148 13,-112 10,-139 -2,-132 z m -52,115 c -12,5 -7,47 -13,99 -7,52 -37,127 -32,131 4,4 37,-29 48,-121 11,-93 8,-114 -3,-109 z m -41,5 c -12,6 -7,52 -14,110 -7,57 -37,141 -33,145 4,4 37,-32 49,-134 12,-103 9,-127 -2,-121 z m 322,-537 c -1,4 1,23 5,24 4,1 13,-4 13,-8 1,-4 -4,-24 -7,-24 -4,0 -9,4 -11,8 z m -29,22 c -1,3 1,22 5,23 4,1 13,-4 13,-8 1,-3 -4,-24 -7,-24 -4,0 -9,5 -11,9 z m -22,20 c -2,4 0,23 4,24 4,1 13,-4 14,-8 1,-4 -5,-25 -8,-25 -3,0 -9,5 -10,9 z m 17,46 c -2,4 1,23 5,24 3,1 12,-4 13,-8 1,-4 -4,-25 -8,-25 -3,0 -9,5 -10,9 z m 24,-17 c -1,3 1,23 5,23 4,1 12,-3 13,-7 1,-4 -4,-25 -7,-25 -4,0 -9,5 -11,9 z m 27,-30 c -1,4 1,23 5,24 4,0 13,-4 14,-8 1,-4 -5,-25 -8,-25 -3,0 -9,5 -11,9 z m 12,40 c -1,4 1,23 5,24 4,1 13,-4 14,-8 0,-4 -5,-24 -8,-24 -4,0 -9,4 -11,8 z m -22,25 c -1,4 1,23 5,24 4,1 13,-4 14,-8 1,-4 -5,-24 -8,-24 -3,0 -9,4 -11,8 z m -25,26 c -2,4 0,23 4,24 4,1 13,-4 14,-8 1,-4 -5,-24 -8,-24 -3,0 -9,4 -10,8 z m 35,18 c -2,4 0,23 4,24 4,1 13,-4 14,-8 1,-4 -5,-25 -8,-25 -3,0 -9,5 -10,9 z m -29,35 c -2,4 0,23 4,24 4,1 13,-4 14,-8 1,-4 -5,-24 -8,-24 -3,0 -9,4 -10,8 z m 306,461 c -4,2 -17,16 -15,19 2,4 11,8 15,6 3,-2 16,-20 13,-22 -2,-3 -9,-4 -13,-3 z m 30,4 c -4,1 -18,15 -16,19 2,3 12,7 15,5 4,-2 16,-19 14,-22 -2,-2 -9,-3 -13,-2 z m 36,1 c -4,1 -18,15 -16,19 2,3 12,7 15,5 4,-2 16,-19 14,-22 -2,-2 -9,-3 -13,-2 z m 53,33 c -4,2 -17,16 -15,19 2,4 11,8 15,6 3,-2 16,-20 14,-22 -2,-3 -10,-4 -14,-3 z m 26,13 c -4,1 -17,15 -16,18 2,4 12,8 15,6 4,-2 16,-20 14,-22 -2,-3 -9,-4 -13,-2 z m 49,-16 c -4,1 -17,15 -16,19 2,3 12,7 15,5 4,-2 16,-19 14,-22 -2,-2 -9,-3 -13,-2 z m 62,12 c -4,1 -17,15 -15,18 2,4 11,8 15,6 3,-2 16,-20 14,-22 -2,-3 -10,-4 -14,-2 z m -29,-9 c -3,1 -17,15 -15,19 2,3 11,7 15,5 4,-2 16,-20 14,-22 -2,-3 -9,-4 -14,-2 z m 93,-37 c -4,1 -17,15 -16,19 2,4 12,7 15,5 4,-2 16,-19 14,-22 -2,-2 -9,-3 -13,-2 z m -21,49 c -4,1 -18,15 -16,19 2,3 12,7 15,5 4,-2 16,-19 14,-22 -2,-2 -9,-3 -13,-2 z m 174,-60 c -4,1 -17,15 -15,19 2,4 11,8 15,6 3,-2 16,-20 13,-22 -2,-3 -9,-4 -13,-3 z m -19,43 c -4,2 -17,16 -15,19 2,4 11,8 15,6 4,-2 16,-20 14,-22 -2,-3 -10,-4 -14,-3 z m 50,-29 c -4,1 -17,15 -15,19 2,3 11,7 15,5 3,-2 16,-19 14,-22 -3,-2 -10,-4 -14,-2 z m 26,17 c -4,2 -18,16 -16,19 2,4 12,8 15,6 4,-2 16,-20 14,-22 -2,-3 -9,-4 -13,-3 z m 24,-48 c -4,2 -17,16 -15,19 2,4 11,8 15,6 3,-2 16,-20 14,-22 -3,-3 -10,-4 -14,-3 z m 38,-2 c -3,1 -17,16 -15,19 2,4 12,8 15,6 4,-2 16,-20 14,-22 -2,-3 -9,-4 -14,-3 z m -27,58 c -4,1 -18,15 -16,19 3,3 12,7 16,5 3,-2 15,-19 13,-22 -2,-2 -9,-4 -13,-2 z m 47,-24 c -4,2 -17,16 -15,19 2,4 11,8 15,6 4,-2 16,-20 14,-22 -2,-3 -10,-4 -14,-3 z m 21,-34 c -4,1 -17,15 -15,19 2,3 12,7 15,5 4,-2 16,-19 14,-22 -2,-2 -10,-4 -14,-2 z m 31,0 c -3,1 -17,15 -15,19 2,3 12,7 15,5 4,-2 16,-19 14,-22 -2,-2 -9,-3 -14,-2 z m -12,36 c -4,1 -17,16 -15,19 2,4 12,8 15,6 4,-2 16,-20 14,-22 -2,-3 -10,-4 -14,-3 z m 55,16 c -4,1 -18,15 -16,19 2,3 12,7 16,5 3,-2 15,-19 13,-22 -2,-2 -9,-4 -13,-2 z m 32,8 c -3,2 -17,16 -15,19 2,4 12,8 15,6 4,-2 16,-20 14,-22 -2,-3 -9,-4 -14,-3 z m 24,24 c -4,1 -18,15 -16,19 2,3 12,7 15,5 4,-2 16,-20 14,-22 -2,-2 -9,-4 -13,-2 z m 260,486 c -4,1 -17,15 -15,19 2,3 11,7 15,5 3,-2 16,-19 13,-22 -2,-2 -9,-3 -13,-2 z m 35,17 c -4,1 -17,15 -15,19 2,3 11,7 15,5 3,-2 16,-19 14,-22 -2,-2 -10,-4 -14,-2 z m 30,17 c -3,1 -17,15 -15,19 2,3 12,7 15,5 4,-2 16,-20 14,-22 -2,-2 -10,-4 -14,-2 z m 62,47 c 2,4 18,14 22,12 3,-3 5,-13 3,-16 -3,-3 -22,-12 -25,-10 -2,3 -2,10 0,14 z m 42,17 c 1,3 18,14 21,12 3,-3 6,-13 3,-16 -2,-3 -22,-12 -24,-10 -2,3 -2,10 0,14 z m 43,18 c 2,3 18,14 21,11 4,-2 6,-12 3,-15 -2,-3 -22,-13 -24,-10 -2,2 -2,10 0,14 z m -888,-651 c -5,4 -22,31 -20,35 3,3 15,2 19,-3 5,-5 21,-36 18,-38 -3,-1 -12,2 -17,6 z m 32,5 c -5,4 -22,31 -20,35 3,3 15,2 19,-3 5,-5 21,-36 18,-37 -3,-2 -12,1 -17,5 z m 45,-4 c -5,4 -22,32 -20,35 3,3 15,2 19,-3 5,-5 20,-35 18,-37 -3,-2 -12,1 -17,5 z m -775,-346 c -6,14 13,109 12,133 0,25 5,98 12,102 7,3 24,-48 32,-35 8,13 16,97 27,86 10,-11 -13,-124 -4,-121 9,2 15,103 24,95 9,-7 -3,-86 2,-88 6,-2 8,51 13,45 6,-6 -41,-290 -53,-289 -12,2 16,165 5,168 -12,3 -49,-231 -59,-223 -10,7 45,294 31,301 -15,7 -24,-216 -42,-174 z m 84,-95 c -2,20 27,190 44,254 18,64 49,117 53,114 5,-3 -29,-101 -40,-179 -12,-78 -47,-230 -57,-189 z m -114,243 c -7,10 19,168 28,159 10,-8 -18,-174 -28,-159 z m -52,93 c -6,7 18,129 26,122 9,-7 -16,-134 -26,-122 z m -69,131 c -6,7 18,128 27,122 8,-7 -17,-134 -27,-122 z m 311,-93 c -6,9 39,133 48,124 8,-8 -39,-137 -48,-124 z m -18,39 c -6,8 39,132 48,124 8,-8 -39,-138 -48,-124 z m -24,45 c -6,8 39,132 47,124 9,-8 -39,-138 -47,-124 z m -25,40 c -5,8 39,132 48,124 9,-8 -39,-138 -48,-124 z m -34,56 c -5,8 39,132 48,124 9,-8 -39,-138 -48,-124 z m -20,68 c -6,8 39,132 48,124 8,-8 -39,-138 -48,-124 z m -30,26 c -4,11 41,178 47,168 6,-11 -41,-186 -47,-168 z m -195,-128 c -6,7 18,129 27,122 9,-6 -17,-133 -27,-122 z m -36,49 c -6,7 18,129 27,122 9,-7 -17,-134 -27,-122 z m 99,57 c -7,7 17,129 26,122 9,-7 -17,-134 -26,-122 z m 32,-37 c -6,7 18,129 27,122 9,-7 -17,-134 -27,-122 z m 26,-44 c -6,8 18,129 26,123 9,-7 -16,-134 -26,-123 z m 20,-40 c -6,8 18,129 27,122 9,-6 -17,-133 -27,-122 z m 25,-63 c -7,8 17,129 26,122 9,-6 -17,-133 -26,-122 z m 24,-29 c -6,7 18,129 27,122 8,-6 -17,-133 -27,-122 z m 29,-19 c -6,5 15,84 23,80 8,-4 -15,-87 -23,-80 z m 26,-27 c -6,4 15,84 23,79 8,-4 -15,-87 -23,-79 z m -171,61 c -4,5 12,86 18,82 6,-4 -11,-90 -18,-82 z m 1311,240 c -4,6 27,47 43,91 17,45 11,100 22,104 11,4 16,-40 -6,-97 -21,-56 -53,-108 -59,-98 z m -236,21 c -16,4 -11,31 -26,59 -15,27 -28,41 -23,49 5,7 27,-22 38,-52 12,-29 17,-58 11,-56 z m 37,-1 c -16,5 -11,32 -26,59 -16,28 -28,42 -23,49 5,7 27,-22 38,-51 12,-29 17,-58 11,-57 z m 25,14 c -17,5 -11,32 -26,60 -16,27 -28,41 -23,48 5,8 26,-22 38,-51 11,-29 16,-58 11,-57 z m 21,15 c -16,4 -10,31 -26,59 -15,28 -27,42 -23,49 5,7 27,-22 38,-51 12,-29 17,-59 11,-57 z m 22,10 c -16,5 -11,32 -26,59 -16,28 -28,42 -23,49 5,7 27,-22 38,-51 11,-29 16,-58 11,-57 z m 23,16 c -16,5 -11,32 -26,59 -16,28 -28,42 -23,49 5,7 27,-22 38,-51 12,-29 17,-58 11,-57 z m 23,16 c -16,5 -11,32 -26,59 -15,28 -28,42 -23,49 5,7 27,-22 38,-51 12,-29 17,-58 11,-57 z m 21,15 c -16,5 -11,32 -26,59 -16,28 -28,42 -23,49 5,7 27,-22 38,-51 11,-29 16,-58 11,-57 z m 22,20 c -16,4 -11,31 -26,59 -15,27 -28,41 -23,48 5,8 27,-21 38,-51 12,-29 17,-58 11,-56 z m 25,23 c -16,4 -11,31 -26,59 -16,27 -28,41 -23,49 5,7 27,-22 38,-52 11,-29 16,-58 11,-56 z m 20,17 c -17,5 -11,32 -26,59 -16,28 -28,42 -23,49 5,7 26,-22 38,-51 11,-29 16,-58 11,-57 z m 27,4 c -16,5 -11,32 -26,59 -16,28 -28,42 -23,49 5,7 27,-22 38,-51 12,-29 17,-58 11,-57 z m 19,25 c -13,3 -9,24 -21,46 -12,21 -21,32 -18,38 4,5 21,-17 30,-40 9,-23 13,-45 9,-44 z m 14,22 c -13,4 -8,25 -20,46 -12,21 -22,32 -18,38 4,5 21,-17 30,-40 8,-22 12,-45 8,-44 z m 18,11 c -9,3 -6,20 -14,36 -9,17 -15,26 -13,30 3,5 15,-13 21,-31 6,-18 9,-36 6,-35 z m 21,16 c -9,3 -6,19 -15,36 -8,17 -15,26 -12,30 3,4 15,-13 21,-31 6,-18 9,-36 6,-35 z m 17,11 c -9,3 -5,20 -14,37 -8,16 -15,25 -13,29 3,5 15,-13 21,-31 7,-18 9,-35 6,-35 z m 21,15 c -9,3 -6,19 -14,36 -9,17 -15,25 -13,30 3,4 15,-14 21,-32 6,-17 9,-35 6,-34 z m 509,388 c 0,-9 -17,-12 -30,-26 -13,-13 -19,-22 -24,-22 -5,1 8,19 23,31 15,12 31,20 31,17 z m 92,270 c 0,12 32,61 36,57 4,-4 35,-42 35,-51 0,-10 -7,-31 -14,-28 -8,3 -8,16 -9,18 -2,2 -19,-24 -23,-20 -3,4 6,28 1,33 -5,6 -26,-16 -26,-9 z m 44,-93 c -3,14 24,72 33,69 8,-3 11,-52 1,-58 -11,-6 -3,16 -10,13 -7,-2 -22,-31 -24,-24 z m -1188,-614 c 1,7 53,83 62,79 9,-4 -13,-28 -23,-47 -10,-19 -15,-40 -20,-41 -5,-2 -21,3 -19,9 z m 36,-6 c 2,8 66,105 76,100 11,-5 -15,-35 -28,-60 -13,-24 -18,-50 -24,-52 -6,-2 -26,3 -24,12 z m 244,88 c 2,9 83,135 94,130 11,-5 -37,-64 -50,-89 -12,-24 -14,-51 -20,-53 -6,-2 -26,4 -24,12 z m 73,40 c 2,7 79,115 89,110 11,-4 -35,-55 -47,-75 -12,-21 -14,-44 -19,-45 -6,-2 -25,3 -23,10 z m 55,22 c 2,8 79,115 89,111 11,-4 -35,-55 -47,-76 -12,-20 -14,-43 -19,-45 -6,-1 -24,3 -23,10 z m 55,18 c 2,7 78,115 89,111 10,-5 -35,-55 -47,-76 -12,-21 -14,-43 -20,-45 -5,-2 -24,3 -22,10 z m -377,-160 c 5,12 96,139 106,130 9,-9 -26,-48 -45,-81 -20,-32 -33,-69 -40,-71 -6,-2 -25,11 -21,22 z m 54,22 c 4,11 95,139 105,130 10,-10 -25,-48 -45,-81 -19,-33 -32,-69 -39,-71 -7,-2 -25,10 -21,22 z m 59,21 c 5,12 105,148 116,138 11,-10 -28,-51 -49,-86 -22,-34 -36,-74 -43,-75 -7,-2 -28,11 -24,23 z m 338,137 c -1,10 20,77 58,100 38,24 60,38 66,54 6,16 7,37 18,53 11,16 116,151 129,174 12,23 30,36 32,48 3,13 -7,67 2,68 9,1 56,-39 44,-63 -12,-23 -4,7 -21,-2 -17,-10 -36,-30 -29,-39 6,-10 15,8 18,-1 3,-8 -10,-23 1,-28 11,-6 26,45 30,37 3,-8 -13,-41 -8,-46 5,-4 11,11 15,3 4,-9 -20,-36 -44,-39 -25,-4 -39,-12 -44,-26 -4,-14 5,-11 -4,-24 -10,-12 -105,-79 -102,-91 3,-13 33,13 35,-2 2,-15 -79,-52 -96,-88 -16,-36 -25,-55 -22,-62 4,-6 15,-9 7,-17 -8,-8 -42,-11 -42,-3 -1,9 30,49 20,59 -11,9 -62,-78 -63,-65 z m -144,-654 c -5,0 -13,26 -8,30 6,4 18,-29 8,-30 z m 42,22 c -6,0 -14,25 -8,29 5,4 17,-28 8,-29 z m -6,43 c -6,-1 -14,25 -8,29 5,4 18,-28 8,-29 z m 22,25 c -5,0 -14,25 -8,29 6,4 18,-28 8,-29 z m 19,16 c -6,0 -14,25 -9,29 6,4 18,-28 9,-29 z m -18,27 c -5,-1 -13,25 -8,29 6,4 18,-28 8,-29 z m 16,23 c -6,-1 -14,25 -9,29 6,4 18,-28 9,-29 z m 19,34 c -5,0 -13,25 -8,29 6,4 18,-28 8,-29 z m -10,46 c -5,-1 -13,25 -8,29 6,4 18,-28 8,-29 z m 26,-17 c -5,-1 -14,25 -8,29 6,4 18,-29 8,-29 z m -4,50 c -6,0 -14,25 -8,29 5,4 17,-28 8,-29 z m 19,22 c -6,-1 -14,25 -8,29 5,4 18,-29 8,-29 z m -5,38 c -6,0 -14,26 -8,30 5,3 18,-29 8,-30 z m 19,30 c -6,-1 -14,25 -8,29 5,4 18,-28 8,-29 z m -2,33 c -6,-1 -14,25 -8,29 5,4 18,-28 8,-29 z m 22,7 c -6,0 -14,25 -9,29 6,4 18,-28 9,-29 z m -192,-461 c -1,16 125,76 174,146 49,70 110,124 115,117 6,-8 -44,-51 -73,-85 -29,-33 -63,-82 -89,-99 -26,-17 -60,-34 -41,-38 20,-3 83,35 128,103 44,67 123,151 142,140 18,-12 -40,-47 -85,-102 -46,-56 -121,-108 -103,-119 18,-12 64,31 105,86 41,56 88,114 95,105 7,-10 -24,-58 -57,-91 -32,-32 -74,-60 -59,-73 14,-13 52,22 101,50 50,28 128,111 169,148 42,37 76,91 93,67 17,-24 -3,-55 -48,-87 -44,-31 -88,-67 -85,-74 3,-7 81,35 100,64 19,28 38,56 45,46 7,-9 -107,-114 -102,-120 4,-7 110,81 132,118 22,38 47,78 53,66 6,-12 -15,-34 -58,-87 -43,-53 -134,-133 -127,-138 7,-4 116,82 150,136 33,55 80,139 87,133 6,-5 -35,-85 -68,-125 -34,-41 -47,-61 -49,-70 -3,-10 -36,-32 -59,-50 -24,-17 -51,-41 -37,-50 14,-10 49,39 86,64 37,25 57,73 84,109 27,36 73,103 78,92 5,-10 -56,-76 -67,-94 -11,-19 -17,-49 -19,-57 -2,-9 -57,-39 -65,-51 -8,-13 -33,-48 -17,-53 16,-4 31,40 49,59 19,19 41,25 53,46 12,20 51,84 70,104 19,21 29,39 32,34 2,-5 -34,-49 -45,-72 -12,-23 -17,-46 -35,-63 -19,-17 -42,-37 -47,-45 -6,-8 -30,-56 -27,-61 3,-6 20,22 37,50 17,29 51,50 69,67 17,17 49,65 60,92 11,27 49,107 63,122 14,15 42,55 48,40 6,-16 -27,-53 -49,-93 -22,-41 -32,-83 -61,-110 -29,-26 -56,-63 -70,-78 -14,-14 -25,-38 -36,-61 -12,-23 -15,-37 -22,-45 -7,-8 -45,-38 -32,-42 14,-4 42,24 61,58 19,34 28,56 46,79 18,23 36,38 40,32 4,-5 -20,-54 -29,-69 -10,-14 -35,-38 -25,-39 10,-2 46,40 59,66 12,27 1,38 32,59 31,22 60,45 65,66 4,22 14,51 39,78 24,27 102,142 108,131 7,-11 -35,-90 -73,-123 -39,-33 -52,-73 -48,-80 4,-7 17,-3 17,-10 0,-7 -103,-132 -108,-124 -5,9 61,57 54,68 -7,11 -42,-22 -57,-43 -15,-22 -31,-51 -59,-83 -29,-33 -62,-52 -77,-61 -15,-9 -16,-32 -55,-53 -38,-20 -134,-77 -247,-78 -113,-1 -116,13 -224,32 -107,19 -204,11 -205,23 z m 282,61 c -5,8 42,29 44,24 3,-5 -37,-36 -44,-24 z m 56,0 c -5,8 42,29 45,24 2,-4 -38,-35 -45,-24 z m 42,-10 c -5,8 42,29 44,24 3,-4 -37,-35 -44,-24 z m 130,-31 c -5,7 42,29 44,24 3,-5 -37,-36 -44,-24 z m -105,89 c -5,8 42,29 45,24 2,-4 -38,-36 -45,-24 z m 87,-39 c -5,7 42,28 44,24 3,-5 -37,-36 -44,-24 z m -15,52 c -5,7 42,28 45,24 2,-5 -38,-36 -45,-24 z m -12,24 c -4,8 43,29 45,24 3,-5 -37,-36 -45,-24 z m 107,-62 c -5,8 42,29 44,24 3,-4 -37,-35 -44,-24 z m 52,2 c -5,8 42,29 45,24 2,-4 -38,-36 -45,-24 z m 295,280 c -3,11 66,111 72,100 5,-11 -69,-109 -72,-100 z m 98,-10 c -3,11 66,111 72,100 5,-11 -69,-109 -72,-100 z m -161,-82 c -2,6 37,62 40,56 4,-7 -39,-61 -40,-56 z m -509,-105 c -3,7 50,78 55,70 4,-8 -53,-76 -55,-70 z m -1206,416 c 0,3 -5,6 -10,6 -6,0 -10,-3 -10,-6 0,-3 4,-5 10,-5 5,0 10,2 10,5 z m -38,-9 c -1,3 -5,6 -11,6 -5,0 -10,-3 -10,-6 1,-3 5,-5 11,-5 5,0 10,2 10,5 z m -28,-9 c -1,3 -5,6 -11,6 -5,0 -10,-3 -10,-6 1,-3 5,-5 11,-5 5,0 10,2 10,5 z m -32,-9 c 0,4 -5,6 -11,6 -5,0 -10,-3 -10,-6 1,-3 5,-5 11,-5 5,0 10,2 10,5 z m -32,-11 c 0,3 -4,6 -10,6 -5,0 -10,-3 -10,-6 0,-3 5,-5 10,-5 6,0 10,2 10,5 z m -44,-15 c 0,3 -4,5 -10,5 -5,0 -10,-2 -10,-5 0,-3 5,-6 10,-6 6,0 10,3 10,6 z m -27,-15 c 0,4 -4,6 -10,6 -5,0 -10,-3 -10,-6 0,-3 5,-5 10,-5 6,0 10,2 10,5 z m -15,33 c 0,3 -5,5 -10,5 -6,0 -10,-2 -10,-5 0,-3 4,-6 10,-6 5,0 10,3 10,6 z m -17,27 c 0,3 -5,5 -10,5 -6,0 -10,-3 -10,-6 0,-3 4,-5 10,-5 5,0 10,2 10,6 z m 52,-15 c 0,3 -5,5 -10,5 -6,0 -10,-2 -10,-5 0,-3 4,-6 10,-6 5,0 10,3 10,6 z m -24,26 c 0,3 -5,5 -10,5 -6,0 -10,-2 -10,-5 0,-3 4,-6 10,-6 5,0 10,3 10,6 z m -106,35 c 0,3 -4,5 -10,5 -5,0 -10,-2 -10,-6 0,-3 5,-5 10,-5 6,0 10,3 10,6 z m -30,-2 c 0,3 -4,5 -10,5 -6,0 -10,-2 -10,-5 0,-3 5,-6 10,-6 6,0 10,3 10,6 z m -26,-7 c 0,3 -5,6 -10,6 -6,0 -10,-3 -10,-6 0,-3 4,-5 10,-5 5,0 10,2 10,5 z m -5,28 c 0,3 -4,5 -10,5 -5,0 -10,-2 -10,-5 0,-3 5,-6 10,-6 6,0 10,3 10,6 z m -51,-13 c 0,3 -4,5 -10,5 -5,0 -10,-2 -10,-5 0,-3 5,-6 10,-6 6,0 10,3 10,6 z m -1,25 c 0,3 -4,6 -10,6 -5,0 -10,-3 -10,-6 0,-3 5,-5 10,-5 6,0 10,2 10,5 z m -62,-5 c 0,3 -5,6 -10,6 -6,0 -10,-3 -10,-6 0,-3 4,-6 10,-6 5,0 10,3 10,6 z m -10,27 c 0,3 -5,5 -10,5 -6,0 -10,-2 -10,-5 0,-3 4,-6 10,-6 6,0 10,3 10,6 z m -52,-6 c 0,3 -5,5 -10,5 -6,0 -10,-2 -10,-5 0,-3 4,-6 10,-6 5,0 10,3 10,6 z m 0,21 c 0,3 -5,5 -10,5 -6,0 -10,-3 -10,-6 0,-3 4,-5 10,-5 5,0 10,3 10,6 z m -43,-13 c 0,3 -4,5 -10,5 -5,0 -10,-2 -10,-6 0,-3 5,-5 10,-5 6,0 10,3 10,6 z m -33,27 c 0,3 -4,6 -10,6 -5,-1 -10,-3 -10,-6 0,-3 5,-6 10,-6 6,0 10,3 10,6 z m -34,-7 c 0,4 -5,6 -10,6 -6,0 -10,-3 -10,-6 0,-3 4,-5 10,-5 5,0 10,2 10,5 z m 503,-129 c 0,3 -4,6 -10,6 -5,0 -10,-3 -10,-6 0,-3 5,-6 10,-5 6,0 10,2 10,5 z m 26,9 c 0,3 -5,5 -10,5 -6,0 -10,-2 -10,-5 0,-3 4,-6 10,-6 5,0 10,3 10,6 z m 26,7 c 0,3 -4,6 -10,6 -5,0 -10,-3 -10,-6 0,-3 5,-5 10,-5 6,0 10,2 10,5 z m 28,8 c 0,3 -5,6 -11,6 -5,0 -10,-3 -10,-6 0,-3 5,-5 11,-5 5,0 10,2 10,5 z m 58,-40 c 0,4 -4,6 -10,6 -5,0 -10,-3 -10,-6 0,-3 5,-5 10,-5 6,0 10,2 10,5 z m 31,8 c 0,3 -5,5 -10,5 -6,0 -10,-2 -10,-5 0,-3 4,-6 10,-6 5,0 10,3 10,6 z m 29,7 c 0,3 -4,6 -10,6 -5,0 -10,-3 -10,-6 0,-3 5,-6 10,-5 6,0 10,2 10,5 z m 39,6 c 0,3 -5,5 -10,5 -6,0 -10,-2 -10,-5 0,-3 4,-6 10,-6 5,0 10,3 10,6 z m 40,4 c 0,3 -5,6 -10,6 -6,0 -10,-3 -10,-6 0,-3 4,-6 10,-6 5,1 10,3 10,6 z m 60,-37 c 0,3 -4,6 -10,6 -5,0 -10,-3 -10,-6 0,-3 5,-5 10,-5 6,0 10,2 10,5 z m -9,16 c 0,3 -4,6 -10,6 -5,0 -10,-3 -10,-6 0,-3 5,-6 10,-5 6,0 10,2 10,5 z m 45,-11 c 0,3 -4,6 -10,6 -5,0 -10,-3 -10,-6 0,-3 5,-5 10,-5 6,0 10,2 10,5 z m -9,17 c 0,3 -4,5 -10,5 -5,0 -10,-2 -10,-5 0,-3 5,-6 10,-6 6,0 10,3 10,6 z m 52,-12 c 0,3 -5,5 -10,5 -6,0 -10,-2 -10,-6 0,-3 4,-5 10,-5 5,0 10,3 10,6 z m 43,-2 c 0,3 -5,6 -10,6 -6,0 -10,-3 -10,-6 0,-3 4,-5 10,-5 5,0 10,2 10,5 z m 20,27 c 0,3 -5,5 -10,5 -6,0 -10,-3 -10,-6 0,-3 4,-5 10,-5 5,0 10,2 10,6 z m 43,-3 c 0,4 -4,6 -10,6 -6,0 -10,-3 -10,-6 0,-3 5,-5 10,-5 6,0 10,2 10,5 z m -76,2 c 0,3 -5,6 -10,6 -6,0 -10,-3 -10,-6 0,-3 4,-5 10,-5 5,0 10,2 10,5 z m -43,6 c 0,3 -5,6 -10,6 -6,0 -10,-3 -10,-6 0,-3 4,-5 10,-5 5,0 10,2 10,5 z m -20,20 c 0,3 -4,5 -10,5 -5,0 -10,-2 -10,-5 0,-3 5,-6 10,-6 6,0 10,3 10,6 z m -43,2 c 0,3 -5,6 -10,6 -6,-1 -10,-3 -10,-6 0,-3 4,-6 10,-6 5,1 10,3 10,6 z m -39,1 c 0,3 -4,6 -10,6 -5,0 -10,-3 -10,-6 0,-3 5,-5 10,-5 6,0 10,2 10,5 z m -34,-1 c 0,3 -5,6 -10,6 -6,0 -10,-3 -10,-6 0,-3 4,-5 10,-5 6,0 10,2 10,5 z m -44,-3 c 0,3 -5,5 -10,5 -6,0 -10,-2 -10,-5 0,-3 4,-6 10,-6 6,0 10,3 10,6 z m -33,-7 c 0,3 -4,6 -10,6 -5,0 -10,-3 -10,-6 0,-3 5,-5 10,-5 6,0 10,2 10,5 z m -1275,621 c -6,-2 -12,14 -8,18 5,4 16,-16 8,-18 z m 21,7 c -5,-1 -12,14 -7,18 5,4 15,-15 7,-18 z m 15,5 c -6,-2 -12,14 -8,18 5,4 16,-16 8,-18 z m 48,8 c -6,-1 -12,14 -8,18 5,4 16,-15 8,-18 z m -56,35 c -5,-2 -12,14 -7,18 5,4 15,-16 7,-18 z m -41,7 c -6,-1 -13,14 -8,18 5,4 16,-15 8,-18 z m 763,-875 c -11,0 -34,43 -22,50 12,6 31,-50 22,-50 z m 37,3 c -8,0 -24,32 -15,37 8,4 22,-37 15,-37 z m -102,34 c -8,0 -24,32 -15,37 8,4 22,-37 15,-37 z m -28,48 c -6,0 -19,23 -12,27 6,3 17,-27 12,-27 z m -24,37 c -6,0 -18,22 -12,26 7,3 17,-26 12,-26 z m -16,-34 c -6,0 -19,23 -12,26 6,4 17,-26 12,-26 z m -27,36 c -6,0 -18,23 -12,26 7,3 17,-26 12,-26 z m -31,19 c -6,0 -18,23 -11,26 6,4 16,-26 11,-26 z m -70,-60 c -6,0 -18,23 -12,26 7,3 17,-26 12,-26 z m 2,-54 c -6,0 -18,23 -12,26 7,4 17,-26 12,-26 z m 35,-40 c -6,0 -18,23 -12,26 7,3 17,-26 12,-26 z m 20,-58 c -6,0 -18,23 -11,27 6,3 17,-27 11,-27 z m -42,45 c -6,0 -19,23 -12,26 6,4 17,-26 12,-26 z m -32,-17 c -6,0 -18,23 -11,26 6,4 17,-26 11,-26 z m -13,106 c -6,0 -18,23 -12,26 7,4 17,-26 12,-26 z m 4,-48 c -6,0 -18,23 -12,26 7,3 17,-26 12,-26 z m -3,-199 c -6,0 -18,23 -12,26 6,3 17,-26 12,-26 z m -16,-8 c -6,0 -18,23 -12,27 6,3 17,-27 12,-27 z m 22,-33 c -6,0 -19,23 -12,27 6,3 17,-27 12,-27 z m 1,-34 c -6,0 -18,23 -12,27 6,3 17,-27 12,-27 z m 13,-44 c -6,0 -18,23 -12,26 6,4 17,-26 12,-26 z m 29,-15 c -6,0 -18,23 -12,27 6,3 17,-27 12,-27 z m 66,403 c -6,0 -18,23 -12,26 7,4 17,-26 12,-26 z m -92,47 c -5,3 -3,29 5,28 7,-1 -1,-31 -5,-28 z m -36,-203 c -22,5 -107,70 -229,73 -121,3 -242,-4 -292,14 -50,18 -127,67 -120,79 7,12 45,-19 47,-13 3,5 -17,19 -12,24 5,5 42,-26 44,-18 3,8 -43,29 -38,38 4,9 43,-34 47,-24 4,10 -42,28 -40,37 1,8 29,-17 30,-5 1,12 -39,26 -32,33 7,7 77,-23 120,-53 42,-29 86,-79 94,-68 8,11 -25,28 -13,33 12,5 48,-43 53,-31 5,12 -34,30 -27,36 6,7 94,-63 99,-50 6,14 -72,44 -62,52 10,8 94,-60 99,-50 6,10 -121,72 -115,82 5,11 151,-92 158,-77 6,15 -135,74 -125,83 9,9 176,-93 181,-80 4,13 -132,79 -119,86 13,7 146,-97 153,-84 7,14 -152,87 -143,96 8,9 142,-69 149,-58 7,10 -108,57 -97,65 11,7 124,-68 126,-54 2,14 -110,58 -102,66 8,9 127,-69 132,-56 6,12 -93,63 -83,69 11,7 97,-42 101,-49 4,-7 -5,-41 -4,-81 1,-40 41,-119 20,-115 z m -628,217 c -6,-9 -72,18 -63,28 10,11 70,-18 63,-28 z m -98,91 c -2,-3 -68,24 -61,32 6,8 63,-27 61,-32 z m -153,85 c -32,3 -44,24 -72,41 -29,17 -88,45 -86,53 3,7 52,39 68,31 16,-8 29,-65 45,-62 16,2 37,33 46,27 9,-6 40,-50 32,-58 -8,-8 -25,29 -32,24 -7,-5 6,-21 -2,-25 -8,-4 -90,54 -93,41 -3,-14 108,-74 94,-72 z m 67,-50 c -4,-2 -24,15 -20,19 4,5 25,-15 20,-19 z m 28,16 c -4,-2 -24,14 -20,19 4,4 25,-16 20,-19 z m -275,151 c -3,-2 -23,14 -19,19 4,5 25,-16 19,-19 z m 31,23 c -3,-2 -23,14 -19,19 4,5 25,-16 19,-19 z"
          id="path1556"
          inkscape:connector-curvature="0"
          style="fill:#ffcc00" />
      <path
          class="fil4"
          d="m 17702,23856 c -6,-3 -57,28 -54,38 4,10 64,-33 54,-38 z m 24,46 c -5,-3 -57,28 -53,38 3,9 63,-33 53,-38 z m 17,-40 c -8,-4 -84,41 -79,56 6,14 94,-48 79,-56 z m 164,-125 c -9,1 -89,84 -86,92 2,9 11,16 19,13 9,-4 49,-79 52,-62 2,18 -92,120 -124,164 -33,44 -120,177 -133,181 -12,4 42,-78 34,-80 -7,-3 -125,129 -193,194 -67,65 -182,168 -172,179 10,12 48,12 58,6 10,-6 99,-87 172,-167 74,-80 86,-90 161,-181 75,-91 203,-277 204,-262 1,14 -119,191 -226,309 -108,118 -260,272 -255,281 5,10 32,12 45,7 12,-5 99,-81 152,-140 52,-59 67,-78 73,-91 7,-14 -6,-37 2,-50 7,-12 127,-176 128,-160 2,16 -112,139 -107,151 5,11 37,-23 106,-109 69,-86 175,-237 175,-226 0,11 -141,196 -135,207 6,11 69,-63 67,-37 -3,26 -44,65 -61,79 -18,13 -38,10 -55,27 -18,17 -80,90 -152,171 -73,81 -176,173 -171,183 5,10 66,10 74,8 9,-2 84,-20 93,-24 9,-4 105,-108 190,-208 85,-100 216,-277 227,-291 11,-13 0,-28 16,-48 17,-19 18,-10 29,-21 11,-11 65,-72 57,-80 -7,-7 -38,-10 -48,-2 -10,7 -197,254 -288,373 -91,118 -231,264 -237,258 -6,-6 102,-107 176,-199 73,-93 172,-231 220,-291 47,-60 111,-132 91,-139 -20,-8 -79,-8 -92,4 -12,12 -71,106 -75,91 -3,-15 66,-87 57,-95 -10,-7 -57,-16 -68,-15 z m -87,345 c -7,0 -112,125 -105,131 8,7 119,-131 105,-131 z m -189,-28 c -10,1 -417,344 -408,352 8,7 38,11 48,5 10,-6 390,-358 360,-357 z m -348,273 c -8,-1 -136,84 -126,92 10,7 143,-91 126,-92 z m 917,-573 c -21,13 -203,261 -265,341 -62,79 -261,292 -255,300 7,9 64,11 76,6 11,-6 107,-109 100,-113 -8,-4 -129,109 -132,101 -3,-7 25,-28 69,-78 44,-50 149,-190 149,-176 0,15 -114,144 -108,146 7,3 44,-31 95,-86 50,-56 68,-83 96,-122 28,-39 74,-88 106,-124 32,-36 136,-181 129,-160 -7,20 -111,159 -123,184 -12,25 -30,72 -23,74 8,1 40,-47 60,-92 21,-45 47,-89 48,-80 1,8 -66,134 -54,136 13,2 45,-64 70,-106 24,-41 87,-123 88,-108 1,16 -132,187 -127,197 6,10 87,-108 81,-89 -7,18 -75,108 -116,147 -40,38 -209,244 -234,272 -26,27 -39,51 -40,40 -1,-10 49,-65 99,-122 49,-56 175,-205 164,-210 -10,-5 -71,79 -121,137 -51,57 -175,204 -178,199 -3,-6 69,-88 117,-140 48,-51 119,-136 112,-139 -8,-3 -182,193 -181,184 1,-10 229,-285 219,-286 -10,-1 -73,78 -110,128 -38,51 -84,115 -115,148 -31,33 -121,136 -121,143 0,8 43,14 65,8 21,-6 50,-37 67,-38 17,0 67,-57 66,-47 -1,9 -64,59 -60,66 5,8 45,-32 47,-21 2,11 -43,39 -27,45 15,7 45,-10 63,-21 18,-10 23,-2 32,-7 10,-4 118,-144 185,-235 66,-92 268,-385 284,-381 16,4 -74,131 -136,205 -62,73 -175,226 -220,280 -45,55 -104,138 -101,149 4,11 18,21 26,16 9,-5 111,-170 114,-161 2,9 28,-9 22,4 -6,13 -52,70 -56,71 -4,1 45,-68 38,-66 -6,3 -99,133 -90,140 9,7 12,19 35,12 24,-6 72,-95 153,-201 82,-106 295,-418 295,-428 0,-9 -89,99 -87,84 2,-15 87,-116 73,-126 -14,-11 -124,-9 -170,-8 -46,0 -170,-7 -193,8 z m 4,40 c -6,-3 -111,125 -103,130 9,5 109,-128 103,-130 z m 21,18 c -6,-3 -111,125 -102,130 8,4 108,-129 102,-130 z m 155,-16 c -16,8 -111,148 -151,216 -41,68 -231,294 -226,302 5,8 183,-214 240,-307 56,-94 145,-216 137,-211 z m 21,16 c -15,8 -111,148 -151,216 -40,68 -230,294 -226,302 5,8 184,-214 240,-307 56,-94 145,-216 137,-211 z m 192,33 c -11,-7 -40,43 -30,50 10,6 45,-42 30,-50 z m 78,-37 c -11,-6 -40,43 -30,50 10,7 45,-42 30,-50 z m -9,90 c -11,-6 -40,43 -30,50 10,7 45,-42 30,-50 z m -39,83 c -11,-6 -41,44 -30,50 10,7 44,-41 30,-50 z m 94,-65 c -11,-6 -40,43 -30,50 10,7 45,-42 30,-50 z m 32,10 c -11,-6 -40,44 -30,50 10,7 45,-41 30,-50 z m -128,-41 c -11,-6 -40,43 -30,50 10,6 45,-42 30,-50 z m -31,60 c -11,-6 -40,43 -30,50 10,6 45,-42 30,-50 z m -48,-17 c -11,-6 -40,43 -30,50 10,6 45,-42 30,-50 z m -36,61 c -10,-6 -40,43 -30,50 11,6 45,-42 30,-50 z m -52,67 c -11,-6 -40,44 -30,50 10,7 45,-41 30,-50 z m 0,76 c -11,-6 -41,44 -31,50 11,7 45,-41 31,-50 z m 43,-20 c -11,-6 -40,44 -30,50 10,7 45,-41 30,-50 z m 51,-83 c -11,-6 -40,43 -30,50 10,7 45,-41 30,-50 z m 34,13 c -11,-6 -40,44 -30,50 10,7 45,-41 30,-50 z m -54,86 c -11,-6 -40,44 -30,50 10,7 45,-41 30,-50 z m 71,0 c -11,-6 -40,43 -30,50 10,6 45,-42 30,-50 z m 34,10 c -11,-6 -41,44 -30,50 10,7 44,-41 30,-50 z m 33,-52 c -11,-6 -40,44 -30,50 11,7 45,-41 30,-50 z m 44,-78 c -11,-6 -41,43 -30,50 10,6 44,-42 30,-50 z m 42,-4 c -11,-7 -40,43 -30,49 10,7 45,-41 30,-49 z m -46,75 c -9,-5 -33,34 -24,39 8,5 36,-32 24,-39 z m -41,68 c -9,-5 -33,34 -25,39 9,5 37,-33 25,-39 z m -31,55 c -9,-5 -33,34 -25,39 9,5 37,-32 25,-39 z m -44,14 c -9,-5 -33,34 -24,39 8,5 36,-33 24,-39 z m 74,2 c -9,-5 -33,34 -24,39 8,5 36,-32 24,-39 z m 18,38 c -9,-5 -33,34 -25,39 8,6 37,-32 25,-39 z m 112,-250 c -9,-5 -33,33 -25,39 9,5 37,-33 25,-39 z m 30,22 c -9,-5 -32,34 -24,39 8,5 36,-32 24,-39 z m 27,37 c -9,-5 -33,34 -25,39 9,6 37,-32 25,-39 z m -37,47 c -9,-4 -33,34 -25,40 8,5 37,-33 25,-40 z m -326,82 c -11,-6 -40,43 -30,50 11,6 45,-42 30,-50 z m -54,19 c -11,-6 -40,43 -30,50 11,7 45,-42 30,-50 z m -39,-3 c -11,-6 -41,43 -31,50 11,6 45,-42 31,-50 z m -39,58 c -11,-6 -40,44 -30,50 10,7 45,-41 30,-50 z m -46,72 c -11,-6 -40,44 -30,50 10,7 45,-41 30,-50 z m -65,99 c -8,-4 -28,27 -21,31 7,4 31,-26 21,-31 z m -17,48 c -1,-9 -38,-7 -37,1 0,8 39,10 37,-1 z m 47,-3 c -1,-8 -38,-7 -37,1 1,9 39,10 37,-1 z m 49,0 c -1,-9 -37,-7 -37,1 1,8 39,10 37,-1 z m -66,-96 c -11,-6 -40,44 -30,50 10,7 45,-41 30,-50 z m 61,15 c -11,-6 -40,44 -30,50 10,7 45,-41 30,-50 z m 32,7 c -11,-6 -40,44 -30,50 11,7 45,-41 30,-50 z m 36,16 c -10,-6 -40,44 -30,50 11,7 45,-41 30,-50 z m 24,-78 c -11,-6 -40,44 -30,50 10,7 45,-41 30,-50 z m 36,10 c -11,-6 -40,43 -30,50 10,6 45,-42 30,-50 z m 44,-5 c -7,-4 -26,27 -20,31 7,4 30,-25 20,-31 z m -4,55 c -7,-4 -26,27 -20,31 7,4 30,-26 20,-31 z m -64,25 c -7,-4 -27,27 -20,31 7,4 30,-26 20,-31 z m 56,29 c -7,-4 -26,27 -19,31 6,4 29,-26 19,-31 z m 44,7 c -7,-4 -27,27 -20,31 7,4 30,-26 20,-31 z m -2,-53 c -8,-4 -27,27 -20,31 7,4 29,-26 20,-31 z m 33,12 c -7,-4 -27,27 -20,31 7,4 30,-26 20,-31 z m 16,-67 c -7,-4 -26,27 -20,31 7,4 30,-25 20,-31 z m -41,-10 c -7,-4 -26,27 -19,31 6,4 29,-26 19,-31 z m 9,-60 c -7,-4 -26,26 -20,31 7,4 30,-26 20,-31 z m -40,-3 c -7,-4 -26,26 -20,30 7,5 30,-25 20,-30 z m -45,1 c -7,-4 -27,27 -20,31 7,4 30,-26 20,-31 z m -35,-1 c -8,-4 -27,27 -20,31 6,4 29,-26 20,-31 z m 158,7 c -7,-3 -26,27 -20,31 7,4 30,-25 20,-31 z m 26,4 c -7,-4 -26,27 -20,31 7,4 30,-25 20,-31 z m 40,15 c -7,-4 -27,26 -20,30 7,5 30,-25 20,-30 z m 30,13 c -8,-4 -27,27 -20,31 6,4 29,-26 20,-31 z m -30,47 c -7,-4 -26,27 -19,31 6,4 29,-26 19,-31 z m -20,56 c -8,-3 -27,27 -20,31 7,4 29,-25 20,-31 z m 90,-162 c -7,-4 -27,27 -20,31 7,4 30,-26 20,-31 z m 53,-68 c -13,-6 -46,45 -34,52 11,7 50,-43 34,-52 z m -33,-18 c -12,-7 -45,45 -34,51 12,7 51,-43 34,-51 z m 53,-80 c -13,-6 -46,45 -34,52 11,7 50,-43 34,-52 z m -47,-16 c -8,-15 -58,79 -51,94 7,16 61,-74 51,-94 z m -80,-68 c -8,-14 -58,80 -51,95 7,15 61,-75 51,-95 z m -92,166 c -8,-15 -58,79 -51,95 6,15 61,-75 51,-95 z m -15,-38 c -8,-15 -57,79 -51,94 7,16 61,-74 51,-94 z m 55,216 c -7,-4 -26,26 -19,31 6,4 29,-26 19,-31 z m -18,69 c -7,-4 -26,27 -20,31 7,4 30,-26 20,-31 z m -342,-67 c -11,-6 -40,43 -30,50 10,6 45,-42 30,-50 z m 634,-168 c -7,9 -5,79 -1,88 3,8 67,22 74,13 6,-8 10,-90 0,-99 -9,-9 -69,-8 -73,-2 z m -107,113 c -2,4 -3,36 8,44 10,7 55,7 58,3 3,-4 8,-38 -1,-45 -8,-6 -60,-8 -65,-2 z m 79,-509 c -2,-2 -20,-2 -24,6 -4,7 -3,42 -1,44 2,2 20,5 24,-1 4,-6 5,-45 1,-49 z m 48,-1 c -2,-2 -19,-2 -24,6 -4,8 -3,42 -1,44 2,2 21,6 24,0 4,-7 5,-46 1,-50 z m 40,1 c -2,-2 -20,-2 -24,5 -4,8 -3,42 -1,44 2,3 20,6 24,0 4,-6 5,-46 1,-49 z m 5,67 c -2,-2 -19,-3 -23,5 -5,8 -4,42 -2,44 2,2 21,6 24,0 4,-7 5,-46 1,-49 z m -39,2 c -2,-2 -19,-2 -23,6 -5,7 -4,42 -2,44 2,2 21,5 24,-1 4,-6 5,-45 1,-49 z m 20,86 c -2,-2 -20,-2 -24,5 -4,8 -3,42 -1,44 2,2 20,6 24,0 4,-7 5,-46 1,-49 z m -234,425 c -4,5 -11,24 -2,31 9,6 205,10 216,5 10,-6 10,-28 5,-29 -4,-1 -213,-13 -219,-7 z m -11,65 c -1,9 9,26 16,28 8,2 204,-1 208,-7 4,-6 8,-28 -6,-29 -14,-1 -217,0 -218,8 z m -47,63 c -1,9 6,26 12,28 5,2 147,-2 149,-8 3,-5 6,-28 -4,-28 -10,-1 -156,-1 -157,8 z m -3,69 c 0,12 5,34 10,36 4,3 114,-2 116,-10 2,-7 5,-37 -3,-38 -8,-1 -122,1 -123,12 z m 156,-4 c -1,12 4,34 9,37 4,2 114,-3 116,-10 2,-8 5,-37 -3,-38 -8,-2 -122,0 -122,11 z m -220,61 c 12,1 34,-1 37,-4 2,-3 4,-83 -3,-86 -7,-2 -37,-6 -38,-1 -2,6 -7,89 4,91 z m -1,103 c 12,1 34,-1 37,-4 3,-2 4,-83 -3,-86 -7,-2 -36,-6 -38,-1 -2,6 -7,89 4,91 z m 3,103 c 12,1 34,-1 37,-4 3,-2 4,-83 -3,-86 -7,-2 -36,-6 -38,0 -2,5 -7,88 4,90 z m 4,106 c 12,1 34,-1 37,-4 3,-3 4,-84 -3,-86 -7,-2 -36,-6 -38,-1 -2,6 -7,89 4,91 z m -2,114 c 12,1 34,-1 37,-4 3,-2 4,-83 -3,-86 -7,-2 -36,-6 -38,0 -2,5 -7,88 4,90 z m -10,107 c 6,1 18,-2 19,-5 2,-3 6,-84 3,-86 -4,-2 -18,-4 -19,1 -2,6 -8,89 -3,90 z m 32,-1 c 6,1 17,-2 19,-5 1,-3 6,-84 2,-85 -3,-2 -18,-5 -19,0 -1,6 -8,89 -2,90 z m -28,75 c 6,1 17,-2 18,-4 2,-2 4,-60 1,-62 -4,-1 -18,-4 -19,0 -1,4 -6,65 0,66 z m 29,-1 c 6,1 17,-1 18,-3 2,-2 4,-61 1,-62 -4,-2 -18,-4 -19,0 -1,4 -6,64 0,65 z m -28,80 c 6,1 17,-1 19,-3 1,-2 4,-60 0,-62 -3,-1 -18,-4 -19,0 -1,4 -5,65 0,65 z m 33,0 c 6,1 17,-1 18,-3 2,-3 4,-61 1,-63 -4,-1 -18,-4 -19,1 -1,4 -6,64 0,65 z m 268,-675 c -1,12 5,34 9,37 4,2 114,-3 117,-10 2,-8 4,-37 -4,-38 -8,-2 -122,0 -122,11 z m -115,9 c -1,12 3,34 7,36 3,3 87,-3 89,-10 2,-7 4,-37 -2,-38 -6,-1 -94,1 -94,12 z m -112,3 c 0,12 4,34 7,36 3,3 88,-3 90,-10 1,-7 3,-37 -3,-38 -6,-1 -93,1 -94,12 z m 1,78 c -1,12 4,34 8,36 4,3 107,-3 109,-10 2,-7 4,-37 -3,-38 -7,-1 -114,0 -114,12 z m 162,-16 c -1,12 5,34 10,37 4,2 120,-3 122,-10 3,-8 5,-37 -3,-38 -8,-2 -128,0 -129,11 z m -84,70 c -1,12 5,34 10,37 4,2 120,-3 122,-11 2,-7 5,-36 -3,-38 -8,-1 -128,1 -129,12 z m 61,474 c -1,9 6,26 12,28 5,2 147,-2 149,-7 3,-6 6,-29 -4,-30 -10,-1 -156,0 -157,9 z m -138,1 c -1,11 4,31 7,33 4,2 96,-3 97,-9 2,-7 4,-33 -2,-34 -7,-1 -102,0 -102,10 z m 14,-82 c -1,5 7,15 13,16 5,1 154,-1 157,-4 3,-3 6,-16 -5,-17 -10,0 -164,0 -165,5 z m -8,31 c -1,7 7,20 14,22 6,1 172,-1 175,-6 3,-4 7,-21 -5,-22 -12,-1 -184,0 -184,6 z m 241,-44 c -1,6 7,15 13,16 5,2 154,0 157,-3 3,-4 6,-16 -5,-17 -10,-1 -164,-1 -165,4 z m -8,32 c -1,7 7,20 14,21 6,2 172,0 175,-5 4,-4 7,-21 -5,-22 -12,-1 -183,-1 -184,6 z m 4,-426 c -2,12 2,35 6,38 4,2 120,7 123,0 3,-7 8,-36 0,-38 -8,-2 -128,-11 -129,0 z m 105,471 c -2,12 4,34 8,37 5,3 140,9 143,3 4,-7 9,-36 0,-38 -10,-2 -149,-13 -151,-2 z m 34,-601 c -1,12 4,34 8,37 4,3 114,3 117,-4 2,-7 6,-37 -2,-38 -8,-2 -121,-6 -123,5 z m -54,67 c -1,12 2,34 5,37 2,3 82,1 84,-6 2,-7 5,-36 -1,-38 -5,-2 -87,-4 -88,7 z m 18,122 c -1,12 2,34 4,37 3,2 83,1 84,-6 2,-7 6,-37 0,-38 -5,-2 -87,-4 -88,7 z m 64,-57 c -1,12 2,34 5,37 3,2 82,1 84,-6 2,-8 5,-37 0,-38 -6,-2 -88,-4 -89,7 z m 1,212 c -2,15 1,41 4,45 2,3 82,0 84,-9 2,-8 5,-44 0,-46 -6,-1 -87,-3 -88,10 z m 1,124 c -2,15 0,42 3,45 2,3 73,0 75,-9 2,-9 5,-44 0,-46 -5,-1 -77,-3 -78,10 z m 37,-399 c -1,12 0,34 1,37 2,2 48,-1 49,-8 2,-8 4,-37 1,-38 -3,-2 -50,-2 -51,9 z m 6,117 c 0,11 1,30 2,32 2,3 45,0 46,-7 1,-6 4,-32 1,-33 -3,-1 -48,-2 -49,8 z m -58,90 c -1,15 0,42 1,45 1,3 45,-2 46,-11 1,-9 4,-44 1,-46 -2,-1 -47,-1 -48,12 z m 16,131 c -1,12 0,33 2,36 1,2 44,-1 45,-8 2,-7 4,-36 1,-37 -3,-1 -47,-2 -48,9 z m 33,118 c -1,12 0,33 1,36 2,2 45,-1 46,-8 1,-7 4,-36 1,-37 -3,-1 -48,-2 -48,9 z m 30,-257 c -1,15 -1,42 0,45 0,3 27,-3 28,-12 1,-9 4,-44 2,-46 -2,-1 -29,0 -30,13 z m -4,137 c -1,9 -1,28 0,30 1,2 27,-2 28,-8 1,-6 3,-30 1,-31 -1,-1 -29,0 -29,9 z m -473,-254 c -1,12 0,34 2,37 1,3 47,-1 48,-8 2,-7 4,-37 1,-38 -3,-2 -50,-2 -51,9 z m 318,-230 c -1,11 7,31 13,33 5,2 153,-2 156,-9 3,-7 6,-33 -5,-34 -10,-2 -163,0 -164,10 z m 10,-200 c -5,12 -6,36 2,41 7,5 109,-8 112,-14 3,-7 -7,-33 -17,-35 -11,-1 -94,2 -97,8 z m -113,125 c -5,12 -6,36 1,41 8,4 110,-8 113,-15 3,-6 -7,-32 -18,-34 -10,-2 -93,1 -96,8 z m 100,-49 c -5,11 -5,25 0,29 6,4 174,-9 176,-16 2,-6 5,-41 -6,-42 -10,-1 -167,24 -170,29 z m 53,51 c -3,7 -5,33 0,36 4,3 118,2 120,-3 3,-5 5,-47 -5,-47 -10,0 -111,4 -115,14 z m -352,363 c 0,10 27,40 36,35 8,-6 12,-14 27,-27 15,-13 30,-19 29,-26 0,-7 -34,2 -51,4 -16,3 -40,3 -41,14 z m -24,18 c -6,11 -4,76 4,82 9,6 -1,-41 9,-35 10,6 21,65 32,72 11,6 -5,-36 8,-30 12,6 14,46 26,51 12,6 8,-29 -11,-60 -18,-32 -61,-92 -68,-80 z m 107,130 c -6,3 -2,86 4,95 6,9 79,52 87,46 8,-7 9,-20 3,-34 -6,-14 -86,-111 -94,-107 z m -104,-5 c -9,9 -2,56 6,62 8,6 7,-29 21,-22 14,6 29,26 37,19 7,-8 -56,-68 -64,-59 z m -95,-276 c -6,-13 -119,-180 -186,-175 -67,4 -64,39 -62,51 3,12 7,41 22,36 14,-4 5,-54 15,-48 10,7 32,96 45,92 13,-5 -17,-40 -7,-59 9,-19 59,-10 55,16 -4,26 -29,33 -28,46 1,13 31,64 39,62 7,-2 -21,-42 -5,-36 17,5 57,122 79,116 23,-5 -25,-123 -7,-114 17,9 46,151 52,142 5,-10 -6,-117 -12,-129 z m -86,-59 c -4,4 28,92 32,91 5,-2 -26,-95 -32,-91 z m -46,-31 c 0,7 -6,12 -14,12 -8,0 -15,-5 -14,-12 0,-7 6,-13 14,-13 8,0 14,6 14,13 z m -161,3 c -42,8 -87,42 -72,109 16,67 51,93 63,91 12,-1 -63,-96 -53,-98 10,-3 35,32 38,22 3,-10 -25,-54 -11,-57 14,-4 12,26 21,19 9,-6 -5,-32 6,-35 11,-3 7,23 18,23 12,0 17,-6 24,2 6,9 67,172 79,167 12,-5 -88,-194 -73,-196 15,-3 96,207 107,203 10,-5 -66,-160 -49,-161 18,-1 64,200 88,187 25,-13 -41,-131 -30,-133 10,-2 75,192 92,184 17,-9 -25,-80 -10,-78 14,2 55,108 63,93 7,-16 5,-64 0,-75 -4,-12 -232,-281 -301,-267 z m 19,105 c 0,8 -5,14 -13,14 -7,0 -13,-6 -13,-14 0,-8 6,-14 14,-14 7,0 12,6 12,14 z m -24,44 c -7,6 18,70 26,71 7,1 16,4 21,-3 5,-6 -40,-73 -47,-68 z m 45,4 c -7,6 18,79 25,80 7,1 17,5 21,-3 5,-7 -40,-84 -46,-77 z m 490,-1056 c -7,11 24,33 53,35 29,2 177,2 178,-14 1,-17 -13,-25 -81,-25 -68,1 -145,-4 -150,4 z m -81,85 c -1,8 492,647 505,644 13,-2 32,-5 20,-23 -12,-17 -518,-665 -525,-621 z m 468,682 c 0,20 -5,347 6,394 12,46 14,90 16,122 3,33 -22,283 -3,286 18,3 23,-17 26,-46 3,-29 -1,-227 1,-238 1,-10 4,9 11,-7 6,-16 10,-81 4,-84 -6,-4 -12,50 -18,38 -5,-13 5,-452 -6,-452 -11,1 -1,324 -11,322 -9,-1 -7,-329 -9,-335 -1,-5 -17,-7 -17,0 z m -1888,-30 c -4,15 -25,763 -20,770 4,7 32,15 31,-4 0,-20 -2,-758 -2,-764 0,-7 -8,-6 -9,-2 z m 32,4 c -7,14 -23,873 -13,885 10,12 18,6 18,-3 0,-10 9,-852 8,-867 0,-16 -10,-21 -13,-15 z m 28,49 c -7,14 -18,827 -8,832 11,4 34,-820 30,-829 -3,-9 -19,-9 -22,-3 z m 37,-32 c 5,13 283,9 289,3 6,-7 19,-27 10,-28 -8,-1 -20,13 -32,12 -12,-1 -12,-20 -36,-20 -24,0 -136,5 -142,13 -7,8 -15,17 -22,17 -6,-1 -8,-20 -18,-25 -10,-4 -51,-6 -54,3 -3,8 21,9 22,12 1,3 -19,5 -17,13 z m 0,23 c -2,9 7,67 25,68 17,1 238,4 248,-2 9,-7 42,-56 22,-64 -19,-9 -293,-9 -295,-2 z m 43,31 c -1,5 37,8 37,1 0,-6 -36,-7 -37,-1 z m 67,0 c 0,5 37,8 38,2 0,-7 -37,-7 -38,-2 z m 83,2 c -1,4 37,8 37,1 0,-6 -36,-7 -37,-1 z m -186,48 c -6,9 3,20 -1,28 -4,7 -17,13 -12,16 4,4 255,11 265,8 10,-4 43,-38 30,-47 -13,-8 -276,-14 -282,-5 z m 3,67 c -2,8 13,14 9,23 -3,9 -30,25 -26,31 5,7 269,21 279,10 9,-11 6,-52 -9,-60 -16,-7 -251,-12 -253,-4 z m 58,31 c -1,5 52,7 52,3 0,-5 -51,-12 -52,-3 z m -66,49 c -1,13 26,36 29,49 2,13 -2,26 9,26 11,0 114,4 120,-2 5,-7 -2,-17 -9,-26 -6,-9 -32,-15 -22,-20 11,-4 30,3 38,18 8,15 5,28 16,31 11,3 111,9 112,-4 1,-13 -34,-61 -50,-67 -15,-7 -242,-17 -243,-5 z m 28,92 c -8,7 -32,13 -26,23 7,11 24,25 33,27 8,2 51,-19 54,-15 4,5 -18,17 -11,20 8,2 72,-13 79,-10 8,3 1,8 16,9 15,1 42,-13 51,-13 9,0 31,22 47,19 16,-4 36,-30 23,-37 -13,-8 -20,0 -27,-5 -8,-5 3,-20 -13,-22 -16,-2 -221,-2 -226,4 z m -13,71 c -19,5 -39,7 -30,17 9,11 39,15 37,21 -2,6 -20,17 -9,21 11,5 105,-36 108,-25 4,11 -43,34 -32,38 11,4 91,-33 96,-26 6,6 -4,20 8,21 12,1 91,-2 95,-11 5,-10 21,-50 -14,-54 -35,-4 -248,-5 -259,-2 z m -9,79 c -6,5 -6,15 -9,21 -4,6 -13,4 -13,11 0,7 207,25 220,17 13,-7 38,-16 49,-13 11,3 30,16 34,13 4,-3 -12,-21 -11,-31 1,-10 17,-13 9,-17 -7,-4 -272,-8 -279,-1 z m -15,65 c -6,9 21,12 19,19 -2,8 -27,4 -26,12 1,8 19,5 19,12 0,8 -17,9 -14,15 4,6 41,8 57,8 16,0 44,-4 45,0 0,4 -8,9 4,11 12,2 70,-29 74,-23 3,5 -28,16 -21,20 7,4 59,-28 64,-23 6,6 -2,20 1,22 3,1 66,-1 72,-8 5,-8 15,-44 0,-55 -15,-11 -289,-20 -294,-10 z m 56,27 c -1,5 34,9 34,2 0,-7 -33,-6 -34,-2 z m 54,4 c -1,5 33,9 33,2 0,-7 -32,-6 -33,-2 z m -69,51 c -10,1 -57,28 -53,37 3,10 19,-4 23,7 4,11 6,25 15,25 8,0 12,-17 28,-18 15,-1 26,11 40,11 14,0 47,-29 66,-26 18,3 2,14 15,15 13,1 88,-7 87,0 -1,8 -47,13 -63,13 -15,0 -18,-5 -31,-5 -13,0 -45,4 -39,11 5,6 113,10 132,3 20,-8 53,-52 40,-61 -13,-10 -238,-15 -260,-12 z m 7,29 c 0,7 54,6 54,3 0,-4 -54,-10 -54,-3 z m -61,56 c -6,7 15,23 17,29 2,7 -7,19 -2,23 5,3 45,-13 46,-6 0,6 -26,12 -17,17 8,5 73,-30 79,-22 5,9 -8,17 -1,22 6,4 75,-30 79,-25 3,6 -8,19 1,21 8,3 46,-23 54,-18 7,6 1,18 21,18 19,0 43,-23 37,-30 -5,-8 -14,-25 -30,-29 -17,-4 -280,-6 -284,0 z m 48,80 c -5,3 -43,9 -37,29 6,21 24,53 54,46 31,-7 46,-12 43,-21 -3,-9 -61,5 -56,-7 4,-12 28,-6 38,-13 9,-6 3,-18 22,-17 20,1 33,17 25,25 -7,8 -34,18 -14,30 20,12 193,10 197,-2 4,-12 14,-27 -3,-27 -17,1 -34,13 -57,16 -22,2 -86,10 -88,1 -2,-9 -5,-17 14,-18 20,0 20,7 36,9 17,2 86,-12 91,-19 6,-6 16,-41 -3,-40 -19,1 -251,0 -262,8 z m 293,-849 c -6,12 -10,936 -3,942 8,5 10,7 12,0 2,-8 4,-479 14,-473 9,7 -13,450 4,448 17,-2 11,-360 18,-352 8,9 -1,324 13,321 14,-4 19,-866 14,-869 -4,-3 -17,-9 -21,3 -5,12 2,231 -7,236 -10,5 -1,-246 -5,-249 -5,-3 -13,-11 -17,-1 -4,10 3,271 -5,276 -7,4 -5,-273 -7,-279 -2,-5 -7,-8 -10,-3 z m 107,18 c -7,-3 -11,30 -4,33 8,3 17,-28 4,-33 z m 1,102 c -8,-3 -12,31 -4,33 7,3 17,-28 4,-33 z m 30,294 c -7,-3 -11,30 -4,33 8,3 17,-29 4,-33 z m -12,208 c -8,-5 -12,47 -4,51 7,5 17,-44 4,-51 z m 27,-10 c -7,-4 -11,48 -4,52 8,5 17,-44 4,-52 z m 31,4 c -7,-4 -11,48 -4,52 7,4 17,-44 4,-52 z m 33,0 c -8,-4 -12,47 -4,51 7,5 17,-44 4,-51 z m 27,-2 c -7,-4 -11,47 -4,52 8,4 17,-45 4,-52 z m 39,-3 c -8,-4 -12,48 -5,52 8,5 17,-44 5,-52 z m 26,-1 c -7,-4 -11,47 -4,51 8,5 17,-44 4,-51 z m 28,5 c -7,-4 -11,47 -4,51 8,5 17,-44 4,-51 z m 28,2 c -7,-4 -11,47 -4,51 7,5 17,-44 4,-51 z m 29,0 c -7,-4 -12,47 -4,52 7,4 17,-45 4,-52 z m -6,73 c -7,-4 -12,48 -4,52 7,4 17,-45 4,-52 z m 7,93 c -8,-4 -12,47 -4,52 7,4 17,-45 4,-52 z m -196,-97 c -7,-4 -11,47 -4,52 8,4 17,-45 4,-52 z m -50,-11 c -7,-5 -11,47 -4,51 8,5 17,-44 4,-51 z m 246,178 c -7,-4 -11,47 -4,51 7,5 17,-44 4,-51 z m -22,34 c -8,-4 -12,47 -5,52 8,4 17,-45 5,-52 z m -175,-29 c -7,-4 -11,47 -4,52 8,4 17,-45 4,-52 z m -25,-2 c -7,-4 -11,47 -4,52 7,4 17,-45 4,-52 z m -27,13 c -7,-4 -11,48 -4,52 8,5 17,-44 4,-52 z m 19,-135 c -7,-7 -12,86 -5,94 8,8 18,-81 5,-94 z m 31,9 c -7,-7 -12,86 -4,94 7,8 17,-81 4,-94 z m 225,38 c -8,-4 -12,48 -4,52 7,4 17,-44 4,-52 z m 2,63 c -7,-5 -12,47 -4,51 7,5 17,-44 4,-51 z m -55,-99 c -7,-10 -12,115 -5,125 8,11 18,-107 5,-125 z m -111,-294 c 6,-7 -64,-14 -71,-7 -6,7 61,19 71,7 z m -81,140 c 6,-7 -64,-14 -70,-7 -7,8 60,20 70,7 z m 228,3 c 10,-6 -118,-16 -129,-9 -11,7 110,22 129,9 z m -13,-22 c 8,-7 -96,-16 -105,-9 -9,7 90,21 105,9 z m -253,-555 c -7,-2 -11,31 -4,34 8,2 17,-29 4,-34 z m 32,8 c -8,-7 -12,79 -5,86 8,7 17,-74 5,-86 z m 30,11 c -7,-4 -11,51 -4,56 7,4 17,-48 4,-56 z m 32,0 c -7,-4 -12,51 -4,56 7,5 17,-48 4,-56 z m 90,14 c -8,-4 -12,51 -4,56 7,4 17,-48 4,-56 z m 23,1 c -7,-4 -12,51 -4,56 7,4 17,-48 4,-56 z m 26,12 c -7,-5 -12,50 -4,55 7,5 17,-48 4,-55 z m 26,-1 c -7,-5 -12,51 -4,55 7,5 17,-47 4,-55 z m -44,223 c -7,-4 -11,51 -4,56 8,4 17,-48 4,-56 z m 33,-74 c -7,-4 -11,51 -4,56 8,4 17,-48 4,-56 z m 33,13 c -7,-4 -12,51 -4,56 7,4 17,-48 4,-56 z m -257,237 c -7,-7 -12,90 -4,98 7,8 17,-84 4,-98 z m -34,10 c -7,-7 -11,90 -4,98 7,8 17,-84 4,-98 z m -28,-12 c -7,-8 -12,90 -5,98 8,8 18,-84 5,-98 z m 97,57 c -7,-7 -12,90 -5,98 8,8 18,-84 5,-98 z m 29,-9 c -7,-7 -12,90 -5,98 8,8 18,-84 5,-98 z m -121,133 c -7,-20 -13,238 -5,259 7,22 18,-223 5,-259 z m 160,-133 c -7,-8 -12,89 -5,97 8,9 18,-84 5,-97 z m 44,-45 c -8,-7 -12,90 -5,98 8,8 17,-84 5,-98 z m 27,-7 c -7,-8 -11,90 -4,98 7,8 17,-84 4,-98 z m 26,-4 c -8,-8 -12,89 -5,97 8,9 17,-84 5,-97 z m 26,-2 c -8,-8 -12,90 -5,98 8,8 17,-84 5,-98 z m 27,30 c -7,-22 -13,252 -5,275 7,23 18,-237 5,-275 z m -61,-117 c -7,-4 -12,51 -4,56 7,4 17,-48 4,-56 z m 41,-47 c -10,-8 -16,101 -6,110 10,9 23,-94 6,-110 z m -136,-276 c -7,-4 -11,51 -4,56 8,5 17,-48 4,-56 z m -99,98 c -8,-4 -12,51 -5,56 8,4 17,-48 5,-56 z m -64,68 c -7,-8 -12,86 -4,94 7,8 17,-81 4,-94 z m 259,-57 c -7,-9 -12,105 -4,114 7,10 17,-98 4,-114 z m -257,166 c -7,-9 -12,113 -5,123 8,10 18,-106 5,-123 z m 29,-121 c -16,8 -13,97 -9,107 3,10 32,47 36,38 5,-10 9,-103 0,-107 -9,-4 -9,54 -18,49 -8,-6 -2,-90 -9,-87 z m 60,-75 c -5,10 -14,298 -1,302 13,5 128,8 135,-9 7,-17 18,-282 8,-291 -9,-10 -140,-9 -142,-2 z m 12,83 c -2,8 41,14 42,3 1,-10 -40,-12 -42,-3 z m -3,108 c -1,8 41,13 42,3 1,-10 -40,-12 -42,-3 z m 83,1 c -2,7 41,13 42,3 1,-11 -40,-13 -42,-3 z m -11,-167 c -7,-9 -14,249 -4,254 10,6 13,-243 4,-254 z m 15,65 c -1,7 41,13 42,3 1,-11 -40,-13 -42,-3 z m -60,485 c -4,5 -10,252 -3,258 6,5 96,11 104,2 7,-8 8,-241 -4,-250 -12,-10 -91,-18 -97,-10 z m 22,25 c -4,0 -6,25 -1,26 6,1 7,-26 1,-26 z m 0,56 c -4,0 -6,25 0,26 6,1 7,-26 0,-26 z m 0,61 c -4,0 -6,25 0,26 5,1 6,-26 0,-26 z m -1,51 c -4,0 -6,25 -1,26 6,1 7,-26 1,-26 z m 25,-56 c -4,0 -6,25 0,26 5,1 6,-26 0,-26 z m -1,-49 c -3,0 -5,25 0,26 6,1 7,-26 0,-26 z m 4,-57 c -3,0 -5,25 0,26 6,1 7,-26 0,-26 z m 147,193 c -8,0 -42,34 -41,40 1,7 52,67 60,61 7,-5 30,-20 29,-31 -2,-11 -40,-71 -48,-70 z m 261,-139 c -11,1 -208,132 -207,147 2,14 23,24 32,19 8,-4 183,-135 187,-144 3,-9 4,-23 -12,-22 z m -248,-420 c -6,13 8,533 13,540 4,8 83,-33 87,-45 3,-12 4,-235 9,-242 6,-6 307,-2 309,-11 2,-8 5,-32 0,-39 -5,-6 -410,-221 -418,-203 z m 109,82 c 0,4 -19,7 -43,7 -24,-1 -43,-4 -43,-8 0,-3 20,-6 43,-6 24,0 43,3 43,7 z m 14,89 c 0,4 -19,7 -43,7 -23,0 -42,-4 -42,-7 0,-4 19,-7 42,-7 24,0 43,3 43,7 z m 166,-4 c 0,4 -19,7 -42,6 -24,0 -43,-3 -43,-7 0,-4 19,-7 43,-6 23,0 42,3 42,7 z m -229,84 c -4,-1 -7,-8 -7,-18 0,-10 4,-18 7,-18 4,0 7,8 7,18 0,10 -3,18 -7,18 z m -7,55 c -4,0 -7,-8 -7,-18 0,-9 4,-17 8,-17 3,0 6,8 6,18 0,9 -3,17 -7,17 z m 3,53 c -4,0 -7,-8 -6,-18 0,-9 3,-17 7,-17 4,0 7,8 7,18 -1,9 -4,17 -8,17 z m -1,52 c -4,0 -7,-8 -7,-18 1,-9 4,-17 8,-17 4,0 6,8 6,18 0,9 -3,17 -7,17 z m 1,58 c -3,0 -6,-8 -6,-18 0,-10 3,-18 7,-18 4,0 7,8 7,18 -1,10 -4,18 -8,18 z m 65,-200 c -5,9 -7,207 -2,207 6,0 95,-72 118,-76 22,-5 59,13 44,38 -15,25 -159,135 -154,141 4,7 292,-36 295,-52 3,-15 4,-247 -1,-255 -4,-8 -25,-23 -31,-15 -7,8 6,71 -5,69 -11,-2 -5,-67 -11,-70 -6,-3 -22,-6 -22,1 0,6 2,68 -4,68 -7,0 -4,-66 -7,-69 -4,-3 -11,1 -12,7 -1,7 10,65 2,66 -9,1 -7,-67 -11,-71 -4,-3 -11,-2 -13,4 -2,6 -1,73 -7,71 -5,-1 -2,-72 -8,-76 -5,-3 -12,-3 -14,4 -1,6 3,72 -7,71 -9,-1 -2,-67 -8,-70 -7,-3 -13,-3 -16,6 -3,9 3,72 -4,74 -8,3 -4,-83 -11,-83 -7,0 -12,110 -20,105 -9,-4 3,-107 -8,-107 -11,0 -11,115 -20,111 -9,-4 5,-102 -9,-102 -14,0 -9,110 -16,105 -8,-6 7,-101 -10,-104 -16,-2 -6,100 -15,95 -9,-5 -3,-107 -13,-93 z m 60,135 c 0,3 -5,6 -10,6 -6,0 -11,-3 -11,-6 0,-3 5,-6 11,-6 5,1 10,3 10,6 z m -10,22 c -1,3 -5,6 -11,6 -5,0 -10,-3 -10,-6 0,-3 5,-5 10,-5 6,0 11,2 11,5 z m -26,2 c 0,3 -4,6 -10,5 -5,0 -10,-2 -10,-5 0,-3 5,-6 10,-6 6,0 10,3 10,6 z m 128,-66 c 0,3 -5,6 -10,6 -6,0 -10,-3 -10,-6 0,-3 4,-6 10,-6 6,0 10,3 10,6 z m 40,-2 c 0,4 -5,6 -10,6 -6,0 -10,-3 -10,-6 0,-3 4,-5 10,-5 5,0 10,2 10,5 z m 35,3 c 0,3 -4,5 -10,5 -6,0 -10,-3 -10,-6 0,-3 4,-5 10,-5 6,0 10,2 10,6 z m 41,2 c 0,3 -5,5 -10,5 -6,0 -10,-2 -10,-5 0,-4 4,-6 10,-6 6,0 10,3 10,6 z m 1,40 c 0,3 -5,5 -11,5 -5,0 -10,-2 -10,-6 0,-3 5,-5 11,-5 5,0 10,3 10,6 z m -28,-1 c 0,3 -5,6 -10,6 -6,0 -11,-3 -11,-6 0,-3 5,-5 11,-5 5,0 10,2 10,5 z m -35,1 c 0,3 -5,6 -11,6 -5,0 -10,-3 -10,-6 0,-3 5,-6 10,-6 6,0 11,3 11,6 z m -2,54 c 0,3 -4,5 -10,5 -6,0 -10,-2 -10,-5 0,-3 5,-6 10,-6 6,0 10,3 10,6 z m 41,1 c 0,3 -4,6 -10,6 -6,0 -10,-3 -10,-6 0,-3 4,-6 10,-5 6,0 10,2 10,5 z m -4,31 c 0,3 -4,5 -10,5 -6,0 -10,-2 -10,-5 0,-3 4,-6 10,-6 6,0 10,3 10,6 z m -29,0 c 0,3 -4,5 -10,5 -5,0 -10,-3 -10,-6 0,-3 5,-5 10,-5 6,0 10,2 10,6 z m -33,-1 c 0,3 -5,6 -10,6 -6,0 -10,-3 -10,-6 0,-3 4,-5 10,-5 5,0 10,2 10,5 z m -45,9 c 0,3 -4,6 -10,6 -5,0 -10,-3 -10,-6 0,-3 5,-5 10,-5 6,0 10,2 10,5 z m -35,33 c 0,4 -5,6 -10,6 -6,0 -11,-3 -10,-6 0,-3 4,-5 10,-5 5,0 10,2 10,5 z m 57,-3 c 0,3 -5,6 -11,6 -5,0 -10,-3 -10,-6 0,-3 5,-6 10,-5 6,0 11,2 11,5 z m 66,-8 c 0,3 -5,6 -11,6 -5,0 -10,-3 -10,-6 0,-3 5,-5 10,-5 6,0 11,2 11,5 z m 60,-6 c 0,3 -5,6 -10,6 -6,0 -11,-3 -11,-6 0,-3 5,-6 11,-5 5,0 10,2 10,5 z m -239,-815 c -53,0 -153,-3 -154,8 -1,11 91,11 177,11 87,1 215,15 215,1 0,-14 -128,-18 -238,-20 z m -181,38 c -2,9 174,12 174,0 0,-12 -171,-17 -174,0 z m -20,30 c -1,8 168,13 167,0 0,-13 -163,-18 -167,0 z m -1,24 c -3,10 128,12 128,3 0,-8 -124,-15 -128,-3 z m -5,24 c 0,11 -3,36 4,37 6,1 41,-2 42,-11 1,-8 -26,-7 -24,-16 2,-8 56,1 57,-9 1,-9 -78,-17 -79,-1 z m 364,-71 c -4,10 81,17 81,6 0,-11 -76,-19 -81,-6 z m 9,28 c -1,5 5,16 11,16 6,0 54,3 58,-1 3,-3 6,-17 0,-18 -7,-1 -68,-4 -69,3 z m 37,36 c -2,7 26,61 34,54 7,-8 9,-52 -1,-56 -10,-4 -31,-5 -33,2 z"
          id="path1558"
          inkscape:connector-curvature="0"
          style="fill:#999999" />
      <path
          class="fil2"
          d="m 17219,25233 c -35,-2 -72,-1 -104,4 -33,5 -62,13 -83,9 -20,-3 -63,0 -108,2 -46,3 -107,22 -152,19 -481,33 147,140 19,122 -240,-8 -695,42 40,30 38,-1 65,5 69,14 -306,8 -631,111 -394,116 101,2 -61,81 722,47 85,-2 211,-24 217,-14 43,34 1929,20 2173,2 74,-6 -201,-36 -281,-39 -80,-2 -192,-2 -290,-1 -97,2 -363,13 -416,15 -53,3 -120,17 -121,12 -1,-6 95,-32 232,-38 136,-5 371,-11 511,-7 139,5 318,38 394,46 194,22 515,-25 218,-11 -51,2 -131,7 -189,0 -59,-7 -93,-18 -140,-20 -48,-2 -180,-17 -209,-24 -30,-7 -188,-8 -261,-10 -72,-3 -187,0 -237,1 -49,2 -204,23 -250,24 -47,2 -110,15 -111,5 -1,-10 20,-28 45,-40 25,-11 197,-41 199,-33 2,7 -181,31 -172,42 8,10 170,-20 244,-21 74,-1 304,1 374,4 191,6 388,58 559,57 576,-1 611,10 13,-89 -55,-9 -133,-5 -176,-5 -44,-1 -123,-3 -173,-2 -50,2 -211,26 -205,15 6,-12 171,-37 299,-40 128,-2 187,15 298,20 1057,49 74,-61 -281,-76 -77,-3 -123,-3 -185,6 -61,8 -162,17 -230,39 -68,22 -111,48 -111,38 0,-10 63,-43 125,-60 62,-17 298,-31 371,-53 350,-41 49,-44 -374,-5 -68,-2 -295,-4 -373,1 -78,4 -239,33 -239,36 0,3 11,15 -18,17 -29,3 -189,54 -188,48 1,-6 50,-30 53,-39 3,-9 -113,-1 -118,7 -4,9 1,27 -1,39 -2,13 -42,34 -47,37 -6,4 -64,-24 -74,-24 -9,0 -256,77 -257,69 -1,-8 234,-84 234,-94 0,-10 -381,115 -379,103 2,-11 182,-77 182,-90 -1,-12 -307,96 -305,87 1,-10 214,-84 212,-100 -2,-15 -393,106 -388,95 5,-11 304,-77 299,-100 -6,-22 -428,95 -427,81 1,-13 330,-71 333,-88 3,-18 -171,14 -225,28 -54,14 -270,53 -255,37 15,-15 247,-46 247,-57 0,-12 -315,36 -308,23 6,-12 169,-37 218,-40 49,-2 127,-8 135,0 7,8 6,16 27,14 22,-3 128,-22 121,-30 -6,-8 -158,-13 -219,-13 -60,-1 -277,15 -267,3 10,-11 146,-10 150,-24 5,-14 -137,9 -127,-7 11,-15 138,-12 143,-22 4,-9 -133,4 -124,-7 9,-10 123,-7 126,-18 2,-12 14,-72 -10,-73 z m 2294,123 c 95,162 0,0 0,0 z m -23,-53 c 561,-209 -443,164 0,0 z m -2281,-49 c -25,-1 -70,20 -134,21 -64,1 -191,-10 -193,1 -3,10 106,12 142,13 37,0 116,1 140,-6 24,-7 62,-29 45,-29 z m -309,49 c -49,-3 -137,17 -133,25 4,7 90,-19 133,-14 43,5 167,19 170,13 3,-7 -100,-20 -170,-24 z m -8,41 c -325,-19 -61,4 0,11 43,5 167,20 170,14 3,-7 -100,-21 -170,-25 z m 41,55 c -34,-8 -99,4 -98,12 2,8 67,-10 97,-1 30,8 116,35 119,28 3,-6 -69,-29 -118,-39 z m -148,88 c -334,15 -87,11 1,11 48,0 189,1 191,-6 3,-7 -114,-9 -192,-5 z m 39,44 c -334,15 -88,11 1,11 48,0 188,0 191,-6 2,-7 -114,-9 -192,-5 z m 197,32 c -410,23 -132,14 1,11 63,-2 247,-5 250,-12 4,-7 -148,-5 -251,1 z m 453,12 c 19,17 285,12 373,9 87,-3 291,-22 289,-40 -3,-18 -213,5 -325,12 -113,6 -347,9 -337,19 z m 895,-33 c -36,-9 -51,5 -74,11 -22,7 -49,24 -42,30 8,5 24,-8 61,-20 37,-12 70,-17 55,-21 z m 493,-65 c 52,1 84,-6 79,-11 -5,-5 -19,3 -91,1 -72,-1 -110,-15 -117,-10 -6,6 58,18 129,20 z m 20,-36 c 51,1 83,-6 78,-11 -5,-5 -19,3 -91,1 -71,-1 -109,-15 -116,-10 -7,6 58,18 129,20 z m -412,-26 c -45,5 -103,44 -95,49 7,5 42,-16 72,-26 31,-10 57,-16 60,-6 3,11 -27,15 -61,34 -33,20 -57,40 -47,46 9,7 90,-54 158,-65 68,-12 177,-22 183,-31 6,-8 -167,14 -170,8 -3,-5 2,-14 -10,-16 -12,-2 -59,4 -90,7 z m 77,52 c -63,16 -100,41 -93,48 8,6 23,-13 111,-37 88,-23 138,-14 145,-26 7,-12 -75,-8 -163,15 z m 1020,9 c -113,-1 -245,6 -214,22 185,22 761,25 214,-22 z m -859,-117 c -65,5 -106,23 -100,31 6,7 24,-9 115,-17 91,-7 139,11 148,0 8,-11 -73,-21 -163,-14 z m 233,53 c 64,-3 104,-19 98,-27 -5,-8 -24,8 -112,12 -89,4 -135,-15 -143,-5 -9,10 69,23 157,20 z m -620,104 c -36,-10 -51,5 -74,11 -22,6 -49,24 -42,30 8,5 24,-9 61,-21 37,-11 69,-17 55,-20 z m -33,-25 c -36,-9 -51,5 -73,12 -22,6 -49,24 -42,29 7,6 23,-8 60,-20 38,-12 70,-17 55,-21 z m 1037,-97 c -112,9 -323,71 -305,81 17,9 229,-61 329,-67 0,21 330,-27 -24,-14 z"
          id="path1560"
          inkscape:connector-curvature="0"
          style="fill:#000000" />
   </g>
</svg>
