<?xml version="1.0" encoding="UTF-8" standalone="no"?>
<svg
    xmlns:dc="http://purl.org/dc/elements/1.1/"
    xmlns:cc="http://creativecommons.org/ns#"
    xmlns:rdf="http://www.w3.org/1999/02/22-rdf-syntax-ns#"
    xmlns:svg="http://www.w3.org/2000/svg"
    xmlns="http://www.w3.org/2000/svg"
    xmlns:sodipodi="http://sodipodi.sourceforge.net/DTD/sodipodi-0.dtd"
    xmlns:inkscape="http://www.inkscape.org/namespaces/inkscape"
    id="city_nnov"
    data-name="nnov"
    width="52.5mm"
    height="52.5mm"
    viewBox="0 0 148.82 148.82"
    version="1.1"
    inkscape:version="0.91 r13725"
    sodipodi:docname="_noyabrsk.svg">
   <metadata
       id="metadata22">
      <rdf:RDF>
         <cc:Work
             rdf:about="">
            <dc:format>image/svg+xml</dc:format>
            <dc:type
                rdf:resource="http://purl.org/dc/dcmitype/StillImage" />
            <dc:title></dc:title>
         </cc:Work>
      </rdf:RDF>
   </metadata>
   <defs
       id="defs20" />
   <sodipodi:namedview
       pagecolor="#ffffff"
       bordercolor="#666666"
       borderopacity="1"
       objecttolerance="10"
       gridtolerance="10"
       guidetolerance="10"
       inkscape:pageopacity="0"
       inkscape:pageshadow="2"
       inkscape:window-width="640"
       inkscape:window-height="480"
       id="namedview18"
       showgrid="false"
       inkscape:zoom="1.268656085"
       inkscape:cx="93.01181102"
       inkscape:cy="93.01181102"
       inkscape:current-layer="city_nnov" />
   <g
       transform="matrix(0.0283466687,0,0,0.0283466716,-893.5058995,-593.5635675)"
       style="clip-rule:evenodd;fill-rule:evenodd;image-rendering:optimizeQuality;shape-rendering:geometricPrecision;text-rendering:geometricPrecision"
       id="noyabrsk">
      <path
          class="fil19"
          d="m 34054,24689 c -455,14 -861,204 -1206,494 l -85,72 390,-783 -45,0 0,-298 158,0 c -340,-259 -560,-669 -560,-1129 0,-784 636,-1420 1420,-1420 784,0 1420,636 1420,1420 0,460 -220,870 -560,1129 l 132,0 0,298 -19,0 390,783 c -139,-119 -240,-202 -398,-296 -268,-160 -564,-256 -877,-270 l -42,-1 0,91 c 279,7 557,78 801,215 l 46,26 c -135,50 -235,82 -376,111 -143,29 -288,45 -434,51 l 24,17 0,27 c 111,-5 223,-17 333,-35 121,105 195,203 264,345 l -597,0 0,89 -120,-86 -119,86 0,-89 -582,0 c 68,-138 139,-236 257,-339 108,16 216,26 325,30 l 0,-28 22,-16 c -249,-6 -538,-50 -776,-144 l -27,-11 c 131,-76 234,-126 379,-171 150,-46 305,-71 462,-77 l 0,-91 0,0 0,0 z m -885,369 c -172,118 -314,259 -415,444 l -18,34 627,0 c 56,-123 128,-231 225,-326 l 24,-23 c -157,-29 -297,-66 -443,-129 l 0,0 z m 1710,478 631,0 c -60,-112 -116,-194 -205,-287 -72,-76 -154,-141 -240,-199 -149,60 -285,98 -442,131 101,95 169,179 232,303 l 24,52 0,0 z"
          id="path2110"
          inkscape:connector-curvature="0"
          style="fill:#000000" />
      <path
          class="fil3"
          d="m 34054,24676 c -447,16 -865,192 -1253,530 l 366,-734 887,0 0,204 z m -739,-502 403,-810 336,0 0,810 -739,0 0,0 z m 568,-1141 243,-488 243,488 -486,0 0,0 z m 651,331 403,810 -765,0 0,-810 362,0 0,0 z m 551,1108 366,734 c -396,-344 -822,-521 -1279,-531 l 0,-203 913,0 0,0 z"
          id="path2112"
          inkscape:connector-curvature="0"
          style="fill:#ffcc00" />
      <path
          class="fil4"
          d="m 34054,24792 c -304,12 -583,97 -812,234 110,44 233,77 355,100 136,26 283,42 436,45 l 21,-15 0,-364 z m 139,378 c 267,-8 544,-55 797,-152 -232,-136 -513,-218 -818,-226 l 0,364 21,14 0,0 z m -1023,-98 c -178,121 -321,276 -414,452 l 599,0 c 55,-124 130,-232 231,-329 -141,-26 -291,-68 -416,-123 z m 262,452 562,0 0,-284 c -111,-4 -219,-15 -321,-30 -105,91 -183,195 -241,314 z m 801,0 577,0 c -59,-122 -139,-227 -248,-320 -109,18 -220,29 -329,34 l 0,286 0,0 z m 654,0 603,0 c -95,-180 -243,-338 -427,-460 -132,54 -272,95 -414,124 104,98 181,209 238,336 l 0,0 0,0 z"
          id="path2114"
          inkscape:connector-curvature="0"
          style="fill:#999999" />
      <polygon
          class="fil3"
          points="34220,25206 34220,25601 34113,25523 34006,25601 34006,25206 34066,25162 34066,24792 34160,24791 34160,25162 "
          id="polygon2116"
          style="fill:#ffcc00" />
      <polygon
          id="_86700184"
          class="fil2"
          points="33121,24459 33121,24187 34066,24187 34066,23352 33615,23352 33615,23045 34611,23045 34611,23352 34160,23352 34160,24187 35105,24187 35105,24459 34160,24459 34160,24791 34066,24792 34066,24459 "
          style="fill:#000000" />
      <path
          class="fil14"
          d="m 34952,24174 c 14,-10 28,-21 42,-32 l -155,-192 112,224 1,0 0,0 z"
          id="path2119"
          inkscape:connector-curvature="0"
          style="fill:#ffffff" />
      <polygon
          class="fil14"
          points="35097,24052 34774,23715 34750,23738 35057,24090 "
          id="polygon2121"
          style="fill:#ffffff" />
      <path
          class="fil3"
          d="m 34911,23549 c -32,49 -54,76 -92,120 l 342,318 c 59,-65 112,-136 158,-211 l -408,-227 0,0 z m -1984,217 c 46,76 99,148 158,213 l 342,-316 c -39,-45 -76,-95 -107,-147 l -393,250 z m -196,-836 c -7,83 -6,165 2,247 l 462,-68 c -3,-48 -3,-97 1,-146 l -465,-33 0,0 z m 339,-803 c -57,65 -109,136 -152,212 l 411,220 c 26,-43 56,-84 89,-122 l -348,-310 0,0 z m 746,-447 c -84,19 -163,45 -241,78 l 190,426 c 50,-21 99,-37 152,-49 l -101,-455 z m 509,453 c 62,13 124,34 181,59 l 183,-429 c -90,-39 -172,-65 -270,-87 l -94,457 0,0 z m 516,312 c 33,39 64,84 90,129 l 406,-231 c -44,-76 -96,-149 -153,-214 l -343,316 0,0 z m 216,545 2,55 c 0,37 -2,74 -7,111 l 0,0 465,40 c 7,-57 13,-194 5,-251 l -465,45 0,0 z"
          id="path2123"
          inkscape:connector-curvature="0"
          style="fill:#ffcc00" />
      <polygon
          class="fil14"
          points="35366,23694 34950,23482 34928,23521 35336,23747 "
          id="polygon2125"
          style="fill:#ffffff" />
      <polygon
          class="fil14"
          points="35425,23565 34991,23395 34975,23431 35402,23619 "
          id="polygon2127"
          style="fill:#ffffff" />
      <polygon
          class="fil14"
          points="35474,23421 35019,23315 35009,23347 35455,23483 "
          id="polygon2129"
          style="fill:#ffffff" />
      <polygon
          class="fil14"
          points="35505,23286 35042,23220 35036,23252 35494,23342 "
          id="polygon2131"
          style="fill:#ffffff" />
      <polygon
          class="fil14"
          points="35512,22850 35049,22911 35055,22958 35519,22911 "
          id="polygon2133"
          style="fill:#ffffff" />
      <polygon
          class="fil14"
          points="35484,22706 35030,22813 35039,22853 35497,22765 "
          id="polygon2135"
          style="fill:#ffffff" />
      <polygon
          class="fil14"
          points="35437,22555 35003,22726 35015,22760 35459,22619 "
          id="polygon2137"
          style="fill:#ffffff" />
      <polygon
          class="fil14"
          points="35381,22425 34963,22633 34978,22665 35406,22478 "
          id="polygon2139"
          style="fill:#ffffff" />
      <polygon
          class="fil14"
          points="35120,22060 34788,22388 34820,22421 35161,22103 "
          id="polygon2141"
          style="fill:#ffffff" />
      <polygon
          class="fil14"
          points="35014,21963 34717,22323 34747,22349 35059,22002 "
          id="polygon2143"
          style="fill:#ffffff" />
      <polygon
          class="fil14"
          points="34891,21873 34648,22272 34676,22291 34945,21910 "
          id="polygon2145"
          style="fill:#ffffff" />
      <polygon
          class="fil14"
          points="34772,21803 34565,22221 34594,22237 34821,21830 "
          id="polygon2147"
          style="fill:#ffffff" />
      <polygon
          class="fil14"
          points="33488,23799 33213,24105 33259,24143 33404,23967 "
          id="polygon2149"
          style="fill:#ffffff" />
      <polygon
          class="fil14"
          points="33449,23687 33108,24004 33150,24048 33482,23719 "
          id="polygon2151"
          style="fill:#ffffff" />
      <polygon
          class="fil14"
          points="33274,23426 32857,23634 32882,23686 33289,23457 "
          id="polygon2153"
          style="fill:#ffffff" />
      <polygon
          class="fil14"
          points="33238,23333 32801,23496 32824,23559 33250,23366 "
          id="polygon2155"
          style="fill:#ffffff" />
      <polygon
          class="fil14"
          points="33214,23243 32761,23354 32775,23411 33223,23282 "
          id="polygon2157"
          style="fill:#ffffff" />
      <polygon
          class="fil14"
          points="33198,23141 32736,23211 32745,23271 33204,23187 "
          id="polygon2159"
          style="fill:#ffffff" />
      <polygon
          class="fil14"
          points="33210,22864 32751,22782 32741,22839 33204,22898 "
          id="polygon2161"
          style="fill:#ffffff" />
      <polygon
          class="fil14"
          points="33235,22767 32787,22638 32769,22702 33225,22801 "
          id="polygon2163"
          style="fill:#ffffff" />
      <polygon
          class="fil14"
          points="33267,22680 32837,22499 32815,22554 33252,22717 "
          id="polygon2165"
          style="fill:#ffffff" />
      <polygon
          class="fil14"
          points="33313,22587 32901,22368 32873,22422 33291,22628 "
          id="polygon2167"
          style="fill:#ffffff" />
      <polygon
          class="fil14"
          points="33487,22364 33174,22019 33133,22059 33463,22388 "
          id="polygon2169"
          style="fill:#ffffff" />
      <polygon
          class="fil14"
          points="33565,22299 33290,21923 33237,21964 33537,22322 "
          id="polygon2171"
          style="fill:#ffffff" />
      <polygon
          class="fil14"
          points="33643,22246 33414,21840 33363,21872 33609,22268 "
          id="polygon2173"
          style="fill:#ffffff" />
      <polygon
          class="fil14"
          points="33736,22197 33544,21772 33489,21798 33694,22217 "
          id="polygon2175"
          style="fill:#ffffff" />
      <polygon
          class="fil14"
          points="34011,22119 33959,21655 33904,21663 33980,22123 "
          id="polygon2177"
          style="fill:#ffffff" />
      <polygon
          class="fil14"
          points="34106,22112 34102,21645 34039,21648 34074,22113 "
          id="polygon2179"
          style="fill:#ffffff" />
      <polygon
          class="fil14"
          points="34328,21660 34249,22120 34293,22127 34386,21669 "
          id="polygon2181"
          style="fill:#ffffff" />
      <polygon
          class="fil14"
          points="34396,22406 34485,22205 34461,22195 34380,22400 "
          id="polygon2183"
          style="fill:#ffffff" />
      <path
          class="fil14"
          d="m 34800,22429 c -83,-91 -176,-158 -289,-212 l -100,196 c 85,38 164,96 226,164 l 163,-148 0,0 z"
          id="path2185"
          inkscape:connector-curvature="0"
          style="fill:#ffffff" />
      <polygon
          class="fil14"
          points="34684,22634 34863,22506 34841,22477 34673,22619 "
          id="polygon2187"
          style="fill:#ffffff" />
      <polygon
          class="fil14"
          points="34726,22697 34916,22587 34902,22565 34716,22682 "
          id="polygon2189"
          style="fill:#ffffff" />
      <path
          class="fil14"
          d="m 35033,22940 c -13,-117 -49,-228 -103,-327 l -196,100 c 43,79 71,165 81,259 l 218,-32 0,0 z"
          id="path2191"
          inkscape:connector-curvature="0"
          style="fill:#ffffff" />
      <polygon
          class="fil14"
          points="34819,23047 35039,23040 35038,23003 34819,23028 "
          id="polygon2193"
          style="fill:#ffffff" />
      <polygon
          class="fil14"
          points="34815,23123 35034,23137 35036,23111 34816,23105 "
          id="polygon2195"
          style="fill:#ffffff" />
      <path
          class="fil14"
          d="m 34915,23504 c 59,-101 99,-216 116,-337 l -219,-26 c -13,93 -41,169 -84,247 l 187,116 0,0 z"
          id="path2197"
          inkscape:connector-curvature="0"
          style="fill:#ffffff" />
      <polygon
          class="fil14"
          points="34688,23450 34861,23586 34882,23557 34698,23436 "
          id="polygon2199"
          style="fill:#ffffff" />
      <polygon
          class="fil14"
          points="34641,23509 34800,23661 34817,23641 34652,23495 "
          id="polygon2201"
          style="fill:#ffffff" />
      <path
          class="fil14"
          d="m 33460,23670 c 19,20 41,41 62,60 l 103,-207 0,0 -165,147 0,0 z m 1269,59 c 18,-15 34,-30 50,-47 l -150,-161 -2,2 102,206 0,0 z"
          id="path2203"
          inkscape:connector-curvature="0"
          style="fill:#ffffff" />
      <polygon
          class="fil14"
          points="33579,23470 33399,23597 33420,23623 33588,23482 "
          id="polygon2205"
          style="fill:#ffffff" />
      <polygon
          class="fil14"
          points="33537,23410 33345,23518 33359,23540 33546,23424 "
          id="polygon2207"
          style="fill:#ffffff" />
      <path
          class="fil14"
          d="m 33219,23155 c 15,122 54,237 112,339 l 197,-98 c -46,-79 -77,-168 -89,-262 l -220,21 z"
          id="path2209"
          inkscape:connector-curvature="0"
          style="fill:#ffffff" />
      <path
          class="fil14"
          d="m 33213,23058 c 0,11 1,23 1,35 l 220,-14 c -1,-6 -1,-12 -1,-17 l -220,-4 0,0 z"
          id="path2211"
          inkscape:connector-curvature="0"
          style="fill:#ffffff" />
      <polygon
          class="fil14"
          points="33435,22987 33217,22962 33215,22987 33434,23005 "
          id="polygon2213"
          style="fill:#ffffff" />
      <path
          class="fil14"
          d="m 33324,22607 c -55,102 -88,206 -104,325 l 217,38 c 7,-86 41,-186 81,-258 l -194,-105 z"
          id="path2215"
          inkscape:connector-curvature="0"
          style="fill:#ffffff" />
      <polygon
          class="fil14"
          points="33553,22654 33373,22528 33355,22555 33546,22665 "
          id="polygon2217"
          style="fill:#ffffff" />
      <polygon
          class="fil14"
          points="33596,22598 33429,22455 33414,22474 33586,22610 "
          id="polygon2219"
          style="fill:#ffffff" />
      <path
          class="fil14"
          d="m 33832,22417 -93,-199 c -111,52 -212,127 -292,217 l 159,151 c 62,-70 140,-129 226,-169 l 0,0 0,0 z"
          id="path2221"
          inkscape:connector-curvature="0"
          style="fill:#ffffff" />
      <polygon
          class="fil14"
          points="33899,22390 33828,22181 33796,22193 33883,22395 "
          id="polygon2223"
          style="fill:#ffffff" />
      <polygon
          class="fil14"
          points="33970,22369 33921,22155 33896,22161 33953,22373 "
          id="polygon2225"
          style="fill:#ffffff" />
      <path
          class="fil14"
          d="m 34126,22132 c -62,0 -119,6 -177,17 l 38,217 c 90,-18 179,-19 269,-2 l 45,-215 c -57,-11 -115,-17 -175,-17 l 0,0 z"
          id="path2227"
          inkscape:connector-curvature="0"
          style="fill:#ffffff" />
      <path
          class="fil14"
          d="m 34126,22378 c -368,0 -667,299 -667,667 0,175 68,334 179,453 l 66,-134 -102,0 0,-331 267,0 257,-516 257,516 241,0 0,331 -76,0 66,134 c 111,-119 178,-278 178,-453 0,-368 -298,-667 -666,-667 l 0,0 z"
          id="path2229"
          inkscape:connector-curvature="0"
          style="fill:#ffffff" />
      <polygon
          class="fil14"
          points="34326,22381 34395,22172 34361,22162 34310,22376 "
          id="polygon2231"
          style="fill:#ffffff" />
      <path
          class="fil20"
          d="m 33854,23364 200,52 0,18 -268,-70 68,0 z m 318,83 464,122 9,19 -473,103 0,-18 433,-94 -433,-114 0,-18 0,0 z m -118,270 -574,125 10,-20 564,-123 0,18 0,0 z m -577,131 577,139 0,18 -585,-141 8,-16 z m 695,168 660,158 -74,0 -586,-141 0,-17 z"
          id="path2233"
          inkscape:connector-curvature="0"
          style="fill:#ffffff;fill-rule:nonzero" />
   </g>
</svg>
