<?xml version="1.0" encoding="UTF-8" standalone="no"?>
<svg
    xmlns:dc="http://purl.org/dc/elements/1.1/"
    xmlns:cc="http://creativecommons.org/ns#"
    xmlns:rdf="http://www.w3.org/1999/02/22-rdf-syntax-ns#"
    xmlns:svg="http://www.w3.org/2000/svg"
    xmlns="http://www.w3.org/2000/svg"
    xmlns:sodipodi="http://sodipodi.sourceforge.net/DTD/sodipodi-0.dtd"
    xmlns:inkscape="http://www.inkscape.org/namespaces/inkscape"
    id="city_nnov"
    data-name="nnov"
    width="52.5mm"
    height="52.5mm"
    viewBox="0 0 148.82 148.82"
    version="1.1"
    inkscape:version="0.91 r13725"
    sodipodi:docname="_nyagan.svg">
   <metadata
       id="metadata22">
      <rdf:RDF>
         <cc:Work
             rdf:about="">
            <dc:format>image/svg+xml</dc:format>
            <dc:type
                rdf:resource="http://purl.org/dc/dcmitype/StillImage" />
            <dc:title></dc:title>
         </cc:Work>
      </rdf:RDF>
   </metadata>
   <defs
       id="defs20" />
   <sodipodi:namedview
       pagecolor="#ffffff"
       bordercolor="#666666"
       borderopacity="1"
       objecttolerance="10"
       gridtolerance="10"
       guidetolerance="10"
       inkscape:pageopacity="0"
       inkscape:pageshadow="2"
       inkscape:window-width="640"
       inkscape:window-height="480"
       id="namedview18"
       showgrid="false"
       inkscape:zoom="1.268656085"
       inkscape:cx="93.01181102"
       inkscape:cy="93.01181102"
       inkscape:current-layer="city_nnov" />
   <g
       transform="matrix(0.0283466687,0,0,0.0283466716,-1041.740077,-595.2801132)"
       style="clip-rule:evenodd;fill-rule:evenodd;image-rendering:optimizeQuality;shape-rendering:geometricPrecision;text-rendering:geometricPrecision"
       id="nyagan">
      <path
          class="fil3"
          d="m 39737,24775 c 0,-75 24,-141 63,-188 18,31 -3,33 27,79 -44,13 -42,-4 -66,45 l -18,51 c 0,-2 -4,9 -6,13 z m 88,-118 c 9,-29 15,-59 31,-83 27,-41 21,-29 57,-41 -44,94 11,78 -88,124 z m -815,-20 -4,28 c 69,-23 9,-26 143,-82 -158,245 -72,302 -78,448 -2,65 -21,107 -30,163 101,30 132,-104 138,-196 12,-206 -13,-151 -73,-264 24,-97 84,-179 187,-225 l -37,97 c 3,-2 8,-11 9,-8 2,2 8,-7 9,-10 l 57,-52 c 32,-32 36,-26 73,-42 l 12,36 c 99,-27 196,30 264,60 -63,59 -40,24 -106,48 -91,34 -66,87 -72,101 -12,27 -16,3 -32,61 l 47,90 c 16,34 9,36 6,74 l 27,-4 c 18,-17 -35,-22 29,-12 -22,106 -3,29 14,62 l 37,70 c -27,42 -21,33 -14,81 l 93,-53 c 2,-1 7,-2 11,-3 l 7,-32 40,-4 c 14,-58 8,-47 68,-63 15,-51 22,-38 38,-70 38,-79 -3,-27 36,-66 43,-42 60,-81 59,-158 -38,-27 -16,-12 -57,-29 l 8,-123 c 75,-52 142,-56 228,-8 4,28 0,-7 -3,20 l 103,62 c -4,-30 -20,-122 -40,-137 l -17,66 c -51,-123 -266,-46 -357,-35 -1,3 -3,9 -4,10 0,2 -3,8 -4,9 l -16,17 c -121,90 -55,110 -94,73 -32,-31 -16,14 21,-53 -48,-20 -43,-14 -70,-62 l -33,-19 c -3,2 -8,6 -11,8 -11,6 -40,16 -40,-4 -128,-42 -133,-32 -275,-39 l -197,103 c -22,11 -14,1 -36,14 l -64,52 z m -281,75 c 50,87 20,85 9,115 -16,41 -25,101 -32,127 l 16,-70 -78,56 21,-60 c 2,-3 6,-6 8,-9 2,-2 5,-5 8,-7 3,-5 22,-23 22,-23 38,-48 30,-61 26,-129 z m 0,0 c -5,-4 -14,-9 -27,-20 -34,-30 -9,-9 -29,-31 44,19 30,0 56,51 z m -136,-59 c 16,-71 27,-97 81,-117 -44,67 -4,99 -81,117 z m 34,-135 c -3,2 -8,4 -10,5 l -30,26 c -17,14 35,8 -49,18 39,34 38,25 23,80 l 32,6 c -122,87 -51,61 -80,129 -31,-57 9,-113 23,-189 -4,4 -8,8 -11,11 -37,39 -33,58 -41,45 -2,-3 -7,8 -11,12 -23,-35 36,-14 -42,-35 -15,-4 -50,2 -66,3 -33,11 -58,21 -82,40 -7,6 -28,30 -29,36 -10,54 -11,-31 3,22 l 16,26 c -1,1 -28,11 -36,16 l 62,197 c 24,-18 6,-11 42,-14 l -16,63 c 90,-26 0,-7 72,65 l -14,15 c -11,52 -13,45 14,71 l 24,-19 13,-32 31,9 c -10,-22 -13,-15 12,-17 13,-30 4,-18 26,-35 3,-3 17,-10 20,-13 4,-2 17,-11 21,-14 l 28,-35 26,4 27,-69 c 7,5 11,6 12,12 3,14 42,31 52,94 l 88,-92 43,-83 c 15,-35 -3,-37 34,-59 l -14,-52 c -5,-74 6,-78 11,-90 l 9,-24 c -30,-34 -52,-52 -119,-62 -21,17 -11,7 -29,28 l -25,31 c -1,-3 -5,8 -9,11 l 7,-103 62,-24 c 61,-21 104,-7 162,19 8,37 6,0 -15,52 l 116,34 -16,-143 c -52,37 -14,-4 -49,63 -24,-35 -23,-38 -65,-51 -79,-24 -186,3 -253,12 z m 2325,63 -14,71 c -99,-71 -150,-15 -229,32 -4,115 27,5 -32,116 l 31,82 c 10,3 0,11 38,-6 l 27,87 c 17,-19 -32,-25 28,-13 l -12,62 44,-11 c -1,71 -13,37 34,74 l -28,40 c 8,9 16,45 16,46 13,-10 35,-28 47,-36 l 121,-108 70,-83 c 53,-112 78,-102 88,-158 9,-46 -6,-68 -20,-99 -118,-49 -85,-35 -189,7 l -6,94 c -33,-48 -20,-44 -5,-107 18,-74 3,-59 51,-98 17,81 -4,28 27,65 14,-72 27,-90 82,-119 l -41,114 c 15,32 18,14 49,25 -10,-104 -30,-114 68,-137 46,-38 125,2 171,16 l 7,-33 c -191,-37 -246,-36 -374,58 -37,26 -27,12 -49,19 z m -686,93 c 15,-37 11,-62 115,-88 -23,39 -47,84 -69,120 -35,-47 -46,-32 -46,-32 z m -19,-40 c -14,31 -32,66 -50,101 -23,45 -40,39 -49,98 -15,90 -7,179 -67,242 l -56,107 c 78,86 188,-89 213,-159 74,-204 0,-265 -3,-278 -5,-22 -9,-4 1,-36 21,-68 10,-19 30,-35 7,49 -2,30 45,76 -33,29 -28,-14 -24,89 1,47 7,63 15,118 12,93 -14,149 -29,247 103,-16 115,-71 129,-166 4,5 10,5 12,13 l 20,22 c 62,65 186,118 271,72 l -16,62 73,-55 c 28,-38 41,-43 46,-113 -1,2 -31,24 -34,27 -21,57 -50,71 -138,63 l -18,-55 c -4,3 -9,9 -11,10 -82,57 -14,16 -37,13 -25,-106 24,-58 36,-98 3,-8 9,-7 13,-13 l -89,18 11,99 c -56,-24 -120,-82 -129,-105 -2,-104 20,-205 -74,-238 25,-124 82,-202 194,-248 -42,77 -36,38 -36,107 87,-104 -37,-19 130,-118 l 53,34 c 43,-25 91,-18 143,2 60,22 70,40 130,44 -5,-40 7,-13 -20,-40 -31,-32 -70,-27 -121,-41 -223,-62 -320,-12 -495,88 -32,18 -45,30 -69,46 z m -2357,65 c -29,61 -30,46 -31,99 0,50 8,78 11,107 11,96 -5,152 -32,259 l 70,4 c 44,-57 61,-89 72,-187 19,-192 11,-148 -62,-280 33,-104 112,-181 201,-218 -51,77 -58,46 -35,100 23,-34 50,-92 123,-105 l 42,24 c 101,-13 156,22 197,58 l 50,45 c 20,-35 26,-32 17,-73 l -89,-37 c -4,0 -9,2 -13,2 -3,0 -8,-1 -11,-1 -3,0 -96,-53 -201,-53 -55,0 -94,15 -139,40 l -79,29 c -1,0 -8,5 -10,1 -1,-3 -7,2 -10,3 -4,10 -7,44 -8,48 -10,36 -28,26 -63,135 z m 989,312 c -26,104 -76,103 -85,191 l 107,-17 c 34,-48 58,-50 77,-122 27,27 4,12 47,15 l 27,-62 c -15,-6 -20,-15 -44,15 74,-469 -48,-79 -2,-366 -48,39 -24,36 -49,83 -27,52 -27,9 -41,75 -17,80 5,110 -37,188 z m -1408,-377 -57,-13 c 13,66 45,158 101,194 30,-69 29,-69 11,-144 54,77 3,115 -4,203 l 50,47 68,-123 c 16,-43 5,-33 7,-99 l 8,-45 c 21,-64 -39,-100 -140,-87 l -5,90 -39,-23 z m 390,-63 c -19,30 -17,24 -39,35 -22,41 -98,158 -104,193 -12,67 3,63 -18,128 -15,46 -23,73 -45,105 19,53 34,60 71,82 21,-29 44,-58 60,-79 46,-135 79,-193 15,-334 34,-75 29,-91 103,-116 l -43,-14 z m 2107,141 c 86,167 -146,172 -62,299 33,50 0,14 45,40 l -5,-49 c 47,-4 11,10 40,-18 2,-2 5,-7 7,-9 3,-2 5,-6 7,-9 l 79,-191 c 0,-3 -1,-7 -1,-10 l 17,-112 c -81,-95 -118,-61 -161,-22 l 34,81 z m 1151,269 c 54,-39 25,-24 59,-76 l 99,-164 c 29,-72 -7,-35 43,-90 -39,-35 -67,-83 -159,-66 l -28,45 c 85,144 114,119 2,269 0,0 -39,14 -16,82 z m -3064,50 -19,-18 c -4,-2 -15,-14 -18,-17 -38,-27 29,4 -38,-15 28,121 167,168 286,145 l -7,55 c 3,-3 28,-14 38,-21 14,-23 15,-29 33,-43 55,-44 -23,13 53,-22 l -45,-58 c -1,-6 -4,-7 -6,-11 -39,100 -124,96 -132,39 l -25,-6 c -34,1 5,36 -27,2 -26,-29 -16,-49 6,-60 l 38,-45 -86,17 2,100 c -41,-21 -22,8 -53,-42 z m 1204,33 c -64,-25 -4,-5 -76,-56 30,84 65,95 128,135 50,9 98,24 132,-1 58,56 -4,-25 27,53 34,-44 7,-22 50,-45 43,-71 48,-23 67,-125 l -69,65 c -6,5 -30,37 -66,40 -55,3 -54,-25 -66,-54 l -17,16 c -1,1 -5,5 -6,5 0,1 -3,4 -3,2 0,0 -1,1 -2,1 l -33,-41 c -1,-6 -2,-8 -4,-12 27,-49 -24,-20 56,-40 0,-34 10,-28 -21,-24 l -17,-3 -39,27 6,97 -47,-40 z m -1437,-458 -23,-102 c -14,-41 3,-7 -18,-34 l -19,63 -27,-44 -150,-23 c 33,30 -10,12 60,33 38,11 47,3 56,26 1,3 4,9 5,13 l 7,39 c 38,7 71,20 109,29 z m 2013,400 29,76 c -22,59 -11,-4 -41,42 l 177,37 17,-32 c -88,-14 -135,-41 -156,-128 l -26,5 z m -1237,8 -1,48 34,13 -42,55 c 88,-6 112,10 186,33 l 10,-32 c -83,-14 -145,-43 -160,-127 l -27,10 z m -299,-48 -62,-197 c -4,3 -30,-5 -33,50 -3,35 10,16 33,11 -13,177 27,-8 29,153 l 33,-17 z m -924,-428 22,65 c 21,-46 36,-71 59,-101 l 35,18 76,-43 c -55,-5 -66,-6 -110,7 l -67,34 c -2,2 -6,12 -7,10 -2,-3 -5,6 -8,10 z m 2450,119 c 99,-46 44,-30 88,-124 -36,12 -30,0 -57,41 -16,24 -22,54 -31,83 z m -2354,-23 c 38,-24 11,17 13,-56 1,-39 -4,-10 7,-58 -69,17 -17,-27 -41,62 l -23,40 44,12 z m 1788,430 47,40 -6,-97 39,-27 c -51,1 -51,44 -80,84 z m -962,96 c 20,-19 6,-13 26,-22 l 32,2 c 0,2 0,6 0,7 -1,2 -1,7 -2,9 l 44,10 c -27,-26 -25,-19 -14,-71 -76,35 2,-22 -53,22 -18,14 -19,20 -33,43 z m 604,25 124,-107 c -43,-3 -20,12 -47,-15 -19,72 -43,74 -77,122 z m -424,-78 51,3 16,-65 c -4,3 -17,12 -21,14 -3,3 -17,10 -20,13 -22,17 -13,5 -26,35 z m -277,-42 c -38,-71 11,16 -30,-33 -16,-19 -6,11 -16,-31 -22,11 -32,31 -6,60 32,34 -7,-1 27,-2 l 25,6 z m -310,-366 -21,-62 c -42,10 -20,-3 -27,30 23,41 3,22 48,32 z m 2334,387 c 50,-27 64,-36 40,-85 l -40,85 z m -1680,-41 c 39,5 28,1 53,17 l 1,-48 -26,-4 -28,35 z m 1176,60 36,-2 11,-34 -40,4 -7,32 z m -1299,42 c 23,6 15,-10 33,12 l 11,-35 -31,-9 -13,32 z m 308,-435 c -26,-51 -12,-32 -56,-51 20,22 -5,1 29,31 13,11 22,16 27,20 z"
          id="path2096"
          inkscape:connector-curvature="0"
          style="fill:#ffcc00" />
      <path
          class="fil4"
          d="m 39820,22099 c -10,149 10,13 39,157 17,82 2,78 57,117 130,-168 56,-53 142,-121 l 0,-116 c -50,0 -67,132 -136,184 -2,-2 -64,12 -40,-149 9,-57 27,-85 55,-128 -78,18 -66,28 -117,56 z"
          id="path2098"
          inkscape:connector-curvature="0"
          style="fill:#999999" />
      <path
          class="fil2"
          d="m 39669,24047 112,-23 c 2,0 7,-3 10,-5 -19,-29 5,-7 -24,-30 -57,-48 -35,-24 -70,-85 -32,-14 -63,-14 -113,-22 -30,-4 -29,-3 -55,-13 -36,-14 -13,-2 -42,-25 15,65 47,66 88,103 37,34 73,75 94,100 z m -562,-638 c 7,3 17,1 21,11 l 111,71 -53,46 c -30,-19 -37,3 86,-13 -15,120 -3,29 48,62 2,2 7,6 9,8 l -106,46 c -28,-66 -7,-50 -99,-50 l 9,-100 c -4,-11 -14,4 -26,-81 z m -66,-66 c 156,1 33,-12 83,49 -44,9 -38,11 -80,28 -150,60 -82,-7 -102,-28 33,-12 -1,-12 45,-13 53,-2 6,12 5,13 -19,-44 -9,-22 -17,-82 5,-2 59,-31 60,-31 144,-55 64,4 89,31 -29,12 -49,26 -83,33 z m -231,-198 c 3,39 39,32 -5,33 l 99,82 c -18,67 -20,63 8,95 60,69 16,-29 47,87 -56,0 -61,12 -94,-19 -84,-77 69,22 -5,-31 -19,-23 -17,-58 -17,-99 8,9 40,-20 10,31 -29,49 -7,14 -59,52 l 4,-80 c -51,-6 -53,-7 -87,-19 61,-64 -31,-25 49,-41 23,-5 16,15 17,24 l -17,-22 c -12,-33 -16,21 -13,-45 5,-113 57,-48 63,-48 z m 941,-297 -84,29 c -59,-3 -41,-12 -65,-29 l 45,-31 c 101,-59 -31,40 29,-14 22,-21 19,-39 25,-71 7,6 16,5 18,17 4,15 21,4 28,62 1,2 2,7 2,9 0,3 1,10 1,13 0,2 1,10 1,15 z m 49,-116 c 58,-49 -11,-16 83,-49 -17,134 -16,102 -132,132 12,-88 -5,-71 49,-132 32,53 45,-64 21,55 -6,30 -18,-3 -21,-6 z m -990,413 c -32,-9 -18,9 -33,-17 -77,8 -10,41 -66,17 0,1 38,-9 13,49 -32,75 25,-9 -46,50 -10,-81 -17,-63 0,-149 l -41,-65 c -9,-44 -8,-54 7,-82 13,-25 -9,-11 27,-26 58,-26 5,-7 24,8 -3,-4 -7,-13 -8,-11 0,0 -41,-44 -32,-100 2,-18 14,-43 20,-53 l 29,-40 c 2,-2 5,-7 7,-10 95,1 71,-18 116,33 -103,-49 15,-196 16,-198 l 84,9 c 26,7 32,39 32,56 -1,-1 -40,-7 4,-90 26,-50 89,-67 94,-52 3,7 12,4 16,7 l 34,26 c 3,3 8,13 9,14 21,40 -4,0 -9,-3 44,-38 -10,-22 54,-51 45,-20 41,-8 95,1 9,23 18,48 29,79 17,51 23,14 4,81 59,-30 8,-11 49,5 l -37,48 c -3,3 -7,6 -9,9 -3,4 -16,34 -20,42 -61,-48 -35,-24 -82,-116 -21,40 -4,-5 -23,33 -2,3 -12,33 -14,36 -4,6 -6,9 -10,15 l -36,32 -49,-99 c -52,62 -23,-54 -46,75 l -11,41 c -2,4 -6,11 -9,16 l -66,-66 -50,66 c 8,74 26,1 33,132 -93,-27 -19,11 -61,-21 -45,-33 -6,-25 -5,-28 l -22,15 c -1,0 -7,0 -11,1 l 64,118 c -56,65 32,20 -48,42 -92,25 -5,6 -32,-11 -10,45 -21,34 0,16 37,152 32,-44 82,149 -85,-24 -21,8 -66,-33 z m 917,-968 40,-24 c 26,23 12,-25 20,18 7,3 36,8 46,17 -2,7 -4,15 -7,23 l -33,84 c -18,44 -34,97 -90,41 -29,-30 -23,-66 -23,-115 -15,225 -59,103 -38,259 26,199 -50,118 -64,244 7,144 14,18 -25,74 -34,-9 -56,-7 -72,-33 -46,-71 16,-86 24,-93 20,-56 14,-42 8,-119 l -40,-27 c -3,-2 -8,-6 -13,-8 7,-121 18,-112 -39,-189 -33,15 -23,15 -62,26 -14,-102 -46,-201 -134,-130 l -21,17 c -17,-45 -34,-80 -56,-111 l -62,0 c -43,44 -33,31 -47,88 l -46,-32 c -36,-29 7,-1 -34,-29 -139,27 -86,84 -174,155 -14,-64 2,-39 -41,-70 -100,20 -125,86 -131,204 l -30,-10 c -3,-1 -9,-4 -14,-6 -186,-51 -81,238 -61,310 -88,-138 -240,93 16,266 -35,-14 -6,-13 -50,-25 -4,-2 -8,-4 -13,-5 -155,-23 -50,181 58,210 -3,5 -7,6 -9,15 -1,7 -14,20 -16,24 -53,82 63,165 141,181 -2,32 -33,80 94,130 69,27 117,2 137,4 58,6 13,-8 49,26 -64,20 -57,1 -69,56 63,47 111,1 189,-10 -86,34 -157,28 -231,93 22,45 4,10 30,22 140,-22 328,20 449,-35 33,-15 22,-8 39,-37 20,20 48,35 33,66 -47,-40 81,-19 162,-132 132,-184 88,-154 85,-330 39,22 54,-25 66,83 -1,-2 -4,-9 -3,-7 l 53,-26 0,115 c 68,57 -30,-62 16,17 43,-17 36,-34 50,-83 35,34 41,31 33,66 0,116 -6,27 33,99 67,-7 46,-33 113,-100 6,-6 12,-10 19,-15 17,67 0,3 33,66 107,-37 70,-67 71,-68 11,-50 5,-33 28,-64 28,30 25,-9 33,49 19,-91 9,25 17,-82 121,67 -11,24 117,-17 57,-83 -78,-308 -82,-318 -13,-39 -30,-77 -45,-111 52,-130 -7,-34 -53,-198 4,-3 10,-13 12,-10 0,1 83,-47 39,-122 10,-4 -1,-6 44,9 -3,-81 -2,-101 -57,-133 l 28,-80 c -47,-21 -73,-43 -109,-78 -86,68 -12,-47 -142,121 -55,-39 -40,-35 -57,-117 -29,-144 -49,-8 -39,-157 -3,3 -7,4 -9,10 -5,17 -52,29 -84,68 z m 66,118 33,-84 c 3,-8 5,-16 7,-23 -10,-9 -39,-14 -46,-17 3,45 17,39 -17,39 l -32,58 55,27 z"
          id="path2100"
          inkscape:connector-curvature="0"
          style="fill:#000000" />
      <g
          id="g2102">
         <path
             class="fil4"
             d="m 38874,24147 c -2,-3 -5,-10 -5,-8 l -19,-37 c -2,-2 -5,-8 -7,-12 l -83,11 c 4,10 8,7 23,3 63,-20 38,-7 75,-47 l -170,11 -82,20 c 19,2 3,15 65,18 11,94 59,40 143,92 l 60,-51 z m 54,25 c -41,24 -47,13 -90,51 l 86,-4 c -20,30 -2,-3 -22,39 87,5 28,-36 88,22 24,-23 1,-47 125,-4 l 145,59 12,-40 c 23,-17 87,-62 99,-78 73,-102 25,-123 25,-123 -77,97 -99,111 -223,147 l 14,-33 -94,-13 c -46,-15 -9,-36 -87,-9 8,2 0,12 26,0 52,-25 14,-1 50,-43 -85,4 -80,6 -154,29 z m 1339,-161 c 48,-74 64,15 18,-75 l 106,-21 -92,-17 -201,23 c 80,93 14,33 115,48 -17,-16 32,-17 -48,-8 -67,7 9,0 -64,13 18,20 0,55 131,48 35,-2 35,-11 35,-11 z m -500,-22 c 29,23 5,1 24,30 -3,2 -8,5 -10,5 l -112,23 -2,34 2,54 c 93,-19 70,-9 128,23 34,-83 6,-38 52,-55 53,-19 28,-38 77,-10 l -69,-4 c 3,6 8,8 10,18 l 23,57 31,30 c 58,-33 26,-13 91,-31 l 41,-19 c 8,-13 5,-4 -8,-38 l 21,-71 c 37,-54 40,-65 54,-137 -14,-3 -47,-8 -54,-11 -32,19 19,17 -29,9 -4,-1 -29,-16 -31,-18 2,94 11,73 -22,64 -3,-1 -11,-4 -14,-5 -3,-2 -10,-6 -16,-9 11,58 24,93 -22,122 -47,-40 -7,-16 0,-110 -48,37 -29,16 -44,71 l -34,-37 -30,42 -57,-27 z m -100,92 c -68,29 -44,-13 -80,35 91,-15 36,38 18,65 37,0 14,-6 58,4 l 40,14 c 3,1 8,4 13,6 l 5,42 c 67,64 -22,-10 106,13 -16,-26 -11,-28 -20,-49 l 84,5 c -56,-27 -62,-17 -88,-64 45,-21 30,-12 87,12 l -23,-57 c -2,-10 -7,-12 -10,-18 l 69,4 c -49,-28 -24,-9 -77,10 -46,17 -18,-28 -52,55 -58,-32 -35,-42 -128,-23 l -2,-54 z m -235,218 c 45,15 4,-21 55,31 l 234,-83 -5,-42 c -5,-2 -10,-5 -13,-6 l -40,-14 c -44,-10 -21,-4 -58,-4 18,-27 73,-80 -18,-65 l -31,-5 c -93,15 -4,-12 -43,18 -3,2 -7,5 -10,8 -22,24 -20,49 -16,80 l 57,1 c 1,-4 6,-3 9,-9 l -15,-2 c 5,5 -26,70 69,35 -75,-2 -129,-26 -183,-43 77,-19 64,24 76,-90 l -32,21 c -42,30 0,20 -36,15 l -30,20 c -26,46 -31,29 -24,102 4,3 9,8 12,10 l 33,19 c 1,-2 6,2 9,3 z m -622,-1154 c -6,0 -58,-65 -63,48 -3,66 1,12 13,45 l 17,22 c -1,-9 6,-29 -17,-24 -80,16 12,-23 -49,41 34,12 36,13 87,19 l -4,80 c 52,-38 30,-3 59,-52 30,-51 -2,-22 -10,-31 0,41 -2,76 17,99 74,53 -79,-46 5,31 33,31 38,19 94,19 -31,-116 13,-18 -47,-87 -28,-32 -26,-28 -8,-95 l -99,-82 c 44,-1 8,6 5,-33 z m 24,583 c 14,34 195,10 323,27 l 12,144 c 64,51 75,84 107,170 -19,26 5,9 -23,32 -45,38 6,3 -49,25 48,51 38,31 51,102 -101,-6 -121,-18 -163,-105 96,-21 38,-25 74,21 l 5,-23 -127,-52 c 23,48 26,18 20,64 -1,2 -4,7 -6,11 -39,-24 -21,3 -40,-38 -4,-7 -10,-40 -12,-54 l -42,-20 c -46,-36 -22,-7 -55,-19 l -39,-36 c -6,41 -7,13 -33,35 l -36,-73 c 5,61 21,65 21,85 1,38 0,12 -12,33 -50,-22 -24,30 -46,-47 -9,-31 -1,-37 5,-57 -14,-10 21,-25 -50,5 l 2,-77 c -13,35 -10,16 -51,31 l -3,-26 c 24,60 8,37 56,25 l -19,128 c -7,-6 -2,-2 -2,-3 -2,27 6,21 -20,21 l 6,11 170,-11 c -37,40 -12,27 -75,47 -15,4 -19,7 -23,-3 l 83,-11 c 2,4 5,10 7,12 l 19,37 c 0,-2 3,5 5,8 71,-17 47,11 54,25 74,-23 69,-25 154,-29 -36,42 2,18 -50,43 -26,12 -18,2 -26,0 78,-27 41,-6 87,9 l 94,13 -14,33 c 124,-36 146,-50 223,-147 0,0 48,21 -25,123 -12,16 -76,61 -99,78 74,1 93,35 160,4 -3,-1 -8,-5 -9,-3 l -33,-19 c -3,-2 -8,-7 -12,-10 -7,-73 -2,-56 24,-102 l 30,-20 c 36,5 -6,15 36,-15 l 32,-21 c -12,114 1,71 -76,90 54,17 108,41 183,43 -95,35 -64,-30 -69,-35 l 15,2 c -3,6 -8,5 -9,9 l -57,-1 c -4,-31 -6,-56 16,-80 3,-3 7,-6 10,-8 39,-30 -50,-3 43,-18 l -59,13 c -42,-70 -34,-19 -87,-58 -23,-17 -45,-54 -49,-84 -13,-87 39,-174 126,-138 29,23 6,11 42,25 26,10 25,9 55,13 50,8 81,8 113,22 3,-86 -3,-27 182,-105 62,-25 132,-72 165,-113 158,-196 56,-191 156,-258 82,-55 74,-71 81,-135 -128,41 4,84 -117,17 -8,107 2,-9 -17,82 -8,-58 -5,-19 -33,-49 -23,31 -17,14 -28,64 -1,1 36,31 -71,68 -33,-63 -16,1 -33,-66 -7,5 -13,9 -19,15 -67,67 -46,93 -113,100 -39,-72 -33,17 -33,-99 8,-35 2,-32 -33,-66 -14,49 -7,66 -50,83 -46,-79 52,40 -16,-17 l 0,-115 -53,26 c -1,-2 2,5 3,7 -12,-108 -27,-61 -66,-83 3,176 47,146 -85,330 -81,113 -209,92 -162,132 15,-31 -13,-46 -33,-66 -17,29 -6,22 -39,37 -121,55 -309,13 -449,35 z m 294,-308 c -4,-10 -14,-8 -21,-11 12,85 22,70 26,81 l -9,100 c 92,0 71,-16 99,50 l 106,-46 c -2,-2 -7,-6 -9,-8 -51,-33 -63,58 -48,-62 -123,16 -116,-6 -86,13 l 53,-46 -111,-71 z m -87,-77 c 34,-7 54,-21 83,-33 -25,-27 55,-86 -89,-31 -1,0 -55,29 -60,31 8,60 -2,38 17,82 1,-1 48,-15 -5,-13 -46,1 -12,1 -45,13 20,21 -48,88 102,28 42,-17 36,-19 80,-28 -50,-61 73,-48 -83,-49 z m -231,-198 c 45,41 -19,9 66,33 -50,-193 -45,3 -82,-149 -21,18 -10,29 0,-16 27,17 -60,36 32,11 80,-22 -8,23 48,-42 l -64,-118 c 4,-1 10,-1 11,-1 l 22,-15 c -1,3 -40,-5 5,28 42,32 -32,-6 61,21 -7,-131 -25,-58 -33,-132 l 50,-66 66,66 c 3,-5 7,-12 9,-16 l 11,-41 c 23,-129 -6,-13 46,-75 l 49,99 36,-32 c 4,-6 6,-9 10,-15 2,-3 12,-33 14,-36 19,-38 2,7 23,-33 47,92 21,68 82,116 4,-8 17,-38 20,-42 2,-3 6,-6 9,-9 l 37,-48 c -41,-16 10,-35 -49,-5 19,-67 13,-30 -4,-81 -11,-31 -20,-56 -29,-79 -54,-9 -50,-21 -95,-1 -64,29 -10,13 -54,51 5,3 30,43 9,3 -1,-1 -6,-11 -9,-14 l -34,-26 c -4,-3 -13,0 -16,-7 -5,-15 -68,2 -94,52 -44,83 -5,89 -4,90 0,-17 -6,-49 -32,-56 l -84,-9 c -1,2 -119,149 -16,198 -45,-51 -21,-32 -116,-33 -2,3 -5,8 -7,10 l -29,40 c -6,10 -18,35 -20,53 -9,56 32,100 32,100 1,-2 5,7 8,11 -19,-15 34,-34 -24,-8 -36,15 -14,1 -27,26 -15,28 -16,38 -7,82 l 41,65 c -17,86 -10,68 0,149 71,-59 14,25 46,-50 25,-58 -13,-48 -13,-49 56,24 -11,-9 66,-17 15,26 1,8 33,17 z m 990,-413 c 3,3 15,36 21,6 24,-119 11,-2 -21,-55 -54,61 -37,44 -49,132 116,-30 115,2 132,-132 -94,33 -25,0 -83,49 z m -49,116 c 0,-5 -1,-13 -1,-15 0,-3 -1,-10 -1,-13 0,-2 -1,-7 -2,-9 -7,-58 -24,-47 -28,-62 -2,-12 -11,-11 -18,-17 -6,32 -3,50 -25,71 -60,54 72,-45 -29,14 l -45,31 c 24,17 6,26 65,29 l 84,-29 z m -173,-124 c -52,28 -10,19 -78,10 l 5,-62 c -8,7 -70,22 -24,93 16,26 38,24 72,33 39,-56 32,70 25,-74 z m 772,-473 c 31,18 31,22 45,40 -7,27 -23,-17 -31,61 l 51,46 c 39,34 30,25 77,41 -28,27 55,66 -82,10 58,78 46,18 47,116 0,77 28,9 -22,70 56,15 6,-18 60,31 -21,85 -31,-22 45,178 -3,2 -8,2 -9,7 -7,27 -13,3 -33,13 l 32,92 c -1,0 -7,2 -9,2 -72,18 25,-14 -22,4 l 14,45 c -76,9 -44,0 -15,62 l -30,36 c 17,20 9,9 23,33 l -38,14 c 19,76 22,55 -6,77 l -18,16 c 49,36 19,2 37,49 -47,-13 -28,-19 -66,-6 l 90,88 -50,13 c -32,-4 -20,-5 -46,-32 l 8,68 c -12,14 30,38 -41,-4 l 15,80 -54,-16 c 35,76 70,173 18,256 3,3 -36,61 42,20 -63,33 -36,3 -83,60 l 144,-11 c 10,-24 6,-17 29,-31 l 52,-11 -37,-27 c 5,-5 11,-13 13,-9 2,4 14,-8 21,-14 27,-24 3,7 16,-21 -65,2 -68,14 -117,-8 66,-52 66,-24 173,-54 l 33,-65 c 15,-41 -27,-26 46,-62 l -35,-33 c 34,-34 32,-29 59,-70 -65,13 -69,30 -109,23 l -4,-39 c 66,-41 36,-21 116,-39 l -32,-40 c 82,-14 38,1 52,-23 17,-31 5,-46 6,-51 l -9,-52 c -1,-1 -7,-4 -11,-6 l 48,-23 c -4,-2 -10,-14 -13,-11 -2,3 -10,-9 -13,-12 -3,-4 -9,-10 -13,-13 -3,-4 -7,-10 -12,-14 6,-5 24,-18 28,-29 0,-3 1,-8 1,-10 1,-3 0,-8 0,-11 l 40,-74 c -1,-1 -6,-10 -7,-8 0,2 -31,6 0,-68 -121,40 -34,5 -61,-8 l 56,-41 c -23,-26 16,-12 -39,-32 60,-109 -54,-13 17,-125 -19,-34 -20,-29 -28,-67 0,-2 -1,-7 -1,-10 l -7,-81 c -2,1 1,49 -35,-16 -33,77 -28,69 -78,85 106,-322 -23,-74 40,-237 l -46,14 c 2,-22 7,-44 1,-63 -29,-81 -18,61 -29,-67 -2,1 -6,1 -7,5 -2,5 -7,5 -9,6 l -22,15 c -4,2 -11,6 -15,8 -4,2 -11,5 -16,8 l 22,-95 c -29,-31 -19,-9 -28,-66 l -42,2 c -2,-65 3,-27 -38,-62 l -2,159 c 16,-14 83,32 31,-53 l 22,75 c -25,-17 -100,-73 -100,-8 z m -167,1569 c -2,81 5,62 -36,91 -26,-40 -19,-16 -16,-109 l -19,76 -39,-34 -7,43 c 7,3 40,8 54,11 -14,72 -17,83 -54,137 76,-14 71,-6 125,22 l 84,-31 -8,-15 c 0,0 0,9 -35,11 -131,7 -113,-28 -131,-48 73,-13 -3,-6 64,-13 80,-9 31,-8 48,8 -101,-15 -35,45 -115,-48 l 201,-23 c -67,-1 -30,-11 -33,-39 48,-38 104,-12 178,-10 17,-37 -6,-25 42,-36 l -14,-34 c -23,14 -19,7 -29,31 l -144,11 c 47,-57 20,-27 83,-60 -78,41 -39,-17 -42,-20 -33,-49 -18,-35 -25,-101 l -4,142 c -9,27 -15,26 -21,36 l -30,-11 c -12,-10 -5,-22 -5,-25 4,95 8,73 -26,114 -29,-33 -37,55 -25,-82 l -21,6 z m -1523,214 22,23 c 26,0 18,6 20,-21 0,1 -5,-3 2,3 l 19,-128 c -48,12 -32,35 -56,-25 -34,16 -15,-20 -40,23 -5,9 -12,-22 -8,42 3,31 26,60 41,83 z m 511,87 -5,23 c -36,-46 22,-42 -74,-21 42,87 62,99 163,105 -13,-71 -3,-51 -51,-102 l -14,-40 c -25,19 -6,-3 -19,35 z m 1009,-363 3,62 21,-6 c -12,137 -4,49 25,82 34,-41 30,-19 26,-114 0,3 -7,15 5,25 l 30,11 c 6,-10 12,-9 21,-36 l 4,-142 c -3,3 -8,7 -9,10 l -16,20 c -33,44 -34,34 -36,77 -54,-28 -36,-9 -65,16 l -9,-5 z m 128,-1635 c 7,15 12,25 23,41 46,65 -21,22 75,49 -11,-56 -19,-52 -21,-60 l -9,-39 -38,-53 -73,40 43,22 z m 68,-9 9,39 c 2,8 10,4 21,60 -96,-27 -29,16 -75,-49 -11,-16 -16,-26 -23,-41 -15,30 -10,28 -33,48 l 85,11 c -21,59 -15,29 -10,69 0,-65 75,-9 100,8 l -22,-75 c 52,85 -15,39 -31,53 l 2,-159 c 41,35 36,-3 38,62 -7,-60 1,-45 -26,-77 -20,47 -18,32 -35,51 z m -196,1644 9,5 c 29,-25 11,-44 65,-16 2,-43 3,-33 36,-77 l 16,-20 c 1,-3 6,-7 9,-10 l -30,27 c -48,-50 -34,21 -32,49 l -49,-25 c -1,56 13,32 -27,61 l 3,6 z m -2029,-370 -11,50 -105,-35 54,61 c 22,56 13,4 21,29 l 15,79 c 47,57 154,15 163,68 26,-27 24,-12 45,-57 6,-14 3,-19 2,-31 l -19,166 c 59,-51 28,-10 48,-108 l 45,-119 -56,16 14,-78 c -14,5 -18,7 -45,20 l 22,-103 c -50,66 -7,61 -90,31 39,-52 33,-49 75,-84 -31,-14 -13,-11 -68,6 25,-53 -32,-9 39,-45 -27,-49 12,-9 -40,-27 -38,25 5,25 -53,1 -18,46 -39,106 -56,160 z m 13,-351 c -25,36 -43,68 -32,96 -12,-9 2,-14 -48,-27 -39,-11 -25,-4 -56,-1 l -50,48 c 31,13 23,6 47,27 l -25,14 c -3,2 -9,7 -11,9 -3,2 -8,6 -12,9 64,27 6,-19 32,26 l 13,29 0,10 c 4,3 10,3 12,10 2,6 9,7 12,9 3,2 33,19 34,20 38,21 34,18 73,32 -2,-48 14,-66 -66,-98 5,3 17,11 20,10 l 40,-16 c -21,-30 0,-7 -26,-37 -10,-11 -19,-18 -27,-26 l 83,58 c 22,-78 44,-69 63,-125 l 56,-29 -64,-19 c 42,-98 9,-34 -2,-64 -15,-39 5,-13 -13,-53 -25,31 -31,40 -53,88 z m 245,627 16,154 c 85,-8 44,-34 44,-34 7,69 -10,60 28,113 80,-1 7,5 35,-25 49,-121 -12,-94 -2,-189 -7,5 -38,25 -53,34 l 6,-78 c -4,3 -9,3 -11,8 l -29,-70 -34,87 z m 71,370 148,-24 c -33,-33 -48,-67 -102,-43 169,-6 48,17 100,-44 l -183,-24 -104,13 103,28 c -63,136 86,-51 8,93 l 30,1 z m -95,-298 c 40,43 -6,-33 28,51 l -70,-20 c 58,2 74,29 85,38 -2,1 -28,16 -55,17 -71,2 -107,-36 -119,-42 -3,43 11,17 -12,32 l 57,40 c 63,-7 104,-21 149,-1 15,27 30,-35 12,35 -7,28 -14,12 -17,13 l 183,24 c -52,61 69,38 -100,44 54,-24 69,10 102,43 l -148,24 61,25 c 51,-27 47,-34 119,-25 -15,-23 -38,-52 -41,-83 -4,-64 3,-33 8,-42 25,-43 6,-7 40,-23 l -11,-44 c -11,32 -16,19 -39,38 l -12,33 c -75,-25 -68,-38 -73,-41 -28,30 45,24 -35,25 -38,-53 -21,-44 -28,-113 0,0 41,26 -44,34 l -16,-154 c 0,7 3,22 1,29 -15,55 -3,25 -25,43 z m -363,-469 c 1,59 4,10 -16,30 69,26 74,-2 26,61 63,0 73,0 119,30 17,-54 38,-114 56,-160 58,24 15,24 53,-1 l 2,-69 c 16,-43 25,35 -7,-20 l -15,-24 c -19,56 -41,47 -63,125 l -83,-58 c 8,8 17,15 27,26 26,30 5,7 26,37 l -40,16 c -3,1 -15,-7 -20,-10 80,32 64,50 66,98 -39,-14 -35,-11 -73,-32 -1,-1 -31,-18 -34,-20 -3,-2 -10,-3 -12,-9 -2,-7 -8,-7 -12,-10 l 0,-10 z m 12,-644 c -21,87 -1,43 2,58 l 64,12 c 16,-25 19,6 21,-43 0,-7 -13,-36 -16,-43 -50,-83 -74,-132 -71,16 z m 97,-7 c 2,3 5,8 6,9 52,55 -13,-41 -2,52 4,39 20,15 20,15 -45,38 -95,20 -145,-20 l -7,34 14,42 c -59,28 -10,59 6,70 l -55,26 c 31,31 33,29 60,62 -35,21 4,16 -60,2 48,115 -65,14 27,103 5,13 9,11 10,8 l 0,0 c -1,3 -2,10 -4,22 -1,6 -7,22 -15,38 14,8 21,10 42,26 27,-2 20,-8 42,-3 l 2,3 c 1,-1 2,-1 3,-2 2,1 5,2 9,3 50,13 36,18 48,27 -6,-14 -4,-30 3,-47 3,1 6,2 10,4 l -4,-17 c 6,-12 14,-24 23,-36 l -29,8 -3,-47 c 57,-45 50,-80 103,-108 -3,-4 -9,-16 -11,-13 0,0 -77,-68 24,-145 -4,-34 -7,-39 -20,-70 l 64,-37 c -31,-24 -56,-17 -1,-63 l -35,-22 c 25,-24 28,-32 45,-53 l -62,-45 c 87,-19 61,-29 75,-43 l 50,-65 c 0,-1 3,-32 -38,-37 80,-65 68,-53 43,-116 l 72,-24 c -2,-1 -7,-7 -8,-9 -1,-2 -6,-7 -9,-10 3,-3 7,-13 8,-10 l 36,-44 c -57,5 -35,9 -70,-19 l -48,47 c -4,-6 -8,-16 -9,-13 -2,4 -10,-16 -14,-20 -21,-23 4,-5 -21,-16 -28,102 -21,60 -38,81 -2,3 -6,6 -8,8 l -17,149 -60,-42 -59,115 c -2,2 -8,5 -10,7 -2,1 -7,3 -10,4 41,87 0,-13 -5,85 -2,37 10,56 26,97 29,13 3,-3 6,49 z m -56,487 c 24,-16 25,-28 60,-17 l -60,17 z m 179,677 c 12,6 48,44 119,42 27,-1 53,-16 55,-17 -11,-9 -27,-36 -85,-38 l 70,20 c -34,-84 12,-8 -28,-51 l -107,-24 -88,-11 52,32 -40,31 52,16 z m 24,-68 107,24 c -35,-51 -25,-59 -21,-126 -20,98 11,57 -48,108 l 19,-166 c 1,12 4,17 -2,31 -21,45 -19,30 -45,57 -9,-53 -116,-11 -163,-68 l -15,-79 c -8,-25 1,27 -21,-29 -11,34 5,21 -31,39 79,40 43,52 44,56 l 32,74 175,37 c 2,86 6,8 -31,42 z"
             id="path2104"
             inkscape:connector-curvature="0"
             style="fill:#999999" />
      </g>
      <path
          class="fil3"
          d="m 39727,22177 -47,44 c 0,49 -6,85 23,115 56,56 72,3 90,-41 l -55,-27 32,-58 c 34,0 20,6 17,-39 -8,-43 6,5 -20,-18 l -40,24 z"
          id="path2106"
          inkscape:connector-curvature="0"
          style="fill:#ffcc00" />
   </g>
</svg>
