<?xml version="1.0" encoding="UTF-8" standalone="no"?>
<svg
    xmlns:dc="http://purl.org/dc/elements/1.1/"
    xmlns:cc="http://creativecommons.org/ns#"
    xmlns:rdf="http://www.w3.org/1999/02/22-rdf-syntax-ns#"
    xmlns:svg="http://www.w3.org/2000/svg"
    xmlns="http://www.w3.org/2000/svg"
    xmlns:sodipodi="http://sodipodi.sourceforge.net/DTD/sodipodi-0.dtd"
    xmlns:inkscape="http://www.inkscape.org/namespaces/inkscape"
    id="city_nnov"
    data-name="nnov"
    width="52.5mm"
    height="52.5mm"
    viewBox="0 0 148.82 148.82"
    version="1.1"
    inkscape:version="0.91 r13725"
    sodipodi:docname="_orsk.svg">
   <metadata
       id="metadata22">
      <rdf:RDF>
         <cc:Work
             rdf:about="">
            <dc:format>image/svg+xml</dc:format>
            <dc:type
                rdf:resource="http://purl.org/dc/dcmitype/StillImage" />
            <dc:title></dc:title>
         </cc:Work>
      </rdf:RDF>
   </metadata>
   <defs
       id="defs20" />
   <sodipodi:namedview
       pagecolor="#ffffff"
       bordercolor="#666666"
       borderopacity="1"
       objecttolerance="10"
       gridtolerance="10"
       guidetolerance="10"
       inkscape:pageopacity="0"
       inkscape:pageshadow="2"
       inkscape:window-width="640"
       inkscape:window-height="480"
       id="namedview18"
       showgrid="false"
       inkscape:zoom="1.268656085"
       inkscape:cx="93.01181102"
       inkscape:cy="93.01181102"
       inkscape:current-layer="city_nnov" />
   <g
       transform="matrix(0.0283466687,0,0,0.0283466716,-297.66837,-744.1001391)"
       style="clip-rule:evenodd;fill-rule:evenodd;image-rendering:optimizeQuality;shape-rendering:geometricPrecision;text-rendering:geometricPrecision"
       id="orsk">
      <path
          class="fil2"
          d="m 13101,28684 c 24,30 48,61 71,92 50,65 35,22 52,121 5,30 15,120 25,141 18,36 43,34 27,141 -68,25 -119,20 -175,-6 -22,-172 37,-62 58,-251 17,-150 29,-99 -28,-185 -14,-22 -18,-35 -30,-53 z m 226,-702 c 13,-11 32,-7 15,18 l -15,-18 z m -95,-43 -37,0 23,29 c -44,36 -77,26 -137,116 -39,57 -58,105 -66,188 -27,2 -54,-14 -60,-40 -18,-70 126,-176 -110,-163 -156,9 -199,80 -231,222 -27,123 -22,288 -29,418 -4,63 -13,139 -23,202 -8,53 -30,147 -28,196 63,5 63,-69 74,-123 34,-171 38,-494 44,-529 6,-32 3,-13 11,-23 -4,193 -9,301 -32,489 -6,45 -22,110 -20,155 28,0 38,-3 56,-19 29,-50 42,-572 52,-596 l 8,27 c 4,167 -28,397 -37,549 67,-2 67,-29 72,-89 5,-55 11,-106 12,-160 1,-56 -2,-275 18,-303 l -18,478 c 70,-5 55,-89 58,-208 1,-49 -6,-221 7,-252 16,16 9,42 8,85 -1,34 -2,67 -2,100 -1,52 -9,147 0,193 79,-22 22,-263 54,-358 7,8 7,-18 8,25 2,52 -16,200 -3,236 70,12 56,-178 55,-237 l 51,11 8,504 20,12 2,100 c -40,29 -68,10 -114,14 l -20,27 11,40 c 65,9 32,-21 102,-29 35,-4 79,-10 113,-9 l 19,18 c 53,-40 17,-9 65,-14 22,-2 117,-6 131,1 l 38,38 47,0 c 4,-7 7,-15 5,-26 -9,-77 -120,38 -99,-139 l 22,-12 3,-232 c 13,9 7,-9 11,11 12,57 -26,107 18,166 14,19 27,38 42,59 43,63 75,33 93,23 36,29 34,23 70,8 32,17 51,27 82,7 l 39,13 c 13,-9 10,-7 21,-15 24,8 30,11 57,3 14,-41 -15,-58 -38,-77 -29,-23 -41,-39 -65,-61 l -236,-258 c -40,-53 -92,-105 -96,-162 22,-14 19,-4 45,-24 17,16 10,5 32,18 29,59 56,148 117,160 -8,-40 -63,-169 -51,-192 59,111 52,276 144,279 -3,-50 -71,-222 -87,-296 17,12 6,-17 26,47 l 51,163 c 36,118 35,170 105,180 -11,-34 -26,-61 -39,-100 l -66,-200 c -7,-23 -35,-82 -26,-103 4,4 5,3 9,13 l 80,234 c 33,99 47,200 133,211 -10,-42 -37,-73 -51,-113 -15,-42 -26,-77 -41,-119 -25,-77 -63,-170 -82,-244 16,19 116,328 158,420 21,45 38,90 98,90 -41,-90 -72,-123 -116,-252 -18,-54 -87,-238 -90,-284 10,7 5,-2 12,9 l 46,141 c 18,54 35,106 55,159 29,78 92,257 165,253 7,-28 -36,-75 -61,-131 -70,-158 -61,-134 -115,-299 -15,-46 -41,-112 -49,-159 12,10 4,-12 20,35 49,149 104,319 173,455 28,55 52,123 110,103 0,-41 -45,-105 -65,-142 -28,-52 -44,-90 -68,-146 -42,-102 -78,-203 -116,-311 -92,-261 -99,-305 -332,-309 -138,-3 -60,114 -60,114 -8,88 -122,66 -153,7 -36,-71 -13,-174 58,-187 5,-38 43,-33 55,-80 -11,-14 -8,-16 -27,-21 -6,-9 5,-10 -31,-7 l -95,-1 z"
          id="path2074"
          inkscape:connector-curvature="0"
          style="fill:#000000" />
      <g
          id="g2076">
         <path
             class="fil4"
             d="m 11674,30008 2894,0 c -6,-6 -3,-5 -11,-11 l -134,-86 c -49,-30 -94,-61 -142,-92 l -713,-460 c -22,-14 -137,-76 -136,-99 l -47,0 -38,-38 c -14,-7 -109,-3 -131,-1 -48,5 -12,-26 -65,14 l -19,-18 c -34,-1 -78,5 -113,9 -70,8 -37,38 -102,29 l -11,-40 c -46,23 -111,67 -156,98 -116,82 -1056,672 -1076,695 z"
             id="path2078"
             inkscape:connector-curvature="0"
             style="fill:#999999" />
         <path
             class="fil4"
             d="m 11126,29995 0,13 511,0 c 17,-24 207,-140 236,-159 78,-53 154,-102 234,-153 37,-24 439,-281 463,-305 -82,-11 -421,-2 -491,17 -57,15 -129,61 -172,89 l -781,498 z"
             id="path2080"
             inkscape:connector-curvature="0"
             style="fill:#999999" />
         <path
             class="fil4"
             d="m 14605,30008 499,0 -611,-400 c -79,-51 -234,-159 -321,-186 -82,-25 -146,-13 -233,-18 -45,-3 -221,-14 -247,-2 4,5 3,5 9,11 7,5 10,7 16,10 14,8 19,11 29,18 238,162 501,327 745,489 32,21 93,56 114,78 z"
             id="path2082"
             inkscape:connector-curvature="0"
             style="fill:#999999" />
         <path
             class="fil4"
             d="m 15126,29993 0,-400 -613,-2 c 5,7 569,382 613,402 z"
             id="path2084"
             inkscape:connector-curvature="0"
             style="fill:#999999" />
         <path
             class="fil4"
             d="m 11126,29968 155,-97 c 62,-42 423,-262 456,-298 l -611,-3 0,398 z"
             id="path2086"
             inkscape:connector-curvature="0"
             style="fill:#999999" />
      </g>
      <path
          class="fil14"
          d="m 13101,28684 c 12,18 16,31 30,53 57,86 45,35 28,185 -21,189 -80,79 -58,251 56,26 107,31 175,6 16,-107 -9,-105 -27,-141 -10,-21 -20,-111 -25,-141 -17,-99 -2,-56 -52,-121 -23,-31 -47,-62 -71,-92 z"
          id="path2088"
          inkscape:connector-curvature="0"
          style="fill:#ffffff" />
      <path
          class="fil3"
          d="m 13232,27895 c -17,-28 -19,8 -21,-41 20,-3 82,40 21,41 z m 0,44 95,1 c 18,-2 25,-3 31,7 -2,-50 8,-23 27,-53 22,-32 -13,-54 -13,-55 l 0,43 c -13,7 -9,7 -20,17 -27,-34 -1,-40 7,-44 19,0 13,4 13,-16 -2,0 -5,-3 -7,0 -1,2 -5,-1 -7,-1 -2,0 -11,-2 -13,-2 -11,-2 -14,-1 -22,-5 -17,-10 -14,-19 -16,-43 18,-2 14,-5 24,-13 -16,-27 2,-1 -19,-19 -18,-15 9,-2 -20,-14 -24,9 -3,-1 -20,13 -11,10 -9,2 -18,20 16,14 -12,5 24,13 -5,62 -40,33 -80,65 -5,41 7,40 33,62 l 1,24 z"
          id="path2090"
          inkscape:connector-curvature="0"
          style="fill:#ffcc00" />
      <path
          class="fil3"
          d="m 13330,28048 133,0 c 4,-80 -2,-74 -78,-80 -12,47 -50,42 -55,80 z"
          id="path2092"
          inkscape:connector-curvature="0"
          style="fill:#ffcc00" />
   </g>
</svg>
