<?xml version="1.0" encoding="UTF-8" standalone="no"?>
<svg
    xmlns:dc="http://purl.org/dc/elements/1.1/"
    xmlns:cc="http://creativecommons.org/ns#"
    xmlns:rdf="http://www.w3.org/1999/02/22-rdf-syntax-ns#"
    xmlns:svg="http://www.w3.org/2000/svg"
    xmlns="http://www.w3.org/2000/svg"
    xmlns:sodipodi="http://sodipodi.sourceforge.net/DTD/sodipodi-0.dtd"
    xmlns:inkscape="http://www.inkscape.org/namespaces/inkscape"
    id="city_nnov"
    data-name="nnov"
    width="52.5mm"
    height="52.5mm"
    viewBox="0 0 148.82 148.82"
    version="1.1"
    inkscape:version="0.91 r13725"
    sodipodi:docname="_petrozavodsk.svg">
   <metadata
       id="metadata22">
      <rdf:RDF>
         <cc:Work
             rdf:about="">
            <dc:format>image/svg+xml</dc:format>
            <dc:type
                rdf:resource="http://purl.org/dc/dcmitype/StillImage" />
            <dc:title></dc:title>
         </cc:Work>
      </rdf:RDF>
   </metadata>
   <defs
       id="defs20" />
   <sodipodi:namedview
       pagecolor="#ffffff"
       bordercolor="#666666"
       borderopacity="1"
       objecttolerance="10"
       gridtolerance="10"
       guidetolerance="10"
       inkscape:pageopacity="0"
       inkscape:pageshadow="2"
       inkscape:window-width="640"
       inkscape:window-height="480"
       id="namedview18"
       showgrid="false"
       inkscape:zoom="1.268656085"
       inkscape:cx="93.01181102"
       inkscape:cy="93.01181102"
       inkscape:current-layer="city_nnov" />
   <g
       transform="matrix(0.0283466687,0,0,0.0283466716,-744.109807,-744.1001391)"
       style="clip-rule:evenodd;fill-rule:evenodd;image-rendering:optimizeQuality;shape-rendering:geometricPrecision;text-rendering:geometricPrecision"
       id="pertozavodsk">
      <path
          class="fil4"
          d="m 27864,28115 c 14,-79 8,-159 -14,-236 -16,-57 -41,-113 -72,-165 81,-77 119,-164 126,-253 4,-62 -6,-125 -29,-185 -3,-8 -6,-15 -9,-23 70,5 131,34 179,80 46,43 79,102 98,169 18,67 21,143 5,221 -29,136 -117,279 -284,392 z m -462,-1240 19,0 c 124,41 248,131 336,243 41,52 74,108 96,166 21,57 31,117 27,175 -6,82 -41,162 -115,234 -26,-41 -56,-81 -89,-118 -80,-89 -176,-163 -274,-213 l 0,-487 z m 312,1480 c -70,-147 -179,-281 -312,-368 l 0,-598 c 91,48 181,118 256,202 77,87 139,188 169,294 30,106 29,217 -16,323 -22,50 -54,100 -97,147 z m -312,794 0,-1133 c 149,102 265,265 326,437 39,107 55,218 45,319 -10,101 -47,191 -115,259 -60,59 -144,102 -256,118 z m 392,-524 c -7,-60 -22,-121 -43,-180 -8,-22 -17,-44 -26,-66 48,-52 84,-106 108,-162 9,-22 17,-46 23,-69 105,-66 181,-144 234,-225 71,237 -52,491 -296,702 z m -54,336 c 32,-55 50,-119 57,-186 4,-39 4,-80 0,-121 71,-59 136,-126 190,-201 l 7,5 5,2 6,3 5,3 5,3 5,3 5,2 5,3 5,2 5,3 5,2 5,3 5,2 5,3 5,2 5,2 5,3 5,2 5,2 5,2 5,2 5,2 5,2 5,2 5,2 5,2 4,2 5,2 5,2 5,2 5,2 5,2 6,2 7,2 6,2 6,2 6,2 7,2 6,2 6,2 7,2 6,2 2,1 c -10,47 -25,98 -48,146 -36,78 -91,151 -167,200 -68,45 -153,70 -259,65 z m 370,-1072 c 30,-54 50,-108 61,-162 4,-18 7,-36 9,-54 80,71 106,177 106,280 0,11 0,22 -1,32 l -7,-4 -7,-5 -8,-4 -8,-5 -8,-5 -8,-4 -8,-5 -8,-5 -8,-4 -8,-5 -8,-4 -8,-5 -9,-4 -8,-5 -8,-4 -8,-4 -9,-5 -8,-4 -8,-4 -23,-11 z m -708,1532 0,-248 c 119,-17 209,-62 273,-125 19,-20 36,-41 51,-64 118,9 212,-19 286,-68 5,-3 10,-7 15,-10 -35,143 -103,267 -197,357 -111,107 -257,168 -424,158 -1,0 -3,0 -4,0 z m 1532,-2046 0,0 -1,0 0,0 0,1 0,0 c -208,179 -339,408 -383,633 -11,55 -16,109 -16,163 l 7,6 8,7 8,7 8,8 8,7 7,7 8,8 8,7 8,7 7,7 8,8 7,7 8,8 0,0 6,-5 8,-6 7,-5 7,-6 8,-6 8,-5 5,-5 c -27,-245 89,-533 327,-746 l 1,0 c 172,-154 377,-241 569,-256 192,-15 371,42 490,175 l 0,1 c 0,0 0,0 0,0 l 0,0 c 34,37 60,79 81,123 21,44 35,92 43,141 43,252 -73,557 -322,780 l 0,0 c -173,154 -378,241 -569,256 -143,11 -278,-18 -387,-87 l -5,3 -8,5 -8,5 -8,5 -8,5 -8,5 -8,4 -8,5 -8,4 -8,5 -8,4 -8,5 -8,4 -8,5 -8,4 -8,4 -8,5 -8,4 0,0 c 206,161 508,186 798,80 66,-24 131,-55 193,-92 63,-37 125,-81 183,-131 l 0,0 0,0 0,0 0,0 0,0 c 208,-180 339,-409 383,-634 44,-223 2,-443 -138,-605 l 0,0 0,0 0,0 c -201,-233 -551,-284 -885,-162 -65,24 -130,55 -193,92 -63,37 -124,81 -182,131 z m 93,125 -1,0 c -227,204 -341,477 -321,712 l 3,-2 8,-6 8,-5 7,-6 8,-6 8,-5 8,-6 8,-6 8,-6 8,-5 8,-6 8,-6 8,-5 8,-6 8,-5 9,-6 8,-5 8,-6 8,-5 8,-6 9,-5 8,-6 8,-5 8,-5 9,-6 8,-5 8,-5 9,-5 6,-4 -96,-115 107,-90 113,135 5,-2 9,-4 8,-5 9,-4 8,-4 9,-3 8,-4 9,-4 8,-4 9,-3 8,-4 12,-4 12,-6 13,-5 12,-5 12,-6 12,-6 12,-6 12,-6 12,-6 12,-7 12,-6 12,-7 12,-7 12,-8 11,-7 11,-8 12,-7 11,-8 11,-8 10,-9 11,-8 10,-9 10,-8 10,-9 10,-9 9,-10 9,-9 9,-10 8,-9 9,-10 8,-10 7,-10 3,-4 3,-4 2,-4 3,-5 3,-4 2,-4 3,-4 2,-4 3,-4 2,-5 2,-4 3,-4 2,-5 2,-4 2,-4 2,-5 2,-4 2,-4 1,-4 2,-4 2,-4 1,-5 1,-2 -122,-145 -7,-9 9,-8 89,-74 9,-8 8,9 108,130 4,-3 3,-3 4,-3 3,-3 3,-4 4,-3 3,-3 3,-3 4,-4 3,-3 3,-4 3,-4 3,-2 3,-3 3,-3 3,-2 3,-2 4,-2 3,-2 4,-1 1,0 1,-1 1,0 0,0 1,0 1,0 0,-1 2,0 1,0 0,0 1,0 1,0 1,0 0,0 1,0 0,0 1,-1 0,0 4,0 4,0 3,0 4,-1 3,0 4,-1 3,0 3,-1 3,0 3,-1 3,0 3,-1 3,-1 3,0 3,-1 2,-1 5,-1 4,-1 4,-2 4,-1 4,-2 4,-1 3,-2 19,-9 14,13 3,3 2,3 3,4 2,5 1,4 1,6 1,5 -2,8 -2,7 -3,6 -4,6 -2,3 2,1 3,1 3,1 3,2 2,2 3,2 2,2 2,3 2,3 1,2 2,3 1,2 1,3 1,3 1,4 0,5 1,4 0,5 0,4 0,1 12,2 12,7 9,9 6,12 3,13 0,12 0,2 9,3 11,5 10,10 6,14 1,15 -2,14 -1,4 2,0 5,2 4,2 5,2 4,3 4,3 1,2 1,1 2,1 1,2 1,2 1,2 1,2 1,3 1,2 0,3 1,2 0,2 0,2 0,2 -1,2 0,2 -1,5 -2,5 -2,4 -3,4 -3,4 -3,4 -3,4 -4,4 -4,5 -5,5 -6,5 -5,5 -7,5 -6,5 -6,6 -7,5 -4,2 -4,3 -3,3 -4,3 -3,2 136,162 8,9 -10,7 -88,75 -10,8 -7,-9 -131,-156 -3,3 -9,6 -9,5 -11,6 -12,4 -12,4 -14,4 -15,2 -16,3 -14,2 -7,5 -9,8 -9,7 -9,8 -10,8 -9,8 -10,8 -9,8 -10,8 -9,9 -10,8 -10,9 -9,8 -10,9 -9,8 -10,9 -10,9 -10,9 -9,9 -10,9 -9,9 -10,9 -10,9 -9,9 -10,9 -9,10 -10,9 -9,9 -10,10 -9,9 -9,9 -10,10 -4,4 -7,7 -3,3 -4,4 -3,4 -4,4 -3,3 -4,4 -3,4 -4,3 -3,4 -4,4 -3,3 -4,4 -3,3 -3,4 -4,4 -2,2 152,181 -107,90 -140,-166 0,0 -8,8 -8,9 -9,8 -8,9 -8,8 -9,8 -8,8 -8,7 -8,8 -8,7 -9,8 -8,7 -8,7 -8,7 -8,7 -9,7 -8,7 -8,6 -8,7 -8,6 -8,7 -9,6 -8,6 -8,6 -8,6 -8,6 -8,6 -8,5 -8,6 -8,5 -8,5 -8,6 -4,2 c 103,63 230,88 363,78 186,-15 386,-99 555,-250 l 0,0 c 243,-217 356,-513 315,-758 -8,-47 -22,-93 -41,-135 -20,-42 -46,-82 -78,-117 1,1 4,5 0,-1 -114,-127 -286,-181 -471,-167 -186,15 -386,99 -554,250 z m 490,-102 -71,59 104,124 0,-1 1,-4 1,-4 3,-16 14,-7 4,-2 3,-2 4,-2 4,-3 3,-2 4,-2 3,-2 4,-2 3,-3 4,-2 3,-3 4,-2 3,-2 3,-2 -101,-120 z m 128,296 276,329 71,-59 -134,-160 c -11,2 -20,3 -28,3 -12,-1 -21,-5 -27,-11 -7,-6 -10,-15 -11,-24 -1,-2 -1,-3 -1,-5 -9,3 -18,5 -25,4 -11,0 -20,-4 -27,-11 -6,-6 -10,-15 -11,-24 -1,-8 -1,-17 1,-25 -7,1 -13,1 -18,0 -10,-1 -18,-6 -23,-12 l 0,0 c -5,-7 -7,-15 -8,-24 0,-10 3,-23 9,-35 -6,0 -11,0 -16,-1 -3,-1 -6,-2 -9,-3 -6,18 -13,38 -19,58 z m -704,192 -70,59 475,566 70,-59 -475,-566 z"
          id="path1584"
          inkscape:connector-curvature="0"
          style="fill:#999999" />
      <path
          class="fil15"
          d="m 29490,28984 c -77,39 -108,132 -72,209 l -45,23 -11,-23 -6,-11 -10,6 -140,71 -11,6 5,10 12,23 -108,55 -11,-23 -5,-11 -11,6 -140,71 -11,6 6,10 11,23 -68,34 -68,-34 12,-23 5,-10 -10,-6 -141,-71 -10,-5 -6,10 -11,23 -108,-55 12,-22 5,-11 -10,-6 -141,-71 -10,-5 -6,10 -11,23 -45,-23 c 36,-77 5,-170 -72,-209 -77,-39 -173,-8 -213,70 -39,78 -8,173 70,213 72,37 159,13 203,-53 l 46,23 -11,23 -6,11 11,5 140,71 11,6 5,-11 12,-23 107,55 -11,23 -6,10 11,6 138,70 -132,67 -10,5 5,11 12,23 -108,54 -11,-22 -6,-11 -10,5 -141,72 -10,5 5,11 12,23 -45,22 c -41,-74 -135,-103 -211,-65 -78,40 -109,136 -69,214 39,77 135,108 213,69 72,-37 104,-122 77,-196 l 46,-23 11,22 6,11 10,-5 140,-72 11,-5 -6,-11 -11,-22 107,-55 12,22 5,11 11,-5 140,-72 11,-5 -6,-11 -11,-22 61,-32 62,32 -12,22 -5,11 10,5 141,71 10,6 6,-11 11,-22 108,54 -12,23 -5,11 10,5 141,71 10,6 6,-11 11,-23 46,24 c -27,74 5,159 77,195 78,40 174,9 213,-69 40,-78 9,-174 -69,-213 -77,-39 -170,-10 -211,65 l -45,-23 11,-22 6,-11 -11,-5 -140,-72 -11,-5 -5,10 -11,23 -108,-55 11,-22 6,-11 -11,-5 -131,-67 138,-70 10,-6 -5,-10 -12,-23 108,-55 11,23 6,10 10,-5 141,-71 10,-6 -5,-10 -12,-23 46,-23 c 44,65 132,89 204,52 77,-39 108,-135 69,-213 -40,-78 -136,-109 -213,-69 z m -144,752 -21,-11 11,-21 21,10 6,-12 -119,-60 -6,12 11,5 -11,22 -11,-6 -6,12 119,61 6,-12 z m -269,-137 -13,-7 11,-21 13,7 6,-12 -119,-61 -6,12 10,5 -11,22 -10,-6 -6,12 119,61 6,-12 z m -114,-124 -9,-19 -52,27 46,23 11,-22 4,-9 z m -166,-19 -10,19 4,9 12,22 46,-23 -52,-27 z m -21,-37 10,5 6,-12 -119,-60 -6,12 13,6 -11,21 -13,-6 -6,12 119,60 6,-12 -10,-5 11,-21 z m -378,-192 21,10 -11,22 -21,-11 -6,12 119,61 6,-12 -10,-6 10,-21 11,5 6,-12 -119,-60 -6,12 z m 965,21 -21,10 -10,-21 20,-10 -6,-12 -119,60 6,12 11,-5 11,21 -11,5 6,12 119,-60 -6,-12 z m -269,137 -13,6 -10,-21 12,-6 -6,-12 -119,60 6,12 11,-5 10,21 -10,5 6,12 119,-60 -6,-12 z m -322,137 10,-5 -6,-12 -119,61 6,12 12,-7 11,22 -12,6 6,12 119,-61 -6,-12 -11,6 -10,-22 z m -378,193 21,-11 10,22 -20,10 6,12 119,-61 -6,-12 -11,6 -11,-21 11,-6 -6,-12 -119,61 6,12 z"
          id="path1586"
          inkscape:connector-curvature="0"
          style="fill:#000000" />
      <path
          class="fil9"
          d="m 28001,28434 c 54,31 105,54 156,72 66,24 132,40 203,55 79,17 150,36 212,59 60,22 111,47 152,76 85,-44 169,-91 252,-151 70,-50 140,-109 212,-185 l -239,-285 c -20,12 -40,25 -59,37 -88,57 -173,120 -250,179 l -8,6 -8,-7 c -78,-78 -164,-155 -261,-224 l 0,0 c -77,-55 -161,-105 -249,-149 64,224 -41,420 -113,517 z m 1282,-178 c 2,-3 4,-5 7,-8 18,-19 37,-39 56,-59 91,-92 190,-182 281,-258 -10,0 -17,0 -17,0 l 2,-24 c 0,0 23,1 47,0 l 0,0 c 55,-5 85,-16 106,-33 l -128,-152 c -9,31 -14,54 -14,54 l -23,-5 c 0,-1 31,-129 59,-183 l 0,0 c 2,-3 3,-5 4,-8 6,-12 11,-24 24,-28 17,-6 34,-15 52,-25 16,-9 32,-19 48,-30 l 4,-4 c 17,-16 24,-27 25,-35 0,-5 -3,-9 -8,-13 -10,5 -22,9 -35,13 -14,4 -30,7 -48,9 -4,0 -8,0 -12,1 -1,0 -2,0 -3,1 -6,2 -12,5 -16,10 -18,21 -37,39 -58,54 -19,15 -39,28 -59,39 -6,25 -14,50 -24,73 -11,25 -25,49 -42,72 -82,115 -224,199 -355,252 -27,11 -55,23 -83,37 l 210,250 z m 405,-673 c -1,3 -2,5 -4,7 -1,4 -3,7 -4,9 l 0,1 c -2,4 -4,8 -7,13 1,1 3,2 5,3 5,1 10,1 17,0 9,-1 19,-4 31,-8 1,-11 -2,-18 -5,-22 -1,0 -1,-1 -2,-1 0,0 -9,-7 -9,-7 l 0,0 c -5,-1 -17,3 -22,5 z m 145,-35 c 1,-9 0,-17 -1,-23 -2,-4 -3,-8 -6,-10 -2,-2 -5,-3 -9,-4 -3,0 -6,0 -10,1 -19,13 -38,25 -56,36 -8,5 -16,9 -24,13 1,0 1,1 2,1 6,7 17,22 20,37 24,-12 53,-28 84,-51 z m -117,92 c -8,12 -12,25 -12,35 0,4 1,7 3,9 l 0,0 c 1,2 4,3 7,4 9,1 24,-3 46,-16 0,0 0,0 0,0 3,-8 4,-14 4,-19 0,-5 -6,-12 -8,-15 -1,-3 -9,-3 -22,-1 -3,0 -6,1 -10,1 -2,1 -5,1 -8,2 z m 159,-39 c 2,-24 -7,-36 -25,-36 -30,22 -58,39 -83,51 4,3 7,6 10,9 3,6 10,16 11,26 0,1 0,2 0,4 52,-32 80,-50 87,-54 z m -121,107 c -3,8 -4,17 -3,24 1,5 3,9 5,12 2,2 6,3 11,4 8,0 20,-4 35,-12 2,-6 3,-12 3,-16 -1,-5 -6,-12 -8,-16 -2,-2 -9,-2 -22,0 -3,0 -7,1 -10,1 -4,1 -7,2 -11,3 z m 154,-43 c 11,-34 -3,-41 -21,-44 -9,6 -40,26 -94,58 12,2 20,6 24,13 4,6 11,16 11,26 1,0 1,1 1,2 53,-32 68,-46 79,-55 z m -76,81 c -4,2 -8,5 -11,7 -1,1 -3,1 -4,2 -1,5 -2,10 -2,15 1,3 2,6 4,8 3,3 7,4 13,5 9,0 21,-2 36,-7 2,-6 3,-11 2,-15 0,-5 -5,-12 -8,-15 -1,-3 -9,-3 -21,-1 -3,0 -6,1 -9,1 z m 62,11 c 14,-11 26,-21 35,-31 8,-9 13,-17 15,-23 0,-2 0,-4 0,-5 -1,-1 -2,-3 -3,-4 -4,-4 -11,-7 -20,-9 -9,8 -22,18 -52,38 6,2 11,6 14,11 3,5 10,14 11,23 z"
          id="path1588"
          inkscape:connector-curvature="0"
          style="fill:#ffcc00;fill-rule:nonzero" />
      <polygon
          class="fil4"
          points="28604,30095 28812,30276 28812,29871 28927,29871 28927,30286 29147,30095 28984,29908 29021,29877 29146,29874 29495,30276 29386,30371 29226,30186 28967,30411 29155,30575 29076,30666 28927,30536 28927,30739 29176,30739 29176,30875 28630,30875 28516,30739 28812,30739 28812,30546 28674,30666 28595,30575 28783,30411 28525,30186 28364,30371 28255,30276 28604,29874 28722,29874 28766,29908 "
          id="polygon1590"
          style="fill:#999999" />
   </g>
</svg>
