<?xml version="1.0" encoding="UTF-8" standalone="no"?>
<svg
    xmlns:dc="http://purl.org/dc/elements/1.1/"
    xmlns:cc="http://creativecommons.org/ns#"
    xmlns:rdf="http://www.w3.org/1999/02/22-rdf-syntax-ns#"
    xmlns:svg="http://www.w3.org/2000/svg"
    xmlns="http://www.w3.org/2000/svg"
    xmlns:sodipodi="http://sodipodi.sourceforge.net/DTD/sodipodi-0.dtd"
    xmlns:inkscape="http://www.inkscape.org/namespaces/inkscape"
    id="city_nnov"
    data-name="nnov"
    width="52.5mm"
    height="52.5mm"
    viewBox="0 0 148.82 148.82"
    version="1.1"
    inkscape:version="0.91 r13725"
    sodipodi:docname="_rossosh.svg">
   <metadata
       id="metadata22">
      <rdf:RDF>
         <cc:Work
             rdf:about="">
            <dc:format>image/svg+xml</dc:format>
            <dc:type
                rdf:resource="http://purl.org/dc/dcmitype/StillImage" />
            <dc:title></dc:title>
         </cc:Work>
      </rdf:RDF>
   </metadata>
   <defs
       id="defs20" />
   <sodipodi:namedview
       pagecolor="#ffffff"
       bordercolor="#666666"
       borderopacity="1"
       objecttolerance="10"
       gridtolerance="10"
       guidetolerance="10"
       inkscape:pageopacity="0"
       inkscape:pageshadow="2"
       inkscape:window-width="640"
       inkscape:window-height="480"
       id="namedview18"
       showgrid="false"
       inkscape:zoom="1.268656085"
       inkscape:cx="93.01181102"
       inkscape:cy="93.01181102"
       inkscape:current-layer="city_nnov" />
   <g
       transform="matrix(0.0283466687,0,0,0.0283466716,-1042.288115,-743.9836055)"
       style="clip-rule:evenodd;fill-rule:evenodd;image-rendering:optimizeQuality;shape-rendering:geometricPrecision;text-rendering:geometricPrecision"
       id="rossosh">
      <path
          class="fil2"
          d="m 39375,29393 c 666,1 573,1046 1758,990 1,284 -180,491 -482,492 l -650,0 c -297,-1 -955,-1 -1251,0 l -650,0 c -302,-1 -483,-208 -482,-492 1097,80 1092,-991 1757,-990 z"
          id="path1576"
          inkscape:connector-curvature="0"
          style="fill:#000000" />
      <path
          class="fil4"
          d="m 37616,30280 c 1124,-8 981,-1007 1759,-1024 779,17 635,1016 1760,1024 l -1,-377 c -843,3 -856,-905 -1611,-1013 19,-333 182,-588 182,-908 0,-380 -199,-693 -175,-1107 l -372,0 c 17,692 191,720 191,1103 0,340 -154,495 -185,924 -694,148 -729,1004 -1547,1001 l -1,377 z"
          id="path1578"
          inkscape:connector-curvature="0"
          style="fill:#999999" />
      <path
          class="fil3"
          d="m 39351,30105 c 0,-6 0,-13 -1,-20 -37,3 -65,12 -65,24 0,13 41,23 91,23 50,0 92,-10 92,-23 0,-13 -33,-22 -75,-24 0,6 1,12 2,18 l -44,2 z m -2,-69 c -1,-46 0,-88 4,-126 -172,-24 -311,218 -459,1 156,-5 260,-164 461,-22 12,-102 40,-168 85,-198 l 64,55 c -49,48 -84,107 -101,179 194,-172 314,-18 471,-26 -134,237 -299,-17 -475,45 -6,29 -8,60 -8,93 20,-2 40,-8 60,-16 169,-59 410,78 344,364 -77,331 -233,388 -426,318 -265,107 -364,-115 -406,-327 -51,-267 148,-420 328,-355 19,7 38,13 58,15 z m -333,-103 c 99,-19 122,-90 298,-49 -166,-16 -191,62 -298,49 z m 738,-2 c -100,-9 -129,-78 -299,-22 163,-30 193,45 299,22 z"
          id="path1580"
          inkscape:connector-curvature="0"
          style="fill:#ffcc00" />
   </g>
</svg>
