<?xml version="1.0" encoding="UTF-8" standalone="no"?>
<svg
    xmlns:dc="http://purl.org/dc/elements/1.1/"
    xmlns:cc="http://creativecommons.org/ns#"
    xmlns:rdf="http://www.w3.org/1999/02/22-rdf-syntax-ns#"
    xmlns:svg="http://www.w3.org/2000/svg"
    xmlns="http://www.w3.org/2000/svg"
    xmlns:sodipodi="http://sodipodi.sourceforge.net/DTD/sodipodi-0.dtd"
    xmlns:inkscape="http://www.inkscape.org/namespaces/inkscape"
    id="city_nnov"
    data-name="nnov"
    width="52.5mm"
    height="52.5mm"
    viewBox="0 0 148.82 148.82"
    version="1.1"
    inkscape:version="0.91 r13725"
    sodipodi:docname="_saransk.svg">
   <metadata
       id="metadata22">
      <rdf:RDF>
         <cc:Work
             rdf:about="">
            <dc:format>image/svg+xml</dc:format>
            <dc:type
                rdf:resource="http://purl.org/dc/dcmitype/StillImage" />
            <dc:title></dc:title>
         </cc:Work>
      </rdf:RDF>
   </metadata>
   <defs
       id="defs20" />
   <sodipodi:namedview
       pagecolor="#ffffff"
       bordercolor="#666666"
       borderopacity="1"
       objecttolerance="10"
       gridtolerance="10"
       guidetolerance="10"
       inkscape:pageopacity="0"
       inkscape:pageshadow="2"
       inkscape:window-width="640"
       inkscape:window-height="480"
       id="namedview18"
       showgrid="false"
       inkscape:zoom="1.268656085"
       inkscape:cx="93.01181102"
       inkscape:cy="93.01181102"
       inkscape:current-layer="city_nnov" />
   <g
       transform="matrix(0.0283466687,0,0,0.0283466716,-148.898466,-893.3516668)"
       style="clip-rule:evenodd;fill-rule:evenodd;image-rendering:optimizeQuality;shape-rendering:geometricPrecision;text-rendering:geometricPrecision"
       id="saransk">
      <g
          id="g1657">
         <path
             id="path2482"
             class="fil4"
             d="m 6979,32275 c 50,32 97,68 147,100 9,7 21,9 30,1 46,-32 87,-71 136,-99 0,43 0,86 0,128 -50,32 -98,68 -150,96 -31,-11 -57,-32 -86,-48 -25,-16 -53,-28 -76,-48 -3,-43 0,-87 -1,-130 z m 0,260 c 0,-38 -1,-77 1,-115 49,36 100,72 152,106 11,10 23,-2 32,-9 37,-29 76,-57 113,-87 4,0 12,0 15,-1 0,35 0,69 -1,104 -49,34 -100,66 -150,100 -53,-34 -108,-65 -162,-98 z m 0,32 c 57,30 109,69 168,94 47,-32 93,-66 144,-92 1,35 1,70 1,105 -34,30 -76,51 -113,78 -16,9 -34,29 -53,15 -48,-28 -94,-61 -145,-84 -3,-39 -2,-78 -2,-116 z m 0,142 c 54,33 109,64 162,97 51,-31 99,-67 151,-96 0,37 0,73 0,110 -42,29 -85,56 -127,85 -10,6 -22,17 -33,8 -51,-31 -102,-60 -153,-91 0,-37 0,-75 0,-113 z m 0,261 c 0,-44 -1,-89 1,-133 52,41 108,76 161,117 51,-37 97,-80 150,-114 1,42 1,84 1,126 -48,37 -100,68 -151,100 -54,-31 -108,-64 -162,-96 z m 2,139 c -5,-38 -1,-77 -1,-116 54,30 106,65 161,94 53,-26 98,-66 150,-94 1,38 1,75 1,113 -43,36 -89,67 -132,102 0,299 -1,598 0,896 33,-24 64,-52 97,-77 -35,168 -76,334 -116,501 -30,-127 -65,-253 -97,-381 -10,-40 -23,-80 -29,-121 31,27 63,51 93,80 0,-78 5,-156 1,-234 1,-211 -2,-422 4,-633 0,-14 -1,-31 -14,-41 -38,-31 -82,-55 -118,-89 z"
             inkscape:connector-curvature="0"
             style="fill:#999999" />
         <path
             id="path2484"
             class="fil2"
             d="m 7710,32277 c 48,29 94,63 141,95 9,5 20,14 30,7 48,-32 91,-72 140,-102 1,43 1,86 0,129 -48,33 -97,65 -146,96 -58,-28 -111,-63 -166,-95 0,-44 -1,-87 1,-130 z m 0,144 c 55,36 108,78 165,111 49,-36 97,-75 146,-111 1,38 1,75 1,112 -50,34 -100,67 -151,100 -53,-34 -108,-66 -162,-98 0,-38 0,-76 1,-114 z m 0,145 c 51,31 104,60 154,95 59,-17 100,-69 157,-90 1,35 1,70 2,104 -38,30 -80,53 -119,81 -13,7 -28,23 -43,13 -51,-29 -101,-61 -152,-90 0,-38 0,-75 1,-113 z m 0,143 c 55,32 109,67 166,97 47,-33 95,-66 145,-96 1,38 1,75 0,112 -42,29 -85,55 -127,84 -9,6 -21,16 -32,7 -51,-29 -101,-61 -153,-90 -1,-38 0,-76 1,-114 z m 0,262 c -2,-45 -1,-90 0,-136 40,35 86,62 128,94 13,9 30,26 47,14 47,-34 90,-72 136,-106 1,44 1,87 1,130 -48,36 -100,66 -150,100 -54,-32 -107,-65 -162,-96 z m 0,23 c 56,27 107,67 164,93 51,-29 97,-65 147,-94 0,37 3,75 0,113 -40,38 -89,66 -132,100 -1,299 -1,599 0,899 32,-26 63,-54 97,-78 -34,161 -75,321 -108,482 -2,0 -7,0 -9,1 -21,-91 -42,-181 -62,-271 -15,-71 -35,-141 -46,-212 25,26 51,52 76,78 2,-288 0,-577 1,-866 -2,-13 4,-32 -10,-41 -39,-29 -80,-58 -119,-88 0,-39 0,-78 1,-116 z"
             inkscape:connector-curvature="0"
             style="fill:#000000" />
         <path
             id="path2486"
             class="fil4"
             d="m 8456,32286 c 53,34 106,70 158,108 2,0 8,0 11,1 48,-36 95,-73 143,-109 0,37 1,75 1,112 -1,9 1,21 -9,25 -45,32 -93,60 -138,92 -56,-33 -112,-65 -167,-100 1,-43 0,-86 1,-129 z m 0,147 c 57,34 110,75 166,112 48,-39 97,-75 146,-113 0,38 1,76 -1,115 -46,29 -91,61 -137,90 -11,9 -23,-2 -32,-7 -47,-30 -97,-56 -143,-88 1,-37 0,-73 1,-109 z m 0,141 c 57,30 111,64 166,96 48,-33 97,-65 146,-97 1,39 1,77 -1,116 -50,29 -97,63 -146,94 -56,-32 -111,-65 -166,-99 1,-37 0,-73 1,-110 z m 195,217 c 38,-27 78,-52 117,-79 0,36 3,73 -1,109 -1,9 -11,12 -17,18 -43,28 -87,54 -128,84 -56,-33 -112,-65 -166,-99 -1,-36 -1,-73 0,-109 55,24 102,61 155,88 14,8 28,-5 40,-12 z m -195,55 c 58,33 108,81 167,111 51,-33 95,-75 145,-111 1,43 1,87 0,131 -39,26 -79,52 -118,78 -13,8 -28,22 -43,10 -51,-29 -103,-59 -152,-92 1,-42 1,-84 1,-127 z m 0,161 c 59,22 107,65 165,89 52,-25 96,-63 147,-91 1,39 1,78 0,116 -43,31 -85,64 -129,94 -2,18 -4,36 -4,54 0,221 0,442 0,663 2,61 -4,123 4,184 30,-28 62,-53 94,-79 -34,167 -75,333 -111,499 -34,-137 -63,-274 -95,-411 -7,-29 -13,-58 -16,-87 23,28 48,53 76,75 1,-299 1,-597 0,-896 -45,-33 -89,-65 -132,-100 1,-37 0,-74 1,-110 z"
             inkscape:connector-curvature="0"
             style="fill:#999999" />
      </g>
      <path
          id="path2518"
          class="fil3"
          d="m 9239,34490 c 107,-13 216,6 316,47 69,31 140,56 205,95 40,22 77,49 114,75 -58,7 -116,7 -173,20 -109,20 -213,69 -294,145 -185,177 -447,279 -703,248 -72,-8 -140,-28 -211,-39 -92,-14 -184,-25 -277,-23 52,38 83,98 96,160 9,53 -32,97 -30,149 1,37 22,72 53,92 35,22 76,33 116,42 18,55 33,112 38,171 3,45 21,89 23,135 -14,53 -40,106 -85,139 -25,19 -57,24 -87,29 -8,-29 -11,-61 4,-88 16,-35 46,-60 73,-87 -16,-31 -32,-62 -46,-94 -19,-43 -56,-73 -92,-102 -45,-18 -95,-21 -143,-29 -28,-4 -46,-31 -73,-37 -18,14 -31,36 -28,59 0,27 5,60 -20,79 -60,48 -124,91 -185,137 -49,41 -94,92 -157,110 -44,7 -89,6 -132,-3 -3,-4 -9,-13 -12,-18 3,-13 5,-26 8,-39 54,-12 108,-24 162,-33 39,-68 79,-135 124,-200 -16,-37 -32,-74 -46,-113 -58,-2 -113,19 -168,35 -66,15 -134,30 -202,26 -43,0 -84,-15 -126,-14 -37,0 -73,7 -108,15 21,22 41,44 59,67 -11,37 -13,76 -14,115 1,41 -19,79 -41,112 -21,32 -53,52 -81,76 -14,12 -33,16 -50,20 -26,-57 15,-114 42,-162 25,-33 27,-83 2,-116 -23,-28 -60,-37 -93,-47 -18,32 -41,63 -75,76 -41,17 -83,34 -114,66 -39,34 -65,81 -108,110 -63,44 -141,64 -217,63 3,-43 35,-73 68,-94 48,-35 111,-49 150,-95 49,-55 56,-133 53,-203 1,-20 -20,-26 -33,-36 -68,-43 -118,-107 -164,-171 -37,-52 -82,-97 -120,-148 -35,-50 -93,-78 -134,-123 -63,-12 -128,-10 -191,-8 -43,1 -87,15 -129,-1 -31,-10 -67,-19 -85,-50 -14,-23 -33,-48 -20,-76 42,-15 87,2 129,-11 62,-18 111,-62 154,-108 19,-24 52,-25 80,-32 31,-76 73,-146 110,-219 20,39 16,83 27,125 2,-1 6,-2 9,-3 7,-12 14,-24 21,-36 3,0 8,-1 11,-2 15,31 26,64 42,95 7,12 21,16 33,22 56,22 110,50 156,88 53,43 118,68 184,85 27,7 55,-4 82,-8 33,-5 64,-16 97,-18 64,-4 129,6 187,32 56,26 117,41 176,55 23,6 45,10 68,8 82,-6 163,-25 239,-54 57,-22 117,-35 178,-41 85,-2 173,-2 254,29 60,-34 122,-66 189,-84 57,-16 118,-8 175,-25 76,-21 157,-35 222,-84 69,-46 118,-116 187,-162 102,-72 226,-109 351,-116 z m -3055,382 c 9,0 18,0 28,-1 -1,7 -1,15 -2,22 -8,0 -17,0 -25,-1 -1,-6 -1,-13 -1,-20 z"
          inkscape:connector-curvature="0"
          style="fill:#ffcc00" />
   </g>
</svg>
