<?xml version="1.0" encoding="UTF-8" standalone="no"?>
<svg
    xmlns:dc="http://purl.org/dc/elements/1.1/"
    xmlns:cc="http://creativecommons.org/ns#"
    xmlns:rdf="http://www.w3.org/1999/02/22-rdf-syntax-ns#"
    xmlns:svg="http://www.w3.org/2000/svg"
    xmlns="http://www.w3.org/2000/svg"
    xmlns:sodipodi="http://sodipodi.sourceforge.net/DTD/sodipodi-0.dtd"
    xmlns:inkscape="http://www.inkscape.org/namespaces/inkscape"
    id="city_nnov"
    data-name="nnov"
    width="52.5mm"
    height="52.5mm"
    viewBox="0 0 148.82 148.82"
    version="1.1"
    inkscape:version="0.91 r13725"
    sodipodi:docname="_sergiev-posad.svg">
   <metadata
       id="metadata22">
      <rdf:RDF>
         <cc:Work
             rdf:about="">
            <dc:format>image/svg+xml</dc:format>
            <dc:type
                rdf:resource="http://purl.org/dc/dcmitype/StillImage" />
            <dc:title></dc:title>
         </cc:Work>
      </rdf:RDF>
   </metadata>
   <defs
       id="defs20" />
   <sodipodi:namedview
       pagecolor="#ffffff"
       bordercolor="#666666"
       borderopacity="1"
       objecttolerance="10"
       gridtolerance="10"
       guidetolerance="10"
       inkscape:pageopacity="0"
       inkscape:pageshadow="2"
       inkscape:window-width="640"
       inkscape:window-height="480"
       id="namedview18"
       showgrid="false"
       inkscape:zoom="1.268656085"
       inkscape:cx="93.01181102"
       inkscape:cy="93.01181102"
       inkscape:current-layer="city_nnov" />
   <g
       transform="matrix(0.0283466687,0,0,0.0283466716,-595.6013097,-892.8036314)"
       style="clip-rule:evenodd;fill-rule:evenodd;image-rendering:optimizeQuality;shape-rendering:geometricPrecision;text-rendering:geometricPrecision"
       id="sergiev-posad">
      <path
          class="fil5"
          d="m 23042,35923 c 15,0 29,0 44,0 l 75,80 -1,2 -3,4 -1,4 -1,4 -1,5 -1,4 0,5 1,5 0,4 1,5 2,5 2,4 1,3 -66,68 -52,0 0,-202 z m 123,82 c 20,-4 37,-5 47,4 l 0,2 1,3 1,4 0,4 1,4 0,4 0,4 -1,4 0,4 -1,4 -1,5 -1,2 c -10,7 -25,8 -46,2 l -2,-3 -2,-4 -1,-4 -1,-4 -1,-5 0,-4 0,-4 0,-5 1,-4 1,-3 2,-4 1,-4 2,-1 0,-1 z m 52,7 c 82,8 122,-14 102,-83 34,5 54,25 45,81 61,7 83,-20 68,-79 27,9 50,23 40,77 26,-5 53,1 81,24 -23,19 -49,28 -81,23 6,31 1,56 -27,70 l -15,0 c 18,-79 -27,-73 -68,-72 5,29 4,58 -25,72 l -18,0 c 18,-60 -21,-83 -102,-77 l 0,-1 1,-4 1,-4 0,-5 0,-4 0,-5 0,-4 0,-4 -1,-4 -1,-1 z m -175,-511 c 15,0 29,0 44,0 l 75,80 -1,2 -3,4 -1,4 -1,4 -1,5 -1,4 0,5 1,5 0,5 1,4 2,5 2,4 1,3 -77,80 c -14,0 -27,0 -41,0 0,-71 0,-142 0,-214 z m 123,82 c 20,-4 37,-5 47,4 l 0,2 1,3 1,4 0,4 1,4 0,4 0,4 -1,4 0,4 -1,5 -1,4 -1,2 c -10,7 -25,8 -46,2 l -2,-3 -2,-4 -1,-4 -1,-4 -1,-5 0,-4 0,-4 0,-5 1,-4 1,-3 2,-4 1,-3 2,-2 0,-1 z m 52,7 c 82,8 122,-14 102,-83 34,5 54,25 45,81 61,7 83,-20 68,-79 27,9 50,23 40,77 26,-5 53,1 81,24 -23,19 -49,28 -81,23 7,36 -1,65 -43,76 21,-85 -25,-79 -67,-78 6,35 3,69 -45,79 23,-65 -16,-90 -100,-84 l 0,0 1,-5 1,-4 0,-5 0,-4 0,-5 0,-4 0,-4 -1,-4 -1,-1 z m -58,-117 3,-23 4,-24 5,-23 6,-22 7,-23 8,-22 10,-22 10,-21 12,-21 12,-20 13,-20 14,-20 15,-19 16,-18 17,-17 18,-17 18,-16 20,-16 20,-14 20,-14 22,-12 22,-12 23,-11 23,-10 25,-8 24,-8 25,-6 26,-5 26,-4 27,-3 29,-1 36,3 33,4 32,5 30,7 29,8 28,9 27,11 25,11 24,13 23,13 22,14 20,16 20,16 18,16 17,18 15,18 15,18 14,19 12,19 12,19 10,20 10,20 8,20 8,20 7,20 6,19 5,20 5,19 3,20 3,18 3,19 2,20 0,83 -2,2 -1,0 -1,0 -4,-1 -5,-1 -4,0 -3,0 -4,-1 -4,0 -4,1 -3,0 -4,1 -3,1 -3,1 -3,1 -2,1 0,-39 -466,-353 0,129 246,186 -3,1 -2,1 -241,-182 0,129 170,129 -2,0 -3,1 -1,0 -164,-124 0,129 114,86 -3,2 -1,1 -110,-83 0,116 -1,0 -4,0 0,-117 -111,85 -4,-3 115,-87 1,-130 -166,125 -2,0 -3,-1 0,0 171,-129 0,-130 -242,183 0,0 -3,-1 -3,0 248,-187 0,-130 -474,358 0,33 0,0 -3,-1 -3,-1 -3,-1 -4,0 -3,-1 -4,0 -4,1 -4,0 -4,0 -4,1 -4,1 -2,0 -1,0 -2,-3 -2,-3 -2,-1 0,-75 1,-23 z m 689,238 303,230 0,-130 -212,-161 0,-1 2,-2 0,0 210,159 0,-130 -58,-44 0,0 6,-1 0,0 52,40 0,-35 3,1 3,2 4,1 3,0 4,1 3,0 4,0 5,0 4,0 4,-1 5,-1 5,-1 2,0 1,0 0,1 0,359 -2,2 -1,0 -1,0 -4,-1 -5,-1 -4,0 -3,0 -4,-1 -4,0 -4,1 -3,0 -4,1 -3,1 -3,1 -3,1 -2,1 0,-57 -304,-230 1,-4 0,-1 z m -74,79 12,9 -1,0 -2,0 -2,-1 -2,-1 -2,-2 -2,-1 -1,-2 0,-2 z m 69,52 154,117 0,1 -1,3 0,0 -150,-113 -2,-3 -1,-5 z m -136,32 168,128 -1,0 -2,0 -3,0 -1,0 -170,-128 6,0 3,0 z m -22,-1 0,119 175,133 -8,0 -167,-127 -1,127 -4,0 0,-126 -167,126 -8,0 175,-132 0,-120 5,0 z m -18,1 -170,128 -2,0 -3,0 -2,0 168,-128 4,0 5,0 z m -77,-77 -3,2 -1,1 -2,0 -3,1 -2,-1 -1,0 15,-12 0,3 -1,2 -1,2 -1,2 z m -69,52 -153,115 0,-1 -1,-3 156,-119 0,2 -2,5 0,1 z m -3,-133 -311,235 0,50 0,0 -3,-1 -3,-1 -3,-1 -4,0 -3,-1 -4,0 -4,1 -4,0 -4,0 -4,1 -4,1 -2,0 -1,0 -2,-3 -2,-3 -2,-1 0,-350 5,-5 0,0 3,0 5,1 4,1 5,1 4,0 4,0 4,0 4,0 3,-1 4,0 3,-1 1,-1 0,37 59,-44 4,1 2,0 -65,49 0,129 216,-163 1,2 1,2 -218,165 0,129 309,-233 1,2 1,2 z m 683,345 0,64 -50,0 0,-44 -38,-29 5,0 2,0 31,23 0,-17 3,1 3,2 4,1 3,0 4,1 3,0 4,0 5,0 4,0 4,-1 5,-1 5,-1 2,0 1,0 0,1 z m -248,0 43,32 1,2 0,3 1,2 -50,-37 1,-1 3,-1 1,0 z m -537,2 -51,39 0,-1 1,-3 1,-3 0,-1 44,-33 1,0 2,1 2,1 z m -164,-11 -45,34 0,39 -49,0 0,-60 5,-5 0,0 3,0 5,1 4,1 5,1 4,0 4,0 4,0 4,0 3,-1 4,0 3,-1 1,-1 0,20 38,-28 1,0 6,0 z m 741,-495 -58,-44 1,-5 58,43 0,1 -1,4 0,1 z m 158,-21 0,-41 c -2,-32 -8,-67 -18,-102 l -447,-338 -1,129 466,352 z m -20,-151 c -46,-153 -169,-315 -442,-334 l 442,334 z m -454,-334 c -222,4 -397,160 -452,341 l 452,-341 z m -454,349 c -9,32 -14,65 -16,98 l 0,42 474,-357 0,-130 -458,347 z m 147,153 57,-44 1,5 -58,44 0,-2 0,-3 z m 190,-541 -88,-208 110,-3 98,-124 100,123 111,1 -88,213 -22,-5 -32,-6 -33,-4 -37,-3 -29,2 -27,2 -27,4 -26,5 -9,3 -1,0 z m -43,689 c 11,-9 23,-19 34,-29 89,58 177,57 263,-2 12,10 23,20 34,30 -24,55 -28,111 2,171 -9,11 -18,22 -27,33 -101,-51 -192,-44 -278,0 -10,-11 -19,-22 -28,-33 26,-57 26,-113 0,-170 z m 268,69 c 10,0 17,7 17,17 0,9 -7,17 -17,17 -9,0 -16,-8 -16,-17 0,-10 7,-17 16,-17 z m -204,1 c 9,0 17,8 17,17 0,10 -8,17 -17,17 -9,0 -17,-7 -17,-17 0,-9 8,-17 17,-17 z m 740,152 c -14,0 -29,0 -43,0 l -76,80 2,2 2,4 2,4 1,4 1,5 0,4 0,5 0,5 -1,4 -1,5 -1,5 -2,4 -2,3 66,68 52,0 0,-202 z m -123,82 c -20,-4 -36,-5 -46,4 l -1,2 -1,3 0,4 -1,4 0,4 0,4 0,4 0,4 1,4 1,4 1,5 0,2 c 10,7 26,8 47,2 l 2,-3 1,-4 2,-4 1,-4 0,-5 1,-4 0,-4 -1,-5 -1,-4 -1,-3 -1,-4 -2,-4 -1,-1 -1,-1 z m -52,7 c -81,8 -121,-14 -101,-83 -34,5 -55,25 -45,81 -61,7 -84,-20 -68,-79 -28,9 -51,23 -41,77 -26,-5 -52,1 -80,24 23,19 49,28 80,23 -6,31 -1,56 27,70 l 15,0 c -17,-79 27,-73 68,-72 -4,29 -3,58 25,72 l 18,0 c -18,-60 21,-83 102,-77 l 0,-1 -1,-4 0,-4 -1,-5 0,-4 0,-5 0,-4 1,-4 1,-4 0,-1 z m 175,-511 c -14,0 -29,0 -43,0 l -76,80 2,2 2,4 2,4 1,4 1,5 0,4 0,5 0,5 -1,5 -1,4 -1,5 -2,4 -2,3 78,80 c 13,0 27,0 40,0 0,-71 0,-142 0,-214 z m -123,82 c -20,-4 -36,-5 -46,4 l -1,2 -1,3 0,4 -1,4 0,4 0,4 0,4 0,4 1,4 1,5 1,4 0,2 c 10,7 26,8 47,2 l 2,-3 1,-4 2,-4 1,-4 0,-5 1,-4 0,-4 -1,-5 -1,-4 -1,-3 -1,-4 -2,-3 -1,-2 -1,-1 z m -52,7 c -81,8 -121,-14 -101,-83 -34,5 -55,25 -45,81 -61,7 -84,-20 -68,-79 -28,9 -51,23 -41,77 -26,-5 -52,1 -80,24 23,19 49,28 80,23 -7,36 1,65 44,76 -22,-85 24,-79 66,-78 -5,35 -3,69 45,79 -22,-65 16,-90 100,-84 l 0,0 -1,-5 0,-4 -1,-5 0,-4 0,-5 0,-4 1,-4 1,-4 0,-1 z"
          id="path1988"
          inkscape:connector-curvature="0"
          style="fill:#fefefe" />
      <path
          class="fil2"
          d="m 23042,35923 c 15,0 29,0 44,0 l 75,80 -1,2 -3,4 -1,4 -1,4 -1,5 -1,4 0,5 1,5 0,4 1,5 2,5 2,4 1,3 -66,68 -52,0 0,-202 z m 123,82 c 20,-4 37,-5 47,4 l 0,2 1,3 1,4 0,4 1,4 0,4 0,4 -1,4 0,4 -1,4 -1,5 -1,2 c -10,7 -25,8 -46,2 l -2,-3 -2,-4 -1,-4 -1,-4 -1,-5 0,-4 0,-4 0,-5 1,-4 1,-3 2,-4 1,-4 2,-1 0,-1 z m 52,7 c 82,8 122,-14 102,-83 34,5 54,25 45,81 61,7 83,-20 68,-79 27,9 50,23 40,77 26,-5 53,1 81,24 -23,19 -49,28 -81,23 6,31 1,56 -27,70 l -15,0 c 18,-79 -27,-73 -68,-72 5,29 4,58 -25,72 l -18,0 c 18,-60 -21,-83 -102,-77 l 0,-1 1,-4 1,-4 0,-5 0,-4 0,-5 0,-4 0,-4 -1,-4 -1,-1 z m -175,-511 c 15,0 29,0 44,0 l 75,80 -1,2 -3,4 -1,4 -1,4 -1,5 -1,4 0,5 1,5 0,5 1,4 2,5 2,4 1,3 -77,80 c -14,0 -27,0 -41,0 0,-71 0,-142 0,-214 z m 123,82 c 20,-4 37,-5 47,4 l 0,2 1,3 1,4 0,4 1,4 0,4 0,4 -1,4 0,4 -1,5 -1,4 -1,2 c -10,7 -25,8 -46,2 l -2,-3 -2,-4 -1,-4 -1,-4 -1,-5 0,-4 0,-4 0,-5 1,-4 1,-3 2,-4 1,-3 2,-2 0,-1 z m 52,7 c 82,8 122,-14 102,-83 34,5 54,25 45,81 61,7 83,-20 68,-79 27,9 50,23 40,77 26,-5 53,1 81,24 -23,19 -49,28 -81,23 7,36 -1,65 -43,76 21,-85 -25,-79 -67,-78 6,35 3,69 -45,79 23,-65 -16,-90 -100,-84 l 0,0 1,-5 1,-4 0,-5 0,-4 0,-5 0,-4 0,-4 -1,-4 -1,-1 z m -58,-117 3,-23 4,-24 5,-23 6,-22 7,-23 8,-22 10,-22 10,-21 12,-21 12,-20 13,-20 14,-20 15,-19 16,-18 17,-17 18,-17 18,-16 20,-16 20,-14 20,-14 22,-12 22,-12 23,-11 23,-10 25,-8 24,-8 25,-6 26,-5 26,-4 27,-3 29,-1 36,3 33,4 32,5 30,7 29,8 28,9 27,11 25,11 24,13 23,13 22,14 20,16 20,16 18,16 17,18 15,18 15,18 14,19 12,19 12,19 10,20 10,20 8,20 8,20 7,20 6,19 5,20 5,19 3,20 3,18 3,19 2,20 0,83 -2,2 -1,0 -1,0 -4,-1 -5,-1 -4,0 -3,0 -4,-1 -4,0 -4,1 -3,0 -4,1 -3,1 -3,1 -3,1 -2,1 0,-39 -466,-353 0,129 246,186 -3,1 -2,1 -241,-182 0,129 170,129 -2,0 -3,1 -1,0 -164,-124 0,129 114,86 -3,2 -1,1 -110,-83 0,116 -1,0 -4,0 0,-117 -111,85 -4,-3 115,-87 1,-130 -166,125 -2,0 -3,-1 0,0 171,-129 0,-130 -242,183 0,0 -3,-1 -3,0 248,-187 0,-130 -474,358 0,33 0,0 -3,-1 -3,-1 -3,-1 -4,0 -3,-1 -4,0 -4,1 -4,0 -4,0 -4,1 -4,1 -2,0 -1,0 -2,-3 -2,-3 -2,-1 0,-75 1,-23 z m 689,238 303,230 0,-130 -212,-161 0,-1 2,-2 0,0 210,159 0,-130 -58,-44 0,0 6,-1 0,0 52,40 0,-35 3,1 3,2 4,1 3,0 4,1 3,0 4,0 5,0 4,0 4,-1 5,-1 5,-1 2,0 1,0 0,1 0,359 -2,2 -1,0 -1,0 -4,-1 -5,-1 -4,0 -3,0 -4,-1 -4,0 -4,1 -3,0 -4,1 -3,1 -3,1 -3,1 -2,1 0,-57 -304,-230 1,-4 0,-1 z m -74,79 12,9 -1,0 -2,0 -2,-1 -2,-1 -2,-2 -2,-1 -1,-2 0,-2 z m 69,52 154,117 0,1 -1,3 0,0 -150,-113 -2,-3 -1,-5 z m -136,32 168,128 -1,0 -2,0 -3,0 -1,0 -170,-128 6,0 3,0 z m -22,-1 0,119 175,133 -8,0 -167,-127 -1,127 -4,0 0,-126 -167,126 -8,0 175,-132 0,-120 5,0 z m -18,1 -170,128 -2,0 -3,0 -2,0 168,-128 4,0 5,0 z m -77,-77 -3,2 -1,1 -2,0 -3,1 -2,-1 -1,0 15,-12 0,3 -1,2 -1,2 -1,2 z m -69,52 -153,115 0,-1 -1,-3 156,-119 0,2 -2,5 0,1 z m -3,-133 -311,235 0,50 0,0 -3,-1 -3,-1 -3,-1 -4,0 -3,-1 -4,0 -4,1 -4,0 -4,0 -4,1 -4,1 -2,0 -1,0 -2,-3 -2,-3 -2,-1 0,-350 5,-5 0,0 3,0 5,1 4,1 5,1 4,0 4,0 4,0 4,0 3,-1 4,0 3,-1 1,-1 0,37 59,-44 4,1 2,0 -65,49 0,129 216,-163 1,2 1,2 -218,165 0,129 309,-233 1,2 1,2 z m 683,345 0,64 -50,0 0,-44 -38,-29 5,0 2,0 31,23 0,-17 3,1 3,2 4,1 3,0 4,1 3,0 4,0 5,0 4,0 4,-1 5,-1 5,-1 2,0 1,0 0,1 z m -248,0 43,32 1,2 0,3 1,2 -50,-37 1,-1 3,-1 1,0 z m -537,2 -51,39 0,-1 1,-3 1,-3 0,-1 44,-33 1,0 2,1 2,1 z m -164,-11 -45,34 0,39 -49,0 0,-60 5,-5 0,0 3,0 5,1 4,1 5,1 4,0 4,0 4,0 4,0 3,-1 4,0 3,-1 1,-1 0,20 38,-28 1,0 6,0 z m 741,-495 -58,-44 1,-5 58,43 0,1 -1,4 0,1 z m 158,-21 0,-41 c -2,-32 -8,-67 -18,-102 l -447,-338 -1,129 466,352 z m -20,-151 c -46,-153 -169,-315 -442,-334 l 442,334 z m -454,-334 c -222,4 -397,160 -452,341 l 452,-341 z m -454,349 c -9,32 -14,65 -16,98 l 0,42 474,-357 0,-130 -458,347 z m 147,153 57,-44 1,5 -58,44 0,-2 0,-3 z m 190,-541 -88,-208 110,-3 98,-124 100,123 111,1 -88,213 -22,-5 -32,-6 -33,-4 -37,-3 -29,2 -27,2 -27,4 -26,5 -9,3 -1,0 z m -43,689 c 11,-9 23,-19 34,-29 89,58 177,57 263,-2 12,10 23,20 34,30 -24,55 -28,111 2,171 -9,11 -18,22 -27,33 -101,-51 -192,-44 -278,0 -10,-11 -19,-22 -28,-33 26,-57 26,-113 0,-170 z m 268,69 c 10,0 17,7 17,17 0,9 -7,17 -17,17 -9,0 -16,-8 -16,-17 0,-10 7,-17 16,-17 z m -204,1 c 9,0 17,8 17,17 0,10 -8,17 -17,17 -9,0 -17,-7 -17,-17 0,-9 8,-17 17,-17 z m 740,152 c -14,0 -29,0 -43,0 l -76,80 2,2 2,4 2,4 1,4 1,5 0,4 0,5 0,5 -1,4 -1,5 -1,5 -2,4 -2,3 66,68 52,0 0,-202 z m -123,82 c -20,-4 -36,-5 -46,4 l -1,2 -1,3 0,4 -1,4 0,4 0,4 0,4 0,4 1,4 1,4 1,5 0,2 c 10,7 26,8 47,2 l 2,-3 1,-4 2,-4 1,-4 0,-5 1,-4 0,-4 -1,-5 -1,-4 -1,-3 -1,-4 -2,-4 -1,-1 -1,-1 z m -52,7 c -81,8 -121,-14 -101,-83 -34,5 -55,25 -45,81 -61,7 -84,-20 -68,-79 -28,9 -51,23 -41,77 -26,-5 -52,1 -80,24 23,19 49,28 80,23 -6,31 -1,56 27,70 l 15,0 c -17,-79 27,-73 68,-72 -4,29 -3,58 25,72 l 18,0 c -18,-60 21,-83 102,-77 l 0,-1 -1,-4 0,-4 -1,-5 0,-4 0,-5 0,-4 1,-4 1,-4 0,-1 z m 175,-511 c -14,0 -29,0 -43,0 l -76,80 2,2 2,4 2,4 1,4 1,5 0,4 0,5 0,5 -1,5 -1,4 -1,5 -2,4 -2,3 78,80 c 13,0 27,0 40,0 0,-71 0,-142 0,-214 z m -123,82 c -20,-4 -36,-5 -46,4 l -1,2 -1,3 0,4 -1,4 0,4 0,4 0,4 0,4 1,4 1,5 1,4 0,2 c 10,7 26,8 47,2 l 2,-3 1,-4 2,-4 1,-4 0,-5 1,-4 0,-4 -1,-5 -1,-4 -1,-3 -1,-4 -2,-3 -1,-2 -1,-1 z m -52,7 c -81,8 -121,-14 -101,-83 -34,5 -55,25 -45,81 -61,7 -84,-20 -68,-79 -28,9 -51,23 -41,77 -26,-5 -52,1 -80,24 23,19 49,28 80,23 -7,36 1,65 44,76 -22,-85 24,-79 66,-78 -5,35 -3,69 45,79 -22,-65 16,-90 100,-84 l 0,0 -1,-5 0,-4 -1,-5 0,-4 0,-5 0,-4 1,-4 1,-4 0,-1 z"
          id="path1990"
          inkscape:connector-curvature="0"
          style="fill:#000000" />
      <path
          class="fil4"
          d="m 23277,34021 0,-487 32,0 0,45 34,0 1,-42 28,-1 -1,42 37,0 1,-41 25,0 6,755 -153,0 -4,-271 -6,0 z m 331,-45 c -29,0 -59,0 -88,0 0,-87 0,-173 0,-260 1,-31 18,-52 43,-68 24,16 42,38 45,73 0,85 0,170 0,255 z m 228,0 c -29,0 -59,0 -88,0 0,-87 0,-173 0,-260 1,-31 18,-52 43,-68 24,16 42,38 45,73 0,85 0,170 0,255 z m -559,-446 0,-63 156,-1 1,66 0,1 -29,0 -2,40 -28,0 2,-41 0,-1 -14,1 -23,1 -2,42 -25,0 0,-43 0,-2 -36,0 z m 0,-67 0,-41 156,0 0,40 -156,1 z m 161,-41 477,0 0,37 -477,3 0,-40 z m 481,0 154,0 1,36 -155,1 0,-37 z m 155,40 0,66 -32,2 0,0 0,42 -26,2 -2,-44 0,-1 -37,1 0,0 1,43 -28,0 0,-43 0,0 -30,0 -1,-67 155,-1 z m 0,71 3,486 -4,0 0,273 -150,0 -3,-744 0,-13 26,0 0,43 37,0 -1,-44 27,0 2,45 36,-2 0,-43 27,-1 z m -156,759 -134,0 0,-275 -205,0 4,275 -139,0 -5,-714 54,1 0,-43 48,0 0,42 59,0 0,-45 47,0 0,45 62,1 -2,-45 47,0 0,42 61,2 -2,-44 50,-1 0,45 52,1 3,713 z m -480,-826 0,66 0,1 2,0 0,40 49,2 0,-44 0,0 57,0 0,0 0,42 50,0 0,-42 0,-3 55,0 0,3 0,42 53,2 -1,-44 0,-1 56,0 0,1 0,41 51,1 -2,-42 0,-1 59,-2 0,3 0,42 48,1 0,-21 0,-22 0,-68 -477,3 z m -1580,2246 0,-192 449,-2 0,202 -449,2 0,-10 z m 0,-199 0,-203 221,-1 0,203 -221,1 z m 0,-210 0,-202 449,-2 0,202 -449,2 z m 0,-209 0,-203 221,-1 0,203 -221,1 z m 0,-210 0,-202 449,-2 0,201 -449,3 z m 0,-209 0,-157 236,0 4,-5 88,-107 93,106 2,2 308,0 3,-3 92,-109 93,108 3,2 307,-2 2,-2 92,-110 94,109 3,3 302,-2 3,-3 95,-107 93,106 2,2 308,0 3,-3 88,-109 95,108 5,4 302,-3 2,-3 85,-108 92,107 4,4 286,0 4,-6 84,-103 78,102 3,5 186,-2 0,159 -3540,17 z m 0,-164 0,-202 0,0 232,-2 -4,-272 199,0 0,264 304,0 -4,-273 201,0 -4,275 306,0 -2,-271 193,-4 4,271 304,0 -4,-275 197,0 0,275 298,0 0,-273 195,0 0,271 296,-2 0,-271 190,-2 4,270 286,3 -4,-275 171,0 2,270 180,0 0,0 0,204 -182,2 -85,-111 -91,113 -280,0 -99,-115 -91,115 -295,4 -103,-117 -94,117 -302,0 -98,-113 -101,114 -296,2 -100,-116 -97,116 -301,2 -99,-114 -98,116 -302,0 -99,-112 -94,116 -233,0 z m 3540,154 0,201 -372,2 -3,-201 375,-2 z m 0,208 0,204 -171,1 0,-204 171,-1 z m 0,211 0,201 -372,2 -3,-201 375,-2 z m 0,208 0,204 -171,1 0,-204 171,-1 z m 0,211 0,201 -372,2 -3,-201 375,-2 z m 0,208 0,82 0,122 -171,1 0,-204 171,-1 z m 0,211 0,202 -334,1 -38,0 -3,-201 375,-2 z m -3540,203 0,-186 449,-2 0,188 -449,0 z m 0,-193 0,-203 221,-1 0,203 -221,1 z m 3158,-1265 -429,2 1,201 431,-2 -3,-201 z m -436,2 -440,2 0,201 441,-2 -1,-201 z m -447,2 -449,2 0,1 98,122 116,1 -32,77 267,-2 0,-201 z m -456,2 -449,2 0,202 269,-1 -32,-76 115,-3 97,-122 0,-2 z m -456,2 -450,3 2,201 448,-2 0,-202 z m -457,3 -450,2 0,201 452,-2 -2,-201 z m 2262,197 0,1 -7,0 0,-1 -224,1 3,204 422,-2 0,-204 -194,1 z m -238,1 -429,2 2,204 430,-2 -3,-204 z m -436,2 -440,2 0,171 9,4 25,13 23,13 4,3 381,-2 -2,-204 z m -447,3 -42,0 -56,134 4,1 30,8 28,9 27,10 9,5 0,-167 z m -405,2 -44,0 0,166 16,-7 24,-10 24,-9 25,-7 11,-3 -56,-130 z m -51,0 -449,2 0,204 -7,0 0,-204 -449,2 1,204 846,-4 14,-10 22,-12 22,-12 0,0 0,-170 z m -912,4 -451,2 0,204 452,-2 -1,-204 z m 2479,199 -429,2 1,201 431,-2 -3,-201 z m -436,2 -440,2 0,176 5,10 8,15 428,-2 -1,-201 z m -447,2 -150,1 8,5 20,15 20,16 18,17 17,18 16,18 15,18 13,19 13,20 10,16 0,-163 z m -752,4 -153,1 0,162 4,-8 13,-20 15,-20 15,-19 16,-18 17,-18 18,-17 19,-16 19,-15 17,-12 z m -160,1 -450,2 2,201 433,-2 2,-5 12,-21 1,-2 0,-173 z m -457,2 -450,2 0,202 452,-3 -2,-201 z m 2262,197 0,1 -7,0 0,-1 -224,1 3,204 422,-2 0,-204 -194,1 z m -238,1 -429,2 2,204 430,-2 -3,-204 z m -436,2 -196,1 7,18 8,20 7,20 6,20 6,20 4,19 4,20 3,19 2,19 2,20 0,9 66,0 1,-1 4,-5 50,0 0,5 28,0 -2,-204 z m -1150,6 -202,1 0,204 -7,0 0,-204 -449,2 1,204 493,-2 0,-12 50,0 4,5 2,2 3,3 1,1 55,0 0,-11 2,-23 2,-24 4,-23 5,-24 7,-23 7,-22 8,-23 10,-22 4,-9 z m -665,3 -451,3 0,203 452,-2 -1,-204 z m 2479,199 -429,2 1,201 431,-2 -3,-201 z m -436,2 -254,1 0,13 0,7 0,20 0,7 0,20 0,6 0,21 0,6 0,20 0,7 0,20 0,7 0,20 0,7 0,6 0,14 0,1 255,-2 -1,-201 z m -316,1 -59,1 0,62 1,-1 3,-3 2,-2 3,-3 2,-2 3,-3 2,-3 2,-2 3,-3 2,-2 3,-3 2,-2 2,-3 3,-3 2,-2 3,-3 2,-2 3,-3 2,-2 2,-3 3,-3 2,-2 3,-3 2,-2 2,-3 z m -59,202 65,0 -10,-10 -2,-2 -18,-18 -2,-3 -3,-3 -15,-15 -2,-3 -7,-7 -3,-3 -3,-3 0,67 z m -1052,-196 -48,0 1,2 3,2 2,3 2,3 3,2 2,3 3,2 2,3 3,2 2,3 2,3 3,2 2,3 3,2 2,3 3,2 2,3 2,3 3,2 2,3 1,1 0,-52 z m -115,1 -267,1 2,201 265,-1 0,-7 0,-14 0,-6 0,-7 0,-20 0,-7 0,-20 0,-7 0,-20 0,-6 0,-21 0,-6 0,-20 0,-7 0,-20 0,-7 0,-6 z m 50,201 65,-1 0,-67 0,1 -7,7 -3,3 -15,15 -2,3 -3,3 -17,18 -3,2 -14,16 -1,0 z m -324,-200 -450,2 0,202 452,-3 -2,-201 z m 2262,197 0,1 -7,0 0,-1 -224,1 3,204 422,-2 0,-204 -194,1 z m -238,1 -429,2 2,204 430,-2 -3,-204 z m -436,2 -26,1 0,3 -7,0 -3,0 -2,0 -3,0 -2,0 -3,0 -3,0 -2,0 -3,0 -2,0 -3,0 -2,0 -3,0 -2,0 -3,0 -4,0 -3,-3 -71,0 0,204 69,-1 2,-2 50,0 0,2 28,0 -2,-204 z m -1199,6 -153,1 0,204 38,0 0,-9 50,0 4,4 2,3 1,1 58,0 0,-204 z m -160,1 -449,2 1,204 448,-2 0,-204 z m -456,2 -451,3 0,203 452,-2 -1,-204 z m 2479,199 -429,2 1,199 431,0 -3,-201 z m -436,2 -254,1 0,16 0,7 0,20 0,7 0,20 0,6 0,21 0,6 0,20 0,7 0,20 0,7 0,20 0,7 0,6 0,8 255,0 -1,-199 z m -313,1 -62,1 0,65 1,-1 3,-3 2,-2 3,-3 2,-2 3,-3 2,-3 2,-2 3,-3 2,-2 3,-3 2,-2 2,-3 3,-3 2,-2 3,-3 2,-2 3,-3 2,-2 2,-3 3,-3 2,-2 3,-3 2,-2 3,-3 2,-2 0,-1 z m -4,198 -3,-3 -2,-2 -18,-18 -2,-3 -3,-3 -15,-15 -2,-3 -7,-7 -3,-3 -3,-3 0,60 58,0 z m -1110,-192 -51,0 2,2 2,3 3,2 2,3 2,3 3,2 2,3 3,2 2,3 3,2 2,3 2,3 3,2 2,3 3,2 2,3 3,2 2,3 2,3 3,2 2,3 1,1 0,-55 z m -115,0 -267,2 2,190 265,0 0,-8 0,-6 0,-7 0,-20 0,-7 0,-20 0,-7 0,-20 0,-6 0,-21 0,-6 0,-20 0,-7 0,-20 0,-7 0,-10 z m 115,192 0,-55 0,1 -7,7 -3,3 -15,15 -2,3 -3,3 -17,18 -3,2 -2,3 52,0 z m -389,-190 -450,2 0,188 452,0 -2,-190 z"
          id="path1992"
          inkscape:connector-curvature="0"
          style="fill:#999999" />
      <path
          class="fil3"
          d="m 23272,33418 c -137,-140 -127,-295 -68,-377 47,-65 114,-113 198,-160 119,-68 196,-150 245,-227 l 1,0 c -19,-10 -32,-29 -32,-52 0,-27 19,-50 45,-56 l 0,-4 -1,-13 0,-5 0,-8 0,-4 0,-5 0,-13 0,-4 0,-8 0,-5 0,-4 0,-13 0,-4 -1,-9 0,-4 0,-4 0,-9 0,-4 0,-13 0,-2 -1,0 -7,-5 -4,-2 -3,-2 -4,-2 -4,-2 -3,-2 -4,-2 -7,-5 -3,-2 -4,-2 -3,-2 -4,-2 -6,-4 0,-5 0,-2 0,-3 0,-3 0,-2 0,-3 0,-3 0,-11 10,7 4,2 4,2 3,2 4,2 10,7 4,2 4,2 3,2 4,2 3,2 4,2 0,0 0,-4 0,-4 0,-4 0,-4 0,-4 0,-4 0,-4 0,-4 0,-5 0,-4 0,-4 0,-12 0,-4 0,-4 0,-4 0,-4 0,-4 0,-13 0,-4 0,-4 0,-4 0,-4 0,-4 0,-8 -23,0 -4,0 -12,0 -4,0 -11,0 -4,0 -12,0 -4,0 -12,0 -4,0 -11,0 -4,0 -12,0 -9,0 0,-27 9,0 8,0 4,0 3,0 8,0 4,0 4,0 8,0 4,0 4,0 4,0 3,0 4,0 4,0 8,0 4,0 12,0 3,0 12,0 4,0 4,0 4,0 3,0 0,-22 0,-4 0,-24 0,-3 0,-56 31,0 0,15 0,3 0,4 0,3 0,3 0,4 0,3 0,4 0,3 0,4 0,3 1,3 0,4 0,3 0,4 0,3 0,3 0,4 0,3 0,4 0,3 0,3 0,4 0,3 0,4 0,3 0,4 0,3 0,2 3,0 4,0 3,0 4,0 4,0 4,0 4,0 3,0 4,0 4,0 4,0 3,0 4,0 4,0 4,0 3,0 4,0 4,0 4,0 3,0 4,0 4,0 4,0 3,0 4,0 4,0 4,0 3,0 4,0 4,0 8,0 0,27 -8,0 -4,0 -4,0 -3,0 -4,0 -4,0 -3,0 -4,0 -4,0 -4,0 -3,0 -4,0 -4,0 -7,0 -4,0 -4,0 -3,0 -4,0 -4,0 -4,0 -7,0 -4,1 -4,0 -3,0 -4,0 -4,0 -4,0 -6,0 0,4 0,4 0,5 0,4 0,5 0,4 0,5 0,4 0,4 0,5 0,4 -1,5 0,4 0,4 0,5 0,4 0,5 0,4 0,5 0,4 0,4 0,5 0,4 0,5 0,4 0,4 0,5 0,4 0,5 0,4 0,2 1,1 10,5 3,2 10,6 3,2 25,16 0,27 -10,-5 -3,-2 -3,-2 -4,-2 -3,-1 -3,-2 -4,-2 -3,-2 -3,-2 -3,-2 -4,-1 -3,-2 -3,-2 -3,-2 0,121 c 23,8 39,29 39,55 0,23 -13,42 -31,51 48,79 120,151 226,210 91,51 184,102 229,196 48,100 37,216 -84,359 l -797,0 z"
          id="path1994"
          inkscape:connector-curvature="0"
          style="fill:#ffcc00" />
      <path
          class="fil3"
          d="m 24845,32202 c -245,328 -343,678 -7,1093 -30,40 -38,77 -5,115 38,45 33,76 -8,88 28,12 49,15 46,-33 -2,-22 -13,-44 -25,-66 -14,-36 5,-61 39,-82 l 0,-1 0,-3 0,-2 0,-3 0,-2 0,-3 0,-2 0,-3 0,-2 0,-2 0,-3 0,-2 1,-2 0,-3 0,-2 1,-2 0,-2 1,-2 0,-2 1,-3 0,-1 c -5,-5 -12,-8 -19,-11 -72,-136 -90,-242 -63,-322 14,-41 43,-56 75,-63 l 0,-6 0,-5 0,-5 0,-4 0,-5 0,-3 1,-4 0,-3 1,-3 1,-3 1,-2 2,-2 1,0 -2,-2 -2,-3 -2,-4 -1,-4 -1,-5 0,-2 0,-2 0,-2 0,-2 0,-2 0,-2 0,-2 0,-2 0,-2 0,-3 0,-2 0,-2 0,-2 0,-2 0,-2 0,-2 0,-4 0,-4 1,-3 1,-3 2,-2 2,-2 3,0 1,0 -2,-2 -2,-2 -2,-3 -2,-3 -1,-4 -1,-3 -1,-4 -1,-4 0,-5 -1,-4 0,-3 c -136,-81 -111,-281 -33,-521 z m 45,1119 c 3,4 8,7 15,7 l 1,-1 4,-1 4,0 3,-1 4,0 3,-1 4,0 4,0 3,0 4,1 4,0 3,1 4,1 0,0 c 7,-2 13,-5 14,-14 0,-10 -1,-20 0,-31 0,-12 -8,-12 -16,-13 l -1,0 -3,1 -4,1 -3,0 -4,0 -3,1 -4,-1 -3,0 -4,0 -3,-1 -4,-1 -3,-2 -1,0 c -7,0 -13,1 -14,7 0,0 0,-1 -1,-1 l 0,2 -1,2 0,2 -1,2 0,2 0,2 -1,2 0,2 0,3 0,2 -1,2 0,3 0,2 0,2 0,3 0,2 0,2 1,3 0,2 0,3 0,2 0,1 z m 17,11 0,543 c 1,10 0,21 6,26 10,0 19,0 29,0 5,-6 4,-17 5,-26 l 0,-544 -2,0 -3,-1 -3,-1 -4,0 -3,0 -4,0 -3,0 -4,0 -3,1 -4,0 -3,1 -3,1 -1,0 0,0 z m 40,-68 1,-25 c 0,-111 0,-222 -1,-333 0,-6 -1,-12 -2,-17 l -2,0 -3,-1 -3,-1 -4,0 -3,0 -3,0 -4,0 -3,1 -3,1 -4,1 -1,0 -1,0 c -3,7 -5,13 -3,19 0,113 0,225 0,337 0,6 0,11 2,17 l 0,0 4,1 3,1 3,1 3,1 3,0 4,0 3,0 3,0 3,-1 4,-1 3,0 1,-1 z m -3,-380 -1,-2 c 10,-1 23,2 24,-10 2,-11 2,-23 0,-34 0,-3 -1,-6 -3,-8 l 0,0 -3,0 -2,0 -3,1 -3,0 -2,0 -3,0 -3,0 -2,0 -3,0 -3,0 -2,0 -3,0 -2,0 -3,0 -3,0 -2,0 -3,0 -3,0 -2,0 -3,0 -3,0 -2,0 -3,0 -2,0 -4,0 -3,0 -1,0 -2,2 -1,1 -1,1 -1,2 0,3 -1,3 0,3 -1,4 0,4 0,4 0,5 0,5 1,5 0,6 0,1 0,0 c 5,6 14,7 27,4 l 1,0 4,-1 4,0 3,-1 4,0 4,0 3,1 4,0 3,1 z m 16,-58 -1,0 c 7,-3 11,-10 11,-22 1,-8 0,-17 0,-26 1,-7 -2,-12 -7,-15 l -3,0 -3,0 -8,0 -3,0 -3,0 -3,0 -3,0 -3,0 -9,0 -3,0 -8,0 -3,0 -9,0 -4,0 -2,-1 0,0 0,3 -5,-1 -2,1 -1,0 -1,1 -1,2 -1,3 0,3 0,4 0,2 1,2 0,2 0,2 0,2 0,2 0,2 0,3 0,2 0,2 0,2 0,2 0,2 0,2 0,2 0,2 0,4 1,4 2,2 1,3 2,1 2,1 3,1 4,0 2,0 3,0 2,0 3,0 3,0 2,0 3,0 3,0 2,-1 3,0 2,0 3,0 3,0 2,0 3,0 3,0 2,0 3,0 3,0 2,0 3,0 3,0 1,0 z m 1,-68 c 7,-4 9,-10 9,-20 -1,-8 0,-16 0,-24 0,-7 -3,-12 -13,-15 -3,-1 -6,-2 -10,-3 l -1,0 -4,2 -5,0 -4,1 -4,0 -4,0 -4,0 -5,-1 -4,-1 -4,-1 -1,0 c -3,1 -5,2 -8,3 -13,5 -16,14 -15,27 0,0 -1,0 -1,-1 l 0,1 0,4 1,4 0,4 1,3 1,4 1,3 2,3 1,2 2,2 2,1 2,1 3,1 3,0 9,0 3,0 8,0 3,0 9,0 3,0 3,0 3,0 3,0 3,0 8,0 3,0 1,0 z m -19,-65 c 30,-39 22,-81 -13,-127 -32,50 -44,94 -14,127 l -1,0 3,1 4,0 4,1 4,0 4,-1 4,0 4,-1 1,0 z"
          id="path1996"
          inkscape:connector-curvature="0"
          style="fill:#ffcc00" />
      <path
          class="fil3"
          d="m 22573,32202 c -244,328 -343,678 -6,1093 -31,40 -38,77 -6,115 39,45 34,76 -7,88 27,12 48,15 45,-33 -2,-22 -13,-44 -25,-66 -14,-36 5,-61 40,-82 l 0,-1 -1,-3 0,-2 0,-3 0,-2 0,-3 0,-2 0,-3 0,-2 0,-2 1,-3 0,-2 0,-2 0,-3 1,-2 0,-2 1,-2 0,-2 1,-2 0,-3 1,-1 c -6,-5 -13,-8 -19,-11 -72,-136 -90,-242 -64,-322 15,-41 43,-56 76,-63 l -1,-6 0,-5 0,-5 0,-4 0,-5 1,-3 0,-4 1,-3 0,-3 2,-3 1,-2 1,-2 1,0 -2,-2 -2,-3 -2,-4 -1,-4 0,-5 0,-2 0,-2 0,-2 0,-2 0,-2 0,-2 0,-2 0,-2 0,-2 0,-3 0,-2 0,-2 -1,-2 0,-2 0,-2 0,-2 0,-4 0,-4 1,-3 1,-3 2,-2 3,-2 3,0 0,0 -2,-2 -2,-2 -2,-3 -2,-3 -1,-4 -1,-3 -1,-4 0,-4 -1,-5 0,-4 -1,-3 c -135,-81 -110,-281 -33,-521 z m 46,1119 c 3,4 7,7 14,7 l 2,-1 3,-1 4,0 4,-1 3,0 4,-1 4,0 3,0 4,0 3,1 4,0 4,1 3,1 0,0 c 8,-2 14,-5 14,-14 0,-10 0,-20 0,-31 0,-12 -8,-12 -16,-13 l -1,0 -3,1 -4,1 -3,0 -4,0 -3,1 -4,-1 -3,0 -4,0 -3,-1 -4,-1 -3,-2 -1,0 c -7,0 -12,1 -13,7 -1,0 -1,-1 -1,-1 l -1,2 0,2 -1,2 0,2 -1,2 0,2 0,2 -1,2 0,3 0,2 0,2 0,3 0,2 0,2 0,3 0,2 0,2 0,3 0,2 0,3 1,2 0,1 z m 16,11 0,543 c 1,10 0,21 7,26 9,0 19,0 28,0 5,-6 4,-17 5,-26 l 0,-544 -1,0 -4,-1 -3,-1 -4,0 -3,0 -3,0 -4,0 -3,0 -4,1 -3,0 -4,1 -3,1 0,0 -1,0 z m 41,-68 1,-25 c -1,-111 -1,-222 -1,-333 0,-6 -1,-12 -2,-17 l -2,0 -4,-1 -3,-1 -3,0 -4,0 -3,0 -3,0 -4,1 -3,1 -3,1 -1,0 -1,0 c -4,7 -6,13 -4,19 0,113 0,225 0,337 0,6 1,11 2,17 l 1,0 3,1 3,1 3,1 4,1 3,0 3,0 3,0 3,0 4,-1 3,-1 3,0 2,-1 z m -4,-380 0,-2 c 10,-1 23,2 24,-10 1,-11 1,-23 0,-34 -1,-3 -2,-6 -3,-8 l -1,0 -2,0 -3,0 -3,1 -2,0 -3,0 -3,0 -2,0 -3,0 -3,0 -2,0 -3,0 -2,0 -3,0 -3,0 -2,0 -3,0 -3,0 -2,0 -3,0 -3,0 -2,0 -3,0 -2,0 -3,0 -4,0 -3,0 0,0 -3,2 0,1 -1,1 -1,2 -1,3 0,3 -1,3 0,4 0,4 0,4 0,5 0,5 0,5 1,6 0,1 0,0 c 4,6 13,7 27,4 l 1,0 3,-1 4,0 4,-1 3,0 4,0 4,1 3,0 3,1 z m 16,-58 0,0 c 6,-3 10,-10 11,-22 0,-8 -1,-17 0,-26 0,-7 -2,-12 -8,-15 l -2,0 -3,0 -9,0 -3,0 -3,0 -3,0 -3,0 -3,0 -8,0 -3,0 -9,0 -3,0 -9,0 -4,0 -2,-1 0,0 0,3 -5,-1 -2,1 -1,0 -1,1 -1,2 0,3 0,3 0,4 0,2 0,2 0,2 0,2 0,2 0,2 0,2 0,3 0,2 0,2 0,2 0,2 0,2 0,2 0,2 0,2 1,4 1,4 1,2 1,3 2,1 3,1 2,1 4,0 2,0 3,0 3,0 2,0 3,0 3,0 2,0 3,0 3,-1 2,0 3,0 3,0 2,0 3,0 2,0 3,0 3,0 2,0 3,0 3,0 2,0 3,0 1,0 z m 2,-68 c 6,-4 9,-10 8,-20 0,-8 0,-16 0,-24 0,-7 -3,-12 -12,-15 -3,-1 -7,-2 -10,-3 l -2,0 -4,2 -4,0 -4,1 -5,0 -4,0 -4,0 -4,-1 -4,-1 -5,-1 0,0 c -3,1 -6,2 -9,3 -13,5 -16,14 -15,27 0,0 0,0 -1,-1 l 0,1 1,4 0,4 1,4 1,3 1,4 1,3 1,3 2,2 1,2 2,1 3,1 2,1 3,0 9,0 3,0 9,0 3,0 8,0 3,0 3,0 3,0 3,0 3,0 9,0 3,0 1,0 z m -20,-65 c 30,-39 22,-81 -12,-127 -32,50 -45,94 -14,127 l -2,0 4,1 3,0 4,1 4,0 4,-1 4,0 4,-1 1,0 z"
          id="path1998"
          inkscape:connector-curvature="0"
          style="fill:#ffcc00" />
      <path
          class="fil12"
          d="m 23993,32950 c -14,33 -42,44 -72,46 22,66 110,74 138,9 -7,-7 -15,-14 -24,-22 -13,-10 -25,-22 -39,-32 -1,-1 -2,-1 -3,-1 z m -159,1 c -15,33 -43,45 -73,47 23,68 117,73 142,1 -37,-8 -57,-19 -69,-48 z m 75,-60 c -15,26 -40,35 -67,37 22,65 108,73 138,11 -10,-7 -21,-14 -31,-21 -6,-3 -12,-6 -17,-11 -8,-5 -15,-10 -23,-16 z m -86,-62 c -16,21 -39,30 -64,31 21,62 100,72 133,20 -24,-17 -47,-34 -69,-51 z m -79,-70 c -16,22 -39,31 -65,32 20,60 94,72 129,26 -23,-19 -45,-38 -64,-58 z m -132,-13 c 29,41 90,43 120,0 -26,-28 -46,-57 -59,-87 -17,31 -37,60 -61,87 z m -76,72 c 34,44 107,39 129,-23 -32,-7 -52,-16 -64,-37 -20,21 -42,41 -65,60 z m 138,-4 c -14,33 -42,44 -72,46 22,68 116,74 141,2 -37,-8 -57,-19 -69,-48 z m 79,67 c -15,33 -43,45 -73,47 23,68 117,73 142,2 -37,-9 -57,-20 -69,-49 z m -80,70 c -15,33 -42,45 -72,47 22,68 116,73 141,1 -37,-8 -57,-19 -69,-48 z m -79,-68 c -14,33 -42,45 -72,47 23,68 116,74 141,2 -36,-8 -56,-20 -69,-49 z m -79,67 c -15,33 -43,44 -73,46 23,69 116,74 142,2 -37,-8 -57,-19 -69,-48 z m -61,-69 c 32,49 109,46 132,-18 -31,-7 -49,-15 -62,-35 -22,18 -46,36 -70,53 z m -88,59 c 29,59 114,60 138,-8 -34,-8 -53,-17 -66,-41 -4,3 -8,6 -12,8 -20,14 -40,27 -60,41 z m -11,12 c -4,1 -7,3 -11,4 -7,5 -13,10 -20,16 -14,11 -27,22 -38,35 27,60 114,62 138,-7 -37,-8 -57,-19 -69,-48 z m -136,233 c 21,-6 40,-22 49,-48 -18,-4 -32,-9 -43,-16 -5,20 -7,42 -6,64 z m 57,-165 c -2,2 -4,5 -7,7 -17,23 -31,49 -40,76 37,30 97,20 116,-35 -36,-8 -56,-19 -69,-48 z m 80,69 c -14,33 -42,45 -72,47 22,68 116,74 141,2 -37,-8 -57,-19 -69,-49 z m 80,-69 c -15,33 -42,44 -72,46 22,69 116,74 141,2 -37,-8 -57,-19 -69,-48 z m 79,67 c -15,33 -43,45 -73,47 23,68 116,73 142,2 -37,-8 -57,-20 -69,-49 z m 80,-67 c -14,33 -42,44 -72,46 23,69 116,74 142,2 -37,-8 -57,-19 -70,-48 z m 79,67 c -14,33 -42,45 -72,47 22,68 116,73 141,2 -37,-8 -57,-20 -69,-49 z m 81,-68 c -15,33 -42,44 -72,46 22,68 116,74 141,2 -37,-8 -57,-19 -69,-48 z m 79,67 c -15,33 -43,45 -73,47 23,68 117,73 142,1 -37,-8 -57,-19 -69,-48 z m 78,-69 c -14,33 -42,45 -72,47 23,68 116,74 141,2 -36,-8 -56,-20 -69,-49 z m 159,1 c -14,33 -42,44 -71,46 18,55 82,69 119,35 -9,-28 -25,-55 -48,-81 z m -79,67 c -14,33 -42,45 -72,47 22,68 116,73 141,1 -37,-8 -57,-19 -69,-48 z m 132,33 c -13,9 -28,13 -45,14 9,26 29,43 51,50 1,-22 -1,-43 -6,-64 z m -52,37 c -15,33 -42,44 -72,46 18,56 83,70 120,35 4,-12 6,-24 8,-36 -29,-8 -45,-20 -56,-45 z m -157,0 c -15,33 -43,44 -73,46 23,69 116,74 142,2 -37,-8 -57,-19 -69,-48 z m -161,1 c -15,33 -42,45 -72,47 22,68 116,73 141,1 -37,-8 -57,-19 -69,-48 z m -159,0 c -14,33 -42,45 -72,47 23,68 116,73 142,1 -37,-8 -57,-19 -70,-48 z m -159,2 c -15,33 -42,45 -72,47 22,68 116,73 141,2 -37,-9 -57,-20 -69,-49 z m -160,-1 c -12,27 -32,39 -55,44 1,13 4,26 7,39 37,30 98,21 117,-35 -36,-8 -56,-19 -69,-48 z m -23,147 c 7,-8 13,-17 17,-29 -13,-3 -25,-6 -34,-11 5,13 10,27 17,40 z m 103,-77 c -14,33 -42,44 -72,46 22,69 116,74 141,2 -37,-8 -57,-19 -69,-48 z m 160,-1 c -15,33 -43,44 -73,46 23,69 117,74 142,2 -37,-8 -57,-19 -69,-48 z m 158,0 c -14,33 -42,44 -72,46 22,69 116,74 141,2 -37,-8 -57,-19 -69,-48 z m 160,-2 c -15,32 -43,44 -73,46 23,68 117,74 142,2 -37,-8 -57,-19 -69,-48 z m 159,-2 c -14,33 -42,45 -72,47 23,68 116,74 141,2 -37,-8 -56,-20 -69,-49 z m 118,41 c -9,3 -20,5 -31,6 4,11 9,20 16,28 6,-12 11,-23 15,-34 z m -40,29 c -15,33 -43,45 -73,47 8,22 23,38 40,46 19,-23 35,-46 48,-69 -6,-6 -11,-14 -15,-24 z m -158,1 c -14,33 -42,45 -72,47 23,68 116,74 142,2 -37,-8 -57,-20 -70,-49 z m -158,0 c -15,33 -42,45 -72,47 22,68 116,74 141,2 -37,-8 -57,-20 -69,-49 z m -161,0 c -14,33 -42,45 -72,47 23,68 116,74 141,2 -36,-8 -56,-20 -69,-49 z m -157,1 c -15,33 -42,45 -72,47 22,68 116,74 141,2 -37,-8 -57,-20 -69,-49 z m -160,0 c -4,10 -9,18 -16,25 13,22 28,45 47,68 17,-7 31,-22 39,-44 -37,-8 -57,-20 -70,-49 z m 78,69 c -8,19 -21,31 -36,38 2,2 4,5 6,7 l 84,0 c -27,-8 -43,-20 -54,-45 z m 161,1 c -11,25 -30,38 -52,44 l 101,-1 c -25,-8 -39,-19 -49,-43 z m 475,-4 c -15,33 -42,44 -72,46 l 0,0 101,0 c 3,-3 5,-5 7,-8 -17,-8 -28,-19 -36,-38 z m -158,1 c -14,30 -38,43 -66,46 l 123,-1 c -29,-7 -46,-19 -57,-45 z m -159,2 c -12,26 -31,39 -54,44 l 105,0 c -25,-8 -41,-20 -51,-44 z"
          id="path2000"
          inkscape:connector-curvature="0"
          style="fill:#ffffff" />
   </g>
</svg>
