<?xml version="1.0" encoding="UTF-8" standalone="no"?>
<svg
    xmlns:dc="http://purl.org/dc/elements/1.1/"
    xmlns:cc="http://creativecommons.org/ns#"
    xmlns:rdf="http://www.w3.org/1999/02/22-rdf-syntax-ns#"
    xmlns:svg="http://www.w3.org/2000/svg"
    xmlns="http://www.w3.org/2000/svg"
    xmlns:sodipodi="http://sodipodi.sourceforge.net/DTD/sodipodi-0.dtd"
    xmlns:inkscape="http://www.inkscape.org/namespaces/inkscape"
    id="city_nnov"
    data-name="nnov"
    width="52.5mm"
    height="52.5mm"
    viewBox="0 0 148.82 148.82"
    version="1.1"
    inkscape:version="0.91 r13725"
    sodipodi:docname="_sterlitamak.svg">
   <metadata
       id="metadata22">
      <rdf:RDF>
         <cc:Work
             rdf:about="">
            <dc:format>image/svg+xml</dc:format>
            <dc:type
                rdf:resource="http://purl.org/dc/dcmitype/StillImage" />
            <dc:title></dc:title>
         </cc:Work>
      </rdf:RDF>
   </metadata>
   <defs
       id="defs20" />
   <sodipodi:namedview
       pagecolor="#ffffff"
       bordercolor="#666666"
       borderopacity="1"
       objecttolerance="10"
       gridtolerance="10"
       guidetolerance="10"
       inkscape:pageopacity="0"
       inkscape:pageshadow="2"
       inkscape:window-width="640"
       inkscape:window-height="480"
       id="namedview18"
       showgrid="false"
       inkscape:zoom="1.268656085"
       inkscape:cx="93.01181102"
       inkscape:cy="93.01181102"
       inkscape:current-layer="city_nnov" />
   <g
       transform="matrix(0.0283466687,0,0,0.0283466716,-1040.256604,-892.9464103)"
       style="clip-rule:evenodd;fill-rule:evenodd;image-rendering:optimizeQuality;shape-rendering:geometricPrecision;text-rendering:geometricPrecision"
       id="sterlitamak">
      <path
          class="fil10"
          d="m 41375,34713 c -177,94 -411,80 -569,-34 l 5,0 c 0,0 -2,1 -2,1 -177,126 -445,126 -622,-1 l 5,0 c 0,0 -2,1 -2,1 -178,126 -445,126 -622,-1 l 5,0 c 0,0 -1,1 -1,1 -178,126 -446,126 -623,-1 l 5,0 c 0,0 -1,1 -1,1 -178,126 -446,126 -623,-1 l 5,0 c 0,0 -1,1 -1,0 -178,127 -445,127 -623,0 l 5,0 c 0,0 -1,1 -1,1 -94,67 -215,100 -340,94 l 1,-9 c 123,6 241,-27 334,-93 l 4,-2 2,2 c 175,125 438,125 613,0 l 1,0 3,-2 2,2 c 175,125 438,125 613,0 l 1,0 3,-2 2,2 c 174,125 438,125 613,0 l 1,0 3,-2 2,2 c 174,125 437,125 612,1 l 2,-1 2,-2 3,2 c 174,125 437,125 612,0 l 2,0 2,-2 3,2 c 157,112 388,125 562,32 l 2,-2 0,11 z"
          id="path1814"
          inkscape:connector-curvature="0"
          style="fill:#000000;fill-rule:nonzero" />
      <path
          class="fil10"
          d="m 41375,34660 -2,2 c -174,93 -405,80 -562,-32 l -3,-2 -2,1 -1,1 c -175,125 -439,125 -613,0 l -3,-2 -2,1 -1,1 c -175,125 -439,125 -613,0 l -2,-2 -3,1 -1,1 c -175,125 -439,125 -613,0 l -2,-2 -3,1 -1,1 c -175,125 -438,125 -613,0 l -2,-2 -3,1 -1,2 c -175,124 -439,123 -613,-1 l -2,-2 -3,1 -1,1 c -93,66 -211,99 -334,93 l -1,9 c 125,6 246,-27 340,-94 0,0 1,-1 1,-1 l -5,0 c 177,127 445,127 623,1 -1,0 1,-1 1,-1 l -5,0 c 177,127 445,127 623,1 0,0 1,-1 1,-1 l -5,0 c 177,127 445,127 623,1 0,0 1,-1 1,-1 l -5,0 c 177,127 445,127 623,0 0,1 1,0 1,0 l -5,0 c 177,127 445,127 622,1 0,0 2,-1 2,-1 l -5,0 c 158,114 392,127 569,33 l 0,-10 z"
          id="path1816"
          inkscape:connector-curvature="0"
          style="fill:#000000;fill-rule:nonzero" />
      <path
          class="fil10"
          d="m 41375,34798 c -177,94 -411,80 -569,-34 l 5,0 c 0,0 -2,1 -2,1 -177,127 -445,126 -622,-1 l 5,0 c 0,0 -2,1 -2,1 -178,126 -445,126 -622,-1 l 5,0 c 0,0 -1,1 -1,1 -178,126 -446,126 -623,-1 l 5,0 c 0,0 -1,1 -1,1 -178,126 -446,126 -623,-1 l 5,0 c 0,0 -1,1 -1,1 -178,127 -445,126 -623,-1 l 5,0 c 0,0 -1,1 -1,1 -94,67 -215,100 -340,94 l 1,-9 c 123,7 241,-26 334,-93 l 1,0 3,-2 2,2 c 175,125 438,125 613,0 l 4,-2 2,2 c 175,125 438,125 613,1 l 1,-1 3,-2 2,2 c 174,125 438,125 613,0 l 1,0 3,-2 2,2 c 174,125 437,125 612,1 l 2,-1 2,-2 3,2 c 174,125 437,125 612,1 l 2,-1 2,-2 3,2 c 157,112 388,126 562,32 l 2,-2 0,11 z"
          id="path1818"
          inkscape:connector-curvature="0"
          style="fill:#000000;fill-rule:nonzero" />
      <path
          class="fil10"
          d="m 41375,34746 -2,1 c -174,93 -405,80 -562,-32 l -3,-2 -2,2 -1,0 c -175,125 -439,125 -613,0 l -3,-2 -2,2 -1,0 c -175,125 -439,125 -613,0 l -2,-2 -3,2 -1,0 c -175,125 -439,125 -613,0 l -2,-2 -3,2 -1,0 c -175,125 -438,125 -613,0 l -2,-2 -3,2 -1,1 c -175,124 -439,124 -613,-1 l -2,-2 -3,2 -1,0 c -93,67 -211,99 -334,93 l -1,9 c 125,6 246,-27 340,-94 0,0 1,-1 1,-1 l -5,0 c 177,127 445,127 623,1 -1,0 1,-1 1,-1 l -5,0 c 177,127 445,127 623,1 0,0 1,-1 1,-1 l -5,0 c 177,127 445,127 623,1 0,0 1,-1 1,-1 l -5,0 c 177,127 445,127 623,1 0,0 1,-1 1,-1 l -5,0 c 177,127 445,127 622,1 0,0 2,-1 2,-1 l -5,0 c 158,114 392,128 569,34 l 0,-10 z"
          id="path1820"
          inkscape:connector-curvature="0"
          style="fill:#000000;fill-rule:nonzero" />
      <path
          class="fil10"
          d="m 41375,34882 c -177,94 -411,81 -569,-33 l 5,0 c 0,0 -2,1 -2,0 -177,127 -445,127 -622,0 l 5,0 c 0,0 -2,1 -2,1 -178,126 -445,126 -622,-1 l 5,0 c 0,0 -1,0 -1,0 -178,127 -446,127 -623,0 l 5,0 c 0,0 -1,1 -1,0 -178,127 -446,127 -623,0 l 5,0 c 0,0 -1,0 -1,0 -178,127 -445,127 -623,0 l 5,0 c 0,0 -1,0 -1,0 -94,68 -215,101 -340,95 l 1,-9 c 123,6 241,-27 334,-93 l 4,-2 2,1 c 175,126 438,126 613,1 l 1,-1 3,-1 2,1 c 175,126 438,126 613,1 l 1,-1 3,-1 2,1 c 174,126 438,126 613,1 l 1,-1 3,-1 2,1 c 174,125 437,126 612,1 l 2,-1 2,-1 3,1 c 174,126 437,126 612,1 l 2,-1 2,-1 3,1 c 157,113 388,126 562,32 l 2,-1 0,10 z"
          id="path1822"
          inkscape:connector-curvature="0"
          style="fill:#000000;fill-rule:nonzero" />
      <path
          class="fil10"
          d="m 41375,34830 -2,1 c -174,94 -405,81 -562,-32 l -3,-1 -2,1 -1,1 c -175,125 -439,124 -613,-1 l -3,-1 -2,1 -1,1 c -175,125 -439,124 -613,-1 l -2,-1 -3,1 -1,1 c -175,125 -439,124 -613,-1 l -2,-1 -3,1 -1,1 c -175,125 -438,124 -613,-1 l -2,-1 -3,1 -1,1 c -175,125 -439,124 -613,-1 l -2,-1 -3,1 -1,1 c -93,66 -211,99 -334,93 l -1,9 c 125,6 246,-27 340,-95 0,0 1,0 1,0 l -5,-1 c 177,128 445,128 623,2 -1,0 1,-1 1,-1 l -5,-1 c 177,128 445,128 623,1 0,0 1,0 1,0 l -5,-1 c 177,128 445,128 623,1 0,0 1,0 1,0 l -5,-1 c 177,128 445,128 623,1 0,0 1,0 1,0 l -5,-1 c 177,128 445,128 622,1 0,0 2,0 2,0 l -5,-1 c 158,114 392,128 569,34 l 0,-10 z"
          id="path1824"
          inkscape:connector-curvature="0"
          style="fill:#000000;fill-rule:nonzero" />
      <path
          class="fil10"
          d="m 41375,34967 c -177,94 -411,80 -569,-34 l 5,0 c 0,0 -2,1 -2,1 -177,127 -445,126 -622,-1 l 5,0 c 0,0 -2,1 -2,1 -178,127 -445,126 -622,-1 l 5,0 c 0,0 -1,1 -1,1 -178,127 -446,126 -623,-1 l 5,0 c 0,0 -1,1 -1,1 -178,127 -446,126 -623,-1 l 5,0 c 0,0 -1,1 -1,1 -178,127 -445,127 -623,-1 l 5,0 c 0,0 -1,1 -1,1 -94,67 -215,101 -340,95 l 1,-9 c 123,6 241,-27 334,-93 l 4,-3 2,2 c 175,125 438,126 613,1 l 4,-3 2,2 c 175,125 438,126 613,1 l 1,-1 3,-2 2,2 c 174,125 438,126 613,1 l 1,-1 3,-2 2,2 c 174,125 437,126 612,1 l 2,-1 2,-2 3,2 c 174,125 437,126 612,1 l 2,-1 2,-2 3,2 c 157,113 388,126 562,32 l 2,-1 0,10 z"
          id="path1826"
          inkscape:connector-curvature="0"
          style="fill:#000000;fill-rule:nonzero" />
      <path
          class="fil10"
          d="m 41375,34915 -2,1 c -174,94 -405,81 -562,-32 l -3,-2 -2,2 -1,1 c -175,124 -439,124 -613,-1 l -3,-2 -2,2 -1,1 c -175,124 -439,124 -613,-1 l -2,-2 -3,2 -1,1 c -175,124 -439,124 -613,-1 l -2,-2 -3,2 -1,1 c -175,124 -438,124 -613,-1 l -2,-2 -3,2 -1,1 c -175,124 -439,124 -613,-1 l -2,-2 -3,2 -1,1 c -93,66 -211,99 -334,93 l -1,8 c 125,7 246,-27 340,-94 0,0 1,-1 1,-1 l -5,0 c 177,127 445,128 623,1 -1,0 1,-1 1,-1 l -5,0 c 177,127 445,128 623,1 0,0 1,-1 1,-1 l -5,0 c 177,127 445,128 623,1 0,0 1,-1 1,-1 l -5,0 c 177,127 445,128 623,1 0,0 1,-1 1,-1 l -5,0 c 177,127 445,128 622,1 0,0 2,-1 2,-1 l -5,0 c 158,114 392,128 569,34 l 0,-10 z"
          id="path1828"
          inkscape:connector-curvature="0"
          style="fill:#000000;fill-rule:nonzero" />
      <path
          class="fil10"
          d="m 41375,35052 c -177,94 -411,80 -569,-34 l 5,0 c 0,0 -2,1 -2,1 -177,127 -445,126 -622,-1 l 5,0 c 0,0 -2,1 -2,1 -178,127 -445,126 -622,-1 l 5,0 c 0,0 -1,1 -1,1 -178,127 -446,126 -623,-1 l 5,0 c 0,0 -1,1 -1,1 -178,127 -446,126 -623,-1 l 5,0 c 0,0 -1,1 -1,1 -177,127 -445,126 -623,-1 l 5,0 c 0,0 -1,1 -1,1 -94,67 -215,101 -340,94 l 1,-9 c 123,7 241,-26 334,-92 l 4,-3 3,2 c 174,125 437,125 612,0 l 1,0 3,-2 2,2 c 175,125 438,125 613,1 l 1,-1 3,-2 2,2 c 175,125 438,125 613,0 l 1,0 3,-2 2,2 c 174,125 437,125 612,1 l 2,-1 2,-2 3,2 c 174,125 438,125 612,1 l 2,-1 2,-2 3,2 c 157,112 388,125 562,32 l 2,-2 0,11 z"
          id="path1830"
          inkscape:connector-curvature="0"
          style="fill:#000000;fill-rule:nonzero" />
      <path
          class="fil10"
          d="m 41375,35000 -2,1 c -174,93 -405,80 -562,-32 l -3,-2 -2,2 -1,0 c -175,125 -439,125 -613,0 l -3,-2 -2,2 -1,0 c -175,125 -439,125 -613,0 l -2,-2 -3,2 -1,0 c -175,125 -438,125 -613,0 l -2,-2 -3,2 -1,0 c -175,125 -438,125 -613,0 l -2,-2 -3,2 -1,1 c -175,124 -438,124 -612,-1 l -3,-2 -3,2 -1,0 c -93,67 -211,99 -334,93 l -1,9 c 125,6 246,-27 340,-94 0,0 1,-1 1,-1 l -5,0 c 177,127 445,127 623,1 0,0 1,-1 1,-1 l -5,0 c 177,127 445,127 623,1 0,0 1,-1 1,-1 l -5,0 c 177,127 445,127 623,1 0,0 1,-1 1,-1 l -5,0 c 177,127 445,127 623,1 0,0 1,-1 1,-1 l -5,0 c 177,127 445,127 623,1 -1,0 1,-1 1,-1 l -5,0 c 158,114 392,128 569,34 l 0,-10 z"
          id="path1832"
          inkscape:connector-curvature="0"
          style="fill:#000000;fill-rule:nonzero" />
      <path
          class="fil3"
          d="m 38960,34583 c -215,-198 -199,-405 -119,-600 55,-131 160,-242 230,-367 l 3,-8 c 43,-77 79,-160 82,-219 7,-96 -93,-110 -93,-110 -35,-3 -77,0 -102,-4 -1,-21 27,-33 45,-39 18,-6 49,-12 67,-20 17,-9 43,-62 100,-63 108,2 114,105 114,105 20,86 -91,328 -91,328 -4,7 -16,35 -16,35 -54,153 -149,339 -106,485 l 3,10 c 139,-66 24,-205 135,-292 75,-59 291,-213 356,-297 l 7,-9 c 104,-120 201,-250 287,-382 41,53 12,128 15,190 l 1,13 c 29,-14 68,-76 68,-76 17,75 -30,150 -39,222 l 39,-47 0,35 c 4,69 -60,124 -73,188 l 56,-54 0,32 c 5,61 -60,106 -73,161 l 33,-26 2,28 c 3,57 -59,98 -83,145 l -26,26 46,-17 -12,26 c -14,46 -72,69 -94,108 l 44,-18 -8,25 c -6,45 -80,99 -79,101 1,2 28,-17 28,-17 187,-109 317,-258 325,-255 16,4 -14,74 -14,74 10,7 -39,98 -32,108 7,10 -45,87 -42,95 4,7 -43,80 -73,121 -99,139 -258,276 -511,342 -10,1 -47,8 -98,10 l -18,-1 c -100,-6 -198,-36 -284,-92 z"
          id="path1834"
          inkscape:connector-curvature="0"
          style="fill:#ffcc00" />
      <g
          id="g1836">
         <path
             class="fil10"
             d="m 38970,33265 c 0,0 7,-10 19,-16 11,-5 27,-10 27,-10 0,0 23,-6 33,-9 10,-2 24,-7 24,-7 0,0 15,9 23,12 8,4 26,6 26,6 l -17,15 -17,23 -24,-6 c 0,0 -25,-1 -38,-2 -12,-1 -35,4 -35,4 l -22,-4 1,-6 z m 123,22 c 0,0 5,-32 58,-53 -50,9 -76,-18 -76,-18 l 18,71 z m 56,-63 c 0,12 10,23 22,23 13,0 23,-11 23,-23 0,-13 -10,-24 -23,-24 -12,0 -22,11 -22,24 z m 18,0 c 0,2 2,4 4,4 2,0 4,-2 4,-4 0,-3 -2,-5 -4,-5 -2,0 -4,2 -4,5 z m -115,14 14,-3 -14,3 z m -91,37 c 0,0 51,-15 102,-14 l -102,14 z"
             id="path1838"
             inkscape:connector-curvature="0"
             style="fill:#000000;fill-rule:nonzero" />
      </g>
      <path
          class="fil3"
          d="m 40198,34583 c -215,-198 -199,-405 -119,-600 55,-131 160,-242 230,-367 l 3,-8 c 43,-77 79,-160 82,-219 7,-96 -93,-110 -93,-110 -35,-3 -77,0 -102,-4 -1,-21 27,-33 45,-39 18,-6 49,-12 67,-20 17,-9 43,-62 100,-63 107,2 114,105 114,105 20,86 -91,328 -91,328 -4,7 -16,35 -16,35 -54,153 -149,339 -106,485 l 3,10 c 139,-66 24,-205 135,-292 75,-59 291,-213 355,-297 l 8,-9 c 104,-120 201,-250 287,-382 41,53 12,128 15,190 l 1,13 c 29,-14 68,-76 68,-76 17,75 -30,150 -40,222 l 40,-47 0,35 c 4,69 -60,124 -73,188 l 56,-54 0,32 c 5,61 -60,106 -74,161 l 34,-26 2,28 c 3,57 -59,98 -83,145 l -26,26 46,-17 -13,26 c -13,46 -71,69 -93,108 l 44,-18 -8,25 c -6,45 -80,99 -79,101 1,2 27,-17 27,-17 188,-109 318,-258 326,-255 16,4 -14,74 -14,74 10,7 -39,98 -33,108 7,10 -44,87 -41,95 4,7 -43,80 -73,121 -99,139 -258,276 -511,342 -10,1 -47,8 -98,10 l -19,-1 c -99,-6 -198,-36 -283,-92 z"
          id="path1840"
          inkscape:connector-curvature="0"
          style="fill:#ffcc00" />
      <g
          id="g1842">
         <path
             class="fil10"
             d="m 40208,33265 c 0,0 7,-10 18,-16 12,-5 28,-10 28,-10 0,0 23,-6 33,-9 9,-2 24,-7 24,-7 0,0 15,9 23,12 8,4 25,6 25,6 l -16,15 -17,23 -24,-6 c 0,0 -26,-1 -38,-2 -12,-1 -35,4 -35,4 l -23,-4 2,-6 z m 123,22 c 0,0 5,-32 57,-53 -49,9 -76,-18 -76,-18 l 19,71 z m 56,-63 c 0,12 10,23 22,23 12,0 22,-11 22,-23 0,-13 -10,-24 -22,-24 -12,0 -22,11 -22,24 z m 18,0 c 0,2 2,4 4,4 2,0 4,-2 4,-4 0,-3 -2,-5 -4,-5 -2,0 -4,2 -4,5 z m -115,14 14,-3 -14,3 z m -91,37 c 0,0 51,-15 102,-14 l -102,14 z"
             id="path1844"
             inkscape:connector-curvature="0"
             style="fill:#000000;fill-rule:nonzero" />
      </g>
      <path
          class="fil3"
          d="m 37722,34583 c -215,-198 -199,-405 -118,-600 54,-131 159,-242 229,-367 l 3,-8 c 43,-77 79,-160 82,-219 7,-96 -93,-110 -93,-110 -35,-3 -77,0 -102,-4 -1,-21 27,-33 45,-39 18,-6 49,-12 67,-20 17,-9 43,-62 100,-63 108,2 114,105 114,105 20,86 -91,328 -91,328 -4,7 -16,35 -16,35 -54,153 -149,339 -106,485 l 3,10 c 139,-66 24,-205 135,-292 75,-59 291,-213 356,-297 l 7,-9 c 104,-120 202,-250 287,-382 41,53 12,128 15,190 l 1,13 c 29,-14 68,-76 68,-76 18,75 -29,150 -39,222 l 39,-47 0,35 c 4,69 -60,124 -73,188 l 56,-54 0,32 c 5,61 -60,106 -73,161 l 33,-26 2,28 c 3,57 -59,98 -83,145 l -26,26 46,-17 -12,26 c -14,46 -72,69 -94,108 l 45,-18 -9,25 c -6,45 -80,99 -79,101 1,2 28,-17 28,-17 187,-109 317,-258 325,-255 16,4 -13,74 -13,74 9,7 -40,98 -33,108 7,10 -45,87 -42,95 4,7 -43,80 -73,121 -99,139 -258,276 -511,342 -10,1 -47,8 -98,10 l -18,-1 c -100,-6 -198,-36 -284,-92 z"
          id="path1846"
          inkscape:connector-curvature="0"
          style="fill:#ffcc00" />
      <g
          id="g1848">
         <path
             class="fil10"
             d="m 37732,33265 c 0,0 7,-10 19,-16 11,-5 27,-10 27,-10 0,0 23,-6 33,-9 10,-2 24,-7 24,-7 0,0 15,9 23,12 8,4 26,6 26,6 l -17,15 -17,23 -24,-6 c 0,0 -25,-1 -38,-2 -12,-1 -35,4 -35,4 l -22,-4 1,-6 z m 123,22 c 0,0 5,-32 58,-53 -50,9 -76,-18 -76,-18 l 18,71 z m 56,-63 c 0,12 10,23 22,23 13,0 23,-11 23,-23 0,-13 -10,-24 -23,-24 -12,0 -22,11 -22,24 z m 18,0 c 0,2 2,4 4,4 2,0 4,-2 4,-4 0,-3 -2,-5 -4,-5 -2,0 -4,2 -4,5 z m -115,14 14,-3 -14,3 z m -91,37 c 0,0 51,-15 102,-14 l -102,14 z"
             id="path1850"
             inkscape:connector-curvature="0"
             style="fill:#000000;fill-rule:nonzero" />
      </g>
      <path
          class="fil10"
          d="m 37375,34770 c 120,6 242,-26 337,-94 l 2,-1 c 176,127 441,127 618,1 l 1,-1 c 176,127 440,127 617,1 l 2,-1 c 176,127 440,127 617,1 l 1,-1 c 177,127 441,127 618,1 l 1,-1 c 177,127 441,127 618,1 l 1,-1 c 161,115 393,126 567,33 l 0,-43 c -174,94 -406,83 -567,-32 l -1,1 c -177,126 -441,126 -618,-1 l -1,1 c -177,126 -441,126 -618,-1 l -1,1 c -177,126 -441,126 -617,-1 l -2,1 c -177,126 -441,126 -617,-1 l -2,1 c -177,126 -441,126 -617,-1 l -2,1 c -96,68 -217,100 -337,94 l 0,42 z"
          id="path1852"
          inkscape:connector-curvature="0"
          style="fill:#000000;fill-rule:nonzero" />
      <path
          class="fil10"
          d="m 37375,34855 c 120,6 242,-25 337,-94 l 2,-1 c 176,127 441,127 618,1 l 1,-1 c 176,127 440,127 617,1 l 2,-1 c 176,127 440,127 617,1 l 1,-1 c 177,127 441,127 618,1 l 1,-1 c 177,127 441,127 618,1 l 1,-1 c 161,115 393,126 567,33 l 0,-42 c -174,93 -406,82 -567,-33 l -1,1 c -177,126 -441,126 -618,-1 l -1,1 c -177,126 -441,126 -618,-1 l -1,1 c -177,126 -441,126 -617,-1 l -2,1 c -177,126 -441,126 -617,-1 l -2,1 c -177,126 -441,126 -617,-1 l -2,1 c -96,69 -217,100 -337,94 l 0,42 z"
          id="path1854"
          inkscape:connector-curvature="0"
          style="fill:#000000;fill-rule:nonzero" />
      <path
          class="fil10"
          d="m 37375,34940 c 120,5 242,-26 337,-94 l 2,-1 c 176,127 441,127 618,1 l 1,-1 c 176,127 440,127 617,1 l 2,-1 c 176,127 440,127 617,1 l 1,-1 c 177,127 441,127 618,1 l 1,-1 c 177,127 441,127 618,1 l 1,-1 c 161,115 393,126 567,32 l 0,-42 c -174,94 -406,83 -567,-32 l -1,1 c -177,126 -441,126 -618,-1 l -1,1 c -177,126 -441,126 -618,-1 l -1,1 c -177,126 -441,126 -617,-1 l -2,1 c -177,126 -441,126 -617,-1 l -2,1 c -177,126 -441,125 -617,-1 l -2,1 c -96,68 -217,99 -337,93 l 0,43 z"
          id="path1856"
          inkscape:connector-curvature="0"
          style="fill:#000000;fill-rule:nonzero" />
      <path
          class="fil10"
          d="m 37375,35024 c 120,6 242,-25 337,-93 l 2,-1 c 176,126 441,127 618,0 l 1,0 c 176,126 440,127 617,1 l 2,-1 c 176,126 440,127 617,0 l 1,0 c 177,126 441,127 618,1 l 1,-1 c 177,126 441,127 618,1 l 1,-1 c 161,115 393,126 567,32 l 0,-42 c -174,93 -406,83 -567,-32 l -1,0 c -177,126 -441,126 -618,0 l -1,0 c -177,126 -441,126 -618,0 l -1,0 c -177,126 -441,126 -617,0 l -2,0 c -177,126 -441,126 -617,0 l -2,1 c -177,125 -441,125 -617,-1 l -2,0 c -96,69 -217,100 -337,94 l 0,42 z"
          id="path1858"
          inkscape:connector-curvature="0"
          style="fill:#000000;fill-rule:nonzero" />
      <path
          class="fil10"
          d="m 37376,35109 c 119,6 241,-25 337,-94 l 1,-1 c 176,127 441,127 618,1 l 1,-1 c 176,127 440,127 617,1 l 2,-1 c 176,127 440,127 617,1 l 2,-1 c 176,127 440,127 617,1 l 1,-1 c 177,127 441,127 618,1 l 1,-1 c 161,115 393,126 567,33 l 0,-42 c -174,93 -406,82 -567,-33 l -1,1 c -177,126 -441,126 -618,-1 l -1,1 c -177,126 -441,126 -617,-1 l -2,1 c -177,126 -441,126 -617,-1 l -2,1 c -177,126 -441,126 -617,-1 l -2,1 c -177,126 -441,126 -617,-1 l -1,1 c -96,68 -218,100 -337,94 l 0,42 z"
          id="path1860"
          inkscape:connector-curvature="0"
          style="fill:#000000;fill-rule:nonzero" />
   </g>
</svg>
