<?xml version="1.0" encoding="UTF-8" standalone="no"?>
<svg
    xmlns:dc="http://purl.org/dc/elements/1.1/"
    xmlns:cc="http://creativecommons.org/ns#"
    xmlns:rdf="http://www.w3.org/1999/02/22-rdf-syntax-ns#"
    xmlns:svg="http://www.w3.org/2000/svg"
    xmlns="http://www.w3.org/2000/svg"
    xmlns:sodipodi="http://sodipodi.sourceforge.net/DTD/sodipodi-0.dtd"
    xmlns:inkscape="http://www.inkscape.org/namespaces/inkscape"
    id="city_nnov"
    data-name="nnov"
    width="52.5mm"
    height="52.5mm"
    viewBox="0 0 148.82 148.82"
    version="1.1"
    inkscape:version="0.91 r13725"
    sodipodi:docname="_syktyvkar.svg">
   <metadata
       id="metadata22">
      <rdf:RDF>
         <cc:Work
             rdf:about="">
            <dc:format>image/svg+xml</dc:format>
            <dc:type
                rdf:resource="http://purl.org/dc/dcmitype/StillImage" />
            <dc:title></dc:title>
         </cc:Work>
      </rdf:RDF>
   </metadata>
   <defs
       id="defs20" />
   <sodipodi:namedview
       pagecolor="#ffffff"
       bordercolor="#666666"
       borderopacity="1"
       objecttolerance="10"
       gridtolerance="10"
       guidetolerance="10"
       inkscape:pageopacity="0"
       inkscape:pageshadow="2"
       inkscape:window-width="640"
       inkscape:window-height="480"
       id="namedview18"
       showgrid="false"
       inkscape:zoom="1.268656085"
       inkscape:cx="93.01181102"
       inkscape:cy="93.01181102"
       inkscape:current-layer="city_nnov" />
   <g
       transform="matrix(0.0283466687,0,0,0.0283466716,-1339.097411,-892.8036314)"
       style="clip-rule:evenodd;fill-rule:evenodd;image-rendering:optimizeQuality;shape-rendering:geometricPrecision;text-rendering:geometricPrecision"
       id="syktyvkar">
      <path
          class="fil4"
          d="m 49875,32442 -2,2 -81,81 -92,92 -85,85 -5,6 3,3 258,258 4,4 4,-4 258,-258 3,-3 -5,-6 -85,-85 -92,-92 -81,-81 -2,-2 z m -488,33 139,139 86,-86 -139,-139 91,-91 139,139 81,-81 -139,-139 92,-92 138,138 138,-138 92,92 -139,139 81,81 139,-139 92,91 -140,139 86,86 139,-139 92,91 -140,139 140,139 -92,92 -139,-139 -86,85 140,139 -92,92 -139,-139 -81,81 139,139 -92,92 -138,-138 -138,138 -92,-92 139,-139 -81,-81 -139,139 -91,-92 139,-139 -86,-85 -139,139 -91,-92 139,-139 -139,-139 91,-91 z"
          id="path1806"
          inkscape:connector-curvature="0"
          style="fill:#999999" />
      <path
          class="fil3"
          d="m 49875,35079 -379,391 c -273,-309 -545,-617 -817,-925 -84,-124 39,-376 143,-525 139,-201 335,-366 554,-480 24,-72 77,-152 148,-177 72,-25 164,17 223,46 l 128,0 128,0 c 59,-29 151,-71 223,-46 72,25 124,105 148,177 219,114 415,279 554,480 104,149 227,401 143,525 -272,308 -544,616 -816,925 l -380,-391 z m 0,-1544 -97,0 c -9,-25 -22,-47 -37,-65 -32,-39 -75,-61 -124,-66 -14,-1 -28,-1 -43,0 -120,10 -155,151 -179,249 -2,9 -5,19 -6,26 -6,23 -62,73 -129,133 -119,107 -272,245 -268,353 -56,12 -115,67 -156,129 -9,13 -16,27 -23,40 -7,13 -13,27 -18,40 l 0,0 c -21,57 -14,125 9,184 4,12 9,23 15,34 5,10 11,21 18,30 l 0,0 c 94,140 211,262 327,384 105,109 198,202 299,306 l -57,-141 137,49 -42,-144 137,57 -30,-149 144,54 -91,-122 c 0,-3 0,-5 1,-7 4,-55 9,-117 -29,-158 -42,-46 -86,-95 -130,-146 -66,-76 -135,-154 -200,-221 l 67,-46 7,-4 0,-9 3,-437 c 1,-58 27,-81 50,-102 10,-9 20,-17 27,-27 l 0,0 0,0 0,0 c 3,-4 5,-7 8,-12 3,-4 6,-9 9,-13 15,-25 31,-57 35,-86 3,-28 10,-65 23,-95 12,-25 30,-45 58,-45 l 0,0 c 9,1 17,2 25,4 8,3 15,6 22,10 36,21 58,63 59,97 l 5,104 c -36,-1 -71,-1 -103,6 -40,8 -75,25 -103,57 -17,19 -33,41 -46,65 -13,24 -21,50 -21,77 l 0,337 0,1 0,0 c 6,83 79,190 153,299 41,61 83,123 114,181 -2,6 -2,12 -2,18 1,8 3,17 6,26 16,43 61,95 85,111 10,7 21,9 32,11 l 1,0 c 0,4 0,9 0,14 -1,37 -2,80 54,86 1,0 3,0 4,0 2,0 3,0 5,0 56,-6 54,-49 53,-86 0,-5 0,-10 0,-14 l 1,0 c 11,-2 22,-4 32,-11 24,-16 69,-68 85,-111 3,-9 5,-18 6,-26 0,-6 0,-12 -2,-18 31,-58 73,-120 114,-181 74,-109 147,-216 153,-299 l 0,0 0,-1 0,-337 c 0,-27 -8,-53 -21,-77 -13,-24 -29,-46 -46,-65 -28,-32 -63,-49 -103,-57 -32,-7 -67,-7 -103,-6 l 5,-104 c 1,-34 23,-76 59,-97 7,-4 14,-7 22,-10 8,-2 16,-3 25,-4 l 0,0 c 28,0 46,20 58,45 13,30 20,67 23,95 4,29 20,61 35,86 3,4 6,9 9,13 3,5 5,8 8,12 l 0,0 0,0 0,0 c 8,10 17,18 27,27 23,21 49,44 50,102 l 3,437 0,9 7,4 67,46 c -65,67 -134,145 -200,221 -44,51 -88,100 -130,146 -38,41 -33,103 -29,158 1,2 1,4 1,7 l -91,122 144,-54 -30,149 137,-57 -42,144 137,-49 -57,141 c 101,-104 194,-197 299,-306 117,-122 233,-244 327,-384 l 0,0 c 7,-9 13,-20 18,-30 6,-11 11,-22 15,-34 23,-59 30,-127 9,-184 l 0,0 c -5,-13 -11,-27 -18,-40 -7,-13 -14,-27 -23,-40 -41,-62 -100,-117 -156,-129 4,-108 -149,-246 -268,-353 -67,-60 -122,-110 -128,-133 -2,-7 -5,-17 -7,-26 -24,-98 -59,-239 -179,-249 -15,-1 -29,-1 -43,0 -49,5 -92,27 -124,66 -15,18 -27,40 -37,65 l -97,0 z m 706,728 c -35,27 -72,60 -110,98 l -66,-45 -3,-428 c 0,-72 -33,-101 -61,-126 -8,-8 -16,-15 -22,-22 l 0,0 0,0 0,0 c -2,-4 -5,-7 -7,-11 -3,-3 -5,-7 -8,-12 -14,-22 -27,-50 -31,-74 -4,-30 -10,-70 -26,-103 -17,-37 -44,-65 -88,-64 l 0,0 c -12,0 -23,2 -33,5 -10,3 -20,8 -29,13 -46,27 -74,80 -76,123 l -5,122 -1,18 18,-1 c 39,-2 78,-3 113,4 33,7 62,21 85,47 15,18 30,38 41,59 11,20 18,41 18,62 l 0,337 c -6,74 -76,176 -147,281 -40,59 -81,119 -111,175 -4,-2 -8,-3 -12,-4 -3,-1 -6,-1 -9,-1 l 0,-316 c 56,-4 100,-16 134,-35 53,-29 81,-74 88,-132 l 2,-13 -12,-4 c -71,-27 -151,-46 -221,4 -48,35 -75,94 -97,160 l -7,20 12,1 0,338 0,0 0,0 c 0,6 -1,13 -4,19 -1,1 -1,2 -2,3 -2,4 -5,8 -8,9 -5,3 -13,3 -21,2 -8,1 -15,1 -21,-2 -3,-1 -6,-5 -8,-9 -1,-1 -1,-2 -2,-3 -3,-6 -4,-13 -4,-19 l 0,0 0,0 0,-338 12,-1 -7,-20 c -22,-66 -49,-125 -97,-160 -70,-50 -150,-31 -221,-4 l -12,4 2,13 c 7,58 35,103 88,132 34,19 78,31 134,35 l 0,316 c -3,0 -6,0 -9,1 -4,1 -8,2 -12,4 -30,-56 -71,-116 -111,-175 -71,-105 -141,-207 -147,-281 l 0,-337 c 0,-21 7,-42 18,-62 11,-21 26,-41 41,-59 23,-26 52,-40 85,-47 35,-7 74,-6 114,-4 l 17,1 -1,-18 -5,-122 c -2,-43 -30,-96 -76,-123 -9,-5 -19,-10 -29,-13 -10,-3 -21,-5 -33,-5 l 0,0 c -44,-1 -71,27 -88,64 -15,33 -22,73 -26,103 -3,24 -17,52 -31,74 -2,5 -5,9 -8,12 -2,4 -4,7 -7,11 l 0,0 0,0 0,0 c -5,7 -14,14 -22,22 -28,25 -60,54 -61,126 l -3,428 -65,45 c -39,-38 -76,-71 -111,-98 -45,-33 -58,-51 -106,-42 27,44 51,40 98,77 24,19 49,41 75,65 77,74 162,170 243,263 45,52 89,102 130,147 29,30 24,84 21,132 l -98,-35 0,130 -114,-31 10,120 -9,8 -100,-21 -4,42 c -42,-46 -85,-90 -128,-135 -115,-120 -231,-241 -323,-379 l 0,0 c -6,-8 -11,-18 -17,-27 -5,-10 -9,-20 -13,-30 -20,-53 -27,-113 -8,-162 l 0,0 c 4,-12 9,-24 16,-36 6,-13 13,-25 21,-37 40,-61 97,-114 148,-116 l 19,-1 -4,-19 0,0 0,0 c -18,-93 137,-233 256,-340 70,-64 129,-117 138,-149 2,-10 4,-18 6,-27 22,-88 54,-216 151,-224 13,-1 25,-1 37,0 40,5 76,22 102,54 27,33 46,82 51,146 3,32 2,68 -2,108 l 32,3 c 5,-42 5,-80 2,-113 -2,-24 -5,-46 -11,-66 l 87,0 87,0 c -6,20 -9,42 -11,66 -3,33 -2,71 2,113 l 32,-3 c -4,-40 -5,-76 -2,-108 5,-64 24,-113 51,-146 27,-32 62,-49 102,-54 12,-1 24,-1 37,0 97,8 129,136 151,224 2,9 4,17 6,27 9,32 68,85 138,149 120,107 275,247 256,340 l 0,0 0,0 -4,19 19,1 c 51,2 108,55 148,116 8,12 15,24 22,37 6,12 11,24 16,36 l 0,0 c 18,49 12,109 -9,162 -4,10 -8,20 -13,30 -5,9 -11,19 -17,27 l 0,0 c -92,138 -208,259 -323,379 -43,45 -86,89 -127,135 l -4,-42 -101,21 -9,-8 11,-120 -115,31 0,-130 -97,35 c -4,-48 -8,-102 20,-132 41,-45 85,-95 130,-147 82,-93 166,-189 243,-263 26,-24 51,-46 75,-65 47,-37 71,-33 98,-77 -48,-9 -61,9 -106,42 z m -706,542 c 12,1 24,0 36,-6 9,-5 16,-13 21,-22 2,-2 2,-4 3,-5 5,-10 7,-22 7,-33 l 0,0 0,0 0,-337 c 13,0 25,0 37,0 l 0,334 0,25 23,-10 c 4,-2 8,-3 11,-2 3,0 6,2 9,6 l 2,-1 c 1,2 1,5 1,8 -1,5 -2,11 -5,17 -13,37 -51,82 -71,95 -5,3 -13,5 -21,6 -5,1 -10,2 -15,3 l -10,3 -1,10 0,0 c -2,10 -1,20 -1,30 1,24 1,51 -25,54 0,0 -1,0 -1,0 0,0 -1,0 -1,0 -26,-3 -26,-30 -25,-54 0,-10 1,-20 -1,-30 l 0,0 -1,-10 -10,-3 c -5,-1 -10,-2 -15,-3 -8,-1 -16,-3 -21,-6 -20,-13 -58,-58 -71,-95 -3,-6 -4,-12 -4,-17 -1,-3 0,-6 0,-8 l 2,1 c 3,-4 6,-6 9,-6 3,-1 7,0 12,2 l 23,10 0,-25 0,-334 c 11,0 23,0 36,0 l 0,337 0,0 0,0 c 0,11 2,23 7,33 1,1 2,3 3,5 5,9 12,17 21,22 12,6 24,7 36,6 z m 206,-588 c -31,30 -54,37 -76,78 -4,-3 -26,-14 -30,-16 24,-34 69,-51 106,-62 z m -35,58 c 55,-60 102,-58 153,-34 -8,42 -30,74 -69,95 -21,12 -51,21 -81,26 -8,-22 -15,-37 -28,-48 7,-14 16,-27 25,-39 z m -377,-58 c 31,30 54,37 76,78 4,-3 26,-14 30,-16 -24,-34 -69,-51 -106,-62 z m 35,58 c -55,-60 -102,-58 -153,-34 8,42 30,74 69,95 21,12 51,21 81,26 8,-22 15,-37 28,-48 -7,-14 -15,-27 -25,-39 z"
          id="path1808"
          inkscape:connector-curvature="0"
          style="fill:#ffcc00" />
      <polygon
          class="fil2"
          points="50226,35555 50340,35670 49931,36070 49875,36125 49819,36070 49410,35670 49524,35555 49793,35818 49794,35701 49573,35502 49681,35381 49795,35484 49797,35272 49875,35196 49953,35272 49955,35484 50069,35381 50177,35502 49956,35701 49957,35818 "
          id="polygon1810"
          style="fill:#000000" />
   </g>
</svg>
