<?xml version="1.0" encoding="UTF-8" standalone="no"?>
<svg
    xmlns:dc="http://purl.org/dc/elements/1.1/"
    xmlns:cc="http://creativecommons.org/ns#"
    xmlns:rdf="http://www.w3.org/1999/02/22-rdf-syntax-ns#"
    xmlns:svg="http://www.w3.org/2000/svg"
    xmlns="http://www.w3.org/2000/svg"
    xmlns:sodipodi="http://sodipodi.sourceforge.net/DTD/sodipodi-0.dtd"
    xmlns:inkscape="http://www.inkscape.org/namespaces/inkscape"
    id="city_nnov"
    data-name="nnov"
    width="52.5mm"
    height="52.5mm"
    viewBox="0 0 148.82 148.82"
    version="1.1"
    inkscape:version="0.91 r13725"
    sodipodi:docname="_tikhvin.svg">
   <metadata
       id="metadata22">
      <rdf:RDF>
         <cc:Work
             rdf:about="">
            <dc:format>image/svg+xml</dc:format>
            <dc:type
                rdf:resource="http://purl.org/dc/dcmitype/StillImage" />
            <dc:title></dc:title>
         </cc:Work>
      </rdf:RDF>
   </metadata>
   <defs
       id="defs20" />
   <sodipodi:namedview
       pagecolor="#ffffff"
       bordercolor="#666666"
       borderopacity="1"
       objecttolerance="10"
       gridtolerance="10"
       guidetolerance="10"
       inkscape:pageopacity="0"
       inkscape:pageshadow="2"
       inkscape:window-width="640"
       inkscape:window-height="480"
       id="namedview18"
       showgrid="false"
       inkscape:zoom="1.268656085"
       inkscape:cx="93.01181102"
       inkscape:cy="93.01181102"
       inkscape:current-layer="city_nnov" />
   <g
       transform="matrix(0.0283466687,0,0,0.0283466716,-297.5801839,-1041.623657)"
       style="clip-rule:evenodd;fill-rule:evenodd;image-rendering:optimizeQuality;shape-rendering:geometricPrecision;text-rendering:geometricPrecision"
       id="tikhvin">
      <path
          class="fil4"
          d="m 10893,38984 c 189,191 406,360 650,500 1268,733 2848,463 3812,-559 l 0,-664 c -964,1023 -2544,1292 -3812,560 -244,-141 -461,-310 -650,-501 l 0,664 z"
          id="path1608"
          inkscape:connector-curvature="0"
          style="fill:#999999" />
      <path
          class="fil3"
          d="m 12570,37375 c -1,11 -1,22 -1,33 0,306 249,556 555,556 306,0 555,-250 555,-556 0,-11 0,-22 -1,-33 l -550,0 -558,0 z m 462,1506 25,16 22,18 20,19 10,10 -5,-946 c -43,-2 -85,-8 -125,-18 l -182,926 1,-1 36,-21 36,-15 35,-10 35,-3 33,3 31,9 28,13 z m -1499,-1506 1002,0 c 0,11 -1,22 -1,33 0,38 4,75 11,111 l -972,224 17,-21 17,-28 14,-29 9,-31 5,-31 0,-32 -5,-32 -9,-31 -13,-30 -17,-29 -20,-29 -24,-27 -13,-13 -1,-5 z m 2180,0 1002,0 -1,5 -13,13 -24,27 -20,29 -17,29 -13,30 -9,31 -5,32 0,32 5,31 9,31 14,29 17,28 17,21 -972,-224 c 7,-36 11,-73 11,-111 0,-11 0,-22 -1,-33 z m -569,623 -5,946 10,-10 20,-19 22,-18 25,-16 28,-13 31,-9 33,-3 35,3 35,10 36,15 36,21 1,1 -182,-926 c -40,10 -82,16 -125,18 z m 145,-23 185,937 9,-13 20,-25 23,-22 25,-19 27,-16 30,-13 32,-9 33,-4 34,0 36,4 36,9 28,9 -400,-887 c -37,20 -76,36 -118,49 z m 136,-60 402,891 13,-35 16,-34 20,-30 23,-26 27,-21 29,-16 31,-11 32,-6 33,-1 32,3 33,7 -626,-766 c -20,17 -42,32 -65,45 z m 81,-58 620,758 0,-7 5,-37 10,-36 14,-32 19,-30 24,-26 28,-21 32,-16 34,-11 36,-6 38,-3 8,1 -787,-618 c -24,31 -51,59 -81,84 z m 94,-100 797,625 0,0 -5,-45 0,-42 5,-38 11,-36 16,-32 22,-28 25,-23 28,-18 29,-14 31,-11 13,-3 -914,-433 c -17,35 -36,67 -58,98 z m 66,-117 915,433 -7,-13 -14,-36 -10,-36 -3,-35 2,-35 9,-33 15,-31 19,-28 24,-24 27,-22 27,-16 -971,-224 c -8,35 -19,68 -33,100 z m -1117,-100 -971,224 27,16 27,22 24,24 20,28 14,31 9,33 2,35 -3,35 -10,36 -14,36 -7,13 915,-433 c -14,-32 -25,-65 -33,-100 z m 42,119 -915,433 13,3 31,11 29,14 28,18 26,23 21,28 16,32 11,36 6,38 -1,42 -5,45 0,0 798,-625 c -23,-31 -42,-63 -58,-98 z m 70,114 -787,618 8,-1 38,3 37,6 34,11 31,16 28,21 24,26 19,30 14,32 10,36 5,37 1,7 619,-758 c -30,-25 -57,-53 -81,-84 z m 97,97 -626,766 33,-7 32,-3 33,1 32,6 31,11 29,16 27,21 23,26 20,30 16,34 13,35 402,-891 c -23,-13 -44,-28 -65,-45 z m 83,56 -400,887 28,-9 37,-9 35,-4 34,0 33,4 32,9 30,13 27,16 25,19 23,22 20,25 9,13 185,-937 c -41,-13 -81,-29 -118,-49 z"
          id="path1610"
          inkscape:connector-curvature="0"
          style="fill:#ffcc00" />
      <path
          class="fil2"
          d="m 12780,40266 c 23,0 42,19 42,42 0,5 0,9 -2,13 9,1 18,2 26,3 12,2 23,5 34,8 l 18,5 48,104 63,-49 62,0 c -13,-14 -21,-33 -21,-54 0,-29 17,-55 41,-69 -3,-6 -4,-12 -4,-19 0,-12 4,-22 12,-30 l -28,0 c 6,-11 12,-21 17,-32 3,-6 5,-11 7,-17 2,-11 4,-21 5,-31 -11,2 -21,3 -31,6 -6,1 -12,3 -18,6 -11,5 -21,11 -32,18 l 0,-117 c 11,6 21,13 32,18 4,2 9,3 13,5 12,3 24,5 36,6 -1,-10 -3,-21 -5,-32 -2,-4 -3,-9 -5,-13 -2,-5 -4,-9 -6,-14 l -13,-23 116,0 c -6,11 -12,21 -18,32 -1,5 -3,9 -5,14 -3,12 -5,24 -6,36 12,-1 24,-3 36,-6 4,-2 8,-3 13,-5 11,-5 21,-12 32,-18 l 0,117 c -11,-7 -21,-13 -32,-18 -6,-3 -12,-5 -18,-6 -10,-3 -21,-4 -31,-6 1,12 3,23 7,35 1,4 3,9 4,13 6,11 12,21 18,32 l -28,0 c 7,8 12,18 12,30 0,7 -2,13 -5,19 25,14 42,40 42,69 0,21 -8,40 -21,54 l 52,0 63,49 49,-104 17,-5 c 11,-3 22,-6 34,-8 9,-1 17,-2 26,-3 -1,-4 -2,-8 -2,-13 0,-23 19,-42 42,-42 24,0 43,19 43,42 0,4 -1,8 -2,12 16,1 32,2 49,3 l 1,0 c 0,-2 0,-4 0,-6 0,-24 19,-43 42,-43 24,0 43,19 43,43 0,5 -1,10 -3,15 8,1 17,3 26,4 l 14,3 c 0,-23 19,-42 42,-42 24,0 43,19 43,43 0,8 -2,15 -6,22 l 20,8 9,5 c 5,-18 21,-30 40,-30 24,0 43,19 43,42 0,13 -6,24 -14,31 l 7,6 17,16 7,7 c 7,-11 20,-19 35,-19 23,0 42,19 42,43 0,18 -11,34 -28,39 3,4 5,8 8,12 2,5 5,11 8,16 7,-4 14,-7 23,-7 23,0 42,19 42,43 0,23 -18,41 -41,42 l 0,4 2,17 0,3 c 2,0 4,0 5,0 22,0 40,17 40,39 0,22 -18,39 -40,39 -3,0 -7,0 -10,-1 l -1,3 -3,16 -1,2 c 16,5 28,20 28,38 0,21 -17,39 -39,39 -6,0 -11,-1 -16,-3 l -2,4 -8,15 0,1 c 16,5 27,20 27,37 0,22 -18,40 -39,40 -12,0 -22,-5 -29,-13 l -7,9 -7,9 c 12,7 21,20 21,35 0,22 -18,39 -40,39 -13,0 -25,-7 -32,-17 l -15,14 -1,2 c 8,7 14,18 14,30 0,22 -18,39 -39,39 -14,0 -26,-7 -33,-18 -4,5 -7,9 -11,13 12,7 19,20 19,34 0,22 -17,39 -39,39 -10,0 -18,-3 -25,-9 -2,3 -3,6 -5,8 -6,10 -11,21 -17,31 l -9,20 -8,19 -6,19 c -2,10 -4,19 -6,28 -2,10 -3,19 -4,29 -1,10 -1,20 -2,29 0,11 1,21 1,31 1,15 3,31 4,46 l -1042,0 2,-24 c 1,-14 2,-28 3,-43 0,-9 -1,-19 -1,-29 -1,-10 -2,-19 -3,-29 -2,-10 -3,-19 -6,-28 l -5,-19 -7,-19 c -4,-10 -8,-20 -13,-30 l -11,-20 c -3,-6 -7,-13 -11,-19 -7,6 -15,9 -25,9 -21,0 -39,-17 -39,-39 0,-14 7,-27 19,-34 -4,-4 -7,-8 -10,-13 -7,11 -20,18 -33,18 -22,0 -40,-17 -40,-39 0,-12 6,-23 15,-30 l -15,-15 -2,-1 c -7,11 -19,17 -32,17 -22,0 -40,-17 -40,-39 0,-15 9,-28 21,-35 l -7,-9 -7,-9 c -7,8 -17,13 -29,13 -21,0 -39,-18 -39,-40 0,-17 11,-32 27,-37 l 0,-1 -8,-15 -2,-4 c -5,2 -10,3 -16,3 -22,0 -39,-18 -39,-39 0,-18 12,-33 28,-38 l 0,-2 -4,-16 -1,-3 c -3,1 -7,1 -10,1 -22,0 -40,-17 -40,-39 0,-22 18,-39 40,-39 2,0 3,0 5,0 l 0,-3 2,-17 0,-4 c -22,-1 -41,-19 -41,-42 0,-24 19,-43 43,-43 8,0 16,3 22,7 l 3,-6 c 4,-7 8,-14 13,-22 -16,-6 -28,-21 -28,-39 0,-24 19,-43 42,-43 15,0 28,8 35,19 l 7,-7 17,-16 7,-6 c -8,-7 -14,-18 -14,-31 0,-23 19,-42 43,-42 19,0 35,12 40,30 l 10,-5 20,-8 c -4,-7 -7,-14 -7,-22 0,-24 19,-43 43,-43 23,0 42,19 42,42 l 15,-3 c 8,-1 17,-3 25,-4 -2,-5 -3,-10 -3,-15 0,-24 19,-43 43,-43 23,0 42,19 42,43 0,2 0,4 0,6 l 2,0 c 16,-1 32,-2 48,-3 -1,-4 -2,-8 -2,-12 0,-23 20,-42 43,-42 z"
          id="path1612"
          inkscape:connector-curvature="0"
          style="fill:#000000" />
   </g>
</svg>
