<?xml version="1.0" encoding="UTF-8" standalone="no"?>
<svg
    xmlns:dc="http://purl.org/dc/elements/1.1/"
    xmlns:cc="http://creativecommons.org/ns#"
    xmlns:rdf="http://www.w3.org/1999/02/22-rdf-syntax-ns#"
    xmlns:svg="http://www.w3.org/2000/svg"
    xmlns="http://www.w3.org/2000/svg"
    xmlns:sodipodi="http://sodipodi.sourceforge.net/DTD/sodipodi-0.dtd"
    xmlns:inkscape="http://www.inkscape.org/namespaces/inkscape"
    id="city_nnov"
    data-name="nnov"
    width="52.5mm"
    height="52.5mm"
    viewBox="0 0 148.82 148.82"
    version="1.1"
    inkscape:version="0.91 r13725"
    sodipodi:docname="_tomsk.svg">
   <metadata
       id="metadata22">
      <rdf:RDF>
         <cc:Work
             rdf:about="">
            <dc:format>image/svg+xml</dc:format>
            <dc:type
                rdf:resource="http://purl.org/dc/dcmitype/StillImage" />
            <dc:title></dc:title>
         </cc:Work>
      </rdf:RDF>
   </metadata>
   <defs
       id="defs20" />
   <sodipodi:namedview
       pagecolor="#ffffff"
       bordercolor="#666666"
       borderopacity="1"
       objecttolerance="10"
       gridtolerance="10"
       guidetolerance="10"
       inkscape:pageopacity="0"
       inkscape:pageshadow="2"
       inkscape:window-width="640"
       inkscape:window-height="480"
       id="namedview18"
       showgrid="false"
       inkscape:zoom="1.268656085"
       inkscape:cx="93.01181102"
       inkscape:cy="93.01181102"
       inkscape:current-layer="city_nnov" />
   <g
       transform="matrix(0.0283466687,0,0,0.0283466716,-594.7778472,-1041.623657)"
       style="clip-rule:evenodd;fill-rule:evenodd;image-rendering:optimizeQuality;shape-rendering:geometricPrecision;text-rendering:geometricPrecision"
       id="tomsk">
      <path
          class="fil3"
          d="m 24920,38663 c -160,-383 91,-528 137,-988 75,99 127,229 114,266 -6,17 25,-64 31,-80 29,37 53,76 49,187 l 84,-177 c 29,46 69,209 13,335 -6,5 -70,130 63,99 l 28,-61 56,-109 c 37,62 39,168 38,224 -11,38 -36,75 -37,111 -157,140 -42,142 24,58 67,218 -133,815 -469,799 -11,-2 -20,10 -28,6 -5,-13 -13,-26 -19,-39 -6,-14 17,-5 11,-19 192,-11 -48,-533 -95,-612 z m -2584,528 c -3,-3 -5,-7 -8,-11 -16,-54 -70,-117 -86,-170 -18,-42 -26,-30 -45,-20 l -206,148 c -44,21 -80,83 -118,141 l -4,54 38,76 c 1,8 8,26 16,47 -2,5 -4,10 -5,15 l -15,37 -7,38 -5,35 -3,33 -1,18 c -44,16 -101,10 -149,-8 14,-146 -65,-251 13,-462 22,-43 74,-44 125,-98 43,-42 189,-149 228,-202 54,-80 172,-94 216,-44 53,28 119,79 201,153 24,23 44,43 60,63 l -6,40 -3,27 0,25 c 1,40 9,88 24,125 -25,-3 -49,-6 -73,-11 l -51,-11 c -46,-12 -91,-25 -136,-38 z m 2355,1217 c -94,84 -199,428 -155,576 16,55 -1,91 -24,81 2,61 -3,38 22,93 41,36 47,105 47,163 l -242,0 c -16,-108 31,-218 46,-270 -46,-123 20,-471 75,-635 22,-26 2,-69 -24,-89 -54,4 -290,-286 -344,-505 29,-6 57,-13 85,-23 56,82 111,165 170,245 21,27 43,53 66,79 19,21 38,41 58,60 22,20 44,39 67,58 20,15 39,29 59,44 19,13 38,26 58,38 9,30 22,57 36,85 0,0 0,0 0,0 z m -2074,-1202 c 15,42 84,82 119,-6 l 32,-1 c 23,0 -1,39 -1,53 -13,16 -16,18 -29,34 -210,8 -292,-34 -473,-81 -22,-16 -147,-34 -177,-1 -131,151 -75,117 -154,312 -76,380 128,503 163,549 l 137,-185 -54,-25 c -14,-17 -77,-33 -90,-51 -87,-138 -49,-413 94,-419 33,-1 67,-1 111,33 221,137 384,189 458,224 31,16 291,66 309,46 29,0 156,-141 143,-211 l 67,19 c -97,161 -110,185 -105,189 166,193 875,147 1021,75 189,269 240,382 494,542 28,100 104,184 100,261 -11,201 -38,261 -41,362 -1,65 -1,121 2,185 1,62 -8,170 2,265 l 209,0 c -3,-4 21,-103 -21,-140 -44,-40 -79,-64 -50,-125 48,3 33,-36 23,-65 -48,-111 -30,-334 51,-505 19,-41 21,-140 16,-158 -92,-124 -157,-254 -107,-441 178,-372 149,-525 75,-673 -39,-100 -185,-208 -298,-228 -433,-116 -752,129 -1003,-205 0,-17 -58,-98 -58,-114 74,134 265,101 359,24 -9,14 -149,-35 -209,-75 9,-2 42,3 110,19 96,-3 104,-9 119,-52 -187,20 -119,-109 -259,-82 l 14,-38 c 58,-11 -7,-8 48,12 64,24 59,4 133,-32 -127,-26 -71,-78 -204,-78 0,-13 -2,-11 -2,-24 l 3,0 c 109,38 143,-71 165,-77 -136,-26 -198,24 -224,-29 120,-30 70,-7 181,-84 -60,-24 -80,-44 -116,-82 106,-1 74,14 170,-24 -66,-22 -153,-105 -197,-162 15,0 54,1 113,-47 -70,-45 -158,-104 -207,-179 -69,-119 -168,-196 -306,-209 2,-69 -32,-124 -65,-127 l -26,92 c -4,8 -18,16 -22,24 -264,27 -319,109 -507,247 -88,70 -218,62 -205,148 -3,42 12,79 44,111 27,-20 167,-27 178,11 -32,11 -118,47 -113,91 2,20 28,39 56,32 38,-9 86,-50 124,-82 72,-40 54,-23 121,-22 30,3 50,-1 72,2 35,5 66,-5 104,-20 40,-17 75,-38 83,-87 -2,14 -52,203 -57,212 -48,93 -49,101 -128,223 -142,213 -390,665 -315,849 z"
          id="path1800"
          inkscape:connector-curvature="0"
          style="fill:#ffcc00" />
      <path
          class="fil2"
          d="m 22440,38110 c 34,-14 31,-33 72,-43 43,-1 100,-32 120,-63 -39,6 -77,-2 -116,4 -31,5 -82,63 -76,102 z m 147,-187 c -55,-10 -69,-35 -53,-71 -13,11 -23,23 -36,33 -6,25 -8,46 35,48 18,-3 36,-7 54,-10 z m 261,-257 c 16,-49 140,-42 155,36 2,8 -50,-3 -54,4 -33,52 -72,17 -95,7 -4,-8 -28,-4 -30,-5 2,-6 5,-36 24,-42 z"
          id="path1802"
          inkscape:connector-curvature="0"
          style="fill:#000000" />
   </g>
</svg>
