<?xml version="1.0" encoding="UTF-8" standalone="no"?>
<svg
    xmlns:dc="http://purl.org/dc/elements/1.1/"
    xmlns:cc="http://creativecommons.org/ns#"
    xmlns:rdf="http://www.w3.org/1999/02/22-rdf-syntax-ns#"
    xmlns:svg="http://www.w3.org/2000/svg"
    xmlns="http://www.w3.org/2000/svg"
    xmlns:sodipodi="http://sodipodi.sourceforge.net/DTD/sodipodi-0.dtd"
    xmlns:inkscape="http://www.inkscape.org/namespaces/inkscape"
    id="city_nnov"
    data-name="nnov"
    width="52.5mm"
    height="52.5mm"
    viewBox="0 0 148.82 148.82"
    version="1.1"
    inkscape:version="0.91 r13725"
    sodipodi:docname="_tuymen.svg">
   <metadata
       id="metadata22">
      <rdf:RDF>
         <cc:Work
             rdf:about="">
            <dc:format>image/svg+xml</dc:format>
            <dc:type
                rdf:resource="http://purl.org/dc/dcmitype/StillImage" />
            <dc:title></dc:title>
         </cc:Work>
      </rdf:RDF>
   </metadata>
   <defs
       id="defs20" />
   <sodipodi:namedview
       pagecolor="#ffffff"
       bordercolor="#666666"
       borderopacity="1"
       objecttolerance="10"
       gridtolerance="10"
       guidetolerance="10"
       inkscape:pageopacity="0"
       inkscape:pageshadow="2"
       inkscape:window-width="640"
       inkscape:window-height="480"
       id="namedview18"
       showgrid="false"
       inkscape:zoom="1.268656085"
       inkscape:cx="93.01181102"
       inkscape:cy="93.01181102"
       inkscape:current-layer="city_nnov" />
   <g
       transform="matrix(0.0283466687,0,0,0.0283466716,-893.0366055,-1042.222087)"
       style="clip-rule:evenodd;fill-rule:evenodd;image-rendering:optimizeQuality;shape-rendering:geometricPrecision;text-rendering:geometricPrecision"
       id="tuymen">
      <g
          id="g834">
         <path
             class="fil3"
             d="m 34021,39587 c -124,1 -247,6 -370,17 l 327,-1368 43,1351 z m 1415,-250 5,0 0,0 422,-14 -140,121 148,112 -428,13 7,203 86,-7 26,53 -152,435 5,11 -153,77 -2,-15 -2,0 0,3 c -29,7 -60,13 -92,20 -72,22 -189,53 -352,72 -30,4 -63,7 -97,10 -164,-46 -303,-124 -505,-124 -212,0 -353,86 -528,130 l -14,-1 c -81,-6 -158,-14 -228,-25 l 0,0 0,0 0,0 c -264,-40 -460,-100 -504,-114 -17,6 -34,13 -52,20 -37,-6 -76,-10 -118,-10 l -139,-477 c -10,0 -29,3 -39,4 l 34,486 c -66,11 -125,30 -183,51 l -50,4 -13,-246 113,-117 -1,-209 53,-85 588,-62 26,2 816,-1560 0,0 -10,-337 47,-1 0,0 c 148,-3 309,-7 456,-11 10,2 11,3 12,9 l 0,27 340,-8 -228,121 235,106 c -139,3 -279,7 -418,10 -4,0 -10,-1 -10,-8 l 0,-5 0,-1 0,-22 -380,10 5,139 -1,-13 0,-22 2,-2 921,1602 c 119,26 237,57 352,92 l 98,-8 -14,-448 55,-2 1,11 z m -1817,270 c -16,1 -33,3 -49,5 l 264,-908 -215,903 z m -83,8 c -17,2 -34,4 -51,6 l 317,-917 -266,911 z m -85,10 c -19,2 -38,5 -56,7 l 390,-974 -334,967 z m 334,-967 111,-276 -111,276 z m -425,979 c -21,3 -42,6 -64,10 l 466,-1014 -402,1004 z m 616,-1468 0,0 0,13 0,-13 z m 0,13 0,1 0,-1 z m -716,1470 c -18,3 -35,6 -52,9 l -17,-1 541,-1035 -472,1027 z m 1643,31 -645,-1122 564,1105 c 27,6 54,11 81,17 z m -119,-24 -531,-1042 460,1029 c 24,4 47,9 71,13 z m -107,-19 -448,-1000 388,991 c 20,3 40,6 60,9 z m -655,-1495 0,-18 0,24 0,-6 z m 0,6 1,11 -1,-11 0,0 z m 559,1475 -376,-962 320,955 c 19,2 38,5 56,7 z m -90,-11 -303,-905 251,899 c 17,2 35,4 52,6 z m -85,-10 -381,-1363 44,1345 c 112,2 225,8 337,18 z"
             id="path836"
             inkscape:connector-curvature="0"
             style="fill:#ffcc00" />
      </g>
      <path
          class="fil4"
          d="m 36125,40758 c -174,-44 -313,-129 -529,-129 -304,0 -374,155 -657,155 -283,0 -443,-155 -727,-155 -285,0 -440,155 -723,155 -287,0 -439,-155 -725,-155 -259,0 -409,125 -639,150 l 0,-180 c 230,-25 380,-151 639,-151 286,0 438,155 725,155 283,0 438,-155 723,-155 284,0 444,155 727,155 283,0 353,-155 657,-155 216,0 355,85 529,130 l 0,180 z"
          id="path838"
          inkscape:connector-curvature="0"
          style="fill:#999999" />
      <path
          class="fil4"
          d="m 36125,40975 c -174,-44 -313,-129 -529,-129 -304,0 -374,155 -657,155 -283,0 -443,-155 -727,-155 -285,0 -440,155 -723,155 -287,0 -439,-155 -725,-155 -259,0 -409,125 -639,150 l 0,-180 c 230,-25 380,-151 639,-151 286,0 438,155 725,155 283,0 438,-155 723,-155 284,0 444,155 727,155 283,0 353,-155 657,-155 216,0 355,85 529,130 l 0,180 z"
          id="path840"
          inkscape:connector-curvature="0"
          style="fill:#999999" />
      <path
          class="fil4"
          d="m 36125,40541 c -174,-44 -313,-130 -529,-130 -304,0 -374,155 -657,155 -283,0 -443,-155 -727,-155 -285,0 -440,155 -723,155 -287,0 -439,-155 -725,-155 -259,0 -409,126 -639,151 l 0,-180 c 230,-25 380,-151 639,-151 286,0 438,155 725,155 283,0 438,-155 723,-155 284,0 444,155 727,155 283,0 353,-155 657,-155 216,0 355,85 529,129 l 0,181 z"
          id="path842"
          inkscape:connector-curvature="0"
          style="fill:#999999" />
   </g>
</svg>
