<?xml version="1.0" encoding="UTF-8" standalone="no"?>
<svg
    xmlns:dc="http://purl.org/dc/elements/1.1/"
    xmlns:cc="http://creativecommons.org/ns#"
    xmlns:rdf="http://www.w3.org/1999/02/22-rdf-syntax-ns#"
    xmlns:svg="http://www.w3.org/2000/svg"
    xmlns="http://www.w3.org/2000/svg"
    xmlns:sodipodi="http://sodipodi.sourceforge.net/DTD/sodipodi-0.dtd"
    xmlns:inkscape="http://www.inkscape.org/namespaces/inkscape"
    id="city_nnov"
    data-name="nnov"
    width="52.5mm"
    height="52.5mm"
    viewBox="0 0 148.82 148.82"
    version="1.1"
    inkscape:version="0.91 r13725"
    sodipodi:docname="_ufa.svg">
   <metadata
       id="metadata22">
      <rdf:RDF>
         <cc:Work
             rdf:about="">
            <dc:format>image/svg+xml</dc:format>
            <dc:type
                rdf:resource="http://purl.org/dc/dcmitype/StillImage" />
            <dc:title></dc:title>
         </cc:Work>
      </rdf:RDF>
   </metadata>
   <defs
       id="defs20" />
   <sodipodi:namedview
       pagecolor="#ffffff"
       bordercolor="#666666"
       borderopacity="1"
       objecttolerance="10"
       gridtolerance="10"
       guidetolerance="10"
       inkscape:pageopacity="0"
       inkscape:pageshadow="2"
       inkscape:window-width="640"
       inkscape:window-height="480"
       id="namedview18"
       showgrid="false"
       inkscape:zoom="1.268656085"
       inkscape:cx="93.01181102"
       inkscape:cy="93.01181102"
       inkscape:current-layer="city_nnov" />
   <g
       transform="matrix(0.0283466687,0,0,0.0283466716,-148.725086,-1191.183203)"
       style="clip-rule:evenodd;fill-rule:evenodd;image-rendering:optimizeQuality;shape-rendering:geometricPrecision;text-rendering:geometricPrecision"
       id="ufa">
      <g
          id="_129430344">
         <path
             id="_132058496"
             class="fil0 str1"
             d="m 6186,45901 c 2,-4 3,-9 3,-13 0,-17 -13,-31 -30,-31 -16,0 -30,14 -30,31"
             inkscape:connector-curvature="0"
             style="fill:none;stroke:#000000;stroke-width:52.9199981689;stroke-linecap:round;stroke-linejoin:round" />
         <polygon
             id="_130237632"
             class="fil2 str1"
             points="6129,45960 6129,45997 6129,45888 "
             style="fill:#000000;stroke:#000000;stroke-width:52.9199981689;stroke-linecap:round;stroke-linejoin:round" />
         <path
             id="_128738608"
             class="fil0 str1"
             d="m 6129,45888 c 0,-17 -13,-31 -30,-31 -17,0 -30,14 -30,31 0,4 1,9 3,13"
             inkscape:connector-curvature="0"
             style="fill:none;stroke:#000000;stroke-width:52.9199981689;stroke-linecap:round;stroke-linejoin:round" />
         <path
             id="_112166592"
             class="fil0 str1"
             d="m 6574,45901 c 2,-4 3,-9 3,-13 0,-17 -13,-31 -30,-31 -17,0 -30,14 -30,31"
             inkscape:connector-curvature="0"
             style="fill:none;stroke:#000000;stroke-width:52.9199981689;stroke-linecap:round;stroke-linejoin:round" />
         <polygon
             id="_131629408"
             class="fil2 str1"
             points="6517,45960 6517,45997 6517,45888 "
             style="fill:#000000;stroke:#000000;stroke-width:52.9199981689;stroke-linecap:round;stroke-linejoin:round" />
         <path
             id="_131644640"
             class="fil0 str1"
             d="m 6517,45888 c 0,-17 -14,-31 -31,-31 -16,0 -30,14 -30,31 0,4 1,9 3,13"
             inkscape:connector-curvature="0"
             style="fill:none;stroke:#000000;stroke-width:52.9199981689;stroke-linecap:round;stroke-linejoin:round" />
         <path
             id="_113595912"
             class="fil0 str1"
             d="m 6962,45901 c 2,-4 3,-9 3,-13 0,-17 -14,-31 -30,-31 -17,0 -31,14 -31,31"
             inkscape:connector-curvature="0"
             style="fill:none;stroke:#000000;stroke-width:52.9199981689;stroke-linecap:round;stroke-linejoin:round" />
         <polygon
             id="_128948448"
             class="fil2 str1"
             points="6904,45960 6904,45997 6904,45888 "
             style="fill:#000000;stroke:#000000;stroke-width:52.9199981689;stroke-linecap:round;stroke-linejoin:round" />
         <path
             id="_112783336"
             class="fil0 str1"
             d="m 6904,45888 c 0,-17 -13,-31 -30,-31 -17,0 -30,14 -30,31 0,4 1,9 3,13"
             inkscape:connector-curvature="0"
             style="fill:none;stroke:#000000;stroke-width:52.9199981689;stroke-linecap:round;stroke-linejoin:round" />
         <path
             id="_112125904"
             class="fil0 str1"
             d="m 7349,45901 c 2,-4 3,-9 3,-13 0,-17 -13,-31 -30,-31 -16,0 -30,14 -30,31"
             inkscape:connector-curvature="0"
             style="fill:none;stroke:#000000;stroke-width:52.9199981689;stroke-linecap:round;stroke-linejoin:round" />
         <polygon
             id="_113596680"
             class="fil2 str1"
             points="7292,45960 7292,45997 7292,45888 "
             style="fill:#000000;stroke:#000000;stroke-width:52.9199981689;stroke-linecap:round;stroke-linejoin:round" />
         <path
             id="_120125608"
             class="fil0 str1"
             d="m 7292,45888 c 0,-17 -14,-31 -30,-31 -17,0 -30,14 -30,31 0,4 1,9 3,13"
             inkscape:connector-curvature="0"
             style="fill:none;stroke:#000000;stroke-width:52.9199981689;stroke-linecap:round;stroke-linejoin:round" />
         <path
             id="_113593848"
             class="fil0 str1"
             d="m 7737,45901 c 2,-4 3,-9 3,-13 0,-17 -13,-31 -30,-31 -17,0 -30,14 -30,31"
             inkscape:connector-curvature="0"
             style="fill:none;stroke:#000000;stroke-width:52.9199981689;stroke-linecap:round;stroke-linejoin:round" />
         <polygon
             id="_112861136"
             class="fil2 str1"
             points="7680,45960 7680,45997 7680,45888 "
             style="fill:#000000;stroke:#000000;stroke-width:52.9199981689;stroke-linecap:round;stroke-linejoin:round" />
         <path
             id="_132057896"
             class="fil0 str1"
             d="m 7680,45888 c 0,-17 -14,-31 -31,-31 -16,0 -30,14 -30,31 0,4 1,9 3,13"
             inkscape:connector-curvature="0"
             style="fill:none;stroke:#000000;stroke-width:52.9199981689;stroke-linecap:round;stroke-linejoin:round" />
         <path
             id="_131566848"
             class="fil0 str1"
             d="m 8125,45901 c 2,-4 3,-9 3,-13 0,-17 -14,-31 -30,-31 -17,0 -31,14 -31,31"
             inkscape:connector-curvature="0"
             style="fill:none;stroke:#000000;stroke-width:52.9199981689;stroke-linecap:round;stroke-linejoin:round" />
         <polygon
             id="_132142600"
             class="fil2 str1"
             points="8067,45960 8067,45997 8067,45888 "
             style="fill:#000000;stroke:#000000;stroke-width:52.9199981689;stroke-linecap:round;stroke-linejoin:round" />
         <path
             id="_131328088"
             class="fil0 str1"
             d="m 8067,45888 c 0,-17 -13,-31 -30,-31 -17,0 -30,14 -30,31 0,4 1,9 3,13"
             inkscape:connector-curvature="0"
             style="fill:none;stroke:#000000;stroke-width:52.9199981689;stroke-linecap:round;stroke-linejoin:round" />
         <path
             id="_130361808"
             class="fil0 str1"
             d="m 8512,45901 c 2,-4 3,-9 3,-13 0,-17 -13,-31 -30,-31 -16,0 -30,14 -30,31"
             inkscape:connector-curvature="0"
             style="fill:none;stroke:#000000;stroke-width:52.9199981689;stroke-linecap:round;stroke-linejoin:round" />
         <polygon
             id="_112801616"
             class="fil2 str1"
             points="8455,45960 8455,45997 8455,45888 "
             style="fill:#000000;stroke:#000000;stroke-width:52.9199981689;stroke-linecap:round;stroke-linejoin:round" />
         <path
             id="_131012248"
             class="fil0 str1"
             d="m 8455,45888 c 0,-17 -14,-31 -30,-31 -17,0 -30,14 -30,31 0,4 1,9 3,13"
             inkscape:connector-curvature="0"
             style="fill:none;stroke:#000000;stroke-width:52.9199981689;stroke-linecap:round;stroke-linejoin:round" />
         <path
             id="_131925936"
             class="fil0 str1"
             d="m 8900,45901 c 2,-4 3,-9 3,-13 0,-17 -13,-31 -30,-31 -17,0 -30,14 -30,31"
             inkscape:connector-curvature="0"
             style="fill:none;stroke:#000000;stroke-width:52.9199981689;stroke-linecap:round;stroke-linejoin:round" />
         <polygon
             id="_132214800"
             class="fil2 str1"
             points="8843,45960 8843,45997 8843,45888 "
             style="fill:#000000;stroke:#000000;stroke-width:52.9199981689;stroke-linecap:round;stroke-linejoin:round" />
         <path
             id="_111989696"
             class="fil0 str1"
             d="m 8843,45888 c 0,-17 -14,-31 -31,-31 -16,0 -30,14 -30,31 0,4 1,9 3,13"
             inkscape:connector-curvature="0"
             style="fill:none;stroke:#000000;stroke-width:52.9199981689;stroke-linecap:round;stroke-linejoin:round" />
         <path
             id="_132005864"
             class="fil0 str1"
             d="m 9288,45901 c 2,-4 3,-9 3,-13 0,-17 -14,-31 -30,-31 -17,0 -31,14 -31,31"
             inkscape:connector-curvature="0"
             style="fill:none;stroke:#000000;stroke-width:52.9199981689;stroke-linecap:round;stroke-linejoin:round" />
         <polygon
             id="_131557864"
             class="fil2 str1"
             points="9230,45960 9230,45997 9230,45888 "
             style="fill:#000000;stroke:#000000;stroke-width:52.9199981689;stroke-linecap:round;stroke-linejoin:round" />
         <path
             id="_41131992"
             class="fil0 str1"
             d="m 9230,45888 c 0,-17 -13,-31 -30,-31 -17,0 -30,14 -30,31 0,4 1,9 3,13"
             inkscape:connector-curvature="0"
             style="fill:none;stroke:#000000;stroke-width:52.9199981689;stroke-linecap:round;stroke-linejoin:round" />
         <path
             id="_39992680"
             class="fil0 str1"
             d="m 9675,45901 c 2,-4 3,-9 3,-13 0,-17 -13,-31 -30,-31 -16,0 -30,14 -30,31"
             inkscape:connector-curvature="0"
             style="fill:none;stroke:#000000;stroke-width:52.9199981689;stroke-linecap:round;stroke-linejoin:round" />
         <polygon
             id="_112603696"
             class="fil2 str1"
             points="9618,45960 9618,45997 9618,45888 "
             style="fill:#000000;stroke:#000000;stroke-width:52.9199981689;stroke-linecap:round;stroke-linejoin:round" />
         <path
             id="_128847832"
             class="fil0 str1"
             d="m 9618,45888 c 0,-17 -14,-31 -30,-31 -17,0 -30,14 -30,31 0,4 1,9 3,13"
             inkscape:connector-curvature="0"
             style="fill:none;stroke:#000000;stroke-width:52.9199981689;stroke-linecap:round;stroke-linejoin:round" />
         <path
             id="_41313896"
             class="fil0 str1"
             d="m 6186,46529 c 2,-4 3,-9 3,-13 0,-17 -13,-31 -30,-31 -16,0 -30,14 -30,31"
             inkscape:connector-curvature="0"
             style="fill:none;stroke:#000000;stroke-width:52.9199981689;stroke-linecap:round;stroke-linejoin:round" />
         <polygon
             id="_130179624"
             class="fil2 str1"
             points="6129,46588 6129,46625 6129,46516 "
             style="fill:#000000;stroke:#000000;stroke-width:52.9199981689;stroke-linecap:round;stroke-linejoin:round" />
         <path
             id="_41401768"
             class="fil0 str1"
             d="m 6129,46516 c 0,-17 -13,-31 -30,-31 -17,0 -30,14 -30,31 0,4 1,9 3,13"
             inkscape:connector-curvature="0"
             style="fill:none;stroke:#000000;stroke-width:52.9199981689;stroke-linecap:round;stroke-linejoin:round" />
         <path
             id="_132161336"
             class="fil0 str1"
             d="m 6574,46529 c 2,-4 3,-9 3,-13 0,-17 -13,-31 -30,-31 -17,0 -30,14 -30,31"
             inkscape:connector-curvature="0"
             style="fill:none;stroke:#000000;stroke-width:52.9199981689;stroke-linecap:round;stroke-linejoin:round" />
         <polygon
             id="_112957104"
             class="fil2 str1"
             points="6517,46588 6517,46625 6517,46516 "
             style="fill:#000000;stroke:#000000;stroke-width:52.9199981689;stroke-linecap:round;stroke-linejoin:round" />
         <path
             id="_125773272"
             class="fil0 str1"
             d="m 6517,46516 c 0,-17 -14,-31 -31,-31 -16,0 -30,14 -30,31 0,4 1,9 3,13"
             inkscape:connector-curvature="0"
             style="fill:none;stroke:#000000;stroke-width:52.9199981689;stroke-linecap:round;stroke-linejoin:round" />
         <path
             id="_131176560"
             class="fil0 str1"
             d="m 6962,46529 c 2,-4 3,-9 3,-13 0,-17 -14,-31 -30,-31 -17,0 -31,14 -31,31"
             inkscape:connector-curvature="0"
             style="fill:none;stroke:#000000;stroke-width:52.9199981689;stroke-linecap:round;stroke-linejoin:round" />
         <polygon
             id="_112938912"
             class="fil2 str1"
             points="6904,46588 6904,46625 6904,46516 "
             style="fill:#000000;stroke:#000000;stroke-width:52.9199981689;stroke-linecap:round;stroke-linejoin:round" />
         <path
             id="_120539784"
             class="fil0 str1"
             d="m 6904,46516 c 0,-17 -13,-31 -30,-31 -17,0 -30,14 -30,31 0,4 1,9 3,13"
             inkscape:connector-curvature="0"
             style="fill:none;stroke:#000000;stroke-width:52.9199981689;stroke-linecap:round;stroke-linejoin:round" />
         <path
             id="_129374232"
             class="fil0 str1"
             d="m 7349,46529 c 2,-4 3,-9 3,-13 0,-17 -13,-31 -30,-31 -16,0 -30,14 -30,31"
             inkscape:connector-curvature="0"
             style="fill:none;stroke:#000000;stroke-width:52.9199981689;stroke-linecap:round;stroke-linejoin:round" />
         <polygon
             id="_111743984"
             class="fil2 str1"
             points="7292,46588 7292,46625 7292,46516 "
             style="fill:#000000;stroke:#000000;stroke-width:52.9199981689;stroke-linecap:round;stroke-linejoin:round" />
         <path
             id="_131125224"
             class="fil0 str1"
             d="m 7292,46516 c 0,-17 -14,-31 -30,-31 -17,0 -30,14 -30,31 0,4 1,9 3,13"
             inkscape:connector-curvature="0"
             style="fill:none;stroke:#000000;stroke-width:52.9199981689;stroke-linecap:round;stroke-linejoin:round" />
         <path
             id="_41288896"
             class="fil0 str1"
             d="m 7737,46529 c 2,-4 3,-9 3,-13 0,-17 -13,-31 -30,-31 -17,0 -30,14 -30,31"
             inkscape:connector-curvature="0"
             style="fill:none;stroke:#000000;stroke-width:52.9199981689;stroke-linecap:round;stroke-linejoin:round" />
         <polygon
             id="_129669512"
             class="fil2 str1"
             points="7680,46588 7680,46625 7680,46516 "
             style="fill:#000000;stroke:#000000;stroke-width:52.9199981689;stroke-linecap:round;stroke-linejoin:round" />
         <path
             id="_131998872"
             class="fil0 str1"
             d="m 7680,46516 c 0,-17 -14,-31 -31,-31 -16,0 -30,14 -30,31 0,4 1,9 3,13"
             inkscape:connector-curvature="0"
             style="fill:none;stroke:#000000;stroke-width:52.9199981689;stroke-linecap:round;stroke-linejoin:round" />
         <path
             id="_40354920"
             class="fil0 str1"
             d="m 8125,46529 c 2,-4 3,-9 3,-13 0,-17 -14,-31 -30,-31 -17,0 -31,14 -31,31"
             inkscape:connector-curvature="0"
             style="fill:none;stroke:#000000;stroke-width:52.9199981689;stroke-linecap:round;stroke-linejoin:round" />
         <polygon
             id="_112224136"
             class="fil2 str1"
             points="8067,46588 8067,46625 8067,46516 "
             style="fill:#000000;stroke:#000000;stroke-width:52.9199981689;stroke-linecap:round;stroke-linejoin:round" />
         <path
             id="_131702656"
             class="fil0 str1"
             d="m 8067,46516 c 0,-17 -13,-31 -30,-31 -17,0 -30,14 -30,31 0,4 1,9 3,13"
             inkscape:connector-curvature="0"
             style="fill:none;stroke:#000000;stroke-width:52.9199981689;stroke-linecap:round;stroke-linejoin:round" />
         <path
             id="_112780120"
             class="fil0 str1"
             d="m 8512,46529 c 2,-4 3,-9 3,-13 0,-17 -13,-31 -30,-31 -16,0 -30,14 -30,31"
             inkscape:connector-curvature="0"
             style="fill:none;stroke:#000000;stroke-width:52.9199981689;stroke-linecap:round;stroke-linejoin:round" />
         <polygon
             id="_132203784"
             class="fil2 str1"
             points="8455,46588 8455,46625 8455,46516 "
             style="fill:#000000;stroke:#000000;stroke-width:52.9199981689;stroke-linecap:round;stroke-linejoin:round" />
         <path
             id="_112926624"
             class="fil0 str1"
             d="m 8455,46516 c 0,-17 -14,-31 -30,-31 -17,0 -30,14 -30,31 0,4 1,9 3,13"
             inkscape:connector-curvature="0"
             style="fill:none;stroke:#000000;stroke-width:52.9199981689;stroke-linecap:round;stroke-linejoin:round" />
         <path
             id="_130485272"
             class="fil0 str1"
             d="m 8900,46529 c 2,-4 3,-9 3,-13 0,-17 -13,-31 -30,-31 -17,0 -30,14 -30,31"
             inkscape:connector-curvature="0"
             style="fill:none;stroke:#000000;stroke-width:52.9199981689;stroke-linecap:round;stroke-linejoin:round" />
         <polygon
             id="_131012816"
             class="fil2 str1"
             points="8843,46588 8843,46625 8843,46516 "
             style="fill:#000000;stroke:#000000;stroke-width:52.9199981689;stroke-linecap:round;stroke-linejoin:round" />
         <path
             id="_112501480"
             class="fil0 str1"
             d="m 8843,46516 c 0,-17 -14,-31 -31,-31 -16,0 -30,14 -30,31 0,4 1,9 3,13"
             inkscape:connector-curvature="0"
             style="fill:none;stroke:#000000;stroke-width:52.9199981689;stroke-linecap:round;stroke-linejoin:round" />
         <path
             id="_129542288"
             class="fil0 str1"
             d="m 9288,46529 c 2,-4 3,-9 3,-13 0,-17 -14,-31 -30,-31 -17,0 -31,14 -31,31"
             inkscape:connector-curvature="0"
             style="fill:none;stroke:#000000;stroke-width:52.9199981689;stroke-linecap:round;stroke-linejoin:round" />
         <polygon
             id="_132230896"
             class="fil2 str1"
             points="9230,46588 9230,46625 9230,46516 "
             style="fill:#000000;stroke:#000000;stroke-width:52.9199981689;stroke-linecap:round;stroke-linejoin:round" />
         <path
             id="_130181664"
             class="fil0 str1"
             d="m 9230,46516 c 0,-17 -13,-31 -30,-31 -17,0 -30,14 -30,31 0,4 1,9 3,13"
             inkscape:connector-curvature="0"
             style="fill:none;stroke:#000000;stroke-width:52.9199981689;stroke-linecap:round;stroke-linejoin:round" />
         <path
             id="_128932568"
             class="fil0 str1"
             d="m 9675,46529 c 2,-4 3,-9 3,-13 0,-17 -13,-31 -30,-31 -16,0 -30,14 -30,31"
             inkscape:connector-curvature="0"
             style="fill:none;stroke:#000000;stroke-width:52.9199981689;stroke-linecap:round;stroke-linejoin:round" />
         <polygon
             id="_113267048"
             class="fil2 str1"
             points="9618,46588 9618,46625 9618,46516 "
             style="fill:#000000;stroke:#000000;stroke-width:52.9199981689;stroke-linecap:round;stroke-linejoin:round" />
         <path
             id="_129072984"
             class="fil0 str1"
             d="m 9618,46516 c 0,-17 -14,-31 -30,-31 -17,0 -30,14 -30,31 0,4 1,9 3,13"
             inkscape:connector-curvature="0"
             style="fill:none;stroke:#000000;stroke-width:52.9199981689;stroke-linecap:round;stroke-linejoin:round" />
         <path
             id="_112181608"
             class="fil0 str1"
             d="m 6012,45587 c 2,-4 3,-9 3,-13 0,-17 -14,-31 -30,-31 -17,0 -30,14 -30,31"
             inkscape:connector-curvature="0"
             style="fill:none;stroke:#000000;stroke-width:52.9199981689;stroke-linecap:round;stroke-linejoin:round" />
         <polygon
             id="_130527592"
             class="fil2 str1"
             points="5955,45646 5955,45683 5955,45574 "
             style="fill:#000000;stroke:#000000;stroke-width:52.9199981689;stroke-linecap:round;stroke-linejoin:round" />
         <path
             id="_131097320"
             class="fil0 str1"
             d="m 5955,45574 c 0,-17 -14,-31 -31,-31 -16,0 -30,14 -30,31 0,4 1,9 3,13"
             inkscape:connector-curvature="0"
             style="fill:none;stroke:#000000;stroke-width:52.9199981689;stroke-linecap:round;stroke-linejoin:round" />
         <path
             id="_129215080"
             class="fil0 str1"
             d="m 6396,45587 c 2,-4 3,-9 3,-13 0,-17 -14,-31 -30,-31 -17,0 -31,14 -31,31"
             inkscape:connector-curvature="0"
             style="fill:none;stroke:#000000;stroke-width:52.9199981689;stroke-linecap:round;stroke-linejoin:round" />
         <polygon
             id="_113453352"
             class="fil2 str1"
             points="6338,45646 6338,45683 6338,45574 "
             style="fill:#000000;stroke:#000000;stroke-width:52.9199981689;stroke-linecap:round;stroke-linejoin:round" />
         <path
             id="_129245976"
             class="fil0 str1"
             d="m 6338,45574 c 0,-17 -13,-31 -30,-31 -17,0 -30,14 -30,31 0,4 1,9 3,13"
             inkscape:connector-curvature="0"
             style="fill:none;stroke:#000000;stroke-width:52.9199981689;stroke-linecap:round;stroke-linejoin:round" />
         <path
             id="_131607032"
             class="fil0 str1"
             d="m 6780,45587 c 1,-4 3,-9 3,-13 0,-17 -14,-31 -31,-31 -16,0 -30,14 -30,31"
             inkscape:connector-curvature="0"
             style="fill:none;stroke:#000000;stroke-width:52.9199981689;stroke-linecap:round;stroke-linejoin:round" />
         <polygon
             id="_111966376"
             class="fil2 str1"
             points="6722,45646 6722,45683 6722,45574 "
             style="fill:#000000;stroke:#000000;stroke-width:52.9199981689;stroke-linecap:round;stroke-linejoin:round" />
         <path
             id="_131076016"
             class="fil0 str1"
             d="m 6722,45574 c 0,-17 -13,-31 -30,-31 -17,0 -30,14 -30,31 0,4 1,9 3,13"
             inkscape:connector-curvature="0"
             style="fill:none;stroke:#000000;stroke-width:52.9199981689;stroke-linecap:round;stroke-linejoin:round" />
         <path
             id="_41267056"
             class="fil0 str1"
             d="m 7163,45587 c 2,-4 3,-9 3,-13 0,-17 -13,-31 -30,-31 -17,0 -30,14 -30,31"
             inkscape:connector-curvature="0"
             style="fill:none;stroke:#000000;stroke-width:52.9199981689;stroke-linecap:round;stroke-linejoin:round" />
         <polygon
             id="_130907152"
             class="fil2 str1"
             points="7106,45646 7106,45683 7106,45574 "
             style="fill:#000000;stroke:#000000;stroke-width:52.9199981689;stroke-linecap:round;stroke-linejoin:round" />
         <path
             id="_121005792"
             class="fil0 str1"
             d="m 7106,45574 c 0,-17 -14,-31 -30,-31 -17,0 -30,14 -30,31 0,4 1,9 3,13"
             inkscape:connector-curvature="0"
             style="fill:none;stroke:#000000;stroke-width:52.9199981689;stroke-linecap:round;stroke-linejoin:round" />
         <path
             id="_112085632"
             class="fil0 str1"
             d="m 7547,45587 c 2,-4 3,-9 3,-13 0,-17 -13,-31 -30,-31 -17,0 -30,14 -30,31"
             inkscape:connector-curvature="0"
             style="fill:none;stroke:#000000;stroke-width:52.9199981689;stroke-linecap:round;stroke-linejoin:round" />
         <polygon
             id="_129611576"
             class="fil2 str1"
             points="7490,45646 7490,45683 7490,45574 "
             style="fill:#000000;stroke:#000000;stroke-width:52.9199981689;stroke-linecap:round;stroke-linejoin:round" />
         <path
             id="_128118192"
             class="fil0 str1"
             d="m 7490,45574 c 0,-17 -14,-31 -30,-31 -17,0 -31,14 -31,31 0,4 1,9 3,13"
             inkscape:connector-curvature="0"
             style="fill:none;stroke:#000000;stroke-width:52.9199981689;stroke-linecap:round;stroke-linejoin:round" />
         <path
             id="_130392368"
             class="fil0 str1"
             d="m 7931,45587 c 2,-4 3,-9 3,-13 0,-17 -14,-31 -30,-31 -17,0 -30,14 -30,31"
             inkscape:connector-curvature="0"
             style="fill:none;stroke:#000000;stroke-width:52.9199981689;stroke-linecap:round;stroke-linejoin:round" />
         <polygon
             id="_129561464"
             class="fil2 str1"
             points="7874,45646 7874,45683 7874,45574 "
             style="fill:#000000;stroke:#000000;stroke-width:52.9199981689;stroke-linecap:round;stroke-linejoin:round" />
         <path
             id="_40188128"
             class="fil0 str1"
             d="m 7874,45574 c 0,-17 -14,-31 -31,-31 -16,0 -30,14 -30,31 0,4 1,9 3,13"
             inkscape:connector-curvature="0"
             style="fill:none;stroke:#000000;stroke-width:52.9199981689;stroke-linecap:round;stroke-linejoin:round" />
         <path
             id="_131302432"
             class="fil0 str1"
             d="m 8315,45587 c 2,-4 3,-9 3,-13 0,-17 -14,-31 -31,-31 -16,0 -30,14 -30,31"
             inkscape:connector-curvature="0"
             style="fill:none;stroke:#000000;stroke-width:52.9199981689;stroke-linecap:round;stroke-linejoin:round" />
         <polygon
             id="_41857120"
             class="fil2 str1"
             points="8257,45646 8257,45683 8257,45574 "
             style="fill:#000000;stroke:#000000;stroke-width:52.9199981689;stroke-linecap:round;stroke-linejoin:round" />
         <path
             id="_112978800"
             class="fil0 str1"
             d="m 8257,45574 c 0,-17 -13,-31 -30,-31 -17,0 -30,14 -30,31 0,4 1,9 3,13"
             inkscape:connector-curvature="0"
             style="fill:none;stroke:#000000;stroke-width:52.9199981689;stroke-linecap:round;stroke-linejoin:round" />
         <path
             id="_41130544"
             class="fil0 str1"
             d="m 8698,45587 c 2,-4 3,-9 3,-13 0,-17 -13,-31 -30,-31 -16,0 -30,14 -30,31"
             inkscape:connector-curvature="0"
             style="fill:none;stroke:#000000;stroke-width:52.9199981689;stroke-linecap:round;stroke-linejoin:round" />
         <polygon
             id="_40319888"
             class="fil2 str1"
             points="8641,45646 8641,45683 8641,45574 "
             style="fill:#000000;stroke:#000000;stroke-width:52.9199981689;stroke-linecap:round;stroke-linejoin:round" />
         <path
             id="_120102672"
             class="fil0 str1"
             d="m 8641,45574 c 0,-17 -13,-31 -30,-31 -17,0 -30,14 -30,31 0,4 1,9 3,13"
             inkscape:connector-curvature="0"
             style="fill:none;stroke:#000000;stroke-width:52.9199981689;stroke-linecap:round;stroke-linejoin:round" />
         <path
             id="_120538544"
             class="fil0 str1"
             d="m 9082,45587 c 2,-4 3,-9 3,-13 0,-17 -13,-31 -30,-31 -17,0 -30,14 -30,31"
             inkscape:connector-curvature="0"
             style="fill:none;stroke:#000000;stroke-width:52.9199981689;stroke-linecap:round;stroke-linejoin:round" />
         <polygon
             id="_113584744"
             class="fil2 str1"
             points="9025,45646 9025,45683 9025,45574 "
             style="fill:#000000;stroke:#000000;stroke-width:52.9199981689;stroke-linecap:round;stroke-linejoin:round" />
         <path
             id="_118892616"
             class="fil0 str1"
             d="m 9025,45574 c 0,-17 -14,-31 -30,-31 -17,0 -31,14 -31,31 0,4 2,9 3,13"
             inkscape:connector-curvature="0"
             style="fill:none;stroke:#000000;stroke-width:52.9199981689;stroke-linecap:round;stroke-linejoin:round" />
         <path
             id="_41113624"
             class="fil0 str1"
             d="m 9466,45587 c 2,-4 3,-9 3,-13 0,-17 -13,-31 -30,-31 -17,0 -30,14 -30,31"
             inkscape:connector-curvature="0"
             style="fill:none;stroke:#000000;stroke-width:52.9199981689;stroke-linecap:round;stroke-linejoin:round" />
         <polygon
             id="_130242840"
             class="fil2 str1"
             points="9409,45646 9409,45683 9409,45574 "
             style="fill:#000000;stroke:#000000;stroke-width:52.9199981689;stroke-linecap:round;stroke-linejoin:round" />
         <path
             id="_129136200"
             class="fil0 str1"
             d="m 9409,45574 c 0,-17 -14,-31 -31,-31 -16,0 -30,14 -30,31 0,4 1,9 3,13"
             inkscape:connector-curvature="0"
             style="fill:none;stroke:#000000;stroke-width:52.9199981689;stroke-linecap:round;stroke-linejoin:round" />
         <path
             id="_129566360"
             class="fil0 str1"
             d="m 9850,45587 c 2,-4 3,-9 3,-13 0,-17 -14,-31 -30,-31 -17,0 -31,14 -31,31"
             inkscape:connector-curvature="0"
             style="fill:none;stroke:#000000;stroke-width:52.9199981689;stroke-linecap:round;stroke-linejoin:round" />
         <polygon
             id="_40298792"
             class="fil2 str1"
             points="9792,45646 9792,45683 9792,45574 "
             style="fill:#000000;stroke:#000000;stroke-width:52.9199981689;stroke-linecap:round;stroke-linejoin:round" />
         <path
             id="_119586160"
             class="fil0 str1"
             d="m 9792,45574 c 0,-17 -13,-31 -30,-31 -16,0 -30,14 -30,31 0,4 1,9 3,13"
             inkscape:connector-curvature="0"
             style="fill:none;stroke:#000000;stroke-width:52.9199981689;stroke-linecap:round;stroke-linejoin:round" />
         <path
             id="_113591176"
             class="fil0 str1"
             d="m 6012,46215 c 2,-4 3,-9 3,-13 0,-17 -14,-31 -30,-31 -17,0 -30,14 -30,31"
             inkscape:connector-curvature="0"
             style="fill:none;stroke:#000000;stroke-width:52.9199981689;stroke-linecap:round;stroke-linejoin:round" />
         <polygon
             id="_130362016"
             class="fil2 str1"
             points="5955,46274 5955,46311 5955,46202 "
             style="fill:#000000;stroke:#000000;stroke-width:52.9199981689;stroke-linecap:round;stroke-linejoin:round" />
         <path
             id="_40127088"
             class="fil0 str1"
             d="m 5955,46202 c 0,-17 -14,-31 -31,-31 -16,0 -30,14 -30,31 0,4 1,9 3,13"
             inkscape:connector-curvature="0"
             style="fill:none;stroke:#000000;stroke-width:52.9199981689;stroke-linecap:round;stroke-linejoin:round" />
         <path
             id="_130393864"
             class="fil0 str1"
             d="m 6396,46215 c 2,-4 3,-9 3,-13 0,-17 -14,-31 -30,-31 -17,0 -31,14 -31,31"
             inkscape:connector-curvature="0"
             style="fill:none;stroke:#000000;stroke-width:52.9199981689;stroke-linecap:round;stroke-linejoin:round" />
         <polygon
             id="_128051128"
             class="fil2 str1"
             points="6338,46274 6338,46311 6338,46202 "
             style="fill:#000000;stroke:#000000;stroke-width:52.9199981689;stroke-linecap:round;stroke-linejoin:round" />
         <path
             id="_129281696"
             class="fil0 str1"
             d="m 6338,46202 c 0,-17 -13,-31 -30,-31 -17,0 -30,14 -30,31 0,4 1,9 3,13"
             inkscape:connector-curvature="0"
             style="fill:none;stroke:#000000;stroke-width:52.9199981689;stroke-linecap:round;stroke-linejoin:round" />
         <path
             id="_130396144"
             class="fil0 str1"
             d="m 6780,46215 c 1,-4 3,-9 3,-13 0,-17 -14,-31 -31,-31 -16,0 -30,14 -30,31"
             inkscape:connector-curvature="0"
             style="fill:none;stroke:#000000;stroke-width:52.9199981689;stroke-linecap:round;stroke-linejoin:round" />
         <polygon
             id="_131558392"
             class="fil2 str1"
             points="6722,46274 6722,46311 6722,46202 "
             style="fill:#000000;stroke:#000000;stroke-width:52.9199981689;stroke-linecap:round;stroke-linejoin:round" />
         <path
             id="_111824112"
             class="fil0 str1"
             d="m 6722,46202 c 0,-17 -13,-31 -30,-31 -17,0 -30,14 -30,31 0,4 1,9 3,13"
             inkscape:connector-curvature="0"
             style="fill:none;stroke:#000000;stroke-width:52.9199981689;stroke-linecap:round;stroke-linejoin:round" />
         <path
             id="_131481680"
             class="fil0 str1"
             d="m 7163,46215 c 2,-4 3,-9 3,-13 0,-17 -13,-31 -30,-31 -17,0 -30,14 -30,31"
             inkscape:connector-curvature="0"
             style="fill:none;stroke:#000000;stroke-width:52.9199981689;stroke-linecap:round;stroke-linejoin:round" />
         <polygon
             id="_39992976"
             class="fil2 str1"
             points="7106,46274 7106,46311 7106,46202 "
             style="fill:#000000;stroke:#000000;stroke-width:52.9199981689;stroke-linecap:round;stroke-linejoin:round" />
         <path
             id="_129280064"
             class="fil0 str1"
             d="m 7106,46202 c 0,-17 -14,-31 -30,-31 -17,0 -30,14 -30,31 0,4 1,9 3,13"
             inkscape:connector-curvature="0"
             style="fill:none;stroke:#000000;stroke-width:52.9199981689;stroke-linecap:round;stroke-linejoin:round" />
         <path
             id="_131687000"
             class="fil0 str1"
             d="m 7547,46215 c 2,-4 3,-9 3,-13 0,-17 -13,-31 -30,-31 -17,0 -30,14 -30,31"
             inkscape:connector-curvature="0"
             style="fill:none;stroke:#000000;stroke-width:52.9199981689;stroke-linecap:round;stroke-linejoin:round" />
         <polygon
             id="_130519008"
             class="fil2 str1"
             points="7490,46274 7490,46311 7490,46202 "
             style="fill:#000000;stroke:#000000;stroke-width:52.9199981689;stroke-linecap:round;stroke-linejoin:round" />
         <path
             id="_41289696"
             class="fil0 str1"
             d="m 7490,46202 c 0,-17 -14,-31 -30,-31 -17,0 -31,14 -31,31 0,4 1,9 3,13"
             inkscape:connector-curvature="0"
             style="fill:none;stroke:#000000;stroke-width:52.9199981689;stroke-linecap:round;stroke-linejoin:round" />
         <path
             id="_113441696"
             class="fil0 str1"
             d="m 7931,46215 c 2,-4 3,-9 3,-13 0,-17 -14,-31 -30,-31 -17,0 -30,14 -30,31"
             inkscape:connector-curvature="0"
             style="fill:none;stroke:#000000;stroke-width:52.9199981689;stroke-linecap:round;stroke-linejoin:round" />
         <polygon
             id="_112652128"
             class="fil2 str1"
             points="7874,46274 7874,46311 7874,46202 "
             style="fill:#000000;stroke:#000000;stroke-width:52.9199981689;stroke-linecap:round;stroke-linejoin:round" />
         <path
             id="_129125696"
             class="fil0 str1"
             d="m 7874,46202 c 0,-17 -14,-31 -31,-31 -16,0 -30,14 -30,31 0,4 1,9 3,13"
             inkscape:connector-curvature="0"
             style="fill:none;stroke:#000000;stroke-width:52.9199981689;stroke-linecap:round;stroke-linejoin:round" />
         <path
             id="_112765032"
             class="fil0 str1"
             d="m 8315,46215 c 2,-4 3,-9 3,-13 0,-17 -14,-31 -31,-31 -16,0 -30,14 -30,31"
             inkscape:connector-curvature="0"
             style="fill:none;stroke:#000000;stroke-width:52.9199981689;stroke-linecap:round;stroke-linejoin:round" />
         <polygon
             id="_129779792"
             class="fil2 str1"
             points="8257,46274 8257,46311 8257,46202 "
             style="fill:#000000;stroke:#000000;stroke-width:52.9199981689;stroke-linecap:round;stroke-linejoin:round" />
         <path
             id="_129850944"
             class="fil0 str1"
             d="m 8257,46202 c 0,-17 -13,-31 -30,-31 -17,0 -30,14 -30,31 0,4 1,9 3,13"
             inkscape:connector-curvature="0"
             style="fill:none;stroke:#000000;stroke-width:52.9199981689;stroke-linecap:round;stroke-linejoin:round" />
         <path
             id="_131174384"
             class="fil0 str1"
             d="m 8698,46215 c 2,-4 3,-9 3,-13 0,-17 -13,-31 -30,-31 -16,0 -30,14 -30,31"
             inkscape:connector-curvature="0"
             style="fill:none;stroke:#000000;stroke-width:52.9199981689;stroke-linecap:round;stroke-linejoin:round" />
         <polygon
             id="_128765856"
             class="fil2 str1"
             points="8641,46274 8641,46311 8641,46202 "
             style="fill:#000000;stroke:#000000;stroke-width:52.9199981689;stroke-linecap:round;stroke-linejoin:round" />
         <path
             id="_131476936"
             class="fil0 str1"
             d="m 8641,46202 c 0,-17 -13,-31 -30,-31 -17,0 -30,14 -30,31 0,4 1,9 3,13"
             inkscape:connector-curvature="0"
             style="fill:none;stroke:#000000;stroke-width:52.9199981689;stroke-linecap:round;stroke-linejoin:round" />
         <path
             id="_131290600"
             class="fil0 str1"
             d="m 9082,46215 c 2,-4 3,-9 3,-13 0,-17 -13,-31 -30,-31 -17,0 -30,14 -30,31"
             inkscape:connector-curvature="0"
             style="fill:none;stroke:#000000;stroke-width:52.9199981689;stroke-linecap:round;stroke-linejoin:round" />
         <polygon
             id="_113269288"
             class="fil2 str1"
             points="9025,46274 9025,46311 9025,46202 "
             style="fill:#000000;stroke:#000000;stroke-width:52.9199981689;stroke-linecap:round;stroke-linejoin:round" />
         <path
             id="_129954520"
             class="fil0 str1"
             d="m 9025,46202 c 0,-17 -14,-31 -30,-31 -17,0 -31,14 -31,31 0,4 2,9 3,13"
             inkscape:connector-curvature="0"
             style="fill:none;stroke:#000000;stroke-width:52.9199981689;stroke-linecap:round;stroke-linejoin:round" />
         <path
             id="_112599072"
             class="fil0 str1"
             d="m 9466,46215 c 2,-4 3,-9 3,-13 0,-17 -13,-31 -30,-31 -17,0 -30,14 -30,31"
             inkscape:connector-curvature="0"
             style="fill:none;stroke:#000000;stroke-width:52.9199981689;stroke-linecap:round;stroke-linejoin:round" />
         <polygon
             id="_131310840"
             class="fil2 str1"
             points="9409,46274 9409,46311 9409,46202 "
             style="fill:#000000;stroke:#000000;stroke-width:52.9199981689;stroke-linecap:round;stroke-linejoin:round" />
         <path
             id="_131560560"
             class="fil0 str1"
             d="m 9409,46202 c 0,-17 -14,-31 -31,-31 -16,0 -30,14 -30,31 0,4 1,9 3,13"
             inkscape:connector-curvature="0"
             style="fill:none;stroke:#000000;stroke-width:52.9199981689;stroke-linecap:round;stroke-linejoin:round" />
         <path
             id="_128889824"
             class="fil0 str1"
             d="m 9850,46215 c 2,-4 3,-9 3,-13 0,-17 -14,-31 -30,-31 -17,0 -31,14 -31,31"
             inkscape:connector-curvature="0"
             style="fill:none;stroke:#000000;stroke-width:52.9199981689;stroke-linecap:round;stroke-linejoin:round" />
         <polygon
             id="_131689864"
             class="fil2 str1"
             points="9792,46274 9792,46311 9792,46202 "
             style="fill:#000000;stroke:#000000;stroke-width:52.9199981689;stroke-linecap:round;stroke-linejoin:round" />
         <path
             id="_129705568"
             class="fil0 str1"
             d="m 9792,46202 c 0,-17 -13,-31 -30,-31 -16,0 -30,14 -30,31 0,4 1,9 3,13"
             inkscape:connector-curvature="0"
             style="fill:none;stroke:#000000;stroke-width:52.9199981689;stroke-linecap:round;stroke-linejoin:round" />
      </g>
      <path
          class="fil3"
          d="m 9195,45542 c -11,22 -30,42 -34,66 -2,8 -4,20 3,23 l 21,8 16,4 c 29,0 52,-6 65,-38 26,-64 24,-126 16,-194 -10,-87 -41,-154 -79,-216 -75,-122 -162,-238 -220,-369 57,13 296,159 344,197 70,56 231,201 231,315 0,63 -31,88 -63,141 -9,15 3,28 14,36 21,3 42,15 61,9 19,-6 36,-13 46,-29 101,-153 4,-383 -80,-507 -68,-90 -111,-162 -163,-267 -24,-48 -50,-93 -76,-137 -64,-110 -189,-254 -314,-334 156,-134 258,-241 299,-295 178,-231 254,-639 -58,-900 -114,-95 -310,-126 -492,-150 -238,-32 -604,-51 -819,-143 -65,-28 -152,-84 -187,-137 -79,53 -150,202 -150,339 0,222 173,333 367,363 209,32 431,55 649,81 206,24 395,103 450,280 68,224 -54,422 -200,499 -35,-19 -101,-34 -154,-34 -268,0 -499,199 -774,199 -241,0 -457,-106 -537,-266 -55,-111 -34,-236 -57,-344 -24,-113 -70,-169 -155,-246 0,-73 -27,-146 -106,-146 -46,0 -45,68 -77,68 -45,0 -53,-72 -83,-72 l -9,0 c -35,0 -68,34 -68,67 0,13 2,22 5,34 -45,11 -82,76 -102,117 -25,53 -109,85 -103,114 5,21 12,47 27,64 30,2 61,-3 66,5 4,26 -60,8 -57,15 4,9 17,22 37,24 118,7 238,47 238,181 0,92 -32,287 -57,351 -47,115 -93,193 -247,181 -147,-11 -303,-37 -446,15 -46,17 -127,66 -129,118 -1,10 3,19 9,27 11,13 27,12 44,12 33,0 98,-58 154,-58 146,0 304,125 493,125 65,0 116,-9 179,-24 -101,192 -434,97 -618,102 -83,0 -138,55 -170,106 -9,16 9,48 27,48 12,0 26,2 37,-4 30,-13 114,-53 159,-53 147,0 238,145 459,145 158,0 255,-59 353,-136 87,59 193,126 338,126 l 5,0 c 147,0 288,-49 395,-93 87,-36 275,-100 388,-100 52,0 98,16 137,51 31,29 72,60 99,85 86,84 218,161 330,212 77,34 175,72 240,127 52,44 121,140 83,212 z"
          id="path1465"
          inkscape:connector-curvature="0"
          style="fill:#ffcc00" />
      <path
          class="fil2 str2"
          d="m 6682,43649 c -5,33 -34,36 -58,26 l 58,-26 z"
          id="path1467"
          inkscape:connector-curvature="0"
          style="fill:#000000;stroke:#000000;stroke-width:17.6299991608;stroke-linecap:round;stroke-linejoin:round" />
      <path
          class="fil2"
          d="m 7085,43376 c 25,4 39,33 39,58 0,23 -2,44 -24,58 8,-44 1,-91 -36,-92 -19,0 -23,27 -27,46 -17,-32 6,-76 48,-70 z"
          id="path1469"
          inkscape:connector-curvature="0"
          style="fill:#000000" />
      <path
          class="fil2"
          d="m 7044,43402 c 39,-29 62,8 70,42 1,-30 -12,-59 -40,-61 -13,-1 -27,8 -30,19 z"
          id="path1471"
          inkscape:connector-curvature="0"
          style="fill:#000000" />
      <path
          id="path15848"
          class="fil2"
          d="m 6993,43567 c 0,0 1,-17 -4,-24 -4,-5 -12,-7 -18,-7 -18,0 -22,11 -39,12 -15,1 -38,5 -47,8 -31,13 -41,14 -39,20 1,3 18,9 26,18 14,36 45,42 72,32 10,-4 20,-13 26,-25 4,-8 6,-18 9,-25 4,-7 13,-1 14,-9 l 0,0 z"
          sodipodi:nodetypes="cssscscsssc"
          inkscape:connector-curvature="0"
          style="fill:#000000" />
      <g
          id="_131607712">
         <path
             id="_130312656"
             class="fil2 str3"
             d="m 6125,44985 c 6,-26 21,-51 47,-57 4,-1 8,2 7,6 -10,15 -45,50 -54,51 z"
             inkscape:connector-curvature="0"
             style="fill:#000000;stroke:#000000;stroke-width:7.6199998856" />
         <path
             id="path10006-2-7-6"
             class="fil2 str3"
             d="m 6156,44940 c 3,-2 5,2 3,4 -8,4 -16,16 -21,24 0,-7 6,-18 18,-28 l 0,0 z"
             sodipodi:nodetypes="csccc"
             inkscape:connector-curvature="0"
             style="fill:#000000;stroke:#000000;stroke-width:7.6199998856" />
         <g
             id="g1480">
            <path
                id="_129433288"
                class="fil2 str3"
                d="m 6147,45003 c 6,-26 21,-51 46,-57 4,-1 8,2 8,5 -10,16 -45,51 -54,52 z"
                inkscape:connector-curvature="0"
                style="fill:#000000;stroke:#000000;stroke-width:7.6199998856" />
            <path
                id="path10006-2-7-6_9"
                class="fil2 str3"
                d="m 6178,44958 c 3,-2 5,2 3,4 -8,4 -16,16 -21,24 0,-7 6,-19 18,-28 l 0,0 z"
                sodipodi:nodetypes="csccc"
                inkscape:connector-curvature="0"
                style="fill:#000000;stroke:#000000;stroke-width:7.6199998856" />
         </g>
      </g>
      <g
          id="_130989968">
         <path
             id="_113257776"
             class="fil2 str3"
             d="m 6038,44689 c 3,-26 16,-53 40,-62 4,-1 8,2 8,6 -8,16 -39,54 -48,56 z"
             inkscape:connector-curvature="0"
             style="fill:#000000;stroke:#000000;stroke-width:7.6199998856" />
         <path
             id="path10006-2-7-6_10"
             class="fil2 str3"
             d="m 6064,44641 c 3,-2 5,2 3,4 -7,5 -14,17 -18,26 -1,-7 4,-19 15,-30 l 0,0 z"
             sodipodi:nodetypes="csccc"
             inkscape:connector-curvature="0"
             style="fill:#000000;stroke:#000000;stroke-width:7.6199998856" />
         <g
             id="g1487">
            <path
                id="_129674648"
                class="fil2 str3"
                d="m 6062,44705 c 3,-27 15,-53 40,-62 3,-1 8,2 8,5 -9,16 -40,55 -48,57 z"
                inkscape:connector-curvature="0"
                style="fill:#000000;stroke:#000000;stroke-width:7.6199998856" />
            <path
                id="path10006-2-7-6_11"
                class="fil2 str3"
                d="m 6087,44657 c 4,-2 6,2 4,4 -8,5 -14,17 -19,25 0,-6 4,-18 15,-29 l 0,0 z"
                sodipodi:nodetypes="csccc"
                inkscape:connector-curvature="0"
                style="fill:#000000;stroke:#000000;stroke-width:7.6199998856" />
         </g>
      </g>
      <g
          id="_113558744">
         <path
             id="_127977480"
             class="fil2 str3"
             d="m 9162,45675 c -1,-27 7,-55 29,-67 4,-2 9,0 9,3 -6,18 -30,61 -38,64 z"
             inkscape:connector-curvature="0"
             style="fill:#000000;stroke:#000000;stroke-width:7.6199998856" />
         <path
             id="path10006-2-7-6_24"
             class="fil2 str3"
             d="m 9180,45623 c 2,-2 5,1 4,4 -7,6 -11,19 -15,28 -1,-6 1,-19 11,-32 l 0,0 z"
             sodipodi:nodetypes="csccc"
             inkscape:connector-curvature="0"
             style="fill:#000000;stroke:#000000;stroke-width:7.6199998856" />
         <g
             id="g1494">
            <path
                id="_112398952"
                class="fil2 str3"
                d="m 9188,45687 c -1,-27 6,-55 29,-68 4,-2 9,1 9,4 -6,17 -30,60 -38,64 z"
                inkscape:connector-curvature="0"
                style="fill:#000000;stroke:#000000;stroke-width:7.6199998856" />
            <path
                id="path10006-2-7-6_25"
                class="fil2 str3"
                d="m 9205,45635 c 3,-2 6,1 4,3 -6,6 -11,19 -14,29 -2,-7 1,-20 10,-32 l 0,0 z"
                sodipodi:nodetypes="csccc"
                inkscape:connector-curvature="0"
                style="fill:#000000;stroke:#000000;stroke-width:7.6199998856" />
         </g>
      </g>
      <g
          id="_131554352">
         <path
             id="_132141712"
             class="fil2 str3"
             d="m 9504,45556 c -1,-27 7,-55 29,-68 4,-2 9,1 9,4 -6,17 -30,60 -38,64 z"
             inkscape:connector-curvature="0"
             style="fill:#000000;stroke:#000000;stroke-width:7.6199998856" />
         <path
             id="path10006-2-7-6_26"
             class="fil2 str3"
             d="m 9522,45504 c 2,-3 5,1 4,3 -7,6 -11,19 -15,28 -1,-6 1,-19 11,-31 l 0,0 z"
             sodipodi:nodetypes="csccc"
             inkscape:connector-curvature="0"
             style="fill:#000000;stroke:#000000;stroke-width:7.6199998856" />
         <g
             id="g1501">
            <path
                id="_41368672"
                class="fil2 str3"
                d="m 9530,45567 c -1,-27 6,-55 29,-67 4,-2 9,0 9,3 -6,18 -30,61 -38,64 z"
                inkscape:connector-curvature="0"
                style="fill:#000000;stroke:#000000;stroke-width:7.6199998856" />
            <path
                id="path10006-2-7-6_27"
                class="fil2 str3"
                d="m 9547,45515 c 3,-2 6,1 4,4 -6,6 -11,19 -14,28 -2,-6 1,-19 10,-32 l 0,0 z"
                sodipodi:nodetypes="csccc"
                inkscape:connector-curvature="0"
                style="fill:#000000;stroke:#000000;stroke-width:7.6199998856" />
         </g>
      </g>
   </g>
</svg>
