<?xml version="1.0" encoding="UTF-8" standalone="no"?>
<svg
    xmlns:dc="http://purl.org/dc/elements/1.1/"
    xmlns:cc="http://creativecommons.org/ns#"
    xmlns:rdf="http://www.w3.org/1999/02/22-rdf-syntax-ns#"
    xmlns:svg="http://www.w3.org/2000/svg"
    xmlns="http://www.w3.org/2000/svg"
    xmlns:sodipodi="http://sodipodi.sourceforge.net/DTD/sodipodi-0.dtd"
    xmlns:inkscape="http://www.inkscape.org/namespaces/inkscape"
    id="city_nnov"
    data-name="nnov"
    width="52.5mm"
    height="52.5mm"
    viewBox="0 0 148.82 148.82"
    version="1.1"
    inkscape:version="0.91 r13725"
    sodipodi:docname="_ukhta.svg">
   <metadata
       id="metadata22">
      <rdf:RDF>
         <cc:Work
             rdf:about="">
            <dc:format>image/svg+xml</dc:format>
            <dc:type
                rdf:resource="http://purl.org/dc/dcmitype/StillImage" />
            <dc:title></dc:title>
         </cc:Work>
      </rdf:RDF>
   </metadata>
   <defs
       id="defs20" />
   <sodipodi:namedview
       pagecolor="#ffffff"
       bordercolor="#666666"
       borderopacity="1"
       objecttolerance="10"
       gridtolerance="10"
       guidetolerance="10"
       inkscape:pageopacity="0"
       inkscape:pageshadow="2"
       inkscape:window-width="640"
       inkscape:window-height="480"
       id="namedview18"
       showgrid="false"
       inkscape:zoom="1.268656085"
       inkscape:cx="93.01181102"
       inkscape:cy="93.01181102"
       inkscape:current-layer="city_nnov" />
   <g
       transform="matrix(0.0283466687,0,0,0.0283466716,-298.8728633,-1188.668437)"
       style="clip-rule:evenodd;fill-rule:evenodd;image-rendering:optimizeQuality;shape-rendering:geometricPrecision;text-rendering:geometricPrecision"
       id="ukhta">
      <polygon
          class="fil9"
          points="11956,44934 11976,44899 12483,43982 12360,43900 12325,43877 12347,43842 13124,42625 13900,43842 13922,43877 13888,43900 13764,43982 14272,44899 14292,44934 14257,44956 14074,45072 14851,46562 14884,46625 14813,46625 13124,46625 11435,46625 11364,46625 11397,46562 12173,45072 11990,44956 "
          id="polygon1780"
          style="fill:#ffcc00;fill-rule:nonzero" />
      <polygon
          class="fil18"
          points="14178,44905 13671,43989 13651,43955 13684,43933 13806,43852 13124,42768 12442,43852 12563,43933 12596,43955 12577,43989 12070,44905 12252,45021 12286,45042 12268,45076 11505,46539 13124,46539 14742,46539 13980,45076 13962,45042 13995,45021 "
          id="polygon1782"
          style="fill:#fefefe;fill-rule:nonzero" />
      <path
          class="fil2"
          d="m 13364,43349 -152,0 -88,-193 -88,193 -152,0 0,172 86,0 -108,647 -162,0 0,273 117,0 -118,710 c -107,22 -194,80 -259,174 56,121 111,249 167,377 l -52,310 -6,33 34,0 541,0 540,0 34,0 -5,-33 -52,-310 c 55,-128 111,-256 167,-377 -66,-94 -152,-152 -259,-174 l -118,-710 117,0 0,-273 -163,0 -108,-647 87,0 0,-172 z m -635,1919 9,0 9,-1 9,0 9,-1 8,-1 9,-1 9,-1 8,-2 8,-2 8,-1 5,-1 5,-2 5,-1 4,-1 5,-2 4,-1 5,-1 4,-2 4,-1 5,-2 4,-1 4,-1 4,-2 4,-1 4,-1 4,-2 4,-1 4,-1 4,-1 4,-1 4,-2 4,-1 4,0 4,-1 4,-1 4,-1 4,0 4,-1 4,0 4,-1 4,0 4,0 6,0 6,0 5,0 6,0 6,1 7,0 6,1 6,1 7,1 6,2 7,1 6,2 7,1 6,2 7,2 6,2 7,2 6,3 7,2 6,3 0,0 0,199 38,0 0,526 -2,-1 -13,-6 -14,-5 -13,-4 -13,-5 -13,-4 -13,-3 -14,-3 -13,-2 -13,-3 -13,-1 -14,-1 -13,-1 -13,0 -13,0 -13,1 -13,2 -13,2 -13,2 -13,3 -13,4 -13,4 -13,5 -12,5 -13,6 -12,6 -13,8 -1,1 -6,-22 -6,-23 -7,-24 -6,-25 -7,-24 -7,-24 -7,-25 -7,-25 -8,-25 -7,-25 -7,-25 -8,-25 -7,-25 -7,-25 -8,-26 -7,-25 -8,-25 -7,-25 -7,-25 -8,-25 -7,-25 -7,-25 -7,-25 -7,-25 -7,-24 -7,-24 -7,-24 -6,-24 -7,-24 -4,-17 2,1 8,1 9,2 9,1 9,1 9,2 9,1 9,1 9,0 9,1 10,1 9,1 9,0 10,0 9,1 9,0 9,0 10,0 9,-1 z m 403,181 40,0 0,-199 0,0 7,-3 6,-2 7,-3 6,-2 7,-2 6,-2 7,-2 6,-1 7,-2 7,-1 6,-2 6,-1 7,-1 6,-1 6,0 6,-1 6,0 6,0 6,0 5,0 4,0 5,0 4,1 4,0 4,1 4,0 4,1 4,1 4,1 4,0 4,1 4,2 3,1 4,1 4,1 4,1 4,2 4,1 5,1 4,2 4,1 4,1 4,2 5,1 4,2 4,1 5,1 4,2 5,1 5,1 4,2 5,1 8,1 9,2 8,2 8,1 9,1 9,1 9,1 9,0 9,1 9,0 9,1 9,0 9,0 10,0 9,-1 9,0 10,0 9,-1 9,-1 9,-1 10,0 9,-1 9,-1 9,-2 9,-1 8,-1 9,-2 9,-1 2,-1 -5,17 -6,24 -7,24 -7,24 -6,24 -7,24 -7,25 -7,25 -8,25 -7,25 -7,25 -8,25 -7,25 -7,25 -8,25 -7,26 -8,25 -7,25 -7,25 -8,25 -7,25 -7,25 -7,25 -7,25 -7,24 -7,24 -7,25 -6,24 -7,23 -5,22 -2,-1 -12,-8 -13,-6 -12,-6 -13,-5 -12,-5 -13,-4 -13,-4 -13,-3 -13,-2 -13,-2 -13,-2 -13,-1 -13,0 -14,0 -13,1 -13,1 -13,1 -13,3 -14,2 -13,3 -13,3 -13,4 -14,5 -13,4 -13,5 -13,6 -5,2 0,-527 z m -105,-1921 231,226 -38,-233 -96,0 -96,0 -1,7 z m 240,277 -345,351 -2,12 204,0 203,0 -60,-363 z m -334,285 301,-306 -215,-210 -86,516 z m 191,351 249,0 117,702 c -93,-8 -198,9 -318,49 l 0,-75 -23,0 c -1,-12 0,-24 1,-37 l 185,-2 c 98,-1 77,-78 47,-136 -65,-105 -139,-202 -204,-307 l -54,-86 -54,86 c -65,105 -139,202 -204,307 -31,58 -52,135 46,136 l 185,2 c 2,13 3,25 2,37 l -24,0 0,75 c -119,-40 -225,-57 -317,-49 l 117,-702 249,0 z m -475,1356 -32,191 117,0 c -29,-62 -57,-126 -85,-191 z m 950,0 32,191 -117,0 c 28,-62 57,-126 85,-191 z"
          id="path1784"
          inkscape:connector-curvature="0"
          style="fill:#000000" />
      <path
          class="fil4"
          d="m 12739,44207 385,0 385,0 0,195 -385,0 -385,0 0,-195 z m 1889,2198 -74,-142 -173,178 5,4 97,0 60,-62 54,53 31,-31 z m -101,-194 -37,-71 -55,57 -53,-53 -54,54 54,54 -81,84 -77,-80 55,-59 -55,-52 -53,56 -64,-66 -106,0 273,282 27,28 27,-28 199,-206 z m -2770,-71 -37,71 199,206 28,28 27,-28 273,-282 -106,0 -64,66 -54,-56 -55,52 56,59 -77,80 -81,-84 54,-54 -54,-54 -53,53 -56,-57 z m -63,123 -74,142 31,31 53,-53 60,62 98,0 4,-4 -172,-178 z m 1430,-18 77,79 -56,59 55,52 54,-56 64,66 106,0 -273,-282 -27,-28 -27,28 -273,282 106,0 64,-66 53,56 56,-52 -56,-59 77,-79 z m 756,137 -54,-54 81,-84 77,80 -55,59 55,52 53,-56 64,66 106,0 -273,-282 -27,-28 -27,28 -269,278 4,4 98,0 60,-62 53,53 54,-54 z m -336,-184 54,54 -81,84 -77,-80 56,-59 -56,-52 -53,56 -64,-66 -106,0 273,282 27,28 27,-28 269,-278 -4,-4 -98,0 -60,62 -53,-53 -54,54 z m -1177,184 54,-54 -81,-84 -77,80 56,59 -55,52 -54,-56 -64,66 -106,0 273,-282 27,-28 28,28 268,278 -4,4 -97,0 -61,-62 -53,53 -54,-54 z m 337,-184 -55,54 81,84 78,-80 -56,-59 55,-52 54,56 64,-66 106,0 -273,282 -28,28 -27,-28 -269,-278 5,-4 97,0 60,62 54,-53 54,54 z m -194,-926 14,-14 16,-13 0,-1 c 61,231 146,498 209,731 l -3,-6 -10,-21 -9,-22 -10,-21 -10,-22 -9,-21 -10,-22 -9,-22 -10,-22 -10,-22 -9,-21 -10,-22 -9,-23 -10,-22 -10,-22 -9,-22 -10,-22 -10,-22 -9,-22 -10,-22 -9,-22 -10,-22 -10,-22 -9,-21 -10,-22 -10,-22 -9,-21 -10,-21 -9,-22 -10,-21 -5,-11 6,-8 14,-17 13,-16 15,-14 z m 1228,0 -15,-14 -15,-13 -1,-1 c -61,231 -146,498 -208,731 l 3,-6 9,-21 10,-22 10,-21 9,-22 10,-21 9,-22 10,-22 10,-22 9,-22 10,-21 9,-22 10,-23 10,-22 9,-22 10,-22 10,-22 9,-22 10,-22 9,-22 10,-22 10,-22 9,-22 10,-21 10,-22 9,-22 10,-21 9,-21 10,-22 10,-21 5,-11 -7,-8 -13,-17 -14,-16 -14,-14 z m -44,-38 -2,-1 -16,-11 -17,-10 -17,-9 -18,-9 -18,-7 -19,-6 -19,-6 -20,-5 -21,-4 -21,-3 -22,-2 -22,-1 -23,0 -23,1 -24,1 -24,3 -26,4 -25,4 -26,5 -27,7 -28,7 -28,8 -28,9 -8,3 0,17 c 43,-17 89,-25 127,-24 50,1 89,23 138,34 74,17 177,12 257,-5 z m -570,768 5,0 20,0 19,0 20,0 19,0 20,0 19,0 20,0 19,0 20,0 19,0 20,0 19,-1 20,0 19,0 20,0 19,0 20,-1 5,0 c -107,-65 -225,-55 -342,1 -118,-56 -235,-66 -342,-1 l 5,0 19,1 20,0 19,0 20,0 19,0 20,1 19,0 20,0 19,0 20,0 19,0 20,0 19,0 20,0 19,0 20,0 19,0 6,0 z m -570,-768 1,-1 17,-11 16,-10 18,-9 17,-9 19,-7 19,-6 19,-6 20,-5 20,-4 21,-3 22,-2 22,-1 23,0 24,1 23,1 25,3 25,4 26,4 26,5 27,7 27,7 28,8 29,9 7,3 0,17 c -43,-17 -88,-25 -126,-24 -50,1 -89,23 -138,34 -75,17 -178,12 -257,-5 z"
          id="path1786"
          inkscape:connector-curvature="0"
          style="fill:#999999" />
      <path
          class="fil18"
          d="m 12862,44231 43,0 0,150 -29,0 0,-123 -31,0 17,-27 z m 174,154 -24,-12 26,-51 c -13,0 -24,-5 -33,-14 -9,-9 -13,-20 -13,-34 0,-13 4,-24 14,-33 9,-9 20,-14 33,-14 14,0 26,5 35,14 9,10 14,21 14,33 0,4 -1,9 -2,14 -2,4 -5,11 -10,21 l -40,76 z m 4,-90 c 5,0 10,-2 14,-6 3,-4 5,-9 5,-15 0,-5 -2,-10 -6,-14 -3,-4 -8,-6 -13,-6 -6,0 -10,2 -14,6 -4,4 -6,9 -6,14 0,6 2,11 6,15 4,4 8,6 14,6 z m 162,-68 29,0 0,97 14,0 0,26 -14,0 0,31 -29,0 0,-31 -66,0 0,-26 66,-97 z m 0,97 0,-51 -35,51 35,0 z m 122,-56 -28,0 c 2,-11 6,-20 12,-27 10,-9 21,-14 35,-14 13,0 23,4 32,12 8,8 13,17 13,28 0,6 -2,12 -6,18 -4,5 -9,10 -16,13 9,3 17,8 22,14 5,7 8,15 8,24 0,14 -5,25 -16,35 -10,9 -23,14 -38,14 -15,0 -27,-5 -37,-14 -9,-8 -14,-20 -15,-36 l 29,0 c 1,8 4,14 8,18 4,3 10,5 16,5 7,0 13,-2 17,-6 5,-4 7,-10 7,-16 0,-7 -3,-12 -9,-17 -6,-5 -15,-7 -26,-7 l 0,-25 c 7,0 12,-1 15,-3 4,-1 6,-4 8,-6 2,-3 3,-6 3,-9 0,-4 -1,-8 -4,-10 -3,-3 -7,-4 -12,-4 -4,0 -7,1 -11,3 -3,3 -6,6 -7,10 z"
          id="path1788"
          inkscape:connector-curvature="0"
          style="fill:#fefefe;fill-rule:nonzero" />
   </g>
</svg>
