<?xml version="1.0" encoding="UTF-8" standalone="no"?>
<svg
    xmlns:dc="http://purl.org/dc/elements/1.1/"
    xmlns:cc="http://creativecommons.org/ns#"
    xmlns:rdf="http://www.w3.org/1999/02/22-rdf-syntax-ns#"
    xmlns:svg="http://www.w3.org/2000/svg"
    xmlns="http://www.w3.org/2000/svg"
    xmlns:sodipodi="http://sodipodi.sourceforge.net/DTD/sodipodi-0.dtd"
    xmlns:inkscape="http://www.inkscape.org/namespaces/inkscape"
    id="city_nnov"
    data-name="nnov"
    width="52.5mm"
    height="52.5mm"
    viewBox="0 0 148.82 148.82"
    version="1.1"
    inkscape:version="0.91 r13725"
    sodipodi:docname="_ulan-ude.svg">
   <metadata
       id="metadata22">
      <rdf:RDF>
         <cc:Work
             rdf:about="">
            <dc:format>image/svg+xml</dc:format>
            <dc:type
                rdf:resource="http://purl.org/dc/dcmitype/StillImage" />
            <dc:title></dc:title>
         </cc:Work>
      </rdf:RDF>
   </metadata>
   <defs
       id="defs20" />
   <sodipodi:namedview
       pagecolor="#ffffff"
       bordercolor="#666666"
       borderopacity="1"
       objecttolerance="10"
       gridtolerance="10"
       guidetolerance="10"
       inkscape:pageopacity="0"
       inkscape:pageshadow="2"
       inkscape:window-width="640"
       inkscape:window-height="480"
       id="namedview18"
       showgrid="false"
       inkscape:zoom="1.268656085"
       inkscape:cx="93.01181102"
       inkscape:cy="93.01181102"
       inkscape:current-layer="city_nnov" />
   <g
       transform="matrix(0.0283466687,0,0,0.0283466716,-1041.91331,-1042.329174)"
       style="clip-rule:evenodd;fill-rule:evenodd;image-rendering:optimizeQuality;shape-rendering:geometricPrecision;text-rendering:geometricPrecision"
       id="ulan-ude">
      <g
          id="g1308">
         <path
             class="fil4"
             d="m 37808,38209 c -47,47 -42,65 -32,131 -32,71 -25,102 4,174 -11,68 -17,102 35,151 -8,78 -3,155 55,214 -23,67 13,113 65,151 3,122 35,162 144,217 4,94 57,133 147,153 5,99 95,128 181,147 6,1 12,0 17,0 26,112 145,138 245,150 81,193 288,170 470,175 38,53 60,107 125,132 35,13 70,17 107,20 67,96 148,102 251,140 43,108 154,134 262,156 5,13 11,26 16,39 -40,10 -59,19 -94,41 56,35 106,58 169,76 -58,36 -101,70 -146,121 57,20 82,24 143,22 -16,43 -24,74 -30,119 59,-7 145,-29 187,-76 19,-22 26,-50 40,-75 12,-1 24,-2 36,-3 -10,14 -21,27 -29,42 -23,40 -18,78 -42,116 71,9 144,-21 201,-62 59,119 118,54 180,-28 41,-3 79,-8 119,-14 -6,47 10,83 9,129 38,-11 45,-20 73,-49 17,34 21,40 51,61 13,-34 43,-82 64,-113 25,42 38,69 84,88 0,-8 0,-15 0,-22 37,-56 25,-124 31,-189 39,-12 72,-26 109,-43 21,31 40,57 65,85 51,-56 59,-122 76,-194 74,-11 144,-46 144,-133 1,-75 -51,-93 -113,-114 -35,-12 -54,-32 -90,-47 -46,-207 -164,-264 -362,-286 -18,-24 -31,-52 -53,-73 -87,-83 -224,-88 -337,-94 -121,-70 -222,-72 -359,-78 -128,-62 -234,-55 -361,3 -96,-85 -155,-82 -281,-70 -80,-93 -138,-98 -257,-105 -29,-2 -58,-6 -87,-8 -70,-75 -149,-78 -245,-94 -81,-82 -161,-108 -271,-133 -8,-96 -116,-106 -186,-141 -26,-83 -51,-106 -128,-137 -13,-75 -36,-86 -101,-122 -2,-69 -10,-120 -72,-161 13,-65 -4,-111 -45,-163 6,-43 7,-55 -7,-97 0,-22 18,-31 20,-51 2,-30 -18,-61 -31,-87 7,-83 9,-318 -104,-125 -5,9 -3,20 -10,27 -4,4 -13,-4 -17,0 -31,29 -34,67 -35,107 z"
             id="path1310"
             inkscape:connector-curvature="0"
             style="fill:#999999" />
         <path
             class="fil2"
             d="m 37808,38209 c -47,47 -42,65 -32,131 -32,71 -25,102 4,174 -11,68 -17,102 35,151 -8,78 -3,155 55,214 -23,67 13,113 65,151 3,122 35,162 144,217 4,94 57,133 147,153 5,99 95,128 181,147 6,1 12,0 17,0 26,112 145,138 245,150 81,193 288,170 470,175 38,53 60,107 125,132 35,13 70,17 107,20 67,96 148,102 251,140 43,108 154,134 262,156 5,13 11,26 16,39 -40,10 -59,19 -94,41 56,35 106,58 169,76 -58,36 -101,70 -146,121 57,20 82,24 143,22 -16,43 -24,74 -30,119 59,-7 145,-29 187,-76 19,-22 26,-50 40,-75 12,-1 24,-2 36,-3 -10,14 -21,27 -29,42 -23,40 -18,78 -42,116 71,9 144,-21 201,-62 59,119 118,54 180,-28 41,-3 79,-8 119,-14 -6,47 10,83 9,129 38,-11 45,-20 73,-49 17,34 21,40 51,61 13,-34 43,-82 64,-113 25,42 38,69 84,88 0,-8 0,-15 0,-22 37,-56 25,-124 31,-189 39,-12 72,-26 109,-43 21,31 40,57 65,85 51,-56 59,-122 76,-194 74,-11 144,-46 144,-133 1,-75 -51,-93 -113,-114 -35,-12 -54,-32 -90,-47 -46,-207 -164,-264 -362,-286 -18,-24 -31,-52 -53,-73 -87,-83 -224,-88 -337,-94 -121,-70 -222,-72 -359,-78 -128,-62 -234,-55 -361,3 -96,-85 -155,-82 -281,-70 -80,-93 -138,-98 -257,-105 -29,-2 -58,-6 -87,-8 -70,-75 -149,-78 -245,-94 -81,-82 -161,-108 -271,-133 -8,-96 -116,-106 -186,-141 -26,-83 -51,-106 -128,-137 -13,-75 -36,-86 -101,-122 -2,-69 -10,-120 -72,-161 13,-65 -4,-111 -45,-163 6,-43 7,-55 -7,-97 0,-22 18,-31 20,-51 2,-30 -18,-61 -31,-87 7,-83 9,-318 -104,-125 -5,9 -3,20 -10,27 -4,4 -13,-4 -17,0 -31,29 -34,67 -35,107 z m 2459,1879 -33,9 11,-15 81,-31 105,-36 59,-19 22,-10 -21,-5 -57,12 -91,17 -145,61 -6,-16 30,-3 47,-27 15,-13 46,-9 51,-16 45,-14 10,-21 67,-15 c 0,0 65,-17 73,-17 7,0 66,-10 74,-10 7,0 32,-9 32,-9 l -52,0 -89,7 -107,29 -62,19 -110,34 -70,32 -36,11 0,-25 c 0,0 52,-18 61,-21 9,-3 101,-33 101,-33 l 94,-37 -3,-25 -165,56 -100,39 -48,23 -94,54 -63,34 -71,21 -79,24 -65,16 -28,0 18,51 75,50 79,27 92,-9 97,-39 91,-58 78,-51 52,-22 -11,-20 z m -2332,-1941 c 0,0 -28,-23 -31,-30 -3,-7 -12,-19 -12,-28 0,-9 18,-42 18,-42 l 28,29 19,28 -12,12 -25,-15 15,46 z m 2,140 -64,-47 -42,-57 1,-40 20,-20 37,28 35,27 27,25 -3,15 -51,-34 -13,-2 25,35 22,37 -21,-11 27,44 z m -11,109 -65,-21 -39,-36 -20,-43 1,-38 17,-18 32,33 46,19 52,35 -65,-24 18,19 c 0,0 29,21 38,28 9,8 -6,17 -6,17 l -40,-20 -16,2 29,29 18,18 z m 70,192 -90,-33 -67,-36 -46,-51 -23,-53 19,-36 23,-10 25,25 52,19 56,16 22,17 -36,11 -53,-21 9,18 67,20 22,21 -36,-3 -40,-13 21,29 59,19 c 0,0 28,33 21,33 -8,0 -76,-20 -76,-20 l 71,48 z m 24,130 -82,-3 -59,-25 -35,-37 -20,-35 -7,-67 45,22 67,13 54,23 18,25 -70,-13 22,17 40,16 12,12 -64,-3 25,15 34,3 20,17 0,20 z m 131,167 -105,-5 -84,4 -77,-40 -29,-62 -7,-77 52,20 44,18 70,5 62,15 7,15 -50,-3 -54,-2 22,17 52,0 42,13 -49,5 -43,0 35,12 55,0 25,18 -55,5 -32,4 67,6 42,12 10,20 z m 46,132 -75,12 -67,2 -59,-12 -50,-33 -32,-37 -9,-40 29,-10 40,18 112,-10 54,1 57,12 -59,5 -45,7 85,3 29,18 -62,2 -2,15 52,2 32,16 -47,-1 17,30 z m 111,177 -77,17 -95,9 -52,-12 -47,-25 -47,-48 -17,-42 3,-47 62,8 112,3 74,-5 60,-9 -50,22 -40,24 77,-14 15,17 -50,22 72,-4 25,12 -50,27 -12,20 91,-9 48,-3 54,3 -47,10 -109,24 z m 344,106 -69,12 -110,30 -119,31 -67,0 -62,-13 -45,-18 -39,-32 -27,-50 42,-15 114,-19 87,-24 92,-12 60,0 32,18 -72,12 -82,4 -28,18 23,2 107,-14 57,3 -80,19 -40,20 15,7 80,-17 39,3 -47,20 -45,22 82,-15 62,-9 40,17 z m 238,123 -107,32 -139,39 -115,29 -74,0 -90,-21 -64,-42 -20,-40 23,-12 74,-12 120,-37 104,-32 45,1 -67,24 -18,20 105,-22 49,5 23,15 -50,13 -72,26 69,-2 67,-17 28,8 -30,27 -80,22 7,12 110,-31 47,-5 55,0 z m 181,49 -132,83 -120,57 -112,36 -67,10 -67,-10 -54,-38 -42,-33 5,-19 47,-3 117,-31 154,-44 80,-22 119,-7 -107,35 -107,26 12,15 149,-39 8,20 -60,12 -65,20 8,15 62,-17 77,-22 95,-44 z m 1141,180 -130,39 -129,54 -115,66 -129,72 -72,44 -88,39 -99,27 -87,4 -57,-15 -25,-27 -39,-63 -12,-79 132,-37 80,-41 52,-30 -85,27 -124,39 -179,61 -154,-1 -134,-23 -79,-53 -17,-57 27,-30 87,-31 182,-74 82,-79 48,-59 47,-2 -20,27 35,-2 15,32 -75,47 54,-2 55,45 5,34 124,14 -35,19 39,5 28,20 27,-24 25,25 60,-25 -45,-10 52,-24 18,-43 25,-7 54,28 67,15 92,-47 42,13 -5,37 12,18 -22,32 90,-34 -68,61 -45,57 27,8 -32,34 95,-56 94,-32 162,-41 67,5 z m -758,379 58,47 91,29 88,11 102,-20 107,-36 78,-45 50,-22 2,-26 39,-17 126,-37 190,-61 90,-24 59,-8 52,-15 -44,-6 -74,11 -124,28 -130,37 -95,30 -60,16 -41,21 -33,13 -2,-14 34,-20 92,-38 104,-35 134,-39 109,-25 86,-11 63,-10 -31,-5 -153,23 -119,27 -110,26 -89,27 -98,40 -52,18 2,-15 48,-20 52,-22 21,-12 14,-19 -44,8 -68,20 -45,17 -20,6 -2,-18 88,-34 116,-40 118,-26 35,-11 -6,-12 -133,31 -103,36 -74,25 -43,16 -2,-15 61,-33 96,-34 95,-31 58,-18 -24,-15 -145,38 -112,46 -82,50 -90,49 -111,64 -92,42 -50,16 -57,21 z m 990,18 66,-21 58,-15 c 0,0 -9,-15 -17,-15 -7,0 -87,21 -87,21 l -29,4 1,27 8,-1 z m -370,332 18,9 28,-22 69,-78 73,-58 126,-77 102,-44 129,-31 116,-13 105,1 140,21 65,17 57,38 18,1 3,-15 -42,-44 -54,-29 -120,-31 -119,-15 -145,3 -161,44 -151,58 -84,66 -81,61 -46,54 -33,48 -13,36 z m -207,18 53,37 72,19 49,-6 27,-21 c 0,0 -33,-30 -41,-31 -8,-2 -62,-17 -62,-17 l -44,-2 -54,21 z m 19,182 35,-47 66,-32 47,-7 25,-2 8,43 -33,38 -62,22 -64,0 -22,-15 z m 76,123 33,-65 35,-27 40,-33 33,-14 38,14 -11,32 -37,44 -38,24 -43,28 -52,8 2,-11 z m 213,18 4,-41 8,-44 40,-36 44,-29 35,-23 16,36 8,62 -12,22 -28,19 -56,24 -59,10 z m 906,-372 -5,51 8,52 10,53 26,43 24,-54 22,-62 4,-35 -16,-11 -43,-10 -30,-27 z m -151,-4 8,19 38,-17 27,-14 40,-1 21,8 5,-29 c 0,0 -29,-13 -37,-13 -8,0 -44,6 -44,6 l -30,10 -28,31 z m -27,178 25,27 -13,57 -2,73 -12,30 -34,-53 0,-54 10,-55 26,-25 z m -35,-7 -20,79 -27,54 -26,30 -27,51 -16,-18 13,-67 26,-71 24,-23 53,-35 z m -94,49 -13,49 -27,61 -40,40 -23,12 -4,-47 7,-48 27,-47 51,-22 c 0,0 22,5 22,2 z m -222,32 41,2 41,-5 11,-19 1,-21 -35,-27 c 0,0 -22,-8 -22,-16 0,-8 -5,-38 -5,-38 l -7,-43 -23,13 -22,33 -13,21 24,33 12,37 -3,30 z m -222,-369 10,24 24,19 17,8 3,-24 2,-27 16,-35 -17,-8 -55,43 z m -22,7 27,39 17,12 -19,29 -33,3 -43,0 -11,-31 19,-23 43,-29 z m 81,82 -24,33 7,14 29,15 38,-2 24,0 22,-12 11,-11 -33,-5 -36,-10 -29,-9 -9,-13 z m 493,-138 7,23 23,35 9,27 -1,19 17,-7 27,1 24,8 -29,15 -20,10 -21,10 -27,-19 -16,-19 -34,-15 -45,-16 -11,-21 31,-7 36,-27 30,-17 z m -224,-67 4,34 10,23 19,-3 0,-28 8,-37 -41,11 z m -16,29 3,47 9,40 3,21 -33,-1 -24,-41 3,-35 39,-31 z m -31,117 28,3 21,5 11,13 3,11 -6,11 -61,4 -1,-19 5,-28 z m -64,126 7,30 39,-31 38,-19 43,-20 -2,-16 -49,6 -38,9 46,-22 -16,-6 -33,3 -35,23 -35,15 -22,20 -26,19 5,9 28,7 26,-25 5,17 -18,21 11,39 27,-34 -9,-42 8,-3 z m 176,-67 3,16 25,0 38,10 38,14 15,16 26,40 11,40 16,-29 11,-30 2,-33 -17,-25 -13,7 -6,15 -27,-21 -52,-16 -40,-10 -11,-14 56,0 53,18 29,9 6,-7 -28,-24 -55,-28 -35,-6 -32,-8 -25,-42 -19,-35 -24,14 6,46 19,42 -3,36 8,22 25,-17 z"
             id="path1312"
             inkscape:connector-curvature="0"
             style="fill:#000000" />
         <path
             class="fil3"
             d="m 40366,40692 c -4,-13 -4,-26 -7,-39 -5,-22 -12,-43 -15,-65 -2,-13 -6,-27 0,-39 5,-12 17,-20 29,-26 17,-9 35,-15 55,-17 14,-1 29,3 43,9 24,10 50,28 48,58 0,13 -9,24 -14,36 -12,25 -25,50 -41,73 -6,9 -12,18 -20,24 -25,21 -67,20 -78,-14 z m -44,-164 c -14,-28 -6,-58 12,-83 30,-40 80,-29 123,-22 23,3 31,2 42,24 3,8 9,17 7,25 -4,12 -42,18 -52,18 -10,1 -18,-6 -28,-6 -23,2 -57,15 -76,26 -3,2 -24,27 -28,18 z m 336,-71 c -3,7 -3,15 -3,23 5,81 113,79 164,46 25,-16 26,-76 20,-100 -3,-8 -10,-15 -15,-23 -30,-45 -116,13 -145,34 -8,6 -16,12 -21,20 z m -39,11 c -17,-6 -5,-42 1,-53 10,-19 26,-48 49,-55 15,-4 31,-2 46,-4 12,-1 23,-4 35,-2 9,1 16,6 24,10 6,3 19,3 16,9 -3,7 -15,5 -23,7 -22,6 -44,11 -64,22 -9,6 -16,14 -24,21 -9,6 -19,11 -28,18 -7,7 -18,33 -32,27 z m 22,45 c -12,3 -40,-12 -29,-26 5,-7 16,-7 23,-11 5,-3 10,-15 12,-10 3,9 -3,20 -5,30 0,6 4,16 -1,17 z m 282,-14 c 6,18 4,14 22,14 12,1 25,5 30,-11 6,-16 -25,-18 -33,-20 -4,-2 -8,-8 -13,-6 -11,3 -8,15 -6,23 z m 11,-42 c -41,-46 29,-102 75,-99 22,2 22,6 29,25 11,33 27,93 -17,108 -28,9 -69,-13 -87,-34 z m -679,34 c 11,-32 -22,-89 -47,-107 -5,-4 -13,-8 -19,-5 -6,3 -6,13 -10,19 -12,15 -32,26 -42,43 -4,5 0,18 -6,19 -11,1 -20,-29 -37,-18 -23,15 -8,40 5,55 17,21 57,27 82,22 10,-2 17,-11 26,-14 10,-4 44,-5 48,-14 z m -56,-139 c -8,-10 -2,-28 12,-29 24,-1 46,18 63,32 24,20 36,33 34,67 0,15 -9,28 -11,43 -2,10 5,22 1,32 -3,6 -15,4 -19,10 -5,7 1,18 -4,26 -10,14 -65,19 -81,19 -7,0 -27,2 -22,-3 12,-10 30,-10 44,-17 12,-6 25,-13 36,-21 28,-21 15,-77 3,-104 -6,-13 -16,-24 -27,-35 -8,-8 -21,-11 -29,-20 z m 231,-79 c -6,0 -10,-12 -15,-9 -6,3 -3,13 -2,19 11,49 58,62 103,54 14,-3 29,-7 41,-15 8,-5 27,-40 26,-50 -1,-6 -14,-2 -16,-7 -1,-5 9,-8 10,-13 8,-29 -2,-45 -24,-64 -10,-9 -23,-12 -34,-20 -7,-5 -11,-17 -20,-17 -9,-1 -23,5 -23,14 0,9 31,12 23,16 -14,6 -29,-5 -44,-8 -22,-4 -46,49 -36,66 6,11 19,25 19,25 -3,3 -4,9 -8,9 z m 18,7 c 13,15 52,8 69,5 12,-3 50,-8 37,-12 -21,-5 -45,11 -66,4 -8,-2 -1,-16 -3,-24 -2,-10 -6,-19 -8,-29 -2,-9 4,-21 -3,-26 -5,-4 -12,8 -13,14 -2,17 22,55 14,67 -5,7 -33,-6 -27,1 z m 417,-173 c 11,18 -4,58 -18,72 -16,16 -48,20 -70,16 -14,-2 -64,-18 -62,-37 1,-9 -4,-66 12,-68 17,-3 35,5 53,6 17,1 74,-8 85,11 z m 50,78 c -6,-9 -14,-17 -14,-28 -4,-62 72,-38 105,-27 34,12 62,30 75,64 6,18 -2,45 -18,55 -12,7 -27,5 -40,7 -48,8 -89,-39 -81,-86 1,-5 0,-12 3,-15 2,-2 48,-23 16,-18 -8,2 -17,3 -23,9 -6,6 -6,62 -23,39 z m 193,60 c -15,-4 -15,27 -13,34 6,42 34,81 80,77 17,-1 35,-9 53,-8 10,0 19,8 29,7 5,0 33,-24 35,-28 5,-13 5,-27 7,-41 2,-11 6,-23 5,-34 -1,-11 -25,-70 -36,-71 -9,-1 -22,5 -23,14 -1,8 13,10 19,16 6,7 33,40 12,48 -6,2 -20,-33 -26,-23 -6,11 -1,25 -6,37 -2,6 -10,7 -14,12 -10,13 -20,26 -26,41 -1,3 7,7 4,9 -8,5 -19,6 -29,5 -12,0 -54,-15 -54,-30 0,-13 2,-61 -17,-65 z m 59,-18 c -6,-8 -20,4 -29,1 -10,-4 -22,-10 -24,-21 -2,-8 4,-20 13,-23 11,-2 20,10 31,12 21,4 44,-7 65,1 15,5 3,56 1,64 -1,8 0,16 -3,23 -9,23 -22,26 -42,36 0,0 -23,-6 -23,-13 0,-7 -15,-43 -15,-43 3,-7 4,-14 9,-20 4,-7 22,-11 17,-17 z"
             id="path1314"
             inkscape:connector-curvature="0"
             style="fill:#ffcc00" />
      </g>
      <g
          id="g1316"><path
    class="fil2"
    d="m 40548,39075 c -13,6 -27,12 -40,19 15,168 39,350 -196,312 -263,-41 -509,-159 -763,-235 -161,-48 -400,-91 -519,66 -52,67 -99,137 -140,211 -121,218 -165,482 -312,686 -49,69 -93,104 -182,111 -257,22 -499,-99 -753,-10 -73,25 -160,57 -204,124 6,6 12,12 18,18 132,-94 293,-106 451,-88 48,5 93,25 140,34 49,9 99,14 148,22 212,31 391,57 518,-152 159,-265 214,-580 410,-823 0,0 59,-31 76,-40 16,-9 109,-7 109,-7 58,14 117,29 175,43 320,76 654,184 987,177 74,-1 150,-15 217,-50 173,-90 -71,-339 -140,-418 z"
    id="path1318"
    inkscape:connector-curvature="0"
    style="fill:#000000" />
<path
    class="fil12"
    d="m 40669,39321 c -22,7 -21,5 -39,0 4,-15 12,-27 23,-36 -8,-10 -12,-24 -24,-30 -18,-8 -31,11 -31,11 -1,9 -5,18 -3,27 5,20 24,69 41,83 6,6 17,9 24,4 10,-6 13,-19 15,-30 3,-11 -5,-18 -6,-29 z m -2891,930 31,-38 32,26 46,-26 14,25 24,-22 53,45 26,-28 15,21 -54,37 -28,-34 -33,16 -26,-27 -35,22 -26,-26 -39,9 z m 442,44 13,-27 53,25 11,-28 53,19 30,-25 9,20 -31,59 -38,-39 -25,30 -75,-34 z m 187,31 5,-69 81,49 5,-26 -15,-16 11,-25 33,39 0,39 -47,10 -43,-26 -8,30 -22,-5 z m 582,-926 -42,-10 38,67 -69,15 19,67 -80,21 50,59 -74,40 31,40 -66,41 27,56 -77,27 47,57 -76,29 32,56 -62,17 42,78 -81,10 41,68 -80,10 21,57 -35,17 -28,-20 31,63 10,-25 52,-16 -18,-48 67,-27 -17,-60 58,-10 -41,-88 83,-19 -44,-58 86,-44 -50,-49 93,-11 -48,-61 78,-34 -49,-58 84,-31 -52,-59 87,-16 -29,-67 73,-8 -41,-52 9,-24 z m 1642,72 -126,-99 4,100 -76,-46 -5,50 -79,-46 -25,34 -47,-48 -28,38 -64,-64 -35,42 -52,-58 -32,26 -58,-47 -18,27 -39,-44 -33,-4 -33,30 -55,-63 -20,48 -84,-99 -32,46 -40,-60 -31,39 -49,-66 -29,61 -57,-87 -39,50 -74,-63 -35,37 -52,-51 -25,72 -70,-49 -22,24 -6,43 -95,-24 -7,95 -82,16 27,49 -2,29 54,-12 -43,-42 95,-18 -22,-62 97,17 23,-61 59,45 30,-51 50,60 28,-68 79,90 25,-64 74,72 21,-43 69,74 20,-53 56,79 33,-35 74,60 14,-38 90,70 7,-45 73,55 31,-20 57,47 2,-50 28,9 50,68 13,-40 90,56 4,-52 74,66 2,-49 97,42 8,-35 93,28 -29,-86 99,48 z"
    id="path1320"
    inkscape:connector-curvature="0"
    style="fill:#ffffff" />
<g
    id="g1322">
   <path
       class="fil4"
       d="m 41353,38398 c 31,54 12,124 -43,155 -42,24 -93,18 -129,-12 l 37,64 -267,145 17,24 35,27 37,16 38,0 45,-11 254,376 -41,6 -45,-7 -31,-20 -17,-21 -20,3 -33,1 -25,-15 -22,-30 -22,3 -35,0 -24,-15 -22,-24 -31,-35 -49,-13 -31,-26 -26,-36 -22,-40 -18,-46 -19,-58 -3439,1866 -28,-50 3359,-2005 -41,-46 -30,-40 -23,-39 -17,-41 -7,-40 14,-49 -15,-44 -9,-32 0,-27 17,-31 15,-17 -16,-34 0,-29 18,-28 12,-16 -9,-25 -1,-37 16,-43 27,-31 194,410 -33,33 -19,33 -5,39 5,45 12,26 261,-155 40,70 c -7,-45 14,-92 56,-116 54,-31 124,-12 155,42 z"
       id="path1324"
       inkscape:connector-curvature="0"
       style="fill:#999999" />
   <path
       class="fil2"
       d="m 41353,38398 c 31,54 12,124 -43,155 -42,24 -93,18 -129,-12 l 37,64 -266,145 16,24 35,27 37,16 38,0 45,-11 254,376 -41,6 -45,-7 -31,-20 -17,-21 -20,3 -33,1 -25,-15 -22,-30 -22,3 -35,0 -24,-15 -22,-24 -31,-35 -49,-13 -31,-26 -26,-36 -22,-40 -18,-46 -18,-59 -3440,1867 -28,-50 3360,-2005 -42,-46 -30,-40 -23,-39 -17,-41 -7,-40 14,-49 -15,-44 -9,-32 0,-27 17,-31 15,-17 -16,-34 0,-29 18,-28 12,-16 -9,-25 -1,-37 16,-43 27,-31 194,410 -33,33 -19,33 -5,39 5,45 12,26 261,-155 40,70 c -7,-45 14,-92 56,-116 54,-31 124,-12 155,42 z m -415,359 -78,43 5,18 20,65 31,65 38,40 12,0 -35,-76 -11,-49 54,91 45,59 47,46 33,16 -27,-67 -38,-76 -2,-21 10,15 37,61 57,81 42,37 25,14 2,-21 -46,-63 -45,-86 -28,-57 17,12 69,107 59,88 39,51 37,18 16,3 8,-19 -216,-322 -72,6 -60,-26 -45,-53 z m -187,-146 77,-45 -22,-67 8,-65 41,-59 -166,-350 -20,-2 -6,15 -3,41 23,60 46,95 57,115 1,20 -34,-53 -51,-83 -30,-71 -20,-10 0,29 10,55 41,90 34,63 7,17 -17,-13 -45,-72 -45,-57 -2,37 15,63 27,70 51,92 -37,-35 -47,-68 -7,10 16,53 40,60 46,51 12,14 z m 361,-126 19,33 -2774,1571 14,-20 568,-352 2143,-1274 10,16 -787,474 31,-6 776,-442 z m 94,30 c 40,27 56,23 99,10 -23,27 -68,51 -99,-10 z m 81,-116 -14,13 11,25 -11,27 -25,20 -29,-1 -15,-13 -1,-18 -34,-7 17,-38 27,-23 32,-15 30,17 12,13 z m -144,140 -1562,878 35,-4 1536,-847 -9,-27 z"
       id="path1326"
       inkscape:connector-curvature="0"
       style="fill:#000000" />
   <ellipse
       class="fil12"
       transform="matrix(0.548577,0.963085,-0.963085,0.548577,41255.3,38396.5)"
       rx="16"
       ry="20"
       id="ellipse1328"
       cx="0"
       cy="0"
       style="fill:#ffffff" />
</g>
<path
    class="fil2"
    d="m 40356,38738 c -12,9 -24,17 -37,25 -137,-98 -280,-212 -368,9 -99,248 -123,519 -187,776 -41,163 -126,391 -321,414 -84,10 -169,15 -253,12 -250,-8 -499,-103 -750,-82 -84,7 -137,28 -188,100 -150,210 -169,480 -375,653 -59,50 -131,108 -211,112 -2,-8 -4,-16 -7,-25 149,-65 241,-197 307,-343 19,-43 26,-92 42,-137 17,-47 38,-93 57,-139 81,-198 150,-365 394,-367 309,-3 608,111 917,67 0,0 57,-36 73,-45 17,-10 62,-91 62,-91 18,-57 34,-115 52,-172 98,-315 175,-657 351,-939 39,-63 90,-122 154,-161 166,-103 255,233 288,333 z"
    id="path1330"
    inkscape:connector-curvature="0"
    style="fill:#000000" />

path
                      class=&quot;fil12&quot;
                      d=&quot;M40206 38508c-17,16 -15,16 -20,34 15,4 30,3 43,-2 4,12 14,23 13,37 -2,20 -24,21 -24,21 -8,-4 -19,-6 -25,-12 -15,-14 -47,-55 -51,-77 -2,-8 1,-20 8,-23 11,-5 24,-1 35,2 10,4 12,14 21,20zm-2274 2013l48 -8 -6 -40 46 -27 -14 -25 31 -9 -12 -68 38 -8 -11 -24 -59 28 15 41 -31 20 10 36 -37 19 10 36 -28 29zm187 -403l30 3 5 -58 31 4 10 -55 37 -13 -13 -18 -66 -4 14 54 -39 5 -9 82zm69 -177l62 31 -1 -94 25 8 6 22 27 4 -16 -49 -34 -20 -33 35 1 50 -29 -8 -8 21zm1093 -28l-13 41 -38 -67 -48 52 -48 -50 -58 58 -26 -74 -72 45 -19 -48 -68 36 -35 -52 -63 52 -25 -69 -63 50 -32 -56 -46 46 -47 -77 -49 65 -37 -71 -50 65 -38 -48 -33 21 3 35 -38 -59 27 5 40 -37 31 40 59 -44 42 45 39 -45 54 81 59 -62 27 67 82 -51 17 68 57 -75 28 73 69 -50 24 72 70 -57 24 75 59 -66 42 59 44 -59 24 61 25 5zm776 -1449l21 159 -84 -55 1 89 -46 -21 0 92 -42 4 17 65 -47 4 22 88 -54 8 24 76 -40 14 12 74 -33 1 18 56 -13 30 -43 13 26 80 -51 -7 42 123 -56 4 32 65 -50 6 32 76 -67 -6 45 93 -62 8 15 96 -49 12 18 70 -75 -15 6 85 -32 7 -39 -16 -28 93 -86 -43 -56 62 -27 -47 -27 -13 38 -41 14 59 64 -73 43 50 34 -91 64 10 -8 -73 59 1 -26 -74 73 11 -37 -115 67 11 -23 -100 46 4 -27 -97 55 9 -39 -88 47 -10 -14 -94 40 7 -15 -113 43 17 -10 -91 33 -16 -12 -74 45 24 6 -28 -34 -78 42 10 -2 -107 46 23 -19 -97 44 23 13 -104 34 11 24 -95 58 69 10 -110z&quot;
                      id=&quot;path1332&quot; /&gt;<polygon
    class="fil5"
    points="38237,40283 38213,40299 38169,40316 38133,40259 38030,40300 37995,40260 38005,40243 38037,40278 38138,40240 38178,40293 38227,40273 "
    id="polygon1334"
    style="fill:#fefefe" />
</g>
   </g>
</svg>
