<?xml version="1.0" encoding="UTF-8" standalone="no"?>
<svg
    xmlns:dc="http://purl.org/dc/elements/1.1/"
    xmlns:cc="http://creativecommons.org/ns#"
    xmlns:rdf="http://www.w3.org/1999/02/22-rdf-syntax-ns#"
    xmlns:svg="http://www.w3.org/2000/svg"
    xmlns="http://www.w3.org/2000/svg"
    version="1.1"
    style="fill-rule:evenodd"
    preserveAspectRatio="none"
    viewBox="0 0 160 140"
    id="calendar-body">
<defs
    id="calendar-body_defs" />
<g
    id="calendar-body_g"
    transform="matrix(3.555556762e-4,0,0,3.544307422e-4,-469.93948,-326.8868896)">
<path
    d="m 1325952,963431 c 420,8865 2125,29208 1457,37281 -213,-1002 -886,-8442 -1614,-7870 -744,1104 -1635,-8108 -1617,-7897 l -293,-3288 c -7,-3725 171,-9663 -295,-9113 -28,6762 -1,13537 118,20298 -16,3379 -128,12831 -236,12427 -130,-396 -143,-159 -158,0 l -118,1035 c 0,2642 -15,5233 177,7871 315,4312 -197,12841 -197,12841 1253,-2125 59,567 -59,829 -4019,27266 1816,195813 1851,228866 363,-4248 524,10085 590,12220 248,7452 548,14915 690,22369 26,-552 78,-1657 78,-1657 7,2555 20,7664 20,7664 13,-415 39,-1243 39,-1243 20,2555 59,7664 59,7663 85,-4902 256,-14705 256,-14705 27,2416 79,7249 79,7249 -52,2898 -315,8699 -315,8699 135,-2410 315,-7253 315,-7249 8,1384 -59,13584 -59,13584 4,414 70,739 224,1123 159,369 332,626 608,916 283,278 540,458 903,618 386,160 698,225 1116,233 4264,89 4326,85 4171,92 -347,11 -4169,129 -4169,129 -453,-7 -782,-70 -1203,-241 -394,-174 -673,-360 -982,-662 -300,-307 -494,-593 -667,-987 -171,-414 -244,-772 -252,-1221 52,-71 -113,-3760 -104,-3435 -8,333 -10,3435 -10,3435 7,474 79,827 255,1266 180,413 375,707 686,1030 325,319 605,509 1017,696 440,179 783,251 1257,260 256,12 20,18 3,18 -469,-3 -829,-77 -1265,-253 -414,-181 -706,-381 -1032,-696 -318,-330 -512,-617 -699,-1039 -181,-448 -252,-796 -262,-1282 19,-25 -31,-1499 -28,-1364 -8,103 -137,-8964 -138,-8906 -105,-3874 -309,-11561 -315,-11800 0,1893 103,22070 103,22070 10,532 89,937 289,1430 205,468 423,796 776,1162 363,356 687,577 1150,783 487,202 891,284 1417,291 22,54 42160,-266 41486,-266 1292,-20 13943,-214 13942,-139 152,98 -3096,227 -3818,255 -2760,375 1413,156 3408,23 1572,-1 968,-4 410,-20 3076,-246 9226,-756 9226,-756 -11074,113 -33213,597 -33213,597 -776,-93 3032,-256 3485,-279 -3281,75 -9841,20 -9841,20 2176,-48 6561,-119 6561,-119 1708,0 5125,0 5125,0 2186,-114 6561,-179 6561,-179 -3144,-20 -9431,-59 -9431,-59 3143,-27 9431,-80 9431,-80 646,-50 3280,-40 3280,-40 3281,-14 9841,-60 9841,-60 3282,-305 10338,-380 10251,-377 5253,-105 15793,-40 15786,-40 -3417,98 -10251,318 -10251,318 -1230,27 -3690,79 -3690,79 3072,242 235,176 -2050,200 -3212,325 -9636,974 -9636,974 1435,0 4306,80 4305,80 15,264 -6297,226 -7585,238 l -613,60 27060,-219 c -8395,266 -15795,378 -24192,318 -7,34 -1242,60 -1230,60 3349,30 10046,99 10046,99 -1584,52 -4694,134 -4909,140 l 6754,-80 c 521,9 13280,137 13905,362 -7068,344 -14953,144 -22106,135 9773,95 29318,219 29318,219 2471,-54 26448,-354 26447,-299 1,-68 262629,1015 262629,1015 0,0 56921,205 56921,111 859,-13 1503,-145 2300,-471 755,-337 1274,-690 1867,-1271 573,-592 929,-1128 1261,-1884 325,-805 457,-1457 471,-2327 -821,-341 2310,-336793 2349,-342817 37,1497 172,4429 176,4525 -91,-5847 -17,-11142 99,-16981 -145,2414 -236,7250 -236,7249 -16,-1381 -59,-4142 -59,-4142 -485,-3135 -119,-15337 -118,-19469 -26,483 -79,1450 -79,1450 -8,-928 -32,-10193 -32,-10193 -17,-1177 -196,-2065 -634,-3154 -448,-1026 -929,-1750 -1702,-2554 -799,-783 -1514,-1277 -2535,-1731 -1071,-440 -1960,-627 -3117,-643 -21717,-63 -46512,-1139 -67850,-137 7325,685 15051,834 22385,1119 9818,-59 20588,-421 29523,80 1327,7 15931,75 15931,75 996,14 1755,170 2677,549 873,388 1492,809 2176,1480 668,691 1088,1321 1473,2205 376,933 528,1695 544,2702 l -20,4382 -31,-4373 c -17,-1003 -167,-1759 -542,-2688 -380,-870 -795,-1494 -1452,-2176 -684,-672 -1287,-1083 -2160,-1473 -912,-375 -1670,-533 -2656,-546 l -326,2 317,-1 c 988,15 1736,168 2653,543 874,389 1471,796 2158,1466 669,696 1071,1299 1461,2186 373,929 524,1674 541,2678 0,913 29,2057 -62,2953 l 256,17190 c -381,-1935 -362,-5919 -453,-9113 -1,-918 -17,-11021 -17,-11021 -16,-964 -158,-1685 -519,-2577 -367,-841 -757,-1427 -1390,-2087 -655,-644 -1236,-1041 -2072,-1414 -875,-360 -1601,-512 -2547,-525 0,6 -563,1 -563,1 l 330,476 c -2797,-99 -4861,-62 -7711,21 1830,36 -1097,16 -820,19 -2119,52 -6356,160 -6356,160 -1640,-33 -4920,-100 -4920,-100 1640,-53 4921,-159 4920,-159 2163,-16 6399,72 6743,79 -1920,-46 -5718,-119 -5717,-119 2323,-56 6970,-139 6970,-139 -6034,-87 -12199,208 -18247,278 -836,-21 -10862,-339 -7175,736 3348,-6 10046,-19 10045,-19 -8257,124 -6667,97 -5330,119 -1189,89 916,6 2871,-40 7671,263 15974,84 23761,73 -201,-250 -340,-435 -429,-571 -3110,39 -9597,120 -9596,81 1336,-321 6252,-307 9471,-330 -20,-120 130,-80 350,-3 452,-4 864,-9 1218,-16 l 61,88 c 23,-27 44,-57 62,-91 l 53,-1 c 868,11 1533,143 2338,473 763,337 1308,703 1905,1288 587,605 956,1153 1294,1926 332,817 469,1485 485,2365 -2,2 1,58 1,52 0,-14 2,-31 2,-44 -13,-887 -142,-1556 -471,-2379 -336,-774 -697,-1323 -1279,-1931 -605,-597 -1137,-966 -1910,-1313 -814,-337 -1477,-479 -2357,-494 l -34,-2 c 10,-24 18,-52 26,-81 887,15 1567,157 2387,497 778,348 1328,724 1936,1324 593,617 966,1179 1306,1967 332,828 466,1510 478,2403 1,1 -46,1329 -45,1296 l 54,1798 104,183 -102,-114 200,6624 c 11,2098 -44,4942 -70,7822 l -224,-13775 c 75,5471 176,16309 176,16309 -39,8493 -118,25476 -118,25476 l 217,9528 c 19,1124 177,15326 177,15326 -126,0 -197,10150 -197,10150 -123,-7018 -107,-6086 -118,-5386 -30,-1242 -79,-3728 -79,-3728 -325,-6555 -453,-19677 -453,-19676 -83,-6905 59,-15721 -551,-21334 -157,-431 -323,7029 -355,8078 1,-167 158,-6420 158,-6420 23,-1465 16,-1048 20,-829 172,-5315 176,-4785 177,-4764 21,-1339 37,-2169 48,-2640 -32,-2686 -107,-10616 -107,-10616 62,426 106,977 136,1602 -85,-4021 -77,-11957 -77,-11957 -22,1318 -102,3820 -116,4277 9,-358 -2,-756 -2,-756 -24,-1588 -58,-3188 -140,-4781 l -599,-678 -9,277 -2,-288 -314,-356 c -8,6453 43,3612 60,855 116,4555 236,13670 236,13670 171,3373 256,10154 256,10148 -507,1481 -509,1546 -512,1455 16,831 59,2481 59,2481 130,5037 178,15120 178,15120 -417,108 -503,-14869 -552,-17813 79,-2486 59,-7457 59,-7456 33,966 98,2900 98,2899 53,-1657 198,-4970 198,-4970 -199,-5180 -256,-15535 -256,-15534 -94,194 -217,0 -217,0 -39,2068 -79,6213 -79,6213 41,-1933 118,-5799 118,-5799 86,3640 462,10466 -118,6006 -47,442 -23,-48 -19,-414 -52,-2140 -158,-6421 -158,-6420 2,-90 22,-1080 22,-1080 l -1,-73 c -1182,-1339 -2108,-2392 -2823,-3215 -139,-19 -284,-29 -441,-32 -58,45 -3299,-66 -3019,-61 252,-8 3015,-101 3015,-101 99,1 195,4 286,11 l -95,-109 -186,-8 c -116,86 -4463,-205 -5070,-171 -1161,-33 -3485,-99 -3485,-99 396,-39 1178,-96 1228,-99 -1846,25 -5534,39 -5533,39 410,266 1230,796 1230,796 -2009,-56 -10337,-197 -9431,-677 1852,-27 5494,-113 5728,-119 -3374,12 -11165,322 -9595,-278 1086,-24 2037,-68 2777,-142 -5302,-99 -10623,-126 -15927,-176 2392,-67 7176,-180 7176,-180 -1344,-52 -4101,-258 -4100,-258 -1020,11 -10867,166 -10866,120 1470,-376 5626,-332 8200,-398 -4168,-179 -12506,-537 -12506,-537 -1503,26 -4511,80 -4510,80 l -3896,318 c -1777,53 -5330,159 -5330,159 -5262,6 -15786,20 -15786,20 5873,-211 17631,-597 17631,-597 3759,-7 11276,-20 11276,-20 -4900,-210 -9041,-359 -13941,-318 -8679,-464 -26038,-1392 -26038,-1392 -3209,22 -9636,79 -9635,79 -11129,89 -22281,-198 -33418,-59 -7041,94 -21118,656 -21117,656 -2258,28 -6766,219 -6766,219 -15753,237 -47389,1412 -47359,1412 5946,33 17837,-199 17837,-199 1320,-36 3279,-80 3280,-80 5243,2 3216,54 3075,60 1702,59 5517,-74 9226,-140 7543,-178 14866,-808 22347,-894 -726,254 -3187,273 -4920,358 3878,-97 10318,-231 14248,-311 -4310,97 -10879,311 -9943,808 -1079,57 -2200,75 -3280,99 4100,20 12301,60 12301,60 -2939,26 -8816,80 -8816,80 -5117,302 -10003,383 -15088,563 5197,268 11076,179 16318,272 -2867,1 -5749,97 -8611,79 -5876,1 -17632,-99 -17632,-99 -705,-199 5904,-232 6561,-239 3854,-196 7907,-289 7494,-455 -4232,21 -11799,97 -11799,97 -4931,-12 -4041,-18 -3280,-39 -9293,0 -17978,274 -27268,576 1710,-16 19477,54 19477,60 3840,-50 2033,11 1845,20 410,0 1230,0 1230,0 -1503,20 -4510,59 -4510,59 -1572,14 -4716,40 -4716,40 -15308,181 -45924,557 -45924,557 l -4715,139 c -1572,33 -4716,100 -4715,100 3895,73 11686,219 11686,219 -2392,20 -7176,59 -7176,59 -2939,-29 -8816,-318 -8816,-318 2450,156 7387,338 7381,338 -4510,23 -13532,-20 -13532,-20 -110,152 -9818,407 -10255,418 l -15782,40 c 2118,-73 6356,-219 6356,-219 7160,59 4190,17 1230,-40 4116,-104 10168,124 13531,-338 l 8402,-279 c -617,0 -1842,-39 -1841,-39 343,-221 6453,-115 7995,-159 -265,-39 171,-21 205,-20 6686,-299 13861,-460 20524,-998 -6943,-346 -17436,518 -24829,720 -4149,-63 -8782,-263 -5331,59 1504,6 4511,20 4511,20 -4852,53 -14556,159 -14556,159 -554,0 -2665,20 -2665,20 -5399,36 -16197,80 -16197,80 -4153,165 -11669,389 -14373,468 108,-11 210,-21 302,-33 -5349,-99 -10714,-123 -16067,-177 3429,-531 -4707,-116 -6355,-60 410,0 1230,0 1230,0 l -1621,20 c 210,2 596,20 596,20 -3714,81 -9202,28 -10866,477 -1026,7 -3076,20 -3076,20 273,14 821,20 821,20 -11348,235 -34034,1054 -34034,1054 -1025,20 -14406,364 -14556,-318 -4239,-413 -5896,-398 -5945,-398 -9362,329 -28094,1174 -28088,1174 l 39268,1131 -28032,0 c -9727,-429 -19337,-945 -23947,-1092 -1298,219 -767,629 591,1092 l -1795,0 0,16563 c -985,-4984 -3142,-16019 -3074,-16025 -5,-532 64,-939 251,-1437 193,-478 407,-814 752,-1194 367,-377 679,-602 1153,-830 506,-221 900,-313 1451,-337 -542,11 -960,93 -1462,302 -480,213 -813,442 -1189,810 -366,382 -592,719 -804,1206 -204,510 -288,923 -295,1475 -2,0 51,5464 50,5373 l 79,27133 z m 368339,-33039 c 6828,-170 13244,-333 14270,-384 -1879,146 -3813,273 -5787,384 l -8483,0 z m 69424,62140 c 38,-448 79,-885 123,-1308 518,14683 437,29856 583,44553 -25,265 -51,-128 -59,-207 l -647,12907 0,-55945 z m 0,64243 c 130,9116 338,24574 450,24569 834,23490 -33,50154 -450,76205 l 0,-100774 z m 0,104913 c 124,4544 267,10353 273,10575 0,-2212 20,-6622 20,-6622 805,31051 747,58378 98,89062 -45,-4764 -138,-14292 -138,-14292 56,-4646 181,-9380 165,-14019 -95,3767 -126,7559 -184,11327 -17,-1916 -43,-19652 -59,-19676 0,-3660 -40,-10978 -40,-10978 -32,-3521 -98,-10563 -98,-10563 l -37,-348 0,-6885 253,8269 c 18,1865 20,5592 20,5592 182,-7873 295,-15293 -39,-23197 -120,2868 -194,1932 -234,479 l 0,-18724 z m 0,122005 37,2285 0,8906 -37,-392 0,-10799 z m 0,18126 37,107 c 49,564 193,936 394,1450 0,0 -375,5799 -374,5799 4,146 75,2130 75,2130 3,94 -12,177 -44,265 -27,67 -52,113 -88,162 l 0,-9913 z m -102,10024 c -48,44 -92,72 -161,107 -95,43 -166,61 -270,67 -720,132 -213,132 0,139 17,2 1,2 0,2 -583,12 -1187,1 -1771,1 -4131,-149 -10201,-250 -15483,-316 l 17685,0 z m -29129,0 c -713,78 -1968,86 -2390,97 2118,51 1673,59 1640,60 -410,13 -1231,40 -1230,40 -957,18 -2871,59 -2871,59 260,103 -174,213 -203,219 4642,-335 13940,-437 13940,-437 -7663,277 -5920,218 -4511,218 -3415,142 -10251,338 -10251,338 -2046,-62 -4016,-335 -6151,-358 69,0 206,0 206,0 -274,-19 -821,-59 -820,-59 -3418,62 -10252,219 -10251,219 957,20 2870,60 2870,60 -1572,6 -4716,19 -4715,19 -2051,17 -6151,40 -6151,40 1709,37 5125,119 5125,119 -3520,83 -10514,474 -5945,-119 -3264,-374 201,-368 2665,-457 l -121,-58 29164,0 z m -94428,0 c -1950,93 -3907,191 -5962,256 l 794,0 c -143,3 -383,20 -383,20 -2442,17 -1907,4 -1436,-20 -14609,-197 -27621,818 -41823,915 1162,0 3485,0 3485,0 -1435,35 -4305,120 -4305,120 -137,-14 -411,-40 -411,-40 -2314,14 -6879,94 -7161,99 l 5316,0 c 889,-7 2666,-19 2666,-19 6834,-61 20501,-140 20501,-140 11834,-282 23626,-614 35469,-815 l -2660,99 200,0 -5943,179 202,0 c -1192,29 -3538,95 -3683,100 l 403,0 c -9520,556 -7304,466 -6356,457 -11,-220 4254,-80 4511,-80 4990,-114 14966,-497 14966,-497 9841,-79 29523,-238 29523,-238 -4169,132 -12507,397 -12506,397 -5621,67 -16687,-70 -17391,-79 4999,80 14931,159 14930,159 999,589 10339,108 19067,119 -9763,1279 -33759,327 -46949,477 -6478,145 -12460,34 -18862,0 -879,19 -11073,204 -11071,120 -1133,-86 -858,-97 -820,-100 -3554,-13 -10661,-40 -10661,-40 -2049,75 -6151,160 -6151,160 -531,-33 -252,-55 -205,-60 752,-40 2256,-119 2256,-119 -1231,-7 -3691,-20 -3691,-20 -6149,176 -18452,438 -18452,438 707,114 556,205 0,318 5400,-98 16197,-338 16197,-338 l -1841,79 9222,-139 c -3212,100 -9636,298 -9636,298 l -5728,80 c 2327,-10 6958,40 6958,40 -8383,1470 -32154,1010 -41619,1074 3577,-374 8850,-402 13736,-557 2711,-372 6896,-439 10046,-537 -751,-47 -2255,-140 -2255,-140 -7747,-46 -4314,-80 -2665,-158 -615,-40 -1846,-120 -1845,-120 2386,-110 7176,-80 7175,-80 927,-36 2752,-95 2865,-99 l -3069,0 3444,-20 c -491,-1 -1395,-20 -1395,-20 1094,-23 3281,-40 3281,-40 1640,-86 4920,-238 4920,-238 4100,-93 12301,-279 12301,-278 -410,-27 -1230,-80 -1230,-80 -646,30 -631,34 -615,40 -1674,-28 -992,-34 -820,-40 478,-6 1435,-20 1435,-20 -7380,-119 -22142,-358 -22142,-358 -6151,87 -18452,179 -18451,179 -1404,4 -17837,-116 -17837,-80 -4232,43 -31619,822 -35431,108 4349,-484 9262,-326 13699,-605 149,-59 83,-92 -95,-117 l 33445,0 c -1225,43 -2436,87 -3622,137 4100,-61 12301,-119 12301,-119 l 366,-18 91498,0 z m -311016,-83256 c -252,4655 -647,11762 -647,11762 197,-5385 591,-16155 590,-16155 14,-2322 34,-5017 57,-7904 l 0,12297 z m 0,-117210 c -45,-3594 -76,-7105 -76,-7105 -433,13600 -1299,40802 -1299,40802 120,-4515 113,-9151 118,-13670 -390,3916 -129,-268 -20,-3935 -26,-2969 -79,-8906 -79,-8906 230,-6007 690,-18020 690,-18020 -298,3311 -612,-416 -552,208 184,-2831 552,-8492 552,-8492 91,1930 98,5799 98,5799 144,-3728 433,-11184 433,-11184 33,-7111 98,-21334 98,-21334 12,1492 25,3391 37,5363 l 0,40474 z m -5923,-83532 c -12,26 -13,29 0,0 l 0,0 z m 2717,261390 0,-6 0,6 z m 55345,25586 -77,3 201,-19 -124,16 z m 124,-16 1,0 3,-1 m 1232,597 -2,0 2,0 z m 6775,398 -12,0 12,0 z m 382292,-342782 0,3 0,-3 z m -8741,-48967 -32,0 32,0 z m 202,913 113,163 -1617,17 c -77,-117 -116,-198 -125,-249 l 350,-3 c 390,136 1002,390 1279,72 z m 113,163 424,607 c 554,44 1033,165 1589,393 660,296 1117,603 1635,1112 505,522 814,989 1107,1656 281,700 398,1274 409,2030 l -1,1418 c 157,267 355,612 627,1094 l -1,-390 c -3,-204 -30,-2115 -30,-2115 -13,-843 -142,-1489 -459,-2269 -322,-737 -670,-1258 -1226,-1835 -578,-566 -1086,-914 -1824,-1242 -770,-317 -1407,-448 -2240,-459 l -10,0 z m 424,607 404,579 c -259,-43 -525,-64 -819,-63 -808,298 -110,333 -7,342 424,10 776,60 1140,167 l 78,111 c -391,-122 -762,-176 -1212,-183 l -385,2 c -342,-401 -608,-720 -811,-974 l 1190,0 c 146,2 286,9 422,19 z m 404,579 314,446 c 170,50 343,112 527,189 546,247 920,508 1348,930 417,440 663,815 906,1374 229,582 321,1047 328,1674 l -2,87 c 223,289 369,478 521,701 -17,-261 -36,-522 -55,-782 -16,-691 -125,-1215 -390,-1851 -264,-591 -557,-1029 -1012,-1486 -470,-453 -892,-737 -1490,-994 -349,-138 -665,-232 -995,-288 z m 392,557 253,358 68,28 c 503,230 847,468 1240,861 378,401 613,759 829,1269 159,409 244,757 277,1155 l 321,418 0,-27 c -11,-618 -103,-1085 -335,-1657 -232,-536 -492,-923 -895,-1343 -416,-409 -801,-673 -1333,-908 -147,-60 -287,-112 -425,-154 z m 253,358 538,757 c -187,-131 -386,-242 -623,-350 -418,-173 -767,-258 -1195,-283 l -377,-437 186,11 c 554,13 968,98 1471,302 z m 538,757 166,231 c 88,72 177,152 269,241 337,345 553,664 748,1107 l 45,113 126,171 c -31,-100 -68,-202 -110,-309 -197,-455 -406,-774 -748,-1132 -168,-167 -327,-303 -496,-422 z m 166,231 c 427,597 775,1074 1062,1461 160,421 227,781 237,1250 -3,5 -3,71 0,165 l -206,-233 c -13,-447 -85,-792 -254,-1217 -183,-423 -378,-716 -694,-1049 -329,-325 -617,-522 -1037,-713 -294,-122 -555,-197 -838,-236 l -159,-183 c 370,28 685,106 1059,257 327,144 579,293 830,498 z m 1188,1632 c 206,275 377,502 522,693 10,123 15,250 16,385 0,0 -4,52 -4,50 l -1,595 -375,-424 6,-215 c -5,-408 -52,-732 -164,-1084 z m 843,1111 41,54 -26,925 -11,-11 -4,-968 z m 562,755 c 115,170 233,359 393,629 l -1,659 -340,-386 c -16,-300 -33,-602 -52,-902 z m 1020,1723 328,580 2,69 -329,-373 -1,-276 z m 1,276 -629,-711 -4,7087 0,5770 c 94,1952 62,4616 79,6450 13,138 20,415 20,414 64,-1777 158,-6835 158,-6835 23,-7584 26,-7045 39,-6627 33,1934 59,5799 59,5799 142,-3831 281,-7521 278,-11347 z m -2268,-2566 -47,-55 c 7,272 31,774 29,712 l 18,-657 z m -3707,-4232 -193,-226 -7146,47 c 1094,39 3280,119 3280,119 1377,10 2686,-17 4059,60 z m 6577,30056 39,502 c 15,-4687 -17,-9383 -33,-14070 310,10836 728,32518 728,32518 -660,-2155 -611,-13708 -734,-18950 z m -367,-22214 -1,-53 1,53 z m -898,20090 c 27,-1152 26,-169 11,776 l -11,-776 z m 29,-9014 1,26 0,29 -1,-55 z m -13523,-21007 17,1 6,0 m 12281,32872 0,-4 0,4 z m -11258,-30724 2,0 -2,0 z m -8006,39 12,0 -12,0 z m -15283,-292 -11972,93 c 546,34 1640,100 1640,100 -4004,286 -8430,-31 -12506,0 1025,-33 3076,-100 3075,-100 -1180,-235 697,-426 821,-437 l 4304,279 c 1504,-54 4511,-160 4511,-160 2251,15 6264,157 10127,225 z m -134050,-1038 c -78,-31 -310,-64 -728,-102 1358,90 1273,95 1230,100 l -502,2 z m -91350,1469 4,0 -4,0 z m -54526,397 -2465,21 c 6219,27 18657,79 18656,79 l -3062,40 397,0 c -2187,20 -6561,60 -6560,60 -1137,14 -3267,19 -3782,20 l 296,0 c -7312,65 -21937,100 -21937,100 -275,125 -11393,449 -14913,551 l 187,-15 c -3630,-14 -7270,8 -10901,20 8062,-241 24192,-576 24192,-576 -3075,-128 -1270,-112 -820,-120 3485,-132 10456,-398 10456,-398 1758,12 6127,153 10256,218 z m 13129,140 -13,0 13,0 z m -9945,80 -114,0 114,0 z m -43316,769 -15433,245 c 3212,-99 9636,-298 9636,-298 1592,-8 3678,33 5797,53 z m 25590,-1326 -19,0 19,0 z m 325885,245051 0,6 0,-6 z m -34558,140055 -2,0 2,0 z m -146576,875 -14,0 14,0 z m 5316,0 410,0 c -136,0 -410,0 -410,0 z m 55976,-875 -5,0 5,0 z m -5743,179 -3,0 3,0 z m -3481,100 -7,0 7,0 z m 13150,-40 -3,0 -33,0 m -66217,1193 -4,0 4,0 z m -6142,239 -12,0 12,0 z m -7604,-577 6,0 -6,0 z m 375,-20 41,0 -41,0 z"
    id="calendar-body_path"
    style="fill:#000000" />
</g>
</svg>