<svg id="city_vol" data-name="vol" xmlns="http://www.w3.org/2000/svg" width="52.5mm" height="52.5mm" viewBox="0 0 148.82 148.82">
  <title>vol</title>
  <g id="vol">
    <path d="M74.41,131.1a45.1,45.1,0,0,1-7.37-.62v-6.09a37.07,37.07,0,0,1-10.18-3.71L53,125.35a43,43,0,0,1-11.25-9.47l3.91-4.68a36.15,36.15,0,0,1-5.41-9.35l-6,1a42.42,42.42,0,0,1-2.55-14.49l6-1a37.87,37.87,0,0,1,1.87-10.66l-5.27-3.06a42.93,42.93,0,0,1,7.4-12.73L46.91,64a36.72,36.72,0,0,1,55,0l5.27-3.06a42.93,42.93,0,0,1,7.4,12.73l-5.27,3.06a36,36,0,0,1,1.87,10.66l6,1a42.3,42.3,0,0,1-2.55,14.49l-6-1a37,37,0,0,1-5.41,9.35l3.91,4.68a43.49,43.49,0,0,1-11.25,9.47L92,120.67a36.74,36.74,0,0,1-10.18,3.71v6.09a41.94,41.94,0,0,1-7.37.62H74.41ZM74.32,64.35a24,24,0,1,1-24,24A24.06,24.06,0,0,1,74.32,64.35Z" style="fill: #999"/>
    <path d="M72.54,19.36a5.45,5.45,0,0,1,1.87,3.26h0a5.45,5.45,0,0,1,1.87-3.26c1.64-1.53,3.6-2.07,4.37-1.25s0.09,2.75-1.56,4.28a4.63,4.63,0,0,1-.57.48,1.44,1.44,0,0,1,1.45.28c0.68,0.74.06,2.47-1.39,3.8l-0.51.43a1.75,1.75,0,0,1,1.9.17c0.68,0.74.06,2.47-1.39,3.8-1.28,1.19-2.75,1.7-3.57,1.33v1.84a5.11,5.11,0,0,1,.91-1c1.3-1.22,2.89-1.67,3.51-1s0.06,2.21-1.25,3.43c-1.11,1-2.41,1.5-3.15,1.22v1.79a5.11,5.11,0,0,1,.91-1c1.3-1.22,2.89-1.67,3.51-1s0.06,2.21-1.25,3.43c-1.11,1-2.41,1.5-3.15,1.22V43.4a6.45,6.45,0,0,1,.82-1c1.25-1.16,2.75-1.59,3.34-1s0.06,2.1-1.19,3.26a3.58,3.58,0,0,1-3,1.19v2a6.57,6.57,0,0,1,.74-0.85c1.16-1.08,2.58-1.47,3.12-.88s0.06,2-1.11,3.06a3.27,3.27,0,0,1-2.75,1.11v1c0.28,0,.57,0,0.88,0,1.13-1,2.47-1.36,3-.77a1.1,1.1,0,0,1,.17,1c0.43,0.06.85,0.11,1.28,0.2a1.22,1.22,0,0,1,.45-1.13c0.68-.43,1.93.34,2.78,1.7l0.09,0.14,0.68,0.17,0.31-1.19c-0.71.06-1.7-.68-2.41-1.81-0.85-1.36-1-2.81-.26-3.23s1.93,0.34,2.78,1.7a5.31,5.31,0,0,1,.48,1l0.48-1.87a3.49,3.49,0,0,1-2.49-1.93c-0.91-1.45-1-3-.28-3.46s2.07,0.37,3,1.81a5.1,5.1,0,0,1,.48,1l0.43-1.62a3.88,3.88,0,0,1-2.58-2c-0.94-1.53-1.08-3.15-.28-3.63s2.18,0.37,3.12,1.9a5.1,5.1,0,0,1,.48,1l0.2-.79L88,38.83a4,4,0,0,1-2.52-2c-0.94-1.53-1.08-3.15-.28-3.63s2.18,0.37,3.12,1.9a4.52,4.52,0,0,1,.45.91c0.11-.48.26-0.94,0.4-1.39a4.22,4.22,0,0,1-2.86-2.27c-1-1.7-1.19-3.51-.34-4.05a1.8,1.8,0,0,1,1.87.34,3.61,3.61,0,0,1-.37-0.54c-1-1.7-1.19-3.51-.34-4.05a1.55,1.55,0,0,1,1.47.11l-0.43-.6c-1.16-1.9-1.33-3.94-.37-4.54s2.72,0.45,3.88,2.35,1.33,3.86.43,4.51l0.54,0.2c-0.54-1,.65-2.66,2.64-3.71s4.05-1,4.56,0S99.18,25,97.23,26.05a6.81,6.81,0,0,1-.65.31,1.49,1.49,0,0,1,1.28.65c0.48,0.91-.6,2.38-2.32,3.32a5,5,0,0,1-.57.26,1.72,1.72,0,0,1,1.73.65c0.48,0.91-.6,2.38-2.32,3.32s-3.43.94-4,.17l-0.6,2.18a5.52,5.52,0,0,1,1.42-1c1.56-.82,3.23-0.85,3.66,0s-0.51,2.15-2.1,3-3,.82-3.54.2L89,39.8l-0.34,1.3a5.55,5.55,0,0,1,1.36-1c1.56-.82,3.23-0.85,3.66,0s-0.51,2.15-2.1,3c-1.42.74-2.89,0.82-3.49,0.26l-0.51,2a5.22,5.22,0,0,1,1.16-.79c1.5-.79,3.09-0.79,3.49,0s-0.51,2-2,2.83C89,48,87.59,48.1,87,47.65l-0.48,1.93a3.78,3.78,0,0,1,.94-0.6c1.39-.74,2.89-0.74,3.26,0s-0.45,1.9-1.87,2.66a3.43,3.43,0,0,1-2.92.37l-0.31,1.19a2.79,2.79,0,0,0,.45.14l0.2-.11c1.39-.74,2.89-0.74,3.26,0a1.36,1.36,0,0,1-.28,1.36c0.57,0.26,1.11.51,1.62,0.79a1.13,1.13,0,0,1,.62-0.71c0.77-.26,1.81.79,2.3,2.32,0,0.06,0,.11.06,0.17,0.2,0.14.37,0.26,0.54,0.4L95,56.35A3.17,3.17,0,0,1,93.09,54c-0.48-1.53-.23-2.95.54-3.2s1.81,0.79,2.3,2.32a6,6,0,0,1,.23,1.16l1-1.79c-0.77-.11-1.59-1.13-2-2.49-0.51-1.62-.26-3.17.57-3.43S97.6,47.42,98.11,49a5.14,5.14,0,0,1,.26,1.25l0.91-1.64c-0.79-.14-1.67-1.19-2.13-2.61-0.54-1.7-.26-3.32.6-3.6s2,0.88,2.55,2.61a5.64,5.64,0,0,1,.26,1.28l0.82-1.5a3.8,3.8,0,0,1-2.1-2.61c-0.54-1.7-.26-3.32.6-3.6s2,0.88,2.55,2.61a4.93,4.93,0,0,1,.26,1.22L103.49,41c-0.88-.14-1.84-1.33-2.35-2.92-0.6-1.9-.31-3.69.68-4a1.75,1.75,0,0,1,1.73.79,4,4,0,0,1-.23-0.62c-0.6-1.9-.31-3.69.68-4a1.5,1.5,0,0,1,1.39.45L105.14,30c-0.68-2.13-.34-4.14.74-4.48s2.52,1.11,3.2,3.23c0.57,1.79.43,3.49-.28,4.2L108.88,33c0.26-1,1.62-2,3.46-2.41,2.15-.54,4.17,0,4.45,1.08s-1.28,2.44-3.43,2.95a6.27,6.27,0,0,1-.71.14,1.45,1.45,0,0,1,1.08,1c0.26,1-1.13,2.18-3.06,2.64a4.07,4.07,0,0,1-.62.11,1.79,1.79,0,0,1,1.53,1.08c0.26,1-1.13,2.18-3.06,2.64-1.73.43-3.37,0.09-3.86-.68l-0.94,1.7a5,5,0,0,1,1.39-.51c1.73-.43,3.34,0,3.57.85s-1,2-2.75,2.38c-1.5.37-2.92,0.11-3.4-.54L101.65,47a6.16,6.16,0,0,1,1.33-.48c1.73-.43,3.34,0,3.57.85s-1,2-2.75,2.38c-1.47.37-2.86,0.11-3.37-.51l-0.91,1.62a6.2,6.2,0,0,1,1.16-.43c1.64-.4,3.2,0,3.4.82s-1,1.87-2.64,2.27a3.59,3.59,0,0,1-3.17-.43l-0.91,1.64a4.82,4.82,0,0,1,1-.34c1.53-.37,3,0,3.17.77S100.6,56.89,99,57.29a3.52,3.52,0,0,1-2.92-.34l-0.74,1.3,0.17,0.14a4.69,4.69,0,0,1,.6-0.17c1.53-.37,3,0,3.17.77s-0.57,1.42-1.7,1.87A58.8,58.8,0,0,0,91.45,86.4a1.89,1.89,0,0,1,1.19,1.73v3.74a1.88,1.88,0,0,1-.94,1.62,79.34,79.34,0,0,0,1.5,9.78,4,4,0,0,1-.11.57,24,24,0,0,1-15.65,8.5c-0.79.06-1.62,0.11-2.47,0.11a32.48,32.48,0,0,1-5-.4,24.15,24.15,0,0,1-13.8-8.25L56,103.29a79.34,79.34,0,0,0,1.5-9.78,1.85,1.85,0,0,1-.94-1.62V88.16a1.85,1.85,0,0,1,1.19-1.73,59.61,59.61,0,0,0-6.18-25.54c-1.13-.45-1.87-1.22-1.7-1.87s1.64-1.16,3.17-.77a5.71,5.71,0,0,1,.65.2l0.14-.11L53.15,57a3.4,3.4,0,0,1-2.92.34C48.7,57,47.57,56,47.76,55.22s1.64-1.16,3.17-.77a4.82,4.82,0,0,1,1,.34L51,53.15a3.59,3.59,0,0,1-3.17.43c-1.64-.4-2.83-1.42-2.64-2.27s1.76-1.22,3.4-.82a6.2,6.2,0,0,1,1.16.43l-0.91-1.62c-0.51.62-1.9,0.85-3.37,0.51-1.73-.43-3-1.47-2.75-2.38s1.84-1.28,3.54-.85a6.16,6.16,0,0,1,1.33.48l-0.88-1.62c-0.48.65-1.9,0.91-3.4,0.54-1.73-.43-3-1.47-2.75-2.38s1.84-1.28,3.54-.85a6.15,6.15,0,0,1,1.39.51l-0.94-1.7c-0.48.79-2.13,1.11-3.86,0.68-1.93-.48-3.32-1.64-3.06-2.64a1.75,1.75,0,0,1,1.53-1.08,5.86,5.86,0,0,1-.62-0.11c-1.93-.48-3.32-1.64-3.06-2.64a1.55,1.55,0,0,1,1.08-1c-0.23,0-.45-0.09-0.71-0.14-2.15-.54-3.71-1.84-3.46-2.95s2.3-1.62,4.45-1.08c1.81,0.43,3.2,1.45,3.46,2.41L40.39,33c-0.71-.71-0.85-2.41-0.28-4.2,0.68-2.13,2.1-3.57,3.2-3.23s1.42,2.35.74,4.48l-0.26.68a1.43,1.43,0,0,1,1.39-.45c1,0.31,1.28,2.1.68,4a4,4,0,0,1-.23.62,1.75,1.75,0,0,1,1.73-.79c1,0.31,1.28,2.1.68,4-0.51,1.59-1.47,2.75-2.35,2.92l0.82,1.47a4.93,4.93,0,0,1,.26-1.22c0.54-1.7,1.7-2.86,2.55-2.61s1.13,1.9.6,3.6a3.67,3.67,0,0,1-2.1,2.61l0.82,1.5a5.36,5.36,0,0,1,.26-1.28c0.54-1.7,1.7-2.86,2.55-2.61s1.13,1.9.6,3.6c-0.45,1.45-1.33,2.49-2.13,2.61l0.91,1.64a5.14,5.14,0,0,1,.26-1.25c0.51-1.62,1.62-2.75,2.44-2.47s1.08,1.81.57,3.43c-0.43,1.36-1.28,2.38-2,2.49l1,1.79a6,6,0,0,1,.23-1.16c0.48-1.53,1.5-2.55,2.3-2.32s1,1.67.54,3.2c-0.4,1.28-1.19,2.24-1.9,2.35l0.68,1.22,0.51-.37L55.47,57c0.48-1.53,1.5-2.55,2.3-2.32a1.08,1.08,0,0,1,.65.74c0.54-.28,1.08-0.54,1.64-0.79a1.26,1.26,0,0,1-.31-1.39c0.37-.71,1.87-0.71,3.26,0l0.26,0.14,0.43-.14L63.38,52a3.43,3.43,0,0,1-2.92-.37C59,50.94,58.2,49.75,58.59,49s1.87-.71,3.26,0a7.55,7.55,0,0,1,.94.6l-0.48-1.93c-0.62.45-2,.37-3.26-0.31-1.5-.79-2.41-2.07-2-2.83s2-.77,3.49,0a5.22,5.22,0,0,1,1.16.79l-0.51-2c-0.6.57-2.1,0.48-3.49-.26-1.59-.82-2.52-2.15-2.1-3s2.1-.79,3.66,0a6.42,6.42,0,0,1,1.36,1l-0.34-1.3-0.2-.77c-0.57.62-2.1,0.57-3.54-.2s-2.52-2.15-2.1-3,2.1-.79,3.66,0a5.52,5.52,0,0,1,1.42,1l-0.6-2.18c-0.57.77-2.32,0.71-4-.17s-2.81-2.41-2.32-3.32a1.72,1.72,0,0,1,1.73-.65l-0.57-.26C52,29.45,50.94,28,51.42,27.07a1.43,1.43,0,0,1,1.28-.65A6.81,6.81,0,0,1,52,26.11c-2-1-3.15-2.69-2.61-3.71s2.61-1,4.56,0,3.15,2.69,2.64,3.71l0.54-.2c-0.91-.65-0.74-2.64.43-4.51s2.92-2.95,3.88-2.35,0.79,2.64-.37,4.54a4.52,4.52,0,0,1-.43.6,1.55,1.55,0,0,1,1.47-.11c0.85,0.54.71,2.35-.34,4.05-0.11.2-.26,0.37-0.37,0.54a1.74,1.74,0,0,1,1.87-.34c0.85,0.54.71,2.35-.34,4.05a4.22,4.22,0,0,1-2.86,2.27c0.14,0.45.26,0.94,0.4,1.39A6.77,6.77,0,0,1,61,35.15c0.94-1.53,2.32-2.38,3.12-1.9s0.65,2.1-.28,3.63a3.86,3.86,0,0,1-2.52,2l0.17,0.62,0.23,0.79a5.1,5.1,0,0,1,.48-1c0.94-1.53,2.32-2.38,3.12-1.9s0.65,2.1-.28,3.63a3.82,3.82,0,0,1-2.58,2l0.43,1.62a5.1,5.1,0,0,1,.48-1c0.91-1.45,2.24-2.27,3-1.81s0.62,2-.28,3.46a3.6,3.6,0,0,1-2.49,1.93L64,49.21a6.33,6.33,0,0,1,.48-1c0.85-1.36,2.1-2.13,2.78-1.7s0.57,1.87-.26,3.23a3.35,3.35,0,0,1-2.41,1.81l0.31,1.22,0.62-.17a0.59,0.59,0,0,1,.11-0.17c0.85-1.36,2.1-2.13,2.78-1.7a1.25,1.25,0,0,1,.45,1.16l1.28-.2a1.08,1.08,0,0,1,.17-1c0.54-.57,1.9-0.23,3,0.79l0.85,0v-1a3.28,3.28,0,0,1-2.75-1.13c-1.16-1.08-1.67-2.47-1.11-3.06s2-.2,3.15.88a4.75,4.75,0,0,1,.71.82V46a3.61,3.61,0,0,1-3-1.19C70,43.68,69.42,42.21,70,41.58s2.13-.2,3.34,1a6.27,6.27,0,0,1,.82.94V41.64c-0.77.28-2.07-.2-3.17-1.25-1.3-1.22-1.87-2.75-1.25-3.43s2.24-.23,3.51,1a5.8,5.8,0,0,1,.88,1V37.22C73.42,37.5,72.11,37,71,36c-1.3-1.22-1.87-2.75-1.25-3.43s2.24-.23,3.51,1a5.8,5.8,0,0,1,.88,1V32.77c-0.82.37-2.35-.17-3.6-1.36-1.45-1.36-2.07-3.06-1.36-3.8A1.71,1.71,0,0,1,71,27.44a5.94,5.94,0,0,1-.48-0.4c-1.45-1.36-2.07-3.06-1.36-3.8A1.47,1.47,0,0,1,70.61,23c-0.2-.14-0.37-0.31-0.54-0.45-1.62-1.53-2.32-3.43-1.53-4.28s2.78-.28,4.39,1.25Zm1.25,4.51a2.12,2.12,0,0,1-1.42.09c0.11,0.11.26,0.2,0.37,0.31a7,7,0,0,1,1,1.25V23.87Zm0,4.45a2.21,2.21,0,0,1-1.53-.06,5.94,5.94,0,0,1,.48.4,7,7,0,0,1,1,1.25V28.32ZM43,39.12L42.12,37.5a2.06,2.06,0,0,1-1.45.82,5.86,5.86,0,0,1,.62.11A6,6,0,0,1,43,39.12Zm-2.1-3.8-1-1.76a1.83,1.83,0,0,1-1.3.94,3,3,0,0,1,.48.11A7.34,7.34,0,0,1,40.93,35.32Zm0.17-2.21,0.65,1.19A6.48,6.48,0,0,1,42,32.94l0.17-.48a2.21,2.21,0,0,1-1.11.62v0ZM43.26,37l0.68,1.22a6.61,6.61,0,0,1,.28-1.42,4,4,0,0,1,.23-0.62A2.4,2.4,0,0,1,43.26,37ZM57.2,26.25c0.14,0.43.31,0.85,0.45,1.28a6.34,6.34,0,0,1,.68-1.5c0.09-.14.2-0.28,0.28-0.43a2,2,0,0,1-1.56.28Zm1.33,4c0.14,0.43.26,0.85,0.4,1.28a6,6,0,0,1,.6-1.22c0.11-.2.26-0.37,0.37-0.54a2.4,2.4,0,0,1-1.36.51v0Zm-0.62,2.1c-0.2-.62-0.37-1.28-0.57-1.9a2.06,2.06,0,0,1-1.59.45l0.57,0.26a6.58,6.58,0,0,1,1.62,1.16Zm-1.42-4.48c-0.14-.4-0.28-0.77-0.4-1.16L56,26.33a2.32,2.32,0,0,1-1.25.37c0.14,0.06.28,0.14,0.45,0.23a6.85,6.85,0,0,1,1.33.91h0Zm18.51-4v1.67a6.29,6.29,0,0,1,1.08-1.28,4.94,4.94,0,0,1,.4-0.34A2,2,0,0,1,75,23.81Zm0,4.45v1.64a6.29,6.29,0,0,1,1.08-1.28l0.51-.43a2,2,0,0,1-1.56.06h0Zm17.72-1.62c-0.14.4-.28,0.77-0.4,1.16a5.79,5.79,0,0,1,1.33-.91c0.14-.09.28-0.14,0.45-0.23a2.24,2.24,0,0,1-1.25-.37l-0.11.34h0Zm-1.28,3.77c-0.2.62-.4,1.25-0.57,1.9a5.91,5.91,0,0,1,1.62-1.16,2.5,2.5,0,0,1,.57-0.26,2,2,0,0,1-1.59-.45Zm-1.59,1c0.11-.43.26-0.85,0.4-1.28a2.47,2.47,0,0,1-1.36-.51,3.61,3.61,0,0,1,.37.54,6,6,0,0,1,.6,1.22v0Zm1.28-3.94c0.14-.43.28-0.85,0.45-1.28l0.14-.37a1.83,1.83,0,0,1-1.56-.28c0.09,0.14.2,0.28,0.28,0.43A6.34,6.34,0,0,1,91.13,27.55Zm13.72,10.66L105.53,37a2.23,2.23,0,0,1-1.19-.82,4,4,0,0,1,.23.62A6.61,6.61,0,0,1,104.85,38.21ZM107,34.33l0.65-1.19a2.21,2.21,0,0,1-1.11-.62c0.06,0.14.11,0.31,0.17,0.48a8.32,8.32,0,0,1,.28,1.36v0Zm1.81-.77-1,1.76a6.35,6.35,0,0,1,1.79-.71c0.17,0,.31-0.09.48-0.11A2,2,0,0,1,108.82,33.56Zm-2.18,3.91-0.91,1.62a6.88,6.88,0,0,1,1.73-.68,4.81,4.81,0,0,1,.62-0.11A2.12,2.12,0,0,1,106.64,37.47Z" style="fill: #fecc00"/>
  </g>
</svg>
