<?xml version="1.0" encoding="UTF-8" standalone="no"?>
<svg
    xmlns:dc="http://purl.org/dc/elements/1.1/"
    xmlns:cc="http://creativecommons.org/ns#"
    xmlns:rdf="http://www.w3.org/1999/02/22-rdf-syntax-ns#"
    xmlns:svg="http://www.w3.org/2000/svg"
    xmlns="http://www.w3.org/2000/svg"
    version="1.1"
    preserveAspectRatio="xMinYMin meet"
    viewBox="0 0 18 20"
    id="bzlogo-mask">
   <g
       id="bzlogo-mask-g"
       transform="matrix(0.0124013893,0,0,0.0118066582,-6.220056808,-3.502164543)">
      <path
          d="m 1928.932884,1751.000001 c 10.555556,-9 15.833334,-17 21.111111,-29 3.166667,-12 4.222223,-21 1.055556,-33 -117.166666,-451.999998 -172.495688,-900.9798916 -304.440132,-1350.9798903 -3.166667,-10 -7.388889,-17 -15.833334,-23.9999999 -8.444444,-8 -16.888889,-12 -29.555555,-15 -11.611111,-3 -22.166667,-3 -34.833334,-1 -11.611111,2 -21.111111,6 -30.611111,13 -280.682053,239.6266744 -575.9492832,174.0056253 -948.9644079,134.604634 -73.9511636,-7.8113432 -89.445774,22.4005996 -84.444444,55.4201131 65.6257373,433.2707304 135.454217,969.9406021 199.1224904,1370.9551431 2.1111111,10 7.3888888,18 15.8333333,26 7.3888888,6 13.7222222,10 21.111111,13 460.5600042,137.253455 884.9294092,105.057308 1190.4487162,-160 z"
          style="fill:#ffffff"
          id="bzlogo-mask-path-2" />
      <path
          d="M 572.8965558,535.3760374 C 902.1464129,608.0822656 1277.567372,615.6282289 1581.949415,381.2463091 L 1873.010478,1695.254103 C 1548.340136,1958.644652 1245.925236,1953.62834 787.8767333,1833.678069 z"
          style="fill:#ffcc00"
          id="bzlogo-mask-path-1" />
      <path
          d="m 1310.544458,624 39.227726,156.5785761 c 22.799886,91.0063869 -40.690398,89.2307158 -98.227726,105.3675459 l 73,324.053878 c 5,25 10,50 15,75 1,4 2,9 3,14 6,-4 12,-9 16,-12 l 24,-18 c 11,-8 25,-10 38,-6 14,5 23,15 27,29 l 56,206 c 4,15 -1,31 -13,42 l -9,8 c -42,37 -92,59 -148,70 -37,7 -75,4 -112,-8 -35,-13 -65,-33 -87,-63 -23,-28 -37,-65 -48,-99 -16.000001,-49 -26.000001,-108 -36.000001,-159 L 978.5444566,937.887036 C 932.8195989,953.1972947 914.092223,955.1871629 892.7586778,896 L 863.3167619,748.4153159 C 851.1996099,687.6751772 888.5444566,686 927.5444566,675 L 913.532019,565.6772141 1151.544458,332 l 57,289 c 56,-11 94,-34 102,3 z M 871.3253403,994.9035599 c 33,-6 65,13.0000001 71,44.0000001 6,30 -17,60 -50,66 -33,6 -65,-13 -71,-43 -5,-31 17,-60 50,-67.0000001 z m 512.4297177,-87.0100828 c 33,-6 65,13 71,43 6,31 -16,59.9999999 -50,66.9999999 -33,6 -65,-13 -70,-42.9999999 -6,-31 16,-60 49,-67 z M 984.5444566,1635 c 4,-10 11,-18 21.0000004,-23 l 1,0 0,0 c 10,-5 22,-5 32,-2 14.849826,9.709142 22.832278,22.832277 35.000001,35 11,16 26,31 41,43 32.729471,26.372074 71.735925,38.4983 103,52 68,20 130,17 194,-13 l 0,0 c 37,-17 71,-41 98,-69 26,-27 47,-58 57,-89 l 0,0 c 3,-11 11,-19 21,-24 10,-4 21,-6 32,-3 l 1,0 c 0,1 1,1 2,1 l 0,0 c 78,26 -28,147 -47,166 -39,43 -136,115 -247,122 -44,4 -91,-2 -136,-15 -65,-19 -130.000001,-55 -175.000001,-106 -2,-2 -11,-14 -19.0000004,-26 -11,-15 -21,-30 -14,-49 z"
          style="fill:#ffffff"
          id="bzlogo-mask-path-3" />
      <path
          d="m 1265.932035,675 26,129 -106,21 81,400 c 14,66 23,105 27,116 5,10 11,18 20,24 8,6 18,8 28,6 15,-3 34,-15 59,-34 l 48,165 c -32,29 -71,48 -117,57 -28,6 -55,5 -81,-4 -25,-8 -45,-22 -60,-41 -15,-18 -28,-45 -39,-79 -8,-25 -21,-75 -36,-152 l -87,-426 -72.0000098,15 -27,-129 72.0000098,-15 -20.0000098,-98 131.0000098,-158 46,224 107,-21 z"
          style="fill:#999999"
          id="bzlogo-mask-path-4" />
   </g>
</svg>