<svg id="city_blag" data-name="blag" xmlns="http://www.w3.org/2000/svg" width="52.5mm" height="52.5mm" viewBox="0 0 148.82 148.82">
  <title>blag</title>
  <g id="blag">
    <path d="M40,44.59l2.95-1.11a10.07,10.07,0,0,1-1.56-5.7c0.09-4.08,3.8-8.48,3.8-8.48s2,5.3,1.73,8.79a9.13,9.13,0,0,1-2.07,4.71q1.87-.68,3.66-1.28h0c1.87-.65,3.63-1.25,5.24-1.79a11.44,11.44,0,0,1-1.5-5.39A18.37,18.37,0,0,1,54,26.87a31.09,31.09,0,0,1,1.47,7.54,10.65,10.65,0,0,1-1.5,5.24c3.63-1.22,6.55-2.18,8.56-3A57.48,57.48,0,0,0,71,31.92a9.33,9.33,0,0,1-2.1-4.2,15.29,15.29,0,0,1,.26-6.35,25.07,25.07,0,0,1,2.35,5.9A9.24,9.24,0,0,1,71,31.89a47,47,0,0,0,5.58-4.25A13.24,13.24,0,0,1,79.34,22c2.52-3.06,7.14-4.28,7.14-4.28S84.33,23,82,25.46A9,9,0,0,1,77.56,28a44.43,44.43,0,0,1-5.3,4.22c1-.4,2.72-1,3.6-0.57a16.92,16.92,0,0,1,4.08,3c-0.06.23-2.72,2.24-5.16,0.94a8.31,8.31,0,0,1-3.2-2.86,62.73,62.73,0,0,1-6.32,3.83A4.39,4.39,0,0,1,68,36.45a20.8,20.8,0,0,1,4.56,3.49c-0.06.26-3.15,2.47-5.92,0.91a9.4,9.4,0,0,1-3.54-3.29c-2,.82-4.73,1.79-8.28,3.06,1.16-.26,3.74-0.71,4.79.06,1.39,1,4.31,4.2,4.2,4.45s-3.74,2-6.35-.06a9.77,9.77,0,0,1-3.2-4.25c-1.22.43-2.52,0.91-3.94,1.42,0,0-.28,0-0.31,0a1.22,1.22,0,0,0-1.39-.68,6.55,6.55,0,0,0,1.11.88s0,0,0,.06a0.06,0.06,0,0,0,0-.06,0.42,0.42,0,0,0,.11.06c-2.92,1.08-6.12,2.24-9.52,3.54a17,17,0,0,0-4.76,2.83c1.3-.65,3.86-1.76,5.19-1.25,1.84,0.71,6,3.43,6,3.74s-3.57,3.37-7.11,1.79a11.47,11.47,0,0,1-4.73-3.69C28,55.59,24.69,66.08,24.43,66l-1.81-1.42c0.2-.54,4-10.18,11.17-16.24a9.86,9.86,0,0,1-1.64-5.84c0.09-4.08,3.8-8.48,3.8-8.48s2,5.3,1.73,8.82a8.67,8.67,0,0,1-1.3,3.63A19,19,0,0,1,40,44.67V44.59Zm22.45-8a9.94,9.94,0,0,0,.68-5.3,28.79,28.79,0,0,0-2.52-6.8,17.28,17.28,0,0,0-.45,7.23,10.37,10.37,0,0,0,2.32,4.88h0Z" style="fill: #999"/>
    <path d="M55.42,102.56c3.09,1.47,9.38,4.85,7.77,7a1,1,0,0,1-.94.17c2.1,1.64,3.51,3.12,2.72,3.71a1.68,1.68,0,0,1-1.3.23c1.9,1.64,3.06,3.09,2.47,4a1.37,1.37,0,0,1-1.33.4c2.15,1.76,3.32,3.23,2.55,4.17a1.58,1.58,0,0,1-1.47.37c1.84,1.67,2.81,3.06,2.18,3.86-0.34.43-1.28,0.31-2.64-.26,2.41,2.21,3.6,4,2.66,4.76-2.1,1-1.53-2.86-22.34-15.56h0a93.13,93.13,0,0,1-8.42-5l-0.17-.11v0A39.81,39.81,0,0,1,33,107.12c-4.71-4.14-15.28-14-6.58-21.17,2.58-2.13,5.27-2.13,9.1-2.95,2.21-.48,4.2-0.94,5.61-3.09a29.79,29.79,0,0,1,1.9-13.27C44,63,47.23,56.3,47.76,55.11a8.25,8.25,0,0,0,.45-1.42c0.4-1.36.71-2.72,1-4.11a6.89,6.89,0,0,1,1-3.2l-0.45.4c0.2-2-2.18-5.7-1.76-5.36a3.49,3.49,0,0,1,.57.06,3.73,3.73,0,0,1,.85.26,6.41,6.41,0,0,1,2.78,3,5.81,5.81,0,0,1,2.13.17l-0.54.31a1.46,1.46,0,0,1,1.56,0A6,6,0,0,1,58,48c1,2,.91,3.77,0,10.89-1.22,6-.65,10.12,1.39,13.55a16.39,16.39,0,0,0,4-2c2.38-3.94,1.47-14.37,6-17.55,3.77-2.64,20.18-5.84,27.61-7.26l0.06-.09c1.08-.17,2.15-0.37,3.23-0.57h0l0.54-.11,0.09,0,0.45-.09,0.17,0,0.4-.09,0.23-.06,0.31-.06,0.31-.06,0.23-.06,0.4-.09,0.14,0,0.45-.11,0.09,0,0.54-.14,0.54-.14,0.09,0,0.45-.11,0.14,0,0.4-.09,0.23-.06,0.31-.09,0.31-.09,0.23-.06,0.37-.11,0.6-.17,0.09,0,0.54-.14,0.51-.14,0.09,0L110,42.6l0.14,0,0.37-.11,0.23-.06,0.28-.09,0.28-.09,0.23-.06,0.37-.11,0.14,0,0.43-.14,0.06,0,0.48-.14,0.48-.14,0.06,0,0.43-.11,0.14,0,0.34-.11,0.2-.06,0.26-.09,0.26-.09,0.2-.06,0.34-.11,0.14,0,0.4-.11,0.06,0,0.45-.14h0l0.43-.14,0.06,0,0.37-.11,0.11,0L118,40.2l0.17-.06,0.23-.09,0.23-.09,0.17-.06,0.28-.09,0.11,0,0.34-.11,0.06,0,0.37-.11h0l0.37-.11,0.06,0,0.31-.09,0.11,0,0.26-.09,0.14-.06,0.2-.06,0.2-.06,0.14,0,0.23-.06,0.09,0,0.26-.09h0.06l0.31-.09,0.28-.09h0l0.23-.06,0.09,0,0.2-.06,0.11,0,0.14,0,0.14,0,0.11,0,0.17,0h0.06l0.2,0h0l0.2,0h0l0.2,0h0l0.14,0h0.62l0.09,0c0.26,0.06.31,0.23,0.11,0.54a14.15,14.15,0,0,1-3.17,2.72c0.94-.09,1.47,0,1.47.37,0.09,0.82-1.3,1.93-3.54,3.17,1-.14,1.64,0,1.53.54-0.23.85-1.39,1.79-3.15,2.75,0.62,0,1,.17,1,0.54-0.06,1.11-1.47,2.24-3.57,3.34a0.81,0.81,0,0,1,.54,1c-0.31,1.16-2.13,2.38-4.59,3.51a0.92,0.92,0,0,1,.28,1.13c-0.23.57-1.39,1.22-3,1.87a0.38,0.38,0,0,1,.11.48c-1,2.38-10.35,5.41-16.19,7.09a0.39,0.39,0,0,1,.17.31C93.86,68.54,92,69.31,89.35,70c1.62,0,2.72.23,2.58,0.77S90.62,72,89,72.4c0.85,0.17,1.33.4,1.19,0.68-0.37,1.19-2.58,2-5.33,2.58,1.64,0.11,2.75.4,2.52,0.94-0.34.94-2,1.5-4.11,1.81,1.11,0.2,1.67.54,1.25,1.11-0.65.85-2.61,1.19-4.79,1.28,1,0.26,1.53.6,1.33,1-1,2.18-6.12,1.81-9.5,1.28a21.57,21.57,0,0,0,7.2,2.66l-0.06-.11c3.69,0.48,6.89-.26,11-1.84,1.3-.57,2.64-1.19,3.71-1.56l0.45-.2c6.26-2.75,13.66-9,15.08-8.16s1.22,2.18,0,3.54a2.2,2.2,0,0,1,1.62-.11,1.66,1.66,0,0,1,1.08,1.7,3.14,3.14,0,0,1-1,1.64,3.65,3.65,0,0,1,2.24-.11,1.69,1.69,0,0,1,1.13,1.64,2.39,2.39,0,0,1-.91,1.47,4.08,4.08,0,0,1,2.27.11,1.65,1.65,0,0,1,1.16,1.56,2.14,2.14,0,0,1-1,1.5,4.85,4.85,0,0,1,2,.31,1.66,1.66,0,0,1,1.22,1.47c0,0.79-.74,1.36-1.87,1.79a6,6,0,0,1,1.84.45A1.69,1.69,0,0,1,120,92.3c0,1-1.19,1.53-3,1.84,1.47,0.4,2.35,1,2.38,1.7,0,1.3-2,1.67-5.1,1.59,3.32,0.62,5.44,1.59,5,3.06s-2.81,2-6.15,2.07c2.35,0.74,3.74,1.56,3.4,2.66-0.26.85-1.67,1.08-3.74,0.91,2.52,1,4,2.1,3.37,3.23-0.43.79-2.1,0.68-4.45,0.09,1.9,1.16,2.89,2.27,2.07,3.26-0.54.65-2.27,0.23-4.62-.74,1.67,1.33,2.44,2.55,1.33,3.49-0.6.51-2.32-.26-4.65-1.56,1.7,1.64,2.47,3.15,1,4-0.6.34-2-.48-3.88-1.84,1.53,1.9,2.15,3.63.34,4.37-0.43.17-1.19-.26-2.18-1.08,1,1.87,1.16,3.46-.77,3.91-1.59.4-6.94-7.68-12.16-12.08-0.74-.62-1.45-1.22-2.13-1.76a0.64,0.64,0,0,1-.26,0l-0.62-.31c-7.74-5.27-13.49-6.21-13.49-6.21a103.85,103.85,0,0,1-13.55-3.66A2,2,0,0,1,58,101c-0.45.48-1.47,0.4-2.78,0,0.48,0.54.65,1,.34,1.33a1.07,1.07,0,0,1-.43.26Z" style="fill: #fc0"/>
  </g>
</svg>
