<svg id="city_orel" data-name="orel" xmlns="http://www.w3.org/2000/svg" width="52.5mm" height="52.5mm" viewBox="0 0 148.82 148.82">
  <title>orel</title>
  <g id="orel">
    <path d="M81.47,80.82c0-.48.06-3,0-3.66s-0.26-.4-0.26.06V81c0,0.57.2,0.31,0.2-.17h0Z" style="fill: none"/>
    <path d="M82.49,80.93c0-.51,0-5,0-5.84s-0.31-.23-0.31.17c0,0,0,4.48.06,5.56S82.52,81.44,82.49,80.93Z" style="fill: none"/>
    <path d="M80.87,80.82c0-.23.11-4.14,0.06-5s-0.31-.54-0.31,0a46.81,46.81,0,0,0,0,4.9c0.17,0.57.2,0.28,0.26,0v0Z" style="fill: none"/>
    <path d="M66.76,65.62a1.16,1.16,0,1,0,1.13,1.16A1.14,1.14,0,0,0,66.76,65.62Z" style="fill: none"/>
    <path d="M79.88,67.49a1.16,1.16,0,1,0-1.13-1.16A1.14,1.14,0,0,0,79.88,67.49Z" style="fill: none"/>
    <path d="M81.84,99.44s0.14,11.23.26,12.16,0.26,0.74.28,0.14-0.23-11.62-.23-12.33S81.84,99,81.84,99.44Z" style="fill: none"/>
    <path d="M79.57,105.87c0.17,0.06.68,0,.54,1.11s0.14,4.17.11,4.73,0.28,0.54.28-.23,0.11-5.5-.2-5.73a1.3,1.3,0,0,1-.2-1.13c0-.48,0-1.87,0-1.87s0.06-6.38,0-6.86-0.28-.77-0.26.17,0,6.32,0,6.32l-0.54.17s-0.11-2-.11-2.3-0.2-.51-0.26.54,0,1.81,0,1.81l-0.82.4s0.28-5.84-2.38-6.41c-0.11,0-.31.23,0,0.37s2.13-.06,2.13,6.09l-1,.48s-0.06-3.86-.57-4.73a2.12,2.12,0,0,0-1.64-1.3,1.15,1.15,0,0,1,0-1.11A12.56,12.56,0,0,0,75,94.82c0-.34,0-0.65-1.42-0.62s-1.7.06-1.33,0.74,0.6,1.5.37,1.64-0.68.62-.34,0.54a1.34,1.34,0,0,1,.82,0,0.75,0.75,0,0,1-.23,1A3,3,0,0,0,71.55,101a20.52,20.52,0,0,0,.17,2.27l-0.88-.23a22.65,22.65,0,0,1,.2-3.88,4.58,4.58,0,0,1,.94-1.5c0.14-.14.2-0.51-0.34,0a2.74,2.74,0,0,0-1,2c-0.09.88-.09,3.43-0.09,3.43s-1.67-.4-1.79-0.37a0.81,0.81,0,0,0-.4.85c0,0.57.09,2.18,0.09,2.3s0.09,0.28.45,0.14l1.76-.68,0.11,7.51h0.48L71,105.11l0.77-.17,0.4,7.46s0.28,0.43.28-.34-0.45-11.79-.43-12a3.55,3.55,0,0,1,.57-1c0,2.21.37,12.64,0.37,12.93s0.17,0.51.2-.14S72.88,98.7,72.88,98.7l0.57-.6s0.2,13.92.2,14,0.23,0.65.23-.48S73.67,98,73.67,98s0.2-.2.23,0.17,0.45,13.44.45,13.8,0.26,0.68.28-.14S74.32,98,74.32,97.94a0.62,0.62,0,0,1,.37.43c0,0.2.28,13.32,0.28,13.78s0.2,0.2.2-.82-0.2-13-.2-13l0.43,0.54,0.28,13.89H76L75.71,98.9A1.34,1.34,0,0,1,76.2,100c0,0.74.62,12.33,0.62,12.44s0.2,0.43.28-.34-0.23-6.55-.23-6.55c0-.4.71-0.34,0.77,0s0.45,6.8.45,6.94,0.34,0.28.37-.14-0.4-6.8-.4-6.8,0.82,0,.82.28,0.17,5.61.2,7H79.4l-0.23-6.89a1.21,1.21,0,0,1,.34.06Zm-8-1.87a24.14,24.14,0,0,1-2.41,1.22c-0.23.14-.4,0.23-0.4-0.43s0-1.67,0-1.67,0.06-.14.54,0,1.73,0.43,2.07.51,0.62,0.06.2,0.37h0Zm2.58-6.69c-0.17.31-.31,0.45-0.54,0a21.11,21.11,0,0,1-1-2.52c0-.14-0.06-0.23.65-0.28a4.09,4.09,0,0,1,1.08.06c0.2,0,.51,0,0.34.48S74.27,97,74.13,97.31Zm3.12,7.37a0.3,0.3,0,0,1-.34-0.37,0.67,0.67,0,0,1,.2-0.68c0.2-.09,1.87-0.68,2.13-0.79s0.43-.17.43,0.43,0.26,1.9-.45,1.7A12.71,12.71,0,0,0,77.24,104.68Z" style="fill: none"/>
    <path d="M82.71,99.27s0.2,11.17.28,11.76,0.23,0.77.31,0.65-0.23-11.79-.23-12.36S82.71,98.87,82.71,99.27Z" style="fill: none"/>
    <path d="M83.08,96.49c0.06-.43-0.34-6-0.34-6.49s-0.26-.65-0.26-0.09c0,0,.23,5.44.23,6.46S83,96.92,83.08,96.49Z" style="fill: none"/>
    <path d="M82,94.39c0.09-.48,0-2.21,0-3.09s-0.37-.48-0.37.14c0,0,.11,1.73.14,2.55S81.92,94.9,82,94.39Z" style="fill: none"/>
    <path d="M81,92.86c0-.4-0.14-1.19-0.23-0.4C80.7,93.09,81,93.26,81,92.86Z" style="fill: none"/>
    <path d="M81.5,111.37c0.14-.31-0.31-11.71-0.43-13s-0.28-.74-0.31-0.17c0,0,.34,12,0.4,12.78s0.2,0.65.34,0.37v0Z" style="fill: none"/>
    <path d="M19.45,115.88L19.28,94.17l-1.56-2.1V82.29h1.84s1.42-5,1.73-6.09,4.05-14.34,4.14-14.66,0.71-.43.91,0.37,5.24,19.81,5.24,19.81h1.79s0.51-.23.54,1.36,0.23,9.1.23,9.1-1.25,1.36-1.33,1.53-0.11,1.28.11,1.16l2-1c0.17-.09.28,0.09,0.26,0.57a6.19,6.19,0,0,0,.09,1.16l2.1-1.36L37.47,92a2.6,2.6,0,0,1,.6-0.68C38.44,91,39.6,90,39.6,90V82.35A1.51,1.51,0,0,1,40,81.18l2-2.55,4.9-.26,1.73,2.75,0.06,2.66,0.77-.31-0.06,1.25,2.13-1.45,0-2,0.65-.62,2.58-11.74,2.47,10,1.11-.6,0-2,3.94-2.72,0.06-.82,2.1-.17,0-3.86-0.23-7.34,2.49,0,0.06,1.19h3V61.4h2.38v1.22h2.47l0.09-1.28L77.5,61.4l0.14,1.28h2.83l0.09-1.33h2.72L83.4,64l0.17,7.37a0.88,0.88,0,0,0,.91.79c0.85,0,1.22-.31,2.21.31s3.23,2.38,3.23,2.38,0.09,1.45.09,1.7,0.34,0.31.48-.4,2.27-11.79,2.64-12.64,0.6-1,.85.14S95.7,78.38,95.7,78.38l2,1.56a17.83,17.83,0,0,1-.11,1.81c-0.09.4,0.48,0.45,0.6-.57S98.28,80,98.28,80L100,78a1.44,1.44,0,0,1,1.25-.4l4.62,0a1.84,1.84,0,0,1,1.47.79,21.1,21.1,0,0,1,1.64,2l-0.23,7.43,2.75,1.84s0.54,0.11.45,1.28a10.26,10.26,0,0,0,0,1.93l1.9,1.45V91.53l1.36,1,0-2.13L114.09,89l0-10.43,1.28,0a4,4,0,0,0,.37-1.11c0.14-.71,4.85-18.34,4.85-18.34s0.14-.82.65,0.57,6.09,18.14,6.09,18.14l3.6,0.06L131,85.55a3.72,3.72,0,0,1-.62,2.61c-0.4.54-.88,1.3-0.88,1.3l0.17,26.31-110.35.06Z" style="fill: #fc0"/>
    <path d="M64.49,68.74a1.37,1.37,0,0,1-.85-0.11c-0.11-.17-1.59,1-2.27.6a2.39,2.39,0,0,0-2.15,0c-0.54.28-1.64,0-1.62-.4s0.17-.43-0.11-0.57a0.59,0.59,0,0,1,0-1A13.29,13.29,0,0,0,61,64c1.22-1.76,4.65-6.69,5.1-7.23a7.18,7.18,0,0,0,.62-3c0-.43-0.26-0.45-0.6-0.09a3.67,3.67,0,0,1-3.66-.17,0.7,0.7,0,0,0-.88-0.09,1,1,0,0,1-1.16-.28c-0.51-.43-1.11-0.88-1.33-0.57a2.94,2.94,0,0,1-2.64,0c-0.65-.51-0.74-0.54-1.28,0a4.36,4.36,0,0,1-4.62.4,1.93,1.93,0,0,0-1.62.28c-0.28.31-1.84,0.31-3-.31s-1.28,0-1.53.17A2.35,2.35,0,0,1,42,52.89a0.69,0.69,0,0,0-.85.4c-0.23.37-1.5,0.14-2.75,0s-1.62-.88-0.26-1.36A19.88,19.88,0,0,0,43,48.73c1.13-1,7-5.81,11.62-7.26,2.27-.65,7-0.65,8.59,1.22,1.62,1.56,2.24,3.17,5.73,3.66,1.11,0,3.29-.51,3.37-2.61s0.11-4.45-.54-5.1-1.33-1.5-2.72-1a5.44,5.44,0,0,0-2,1.13c-0.11.11-.23-0.17-0.17-0.65a3.21,3.21,0,0,1,1.64-2.78c1.5-.79,2-1.08,1.53-1.25,3.66-2.1,6.66-1.28,6.72-.09a1.11,1.11,0,0,1,.79.11,1.71,1.71,0,0,0,.88.28,1.92,1.92,0,0,1-1,1.22c-0.65.28,0.65-.11,0.91,1.84s0.09,2.47.37,3.57,0.45,4.42.51,4.62,0.28,0.23.62-.37,1.84-2.92,2.52-3.77,2-2.27,3.71-1.3,2,5.53.85,11.25a109,109,0,0,1-3.49,12.44l-0.11-2.66H80.65l-0.09,1.33H77.73l-0.14-1.28-2.78-.06-0.09,1.28H72.26V61.34H69.87v1.19h-3l-0.06-1.19-2.49,0,0.23,7.34Z"/>
  </g>
</svg>
