<?xml version="1.0" encoding="UTF-8" standalone="no"?>
<!-- Generator: Adobe Illustrator 16.0.0, SVG Export Plug-In . SVG Version: 6.00 Build 0)  -->

<svg
     xmlns:dc="http://purl.org/dc/elements/1.1/"
     xmlns:cc="http://creativecommons.org/ns#"
     xmlns:rdf="http://www.w3.org/1999/02/22-rdf-syntax-ns#"
     xmlns:svg="http://www.w3.org/2000/svg"
     xmlns="http://www.w3.org/2000/svg"
     xmlns:xlink="http://www.w3.org/1999/xlink"
     xmlns:sodipodi="http://sodipodi.sourceforge.net/DTD/sodipodi-0.dtd"
     xmlns:inkscape="http://www.inkscape.org/namespaces/inkscape"
     version="1.1"
     id="Layer_1"
     x="0px"
     y="0px"
     width="1575"
     height="420"
     viewBox="0 0 1574.999971 420.0000064"
     enable-background="new 0 0 1574.53 354.232"
     xml:space="preserve"
     inkscape:version="0.91 r13725"
     sodipodi:docname="sber_logo.svg"
     inkscape:export-filename="/home/vmm/www/belcanto/sar.bezantrakta.ru_v3/sberbank/logo/sber_logo.png"
     inkscape:export-xdpi="12.19539738"
     inkscape:export-ydpi="12.19539738"><metadata
         id="metadata33"><rdf:RDF><cc:Work
                 rdf:about=""><dc:format>image/svg+xml</dc:format><dc:type
                     rdf:resource="http://purl.org/dc/dcmitype/StillImage" /><dc:title></dc:title></cc:Work></rdf:RDF></metadata><defs
         id="defs31" /><sodipodi:namedview
         pagecolor="#ffffff"
         bordercolor="#666666"
         borderopacity="1"
         objecttolerance="10"
         gridtolerance="10"
         guidetolerance="10"
         inkscape:pageopacity="0"
         inkscape:pageshadow="2"
         inkscape:window-width="640"
         inkscape:window-height="480"
         id="namedview29"
         showgrid="false"
         inkscape:zoom="0.407740715"
         inkscape:cx="787.2650145"
         inkscape:cy="177.1159973"
         inkscape:current-layer="g3"
         inkscape:showpageshadow="false" /><g
         id="g3"
         transform="translate(0,65.76800537)"><defs
             id="defs5"><rect
                 id="SVGID_1_"
                 width="1574.527954"
                 height="354.2319946"
                 x="0"
                 y="0" /></defs><clipPath
             id="SVGID_2_"><use
                 xlink:href="#SVGID_1_"
                 overflow="visible"
                 id="use9"
                 style="overflow:visible"
                 x="0"
                 y="0"
                 width="100%"
                 height="100%" /></clipPath><path
             clip-path="url(#SVGID_2_)"
             d="m 368.66,169.93 c 0,101.768 -82.521,184.302 -184.329,184.302 C 82.535,354.232 0,271.698 0,169.93 c 0,-4.154 0.171,-8.249 0.431,-12.309 l 111.6,64.196 236.39,-135.977 c 12.936,25.212 20.239,53.787 20.239,84.09 M 112.031,175.43 8.129,115.676 C 6.091,122.3 4.427,129.065 3.142,136 L 112.031,198.626 338.273,68.504 C 334.538,62.878 330.523,57.44 326.216,52.236 L 112.031,175.43 Z M 312.18,37.147 C 307.054,32.214 301.646,27.573 295.996,23.263 L 112.031,129.065 24.214,78.548 C 20.9,84.354 17.887,90.359 15.198,96.566 L 112.031,152.232 312.18,37.147 Z M 112.031,105.882 277.386,10.795 C 270.472,6.749 263.293,3.138 255.844,0 L 112.031,82.702 47.995,45.87 c -4.569,5.01 -8.848,10.308 -12.849,15.788 l 76.885,44.224 z"
             id="path-logo"
             inkscape:connector-curvature="0"
             style="fill:#299d30"
             transform="translate(50,-30)" /><path
             clip-path="url(#SVGID_2_)"
             d="m 500.827,176.926 c 0,-52.159 30.278,-86.072 84.539,-86.072 24.324,0 38.826,4.679 49.117,9.59 l -7.25,19.178 c -13.098,-4.21 -22.687,-7.252 -41.397,-7.252 -33.215,-0.229 -59.28,18.011 -59.28,62.218 0,45.141 27.002,64.785 63.722,64.785 15.671,0 27.598,-2.339 38.591,-5.849 l 5.849,19.649 c -12.397,4.68 -25.495,8.186 -48.415,8.186 -56.367,0.001 -85.476,-33.678 -85.476,-84.433"
             id="path-s"
             inkscape:connector-curvature="0"
             style="fill:#299d30"
             transform="translate(-50,-30)" /><path
             clip-path="url(#SVGID_2_)"
             d="m 650.919,187.215 c 0,-26.192 4.91,-67.357 19.646,-81.158 12.864,-12.162 47.245,-20.348 87.242,-27.83 l 3.975,21.981 c -35.551,6.083 -67.127,11.697 -74.844,19.18 -6.783,6.548 -9.824,21.517 -11.228,32.745 10.759,-5.845 25.495,-11.459 43.503,-11.459 30.64,0 50.054,15.199 50.054,54.027 0,45.606 -26.429,65.954 -61.747,65.954 -35.084,0 -56.601,-21.981 -56.601,-73.44 m 93.789,8.42 c 0,-20.348 -8.653,-36.016 -31.808,-36.016 -14.736,0 -26.431,5.145 -37.892,10.994 -0.232,4.21 -0.467,10.289 -0.467,14.499 0,38.124 11.461,55.9 34.85,55.9 27.598,0 35.317,-23.391 35.317,-45.377"
             id="path-b1"
             inkscape:connector-curvature="0"
             style="fill:#299d30"
             transform="translate(-50,-30)" /><path
             clip-path="url(#SVGID_2_)"
             d="m 789.341,197.039 c 0,-50.52 25.728,-69.464 57.768,-69.464 35.786,0 50.756,22.689 50.756,64.32 l 0,8.655 -83.968,0 c 0.235,33.679 19.412,40.462 41.867,40.462 12.162,0 22.456,-1.873 35.083,-5.614 l 4.21,18.944 c -11.223,4.211 -26.432,7.018 -43.038,7.018 -38.123,0 -62.678,-14.969 -62.678,-64.321 m 83.265,-13.565 c 0,-22.686 -8.187,-37.42 -26.896,-37.42 -16.842,0 -29.473,12.397 -31.111,37.42 l 58.007,0 z"
             id="path-e"
             inkscape:connector-curvature="0"
             style="fill:#299d30"
             transform="translate(-50,-30)" /><path
             clip-path="url(#SVGID_2_)"
             d="m 922.488,130.85 24.324,0 0,10.055 c 10.992,-7.717 21.047,-13.096 36.72,-13.096 30.173,0 50.755,21.052 50.755,63.616 0,52.159 -30.876,69.7 -65.254,69.7 -7.952,0 -16.607,-1.17 -22.221,-1.873 l 0,50.753 -24.324,0 0,-179.155 z m 87.006,61.744 c 0,-23.155 -8.187,-43.968 -32.744,-43.968 -13.331,0 -23.39,6.079 -29.938,9.589 l 0,80.924 c 3.041,0.469 13.096,2.342 21.751,2.342 29.234,0 40.931,-20.353 40.931,-48.887"
             id="path-r"
             inkscape:connector-curvature="0"
             style="fill:#299d30"
             transform="translate(-50,-30)" /><path
             clip-path="url(#SVGID_2_)"
             d="m 1055.4,187.215 c 0,-26.192 4.91,-67.357 19.645,-81.158 12.866,-12.162 47.249,-20.348 87.241,-27.83 l 3.979,21.981 c -35.551,6.083 -67.132,11.697 -74.849,19.18 -6.778,6.548 -9.819,21.517 -11.228,32.745 10.758,-5.845 25.497,-11.459 43.503,-11.459 30.643,0 50.056,15.199 50.056,54.027 0,45.606 -26.426,65.954 -61.748,65.954 -35.081,0 -56.599,-21.981 -56.599,-73.44 m 93.789,8.42 c 0,-20.348 -8.655,-36.016 -31.806,-36.016 -14.739,0 -26.437,5.145 -37.894,10.994 -0.23,4.21 -0.465,10.289 -0.465,14.499 0,38.124 11.458,55.9 34.848,55.9 27.601,0 35.317,-23.391 35.317,-45.377"
             id="path-b2"
             inkscape:connector-curvature="0"
             style="fill:#299d30"
             transform="translate(-50,-30)" /><path
             clip-path="url(#SVGID_2_)"
             d="m 1189.481,224.17 c 0,-32.276 28.535,-38.825 50.757,-39.059 l 27.83,-0.47 0,-13.8 c 0,-17.541 -8.887,-22.216 -27.596,-22.216 -13.565,0 -24.794,2.337 -35.787,6.079 l -5.144,-18.476 c 11.927,-4.915 26.191,-8.655 44.901,-8.655 30.642,0 47.483,10.758 47.483,36.72 l 0,66.658 c 0,7.952 6.778,9.59 13.331,9.824 l -1.939,18.71 c -1.633,0.233 -3.205,0.47 -4.844,0.47 -13.101,0 -25.962,-3.976 -28.3,-15.439 -7.951,6.084 -21.052,16.139 -41.399,16.139 -23.62,0.001 -39.293,-12.861 -39.293,-36.485 m 78.587,5.614 0,-29.469 -27.132,1.17 c -17.541,0.469 -27.595,7.95 -27.595,21.047 0,12.866 9.35,18.715 21.751,18.715 11.459,0 23.855,-5.615 32.976,-11.463"
             id="path-a"
             inkscape:connector-curvature="0"
             style="fill:#299d30"
             transform="translate(-50,-30)" /><polygon
             clip-path="url(#SVGID_2_)"
             points="1326.141,130.85 1350.695,130.85 1350.695,184.876 1410.805,184.876 1410.805,130.85 1435.363,130.85 1435.363,258.553 1410.805,258.553 1410.805,204.291 1350.695,204.291 1350.695,258.553 1326.141,258.553 "
             id="polygon-n"
             style="fill:#299d30"
             transform="translate(-50,-30)" /><path
             clip-path="url(#SVGID_2_)"
             d="m 1465.469,130.85 24.56,0 0,127.703 -24.56,0 0,-127.703 z m 61.815,105.717 -36.316,-43.504 50.816,-62.213 27.6,0 -51.991,60.341 25.325,28.068 c 11.228,12.862 21.521,20.349 31.811,23.156 l -4.211,18.24 c -11.927,-0.698 -26.197,-3.506 -43.034,-24.088"
             id="path-k"
             inkscape:connector-curvature="0"
             style="fill:#299d30"
             transform="translate(-50,-30)" /></g></svg>