<svg id="city_sur" data-name="sur" xmlns="http://www.w3.org/2000/svg" width="52.5mm" height="52.5mm" viewBox="0 0 148.82 148.82">
  <title>sur</title>
  <path id="sur" d="M57.94,107.12a1.51,1.51,0,0,1,1.08-1.9c1.39-1.73-4.93-11.59-4.48-11.59-1.47-1.25-3.29-4.93-4.22-5.92-2-2.15-5.1-4.9-4.51-5.07,0.17-.51-14.88,1.13-17.4,2.52-3.4,3.17-8.76,9.1-10.71,5.07,3.54,0,6-9.27,12.39-9.27,0.77-.94,10.37-3.15,10.37-3.66-3,0-7.46-17.43-7.31-17.43-0.6-2.64-4.68-7.31-6.18-7.11-2.27.31-9.33-3.88-8.7-5.27,2.52-.54,5.73.4,7.88-0.57,3-1.33,5.75-3,9.81-2.52,4.28-7.71,1.22,0,10.77,9.44C56.95,64.06,82,60.49,81.81,60.41c6.89,0,21.46,2.52,20,2.52,0-.37,6.07,1.36,7.82,3.43,5.67,6.69,10.74,15.08,21.49,23.24-12.33,7.77-20.81-.43-33.51-20.78,0.91,0,3.29,10.32.65,10.32-2.13,2.61,2.58,7.48,7.48,9.1,0,0.06,4.22,6.24,4.22,10.66a20.51,20.51,0,0,0,1.42,3.4c1.16,0.14.37,4.82-.34,5-2.13.57-4.88-.23-1.87-2.18,0.51-1.36-4.88-10.94-5.92-10.94-1.16-2-13.27-5.56-13.18-4.71,0.54,5.3-.23,6-0.23,6.35,0,0.6-3.6,2.52-4,3-0.65-.28-5.7,4.17-6.24,4.45-1.08,1.67-4.22,2.95-4.14,3.91-0.11.45-5.75-.43-2.61-2.15a29.12,29.12,0,0,0,9.55-8.7c2.3-3.2,2-8.48-3.15-10.18-0.85-.85-2.49-2.86-2.49-4.45-1-1,.4-4.54-1.28-4.54C76,76.37,55.16,82.74,53.6,81c-0.34,5.81,10.15,16.24,8,25.88,0,0.6-3.06.17-3.71,0.17Z" style="fill: #fc0"/>
</svg>
