<svg id="city_bry" data-name="bry" xmlns="http://www.w3.org/2000/svg" width="52.5mm" height="52.5mm" viewBox="0 0 148.82 148.82">
  <title>bry</title>
  <g id="bry">
    <path d="M94.9,88.19l5.61-9.75L94.9,88.19a18.48,18.48,0,0,0,5.16,2.3v9.24h-7v0.79H90.28V99.72H86.37v0.71H83.57V99.72H63.41v0.71H60.6V99.72H56.24v0.71H53.43V99.72H49.32V80.19h4.11V79.48h2.81v0.71H60.6V79.48h2.81v0.71h3.66V79.74l-2.58-1.5-1.67.45-2.66-1.53L59.87,75.6l-8.5-8.05L49,66.47l-2.78,1.84-3.63-2.1-0.26-2-1-5,5-8.73L51,49.12l1.84-.77,3.63,2.1L56.3,53.8l2.13,1.56,11.23,3.34,1.5-.54,2.66,1.53,0.45,1.67,10.2,5.9,0.91-1.76L89,67.61l-1,1.7,4.37,2.52,0.79-1.39,3.32,1.93,4,6.09L94.9,88.21v0Z" style="fill: #fc0"/>
    <g>
      <path d="M31.52,71.57A4.39,4.39,0,1,1,27.13,76,4.42,4.42,0,0,1,31.52,71.57Z"/>
      <path d="M31.52,89.23a4.39,4.39,0,1,1-4.39,4.39A4.42,4.42,0,0,1,31.52,89.23Z"/>
      <path d="M36.45,80.19a4.39,4.39,0,1,1-4.39,4.39A4.42,4.42,0,0,1,36.45,80.19Z"/>
      <path d="M41.33,89.23a4.39,4.39,0,1,1-4.39,4.39A4.42,4.42,0,0,1,41.33,89.23Z"/>
      <path d="M22.11,89.23a4.39,4.39,0,1,1-4.39,4.39A4.42,4.42,0,0,1,22.11,89.23Z"/>
      <path d="M26.67,80.19a4.39,4.39,0,1,1-4.39,4.39A4.42,4.42,0,0,1,26.67,80.19Z"/>
    </g>
    <g>
      <path d="M116.9,71.57a3.29,3.29,0,1,1-3.29,3.29A3.29,3.29,0,0,1,116.9,71.57Z" style="fill: #999"/>
      <path d="M116.9,84.76A3.29,3.29,0,1,1,113.61,88,3.29,3.29,0,0,1,116.9,84.76Z" style="fill: #999"/>
      <path d="M113.16,91.47a3.29,3.29,0,1,1-3.29,3.29A3.29,3.29,0,0,1,113.16,91.47Z" style="fill: #999"/>
      <path d="M120.27,78A3.29,3.29,0,1,1,117,81.24,3.29,3.29,0,0,1,120.27,78Z" style="fill: #999"/>
      <path d="M124,84.76A3.29,3.29,0,1,1,120.73,88,3.29,3.29,0,0,1,124,84.76Z" style="fill: #999"/>
      <path d="M120.27,91.47A3.29,3.29,0,1,1,117,94.76,3.29,3.29,0,0,1,120.27,91.47Z" style="fill: #999"/>
      <path d="M127.81,91.47a3.29,3.29,0,1,1-3.29,3.29A3.29,3.29,0,0,1,127.81,91.47Z" style="fill: #999"/>
      <path d="M109.36,84.76A3.29,3.29,0,1,1,106.07,88,3.29,3.29,0,0,1,109.36,84.76Z" style="fill: #999"/>
      <path d="M106,91.47a3.29,3.29,0,1,1-3.29,3.29A3.29,3.29,0,0,1,106,91.47Z" style="fill: #999"/>
      <path d="M113.16,78a3.29,3.29,0,1,1-3.29,3.29A3.29,3.29,0,0,1,113.16,78Z" style="fill: #999"/>
    </g>
  </g>
</svg>
