<svg id="city_nsk" data-name="nsk" xmlns="http://www.w3.org/2000/svg" width="52.5mm" height="52.5mm" viewBox="0 0 148.82 148.82">
  <title>nsk</title>
  <g id="nsk">
    <path d="M67,60.38A20.3,20.3,0,0,0,56,72.11h8.73a17.47,17.47,0,0,1,2.75-3,10.9,10.9,0,0,1,6.86-2.64,11.81,11.81,0,0,1,7.09,2.41,17,17,0,0,1,3.37,3.2h9.33a21.74,21.74,0,0,0-12.3-12A20,20,0,0,0,67,60.38h0Z" style="fill: #fc0"/>
    <path d="M25.68,120.16l0.14,0.74L26,121.61l0.2,0.68,0.23,0.65,0.26,0.62,0.28,0.6,0.31,0.57,0.34,0.57L28,125.83l0.4,0.51,0.43,0.48,0.45,0.45,0.48,0.43,0.51,0.4,0.54,0.37,0.57,0.37,0.6,0.34,0.62,0.31,0.65,0.28L33.9,130l0.71,0.23,0.74,0.2,0.77,0.2,0.79,0.17L37.73,131l0.77,0.11A13.3,13.3,0,0,1,45,123.31c7.54-2.44,10.6-6.75,12.44-11.57,1.59-8.22,6.58-13.35,13.86-16.36,6.94-3.06,9.95-8.39,11.2-14.77a16.44,16.44,0,0,1,3.4-8.14c-2.35,0-2.55-1.81-4.56-3.29a11.31,11.31,0,0,0-6.86-2.32,10.57,10.57,0,0,0-6.6,2.55,15.56,15.56,0,0,0-2.75,3c-0.54,3-5.92,6.94-10.35,9.52-1.13.91-2.3,1.7-3.43,2.49C48,86.71,45,88.78,44.16,92.89V93c-0.23.65-.43,1.28-0.62,1.87-1.3,4.11-2.32,7.29-8.82,12.16l0,0h0c-0.51.34-1.22,0.79-2,1.28-2.07,1.33-4.68,3-7.14,4.85v3.74l0,0.85,0.06,0.82,0.09,0.79,0.11,0.77Z" style="fill: #999"/>
    <path d="M123.42,37.08a27.81,27.81,0,0,1-9.67,7.26c-5,1.73-8.79,6.77-11.25,15.19-1.42,4.76-4.82,7.74-9.35,9.72A21.58,21.58,0,0,0,82,59.7a20.87,20.87,0,0,0-7.63-1.3H74.32a37.81,37.81,0,0,0,5.9-4.17,21.08,21.08,0,0,0,6.12-8.56v0a32.09,32.09,0,0,1,3.54-7.8,16.29,16.29,0,0,1,6.55-5.7l0.06,0,0.06,0a52.89,52.89,0,0,0,9.75-7.91,22.89,22.89,0,0,0,4.42-6.46c8.53,0.26,12,8.31,12.73,18.62v0.74h0Z" style="fill: #999"/>
  </g>
</svg>
