<svg id="city_omsk" data-name="omsk" xmlns="http://www.w3.org/2000/svg" width="52.5mm" height="52.5mm" viewBox="0 0 148.82 148.82">
  <title>omsk</title>
  <polygon id="omsk" points="17.72 61.82 21.49 68.12 25.29 61.82 35.35 61.82 39.15 68.12 42.92 61.82 52.98 61.82 56.78 68.12 60.55 61.82 70.64 61.82 74.41 68.12 78.18 61.82 88.27 61.82 92.04 68.12 95.84 61.82 105.9 61.82 109.67 68.12 113.47 61.82 123.53 61.82 127.33 68.12 131.1 61.82 131.1 80.7 127.33 87 123.53 80.7 113.47 80.7 109.67 87 105.9 80.7 95.84 80.7 92.04 87 88.27 80.7 78.18 80.7 74.41 87 70.64 80.7 60.55 80.7 56.78 87 52.98 80.7 42.92 80.7 39.15 87 35.35 80.7 25.29 80.7 21.49 87 17.72 80.7 17.72 61.82" style="fill: #fc0"/>
</svg>
