<svg id="city_ivan" data-name="ivan" xmlns="http://www.w3.org/2000/svg" width="52.5mm" height="52.5mm" viewBox="0 0 148.82 148.82">
  <title>ivan</title>
  <g id="ivan">
    <path d="M106.36,80.79l-0.26-.2-0.54-.37L105,79.85l-0.57-.34-0.6-.31-0.6-.28-0.62-.26L102,78.43l-0.65-.2-0.65-.14L100,78l-0.62-.09v1.22l-0.14,0-0.06,0-0.06,0-0.06,0-0.06,0-0.06,0,0,0.06,0,0.06,0,0.06,0,0.06,0,0.06,0,0.06v0.28l0,0L98.87,80l0.06,0.06L99,80.11,99,80.16l0.06,0.06,0.06,0.06,0.06,0.06,0.06,0.06,0,0.06,0,0.06,0,0.06,0,0.06,0,0.09,0,0.09V81.3l0,0.09,0,0.09,0,0.09,0,0.09,0,0.09-0.06.09-0.06.09L99.13,82l-0.06.09L99,82.15l-0.06.06,0,0.26v0.09l0,0.28v0.09l0,0.28v0.43l0,0.28v0.43l0,0.28V85l0.51,0.51v1.33a5.22,5.22,0,0,1,1.08.48l0.06-.06,0.06-.09,0.06-.09L100.6,87l0.06-.09,0.06-.09,0.06-.09,0.06-.09,0.06-.09,0.06-.09,0.06-.09,0.14-.14,0.09-.11h0.57l0.14-.17,0.06-.09,0.17-.23,0.06-.09,0.17-.23,0.06-.09,0.06-.09,0.06-.09,0.06-.09,0.06-.09,0.17-.23,0.06-.09,0.17-.23,0.06-.09,0.17-.23,0.06-.09,0.06-.09,0.06-.09,0.06-.09,0-.06V83.2l0-.11,0-.11,0-.11,0-.09,0.06-.09,0.06-.09,0.06-.09,0.06-.06,0.06-.06,0.06-.06,0.06-.06,0.09-.06,0.09,0,0.09,0,0.09,0,0.09,0,0.09,0,0.09,0h0.65l0.06-.06,0.06-.06,0.06-.06,0.06-.06,0-.06,0-.06,0-.06V81.44l0-.06,0-.06,0-.06-0.06-.09L105.36,81l0.11-.11,0.68-.71Zm2.41,19.08,0.09-.11,0.37-.54,0.37-.57,0.34-.57,0.31-.6,0.28-.6,0.26-.62,0.23-.62,0.17-.65,0.14-.65,0.11-.68,0.06-.48h-0.17l-0.26,0H111l-0.26,0h-0.4l0-.14,0-.06,0-.06,0-.06,0-.06,0-.06,0,0-0.06,0-0.06,0-0.06,0-0.06,0-0.06,0-0.06,0h-0.23l0,0-0.06.06-0.06.06-0.06.06-0.06.06-0.06.06-0.06.06-0.06.06-0.06,0L109,93,109,93l-0.06,0-0.09,0-0.09,0-0.09,0h-0.43l-0.09,0-0.09,0L108,93l-0.09,0-0.09,0-0.09-.06-0.09-.06-0.09-.06-0.09-.06-0.09-.06-0.09-.09-0.06-.06-0.26,0h-0.09l-0.28,0h-0.09l-0.28,0h-0.43l-0.28,0h-0.43l-0.28,0h-0.4l-0.51.48h-1.3a4.55,4.55,0,0,1-.45,1.08l0,0,0.09,0.06,0.09,0.06,0.09,0.06,0.09,0.06,0.09,0.06,0.09,0.06,0.09,0.06,0.09,0.06L103,94.51,103,94.56l0.09,0.06,0.14,0.14,0.11,0.09v0.57h0l0.17,0.14,0.09,0.06,0.23,0.17,0.09,0.06L104.17,96l0.09,0.06,0.09,0.06,0.09,0.06,0.09,0.06,0.09,0.06,0.23,0.17,0.09,0.06,0.23,0.17,0.09,0.06,0.23,0.17L105.53,97,105.62,97l0.09,0.06,0.09,0.06,0.06,0h0.54l0.11,0,0.11,0,0.11,0,0.09,0,0.09,0.06L107,97.4l0.09,0.06,0.06,0.06,0.06,0.06,0.06,0.06,0.06,0.06,0.06,0.06,0,0.09,0,0.09,0,0.09,0,0.09,0,0.09,0,0.09,0,0.09V98.9L107.6,99,107.66,99l0.06,0.06,0.06,0.06,0.06,0,0.06,0,0.06,0h0.23l0.06,0,0.06,0,0.06,0,0.09-.06,0.14-.11,0.11,0.11,0.68,0.65ZM110.89,90l0-.11,0-.11,0-.11,0-.11,0-.11-0.09-.34,0-.11,0-.11,0-.11,0-.11,0-.11-0.09-.34,0-.11,0-.11,0-.11,0-.11,0-.11-0.09-.34,0-.11,0-.11,0-.11,0-.11,0-.11L110,86.4l0-.09,0-.09,0-.09,0-.09,0-.09,0-.09,0-.09,0-.09,0-.09,0-.09V84.47l-0.2-.37-0.37-.57L108.77,83l-0.28-.37-0.09.06-0.06.06-0.17.17-0.06.06-0.17.17-0.06.06-0.11.11-0.11.09-0.11-.06-0.06,0-0.06,0-0.06,0h-0.28l-0.06,0-0.06,0-0.06,0-0.06,0-0.06.06-0.06.06,0,0v0.65l0,0.09,0,0.09,0,0.09,0,0.06,0,0.06,0,0.06,0,0.06-0.06.06-0.06.06-0.06.06-0.06.06-0.06.06-0.06.06L106.1,85l-0.09,0-0.09,0-0.09,0-0.09,0-0.09,0-0.11,0-0.11,0-0.11,0h-0.2l-0.2.17-0.06.06-0.2.2-0.06.06-0.2.2-0.06.06-0.06.06-0.06.06-0.06.06-0.06.06-0.2.2-0.06.06-0.06.06-0.06.06-0.06.06-0.06.06-0.2.2-0.06.06-0.06.06-0.06.06-0.06.06-0.06,0v0.71L103.1,88,103,88l-0.06.06-0.06.06-0.06.06-0.06.06-0.06.06-0.06.06-0.06.06-0.06.06-0.06.06-0.06.06-0.06.06-0.06.06-0.06.06,0,0a3.88,3.88,0,0,1,.43,1.08h1.62l0.06,0.06,0,0,0,0,0,0,0,0,0,0,0,0,0,0,0.06,0.06,0,0,0,0,0,0,0.06,0.06h0l0.23,0h0.09l0.28,0h0.09l0.28,0h0.43l0.28,0h0.09l0.28,0h0.09l0.28,0h0.4l0.09-.09,0.11-.11,0.11-.09,0.11-.09,0.11-.06,0.09-.06,0.09-.06,0.09,0,0.09,0,0.09,0h0.34l0.09,0,0.09,0,0.09,0,0.09,0,0.09,0,0.06,0,0.06,0,0.06,0.06,0.06,0.06,0.06,0.06,0.06,0.06L109.7,90l0.06,0.06,0.06,0.06,0.06,0.06,0.06,0,0,0,0,0h0.34l0.06,0,0.06,0,0.06,0,0.06,0,0.06,0,0-.06,0-.06,0-.06,0-.06,0-.09,0-.09,0-.17h0.48Zm-12,9.1L99,99l0.28-.28,0.26-.28,0.23-.28,0.23-.31,0.2-.31,0.17-.31,0.14-.34,0.11-.34,0.11-.34v0l0.06,0.06,0.06,0.06,0.06,0.06L101,96.38l0.06,0.06,0.06,0.06,0.09,0.09h0.71l0,0.06L102,96.69,102,96.75l0.06,0.06,0.06,0.06,0.2,0.2,0.06,0.06,0.06,0.06,0.06,0.06,0.06,0.06,0.06,0.06,0.2,0.2,0.06,0.06L103,97.65,103,97.71l0.06,0.06,0.06,0.06,0.2,0.2,0.06,0.06,0.2,0.2,0.06,0.06,0.17,0.2v0.2l0,0.11,0,0.11,0,0.09,0,0.09,0,0.09,0,0.09,0,0.09,0,0.09,0.06,0.06,0.06,0.06,0.06,0.06,0.06,0.06,0.06,0.06,0.06,0.06,0.06,0.06,0.06,0,0.06,0,0.06,0,0.09,0,0.09,0,0.09,0,0.09,0h0.65l0,0,0.06,0.06,0.06,0.06,0,0.06,0,0.06,0,0.06,0,0.06,0,0.06v0.23l0,0.06,0,0.06,0,0.06-0.06.11,0.09,0.11,0.11,0.11,0.06,0.06,0.17,0.17,0.06,0.06,0.17,0.17,0.06,0.06,0.06,0.06-0.51.4-0.54.37-0.57.37-0.57.34-0.6.31-0.6.28-0.62.26-0.62.23-0.65.2-0.65.14-0.68.11-0.26,0,0-1v-0.14l-0.17,0-0.09,0-0.09,0-0.06,0-0.06,0-0.06,0-0.06,0,0-.06,0-.06,0-.06,0-.06,0-.06v-0.34l0,0,0,0,0-.06,0-.06,0.06-.06,0.06-.06,0.06-.06,0.06-.06,0.06-.06,0.06-.06,0-.06,0-.06,0-.06,0-.09,0-.09,0-.09,0-.09,0-.09V101.4l0-.09,0-.09,0-.09-0.06-.09L99.38,101l-0.06-.09-0.09-.11-0.09-.11L99,100.54,99,100.46v-0.4l0-.28V99.69l0-.28V99.33l0-.28V98.87h0v0.26Zm-8.31,4,0-.09,0-.09,0-.09,0-.09,0-.09,0-.06,0.06-.06,0.06-.06,0.06-.06,0.06-.06,0.06-.06,0.06-.06,0.06-.06,0.06-.06,0.09,0,0.09,0,0.09,0,0.09,0,0.09,0,0.09,0,0.09,0,0.09,0,0.11,0,0.17-.2,0.14-.17,0.14-.17,0.14-.17,0.28-.34,0.14-.17,0.14-.17,0.14-.17,0.14-.17,0.14-.17,0.14-.17,0.14-.17L94,99.52l0.14-.17,0.14-.17L94.42,99l0.14-.17,0.14-.17,0.14-.2,0.11-.2,0.11-.2,0.11-.2,0.11-.2,0.11-.2,0.11-.2,0.11-.2,0.11-.2,0.11-.2,0.11-.2,0.09-.2,0.09-.2L96.21,96l0-.06a1.88,1.88,0,0,0,.57.17h0v1.22l0.45,0.45-0.17.09L96.86,98l-0.23.11-0.23.11-0.26.09-0.31.11,0.26,0.74,0.23,0.68,0.23,0.68,0.23,0.68,0,0.09h0l-0.06.09,0,0.09,0,0.09,0,0.09,0,0.09,0,0.09v0.43l0,0.09,0,0.09,0,0.06,0,0.06,0,0.06,0,0.06,0.06,0.06,0.06,0.06,0.06,0.06L97,102.81l0.06,0.06,0.06,0.06L97.17,103,97.23,103l0,0v0.28l0,0.06,0,0.06,0,0.06,0,0.06,0,0.06,0,0.06-0.06,0-0.06,0-0.06,0-0.06,0-0.06,0-0.14,0v1.28H96.6l-0.68-.09-0.68-.11-0.65-.14-0.65-.2-0.62-.23-0.62-.26-0.6-.28-0.6-.31-0.57-.34L90.68,103Zm1.11,12.13,2.07,0.91,1.7-4.05-4.68-2v-1.84L91,108.37l0.82,0.31L92.69,109l0.85,0.26,0.88,0.2,0.88,0.17,0.91,0.11,0.91,0.06,0.94,0,0.94,0,0.62-.06,0.14,0.43,0.23,0.68,0.23,0.68,0.23,0.68,0.23,0.68,0.65,2,0.23,0.68,0.23,0.68L102,116.9l0.23,0.68,0.23,0.68,0.62,2-4.22,1.39-0.62.2-1.84.6-0.62.2-0.77.26-0.17-.2-0.14-.2-0.14-.2-0.14-.2-0.14-.2-0.14-.2-0.11-.2-0.11-.2L93.77,121l-0.11-.23-0.11-.23-0.11-.23-0.11-.23-0.11-.23-0.09-.23L93,119.45l-0.09-.26-0.09-.26-0.09-.26-0.09-.26-0.09-.26-0.09-.26-0.09-.26-0.09-.26-0.09-.26-0.06-.26-0.06-.26-0.06-.26L92,116.11,92,115.82l-0.06-.28-0.06-.23Zm12.76-52,0.06,0.23,0.09,0.28,0.09,0.28,0.09,0.28,0.09,0.28,0.09,0.28L105,65.2l0.09,0.28,0.09,0.28L105.25,66l0.09,0.28,0.09,0.28,0.09,0.28,0.09,0.28,0.09,0.28,0.09,0.28L105.85,68l0.09,0.28L106,68.6l0.11,0.28,0.11,0.28,0.11,0.28,0.11,0.28L106.61,70l0.11,0.28,0.11,0.28L107,70.87l0.11,0.28,0.11,0.28,0.11,0.28L107.4,72l0.11,0.28,0,0.09,0,0.09,0,0.09,0,0.09V73l0,0.09,0,0.09,0,0.09,0,0.09,0,0.09-0.06.09-0.06.09-0.06.09-0.06.09-0.09.09-0.09.09L107,74l-0.09.09-0.09.09-0.11.09-0.11.09-0.11.11-0.11.11-0.11.11-0.14.11-0.14.11-0.14.11-0.14.11-0.11.09,0.09,0,0.79,0.4,0.77,0.43L108,76.54,108.68,77l0.68,0.54L109.84,78h0l0-.34,0-.34V73.22l0-.37,0-.37,0-.37,0-.37,0-.37,0-.37,0-.37,0-.37,0-.37-0.06-.37-0.06-.37-0.06-.37-0.06-.37-0.06-.37-0.06-.37-0.06-.34L109,67.27l-0.2-.11-0.2-.14-0.2-.14-0.2-.14L108,66.59l-0.17-.17-0.17-.17-0.17-.17-0.17-.17-0.17-.17L107,65.57l-0.17-.17-0.17-.17-0.17-.17-0.17-.17-0.17-.17L106,64.54l-0.17-.17-0.14-.14-0.14-.14-0.14-.14-0.14-.14-0.14-.11-0.14-.11-0.14-.09-0.14-.09-0.14-.09h0ZM96.21,78l-0.4.06-0.43.09v6.55l0,0.28,0,0.28,0,0.28,0,0.28,0,0.28,0,0.28,0,0.28,0,0.28,0,0.26a4.7,4.7,0,0,1,1-.4V85.27l0.06-.06,0,0,0,0,0,0,0,0,0,0,0,0,0,0L97,85l0,0,0,0,0,0,0.06-.06h0l0-.23V84.5l0-.28V84.13l0-.28V83.42l0-.28V83.06l0-.28V82.69l0-.28V82l-0.09-.09-0.11-.11-0.09-.11-0.09-.11-0.06-.09-0.06-.09-0.06-.09,0-.09,0-.09,0-.09,0-.09V80.65l0-.09,0-.09,0-.09,0-.09,0-.06,0-.06,0-.06,0.06-.06L96.63,80,96.69,80l0.06-.06,0.06-.06,0.06-.06,0-.06,0-.06,0,0,0,0V79.29l0-.06,0-.06,0-.06,0-.06,0-.06-0.06,0-0.06,0-0.06,0-0.06,0-0.09,0-0.09,0-0.17,0V78.66l0-1ZM56,73.81l0,0L56.1,74l0.11,0.2,0.11,0.2,0.11,0.2,0.11,0.2,0.09,0.23,0.09,0.23,0.09,0.23,0.09,0.23L57,76l0.09,0.23,0.09,0.23,0.09,0.23,0.09,0.26,0.06,0.26,0.06,0.26,0.06,0.26,0.06,0.26,0.06,0.26,0.06,0.26,0.06,0.28L57.77,79l0,0.28,0,0.28,0,0.28,0,0.28,0,0.31,0,0.31,0,0.31,0,0.34-0.17.06-0.34.11-0.34.11-0.34.11-0.34.11L56.13,82l-0.34.11-0.34.11-0.34.11-0.34.11-0.34.11-0.34.11-0.34.11h0l0-.2,0.06-.45,0.06-.45L54,81.24l0.09-.48,0.09-.48,0.11-.48,0.11-.51,0.11-.51,0.14-.51,0.14-.51,0.14-.54,0.17-.54,0.17-.54,0.17-.54L55.59,75l0.2-.57L56,73.9l0-.11ZM47.59,89.43H43l0.2,3.46h3.49l-0.11.34-0.17.54-0.17.54-0.17.54-0.2.54-0.2.54-0.2.54L45.3,97l-0.23.57-0.23.57-0.23.57-0.23.57-0.23.57-0.26.57-0.26.57-0.26.57-0.26.57-0.26.57-0.26.57-0.28.57-0.28.57-0.2.4-0.2.4-0.2.4-0.2.4-0.17.4-0.17.4-0.17.4-0.17.4-0.17.4-0.17.4-0.17.4-0.17.4-0.17.4-0.17.43-0.17.43-0.17.43-0.17.43-0.17.43-0.17.43-0.17.43-0.17.43-0.17.43-0.17.43-0.17.43-0.17.43-0.17.43-0.17.43-0.17.43-0.17.43-0.17.4-0.17.4-0.2.51h0.06l0,0.11,0,0.11-0.06.11-0.06.11-0.06.11-0.09.11-0.09.11-0.09.11-0.11.11-0.11.11-0.11.11L35.6,119l-0.14.11-0.14.11-0.14.11-0.14.11-0.17.11-0.17.11-0.17.11-0.17.11-0.17.11-0.2.11-0.2.11-0.2.11-0.2.11-0.2.11-0.2.11-0.2.11-0.23.11-0.23.11-0.23.11-0.23.11-0.14.09-0.14.09-0.11.09-0.11.09-0.09.09-0.06.09-0.06.09,0,0.09v0.09l0,0.09,0.06,0.06,0.06,0.06,0.09,0.06,0.09,0,0.11,0,0.11,0,0.31,0,0.31,0,0.31,0,0.31,0,0.31,0,0.31,0,0.31,0,0.31,0,0.31,0h1.87l0.31,0,0.31,0,0.31,0,0.31,0,0.31-.06,0.31-.06,0.31-.06,0.31-.06,0.31-.09,0.31-.09,0.31-.09,0.31-.11,0.31-.11,0.31-.11,0.31-.14,0.31-.14,0.34-.17L42,121.41l0.34,0.17,0.34,0.17L43,121.92l0.34,0.17,0.34,0.17,0.34,0.17,0.34,0.17,0.34,0.17,0.34,0.17,0.34,0.17,0.34,0.17,0.34,0.17,0.34,0.17,0.34,0.17L47.11,124l0.34,0.17,0.37,0.17,0.37,0.17,0.37,0.17,0.37,0.17L49.29,125l0.37,0.17L50,125.32l0.37,0.14,0.37,0.14,0.4,0.14,0.4,0.14L52,126l0.4,0.14,0.4,0.14,0.4,0.11,0.06,0,0.06,0,0.06,0,0.06,0,0.06,0,0.06,0,0.06,0,0.06,0,0.06,0,0.06,0,0.06,0,0.06,0,0.06,0,0.06,0,0.06,0,0.06,0,0.06,0,0.06,0,0.06,0,0.06,0,0.06,0,0.06,0,0.06,0H55l0,0.11,0,0.11,0,0.11,0,0.11,0,0.11,0,0.11,0,0.11,0,0.11,0,0.11-0.09.26,0,0.11,0,0.11,0,0.11,0,0.11,0,0.11,0,0.11,0,0.11,0,0.11,0,0.11,0,0.11,0,0.11,0,0.11-0.06.17,0.09,0.06,0.06,0,0.06,0,0.06,0,0.06,0,0.06,0,0.06,0h0.45l0.09,0,0.06-.17,0.09-.26,0.06-.11,0.14-.37,0.06-.11,0.14-.37,0.06-.11,0.06-.11,0.06-.11,0.06-.11,0.06-.11,0.14-.37,0.06-.11,0.14-.37,0.06-.11v0l0.09,0,0.06,0,0.06,0,0.06,0,0.06,0,0.06,0,0.06,0,0.06,0,0.06,0,0.06,0,0.06,0,0.06,0,0.06,0,0.06,0,0.06,0,0.06,0,0.06,0,0.06,0,0.06,0,0.06,0,0.06,0,0.06,0,0.06,0,0.06,0,0.06,0,0.06,0,0.06,0,0.06,0,0.06,0,0.06,0,0.06,0,0.06,0,0.28,0.11,0.28,0.11,0.28,0.09,0.28,0.09,0.31,0.09L60,128.58l0.31,0.06,0.31,0.06,0.31,0,0.31,0,0.31,0,0.34,0h1.7l0.34,0,0.34,0,0.34,0,0.34,0,0.34,0,0.34,0,0.34-.06,0.34-.06,0.31-.06,0.31-.06,0.31-.06,0.31-.06,0.31-.06,0.31-.06,0.31-.06,0.17,0,0.17,0L69,128l0.17,0h1l0.17,0,0.17,0,0.17,0,0.17,0,0.14,0,0.14,0,0.14,0,0.14,0,0.14,0,0.14,0,0.14,0,0.14,0,0.14,0,0.14,0,0.14,0,0.14,0,0.14,0,0.14,0,0.14,0,0.14,0,0.14,0,0.14,0,0.14,0,0.14,0,0.14,0,0.14,0,0.17,0,0.17,0h2l0.17,0,0.17,0,0.17,0,0.17,0,0.17,0,0.17,0,0.17,0,0.17,0,0.17,0,0.17,0,0.17,0,0.17,0,0.17,0,0.17,0,0.14,0,0.14,0,0.14,0,0.14,0,0.14,0,0.14,0,0.14,0,0.14,0,0.14,0,0.14,0,0.14,0,0.14,0,0.14,0,0.14,0,0.14,0L81,128l0.14,0,0.14,0,0.14,0,0.14,0,0.14,0,0.14,0,0.14,0,0.14,0,0.14,0,0.14,0,0.14,0,0.14,0,0.14,0,0.14,0,0.14,0,0.2-.06,0,0,0.09,0h0.23l0.14,0,0.14-.06,2-.57,0.68-.2,2-.57,0.43-.11,0,0.09,0,0.17,0.2,0.06,0.11,0,0.11,0.06,0.11,0.06,0.11,0.06,0.11,0.09L90,126.68l0.11,0.11,0.11,0.11L90.34,127l0.11,0.11,0.11,0.14,0.11,0.14,0.11,0.14,0.11,0.17L91,127.9l0.11,0.17,0.11,0.17,0.11,0.17,0.11,0.2,0.11,0.2L91.7,129l0.11,0.2,0.11,0.2L92,129.6l0.11,0.2,0.11,0.2,0.11,0.2,0.11,0.2,0.11,0.2,0.11,0.2L92.83,131l0.06,0.09,0.06,0.06L93,131.22l0.06,0,0.09,0h0.14l0.06,0,0.06,0,0.06,0,0.06-.06,0-.06,0-.06,0-.06,0-.09v-0.09l-0.11-.26-0.11-.26L93.29,130l-0.11-.26-0.09-.23L93,129.32l-0.09-.23-0.09-.23-0.09-.23-0.09-.23-0.09-.2-0.09-.2-0.06-.2-0.06-.2-0.06-.2-0.06-.2L92.21,127l0-.17,0-.17,0-.17,0-.17,0-.14v-0.54l0-.11,0-.11,0-.11,0-.09,0.06-.09h0l0.57-.17,0.68-.2,0.68-.2,0.68-.2,2-.57,0.68-.2,2-.57,0.68-.2,2-.57,0.68-.2,0.68-.2,0.68-.2,0.68-.2,0.77-.2-0.26-.74-3.54-10-0.23-.68-0.17-.45,0.48-.09,0.88-.2,0.85-.26,0.85-.28,0.82-.31,0.79-.37,0.79-.4,0.77-.43,0.74-.48,0.71-.51,0.68-.54,0.65-.57,0.62-.6,0.6-.62,0.57-.65,0.54-.68,0.51-.71L114,101l0.43-.77,0.4-.79,0.37-.79,0.31-.82,0.28-.85,0.26-.85,0.2-.88,0.17-.88,0-.11,0.06,0.06,0.09,0.09,0.09,0.09,0.09,0.09,0.09,0.09,0.09,0.09L117,94.82,117,94.88l0.09,0.06L117.21,95,117.3,95l0.09,0.06,0.09,0,0.09,0,0.17,0.06,0-.17V94.28l0-.09,0-.09,0-.09,0-.09,0-.09,0-.09,0-.09,0-.09,0-.09,0-.09,0-.09,0-.09,0-.09-0.06-.09L117.27,93l-0.06-.09-0.06-.09-0.06-.09L117,92.66,117,92.58l0-.06,0.06,0,0.06,0,0.06-.06,0.06-.06,0-.06,0-.09,0-.09,0-.09v-0.6h0.14l0.06,0,0,0,0,0,0,0,0-.06,0-.06,0-.06V89.6l0,0,0.06-.06,0.06-.06,0.06-.06,0.06-.06,0-.06,0-.06,0-.06,0-.06,0-.06,0-.06,0-.06V87.82l0-.11,0-.11,0-.09,0-.09,0-.09,0-.09,0-.09,0-.09,0-.09,0-.09,0-.09,0-.09,0-.09,0-.09,0-.06,0-.06,0-.06-0.06-.06-0.06-.06-0.06-.06-0.06-.06-0.06-.06-0.06-.06L117.24,86l-0.06-.06-0.06-.06-0.06-.06L117,85.78,117,85.72l-0.06-.06-0.06-.06-0.06-.06-0.11-.09-0.11-.09-0.11-.09-0.11-.09-0.09-.09L116.16,85,116.08,85,116,84.87l-0.09-.09-0.09-.09-0.09-.09-0.09-.09-0.09-.09-0.09-.11-0.09-.11-0.06-.11L115.29,84l-0.06-.11-0.06-.11-0.06-.11-0.06-.11L115,83.42l-0.06-.11-0.06-.11-0.06-.11L114.77,83l-0.06-.11-0.06-.11,0-.11,0-.11,0-.11,0-.09v-2l0-.11,0-.11,0-.11,0-.11,0-.11,0-.11,0-.11,0-.11,0-.11,0-.11,0-.11,0-.11,0-.11,0-.11V78.58h0.48l0,0,0,0,0,0,0,0,0,0,0,0V77.84l0-.11,0-.11,0-.11,0-.11,0-.11,0-.11,0-.11,0-.11,0-.11,0-.11,0-.11,0-.11,0-.11,0-.11,0-.11,0.06-.26,0-.11,0-.11,0-.11,0-.11,0-.11,0-.11,0-.11,0-.11,0-.11,0-.11,0-.11,0-.11,0-.11,0-.11,0.09-.23,0.06-.26,0.06-.26,0.06-.26,0.06-.26,0.06-.26,0.06-.26,0-.26,0-.26,0-.26,0-.26,0-.26,0-.26V69.73l0-.26,0-.26,0-.26,0-.26,0-.26-0.06-.26-0.06-.26-0.06-.26-0.06-.26-0.09-.26-0.09-.26-0.09-.26-0.09-.26-0.09-.23,0-.14V65.28l0-.14,0-.14,0-.14,0-.11,0-.11,0-.11,0-.11-0.06-.11L116,64.18l-0.06-.11L115.88,64l-0.06-.09-0.06-.09-0.06-.09-0.06-.09-0.06-.09-0.06-.09-0.06-.09-0.06-.09-0.06-.09-0.09-.09L115.2,63,115.11,63,115,62.87l-0.09-.09-0.06-.06-0.09-.23-0.09-.23-0.09-.23-0.09-.23-0.09-.23-0.11-.23-0.11-.23-0.11-.23L114,60.69l-0.11-.2-0.11-.2-0.11-.2-0.11-.2-0.11-.2-0.11-.2-0.11-.2-0.11-.2L113,58.9l-0.11-.2-0.11-.2-0.11-.17-0.11-.17L112.39,58l-0.14-.17-0.14-.17L112,57.49l-0.14-.17-0.14-.17L111.54,57l-0.14-.17-0.14-.17-0.14-.17-0.06-.06L111,56.35l-0.06-.06-0.06-.06-0.06-.06-0.06-.06-0.06-.06L110.66,56,110.61,56l-0.06-.06-0.06,0-0.06,0-0.06,0-0.06,0-0.06,0-0.06,0-0.06,0-0.06,0-0.06,0-0.06,0h-0.45l-0.06,0,0,0,0,0-0.06,0-1.3-1.36v0l0-.2,0-.17,0-.17,0-.17-0.06-.17-0.06-.17-0.06-.17L107.72,53l-0.06-.17-0.06-.14-0.06-.14-0.06-.14-0.06-.14-0.09-.14L107.29,52l-0.06-.09-0.06-.09-0.06-.06-0.06-.06-0.06,0H107l-0.06,0-0.06,0-0.06.06h0V51.25l0-.2,0-.2,0-.2-0.06-.2-0.06-.17-0.06-.17-0.09-.17-0.09-.17-0.09-.17-0.09-.14-0.09-.14L106,49.18,105.87,49l-0.11-.11-0.11-.11-0.11-.11-0.11-.11-0.14-.11-0.14-.09L105,48.3l-0.14-.09-0.14-.09L104.57,48,104.43,48l-0.14-.06-0.14-.06L104,47.82l-0.14-.06-0.11,0-0.11,0-0.11,0-0.11,0h0l-0.2-.31L103,47.08l-0.14-.26-0.14-.26-0.14-.26-0.14-.26-0.14-.26-0.14-.28L102,45.24,101.91,45l-0.11-.28-0.11-.28-0.11-.28-0.11-.28-0.11-.28-0.11-.28L101.11,43,101,42.69l-0.11-.28-0.11-.31-0.11-.31-0.11-.31-0.11-.31-0.11-.31-0.11-.31-0.11-.31L100,39.91l-0.11-.31-0.11-.31L99.64,39l-0.11-.31-0.11-.31-0.09-.26-0.09-.26-0.09-.26L99,37.33l-0.11-.26-0.11-.26-0.11-.26-0.11-.26-0.11-.26-0.11-.26-0.11-.26-0.11-.26L98,35l-0.14-.26-0.14-.26-0.14-.26L97.43,34l-0.14-.26-0.14-.26L97,33.25,96.86,33l-0.14-.26-0.14-.26-0.14-.26L96.29,32l-0.14-.26L96,31.46l-0.14-.26L95.73,31l-0.14-.26-0.17-.26-0.14-.23,0-.28,0-.28,0-.28V28.23l0-.28,0-.28,0-.26,0-.26-0.06-.26-0.06-.26-0.06-.26L95,26.14l-0.09-.26-0.09-.26-0.09-.23-0.11-.23-0.11-.23-0.11-.23-0.11-.23-0.14-.23L94,24.07l-0.14-.2-0.14-.2-0.17-.2-0.17-.2-0.17-.2L93,22.9l-0.2-.17-0.2-.17-0.28-.23-0.28-.2-0.26-.2-0.26-.17L91.3,21.6,91,21.46l-0.23-.14L90.6,21.2l-0.23-.11L90.14,21l-0.2-.09-0.2-.06-0.2-.06-0.2,0-0.2,0-0.17,0H88.64l-0.17,0-0.17,0-0.14,0L88,20.86l-0.14.06L87.73,21,87.59,21l-0.14.09-0.11.09-0.11.09-0.11.09L87,21.46l-0.11.09-0.09.09-0.06-.14-0.17-.31-0.17-.28-0.17-.28L86,20.35l-0.2-.26-0.2-.26-0.23-.23-0.23-.23L85,19.19,84.73,19l-0.26-.2-0.26-.17L84,18.45l-0.26-.17-0.28-.14L83.14,18l-0.28-.14-0.28-.11-0.28-.11L82,17.52l-0.31-.09-0.31-.09L81,17.26l-0.34-.06-0.34-.06L80,17.09l-0.34,0-0.4,0-0.06.09,0,0,0,0.06,0,0.06,0,0.06,0,0.06,0,0.06,0,0.06,0,0.06,0,0.06,0,0.06,0,0.06,0,0.06,0,0.06,0,0.06,0,0.06,0,0.06,0,0.06,0,0.06,0,0.06,0,0.06,0,0.06,0,0.06,0,0.06,0,0.06,0,0.06,0,0.06,0,0.06,0,0.06,0,0.06,0,0.06,0,0.09h0l-0.09.34-0.06.28-0.06.28-0.06.28L78,20.35l0,0.28,0,0.31,0,0.31,0,0.31v1.25l0,0.31,0,0.31,0,0.31,0,0.31,0.06,0.31,0.06,0.34,0.06,0.34,0.06,0.34,0.09,0.34,0.09,0.34,0.09,0.34,0.09,0.34,0.09,0.34,0.11,0.34,0.11,0.34L79,28.15l0.11,0.37,0.14,0.37,0.14,0.4L79.8,30.5l0,0.06,0,0.06,0,0.06,0,0.06,0,0.06,0,0.06,0,0.06L80,31l0,0.06,0,0.06,0,0.06,0,0.06,0,0.06,0,0.06,0,0.06,0,0.06,0,0.06,0,0.06,0,0.06,0,0.06,0,0.06,0,0.06,0,0.06,0,0.06,0,0.06,0,0.06,0,0.06,0,0.06,0,0.06,0,0.06,0.06,0.11h0l0.06,0.11,0,0.09,0,0.09,0,0.09,0,0.09,0,0.09,0,0.09L81,33l0,0.09,0,0.09,0,0.09,0,0.09,0,0.09,0,0.09,0,0.09,0,0.09,0,0.09,0,0.09,0,0.09,0,0.09,0,0.09,0,0.09,0,0.09,0,0.09V36.6l0,0.06,0,0.06,0,0.06,0,0.06,0,0.06,0,0.06,0,0.06,0,0.06,0,0.06,0,0.06,0,0.06,0,0.06L81,37.42l0.14,0.06,0.06,0,0.06,0,0.06,0,0.06,0,0.06,0,0.06,0,0.06,0,0.06,0,0.06,0,0.06,0,0.06,0,0.06,0,0.06,0,0.06,0,0.06,0,0,0,0,0,0,0.06,0,0.06,0,0.06,0,0.06,0,0.06,0,0.06,0,0.06,0,0.06,0,0.06v0.31l0.06,0.06,0,0.06,0,0.06,0,0.06,0,0.06,0.06,0,0.06,0,0.06,0,0.06,0,0.06,0,0.06,0h0.28v0.4l0,0.06,0,0.06,0.06,0.06,0.06,0.06,0.06,0,0.09,0,0.09,0h0.06l0.06,0,0.06,0,0.06,0,0.06,0,0.06,0,0.06,0,0,0,0,0,0,0,0,0,0,0,0,0,0,0,0,0,0,0,0,0.06,0,0.06v0.77l0,0.09,0,0.11,0.06,0.06,0,0,0,0,0,0,0,0,0,0,0,0,0,0,0.06,0,0.06,0h0.85l0.06,0,0.06,0,0.06,0,0.06,0,0.06,0,0.06,0,0.06,0,0.06,0,0.06,0,0.06,0,0.06,0,0.06,0,0.06,0,0.06,0,0.06,0,0.06,0,0,0.11,0,0.17,0,0.17-0.06.17-0.06.17-0.06.17L86,42.43l-0.06.17-0.06.14-0.06.14L85.75,43l-0.09.14-0.09.14-0.09.14-0.09.14-0.09.14-0.09.14L85.12,44,85,44.11l-0.11.11-0.11.11-0.11.11-0.11.11-0.11.11-0.14.11-0.14.11L84,45l-0.14.09-0.14.09-0.14.09-0.17.09-0.23.11-0.06,0-0.06,0-0.06,0-0.06,0-0.06,0-0.06,0-0.06,0-0.06,0-0.06,0-0.06,0-0.06,0-0.06,0-0.06,0-0.06,0-0.11,0-0.11.09-0.09.06L82,45.24l-0.09.06-0.06.09-0.06.09-0.06.09-0.06.09-0.06.09-0.06.09-0.06.09L81.47,46l-0.06.09-0.06.09-0.06.09-0.06.09-0.06.09-0.06.09-0.06.09L81,46.66,81,46.74l0,0.09,0,0.09,0,0.09,0,0.11,0,0.11,0,0.11,0,0.11,0,0.11,0,0.11,0,0.09-0.06,0-0.06,0H80.39l-0.06,0-0.06,0-0.06,0-0.06,0-0.06.06-0.06.06L80,48,79.94,48l-0.06.06-0.06.09-0.06.09-0.06.09-0.06.09-0.06.09-0.06.09-0.06.09-0.06.09-0.06.09L79.31,49,79.26,49l-0.06.09-0.06.09-0.06.09L79,49.38,79,49.46l-0.06.09-0.06.09-0.06.09-0.06.09-0.06.09L78.63,50l-0.06.09-0.06.09-0.06.09-0.06.09-0.06.09-0.06.09-0.06.09-0.06.09-0.06.09L78,50.85,78.12,51l0.06,0.11,0.06,0.11,0.06,0.11,0.06,0.11,0,0-0.06.06,0,0.06,0,0.06,0,0.06,0,0.06,0,0.06,0,0.06,0,0.06,0,0.06,0,0.06,0,0.06,0,0.06,0,0.06,0,0.06,0,0.06,0,0.06,0,0.06,0,0.06,0,0.06,0,0.06,0,0.06,0,0.06,0,0.06,0,0.06,0,0.06,0,0.06,0,0.06,0,0.09,0,0.09,0,0.09,0,0.09,0,0.11,0.06,0.06H77.27l-0.06,0-0.06,0-0.06,0-0.06,0-0.06,0-0.06,0-0.06,0-0.06,0-0.06,0-0.06.06-0.06.06,0,0.06,0,0.06,0,0.06,0,0.06,0,0.06,0,0.06,0,0.06,0,0.06,0,0.09,0,0.09,0,0.09,0,0.09,0,0.09,0,0.09,0,0.09,0,0.09-0.06.17-0.06.17L76,55.56,76,55.73l-0.09.17-0.09.17-0.09.17-0.09.17-0.09.17-0.09.17-0.09.17-0.09.17-0.09.17-0.09.17L75,57.6l-0.09.17-0.11.17-0.11.17-0.11.17-0.11.17-0.11.17-0.11.17L74.15,59,74,59.13l-0.11.17-0.11.17-0.11.17-0.11.17L73.47,60l-0.11.17-0.11.17-0.06.11L73,60.38l-0.26-.09-0.26-.09-0.23-.09L72,60,71.8,60l-0.23-.11-0.2-.11-0.2-.11L71,59.5l-0.2-.11-0.2-.11-0.2-.11L70.21,59,70,58.93l-0.17-.11-0.17-.14-0.17-.14-0.17-.14-0.17-.14L69,58.11,68.85,58l-0.17-.14-0.14-.14-0.14-.14-0.14-.14-0.14-.14L68,57.12,67.83,57l-0.14-.14-0.14-.14-0.14-.14-0.11-.11-0.11-.11-0.11-.11L67,56.1,66.84,56l-0.11-.09-0.11-.09-0.11-.09-0.11-.09-0.11-.09-0.09-.09-0.09-.09L66,55.33l-0.09-.06-0.09-.06-0.09-.06-0.09-.06L65.59,55,65.51,55l-0.09-.06-0.09,0-0.09,0-0.09,0-0.09,0-0.09,0H64.71l-0.06,0h0l0,0-0.23-.17-0.09-.06-0.23-.17L64,54.34,63.58,54l-0.09-.06-0.09-.06-0.51-.43-0.09-.06L62.39,53,62.31,53l-0.06-.09-0.06-.09-0.06-.09-0.06-.09L62,52.53,62,52.44l-0.06-.09-0.06-.09-0.06-.09-0.06-.09L61.68,52l-0.06-.09-0.06-.09-0.06-.06-0.06-.06-0.06-.06-0.09-.06-0.09-.06-0.09-.06-0.09-.06L61,51.39l-0.09-.06-0.09-.06-0.09-.06-0.09-.06-0.09-.06-0.09-.06L60.38,51l-0.09-.06-0.09-.06-0.09-.06,0,0V50.34l0-.09,0-.09,0-.09L60,50l0-.09,0-.09,0-.09-0.06-.09-0.06-.09-0.06-.09-0.06-.09-0.06-.09-0.06-.09-0.06-.09-0.06-.09L59.39,49,59.3,48.9l-0.09-.09-0.09-.09L59,48.64,59,48.56l-0.09-.09-0.09-.09-0.09-.09-0.09-.09-0.09-.06,0-.06,0-.09,0-.09,0-.09,0-.09,0-.09-0.06-.09-0.06-.09-0.06-.09-0.06-.06-0.06-.06L58,47.25,58,47.2l-0.06-.06-0.06-.06L57.8,47,57.71,47l-0.09-.06-0.09-.06-0.09-.06-0.09-.06-0.06,0L54.14,38l0.06-.11,0.09-.17,0.09-.17,0.09-.17,0.09-.17,0.06-.17,0.06-.17,0.06-.17,0.06-.17,0.06-.17,0-.17,0-.17,0-.17,0-.17V35l0-.17,0-.17,0-.17,0-.17-0.06-.17L54.71,34l-0.06-.17-0.06-.17-0.09-.17-0.09-.17-0.09-.17L54.26,33l0.06-.34,0.06-.34,0-.34,0-.34V31l0-.28,0-.28,0-.28-0.06-.26-0.06-.26-0.09-.23-0.09-.23L54,29l-0.11-.2-0.11-.2-0.14-.17-0.14-.17-0.14-.14L53.15,28,53,27.86l-0.17-.11-0.2-.09-0.2-.06-0.2-.06-0.23,0-0.23,0H51.53l-0.23,0-0.26,0-0.26.06-0.17.06-0.09-.43-0.17-.48-0.26-.45-0.31-.43-0.34-.4-0.4-.34-0.45-.31-0.48-.28-0.51-.23-0.54-.2L46.52,24l-0.6-.11-0.62-.09-0.62-.06H44.05l-0.62,0-0.62.09-0.62.11-0.62.17-0.6.2-0.6.26-0.57.31-0.54.34-0.48.4-0.45.45-0.43.48-0.37.54-0.31.6L37,28.32l-0.2.71-0.11.74-0.06.77-0.11.2-0.14.2-0.11.23-0.11.23L36,31.61l-0.11.23-0.09.23-0.09.23-0.09.23-0.06.26L35.52,33l0,0.26,0,0.26v0.54l0,0.28,0,0.28,0.06,0.28,0.06,0.31,0.09,0.31,0.11,0.31,0.11,0.34,0.14,0.34,0.17,0.34,0.17,0.37,0.2,0.37L36.85,38l0.26,0.4,0.28,0.4,0.28,0.4L38,39.6,38.32,40v1l0,0.26,0,0.26,0,0.26,0,0.23,0,0.23,0.06,0.23,0.06,0.23,0.06,0.23,0.06,0.2,0.09,0.2,0.09,0.2,0.09,0.2L39,43.91l0.11,0.17,0.11,0.17,0.11,0.17,0.11,0.17,0.14,0.14,0.14,0.14L39.91,45l0.17,0.11,0.17,0.11,0.17,0.11,0.2,0.11,0.2,0.09L41,45.64l0.2,0.09,0.26,0.09,0,0.09,0.17,0.54L41.84,47,42,47.51,42.18,48l0.17,0.54,0.17,0.54,0.17,0.54,0.17,0.54L43,50.74l0.17,0.54,0.17,0.54,0.17,0.54,0.17,0.54,0.17,0.54L44.05,54l0.17,0.54L44.39,55l0.34,1.13h1.93l0-.14,0-.09,0-.11,0-.11,0-.11,0.06-.11,0.06-.11L47,55.28,47,55.19l0.06-.09L47.14,55l0.06-.09,0.09-.09,0.09-.09,0.09-.09,0.09-.09,0.09-.09,0.09-.06,0.09-.06,0.11-.06L48,54.28l0.11-.06,0.11,0,0.11,0,0.11,0,0.11,0H49l0.14,0,0.14,0,0.14,0.06,0.14,0.06,0.11,0.06L49.8,54.4l0.11,0.06L50,54.54l0.09,0.09,0.09,0.09,0.09,0.09,0.09,0.09L50.43,55l0.06,0.11,0.06,0.11L50.6,55.3l0,0.11,0,0.11,0,0.11,0,0.11V56.1l0,0.14,0,0.14,0,0.14,0,0.14-0.06.14-0.06.14-0.06.14-0.09.14-0.09.14-0.09.14-0.09.14-0.14.17L50,58l0,0,0.06,0.14,0,0.06,0.06,0.14,0,0,0,0.06,0,0.06,0,0.06,0,0.06,0.06,0.14,0,0.06,0,0.06,0,0.06,0,0.06,0,0.06,0.06,0.14,0,0.06,0,0.06,0,0.06,0,0.06,0.06,0.11,0.11-.06,0.06,0,0.06,0,0.06,0,0.06,0,0.06,0,0.06,0,0.06,0,0.06,0,0.06,0,0.06,0,0.06,0,0.06,0,0.06,0h0l0,0,0,0.06,0,0.06,0,0.06,0,0.06,0,0.06,0,0.06,0,0.06,0,0.06,0,0.06,0,0.06,0,0.06,0,0.06,0,0,0,0-0.06,0-0.06,0-0.06,0-0.06,0L51.7,60l-0.06,0-0.06,0-0.06,0-0.06,0-0.06,0-0.06,0-0.06,0-0.06,0-0.11.06,0,0.11v1.7l0,0.09,0.14,0.09,0.11,0.06,0.11,0.06,0.11,0.06,0.11,0.06,0.09,0.06L52,62.62,52,62.7l0.09,0.09,0.09,0.09L52.3,63,52.38,63l0.09,0.09,0.09,0.09,0.09,0.09,0.09,0.11,0.09,0.11,0.06,0.11,0.06,0.11L53,63.86,53,64l0.06,0.14,0.06,0.14,0.06,0.14,0.06,0.14,0.06,0.17,0.06,0.17,0.06,0.17,0,0.17,0,0.2,0,0.2,0,0.2,0,0.26,0,0.26,0.06,0.26,0.06,0.26,0.06,0.26,0.06,0.26,0.06,0.26,0.06,0.26L54,68.12l0.06,0.26,0.06,0.26,0.09,0.26,0.09,0.26,0.09,0.26,0.09,0.26,0.09,0.26,0.09,0.26,0.09,0.26,0.09,0.26,0.11,0.26L55,71.18l0.11,0.26,0.11,0.26,0.11,0.26,0.11,0.26,0.11,0.26,0.14,0.26L55.87,73,56,73.19l0.14,0.23,0.14,0.23,0.14,0.23,0.11,0.2,0.06,0.09-0.06.17-0.2.57-0.2.57L56,76l-0.17.54-0.17.54-0.17.54-0.14.54-0.14.51L55,79.2l-0.11.51-0.11.51-0.11.48-0.09.48-0.09.48-0.09.48-0.06.45-0.06.45,0,0.23-0.26.09-0.34.11-0.34.11L53,83.71l-0.34.11-0.34.11L52,84l-0.34.11-0.14,0-0.14,0-0.14.06-0.14.06L51,84.39l-0.11.06-0.11.06-0.11.06-0.11.06-0.11.06-0.11.06-0.11.06-0.11.06L50,84.93,49.86,85l-0.09.09-0.09.09-0.09.09-0.09.09-0.09.11-0.09.11-0.09.11-0.06.11-0.06.11-0.06.14L49,86.2,49,86.34l-0.06.17-0.06.17,0,0.17,0,0.17,0,0.2-0.09.54-0.09.54-0.09.54-0.11.54-0.11.54v0ZM58.11,66.27l-0.06-.11-0.11-.26-0.11-.26-0.11-.23L57.6,65.2,57.49,65l-0.14-.23-0.14-.23-0.14-.23L57,64.15,56.89,64l-0.09-.14-0.09-.14-0.09-.14-0.06-.14-0.06-.14-0.06-.14L56.41,63l-0.06-.14-0.06-.14,0-.14,0-.14,0-.14,0-.14,0-.14V61.17l0-.14,0-.14,0-.14,0-.14,0-.14,0.06-.14,0.06-.14L56.47,60l0.06-.14,0.09-.17,0-.09,0-.06,0-.06,0-.06,0-.06-0.06-.14,0-.06,0-.06,0-.06,0-.06,0-.06,0-.09,0-.06,0-.06,0-.06,0-.06,0-.06,0-.06L56,58.42l0-.06-0.06-.14,0-.06,0-.09L55.81,58,55.67,58l-0.17.06-0.06,0-0.17.06-0.06,0L55,58.25l-0.06,0-0.09,0,0-.06,0-.06,0-.06,0-.06,0-.06,0-.06,0-.06-0.06-.11,0-.06,0-.06,0-.06,0-.06,0-.06,0.06,0,0.06,0,0.06,0,0.06,0,0.06,0,0.06,0,0.06,0,0.06,0,0.06,0,0.06,0,0.06,0,0.06,0,0.06,0,0.06,0,0.11-.06-0.23-.6,0-.09-0.09-.23,0-.09L55,55.84l-0.06-.11-0.2,0-0.14,0-0.14,0-0.14,0-0.14-.06L54,55.5l-0.11-.06-0.11-.06-0.11-.06-0.09-.06-0.09-.06-0.09-.09L53.35,55,53.29,55l-0.06-.09-0.06-.09-0.06-.09-0.06-.09,0-.09,0-.11,0-.11,0-.11V53.72l0-.14,0-.14,0-.14,0.06-.14L53.15,53l0-.11,0,0,0.06,0,0.06,0,0.06,0,0.06,0,0.09,0,0.09,0,0.09,0,0.09,0,0.09,0,0.09,0,0.09,0,0.09,0,0.09,0,0.09,0,0.09,0,0.09,0,0.09,0,0.09,0,0.09,0,0.09,0,0.09,0,0.09,0,0.09,0,0.09,0,0.09,0,0.09,0,0.09,0,0.09,0,0.09,0,0.09,0,0.09,0,0.09,0,0.09,0,0.09,0,0.09,0,0.09,0h1l0.17,0h0.28l0.11,0,0.11,0h0l0,0.17L58,54.85l0.09,0.68,0.09,0.68,0.06,0.68,0.06,0.65,0,0.65,0,0.65v1.93l0,0.43v0.2l0,0.62-0.06.62-0.06.62-0.09.62-0.09.6-0.09.6-0.11.6-0.09.51ZM71,75.88l-0.09,0-0.48.17-0.48.2-0.48.2-0.48.2-0.48.2-0.48.2-0.48.2-0.48.2-0.48.2-0.48.2-0.48.2-0.48.23-0.48.23-0.48.23L63.64,79l-0.48.23-0.48.23-0.28.14-0.2-.26L62,79.09l-0.17-.23-0.17-.23-0.14-.23-0.14-.23L61.26,78l-0.14-.23L61,77.5l-0.11-.23L60.77,77l-0.11-.23-0.09-.23-0.09-.23-0.09-.23-0.09-.23-0.09-.23-0.09-.23-0.06-.23L60,75,60,74.78l-0.06-.23-0.06-.23-0.06-.23-0.06-.23,0-.23,0-.23,0-.23,0-.23,0-.23,0-.23,0-.23,0-.26,0-.26,0-.26,0-.26,0-.26-0.06-.26L59.3,70.5l-0.06-.26L59.19,70l-0.06-.26-0.06-.26L59,69.22,59,69l-0.06-.26-0.09-.26-0.09-.26-0.09-.26-0.09-.26-0.09-.26-0.09-.26-0.09-.26-0.09-.26-0.09-.26v0l0.11-.6,0.11-.6,0.09-.6,0.09-.6,0.09-.62,0.06-.62,0.06-.62,0-.31,0-.34,0-.62V58.93l0-.65,0-.65L58.71,57l-0.06-.68-0.09-.68-0.09-.68-0.11-.68v0l0,0.06,0,0.06,0,0.06,0,0.06,0,0.06,0,0.06,0,0.06,0,0.06,0,0.06,0,0.06,0,0.06,0,0.06,0,0.06,0,0.06,0,0.06,0,0.06,0,0.06,0,0.06,0.06,0.06L59,55.36,59,55.42l0.06,0.06,0.06,0,0.06,0,0.06,0,0.06,0,0.06,0,0.06,0L59.5,55.7l0,0.06,0.06,0.09,0.06,0.09L59.7,56l0.06,0.09,0.06,0.09,0.06,0.09,0.06,0.09L60,56.44,60,56.52l0.06,0.09,0.06,0.09,0.06,0.09,0.06,0.09,0.06,0.09L60.38,57l0.06,0.09,0.06,0.09,0.06,0.09,0.06,0.09,0.06,0.09,0.06,0.09,0.06,0.09,0.06,0.06,0.06,0.06,0.06,0.06L61,57.86l0.06,0.06L61.11,58,61.17,58l0.06,0.06,0.06,0,0.06,0,0.06,0,0,0,0,0,0,0,0,0,0,0,0,0,0,0,0,0,0,0,0,0,0,0,0,0.06,0,0.06,0,0.06v0.91l0,0.09v0.43l0,0.09,0,0.09,0,0.09,0,0.09,0.06,0.09L62,60.58l0.06,0.09,0.06,0.09,0.09,0.09,0.09,0.09,0.17,0.17,0.17,0.17,0.17,0.17L63,61.6l0.17,0.17,0.17,0.17,0.17,0.17,0.17,0.14,0.14,0.14,0.14,0.14,0.14,0.14,0.14,0.14L64.35,63l0.14,0.14,0.14,0.14,0.14,0.14,0.14,0.14,0.14,0.14,0.11,0.14,0.11,0.14,0.11,0.14,0.11,0.14,0.11,0.14,0.09,0.14,0.09,0.14,0.09,0.14L66,64.94,66,65.08l0.06,0.14,0.06,0.14,0.06,0.14,0.06,0.17,0.2,0.11,0.17,0.11L66.81,66,67,66.13l0.17,0.11,0.17,0.11,0.17,0.11,0.17,0.11,0.17,0.11L68,66.81l0.17,0.11L68.34,67l0.17,0.11,0.17,0.11,0.17,0.11L69,67.49l0.17,0.11,0.14,0.11,0.14,0.14L69.62,68l0.14,0.14,0.14,0.14L70,68.43l0.14,0.14,0.14,0.14,0.14,0.14L70.61,69l0.14,0.14,0.14,0.14L71,69.42l0.11,0.14,0.17,0.2,0.37-.17L72,69.45l0.31-.14,0.31-.14L72.94,69l0.31-.14,0.31-.14,0.31-.14,0.31-.14,0.31-.14,0.31-.17L75.12,68l0.31-.17,0.31-.17L76,67.46l0.28-.17,0.11-.06-0.09.2-0.14.28L76.05,68l-0.14.28-0.14.28-0.14.28-0.17.28-0.17.28-0.17.28L74.95,70l-0.17.26-0.17.26-0.17.26L74.27,71l-0.17.26-0.17.26-0.17.26-0.2.26-0.2.23-0.2.23-0.2.23-0.2.23-0.2.23-0.2.23-0.2.23-0.2.23-0.2.2-0.2.2-0.2.2-0.23.2-0.23.2L70.67,75l0.45,1.16Z"/>
    <path d="M41,46c-2.38-.62-3.09-2.83-3-5.73-3.8-4.62-3.2-7.23-1.7-9.41,0.2-8.76,13.18-8.33,13.95-2.78,2.75-.77,4.34,1.39,3.63,5.27,1,1.62.88,3.4-.4,5.33A15.79,15.79,0,0,0,53.89,45v0l-0.06,0,0,0.14,0,0.11v0.45l0,0.09,0,0.09,0,0.09,0,0.09,0,0.09,0,0.09,0,0.09L54,46.49l0.06,0.09,0.06,0.09,0.06,0.09,0.06,0.09,0.06,0.09L54.37,47l0.06,0.09,0.06,0.06,0.06,0.06,0.06,0.06,0.06,0.06,0.09,0.06,0.09,0.06,0.09,0.06L55,47.54l0,0h0l-0.09,0-0.09,0-0.09,0-0.09,0-0.06,0-0.06,0-0.06,0-0.06,0-0.06,0-0.06,0-0.06,0-0.06,0L54.17,48l0,0H54.09V47l0-.06,0-.06,0-.06,0-.06,0-.06,0-.06,0-.06,0-.06,0-.06,0-.06,0-.06,0-.06,0-.06,0-.06,0-.06,0-.11-0.06-.11-0.06-.11-0.06-.09-0.06-.09-0.06-.09-0.06-.06-0.06-.06,0,0-0.14-.31L53,44.9l-0.11-.23-0.14-.23-0.14-.23L52.41,44l-0.14-.2-0.17-.2-0.17-.2-0.17-.2-0.17-.17-0.2-.17-0.2-.17L51,42.55l-0.2-.17-0.2-.17-0.23-.14-0.23-.14-0.23-.14-0.23-.14-0.23-.14-0.23-.14L49,41.22l-0.23-.14-0.23-.14-0.26-.14L48,40.65l-0.26-.14-0.26-.11-0.26-.11L47,40.17,46.74,40l0,0-0.06-.06,0,0,0,0,0,0,0,0,0,0,0,0,0,0,0,0,0,0,0,0,0,0,0,0,0,0,0,0,0,0,0,0,0,0,0,0,0,0,0,0,0,0,0,0,0,0,0,0,0,0,0,0,0,0,0,0,0,0,0,0L45.81,39l-0.11,0-0.09,0-0.09,0-0.09,0H44.76l-0.06,0-0.06,0-0.06,0-0.06,0-0.06,0-0.06,0-0.06,0-0.06,0-0.06,0-0.06-.06-0.06-.06,0-.06,0-.06,0-.06,0,0,0,0,0-.06,0-.06,0-.06,0-.09-0.28,0H42.69l-0.2,0-0.2,0-0.17,0-0.17,0-0.17-.06-0.17-.06L41.47,38,41.33,38l-0.14-.06L41,37.87l-0.11-.09-0.11-.09-0.11-.09-0.11-.09-0.11-.09-0.09-.09-0.09-.09-0.09-.11L40.14,37l-0.09-.11L40,36.82l-0.06-.11-0.06-.11-0.06-.11-0.06-.11-0.06-.11,0-.09,0-.09-0.06,0,0.09,0.17,0.06,0.11,0.06,0.11,0.06,0.11,0.06,0.11L40,36.85,40.05,37l0.09,0.11,0.09,0.11,0.09,0.11,0.09,0.11,0.09,0.09,0.11,0.09,0.11,0.09,0.11,0.09,0.11,0.09L41,37.93,41.19,38l0.14,0.06,0.14,0.06,0.14,0.06,0.17,0.06L42,38.3l0.17,0,0.2,0,0.2,0,0.2,0h1l0.2,0,0,0.06,0,0.06,0,0.06h0l0,0.06,0,0.06,0,0.06,0.06,0.06,0.06,0.06,0.06,0.06,0.06,0.06,0.06,0,0.06,0,0.06,0,0.06,0,0.06,0,0.06,0,0.06,0,0.06,0,0.06,0h0.74l0.09,0,0.09,0,0.09,0,0.09,0,0,0,0,0,0,0,0,0,0,0,0,0,0,0,0,0,0,0,0,0,0,0,0,0,0,0,0,0,0,0,0,0,0,0,0,0,0,0,0,0,0,0,0,0,0,0,0,0,0,0,0,0,0,0,0,0h0l0,0L46.83,40l-0.31.23-0.28.2-0.28.17-0.28.17-0.28.14-0.26.14-0.26.11-0.26.09-0.26.09-0.26.06-0.26.06-0.26,0-0.26,0H42.86l-0.23,0-0.23,0-0.23-.06L42,41.36l-0.23-.09-0.23-.09-0.23-.11L41,41l-0.23-.14-0.23-.14-0.23-.17-0.23-.17-0.2-.2-0.2-.2-0.2-.2-0.2-.23L38.92,39l0.26,0.88,0.17,0.54L39.51,41l0.17,0.54,0.17,0.54L40,42.6l0.17,0.54,0.17,0.54,0.17,0.54,0.17,0.54,0.17,0.54L41,45.84l0.11,0.37ZM37.84,29.4l0-.14,0-.11V28.69l0-.11,0-.11,0-.09,0-.09L38,28.2,38,28.12,38.07,28l0.06-.09,0.06-.09,0.06-.09,0.09-.09,0.09-.09,0.09-.09,0.09-.09,0.09-.09,0.09-.09,0.09-.09,0.09-.09L39,27l0.09-.09,0.09-.09,0.09-.09,0.09-.09,0.09-.09,0.09-.09,0.11-.11,0.06,0.06-0.11.11h0l-0.09.09-0.09.09-0.09.09-0.09.09L39.15,27l-0.09.09L39,27.16l-0.09.09-0.09.09-0.09.09-0.09.09-0.09.09-0.09.09-0.09.09-0.06.09-0.06.09L38.21,28l-0.06.09-0.06.09L38,28.26l0,0.09,0,0.09,0,0.09,0,0.09,0,0.09v0.4l0,0.11,0,0.11v0l-0.09,0Zm0.62,2.81-0.09-.06-0.06,0-0.06,0,0,0,0,0,0,0,0,0,0,0,0,0,0,0,0,0,0,0,0,0,0,0,0,0,0,0,0,0,0,0,0,0,0-.06,0-.06,0-.06,0-.06,0-.06,0-.06,0-.06,0-.06,0-.06,0-.06,0-.06,0-.06,0-.09,0.09,0,0,0.09,0,0.06v0h0l0,0.06,0,0.06,0,0.06,0,0.06,0,0.06,0,0.06,0,0,0,0,0,0,0,0,0,0,0,0,0,0,0,0,0,0,0,0,0,0,0,0,0,0,0,0,0,0,0,0,0,0,0,0,0,0,0,0,0,0,0.06,0,0,0,0,0-0.06.06Zm11.93-.91,0.09,0.06,0.06,0,0.06,0,0.06,0,0.06,0,0.06,0,0.06,0,0.06,0,0.06,0L51,31.63l0.06,0.06,0.06,0.06,0,0.06,0,0.06,0,0.06,0,0.06,0,0.06,0,0.06,0,0.06,0,0.06,0,0.06,0,0.06,0,0.06,0,0.06v0.4l0,0.11-0.09,0V32.4l0-.06,0-.06,0-.06,0-.06,0-.06,0-.06,0-.06,0-.06,0-.06,0-.06,0-.06,0-.06,0-.06-0.06,0-0.06,0-0.06,0-0.06,0-0.06,0-0.06,0-0.06,0-0.06,0,0,0,0,0-0.06,0-0.09-.06,0.06-.06Zm2.21,10.26-0.11-.34-0.09-.31-0.09-.31-0.09-.31L52.16,40l-0.09-.28L52,39.43l-0.09-.28-0.06-.28-0.06-.26-0.06-.26-0.06-.26-0.06-.26-0.06-.26-0.06-.23-0.06-.23,0-.23,0-.23,0-.2,0-.2,0-.2,0-.2,0-.17V34.84l0-.11,0-.11,0-.14,0.09,0,0,0.11v0l0,0.11,0,0.11v0.88l0,0.17,0,0.17,0,0.2,0,0.2,0,0.2,0,0.23,0,0.23,0.06,0.23,0.06,0.23,0.06,0.26,0.06,0.26,0.06,0.26,0.06,0.26,0.06,0.26L52,39.15l0.09,0.28,0.09,0.28L52.24,40l0.09,0.28,0.09,0.31L52.5,40.9l0.09,0.31,0.09,0.31v0.06l-0.09,0Zm-3.09-.34,0-.09V40.82l0-.06,0-.06,0-.06,0-.06,0-.06,0-.06,0-.06,0-.06,0-.06,0-.06,0-.06-0.06-.06-0.06-.06L49.07,40,49,40,49,39.91l-0.06-.06-0.06-.06-0.06-.06-0.06-.06-0.06-.06h0l-0.06-.06-0.06-.06-0.06-.06-0.09-.09,0.06-.06,0.06,0.09,0.06,0.06,0.06,0.06,0.06,0.06,0.06,0.06,0.06,0.06,0.06,0.06,0.06,0.06L49,39.86,49,39.91,49.1,40,49.15,40l0.06,0.06,0.06,0.06,0,0.06,0,0.06,0,0.06,0,0.06,0,0.06,0,0.06,0,0.06,0,0.06,0,0.06,0,0.06,0,0.06,0,0.06V41.1l0,0.09-0.09,0Z" style="fill: #999"/>
    <path d="M53.69,38.38l3.12,8.53h0l-0.09,0-0.09,0-0.09,0-0.09,0-0.09,0-0.09,0-0.09,0-0.09,0-0.09,0L56,46.57l-0.09-.09-0.09-.09-0.06-.06-0.06-.06-0.06-.06-0.06-.06-0.06,0-0.06,0-0.06,0-0.06,0-0.06,0H55.11L55,45.95,55,45.81l-0.09-.11-0.09-.11-0.09-.11-0.09-.09-0.09-.09-0.09-.09-0.09-.06-0.09-.06-0.09,0-0.09,0H53.94l-0.06,0h0l-0.06-.26-0.06-.26-0.06-.26-0.06-.26L53.6,43.8l-0.06-.23,0-.23,0-.23,0-.23,0-.23,0-.2,0-.2,0-.2V38.75l0.11-.17,0.09-.17Zm14.4,48h0.17v0l0,0.11,0,0.11,0,0.11v0.45l0,0.11,0,0.11,0,0.11,0,0.11-0.06.11-0.06.11L68.06,88,68,88.13l-0.09.11-0.09.09-0.11.09-0.11.09-0.14.09-0.11.09H67.21l-0.09,0H67l-0.17-.06-0.26.74-0.65-.2-0.79,2.41,0.6,0.23,0,0.06L65.62,92l-0.14.4-0.06.14-0.14.4-0.06.17,0.06,0.14,0.06,0.11,0,0.11,0,0.11,0,0.11,0,0.11,0,0.11,0,0.11,0,0.11v0.6l0,0.09,0,0.09,0,0.09,0,0.09-0.06.09-0.06.09-0.06.09-0.06.09-0.09.09L65,95.56l-0.09.09h0a5,5,0,0,1,3-9Zm2.83,0.88a5,5,0,0,1-2.83,9.13H67.83l0-.09,0-.11,0-.11V95.53l0-.09,0-.09,0-.09,0-.09,0.06-.09L68,95,68,94.93l0.06-.09,0.06-.09,0.09-.06,0.09-.06,0.09-.06,0.09-.06,0.09-.06,0.11-.06,0.11-.06,0.11-.06L69,94.25l0.17-.06L69.25,94l0.06-.14,0.06-.14,0.06-.14,0.06-.14,0.06-.14,0.06-.14L69.65,93l0.06-.14,0-.06L70.41,93l0.79-2.41-0.65-.26,0.06-.14,0.06-.14,0.06-.14,0.06-.14,0.06-.2-0.14-.06H70.58l-0.06-.14-0.06-.14,0-.14,0-.14,0-.14V88.36l0-.11,0-.11,0-.11,0-.09,0.06-.09,0.06-.09,0.06-.09,0.06-.09,0.06-.09,0.09-.09L71,87.34,71,87.28l0,0Zm27-9.5a13.7,13.7,0,0,1,11.88,6.86h0V84l0-.06,0-.06,0-.06,0-.06,0,0,0,0,0,0,0,0,0,0,0,0,0,0,0,0,0,0V82.2h0V78.46l0-.34V77.9a18,18,0,0,0-30,13.46,18.06,18.06,0,0,0,4.62,12.08l0.11-.11,0.94-1,0.17-.17,0.14-.17,0.94-1,0.17-.2h0.57l0.09,0,0.09,0,0.09,0h0A13.78,13.78,0,0,1,98.14,77.53Zm-9.52,29.08a18,18,0,0,0,9.52,2.75c0.51,0,1,0,1.53-.06l-0.06-.17-0.65-2-0.23-.68L98.31,106l-0.23-.65H97.91a13.59,13.59,0,0,1-7.34-2.15v0.74l0,0.14,0,0.17-0.37.43-0.11.14L90,105l-0.11.14-0.11.14-0.11.14-0.34.4-0.11.14-0.11.14-0.11.14-0.11.14-0.11.14-0.34.4-0.06.06Zm12.67,2.47a18,18,0,0,0,14.68-15.22l-0.06-.06-0.09-.11-0.09-.11-0.09-.11-0.09-.11-0.09-.11-0.09-.11-0.09-.11L115,93.15,114.94,93l-0.09-.11-0.09-.11-0.09-.11-0.09-.11-0.09-.11-0.09-.11,0,0-0.06.11,0,0.06-0.09.17-0.06.06-0.06.06-0.06,0-0.06,0h-0.17l-0.06,0-0.06,0-0.06,0,0,0,0-.06,0-.06,0-.06,0-.06,0-.06-0.06-.11-0.06-.09-0.06-.09-0.06-.09L113.22,92l-0.06-.09-0.06-.09L113,91.73,113,91.64l-0.06-.09-0.09-.09-0.09-.09-0.09-.09-0.09-.09-0.09-.09-0.09-.06L112.34,91,112.25,91l-0.09-.06-0.09-.06L112,90.79l-0.09-.06-0.09-.06-0.09-.06h0c0,0.34,0,.68,0,1a13.76,13.76,0,0,1-12,13.66l1.45,4.11ZM65.82,91.42l-0.54-.2L66,89l0.57,0.17-0.09.23-0.06.14-0.34,1-0.06.14-0.28.82h0Zm4.62-.94L71,90.71,70.24,93l-0.6-.2h0l0.06-.14,0.06-.14,0.06-.14,0.06-.14,0.06-.14L70,91.93,70,91.79l0.06-.14,0.06-.14,0.06-.14,0.06-.14,0.06-.14,0.06-.14,0.06-.14,0.06-.14,0.06-.14,0-.06ZM74,92.35l-0.88,2.21,1.53,0.65L75.57,93Zm-11.62-1.9,0.88-2.21-1.53-.65L60.77,89.8ZM58.88,101l32.66,14.06,1.7-3.88L60.63,97.11,58.85,101h0Zm32.74,14.09L93.8,116l1.64-3.91-2.13-.91ZM98,97.4H97l0,0v-1.3a4.17,4.17,0,0,0,1,.11A5,5,0,0,0,99.13,96L99,96.18l-0.11.2-0.14.2-0.14.17-0.14.17-0.17.17-0.17.17L98,97.4h0Zm0.88,1.79c0.06,0.54.09,1.08,0.14,1.62A1.32,1.32,0,0,1,99.1,103H98.9L98,100.49l-0.23-.6,0.31-.17,0.37-.23,0.34-.26Zm-1.47,3.88H97.31a1.26,1.26,0,0,1-.43-1.62l0.17,0.48L97.43,103Zm0-5.24-0.34-.34h0.79l-0.09.06-0.2.14-0.2.11Zm1.62,5.3v0.23l-0.09-.23H99Zm0.14,0.68a0.81,0.81,0,0,0,.57.23v0H99.27l-0.09-.26h0Zm-1.42.26H96.8v0a0.75,0.75,0,0,0,.62-0.88h0L97.74,104l0,0.09h0Zm2,0.09v1H99.64l-0.37-1h0.43Zm-1.59,1.11H98l-0.71,0-0.54,0,0.06-1h1l0.17,0.51ZM101.93,94L103,94.9l-1.59,1.64h0c-0.17-.17-0.34-0.31-0.48-0.48l0.06-.23L101,95.5l0-.34V95A4.44,4.44,0,0,0,101.93,94ZM103,95l0,0.57,2.3,1.9a1.33,1.33,0,0,1,1.64,1.5l-1.22,1.28a1.35,1.35,0,0,1-1.59-1.5c-0.68-.74-1.33-1.47-2-2.24h-0.57L103,95v0Zm3.91,4.08v0a0.69,0.69,0,0,0,1.13.11l0,0-2,2.1,0,0a0.74,0.74,0,0,0-.2-1h0l1.11-1.16v0Zm1.22,0.23,0.65,0.62-0.26.34-0.43.51-0.45.48-0.48.45-0.45.4-0.65-.68,2-2.1ZM94.08,89.18l-1-.91,1.59-1.62h0l1,1A4.91,4.91,0,0,0,94.08,89.18Zm-1-1,0.06-.57c-0.77-.65-1.53-1.28-2.27-1.93a1.35,1.35,0,0,1-1.64-1.5l1.22-1.28A1.33,1.33,0,0,1,92,84.42l2,2.24h0.57ZM89.18,84v0A0.7,0.7,0,0,0,88,83.88l0,0,2.07-2.07,0,0a0.74,0.74,0,0,0,.2,1h0L89.21,84ZM88,83.82l-0.68-.68,0.2-.26,0.43-.51,0.45-.48,0.48-.45L89.32,81l0,0L90,81.72,88,83.79v0Zm5.58,9-1.47.06V90.6l0,0h1.39a4.25,4.25,0,0,0-.11,1A4,4,0,0,0,93.54,92.81Zm-1.56,0-0.37-.43-3,.2a1.35,1.35,0,0,1-2.24.06V90.82a1.35,1.35,0,0,1,2.18,0l3,0.23,0.4-.4v2.13h0Zm-5.64-.26h0a0.7,0.7,0,0,0-.91.71h0l0-2.92h0a0.75,0.75,0,0,0,.88.62h0v1.59Zm-1,.68H84.44l0-.23-0.06-.71,0-.71,0-.71,0.06-.65,1,0.06,0,2.92Zm17.15-2.69,1.42-.06,0,2.27,0,0h-1.42a5.22,5.22,0,0,0,.14-1.16,6.6,6.6,0,0,0-.11-1.08h0Zm1.5,0L104.34,91l3-.2a1.35,1.35,0,0,1,2.24-.06v1.79a1.35,1.35,0,0,1-2.18,0c-1-.09-2-0.17-3-0.23l-0.4.4,0-2.13H104Zm5.64,0.26h0a0.7,0.7,0,0,0,.91-0.71h0l0,2.92h0a0.74,0.74,0,0,0-.88-0.62h0V90.77Zm1-.68H111l0,0,0.09,0.06,0.09,0.06,0.09,0.06,0.09,0.06,0.09,0.06,0.09,0.06,0,0.4,0,0.71,0,0.71-0.06.71,0,0.11-0.94-.06,0-2.92ZM97,87.08l-0.09-1.36,2.27,0,0,0,0,1.42A4.37,4.37,0,0,0,98,87,4.17,4.17,0,0,0,97,87.08Zm0-1.45,0.43-.37-0.26-3a1.31,1.31,0,0,1-.09-2.21l1.79,0a1.36,1.36,0,0,1,.06,2.18c-0.06,1-.11,2-0.17,3l0.4,0.4-2.13,0ZM97.11,80v0a0.71,0.71,0,0,0-.71-0.91v0l2.92,0v0a0.75,0.75,0,0,0-.62.88h0l-1.62,0Zm-0.71-1,0-1,0.2,0,0.68-.06,0.71,0,0.71,0L99.35,78l0,1Zm4,8.7,0.94-1L103,88.21v0l-1,1a4.48,4.48,0,0,0-1.56-1.62v0Zm1-1L102,86.68,104,84.42a1.35,1.35,0,0,1,1.5-1.64L106.75,84a1.33,1.33,0,0,1-1.53,1.56l-2.24,2V88.1Zm4.11-3.86h0a0.7,0.7,0,0,0,.14-1.13l0,0,2.07,2.07,0,0a0.74,0.74,0,0,0-1,.2h0l-1.16-1.11Zm0.23-1.22,0.65-.68,0.2,0.17,0.48,0.43,0.48,0.45,0.45,0.48,0.43,0.51L108.57,83l-0.71.65-2.07-2.07Zm-58.14,8H43.23l0.2,3.29h3.43l0-.14,0.17-.54,0.14-.54,0.14-.54,0.14-.54L47.62,90l0.09-.43ZM72,79.74a8.23,8.23,0,0,0,.2,3,2.29,2.29,0,0,1,.09,1.79,1.64,1.64,0,0,1-1,1,0.7,0.7,0,0,1-.23,0h0l-1.84-.65h0a1.17,1.17,0,0,1-.48-1.28A2,2,0,0,1,70,82.09a5.16,5.16,0,0,0,2-2.32Zm-1.11,5.84L70.78,86l-1.64-.57,0.2-.45Zm-0.14.54v0l1.45,0.51c-1.08.34-1.9,0.88-1.93,1.84l-2-.68c0.54-.85.11-1.73-0.48-2.64l1.28,0.4,0-.06,1.64,0.57Zm-0.51,2.47a3.06,3.06,0,0,0,.2,1l-2.95-1a2.73,2.73,0,0,0,.71-0.68l2,0.68h0Zm0.43,1.16-1.47,4.37-3.71-1.22,0,0c0.51-1.45,1-2.92,1.5-4.37l0.43,0.17h0l3.23,1.13Zm-1.53,4.42a2.47,2.47,0,0,0-.85.48l-2.55-1A3.43,3.43,0,0,0,65.51,93l3.6,1.19h0Zm-0.91.54c-0.57.54-.65,1.3-0.14,2.41l-3.63-1.19v0a1.83,1.83,0,0,0,1.3-2.13Zm-0.11,2.52-0.17.6-3.69-1.33,0.2-.51,3.69,1.22Zm0,0.74,0.2,0.09-0.74,2-4.37-1.9,0.51-1.64,0.51,0.11v0l3.88,1.39v0ZM66,104.17L63.38,111l-3.8-1.36h0l2.24-7.2L66,104.2v0ZM63.3,111c-1.08.43-1.36,1.28-.85,2.58l-3.63-1.39c1-.45,1.28-1.28.82-2.49l3.66,1.33v0Zm-0.82,2.66A35.19,35.19,0,0,1,59.67,120c-0.45.79-1.25,1.42-1,2.81a2.12,2.12,0,0,1,.09.57l-3.26-1.13c0.11-.14.28-0.26,0.43-0.4,0.77-.68.88-1.84,1-3.12a23.26,23.26,0,0,1,1.76-6.49l3.74,1.45v0Zm-3.66,9.81a1,1,0,0,1-.4,1l-3.2-1.11a1,1,0,0,1,.28-1l3.32,1.16v0Zm-0.48,1a1.49,1.49,0,0,1-.43.14,1.86,1.86,0,0,0-1.33,1.7c-0.51,1.3-1,2.64-1.5,3.94a0.88,0.88,0,0,1-.74-0.17c0.4-1.36.77-2.69,1.16-4.05a2,2,0,0,0-.09-2.3,2.34,2.34,0,0,1-.2-0.37l3.09,1Zm29.14-11.11L81.95,111,84,115.37l3.69-1.3-0.2-.65h0Zm-3.43,2,0,0.09c1.25,0.31,1.62,1,1.13,2.13l3.23-1.16h0c-1.25-.45-1.5-1.25-0.77-2.35L84,115.43v0Zm1.16,2.3A20.64,20.64,0,0,0,88,122.6a4.34,4.34,0,0,1,.91,3l2.49-1.08A4.27,4.27,0,0,1,89.94,122a21.6,21.6,0,0,0-1.47-5.44l-3.26,1.16v0Zm3.69,7.94c0,0.14,0,.26-0.06.4a1.8,1.8,0,0,1,.51.17l2.27-.91a2.19,2.19,0,0,1,.2-0.45,4.36,4.36,0,0,1-.37-0.34l-2.55,1.11v0Zm0.54,0.62c1.13,0.68,2,2.66,3,4.59a0.36,0.36,0,0,0,.68-0.23c-1-2.27-1.7-4.14-1.47-5.22Zm7.26-34.87-0.43.17A4.28,4.28,0,0,1,94,94.28c-0.26.14-.48,0.31-0.71,0.45L95.81,97a9,9,0,0,0,.45-0.91,3.82,3.82,0,0,1,2.49-2.24l0-1h0l-0.06,0-0.06,0-0.06,0-0.06,0-0.09,0-0.09,0-0.09,0h-0.6l-0.09,0-0.09,0-0.09,0-0.06,0-0.06,0-0.06-.06-0.06-.06-0.06-.06-0.06-.06-0.06-.06L97,92.52l-0.09-.14-0.09-.14-0.06-.14L96.72,92l0-.14,0-.14V91.39ZM93.2,94.79c-0.23.17-.48,0.34-0.71,0.54l2.78,2.47c0.17-.26.31-0.51,0.45-0.77l-2.55-2.27Zm-0.77.6a29,29,0,0,0-3.51,3.88v0.14L89,99.5l0.11,0.11,0.11,0.11,0.11,0.11,0.11,0.11,0.11,0.11,0.11,0.09,0.11,0.09,0.11,0.09L90,100.4l0.11,0.09,0.11,0.09,0.11,0.09,0.11,0.09,0.11,0.09,0.11,0.09L90.82,101l0.11,0.09L91,101.17l0.11,0.09,0.11,0.09,0.11,0.09,0.11,0.09,0.11,0.09,0.11,0.06,0.11,0.06L92,101.76l0.11,0.06,0.09,0a41.76,41.76,0,0,0,3.09-4l-2.81-2.49v0Zm-3.51,4.14a1.49,1.49,0,0,1-1.76,1.62l0.06,0.06,0.11,0.14,0.11,0.14,0.11,0.11,0.11,0.11,0.11,0.11,0.11,0.11L88,102l0.11,0.11,0.11,0.11,0.11,0.11,0.11,0.11,0.11,0.11,0.11,0.11,0.11,0.11L88.92,103,89,103.07l0.11,0.09,0.11,0.09,0.11,0.09,0.11,0.09,0.11,0.09,0.11,0.09,0.11,0.09,0.11,0.09,0.11,0.09,0.11,0.09L90.28,104l0.11,0.06h0a1.65,1.65,0,0,1,1.47-2.15h0l-0.06,0-0.14-.06-0.11-.06-0.11-.06-0.11-.06-0.11-.09-0.11-.09L91,101.4l-0.11-.09-0.11-.09-0.11-.09-0.11-.09L90.43,101l-0.11-.09-0.11-.09-0.11-.09L90,100.63l-0.11-.09-0.11-.09-0.11-.09-0.11-.09-0.11-.09-0.11-.09L89.18,100l-0.11-.11L89,99.78l-0.11-.11-0.11-.11-0.06-.06Zm-1.81,1.67-4.85,5.22,4.82,2.1,3.54-4.22a0.1,0.1,0,0,0,0-.09l-0.06,0-0.11-.06L90.31,104l-0.11-.09-0.11-.09L90,103.78l-0.11-.09-0.11-.09-0.11-.09-0.11-.09-0.11-.09-0.11-.09-0.11-.09-0.11-.11L89,103l-0.11-.11-0.11-.11-0.11-.11-0.11-.11-0.11-.11-0.11-.11-0.11-.11L88,102l-0.11-.11-0.11-.11-0.11-.11-0.11-.11-0.11-.14-0.11-.14-0.06-.06ZM51.76,95.64c1.39,0.23,2.89.57,3.49,0.11A2.74,2.74,0,0,1,58,95.58a1.78,1.78,0,0,1,1.42,1.59v0.17l-1.16,2.58-0.17.09a2.37,2.37,0,0,1-2.41.06,2.75,2.75,0,0,1-1.47-2.21C54.17,97,53,96.32,51.73,95.61Zm7.68,1.93a0.31,0.31,0,0,0,.23.28,0.85,0.85,0,0,0,.62.14l-1,2.24a0.87,0.87,0,0,0-.34-0.28,0.65,0.65,0,0,0-.51,0l1-2.32ZM98.05,87.11a4.55,4.55,0,0,1,4.54,4.54A4.49,4.49,0,0,1,101.11,95V94.56l0-.34L101,93.88l-0.09-.34-0.09-.34-0.11-.31-0.14-.31-0.17-.31L100.26,92l-0.2-.28-0.23-.28-0.23-.26-0.26-.26-0.28-.23-0.31-.23-0.11-.06-0.11-.06-0.11-.06-0.11,0-0.11,0H97.85l-0.11,0-0.11,0-0.11,0-0.11.06-0.09.06-0.09.06-0.09.09-0.09.09L97,90.74l-0.06.09-0.06.11L96.8,91l0,0.11,0,0.11,0,0.11h0l-0.09,0,0,0,0,0-0.09,0,0,0,0,0-0.09,0-0.09,0-0.06.17-0.06.14-0.06.14L96,92.18,96,92.3l-0.06.11-0.06.11-0.06.11-0.06.11-0.06.09-0.06.09L95.56,93l-0.06.09-0.06.09-0.06.09-0.09.09-0.09.09-0.09.09L95,93.57,95,93.63l-0.09.06-0.09.06-0.09.06-0.09.06-0.09.06L94.45,94,94.37,94l-0.09.06-0.06,0a4.67,4.67,0,0,1-.68-2.41,4.53,4.53,0,0,1,4.54-4.54Zm0.79,5.7,0.06,0,0.06,0,0.06,0,0.06,0,0,0,0.09,0.17,0.11,0.26,0.09,0.26,0.09,0.26,0.06,0.26,0,0.26,0,0.23v0.45l0,0.23,0,0.23-0.06.23-0.06.23-0.09.2-0.09.17a4,4,0,0,1-1.19.17,4.58,4.58,0,0,1-1.64-.31l0-.09,0.06-.11,0.06-.11,0.06-.09,0.06-.09,0.06-.09,0.06-.09,0.06-.09,0.06-.09L96.94,95,97,94.93l0.09-.09,0.09-.09,0.09-.06,0.09-.06,0.09-.06,0.09-.06,0.09-.06,0.09-.06,0.09-.06,0.09-.06,0.09-.06L98,94.2l0.09-.06,0.09-.06,0.09,0,0.09,0,0.09,0,0.11,0,0.14-.06V92.78Zm0.28-.28c1.5,2.83-.37,5.22-3,6.12q3.53,10.8,7,21.6l-12,3.94,0.06,0.06,0.09,0.09,0.09,0.09,0.09,0.09,0.11,0.09,0.11,0.09,0.11,0.09L92,124.89l0,0,13.38-3.63c-2.52-7.11-5-14.26-7.54-21.37,4.17-2.13,4.22-7.29,1-9.41a1.3,1.3,0,0,0-1.64,2,1.35,1.35,0,0,0,2,0v0Zm-10.29,32.4-5.41,1.79c-0.82.23-.6,0.82,0.17,0.54l5.22-1.42v-0.94h0ZM58.17,81.47a15.81,15.81,0,0,0-2-7.65l0.14-.37,0.2-.6,0.2-.6,0.2-.6,0.2-.57,0.2-.57L57.46,70l0.17-.57,0.17-.57,0.14-.57,0.14-.6,0.14-.6,0.09-.43a21.3,21.3,0,0,1,1.42,5.78,13.39,13.39,0,0,0,2.81,7.26l-0.14.06L61.91,80l-0.31.14-0.31.14-0.34.14-0.34.14-0.34.14-0.34.14L59.58,81l-0.34.14-0.34.14-0.34.14-0.34.11-0.09,0ZM56.1,73.73C56,73.67,56,73.59,56,73.53a19.28,19.28,0,0,1-2.86-8,4.21,4.21,0,0,0-2.35-3.66c-0.14-.48-0.26-0.94-0.4-1.42l0.77-.31v0.06l4.37-1.5v0l0.71-.23c0.17,0.48.34,0.94,0.54,1.42a4.32,4.32,0,0,0,.43,4.59,16.21,16.21,0,0,1,1.08,2.1l-0.11.54-0.14.6-0.14.6-0.14.57-0.17.57L57.34,70l-0.17.57-0.2.57-0.2.57-0.2.6-0.2.6-0.2.6-0.11.31ZM51.22,60c-0.11-.26-0.17-0.51-0.28-0.77L55,57.83c0.09,0.26.2,0.54,0.31,0.79Zm-0.31-.82a0,0,0,0,0,0,0l-0.82.28-0.51-1.36c1.22-1.39.88-3.09-.57-3.57a2.28,2.28,0,0,0-2.89,1.93l-1.81.11C42.55,50.8,40.85,45,39.12,39.2a7.64,7.64,0,0,0,2.47,2l2.64,7.74,0.09,0L41.7,41.19a2.55,2.55,0,0,0,.79.23L45,48.67l0.09,0-2.47-7.23a6,6,0,0,0,.74.06l2.38,7,0.09,0L43.4,41.47a2.8,2.8,0,0,0,.68-0.09l2.32,6.86,0.09,0-2.32-6.83a5.71,5.71,0,0,0,.65-0.2L47.14,48l0.09,0L44.9,41.13c0.2-.09.4-0.17,0.62-0.28l2.35,6.94,0.09,0-2.35-6.94,0.6-.34,2.41,7.11,0.09,0-2.44-7.14a6.88,6.88,0,0,0,.57-0.4l2.49,7.34,0.09,0-2.52-7.4s0,0,.06,0c0.26,0.14.51,0.26,0.79,0.4l2.32,6.83,0.09,0-2.3-6.77,0.88,0.45,2.07,6.12,0.09,0-2.07-6c0.31,0.17.6,0.34,0.88,0.51l1.81,5.33,0.09,0L49.8,41.41c0.31,0.2.62,0.4,0.94,0.62l1.5,4.42,0.09,0-1.47-4.34a10.35,10.35,0,0,1,1,.88l0.82,2.44V45.5l0,0.09,0,0.09,0,0.09,0,0.09,0,0.09,0,0.09v2h0l-0.06,0-0.06,0-0.06,0-0.06,0-0.06,0-0.06,0-0.06,0-0.06,0,0,0,0,0,0,0,0,0.06,0,0.06V48.7l0,0.06,0,0.09,0,0.06,0,0.09,0,0.11,0,0.11,0,0.11,0,0.11,0,0.11,0,0.11,0.06,0.11,0.06,0.11L52.7,50l0.06,0.11,0.06,0.11,0.06,0.11,0.06,0.11L53,50.57,53,50.68l0.06,0.11,0.06,0.11L53.21,51l0.06,0.11,0.06,0.11,0.06,0.11,0.06,0.11,0,0.11,0,0.11,0,0.11,0,0.11,0,0.11,0,0.11,0,0.11,0,0.11v0.51l0,0.06,0,0.06v0c-0.68,1.79,0,2.72,1.7,3,0.14,0.4.31,0.79,0.45,1.19-0.31.14-.65,0.26-1,0.4h0L50.85,59.1Zm1-16a6.69,6.69,0,0,1,1.3,2h0l-0.09,0H52.89l-0.11,0-0.14,0-0.68-2Z" style="fill: #fc0"/>
  </g>
</svg>
