<?xml version="1.0" encoding="UTF-8" standalone="no"?>
<svg
    xmlns:dc="http://purl.org/dc/elements/1.1/"
    xmlns:cc="http://creativecommons.org/ns#"
    xmlns:rdf="http://www.w3.org/1999/02/22-rdf-syntax-ns#"
    xmlns:svg="http://www.w3.org/2000/svg"
    xmlns="http://www.w3.org/2000/svg"
    xmlns:sodipodi="http://sodipodi.sourceforge.net/DTD/sodipodi-0.dtd"
    xmlns:inkscape="http://www.inkscape.org/namespaces/inkscape"
    version="1.1"
    preserveAspectRatio="none"
    viewBox="0 0 29633 7112"
    id="banners"
    inkscape:version="0.48.4 r9939"
    width="100%"
    height="100%"
    sodipodi:docname="banners.svg">
   <metadata
       id="metadata9">
      <rdf:RDF>
         <cc:Work
             rdf:about="">
            <dc:format>image/svg+xml</dc:format>
            <dc:type
                rdf:resource="http://purl.org/dc/dcmitype/StillImage" />
         </cc:Work>
      </rdf:RDF>
   </metadata>
   <defs
       id="defs7" />
   <sodipodi:namedview
       pagecolor="#ffffff"
       bordercolor="#666666"
       borderopacity="1"
       objecttolerance="10"
       gridtolerance="10"
       guidetolerance="10"
       inkscape:pageopacity="0"
       inkscape:pageshadow="2"
       inkscape:window-width="640"
       inkscape:window-height="480"
       id="namedview5"
       showgrid="false"
       inkscape:zoom="0.01815543482"
       inkscape:cx="14816.5"
       inkscape:cy="3556"
       inkscape:current-layer="banners" />
   <g
       id="g">
      <path
          d="m 29387,6413 c -12,-32 -36,-94 -36,-94 -52,65 -36,1 -37,5 14,-21 81,-472 52,-472 1.84301,-353.945819 -180.51144,-929.317638 -106,-1010 49.95482,360.939847 119,205 119,205 0,-147 -36,-442 -36,-442 -17,-100 -3.29066,-173.044718 -24,-237 17.69145,-192.834158 13.6234,-325.967463 29,-519 -5.94874,-49.214022 9.99769,-410.146863 -8,-802 70,-147 -1,-153 24,-301 0,0 -111.11357,-128.618638 -30,-240 36,-143 -21,-279 -21,-422 13,-80 33,-162 52,-243 -34,109 -103,326 -103,326 -119.95559,158.416088 194.32607,-747.592888 72,-591 -21,-18 -7,-54 -7,-54 9,-28 52,-485 40,-485 -8,-106 -4,-264 -30,-369 -7,-103 23,-332 -97,-427 -122,-91 -493,56 -702,-14 -217,-68 -406,40 -681,1 -289,-38 -630,7 -942,6 0,0 -583,16 -577,16 -310,-9 -900,-15 -1021,-17 59,1 153,5 151,5 -127,5 14,0 17,0 l 103,4 -241,1 c -155,-8 -142,-8 -129,-8 -62,-2 -166,-2 -225,-2 -16,3 16,2 35,2 l 86,3 c -110,0 -327,-7 -327,-7 -181,0 -543,-3 -543,-3 146,8 439,22 439,22 128,1 380,7 380,7 -205,4 35,2 43,2 l 197,7 c -372,-2 -1111,-19 -1111,-19 -40,-4 -32,-4 -26,-4 -103,-3 -310,-10 -310,-10 -85,2 -873,10 -871,2 -1035,-39 -1077,-148 -2146,-19 49,4 -13,4 -26,3 -37,4 -112,14 -112,14 55,2 164,7 164,7 -11,-5 -34,-14 -34,-14 157,0 327,55 482,62 l -42,-4 232,5 c 127,13 133,13 121,12 -75,0 -224,-10 -224,-10 -44,-8 10,5 -61,0 73,9 -181,-29 -198,-27 318,21 280,80 267,80 -130,0 -259,-64 -388,-68 -17,1 -52,3 -51,3 -6,-2 -18,-7 -18,-7 -72,-1 -215,-7 -215,-7 39,6 30,6 26,6 -62,-2 -182,-10 -189,-11 l 42,0 c -28,-1 -86,-3 -86,-3 -147,23 -440,10 -439,10 -90,-7 -268,-22 -268,-22 142,-2 40,0 -69,-9 8,7 -129,0 -129,0 -23,5 -60,17 -60,17 11,0 31,2 34,2 -17,0 -51,2 -51,2 l 153,3 -145,-2 c 194,23 -78,7 -43,9 -8,3 -26,9 -26,9 l 301,13 -591,-5 14,0 c -159,-9 -292,-2 -482,-14 -98,-10 224,-4 189,-5 l -137,-10 8,0 -128,-8 559,18 c -14,-1 -40,-3 -43,-3 l 34,0 -76,-5 76,3 c -23,-11 -69,-32 -69,-32 -100,1 -301,3 -301,3 49,10 -128,2 -130,2 l -198,2 197,3 -16,0 c 49,1 147,3 147,3 -290,3 -871,9 -871,9 l 801,31 -165,-2 c 28,1 36,3 80,2 -25,2 856,54 836,53 -18,0 -52,2 -52,2 -151,11 46,3 112,1 -92.55645,-1.2442364 -4016.48006,13.5398417 -4395,-7 354.92614,3.843512 915.21507,39.868625 1025,-5 -183,-4 -553,-26 -552,-26 -402,-10 -1198,-13 -1223,-14 29,0 86,-2 86,-2 100,0 294,2 323,2 l -4,0 c 45,2 137,5 137,5 448,-14 -3,-7 -25,-7 -235,-4 -708,-5 -707,-5 -199,-8 -384,-23 -586,-26 -412,-22 -440,-19 -414,-20 210,-1 436,5 647,10 462,-3 1387,7 1387,7 -593,19 85,3 129,2 101,1 302,3 302,3 l -224,-8 c 58,0 172,-2 172,-2 -98,-5 -293,-4 -293,-4 l -586,-27 336,5 c -534,-23 -1045,-40 -1585,-41 96,12 97,12 94,12 9,0 26,0 26,0 -8,2 -26,2 -26,2 61,0 181,1 181,1 l 300,4 -13,0 144,2 c -563,4 -1045,28 -1612,18 -2,2 -8,7 -8,7 -98,-3 -293,-9 -293,-9 -58,0 -173,0 -173,0 -117,-6 26,-4 52,-3 -128,-8 -5,-16 -8,-16 -624,-3 -3001,107 -3001,107 -552,-8 -1020,-46 -1560,-64 -13,0 -107,-2 -94,-12 -177,-9 -473,-28 -647,-25 -346,8 -687,8 -1034,8 57,2 172,5 172,5 335,32 356,31 328,31 -206,-4 -617,-30 -629,-31 318,2 -37,-1 -44,-1 -198,-9 -303,-5 -499,6 95,6 284,16 284,16 38,4 -9,3 -9,3 -106,-1 -222,-7 -327,-13 106,-2 -20,-2 -26,-2 -406,27 -1207,99 -1207,99 115,4 345,12 345,12 258,23 269,22 242,22 -172,-4 -347,-7 -518,-12 194,-26 -205,-7 -267,-3 126,12 117,12 112,12 -309,-4 -120,-82 -491,-49 326,23 288,92 276,92 -132,-3 -265,-76 -397,-80 -70,6 -1618,43 -1618,31 4,-26 666,-108 758,-120 -629.751796,36.9454666 -838.732341,78.5110376 -1560,141 63,0 130,3 130,3 -164,7 21,0 26,0 l 137,5 c -137,1 -108,4 -247,0 -30,6 -27,19 -27,19 372,2 912,39 912,39 -604,16 99,2 129,2 216,2 647,8 647,8 -677,5 -1075,-20 -1757,-30 -61,17 -515,-73 -449,-1 l 17,257 20,1158 48,286 c -15,202 14,605 14,605 15,65 26,197 26,197 -65,165 15,102 13,88 -23,230 78,691 78,691 12,24 36,74 36,74 C 473,3684 370,3515 370,3515 349,3293 237,978 237,978 l -7,-1 c 0,0 75,3150 75,3149 10,356 -21.0057959,668.345981 4.8,1032 79,217 -36,653 3,871 27,203 149.2,260 87.2,442 -5,15 -9,2 -9,2 3,52 29,91 89,139 62,46 127,77 233,112 108,34 5,56 142,75 145,19 264,26 419,27 2,1 501,-14 493,-13 116,9 216,16 336,12 185,-14 303,-33 500,-35 287,13 277,13 267,14 672,9 721,91 1496,69 105,-3 196,3 302,-6 -6,0 -18,0 -18,0 226,-5 165,2 354,-22 -12,0 -35,0 -35,0 l 154,-12 c -213,13 -230,12 -447,9 63,-5 190,-14 190,-14 98,0 293,2 293,2 40,-4 121,-10 121,-10 11,4 34,12 34,12 698,8 -144,14 34,13 3,1 9,4 9,4 96,0 295,3 293,3 43,-1 130,-3 129,-3 24,1 69,6 69,6 85,2 260,11 259,11 29,-1 86,-4 86,-4 509,30 467,-39 431,-37 170,9 509,31 509,31 -514,7 23,7 215,8 -118,-20 9,-14 34,-13 118,-2 354,-4 354,-4 -178,-17 -185,-17 -173,-17 66,2 200,14 199,14 l 69,3 c -208,-41 -32,-34 25,-32 133,3 397,15 397,15 32,-1 95,-3 95,-3 10,0 1,1 0,1 3,2 8,5 8,5 139,10 56,11 26,7 -21,0 -64,3 -68,4 114,0 336,10 335,10 15,-1 44,-3 44,-3 -125,-13 -2,-19 17,0 33,1 97,1 110,1 -13,0 -33,2 -33,2 953,27 -725,14 -594,15 208,22 971,18 913,18 -59,-8 71,2 61,1 37,0 112,0 112,0 97,14 293,41 293,41 69,-2 207,-8 207,-8 -49,-6 -147,-17 -147,-17 -38,-6 -190,-7 -206,-7 108,-12 137,-20 258,-21 -141,-4 -423,-13 -423,-13 -149,-6 -448,-18 -448,-18 -223,-11 -301,-16 -543,-22 49,-2 147,-5 147,-5 -76,-4 -224,-17 -224,-17 -196,0 -586,-16 -586,-16 -41,0 -121,0 -121,0 l 43,6 c -161,-5 -483,-7 -483,-7 17,2 52,7 52,7 -140,-7 -422,-11 -422,-11 36,4 107,12 112,12 -309,-1 41,4 51,4 58,6 173,19 173,19 133,5 183,-2 362,10 35,2 36,3 8,5 -100,4 -259,-1 -362,-5 151,-9 52,-6 35,-5 6,0 17,1 17,1 -41,-2 -148,-2 -215,-5 31,0 95,-1 95,-1 -153,-8 -457,47 -457,47 -117,-9 -146,-15 -276,-18 1,-1 45,-2 52,-2 -84,-8 -100,-2 -181,0 -179,-4 -535,-12 -535,-12 30,3 90,8 95,8 l -362,-24 c -205,-10 -360,-11 -569,-27 183,-1 264,1 440,14 -159,2 -41,0 60,5 -6,-5 308,9 302,8 89,0 267,0 267,0 l -163,-12 c 76,0 233,4 232,4 -103,6 -56,6 -43,7 630,-4 1186,-5 1818,7 351,-7 1052,-19 1052,-19 54,-15 612,-1 741,3 132,-1 397,-3 397,-3 -154,-8 -456,-27 -466,-28 370,4 679,24 1052,24 464,1 1396,28 1396,28 -51,-3 -233,-16 -233,-16 58,-1 173,-5 173,-5 224,2 672,17 672,17 -65,2 -190,5 -206,5 l 120,0 c 83,0 250,-1 250,-1 440,10 168,8 94,8 -57,1 -172,4 -172,4 37,5 22,5 17,5 -204,3 -612,-10 -612,-10 57,6 -403,-2 -455,-4 7,1 16,2 16,2 -175,-2 -526,-5 -526,-5 66,2 198,7 198,7 -648,2 89,6 112,6 63,1 190,4 190,4 34,2 33,3 18,3 l 240,4 c 162,8 167,7 155,8 -39,1 -110,1 -167,0 l 211,4 c 742,22 459,20 388,20 100,2 301,5 301,5 433,21 444,20 414,21 -210,1 -437,-5 -647,-10 -186,3 -560,6 -560,6 -386,9 -1196,-3 -1189,-3 109,-3 328,-9 327,-9 -133,-1 -426,7 -422,7 -164,-2 -491,-77 -491,-77 244,-1 733,65 732,65 -183,-2 -551,-7 -551,-7 273,-3 819,-10 818,-10 l 7,0 -136,-2 c 583,-2 588,-1 569,-3 -5,-1 -43,-1 -95,-3 124,0 371,1 371,1 -399,-9 -1198,-27 -1198,-27 -106,-5 -319,-15 -319,-15 -93,0 -269,-2 -304,-2 15,0 37,2 37,2 -52,1 -155,5 -155,5 139,7 112,-1 232,-2 84,3 251,10 250,10 l -239,4 c 78,0 905,4 903,10 l 52,2 c 53,9 22,8 17,8 -74,2 -236,0 -233,0 l 198,9 -1378,-87 c -113,-3 -226,62 -337,63 l -77,-4 189,0 c -111,-5 -336,-1 -336,-1 16,0 69,3 78,3 359,23 51,-46 -9,-46 19,1 137,7 138,7 203,6 512,13 707,24 299,15 52,15 -52,15 l -73,2 -1,0 c -64,0 118,6 100,5 201,-1 317,66 534,70 -2,0 -8,-2 -8,-2 416,-5 530,-8 948,7 -142,3 -422,13 -439,14 166,1 491,-12 491,-12 43,1 129,3 129,3 112,2 336,6 336,6 -12,-2 -56,-4 -35,-9 -37,0 -112,-2 -112,-2 92,-3 32,-1 -25,0 l -138,-5 c 39,0 466,-1 465,4 219,6 435,11 655,15 98,-1 293,-2 293,-2 l 895,11 -7,0 c 789,1 2370,-102 2370,-102 l 526,0 c 279,-2 853,-2 853,-2 26,-2 78,-6 78,-6 12,1 34,6 34,6 178,-1 526,-4 558,-5 -63,0 -266,-13 -248,-12 70,-3 207,-12 207,-12 3,1 9,4 9,4 215,8 332,15 551,12 -100,-1 -301,-4 -301,-4 235,-6 707,-19 707,-19 532,17 537,15 517,18 15,0 224,0 224,0 798,0 1167,8 1956,-14 99,15 296,43 302,44 l 9,0 c 698,84 612,-52 1172,-35 63,3 136,9 198,14 -63,-2 -190,-2 -190,-2 0,2 0,5 0,5 87,1 154,5 242,0 138,10 412,32 422,33 l -59,-2 7,0 c -58,-2 -288,19 -267,17 -6,7 -17,19 -17,19 71,-1 462,-13 500,-20 179,16 748,-17 870,24 187,44 1648,-12 1928,-15 -51,-4 -155,-11 -155,-11 55,-2 545,-3 545,-3 136,-1 252,-4 385,-13 126,-8 235,-19 353,-34 244,-34 359,99 552,39 191,-62 308,-117 421,-198 110,-85 160,-156 168,-248 l 10,-17 -1,17 c -5,94 -49,164 -156,251 -110,82 -227,139 -416,204 -195,62 -309,-69 -558,-33 -260,35 -477,49 -758,50 l -140,-1 -60,3 200,3 c 284,-1 500,-15 764,-50 250,-37 367,95 563,32 191,-65 311,-123 422,-206 109,-87 153,-158 159,-253 -1,0 7,-56 7,-55 22,-35 17,45 17,45 z m -4070,-6180 -14,0 -6,0 -2,0 m -302,0 -2,0 3,0 z m -2,0 -41,0 z m -6386,46 -4,0 -2,0 m -4506,-83 -2,0 z m -8970,6637 0,0 1,0 0,0 m 3190,11 -1,0 z m 3896,-18 -1,0 z m -758,2 c -5,0 -6,0 -1,0 z m 8,17 c -14,0 -40,-1 -59,-1 z m -59,-1 -4,0 -3,0 -4,0 m 298,13 -7,0 -75,-2 0,0 m -580,14 2,0 z m -1112,-51 -2,0 -1,0 -3,0 m 131,19 -2,0 z m -214,5 2,0 m 1133,94 -1,0 z m 5843,-93 9,0 c -4,0 -9,0 -9,0 z m 1523,-7 2,0 z"
          id="path4"
          style="fill:#999999"
          inkscape:connector-curvature="0"
          sodipodi:nodetypes="cccccccccccccccccccccccccccccccccccccccccccccccccccccccscccccccccccccccccccccccccccccccccccccccccccccccccccccccccccccccccccccccccccccccccccccccccccccccccccccccccccccccccccccccccccccccccccccccccccccccccccccccccccccccccccccccccccccccccccccccccccccccccccccccccccccccccccccccccccccccccccccccccccscccccccccccccccccccccccccccccccccccccccccccccccccccccccccscccccccccccccccccccccccccccccccccccccccccccccccccccccccccccccccccccccccccccccccccccccccccccccccccsccccccccccccccccccccccccccccccccc" />
   </g>
</svg>
