<svg id="city_uly" data-name="uly" xmlns="http://www.w3.org/2000/svg" width="52.5mm" height="52.5mm" viewBox="0 0 148.82 148.82">
  <title>uly</title>
  <g id="uly">
    <path d="M64.91,28.94c0-.14,0-0.26,0-0.4a0.71,0.71,0,1,1-.6-1.11,0.78,0.78,0,0,1,.62.34,5.34,5.34,0,0,1,.71-2.27,1,1,0,0,1-.28.06A0.71,0.71,0,1,1,66,24.86v0.06a6.11,6.11,0,0,1,1.73-1.39,0.71,0.71,0,0,1-.45-0.68,0.71,0.71,0,1,1,1.42,0c0,0.09,0,.17,0,0.23a10.45,10.45,0,0,1,2.07-.6,0.77,0.77,0,0,1-.31-0.57,0.71,0.71,0,0,1,1.42,0,0.92,0.92,0,0,1-.11.4c0.37-.06.74-0.11,1.13-0.14a0.7,0.7,0,0,1,0-.23,1.29,1.29,0,0,1,.48-1c0-.17,0-0.37.06-0.51a2,2,0,0,0-1.16.4V18.43a1.66,1.66,0,0,0,1.13.43,1.86,1.86,0,0,0-.23-1.13h2.1A2,2,0,0,0,75,18.85a1.78,1.78,0,0,0,1.13-.43v2.41a2,2,0,0,0-1.16-.4c0,0.14,0,.34.06,0.51a1.29,1.29,0,0,1,.48,1,0.55,0.55,0,0,1,0,.23c0.4,0,.77.09,1.13,0.14a0.65,0.65,0,0,1-.11-0.4,0.71,0.71,0,0,1,1.42,0,0.65,0.65,0,0,1-.31.57,16.49,16.49,0,0,1,2.07.6,0.62,0.62,0,0,1,0-.23,0.71,0.71,0,1,1,1.42,0,0.75,0.75,0,0,1-.45.68,6,6,0,0,1,1.73,1.39V24.86a0.71,0.71,0,1,1,.71.71,0.84,0.84,0,0,1-.28-0.06,5.34,5.34,0,0,1,.71,2.27,0.72,0.72,0,1,1,0,.77,1.87,1.87,0,0,1,0,.4,2.3,2.3,0,0,1,1.25.6c-1.84.85-2.75,3.15-3.54,5.61H67.32c-0.79-2.47-1.7-4.76-3.54-5.61a2.12,2.12,0,0,1,1.25-.6H64.91Z" style="fill: #fc0"/>
    <path d="M84.16,38.13v0h0c0,1-1.7,1.79-2.44,1.79H81.64l1.62,55.7h1.53v1.42h0.54v2h1.76v3.69H85.29v2.52H83.57v18.09h1.73v1.84h0.62v1.93h2.55v4H60.38v-4h2.55v-1.93h0.62v-1.84h1.73V105.28H63.55v-2.52H61.77V99.07h1.76v-2h0.54V95.64h1.53l1.5-55.7H67c-0.74,0-2.35-.79-2.35-1.79h0v0H64.06V35.18H84.81v2.95H84.16Z" style="fill: #999"/>
    <path d="M67.18,106.81h5.75v1.42A6,6,0,0,0,68.37,114h0a6,6,0,0,0,1.76,4.22h0a5.91,5.91,0,0,0,2.81,1.59v2H67.18V106.81Zm8.59,0h5.75v15.08H75.77v-2a5.91,5.91,0,0,0,2.81-1.59h0A6,6,0,0,0,80.33,114h0a6,6,0,0,0-1.76-4.22h0a5.91,5.91,0,0,0-2.81-1.59v-1.42Z" style="fill: #fff"/>
  </g>
</svg>
