<?xml version="1.0" encoding="UTF-8" standalone="no"?>
<svg
    xmlns:dc="http://purl.org/dc/elements/1.1/"
    xmlns:cc="http://creativecommons.org/ns#"
    xmlns:rdf="http://www.w3.org/1999/02/22-rdf-syntax-ns#"
    xmlns:svg="http://www.w3.org/2000/svg"
    xmlns="http://www.w3.org/2000/svg"
    xml:space="preserve"
    version="1.1"
    viewBox="0 0 190 40"
    id="bzlogo-transparent">
    <defs
       id="defs4"><style
          type="text/css"
          id="style6">
    .fil0 {fill:#FFCC00}
    .fil1 {fill:#FFFFFF;fill-rule:nonzero}
    .fil2 {fill:#000000;fill-rule:nonzero}
   </style></defs><g
       id="Слой_x0020_1"
       transform="matrix(0.0036571517,0,0,0.0035692861,0,2.000667055)"><metadata
          id="CorelCorpID_0Corel-Layer" /><g
          id="_216805824"><path
             class="fil0"
             d="m 31894,2091 c 2073,478 4237,-253 6145,-1798 l 2234,8776 c -608,534 -1285,865 -1991,1050 -1052,241 -2144,246 -3300,34 -437,-78 -864,-178 -1271,-287 L 31894,2091 z"
             id="path11"
             style="fill:#ffcc00" /><path
             class="fil1"
             d="m 27786,6835 c -153,48 -311,90 -456,155 -9,4 -115,53 -109,59 l -1,1 c -24,27 -42,56 -54,87 -16,38 -23,85 -23,140 0,65 7,121 23,170 14,47 36,91 65,130 61,84 136,84 225,41 94,-45 195,-147 244,-241 36,-71 42,-122 62,-191 7,-41 13,-103 18,-184 2,-47 4,-103 6,-167 z m 8269,-3350 471,2207 c 31,162 63,324 96,485 6,28 12,59 19,90 41,-27 82,-57 105,-75 l 154,-116 c 73,-55 161,-69 247,-40 87,30 148,95 172,184 l 360,1336 c 27,100 -4,201 -82,270 l -61,54 c -272,238 -593,384 -948,450 -243,46 -488,32 -721,-50 -225,-80 -420,-214 -566,-404 -143,-186 -237,-420 -308,-643 -100,-318 -164,-700 -227,-1029 l -467,-2384 -195,36 c -138,26 -272,-60 -307,-196 l -5,-18 -1084,1687 c 74,339 151,688 227,1035 l 993,2394 0,0 c 79,189 -11,405 -199,484 -48,19 -97,28 -145,28 83,360 136,579 144,581 0,0 1,1 1,1 0,0 0,1 0,1 491,131 918,248 1371,314 879,98 1668,124 2444,-40 806,-148 1468,-401 2148,-879 l -12,-6 c -210,-100 -392,-250 -543,-448 -143,-187 -250,-397 -320,-630 l 0,0 c -2,-7 -4,-14 -6,-20 -64,-221 -96,-461 -96,-719 0,-173 15,-341 46,-502 32,-162 79,-316 143,-461 66,-151 146,-284 239,-401 69,-86 146,-162 230,-230 l -144,-526 -128,-32 c -204,-51 -325,-265 -264,-466 35,-168 77,-323 127,-467 -339,-1234 -665,-2486 -1029,-3713 -464,402 -941,784 -1467,1131 -20,12 -40,24 -60,37 l 328,1280 c 19,75 8,146 -33,210 -41,65 -101,107 -177,120 l -471,80 z m -2394,-354 -152,-592 c -509,21 -1115,-7 -1489,-295 27,91 51,185 73,268 -11,-49 42,194 135,619 l 1,0 1432,0 z m 225,-1321 -2,-16 1527,-1789 234,1336 c 618,-240 1441,-731 1713,-933 272,-202 323,-253 398,-317 56,-43 107,-66 180,-82 74,-14 133,-12 206,6 72,20 122,47 174,94 50,48 76,92 93,154 312,1131 618,2261 917,3392 46,-59 95,-113 146,-164 l 0,-1 c 172,-169 394,-294 622,-369 228,-75 487,-113 777,-113 252,0 478,22 679,67 217,48 400,123 551,224 25,-20 335,291 365,327 104,126 186,265 246,419 58,147 100,343 126,591 25,230 38,505 38,823 0,758 -37,1508 -1,2268 13,283 51,546 128,818 l 0,-1073 c 0,-205 166,-371 370,-371 l 1027,0 c 204,0 370,166 370,371 l 0,1428 c 0,204 -166,370 -370,370 l -1027,0 c -138,0 -258,-76 -322,-188 -67,119 -194,191 -331,188 l -1008,0 c -152,0 -282,-92 -339,-223 -176,133 -356,227 -570,286 -194,53 -389,69 -589,52 -400,304 -794,542 -1217,727 -1444,617 -3190,780 -5460,56 -44,-19 -81,-44 -119,-78 -54,-52 -82,-99 -100,-166 l -138,-654 -700,0 c -165,0 -305,-108 -353,-258 l -709,-1761 -23,33 0,1616 c 0,204 -166,370 -370,370 l -1028,0 c -126,0 -236,-63 -303,-158 -71,101 -188,160 -311,158 l -1010,0 c -152,0 -282,-92 -339,-223 -51,38 -135,99 -192,128 -120,69 -246,122 -377,158 -142,39 -285,59 -429,59 -255,0 -487,-50 -695,-150 -210,-100 -391,-250 -543,-448 -143,-187 -250,-397 -320,-630 -68,-226 -102,-472 -102,-739 0,-174 15,-341 46,-502 32,-162 79,-316 143,-462 66,-150 145,-283 239,-399 97,-121 208,-223 334,-308 117,-79 255,-150 412,-214 35,-15 71,-29 108,-42 l -896,-226 0,1 c -57,-14 -107,-41 -149,-77 -85,60 -195,83 -304,56 -70,-18 -130,-55 -176,-104 -51,-43 -98,-76 -142,-97 -29,-13 -52,-20 -72,-20 -21,0 -38,2 -49,7 -12,6 -26,17 -42,34 l 1,1 c -5,5 -10,11 -16,16 -15,22 -31,56 -49,102 -31,78 -58,179 -83,303 -26,131 -46,335 -59,614 -13,281 -20,656 -20,1124 l 0,1668 c 0,204 -166,370 -370,370 l -1027,0 c -112,0 -212,-49 -279,-128 -141,80 -290,141 -449,183 -168,44 -343,67 -524,67 -119,0 -237,-16 -354,-46 -119,-30 -229,-75 -329,-132 l -1,0 c -4,-2 -8,-5 -12,-7 -98,-58 -184,-127 -261,-206 -82,-84 -148,-176 -199,-277 -46,-90 -85,-196 -116,-317 -29,-113 -51,-234 -67,-365 l 0,0 c -1,-11 -2,-21 -2,-32 -11,-93 -18,-219 -23,-378 -7,-197 -10,-411 -10,-639 l 0,-1983 -102,0 c -40,0 -80,-7 -116,-19 9,170 14,354 14,553 l 0,3356 c 0,204 -165,370 -370,370 l -1027,0 c -204,0 -370,-166 -370,-370 l 0,-2756 c 0,-294 -5,-526 -15,-698 -8,-138 0,-604 -251,-604 -41,0 -78,6 -110,20 -88,37 -178,142 -222,224 -33,61 -59,132 -78,212 -22,93 -39,232 -50,417 -12,191 -18,438 -18,740 l 0,2445 c 0,204 -166,370 -370,370 l -1027,0 c -136,0 -254,-73 -319,-182 -42,73 -110,131 -196,161 -42,15 -86,22 -128,21 l -1011,0 c -152,0 -282,-92 -339,-223 -55,42 -111,79 -169,114 l 1,1 c -8,5 -16,9 -24,13 -252,144 -521,217 -806,217 -255,0 -487,-50 -695,-150 -191,-91 -358,-222 -500,-394 l 0,52 c 0,204 -166,370 -370,370 l -3465,0 c -204,0 -370,-166 -370,-370 l 0,-432 c -98,155 -209,292 -332,411 l 0,0 c -7,7 -14,13 -21,19 -173,162 -367,285 -582,367 -220,85 -460,127 -718,127 -406,0 -763,-95 -1073,-285 -307,-188 -558,-466 -752,-833 l 0,1 c -6,-12 -12,-23 -17,-35 -92,-182 -168,-379 -230,-590 -86,314 -204,589 -352,823 -186,294 -398,517 -636,671 -254,165 -529,248 -826,248 -150,0 -301,-27 -452,-80 -143,-50 -282,-123 -418,-221 -76,55 -122,179 -344,179 l -953,0 C 166,9270 0,9104 0,8900 L 0,1446 c 0,-204 166,-370 370,-370 l 1027,0 c 204,0 370,166 370,370 l 0,1777 c 235,-144 486,-216 755,-216 305,0 585,79 840,235 244,148 458,365 644,648 l 0,0 c 6,9 11,18 17,28 147,233 262,506 346,818 91,-302 214,-570 369,-802 198,-299 428,-527 690,-683 273,-162 570,-244 893,-244 713,0 1272,324 1679,971 82,130 155,275 218,432 l 0,-909 c 0,-205 166,-370 370,-370 l 3209,0 c 204,0 370,165 370,370 l 0,584 4,-9 c 109,-234 243,-429 402,-585 l 0,-1 c 8,-8 16,-16 25,-23 166,-154 365,-270 597,-347 228,-75 487,-113 777,-113 252,0 478,23 679,67 217,48 401,123 551,224 l 1,0 c 5,3 11,7 16,11 135,93 251,199 348,317 104,126 186,265 246,419 58,146 100,343 126,590 25,231 38,505 38,823 0,555 -9,1113 -13,1668 l 1,0 0,3 c 1,244 4,444 11,598 8,158 19,289 35,394 l 0,0 c 1,8 2,15 3,22 14,90 34,186 60,290 8,28 15,57 23,85 l 0,-5017 c 0,-205 166,-370 370,-370 l 953,0 c 142,0 265,79 327,196 282,-213 600,-320 953,-320 142,0 283,20 422,57 139,39 269,94 390,167 l 0,-1 c 9,6 18,12 27,18 109,69 206,147 292,235 95,97 175,205 240,324 12,23 25,47 36,71 l 0,-377 c 0,-205 166,-370 370,-370 l 158,0 c 27,-43 62,-80 103,-109 l 1010,-816 -1,-1 c 159,-128 392,-103 520,56 56,69 82,151 82,233 l 0,0 0,637 332,0 c 102,0 195,41 262,109 67,-68 160,-109 262,-109 l 953,0 c 97,0 186,37 252,98 83,-64 170,-115 263,-152 118,-46 241,-70 370,-70 163,0 324,32 482,96 147,58 290,146 430,262 l 0,-2 c 61,51 102,117 121,187 19,-20 38,-40 57,-59 l 0,-1 c 8,-8 17,-16 26,-23 165,-154 364,-270 596,-347 228,-75 487,-113 778,-113 251,0 477,23 678,67 217,48 401,123 551,224 l 1,0 c 6,3 11,7 16,11 135,93 251,198 349,317 103,126 185,265 246,419 57,146 99,343 126,590 24,231 37,505 37,823 0,555 -9,1113 -13,1668 l 2,0 0,3 c 0,244 3,444 11,598 7,158 19,289 34,394 l 1,0 c 1,8 1,15 2,22 13,81 30,168 53,261 l 0,-4910 c 0,-204 166,-370 370,-370 l 1028,0 c 204,0 370,166 370,370 l 0,632 520,-822 -1,-1 c 31,-49 71,-88 117,-116 -42,-285 -81,-569 -117,-850 -7,-64 -15,-128 -18,-199 -15,-28 -36,-51 -54,-76 -133,-248 358,-249 524,-240 547,49 1028,50 1520,-12 z m -6802,3555 c 165,-40 397,-109 562,-167 51,-18 97,-36 140,-53 -5,-85 -3,-258 -105,-279 -71,-15 -148,-26 -221,-24 -134,2 -176,24 -233,143 -54,115 -78,290 -143,380 z m -4249,-389 c -47,22 -99,34 -154,34 l -332,0 0,1806 c 0,252 2,424 4,514 1,45 2,82 3,111 42,-16 94,-40 157,-72 l 0,0 c 105,-53 224,-50 322,-4 l 0,-2389 z m -8610,1859 c -152,48 -310,90 -455,155 -11,4 -111,58 -109,59 l -1,1 c -60,66 -78,139 -78,227 0,118 51,367 201,367 39,0 76,-8 112,-26 95,-45 196,-147 244,-241 59,-114 73,-249 80,-375 3,-47 5,-103 6,-167 z m -111,-1971 c -60,-13 -137,-23 -214,-22 -51,0 -91,5 -122,16 -20,7 -36,16 -47,27 l 0,1 c -4,4 -8,8 -12,12 -16,19 -33,48 -52,87 -31,65 -59,150 -85,253 l 0,1 c -12,47 -32,89 -59,126 216,-57 411,-114 562,-167 52,-18 98,-36 141,-53 -4,-95 2,-257 -112,-281 z m -2183,132 -1304,2091 0,1 c -38,62 -83,124 -123,185 l 1316,0 c 6,-120 20,-236 42,-350 31,-162 79,-316 143,-462 66,-150 146,-284 239,-400 97,-120 208,-223 334,-307 117,-79 254,-150 412,-214 35,-15 71,-29 108,-42 l -896,-226 0,1 c -140,-35 -241,-145 -271,-277 z m -5187,371 c -22,-125 -60,-261 -132,-366 -54,-80 -126,-159 -229,-159 -117,0 -185,78 -244,171 l 0,0 c -4,7 -9,14 -14,21 -60,100 -95,219 -115,333 l 734,0 z m 32,1616 -779,0 c 6,36 14,71 22,105 49,192 181,495 415,495 116,0 172,-101 211,-196 52,-123 69,-307 131,-404 z m 1090,0 329,76 1,0 c 79,18 146,61 196,118 L 9589,5267 c 51,-81 97,-155 140,-222 l -1138,8 0,2 c -71,0 -137,-19 -193,-53 8,36 15,72 23,109 84,428 122,930 115,1506 -2,120 -54,366 -369,366 l 0,0 -301,0 z M 1759,6083 c 0,261 15,486 43,673 27,174 64,311 111,412 64,137 134,235 208,295 50,40 106,60 168,60 37,0 72,-11 103,-33 52,-37 105,-100 158,-189 58,-98 103,-232 135,-400 35,-187 53,-416 53,-686 0,-291 -18,-535 -54,-731 -32,-177 -78,-315 -136,-415 l -1,0 c -5,-8 -9,-17 -14,-25 -46,-74 -95,-129 -146,-162 -40,-27 -87,-40 -139,-40 -51,0 -97,13 -137,39 -56,36 -110,97 -162,181 l 0,1 -1,1 1,1 c -4,5 -7,11 -11,16 -54,95 -97,217 -126,365 -35,173 -53,385 -53,637 z m 44532,3187 -1027,0 c -204,0 -370,-166 -370,-370 l 0,-5399 c 0,-204 166,-370 370,-370 l 953,0 c 97,0 185,37 251,99 83,-65 171,-116 264,-152 118,-47 241,-70 370,-70 163,0 323,31 481,95 78,31 154,70 229,117 65,-56 149,-89 241,-89 l 1026,0 c 205,0 370,166 370,370 l 0,2480 c 0,394 5,696 13,905 9,209 20,346 35,411 l 1,-1 0,3 c 28,125 75,264 225,264 206,0 353,-240 399,-420 l -1,0 c 2,-8 5,-16 7,-24 17,-81 30,-220 41,-418 12,-225 18,-532 18,-923 l 0,-2277 c 0,-204 165,-370 370,-370 l 1026,0 c 205,0 370,166 370,370 l 0,5399 c 0,204 -165,370 -370,370 l -953,0 c -145,0 -270,-83 -331,-205 -12,10 -24,18 -37,26 -138,96 -280,168 -427,218 -161,55 -325,82 -492,82 -170,0 -333,-26 -489,-79 -155,-53 -300,-131 -436,-235 l 0,1 c -10,-7 -19,-15 -27,-23 -124,-99 -232,-218 -323,-354 -95,-141 -171,-299 -228,-475 l -1,0 c -3,-10 -6,-21 -9,-32 -49,-162 -86,-347 -110,-555 -25,-216 -37,-457 -37,-723 l 0,-1728 c -87,66 -202,93 -315,64 -70,-18 -130,-55 -176,-104 -79,-67 -214,-177 -305,-75 l 0,0 c -5,6 -10,11 -15,16 -66,94 -111,295 -133,406 -98,494 -79,1228 -79,1737 l 0,1668 c 0,204 -165,370 -369,370 z M 41124,6835 c -47,15 -96,30 -147,45 l 0,0 -1,0 1,1 c -6,2 -12,3 -18,5 -118,35 -215,70 -291,104 -54,24 -89,43 -106,56 l -2,3 0,0 -1,1 c -24,27 -42,56 -55,87 -34,86 -27,223 0,310 45,144 130,248 290,171 95,-45 196,-147 245,-241 58,-114 72,-249 79,-375 3,-47 5,-103 6,-167 z m -325,-1993 c -126,-8 -180,32 -233,144 -31,65 -59,149 -85,252 l -59,127 c 235,-61 478,-129 703,-220 -13,-303 -49,-286 -326,-303 z m -6989,-651 c 214,-41 418,84 456,280 38,196 -105,389 -318,430 -214,42 -418,-84 -456,-280 -38,-196 104,-389 318,-430 z m 2898,-564 c 213,-42 417,84 455,280 38,196 -104,389 -318,430 -214,42 -418,-84 -456,-280 -38,-196 105,-389 319,-430 z m -2368,4814 c 22,-62 68,-114 137,-146 l 2,-1 0,0 c 68,-30 143,-33 209,-13 68,21 89,65 124,129 l 0,0 c 20,36 79,69 101,101 71,103 164,195 262,273 l 1,0 c 188,150 420,268 663,341 437,130 839,107 1251,-87 l 0,0 c 234,-111 453,-267 629,-448 169,-174 299,-371 365,-574 l 0,0 c 23,-68 73,-122 137,-153 61,-30 136,-39 208,-20 l 0,0 c 5,2 11,3 16,5 l 1,0 c 66,22 118,65 150,118 33,56 44,121 27,186 -2,5 -3,10 -4,14 l 0,0 c -89,270 -258,529 -476,757 -251,276 -878,745 -1589,792 -286,24 -588,-14 -877,-99 -418,-123 -837,-356 -1126,-688 -12,-14 -72,-89 -125,-165 -69,-98 -132,-197 -86,-322 z"
             id="path13"
             style="fill:#ffffff;fill-rule:nonzero" /><path
             class="fil2"
             d="m 370,8900 0,-7454 1027,0 0,2685 c 317,-502 691,-753 1125,-753 473,0 864,239 1174,715 310,475 465,1159 465,2051 0,921 -159,1633 -475,2131 -315,498 -698,746 -1149,746 -222,0 -440,-76 -656,-231 -216,-154 -402,-381 -558,-683 l 0,793 -953,0 z m 39753,-3752 -932,-234 c 105,-523 284,-908 540,-1159 257,-250 636,-377 1140,-377 459,0 800,76 1025,227 223,151 381,342 472,575 92,232 138,657 138,1279 l -12,1667 c 0,474 17,824 50,1050 33,224 95,467 185,724 l -1017,0 c -26,-96 -60,-236 -98,-422 -17,-85 -29,-141 -37,-168 -175,237 -363,414 -562,534 -200,118 -413,177 -640,177 -400,0 -715,-151 -945,-451 -231,-302 -345,-684 -345,-1145 0,-304 52,-576 157,-816 105,-239 252,-422 440,-548 189,-127 462,-238 817,-333 480,-125 813,-243 997,-351 l 0,-142 c 0,-276 -48,-471 -146,-588 -97,-117 -280,-176 -551,-176 -183,0 -326,51 -428,151 -102,99 -185,274 -248,526 z m 1373,1159 c -131,61 -339,134 -625,219 -284,85 -470,168 -559,248 -133,134 -201,300 -201,503 0,201 54,373 161,519 108,146 244,219 410,219 186,0 361,-85 530,-254 125,-128 206,-286 244,-473 28,-122 40,-354 40,-696 l 0,-285 z m 1877,2593 0,-1428 1027,0 0,1428 -1027,0 z m 2918,0 -1027,0 0,-5399 953,0 0,767 c 163,-362 311,-602 440,-716 131,-115 279,-174 445,-174 234,0 459,90 676,271 l -318,1244 c -173,-155 -334,-233 -482,-233 -145,0 -266,54 -366,165 -101,110 -178,309 -235,597 -58,288 -86,892 -86,1810 l 0,1668 z m 4339,0 0,-809 c -142,288 -328,515 -557,682 -231,165 -475,248 -730,248 -261,0 -494,-80 -701,-238 -208,-159 -357,-383 -451,-671 -92,-288 -138,-687 -138,-1196 l 0,-3415 1026,0 0,2480 c 0,760 19,1225 58,1397 37,170 106,305 206,406 100,101 227,149 380,149 176,0 333,-66 472,-199 138,-136 233,-301 284,-498 51,-200 78,-686 78,-1458 l 0,-2277 1026,0 0,5399 -953,0 z M 1389,6083 c 0,559 64,972 190,1241 179,380 414,569 710,569 226,0 419,-135 579,-404 160,-269 240,-694 240,-1274 0,-616 -82,-1062 -243,-1334 -159,-273 -365,-410 -617,-410 -246,0 -451,134 -614,399 -163,267 -245,670 -245,1213 z m 5699,1099 1024,237 c -132,523 -339,920 -623,1193 -284,274 -639,409 -1066,409 -675,0 -1174,-305 -1498,-920 -256,-491 -385,-1112 -385,-1860 0,-895 169,-1596 506,-2103 335,-507 761,-760 1275,-760 577,0 1033,265 1367,796 333,531 493,1343 479,2438 l -2574,0 c 8,424 90,754 249,988 158,236 356,354 592,354 161,0 296,-61 406,-182 110,-124 193,-320 248,-590 z m 59,-1444 c -8,-415 -84,-729 -230,-944 -146,-215 -324,-323 -534,-323 -225,0 -409,115 -555,342 -146,226 -218,534 -216,925 l 1535,0 z m 1299,3162 0,-1114 1455,-2322 c 238,-380 415,-649 529,-809 -119,10 -276,16 -471,19 l -1371,11 0,-1184 3209,0 0,1012 -1483,2379 -523,788 c 284,-25 462,-37 530,-37 l 1590,0 0,1257 -3465,0 z m 4778,-3752 -932,-234 c 104,-523 284,-908 540,-1160 257,-250 636,-376 1140,-376 459,0 800,76 1025,227 223,151 381,342 473,575 91,232 137,657 137,1278 l -11,1668 c 0,474 16,824 49,1050 33,224 95,467 185,724 l -1017,0 c -26,-96 -60,-236 -98,-422 -17,-85 -29,-141 -37,-168 -175,237 -363,414 -562,534 -200,118 -413,177 -640,177 -400,0 -715,-151 -945,-451 -231,-302 -345,-684 -345,-1145 0,-304 52,-577 157,-816 105,-239 252,-422 440,-548 189,-127 462,-238 818,-334 479,-124 812,-243 996,-350 l 0,-142 c 0,-276 -48,-471 -146,-589 -97,-116 -280,-175 -551,-175 -183,0 -326,50 -428,151 -102,99 -185,274 -248,526 z m 1373,1159 c -131,61 -339,134 -625,219 -284,85 -470,168 -559,248 -133,133 -201,300 -201,503 0,201 54,373 161,519 108,146 244,219 410,219 186,0 361,-85 530,-254 125,-128 206,-286 244,-473 28,-122 40,-354 40,-696 l 0,-285 z m 5408,2593 -1027,0 0,-2756 c 0,-583 -22,-960 -66,-1132 -43,-170 -116,-303 -214,-399 -99,-93 -217,-142 -356,-142 -178,0 -338,68 -479,203 -141,137 -238,316 -291,540 -52,224 -78,637 -78,1241 l 0,2445 -1027,0 0,-5399 953,0 0,793 c 339,-611 766,-916 1280,-916 226,0 434,57 622,170 187,114 329,258 425,435 96,177 163,377 201,601 39,224 57,543 57,960 l 0,3356 z m 2676,-5399 0,1138 -701,0 0,2177 c 0,440 6,697 19,770 14,73 44,132 92,180 47,47 106,72 173,72 96,0 233,-47 414,-137 l 88,1107 c -240,142 -510,213 -813,213 -184,0 -352,-43 -500,-128 -148,-87 -257,-200 -327,-337 -70,-137 -117,-323 -145,-557 -21,-165 -32,-502 -32,-1006 l 0,-2354 -472,0 0,-1138 472,0 0,-174 1031,-833 0,1007 701,0 z m 1551,5399 -1027,0 0,-5399 953,0 0,767 c 164,-363 311,-602 441,-717 131,-114 278,-173 444,-173 235,0 459,90 676,271 l -318,1244 c -172,-155 -333,-233 -482,-233 -144,0 -265,54 -365,165 -101,109 -179,309 -236,597 -57,288 -86,892 -86,1810 l 0,1668 z m 2552,-3752 -932,-234 c 105,-523 284,-908 540,-1160 257,-250 636,-376 1141,-376 459,0 799,76 1024,227 223,151 382,342 473,575 91,232 137,657 137,1278 l -11,1668 c 0,474 16,824 50,1050 32,224 94,467 184,724 l -1017,0 c -26,-96 -59,-236 -98,-422 -16,-85 -29,-141 -36,-168 -176,237 -363,414 -563,534 -200,118 -413,177 -640,177 -399,0 -715,-151 -945,-451 -230,-302 -345,-684 -345,-1145 0,-304 52,-577 157,-816 105,-239 252,-422 440,-548 189,-127 462,-238 818,-334 479,-124 812,-243 997,-350 l 0,-142 c 0,-276 -49,-471 -146,-589 -98,-116 -281,-175 -552,-175 -183,0 -326,50 -428,151 -102,99 -184,274 -248,526 z m 1374,1159 c -131,61 -340,134 -625,219 -285,85 -471,168 -559,248 -134,133 -201,300 -201,503 0,201 53,373 161,519 107,146 243,219 409,219 186,0 362,-85 530,-254 125,-128 206,-286 245,-473 27,-122 40,-354 40,-696 l 0,-285 z m 1839,2593 0,-5406 1028,0 0,1907 1202,-1900 1265,0 -1326,1971 1421,3428 -1107,0 -977,-2425 -478,696 0,1729 -1028,0 z m 6150,-6674 170,835 -688,140 527,2586 c 87,432 145,683 173,751 28,69 69,121 125,159 56,36 118,48 184,35 94,-19 219,-92 379,-217 l 306,1068 c -206,187 -456,310 -753,371 -181,36 -354,27 -516,-26 -163,-56 -292,-145 -388,-265 -95,-121 -179,-293 -253,-517 -53,-157 -131,-485 -232,-980 l -561,-2760 -463,94 -170,-835 463,-94 -129,-634 843,-1022 296,1451 687,-140 z"
             id="path15"
             style="fill:#000000;fill-rule:nonzero" /></g>
    </g>
</svg>