<svg id="city_arh" data-name="arh" xmlns="http://www.w3.org/2000/svg" width="52.5mm" height="52.5mm" viewBox="0 0 148.82 148.82">
  <title>arh</title>
  <g id="arh">
    <path d="M118.71,105.59a6.74,6.74,0,0,1-2.81.09,42.58,42.58,0,0,1-5.36,3.46c-4.59,2.24-10,.74-13.92-0.23-1.53-.37-2.1-0.85-3.17-0.88s-10.52,2.83-12.76,5.24a7.14,7.14,0,0,0-2.18-4.51c0.88-.82,2.21-3.74,2.55-6.24a22.78,22.78,0,0,0,6.6-.74c1.16-.51,1.47-1.16,3.86-2.32a61.65,61.65,0,0,0,7.54-4.59,15.21,15.21,0,0,0,3.06.14c1.08-.17,2.75,0,3.15-0.28a1.65,1.65,0,0,0,.91-1.28c-0.4-.09-1.5.06-2.18,0a10.66,10.66,0,0,0,2.21-1.13,9.49,9.49,0,0,0,.91-1.53,0.42,0.42,0,0,0-.23-0.68,4,4,0,0,1-2.35,1.13c1-1.25,1.45-2.41,1.93-3a2.72,2.72,0,0,0-1.08-2.13c-0.26.45-1.56,3.49-3,4.28a2.68,2.68,0,0,0-1.7,0s-0.43-1.22,1.93-2.66c-1.16-.88-4.82-0.17-5.1,3.83a13.35,13.35,0,0,1-3.88,1.47,8.67,8.67,0,0,0-4.85,2.47c-0.48.57-2.1-.57-7.57,0.65,0,0,3.06-6.15-1.93-9.58S63.1,80.11,58,72.88c0,0,3.46,6.43.85,10.66,1.22-.09,2.81,1.53,3.09,3.23,0.14,1,.34,2.18-1.47,3.83,0,0,3.6,1.36,1.36,4.37,0.2,0.34,2.1-.09,2.92,2.1a14.61,14.61,0,0,1-6.55-1.42c-0.94-8.11-8.39-10.43-14.88-10.32-3.8.06-7.17,1-11.48,1.42a8.17,8.17,0,0,1-3.4-.11c-0.2.88,3.77,1.7,6.24,3.94,2.07,1.9,2.07,3.77,2.58,4.65,0.82,0.57,2.89.65,4.62,1.64a6.47,6.47,0,0,1,2.72,3.37s4.73,0.51,5.3,3.51c0,0,5.78-2,7.94.82a22.48,22.48,0,0,1-5,2.95,1.4,1.4,0,0,0-1.25.6c-0.31.65,0.51,0.6,0.77,1.39s0.77,4.17,2.3,6.09,2.21,2.38,1.45,2.66c-1,.4-2.69,2-1.42,3.69a1.79,1.79,0,0,1,1.5-1.16c-0.45.43-2,3.26,0,3.71a2.08,2.08,0,0,1,.45-1.36,3.37,3.37,0,0,0,2.15,2.78c0-1.16.09-6.43,6.09-5.78,0,0-.06-3.46-3.15-2.35A12.92,12.92,0,0,1,60,116.11c-0.17-.4-0.74-3.94-1.7-5.84,3.74-.34,4.48-1.53,4.9-1.73,0.48,0.48.88,2.55,1.59,3.8a22.66,22.66,0,0,1,1.7,2.75c0.74,1.84,1.25,7.06,4.17,9.33-0.23.91-1.67,3.57-3.8,3.49a4.86,4.86,0,0,0,1.5-3.69c-0.23-2.1-2.83-3.66-5.56-2.72s-4.17,4.54-1.42,6.58a10.28,10.28,0,0,1-6.58-.17,11.43,11.43,0,0,1-6.24-6c-4.08-7.94-11.4-3.69-15.39-6.49,0,0.91,2.3,3.29,5.19,4s4.22,0.2,5.75,1.45a4.18,4.18,0,0,0-3.46.68c0.91,0.48,4.45,1.93,5.56,2.92A19.34,19.34,0,0,0,55,130.25a12.42,12.42,0,0,0,8.59-.51,7.89,7.89,0,0,0,9.1-3.74s5.81,1.79,14.2-4.28a25.8,25.8,0,0,0,4.9,3.8c2.58,1.45,5.9.91,8.48,3.46,1.59,1.59.51,1.67,0.71,2s1.5,0.57,4.17-1.22,3.94-1.25,4.93-.45c0,0,.45.14,0-1.36a2.36,2.36,0,0,1,1.39,1.76s1.81-1.19,0-3.12a3.09,3.09,0,0,1,2.07.54,2.7,2.7,0,0,0-3.32-2.58c0.62-1.25,1.36-1.5,3-1.3a2,2,0,0,0-1.81-1,8.39,8.39,0,0,0-2.64.57,11.64,11.64,0,0,0-2.35,1.64c-0.45.43-2.21,1.28-3.12,0.85a36.85,36.85,0,0,1-11.25-8.56s0.94-1,1.53-1.9c0.57,0.45,4.42,1.7,6.46,1.28a40.1,40.1,0,0,1,5-1.16c0.77-.06,2.83.4,3.23,1.33,0.31,0.77.62,0.79,0.94,0.62a7.07,7.07,0,0,0,1.33-1.7,30.12,30.12,0,0,1,3.4-2.75c1-.82,1.67-3.23,1.67-3.23a5.38,5.38,0,0,0,1.39-1.08c0.71-.79,1.39-0.85,2.47-0.26a1.24,1.24,0,0,0,.68-0.57,19.16,19.16,0,0,0-1.64-1.7h0.14ZM64.46,127.28s-2.15-.51-2-2.21c0.17-1.45,2.58-2.13,3.32-1.25S65.85,126,64.46,127.28Z"/>
    <path d="M116.08,17.72c-0.51.37-.94,0.51-2.95,1.73A47.11,47.11,0,0,1,99.55,23c-3.4.48-6.12,0.88-7.94,2.18-2.44,1.76-3.6,4.2-4.71,6.55a17.25,17.25,0,0,1-3.46,5.41l-0.34.34a3,3,0,0,1-.45.2,4.78,4.78,0,0,1-2.47-.51c-0.4-.26-0.45-1.53-0.54-1.79s0.06-1.11.48-.45,0.48-1.45.54-1.87-0.57-.4-0.54-0.54c0.6-5.33-2.21-7.11-2.21-7.11,0.79-1.45,2.07-1.16,3.57.11s3.32,0.94,5.41-.28c-3.17-1.33-2-5.36-5.41-5.7-2.86-.28-4.59,3.09-4.59,3.09S75.17,19,71.52,20c-3.2.85-3.23,5.64-4.71,5.64,1.53,1.81,4,.51,5.56-0.65,2.64-2,3,.17,3,0.17-1.64.62-3.43,4.08-3.29,7.2,0.09,2.21,2.13,4.9,2.13,4.9a1.64,1.64,0,0,1-1.33.17c-1.53-.45-2.69-0.71-3.32-0.85L69,35.86a10.8,10.8,0,0,1-1.36-3.43c-0.65-2.32-1.39-5-3.77-7-2.58-2.18-6.21-2.61-10.4-3.12a44.56,44.56,0,0,1-10.23-2.13,31.29,31.29,0,0,1-3.86-1.93,9.18,9.18,0,0,0,2.52,3.37c0.11,0.09.2,0.2,0.31,0.28A14.15,14.15,0,0,0,43.74,23a7.6,7.6,0,0,0,4.11,3.37c1.08,2.07,3.88,3.06,3.88,3.06,0.43,1.76,3.32,3,3.32,3l-0.48.09a6,6,0,0,0,2.69,1.76A3.42,3.42,0,0,0,57,35a5.74,5.74,0,0,0,1.13.79c-0.43.09-.91,0.17-1.39,0.28a32.9,32.9,0,0,1-3.91.65l-0.82,0a1.27,1.27,0,0,0-1.13-1.62,1.72,1.72,0,0,0-1.81,1.36c-0.14.51-.4,0.23-0.65,0.43a26.21,26.21,0,0,0-1.39,2.35l-1.42-.09-0.17.34-1.36,2.64h1a4.72,4.72,0,0,0-.17,1.9,4.22,4.22,0,0,1-.23,2,6.62,6.62,0,0,1-.62.91,6.78,6.78,0,0,0-1.79,4A7.68,7.68,0,0,1,41,54.54c-0.79,1.39-1.64,2.69-1.36,4.51a7.61,7.61,0,0,0,1,2.83,7.51,7.51,0,0,1,.14-2.64,9.89,9.89,0,0,1,1.93-3.12A11.4,11.4,0,0,0,44.93,52a8.53,8.53,0,0,1,1.73-3.69,4.27,4.27,0,0,0,1.13-2.95,5.44,5.44,0,0,1,.54-2.95l0.17-.23h3.69a3.58,3.58,0,0,1,.4-2,2.91,2.91,0,0,1,2-.54,17.78,17.78,0,0,1,3.86.74,26.11,26.11,0,0,0,4.45.85h0.06a2.24,2.24,0,0,0,.34,1.93,2.92,2.92,0,0,1,1.53,0,8.23,8.23,0,0,0,3,.68,3.48,3.48,0,0,0,1.79,2.58,9.07,9.07,0,0,0,.48,5,1.28,1.28,0,0,1-.31,1,1.46,1.46,0,0,0-1.13.68,1.25,1.25,0,0,0,.06,1.25,15.26,15.26,0,0,0-4.88,5.47,0.82,0.82,0,0,0-.79.37c-0.28.45-1.08,1.28-.4,1.67l0.43,0.37a55.59,55.59,0,0,0-2.52,5.58c-0.65,2-.79,3.23.62,4,3.71,2,11.37-.09,15.7.48,3.12,0.4,3.49,3.46,3.86,3.83s1-.09,1.64.06-0.11-2.52-.11-2.52a6.06,6.06,0,0,1,1.56,1.3c0.34,0.57.6,2.47,1.76,4.25s2.41,2.15,3.32,3.8a27.26,27.26,0,0,1,1.84,3.54c0.45,1.13,1.13,2.66,2.58,3.26s1.79,0.48,2.07.34,0.79-.43.48-4.2c-0.14-1.67-2.95-2.15-3.2-4s-1.08-6.18-3.86-9.18a34.08,34.08,0,0,0-1-6.83s0.54-.37.14-1.59-0.37-1.33-.91-1.3a21.73,21.73,0,0,0-2.35-6.21h0a11.75,11.75,0,0,0,7.09-5.19A12.54,12.54,0,0,0,94,45a9,9,0,0,0-.17-1.76,6.32,6.32,0,0,0-2.41-3.94,10.74,10.74,0,0,0,5.87-3.43c3.2-.94,4-3.06,4-3.06,5.5-1,6.38-4.42,6.38-4.42a7.24,7.24,0,0,0,3.43-4,16,16,0,0,0,3.71-3.77l-0.26-.09c1.76-1.5,1.59-2.66,1.59-2.66Z" style="fill: #fc0"/>
  </g>
</svg>
