<?xml version="1.0" encoding="UTF-8" standalone="no"?>
<svg
    xmlns:dc="http://purl.org/dc/elements/1.1/"
    xmlns:cc="http://creativecommons.org/ns#"
    xmlns:rdf="http://www.w3.org/1999/02/22-rdf-syntax-ns#"
    xmlns:svg="http://www.w3.org/2000/svg"
    xmlns="http://www.w3.org/2000/svg"
    version="1.1"
    style="fill-rule:evenodd"
    preserveAspectRatio="none"
    viewBox="0 0 10 8"
    id="calendar-day-enabled">
<defs
    id="calendar-day-enabled_defs" />
<g
    id="calendar-day-enabled_g"
    transform="matrix(3.576282097e-4,0,0,3.768613286e-4,-591.3027551,-395.4881663)">
<path
    d="m 1680723,1068163 c -11,-94 -34,-283 -34,-283 -49,196 -34,4 -34,18 12,-64 217,-908 190,-908 -24,-393 -146,-984 -220,-1388 10,-60 30,-180 30,-180 l 78,-393 c -17,349 -1,295 97,642 -1,-335 -7,-512 54,-848 24,-14 73,-43 73,-43 -6,-23 -19,-68 -19,-68 l 73,-368 -10,727 -49,240 0,-8 c -86,235 -85,211 -87,197 -10,65 -30,197 -30,197 47,165 142,496 142,496 13,-211 88,-625 88,-625 -9,-283 -25,-848 -25,-848 81,-793 77,-810 83,-762 27,315 -10,1006 -10,994 5,-9 5,9 5,8 0,51 -9,153 -10,162 l 0,-8 c -2,8 -4,26 -4,26 0,-3 0,-9 0,-9 -2,0 -5,0 -5,0 3,-25 9,-77 9,-77 -67,-364 -13,151 -9,189 -3,65 -10,197 -10,197 49,-289 146,-865 146,-865 0,-443 -34,-1328 -34,-1328 -16,-299 23,-464 -107,-711 -102,-209 -12,-1110 -5,-1165 -21,-47 -59,-145 -59,-145 25,-14 74,-43 74,-43 13,-208 39,-625 39,-625 -7,-147 -30,-196 -20,-359 -23,151 -68,453 -68,453 -133,345 -133,358 -132,326 11,-206 132,-618 132,-617 7,182 9,56 15,-51 17,-63 53,-189 53,-189 62,-333 63,-322 69,-308 8,-137 24,-411 24,-411 -78,176 -30,4 -24,-17 12,75 13,17 14,-9 46,-247 31,-550 29,-805 66,-440 104,-908 127,-1353 -53,273 -122,823 -122,823 24,45 35,93 -10,128 4,37 10,111 10,111 -5,-22 -18,-65 -19,-68 2,63 20,66 14,188 -6,-48 -19,-145 -19,-145 -182,793 -180,811 -181,762 8,-259 -33,-576 -53,-839 -23,94 -79,282 -79,282 -143,840 -137,846 -146,822 11,358 2,375 10,351 -15,166 -44,497 -44,497 -3,-40 -10,-120 -10,-120 -111,310 -12,-157 -10,-155 l -14,-179 c -2,26 -5,77 -5,77 -28,-231 -83,-694 -83,-693 145,-1331 135,-1352 151,-1285 42,283 38,620 34,908 73,-426 171,-1285 171,-1285 34,-428 -20,-839 -19,-1267 12,-241 30,-487 49,-728 -33,325 -98,976 -98,976 -67,314 -200,942 -200,942 -140,333 -137,355 -137,326 27,-237 127,-483 137,-694 -13,-112 -39,-334 -39,-334 -18,48 -54,145 -54,145 -22,50 -15,215 -15,206 -35,-107 -56,-138 -58,-257 l -39,419 0,-8 c -17,151 -49,454 -49,454 -34,222 -48,289 -64,531 -20,-204 54,-608 54,-608 5,115 10,-64 10,-77 -3,5 -5,17 -5,17 36,-311 107,-933 107,-933 14,59 49,180 49,179 11,-89 -35,-119 -44,-214 15,-122 39,-368 39,-368 20,166 20,505 20,505 47,-232 21,-99 10,-308 81,-512 82,-471 87,-437 23,-168 69,-505 69,-505 -62,-77 55,-790 49,-754 -21,-53 -54,-162 -54,-162 8,-85 144,-1456 132,-1456 -7,-317 -42,-672 -66,-988 -6,-310 -54,-546 -167,-832 -115,-271 -239,-459 -436,-671 -204,-205 -383,-330 -642,-448 -273,-115 -492,-159 -785,-162 0,0 -551,49 -545,49 -293,-26 -850,-46 -963,-51 55,3 144,15 142,15 -120,14 13,0 16,0 l 97,10 -227,5 c -146,-26 -134,-25 -122,-25 -58,-4 -157,-5 -212,-5 -15,9 15,6 33,5 l 81,10 c -104,0 -309,-21 -309,-21 -171,0 -512,-10 -512,-10 138,23 414,67 414,67 120,4 358,20 358,20 -193,13 34,6 41,6 l 186,20 c -351,-3 -1048,-56 -1048,-56 -38,-11 -30,-11 -25,-11 -97,-9 -292,-30 -292,-30 -81,6 -824,31 -822,5 -976,-116 -1017,-264 -2025,123 46,11 -13,11 -24,10 -35,11 -107,42 -106,41 52,7 155,21 155,21 -11,-14 -33,-41 -33,-41 149,-1 309,-16 456,5 l -41,-10 220,15 c 119,37 125,37 113,36 -70,0 -211,-31 -211,-31 -41,-25 10,14 -57,0 69,26 -171,94 -187,98 300,65 264,62 252,62 -123,-2 -244,-13 -366,-26 -16,3 -49,10 -49,10 -5,-7 -16,-20 -16,-20 -68,-5 -203,-21 -203,-21 37,16 28,15 24,16 -58,-6 -172,-30 -178,-31 l 40,0 c -27,-4 -82,-11 -82,-10 -139,68 -414,210 -414,210 -85,-20 -253,-67 -252,-67 133,-6 37,2 -66,-25 7,20 -122,0 -122,0 -21,14 -57,51 -56,51 10,0 29,5 32,5 -16,0 -49,5 -49,5 l 145,11 -137,-6 c 184,69 -74,20 -40,26 -8,9 -25,26 -25,26 l 285,41 -559,-15 14,0 c -150,-28 -276,-7 -455,-42 -93,-30 211,-12 179,-15 l -130,-31 8,0 -122,-25 528,56 c -13,-3 -37,-9 -40,-10 l 32,0 -72,-15 72,10 c -21,-33 -65,-98 -65,-98 -95,3 -285,10 -285,10 47,30 -120,7 -122,5 l -187,6 186,10 -15,0 c 46,3 138,10 138,10 -273,9 -821,26 -821,26 l 756,92 -157,-5 c 27,2 35,9 76,5 -23,7 809,163 789,160 -16,1 -49,5 -49,5 -142,35 43,11 106,5 391,77 1171,242 1171,242 -5,3 -16,5 -16,5 21,1 65,5 65,5 -44,5 -130,15 -130,15 25,5 -20,0 -17,0 -197,17 -236,-31 -422,-31 -299,7 -895,21 -895,21 -269,-11 -805,-41 -805,-41 -247,14 -740,41 -740,41 -54,-6 -619,-67 -619,-67 -295,-28 -413,3 -699,46 -18,-2 -195,-16 -106,-41 -2,0 -8,0 -8,0 128,-8 383,-25 383,-25 -180,-6 -529,-93 -529,-93 20,-4 59,-10 64,-10 -185,8 -561,-21 -560,-21 -103,2 -309,5 -309,5 226,44 365,63 593,83 -39,0 -89,7 -130,10 46,12 176,-4 179,-5 l 260,25 -365,0 c -15,20 -161,2 -204,-5 -393,-58 -362,-56 -333,-56 -185,-20 -553,-42 -553,-42 -438,0 -1318,-82 -1318,-82 208,62 184,61 171,62 -233,8 -514,-20 -748,-51 60,-4 175,-15 186,-16 l -137,0 32,5 -236,0 c -19,5 -119,31 -122,-10 l -104,-5 15,0 -15,0 -1,0 -163,0 c -28,-3 -122,-16 -122,-16 63,-5 196,6 195,6 -53,8 23,5 41,5 46,-2 138,-5 138,-5 8,1 25,5 24,5 28,3 18,1 9,0 -6,-2 -17,-5 -17,-5 6,0 3,0 0,0 11,0 33,0 33,0 l -97,-11 259,0 c -19,-2 -68,-8 -16,-15 190,-5 570,36 569,36 -16,-10 35,-10 33,-10 201,-7 612,31 610,30 89,-5 268,-5 268,-5 -57,-5 -168,-19 -178,-20 l 577,0 c -290,-11 -871,-31 -870,-31 -256,-13 95,-3 56,-5 -118,-16 -177,-11 -292,-11 -152,-25 -158,-24 -147,-25 64,-6 181,2 217,4 l -257,-20 c -755,-54 -771,-51 -724,-56 368,-19 1127,10 1122,10 -5,3 -16,5 -16,5 52,0 153,5 169,5 l -6,0 282,11 -12,0 134,5 -543,0 c 34,5 -5,11 0,10 -26,7 42,5 57,5 l 41,5 -350,-5 c 393,31 1180,93 1180,93 l 195,0 226,-11 c -75,-1 -862,-17 -861,-36 0,0 -49,-5 -48,-5 -23,-10 -18,-10 -17,-10 -66,-11 21,-17 8,-15 71,0 212,5 212,5 l -178,-26 1292,46 c 100,7 301,21 301,21 -86,10 12,5 16,5 l 80,5 -177,0 c 150,20 168,15 317,10 -74,-14 -74,-14 -73,-15 -376,-47 -356,-45 -342,-46 -3,-2 -8,-5 -8,-5 119,-7 358,-21 358,-21 -52,-6 -155,-26 -155,-26 8,5 25,11 25,11 -52,-9 -155,-21 -155,-21 l -260,-36 16,0 -121,-20 502,36 -7,0 c 130,10 391,30 391,30 5,-3 16,-10 16,-10 -194,-44 -5,-41 40,-41 9,-10 25,-31 25,-31 -173,-12 -522,-77 -521,-77 -380,-31 -1131,-130 -1154,-133 28,0 81,-6 81,-6 95,0 277,5 305,6 l -4,0 c 43,5 130,15 130,15 422,-42 -3,-22 -25,-21 -221,-11 -667,-15 -666,-15 -188,-23 -363,-69 -553,-77 -389,-67 -416,-59 -391,-62 199,-4 412,15 610,31 437,-9 1310,20 1310,20 -561,58 79,9 122,6 94,3 284,10 284,10 l -211,-26 c 55,0 163,-5 162,-5 -92,-14 -276,-10 -276,-10 l -553,-82 317,15 c -504,-69 -987,-119 -1496,-123 91,35 92,34 89,36 8,0 24,0 24,0 -8,5 -24,5 -24,5 57,0 171,5 171,5 l 282,10 -11,0 136,5 c -532,15 -987,27 -1521,-5 -3,7 -9,21 -8,21 -93,-9 -277,-26 -277,-26 -54,0 -163,0 -163,0 -111,-19 24,-12 49,-10 -121,-23 -5,-47 -8,-46 -588,-9 -1765,-42 -1765,-42 -521,-21 -963,-138 -1472,-190 -13,-1 -101,-7 -89,-36 -167,-28 -447,-85 -610,-77 -327,25 -649,26 -976,26 54,5 163,15 163,15 316,95 335,93 309,93 -195,-11 -582,-90 -594,-93 301,6 -35,-5 -41,-5 -188,-26 -287,-13 -471,21 89,15 268,46 268,46 35,11 -8,10 -8,10 -101,-2 -210,-22 -309,-41 100,-6 -19,-5 -25,-5 -383,81 -1138,298 -1138,298 108,12 325,36 325,36 243,67 253,67 228,67 -162,-12 -327,-22 -488,-36 182,-81 -194,-24 -252,-10 119,36 110,35 105,36 -291,-11 -114,-37 -463,61 308,70 272,67 260,67 -125,-7 -250,-18 -374,-31 -66,19 -1188,341 -1188,304 5,-78 629,-325 716,-360 -211,-32 -634,-88 -634,-88 -184,88 34,48 32,62 135,26 140,25 130,26 -67,-1 -203,-20 -211,-21 55,2 -4,-1 -49,-5 -272,168 -797,540 -797,540 60,0 179,10 179,10 -155,19 20,0 25,0 l 129,15 c -129,2 -233,12 -365,0 -28,18 -82,57 -82,57 351,4 1049,26 1049,26 -570,49 94,6 122,5 204,8 611,25 611,25 -639,14 -1204,30 -1847,0 -58,50 -656,549 -471,689 224,-33 2204,-298 2204,-298 16,44 322,38 390,36 -743,86 -2229,257 -2228,257 70,4 211,10 211,10 150,53 136,52 130,52 -103,-1 -309,-41 -309,-41 166,-6 -19,-5 -24,-5 -36,0 -106,0 -106,0 502,77 1505,231 1505,231 35,0 105,0 105,0 -161,-28 127,-75 147,-77 -132,-146 634,-70 634,-67 526,54 1065,187 1578,221 12,40 368,85 471,97 -8,0 -16,0 -24,0 137,9 439,84 431,83 20,-13 97,-34 106,-36 -152,-33 -83,-31 -73,-31 -57,-8 -171,-21 -171,-21 684,-43 -86,-16 -106,-15 l -553,-82 98,5 c -99,-27 9,-30 32,-31 -344,-13 -1043,-108 -1041,-108 450,-6 -69,-15 -89,-15 l -415,-62 927,67 683,118 c 365,-5 746,28 1098,26 93,3 277,10 277,10 43,2 130,5 130,5 -271,5 -813,16 -813,16 138,5 415,15 414,15 223,31 667,103 667,103 216,21 683,15 699,15 l -31,5 146,0 -234,11 c 242,-4 715,14 745,15 l -121,5 c -44,10 -59,16 -56,19 l -7653,0 0,3113 c -227,305 -691,858 -691,858 -15,605 -44,1815 -44,1815 15,197 44,591 44,591 -62,497 -62,306 -64,265 -21,692 -68,2073 -68,2073 12,74 34,222 34,222 -60,-254 -185,-762 -185,-762 -20,-664 -240,-7975 -240,-7975 2,-215 33,-379 109,-578 79,-190 163,-322 299,-471 141,-145 265,-234 445,-319 189,-82 347,-117 551,-120 -208,3 -358,36 -551,118 -180,84 -306,174 -447,319 -138,150 -221,280 -301,471 -77,199 -108,364 -111,579 0,0 99,9813 99,9809 10,1071 71,2034 186,3100 74,651 183,1298 219,1953 26,608 -49,780 -107,1327 -4,43 -8,455 -8,455 3,155 27,275 84,418 58,137 119,231 220,337 101,103 193,166 323,225 136,56 247,79 394,79 2,3 473,-40 465,-39 109,30 204,51 317,36 175,-41 285,-97 472,-103 271,38 261,39 252,42 634,26 472,91 1204,25 99,-9 185,9 284,-15 -5,0 -16,0 -16,0 213,-17 156,5 334,-67 -11,0 -33,0 -33,0 l 145,-36 c -201,38 -217,34 -422,26 60,-14 179,-41 179,-41 93,0 277,5 277,5 37,-12 114,-31 114,-31 11,12 32,36 32,36 659,24 -135,45 33,41 2,3 8,10 8,10 91,1 278,11 276,11 41,-4 123,-11 122,-11 23,5 66,21 66,21 80,6 245,31 244,31 27,-4 81,-11 81,-11 480,89 441,91 406,98 161,28 480,93 480,93 -484,20 23,22 204,25 -112,-61 9,-43 32,-41 111,-3 334,-10 334,-10 -168,-52 -175,-52 -163,-52 62,6 188,42 187,42 l 65,10 c -196,-124 -29,-104 24,-98 126,10 375,46 375,46 29,-3 89,-10 89,-10 9,1 1,5 0,5 3,4 8,16 8,16 131,27 53,31 25,20 -20,0 -61,10 -65,11 108,0 317,30 317,30 13,-3 41,-10 40,-10 -117,-37 -2,-57 17,0 31,3 91,5 103,5 -11,1 -30,5 -30,5 899,82 -685,42 -561,47 196,66 916,51 862,51 -56,-24 67,8 57,5 35,0 105,0 105,0 93,41 277,124 277,124 65,-9 195,-26 195,-26 -46,-17 -138,-52 -138,-52 -36,-17 -179,-21 -195,-20 102,-37 130,-59 244,-62 -133,-13 -399,-41 -399,-41 -141,-17 -423,-51 -423,-51 -210,-35 -284,-51 -512,-67 46,-5 138,-16 138,-16 -71,-13 -211,-51 -211,-51 -185,0 -553,-46 -553,-46 -38,0 -114,0 -114,0 l 40,15 c -151,-15 -455,-20 -455,-20 16,7 49,20 49,20 -132,-19 -399,-31 -399,-31 35,11 102,35 106,36 -292,-4 39,10 49,11 54,18 163,56 162,56 126,16 173,-4 342,31 33,7 34,11 8,15 -95,11 -245,-1 -341,-15 142,-26 48,-17 32,-15 6,1 16,5 16,5 -38,-7 -140,-6 -203,-16 30,-1 90,-5 90,-5 -144,-22 -432,-67 -432,-67 -110,-28 -137,-46 -260,-56 1,0 43,-4 49,-5 -78,-24 -94,-6 -171,0 -168,-12 -504,-36 -504,-36 28,9 85,24 89,25 l -341,-71 c -194,-30 -340,-34 -537,-83 173,-3 249,4 415,41 -150,6 -39,1 57,16 -6,-16 290,26 284,26 85,0 253,0 253,0 l -154,-36 c 72,0 220,10 219,10 -97,17 -53,19 -41,20 595,-9 1120,-14 1716,21 331,-19 992,-57 992,-57 51,-44 578,-1 700,11 124,-4 374,-11 374,-11 -145,-23 -430,-80 -439,-82 349,11 640,72 992,72 438,1 1317,82 1317,82 -47,-7 -219,-46 -219,-46 54,-5 162,-15 162,-15 212,4 635,51 635,51 -61,7 -180,15 -194,16 l 113,0 c 78,-2 235,-6 235,-6 416,31 159,25 90,26 -54,3 -163,10 -163,10 35,16 21,16 16,16 -193,10 -577,-31 -577,-31 54,20 -380,-5 -429,-10 6,3 14,5 14,5 -165,-5 -496,-16 -496,-16 62,9 187,21 187,21 -612,7 84,20 106,20 59,4 179,11 179,11 32,7 31,9 17,9 l 227,11 c 152,26 157,24 146,26 -37,3 -105,2 -158,-1 l 199,11 c 700,68 434,62 366,62 95,5 284,15 284,15 408,61 419,59 391,62 -198,4 -412,-15 -610,-31 -176,9 -529,21 -529,21 -364,24 -1129,-11 -1122,-11 103,-8 309,-25 309,-25 -126,-5 -403,20 -399,20 -154,-7 -463,-20 -463,-20 230,-5 691,-16 691,-16 -173,-7 -520,-20 -520,-20 257,-10 772,-31 772,-31 l 6,0 -128,-5 c 550,-8 554,-4 537,-10 -4,-3 -41,-3 -89,-11 116,2 349,5 349,5 -377,-27 -1130,-82 -1130,-82 -101,-15 -301,-46 -301,-46 -88,0 -254,-4 -287,-5 14,1 35,5 35,5 -49,5 -147,15 -147,15 131,21 106,-2 220,-5 79,9 236,31 236,31 l -226,10 c 74,1 854,12 852,31 l 49,5 c 50,27 21,26 16,26 -69,6 -222,0 -219,0 l 186,26 -1301,-52 c -105,-6 -213,-24 -317,-20 l -72,-11 178,0 c -105,-15 -317,-5 -317,-5 14,2 64,11 73,11 338,69 48,70 -8,72 17,3 129,20 130,20 192,20 483,38 667,72 282,47 49,46 -49,46 l -69,5 -1,0 c -60,1 111,17 94,16 190,-4 300,-12 505,0 -3,-2 -9,-5 -9,-5 393,-16 501,-25 895,20 -134,7 -398,39 -414,41 157,3 463,-36 463,-36 41,4 122,11 122,11 106,5 317,15 317,15 -11,-4 -53,-11 -32,-26 -36,0 -106,-5 -106,-5 86,-10 29,-4 -25,0 l -129,-15 c 37,-1 439,-2 438,10 207,20 411,35 619,46 92,-1 276,-5 276,-5 l 844,31 -6,0 c 744,4 2236,26 2236,26 l 496,0 c 264,-7 806,-5 806,-5 24,-7 73,-21 73,-21 12,4 32,21 32,21 168,-4 496,-15 527,-16 -60,-2 -251,-38 -234,-36 65,-10 195,-36 195,-36 3,4 8,11 8,11 203,23 314,44 521,35 -95,-3 -285,-10 -285,-10 222,-19 667,-56 667,-56 502,48 507,44 488,51 14,0 211,0 211,0 754,3 1101,26 1847,-41 92,45 278,131 284,134 l 8,0 c 659,250 579,114 1106,164 60,8 129,26 188,41 -60,-5 -179,-5 -179,-5 0,5 0,16 0,16 81,1 145,13 227,0 131,29 389,95 399,97 l -56,-5 7,0 c -55,-5 -272,56 -252,51 -5,19 -16,57 -16,57 67,-5 436,-38 471,-62 169,48 706,191 822,314 176,132 1045,-37 1309,-46 -48,-13 -146,-31 -146,-31 52,-7 514,-11 514,-11 129,-2 238,-12 364,-39 118,-24 221,-56 333,-102 230,-101 395,-212 576,-392 181,-188 290,-353 398,-594 103,-256 150,-468 158,-746 l 9,-52 -1,52 c -4,282 -46,492 -147,754 -103,247 -214,418 -393,612 -184,187 -347,302 -581,411 -246,105 -450,148 -716,151 0,0 -132,-3 -132,-3 l -57,10 189,8 c 269,-3 472,-47 721,-152 236,-109 402,-225 587,-413 181,-194 293,-369 398,-617 103,-263 144,-476 150,-761 0,0 7,-168 7,-163 21,-106 63,-317 63,-317 z m -18386,-16363 c 63,-4 160,-13 236,-19 l 406,19 -642,0 z m -7717,5946 c -133,-11 -175,217 -291,354 -86,77 259,-1619 273,-1688 -10,-375 15,-1131 15,-1130 l 3,30 0,2434 z m 26469,3625 c 0,-3 0,-3 0,1 l 0,-1 z m 132,-3159 0,0 0,0 z m -518,1643 0,1 0,-1 z m -3413,-9970 -14,0 -5,0 -2,0 m -285,0 -3,0 3,0 0,0 z m -3,0 -37,0 37,0 z m -3632,272 0,0 0,0 z m -2294,87 0,0 0,0 z m -100,139 -3,0 -2,0 m -2376,242 1,0 -1,0 z m -3131,-93 1,0 -1,0 z m 559,-83 3,0 6,1 1,0 1,0 m 547,-46 -2,0 2,0 z m 714,113 16,0 c -6,0 -16,0 -16,0 z m 226,-11 1,0 -1,0 z m -801,-673 -3,0 3,0 z m -9835,1599 c 1,0 1,0 0,0 l 0,0 z m 3196,298 0,0 0,0 z m 1733,20 -1,0 1,0 z m -88,11 -2,0 2,0 z m -7103,4651 c 1,-2 1,-3 0,1 l 0,-1 z m 3632,13133 0,0 1,0 0,0 m 3010,242 0,0 0,0 z m 3677,-262 -1,0 1,0 z m -715,5 c -5,0 -6,0 -2,0 l 2,0 z m 7,50 c -14,0 -38,-1 -56,-3 l 56,3 z m -56,-3 -3,0 -3,-1 -4,0 m 281,40 -7,0 -71,-4 0,0 m -547,41 2,0 -2,0 z m -1049,-154 -2,0 -1,0 -3,0 m 124,56 -2,0 2,0 z m -202,226 2,0 m 1069,72 -1,0 1,0 z m 5513,52 9,0 c -3,0 -9,0 -9,0 z m 1438,-21 2,0 -2,0 z m 3702,52 0,0 0,0 z m 4213,642 0,0 0,0 z"
    id="calendar-day-enabled_path"
    style="fill:#ffffff;fill-rule:nonzero" />
</g>
</svg>