<?xml version="1.0" encoding="UTF-8"?>
<!DOCTYPE svg PUBLIC "-//W3C//DTD SVG 1.1//EN" "http://www.w3.org/Graphics/SVG/1.1/DTD/svg11.dtd">
<!-- Creator: CorelDRAW X6 -->
<svg xmlns="http://www.w3.org/2000/svg" xml:space="preserve" width="140mm" height="28mm" version="1.1" style="shape-rendering:geometricPrecision; text-rendering:geometricPrecision; image-rendering:optimizeQuality; fill-rule:evenodd; clip-rule:evenodd"
viewBox="0 0 140000 28000"
 xmlns:xlink="http://www.w3.org/1999/xlink">
 <defs>
  <style type="text/css">
   <![CDATA[
    .fil0 {fill:white;fill-rule:nonzero}
   ]]>
  </style>
 </defs>
 <g id="Слой_x0020_1">
  <metadata id="CorelCorpID_0Corel-Layer"/>
  <path class="fil0" d="M136729 17385c-1,-1006 -280,-10146 -280,-10146 -24,-479 -50,-959 -75,-1438 -59,-876 -248,-1534 -701,-2342 -446,-750 -916,-1285 -1668,-1891 -8,4 -1176,-844 -1229,-789 -389,-200 -739,-348 -1165,-501 -1020,-339 -1821,-490 -2937,-535 -2,1 -2446,-93 -2294,-89 -4902,-104 -15168,288 -15072,285 -3816,127 -11732,-1 -11679,0 -655,26 -1965,80 -1965,80l-2857 -118c-3042,74 -6064,180 -9108,80 -2464,-27 -7393,-80 -7393,-80 -942,17 -9929,178 -9929,161 -3855,-97 -7825,-515 -11680,-612 -2371,2 -4735,10 -7106,43 -4360,111 -8721,530 -13072,650 -1842,29 -2592,-290 -4537,-527 -2970,-327 -4260,-315 -7071,-364 -1801,-77 -6130,-243 -7679,-531 -178,-49 -1590,-57 -1590,-57 -1348,32 -2355,230 -3554,677 0,0 -1542,689 -1492,733 -471,289 -833,539 -1248,875 -832,708 -1350,1337 -1828,2203 -444,876 -644,1579 -712,2508 8,0 -8,141 -8,141 33,8 -388,3408 -332,3408 43,1497 221,3051 339,4552 -56,764 -170,2290 -170,2290 -110,139 -331,416 -331,416 74,685 221,2056 221,2055 20,-277 59,-833 59,-832 111,208 332,624 332,624 -89,1143 -170,1785 -391,2914 0,8 7,98 6,98 65,1006 282,1767 796,2702 513,872 1061,1500 1944,2199 888,670 1700,1096 2862,1486 7,-6 626,180 626,180 970,264 1842,355 2881,362 0,0 14063,-160 14063,-160 0,0 21822,573 21822,569 7850,-83 15829,-290 23680,-488 3001,-132 3152,-132 3214,-135l10037 -26c253,0 5714,26 5714,26 2437,-60 4921,-344 7393,-380 1225,0 2383,-16 3608,-54l3786 -54c769,0 8500,-31 8500,-26 1474,2 2922,28 4394,80 440,9 1321,27 1321,27l2464 -215c216,-1 2958,13 3036,-193 -1341,-237 -3416,-515 -5072,-724l5072 0c3453,0 6279,-2329 6279,-5176l0 -15525c0,-2700 -2541,-4934 -5750,-5157 681,20 1261,122 1956,318 871,274 1459,577 2139,1062 697,524 1126,997 1544,1662 429,728 617,1323 693,2115 -1,0 142,1671 140,1646 156,5307 171,5287 163,5385 6,1717 36,3462 109,5177 77,1102 209,2217 329,3317 56,863 -31,1581 -365,2407 -1,0 -7,18 -7,18 -343,812 -754,1415 -1446,2099 -735,686 -1435,1139 -2462,1582 -1121,448 -2047,650 -3322,728 1287,-37 2234,-213 3390,-624 1088,-422 1826,-855 2631,-1533 778,-693 1248,-1305 1667,-2146 404,-887 549,-1597 537,-2531 -1,0 -171,-3947 -170,-3941zm-97858 9117l-1488 118c-750,-27 -2249,-81 -2249,-81l-91 -37 3828 0zm-17063 0l-925 118c-56,-18 -196,-62 -344,-118l1269 0zm-7428 -611c-288,-57 -574,-136 -882,-242 0,-3 -130,-48 -130,-48 -678,-255 -1148,-531 -1639,-955 -532,-492 -833,-931 -1028,-1540 -170,-645 -130,-1136 2,-1780 245,-1303 314,-2529 339,-3844l8 -913 0 4757c0,1970 1352,3692 3330,4565zm-3330 -12425c-15,-2555 -60,-5110 -101,-7665l110 -927c16,-62 251,-686 251,-686 94,-187 190,-355 297,-515 -357,650 -557,1371 -557,2128l0 7665z"/>
 </g>
</svg>
