<?xml version="1.0" encoding="UTF-8" standalone="no"?>
<svg
    xmlns:dc="http://purl.org/dc/elements/1.1/"
    xmlns:cc="http://creativecommons.org/ns#"
    xmlns:rdf="http://www.w3.org/1999/02/22-rdf-syntax-ns#"
    xmlns:svg="http://www.w3.org/2000/svg"
    xmlns="http://www.w3.org/2000/svg"
    version="1.1"
    style="fill-rule:evenodd"
    preserveAspectRatio="none"
    viewBox="0 0 10 8"
    id="calendar-day-active">
<g
    id="calendar-day-active_g"
    transform="matrix(3.576282097e-4,0,0,3.768613286e-4,-505.3441927,-412.4929032)">
<path
    d="m 1440366,1113285 c -10,-94 -34,-282 -34,-282 -49,195 -33,4 -34,17 13,-64 218,-908 190,-908 -23,-393 -146,-984 -219,-1387 10,-60 29,-180 29,-180 l 78,-394 c -16,349 -1,296 98,642 -2,-334 -7,-512 53,-848 25,-14 74,-43 74,-43 -7,-22 -20,-68 -20,-68 l 73,-368 -9,728 -49,239 0,-8 c -86,235 -86,211 -88,197 -10,65 -29,197 -29,197 47,165 141,497 141,496 13,-211 88,-625 88,-625 -8,-282 -24,-848 -24,-848 81,-793 77,-810 83,-762 26,315 -10,1006 -10,994 5,-9 5,9 5,8 0,51 -9,153 -10,162 l 0,-8 c -2,9 -5,26 -5,26 0,-3 0,-9 0,-8 -1,0 -5,0 -5,0 4,-26 10,-78 10,-78 -67,-364 -13,151 -10,189 -3,65 -10,197 -10,197 49,-288 147,-865 147,-865 0,-443 -34,-1328 -34,-1327 -16,-300 23,-465 -108,-711 -102,-210 -11,-1111 -5,-1165 -21,-48 -58,-146 -58,-146 24,-14 73,-42 73,-42 13,-209 39,-626 39,-626 -6,-146 -29,-196 -19,-359 -23,151 -69,454 -69,454 -133,344 -132,357 -131,325 11,-206 132,-618 131,-617 8,182 10,56 15,-51 18,-63 54,-188 54,-188 62,-334 63,-323 68,-309 8,-137 24,-411 24,-411 -78,176 -29,4 -24,-17 13,75 13,17 15,-8 45,-248 30,-551 29,-805 66,-441 103,-909 127,-1353 -53,272 -122,822 -122,822 23,45 35,93 -10,128 3,37 10,112 10,111 -5,-22 -19,-65 -20,-68 3,63 20,66 15,188 -7,-48 -20,-145 -20,-145 -181,793 -179,811 -180,762 7,-259 -33,-576 -54,-839 -23,94 -78,282 -78,282 -143,840 -138,847 -147,822 12,358 3,375 10,351 -14,166 -44,497 -44,497 -3,-40 -9,-120 -9,-120 -112,310 -12,-157 -10,-154 l -15,-180 c -1,26 -5,77 -5,77 -27,-231 -83,-693 -83,-693 145,-1330 136,-1352 152,-1285 42,283 37,621 34,908 72,-426 171,-1285 171,-1285 34,-428 -20,-839 -20,-1267 13,-241 31,-487 49,-728 -32,325 -98,976 -98,976 -66,314 -200,942 -200,942 -140,333 -136,355 -137,326 27,-237 127,-483 137,-694 -13,-111 -39,-334 -39,-334 -18,49 -54,146 -53,146 -22,49 -15,214 -15,205 -35,-107 -56,-137 -59,-257 l -39,419 0,-8 c -16,152 -49,454 -49,454 -33,222 -47,289 -63,531 -21,-204 54,-608 54,-608 4,115 9,-64 9,-77 -2,5 -5,17 -5,17 36,-311 108,-933 108,-933 14,59 49,180 49,180 11,-90 -35,-120 -44,-214 15,-123 39,-369 39,-369 20,166 19,506 19,506 48,-233 22,-100 10,-309 81,-512 82,-471 88,-436 23,-169 68,-506 68,-506 -61,-77 55,-790 49,-754 -20,-53 -54,-162 -54,-162 9,-85 144,-1456 132,-1456 -7,-316 -42,-671 -66,-988 -6,-310 -53,-546 -166,-832 -116,-271 -239,-459 -437,-671 -204,-205 -383,-330 -642,-448 -273,-114 -491,-159 -785,-162 0,0 -551,50 -544,49 -293,-26 -850,-46 -964,-50 56,2 145,14 142,14 -120,14 14,0 16,0 l 97,10 -227,6 c -146,-27 -133,-26 -122,-26 -58,-4 -156,-5 -211,-5 -15,9 15,6 32,5 l 81,10 c -104,0 -308,-20 -308,-20 -171,0 -513,-11 -513,-11 138,24 415,67 415,67 120,4 358,21 358,21 -193,13 34,5 41,5 l 186,20 c -351,-3 -1049,-56 -1048,-56 -38,-11 -31,-10 -25,-10 -98,-10 -293,-31 -293,-31 -80,7 -823,31 -821,5 -977,-115 -1017,-264 -2025,123 45,12 -13,11 -25,10 -35,12 -106,42 -105,42 51,6 154,20 154,20 -11,-14 -32,-41 -32,-41 148,-1 308,-15 455,5 l -40,-10 219,15 c 120,37 126,37 114,36 -71,0 -212,-31 -212,-31 -41,-25 10,14 -57,0 69,26 -170,94 -186,98 299,65 263,62 252,62 -123,-2 -245,-13 -366,-26 -17,3 -49,11 -49,11 -6,-7 -16,-21 -16,-21 -68,-5 -204,-21 -204,-21 37,16 28,16 25,16 -58,-6 -172,-30 -179,-31 l 40,0 c -27,-4 -81,-11 -81,-10 -139,68 -415,210 -415,210 -84,-20 -252,-66 -252,-66 134,-7 38,1 -65,-26 7,20 -122,0 -122,0 -22,14 -57,51 -57,51 10,0 30,5 33,5 -17,0 -49,6 -49,6 l 145,10 -137,-5 c 183,68 -74,19 -41,25 -7,10 -24,26 -24,26 l 284,41 -558,-15 14,0 c -150,-28 -276,-7 -456,-41 -92,-30 212,-13 179,-16 l -130,-31 8,0 -121,-25 528,56 c -13,-2 -37,-9 -40,-10 l 32,0 -72,-15 72,10 c -22,-33 -65,-98 -65,-98 -95,4 -285,10 -285,10 47,31 -121,7 -122,6 l -187,5 186,10 -15,0 c 46,3 138,10 138,10 -274,9 -821,26 -821,26 l 756,92 -157,-4 c 27,1 35,8 76,4 -23,7 808,164 789,160 -17,1 -49,5 -49,5 -142,35 43,11 105,5 391,77 1172,242 1172,242 -5,3 -17,5 -17,5 22,2 65,5 65,5 -43,5 -130,15 -130,15 25,6 -19,0 -16,0 -197,17 -236,-31 -423,-30 -298,6 -895,20 -895,20 -268,-11 -805,-41 -805,-41 -246,14 -740,41 -740,41 -54,-6 -618,-67 -618,-67 -295,-28 -413,3 -699,47 -18,-3 -195,-17 -106,-42 -3,0 -8,0 -8,0 127,-8 382,-25 382,-25 -179,-5 -529,-93 -529,-93 20,-4 60,-9 65,-10 -185,9 -562,-21 -561,-21 -103,2 -309,5 -309,5 227,44 366,63 594,83 -39,0 -90,7 -130,10 46,12 176,-4 179,-5 l 260,26 -366,0 c -14,19 -161,1 -203,-6 -394,-58 -363,-56 -334,-56 -184,-20 -553,-41 -553,-41 -437,-1 -1317,-83 -1317,-83 208,62 184,61 171,62 -234,8 -515,-20 -748,-51 59,-4 175,-15 186,-16 l -138,0 33,5 -236,0 c -19,5 -119,31 -122,-10 l -104,-5 15,0 -15,0 -2,0 -162,0 c -28,-2 -122,-15 -122,-15 63,-6 196,5 195,5 -54,9 23,5 40,5 47,-2 139,-5 139,-5 8,1 24,5 24,5 28,3 18,2 8,0 -5,-2 -16,-5 -16,-5 6,0 3,0 0,0 11,0 33,0 33,0 l -97,-10 259,0 c -19,-3 -69,-8 -16,-16 190,-5 569,36 569,36 -16,-10 35,-10 33,-10 200,-6 612,31 610,31 89,-6 268,-6 268,-6 -57,-5 -168,-19 -178,-20 l 577,0 c -291,-10 -871,-31 -871,-31 -256,-12 96,-3 57,-5 -118,-16 -178,-11 -293,-10 -151,-26 -157,-25 -146,-26 63,-6 181,2 217,4 l -258,-19 c -754,-55 -770,-52 -723,-57 367,-19 1126,10 1122,10 -5,3 -16,5 -16,5 52,1 153,5 168,6 l -6,0 283,10 -12,0 134,5 -543,0 c 34,5 -5,11 0,10 -26,7 41,5 57,5 l 40,6 -349,-6 c 393,31 1179,93 1179,93 l 195,0 226,-10 c -75,-1 -862,-18 -860,-36 0,0 -49,-5 -49,-5 -22,-11 -17,-11 -16,-11 -66,-10 21,-17 8,-15 71,0 212,5 212,5 l -178,-26 1292,47 c 100,6 301,20 301,20 -87,11 12,5 16,5 l 80,5 -178,0 c 151,20 168,15 318,11 -75,-15 -75,-15 -74,-16 -375,-46 -356,-45 -341,-46 -3,-2 -8,-5 -8,-5 119,-7 358,-21 357,-21 -51,-6 -154,-25 -154,-25 8,5 24,10 24,10 -51,-9 -154,-21 -154,-21 l -260,-36 16,0 -121,-20 502,36 -7,0 c 130,10 390,31 390,31 6,-4 17,-11 16,-11 -194,-44 -4,-40 41,-41 8,-10 25,-31 25,-31 -173,-11 -522,-77 -521,-77 -380,-31 -1131,-130 -1154,-133 27,0 81,-6 81,-6 95,0 277,5 305,6 l -4,0 c 43,5 130,15 130,15 422,-42 -3,-22 -25,-21 -221,-11 -667,-15 -667,-15 -188,-23 -362,-69 -553,-77 -389,-67 -415,-59 -390,-62 198,-3 411,15 610,31 436,-9 1309,21 1309,21 -560,57 80,8 122,5 95,3 285,10 285,10 l -211,-26 c 55,0 162,-5 162,-5 -92,-14 -276,-10 -276,-10 l -553,-82 317,15 c -505,-69 -987,-119 -1497,-123 92,35 93,34 90,36 8,0 24,0 24,0 -8,5 -24,5 -24,5 57,0 171,5 171,5 l 282,10 -12,0 136,5 c -532,15 -986,27 -1521,-5 -2,7 -8,21 -8,21 -92,-9 -276,-26 -276,-26 -54,0 -163,0 -163,0 -111,-19 24,-12 49,-10 -121,-23 -5,-47 -8,-46 -588,-9 -1765,-41 -1765,-41 -521,-22 -963,-138 -1472,-191 -13,-1 -101,-7 -89,-36 -167,-28 -447,-85 -610,-77 -327,26 -649,26 -976,26 54,5 162,15 162,15 316,95 336,93 309,93 -194,-11 -582,-90 -593,-93 300,6 -35,-5 -41,-5 -188,-26 -287,-12 -472,21 90,15 269,46 269,46 35,11 -9,10 -9,10 -100,-2 -209,-22 -308,-41 100,-6 -19,-5 -25,-5 -383,81 -1138,298 -1138,298 108,12 325,36 325,36 243,68 253,67 228,67 -162,-12 -327,-22 -488,-36 182,-80 -195,-23 -253,-10 119,37 111,36 106,36 -291,-11 -114,-37 -463,61 308,70 272,67 260,67 -125,-7 -250,-18 -374,-31 -66,19 -1188,341 -1188,304 5,-78 629,-324 716,-360 -211,-32 -634,-88 -634,-88 -184,88 34,48 32,62 135,26 140,26 130,26 -67,0 -203,-20 -211,-21 55,2 -4,-1 -49,-5 -272,168 -797,540 -797,540 60,0 179,10 179,10 -155,19 20,1 25,0 l 129,16 c -129,1 -233,12 -365,0 -28,17 -82,56 -82,56 351,4 1049,26 1049,26 -570,49 94,6 122,5 204,8 610,26 610,26 -639,14 -1203,30 -1846,0 -58,49 -656,548 -472,688 224,-33 2204,-298 2204,-298 17,45 323,38 391,36 -743,86 -2229,257 -2228,257 70,4 211,10 211,10 150,53 136,52 130,52 -103,0 -309,-41 -309,-41 166,-6 -19,-5 -24,-5 -36,0 -106,0 -106,0 502,77 1505,231 1505,231 35,0 105,0 105,0 -161,-28 127,-74 146,-77 -131,-146 635,-70 635,-67 526,54 1065,187 1578,221 12,41 368,85 471,98 -8,0 -16,0 -24,0 137,9 439,84 431,82 20,-12 96,-34 106,-36 -152,-33 -83,-31 -73,-31 -57,-8 -171,-20 -171,-20 683,-44 -86,-16 -106,-16 l -553,-82 98,5 c -99,-27 9,-30 32,-31 -344,-12 -1044,-108 -1041,-108 450,-5 -69,-15 -89,-15 l -415,-62 927,67 683,118 c 365,-5 746,28 1098,26 92,3 277,10 277,10 43,2 130,5 130,5 -271,5 -814,16 -814,16 139,5 415,15 415,15 223,31 667,103 667,103 215,21 683,16 699,15 l -32,5 146,0 -234,11 c 243,-4 716,14 745,15 l -120,5 c -44,10 -59,16 -56,19 l -7653,0 0,3113 c -227,305 -691,858 -691,858 -15,605 -44,1815 -44,1815 15,197 44,591 44,591 -62,497 -62,306 -64,266 -21,691 -68,2072 -68,2072 11,74 34,223 34,223 -60,-255 -185,-763 -185,-762 -20,-665 -240,-7976 -240,-7976 2,-215 33,-379 109,-578 79,-190 163,-322 299,-471 141,-145 265,-234 445,-319 189,-82 347,-116 551,-120 -208,4 -359,36 -551,118 -181,84 -306,174 -447,319 -138,150 -221,280 -301,471 -77,200 -108,364 -111,580 0,0 99,9812 99,9808 9,1071 71,2034 186,3100 74,651 183,1298 219,1953 26,608 -49,780 -107,1327 -4,43 -8,455 -8,455 3,156 27,275 84,418 58,137 119,231 220,337 101,103 193,167 323,225 136,56 247,79 394,79 1,4 473,-39 465,-39 109,30 204,51 317,36 175,-41 285,-97 472,-102 271,37 261,38 252,41 634,26 472,91 1204,25 99,-9 185,10 284,-15 -5,0 -16,0 -16,0 213,-17 156,5 333,-67 -10,0 -32,0 -32,0 l 145,-36 c -201,38 -217,35 -422,26 60,-14 179,-41 179,-41 93,0 277,5 277,5 37,-12 114,-31 114,-31 11,12 32,36 32,36 659,25 -135,45 33,41 2,4 8,11 8,11 90,0 278,10 276,10 41,-4 122,-10 122,-10 23,4 65,20 65,20 81,6 245,31 244,31 28,-4 82,-10 82,-10 480,88 441,91 406,97 161,28 480,93 480,93 -484,20 23,23 204,25 -112,-61 8,-43 32,-41 111,-3 333,-10 333,-10 -168,-52 -174,-52 -162,-51 61,5 188,41 187,41 l 65,10 c -196,-123 -30,-103 24,-98 126,10 375,47 374,47 30,-4 90,-11 90,-11 9,1 1,5 0,6 3,4 8,15 8,15 131,28 52,32 24,20 -19,0 -60,10 -64,11 108,0 317,31 317,31 13,-4 40,-11 40,-11 -117,-36 -2,-57 17,0 31,3 91,5 103,5 -11,1 -30,6 -30,6 898,82 -685,41 -561,46 196,66 916,51 862,51 -56,-23 66,8 56,5 36,0 106,0 106,0 92,41 277,124 277,124 65,-9 195,-26 195,-26 -46,-17 -138,-51 -138,-51 -36,-18 -180,-22 -195,-21 102,-37 130,-59 244,-62 -133,-13 -399,-41 -399,-41 -141,-17 -423,-51 -423,-51 -210,-35 -284,-51 -512,-67 46,-5 138,-15 138,-15 -71,-14 -212,-52 -211,-52 -185,0 -553,-46 -553,-46 -38,0 -114,0 -114,0 l 40,15 c -152,-14 -455,-20 -455,-20 16,7 49,21 49,20 -132,-19 -399,-30 -399,-30 35,10 102,34 106,36 -292,-5 39,9 49,10 54,19 162,56 162,56 126,16 173,-4 342,31 33,8 34,11 8,16 -95,10 -245,-2 -342,-16 142,-26 49,-16 33,-15 5,2 16,5 16,5 -38,-7 -140,-6 -203,-15 30,-2 89,-6 89,-6 -143,-22 -431,-66 -431,-66 -110,-29 -138,-47 -260,-57 1,0 43,-4 49,-5 -79,-24 -94,-6 -171,0 -168,-12 -504,-36 -504,-36 28,9 85,24 89,26 l -341,-72 c -194,-30 -340,-34 -537,-83 173,-3 248,4 415,41 -150,6 -39,1 57,16 -6,-16 290,26 284,26 85,0 253,0 252,0 l -154,-36 c 73,0 221,10 220,10 -97,17 -53,19 -41,20 594,-9 1119,-14 1716,21 331,-19 992,-57 992,-57 51,-43 578,-1 700,11 124,-4 374,-11 374,-11 -145,-23 -430,-80 -439,-82 348,11 640,72 992,72 437,1 1317,83 1317,83 -48,-7 -219,-47 -219,-47 54,-5 162,-15 162,-15 212,4 635,51 635,51 -61,7 -180,15 -194,16 l 112,0 c 79,-2 236,-5 236,-5 416,30 159,24 90,25 -55,4 -163,11 -163,11 35,16 21,15 16,15 -193,10 -577,-31 -577,-31 54,20 -381,-5 -430,-9 6,3 15,4 15,4 -165,-5 -496,-15 -496,-15 62,8 187,20 187,20 -612,7 84,20 106,21 59,3 179,10 179,10 32,7 30,9 16,9 l 228,12 c 152,25 157,23 146,25 -38,3 -105,2 -158,-1 l 198,11 c 701,68 434,62 367,62 94,5 284,16 284,16 408,60 419,58 390,61 -197,4 -411,-15 -609,-31 -176,9 -529,21 -529,21 -364,24 -1129,-11 -1122,-10 103,-9 309,-26 309,-26 -126,-5 -403,21 -399,21 -154,-7 -463,-21 -463,-21 230,-5 691,-15 691,-15 -174,-7 -521,-21 -521,-21 258,-10 773,-31 773,-31 l 6,0 -128,-5 c 550,-8 554,-4 537,-10 -5,-3 -41,-3 -90,-11 117,2 350,6 350,6 -377,-28 -1130,-83 -1130,-83 -101,-15 -301,-46 -301,-46 -88,0 -255,-4 -287,-5 14,1 35,5 35,5 -49,5 -147,16 -147,16 131,20 106,-3 220,-6 78,9 236,31 236,31 l -226,11 c 74,0 853,11 852,30 l 49,6 c 50,27 21,25 16,25 -70,6 -223,0 -220,0 l 187,26 -1301,-51 c -106,-7 -213,-24 -317,-21 l -73,-10 179,0 c -105,-15 -318,-5 -318,-5 15,1 65,10 74,10 338,69 48,71 -8,72 17,3 128,20 130,20 191,20 483,38 667,72 282,47 49,46 -49,46 l -69,6 -1,0 c -60,1 111,17 94,15 190,-4 299,-12 504,0 -2,-2 -8,-5 -8,-5 393,-16 500,-25 895,20 -134,8 -398,40 -414,42 157,2 463,-36 463,-36 40,3 122,10 122,10 105,5 317,15 317,15 -11,-3 -53,-11 -33,-25 -35,0 -106,-6 -106,-6 87,-10 30,-4 -24,0 l -129,-15 c 36,-1 439,-2 438,10 207,20 411,36 618,47 93,-2 277,-6 277,-6 l 844,31 -6,0 c 744,4 2236,26 2236,26 l 496,0 c 264,-7 805,-5 805,-5 25,-7 73,-21 73,-21 12,4 33,21 33,21 168,-4 496,-15 526,-16 -59,-2 -250,-38 -233,-36 65,-10 195,-36 195,-36 3,4 8,11 8,11 203,23 313,44 520,36 -94,-4 -284,-11 -284,-11 222,-18 667,-56 667,-56 502,49 507,44 488,51 14,0 211,0 211,0 753,3 1101,26 1846,-41 93,45 279,131 285,134 l 8,0 c 659,250 578,114 1106,164 60,8 128,27 187,41 -59,-5 -179,-5 -179,-5 0,5 0,16 0,16 82,1 145,14 228,0 131,29 389,95 398,97 l -55,-5 7,0 c -55,-5 -272,56 -253,52 -5,18 -16,56 -16,56 67,-4 436,-38 472,-62 169,49 706,191 821,314 176,132 1045,-37 1310,-46 -49,-13 -147,-31 -147,-31 53,-7 515,-11 515,-11 128,-1 238,-12 363,-39 118,-24 222,-55 334,-102 230,-101 394,-212 576,-392 180,-187 290,-352 397,-594 103,-256 151,-468 158,-746 l 10,-51 -1,51 c -5,282 -46,493 -147,754 -104,247 -214,418 -393,612 -184,187 -347,303 -582,411 -245,105 -450,148 -715,151 0,0 -133,-3 -132,-3 l -57,10 189,8 c 268,-3 471,-47 721,-152 235,-108 402,-225 587,-413 180,-194 293,-369 398,-616 103,-263 144,-477 150,-762 -1,0 6,-168 6,-163 21,-106 63,-317 63,-317 z m -18386,-16363 c 63,-4 161,-13 237,-19 l 405,19 -642,0 z m -7716,5946 c -133,-11 -175,218 -291,354 -86,78 259,-1619 273,-1687 -10,-376 15,-1131 15,-1130 l 3,29 0,2434 z m 26468,3626 c 1,-4 1,-4 0,0 l 0,0 z m 132,-3160 0,0 0,0 z m -517,1644 0,0 0,0 z m -3414,-9970 -13,-1 -6,0 -1,0 m -285,0 -3,0 3,0 0,0 z m -3,0 -38,0 38,0 z m -3632,272 0,0 0,0 z m -2294,88 0,0 0,0 z m -100,139 -3,-1 -3,0 m -2375,242 1,0 -1,0 z m -3131,-93 1,0 -1,0 z m 559,-83 3,1 6,0 0,0 2,0 m 547,-46 -2,0 2,0 z m 713,113 17,0 c -6,0 -17,0 -17,0 z m 226,-10 2,0 -2,0 z m -801,-674 -2,0 2,0 z m -9835,1599 c 2,0 2,0 1,0 l -1,0 z m 3197,298 0,0 0,0 z m 1732,20 0,0 0,0 z m -88,11 -2,0 2,0 z m -7102,4652 c 1,-3 1,-4 0,0 l 0,0 z m 3632,13132 0,0 1,0 0,0 m 3010,242 -1,0 1,0 z m 3677,-262 -2,0 2,0 z m -716,6 c -5,-1 -6,-1 -1,-1 l 1,1 z m 7,49 c -13,0 -37,-1 -55,-3 l 55,3 z m -55,-3 -4,0 -3,0 -3,-1 m 281,40 -7,0 -71,-4 0,0 m -547,41 2,0 -2,0 z m -1049,-154 -2,0 -1,0 -3,0 m 124,57 -2,0 2,0 z m -202,226 2,0 m 1069,72 -1,0 1,0 z m 5513,51 8,0 c -3,0 -8,0 -8,0 z m 1437,-21 2,0 -2,0 z m 3703,52 0,0 0,0 z m 4213,642 0,0 0,0 z"
    id="calendar-day-active_path"
    style="fill:#FFCC00;fill-rule:nonzero" />
</g>
</svg>