<?xml version="1.0" encoding="UTF-8" standalone="no"?>
<svg
    xmlns:dc="http://purl.org/dc/elements/1.1/"
    xmlns:cc="http://creativecommons.org/ns#"
    xmlns:rdf="http://www.w3.org/1999/02/22-rdf-syntax-ns#"
    xmlns:svg="http://www.w3.org/2000/svg"
    xmlns="http://www.w3.org/2000/svg"
    xml:space="preserve"
    version="1.1"
    viewBox="0 0 227 272"
    id="svg2">
<g
    id="g"
    transform="matrix(0.0027946344,0,0,0.0027905307,3.524538859,-3.96235678)">
    <path
        d="m -4.46875,5.03125 0,345.375 287.8125,0 0,-305.0625 c -0.035156,1.11077142 -0.2097933,1.96422244 -0.65625,2.40625 -1.6688977,1.16574804 -3.5980315,6.58046259 -4.25,8.28125 0.3224409,0.36141733 0.7522638,4.07677165 0.8125,4.75 L 278.5,60.625 c 0.055137,0.18953452 -0.7380526,-1.84710305 -0.71875,-2.46875 l 0,-0.03125 c 5.934e-4,-0.008187 -9.236e-4,-0.0236665 0,-0.03125 l 0.09375,-0.5 c -0.03189,0.092126 -0.9433563,2.68188975 -1.34375,4 0.1877953,0.82913386 0.017717,1.49045275 0,2.3125 l -0.1875,0 c 0,0 -0.011909,-1.2136811 0.0625,-1.8125 -0.2019685,0.59173229 -0.4597441,1.2761811 -0.5625,1.875 -0.6838583,5.31496067 1.1721949,4.51963578 -2.21875,11.15625 l 0,0.09375 c -0.035433,0.0602362 -1.2030512,1.90831692 -1.8125,2.84375 0.9070866,7.50472447 0.6014764,11.00752947 0.5625,18.59375 l 0,2.125 c -0.092126,-0.19133858 -0.056152,-0.12234256 -0.71875,4.9375 0,-0.00354 0.5261319,4.4481299 0.78125,6.6875 0,0 0.078937,-1.8870571 0.125,-2.84375 0.1169291,2.0834646 -0.1533957,3.1778051 -0.46875,5.21875 0,0 -0.110187,0.065404 -0.15625,0.09375 0,0 0.361811,1.3096949 0.5,1.96875 -0.03189,0.173622 0.4368602,-1.7413878 0.46875,-2.34375 0.01063,0.3082677 0.1620571,3.5875492 0.21875,5.28125 0,0 -0.2316437,0.2232776 -0.28125,0.34375 0,0 0.189124,0.4742618 0.28125,0.71875 0,0 -0.033169,5.4675197 0.0625,8.125 l 0,5 c 0,0 -0.296661,14.9267672 -0.34375,22.4375 l 0,0.0625 -0.40625,8.4375 c 0,0 0.037697,1.8529035 0.0625,2.78125 -0.1488189,2.0870079 -0.359252,4.1665354 -0.625,6.25 -0.1700787,-0.01063 -0.1704232,4.0377461 -0.15625,4.40625 l 0.21875,-1.3125 c -0.060236,-0.542126 -0.138189,-1.1181102 0,-0.25 0,0 0.0625,-0.7081693 0.0625,-1.0625 0.1913386,0.2055118 0.3253937,-0.2026575 0.375,-0.3125 0,0 -0.1478839,2.1245079 -0.21875,3.1875 0,0 -0.110187,0.8077264 -0.15625,1.21875 0,0 0.5283465,3.075935 0.5,4.65625 -0.028346,-0.1594488 -0.4632874,-2.80625 -0.5625,-4.15625 -0.6094488,3.9755906 -0.4938484,5.042126 -0.28125,9 0,0 0.037697,-0.034154 0.0625,-0.0625 -0.1629921,2.065748 -0.056693,3.1526575 0,5.0625 0.02126,-0.1665354 -0.1733268,1.5746555 -0.1875,0.96875 l 0,-0.03125 -0.09375,-0.6875 c -0.00354,-0.9885827 0.00925,-3.338189 -0.625,-0.5 -0.4606299,1.8531496 -0.703002,4.7876476 -0.96875,6.71875 0,0.014173 -0.235187,1.1353346 -0.28125,1.3125 -0.017717,-0.5704724 -0.02623,-3.4711614 -0.96875,-0.0625 0,0.085039 -0.1001969,0.5699311 -0.125,0.71875 0,0 -0.1394685,-2.1315945 0.0625,-3.1875 l 0,1.78125 0.125,-0.71875 c -0.046063,-1.0488189 0.1926673,-2.1209646 0.28125,-3.1875 l 0.71875,-13.09375 -0.375,1.875 c 0,0.028346 0.085039,-1.5171752 0,-2.21875 0,-0.046063 0.021211,-0.3504429 -0.34375,0.15625 l -0.0625,0.5 c -0.2586614,-0.017717 -0.4027067,7.8496555 -0.40625,8.59375 l -0.15625,-2.28125 c 0,0 -0.2857776,1.5812992 -0.40625,2.375 0.035433,1.1409449 0.3424213,0.8970964 0.0625,2.21875 0,0 -0.1478839,-1.0074803 -0.21875,-1.5 0,0 -0.048327,0.2297244 -0.0625,0.375 0.01063,-0.3295276 0.0625,-2.0239665 0.0625,-2.90625 0,0 0.4230315,-2.0214075 0.625,-3.03125 l 1.125,-11.375 c 0,0 -0.037697,2.3584153 -0.0625,3.53125 0.099213,-0.4925197 0.089567,-0.8637303 0.125,-0.90625 0.081496,-0.1771654 0.053494,-0.131939 0.15625,5.40625 l 0.0625,-1.25 c 0,-0.00354 0.2645177,5.1910925 0.40625,7.78125 l 0.28125,-5.21875 c 0,0 0.1478839,4.6166338 0.21875,6.9375 0,0 0.1855807,-3.1007382 0.28125,-4.65625 0,0.04252 -0.3450295,-2.7350394 -0.28125,-4 0,-0.00354 0.2268209,2.055561 0.34375,3.09375 0,0.06378 0.4857776,-7.6451771 0.15625,-11.3125 0,0.00354 -0.1607776,-3.5408464 -0.28125,-5.3125 0.2161417,-1.9948819 0.4558563,-4.1336614 0.40625,-6.125 -0.038976,-0.2870079 -0.018159,-0.2039863 -0.84375,3.90625 0,0 -0.1166339,1.9218504 -0.1875,2.875 0,-0.680315 0.07751,-3.3636812 -0.84375,3.6875 l -0.15625,2 c 0.03189,-0.5350394 0.04252,-1.2181594 0,-1.59375 -0.024138,0.071862 -0.1024985,0.3943103 -0.34375,1.46875 l -0.15625,2.21875 c -0.019488,0.019931 -0.077165,0.088779 -0.125,0.25 0,0 -0.078937,1.2136811 -0.125,1.8125 -0.00233,0.1422403 -0.1074541,3.1940616 -0.1875,3.53125 -0.029952,-0.2058994 -0.070718,-0.9274114 -0.09375,-2.46875 0,0 -0.1678642,1.2478346 -0.28125,1.875 0,0 0.1478839,-3.338189 0.21875,-5 0,-0.00354 -0.01998,0.096014 -0.0625,0.15625 0.06378,-0.4925197 0.3978346,-4.8894193 0.125,-4.34375 0,0 0.544439,-3.8707677 0.40625,-5.8125 0,-0.049606 0.028642,-0.170374 -0.1875,0.1875 0,0 -0.110187,-1.1105807 -0.15625,-1.65625 -0.01063,-0.6980315 0.070817,-3.281939 -0.34375,0.90625 0,0 0.037697,1.5848425 0.0625,2.375 l 0,1.125 c -0.014173,-0.1452756 -0.098917,-1.3245079 -0.1875,-1.9375 0,0 -0.6549705,4.2419291 -0.71875,6.375 0,0 0.1478839,1.1105807 0.21875,1.65625 0,0 0.5293307,-1.7368602 0.625,-2.21875 0,0 -1.1143701,8.873376 -1.125,13.28125 0,3.5362205 -0.8234744,6.4573327 -0.96875,9.96875 0.024803,-0.092126 0.8025591,-2.9428642 1.125,-4.40625 0,0 0.078937,2.4956693 0.125,3.75 -0.1559055,1.2295276 -0.7202756,6.5451772 -0.125,7.0625 0,-0.00354 0.4948819,6.634498 0.75,9.96875 -0.4783465,6.0059056 -0.4123524,11.2966043 -0.28125,17.28125 -0.014173,0.1240157 -0.019685,0.5681595 -0.25,-0.40625 0,-0.01063 -0.15625,1.492372 -0.15625,2.21875 l 0.5,-1.5625 0,2.5625 c 0.01063,-0.056693 -0.5598917,2.9039862 -0.34375,2.84375 -0.1149803,0.5320276 -0.1720946,1.0895294 -0.1875,1.25 -0.00675,-0.092513 -0.012648,-0.2788878 -0.03125,-0.65625 -0.5031496,1.6759843 -0.608563,2.4164862 -0.5625,4.15625 0.6590551,-1.9807087 0.7175197,-3.4574311 1.125,-5.40625 l 0.96875,-3.4375 c -0.014173,0.04252 -0.2232776,0.6227854 -0.34375,0.90625 0,0 0.3057579,-3.3687992 0.46875,-5.0625 -0.081496,-0.7759843 -0.3188976,-0.9285925 0,-1.71875 0.014173,0.056693 0.090207,0.4616634 0.09375,0.46875 0.1311024,-1.2295276 0.3602362,-1.5159449 0.75,-2.625 0,0 0.6050689,-2.8945374 0.90625,-4.34375 0,0 0.037697,0.6050689 0.0625,0.90625 0.1275591,-0.6377953 0.1230807,-1.6450295 0.21875,-2.03125 0,0 -0.037697,0.1031004 -0.0625,0.15625 -0.011584,-0.1332116 -0.097479,-0.7040883 0.0625,-0.15625 0.035764,0.1224735 0.060907,0.2384496 0.125,0.5 0.1877953,-0.9779528 0.3675689,-2.5156004 0.21875,-3.46875 -0.060236,-0.265748 -0.1159941,-0.2393209 -0.21875,0.09375 -0.4783465,1.7007874 -0.1901083,2.1689961 -0.40625,3.4375 0,-0.00354 -0.4948819,1.1105807 -0.75,1.65625 -0.00709,0.099213 -0.2200295,3.4026083 -0.15625,0.46875 -0.02126,0.04252 -0.3547244,0.7152559 -0.5,1.0625 0,0 0.1752953,-2.6712598 0.4375,-4 0.00354,-0.00354 -0.189124,0.3370079 -0.28125,0.5 0,0 0.079281,-3.0665846 0.28125,-4.59375 l -0.21875,0.40625 0,-1.15625 c 0,0 0.6179134,-3.7058071 0.625,-5.5625 -0.00354,0 0.5067913,-1.4057087 0.6875,-2.125 l 0.21875,1.375 c 0.219685,-2.296063 0.4385335,-3.033809 0.90625,-5.15625 0,0.00354 0.488435,-2.8291338 0.71875,-4.25 0,0 0.346998,-2.6606299 0.53125,-4 0.035433,1.1480315 0.347687,1.4134842 0.84375,2.4375 -0.01063,-0.1523622 0.040305,-1.6073327 0.28125,-1.96875 0,0 0.4536417,-0.9108268 0.6875,-1.375 0,0 0.2303642,1.3132382 0.34375,1.96875 0,-0.00354 -1.0999508,1.8529035 -1.65625,2.78125 l 0,1.0625 c 0.04252,-0.099213 -0.3813976,1.1223425 -0.0625,0.5625 0,-0.5456693 0.1777067,6.7067913 -0.71875,8.6875 -0.067323,1.2437008 0.4875984,-14.7058564 -0.625,-5.65625 0,0 -0.055413,-0.1991142 -0.0625,-0.3125 -0.00709,0.1204724 -0.023524,0.7436024 -0.0625,1.0625 -0.7759843,0.184252 -0.4996063,1.3432579 0,0.15625 -0.00354,0 0.078937,0.268061 0.125,0.40625 0,-0.00354 -0.40625,2.0997047 -0.40625,3.1875 -0.014173,-0.04252 -0.15625,-0.4613681 -0.15625,-0.65625 0.1523622,-0.2834646 0.1255906,-1.0681102 -0.25,0.25 0,0 -0.1656004,0.06186 -0.21875,0.09375 -0.01063,-0.01063 -0.055413,-0.095669 -0.0625,0 0,0 0.078937,0.6050689 0.125,0.90625 0,0 -0.486811,2.4885827 -0.625,3.75 -0.077953,0.542126 -0.359941,2.2200788 1.3125,0.25 l -0.125,0.65625 c 0.00354,-0.014173 -0.4845472,1.2549213 -0.5625,1.875 0.038463,-0.074489 0.1820577,-0.4169928 0.6875,-1.625 0,0 0.110187,2.224065 0.15625,3.34375 -0.028346,0.2374016 -0.2666339,1.463435 0.5625,0.34375 -0.038976,1.8212599 -0.063829,6.9068406 -0.34375,2.03125 0,0 -0.9021161,3.228002 -1.28125,4.84375 -0.088583,-0.3437008 -0.1077756,-0.7428642 -1.3125,4.09375 0,0 0.110187,0.536122 0.15625,0.8125 0.00354,-0.01063 -0.3595472,1.660876 -0.4375,2.46875 0,0 -0.2210138,0.4294783 -0.28125,0.65625 0,0 0.110187,0.8077264 0.15625,1.21875 0,-0.014173 -0.1527067,1.8670768 -0.15625,2.78125 0,0 -0.078937,0.065404 -0.125,0.09375 0.05315,1.6937008 -0.2329724,-6.3241142 -0.5625,0.3125 0,0 -0.3370079,0.2374508 -0.5,0.34375 0,0 0.2780512,0.7806594 0.4375,1.15625 0,0 -0.09375,1.8493602 -0.09375,2.78125 0,0 0.378248,1.1788878 0.5625,1.78125 0.1169291,-2.065748 0.1700295,-2.1955216 -0.34375,-4.21875 l 0.5,1.4375 0,-0.3125 c 0.9459825,1.7308738 0.7122165,1.2775168 0.90625,3.1875 0.3330709,1.0027559 0.094734,1.8722441 0.21875,2.875 0.8929134,7.3629922 -0.024213,5.7399606 -0.375,12.125 -0.038976,-0.095669 -0.048721,-0.1970965 -0.5625,2.53125 0.074409,1.8779528 0.8464075,2.9889764 1.40625,4.75 0.1984252,1.1444882 -0.0719,2.0855315 -0.46875,3.1875 -0.01063,-0.077953 0.546063,4.6733268 0.5,4.6875 -0.00354,1.4775591 -0.2936024,2.5974901 -1.0625,3.96875 -0.7901575,1.303937 -1.6458169,2.2224409 -3.03125,3.25 -1.4456693,1.0062992 -2.7406004,1.6270177 -4.59375,2.21875 -1.9452756,0.5704724 -3.5479823,0.8189469 -5.65625,0.84375 0,0 -5.599311,-0.05123 -6.1875,-0.09375 -7.4125985,-0.588189 -9.7270177,-1.3176181 -17.96875,-1.0625 -8.8830709,0.3685039 -17.6771653,1.4711122 -26.5,2.21875 -14.456693,1.1515748 -27.5143208,1.751624 -42.03125,1.84375 0.056693,0 -132.96875,1 -132.96875,1 -2.91968506,-0.024803 -5.17145667,-0.3177657 -7.875,-1.09375 -2.58769835,-0.8049048 -4.31239302,-1.6791912 -6.34375,-3.0625 2.01968505,1.3677165 3.80610234,2.2133858 6.375,3 2.70000002,0.7653543 4.93115155,1.0760335 7.84375,1.09375 0,0 99.1108267,-2.2042815 108.125,-2.40625 -0.00354,0 6.8890256,-1.2690945 10.34375,-1.875 0,0 -2.0249508,0.2268209 -3.03125,0.34375 0,0 -17.915249,-0.4654228 -27.46875,-0.6875 0.6441068,-0.037537 0.8384351,-0.1599409 -4.21875,-0.625 0,0 -5.3283464,0.2922244 -8,0.4375 0.00354,0 -16.42224403,-0.2922244 -24.625,-0.4375 0,0 -7.4899606,-4.6797736 -11.625,-6.96875 l -42.21875,0 0,-77.0625 c -0.0354331,0.035433 -0.10826772,-0.1231299 -0.25,-0.5625 L 27.40625,195.5 c -0.0141732,0.2940945 -0.2683563,5.0551181 -0.21875,7.5 l -0.125,-2.34375 0,1.46875 L 27,201.8125 c 0.003543,0.1665354 0.0611713,4.8662894 -0.21875,7.03125 0,0 -0.98459645,4.4758366 -1.40625,6.71875 0,-0.00354 -0.12017716,2.760187 -0.1875,4.15625 0,0 -0.15142716,-5.4591535 -0.21875,-8.1875 0,0 -0.0376968,0.8766732 -0.0625,1.3125 0,0 -0.11018701,1.8564468 -0.15625,2.78125 0.0248032,3.5503937 -0.41107284,7.3880905 -0.34375,11.0625 l -1.59375,6.875 -0.90625,9.34375 0.84375,-4.1875 c 0.002347,-0.138499 0.064275,-2.4411104 0.125,-2.6875 0.0229761,0.1440576 0.0430118,0.6482776 0.0625,1.78125 -0.007087,0.03189 1.29867126,-6.9998523 1.46875,-10.46875 0.0177165,0.230315 0.0448327,1.335876 0.40625,0.34375 l -0.0625,0.96875 1.125,-5.5625 c -0.007087,-0.2019685 -0.36943898,-7.9471457 0.21875,-1.0625 0,0 0.13661417,-1.1447342 0.25,-1.71875 0,0.1027559 -0.008957,0.7736221 0.4375,-0.75 0.0283465,0.092126 0.33346457,0.8640748 0.5,1.0625 0.0212598,-0.077953 -1.00452756,2.9654035 -1.125,4.34375 l 0,-0.25 c -0.17362205,1.0417323 -0.79099409,4.6295276 -1.34375,4.75 -0.45708662,5.1661418 -2.24237204,10.6125492 -2.96875,15.90625 -0.0425197,-0.00354 -1.10216537,7.6966536 0.875,6.375 0.0389764,0.1984252 0.68336614,3.095128 1.0625,1.46875 l 0,1.0625 c 0,0 -2.08326771,10.1034941 -3.125,15.15625 l 0,-1.0625 c 0,-0.026575 -0.007087,-0.4860236 0,-0.75 0.009117,0.098235 0.0476102,0.1812218 0.0625,0.5 0,0 0.55895669,-2.055561 0.5625,-3.09375 0,-0.060236 -0.003002,-0.1969488 -0.71875,1.3125 0,-0.00354 -0.078937,1.4163386 -0.125,2.125 0,0.00354 -2.33779527,-14.9575787 -3.5,-22.4375 0.0283465,0.6874016 0.13361221,3.7397146 -0.46875,3.90625 0,0 3.5847933,19.9616634 4.03125,22.21875 -1.89566931,1.8531496 -8.67406496,-4.1653543 -9.34375,-4.75 0.40748032,-6.4736221 0.18779528,-12.1591043 0,-18.59375 l -0.34375,6.125 c 0.0212598,0.2870079 0.60364174,6.9937008 -0.0625,1.25 0,0 -0.29060039,7.0333661 -0.34375,10.5625 0,0 -0.540305116,-0.5638287 -0.78125,-0.84375 0.162992127,-1.3287402 0.01771654,-2.3487697 0,-3.65625 l -0.1875,1.3125 c 0.0070866,0.038976 0.255118112,1.7778051 0,0.21875 0,0 -0.152706693,1.2136811 -0.15625,1.8125 0,0.00354 -5.030610219,-5.285187 -7.3125,-8.03125 0.0227333,-0.1818664 0.04866253,-0.3559423 0.0625,-0.5 0.01771654,-0.081496 0.277706693,-1.444685 0.28125,-2.125 -0.0035433,-0.099213 0.0070374,-0.04813 -0.34375,1.3125 -0.194881891,-0.014173 0.34680119,2.1933563 -0.84375,0.34375 0,0 0.751673225,-4.283809 1.1875,-6.40625 0.485433075,0.8787402 3.822637787,7.1762303 4.875,7.21875 0.510236224,0 -3.838631888,-11.3026083 -4.09375,-11.96875 0.177165356,-1.2543307 0.307037401,-2.492126 0.40625,-3.75 0.0035433,-0.1204724 0.039813,-0.478937 -0.90625,2.625 -1.339370089,-3.5220473 -0.992568899,-1.7536417 -0.84375,-4.6875 -0.02974152,0.038131 -0.122868713,0.2333661 -0.46875,1.0625 -0.177165356,-0.5846457 -0.966338591,-4.3666831 0.125,-2.53125 0.194881891,-1.6228347 0.337007873,-3.2763287 0.5,-4.90625 0,-0.2551181 0.0079232,-0.1671752 -0.90625,2.28125 l -0.5,3.28125 c 0,0 -2.932824795,-7.6065452 -4.03125,-11.46875 0,-0.056693 -0.01899606,-1.2598425 0.0625,-0.25 0.258661419,-1.0027559 0.534153543,-2.0803642 0.5625,-3.09375 0.0035433,0 -0.0038878,-0.451624 -0.15625,-0.09375 0,0 -0.41594488,1.7875 -0.625,2.6875 -0.453543311,-1.8637795 -0.639124018,-2.8301673 -0.28125,-4.71875 0,-0.03189 0.06628937,-0.9015256 0.09375,-1.375 -8.89052e-4,0.1778861 0.01499091,0.3548985 0,0.9375 0.03188976,-0.1169291 1.097637794,-4.0093012 1.25,-5.96875 0.0070866,-0.2728346 0.03267717,-0.05689 -1.25,3.125 0,0 -0.147883858,1.0793307 -0.21875,1.625 -0.0035433,-3.2952756 -4.921e-5,-6.5207677 -0.34375,-9.8125 -0.113385828,-1.6476378 0.652116139,-4.4767224 1.03125,-6.15625 0.39330709,0.1133858 0.478740157,-0.7786909 0.5,-0.90625 0.708661423,-5.1307087 2.2684055096,-9.5613189 2.5625,-14.8125 0,0 0.4420275581,-11.8568405 0.5625,-17.78125 -0.014173228,-0.028346 0.3096456669,1.128691 0.625,-0.09375 -0.02480315,0.2515748 -0.1024114193,1.619685 0.15625,0.5 l 0,-1.625 c 0,0 0.226820865,-1.8493602 0.34375,-2.78125 0,0.00354 -0.189124015,-0.068947 -0.28125,-0.09375 0.425196854,-5.3858268 0.264468505,-9.958563 0.0625,-15.3125 l -0.0625,1.25 0,0.125 -0.15625,2.71875 c 0,0 -0.055942708,1.0309491 -0.0625,1.625 -0.00930118,-0.050935 -0.028838582,-0.115502 -0.0625,-0.15625 l 0,0.25 c -0.017716536,-0.028346 -0.018110232,-0.011467 -0.5,0.90625 C 0.341486221,152.9317913 1.033316922,148.0811024 1.96875,143 L 1.75,146.1875 2.875,140.625 c 0,0 -0.0734252,-1.8529035 0.125,-2.78125 0,-0.00354 0.09375,1.0722441 0.09375,1.625 l 0.34375,-2.125 c 0,-0.00354 -0.110187008,1.9183071 -0.15625,2.875 0.04251968,0.4251969 0.724114179,6.8596949 -0.0625,1.21875 0,0 -0.405265749,8.7973425 -0.28125,13.1875 -0.216141734,2.0019685 -0.4558563,4.1301181 -0.40625,6.125 0.0348404,-0.2077964 0.195052236,-1.0952264 0.84375,-3.90625 0.113385828,-1.9204725 0.722982281,-3.701624 1.03125,-5.59375 0,0.00709 0.06284449,-4.4935531 0.21875,-6.71875 -0.0088583,-0.1350886 -0.119386688,-1.8577948 -0.0625,-2.09375 0.04676543,0.046216 0.164370077,0.5462598 0.34375,1.875 0,0 -0.149697863,0.8048908 -0.21875,1.25 l 0,0.03125 c -0.01150313,0.3114509 -0.0625,2.1154667 -0.0625,3.0625 0,-0.00354 0.0625,0.536122 0.0625,0.8125 0.04251969,-0.2338583 1.390846453,-7.7982283 1.8125,-11.625 -0.0035433,0.014173 0.87180118,-3.5102362 1.03125,-5.25 0,0 0.299311023,0.1649606 0.4375,0.25 0.0035433,0.4570866 -0.03986221,2.3621555 0.5625,0.40625 0,0 0.07893701,0.1031004 0.125,0.15625 0,0 -0.26502435,2.5054271 -0.40625,3.84375 l 0,0.09375 -0.5,4.96875 0.28125,-1.21875 0,0.15625 0.5,-2.59375 c 0,0 0.164320865,-1.0451772 0.28125,-1.5625 0,0 -0.08892716,0.1720472 -0.15625,0.25 0,0 0.262253936,-1.0416339 0.34375,-1.5625 0,-0.00354 0.189124015,2.3890256 0.28125,3.59375 0,0 0.03769685,-0.034154 0.0625,-0.0625 0.01062992,0.1452756 -0.0057087,0.3432087 0.625,-3.4375 0.01771654,0.014173 0.0203248,-0.00236 0.21875,-0.75 0.0637795,1.5023622 0.14429134,1.6709646 -0.125,3.1875 l 0,-1.78125 -0.09375,0.8125 c 0.0035433,0.04252 0.08277559,1.0243602 -0.0625,0.15625 0.0035433,0 -0.189124015,2.0214075 -0.28125,3.03125 l -0.625,13 0.34375,-1.78125 c 0,0 -0.0625,1.4127953 -0.0625,2.125 -0.01771654,-0.1311024 0.07701772,0.7598917 0.21875,0.09375 0.01771654,-0.014173 0.05413386,-0.041092 0.125,-0.15625 0,0.00354 0.0625,-0.5 0.0625,-0.5 0.255118112,0.017717 0.48582677,-7.8979823 0.5,-8.65625 l 0.15625,2.09375 0,0.15625 0,1.96875 c 0,0 -0.866683068,7.917126 -1.28125,11.875 l 0.09375,-3.5 -0.09375,0.40625 c 0,0.1559055 0.03316929,0.8247047 -0.0625,0.5625 0.01062992,0.049606 -0.05413386,-0.3401575 -0.125,0 l 0,-5.46875 -0.0625,1.25 0,0.09375 0,0.03125 -0.15625,2.65625 c -0.01062992,0.1559055 -0.0625,1.1595472 -0.0625,1.6875 0,0 -0.02352362,-0.1066437 -0.0625,-0.15625 0,-0.04252 -0.407824805,7.5749508 -0.15625,11.28125 0.06732284,0.4677165 0.04069881,0.3156005 0.78125,-7.28125 l 0.25,-2.59375 c -0.03543307,0.3649606 -0.136909449,1.5497047 -0.0625,2.1875 0.02125984,0.1133858 -0.0034941,0.061959 0.34375,-1.46875 -0.0035433,-1.1586614 -0.06343504,-1.7504921 0.15625,-2.9375 0.03188976,-0.3897638 -0.104035434,3.1420276 0.0625,0.5625 0,0.00354 0.29576772,-5.8580216 0.4375,-8.78125 l 0,5.8125 c 0.0177165,-0.1027559 0.17559055,-1.2036909 0.25,-1.78125 0,0 0.0193406,1.7875 0.09375,2.6875 0.003543,-0.02126 -0.52253937,4.1365649 -0.4375,6.15625 0,-0.024803 0.018061,0.4719488 0.15625,0.3125 0,-0.00354 -0.570866142,3.8330709 -0.5,5.75 0.10275591,0.5279528 0.18331693,0.038632 0.21875,-0.15625 l 0,2.59375 0.125,-0.96875 0,0.3125 c 0,0 0.0689468,-0.099557 0.09375,-0.15625 -0.003488,0.02807 0.009744,0.024655 0,0.09375 0,0 -0.0724902,0.1685039 -0.09375,0.25 0,0 0.0689468,0.9108268 0.09375,1.375 0.007087,0.1771654 0.0267224,0.9448327 -0.09375,0.40625 0,-0.01063 -0.13690945,1.3309547 -0.0625,1.96875 0,0 0.18686024,-0.9388287 0.21875,-1.21875 l 0,-1.625 0,-0.03125 0.0625,-1.0625 c 0.55984252,-0.03189 0.18523622,-1.0274114 0.125,-1.21875 l 0,-2.375 -0.0625,0.34375 0,-1.40625 c 0.0141732,0.1098425 0.17268701,1.2726378 0.21875,1.875 0.42165355,-2.3562992 0.79734252,-5.1820374 0.6875,-7.53125 -0.0141732,-0.1311024 -0.003986,-0.3788878 -0.84375,1.71875 0,0.00354 1.11437008,-8.8456693 1.125,-13.25 0,0 0.30174119,-3.5096012 0.5625,-5.40625 0.0328863,0.02508 0.19128937,-0.560187 0.78125,-3.53125 0.0885827,-0.4251969 0.32470473,-1.8824311 0.0625,-2.03125 l 0,-3.6875 -0.34375,2.59375 c 0.0177165,0.028346 0.22903543,1.3518701 0.0625,1.8125 -0.0354331,-0.403937 -0.14562008,-0.9191929 -0.15625,-1.3125 -0.25866142,2.2996063 -0.4984744,3.7216535 -1.09375,6 0,0 -0.0376968,-2.0903543 -0.0625,-3.125 0,0.00709 0.36692913,-3.7889272 0.25,-5.65625 0.0106299,0.05315 0.0995571,0.4542815 0.15625,0.65625 0,0 1.17913386,-3.5054134 1.25,-5.3125 0,0 0.22762116,2.4431156 0.34375,3.75 0.33661418,0.9035433 0.53061024,-0.878248 0.5625,-1.0625 -0.5952756,-2.8807087 -1.00059055,-4.054872 -0.625,-7.03125 0,0 0.82475394,-5.6801673 0.90625,-6.21875 0,0 -0.37470472,-4.9848917 -0.5625,-7.46875 0,0 0.4136811,-5.3902067 0.5625,-8.09375 0,0 -0.18912402,-6.02652557 -0.28125,-9.03125 -0.007087,-1.87795277 0.62947835,-2.26929132 0.40625,-4.25 -0.007087,0.0318898 0.0708661,-0.40782481 0,-0.15625 0,0 -0.11663386,-0.87667323 -0.1875,-1.3125 0,0 -0.0689468,0.43656496 -0.09375,0.65625 0,0 -0.0235236,-0.11018701 -0.0625,-0.15625 0,0 -2.23951771,7.84109249 -3.28125,11.78125 0.0814961,0.6271654 0.41938977,2.4939961 -0.0625,1.0625 0,0 -0.0412402,-0.3370079 -0.0625,-0.5 0.0496063,-0.1984252 -2.071210629,8.2026083 -2.15625,7.96875 0.0496063,0.4145669 -0.04124016,0.4771654 -0.0625,0.75 l 0.0625,-1.5625 -1.25,7.59375 c 0,0 -0.258070865,-5.5245571 -0.375,-8.28125 0.0031527,0 -0.07589271,0.7609959 -0.125,1.25 l 0,0.15625 -0.125,1.71875 -0.09375,-1.875 c 0.02125984,-0.017717 0.348523625,-1.7212598 -0.0625,-1.25 0,0 -0.07893701,-1.8870571 -0.125,-2.84375 0,0 0.869586611,-0.436565 1.3125,-0.65625 l -0.125,0.71875 0.1875,-0.71875 0,0.3125 C 7.82667323,104.37436 7.933316929,104.1311024 7.96875,104 l -0.78125,5.3125 0.34375,-1.21875 0,0.09375 0.4375,-1.3125 c 0.03897638,-0.3295276 -0.219980318,2.7166831 0.1875,1.78125 0.45806457,-1.7530441 0.229343315,-2.9795856 0.5625,-4.4375 l 0.21875,-5.625 -0.5625,2.875 c 0.0035433,0 -0.219734251,-0.1755906 -0.34375,-0.25 -0.08858268,0.3366142 0.588139771,-2.25231301 -0.34375,-0.40625 l 0.0625,-1.375 -0.125,1.46875 c 0,0 -0.09375,-0.3370079 -0.09375,-0.5 -0.0070866,0.024803 -0.0625,0.2132874 -0.0625,0.3125 0.0035433,0.00354 -0.496161416,-0.342815 -0.6875,-0.5625 0,0 0.272834648,-1.28607284 0,-1.21875 0.372047247,-1.03110237 0.258710629,-1.9991634 0.34375,-0.65625 0,0.003543 0.633415352,-1.70856299 0.90625,-2.5625 0,0.003543 -1.918946843,-2.75664369 -2.84375,-4.15625 -0.0035433,0 0.07893701,-0.53966535 0.125,-0.8125 l 0,0.40625 c 0.02125984,-0.0673228 0.331840551,-1.22785433 0.40625,-1.8125 -0.02683366,0.0251693 -0.08774228,0.0782859 -0.1875,0.25 0,0 0.213927165,-1.37864173 0.28125,-2.0625 -0.0035433,0 0.189124015,-0.10310039 0.28125,-0.15625 0,0 -0.120816929,-0.33700787 -0.15625,-0.5 C 6.114665356,85.64901574 6.259990157,84.42057088 6.28125,83.1875 6.2847933,83.07057087 6.34394686,82.73464565 5.46875,85.75 5.41560039,85.59055118 4.479330711,83.15280511 4.125,83.84375 c 0.180708663,-0.67322835 -0.340157483,-0.14793307 0,-0.5625 0,0 0.402706693,-1.41279527 0.40625,-2.125 C 4.49885847,81.2232245 4.399734255,81.49691929 4.0625,82.3125 L 3.84375,84.5 4,84.09375 c -0.279921262,1.48110237 -0.107923228,3.09493109 -0.09375,4.59375 0,0 0.374704723,-0.20265748 0.5625,-0.3125 0,0 -0.189124015,1.01392716 -0.28125,1.53125 C 4.1910433,89.9168799 3.777362206,89.19808071 3.625,88.84375 3.63917323,88.73036417 3.65590551,88.13312008 3.5,88.59375 -1.75472445,78.43863181 0.2811515629,78.05497055 1.84375,68.21875 2.194537404,68.2435531 1.842126,60.74891733 1.75,59.9375 c 0,0 0.307959769,-1.91499508 0.4375,-2.90625 0.01594488,-0.0217028 0.05059055,-0.0916831 0.125,-0.28125 0,0.003543 0.735187008,-7.0262795 0.78125,-10.5625 l -0.28125,1.875 c 0,0.0708661 0.111122049,2.35152561 -0.0625,0.40625 0,0 -0.228100393,2.41673227 -0.28125,3.625 0,0 -0.590895667,2.7637303 -0.90625,4.15625 0,0 0.125,-3.43420274 0.125,-5.15625 0,0 0.28125,-2.04493109 0.28125,-3.09375 l -0.125,0.8125 C 1.86146654,48.99320866 1.87401575,49.27736221 1.75,49.125 1.7534393,48.58847004 1.79779431,47.65249593 1.84375,47.0625 1.85903051,47.0777805 1.91909449,46.88410434 2.1875,45.78125 L 2.09375,43.5 l -0.125,0.96875 c 0.0035433,0.0248031 0.187795277,1.36097442 0,0.15625 0.0035433,-0.0248031 -0.148523622,0.88120078 -0.1875,1.4375 0.05669291,-1.1444882 0.329625982,-6.77426179 0.6875,-9.71875 C 2.472293307,36.40752953 1.774163386,30.875 1.78125,30.875 1.820226378,27.91633856 2.448031484,25.71481301 4,22.96875 5.598031508,20.35733266 7.281003916,18.55511813 10.0625,16.5 c 2.86653545,-1.98779529 5.42288383,-3.24758857 9.09375,-4.40625 3.87283468,-1.14094489 7.08597438,-1.59601378 11.28125,-1.65625 4.29803153,-0.24448819 9.11530509,-0.616633858 13.40625,-0.6875 0,-0.120472442 18.5742618,1.25871063 19.71875,1.34375 0,0 1.49591535,-0.35698819 2.21875,-0.5625 -0.49251969,-0.0602362 9.1734744,1.12007874 10.21875,0.5 0,0 4.56186022,0.46072834 6.84375,0.6875 -0.46062992,0.0566929 -1.00738194,0.0912894 5.9375,0.90625 2.82401577,-0.12047244 1.00270667,-0.38459646 4.15625,0.09375 0,0 -4.59020668,-0.0144685 -6.84375,0.1875 0,0 3.34173227,0.2574311 5,0.40625 1.27913387,-0.0885827 1.69443897,-0.57859252 2.90625,-0.46875 0.007087,-0.003543 -1.63316929,0.36181102 -2.4375,0.5 0,0 8.43617123,0.73233267 12.65625,1.09375 0,0 -0.1826772,-0.0341535 -0.25,-0.0625 0.1807087,0.003543 2.6180118,0.0441437 1.0625,0.09375 0,0 5.4585138,0.76801181 8.21875,0.5625 -3.2811024,-0.15944882 -4.1792323,-0.31609252 -7.1875,-0.65625 l -6.15625,-0.5 -5.5625,-0.375 c 1.61929135,-0.0248032 2.0230807,-0.2429626 3.46875,-0.59375 0.12401575,0 -2.10802165,0.0669783 -2.78125,-0.15625 0,0.003543 -1.30969488,-0.35054134 -1.96875,-0.53125 l 4.53125,-0.40625 c 2.8629921,0.10275591 6.1995571,1.10570866 9.40625,1.375 0.4003937,-0.003543 0.10438,0.0352362 -4.40625,-1.375 0,0 -8.52219485,-1.32677165 -12.78125,-2 0,0 -8.83503934,-0.674015746 -13.25,-1 3.26692916,0.180708663 6.60452753,0.372440944 9.875,0.5 5.80748036,0.0035433 11.37647633,-0.53120079 17.1875,-0.1875 -0.00354,0 11.6342027,0.99237204 17.40625,1.71875 -3.8940945,-0.0318898 -8.4438484,-0.0779036 -12.28125,0.34375 -0.1138287,0.0199311 -0.2060201,0.0470049 -0.25,0.0625 0.2732023,0.10456809 3.4533463,0.31912401 17.65625,1.46875 -0.00354,0 6.2704232,-0.56382874 9.40625,-0.84375 0,0 -0.7117126,-0.0447835 -1.0625,-0.0625 l 2.4375,-0.125 c -0.03189,0.0212598 6.2925689,1.02947836 2.09375,-0.09375 0,0 1.082874,-0.0931102 1.625,-0.125 0,0 -4.4722933,-0.2886811 -6.71875,-0.4375 0.3188976,0.0779528 0.1007874,-0.0160925 -4.75,0.09375 0.3259843,-0.0850394 0.2319391,-0.026624 -11.15625,-1.46875 0.00354,0 -2.5681594,-0.550935038 -3.84375,-0.78125 3.5681103,-0.20905512 7.867126,-0.605659449 11.375,-0.53125 0.1046383,-0.0011073 0.1641157,-0.02421702 0.1875,-0.03125 -0.2904958,-0.08371063 -2.4318897,-0.409990147 -10.5,-1.78125 0,0 1.3096949,-0.151427165 1.96875,-0.21875 -1.661811,-0.05314961 -1.708563,0.13144685 -2.5625,0.15625 0.035433,-0.01062992 0.6363189,-0.134350393 0.9375,-0.1875 0,0 -0.9968504,0.06540354 -1.5,0.09375 -0.4748032,-0.450000003 -1.1370079,-0.32760827 -1.75,-0.09375 0,0 -7.4605807,-0.714960626 -11.15625,-1.25 l -105.65625,0 z m 105.65625,0 c 6.0200788,0.237401577 12.3732775,0.61865157 18.34375,1.28125 3.4511811,-0.01062992 7.5507382,-0.148129925 10.90625,0.3125 0.1753937,0.005315 0.4816929,0.01220472 0.59375,0.03125 -0.034304,0.02011709 -0.1520669,0.05388779 -0.46875,0.09375 0.2834646,0.05314961 2.6275591,0.564320872 0.25,-0.21875 -0.00354,0 3.7058071,0.137253936 5.5625,0.21875 -0.1984252,0.05314961 -0.3302166,0.06033464 4.1875,0.6875 0,0 1.6808563,0.381791337 2.53125,0.5625 1.4527559,0.0496063 3.1742618,0.05413386 0.71875,0.125 -0.024803,-0.0035433 5.5551673,1.230364172 8.34375,1.34375 0.4358268,0.0070866 0.2673721,-8.36604e-4 -4.40625,-1.34375 0,0.0035433 -4.1082185,-0.457185038 -6.15625,-0.6875 2.2074803,0.102755906 2.8836614,-0.123720472 4.875,-0.1875 0,0 5.6411909,0.275147637 8.46875,0.40625 0,0 0.4024114,0.470718502 0.59375,0.71875 0,0 1.3203248,-0.381151573 1.96875,-0.59375 0.7370079,0.06377953 12.9395177,0.996309063 15.78125,-0.03125 3.3448819,-1.314566939 5.59562,-0.93430118 9.65625,-1.09375 -0.00354,0 12.0011811,-0.34375 18,-0.34375 0,0 7.8104823,0.976230311 11.71875,1.46875 0,0 -1.7668799,-0.06186024 -2.65625,-0.09375 -0.5066929,0.03543307 -7.5054134,0.583021659 -2.5625,-0.09375 0,0 0.6804626,0.05831693 1.03125,0.09375 l 0,-0.03125 0.125,0 c 0.00261,0 -0.1370756,-0.04551719 -0.25,-0.0625 C 208.2197343,7.583120079 206.8436516,7.5 206.15625,7.5 c 0.01063,0 -0.2419291,0.01643701 -0.125,0.0625 0.1629921,0.0035433 -9.1955216,-0.394291341 -13.46875,-0.125 -0.081496,0.0079724 -0.152413,0.02471703 -0.1875,0.03125 0.1248413,0.04892189 2.0597342,0.170718499 10.53125,0.8125 0,0 7.669685,-0.168503936 11.5,-0.25 0,0 5.6022145,0.775147637 8.46875,0.90625 0.00354,-0.0035433 -4.4758366,0.931446847 -6.71875,1.40625 0,0 -1.7981299,-0.1820374 -2.6875,-0.28125 0.1877953,-0.0212598 0.5291831,-0.0381398 -2.65625,-0.90625 L 207.65625,8.6875 197.8125,8.59375 202.78125,9.3125 c 0,0 0.625689,-0.120177165 0.9375,-0.1875 0,0 0.3711614,0.474261809 0.5625,0.71875 4.5602363,0.60944882 6.9681102,0.57312992 11.5,0.5625 -4.6948819,0.99212599 -3.9465551,1.13528543 -8.6875,0.96875 l 5.34375,0.78125 c 0,0 1.6260827,0.21683071 2.4375,0.3125 5.4744095,-0.73700788 13.4869094,-1.98134842 18.8125,-2.21875 0,-0.272834648 11.4166831,1.77869094 12.28125,1.90625 -0.1807087,-0.007087 2.435187,0.14876969 -0.21875,-0.34375 0,0 2.5610728,-0.23390748 3.84375,-0.34375 -0.00354,0 2.8497539,0.44365157 4.28125,0.65625 -0.067323,0 2.2152067,0.0695866 2.21875,0.0625 3.8586614,0.0602362 6.7443897,0.46535432 10.3125,1.5 3.3590551,1.05944883 5.7529527,2.18582676 8.375,4 2.5582677,1.86732285 4.1197342,3.56348423 5.59375,5.9375 1.4244095,2.51220474 2.0235236,4.54645667 2.0625,7.25 l -0.125,1.90625 -0.125,-0.59375 c 0,0.003543 0.03125,-1.3125 0.03125,-1.3125 -0.04252,-2.67165356 -0.6068405,-4.74552163 -2.03125,-7.21875 -1.4669291,-2.36338584 -3.0531988,-3.99414369 -5.59375,-5.84375 -2.6220473,-1.80354332 -4.9363681,-2.9234744 -8.28125,-3.96875 -3.5468504,-1.01338583 -6.3990649,-1.42623031 -10.21875,-1.46875 l -0.6875,0 0.6875,0.09375 c 3.7594488,0.0779528 6.6283956,0.55556102 10.09375,1.59375 3.2775591,1.08070867 5.5148622,2.18228345 8.0625,4 2.4271654,1.82834647 3.9412401,3.46392715 5.3125,5.78125 0.6307087,1.12677166 1.0490157,2.18444881 1.375,3.375 0.3649606,1.26496064 0.5135335,2.3629429 0.53125,3.65625 0,0 0.060581,4.65954724 0.15625,5.1875 0,0 0.2709646,-0.97977362 0.4375,-1.46875 0.090133,1.83188978 1.1786611,6.53613461 1.28125,9.875 l 0,-39.4375 -182.15625,0 z m -73.46875,185.15625 -0.25,4.0625 c 0.0744095,0.7653543 0.19685039,1.7442913 0.25,2.375 l 0,-6.4375 z M 10.375,273.90625 c 0.20512426,1.4039801 0.69680117,2.6380905 1.53125,4.0625 0.57401575,0.9070866 1.15147637,1.6896161 1.84375,2.40625 0.68732059,0.7115065 1.46394353,1.3872654 2.4375,2.09375 -0.97253231,-0.7052178 -1.74924599,-1.3795778 -2.4375,-2.09375 -0.6984336,-0.7247351 -1.30212441,-1.4907198 -1.875,-2.40625 -0.83710631,-1.4536417 -1.30168553,-2.6611774 -1.5,-4.0625 z m 64.96875,0.4375 -0.40625,0.03125 c -0.0141732,0 10.22431098,0.2590059 15.3125,0.15625 l 0.03125,0 c 1.00823283,0.1573039 23.9218728,3.6129627 22.875,2.75 -1.8496063,-1.1728347 -4.9648622,-1.5945866 -4.8125,-2.9375 l -33,0 z"
        id="polygon21"
        transform="matrix(282.2222201,0,0,282.2222201,0,-0.0010765923)"
        style="fill:#000000" />
    <path
        d="m 77527,95899 c -31,-75 -98,-226 -98,-226 -140,157 -96,3 -98,14 36,-51 623,-727 545,-727 -68,-315 -419,-788 -629,-1111 28,-48 84,-144 84,-144 l 224,-316 c -47,280 -4,237 279,514 -4,-267 -20,-409 153,-678 70,-12 210,-35 210,-35 -19,-18 -56,-55 -56,-55 l 209,-294 -27,582 -140,192 0,-6 c -246,188 -245,169 -251,157 -28,53 -84,158 -84,158 135,133 405,398 404,398 38,-170 252,-501 252,-501 -23,-226 -70,-679 -70,-679 232,-635 220,-649 238,-610 76,252 -29,805 -28,795 13,-6 13,8 13,7 0,41 -25,123 -27,130 l 0,-6 c -7,6 -14,20 -14,20 0,-2 0,-7 0,-6 -5,0 -15,0 -14,0 9,-21 28,-62 28,-62 -192,-292 -38,121 -28,151 -9,52 -28,157 -28,157 139,-230 419,-692 419,-692 0,-355 -98,-1063 -98,-1063 -46,-240 66,-372 -307,-570 -292,-167 -33,-889 -15,-933 -60,-38 -167,-116 -167,-116 70,-11 210,-34 210,-34 37,-167 112,-501 112,-501 -18,-117 -85,-157 -56,-288 -66,121 -196,364 -196,364 -381,276 -379,286 -377,260 32,-164 379,-495 377,-494 21,146 28,45 42,-41 51,-50 154,-151 154,-151 178,-267 181,-258 195,-247 24,-109 70,-329 70,-329 -223,141 -85,3 -70,-13 37,59 39,13 42,-7 131,-198 87,-441 84,-645 188,-353 296,-728 363,-1083 -152,218 -349,658 -349,658 66,36 99,75 -28,103 8,30 28,89 28,89 -15,-18 -53,-53 -56,-55 7,51 58,53 42,151 -19,-39 -56,-117 -56,-117 -520,636 -514,650 -517,611 22,-208 -94,-461 -153,-672 -66,75 -224,226 -224,226 -410,673 -394,678 -419,658 32,287 6,300 28,281 -41,133 -125,398 -125,398 -10,-32 -28,-96 -28,-96 -320,248 -34,-125 -28,-124 l -42,-143 c -5,20 -14,62 -14,62 -80,-186 -238,-556 -238,-556 415,-1065 388,-1082 434,-1029 119,227 107,497 97,727 207,-341 489,-1029 489,-1028 98,-344 -57,-672 -56,-1015 35,-194 88,-391 140,-583 -93,260 -280,781 -280,781 -190,252 -572,755 -572,755 -401,266 -390,284 -391,260 76,-189 362,-386 391,-555 -37,-89 -112,-268 -112,-268 -51,39 -154,117 -153,117 -63,40 -42,172 -42,165 -100,-86 -161,-111 -168,-206 l -112,335 0,-6 c -46,121 -139,364 -139,363 -97,178 -137,232 -182,426 -59,-163 153,-487 153,-487 15,92 28,-51 29,-62 -8,4 -14,14 -14,14 102,-249 307,-748 307,-748 39,48 140,145 139,144 31,-71 -100,-96 -125,-171 42,-98 112,-295 112,-295 57,133 55,405 55,405 136,-187 62,-80 29,-247 231,-410 235,-377 251,-350 65,-135 195,-405 195,-405 -176,-61 157,-632 140,-603 -58,-43 -154,-131 -154,-131 24,-67 412,-1166 377,-1166 -20,-253 -119,-537 -189,-791 -17,-248 -153,-437 -476,-666 -330,-217 -684,-368 -1249,-537 -584,-164 -1095,-265 -1837,-359 -780,-92 -1406,-127 -2245,-129 -1,-1 -1577,39 -1559,39 -837,-21 -2430,-38 -2756,-41 159,2 413,12 406,12 -342,11 40,0 46,0 l 278,8 -650,4 c -417,-21 -382,-20 -349,-21 -166,-2 -448,-3 -605,-3 -43,7 42,4 94,3 l 231,9 c -298,0 -883,-17 -883,-17 -489,0 -1466,-8 -1466,-8 395,19 1186,54 1186,54 344,3 1025,16 1025,16 -553,10 96,4 116,4 l 533,17 c -1005,-3 -3000,-46 -2999,-46 -109,-8 -87,-8 -71,-8 -279,-7 -837,-25 -837,-25 -231,6 -2357,25 -2350,4 -2794,-92 -2909,-211 -5794,99 131,9 -37,9 -70,8 -100,9 -304,34 -302,33 147,6 442,17 442,17 -31,-11 -93,-33 -93,-33 426,-1 883,-12 1303,4 l -115,-8 627,12 c 343,30 359,29 326,29 -203,0 -605,-25 -605,-25 -118,-20 28,11 -164,0 197,21 -488,75 -534,79 857,51 754,49 721,49 -351,-1 -699,-10 -1047,-21 -47,2 -140,9 -140,9 -16,-6 -46,-17 -46,-17 -195,-4 -582,-16 -582,-16 106,12 80,12 69,12 -165,-4 -490,-23 -510,-25 l 115,0 c -77,-2 -233,-8 -232,-8 -398,55 -1188,169 -1187,169 -242,-16 -722,-54 -721,-54 381,-5 107,2 -187,-20 20,16 -349,0 -349,0 -62,11 -163,41 -162,41 28,0 85,4 92,4 -47,0 -139,4 -139,4 l 415,8 -392,-4 c 524,55 -212,16 -116,21 -21,7 -70,21 -70,20 l 813,33 -1597,-12 40,0 c -430,-22 -790,-5 -1303,-33 -266,-24 605,-10 511,-12 l -372,-25 23,0 -347,-20 1510,45 c -36,-2 -106,-8 -115,-8 l 93,0 -207,-13 207,8 c -62,-26 -187,-78 -187,-78 -271,3 -814,8 -814,8 134,25 -345,6 -350,5 l -534,4 531,8 -43,0 c 132,3 396,8 396,8 -783,7 -2350,21 -2350,21 l 2163,74 -448,-4 c 77,1 98,7 216,4 -66,5 2313,130 2257,127 -46,2 -140,4 -139,4 -407,29 124,9 302,5 1119,61 3351,193 3351,193 -14,3 -47,4 -47,4 62,2 186,4 186,4 -124,4 -372,13 -372,13 71,4 -56,-1 -47,0 -564,13 -676,-25 -1209,-25 -854,5 -2560,16 -2560,16 -768,-8 -2304,-33 -2304,-33 -705,12 -2117,33 -2117,33 -154,-4 -1768,-53 -1768,-53 -846,-22 -1183,2 -2001,37 -53,-2 -559,-13 -303,-33 -7,0 -24,0 -23,0 364,-7 1094,-21 1094,-21 -513,-4 -1513,-74 -1513,-74 57,-3 170,-7 185,-8 -530,7 -1607,-16 -1604,-16 -295,1 -885,4 -884,4 647,35 1044,50 1698,66 -112,0 -257,6 -372,8 131,10 504,-3 512,-4 l 743,20 -1046,0 c -42,16 -460,2 -581,-4 -1126,-46 -1038,-45 -954,-45 -529,-16 -1583,-33 -1583,-33 -1252,-1 -3769,-66 -3769,-66 596,50 526,49 489,50 -668,6 -1472,-17 -2141,-42 171,-2 502,-11 533,-12 l -393,0 92,4 -674,0 c -55,4 -340,25 -349,-8 l -298,-4 42,0 -42,0 -5,0 -465,0 c -80,-2 -349,-13 -349,-13 181,-4 562,5 558,5 -152,7 67,4 117,4 132,-2 395,-4 395,-4 24,1 71,4 70,4 79,2 51,1 23,0 -15,-2 -46,-4 -46,-4 18,0 9,0 0,0 31,0 93,0 93,0 l -277,-9 742,0 c -55,-2 -196,-6 -46,-12 544,-4 1629,29 1628,29 -45,-8 100,-8 94,-8 573,-5 1751,24 1745,24 255,-4 768,-4 767,-4 -164,-4 -480,-15 -509,-16 l 1650,0 c -830,-9 -2490,-25 -2490,-25 -732,-10 273,-2 163,-4 -338,-13 -509,-9 -838,-8 -434,-21 -451,-20 -419,-21 181,-4 518,2 621,4 l -737,-16 c -2158,-44 -2204,-42 -2071,-46 1052,-15 3223,9 3211,9 -14,2 -47,4 -46,4 150,0 438,3 482,4 l -17,0 808,8 -34,0 383,4 -1553,0 c 97,5 -14,9 0,9 -75,5 119,4 163,4 l 116,4 -1000,-4 c 1125,24 3374,74 3374,74 l 558,0 647,-9 c -215,0 -2467,-13 -2462,-28 0,0 -139,-4 -139,-4 -65,-9 -50,-9 -47,-9 -189,-8 60,-13 24,-12 201,0 605,4 605,4 l -510,-20 3697,37 c 287,5 861,16 861,16 -247,8 35,4 47,4 l 228,4 -507,0 c 431,16 480,12 907,8 -212,-11 -213,-11 -209,-12 -1074,-37 -1018,-36 -978,-37 -7,-1 -23,-4 -23,-4 341,-6 1024,-17 1024,-16 -148,-5 -442,-21 -442,-21 22,4 70,8 70,8 -147,-7 -443,-16 -443,-16 l -742,-29 44,0 -347,-17 1438,29 -20,0 c 372,8 1117,25 1117,25 15,-3 46,-8 46,-8 -556,-36 -14,-33 116,-33 24,-8 70,-25 70,-25 -494,-9 -1493,-62 -1489,-62 -1087,-25 -3236,-104 -3302,-107 78,0 231,-4 231,-4 271,0 794,4 874,4 l -13,0 c 124,4 372,13 372,13 1208,-34 -9,-18 -70,-17 -633,-9 -1910,-12 -1908,-12 -538,-18 -1037,-55 -1582,-62 -1113,-53 -1188,-47 -1117,-49 567,-3 1177,12 1745,24 1249,-7 3746,17 3746,17 -1602,46 229,6 349,4 272,3 815,8 815,8 l -604,-20 c 156,0 464,-5 464,-5 -265,-11 -791,-8 -791,-8 l -1582,-66 907,13 c -1443,-55 -2823,-96 -4281,-99 261,28 264,28 256,29 23,0 70,0 70,0 -24,4 -70,4 -70,4 163,0 489,4 489,4 l 808,8 -34,0 389,4 c -1521,12 -2821,21 -4351,-4 -8,6 -24,17 -23,17 -264,-7 -792,-21 -792,-21 -155,0 -465,0 -465,0 -318,-15 68,-10 140,-8 -348,-19 -15,-38 -24,-37 -1683,-7 -5049,-33 -5048,-33 -1492,-18 -2755,-111 -4212,-152 -37,-2 -289,-6 -256,-29 -477,-23 -1277,-69 -1745,-62 -935,20 -1856,21 -2793,21 156,4 466,12 466,12 904,76 961,74 884,74 -556,-9 -1665,-72 -1698,-74 860,5 -100,-4 -117,-4 -537,-21 -820,-10 -1349,16 256,13 768,37 767,37 102,9 -23,9 -23,9 -288,-2 -599,-18 -884,-33 287,-5 -54,-4 -70,-4 -1096,64 -3257,238 -3257,238 310,10 931,29 931,29 694,54 724,54 651,54 -462,-10 -935,-18 -1396,-29 522,-65 -556,-19 -722,-8 341,29 317,28 303,28 -834,-8 -326,-29 -1326,50 881,56 778,53 745,53 -358,-6 -715,-14 -1071,-24 -189,15 -3397,273 -3397,243 12,-63 1797,-260 2048,-289 -604,-25 -1816,-70 -1816,-70 -525,70 97,38 93,50 387,21 401,20 373,20 -194,0 -581,-15 -604,-16 158,1 -12,-1 -140,-4 -780,135 -2281,432 -2281,432 171,0 512,8 512,8 -443,15 58,1 70,0 l 371,13 c -371,1 -668,9 -1046,0 -80,14 -233,45 -233,45 1003,3 3002,20 3002,20 -1631,40 267,6 349,4 581,7 1745,21 1745,21 -1828,11 -3443,24 -5282,0 -166,40 -1876,440 -1350,552 641,-27 6306,-239 6306,-239 47,35 922,30 1117,29 -2125,68 -6376,206 -6375,206 202,2 605,8 604,8 429,42 390,41 373,41 -295,0 -885,-33 -884,-33 474,-5 -56,-4 -70,-4 -101,0 -302,0 -302,0 1435,62 4304,185 4304,185 101,0 303,0 302,0 -462,-22 362,-59 419,-62 -376,-117 1816,-56 1815,-53 1504,43 3046,150 4515,177 34,32 1052,68 1349,78 -24,0 -46,0 -70,0 391,7 1255,67 1233,66 57,-10 276,-27 302,-29 -432,-26 -237,-25 -208,-25 -163,-6 -490,-16 -489,-16 1956,-35 -245,-13 -303,-12 l -1581,-66 278,4 c -283,-21 28,-24 93,-25 -985,-10 -2986,-87 -2978,-86 1288,-5 -197,-12 -256,-13 l -1186,-49 2652,53 1955,95 c 1043,-4 2133,22 3141,21 264,3 791,8 791,8 124,1 372,4 372,4 -775,4 -2327,12 -2327,12 396,4 1187,13 1187,13 637,25 1908,82 1908,82 616,17 1952,13 2000,13 l -91,4 418,0 -670,8 c 695,-3 2048,11 2132,12 l -346,4 c -125,8 -169,13 -158,15 l -21897,0 0,2493 c -650,245 -1977,687 -1977,687 -42,485 -126,1454 -126,1454 42,158 126,473 126,473 -176,398 -177,245 -182,213 -61,553 -195,1659 -195,1659 33,60 97,179 97,179 -171,-204 -530,-611 -530,-611 -57,-532 -685,-6387 -685,-6387 5,-172 94,-303 312,-462 224,-152 465,-258 854,-378 404,-116 759,-187 1275,-255 539,-66 990,-93 1574,-96 -595,3 -1025,29 -1576,95 -516,67 -875,139 -1279,255 -395,120 -631,224 -861,377 -220,160 -310,292 -317,464 0,0 284,7858 284,7855 26,858 203,1629 531,2483 212,521 524,1039 628,1563 74,487 -140,626 -307,1063 -12,35 -23,365 -23,365 7,124 77,220 239,334 168,110 343,185 629,271 292,81 554,133 924,179 390,46 709,64 1128,64 5,3 1354,-32 1331,-31 313,23 583,40 908,29 499,-34 816,-78 1349,-83 775,30 749,31 721,33 1814,21 1352,74 3444,21 285,-8 531,7 815,-13 -16,0 -47,0 -47,0 610,-13 446,5 954,-53 -31,0 -93,0 -93,0 l 415,-29 c -576,31 -620,28 -1206,21 170,-11 512,-33 512,-33 265,0 791,4 791,4 107,-10 326,-25 326,-25 31,10 93,29 93,29 1885,20 -388,36 93,33 7,3 23,8 23,8 259,0 795,8 791,8 116,-2 350,-8 349,-8 64,4 187,17 187,17 229,4 700,24 697,24 78,-3 233,-8 233,-8 1374,71 1261,73 1163,78 459,22 1374,74 1374,74 -1386,17 64,19 581,21 -318,-49 26,-35 93,-33 318,-3 954,-8 954,-8 -481,-42 -498,-42 -465,-41 176,4 539,33 535,33 l 186,8 c -560,-99 -85,-83 70,-78 358,8 1071,37 1070,37 85,-3 256,-9 256,-9 27,1 3,4 0,5 9,3 23,12 23,12 374,22 150,25 70,16 -56,0 -172,8 -185,9 309,0 907,24 906,24 40,-2 117,-8 117,-8 -337,-29 -6,-46 46,0 91,2 262,4 297,4 -33,1 -87,4 -87,4 2571,66 -1959,33 -1605,37 562,53 2621,41 2466,41 -159,-18 191,7 162,5 101,0 303,0 303,0 264,32 792,98 791,98 186,-6 559,-20 559,-20 -132,-14 -396,-41 -396,-41 -103,-15 -513,-18 -557,-17 291,-29 371,-47 697,-49 -380,-11 -1141,-33 -1141,-33 -403,-14 -1210,-41 -1209,-41 -602,-28 -814,-41 -1466,-54 132,-4 396,-12 396,-12 -205,-11 -606,-41 -605,-41 -528,-1 -1583,-37 -1583,-37 -109,0 -326,0 -325,0 l 115,12 c -434,-12 -1303,-16 -1302,-16 46,5 140,16 139,16 -378,-16 -1140,-25 -1140,-25 99,9 290,28 302,29 -834,-4 112,8 140,8 156,15 466,46 465,46 361,12 494,-4 978,24 94,6 98,9 23,13 -271,8 -700,-2 -977,-13 406,-21 139,-13 93,-12 15,1 46,4 46,4 -109,-6 -400,-5 -581,-12 85,-2 256,-4 256,-4 -411,-18 -1234,-54 -1234,-54 -315,-23 -394,-37 -744,-45 2,0 123,-4 139,-4 -224,-19 -268,-5 -488,0 -481,-10 -1443,-29 -1443,-29 81,7 242,19 255,20 l -976,-57 c -554,-24 -973,-27 -1536,-66 494,-3 711,3 1187,33 -429,4 -111,0 163,12 -17,-12 830,21 814,21 241,0 722,0 721,0 l -440,-29 c 206,0 630,8 627,8 -277,14 -152,16 -116,17 1700,-8 3202,-12 4909,16 946,-15 2839,-45 2838,-45 147,-35 1653,-1 2002,8 356,-3 1070,-8 1070,-8 -415,-19 -1229,-65 -1256,-66 998,8 1833,58 2838,58 1252,0 3770,66 3770,66 -137,-6 -629,-38 -629,-38 155,-4 466,-12 466,-12 606,4 1815,41 1815,41 -175,5 -513,12 -555,13 l 322,0 c 225,-2 675,-4 675,-4 1189,24 454,19 256,20 -155,3 -466,8 -466,8 102,13 60,13 47,13 -552,8 -1652,-25 -1652,-25 154,16 -1089,-4 -1228,-8 17,3 42,4 41,4 -473,-4 -1419,-12 -1419,-12 177,6 535,16 535,16 -1751,5 241,16 302,16 171,3 512,9 512,9 92,5 88,7 48,7 l 650,9 c 435,21 451,19 419,21 -107,2 -300,1 -452,-1 l 568,9 c 2004,54 1242,49 1048,49 271,5 814,13 814,13 1167,48 1198,47 1117,49 -566,3 -1179,-12 -1745,-25 -504,7 -1513,17 -1513,17 -1042,19 -3229,-9 -3211,-8 295,-7 885,-21 884,-21 -360,-4 -1152,17 -1140,17 -442,-6 -1326,-17 -1326,-17 659,-4 1978,-12 1978,-12 -497,-6 -1489,-17 -1489,-17 736,-8 2211,-24 2210,-24 l 17,0 -366,-5 c 1574,-6 1586,-3 1536,-8 -13,-2 -116,-2 -256,-8 333,1 1000,4 1000,4 -1078,-22 -3234,-66 -3234,-66 -287,-12 -861,-37 -861,-37 -251,0 -727,-3 -821,-4 41,1 100,4 100,4 -140,4 -419,13 -419,13 375,16 303,-3 628,-5 225,7 676,25 675,25 l -646,8 c 211,1 2442,10 2438,25 l 139,4 c 144,22 60,21 47,21 -199,5 -636,0 -628,0 l 532,20 -3720,-41 c -303,-5 -610,-19 -908,-16 l -207,-9 510,0 c -300,-12 -908,-4 -908,-4 42,2 185,9 210,9 968,55 138,56 -23,57 50,3 368,17 372,17 549,15 1382,30 1908,57 807,38 141,37 -140,37 l -196,4 -4,0 c -172,1 317,14 270,13 543,-4 856,-10 1443,0 -8,-2 -24,-4 -24,-4 1124,-13 1431,-20 2560,16 -383,6 -1139,31 -1184,33 448,2 1324,-29 1324,-29 116,3 349,8 349,8 302,5 907,13 907,13 -32,-3 -151,-9 -93,-21 -101,0 -303,-4 -303,-4 247,-8 85,-3 -69,0 l -371,-12 c 105,-1 1258,-2 1255,8 591,16 1175,28 1768,37 264,-1 791,-4 791,-4 l 2416,25 -19,0 c 2129,2 6399,20 6399,20 l 1419,0 c 754,-6 2304,-4 2304,-4 69,-5 209,-16 209,-16 34,3 93,16 93,16 481,-3 1419,-11 1506,-12 -171,-2 -717,-31 -668,-29 187,-8 558,-29 558,-29 8,3 23,8 23,8 580,19 897,36 1489,29 -271,-3 -814,-8 -814,-8 636,-15 1908,-45 1908,-45 1437,39 1451,35 1396,41 41,0 605,0 605,0 2155,2 3150,21 5282,-33 265,36 797,105 814,107 l 23,0 c 1885,200 1655,91 3165,132 170,6 367,21 535,32 -170,-4 -512,-4 -512,-4 0,4 0,13 0,13 234,1 415,11 652,0 374,23 1113,76 1139,78 l -159,-4 20,0 c -156,-4 -777,44 -721,41 -16,15 -46,45 -46,45 191,-3 1247,-30 1349,-49 483,38 2019,153 2350,251 503,106 2989,-29 3746,-37 -139,-10 -419,-25 -419,-25 151,-5 1473,-9 1473,-9 366,-1 680,-9 1039,-31 339,-19 634,-44 954,-81 658,-81 1128,-170 1648,-314 516,-150 831,-283 1137,-476 296,-205 431,-375 452,-597 l 27,-42 -2,42 c -13,225 -132,394 -420,604 -297,197 -613,334 -1125,489 -526,150 -993,243 -1664,330 -703,84 -1288,118 -2046,121 0,0 -379,-3 -379,-3 l -162,8 541,6 c 767,-2 1348,-37 2061,-121 675,-87 1151,-180 1681,-331 515,-155 838,-295 1138,-493 294,-211 412,-382 429,-610 -1,0 19,-135 18,-131 61,-85 182,-254 182,-254 z M 24924,82795 c 180,-3 458,-10 675,-15 l 1161,15 -1836,0 z M 2846,87557 c -381,-9 -499,174 -832,283 -246,63 741,-1296 782,-1351 -29,-301 42,-906 42,-905 l 8,24 0,1949 z m 75727,2903 c 1,-2 2,-2 1,1 l -1,-1 z m 378,-2530 0,0 0,0 z m -1480,1316 0,1 0,-1 z m -9767,-7984 -38,0 -16,-1 -5,0 m -815,1 -8,-1 8,0 0,1 z m -8,-1 -108,0 108,0 z m -10392,219 0,0 0,0 z m -6563,70 1,0 -1,0 z m -285,111 -9,0 -7,0 m -6796,193 1,0 -1,0 z m -8959,-74 2,0 -2,0 z m 1600,-66 8,0 17,0 2,0 4,0 m 1565,-37 -6,0 6,0 z m 2041,91 47,0 c -16,0 -47,0 -47,0 z m 647,-9 5,0 -5,0 z m -2292,-539 -7,0 7,0 z M 9265,82500 c 4,0 4,0 1,0 l -1,0 z m 9144,239 1,0 -1,0 z m 4958,17 -1,0 1,0 z m -252,8 -5,0 5,0 z M 2796,86489 c 1,-2 2,-3 0,0 l 0,0 z m 10390,10517 1,0 2,0 1,0 m 8610,194 -1,0 1,0 z m 10520,-210 -4,0 4,0 z m -2046,4 c -15,0 -18,0 -5,0 l 5,0 z m 19,40 c -37,0 -106,-1 -159,-3 l 159,3 z m -159,-3 -9,0 -9,0 -10,0 m 804,32 -20,0 -202,-3 -1,0 m -1565,33 6,0 -6,0 z m -3002,-124 -4,0 -5,0 -7,0 m 354,45 -5,0 5,0 z m -578,181 6,0 m 3059,58 -3,0 3,0 z m 15773,41 23,0 c -8,0 -23,0 -23,0 z m 4112,-16 6,0 -6,0 z m 10593,41 0,0 0,0 z m 12054,514 -1,0 1,0 z"
        id="path35"
        style="fill:#FFFFFF" />
    </g>
</svg>