<svg id="city_tver" data-name="tver" xmlns="http://www.w3.org/2000/svg" width="52.5mm" height="52.5mm" viewBox="0 0 148.82 148.82">
  <title>tver</title>
  <g id="tver">
    <path d="M45,120c2.07-1,3.8-2.64,4.17-4.51,0.82-4.2,1.13-5.5-1.39-14.83a19.32,19.32,0,0,1,.65-11.2,10.86,10.86,0,0,1,3-.62,27.21,27.21,0,0,1,6.35.65A1.48,1.48,0,0,0,59,91.62a2,2,0,0,0,1.87-.71,1.51,1.51,0,0,0,1.53,1.47,1.61,1.61,0,0,0,1.84-2.07c-0.68-2.3,2.07-6.66,8.08-6.49,6.24,0.17,8.42,4.76,7.88,6.63-0.28,1,1.19,2.47,2.3,2a1.57,1.57,0,0,0,1.22-1.33,2,2,0,0,0,1.87.71,1.48,1.48,0,0,0,1.16-2.13A25.76,25.76,0,0,1,93.06,89a9.28,9.28,0,0,1,8.19,5.39c3.2,7.74-2.86,14.37-2.1,22.48,0.54,5.7,3.12,11.34,7.57,13,2.41,0.91,4.56,1.25,6.83.37a4.57,4.57,0,0,0,2.86-4.08,4.7,4.7,0,0,0-4.45-4.88,4.61,4.61,0,0,0-3.88,1.79c-0.71-.54-1.16-2-1.36-3.6,0.23,0.14.45,0.28,0.68,0.4,1.7,1,6,1.22,7.71.23a4.51,4.51,0,0,0,2.18-3.32c0-2-1.28-4.59-4-4.68a4.25,4.25,0,0,0-4,2.38c-0.37-.45-1.28-0.45-1.3-2.95a11.08,11.08,0,0,1,.09-1.39,31.85,31.85,0,0,1,3.29-6.15,20.12,20.12,0,0,0,2.32-4.79c2.38-4,2.89-7.6,3.17-11.93,0.06-1,.06-2,0-2.86a0.1,0.1,0,0,0,.09,0c0.11,0,.14,0,0.11-0.06a0.19,0.19,0,0,0,.17,0,0.09,0.09,0,0,0,0-.14,0,0,0,0,1,0,0,0.36,0.36,0,0,0,0-.17,0.24,0.24,0,0,0-.09-0.2,0.36,0.36,0,0,0,0-.17,0.24,0.24,0,0,0-.06-0.17,0.36,0.36,0,0,0,0-.17,0.21,0.21,0,0,0-.06-0.17h0a0.36,0.36,0,0,0,0-.17,0.24,0.24,0,0,0-.09-0.2l0,0a0.36,0.36,0,0,0,0-.17,0.17,0.17,0,0,0-.09-0.17,0.36,0.36,0,0,0,0-.17,0.24,0.24,0,0,0-.09-0.2,0.36,0.36,0,0,0,0-.17,0.24,0.24,0,0,0-.09-0.2,0.36,0.36,0,0,0,0-.17,0.21,0.21,0,0,0-.11-0.2,0.26,0.26,0,0,0,0-.14,0.21,0.21,0,0,0-.06-0.17,0.06,0.06,0,0,0,.06-0.06c0,0.06,0,.06.11,0a0.36,0.36,0,0,0,.09-0.37s0,0,0-.06a0.29,0.29,0,0,0-.09-0.28v0s0-.06,0-0.09a0.29,0.29,0,0,0-.09-0.28s0,0,0-.06v0a0.38,0.38,0,0,0,.09.14h0a0.24,0.24,0,0,0,0,.2,0.38,0.38,0,0,0,.09.14,0.34,0.34,0,0,0,0,.17,0.38,0.38,0,0,0,.09.14,0.22,0.22,0,0,0,0,.2,0.38,0.38,0,0,0,.09.14,0.06,0.06,0,0,1,0-.06,0.13,0.13,0,0,0,.09.14,0.16,0.16,0,0,0,.14-0.09c0,0.06,0,.06.14,0s0.09-.06.09-0.14h0a0.38,0.38,0,0,0,.09.14,0.06,0.06,0,0,1,0-.06,0.13,0.13,0,0,0,.09.14,0.16,0.16,0,0,0,.14-0.09c0,0.06,0,.06.14,0a0.34,0.34,0,0,0,.06-0.4s0-.06,0-0.06V80.65a0.3,0.3,0,0,0,.09.11,0.3,0.3,0,0,0,0,.23,0.25,0.25,0,0,0,.11.14s0,0,0-.06a0.13,0.13,0,0,0,.09.14,0.16,0.16,0,0,0,.14-0.09c0,0.06,0,.06.14,0a0.19,0.19,0,0,0,.09-0.11,0.15,0.15,0,0,0,.06.09,0.1,0.1,0,0,0,.09.11,0.1,0.1,0,0,0,.09,0,0.21,0.21,0,0,0,.11,0,0.29,0.29,0,0,0,.09-0.31l0.09-.17a0.32,0.32,0,0,0-.09-0.28,0.29,0.29,0,0,1,0-.09V80.25a0.11,0.11,0,0,0,.06.06,0,0,0,0,1,0,0,0.41,0.41,0,0,0,0,.31s0,0,0,.06,0.09,0.34.2,0.31,0.14-.06.11-0.09a0.18,0.18,0,0,0,.17,0c0.06,0,.06-0.09,0-0.17a0,0,0,0,1,0,0,0.42,0.42,0,0,0,0-.17,0.38,0.38,0,0,0-.09-0.2s0-.06,0-0.09,0.11,0.26.2,0.23,0.14-.06.11-0.09a0.18,0.18,0,0,0,.17,0,0.12,0.12,0,0,0,0-.17l0,0a0.42,0.42,0,0,0,0-.17,0.25,0.25,0,0,0-.09-0.17,0.42,0.42,0,0,0,0-.17,0.4,0.4,0,0,0-.06-0.17,0.21,0.21,0,0,0,0-.11s0,0,0,.06a0,0,0,0,0,0,0,0.27,0.27,0,0,0,.2.28c0.09,0,.14-0.06.11-0.09a0.13,0.13,0,0,0,.17,0,0.09,0.09,0,0,0,0-.14l0,0a0.42,0.42,0,0,0,0-.17,0.25,0.25,0,0,0-.09-0.17,0.36,0.36,0,0,0,0-.17,0.19,0.19,0,0,0-.09-0.14,0.42,0.42,0,0,0,0-.17,0.25,0.25,0,0,0-.09-0.17h0a0.42,0.42,0,0,0,0-.17,0.25,0.25,0,0,0-.09-0.17h0a0.42,0.42,0,0,0,0-.17h0a0.15,0.15,0,0,0,.06.09,0.1,0.1,0,0,1,0,.06l0,0a0.37,0.37,0,0,0,.06.28l0,0a0.37,0.37,0,0,0,.06.28l0.06,0.06,0,0a0.37,0.37,0,0,0,.06.28l0,0c0,0.06.09,0.31,0.2,0.26s0.11-.06.09-0.09a0.1,0.1,0,1,0,.14-0.14l0,0a0.18,0.18,0,0,0,0-.17,0.25,0.25,0,0,0-.09-0.17,0.18,0.18,0,0,0,0-.17,0.3,0.3,0,0,0-.06-0.14,0.18,0.18,0,0,0,0-.17v0h0l0.06,0.06,0,0a0.28,0.28,0,0,0,.06.28l0,0a0.24,0.24,0,0,0,.2.26q0.13,0,.09-0.09a0.13,0.13,0,0,0,.14,0,0.13,0.13,0,0,0,0-.14l0,0a0.13,0.13,0,0,0,0-.14,0.25,0.25,0,0,0-.09-0.17,0.13,0.13,0,0,0,0-.14,0.3,0.3,0,0,0-.06-0.14,0.13,0.13,0,0,0,0-.14A0.19,0.19,0,0,0,122,77.9h0a0.18,0.18,0,0,0,0-.17,0.25,0.25,0,0,0-.09-0.17h0a0.18,0.18,0,0,0,0-.17,0.19,0.19,0,0,0-.09-0.14,0.13,0.13,0,0,0,0-.14V77l0,0a0.1,0.1,0,0,0,.06,0l0,0a0.31,0.31,0,0,0,.06.26l0,0a0.31,0.31,0,0,0,.06.26,0.1,0.1,0,0,0,.06,0h0a0.31,0.31,0,0,0,.06.26l0,0a0.24,0.24,0,0,0,.2.23q0.13,0,.09-0.09a0.09,0.09,0,0,0,.14,0,0.09,0.09,0,0,0,0-.11l0,0V77.81a0.17,0.17,0,0,0-.11-0.14V77.53a0.15,0.15,0,0,0-.09-0.11V77.27a0.19,0.19,0,0,0-.09-0.14h0V77a0.17,0.17,0,0,0-.11-0.14h0V76.71a0.19,0.19,0,0,0-.09-0.14V76.42a0.17,0.17,0,0,0-.11-0.14V76.14a0.17,0.17,0,0,0-.11-0.14V75.86a0.19,0.19,0,0,0-.11-0.14V75.57a0.25,0.25,0,0,0-.14-0.17V75.26a0.25,0.25,0,0,0-.14-0.17L121.35,75l0.06,0a0.62,0.62,0,0,1,.14.09V75a0.18,0.18,0,0,0-.14-0.14,0.21,0.21,0,0,0,0-.14,0.23,0.23,0,0,0-.14-0.14h0a0.21,0.21,0,0,0,0-.14,0.22,0.22,0,0,0-.17-0.14,0.21,0.21,0,0,0,0-.14,0.22,0.22,0,0,0-.17-0.14l-0.23-.09,0.11,0a0.22,0.22,0,0,1,.14.06,0.26,0.26,0,0,0,0-.14,0.2,0.2,0,0,0-.14-0.11h0a0.26,0.26,0,0,0,0-.14,0.2,0.2,0,0,0-.17-0.11l-0.28-.09h0l0.14,0a0.4,0.4,0,0,1,.17.06,0.26,0.26,0,0,0,0-.14,0.2,0.2,0,0,0-.17-0.11,0.26,0.26,0,0,0,0-.14,0.22,0.22,0,0,0-.2-0.11h0a0.26,0.26,0,0,0,0-.14,0.22,0.22,0,0,0-.2-0.11h0a0.15,0.15,0,0,0-.06-0.11,0.26,0.26,0,0,0-.2-0.11h0a0.42,0.42,0,0,0-.06-0.11,0.44,0.44,0,0,0-.2-0.09h-0.17A0.16,0.16,0,0,0,119,72.2h-0.09s0,0,0-.06a1.5,1.5,0,0,0,0-.37c0-.14-0.09-0.14-0.14,0s0,0.14,0,.17a1.25,1.25,0,0,1-.06.28h0c0-.09,0-0.17,0-0.23a0.61,0.61,0,0,0,0-.17h0a0.1,0.1,0,0,0,0-.09s0-.06,0-0.09l0.14-.06a0.26,0.26,0,0,0,.11-0.17,1.91,1.91,0,0,0,.06-0.4c0-.11-0.06-0.14-0.11-0.11h0s0-.06.06-0.09V70.67a0.17,0.17,0,0,0,0-.17,0.1,0.1,0,0,0,0-.06,0.1,0.1,0,0,0,0-.09l-0.2-.23a0.21,0.21,0,0,0-.17-0.06,0,0,0,0,0,0,0l-0.11-.17a2.45,2.45,0,0,1-.2-0.28l0.06,0.06,0.2,0.26L118.8,70c0.11,0.09.2,0,.11-0.09a2.36,2.36,0,0,0-.23-0.34,0.17,0.17,0,0,0-.17-0.09,0.26,0.26,0,0,0-.14,0l-0.06-.06a0.15,0.15,0,0,0-.09-0.06h0a0.41,0.41,0,0,0-.09-0.14L118,69.05,118,69.11a0.8,0.8,0,0,1,.17.26l0.11,0.14c0.09,0.09.17,0,.11-0.09l-0.2-.31a0.25,0.25,0,0,0-.17-0.09h-0.11L117.89,69a0.22,0.22,0,0,0-.17-0.09,0.17,0.17,0,0,0-.11,0,0,0,0,0,0,0,0,0.29,0.29,0,0,0-.2-0.11,0.11,0.11,0,0,0-.11.06h0a0.21,0.21,0,0,0-.2-0.11,0.11,0.11,0,0,0-.11.06l0.14,0.14c0.06,0.06.26,0.31,0.31,0.37h0l-0.06-.06a4.94,4.94,0,0,0-.34-0.4,0.21,0.21,0,0,0-.2-0.11,0.11,0.11,0,0,0-.11.06l0.14,0.14c0.06,0.06.23,0.28,0.28,0.34a0.24,0.24,0,0,0,.09.09,0.1,0.1,0,0,1-.06,0,4.94,4.94,0,0,0-.34-0.4,0.21,0.21,0,0,0-.2-0.11,0.11,0.11,0,0,0-.11.06h-0.14a0.29,0.29,0,0,0-.14.2,3,3,0,0,0-.11.54h0a0.46,0.46,0,0,0-.09.17l-0.17.54a1.32,1.32,0,0,1-.09.26h0a0.59,0.59,0,0,0,.06-0.17c0-.06.11-0.43,0.14-0.51a0.06,0.06,0,0,1,0-.06l0,0a1.46,1.46,0,0,0,.11-0.28,3.21,3.21,0,0,1,.11-0.43,0.53,0.53,0,0,1,.06-0.2h-0.14a0.29,0.29,0,0,0-.14.2,2.7,2.7,0,0,0-.11.51,0.1,0.1,0,0,1,0,.09l0,0h0a3.87,3.87,0,0,1,.11-0.48A0.53,0.53,0,0,1,116,69h-0.14a0.29,0.29,0,0,0-.14.2h0a0.14,0.14,0,0,0-.11,0,0.29,0.29,0,0,0-.14.2,0.06,0.06,0,0,1,0,.06h-0.06a0.37,0.37,0,0,0-.06-0.31h0.09c0.26-.09.2-0.4-0.14-0.51a0.38,0.38,0,0,0-.4.14,8,8,0,0,1,0-.82l-30,2.92V72.6c-4.2.23-8.39,0.31-12.59,0.31-13.44,0-27.18-1.16-39.77-5.13a15.39,15.39,0,0,1,.11,2.32A0.82,0.82,0,0,0,32,70c-0.14-.17-0.28-0.34-0.37-0.43-0.43-.45-0.79-0.48-0.85-0.23a1.36,1.36,0,0,0-.65-0.85c-0.34-.11-0.51.45-0.06,1.33a2.66,2.66,0,0,0,.71.94,2,2,0,0,0,.74.45,0.26,0.26,0,0,0-.14,0,0.36,0.36,0,0,0-.17,0,0.27,0.27,0,0,0-.23.2c-0.09.17-.2,0.37-0.28,0.57h0a0.45,0.45,0,0,0-.14.17,6,6,0,0,0-.34.57C30.16,72.88,30.08,73,30,73H30a0.43,0.43,0,0,0,.11-0.17,5.27,5.27,0,0,1,.31-0.54s0,0,0-.06,0,0,.06,0A0.72,0.72,0,0,0,30.7,72c0-.06.2-0.37,0.23-0.45l0.11-.2a0.36,0.36,0,0,0-.17,0,0.34,0.34,0,0,0-.23.2c-0.09.14-.2,0.37-0.28,0.54a0.15,0.15,0,0,1-.06.09,0.06,0.06,0,0,0-.06,0h0c0-.06.23-0.43,0.26-0.51l0.11-.2a0.36,0.36,0,0,0-.17,0,0.34,0.34,0,0,0-.23.2h0a0.31,0.31,0,0,0-.14,0,0.36,0.36,0,0,0-.23.17s0,0,0,.06H29.68a0.48,0.48,0,0,0-.2.17s0,0.06,0,.09a0.21,0.21,0,0,0-.14,0,0.38,0.38,0,0,0-.17.14,2.22,2.22,0,0,0-.14.4c0,0.17.06,0.2,0.14,0.06a0.42,0.42,0,0,0,.09-0.2c0-.06.11-0.28,0.14-0.34s0-.06,0-0.09-0.09.26-.14,0.34a0.74,0.74,0,0,0-.09.2h0s0,0.06-.06.09,0,0.06-.06.09a0.31,0.31,0,0,0-.17,0,0.36,0.36,0,0,0-.2.17,2.66,2.66,0,0,0-.17.43c-0.06.17,0.09,0.23,0.17,0.09a1.23,1.23,0,0,0,.11-0.2A3.8,3.8,0,0,1,29,72.94,0.15,0.15,0,0,1,29,72.85l-0.17.37a1.69,1.69,0,0,0-.09.2h0.06a0.59,0.59,0,0,0-.17.11,0.39,0.39,0,0,0-.09.11,0.1,0.1,0,0,0-.06.09s0,0.06,0,.09,0,0,0,.06h0a0.31,0.31,0,0,0,0,.2,0.1,0.1,0,0,0,0,.09v0.06a1.32,1.32,0,0,0,.14.28c-0.09-.06-0.14,0-0.11.14a2.66,2.66,0,0,0,.17.43,0.29,0.29,0,0,0,.2.17,0.31,0.31,0,0,0,.17,0s0,0.06.06,0.09,0,0.06.06,0.09h0a1.69,1.69,0,0,0,.09.2c0.06,0.09.09,0.23,0.14,0.34a0.1,0.1,0,0,1,0-.09,1.73,1.73,0,0,1-.14-0.34,0.6,0.6,0,0,1-.09-0.2c-0.09-.14-0.2-0.09-0.14.06a1.64,1.64,0,0,0,.14.4,0.37,0.37,0,0,0,.31.17s0,0,0,.06h0a0.22,0.22,0,0,0-.17.14h0a0.41,0.41,0,0,0-.2.06,0.29,0.29,0,0,0-.23.14,0.73,0.73,0,0,0-.06.14h0a0.39,0.39,0,0,0-.23.17,0.26,0.26,0,0,0,0,.14l0,0a0.31,0.31,0,0,0-.2.2,0.13,0.13,0,0,0,0,.14h0a0.31,0.31,0,0,0-.2.2,0.18,0.18,0,0,0,0,.17,0.24,0.24,0,0,0-.17.17,0.18,0.18,0,0,0,0,.17l0.2-.11,0.31-.14h0c-0.17.06-.34,0.17-0.48,0.23a0.42,0.42,0,0,0-.2.2,0.18,0.18,0,0,0,0,.17h0a0.25,0.25,0,0,0-.14.17,0.34,0.34,0,0,0,0,.17l0.17-.11,0.11-.06a2,2,0,0,0-.26.17,0.25,0.25,0,0,0-.17.23,0.34,0.34,0,0,0,0,.17,0.3,0.3,0,0,0-.17.23,0.34,0.34,0,0,0,0,.17h0a0.26,0.26,0,0,0-.14.23,0.42,0.42,0,0,0,0,.17A0.37,0.37,0,0,0,27,80a0.36,0.36,0,0,0,0,.17L27.21,80l0.06,0c-0.09.06-.14,0.11-0.2,0.14a0.34,0.34,0,0,0-.14.26,0.42,0.42,0,0,0,0,.17,0.23,0.23,0,0,0-.11.23,0.26,0.26,0,0,0,0,.14,0.21,0.21,0,0,0-.11.2,0.42,0.42,0,0,0,0,.17,0.24,0.24,0,0,0-.09.2,0.42,0.42,0,0,0,0,.17,0.29,0.29,0,0,0-.11.2,0.42,0.42,0,0,0,0,.17,0.25,0.25,0,0,0-.09.17,0.42,0.42,0,0,0,0,.17l0,0a0.24,0.24,0,0,0-.09.2,0.42,0.42,0,0,0,0,.17h0a0.25,0.25,0,0,0-.09.17,0.42,0.42,0,0,0,0,.17,0.21,0.21,0,0,0-.06.17,0.42,0.42,0,0,0,0,.17,0.24,0.24,0,0,0-.09.2,0.42,0.42,0,0,0,0,.17l0,0a0.09,0.09,0,0,0,0,.14,0.13,0.13,0,0,0,.17,0s0,0.06.11,0.09a0.26,0.26,0,0,0,.2-0.31,0.06,0.06,0,0,0,0-.06,0.42,0.42,0,0,0,0-.31l0,0L27,83.23a0.42,0.42,0,0,0,.06-0.11,0.4,0.4,0,0,0,.06.11h0a0.38,0.38,0,0,0-.09.2,0.28,0.28,0,0,1,0,.34,0.21,0.21,0,0,0,.06.17,0.24,0.24,0,0,0-.09.2,0.21,0.21,0,0,0,.06.17s0,0,.06,0a0.13,0.13,0,0,0,0,.17,0.17,0.17,0,0,0,.2,0c0,0.06,0,.06.14,0.09a0.35,0.35,0,0,0,.23-0.34,0.06,0.06,0,0,0,0-.06v0s0,0.06,0,.09a0.24,0.24,0,0,0-.06.17,0.21,0.21,0,0,0,.06.17,0.26,0.26,0,0,0-.09.23,0.21,0.21,0,0,0,.06.17,0.11,0.11,0,0,0,.06-0.06c0,0.09,0,.14,0,0.17a0.25,0.25,0,0,0,.2,0c0,0.06,0,.06.14,0.09a0.33,0.33,0,0,0,.2-0.37,0.06,0.06,0,0,0,0-.06,0.36,0.36,0,0,0,0-.34l0,0a0.15,0.15,0,0,0,.06-0.09,0.36,0.36,0,0,0,0-.34,0.06,0.06,0,0,0,0-.06,0.73,0.73,0,0,1,.06-0.14l0,0,0,0a0.29,0.29,0,0,0-.09.23,0.31,0.31,0,0,0,.06.2h0a0.31,0.31,0,0,0-.06.2,0.21,0.21,0,0,0,.06.17,0.31,0.31,0,0,0-.06.2,0.21,0.21,0,0,0,.06.17,0.29,0.29,0,0,0-.09.23,0.31,0.31,0,0,0,.06.2s0,0,0-.06a0.13,0.13,0,0,0,.06.17,0.25,0.25,0,0,0,.2,0c0,0.06,0,.06.14,0.09a0.33,0.33,0,0,0,.2-0.37,0.06,0.06,0,0,0,0-.06,0.34,0.34,0,0,0,0-.34l0,0a0.15,0.15,0,0,0,.06-0.09,0.35,0.35,0,0,0,0-.34,0.09,0.09,0,0,0,0-.06s0,0,0-.06v0.06a0.53,0.53,0,0,0,.06.2h0a0.34,0.34,0,0,0-.06.23,0.53,0.53,0,0,0,.06.2,0.31,0.31,0,0,0-.06.2,0.72,0.72,0,0,0,.06.2,0.2,0.2,0,0,0-.06.23,0.72,0.72,0,0,0,.06.2s0,0,0-.06a0.13,0.13,0,0,0,.06.17,0.19,0.19,0,0,0,.2-0.06c0,0.06,0,.06.14,0.06a0.19,0.19,0,0,0,.14-0.11h0a0.08,0.08,0,0,0,0,.09,34.38,34.38,0,0,0-.17,3.88c0,5.1.57,9.64,3.6,14.29a26.64,26.64,0,0,1,4,8.76,4.84,4.84,0,0,0-2,4.59,4.26,4.26,0,0,0,2.41,3.06,8.74,8.74,0,0,1-1,2.83,4.52,4.52,0,0,0-3.8-2A4.84,4.84,0,0,0,28.29,126a4.89,4.89,0,0,0,3.23,4.37,9,9,0,0,0,6.55,0c3.8-1.3,6.12-5.78,7.14-10.49Z" style="fill: #fc0"/>
    <path d="M116.45,63.92a2.44,2.44,0,0,1-.54,1.5,2.38,2.38,0,0,1,.34,1.19c0,5.3-19.62,9.61-43.68,9.61s-43.68-4.31-43.68-9.61a2.38,2.38,0,0,1,.34-1.19,2.63,2.63,0,0,1-.54-1.5c0-8.67,21.94-13,43.88-13S116.45,55.25,116.45,63.92Z"/>
    <path d="M53.23,27.5a2.91,2.91,0,1,1,.34,5.24,3.76,3.76,0,0,1,1,1.7,2.19,2.19,0,0,1,2.38-1.87,2.51,2.51,0,0,1,2.3,2.21,1.37,1.37,0,0,0-1.5,1.16,4.1,4.1,0,0,0-.14,1.36,6,6,0,0,0,.48,2,6.34,6.34,0,0,0,3.57,3.32,5.41,5.41,0,0,0,1.93.34A5.57,5.57,0,0,0,68.14,41a5.45,5.45,0,0,0,.48-0.74,3.59,3.59,0,0,0,.43-1.73,2.07,2.07,0,0,0-.17-0.85,1.58,1.58,0,0,0-1.45-1,1.68,1.68,0,0,0-1.33.6,1.92,1.92,0,0,0-.37,1.33,2.65,2.65,0,0,1-2.64-1.79L63,36.4A2.79,2.79,0,0,1,63.24,35a3.53,3.53,0,0,1-1.39-.17c-0.79-.37-0.91-1.42-1.39-2,0.4-.62.4-1.47,1.11-2a2.67,2.67,0,0,1,1.59-.26,2.67,2.67,0,0,1-.85-1.59,2.46,2.46,0,0,1,2.1-2.64,2.08,2.08,0,1,0,2.07-2.13A2.2,2.2,0,0,0,64.8,25c-0.54.09-.4-0.85-0.43-1.3a2.17,2.17,0,0,1,2-2.52,3.67,3.67,0,0,1,2.35.68c-0.43-1.47,1.19-2.38,2.15-2.92,0.65-.34,1-1.16,1.73-1.19s1.08,0.82,1.73,1.19c1,0.51,2.58,1.42,2.15,2.92a3.57,3.57,0,0,1,2.35-.68,2.16,2.16,0,0,1,2,2.52c0,0.45.11,1.39-.43,1.3a2.2,2.2,0,0,0-1.67-.79,2.1,2.1,0,0,0,0,4.2,2.06,2.06,0,0,0,2.07-2.07,2.46,2.46,0,0,1,2.1,2.64A2.67,2.67,0,0,1,82,30.53a2.67,2.67,0,0,1,1.59.26c0.71,0.51.71,1.36,1.11,2-0.45.57-.6,1.59-1.39,2a3.6,3.6,0,0,1-1.39.17,3,3,0,0,1,.23.94V36.4a2.65,2.65,0,0,1-2.72,2.21A1.78,1.78,0,0,0,78.77,37a1.64,1.64,0,0,0-1-.28,1.54,1.54,0,0,0-1.45,1,2.37,2.37,0,0,0-.14.82A3.8,3.8,0,0,0,76.48,40a4.54,4.54,0,0,0,.74,1.19,0.15,0.15,0,0,1,.06.09A5.66,5.66,0,0,0,81.67,43a3.08,3.08,0,0,0,.51,0,6.28,6.28,0,0,0,1.67-.4A6.41,6.41,0,0,0,87,39.66a5.53,5.53,0,0,0,.65-2.3c0-1.42-.43-2.64-1.64-2.52a0.1,0.1,0,0,1,0-.09,2.51,2.51,0,0,1,2.27-2.13,2.19,2.19,0,0,1,2.38,1.87,3.58,3.58,0,0,1,1-1.79,2.83,2.83,0,0,1-1.28.31,2.91,2.91,0,1,1,0-5.81,2.9,2.9,0,0,1,1.62,5.3,2.39,2.39,0,0,1,.68-0.17,2.05,2.05,0,0,1,2.47,1.76c-1,.37-1.73,1.19-1.73,2.92a3.65,3.65,0,0,0,2.89,3.74c2,0.54,3.63-.2,3.77-1.7,0.11-1.25-.68-1.33-1.36-1.3a1.11,1.11,0,0,0-.94.68,1.84,1.84,0,0,1-1.16-2,1.87,1.87,0,0,1,2.21-1.9c-0.62-.34-1.25-0.45-1.22-1.36a2.34,2.34,0,0,0-.26-1.36A1.53,1.53,0,0,0,98.33,31c0.6-.88,1.5-0.57,2.13.06a2.47,2.47,0,0,1,.48-2.64,2.37,2.37,0,0,1,3.09.09,1.77,1.77,0,0,0-.77,1.33,1.51,1.51,0,0,0,1.79,1.5,2.08,2.08,0,0,0,1.76-2A1.57,1.57,0,0,0,105,27.58a1.81,1.81,0,0,1,1.81-2,1.88,1.88,0,0,1,1.87,1.11,2.61,2.61,0,0,1,2.69-1.25c2.49,0.4,1.9,3.09,1.9,3.09a1.55,1.55,0,0,0-1.76-.26c-1.11.4-2.1,2.75-3.12,5.22a5.06,5.06,0,0,1-.31,4c-0.85,1.84-2.38,3-3.57,2.86A13.16,13.16,0,0,1,101,42.92h0a1.64,1.64,0,0,1,.43.82s0,0.06,0,.06h0c0.14,0.31.14,0.77-.14,0.77a0.14,0.14,0,0,1-.11,0l0.11,0.09a0.51,0.51,0,0,1-.45.62,0.1,0.1,0,0,1-.09,0l0.06,0a0.88,0.88,0,0,1-.51.45v2.64a3.55,3.55,0,0,1,1,2.72v0.06a3.55,3.55,0,0,1-1,2.72V55.5a1.69,1.69,0,0,1,1.13,1.42s0,0.06,0,.06h0c0.14,0.37.14,0.91-.14,0.88a0.14,0.14,0,0,1-.11,0l0.11,0.09c0,0.37-.17.79-0.45,0.74a0.1,0.1,0,0,1-.09,0l0.06,0.06a0.85,0.85,0,0,1-.6.54,0.68,0.68,0,0,1-.34,0,0.39,0.39,0,0,0,.11.09,1,1,0,0,1-.65.54,0.39,0.39,0,0,1-.4,0L98.9,59.9a0.86,0.86,0,0,1-.65.45,0.54,0.54,0,0,1-.68-0.17l0.23,0.23a1.32,1.32,0,0,1-.65.34,0.63,0.63,0,0,1-.45,0l0.06,0.06a1.06,1.06,0,0,1-.68.31,0.79,0.79,0,0,1-.57,0,0.67,0.67,0,0,1,.14.14,1.06,1.06,0,0,1-.68.31,0.88,0.88,0,0,1-.6-0.06s0,0,.06,0a1.33,1.33,0,0,1-.68.4,1,1,0,0,1-.57-0.06l0,0a1.57,1.57,0,0,1-.68.4,1.11,1.11,0,0,1-.94-0.31,2.56,2.56,0,0,1,.28.26,1.06,1.06,0,0,1-.68.31,1.09,1.09,0,0,1-.88-0.26,2.56,2.56,0,0,1,.28.26,1.06,1.06,0,0,1-.68.31,1,1,0,0,1-.71-0.14,1.06,1.06,0,0,1-.68.31,1.08,1.08,0,0,1-.85-0.23,1.62,1.62,0,0,1,.23.2,1.45,1.45,0,0,1-.74.34,1.46,1.46,0,0,1-1.25-.51c-0.23-.23-0.43-0.4-0.62-0.57h0a2.56,2.56,0,0,1,.28.31c0.23,0.23.57,0.48,0.79,0.68a1.34,1.34,0,0,1-.77.31A1.53,1.53,0,0,1,84.33,63c-0.23-.2-0.4-0.37-0.57-0.51h0l0.2,0.2c0.23,0.23.57,0.48,0.82,0.71a1.34,1.34,0,0,1-.77.31,1.29,1.29,0,0,1-1-.34,0.22,0.22,0,0,1,.11.11,1.34,1.34,0,0,1-.77.31,1.54,1.54,0,0,1-1.3-.57c-0.14-.14-0.28-0.26-0.4-0.37H80.53l0.06,0.06a6.4,6.4,0,0,0,.82.71,1.22,1.22,0,0,1-.77.34,1.54,1.54,0,0,1-1.3-.57c-0.17-.14-0.28-0.28-0.43-0.4h0l0.2,0.2c0.26,0.26.6,0.54,0.82,0.77a1.14,1.14,0,0,1-.79.28,1.6,1.6,0,0,1-1.33-.65c-0.2-.2-0.37-0.37-0.54-0.51h0l0.09,0.09a10.5,10.5,0,0,0,.82.77,1.12,1.12,0,0,1-.77.28,1.38,1.38,0,0,1-1-.34l0.06,0.06a1.12,1.12,0,0,1-.77.28,1.22,1.22,0,0,1-.85-0.26,1.08,1.08,0,0,1-.77.28,1.39,1.39,0,0,1-1-.4,1.08,1.08,0,0,1-.77.28,1.23,1.23,0,0,1-.88-0.28,1.08,1.08,0,0,1-.77.28,1.36,1.36,0,0,1-1-.31l0,0a1.14,1.14,0,0,1-.79.28,1.39,1.39,0,0,1-1-.4,0.43,0.43,0,0,1,.11.11,1.14,1.14,0,0,1-.79.28,1.38,1.38,0,0,1-1-.34,1.12,1.12,0,0,1-.77.28,1.29,1.29,0,0,1-1.11-.45,1.12,1.12,0,0,1-.77.28,1.31,1.31,0,0,1-1.08-.4,1.12,1.12,0,0,1-.77.28,1.41,1.41,0,0,1-1.19-.51,1.42,1.42,0,0,1-.77.28,1.51,1.51,0,0,1-1.3-.6l-1-1,0.31,0.34a9.77,9.77,0,0,0,.79.74,1.36,1.36,0,0,1-.79.28,1.57,1.57,0,0,1-1.25-.6,1.18,1.18,0,0,1-.77.26,1.69,1.69,0,0,1-1.22-.6,1.3,1.3,0,0,1-.79.28A1.78,1.78,0,0,1,52.38,62h0a1.5,1.5,0,0,1-.77.28,1.78,1.78,0,0,1-1.33-.71l-0.06-.06a1.23,1.23,0,0,1-.79.2,1.87,1.87,0,0,1-1.28-.82c-0.57-.65-1.19-1.76-1.76-2.58,0.4,0.65.91,1.42,1.08,1.64s0.51,0.71.71,1a1.24,1.24,0,0,1-.82.11,1.81,1.81,0,0,1-1.19-1c-0.26-.37-0.57-0.85-0.85-1.36a1.38,1.38,0,0,1,.09.2c0.17,0.31.45,0.74,0.65,1A1.22,1.22,0,0,1,45,59.58a4.47,4.47,0,0,1-1-1.16A1.92,1.92,0,0,1,44,56V56c0-.48.4-0.65,0.88-0.06l0,0a3.46,3.46,0,0,1-.17-0.94V53.94a3.45,3.45,0,0,1-1.11-2.75V51.14a3.45,3.45,0,0,1,1.11-2.75V45.81A5.85,5.85,0,0,1,44,45a1.48,1.48,0,0,1,.06-2.1v0.06a1.23,1.23,0,0,1,0-.14,12.55,12.55,0,0,1-3.46-2.52c-1.19.09-2.64-1.08-3.49-2.89a5.08,5.08,0,0,1-.37-3.88c-1-2.49-2-4.93-3.17-5.33a1.5,1.5,0,0,0-1.76.26s-0.6-2.69,1.9-3.09a2.7,2.7,0,0,1,2.69,1.25,1.88,1.88,0,0,1,1.87-1.11,1.81,1.81,0,0,1,1.81,2,1.56,1.56,0,0,0-1.81,1.76,2.08,2.08,0,0,0,1.76,2,1.51,1.51,0,0,0,1.79-1.5,1.77,1.77,0,0,0-.77-1.33A2.22,2.22,0,0,1,44.65,31c0.62-.62,1.53-0.94,2.13-0.06a1.63,1.63,0,0,0,.91.79,2.34,2.34,0,0,0-.26,1.36c0,0.91-.6,1-1.22,1.36a1.9,1.9,0,0,1,2.21,1.9,1.84,1.84,0,0,1-1.16,2,1.11,1.11,0,0,0-.94-0.68c-0.68,0-1.47.06-1.36,1.3,0.11,1.5,1.79,2.21,3.77,1.7a3.62,3.62,0,0,0,2.89-3.74c0-1.76-.68-2.55-1.73-2.92a2,2,0,0,1,2.47-1.76,2.4,2.4,0,0,1,.48.11A2.74,2.74,0,0,1,52,31.46a2.92,2.92,0,0,1,1.11-4h0.09Z" style="fill: #fc0"/>
  </g>
</svg>
