<?xml version="1.0" encoding="UTF-8" standalone="no"?>
<svg
    xmlns:dc="http://purl.org/dc/elements/1.1/"
    xmlns:cc="http://creativecommons.org/ns#"
    xmlns:rdf="http://www.w3.org/1999/02/22-rdf-syntax-ns#"
    xmlns:svg="http://www.w3.org/2000/svg"
    xmlns="http://www.w3.org/2000/svg"
    version="1.1"
    style="fill-rule:evenodd"
    preserveAspectRatio="none"
    viewBox="0 0 680 960"
    id="content-body">
<g
    id="content-body_g"
    transform="matrix(3.527044349e-4,0,0,3.525749628e-4,-35.27085361,-34.26115918)">
    <path
        id="content-body_path"
        d="m 331817,102911.8996 c 109107.0593,777.9128 150019.6627,3396.5741 227793,6655.2716 -8050,-786 -44426,411.2762 -48090,-1709.7238 -2059,-2702 -41279,-4245 -48090,-4546 l -20248,-830 c -25653,-24 -55544,642 -80900,-566 3767,-540 21360,-252 25217,-266 41341,-82 82681,19 124021,332 19540,-43 77062.2251,-1122.6025 75931.2251,-1514.6025 -2295,-373 -1077,-397 0,-444 l 6327,-332.00005 c 16070,0 32028,-37 48090,499.00005 26208,880 78463,-555.00005 78462,-555.00005 -4643,1904.00005 3818,91 5062,-166 334003.6919,-34.2972 946386.0099,63.05011 1286603.0099,365.05011 2094,24 3697,301.00004 5637,975.00004 1838,690 3131,1429 4574,2623 1428,1244 2300,2351 3127,3944 791,1655 1115,3004 1156,4792 -2210.486,21973.6697 1210.062,149612.4584 -440,81156.105 -280.121,24144.4155 1.926,70362 -396.074,90697 -456.588,51207.4822 693.033,73590.4769 -852.201,116870 -86,-2885 -258,-8658 -258,-8657 -23,13346 -66,40039 -66,40039 -43,-2164 -129,-6493 -129,-6493 -65,13347 -195,40039 -195,40039 -281,-25610 -843,-76832 -843,-76831 -86,12624 -259,37875 -259,37875 171,14853 1005,44281 1037,45412 -446,-12627 -1037,-37843 -1037,-37838 -51,31309 -1224,67479 519,97393 281,-14790 843,-44369 843,-44369 85,7892 -123,15884 259,10822 7,161 453,-46623 454,-46532 347,-20238 1016,-60398 1037,-61652 -12,112914 -949.49,338679 -949.49,338678 -63,6822 -3531.235,73587 -3289.235,73586 514,273 770,-17415 843,-20561 l -65,1074 c 165,-7792 2778.235,-18198 3555.235,-25923 738,12879 -2880.235,30133 -3425.235,43246 -10,8237 -11,5160 -65,2164 -801,16233 -2464,48697 -2464,48696 367,-58439 4780.235,-175306 4780.235,-175306 -786,-1992 -783,14235 -907,18396 244,-17315 348.268,-52510.1133 348.268,-52509.1133 -159,11526 -672.268,35196.1133 -672.268,35195.1133 0,9018 0,27054 0,27054 -370,11541 -584,34628 -584,34628 -64,-16593 -194,-49779 -194,-49778 -87,16593 -260,49778 -260,49778 -164,3431 -129,17314 -129,17314 -48,17315 -3030.235,51943 -3030.235,51942 -1023,17826 -1234,54242 -1231,54107 -341,27761 -130,83335 -130,83325 319,-18036 1037,-54107 1037,-54107 87,-6493 260,-19479 260,-19479 23,8427 -420,19548 207,27917 620,-12550 364,-26080 441,-38738 1059,-16953 3177,-50860 3177,-50860 1,7575 259,22725 259,22725 395,-1298 642,-3657 789,-6643 l -529,106199 c 841,-43075 1229,-84615 1036,-127692 115,-38 197,-6642 195,-6493 97,17675 324,53026 324,53025 170,-8506 444,-25368 454,-25955 l -259,35694 c 73,6933 -425,66200 1180,73395 1151,-38433 471,-78117 440,-116680 308,51582 713,154745 713,154745 -174,13045 -1155,139595 -972,139595 -225,0 470.765,1386215 470.765,1386214 0,0 670,306111.553 364,306112.553 -39,2316 -458,4088 -1478,6234 -1042,2029 -2163,3458 -3964,5050 -1873,1569 -3561,2545 -5960,3450 -2491,871 -4548,1233 -7240,1274 -64798.379,164.892 -1879511,449.447 -1879513,-223.553 -3661,-52 -8087.9345,906.177 -11482.9345,-273.823 -3155,-1190 -6568.3006,-1063.901 -9043.3006,-3120.901 -2469,-2174 -3977,-4048 -5409,-6825 -1371,-2876 -1464.5081,-8071.276 -1523.5081,-11180.276 -2711.85283,-129119.544 449.9431,-387264.248 -1486,-212848 55,-7214 195,-21643 195,-21642 -221.29,-27994.815 4.2335,-72253 -177.9721,-101721 1528.6449,2344.728 3143.2899,8296.087 260,7574 690.4112,-81509.246 -548.116,-280415.518 2581.7153,-416959 2938,38253 2895.2056,81439.544 3643,119374 -188,52861 -1420,107191 260,155826 109,37153 324,111460 324,111460 l 130,-29162 c 0,7210 195,21588 194,21587 l -842,89817 c 1331,-11291 1197,-30109 1490,-47614 22,-21642 65,-64928 65,-64927 127,-5434 -115,-17779 698,-23140 97,1970 51,18462 340,13400 173,7936 518,23808 518,23808 -281,14788 -842,44367 -842,44367 -14,3964 186,15688 348,29355 l 623,-60737 c -174,19903 -390,53704 -504,72281 96,11184 128,22588 -26,31428 l 337,114882 c -137,16191 178,33720 -714,49778 -63,5876 -583,80077 -583,80077 3,0 368,13680 368,13678 41,2508 501,4419 1604,6742 1135,2197 2338,3733 4293,5458 2029,1697 3850,2746 6446,3727 2699,940 4911,1326 7827,1372 27,47 45559,-215 44444,-216 -4058,-52 -44355,-158 -44355,-152 -2873,-41 -5056,-409 -7716,-1340 -2478,-936 -4297,-1963 -6236,-3583 -1927,-1692 -3153,-3217 -4262,-5383 -1073,-2266 -1535,-4133 -1574,-6578 52,-956 65,-120 67,-47 35,2434 493,4305 1561,6563 1108,2147 2271,3623 4179,5314 1978,1653 3740,2670 6275,3628 2623,915 4783,1291 7619,1336 22,41 11808,-92 11538,-90 -1376,-16 -11451,-120 -11451,-117 -2830,-44 -4957,-401 -7579,-1319 -2441,-922 -4212,-1925 -6125,-3520 -1906,-1676 -3081,-3145 -4184,-5288 -1059,-2227 -1503,-4056 -1547,-6461 35,-2771 69,-5542 105,-8313 1069,-34263 1490,-102803 1490,-102802 300,-38151 -344,-79258 1816,-111460 264,-95 461,2123 610,5596 -43,-3772 -14,-2404 -27,-1268 -188,-9146 158,-19199 -583,-24888 -208,-10252 -526,-20763 -441,-31006 199,7049 176,14212 246,21266 70,-5920 389,-59517 389,-59517 -190,2204 -332,4610 -434,7157 265,-21352 240,-61264 240,-61264 74,7202 357,21193 387,22607 -35,-1931 2,-4210 2,-4210 106,-9379 -286,-33898 2463,-27053 48,-16954 195,-50861 195,-50861 129,5771 389,17314 388,17314 40,9157 -17,17873 455,27053 27,3329 299,11654 521,20790 45,-7999 62,-13215 62,-13215 357,1020 544,143 713,0 131,10818 259,32464 259,32464 -134,-10100 -389,-30300 -389,-30299 -94,6299 -274,13018 -457,19912 175,10047 180,19471 -361,22868 l -45,-2223 59,-6675 -95,4852 c -261,-13608 -409,-27308 -462,-40899 -384,23805 -778,71422 -778,71421 -563,17660 -843,53032 -843,53024 1657,7752 1676,8108 1685,7608 -52,4339 -193,12953 -193,12953 -429,26327 -585,78996 -585,78995 3414,-12561 1556,-68136 1816,-93062 -258,-12987 -195,-38958 -195,-38958 -107,5050 -324,15151 -324,15150 -173,-8657 -648,-25971 -648,-25970 165,-6837 301,-15401 411,-24383 34,6096 177,11999 492,17528 821,-13170 674,-27553 912,-40760 162,2147 79,-108 66,-2164 167,-11182 517,-33546 517,-33546 -107,-8657 -324,-25971 -324,-25971 -172,8296 -518,24889 -518,24889 -59,-3395 -572,-35509 -713,-35710 -109,-6133 -324,-18397 -324,-18397 -128,2128 -318,6356 -325,6491 83,-9739 -2705.2351,-29216 -2705.2351,-29215 865,2163 2593,6492 2593,6492 -266,-15303 487,-47129 -2113,-49696 315,-17129 3310.2351,-35109 2110.2351,-48906 -1116,6667 -672,21679 -857,29346 152,-31382 454,-94146 454,-94146 108,2886 324,8657 324,8657 961,-21732 -100,-44162 0,-66010 -109,5411 -324,16232 -324,16232 -815,-6630 -1477,5178 -1427,4328 304,7576 909,22725 909,22725 -174,7937 -519,23808 -519,23807 l 142,34461 c 4,1005 794,60645 174,63383 -342,-27912 -407,-55860 -576,-83776 -216,12625 -583,37875 -583,37875 -173,-7178 -843,-21643 -843,-21643 37,-5384 541,-57354 389,-57353 -625,-4889 -4081.2351,40146 -4132.2351,43286 -583,-53731.836 364.4126,-64749.097 364.4126,-64749.097 C 111172.3831,2135190.477 111886,2123645 111886,2123645 c 1222,-1496 656,-13061 1038,-20560 172,-9378 519,-28136 519,-28135 21,-27775 64,-83325 64,-83325 -686,31016 -1945,93064 -1945,93064 -21,19838 -2899.2351,59518 -2899.2351,59517 -658,-24928 -1729.7019,-48658 -1604.7019,-73585 -455.9566,-13805.268 -4061.2582,-31410.428 -4595.7619,-49775.237 -1239.1392,-42575.111 -509.5757,-87655.763 -509.5757,-87655.763 75,-16950 259,-93405.144 259,-93404.144 285,-58781 500.0395,-75049.856 940.0395,-133842.856 308,-37156 -696.2351,-111462 -696.2351,-111460 92,-11907 713,-35711 713,-35711 775,-83274 -2200.5518,-250017 -2200.5518,-249972 109,31383 11826.022,94146 11826.022,94145 -115,6971 -260,17314 -260,17314 -215,8217 -953,20072 195,16233 171,9162 -249,28988 -454,48695 -578,39459 -5472.2351,78588 -5752.2351,117953 919,-4888 3706.2351,-16035 4002.2351,-25971 -317,20406 -3584.2351,54242 -3844.2351,75002 323,-22746 3877.2351,-57224 5465.2351,-52278 0,0 324,-17314 324,-17313 64,21642 194,64927 194,64927 87,-15510 260,-46532 260,-46531 969,-26607 1189,-52879 1835,-79418 1127,27930 580,57853 888,85910 5,-15144 315,-30313 259,-45449 2,-31020 -325,-93064 -325,-93064 -647,-3735 -756,31203 -777,34629 -765,24429 -1021,49279 -2303,73634 -516,-2205 452,-36000 487,-37924 292,7174 314,6700 324,6493 53,-21644 324,-64928 324,-64928 75,-7334 969,-22902 -129,-17314 3,-48285 -10998.0037,-95642 -10027.0037,-143924 -51,9025 12085.0037,102803 12101.0037,102803 -59,7084 -349,14230 66,9739 0,2164 0,6493 0,6492 64,-7935 194,-23807 194,-23807 44,-8296 -11210.9405,-104304.736 -11210.9405,-104303.736 -132.8225,-31766.071 -1021.2351,-162982.264 -1021.2351,-162982.264 894,-4578 490,-15663 455,-24889 108,-8296 324,-24889 324,-24889 237,20560 713,61682 713,61681 65,-12624 195,-37874 195,-37874 -94,-15187 -998,-45239 -1036,-46487 508,12985 1101,38921 1100,38912 74,-23807 -64,-71421 -64,-71421 1822,-14419 1107,-38589 1360,-54106 44,-27775 131,-83325 131,-83325 -238,11182 -714,33547 -714,33547 175,17760 398,35532 488,53292 -117,-265 -561,-41963 -617,-46800 -374,23753 594,50580 -1102,71421 l -908,44346 c -1,-3253 -130,-9718 -130,-9718 -1484,7707 -300,30005 -519,42204 -151,-1275 -70,778 -64,1081 l -1108,40073 c -624.852,22599.004 -1020,45655 -2144.99999,68257 -1262,-41586 1634.99999,-88748 2345.99999,-131055 -209,-22356 -939,-45704 -482,-68023 1200,10523 539,28674 675,39889 23,7935 66,23806 66,23806 172,-25610 519,-76832 519,-76831 1,-2921 64,-14068 64,-14068 118,-28495 260,-85489 260,-85488 667,-27054 1621,-81160 1621,-81160 86,-16593 259,-49778 259,-49778 86,32824 258,98474 258,98474 l 130,-16201 0,2133 c 65,-11543 195,-34628 195,-34628 46,-6105 62,-17645 65,-20095 l 0,1699 c 209,-38596 324,-115789 324,-115789 1312,-4631 1609,-59043 1815,-78376 l -66,451 c -54,-19109 -5634.4702,-38231 -5604.4702,-57341 -789,42560 3790.4702,127692 3790.4702,127692 -4,-5684 284,-12916 -389,-4329 -432,18396 -1296,55189 -1296,55189 6,1403 323,97493 315,97500 -335,-28160 -406,-56351 -575,-84515 -99,5405 136,20802 -865,25752 -1612,-14292 353,-44394 671,-59298 0,2165 0,6493 0,6493 l 64,-8592 c 3,1103 66,3181 66,3181 289,-21514 -92,-45911 1555,-57353 22,-5410 65,-16232 65,-16232 43,1443 65,4329 65,4329 766,-59882 -2234.4702,-179635 -2234.4702,-179635 60,-5206 4061.2351,-75956 1797.2351,-76831 -33,-1258 -444,-22613 -1296,-31382 -1090.4675,-55544.2411 705.8255,-148261 703.8255,-148251 l 1138.7042,207269 2835.2352,-176773 c -1463,-35491 -3009,-89497.9339 -3558,-117442.9339 1819,-312 9303.4702,5649 10927.4702,13843 4264,-10607 16079.6605,-13070.4342 29876,-12610.4475 L 231137,111325.8949 c -31209,-2843 -115578.1756,-11430.33245 -115591.1756,-11216.3325 -1685,12 -2943,218 -4510,749 -1494,554 -2510,1126 -3690,2087 -1139,988 -1845,4131.3325 -2514,5397.3325 -653,1347 -923,2424 -963,3883 24,-1440 286,-2531 913,-3866 654,-1280 1367,-4452.3325 2504,-5454.3325 1154,-962 2200,-1566 3674,-2125 1578,-553 2861,-777 4567,-800.99995 2,-4 51039.1756,160.99995 50507.1756,159.99995 z M 277514,2799408 c -27858,54 -61355,36 -89411,0 l -27858,0 c -608,0 -1211,-17 -1811,-45 -17355,-32 -28708,-61 -28708,-61 -137,-4 -237,-15 -364,-62 -114,-42 -205,-94 -295,-168 -92,-84 -147,-148 -202,-254 -48,-101 -72,-198 -73,-308 -14,-5525 157,-13255 312,-21651 -284,-1448 -434,-2936 -434,-4451 l 0,-37872 c -104,-1155 -219,-2235 -352,-3223 -1466,20842 -683,46147 -864,67193 1,274 55,502 176,757 116,235 269,433 480,615 221,188 437,315 724,422 303,108 550,151 879,158 64143,375 128289,660 192434,939 1246,-125 -488,-133 -1266,-166 l 78846,-1823 z m 172934,0 c 214425.3574,29.381 436043.3117,1463.626 619767,0 z m 641028,0 c 28308,357 64653,770 64652,770 -13498,1 -40497,56 -40497,56 183022.749,453.598 383918.146,1806.545 544177,277 -29107,-130 -87321,-389 -87321,-389 -28506,159 -57168,511 -85659,465 23055,-265 46150,-355 69207,-520 -39990,-130 -80261,-410 -120226,-166 -22358,2 -67073,-111 -67073,-111 -21513,-93 -64541,-277 -64541,-277 -594,-26 -1354,-64 -2140,-105 l -42089,0 50556,714 c 11392,50 34170,56 34170,56 -47506,499 -94177,817 -141739,-111 10878,68 23279,446 34127,54 -3400,-372 -8106,-589 -13333,-713 z m 745623,0 13804,105 c 17164,9 38040,762 54417,0 l -2373,-105 z m 110601,0 648,105 c 3213,132 5754,549 8858,1109 11814,-327 23625,-673 35436,-1053 1026,15 16521,282 16521,282 234,0 398,-26 616,-97 204,-76 348,-151 509,-283 154,-129 264,-261 352,-429 92,-177 132,-340 139,-534 491,-3449 424,-1404 458,-1 5,78 5,18 5,1 34,-3108 3,-6237 3,-9347 -487,-21811 -817,-53846 -1030,-81729 l 0,64976 c 0,27346 8066,27000 -31575,27000 z m 62515,-151917 c 244,-3909 300,-12025 317,-13075 164,11181 190,8806 194,8657 43,-2164 130,-6493 130,-6493 60,-5052 194,-15149 194,-15149 331,1347 680,-825 713,-1068 -318,7127 -571,16326 -771,25789 259,7822 56,16141 58,23974 462,-18032 1103,-54107 1103,-54106 -219,-10829 -1101,-21508 -1167,-32464 0,361 0,1082 0,1082 -65,-1443 -195,-4329 -195,-4329 203,-18036 714,-54106 714,-54106 64,5050 193,15149 193,15149 23,-8296 66,-24889 66,-24888 52,-10822 129,-32465 129,-32465 120,9018 390,27054 390,27054 322,-22301 1842,-50657 523,-72360 -795,13297 -673,27649 -913,40978 -23,-3477 128,-29161 -256,-30044 -1058,14130 -918,29920 -1234,44112 l -188,-640 z m 0,-498647 c 306,-10504 625,-21020 835,-31689 l 0,4260 c 5,-742 65,-2095 65,-2095 47,-12810 15,-10137 -65,-7575 -622,-74606 2666,-146766 2983,-220755 0,6132 0,18397 0,18396 114,-7575 388,-22725 388,-22725 -43,-721 -129,-2165 -129,-2164 48,-12424 316,-37090 324,-37857 l 0,28117 c -21,4690 -64,14068 -64,14068 -197,36072 -455,108214 -455,108214 -905,62418 -2001,124776 -2657,187210 l 324,-14061 0,1074 583,-31366 0,1067 c 97,-6392 317,-19075 324,-19470 l 0,2156 c 176,-9636 -361,-46303 1384,-54905 569,6218 144,15002 107,21358 -686,-58 -276,7909 -259,23807 -373,26334 -1620,78997 -1620,78996 -260,51942 -778,155828 -778,155828 431,-22004 1297,-66011 1295,-66011 225,-30658 -258,-91982 -258,-91981 260,26330 518,78997 518,78996 225,-11220 -143,-28825 1018,-40124 933,46472 -668,94092 -629,140762 5181,-67374 982,-166497 1556,-247809 460,-33474 103,-66198 0,-99556 63,-4647 663,-58437 389,-58435 -286,-5974 -317,-4501 -324,-4328 -43,-18757 -130,-56272 -130,-56272 243,-10819 519,-32464 519,-32464 -120,-2769 -179,-1352 -195,-1082 -129,3968 -388,11904 -388,11904 -22,-6493 -65,-19479 -65,-19479 574,-32462 1426,-97392 1426,-97392 825,2200 983,440 1038,0 -318,28497 -1103,85489 -1103,85489 l 260,-9716 -454,48673 c 324,-16954 973,-50861 973,-50861 l 258,-30233 c -30,12285 130,36726 130,36726 3110.874,-25896.44 1188.219,-134723.662 3501,-219673 -416,-6296 -1670,65059 -1815,72503 -1318,15806 -1411,35253 -1750,53024 -152,-3968 -455,-11903 -455,-11903 322,-14611 1680,-35124 723,-49278 -1108,10609 -926,24473 -1241,35210 -129,-3246 -389,-9740 -389,-9739 -359,12617 -259,37875 -259,37875 -119,4971 -318,14835 -324,15142 l 0,-16225 -66,18258 c -2,-2568 1376.645,-9238.718 1376.645,-9238.718 -76,5771 -1570.645,19116.718 -1570.645,19116.718 -282,8657 -778,25971 -778,25971 -302,21643 -907,64929 -907,64928 -87,-2164 -260,-6492 -260,-6492 99,-3465 116,-3318 130,-3247 -160,-8307 -99,-5776 -130,-4329 -22,2526 -65,7576 -65,7576 -389,-38957 -1167,-116871 -1167,-116871 284,-32465 584,-97393 584,-97392 12,-7407 -380,-94146 -260,-94146 235,-37291 449.243,-93547.481 350,-186677 -1768,23410 -1061,48320 -1971,71971 -196,558 -305,288 -381,-469 l 0,176582 c 138,-6428 283,-12834 447,-19203 -198,21642 -390,64928 -390,64928 l -57,1757 z m -58288,-2037518.105 60068.235,-1441 c 390,-1 709,50 1071,173 363,135 589,261 878,491 283,246 438,436 608,749 157,320 220,569 234,917 128,3709 264,7417 396,11126 -21,-926 -256,-11115 -256,-11115 -10,-371 -76,-630 -239,-973 -172,-324 -340,-533 -630,-788 -305,-244 -544,-384 -928,-526 -392,-132 -708,-188 -1131,-189 -68,-89 -84858.235,1376 -86934.235,1415 -14220,40 -30729,96 -48412,161 z m 72160.96,360949.105 1,37 z m 2075,-82176 0,-29 z m -3460.725,392777 0,9 z m 1762,43144 c 276,-5615 199,-13453 103,-20659 z m 103,-20659 c -63,-4812 -135,-9343 -115,-12738 l 195,-3240 z m 80,-15978 0,-6 z m 1297,35721 0,-17 z M 107997,2410466 l 0,-56 z m 1359,143967 c -34,236 -69,456 -104,649 -63,-24411 46,-48840 106,-73251 -1020,56626 -2399,169896 -2399,169895 3186,-21118 1984,-64512 2397,-97293 z m 5490,62060 c -100,-6829 -496,-31859 -496,-31859 m -888,-91317 -19,499 0,1001 z m -19,499 c -400,10448 -192,23218 -260,34547 -43,721 -64,2164 -64,2164 -211,-9285 -519,-35710 -519,-35710 34,-13419 721,-28688 -130,-34628 -107,10101 -195,30300 -195,30299 -491,-20996 -976,-41749 -907,-62763 59,-6848 631,-74668 454,-74668 -1399,18086 -825,41938 -1233,63846 -363,-16072 -349,-30457 -64,-46532 132,3225 66,-3966 64,-4328 168,-11182 519,-33546 519,-33546 -107,-8657 -324,-25972 -324,-25971 -173,8657 -519,25971 -518,25971 -52,11528 240,34222 258,35640 -150,-10122 -388,-30230 -388,-30230 -183,12266 -454,36793 -454,36793 -284,-32024 655,-64262 907,-96310 -62,-3989 -1187,-57277 1368,-59084 1278,4075 1018,16859 1031,21210 -22,17675 -64,53025 -64,53024 167,-16870 -41,-33750 133,-50598 290,7346 184,15104 255,22463 285,-6055 24,4654 -129,15150 908,61073 249,122815 260,183963 z m -2919,-125679 0,3 1,68 m 7370,98992 -36,-1823 c -93,5360 -144,10689 -116,15879 57,-4634 108,-9379 152,-14056 z m -434,89331 0,-33 z m 65,-182915 0,2 z m -2225.2351,-72419 c -31,-29 -60,-60 -91,-82 -29,3115 -76,7190 -129,11338 73,-3673 149,-7443 220,-11256 z m -220,11256 c -116,9081 -254,18505 -260,18946 13,-5753 126,-12185 260,-18946 z m -260,18946 0,16 z m -10560.9405,-1256295 -2,-45 z m -326,-14134 0,22 z m 1750,-218538 0,-31 z m 260,-52590 0,-466 z m -3055.4702,-239454 691,-70502 c -324,16953 -973,50861 -973,50861 -11,3706 137,11060 282,19641 z m 1239.4702,145990 0,-65 z M 2011763,2620363 l 1,-15 z m -1114,45397 c -225,15598 -311,28174 -311,28173 200,-9363 226,-18778 311,-28173 z m 3967,-819120 0,-18 z m 0,28117 0,2165 c 0,-722 0,-2165 0,-2165 z m -2852,295431 0,-7 z m 583,-30292 0,-16 z m 324,-18403 0,-9 z m 3761,-280258 0,-23 z m 777,-32421 0,-66 z m -1879,-40113 0,8 z m -66,2033 0,139 z m -90200,-1659569.105 41,0 z"
        style="fill:#ffffff;fill-rule:nonzero" />
   </g>
</svg>