<svg id="city_irk" data-name="irk" xmlns="http://www.w3.org/2000/svg" width="52.5mm" height="52.5mm" viewBox="0 0 148.82 148.82">
  <title>irk</title>
  <g id="irk">
    <path d="M121.61,47.76l-0.26,1.16-0.43,1.25a16.22,16.22,0,0,1-1.7,2.86,3.06,3.06,0,0,1-1,2l-1.64-.26-1,.31c-0.48.11-1,.26-1.56,0.43l-1,0-1.56-.34c-0.62-.2-1.25-0.48-2-0.77l-0.91.31-0.82.82c-3.69,3.4-4.39,6.38-3.86,12.84l-1,4.51c-0.06,2,.26,3.37.26,5.16a32.75,32.75,0,0,0-2.3,5,35.14,35.14,0,0,0-1.9,12.44,34.2,34.2,0,0,0,1,5.22c-4.65-.54-10.91-0.88-14-2.38-1.3-.79-1.64-3.71-3.09-3.88a99.51,99.51,0,0,1-17.66-2.1c-1.81-.26-2,1.11-1.25,1.56,3.49,1.87,5.3,3.37,5.07,6-0.09,1.22-1.56,4.45-3.09,5.47-1,.79-1.16,2.15.79,2.27,2-.65,3.49-0.34,5.56-0.14,1.53,0,1.33-.09,1.87.88l0.51,0.31v0.62c1.22,0.26,1.9.57,1.81,2.1,0.34,0.51.71,1.11,1.08,1.62a10.35,10.35,0,0,0-3.74-1,17.43,17.43,0,0,1-5.41.31c-0.06.62-.57,1-0.65,1.62L67,115.34a3.74,3.74,0,0,0,.17,1.36c-1-.34-2.3-0.79-2.78-1.76-1.53-.74-2.18-2-3.29-2.66s-2.72-.91-4.08-2c-1.25-.57-3.17-1.28-1.73-3.17,1.22-2.1,1.13-2.35-.48-2.83-3-1.19-4.34-2.52-6-5.33-1-1.62-1.16-2.41-2.69-1-2.86,2.15-5,3.54-9.07,4.2l-2.92.09c-0.91,0-1.79.79-.43,1.39,3.49,1.53,4.76,2.15,7.2,5.1l0.57,1.3,0.65,1.3L41,110.32l-1-.23-1.81-.26-0.51.17c0.09,1.56.4,2-.51,3.4l-0.23.74a10.62,10.62,0,0,0-2.21-1.45c-1.33-1.45-2-2.27-4.31-2.32-1.25.26-.91,1.79-2.61,2.52l-0.65,1-0.26-1.11-0.43-1c-0.09-2-.23-2.61-2-3.4-2.38.06-2.07-1.3-2.38-2.15-0.74-1.87-2.35-3.23-1-4.9,0.4-.51,1-1.56,1.73-2.32,1.81-1.87,4.08-3.77,4.17-5.3s-0.51-3.29-.6-4.85a4.09,4.09,0,0,1,1-3.49c2.27-3,4.34-5.41,5.47-9.18a2.9,2.9,0,0,0-.57-2.92,50.87,50.87,0,0,1-5.33-4.51c-4.73-5.56-5.5-11.31-6.21-19.08,0.14-5.75,1.16-6.86-1.47-13.58-2.69-3.29-1.45-4.9,3.26-3.63,5.7,1,11.06,3.46,12.25,10.71,0.51,4.22.4,7.37,0.6,11.45,0.43,5.41,1,8.16,4.17,13.1a3.25,3.25,0,0,0,2.55,1.19c4-.57,7.65-1.13,11.68-1.45a87.26,87.26,0,0,1,16.24-.06c2.83,0.34,5.16.09,5.87-.34,3.94-3.8,5.87-5.9,10.86-8.16,1.62-1,2.47-2.1,3.29-4.71a29.61,29.61,0,0,1,5.33-9.61l1.47-2.27c-0.34-2.35-.79-7.37,1.45-7.37,1.47,0.71,2.86,1.39,4.34,2.15A19.87,19.87,0,0,1,114.89,37a8.29,8.29,0,0,1,4.25-2.18,8.35,8.35,0,0,0,.71.71l-0.31,2.18L119.06,39c2.07,3.66,2.38,1.7,2.83,6.89-0.09.68-.17,1.28-0.28,1.79v0.06ZM109.42,90.82a32,32,0,0,0,6.89,3.63c2,0.17,3,.54,4.9-0.06l1.62-.31,1.53,0.06a2.77,2.77,0,0,1,2.38,1.47,2.61,2.61,0,0,1,2.86,1.79,7.61,7.61,0,0,0-3.37.74l-0.4.79c0.57,0.79,1.9,1.62,1.53,4.25-1.22-.91-2.13-2-3.69-1.36l0.14,0.62c0.48,1.28.34,1.62-.26,2.83l-0.48-1c-1.25-1.28-1.87-1.3-3.57-.74a3.22,3.22,0,0,1-2.61-.4c-1-1.39-1.7-1.56-3.37-1.84-2.41.11-4.62,0.06-7-.06a28.76,28.76,0,0,0,.06-5.92c-0.26-3.54-.17-6.32-0.23-9.47L106.44,83l0.43-2.75,0.31,0.09a11.72,11.72,0,0,1-.43,5.33,12.56,12.56,0,0,1,1.22,6l0.43,1.67,0.51,0.62,0.71,0.17,0.6-.48-0.23-1L109.39,91A0.62,0.62,0,0,0,109.42,90.82Zm9.18-10.91a6.23,6.23,0,0,0,1.45.26l0.4,1.3,0.91,0.88,0.79-.71-0.43-.79V79.94c0.68-.17,1.39-0.43,2.38-0.62a5.94,5.94,0,0,1,3.57.88,4.51,4.51,0,0,1,1,1.28c0.74,0.54.82,0.09,2,.88,0.09,0.26.43,0.62,0.48,0.82a7.63,7.63,0,0,0-2.27.06L128.89,84a3.2,3.2,0,0,1,1.81,2.61,4.17,4.17,0,0,0-2.52-1l-0.48.17a3,3,0,0,1,.51,2,4.17,4.17,0,0,0-2.07-1.22l-1.25.17-1.53-.17a8.23,8.23,0,0,0-4.65-1.36,21.22,21.22,0,0,1-9.47.28l0.34-.85a65.31,65.31,0,0,0,1.84-7.29,4.92,4.92,0,0,0,.17-1.28,24.52,24.52,0,0,0,3.71,2L115.46,79l0.14,1.19,0.26,1.67,0.51,1,0.82-.23,0.23-.62a7.66,7.66,0,0,1-.54-3.09q0.81,0.43,1.7.94h0Z"/>
    <path d="M107.66,55.59l0.82-.82,0.91-.31c1.62,0.57,2.55,1.13,4.31,1.13,1.7-.48,2.95-1,4.34-0.48l1.7,2.44c1.81,4,3.12,6.38,2.61,9.86,0.23,1.67.31,2.41,1.73,3.32l0.17,0.57-0.91.79-0.48.57,0.14,1a3.94,3.94,0,0,1-1.13,2.44l-0.14,2v2.66l0.43,0.79-0.79.71-0.91-.88-0.57-1.93-0.65-2.1-0.71-1.84-0.79-1.53-0.14-.43-0.79.14,0.17,2v1.84a8.69,8.69,0,0,0,.43,4.42l-0.23.62-0.82.23-0.51-1-0.26-1.67L115.43,79,115,76.62,114.29,75l0.17-1.87c-0.26-3.71-1.25-4-1.7-6.6l-0.06-2.75-0.43-.31-0.65.31a9,9,0,0,1-.91,6.07c-0.06,1.56,1,2.27.91,3.46,0.17,4.05-1,7.6-2.13,11.45L109,86c0.88,2,.68,2.89.31,5l0.6,1.53,0.23,1-0.6.48-0.71-.17-0.51-.62-0.43-1.67a12.56,12.56,0,0,0-1.22-6,11.72,11.72,0,0,0,.43-5.33l-0.31-.09L106.36,83l-0.09,2.89c0.06,3.15-.06,6,0.23,9.47,0.17,4.59.57,6.8-2.21,10.57-1.25.79-.79,1-2.21,0.79a6.75,6.75,0,0,1-1.73-4.11,37.2,37.2,0,0,1-1.53-7.09,35.14,35.14,0,0,1,1.9-12.44,35.71,35.71,0,0,1,2.3-5c0-1.79-.31-3.17-0.26-5.16l1-4.51c-0.51-6.46.17-9.44,3.86-12.84Z" style="fill: #fc0"/>
  </g>
</svg>
