<svg id="city_psk" data-name="psk" xmlns="http://www.w3.org/2000/svg" width="52.5mm" height="52.5mm" viewBox="0 0 148.82 148.82">
  <title>psk</title>
  <g id="psk">
    <path id="path3216" d="M118.2,17.72a6.12,6.12,0,0,1-1.73,4.05,6,6,0,0,1-3.12,1.64,2.76,2.76,0,0,1-.28,3.57,2.71,2.71,0,0,1-3,.6l-0.2-.09a2.15,2.15,0,0,1,0,.43h0a4,4,0,0,1-1.84,3.37,3.93,3.93,0,0,1-4.05.14,4,4,0,0,1-1.19-1,6,6,0,0,1-3.2,1.28,2.71,2.71,0,0,1,0,1.64,3,3,0,0,1-3.26,2.1,3.05,3.05,0,0,1-1.39-.6,6.14,6.14,0,0,1-1.7,3.54,6,6,0,0,1-9.1-.79,3.06,3.06,0,0,1-2.3,1.5c0.06,0.09.09,0.17,0.14,0.26a8.22,8.22,0,0,1,.85,2.27,14.74,14.74,0,0,1,.26,2.18c0.09,1.3.11,2.61,0.11,3.94,0,2.95-.14,5.84-0.28,8.79-0.06,1.45-.14,2.89-0.28,4.34-0.06.82-.28,1.87-1.39,1.81a1.37,1.37,0,0,1-.88-0.4A15.79,15.79,0,0,1,80,66.1a1.5,1.5,0,0,1-2.61.34c-0.14,4.2-3.46,3.6-3.71.26-1.62.91-2.52-1-2.75-2.41-0.54-3.2-1-6.41-1.39-9.61-0.45,1.28-1.25,2.47-2.24,2.18-1.16-.31-1.13-1.62-1.25-2.58a17.76,17.76,0,0,1-.4-4.9,8.55,8.55,0,0,0,.06-3.06,7.56,7.56,0,0,1-.26-2.24c0.17-1.53,1.39-2.89,2.35-4a12.39,12.39,0,0,0,1.13-1.42,3,3,0,0,1-2.13-.77,6.07,6.07,0,0,1-9,.45,5.32,5.32,0,0,1-1.62-3.54,2.95,2.95,0,0,1-4.68-3.32,6,6,0,0,1-3.15-1.19,4.09,4.09,0,0,1-2.89,1.45,4.18,4.18,0,0,1-3.23-1.22h0a4.06,4.06,0,0,1-1.22-2.95h0a3,3,0,0,1-1,.2h0a2.86,2.86,0,0,1-2.81-2.47,2.82,2.82,0,0,1,.43-1.9,5.56,5.56,0,0,1-3-1.53,5.43,5.43,0,0,1-1.59-4.25H118.2v0.09Z" style="fill: #999"/>
    <path id="path3226" d="M53.38,79.88a3.07,3.07,0,0,1-1.13,0A1.31,1.31,0,0,0,52.53,78a1.08,1.08,0,0,0-2,.34,1.36,1.36,0,0,1-.6-0.26,1.52,1.52,0,0,0-.17,1.11,2.25,2.25,0,0,1-1.22-.17,1.48,1.48,0,0,0-.06.71,1.57,1.57,0,0,1-1.19-.34,2.19,2.19,0,0,1-1.76.62c0.26-.57.14-1,0.34-1.39a2.14,2.14,0,0,1-1.9-.28c0.77-.26.48-1,0.62-1.36a0.76,0.76,0,0,1-.94-0.23c0.65-.2.17-1.45,0.82-1.84A8.77,8.77,0,0,1,43,74.81a4.1,4.1,0,0,1-3.69-4,3.89,3.89,0,0,1,1.13-2.55,1.49,1.49,0,0,1,1.79-.45,1.25,1.25,0,0,1,.48,2,2,2,0,0,1-.34.37,1.11,1.11,0,0,0,.28,1,2.66,2.66,0,0,0,2.15.34,9,9,0,0,1-.71-2.86,3.51,3.51,0,0,1-.88-3.17,4,4,0,0,1-.4-1.7,1.84,1.84,0,0,1,1.64-1.59,11.64,11.64,0,0,1,5.5,0c2.35-2.58,6.49-.77,9,0.45,2.49-1,5.81-1.73,5.1,2l0.68-.11c2.3-.51,2.3,1.64,1.84,3.2a5,5,0,0,1-.77,1.62,12.53,12.53,0,0,1,1.79,3.46,8.83,8.83,0,0,1,1,2.66,3.87,3.87,0,0,1,.71,1.81c0.11,0.51.14,0.77,0.74,0.6a0.76,0.76,0,0,1-1,.79,7.58,7.58,0,0,1,.71,2.64c0.54,1.19.79,2.69,2.24,3a7.5,7.5,0,0,0,3.46-.23,22.76,22.76,0,0,1,9.38-.34,26.12,26.12,0,0,0,3.8.45c1.25,0,2.49,0,3.83-.11l0.51,0a22.67,22.67,0,0,1,8.11,1.7,28.73,28.73,0,0,0,6.15,1.59c3,0.31,6.09-.79,6.38-4.14a4.52,4.52,0,0,0-3.74-4.88c-3.06-.48-5.73,1.22-8.5,2.1A19.89,19.89,0,0,1,91,81.35a8.76,8.76,0,0,1-5.16-3.09,7.69,7.69,0,0,1,2.35-11.42c2.35-1.22,4.9-1,7.43-.68a4.6,4.6,0,0,0,3.8-.74,10.26,10.26,0,0,1,4.22-2.21,0.55,0.55,0,1,0-.31-1,1.24,1.24,0,0,1,1.42-.79A1.47,1.47,0,0,1,106,62.59a5.59,5.59,0,0,1,1.84-.91c1.39-.31,2.44.65,1.73,2.1a1.14,1.14,0,0,0-1.53-.2c-0.51.28-.77,0.82-1.3,1.11a4.93,4.93,0,0,0,2.55-.37,2.81,2.81,0,0,1,2.07-.34,3,3,0,0,1,2.69.43c1.39-.37,3.12-0.26,3.69,1.28a2.1,2.1,0,0,1-.14,1.7,1.76,1.76,0,0,1-1.36.85c0.88-.71,0-1.39-0.74-1.53a3.05,3.05,0,0,0-2.1.48,1.68,1.68,0,0,1,.65,2.47,1.47,1.47,0,0,0-.6-0.71c-1.3-.82-3,0.79-3.94,1.62a3.3,3.3,0,0,0,2.07.34,1,1,0,0,0,.6-0.71,1.6,1.6,0,0,1-.37,1.64,2.34,2.34,0,0,1-2,.57,4.57,4.57,0,0,1-1.84-.54,5.76,5.76,0,0,1-6.6.23c-1.16.26-2.07-.43-3.17-1.25h0c-0.28-.23-0.6-0.43-0.88-0.62h0a7.08,7.08,0,0,0-2-.94,7.58,7.58,0,0,0-5.78.74,3.4,3.4,0,0,0-1.62,2.83c-0.2,3.86,3.8,4.85,6.77,4.42,5.39-.77,10.12-4.11,15.73-3.46,6,0.68,9.27,5.67,8.05,11.34a10.82,10.82,0,0,1-3.63,6.24,3,3,0,0,1-.31.23h0a9.36,9.36,0,0,1-1.16.65h0a8.9,8.9,0,0,1-5.87.65,9.52,9.52,0,0,1,.45.94,1.55,1.55,0,0,0,1.81,1.22,1,1,0,0,1-1,.51,8.48,8.48,0,0,1,.43,1.19,4.57,4.57,0,0,1,1.28,3.32c0.26,0.37.54,0.74,0.77,1.13a5.75,5.75,0,0,1,.57,1.19,9.73,9.73,0,0,0,1.59.23h0c1.39-.09,3.26.71,3.4,2a3.5,3.5,0,0,1,.71,2.78,3.82,3.82,0,0,1,.6,1.53,5.61,5.61,0,0,0,.88,2.64,1.65,1.65,0,0,1-1-.2,4.57,4.57,0,0,1,.06,1.76,5.33,5.33,0,0,1,.34,1.67,7.93,7.93,0,0,1-.09,1.45,1.66,1.66,0,0,1,.14.62,2.1,2.1,0,0,1,0,.6c1.28,0.77,2.49,2.38,1.7,3.88a3.74,3.74,0,0,1-2.35,4,3.55,3.55,0,0,0-.06-1.81,1.86,1.86,0,0,1-.79.11,3,3,0,0,1-1,1.62,3.7,3.7,0,0,1-1.9,3.12,3,3,0,0,1-2.52.28,13.13,13.13,0,0,0-1.64,2.44,4.89,4.89,0,0,1-.62-2.64,3.89,3.89,0,0,1-1.76-.65,6.28,6.28,0,0,0-2.55,2.47,6.58,6.58,0,0,1-.26-2.92,2.29,2.29,0,0,1-.77-0.31,8.8,8.8,0,0,0-1.16,1.84,5.38,5.38,0,0,1,0-4.71,3,3,0,0,1,.77-2.52c0.88-.88,1.93-0.71,3-0.37a3,3,0,0,0,2.81-1.42c0.6-.88.06-1.7-0.43-2.44a8.21,8.21,0,0,1-.85-4,24.36,24.36,0,0,1-2.72-1.36,2,2,0,0,1-1.08,1.13c-0.09-1.19-1.59-1.87-2-2.75l-0.09.88c-0.6-1.25-2.24-2-3-3.2a2.8,2.8,0,0,1-.77-0.77,5,5,0,0,1-1.42,1.76,6.59,6.59,0,0,0-1.28-3,6.69,6.69,0,0,1-.79-1.84,7.55,7.55,0,0,1-.77,2.75,5.68,5.68,0,0,0-.62,2.24L93.17,109a7.23,7.23,0,0,1-.51,1.5c0.94,1.73,1.62,3.09,1.28,5.27l-0.28-.17a2.76,2.76,0,0,1-1.39,1.79,7.43,7.43,0,0,1-1.08,2,3.21,3.21,0,0,0-.88,2,1.44,1.44,0,0,1-.82-0.91,4,4,0,0,1-.94.6,4.38,4.38,0,0,1-1.22,1.64,3.85,3.85,0,0,1-1.19,1.42c0.23,1.62-.37,3.49-2,4a4.22,4.22,0,0,1-4.56,1,4.26,4.26,0,0,0,1.64-1.45,1,1,0,0,1-.71-0.79,4.44,4.44,0,0,1-2.3.77,3,3,0,0,1-3.74.88,6.25,6.25,0,0,0-1.47,2,4.19,4.19,0,0,1-1-3.23,1,1,0,0,1-.74-0.45,4.73,4.73,0,0,0-1.67,2.18,5,5,0,0,1-.4-4.17,5.05,5.05,0,0,0-1.73,1.36,5.85,5.85,0,0,1,3-5.67l0.11-.11h0a3.28,3.28,0,0,1,3.88-.2,1.68,1.68,0,0,0,2,.4,10.94,10.94,0,0,0,2.13-1.39c0.51-.65.4-1.53,0.85-2.24s1.13-1.11,1.56-1.81a3.4,3.4,0,0,0,.37-0.88,3,3,0,0,1-.2-1.42,4.37,4.37,0,0,1-.28-1.93s0,0-.06,0h0a2.1,2.1,0,0,1-1.73.31c1-1.33.48-2.61,0.88-4.08l-0.2.17A7.67,7.67,0,0,1,80.84,104a2.56,2.56,0,0,1,.65-1.59A15.06,15.06,0,0,1,84,99.92a13.94,13.94,0,0,0-1.7.65,19,19,0,0,0-6.21,4.76,14,14,0,0,1-9.67,4.22,6.26,6.26,0,0,1-1.62,4.65,4.8,4.8,0,0,1-1.62,2.13,8.61,8.61,0,0,1-2.58,2.38,3.84,3.84,0,0,1-1.11,1.13,11.87,11.87,0,0,1-2,2.49,5.05,5.05,0,0,1-.71,1c0.37,1,.43,2.55-0.48,3.2h0l0,0a4.25,4.25,0,0,1-4.54,2.58,3.86,3.86,0,0,0,.79-1.22,2.23,2.23,0,0,1-.94-0.65,7.24,7.24,0,0,1-5.13.88,4.06,4.06,0,0,1-2.18.77,3.1,3.1,0,0,1-2.18-.43,14.11,14.11,0,0,0-1.33,1.59,5.56,5.56,0,0,1-.48-3.49,5.9,5.9,0,0,0-2.13,1.62,4.4,4.4,0,0,1,.17-3.63A3,3,0,0,0,37,125.72a4.29,4.29,0,0,1,2.52-5.1,4.05,4.05,0,0,1,2.49-1.16,3.35,3.35,0,0,1,2.21,1.08c2.89,0.26,4.62-.6,5.7-3a23.25,23.25,0,0,0,1.13-3.94,27.06,27.06,0,0,1,2.18-5.41,2.54,2.54,0,0,0,.23-0.65,4.5,4.5,0,0,1-3.12-2.15,2.32,2.32,0,0,1-1.5,1.53c-0.28.71-1.22,0.88-1.3,1.81l-0.51-.31c-0.51.94-1.64,1.5-1.53,2.86A4.08,4.08,0,0,1,44,110.13a2.13,2.13,0,0,1-2.35-1,3.79,3.79,0,0,1-1.81,1.16c0.28-1.08-.43-1.76-0.71-2.69a2.82,2.82,0,0,1-1,.57,2.14,2.14,0,0,0-.43-1.33,2.89,2.89,0,0,1-.88,1c0-1.7-1.5-3-1.59-4.76a3.9,3.9,0,0,1-1.13.48c0.48-1.16,0-2.41.06-3.69a3,3,0,0,1-.6-1.67,7.23,7.23,0,0,1-.4-3.71,7.29,7.29,0,0,1-1-1.11,2.45,2.45,0,0,1-2.61-2.95,4.67,4.67,0,0,1,.54-4.14,3,3,0,0,0,.6,1.16,1.15,1.15,0,0,1,.71-0.54A5.19,5.19,0,0,1,31.07,84c-1.87-.77-1.87-3.91-0.88-5.19a4.37,4.37,0,0,0-1.93-1.93c1.47-1.25,3.4-.88,4.73,1a2.72,2.72,0,0,1,1-.82A3.53,3.53,0,0,0,32.88,75c2.32-.14,3.29,1,4.22,3.32a4.41,4.41,0,0,1,.43.17,10.18,10.18,0,0,0-.26-2.3l0.57,0.11a5.79,5.79,0,0,1,2.32,3.77,3.12,3.12,0,0,1,1.08,2.86,3,3,0,0,1-1.62,2.81,2.77,2.77,0,0,0-.77,1.84,2.36,2.36,0,0,0,.26,1.53c0.4,0.62,1,1.11,1.39,1.79a17.27,17.27,0,0,1,1.13,2.3,18.37,18.37,0,0,0,1.3,2.58,5.94,5.94,0,0,1,2.3-2,3,3,0,0,1,.51-1,7.75,7.75,0,0,1,2.72-6.55c0.09-1.47,1.45-2.72,2.75-3.94a8.83,8.83,0,0,0,2.07-2.35h0.09Zm25.68,41.36A5.78,5.78,0,0,1,78,122l-0.28-.23a6.77,6.77,0,0,0,1.25-.68l0.14,0.2v0ZM46.69,70a5.81,5.81,0,0,0-.45,1.16,1.42,1.42,0,0,1,.34-0.06l0-.14,0.06,0.11a5.72,5.72,0,0,1,4.48.88,3.56,3.56,0,0,0-1.39-2.21,8.9,8.9,0,0,1-3.09.26h0Z" style="fill: #fc0"/>
  </g>
</svg>
