<?xml version="1.0" encoding="UTF-8" standalone="no"?>
<svg
    xmlns:dc="http://purl.org/dc/elements/1.1/"
    xmlns:cc="http://creativecommons.org/ns#"
    xmlns:rdf="http://www.w3.org/1999/02/22-rdf-syntax-ns#"
    xmlns:svg="http://www.w3.org/2000/svg"
    xmlns="http://www.w3.org/2000/svg"
    version="1.1"
    style="fill-rule:evenodd"
    preserveAspectRatio="none"
    viewBox="0 0 620 300"
    id="header-body">
<defs
    id="header-body_defs" />
<g
    id="header-body_g"
    transform="matrix(2.974470714e-4,0,0,2.989284615e-4,-138.490022,-179.3573742)">
<path
    id="header-body_path"
    class="fil0"
    d="m 2537545,744823 c -1308,38166 -6033,100510 -3874,136908 732,-4766 2451,-27012 4293,-28903 2515,-1210 4007,-24692 4293,-28903 l 786,-12169 c 19,-14820 -554,-34108 533,-48623 333,1467 243,13680 252,15156 76,24839 0,49701 -314,74539 42,12102 287,46631 628,45636 350,-1405 376,-624 419,0 l 314,3803 c -1,9675 37,19236 -471,28903 -752,16876 464,30897 523,47157 -1417,-1650 -313,1585 157,3042 13168,116887 -4240,479225 -4652,607383 -21,1674 -285,2963 -913,4513 -648,1471 -1332,2495 -2447,3652 -1162,1141 -2201,1845 -3690,2506 -1557,636 -2816,897 -4499,929 -77448,-177 -154894,-260 -232342,-266 6114,-66 12765,16 18872,-334 -7360,-1425 -52715,-989 -63748,-1237 -27372,-659 -54768,-1460 -82144,-1833 2028,-70 6085,-209 6085,-209 -9381,-17 -28143,-52 -28143,-52 1522,-35 4564,-105 4564,-105 -9381,-52 -28142,-157 -28142,-157 18001,-227 54003,-681 54002,-681 -8873,-70 -26621,-209 -26621,-209 -10613,179 -21377,821 -31945,838 8862,-360 26628,-838 26621,-838 -21225,-39 -48500,-925 -68454,419 10395,227 31185,680 31185,680 -5534,71 -11195,-99 -7606,210 -202,11 32819,365 32706,366 14452,285 43354,838 43354,838 -79357,-10 -238068,-995 -238067,-995 -4794,-51 -51723,-561 -51721,-366 -583,273 12537,630 14451,680 l -757,-52 c 5033,122 13258,6 18223,581 -8290,552 -21824,-70 -30396,-476 -5801,-5 -3618,-9 -1521,-53 -11410,-647 -34227,-1989 -34227,-1989 41077,296 123217,1570 123217,1570 2344,-385 -10798,-659 -12930,-732 12171,197 36509,52 36508,52 -8091,-129 -24339,-314 -24339,-314 -6338,0 -19015,0 -19015,0 -8111,-299 -24339,-471 -24339,-471 11663,-53 34988,-158 34988,-158 -11663,-69 -34988,-209 -34988,-209 -2407,-133 -12169,-105 -12169,-105 -12170,-38 -36509,-157 -36509,-157 -12490,-662 -25486,-755 -38030,-994 -19504,-276 -58579,-105 -58566,-105 12677,257 38030,838 38030,838 4563,69 13691,209 13691,209 -5477,17 -14204,-297 -19623,168 8609,490 18484,299 27229,355 11916,856 35748,2566 35748,2566 -5325,1 -15973,209 -15973,209 875,449 5088,618 10102,669 l -80077,-459 c 30560,686 59187,994 89751,837 26,90 4630,159 4563,157 -12423,78 -37269,262 -37269,262 5962,137 17764,358 18238,367 l -25083,-210 c -2341,29 -48824,245 -51588,953 26760,922 55089,379 82012,356 -36255,250 -108766,576 -108766,576 -9169,-141 -98118,-933 -98117,-785 -1,-182 -974327,2670 -974327,2670 0,0 -211169,541 -211169,294 -2114,-29 -3736,-355 -5696,-1142 -1899,-827 -3233,-1716 -4721,-3157 -1429,-1461 -2309,-2759 -3147,-4624 -828,-2005 -1169,-3641 -1205,-5812 1574,-561 -3996,-965630 -3947,-965630 46,-2714 448,-4767 1474,-7283 1036,-2350 2159,-4054 3952,-5898 1899,-1850 3538,-2975 5967,-4047 2468,-1005 4564,-1453 7233,-1492 l 18313,-125 c 92240,-628 184478,-1359 276716,-2174 -5472,-96 -16349,-459 -16722,-471 21144,241 41231,43 62358,-262 -8868,386 -26621,629 -26621,629 5071,43 15212,157 15212,157 16368,1816 52840,314 71496,314 -1774,70 -5324,209 -5324,209 l 24686,72 c 78091,228 195111,-6134 268382,-344 -26079,2301 -57782,2215 -83904,2942 -36911,-152 -75685,-1138 -109526,210 -26114,87 -78341,261 -78341,261 l 11745,60 c -2204,11 -4381,61 -6421,202 l -63129,-680 c 7658,1056 21354,960 33466,1204 15212,17 45636,52 45636,52 2889,78 13397,63 16264,563 -4194,239 -8762,22 -9419,275 -5578,139 -16733,419 -16733,419 -10395,-227 -31185,-681 -31185,-681 -1819,-7 -23435,95 -40524,47 l 62582,738 c -20030,-201 -60088,-471 -60087,-471 -31185,105 -93554,314 -93554,314 -11163,-107 -24003,126 -34987,-576 -4130,-51 -56285,-471 -56285,-471 1,334 -37269,524 -37269,524 9301,133 19168,-187 19776,314 4563,78 13691,209 13690,209 24144,807 48130,664 72257,1204 26328,235 56388,-240 78342,1466 1394,480 -25683,859 -29664,943 7916,-38 15708,-346 23579,-419 5285,-73 3934,-40 3042,-52 6295,-153 13714,113 17494,-472 7159,-166 14645,-423 21793,-355 -4931,160 -10011,143 -14948,198 4161,57 41833,314 41833,314 -1556,-157 -3336,-272 -5265,-354 14949,218 43295,197 43295,197 -5082,61 -14966,291 -15900,313 1359,-28 2970,2 2970,2 5530,72 25015,66 29902,1366 -2765,636 -8060,566 -10887,623 11916,39 35748,157 35748,157 -4057,105 -12170,314 -12170,314 -6510,31 -12477,-19 -19015,367 -10810,102 -21647,251 -32462,284 l -2285,-45 c 9766,-236 19676,-353 29423,-396 -16731,-311 -50199,-629 -50199,-629 -12405,-454 -37279,-680 -37269,-680 -5550,1369 -5695,1353 -5325,1361 -3043,-42 -9127,-157 -9127,-157 -18502,-346 -55523,-471 -55523,-471 4336,1956 51122,1295 65411,1466 9129,-209 27382,-157 27382,-157 -3550,-88 -10649,-262 -10649,-262 6086,-140 18255,-524 18255,-524 5625,153 11209,271 16775,364 -4294,23 -8353,130 -11958,365 9034,646 19571,549 28649,737 -1543,128 106,64 1521,53 7859,135 23579,418 23578,418 6085,-87 18255,-261 18255,-261 -5831,-140 -17494,-419 -17494,-419 2368,-47 24966,-470 25100,-576 4310,-87 12930,-262 12930,-262 -1495,-103 -4465,-257 -4561,-262 6844,67 20534,105 20533,105 -1521,698 -4563,2094 -4563,2094 9157,-186 35709,-50 34996,-1754 12426,214 25809,310 34308,-538 -3642,-695 -15969,-563 -20626,-692 22058,122 66172,367 66172,367 -2028,87 -6085,261 -6085,261 15134,768 31120,-82 46397,0 -3803,-87 -11409,-261 -11409,-261 4654,-658 -3608,-1191 -3043,-1152 -5324,244 -15972,733 -15972,733 -5578,-140 -16733,-419 -16733,-419 l -24222,115 c -847,4 -43973,290 -44549,140 19610,-276 39267,-332 58883,-465 -8874,-174 -26621,-471 -26621,-471 4699,-134 10585,-151 15212,-680 3784,29 40312,436 40312,314 3450,-488 -28207,-1007 -30424,-1047 15465,-471 46396,-1414 46396,-1414 5578,70 16733,209 16733,209 354,868 9623,554 14452,838 6592,140 19775,419 19775,419 19522,17 58566,52 58566,52 -21797,-554 -65411,-1570 -65411,-1570 -13945,-18 -41833,-53 -41833,-53 17738,-537 33983,-941 51721,-837 32198,-1222 96595,-3665 96595,-3665 11912,60 35749,209 35748,209 41307,231 82655,-513 123978,-157 26117,249 78343,1728 78342,1728 8370,74 25100,576 25099,576 58503,625 175754,3718 175698,3717 -22054,51 -44095,-494 -66172,-524 -4899,-93 -12169,-209 -12169,-209 -5244,-158 -14708,-715 -11409,157 -6408,142 -20398,-200 -34227,-366 -27814,-468 -55211,-2131 -82905,-2356 3162,719 11474,710 18254,942 -13644,-244 -35830,-572 -50522,-784 15902,266 37839,832 34550,2093 4052,124 8116,196 12169,262 -15212,52 -45636,157 -45636,157 10902,70 32706,209 32706,209 18777,787 37130,958 55820,1482 -19231,895 -40993,473 -60384,717 10641,4 21314,255 31946,209 21803,12 43610,161 65411,-261 2641,-517 -21934,-612 -24339,-629 -17107,-616 -34740,-832 -51756,-1859 954,-257 25950,379 26656,393 -5040,238 -4716,251 -4563,262 15213,43 45635,262 45635,262 3896,46 17414,625 12170,-105 34110,2 67054,729 101159,1519 -6343,-41 -72256,142 -72256,157 -4971,-48 -10020,-282 -6846,52 -1521,0 -4564,0 -4563,0 5577,52 16733,157 16733,157 5831,35 17494,105 17493,105 56792,475 170374,1466 170374,1466 2852,691 11277,395 17494,366 5831,87 17494,262 17494,262 -14452,192 -43355,576 -43354,576 8873,52 26621,157 26620,157 10889,-130 21859,-817 32706,-838 -9107,411 -27393,891 -27381,890 16732,61 50199,-52 50199,-52 8558,1244 28244,914 38030,1099 19522,35 58566,105 58566,105 -7860,-192 -23579,-576 -23579,-576 -12481,141 -24976,322 -37458,394 166,-81 29519,-453 32895,-498 -16230,-296 -36269,427 -50200,-890 -10394,-245 -31184,-733 -31184,-733 2282,-1 6845,-105 6845,-105 -3655,-934 -22283,-268 -29663,-419 978,-103 -627,-55 -761,-52 l -28165,-895 c -15799,-502 -32173,-829 -47976,-1732 28076,-986 63140,1336 92114,1894 15534,-167 32323,-753 47811,-390 -6176,806 -21093,449 -28036,547 -5577,17 -16733,52 -16733,52 18001,140 54003,419 54003,419 2053,1 9887,52 9887,52 20028,95 60088,210 60088,210 19012,539 57045,1309 57044,1309 11663,69 34988,209 34988,209 -23072,70 -69215,209 -69214,209 l 11387,105 -1500,0 c 8113,52 24340,157 24339,157 4442,38 12976,51 14282,53 l -1351,0 c 27127,169 81384,261 81383,261 1372,450 41569,1191 55006,1449 -89,-12 -169,-24 -235,-36 13428,-46 26875,25 40304,53 -29912,-636 -89751,-1518 -89750,-1518 3755,-3 9382,202 3042,-314 -12930,-349 -38791,-1047 -38790,-1047 -22831,108 -45682,278 -68521,265 19775,-283 39604,-341 59393,-475 -2117,-44 -16386,-220 -18021,-697 6116,-966 34735,372 41600,540 -1521,0 -4564,0 -4564,0 l 6059,53 c -769,1 -2256,52 -2256,52 14666,227 32906,-24 40312,1256 3803,18 11409,53 11409,53 -1014,34 -3043,52 -3042,52 42087,721 84145,2142 126259,2775 3699,49 53426,966 54002,-838 941,-29 15888,-353 22057,-1047 34732,867 104214,3089 104202,3089 l -145695,2978 118129,0 c 28568,-1162 55855,-2446 74723,-2873 147,976 -1638,1948 -4527,2873 l 7516,0 0,61658 c 2691,-18800 8680,-61144 8478,-61158 -17,-1319 -199,-2287 -689,-3514 -499,-1148 -1036,-1967 -1905,-2870 -903,-886 -1695,-1434 -2851,-1952 -1223,-506 -2209,-715 -3533,-744 1312,20 2308,222 3525,714 1149,505 1954,1042 2858,1913 895,911 1443,1720 1963,2887 498,1217 702,2204 728,3519 3,1 -153,22355 -151,22078 l -210,99638 z M 1175752,622654 c -25349,-448 -49163,-876 -52936,-1011 7000,386 14143,720 21391,1011 l 31545,0 z m -483500,0 c 1164,-103 2308,-211 3417,-327 -54216,-1385 -109367,-1160 -163612,-1551 -875,91 396,132 761,157 l -47394,1721 206828,0 z m -208442,29085 c -346,33476 -897,90225 -1198,90216 -2321,90173 64,186471 1198,281548 l 0,-371764 z m 0,385221 c -336,17019 -727,38898 -727,38898 0,-8113 -52,-24339 -52,-24339 l -842,44806 c -1811,96319 -880,186625 580,282252 122,-17494 367,-52482 367,-52481 -150,-17106 -488,-34394 -438,-51482 250,13848 335,27742 490,41594 48,-7239 12,-71959 157,-72257 -1,-13438 105,-40312 105,-40312 87,-12930 262,-38791 262,-38791 24,-356 60,-812 98,-1282 l 0,-25286 -674,30371 c -47,6846 -53,20537 -53,20537 -471,-28675 -776,-56452 105,-85188 -61,6316 -406,14224 -51,20511 384,-2228 576,-6849 673,-11823 l 0,-75728 z m 0,448167 -98,8301 c -10,9844 -668,23527 0,32705 l 98,-1433 0,-39573 z m 0,66477 -98,390 c -131,2008 -512,3427 -1047,5324 308,7100 634,14199 994,21297 -14,623 -274,10139 -274,10139 0,134 17,238 67,363 49,119 106,208 194,301 97,96 172,150 295,208 129,54 229,79 369,83 2522,378 929,347 2,371 -65,2 -12,3 -2,3 2177,32 4392,3 6570,3 15344,-394 37890,-660 57502,-832 l -64572,0 0,-37650 z m 106633,37650 c 2740,197 8451,242 9203,256 -7859,134 -6197,153 -6085,157 1521,35 4564,105 4564,105 3549,48 10648,157 10648,157 -964,270 645,559 757,576 -5012,-257 -11485,-462 -18143,-624 -5396,207 -11430,46 -16841,48 12673,373 38030,890 38030,890 7609,-172 15045,-887 22818,-943 -254,0 -761,0 -761,0 1014,-52 3043,-157 3043,-157 12677,164 38030,576 38030,576 -3550,53 -10649,157 -10649,157 5831,18 17494,53 17494,53 7606,42 22818,104 22818,104 -6339,97 -19015,314 -19015,314 14740,246 36831,1402 50859,424 -9149,-628 -19613,-548 -28802,-738 2653,-20 20219,88 21117,-206 -9630,-828 -21300,-749 -31004,-998 l 449,-151 -108530,0 z m 350537,0 c 7337,246 14689,504 22232,675 l -2994,0 c 521,3 1473,52 1473,52 2267,93 8971,396 5324,-52 53011,-509 102933,2152 155162,2408 -4310,0 -12931,0 -12930,0 5324,92 15972,314 15972,314 507,-35 1522,-105 1521,-105 8841,34 17795,-98 26621,262 l -19775,0 c -3296,-17 -9888,-52 -9888,-52 -25354,-158 -76060,-367 -76060,-367 -43881,-745 -87684,-1615 -131583,-2146 l 9882,262 -755,0 22047,471 -750,0 c 4492,77 13406,256 13684,262 l -1515,0 c 2664,56 36773,579 38520,1116 -3432,434 -11276,112 -14941,88 43,-578 -15952,-211 -16733,-210 -18511,-302 -55524,-1309 -55524,-1309 -36509,-209 -109526,-628 -109526,-628 15465,349 46396,1047 46396,1047 21529,95 43146,-485 64651,-209 -18505,209 -55525,419 -55524,419 6822,157 21250,-2 28202,822 -32416,745 -66274,-538 -98937,-508 43444,3912 119881,816 174177,1256 23690,374 46430,84 69975,0 3265,50 41074,535 41072,314 4205,-227 3167,-255 3043,-261 13183,-35 39551,-105 39551,-105 7603,196 22818,419 22818,419 1973,-87 929,-146 760,-157 -2789,-105 -8367,-314 -8366,-314 4563,-18 13691,-53 13690,-53 22817,465 68454,1152 68454,1152 -1550,662 -333,790 0,838 -20029,-257 -60087,-890 -60087,-890 l 6841,209 -34223,-366 c 11916,261 35749,785 35749,785 l 21284,209 c -8625,-25 -25848,105 -25848,105 38692,4817 113098,2632 154401,2827 4430,-332 -45753,-1348 -50960,-1466 -10751,-1037 -25048,-1140 -37269,-1413 2789,-123 8367,-367 8367,-367 9372,238 25792,1272 34635,584 -6892,-828 -17712,-765 -24748,-1003 2282,-104 6846,-314 6846,-314 -8852,-279 -17769,-414 -26621,-209 -3494,-96 -10428,-257 -10644,-262 l 11404,0 -12874,-52 c 1794,-2 5268,-53 5268,-53 -4056,-61 -12169,-104 -12169,-104 -6085,-228 -18255,-629 -18255,-629 -15212,-244 -45636,-733 -45635,-733 1521,-69 4563,-209 4563,-209 2435,80 2336,92 2282,105 6010,-105 3889,-84 3042,-105 -1774,-17 -5324,-52 -5324,-52 27382,-314 82145,-943 82145,-943 22818,229 68454,471 68454,471 5206,10 66172,-306 66172,-209 l 39773,287 c 11161,81 80397,1855 91437,-5 -16137,-1401 -34150,-868 -50587,-1591 -447,-157 -244,-245 325,-308 l -124082,0 c 4525,112 9020,229 13470,361 -15211,-160 -45636,-315 -45636,-315 l -1360,-46 -339562,0 z m 1458822,0 c -17091,672 -43174,1722 -43174,1722 19776,-524 59327,-1571 59327,-1571 3308,-14 12971,-73 25332,-151 l -41485,0 z m 129530,-301038 c 119,-13230 203,-26187 203,-26187 1152,49946 3455,149838 3455,149838 -281,-16687 -298,-33509 -314,-50199 256,8985 312,18665 867,27624 174,-13621 -518,-28338 -814,-42076 70,-10902 209,-32705 209,-32705 -611,-22058 -1832,-66172 -1832,-66172 799,12268 1648,-1840 1466,760 -489,-10395 -1466,-31184 -1466,-31184 -243,7094 -262,21297 -262,21297 -384,-13691 -1152,-41073 -1152,-41073 -87,-26114 -262,-78341 -262,-78341 -32,5462 -66,12415 -98,19638 l 0,148780 z m -628299,308833 -3,0 3,0 z m -24889,1454 c 1039,11 2112,16 3197,18 l -3197,-18 z m 3197,18 c 5723,11 11774,-79 14843,-58 l 2281,157 -17124,-99 z m 17124,99 1,0 -1,0 z m -25115,1047 16,0 -16,0 z M 762529,601666 l -11,0 11,0 z m 150163,4248 6310,32 c -2061,-17 -4198,-42 -6310,-32 z m 6310,32 2431,13 c -794,-1 -1607,-6 -2431,-13 z m 2431,13 50,0 -50,0 z m -100597,1107 c -524,-28 -881,-59 -1038,-94 17152,-53 34332,35 51486,87 -39798,-824 -119414,-1938 -119414,-1938 12291,2273 47250,1610 68966,1945 z m 42140,3303 -295,-12 -525,0 820,12 z m -295,-12 c -7260,-296 -16558,-160 -24103,-209 -506,-35 -1521,-53 -1521,-53 6526,-169 25099,-419 25099,-419 9130,30 20607,561 24340,-104 -7101,-87 -21297,-157 -21297,-157 14798,-398 29294,-791 44115,-733 4812,47 52482,510 52481,366 -12240,-1097 -29783,-677 -44876,-995 11596,-302 21108,-289 32706,-52 -2267,107 2781,54 3043,52 7859,136 23578,419 23578,419 6085,-87 18255,-262 18254,-262 -6084,-139 -18254,-418 -18254,-418 -8366,-45 -25100,209 -25100,209 7099,-122 21297,-314 21297,-314 -8621,-148 -25860,-367 -25860,-367 22455,-229 45204,516 67693,733 3395,-60 39606,-993 41528,1104 -2851,1027 -11818,823 -14907,833 -12423,-17 -37270,-52 -37269,-52 11860,136 23733,-34 35564,109 -5088,228 -10685,148 -15789,205 3862,47 7764,60 11624,157 -7313,79 -14940,-138 -22272,-261 -42789,728 -86420,202 -129302,209 l -20772,0 z m 21776,3635 c -1163,3 -2326,6 -3488,6 2247,26 4494,49 6741,68 -1084,-26 -2169,-51 -3253,-74 z m -3488,6 -855,0 269,-7 586,7 z m -586,-7 1789,-44 c -3692,-67 -7347,-104 -10846,-85 3023,51 6041,93 9057,129 z m 7327,75 c 7926,69 15865,100 23885,113 -712,285 -110,436 0,576 -7602,105 -22818,209 -22818,209 7099,-108 21297,-314 21297,-314 -6578,-112 -14423,-389 -22364,-584 z m 59636,-411 -3,0 3,0 z m 50966,445 c -4,-9 -4,-17 -9,-26 -1242,-13 -2702,-31 -4264,-52 l 4273,78 z m -4273,-78 c -7215,-97 -16630,-255 -17019,-262 4637,12 10599,140 17019,262 z m -17019,-262 -13,0 13,0 z m 467715,-6712 -3004,-42 c 622,11 1657,25 3004,42 z m 578832,8492 22,0 -22,0 z m 37121,210 170,0 -170,0 z m 160080,2021 57621,649 c -11916,-262 -35749,-786 -35749,-786 -1921,-7 -11694,97 -21872,137 z m -94525,-3487 26,0 -26,0 z m -1516713,976221 4,0 -4,0 z m -31885,-900 c -10977,-183 -19832,-252 -19832,-252 6575,160 13217,183 19832,252 z m 555941,3203 -1521,0 c 507,0 1521,0 1521,0 z m -207649,-2303 5,0 -5,0 z m 21292,471 10,0 -10,0 z m 12934,262 6,0 -6,0 z m 196997,3036 4,0 -4,0 z m 22810,628 12,0 -12,0 z m 28159,-1518 -5,0 5,0 z m -1470,-52 -56,0 56,0 z"
    style="fill:#000000;fill-rule:nonzero" />
</g>
</svg>