<?xml version="1.0" encoding="UTF-8" standalone="no"?>
<svg
    xmlns:dc="http://purl.org/dc/elements/1.1/"
    xmlns:cc="http://creativecommons.org/ns#"
    xmlns:rdf="http://www.w3.org/1999/02/22-rdf-syntax-ns#"
    xmlns:svg="http://www.w3.org/2000/svg"
    xmlns="http://www.w3.org/2000/svg"
    version="1.1"
    style="fill-rule:evenodd"
    preserveAspectRatio="none"
    viewBox="0 0 400 280"
    id="pinnacle-slim">
<g
    id="pinnacle-slim-g1"
    transform="matrix(1.009761873,0,0,0.9562253687,-56.35985894,-47.32072482)">
<path
    d="m 56.811,168.65 0.086,0.003 c -0.091,7.503 -0.007,15.146 -0.002,22.608 -0.028,-6.03 -0.06,-15.109 -0.084,-22.611 l 0,0 z m 0.331,0.012 0.289,0.008 c -0.109,8.573 -0.157,16.948 -0.128,25.592 -0.02,0.009 -0.034,1.535 -0.034,1.501 -0.017,-4.085 -0.057,-12.254 -0.057,-12.254 -0.03,1.966 -0.078,5.862 -0.079,5.998 l 0.045,-8.249 c -0.008,-1.1 0.03,-7.903 -0.036,-12.596 l 0,0 z m 0.328,0.009 -0.078,20.624 c 0.026,-0.69 0.069,-1.235 0.138,-1.535 0,0 0.045,3.501 0.046,5.252 0,0 0.371,-7.836 0.557,-11.754 0.014,-2.925 -0.032,-6.052 0.077,-8.952 0.11,1.934 0.032,4.504 0.036,6.452 0,0 0.03,-3.001 0.046,-4.502 l 0.083,-5.569 c -0.301,-0.002 -0.603,-0.008 -0.905,-0.016 l 0,0 z m 1.014,0.016 c 0.74,0.004 1.479,-0.012 2.215,-0.056 l 0.365,-0.031 c 0.546,-1.452 1.695,-2.369 3.508,-3.202 0.755,-0.335 1.593,-0.607 2.04,-1.153 0.416,-0.599 0.589,-1.286 0.842,-1.917 l 2.236,-0.701 0.882,-0.179 1.005,-0.076 c 1.046,0.065 1.731,0.149 2.642,0.498 1.432,-0.943 3.052,-1.139 4.972,-0.842 1.417,0.37 2.264,0.83 3.165,1.632 0.252,0.251 0.479,0.5 0.693,0.767 2.147,0.214 4.353,0.238 6.524,0.245 2.337,-0.009 4.737,-0.037 7.056,-0.254 0.605,-0.765 1.177,-1.422 2.029,-2.082 l 0.825,-0.467 1.44,-0.448 2.013,-0.011 1.64,0.565 0.574,0.415 0.237,-0.213 1.294,-0.648 2.016,-0.266 1.772,0.372 0.999,0.516 c 0.417,0.328 0.743,0.614 1.057,0.988 0.377,0.499 0.673,1.025 1.073,1.515 l 1.678,0.428 c 0.22,0.859 0.396,1.727 0.711,2.574 0.089,0.206 0.177,0.412 0.326,0.605 0.283,0.04 0.571,0.057 0.865,0.075 1.8,0.083 3.574,0.116 5.365,0.28 0.937,-0.616 0.371,-1.876 0.098,-2.599 -0.843,-1.944 -1.996,-3.777 -2.573,-5.777 -0.142,-0.76 -0.177,-1.421 -0.115,-2.188 l 0.209,-0.789 0.389,-0.801 0.587,-0.78 0.787,-0.726 0.992,-0.738 c 0.431,-1.047 0.6,-2.064 0.707,-3.146 0.309,-5.215 -1.037,-10.398 -1.55,-15.589 -0.062,-0.772 -0.09,-1.535 -0.106,-2.308 0.312,-0.637 0.499,-0.91 0.341,-1.548 -0.206,-0.622 -0.557,-1.21 -0.875,-1.811 -0.654,-1.261 -0.967,-2.297 -0.754,-3.644 0.208,-0.636 0.463,-1.128 0.881,-1.718 l 1.072,-1.036 c 0.74,-0.532 1.492,-1.013 2.393,-1.426 0.405,-1.347 0.772,-2.714 1.877,-3.898 l 0.643,-0.498 1.316,-0.59 2.119,-0.193 c 0.579,-1.896 0.702,-3.831 0.681,-5.764 -0.049,-1.169 -0.105,-2.398 -0.497,-3.545 l -1.206,-0.351 -0.146,-1.475 c -0.177,-0.143 -0.348,-0.286 -0.517,-0.433 -1.919,-1.846 -1.416,-3.614 0.113,-5.483 l 1.201,-1.348 1.226,-0.164 c 0.306,-1.184 0.961,-2.032 2.249,-2.889 0.684,-0.357 1.28,-0.598 2.069,-0.844 1.222,-0.29 2.358,-0.448 3.654,-0.506 0.096,-0.239 0.147,-0.484 0.2,-0.728 0.254,-1.32 0.498,-2.868 2.077,-3.817 0.051,-0.439 -0.007,-0.71 -0.262,-1.106 -0.494,-0.749 -0.667,-1.299 -0.633,-2.134 l 0.206,-0.619 c 0.37,-0.562 0.698,-0.922 1.307,-1.386 1.144,-0.709 2.403,-1.195 3.764,-1.699 0.61,-2.195 0.871,-4.465 1.191,-6.684 0.301,-2.089 0.556,-4.192 1.014,-6.271 0.129,-0.502 0.353,-0.945 0.326,-1.452 -0.093,-1.225 -0.441,-2.432 -0.451,-3.659 0.074,-1.423 0.672,-2.631 1.942,-3.788 -0.785,-2.252 -1.707,-4.426 -0.885,-6.744 0.347,-0.709 0.736,-1.213 1.401,-1.817 l 0.566,-0.402 c 0.126,-0.435 0.303,-0.834 0.531,-1.217 h 11.721 c 1.332,1.496 2.065,3.089 2.471,4.854 0.158,1.013 0.145,1.92 0.068,2.938 -0.282,0.394 -0.598,0.786 -0.831,1.194 1.912,0.845 2.921,1.969 3.443,3.439 l 0.335,1.459 c -0.536,0.512 -1.079,0.916 -1.366,1.498 -0.175,0.459 -0.265,0.902 -0.335,1.373 -0.383,4.027 1.015,8.023 1.296,12.033 0.011,0.476 0.509,0.849 0.937,1.215 0.66,0.537 1.36,1.04 2.002,1.583 1.541,1.377 2.268,2.704 2.518,4.412 l 0.061,0.733 c -0.163,0.523 -0.368,1.069 -0.436,1.604 1.46,0.628 2.545,1.335 3.563,2.275 l 0.988,1.007 c -0.015,0.564 -0.009,1.129 -0.067,1.692 l 0.83,0.004 1.018,0.144 c 0.873,0.231 1.491,0.457 2.245,0.825 l 1.081,0.698 c 1.758,1.446 2.64,2.956 3.128,4.772 l 0.166,1.189 c 0.02,1.144 -0.109,2.266 -0.62,3.366 0.129,3.743 0.37,7.515 0.909,11.243 l 1.893,0.496 1.07,0.744 0.485,0.021 1.398,0.418 0.945,0.6 c 0.524,0.56 0.816,0.97 1.022,1.606 0.152,0.618 0.166,1.292 0.448,1.889 l 1.071,0.447 0.905,0.548 0.711,0.616 0.882,1.278 0.384,1.228 c 0.263,2.058 -0.261,4 -0.826,6.014 -0.18,0.642 -0.364,1.281 -0.495,1.928 l 0.61,0.257 c -0.19,3.225 -0.482,6.45 -0.587,9.676 -0.052,2.469 -0.061,5.005 0.678,7.433 l 0.647,0.519 0.649,0.742 0.745,1.519 c 0.204,0.991 0.218,1.853 0.1,2.846 -0.356,1.948 -1.061,3.845 -1.534,5.78 -0.322,1.576 -0.62,3.252 0.805,4.635 l 0.552,0.388 c 5.629,0.257 11.329,0.71 16.872,1.383 1.981,0.259 4.05,0.513 5.813,1.188 7.691,0.926 15.381,1.978 22.991,3.15 2.57,0.406 5.236,0.787 7.683,1.453 2.307,0.092 4.542,0.39 6.779,0.754 6.433,1.117 12.642,2.782 18.678,4.618 0.332,-0.032 0.32,-0.055 0.486,-0.242 0.477,-0.578 0.863,-1.192 1.323,-1.777 l 1.124,-1.357 c 1.123,-0.116 2.274,-0.201 3.378,-0.394 0.924,-0.171 1.803,-0.429 2.699,-0.657 l 0.859,-0.532 1.125,-0.493 2.352,-0.652 c 1.71,-0.299 3.301,-0.458 5.061,-0.56 6.607,-0.205 13.181,0.405 19.638,1.295 2.71,0.402 5.406,0.83 7.978,1.532 l 2.368,0.771 c 0.398,1.384 0.858,2.734 1.092,4.137 l 0.046,0.277 4.1,-0.954 c -0.118,-1.295 -0.316,-2.562 -0.565,-3.853 0.237,-0.625 0.372,-1.145 0.467,-1.787 l 119.816,-2.96 -60.854,3.251 c -0.028,1.495 -41.136,2.798 -38.891,3.459 6.65,1.958 36.198,1.935 36.198,1.935 53.969,-0.769 3.769,2.769 3.769,2.769 -16.896,0.969 -1.519,0.042 -1.519,15.237 v -0.393 c -0.029,6.964 -0.047,19.367 -0.054,24.469 -1.917,17.972 -3.23,31.913 -3.23,31.913 l -1.356,34.468 -0.977,0.405 0.702,-7.092 c 0.378,-7.613 1.131,-22.838 1.131,-22.833 -0.922,9.861 -1.81,19.994 -2.544,30.212 -6.43,2.548 -12.389,3.925 -17.319,2.768 -5.071,-1.187 -10.139,-2.409 -15.248,-3.521 -3.863,-0.475 -7.715,-1.184 -11.488,-1.909 -2.072,-0.409 -4.123,-0.841 -6.16,-1.318 -2.847,-0.692 -5.776,-1.423 -8.145,-2.71 -2.684,-0.486 -5.327,-1.111 -7.958,-1.714 -9.714,-2.253 -19.412,-4.6 -28.978,-7.114 -1.198,-0.322 -2.388,-0.657 -3.583,-0.985 -2.267,-0.706 -3.931,-1.736 -5.024,-3.237 l -5.31,-1.09 c 2.607,2.068 5.31,4.091 8.141,6.026 0.781,0.525 1.576,1.075 2.448,1.534 l 1.373,0.276 0.874,1.104 c 2.05,1.073 4.46,1.88 6.771,2.677 8.865,2.969 18.094,5.558 27.354,7.93 1.431,0.36 2.856,0.695 4.303,1.023 0.375,0.429 0.335,0.391 0.994,0.537 3.827,0.793 7.861,1.248 11.432,2.498 0.735,0.299 1.513,0.625 2.067,1.068 2.492,0.541 4.987,1.16 7.369,1.882 1.04,0.329 1.72,0.639 2.606,1.149 l 1.603,2.07 -1.877,1.516 c 4.174,1.322 8.374,2.601 12.618,3.824 2.53,0.715 5.07,1.428 7.683,1.999 1.723,-1.26 3.709,-1.809 6.259,-1.726 1.384,0.127 2.787,0.423 3.758,1.134 0.826,0.153 1.63,0.336 2.419,0.543 -0.562,10.764 -0.886,21.518 -0.828,32.048 -0.668,0.03 -1.332,0.053 -1.997,0.063 -1.32,-5.163 -2.569,-10.15 -2.638,-10.426 0.298,2.419 0.938,7.22 0.938,7.22 -2.3,-9.135 -6.892,-27.403 -6.892,-27.403 -0.247,-0.374 -0.691,-1.141 -0.691,-1.141 -1.004,5.814 -2.446,17.508 -2.446,17.505 -0.336,-2.79 -1.004,-8.373 -1.004,-8.373 -0.53,6.555 -0.942,14.717 -1.257,23.401 -4.512,0.488 -9.022,0.967 -13.611,0.951 l -7.154,1.238 -27.917,1.154 c -0.411,-0.102 -0.834,-0.18 -1.282,-0.242 -0.969,-0.447 -1.98,-0.778 -3.124,-1.051 -1.554,-0.365 -3.003,-0.519 -4.63,-0.53 l -4.551,-0.036 -0.01,0.036 c -2.71,-0.013 -5.423,-0.048 -8.12,-0.063 -8.597,-0.048 -17.198,-0.104 -25.796,-0.164 -5.532,-0.038 -11.063,-0.081 -16.595,-0.126 -0.432,-1.167 -0.869,-2.336 -1.3,-3.505 -0.369,-0.992 -1.066,-1.843 -2.09,-2.547 -0.953,-0.653 -2.047,-1.089 -3.301,-1.333 -1.192,-0.233 -2.382,-0.259 -3.593,-0.081 -1.221,0.181 -2.298,0.545 -3.28,1.107 l -2.563,1.47 c -2.569,1.348 -5.179,2.252 -8.198,2.912 -0.567,-0.015 -1.139,0.02 -1.703,0.101 -0.806,0.115 -1.574,0.311 -2.274,0.589 -2.33,0.27 -4.577,0.248 -6.973,0.121 -1.952,-0.103 -3.997,0.097 -5.644,0.799 -16.359,-0.118 -39.568,-0.041 -42.588,-0.06 -43.698,-0.298 -61.288,-0.379 -63.533,-0.399 -9.641,-0.104 -19.677,-0.39 -29.263,0.356 -0.382,0.03 -0.763,0.061 -1.145,0.092 v -0.068 c 0,-1.022 -1.024,-1.875 -2.357,-2.03 0.762,-2.472 1.537,-4.945 2.328,-7.416 0.952,-2.937 1.868,-5.903 3.127,-8.79 0.168,-0.33 0.375,-0.609 0.394,-0.951 0.357,-3.199 1.67,-6.393 3.041,-9.457 1.305,-2.811 2.736,-5.7 4.962,-8.256 0.275,-0.284 0.726,-0.626 0.913,-0.925 1.127,-1.529 2.646,-2.938 4.123,-4.323 2.715,-2.508 5.55,-5.04 8.72,-7.306 0.312,-0.213 0.707,-0.422 0.929,-0.68 1.662,-1.805 3.574,-3.523 5.44,-5.233 2.666,-2.42 5.357,-4.876 8.31,-7.146 0.325,-0.24 0.73,-0.463 0.975,-0.736 1.969,-2.015 4.274,-3.913 6.507,-5.796 3.417,-2.858 6.873,-5.833 10.668,-8.471 l -12.075,6.515 c -1.073,1.471 -2.613,2.781 -4.082,4.086 -4.551,3.994 -9.289,7.925 -14.168,11.746 -0.363,0.278 -0.398,0.306 -0.611,0.648 -2.583,3.414 -7.422,5.635 -10.965,8.552 -0.286,0.251 -0.595,0.512 -0.787,0.801 l -0.35,1.15 c -0.894,0.416 -1.634,0.727 -2.363,1.241 -2.241,1.725 -3.986,3.76 -5.611,5.755 -1.737,2.2 -3.452,4.508 -4.461,6.909 -0.225,0.628 -0.313,1.257 -0.432,1.899 l -0.892,0.475 c -0.941,1.205 -1.697,2.491 -2.471,3.747 -3.022,4.99 -5.894,10.056 -8.453,15.161 -0.512,1.045 -0.917,2.091 -1.34,3.157 l -0.934,0.096 c -0.249,0.419 -0.498,0.838 -0.769,1.255 -0.516,0.762 -1.065,1.431 -1.765,2.017 l -0.428,-10.822 c -0.041,-4.151 -0.1,-8.301 -0.178,-12.448 0.684,-0.974 1.375,-1.948 2.07,-2.919 0.696,-0.955 1.474,-1.881 2.101,-2.853 0.783,-1.131 1.662,-2.227 2.561,-3.322 1.81,-2.16 3.692,-4.309 5.733,-6.379 l -0.293,-1.222 -3.926,0.108 -0.014,-0.28 -4.367,-0.161 c 0.394,-3.916 0.904,-7.833 1.199,-11.75 0.182,-2.835 0.283,-5.677 -0.259,-8.495 l -0.154,-0.623 c -2.031,-0.243 -4.125,-0.532 -6.062,-1.044 -0.593,-14.142 -1.214,-28.279 -1.856,-42.415 0.028,-2.678 0.068,-7.957 0.068,-7.957 0,-2.084 0,-6.252 0,-6.252 0.065,-2.667 0.102,-8.003 0.102,-8.003 0.011,3.835 0.034,11.504 0.034,11.504 0.015,-3.835 0.045,-11.504 0.045,-11.504 0.029,-0.793 0.023,-4.001 0.023,-4.001 0.008,-4.001 0.034,-12.004 0.034,-12.004 0.179,-4.12 0.216,-12.535 0.216,-12.504 0.03,-3.279 0.034,-8.248 0.032,-12.316 l 0,0 z m 332.512,49.337 c 0.084,-3.624 0.366,-9.879 0.103,-12.958 -0.175,1.144 -0.134,4.702 -0.152,5.951 -0.125,-27.444 -0.142,-21.871 -0.045,3.001 l -0.104,5.848 0.178,-1.655 0.006,-0.942 v 0.893 l 0.014,-0.138 0,0 z m -333.068,13.688 -0.227,-4.989 c 0.033,-8.95 0.057,-14.955 0.057,-14.955 0.011,-1.577 0.122,-17.006 0.08,-17.005 -0.09,-0.063 -0.135,4.025 -0.148,4.752 l 0.011,-0.248 c -0.029,1.801 0.01,4.206 -0.126,5.991 -0.13,-2.976 0.008,-6.964 0.103,-9.994 0.002,-1.904 0.002,-1.193 0.012,-0.5 0.14,-3.751 0.432,-11.253 0.432,-11.253 -0.064,13.505 -0.341,40.512 -0.341,40.512 0.138,0.46 0.137,-3.29 0.159,-4.251 -0.041,3.795 -0.015,11.194 -0.012,11.94 l 0,0 z m -0.227,-32.446 v -0.002 0.002 l 0,0 z m -0.309,-9.971 c -0.048,1.298 -0.035,3.109 -0.018,4.774 l 0.018,-4.774 0,0 z m -0.018,4.774 -0.014,3.693 0.034,-0.749 c 0.003,-0.785 -0.009,-1.831 -0.02,-2.944 l 0,0 z m -0.014,3.693 v 0.001 -0.001 l 0,0 z m -0.227,-8.255 v 0.004 -0.004 l 0,0 z m 326.47,115.612 0.819,23.496 0.902,-22.992 c -0.565,-0.179 -1.14,-0.348 -1.721,-0.504 l 0,0 z m -5.761,21.605 v -0.012 0.012 z"
    id="pinnacle-slim-path1"
    style="fill:#FFFFFF" />
<g id="pinnacle-slim-g2">
<path 
    d="m 90.7021295,338.2145487 c -0.934,-0.019 -3.64543776,-0.037 -4.56743776,-0.055 C 89.50124619,330.1154108 94.78333663,306.9129826 100.465,302.317 c 0.461,-1.57 10.644,-11.137 12.495,-11.958 0.095,-0.719 12.416,-12.692 13.636,-13.096 1.051,-1.713 15.696,-14.565 16.347,-14.565 1.161,-1.613 24.221,-14.047 25.767,-14.219 0.324,-1.238 15.029,-6.8 10.891,-3.804 -3.604,1.268 -16.861,7.794 -18.729,10.214 -3.682,1.96 -8.221,3.775 -11.446,6.038 -4.175,0.964 -14.685,9.681 -16.288,13.11 -3.203,1.298 -11.995,9.826 -12.969,11.829 -1.123,0 -2.764,2.837 -4.062,3.183 -0.402,0.994 -12.282,14.853 -14.037,15.345 -4.69477999,10.6858254 -8.82759858,22.3988752 -11.3678705,33.8205487 z M 56.697,226.73 c 0.033,-8.954 0.057,-14.962 0.057,-14.962 0.011,-1.577 0.122,-17.006 0.08,-17.005 -0.09,-0.063 -0.135,4.025 -0.148,4.752 l 0.011,-0.248 c -0.029,1.801 0.01,4.206 -0.126,5.991 -0.13,-2.976 0.008,-6.964 0.103,-9.994 0.002,-1.904 0.002,-1.193 0.012,-0.5 0.092,-2.461 0.249,-6.535 0.346,-9.048 l 0.074,-0.051 c -0.08,14.021 -0.329,38.358 -0.329,38.358 0.138,0.46 0.137,-3.29 0.159,-4.251 -0.029,2.744 -0.024,7.371 -0.017,10.007 l -0.083,-0.019 z m 0.246,3.052 c 3.031,0.712 7.596,2.862 8.413,4.046 1.239,0.46 -5.818,9.94 -7.078,6.424 -0.375,-0.125 -0.701,-0.221 -0.982,-0.291 l 0.083,1.819 c 1.107,0.727 2.442,1.217 2.788,0.505 1.527,0.085 11.253,7.16 4.634,6.67 0.916,2.55 -0.477,3.113 -3.564,2.032 -0.6,-0.636 -2.117,-2.675 -3.633,-4.135 l 0.137,3.127 c 0.439,0.816 0.985,1.62 2.331,2.044 0.304,1.687 5.208,3.904 6.313,6.368 7.228,4.091 -6.581,0.735 -6.827,0.923 2.822,2.593 9.229,2.089 12.855,3.889 -0.4,3.356 -1.45,1.959 -6.104,1.959 -9.994,-2.132 -3.491,-0.144 -3.051,1.643 -1.311,0.374 -3.114,-0.292 -4.838,-1.172 l 0.177,4.131 3.8,-1.435 c 2.637,0.775 5.036,1.359 6.181,1.588 1.087,1.988 7.859,2.592 10.452,2.91 2.384,4.711 0.725,15.388 0.248,20.704 0.763,0.042 3.777,-0.26 3.7,0.172 3.796,0.532 -0.759,-19.825 2.71,-21.034 1.697,0.115 1.621,15.372 1.621,16.827 0,0 -1.163,4.192 -0.993,4.668 0.954,-0.158 4.123,-2.81 4.141,-3.386 -2.881,-3.442 -1.642,-15.459 -0.649,-17.85 1.677,-0.216 1.012,15.92 0.972,16.928 2.193,-0.432 1.315,-16.353 2.23,-18.527 3.911,-0.591 1.392,13.714 0.324,16.294 2.938,-0.548 5.323,-4.28 7.098,-5.864 0.878,-21.225 22.678,-15.24 24.68,-24.463 1.982,-0.202 6.943,-20.256 7.494,-23.181 0.458,-0.172 2.652,-4.005 2.975,-4.64 3.471,-2.29 -0.724,-16.394 -2.859,-16.149 -1.545,4.566 -6.542,8.485 -10.644,12.361 -1.676,0.231 2.845,-5.748 3.242,-6.729 2.404,-0.158 1.719,-6.483 2.176,-7.534 4.825,-2.84 7.323,5.129 3.395,-3.775 0,-1.254 -0.172,-1.355 -0.172,-4.236 3.205,-1.887 -8.163,-13.874 -9.27,-15.82 -1.562,-0.49 -7.17,-2.189 -7.667,-3.026 -5.131,-1.382 -4.329,-8.961 -13.026,-6.007 -5.702,-0.532 -6.713,-3.861 -12.99,-1.108 -5.036,-0.504 -6.942,-1.297 -11.557,1.454 -1.718,4.279 -6.598,1.066 -8.928,2.378 -1.388,-0.75 -6.21,1.726 -9.871,4.174 -0.031,2.661 -0.086,5.928 -0.178,8.052 0,0 -0.026,8.003 -0.034,12.004 0,0 0.006,3.208 -0.023,4.001 0,0 -0.03,7.669 -0.045,11.504 0,0 -0.023,-7.669 -0.034,-11.504 0,0 -0.038,5.335 -0.102,8.003 0,0 0,4.168 0,6.252 -0.002,10e-4 -0.027,3.306 -0.051,6.012 z m 0.496,-47.491 c 2.599,-0.993 7.576,-3.421 8.45,-3.729 0.629,0 5.13,0.202 5.13,-0.345 2.174,0.317 4.295,-2.594 6.582,-2.839 3.908,-2.551 5.643,-0.316 10.852,-0.316 6.008,-1.427 11.12,0.275 17.833,0 1.754,1.066 7.665,6.296 9.136,6.354 2.27,3.443 15.905,-3.558 20.731,-0.275 2.46,0.275 10.661,0.88 11.806,1.888 2.575,0.504 5.856,4.177 8.125,4.452 2.404,2.478 3.587,3.904 7.078,5.964 2.936,3.615 3.795,7.146 3.507,11.901 2.654,4.35 0.784,11.208 3.301,14.147 1.068,5.849 -3.186,8.674 -3.033,14.724 -3.776,0.403 2.613,5.288 2.746,5.691 3.892,1.081 -0.628,4.711 2.423,5.69 3.184,0 1.963,-6.296 2.231,-7.968 6.848,-3.356 7.706,-3.761 11.883,-9.09 5.016,-1.888 4.73,-12.231 4.062,-16.076 -1.812,-1.369 -0.667,-9.322 -0.704,-10.806 -2.005,-0.216 -4.428,-10.819 -5.762,-12.779 -5.018,-1.34 -4.616,-5.447 -11.824,-4.539 -8.795,-2.145 -8.489,-1.67 -15.851,1.73 -4.252,0.158 0.82,-2.925 2.214,-3.357 3.927,-3.774 1.928,-20.214 1.928,-25.616 0.799,-7.089 0.666,-2.867 4.404,-4.25 1.621,0.519 1.069,23.396 1.679,27.56 4.652,0 -2.499,-26.581 2.995,-28.035 4.081,0.503 -0.842,28.756 3.031,29.059 0.324,-2.55 0.954,-4.769 1.621,-6.829 7.19,-1.587 1.754,7.275 4.425,7.607 0.631,1.468 4.179,3.746 6.657,3.962 -0.056,-1.585 0.135,-2.926 0.211,-4.323 -6.084,-1.182 -6.886,0.374 -5.684,-5.878 7.456,-0.791 14.265,-1.066 22.79,-0.446 1.507,-1.47 45.489,5.417 45.719,6.482 1.927,-0.418 17.643,3.788 21.036,5.029 8.68,0.648 17.948,7.102 26.856,8.24 0,-1.166 -9.555,-3.644 -10.986,-4.855 -11.214,-4.235 -23.782,-8.139 -36.217,-9.567 -0.079,-0.446 -30.957,-5.662 -34.236,-5.617 -11.026,-2.624 -25.215,0.202 -35.458,-2.119 0,-2.68 40.167,0.245 45.907,2.406 11.617,0.461 22.927,4.106 34.332,5.604 2.86,1.109 19.815,4.307 20.904,6.152 6.028,0.966 14.4,6.265 19.97,6.265 1.201,2.609 -0.077,5.433 -3.376,6.902 -1.163,1.239 0.114,16.179 0.572,19.983 -1.945,5.142 15.01,-1.585 15.678,-2.753 10.09,-2.347 6.619,-4.682 6.006,-12.043 -2.822,-6.166 2.061,-20.631 -2.669,-24.046 -0.323,-2.522 -0.494,-2.623 -0.763,-3.632 -3.739,-1.469 -27.923,-4.912 -30.993,-0.936 -2.345,0.607 -3.165,0.995 -5.57,1.255 -1.544,1.959 -1.62,3.645 -5.854,3.645 -6.163,-2.045 -17.414,-5.433 -24.071,-5.433 -0.514,-0.893 -28.742,-4.753 -29.123,-4.738 -0.212,-1.139 -18.367,-2.449 -20.79,-2.449 -9.384,-4.424 1.867,-14.68 -3.835,-17.65 -1.753,-4.235 -0.801,-12.229 -0.553,-17.085 -2.382,-0.678 3.912,-10.403 -1.296,-11.454 -2.976,-1.455 -0.935,-5.431 -3.261,-3.789 -1.432,3.487 -0.707,-5.547 -3.587,0.663 -1.888,0 -2.402,-16.207 -2.402,-16.568 2.536,-5.274 -3.738,-10.315 -4.635,-6.757 -4.921,-0.086 -2.613,-1.384 -2.613,-4.782 -2.613,-3.026 -5.303,-1.066 -3.834,-5.864 -0.173,-3.601 -3.433,-3.846 -5.111,-6.916 0.191,-3.558 -3.089,-13.427 0.191,-16.38 -0.536,-3.342 -5.837,-1.311 -2.518,-6.108 0.334,-2.996 -1.636,-6.27 -3.531,-7.122 l -1.695,0 c -0.631,0.368 -1.137,1.237 -1.374,2.771 -3.644,1.051 -0.858,5.777 -0.439,8.14 -3.451,2.608 -1.524,3.615 -1.638,7.664 -0.746,0.072 -1.68,13.571 -2.938,15.272 -8.185,3.083 -1.965,1.484 -3.872,6.771 -2.632,0.273 -0.229,4.625 -4.254,5.548 -7.916,0 -2.746,3.615 -7.438,4.149 -2.632,3.055 0.667,2.808 0.667,4.567 2.709,0.289 2.461,17.936 -2.842,14.695 -0.762,-2.147 -1.85,3.285 -2.059,3.573 -7.973,3.299 -0.326,5.921 -2.423,9.942 0,5.661 3.451,17.475 0.173,22.431 -7.116,3.298 6.846,11.886 -2.537,15.43 -6.81,-1.023 -9.807,0.923 -10.968,-4.407 -2.442,-0.505 -2.747,-5.851 -3.949,-0.981 -6.542,2.378 -3.051,-5.992 -7.457,0.661 -1.946,0.779 -16.479,0.967 -18.062,-0.158 -1.182,-2.608 -3.434,-2.809 -3.434,0.288 -3.51,2.65 -2.252,-2.738 -5.072,-1.628 -1.28,3.862 -5.667,2.695 -5.573,5.792 -1.31,2.567 -12.644,0.68 -17.637,0.829 -10e-4,3.566 -0.008,7.449 -0.034,10.174 z m -0.1,-11.451 -0.051,3.416 c -0.016,1.501 -0.046,4.502 -0.046,4.502 -0.004,-1.948 0.073,-4.518 -0.036,-6.452 -0.109,2.9 -0.064,6.027 -0.077,8.952 l -0.056,1.168 c -0.255,0.092 -0.477,0.164 -0.66,0.213 l 0.044,-11.733 c 0.262,-0.033 0.558,-0.054 0.882,-0.066 z m -0.425,14.955 c -0.175,0.121 -0.346,0.24 -0.513,0.359 l -0.012,3.141 c 0.026,-0.69 0.069,-1.235 0.138,-1.535 0,0 0.045,3.501 0.046,5.252 z M 56.4,170.915 c -0.046,3.935 -0.078,7.837 -0.095,11.752 -0.05,0.012 -0.096,0.021 -0.139,0.029 l 0.008,-1.437 c -0.007,-0.931 0.019,-5.942 -0.013,-10.306 0.076,-0.014 0.156,-0.027 0.239,-0.038 z m -0.106,15.315 c -0.005,2.661 -0.004,5.333 0.006,8.032 -0.02,0.009 -0.034,1.535 -0.034,1.501 -0.011,-2.561 -0.03,-6.729 -0.043,-9.481 z m -0.125,0.089 -0.04,3.188 0.017,-3.171 z M 55.87,171.016 c -0.025,3.316 -0.021,6.653 -0.011,9.983 l -0.01,-0.16 -0.034,-9.807 z m 0.009,15.514 c 0.006,1.583 0.01,3.161 0.011,4.731 l -0.02,-4.724 z m 0.818,12.736 0,-0.002 z m -0.309,-9.971 -0.018,4.774 c -0.017,-1.665 -0.03,-3.476 0.018,-4.774 z m -0.018,4.774 c 0.011,1.112 0.023,2.159 0.02,2.944 l -0.034,0.749 z m -0.014,3.693 0,0.001 z m -0.227,-8.255 0,0.004 z m 223.51,57.69 c 0.743,-2.19 11.672,-8.645 9.268,-5.763 -0.266,1.124 -7.418,5.505 -9.268,5.763 z m -3.415,8.141 c -0.629,-1.182 7.972,-5.375 9.364,-5.591 0,1.341 -7.876,5.043 -9.364,5.591 z m 3.832,3.515 c 0.725,-1.24 2.214,-2.911 3.702,-2.78 0,1.353 -1.946,2.449 -3.702,2.78 z m 16.825,5.272 c -0.955,-1.21 -2.594,1.009 -0.097,-2.133 2.899,-0.59 0.858,-1.915 0.858,-3.199 1.163,-0.82 2.156,0.447 3.28,0.447 4.959,-2.534 -3.585,4.684 -4.041,4.885 z m -5.972,-5.748 c 2.25,-1.022 7.077,-3.832 7.248,-5.59 -1.889,0.374 -8.315,4.597 -7.248,5.59 z m 0.86,-10.704 c -0.267,-0.807 7.132,-7.449 7.323,-4.41 -2.384,1.702 -4.789,3.834 -7.323,4.41 z m 9.153,-11.339 c 0.363,-1.598 6.98,-4.94 9.156,-5.431 -0.535,1.657 -7.113,5.173 -9.156,5.431 z m 4.254,8.299 c 0.936,-1.01 11.406,-7.175 8.318,-7.505 -0.173,-5.939 7.552,0.604 0.686,2.909 -0.134,0.461 -7.744,4.294 -9.004,4.596 z m 4.482,3.515 c -0.191,-1.844 10.89,-8.241 13.219,-8.888 1.85,0.547 -11.731,8.355 -13.219,8.888 z m -3.204,9.912 c 2.176,-0.347 11.785,-7.088 12.359,-8.789 -1.755,0.216 -12.932,7.68 -12.359,8.789 z m 5.532,9.106 c 0.878,-1.326 10.413,-8.097 12.436,-8.054 0,1.152 -10.567,7.824 -12.436,8.054 z m -3.396,-75.407 c -3.644,-1.325 -2.002,-11.222 0.897,-5.951 4.978,0.332 4.998,5.663 -0.897,5.951 z m 3.396,9.739 c -1.68,-2.117 -6.046,0.75 -4.883,-3.198 2.974,-0.374 -4.54,-3.833 4.254,-3.934 2.612,-2.246 2.192,6.614 0.629,7.132 z m -9.993,-10.705 c -3.472,-1.037 -3.759,-3.053 -3.492,-5.979 6.904,-1.842 5.933,0.923 5.397,5.504 -0.725,0.318 -0.725,0.318 -1.905,0.475 z m 5.528,21.726 c -0.343,-1.627 -1.849,-6.541 -0.457,-7.591 7.343,0 7.4,2.866 5.437,7.331 -3.472,0 -2.385,-0.647 -4.98,0.26 z m -18.729,-24.116 c -0.17,-0.059 -9.803,-4.482 -9.803,-4.482 2.823,0.044 11.768,-2.736 12.436,0.059 -2.384,1.715 2.347,4.105 -2.633,4.423 z m 4.254,2.55 c -0.685,-1.297 2.556,-12.75 -2.326,-10.792 -5.607,0 -12.686,2.061 -3.681,-0.95 2.041,0 4.387,-0.273 6.39,-0.965 2.63,0.2 2.116,12.274 -0.383,12.707 z m 7.02,22.057 c -1.241,-0.245 -1.545,-10.129 -0.687,-11.871 1.945,0 2.841,11.337 0.687,11.871 z m 0.227,7.189 c -0.972,-0.865 -0.552,-4.857 -0.514,-6.138 1.984,-2.348 2.059,6.138 0.514,6.138 z m -110.298,-68.39 c -1.907,-0.749 -5.723,-0.577 -5.97,-2.074 1.698,0.187 11.062,1.8 5.97,2.074 z m -9.154,-1.917 c -4.387,-0.893 -15.526,-1.757 -17.739,-3.313 -0.151,-1.773 -3.393,-25.961 2.195,-24.161 0.325,2.477 5.073,0.015 4.577,3.04 1.278,3.054 -2.86,5.574 -4.369,1.267 -1.314,0 1.222,16.526 -0.323,18.859 0.573,1.225 5.189,1.888 6.753,1.787 -2.136,-9.998 1.104,-4.668 -5.361,-5.777 0,-1.945 -2.077,-5.358 2.557,-5.358 6.98,3.66 -3.148,-15.877 4.349,-12.55 0.992,1.887 8.01,-0.461 8.01,1.614 1.011,-0.202 3.624,-2.075 4.463,-0.172 4.423,0 4.443,20.269 2.593,24.001 -3.298,0.303 -0.916,-7.233 -3.356,-5.474 -4.273,0.257 -3.415,7.706 -5.321,2.246 -0.647,-11.639 -0.402,1.024 -4.787,-3.284 -1.239,-5.143 -0.839,3.588 -1.488,5.202 0.535,0.043 10.068,1.368 7.247,2.073 z m 10.643,0 c -2.021,-6.742 -0.935,-15.457 -0.935,-22.432 4.844,-3.299 1.756,10.979 2.862,11.094 -0.136,2.32 1.162,11.051 -1.927,11.338 z m -31.93,-4.307 c -2.04,-1.541 -1.391,-23.498 -1.162,-24.031 4.71,-2.449 2.307,18.673 2.954,20.848 -0.856,1.296 0.747,2.895 -1.792,3.183 z m 28.953,-21.092 c -4.653,-1.167 -29.905,-3.27 -29.658,-6.425 2.575,-1.37 22.755,3.313 27.103,3.63 2.002,0.403 10.644,2.449 2.555,2.795 z m -6.389,-5.431 c -1.602,-0.303 -10.337,-1.383 -10.337,-1.93 0.114,0 11.842,1.165 10.337,1.93 z m -9.365,-3.2 c -6.713,-3.199 0.763,-6.9 1.906,-3.99 -4.253,0.505 2.233,3.213 -1.906,3.99 z m -4.042,-8.298 c -1.087,-6.064 2.078,-6.958 0.667,-0.128 -0.211,0.042 -0.438,0.086 -0.667,0.128 z m -8.946,5.432 c -0.534,-2.335 -0.534,-16.783 1.277,-17.1 -0.036,1.512 0.346,17.1 -1.277,17.1 z m 16.613,3.833 c -0.38,-3.833 3.262,-8.269 -5.742,-6.8 -2.04,0.706 -2.689,5.849 -2.689,0.691 4.37,-4.842 8.449,1.571 8.068,-7.794 -3.244,-4.092 -1.868,6.614 -3.624,3.012 0.096,-6.354 -4.632,-3.559 -4.632,-5.792 12.223,1.526 8.22,1.268 9.782,8.991 0.153,0.173 2.231,4.522 2.958,4.163 0,-7.433 2.803,-13.154 -8.47,-14.622 -0.915,-0.807 -4.596,-0.649 -5.988,-0.535 -1.221,1.932 1.239,16.411 -1.678,16.67 -2.613,-2.521 -1.506,-17.347 -0.649,-18.657 2.118,-1.066 18.387,2.953 18.826,3.314 1.068,2.608 1.753,23.786 -2.174,14.523 -2.939,0.543 -1.853,2.504 -3.988,2.836 z m -4.272,-21.885 c 0.074,-0.879 -0.325,-1.556 -0.325,-2.275 1.222,-1.715 2.366,1.455 0.325,2.275 z m -2.328,-0.806 c 0,-0.69 0,-1.383 0,-2.074 1.239,0 0.764,2.074 0,2.074 z m 4.881,0.964 c 0,-2.809 0.555,-2.824 0.859,0 -0.285,0 -0.572,0 -0.859,0 z m -7.227,-1.599 c 0.079,-1.21 0.534,-2.781 1.163,-0.734 -0.553,0.489 -0.553,0.489 -1.163,0.734 z m -2.135,-0.965 c 0,-0.361 0,-0.734 0,-1.109 0.208,0 0.419,0 0.647,0 0,0.36 0,0.734 0,1.109 -0.209,0 -0.42,0 -0.647,0 z m 8.087,-0.633 c -1.814,-1.542 -7.381,-1.628 -9.785,-1.757 0.402,-1.399 10.947,-0.778 10.72,1.657 -0.307,0.026 -0.612,0.056 -0.935,0.1 z m -18.311,-2.881 c 0,-1.658 13.426,-1.831 15.983,-0.721 -1.144,0.807 -8.372,-0.619 -11.711,0.635 -1.412,0.028 -2.842,0.055 -4.272,0.086 z m 14.476,-3.026 c 0.725,-3.472 1.641,-0.764 0.896,-0.129 -0.285,0.043 -0.59,0.084 -0.896,0.129 z m -1.907,-0.332 c -0.325,-1.109 -0.325,-1.109 -0.417,-2.867 2.477,-0.086 1.179,2.867 0.417,2.867 z m -4.043,0.965 c -0.628,-6.41 4.501,-1.858 1.183,-1.441 -0.498,0.722 -0.191,1.441 -1.183,1.441 z m -0.648,-4.796 c -1.125,-0.044 -5.132,0.1 -2.499,-0.766 0.783,-2.231 0.438,-13.843 1.755,-6.425 -2.25,3.416 1.467,10.69 1.697,1.599 -0.591,-5.777 1.699,-14.263 1.699,-3.039 1.486,2.91 3.108,8.415 -2.652,8.631 z m -12.131,25.398 c -0.265,-2.493 -0.095,-4.697 -0.095,-7.088 2.327,-1.627 1.602,6.829 0.095,7.088 z m 1.069,-10.213 c 0.725,-1.11 2.44,-1.24 4.12,-1.183 0,0.765 -3.376,1.11 -4.12,1.183 z m 4.463,15.328 c -0.076,-3.226 -1.507,-14.464 0.439,-15.256 0.133,-0.001 1.887,14.939 -0.439,15.256 z m -8.946,-4.941 c -0.097,-0.102 -0.21,-0.203 -0.325,-0.317 -1.602,-12.246 3.49,-0.952 0.325,0.317 z m -2.328,8.455 c -5.168,-4.565 7.039,-6.8 7.495,-4.35 2.099,0.446 2.099,3.687 0.878,2.767 0.421,-3.185 -4.728,-2.219 -7.324,-1.673 -0.666,0.924 0.211,2.94 -1.049,3.256 z m -2.344,4.165 c 0,-1.196 13.751,-4.553 15.753,-4.638 -0.287,0.877 -14.017,4.205 -15.753,4.638 z m -7.248,4.784 c 0,-0.879 20.256,-6.413 22.428,-6.296 0.077,0.403 -19.97,6.136 -22.428,6.296 z m 17.679,20.141 c -0.704,-0.75 -1.065,-22.665 -0.303,-23.239 1.79,0 0.991,23.122 0.303,23.239 z m -2.976,0.792 c -0.322,-7.292 -0.685,-14.782 -0.283,-21.927 1.888,0.056 1.62,21.927 0.283,21.927 z m -8.525,4.48 c -0.972,-3.847 -0.551,-9.264 0,-13.109 2.042,-0.001 0.935,13.109 0,13.109 z m 0,-13.902 c -0.475,-3.387 -0.551,-6.858 -0.513,-10.128 0.992,0 1.658,9.839 0.513,10.128 z m -2.974,15.012 c -0.171,-1.544 -0.476,-26.02 1.773,-25.14 0.248,4.335 0.039,25.14 -1.773,25.14 z m 30.859,36.102 c -4.025,-1.339 -12.281,-2.535 -2.536,-2.002 0.459,0.087 5.664,1.47 2.536,2.002 z m 1.068,9.28 c -0.343,-1.585 2.308,-3.804 4.197,-4.05 -4.253,-8.426 1.049,-1.887 2.536,1.341 -0.648,0.591 -0.705,1.18 -1.697,1.008 -0.572,-2.651 -3.567,1.052 -5.036,1.701 z m 3.625,4.148 c -2.938,-3.068 0.476,-9.364 1.372,-0.95 -0.286,0.691 -0.514,0.806 -1.372,0.95 z m -0.858,10.388 c 1.125,-4.279 9.824,-3.775 5.489,-9.234 -2.112,0.446 -1.542,2.246 -3.868,2.42 0,-0.791 5.053,-4.51 3.09,-5.1 -4.807,2.939 7.837,-8.269 0.933,-4.048 -3.471,4.551 0.63,-2.839 0.63,-3.675 -7.324,-7.361 3.319,-1.598 3.319,3.66 -0.628,0.13 -5.952,3.501 -1.926,3.415 2.344,-1.831 1.029,7.476 -0.21,9.839 -1.68,-0.129 -2.824,-1.672 -3.187,0 -1.581,0.187 -2.44,2.32 -4.27,2.723 z m 11.499,-3.515 c -1.448,-0.463 -1.545,-8.112 -0.723,-9.495 3.453,0 6.561,9.032 0.723,9.495 z m 1.069,10.386 c -4.101,-1.138 1.107,-8.629 -1.487,-8.629 0,2.09 -4.293,-1.613 2.118,0 0.724,2.132 4.481,8.14 -0.631,8.629 z m -7.667,3.833 c -0.42,-0.792 3.909,-3.341 0.629,-2.78 -3.527,3.631 -4.178,0.993 -0.478,-0.145 0.173,-0.649 4.082,-4.092 2.405,-3.861 -1.166,1.384 -5.075,3.92 -7.019,4.539 0.818,-1.744 6.122,-5.734 8.507,-6.066 0.781,2.492 2.269,6.713 -1.68,8.069 -0.934,0 -1.715,-0.131 -2.364,0.244 z m 0.858,9.897 c -4.367,-1.239 0.783,-3.803 2.346,-6.064 0.647,0 1.316,-4.956 3.873,-5.878 1.602,-3.055 6.54,-0.895 3.565,0.446 -0.247,1.873 -1.221,2.335 -1.907,4.15 -3.606,1.109 -2.06,6.727 -7.877,7.346 z m -7.667,0.807 c 1.201,-5.2 4.29,-0.835 -1.621,-1.426 1.316,-3.01 3.26,-0.245 3.49,-4.582 8.2,-3.515 6.713,-4.106 4.731,0.088 -6.219,2.088 -0.231,3.759 -6.6,5.92 z m 1.908,-61.2 c -1.051,-0.864 -4.006,-20.443 2.213,-17.318 -0.155,3.128 2.057,17.318 -2.213,17.318 z m 9.593,-2.71 c -2.71,-1.685 -4.29,-12.951 1.488,-14.06 -0.095,2.565 1.527,13.673 -1.488,14.06 z m 8.296,0.16 c -2.117,-0.431 -1.219,-11.584 -1.24,-13.471 -3.833,-1.008 0.324,11.209 -1.488,13.025 -5.587,1.397 -2.574,-10.749 -2.077,-13.385 -3.587,-2.361 -26.225,-3.039 -27.35,-6.454 2.689,-0.389 31.088,3.039 31.088,4.624 8.352,0.75 1.067,2.607 3.299,7.262 -0.248,2.305 0.954,8.009 -2.232,8.399 z m -57.275,-9.422 c 0.706,-1.413 22.354,-9.566 24.909,-9.437 -0.229,1.081 -21.344,8.962 -24.909,9.437 z m -0.42,-2.565 c -0.667,-1.268 22.315,-8.803 24.984,-8.687 0,0.561 -18.978,6.613 -19.452,6.713 -1.316,1.296 -3.569,1.773 -5.532,1.974 z m 18.522,25.414 c -1.85,-7.506 0.018,-18.326 0.305,-26.047 1.161,-4.178 0.57,11.539 0.857,11.986 -0.153,1.268 0.077,14.061 -1.162,14.061 z m -2.348,-19.493 c -0.706,-1.513 -0.228,-4.539 -0.326,-6.109 1.145,-5.358 2.901,6.109 0.326,6.109 z m -9.576,7.507 c -0.992,-3.328 0.039,-7.377 0.764,-10.776 1.144,-0.188 0.801,10.776 -0.764,10.776 z m -2.554,0.95 c -0.745,-1.138 -0.591,-11.323 1.165,-10.892 0.57,1.772 0.876,9.827 -1.165,10.892 z m -60.689,0.807 c -0.04,-0.432 -0.076,-0.864 -0.114,-1.311 1.124,-2.435 35.628,0.129 37.076,-2.435 1.374,-0.23 1.354,5.835 -0.591,1.902 -12.245,0.46 -24.928,0.028 -36.371,1.844 z m 1.506,8.629 c -4.043,-2.031 9.536,-3.212 4.062,-0.734 -1.715,0 -2.593,0.548 -4.062,0.734 z m 67.688,0.477 c -0.436,-2.148 -0.819,-3.833 -0.952,-5.893 -0.934,-1.657 -13.446,-0.561 -16.747,-1.225 -10.775,0 -15.256,0.518 -14.954,-0.778 1.966,-0.994 32.407,-0.116 33.073,0.447 0.096,0.72 0.345,7.261 -0.42,7.449 z m 3.205,0.158 c -0.115,-3.601 -1.298,-15.833 0.801,-17.937 0.076,0 0.973,15.689 -0.801,17.937 z m -46.632,3.197 c -3.567,-1.339 -7.44,-0.387 -10.225,-1.441 0.652,-2.751 -6.901,-1.151 -8.924,-1.051 -4.197,1.327 -0.476,-2.347 1.219,-2.233 2.728,-0.807 12.456,-2.118 12.876,1.167 1.774,0.793 7.286,-0.042 7.286,2.767 -0.724,0.778 -1.049,0.72 -2.232,0.791 z m -29.602,0.794 c -1.621,-0.518 1.565,-2.204 2.061,-2.463 3.319,-0.246 -0.02,2.276 -2.061,2.463 z m 4.062,1.6 c -0.341,-0.938 5.016,-3.906 4.751,-1.226 -0.819,0.562 -3.586,0.964 -4.751,1.226 z m 52.165,0.316 c 0.382,-1.225 2.117,-2.824 3.814,-3.026 -0.248,1.124 -2.44,2.71 -3.814,3.026 z m 2.766,1.44 c 0.346,-1.11 3.509,-4.783 1.907,-1.44 -1.165,0.389 -0.173,1.197 -1.907,1.44 z m -71.542,1.282 c -0.592,-2.506 9.096,-9.739 9.899,-3.976 -0.019,0.029 -8.699,3.761 -9.899,3.976 z m 72.59,1.282 c 0.25,-0.388 3.453,-5.099 3.721,-3.025 -0.954,1.038 -2.119,2.421 -3.721,3.025 z m -26.815,0 c -3.435,-1.093 -4.332,-3.903 -8.566,-4.409 -11.555,-4.696 7.821,-1.441 8.181,0.519 2.136,1.168 5.151,3.588 0.385,3.89 z m -42.59,2.233 c 0,-2.52 10.242,-8.125 10.357,-4.35 -0.267,0.519 -9.08,3.76 -10.357,4.35 z m 89.222,1.283 c -4.388,-2.766 -11.767,-10.388 -15.755,-3.041 -5.091,1.917 4.502,-3.732 0.763,-4.898 -0.209,-1.34 1.527,-1.095 3.034,-1.095 4.576,-1.095 17.278,8.617 11.958,9.034 z m -36.199,0.317 c -1.909,-1.6 -1.757,-4.553 -4.902,-5.432 -0.478,-0.82 -1.906,-1.512 -2.631,-2.19 0,-3.444 18.004,4.553 10.109,7.535 -0.861,0.029 -1.72,0.058 -2.576,0.087 z m -34.485,0.158 c -0.401,-1.211 6.6,-5.72 8.297,-5.921 -0.688,1.398 -6.295,5.676 -8.297,5.921 z m -5.112,0 c -0.782,-0.981 0.115,-5.431 1.907,-5.431 0.516,1.022 -0.78,4.495 -1.907,5.431 z m 32.349,0.158 c -1.927,-1.943 -4.77,-3.097 -0.556,-3.255 1.813,0.806 5.077,3.041 0.556,3.255 z m 29.389,0.478 c -0.493,-0.938 2.883,-2.711 3.186,-3.835 4.693,-1.771 -2.058,3.487 -3.186,3.835 z m -48.977,0.157 c 0.323,-2.004 4.655,-8.198 -1.049,-7.75 -1.679,0.85 -3.872,3.284 -5.76,3.284 0,-1.354 4.024,-2.694 4.692,-4.638 -6.638,-2.753 9.326,-1.746 8.296,4.148 -3.109,-0.302 -3.832,3.989 -6.179,4.956 z m -16.174,0.807 c -0.325,-1.024 0.514,-5.273 2.555,-5.273 0.115,1.325 -0.934,4.711 -2.555,5.273 z m -3.185,0.634 c -0.172,-1.816 0.533,-3.414 1.048,-5.114 2.71,-0.331 0.211,4.106 -1.048,5.114 z m 28.094,0.158 c -0.152,-1.153 1.012,-3.399 2.232,-3.861 2.919,-3.501 0.401,3.168 -2.232,3.861 z m -6.809,0.159 c 0.705,-1.557 2.996,-7.087 5.397,-6.771 -0.266,1.872 -2.823,6.411 -5.397,6.771 z m 47.051,0.806 c 0.4,-0.965 6.41,-6.396 7.669,-6.396 -0.324,1.498 -5.644,5.619 -7.669,6.396 z m -56.417,0.159 c -0.305,-0.936 5.303,-5.619 7.306,-5.503 0,2.261 -4.902,4.45 -7.306,5.503 z m 60.253,0.632 c -0.25,-1.872 2.765,-2.851 4.385,-4.219 3.358,0 -3.335,3.744 -4.385,4.219 z m -59.622,2.235 c 0.725,-1.7 4.061,-4.768 6.389,-4.625 -0.343,1.787 -4.16,4.337 -6.389,4.625 z m 71.123,1.441 c -0.402,-2.09 -0.878,-4.223 -2.195,-5.878 -7.285,-2.953 -3.206,-5.317 1.011,-1.182 0.479,1.383 4.882,6.771 1.184,7.06 z m -13.848,0.316 c 1.489,-1.843 3.338,-2.952 5.759,-4.091 0.267,1.268 -4.425,3.86 -5.759,4.091 z m 4.691,0.16 c -0.171,-1.052 7.936,-6.614 2.537,-1.023 -0.838,0.33 -1.678,0.676 -2.537,1.023 z m 15.546,0.806 c -3.511,-2.969 -5.437,-4.207 -4.558,-8.37 0.133,0 5.036,1.456 0.761,1.051 -1.01,2.781 6.485,6.672 1.528,1.053 0.476,-1.86 6.161,5.962 2.269,6.266 z m -75.585,0.159 c -0.211,-2.752 9.743,-7.781 3.623,-2.004 -1.469,0.723 -1.927,1.369 -3.623,2.004 z m 36.18,0.158 c 2.458,-7.954 -0.382,-2.206 -1.909,-1.917 0.878,-5.977 -1.086,0.72 -1.391,-2.88 1.793,-6.109 2.402,-2.305 6.715,-1.426 0.494,1.136 4.901,2.78 -0.059,3.471 -0.076,0.245 -3.128,2.694 -3.356,2.752 z m 24.49,0.965 c 0.475,-1.339 8.638,-6.83 4.557,-2.349 -1.431,0.533 -3.394,2.119 -4.557,2.349 z m -73.03,0.792 c -1.354,-0.577 -1.526,-1.182 -2.211,-2.017 -2.519,-7.434 3.832,0.373 2.707,1.917 -0.155,0.027 -0.323,0.058 -0.496,0.1 z m 14.056,0.634 c -0.153,-0.477 2.423,-4.467 3.93,-3.054 -0.268,0.821 -2.975,2.823 -3.93,3.054 z m 59.622,0.807 c 0.42,-1.398 5.186,-4.451 6.445,-4.38 0,1.053 -5.186,4.38 -6.445,4.38 z m -57.924,2.391 c -0.151,-1.456 5.226,-5.82 4.9,-8.14 1.28,-0.159 1.68,-3.43 1.28,-4.321 0.609,-0.072 6.465,-10.936 6.885,-6.483 -2.728,1.757 -4.311,5.746 -4.028,8.529 1.776,7.073 -4.996,5.705 -6.196,8.715 -1.22,0.462 -1.734,1.225 -2.841,1.7 z m 57.694,0.808 c 0.668,-1.701 3.13,-2.84 5.132,-3.617 0.114,1.008 -3.872,3.141 -5.132,3.617 z m -21.285,0 c -5.379,-1.772 1.318,-4.324 -0.858,-4.869 -4.787,4.509 -0.342,-2.22 0.858,-2.32 0.229,2.032 2.231,-1.008 2.231,3.53 -0.781,1.613 0.917,3.211 -2.231,3.659 z m -44.496,1.756 c -4.672,-1.958 -4.578,-14.71 -0.993,-8.859 0,2.651 5.988,7.707 0.993,8.859 z m 12.78,0.951 c -0.077,-1.396 4.404,-6.986 5.76,-7.766 1.564,0.232 -4.196,7.766 -5.76,7.766 z m 51.952,0.316 c 1.126,-1.367 3.015,-2.706 5.11,-3.184 -0.549,1.342 -3.506,2.984 -5.11,3.184 z m -76.231,0.332 c -3.416,-1.253 -5.418,-4.091 -6.239,-6.684 -1.392,0 -2.194,-14.105 3.356,-0.216 1.183,1.686 7.801,6.512 2.883,6.9 z m 35.131,0.158 c -0.305,-1.18 1.278,-2.088 0.934,-3.844 -5.818,-1.888 3.053,-7.464 -0.038,-7.464 -1.067,2.147 -5.435,3.471 -1.544,0.014 0.705,-1.339 1.675,-2.593 2.515,-3.846 -2.401,-0.448 -9.364,10.128 -5.054,2.031 2.308,-0.777 -0.056,-9.235 3.069,-6.093 0,3.775 2.425,-1.123 2.136,2.277 -1.774,2.68 0.764,0 1.642,1.7 2.882,0.359 0.478,14.189 -3.66,15.225 z m 41.31,2.392 c 0.916,-0.806 0.916,-0.806 1.279,-1.438 3.339,-1.341 0.381,1.438 -1.279,1.438 z m -62.176,1.918 c 1.239,-3.386 6.809,-6.167 3.278,-1.542 -1.029,0.59 -2.095,1.339 -3.278,1.542 z m -21.286,0.634 c -1.372,-1.169 -2.48,-0.908 -2.211,-2.795 -2.213,-2.465 6.883,1.743 2.211,2.795 z m 53.232,1.282 c 0.305,-1.226 3.414,-6.225 5.111,-6.383 -0.21,1.469 -2.992,5.951 -5.111,6.383 z m -29.6,0.632 c -3.186,-0.473 8.622,-9.018 4.329,-4.235 0,0.433 -3.336,3.891 -4.329,4.235 z m -12.779,0.332 c -2.995,-1.109 -6.161,-3.846 -6.6,-6.236 1.755,0.127 11.749,5.76 6.6,6.236 z m 47.491,1.427 c 0,-0.519 3.928,-8.226 3.186,-6.542 -3.739,0.275 -4.349,7.608 -5.284,4.985 -2.422,0.677 -1.068,2.032 -0.799,-0.994 0.818,-0.446 8.754,-13.124 7.152,-5.113 1.069,-0.449 0.744,-1.067 1.908,-1.283 -0.252,1.008 -4.085,8.947 -6.163,8.947 z m 5.531,2.247 c 0.44,-1.568 1.585,-2.896 2.556,-4.321 2.191,0.287 -1.374,3.846 -2.556,4.321 z m -17.244,0.635 c -0.437,-1.326 1.986,-2.954 2.883,-3.905 5.417,-0.259 0.247,3.703 -2.883,3.905 z m -25.976,0.634 c 0,-1.469 7.802,-7.074 9.308,-7.392 1.603,-2.549 9.746,-13.961 8.411,-5.431 3.929,0.2 -7.82,12.246 -10.354,11.612 0,-0.116 5.033,-5.418 5.282,-5.518 1.201,-2.247 6.732,-5.59 3.108,-6.051 -0.037,-0.171 -12.073,12.26 -15.755,12.78 z m -8.105,0.806 c -1.755,-0.389 -13.199,-3.903 -5.092,-3.039 0,0.547 17.375,2.145 5.092,3.039 z m 21.093,0.475 c -0.15,-2.333 8.108,-6.597 4.521,-6.353 -0.017,0.203 -3.394,2.738 -3.967,2.738 0.496,-1.31 5.703,-9.407 7.152,-6.324 5.512,-1.209 10.032,-9.105 11.824,-12.865 -1.62,0 -5.74,5.718 -6.692,6.727 -2.117,0 7.589,-11.798 4.92,-9.781 -0.325,1.743 -4.672,-0.058 -0.648,-2.42 0,-7.146 7,-1.772 1.486,1.513 0.212,0.59 0.553,-0.087 1.164,-0.318 3.949,0.058 -1.45,10.33 -3.109,10.504 1.964,6.281 7.402,-9.912 8.774,-4.856 -0.649,2.148 -0.382,8.372 -4.331,9.049 -1.946,0.821 -4.766,3.817 -6.064,3.817 -0.132,-3.803 0.361,-1.326 -2.27,-0.922 -1.335,1.08 -4.499,1.974 -4.672,3.429 -0.266,-0.003 -6.35,5.443 -8.088,6.062 z m 47.055,1.758 c -0.458,-0.865 5.168,-2.765 5.876,-4.539 3.05,-1.541 7.343,-4.81 6.826,-7.563 -0.247,0 -7.896,7.088 -4.615,2.363 3.853,-0.476 -0.154,-3.631 -1.069,0.793 -2.442,0 5.454,-10.014 5.454,-4.553 0.916,-0.287 2.518,-2.953 2.976,-3.659 1.126,-0.13 2.175,5.922 0.82,6.943 -1.163,4.308 -9.498,7.478 -14.512,9.295 -0.537,0.575 -0.918,0.82 -1.756,0.92 z m 6.599,0.965 c -0.114,-0.229 6.465,-5.101 7.191,-5.518 5.242,0 -7.02,5.461 -7.191,5.518 z m -54.51,0.635 c -0.268,-0.822 10.203,-9.12 11.291,-9.423 -1.107,5.172 -8.163,6.037 -11.291,9.423 z m 25.557,0.965 c -0.113,-0.879 1.566,-5.057 2.499,-5.518 4.863,0.072 -1.011,5.518 -2.499,5.518 z m -38.335,0 c -2.613,-1.081 -13.734,-2.047 -14.477,-4.481 0.037,0 15.334,3.658 15.334,4.481 -0.287,0 -0.573,0 -0.857,0 z m 68.128,0.632 c 0.438,-0.893 5.873,-4.624 7.245,-4.796 0,1.699 -5.319,4.539 -7.245,4.796 z m -8.927,0.636 c -0.112,-1.413 5.396,-3.127 5.531,-3.833 4.424,-0.374 -4.119,3.703 -5.531,3.833 z m -44.517,0.157 c 0.858,-1.585 6.352,-7.663 7.879,-7.663 -0.324,2.549 -4.903,6.54 -7.879,7.663 z m 45.145,1.759 c 0.573,-0.994 6.467,-4.812 6.257,-2.652 -2.117,1.283 -3.625,2.048 -6.257,2.652 z m -39.804,0.49 c -3.337,-1.773 6.733,-8.472 4.464,-3.042 -0.781,0 -1.926,2.694 -4.464,3.042 z m -11.71,0 c 0.649,-2.564 6.98,-2.119 4.08,-1.57 0,0.733 -3.316,1.497 -4.08,1.57 z m -8.107,0 c -0.97,-0.879 -6.904,-2.177 -8.601,-2.349 -1.506,-1.7 -8.431,-2.606 -9.059,-4.682 6.14,1.239 13.408,5.749 19.378,6.382 -0.171,0.85 -0.802,0.576 -1.718,0.649 z m 24.281,0.157 c -0.514,-0.964 12.187,-7.316 8.143,-7.316 -2.498,2.679 -10.204,5.689 -2.879,1.196 0.326,-0.432 5.379,-3.688 1.43,-2.335 -0.095,0.851 -4.253,1.915 -1.506,0.302 2.117,-3.904 9.975,-4.378 6.733,1.601 -3.968,1.742 -7.363,5.27 -11.921,6.552 z m 14.895,0.318 c -0.42,-0.792 1.546,-1.152 2.288,-1.325 0.362,-1.371 10.185,-10.862 4.844,-9.05 -5.567,7.65 -0.228,-2.78 3.377,-4.81 1.641,-4.09 5.627,1.815 1.41,2.334 -2.631,1.583 5.055,3.933 0.324,5.359 -1.312,2.766 -8.541,6.095 -12.243,7.492 z m 29.392,0.793 c 0,-0.793 8.22,-6.138 9.861,-6.138 0,0.966 -8.145,5.92 -9.861,6.138 z m -42.8,1.123 c 0.305,-1.413 8.372,-5.893 10.222,-6.238 -0.667,1.614 -8.563,5.95 -10.222,6.238 z m 33.225,0.475 c -0.151,-0.951 3.738,-2.609 4.845,-3.443 5.13,0 -4.692,3.384 -4.845,3.443 z m -50.257,0 c 0.572,-1.341 7.535,-4.277 8.011,-3.543 -2.805,1.108 -4.482,2.706 -8.011,3.543 z m -6.601,0.159 c -1.847,-0.202 -20.1,-5.144 -18.003,-6.873 3.739,1.541 18.864,5.993 18.864,6.873 -0.289,0 -0.576,0 -0.861,0 z m 65.154,1.123 c 0.782,-1.569 9.194,-6.454 11.522,-7.29 0.208,1.254 -9.938,7.29 -11.522,7.29 z m -57.064,1.125 c 0,-2.19 15.048,-5.763 9.422,-3.647 -0.173,0.823 -8.071,3.214 -9.422,3.647 z m -7.02,0.475 c 4.92,-0.52 -14.534,-4.107 -16.194,-4.725 -1.886,0.158 2.386,1.671 3.416,1.758 3.832,1.742 8.201,2.189 12.778,2.967 z m 55.35,0.317 c 1.944,-0.403 3.241,-1.282 5.111,-1.988 2.841,-3.113 -4.711,-0.087 -5.111,1.988 z m 8.944,0.793 c 1.545,-0.216 10.93,-5.777 10.93,-6.931 -1.163,-0.028 -11.426,5.993 -10.93,6.931 z m -70.893,0.489 c -1.83,-0.837 -8.734,-1.743 -8.734,-3.199 0.286,0.043 11.65,2.463 8.734,3.199 z m 12.13,1.11 c 2.804,-0.907 7.323,-1.571 9.154,-3.574 3.816,-0.721 -9.477,1.6 -9.154,3.574 z m 49.819,0.648 c 0.878,-0.087 3.395,-0.591 3.507,-1.268 4.865,-2.175 -2.097,-1.701 -3.507,1.268 z m 8.734,0.475 c 0.857,-0.157 7.916,-4.264 7.991,-4.639 5.056,-4.538 -7.991,3.213 -7.991,4.639 z m -8.296,1.44 c 1.888,-0.186 2.499,-0.446 2.976,-1.758 -1.03,0.262 -3.606,0.578 -2.976,1.758 z m -58.764,0 c 1.509,-0.086 1.509,-0.086 1.983,-0.258 -0.609,-4.626 -6.923,-1.6 -7.322,-3.414 -6.771,-0.549 4.672,3.472 5.339,3.672 z m -8.107,1.917 c -1.297,-0.835 -3.433,-1.469 -3.89,-2.521 -2.079,-0.26 -10.431,-9.005 -3.777,-6.902 0.346,2.652 15.642,8.458 7.667,9.423 z m 9.806,1.916 c 3.317,-0.318 6.653,-0.36 9.783,-1.499 10.242,-1.382 -9.783,-0.027 -9.783,1.499 z m 11.92,2.881 c 2.288,-0.23 6.216,-2.392 6.809,-4.164 -2.366,0.677 -6.066,2.292 -6.809,4.164 z m -10.013,0.475 c 2.498,-0.172 5.549,-0.719 7.665,-1.828 7.305,-1.47 -7.932,-0.635 -7.665,1.828 z m 24.07,1.44 c 1.488,0 10.794,-5.228 11.71,-3.671 2.671,1.036 10.051,-7.118 4.521,-7.408 -0.345,-1.9 8.028,-9.277 0.076,-9.277 -0.457,1.051 -7.917,3.514 -3.244,2.838 2.212,-1.829 3.375,0.302 1.201,0.418 -3.432,3.457 -4.254,-1.184 -6.236,1.08 -0.915,0.086 -1.736,2.781 -2.08,2.118 -7.152,1.339 2.959,-2.896 3.626,-4.798 -4.122,1.297 -7.095,4.537 -11.235,5.389 -0.802,-1.988 5.399,-2.841 6.219,-4.728 1.467,-0.389 6.578,-3.674 6.941,-4.811 -2.65,0 -15.678,11.05 -16.612,7.347 -1.791,-0.72 -1.696,0.043 -2.86,0.577 -2.593,6.384 -9.555,2.911 -12.741,7.046 -2.478,0.619 1.68,0.604 1.812,-0.072 4.254,-0.764 4.595,-3.357 7.515,-0.777 8.048,-1.514 -2.766,2.375 -2.766,3.832 1.945,0.33 9.593,-4.381 10.431,-5.979 1.051,-0.476 0.707,-1.398 1.318,-1.398 0.457,1.93 2.84,-0.403 3.11,0.605 -7.209,5.447 4.768,-0.403 4.882,-0.921 1.239,0.374 -7.382,5.705 -0.628,4.653 4.119,-1.513 2.63,-2.133 1.314,0.879 -6.044,1.958 5.55,-0.216 -0.839,2.032 -0.209,1.081 3.509,-0.663 5.15,-0.691 -0.001,2.419 -11.921,1.64 -10.585,5.717 z m -16.194,1.269 c 1.565,0 7.84,-3.198 8.105,-4.307 -1.79,0.346 -7.609,3.112 -8.105,4.307 z m -15.754,0 c 7.094,-0.49 -6.408,-7.232 -8.085,-7.348 -0.039,0.52 0.722,3.156 1.43,3.241 0.953,1.601 4.174,3.128 6.655,4.107 z m 7.039,0.159 c 1.696,-0.23 9.153,-1.859 9.249,-2.378 4.273,-3.226 -9.194,2.263 -9.249,2.378 z m 17.87,2.089 c 4.484,-0.807 13.351,-11.626 4.043,-11.756 -0.076,0.029 -3.872,11.224 -4.043,11.756 z m 12.777,0.317 c 5.362,-0.345 6.467,-3.142 7.669,-6.556 -1.108,-0.23 -15.22,3.905 -7.65,3.269 6.047,-2.188 -1.199,1.601 -0.019,3.287 z m -36.827,2.073 c -4.291,-1.771 -9.249,-1.194 -11.635,-4.796 -7.477,-5.287 13.428,-0.448 13.428,3.848 -0.553,1.035 -0.383,0.948 -1.793,0.948 z m 14.895,1.282 c 2.078,-0.2 10.413,-6.005 6.351,-5.848 -2.575,1.614 -8.906,3.343 -6.351,5.848 z m 5.969,0.794 c 1.698,-0.158 6.467,-2.592 6.467,-3.902 -1.87,-0.102 -5.799,2.792 -6.467,3.902 z m 3.186,2.391 c 1.717,-0.302 3.336,-0.172 4.101,-1.397 10.281,-4.319 2.385,-7.504 -3.09,-1.036 -7.513,1.482 -1.337,0.677 -1.011,2.433 z m -17.242,0.65 c 4.922,-0.389 4.54,-3.27 -1.736,-2.161 -7.666,0 -0.4,1.425 1.736,2.161 z m -8.087,4.623 c 3.357,-0.202 6.962,-0.749 10.434,-0.878 7.951,-2.708 -11.769,-3.515 -14.268,-3.04 -10.774,1.223 -0.362,3.557 3.834,3.918 z m 94.964,-53.68 c 0,-1.498 5.015,-2.636 4.406,-5.863 -0.362,0.042 -4.73,4.033 -3.566,1.397 3.985,-0.489 5.684,-9.451 6.674,-0.418 -0.837,0.908 -6.141,4.712 -7.514,4.884 z m -20.655,17.101 c 1.239,-1.886 7.38,-4.48 7.55,-5.661 -4.023,-0.678 3.339,-11.93 4.16,-9.194 -1.641,0 -4.444,11.742 0.114,0.404 2.404,-0.302 -1.696,10.272 -6.064,11.167 -1.907,0.893 -3.528,2.997 -5.76,3.284 z m 67.268,-46.808 c 0.84,-1.7 0.325,-1.642 0.325,-3.543 1.029,-2.826 2.08,3.543 -0.325,3.543 z m 8.736,1.427 c -1.106,-0.362 -0.953,-0.577 0.038,-0.765 0.268,-7.389 1.831,0.418 -0.038,0.765 z m -5.11,29.563 c 0,-1.024 -2.708,-6.081 0.418,-5.59 -0.458,1.051 0.19,5.316 -0.418,5.59 z m 23.001,-27.475 c -0.402,-2.881 1.374,-4.61 1.583,-0.951 -0.324,0.519 -0.898,0.951 -1.583,0.951 z m 9.784,0.952 c 0.42,-1.183 -1.315,-4.453 1.544,-1.485 1.126,0.13 -0.857,1.485 -1.544,1.485 z m 3.413,0.648 c -0.667,-1.628 0.059,-4.28 0.858,0 -0.286,0 -0.571,0 -0.858,0 z m 3.187,0.793 c -1.433,-0.29 -0.192,-4.179 0.857,-0.477 -0.723,0 -0.343,0.231 -0.857,0.477 z m 5.111,0.79 c -0.439,-0.806 0.648,-2.752 0.648,-0.158 -0.211,0.045 -0.419,0.101 -0.648,0.158 z m 5.321,0.966 c 0.209,-2.304 0.783,-1.729 1.488,0 -0.495,0 -0.992,0 -1.488,0 z m 3.204,0.634 c -1.449,-0.288 -0.056,-2.923 0.458,-0.129 -0.153,0.043 -0.306,0.086 -0.458,0.129 z m 2.117,0.332 c 0.305,-0.62 1.603,-2.838 1.603,-0.635 -0.382,0.836 -0.573,0.635 -1.603,0.635 z m 3.414,1.268 c -0.706,-1.082 0.63,-3.63 0.63,0 -0.209,0 -0.421,0 -0.63,0 z m 2.975,0.649 c -1.527,-1.745 0.441,-3.227 0.441,0 -0.135,0 -0.287,0 -0.441,0 z m -57.273,21.566 c -2.043,-3.775 3.146,-1.195 0.857,-0.547 -0.191,0.49 -0.191,0.475 -0.857,0.547 z m 0,-10.229 c 0,-0.359 -1.83,-2.651 0.895,-1.8 0.571,0.864 0.495,1.584 -0.895,1.8 z M 118.244,268.29 c 1.105,-0.276 3.108,-2.377 4.69,-3.041 3.434,-3.731 11.158,-7.476 16.176,-10.23 0.684,-3.269 -3.53,-3.053 -3.835,-4.465 -4.521,-1.872 -4.807,9.019 -9.366,9.581 -0.476,2.55 -10.64,1.843 -7.665,8.155 z m 55.788,-128.944 c -0.916,-3.514 0.705,-7.059 -0.21,-10.214 6.847,1.181 3.015,-1.988 4.959,-1.988 0.058,0.994 1.927,9.854 -0.954,10.042 -3.433,-1.21 -2.804,2.16 -3.795,2.16 z m 70.474,60.076 c -2.44,-9.104 4.158,-4.105 2.117,-0.157 -0.974,-0.072 -1.355,0.086 -2.117,0.157 z m 0.629,20.618 c -1.66,-4.091 4.903,-3.27 2.842,-0.275 -1.221,0 -1.526,0.275 -2.842,0.275 z m 0.209,-10.388 c -0.363,-0.822 -2.974,-3.097 1.585,-1.987 1.296,0.98 -0.153,1.843 -1.585,1.987 z M 242.79,191.11 c -1.526,-0.576 0.837,-9.307 1.716,-0.317 -1.068,0.102 -1.068,0.102 -1.716,0.317 z m -6.161,-1.109 c -0.421,-1.136 -1.794,-3.515 0.629,-3.515 0.134,0.648 1.335,3.328 -0.629,3.515 z m 3.396,0.792 c -1.374,-2.089 -0.287,-7.389 1.2,-2.419 -0.553,0.934 1.585,2.16 -1.2,2.419 z m -7.229,-1.108 c -1.451,-0.462 0.992,-1.47 -0.212,-1.6 -0.001,-5.128 3.607,0.922 0.212,1.6 z m 16.821,2.39 c 0,-0.892 -0.896,-1.957 0.173,-3.587 -1.736,-0.431 3.547,3.069 -0.173,3.587 z m 2.766,0.319 c -0.363,-3.2 1.428,-4.726 1.506,-0.245 -0.42,0.157 -0.42,0.157 -1.506,0.245 z m 20.866,10.07 c -0.135,-1.123 -0.306,-1.225 -0.44,-2.723 2.518,-0.98 2.633,2.723 0.44,2.723 z m 0.209,6.872 c -4.102,-1.326 3.797,-4.236 0.857,0 -0.285,0 -0.57,0 -0.857,0 z m 0.209,8.945 c -1.792,-4.882 2.195,-5.92 1.356,-0.429 -0.44,0.143 -0.898,0.286 -1.356,0.429 z m -87.505,-79.569 c -0.457,-0.577 -3.413,-0.476 -3.967,-0.98 0.707,-1.296 -1.123,-6.481 -0.114,-7.088 2.957,0.534 2.995,0.562 3.872,-1.354 0.705,0 1.448,9.422 0.209,9.422 z m 67.709,83.085 c -2.575,-0.835 -2.232,-23.066 -1.964,-26.452 0.572,-0.013 1.164,-0.042 1.753,-0.071 0.077,1.699 2.633,26.523 0.211,26.523 z m 3.832,-0.332 c -1.448,-1.541 -1.507,-14.564 -1.391,-17.228 -0.631,-1.312 -1.258,-6.628 -0.534,-8.17 8.086,0.577 5.646,1.096 5.873,8.63 0.211,0.128 0,2.751 -0.227,2.968 0.362,1.771 1.695,14.81 -0.82,12.907 -0.153,-7.692 -0.153,-16.335 -1.45,-23.468 -3.643,0.446 1.658,23.743 -1.451,24.361 z m 34.483,-0.316 c 0,-0.777 -0.858,-13.168 0.937,-13.168 0,0.491 1.449,13.168 -0.937,13.168 z m -74.726,3.674 c -2.118,-4.495 1.049,-12.318 -1.391,-16.279 0.209,-5.964 -1.45,-12.102 -0.744,-17.433 5.492,-0.13 2.727,10.286 3.089,14.724 -2.517,3.803 3.777,17.735 -0.954,18.988 z m 5.323,-11.973 c -0.441,-0.143 -1.965,-20.673 -0.135,-20.673 0.991,1.181 0.135,20.673 0.135,20.673 z m 4.254,-14.55 c 0.02,-0.058 -1.908,-7.937 0.741,-5.778 0,0.78 0.287,5.519 -0.741,5.778 z m 8.524,14.219 c 0.21,-3.312 -1.641,-18.022 0.859,-18.684 0.036,1.209 0.761,17.863 -0.859,18.684 z m -3.834,1.598 c -0.572,-1.9 -1.85,-8.932 0.628,-9.42 -0.017,0.864 -0.208,9.42 -0.628,9.42 z m 4.464,8.631 c -1.049,-0.331 -0.135,-8.01 -0.63,-9.581 2.079,0.001 2.516,9.581 0.63,9.581 z m -36.62,-0.475 c -0.267,-2.162 -2.976,-13.152 2.879,-9.105 0.001,3.069 2.098,8.659 -2.879,9.105 z m 12.149,3.516 c 1.143,-7.29 -0.878,-14.566 -0.612,-21.294 -0.457,-0.273 -1.543,-12.001 -1.313,-13.384 1.41,0.29 1.391,0.1 1.811,1.283 -0.306,3.516 3.642,33.395 0.114,33.395 z m -4.9,0.632 c -1.128,-1.713 -1.033,-14.004 0.208,-14.219 0.362,2.234 1.946,14.219 -0.208,14.219 z m 2.553,-38.336 c -3.165,-1.599 2.022,-12.001 1.621,-0.835 -0.552,0.605 -0.706,0.619 -1.621,0.835 z m -10.642,-0.158 c -1.85,-0.518 -0.173,-5.085 0,-6.079 5.646,0.173 4.425,5.761 0,6.079 z m -7.036,0 c -5.207,-1.094 1.6,-14.436 1.6,-0.332 -0.535,0.101 -1.066,0.217 -1.6,0.332 z m 0.208,10.214 c -2.499,-3.139 -2.631,-1.21 -3.032,-5.863 -3.414,-0.245 2.785,-1.845 4.959,-1.642 -0.573,0.951 3.489,7.563 -1.507,7.29 -0.135,0.072 -0.267,0.143 -0.42,0.215 z m 8.316,-0.316 c -3.262,-0.822 -1.108,-2.955 -2.155,-5.2 0,-7.408 8.353,5.2 2.155,5.2 z m -0.211,10.863 c -1.028,-1.945 -1.506,-3.775 -1.374,-6.138 1.927,-0.691 3.702,-0.015 3.702,1.512 -1.048,0 1.641,5.446 -1.6,4.366 -0.232,0.087 -0.48,0.172 -0.728,0.26 z m -6.827,1.282 c -0.819,-1.685 -0.611,-4.351 -0.287,-6.151 -0.171,-5.215 5.855,5.531 0.287,6.151 z m 1.278,12.461 c -1.03,-0.88 -0.441,-8.37 0.724,-8.37 -0.191,1.556 1.013,7.938 -0.724,8.37 z m -53.214,34.995 c 5.97,-2.448 3.644,-1.729 7.018,-7.189 3.892,-0.792 7.974,-5.951 9.517,-8.199 7.555,-4.364 5.303,-12.735 9.634,-18.569 0,-3.068 -0.268,-10.603 -4.025,-5.346 -0.859,0.217 -3.033,3.474 -4.158,2.623 0.57,-2.219 6.066,-5.82 1.603,-5.82 -4.103,-11.498 -2.975,-4.437 -7.459,-2.565 0,-9.076 5.818,-3.832 0,-3.832 -3.603,8.674 -1.832,-3.068 3.661,-3.068 1.414,1.066 -0.628,0.951 0.744,-1.124 0.249,0 2.959,2.105 2.995,2.305 4.236,1.771 0.173,6.828 4.73,7.476 1.013,-3.486 -1.488,-6.827 -1.602,-10.371 0.763,-2.507 -0.038,-3.097 -0.418,-5.446 -1.834,-3.904 -14.4,-13.816 -19.683,-14.624 -5.17,1.86 -10.147,-3.241 -17.261,-0.317 -5.532,1.455 -2.231,1.326 -0.86,5.117 6.257,9.349 9.1,5.069 9.576,18.21 0.876,2.421 2.766,4.177 3.794,6.67 2.155,1.139 -0.056,17.634 -1.869,18.254 -0.191,0.778 -0.323,1.657 -0.323,2.493 -1.374,-1.456 -1.354,6.713 -2.212,8.297 -7.077,1.859 6.293,7.751 7.323,9.598 0,1.839 -0.286,3.482 -0.725,5.427 z m 9.366,-4.163 c 2.593,-1.239 4.615,-2.464 7.248,-3.113 4.158,-3.139 11.804,-1.657 10.088,-7.622 -4.826,-7.49 -8.066,3.66 -10.529,5.518 -2.306,0.462 -8.333,3.487 -6.807,5.217 z m 27.254,-11.022 c 2.308,-0.143 20.674,-5.618 20.902,-6.511 2.71,-0.332 -25.06,5.172 -20.902,6.511 z M 67.147,335.699 c 3.471,-0.346 3.948,-5.1 5.322,-5.1 0.801,-2.421 10.546,-21.321 11.709,-21.567 0.42,-3.488 8.281,-14.276 12.131,-15.976 0.497,-2.695 10.318,-7.363 11.559,-10.676 0.228,-0.016 17.013,-14.594 17.184,-15.849 -4.024,1.341 -10.26,8.963 -14.553,11.44 -1.412,1.73 -6.066,5.071 -8.87,5.647 -1.01,3.819 -10.395,8.168 -11.386,11.958 -1.832,0.532 -10.947,11.698 -11.653,13.571 -0.534,0.071 -15.143,23.096 -15.143,25.183 1.659,0.346 2.251,0.434 3.7,1.369 z m 255.862,-51.245 c -0.819,-0.173 -30.744,-7.232 -30.879,-7.981 -4.367,-0.994 -10.586,-2.535 -12.626,-5.633 -7.134,-1.787 -1.373,-3.271 2.518,1.237 12.034,4.885 26.452,7.998 39.633,11.325 15.448,12.331 1.367,1.126 1.354,1.052 z m -264.955,-27.323 -0.18,-4.12 c 0.899,1.953 1.022,3.313 0.18,4.12 z m 214.312,-33.232 c -0.516,0.59 -17.065,1.501 -19.469,1.472 -8.85,2.45 -19.892,3.113 -29.028,4.798 -1.279,0.648 -1.984,0.749 -3.414,0.965 -5.531,-0.374 -12.777,3.674 -18.044,3.674 3.472,-1.858 18.902,-4.179 6.506,-3.991 -2.824,-0.533 -21.21,3.688 -21.269,4.077 -5.682,0.491 3.741,-3.011 3.988,-3.083 0.287,-1.34 45.985,-7.088 48.044,-7.046 0.745,0.635 23.802,-1.195 27.77,-1.784 1.05,-0.001 4.78,-0.12 4.916,0.918 z"
    id="pinnacle-slim-path2"
    style="fill:#000000" />
<path
        d="m 281.967,228.002 c -20.894,7.997 -35.772,12.72 -32.875,29.144 2.503,14.177 34.045,52.559 110.621,82.161 -3.429,0.344 -6.865,0.618 -10.348,0.605 l -7.154,1.238 -27.917,1.155 h -10e-4 l -0.02,-0.005 -0.02,-0.006 -0.02,-0.004 -0.02,-0.004 -0.006,-10e-4 -0.013,-0.004 -0.018,-0.005 -0.02,-0.004 -0.018,-0.004 -0.02,-0.005 h -10e-4 l -0.018,-0.004 -0.02,-0.004 -0.02,-0.005 -0.021,-0.003 -0.007,-0.003 -0.011,-0.002 -0.02,-0.004 -0.018,-0.005 -0.02,-0.004 -0.021,-0.004 -10e-4,-0.001 -0.018,-0.003 -0.021,-0.004 -0.02,-0.004 -0.017,-0.005 -0.014,-0.002 -0.005,-0.001 -0.02,-0.005 -0.022,-0.004 -0.021,-0.004 -0.02,-0.003 -0.005,-0.001 -0.012,-0.002 -0.018,-0.006 -0.022,-0.004 -0.021,-0.003 -0.017,-0.003 h -0.002 l -0.02,-0.006 -0.02,-0.003 -0.019,-0.003 -0.023,-0.004 -0.007,-0.002 -0.012,-0.002 -0.018,-0.003 -0.021,-0.003 -0.02,-0.005 -0.019,-0.002 h -0.002 l -0.02,-0.004 -0.021,-0.003 -0.021,-0.003 -0.019,-0.003 -0.011,-0.003 -0.01,-10e-4 -0.02,-0.004 -0.021,-0.003 -0.018,-0.002 -0.021,-0.003 h -0.006 l -0.015,-0.004 -0.02,-0.003 -0.021,-0.003 -0.023,-0.003 -0.016,-0.002 -0.003,-0.001 -0.021,-0.003 -0.021,-0.004 -0.021,-0.002 -0.021,-0.003 -0.008,-10e-4 -0.014,-0.002 -0.018,-0.002 -0.02,-0.003 -0.022,-0.004 -0.02,-0.002 c -0.972,-0.447 -1.979,-0.779 -3.127,-1.05 -1.552,-0.365 -3,-0.52 -4.628,-0.53 l -4.55,-0.035 -0.011,0.036 c -2.71,-0.013 -5.422,-0.047 -8.12,-0.063 -8.597,-0.048 -17.198,-0.103 -25.796,-0.163 -5.532,-0.038 -11.063,-0.081 -16.595,-0.126 -0.431,-1.168 -0.87,-2.336 -1.301,-3.504 -0.368,-0.993 -1.065,-1.844 -2.088,-2.547 -0.953,-0.654 -2.048,-1.09 -3.302,-1.334 -1.193,-0.233 -2.381,-0.26 -3.593,-0.081 -1.221,0.181 -2.298,0.544 -3.28,1.108 l -2.563,1.47 c -2.568,1.348 -5.179,2.251 -8.198,2.911 -0.567,-0.014 -1.138,0.021 -1.703,0.102 -0.806,0.115 -1.575,0.311 -2.274,0.589 -2.33,0.27 -4.578,0.246 -6.973,0.12 -1.953,-0.103 -3.998,0.097 -5.645,0.798 -16.359,-0.117 -39.569,-0.04 -42.587,-0.058 l -0.516,-0.004 -0.513,-0.004 -0.511,-0.003 -0.489,-0.002 h -0.019 l -0.504,-0.005 -0.505,-0.003 -0.501,-0.003 -0.462,-0.003 h -0.036 l -0.496,-0.003 -0.494,-0.004 -0.492,-0.002 -0.436,-0.004 h -0.05 l -0.489,-0.003 -0.485,-0.003 -0.48,-0.004 -0.412,-0.002 -0.067,-10e-4 -0.479,-0.003 -0.474,-0.003 -0.473,-0.003 -0.387,-0.002 h -0.082 l -0.468,-0.004 -0.465,-0.003 -0.465,-0.003 -0.361,-0.002 h -0.098 l -0.457,-0.003 -0.459,-0.004 -0.452,-0.002 -0.339,-0.004 h -0.113 l -0.449,-0.003 -0.444,-0.002 -0.445,-0.003 -0.316,-0.001 -0.126,-0.002 -0.44,-0.003 -0.437,-0.003 -0.436,-0.002 -0.293,-0.003 h -0.139 l -0.431,-0.003 -0.426,-0.002 -0.427,-0.005 -0.274,-0.001 -0.15,-10e-4 -0.423,-0.002 -0.419,-0.003 -0.415,-0.002 -0.251,-0.001 -0.163,-0.002 -0.412,-0.004 -0.411,-0.002 -0.407,-0.002 -0.233,-0.002 h -0.173 l -0.403,-0.003 -0.402,-0.002 -0.398,-0.002 -0.215,-0.003 -0.183,-10e-4 -0.395,-0.002 -0.39,-0.003 -0.392,-0.001 -0.193,-10e-4 -0.194,-0.002 -0.384,-0.002 -0.383,-0.003 -0.382,-0.003 -0.177,-0.001 -0.2,-10e-4 -0.377,-0.002 -0.375,-0.004 -0.375,-10e-4 -0.158,-10e-4 -0.21,-0.002 c -0.204,-4.759 -0.092,-9.252 0.413,-13.18 2.22,-15.484 7.323,-24.609 16.523,-41.608 2.084,-3.851 28.551,-23.354 34.854,-26.607 2.98,-8.381 41.54,-21.321 51.541,-22.505 2.268,-1.787 35.637,-7.421 40.213,-7.624 z"
        id="pinnacle-slim-path3"
        style="fill:#000000" />
</g>
</g>
</svg>