<svg id="city_kgd" data-name="kgd" xmlns="http://www.w3.org/2000/svg" width="52.5mm" height="52.5mm" viewBox="0 0 148.82 148.82">
  <title>kgd</title>
  <g id="kgd">
    <path d="M74.41,17.72a1.57,1.57,0,0,1,1.39,1.45A1.69,1.69,0,0,1,75,20.32c1,0.71.74,1.25,0,1.73V39.17l-1.08.48V22.08a1,1,0,0,1,0-1.76,1.65,1.65,0,0,1-.74-1.16,1.5,1.5,0,0,1,1.28-1.45h0Z"/>
    <g id="_980932928" data-name=" 980932928">
      <path d="M121.72,127.25a1.93,1.93,0,1,0,1.93,1.93A1.93,1.93,0,0,0,121.72,127.25Z" style="fill: #fc0"/>
      <path d="M114.92,123a2.21,2.21,0,1,0,2.21,2.21A2.21,2.21,0,0,0,114.92,123Z" style="fill: #fc0"/>
      <path d="M106.16,120.61a2.64,2.64,0,1,0,2.64,2.64A2.65,2.65,0,0,0,106.16,120.61Z" style="fill: #fc0"/>
      <path d="M96.77,120.7a2.86,2.86,0,1,0,2.86,2.86A2.86,2.86,0,0,0,96.77,120.7Z" style="fill: #fc0"/>
      <path d="M87.93,121.46a3.46,3.46,0,1,0,3.46,3.46A3.47,3.47,0,0,0,87.93,121.46Z" style="fill: #fc0"/>
      <path d="M78.83,122.34a3.74,3.74,0,1,0,3.74,3.74A3.74,3.74,0,0,0,78.83,122.34Z" style="fill: #fc0"/>
      <path d="M27,123.65a1.84,1.84,0,1,1-1.84,1.84A1.84,1.84,0,0,1,27,123.65Z" style="fill: #fc0"/>
      <path d="M33.9,119.4a2.27,2.27,0,1,1-2.27,2.27A2.27,2.27,0,0,1,33.9,119.4Z" style="fill: #fc0"/>
      <path d="M42.92,118a2.78,2.78,0,1,1-2.78,2.78A2.78,2.78,0,0,1,42.92,118Z" style="fill: #fc0"/>
      <path d="M51.59,119.14A2.86,2.86,0,1,1,48.73,122,2.86,2.86,0,0,1,51.59,119.14Z" style="fill: #fc0"/>
      <path d="M60.49,120.7A3.26,3.26,0,1,1,57.23,124,3.28,3.28,0,0,1,60.49,120.7Z" style="fill: #fc0"/>
      <path d="M69.87,122.14a3.74,3.74,0,1,1-3.74,3.74A3.74,3.74,0,0,1,69.87,122.14Z" style="fill: #fc0"/>
    </g>
    <path d="M57.83,22.51l-0.06.17-0.06.14L57.63,23l-0.09.14-0.09.11-0.09.11-0.09.09-0.11.09-0.11.09-0.11.06-0.11.06-0.11.06-0.11,0-0.11,0-0.14,0H55.93l-0.14,0-0.14,0-0.14-.06-0.14-.06-0.14-.06-0.14-.09-0.14-.09-0.14-.09-0.14-.11-0.14-.11L54.37,23l-0.17-.14-0.11-.11L54,22.62l-0.11-.11-0.11-.11-0.11-.11-0.11-.11-0.11-.09L53.29,22l-0.11-.09-0.11-.09L53,21.74l-0.11-.09-0.11-.06-0.11-.06-0.11-.06-0.14-.06-0.14-.06-0.14,0-0.14,0-0.14,0-0.14,0H51.08l-0.14,0-0.17,0-0.17,0-0.17,0-0.17.06-0.17.06-0.17.06-0.45.14L49,21.83l-0.4.11-0.4.09-0.4.09-0.37.06-0.37.06-0.34,0-0.34,0H46.12l-0.31,0-0.31,0-0.28,0-0.28-.06-0.28-.06L44.39,22l-0.26-.09-0.26-.09-0.23-.11-0.23-.11-0.23-.14L43,21.32l-0.23-.14L42.55,21l-0.2-.17-0.2-.17L42,20.52l-0.2-.2-0.17-.2-0.17-.2-0.17-.2-0.88-1.11,0.28,1.47,0.09,0.37,0.09,0.34,0.09,0.34L41,21.49l0.11,0.34,0.11,0.31,0.14,0.31,0.14,0.31L41.7,23l0.17,0.28,0.2,0.28,0.2,0.26,0.23,0.26,0.23,0.23L43,24.58l0.26,0.2L43.51,25l0.31,0.17,0.31,0.17,0.34,0.14,0.34,0.11,0.37,0.11,0.4,0.09L46,25.85l0.43,0.06,0.45,0,0.48,0h0.48l0.51,0,0.54-.06,0.57-.06,0.11,0,0.11,0,0.11,0,0.11,0,0.11,0,0.11,0,0.11,0,0.11,0,0.11,0,0.11,0h0.88l0.2,0,0.17,0,0.17,0,0.14,0.06,0.14,0.06,0.14,0.06,0.14,0.09L52.67,26l0.11,0.09,0.11,0.09L53,26.25l0.11,0.11,0.11,0.11,0.11,0.11,0.11,0.11,0.14,0.14L53.77,27l0.17,0.14,0.17,0.14,0.17,0.11,0.17,0.11,0.17,0.11,0.17,0.11L55,27.81l0.17,0.09L55.33,28l0.11,0-0.17-.06-0.17-.06-0.17-.06-0.17-.09-0.17-.09-0.17-.09-0.17-.11-0.17-.11-0.17-.11-0.17-.14L53.57,27l-0.09-.09-0.09-.09-0.11-.06-0.11-.06-0.11-.06L53,26.56l-0.11,0-0.11,0-0.11,0-0.11,0-0.11,0H51.82l-0.11,0-0.14,0-0.14,0-0.14,0-0.14,0-0.14,0-0.14,0-0.14,0-0.14.06-0.14.06-0.14.06-0.14.06L50,26.93,49.86,27,49.72,27l-0.14.06-0.09,0-0.09,0-0.09,0-0.09,0-0.09,0-0.09,0L49,27.3l-0.09,0-0.09,0-0.09,0-0.09,0-0.09,0-0.09,0-0.09,0-0.09,0-0.09,0-0.09,0-0.09,0-0.09,0-0.09,0-0.09,0-0.09,0-0.09,0-0.09,0-0.09,0-0.09,0-0.09,0-0.09,0-0.09,0-0.09,0-0.09,0-0.09,0-0.2.06-0.2.06-0.2,0-0.2,0-0.2,0-0.2,0-0.2,0-0.2,0-0.2,0H42.89l-0.2,0-0.2,0-0.2,0-0.2,0-0.2,0-0.2,0-0.2,0-0.2,0-0.2,0-0.2,0-0.2,0-0.77-.11,0.51,0.88,0.23,0.37,0.23,0.34,0.23,0.31,0.26,0.31,0.26,0.28,0.26,0.26,0.26,0.26,0.26,0.23,0.28,0.2L43,31.52l0.28,0.17,0.28,0.14L43.82,32l0.31,0.11,0.31,0.09,0.31,0.09,0.31,0.06,0.31,0.06,0.31,0,0.34,0h0.68l0.34,0,0.34,0,0.34-.06,0.34-.06,0.34-.06,0.34-.09L49.12,32l0.37-.09,0.37-.11L50,31.78l0.14,0,0.14,0,0.14,0,0.14,0,0.14,0,0.14,0,0.14,0,0.14,0H52l0.11,0,0.11,0,0.09,0,0.09,0,0.09,0,0.09,0,0.09,0,0.09,0,0.09,0L53,31.86,53,31.92,53.12,32,53.21,32l0.09,0.06,0.06,0.06L53.4,32.2l0.06,0.09,0.06,0.09,0.06,0.09,0.06,0.09,0.06,0.09,0.06,0.09,0.09,0.09,0.09,0.09L54,33l0.09,0.09,0.09,0.09,0.09,0.09,0.11,0.09,0.11,0.06,0.11,0.06,0.28,0.11,0.26,0.11,0.26,0.09,0.26,0.09,0.28,0.09L56.21,34,56.49,34l0.28,0.06,0.28,0.06,0.28,0.06,0.28,0.06,0.28,0,0.28,0,0.28,0,0.28,0h1.42l0.28,0,0.28,0,0.28,0,0.28,0,0.28,0,0.28-.06,0.28-.06,0.28-.06L62.73,34,63,34l0.28-.09,0.28-.09,0.17-.06,0.17-.06,0.14-.09,0.14-.11,0.11-.11,0.09-.14,0.09-.14,0.06-.14,0-.17V32.6l0-.17,0-.17-0.06-.17-0.06-.2-0.09-.2-0.09-.2-0.06-.11-0.06-.11-0.06-.11L64,31l-0.06-.11-0.06-.11-0.06-.11-0.06-.11-0.06-.11-0.06-.11-0.06-.11-0.06-.11L63.5,30l-0.06-.11-0.06-.11-0.06-.11-0.06-.11L63.1,29.2,63,29.08l-0.11-.26-0.06-.11-0.06-.11-0.06-.11-0.06-.11-0.06-.11-0.06-.11H62.9l0.37,0,0.37,0L64,28.26l0.37,0.06,0.37,0.09,0.37,0.11,0.37,0.11,0.37,0.14,0.37,0.14,0.37,0.17L67,29.25l0.37,0.17,0.37,0.2,0.37,0.2L68.43,30l0.37,0.23,0.37,0.23,0.37,0.23,0.37,0.23,0.37,0.23,0.37,0.26L71,31.66l0.37,0.26,0.37,0.26,0.37,0.26,0.37,0.26,0.37,0.23,0.37,0.23,0.37,0.23,0.82,0.48V23.33L73.81,23l-0.45-.23-0.45-.23-0.45-.23L72,22.11l-0.45-.23-0.45-.2-0.45-.2-0.45-.2-0.45-.2-0.45-.2-0.45-.2-0.45-.17-0.45-.17-0.45-.17L67,20l-0.45-.14-0.45-.14-0.45-.14-0.45-.11-0.45-.11-0.45-.11-0.45-.09-0.45-.09L62.93,19l-0.45-.06L62,18.88l-0.45-.06-0.45,0-0.45,0H59.75l-0.2,0-0.2,0-0.17.06L59,19,58.88,19l-0.14.11-0.14.11-0.11.14-0.11.14-0.09.14-0.09.17L58.14,20l-0.06.17,0,0.2,0,0.2,0,0.2v1.56l0,0.09-0.06.2-0.06.17Zm16,0.68c-4.73-2.47-9.44-4.54-14.17-4.42a1.59,1.59,0,0,0-1.45,1.76,11,11,0,0,1,0,1.67c-0.51,2.24-2.55,2.49-4.28.85-1.39-1.33-2.3-2-4.11-1.3-4.82,1.73-7.34.14-9.16-2.13,0.71,3.86,2.55,6.69,8.53,5.87,0.6-.09,1.16-0.2,1.76-0.23a3.06,3.06,0,0,1,2.44,1.22c1.56,1.62,3.69,1.79,5.87,1.76-2.15.14-4.34,0.68-6.09-1.08-0.82-.82-2.15-0.45-3.66.14a21.56,21.56,0,0,1-3,1,15.32,15.32,0,0,1-6.32,0c2.18,4.05,5.47,4.48,9.3,3.29,1.64-.51,2.92-0.37,3.74.37a5,5,0,0,0,1.22,1.22,12.87,12.87,0,0,0,8.76.37c0.85-.23,1-0.85.45-1.9-0.65-1.33-1.28-2.69-1.9-4,4-.43,8,3,12,5.41V23.19Z"/>
    <path d="M58.62,19.28c1,0.48,2.44,2.3,4.05,4.51A5.3,5.3,0,0,0,59.36,26l0.09,2.47L60.69,30l-0.26-.62a1.55,1.55,0,0,1-.74-1.28,0.55,0.55,0,0,1,.14-0.26h0c0.11-1.22,2.1-1.79,4.93-2.07l6.72,5.78c0.79,0.51,1.56,1,2.35,1.47V31.69l-6.35-6.12,6.35-.91V23.22c-0.88-.45-1.79-0.91-2.66-1.33L65.08,23.1l-4.25-4.28a8.34,8.34,0,0,0-1.19,0,1.3,1.3,0,0,0-1,.51Z"/>
    <path d="M115.6,29.51L52.21,45c-19,4.65-21.09,19.67-13.75,30,4,5.64,9.86,11.45,19.84,16.33,0.85-10.2,4.42-17.55,8.36-21.09,4.17-4.62,10.52-4.68,16-.48,6.94,6.58,10.63,15.65,17.63,20.83l2.3-.45c-7.06-16.3-15.53-41.47,13.72-59.78l-0.68-.88Z" style="fill: #999"/>
    <path d="M57.86,91.47q-13.65-5.06-27.3-10.15L32,83.51l11.54,6.55c3.12,0.77,3.94,4.42,3.74,9.35,1.08,9.27,5.27,16.75,17.15,19.81,9,1.84,18.09,1.11,27.13-.79a25.82,25.82,0,0,1,12.47-.48c0.48-3.32.94-6.66,1.42-10-3.6-1.25-4.05-3.12-1.42-5.61l7.48-4.68v-7.8l-19.19,2c-0.85,5.56-3.88,9.1-10.15,9.67-5.81,1.5-11.65.48-17.46-.94-6-.85-7.11-4.62-6.86-9.21Z" style="fill: #999"/>
    <path d="M71.21,102.78a0.85,0.85,0,0,1,.2,1.67l-1.56,7.37a11.86,11.86,0,0,0-.43,4l-0.85,3.43a5.25,5.25,0,0,1-.37-5.1,0.74,0.74,0,0,1,.54-0.91l1.9-9a1,1,0,0,1-.31-0.65,0.85,0.85,0,0,1,.85-0.85Zm9,2.89,1.81,9.75a25.73,25.73,0,0,0,1.42,3.26l-2.35-13.1a0.89,0.89,0,0,0,.34-0.68,0.85,0.85,0,1,0-1.7,0,0.92,0.92,0,0,0,.51.79Zm-4.85-.43-0.31,8.19a20.74,20.74,0,0,0-.23,3.74A5.36,5.36,0,0,0,76,119.42a40.16,40.16,0,0,0-.06-5.84l0.28-8.28a0.84,0.84,0,0,0,.51-0.79,0.85,0.85,0,0,0-1.7,0A0.93,0.93,0,0,0,75.4,105.25Z"/>
    <path d="M74.78,67.86c-5.36-.09-10.77,4.76-13,14.66C58.85,95.33,66.08,101,75,101.11c10.32,0.14,15.45-7.34,12.64-19.33C85.24,71.38,79.82,68,74.78,67.86Zm0,5.92c-4-.09-8,3.57-9.72,11-2.18,9.61,3.23,13.83,9.89,13.92,7.68,0.11,11.51-5.5,9.44-14.49C82.57,76.42,78.52,73.87,74.78,73.79Z" style="fill: #999"/>
    <path d="M74.78,74.24C70.92,74.15,67,77.7,65.37,85c-2.1,9.35,3.12,13.46,9.58,13.55,7.46,0.09,11.14-5.36,9.13-14.12C82.32,76.79,78.41,74.3,74.78,74.24Zm0-.91c-4.14-.09-8.33,3.66-10.09,11.28C62.42,94.48,68,98.82,75,98.9c8,0.11,12-5.64,9.78-14.88C82.89,76,78.69,73.39,74.78,73.33Zm0-.91c-4.39-.09-8.82,3.83-10.66,11.85C61.74,94.62,67.66,99.18,75,99.3c8.45,0.11,12.64-5.92,10.37-15.62-2-8.39-6.43-11.17-10.57-11.23Zm0-1.11c-4.62-.09-9.3,4.05-11.25,12.5C61,94.76,67.27,99.58,75,99.67c8.9,0.11,13.35-6.26,10.94-16.5-2.1-8.87-6.77-11.79-11.14-11.85h0Zm0-1c-4.79-.09-9.64,4.25-11.65,13.12C60.52,94.93,67,100,75,100.09c9.21,0.11,13.8-6.58,11.31-17.32C84.13,73.47,79.29,70.41,74.78,70.33Zm0-1.11c-5-.09-10.12,4.48-12.25,13.78C59.78,95,66.59,100.35,75,100.46c9.69,0.14,14.51-6.92,11.88-18.17C84.61,72.51,79.51,69.31,74.78,69.22Zm0-.91C69.56,68.23,64.26,73,62.05,82.66c-2.86,12.56,4.22,18.09,13,18.2,10.06,0.14,15.08-7.2,12.36-18.94C85,71.74,79.71,68.4,74.78,68.31Zm0-1c-5.47-.11-11,4.85-13.32,15-3,13.12,4.42,18.88,13.58,19C85.58,101.42,90.82,93.77,88,81.5,85.49,70.87,79.94,67.38,74.78,67.27Z" style="fill: #fc0"/>
    <polygon points="78.72 95.81 80.59 96.78 83.59 93.74 83.39 93.49 83.28 93.34 83.2 93.2 83.08 93.03 83 92.89 82.91 92.72 82.83 92.58 82.74 92.41 82.66 92.27 82.6 92.1 82.52 91.93 82.46 91.76 82.38 91.59 82.32 91.42 82.26 91.25 82.2 91.08 82.15 90.91 82.09 90.74 82.06 90.54 82.01 90.37 81.98 90.17 81.92 90 81.89 89.8 81.86 89.6 81.84 89.41 81.81 89.21 81.78 89.04 81.78 88.81 81.75 88.61 81.75 88.41 81.75 88.21 81.72 87.9 81.75 87.9 81.75 87.56 81.75 87.39 81.78 87.22 81.78 87.05 81.78 86.88 81.81 86.71 81.84 86.51 81.84 86.34 81.86 86.17 81.89 86 81.92 85.83 81.95 85.66 82.01 85.49 82.03 85.29 82.09 85.12 82.12 84.95 82.18 84.78 82.23 84.61 82.29 84.44 82.35 84.27 82.43 84.08 82.49 83.91 82.57 83.73 82.63 83.56 82.72 83.39 82.8 83.22 82.91 83.06 83 82.89 83.08 82.69 83.2 82.52 83.31 82.35 83.51 82.06 80.45 79.06 80.02 79.34 79.71 79.54 79.37 79.74 79.03 79.88 78.69 80.05 78.35 80.19 77.98 80.31 77.64 80.42 77.27 80.53 76.93 80.62 76.56 80.7 76.19 80.76 75.83 80.79 75.46 80.84 75.09 80.84 74.72 80.84 74.35 80.84 73.98 80.84 73.62 80.79 73.28 80.76 72.91 80.7 72.54 80.62 72.17 80.53 71.83 80.42 71.46 80.31 71.12 80.19 70.78 80.05 70.44 79.88 70.1 79.74 69.76 79.54 69.42 79.34 69 79.06 65.96 82.06 66.16 82.35 66.25 82.52 66.36 82.69 66.47 82.89 66.56 83.06 66.64 83.22 66.73 83.39 66.81 83.56 66.9 83.73 66.98 83.91 67.04 84.08 67.1 84.27 67.18 84.44 67.24 84.61 67.27 84.78 67.32 84.95 67.38 85.12 67.41 85.29 67.47 85.49 67.49 85.66 67.52 85.83 67.55 86 67.58 86.17 67.61 86.34 67.64 86.51 67.66 86.71 67.66 86.88 67.69 87.05 67.69 87.22 67.69 87.39 67.72 87.56 67.72 87.9 67.72 87.9 67.72 88.21 67.72 88.41 67.69 88.61 67.69 88.81 67.66 89.04 67.64 89.21 67.64 89.41 67.61 89.6 67.58 89.8 67.52 90 67.49 90.17 67.47 90.37 67.41 90.54 67.35 90.74 67.32 90.91 67.27 91.08 67.21 91.25 67.15 91.42 67.07 91.59 67.01 91.76 66.95 91.93 66.87 92.1 66.78 92.27 66.7 92.41 66.64 92.58 66.56 92.72 66.44 92.89 66.36 93.03 66.27 93.2 66.16 93.34 66.08 93.49 65.88 93.74 68.85 96.78 70.72 95.81 70.78 95.98 70.95 96.32 71.12 96.61 71.32 96.89 71.52 97.17 71.75 97.4 72 97.6 72.28 97.8 72.54 97.97 72.85 98.11 73.13 98.25 73.45 98.33 73.76 98.42 74.07 98.48 74.41 98.5 74.72 98.53 75.06 98.5 75.37 98.48 75.69 98.42 76 98.33 76.31 98.25 76.62 98.11 76.9 97.97 77.19 97.8 77.44 97.6 77.7 97.4 77.92 97.17 78.15 96.89 78.35 96.61 78.52 96.32 78.66 95.98 78.72 95.81" style="fill: #2b2a29"/>
    <path d="M78.63,95.58l1.93,1,2.81-2.83A9.5,9.5,0,0,1,81.58,88H67.89a9.5,9.5,0,0,1-1.79,5.73l2.81,2.83,1.93-1C72,99.27,77.53,99.27,78.63,95.58Z"/>
    <path d="M81.58,87.73a10,10,0,0,1,1.7-5.67l-2.86-2.81a10.23,10.23,0,0,1-11.42,0l-2.86,2.81a10,10,0,0,1,1.7,5.67H81.58Z" style="fill: #fefefe"/>
    <polygon points="76 95.67 75.66 95.41 75.63 95.39 75.6 95.39 75.6 95.36 75.57 95.33 75.57 95.33 75.54 95.3 75.52 95.27 75.52 95.27 75.49 95.24 75.49 95.22 75.49 95.22 75.46 95.19 75.46 95.16 75.43 95.13 75.43 95.13 75.43 95.1 75.4 95.07 75.4 95.05 75.4 95.02 75.37 94.99 75.37 94.99 75.37 94.96 75.37 94.93 75.34 94.9 75.34 94.88 75.34 94.85 75.34 94.82 75.34 94.79 75.34 94.73 75.34 94.71 75.34 94.68 75.34 93.2 76.68 93.2 76.71 93.2 76.73 93.2 76.76 93.2 76.79 93.2 76.82 93.2 76.85 93.2 76.88 93.2 76.9 93.2 76.93 93.23 76.96 93.23 76.99 93.23 77.02 93.26 77.05 93.26 77.07 93.26 77.1 93.29 77.13 93.29 77.16 93.29 77.16 93.32 77.19 93.32 77.22 93.34 77.24 93.34 77.27 93.37 77.3 93.37 77.33 93.4 77.33 93.4 77.36 93.43 77.39 93.46 77.41 93.46 77.44 93.49 77.44 93.52 77.47 93.54 77.75 93.8 77.75 91.47 77.5 91.67 77.47 91.7 77.44 91.73 77.41 91.73 77.41 91.76 77.39 91.76 77.36 91.79 77.33 91.79 77.3 91.81 77.3 91.81 77.27 91.84 77.24 91.84 77.22 91.84 77.19 91.87 77.16 91.87 77.13 91.9 77.1 91.9 77.1 91.9 77.07 91.9 77.05 91.93 77.02 91.93 76.99 91.93 76.96 91.93 76.93 91.96 76.9 91.96 76.88 91.96 76.85 91.96 76.82 91.96 76.79 91.96 76.73 91.96 76.71 91.96 76.68 91.96 75.34 91.96 75.34 90.34 75.34 90.31 75.34 90.28 75.34 90.28 75.34 90.25 75.34 90.25 75.34 90.23 75.34 90.23 75.34 90.2 75.37 90.17 75.37 90.17 75.37 90.14 75.37 90.11 75.4 90.11 75.4 90.08 75.4 90.06 75.4 90.06 75.43 90.03 75.43 90.03 75.43 90 75.46 89.97 75.46 89.94 75.49 89.94 75.49 89.92 75.52 89.89 75.52 89.89 75.54 89.86 75.54 89.83 75.57 89.83 75.57 89.8 75.6 89.77 75.8 89.52 73.67 89.52 73.87 89.77 73.87 89.8 73.9 89.83 73.9 89.83 73.93 89.86 73.93 89.89 73.96 89.89 73.96 89.92 73.98 89.94 73.98 89.94 74.01 89.97 74.01 90 74.01 90.03 74.04 90.03 74.04 90.06 74.04 90.06 74.07 90.08 74.07 90.11 74.07 90.11 74.1 90.14 74.1 90.17 74.1 90.17 74.1 90.2 74.1 90.23 74.1 90.23 74.13 90.25 74.13 90.25 74.13 90.28 74.13 90.28 74.13 90.31 74.13 90.34 74.13 90.34 74.13 91.96 72.79 91.96 72.74 91.96 72.71 91.96 72.68 91.96 72.65 91.96 72.62 91.96 72.59 91.96 72.57 91.96 72.54 91.96 72.51 91.93 72.48 91.93 72.45 91.93 72.42 91.93 72.4 91.9 72.37 91.9 72.34 91.9 72.31 91.9 72.28 91.87 72.28 91.87 72.25 91.84 72.23 91.84 72.2 91.84 72.17 91.81 72.14 91.81 72.11 91.79 72.11 91.79 72.08 91.76 72.06 91.76 72.03 91.73 72.03 91.73 72 91.7 71.97 91.67 71.72 91.47 71.72 93.8 71.97 93.54 72 93.52 72.03 93.49 72.06 93.46 72.08 93.46 72.08 93.43 72.11 93.4 72.14 93.4 72.17 93.37 72.2 93.37 72.23 93.34 72.23 93.34 72.25 93.32 72.28 93.32 72.31 93.29 72.34 93.29 72.37 93.29 72.4 93.26 72.42 93.26 72.45 93.26 72.48 93.23 72.51 93.23 72.54 93.23 72.54 93.2 72.57 93.2 72.59 93.2 72.62 93.2 72.65 93.2 72.68 93.2 72.74 93.2 72.77 93.2 72.79 93.2 74.13 93.2 74.13 94.68 74.13 94.71 74.13 94.73 74.13 94.79 74.13 94.82 74.1 94.85 74.1 94.88 74.1 94.9 74.1 94.93 74.1 94.96 74.07 94.99 74.07 94.99 74.07 95.02 74.07 95.05 74.04 95.07 74.04 95.1 74.04 95.13 74.01 95.13 74.01 95.16 73.98 95.19 73.98 95.22 73.98 95.22 73.96 95.24 73.96 95.27 73.93 95.27 73.93 95.3 73.9 95.33 73.87 95.33 73.87 95.36 73.84 95.39 73.84 95.39 73.81 95.41 73.47 95.67 76 95.67" style="fill: #fefefe"/>
    <path d="M74.81,86.66a15.65,15.65,0,0,1-2.3-.17,1.5,1.5,0,0,0-.37,0c-0.11,0-.09-0.09,0-0.17A0.21,0.21,0,0,0,72,86.06a0.65,0.65,0,0,1-.09-0.68l-0.09-.09a0.17,0.17,0,0,0,.09-0.17l-0.31-.48s-0.09,0-.11-0.06a0.41,0.41,0,0,1-.31-0.45,1,1,0,0,0-.71-0.82c0.11-.23.28-0.23,0.54,0a0.39,0.39,0,0,1,.6.31,0.39,0.39,0,0,1,.23-0.2c0.09,0.06.17,0.06,0.23-.09,0.37-.26.43,0.06,0.4,0.43a0.44,0.44,0,0,0-.23.4,0.58,0.58,0,0,0-.23.23,0.23,0.23,0,0,0,0,.34c0.37,0.43,1.13.4,1.08-.62h0a0.4,0.4,0,1,1,.4-0.4,0.44,0.44,0,0,1-.23.37,1.13,1.13,0,0,0,.31.54,0.63,0.63,0,0,0,.91,0c0.2-.2.37-0.71,0-0.85a0.67,0.67,0,0,1-.26.17l-0.2,0c-0.11.06-.2,0.06-0.2-0.11s0-.09-0.11-0.09-0.2-.4,0-0.43,0.23-.09.2-0.17a0.22,0.22,0,0,1,.26-0.09c0.11,0,.17,0,0.14-0.14s0-.31.11-0.34a0.22,0.22,0,0,0,.14-0.17,0.32,0.32,0,0,1,.57,0,0.16,0.16,0,0,0,.14.17c0.14,0,.2.11,0.11,0.34s0,0.17.14,0.14a0.22,0.22,0,0,1,.26.09,0.25,0.25,0,0,0,.23.17c0.2,0.06.14,0.43,0,.43s-0.14.06-.11,0.09-0.09.17-.2,0.11l-0.2,0a0.67,0.67,0,0,1-.26-0.17c-0.37.17-.17,0.65,0,0.85a0.63,0.63,0,0,0,.91,0A0.81,0.81,0,0,0,76.48,84a0.38,0.38,0,0,1-.23-0.37,0.4,0.4,0,1,1,.4.4h0c-0.06,1,.71,1,1.08.62a0.23,0.23,0,0,0,0-.34,0.58,0.58,0,0,0-.23-0.23,0.46,0.46,0,0,0-.23-0.4c0-.37,0-0.68.4-0.43,0.09,0.11.14,0.14,0.23,0.09a0.39,0.39,0,0,1,.23.2,0.38,0.38,0,0,1,.6-0.31c0.23-.23.43-0.2,0.54,0a1,1,0,0,0-.71.82,0.44,0.44,0,0,1-.31.45s-0.09,0-.11.06l-0.31.48a0.17,0.17,0,0,0,.09.17l-0.09.09a0.72,0.72,0,0,1-.09.68,0.24,0.24,0,0,0-.09.23c0.06,0.09.09,0.17,0,.17a1.62,1.62,0,0,0-.37,0,15.65,15.65,0,0,1-2.3.17H74.81Z" style="fill: #fc0"/>
    <path d="M75.83,70.92h0l-0.06-.14-0.06-.14-0.06-.14-0.06-.14-0.06-.14-0.06-.14-0.06-.14-0.06-.17-0.06-.17-0.06-.17-0.06-.17,0-.2,0-.2,0-.2,0-.23-0.43-1.3-0.4,1.3,0,0.23,0,0.2,0,0.2,0,0.2-0.06.17L74,69.59,74,69.76l-0.06.17-0.06.14-0.06.14-0.06.14-0.06.14-0.06.14-0.06.14-0.06.14h0l-0.65.45-0.31.26-0.28.26L72,72.17l-0.26.28-0.23.28-0.2.31-0.17.31L71,73.67,70.92,74l-0.11.34-0.09.34L70.67,75l0,0.34V76l0,0.34,0.06,0.34L70.81,77l0.09,0.31L71,77.64,71.15,78l0.17,0.31,0.17,0.28,0.2,0.28,0.23,0.28,0.23,0.26,0.26,0.26,0.28,0.23L73,80.08l0.31,0.2a2.49,2.49,0,0,0,2.72,0l0.31-.2,0.28-.23,0.28-.23,0.26-.26,0.23-.26,0.23-.28,0.2-.28L78,78.26,78.12,78l0.14-.31,0.11-.31L78.46,77l0.09-.31,0.06-.34,0-.34V75.34l0-.34-0.06-.34-0.09-.34L78.35,74l-0.11-.31-0.14-.31L77.92,73l-0.2-.31-0.23-.28-0.26-.28L77,71.89l-0.28-.26-0.31-.26-0.65-.45h0.09Z" style="fill: #fc0"/>
    <path d="M75.94,71.46a4.88,4.88,0,0,1-.34,8.59,4.12,4.12,0,0,0-.31-2,1.89,1.89,0,0,1,.14-1.84c1.39-1.39,1.28-2.95.54-4.73h0Zm-0.82,8.65c-0.34-2-.4-3.37,0-4.11a5.83,5.83,0,0,0,.74-2.81c0.06-1.73-.85-2.38-1.16-5-0.34,2.58-1.22,3.23-1.16,5A5.83,5.83,0,0,0,74.3,76c0.43,0.74.37,2.15,0,4.11h0.79Zm-1.59-8.65a4.88,4.88,0,0,0,.34,8.59,4.12,4.12,0,0,1,.31-2A1.89,1.89,0,0,0,74,76.2c-1.39-1.39-1.28-2.95-.54-4.73h0Z"/>
  </g>
</svg>
