<svg id="city_obn" data-name="obn" xmlns="http://www.w3.org/2000/svg" width="52.5mm" height="52.5mm" viewBox="0 0 148.82 148.82">
  <title>obn</title>
  <g id="obn">
    <path d="M17.77,118.94a11,11,0,0,0,1.9.17c2.83,0,5.75-1.22,8.67-2.44,3.09-1.3,6.21-2.61,9.38-2.61s6.29,1.3,9.38,2.61c2.92,1.22,5.84,2.44,8.67,2.44s5.75-1.22,8.67-2.44c3.09-1.3,6.21-2.61,9.38-2.61h0c3.43,0,6.77,1.3,10.09,2.58s6.32,2.47,9.41,2.47,6.24-1.22,9.41-2.47c3.34-1.3,6.66-2.58,10.09-2.58h0c3.43,0,6.77,1.3,10.09,2.58a32.24,32.24,0,0,0,8.14,2.38v1.9a32.73,32.73,0,0,1-8.82-2.52c-3.17-1.22-6.35-2.47-9.41-2.47h0c-3.09,0-6.24,1.22-9.41,2.47-3.34,1.3-6.66,2.58-10.09,2.58s-6.75-1.3-10.09-2.58c-3.17-1.22-6.35-2.47-9.41-2.47h0c-2.83,0-5.75,1.22-8.67,2.44C62.08,119.68,59,121,55.79,121s-6.29-1.3-9.38-2.61c-2.92-1.22-5.84-2.44-8.67-2.44s-5.75,1.22-8.67,2.44C26,119.68,22.85,121,19.67,121a14.27,14.27,0,0,1-1.9-.14l0-1.93Zm113.33-8.16v1.9a32.92,32.92,0,0,1-8.84-2.52c-3.17-1.22-6.35-2.47-9.41-2.47h0c-3.09,0-6.24,1.22-9.41,2.47-3.34,1.3-6.66,2.58-10.09,2.58s-6.75-1.3-10.09-2.58c-3.17-1.22-6.35-2.47-9.41-2.47h0c-2.83,0-5.75,1.22-8.67,2.44-3.09,1.3-6.21,2.61-9.38,2.61s-6.29-1.3-9.38-2.61c-2.92-1.22-5.84-2.44-8.67-2.44s-5.75,1.22-8.67,2.44c-3.09,1.3-6.21,2.61-9.38,2.61a15.13,15.13,0,0,1-2-.14l0-1.93a11.4,11.4,0,0,0,2,.17c2.83,0,5.75-1.22,8.67-2.44,3.09-1.3,6.21-2.61,9.38-2.61s6.29,1.3,9.38,2.61c2.92,1.22,5.84,2.44,8.67,2.44s5.75-1.22,8.67-2.44c3.09-1.3,6.21-2.61,9.38-2.61h0c3.43,0,6.77,1.3,10.09,2.58s6.32,2.47,9.41,2.47,6.24-1.22,9.41-2.47c3.34-1.3,6.66-2.58,10.09-2.58h0c3.43,0,6.77,1.3,10.09,2.58a31.3,31.3,0,0,0,8.16,2.38Zm0,4.14v1.9a32.73,32.73,0,0,1-8.82-2.52c-3.17-1.22-6.35-2.47-9.41-2.47h0c-3.09,0-6.24,1.22-9.41,2.47-3.34,1.3-6.66,2.58-10.09,2.58s-6.75-1.3-10.09-2.58c-3.17-1.22-6.35-2.47-9.41-2.47h0c-2.83,0-5.75,1.22-8.67,2.44-3.09,1.3-6.21,2.61-9.38,2.61s-6.29-1.3-9.38-2.61c-2.92-1.22-5.84-2.44-8.67-2.44S32,113,29.06,114.26c-3.09,1.3-6.21,2.61-9.38,2.61a14.7,14.7,0,0,1-1.93-.14l0-1.93a11.32,11.32,0,0,0,1.93.17c2.83,0,5.75-1.22,8.67-2.44,3.09-1.3,6.21-2.61,9.38-2.61s6.29,1.3,9.38,2.61C50,113.75,52.92,115,55.76,115s5.75-1.22,8.67-2.44c3.09-1.3,6.21-2.61,9.38-2.61h0c3.43,0,6.77,1.3,10.09,2.58S90.23,115,93.32,115s6.24-1.22,9.41-2.47c3.34-1.3,6.66-2.58,10.09-2.58h0c3.43,0,6.77,1.3,10.09,2.58a32.43,32.43,0,0,0,8.16,2.38v0Z" style="fill: #999"/>
    <g id="_980254704" data-name=" 980254704">
      <path d="M74.72,37.93c3.63,0,6.55,9.24,6.55,20.64S78.32,79.2,74.72,79.2,68.17,70,68.17,58.56,71.12,37.93,74.72,37.93Zm0,3.88c2.95,0,5.33,7.51,5.33,16.75s-2.38,16.75-5.33,16.75-5.33-7.51-5.33-16.75S71.77,41.81,74.72,41.81Z"/>
      <path d="M60.15,44c2.55-2.55,11.17,1.9,19.22,9.95S91.9,70.58,89.32,73.13s-11.17-1.9-19.22-9.95S57.57,46.52,60.15,44Zm2.75,2.75C65,44.65,72,48.25,78.52,54.79S88.67,68.31,86.6,70.41,77.53,68.88,71,62.33,60.83,48.81,62.9,46.71Z"/>
      <path d="M54.11,58.56c0-3.63,9.24-6.55,20.64-6.55S95.39,55,95.39,58.56s-9.24,6.55-20.64,6.55S54.11,62.16,54.11,58.56Zm3.88,0c0-2.95,7.51-5.33,16.75-5.33S91.5,55.62,91.5,58.56,84,63.89,74.75,63.89,58,61.51,58,58.56Z"/>
      <path d="M60.15,73.13C57.6,70.58,62.05,62,70.1,53.91S86.77,41.39,89.32,44s-1.9,11.17-9.95,19.22S62.7,75.71,60.15,73.13Zm2.75-2.75c-2.07-2.07,1.53-9.07,8.08-15.62S84.5,44.62,86.6,46.69s-1.53,9.07-8.08,15.62S65,72.45,62.9,70.38Z"/>
      <path d="M74.81,54.79A3.83,3.83,0,1,1,71,58.62,3.83,3.83,0,0,1,74.81,54.79Z"/>
    </g>
    <g id="_980250608" data-name=" 980250608">
      <g>
        <path d="M78,86.77s1-.91,2-4.05c0.68-2.3,3.83-3.06,4.76-4.25,0.26,1.28.4,4.48-3.37,7.14,3.83-1.84,6.07-1.59,9-.57-1.42,1.87-5.27,3.74-10.15,2.24A21.62,21.62,0,0,0,78,86.77Z" style="fill: #fc0"/>
        <path d="M88.84,80.45a10.7,10.7,0,0,0-7.94,5.24C85.58,85.44,88.44,83.08,88.84,80.45Z" style="fill: #fc0"/>
      </g>
      <g>
        <path d="M86.49,82.46s0.85-1,1.3-4.14c0.34-2.27,3.23-3.46,3.94-4.71,0.43,1.19,1,4.22-2.21,7.26,3.4-2.27,5.58-2.35,8.56-1.79-1.11,2-4.51,4.31-9.38,3.54C88.13,82.54,87.53,82.52,86.49,82.46Z" style="fill: #fc0"/>
        <path d="M95.92,74.95A10.38,10.38,0,0,0,89.06,81C93.49,80.16,95.9,77.53,95.92,74.95Z" style="fill: #fc0"/>
      </g>
      <g>
        <path d="M93.54,77.13s0.45-1.08-.06-3.91c-0.34-2,1.79-3.74,2.07-5A6,6,0,0,1,95.7,75a8.35,8.35,0,0,1,6.8-3.57c-0.4,2-2.66,4.79-7,5.27a19.35,19.35,0,0,0-1.93.37v0Z" style="fill: #fc0"/>
        <path d="M99.5,68.4a8.81,8.81,0,0,0-4.17,6.89C98.87,73.47,100.18,70.64,99.5,68.4Z" style="fill: #fc0"/>
      </g>
      <g>
        <path d="M98.28,70.33s0.11-1.16-1.19-3.71c-0.94-1.87.62-4.11,0.51-5.39a6,6,0,0,1,2.1,6.49,8.31,8.31,0,0,1,5.47-5.39c0.2,2-1.13,5.36-5.16,7.09C99.55,69.65,99.07,69.87,98.28,70.33Z" style="fill: #fc0"/>
        <path d="M101.42,60.24a8.65,8.65,0,0,0-2,7.8C102.33,65.28,102.76,62.16,101.42,60.24Z" style="fill: #fc0"/>
      </g>
      <g>
        <path d="M100.8,62.31a7.45,7.45,0,0,0-1.33-3.2c-0.94-1.59.11-3.54-.09-4.62a5.86,5.86,0,0,1,2.35,5.58c0.82-2.86,2-3.8,4-4.65a5.73,5.73,0,0,1-3.6,6.09A10,10,0,0,0,100.8,62.31Z" style="fill: #fc0"/>
        <path d="M102.44,53.66a7.35,7.35,0,0,0-.88,6.72C103.66,58,103.72,55.33,102.44,53.66Z" style="fill: #fc0"/>
      </g>
      <g>
        <path d="M102.25,55.62a6.79,6.79,0,0,0-1.79-2.72c-1.16-1.3-.48-3.32-0.88-4.31a5.46,5.46,0,0,1,3.15,4.76,5.88,5.88,0,0,1,2.95-5.07,5.62,5.62,0,0,1-2.32,6.38,12,12,0,0,0-1.13,1Z" style="fill: #fc0"/>
        <path d="M102.3,47.2a7,7,0,0,0,.31,6.43C104.17,51,103.75,48.53,102.3,47.2Z" style="fill: #fc0"/>
      </g>
      <g>
        <path d="M102.61,48.59a6.5,6.5,0,0,0-2.69-1.42c-1.56-.54-1.9-2.55-2.64-3.2A4.87,4.87,0,0,1,102,46.43a6,6,0,0,1,.2-5.73c1.22,1,2.27,3.51.91,6.49a14.44,14.44,0,0,0-.48,1.39h0Z" style="fill: #fc0"/>
        <path d="M98.93,41.47A6.53,6.53,0,0,0,102,46.71C102.19,43.77,100.71,41.84,98.93,41.47Z" style="fill: #fc0"/>
      </g>
      <g>
        <path d="M99.95,42.86a6.19,6.19,0,0,0-3-.37c-1.64.06-2.66-1.7-3.6-2a4.87,4.87,0,0,1,5.3.6,5.9,5.9,0,0,1-1.84-5.41c1.47,0.48,3.34,2.47,3.15,5.75A13.94,13.94,0,0,0,99.95,42.86Z" style="fill: #fc0"/>
        <path d="M94,37.56a6.52,6.52,0,0,0,4.79,3.8C97.82,38.55,95.81,37.3,94,37.56Z" style="fill: #fc0"/>
      </g>
      <g>
        <path d="M95.33,38.44a6.08,6.08,0,0,0-2.95,0c-1.56.23-2.78-1.33-3.71-1.56a4.74,4.74,0,0,1,5.19,0,5.68,5.68,0,0,1-2.41-5c1.47,0.31,3.51,2,3.71,5.16,0,0.37.09,0.77,0.2,1.42h0Z" style="fill: #fc0"/>
        <path d="M89,34a6.31,6.31,0,0,0,5,3.09C92.78,34.47,90.68,33.51,89,34Z" style="fill: #fc0"/>
      </g>
      <g>
        <path d="M89.91,34.53a5.57,5.57,0,0,0-2.75.48c-1.42.48-2.81-.79-3.71-0.82a4.48,4.48,0,0,1,4.82-.88,5.38,5.38,0,0,1-3.06-4.25c1.42,0,3.6,1.28,4.31,4.22a10.93,10.93,0,0,0,.43,1.28Z" style="fill: #fc0"/>
        <path d="M83.25,31.44a6,6,0,0,0,5.22,2.07C86.91,31.27,84.78,30.73,83.25,31.44Z" style="fill: #fc0"/>
      </g>
      <g>
        <path d="M84,31.69a5.43,5.43,0,0,0-2.38,1.13c-1.16.79-2.75,0-3.6,0.2a4.29,4.29,0,0,1,4.17-2,5.14,5.14,0,0,1-3.88-3.09c1.3-.34,3.6.23,5,2.72,0.17,0.28.37,0.57,0.71,1v0Z" style="fill: #fc0"/>
        <path d="M77.16,30.59a5.65,5.65,0,0,0,5.27.54C80.45,29.51,78.35,29.54,77.16,30.59Z" style="fill: #fc0"/>
      </g>
    </g>
    <g id="_980223152" data-name=" 980223152">
      <g>
        <path d="M70.7,86.77s-1-.91-2-4.05c-0.68-2.3-3.83-3.06-4.76-4.25-0.26,1.28-.4,4.48,3.37,7.14-3.83-1.84-6.07-1.59-9-.57,1.42,1.87,5.27,3.74,10.15,2.24A21.62,21.62,0,0,1,70.7,86.77Z" style="fill: #fc0"/>
        <path d="M59.9,80.45a10.7,10.7,0,0,1,7.94,5.24C63.16,85.44,60.29,83.08,59.9,80.45Z" style="fill: #fc0"/>
      </g>
      <g>
        <path d="M62.25,82.46s-0.85-1-1.3-4.14c-0.34-2.27-3.23-3.46-3.94-4.71-0.43,1.19-1,4.22,2.21,7.26-3.4-2.27-5.58-2.35-8.56-1.79,1.11,2,4.51,4.31,9.38,3.54C60.6,82.54,61.2,82.52,62.25,82.46Z" style="fill: #fc0"/>
        <path d="M52.81,74.95A10.38,10.38,0,0,1,59.67,81C55.25,80.16,52.84,77.53,52.81,74.95Z" style="fill: #fc0"/>
      </g>
      <g>
        <path d="M55.19,77.13s-0.45-1.08.06-3.91c0.34-2-1.79-3.74-2.07-5A6,6,0,0,0,53,75a8.35,8.35,0,0,0-6.8-3.57c0.4,2,2.66,4.79,7,5.27a19.35,19.35,0,0,1,1.93.37v0Z" style="fill: #fc0"/>
        <path d="M49.24,68.4a8.81,8.81,0,0,1,4.17,6.89C49.86,73.47,48.56,70.64,49.24,68.4Z" style="fill: #fc0"/>
      </g>
      <g>
        <path d="M50.46,70.33s-0.11-1.16,1.19-3.71c0.94-1.87-.62-4.11-0.51-5.39A6,6,0,0,0,49,67.72a8.31,8.31,0,0,0-5.47-5.39c-0.2,2,1.13,5.36,5.16,7.09C49.18,69.65,49.66,69.87,50.46,70.33Z" style="fill: #fc0"/>
        <path d="M47.31,60.24a8.65,8.65,0,0,1,2,7.8C46.4,65.28,46,62.16,47.31,60.24Z" style="fill: #fc0"/>
      </g>
      <g>
        <path d="M47.93,62.31a7.45,7.45,0,0,1,1.33-3.2c0.94-1.59-.11-3.54.09-4.62A5.86,5.86,0,0,0,47,60.07c-0.82-2.86-2-3.8-4-4.65a5.73,5.73,0,0,0,3.6,6.09A10,10,0,0,1,47.93,62.31Z" style="fill: #fc0"/>
        <path d="M46.29,53.66a7.35,7.35,0,0,1,.88,6.72C45.07,58,45,55.33,46.29,53.66Z" style="fill: #fc0"/>
      </g>
      <g>
        <path d="M46.49,55.62a6.79,6.79,0,0,1,1.79-2.72c1.16-1.3.48-3.32,0.88-4.31A5.46,5.46,0,0,0,46,53.35a5.88,5.88,0,0,0-2.95-5.07,5.62,5.62,0,0,0,2.32,6.38,12,12,0,0,1,1.13,1Z" style="fill: #fc0"/>
        <path d="M46.43,47.2a7,7,0,0,1-.31,6.43C44.56,51,45,48.53,46.43,47.2Z" style="fill: #fc0"/>
      </g>
      <g>
        <path d="M46.12,48.59a6.5,6.5,0,0,1,2.69-1.42c1.56-.54,1.9-2.55,2.64-3.2a4.87,4.87,0,0,0-4.73,2.47,6,6,0,0,0-.2-5.73c-1.22,1-2.27,3.51-.91,6.49a14.44,14.44,0,0,1,.48,1.39h0Z" style="fill: #fc0"/>
        <path d="M49.8,41.47a6.53,6.53,0,0,1-3.12,5.24C46.54,43.77,48,41.84,49.8,41.47Z" style="fill: #fc0"/>
      </g>
      <g>
        <path d="M48.78,42.86a6.19,6.19,0,0,1,3-.37c1.64,0.06,2.66-1.7,3.6-2a4.87,4.87,0,0,0-5.3.6A5.9,5.9,0,0,0,52,35.63c-1.47.48-3.34,2.47-3.15,5.75C48.81,41.75,48.81,42.18,48.78,42.86Z" style="fill: #fc0"/>
        <path d="M54.77,37.56A6.52,6.52,0,0,1,50,41.36C50.91,38.55,52.92,37.3,54.77,37.56Z" style="fill: #fc0"/>
      </g>
      <g>
        <path d="M53.4,38.44a6.08,6.08,0,0,1,2.95,0c1.56,0.23,2.78-1.33,3.71-1.56a4.74,4.74,0,0,0-5.19,0,5.68,5.68,0,0,0,2.41-5c-1.47.31-3.51,2-3.71,5.16,0,0.37-.09.77-0.2,1.42h0Z" style="fill: #fc0"/>
        <path d="M59.78,34a6.31,6.31,0,0,1-5,3.09C56,34.47,58.05,33.51,59.78,34Z" style="fill: #fc0"/>
      </g>
      <g>
        <path d="M58.82,34.53a5.57,5.57,0,0,1,2.75.48c1.42,0.48,2.81-.79,3.71-0.82a4.48,4.48,0,0,0-4.82-.88,5.38,5.38,0,0,0,3.06-4.25c-1.42,0-3.6,1.28-4.31,4.22a10.93,10.93,0,0,1-.43,1.28Z" style="fill: #fc0"/>
        <path d="M65.48,31.44a6,6,0,0,1-5.22,2.07C61.82,31.27,63.95,30.73,65.48,31.44Z" style="fill: #fc0"/>
      </g>
      <g>
        <path d="M64.71,31.69a5.43,5.43,0,0,1,2.38,1.13c1.16,0.79,2.75,0,3.6.2a4.29,4.29,0,0,0-4.17-2,5.14,5.14,0,0,0,3.88-3.09c-1.3-.34-3.6.23-5,2.72-0.17.28-.37,0.57-0.71,1v0Z" style="fill: #fc0"/>
        <path d="M71.57,30.59a5.65,5.65,0,0,1-5.27.54C68.29,29.51,70.38,29.54,71.57,30.59Z" style="fill: #fc0"/>
      </g>
    </g>
  </g>
</svg>
