<svg id="city_sdvin" data-name="sdvin" xmlns="http://www.w3.org/2000/svg" width="52.5mm" height="52.5mm" viewBox="0 0 148.82 148.82">
  <title>sdvin</title>
  <g id="sdvin">
    <path id="path2941-1" d="M22.73,110.44c0,5.16,5.16,10.35,10.35,10.35h31c5.16,0,10.35,5.64,10.35,10.35,0-4.71,5.16-10.35,10.35-10.35h31c5.16,0,10.35-5.16,10.35-10.35v-7.23s-3-2.07-4.71-2.07-4.71,2.07-4.71,2.07-3,2.07-4.71,2.07-4.71-2.07-4.71-2.07-3-2.07-4.71-2.07-4.71,2.07-4.71,2.07-3,2.07-4.71,2.07-4.71-2.07-4.71-2.07-3-2.07-4.71-2.07-4.71,2.07-4.71,2.07-3,2.07-4.71,2.07-4.71-2.07-4.71-2.07-3-2.07-4.71-2.07-4.71,2.07-4.71,2.07-3,2.07-4.71,2.07-4.71-2.07-4.71-2.07-3-2.07-4.71-2.07-4.71,2.07-4.71,2.07-3,2.07-4.71,2.07S32,103.21,32,103.21s-3-2.07-4.71-2.07-4.71,2.07-4.71,2.07v7.23h0.11Z" style="fill: #999"/>
    <path id="path2880" d="M87.59,38.21a12.35,12.35,0,0,0,3-5,12.58,12.58,0,0,1,3.09-5.07c2.69-3.06,7.68-3.15,9,.88,0,0,2.1,7.74,3.46,11.91s4.2,11.68,4.2,11.68c1.3,4-2.78,6.89-6.75,6a12.65,12.65,0,0,1-5.47-2.3A12.44,12.44,0,0,0,92.61,54c-3.91-.14-4.73,3.17-1.62,5.33a12.23,12.23,0,0,0,5.7,1.33,12.36,12.36,0,0,1,5.78,1.36c3.74,1.62,5.36,6.32,1.93,8.82,0,0-6.72,4.39-10.26,7s-9.81,7.6-9.81,7.6c-3.43,2.49-7.4-.51-7.8-4.56A12.57,12.57,0,0,1,77,74.95a12.45,12.45,0,0,0,.45-6c-1.08-3.77-4.48-3.51-5.56.11a12.63,12.63,0,0,0,.48,5.84,12.58,12.58,0,0,1,.48,5.92c-0.4,4.05-4.37,7.06-7.8,4.56,0,0-6.26-5-9.81-7.6s-10.26-7-10.26-7c-3.43-2.49-1.81-7.2,1.93-8.82a12.79,12.79,0,0,1,5.78-1.36,12.77,12.77,0,0,0,5.81-1.39c3.23-2.18,2-5.36-1.81-5.24a12.83,12.83,0,0,0-5.41,2.27,12.65,12.65,0,0,1-5.47,2.3c-4,.88-8.05-2-6.75-6,0,0,2.83-7.51,4.2-11.68S46.74,29,46.74,29c1.3-4,6.29-3.94,9-.88a13,13,0,0,1,3.09,5.07,12.42,12.42,0,0,0,3.12,5.1c3.06,2.41,5.7.23,4.42-3.37a12.6,12.6,0,0,0-3.83-4.45A12.78,12.78,0,0,1,58.65,26c-2.07-3.51-.62-8.28,3.63-8.28,0,0,8,.4,12.42.4s12.42-.4,12.42-0.4c4.25,0,5.7,4.76,3.63,8.28a12.41,12.41,0,0,1-3.88,4.51A12.72,12.72,0,0,0,83,35c-1.33,3.66,1.47,5.56,4.56,3.17h0.06Zm-10.52,2a2.32,2.32,0,1,1,4.65,0H77.07Zm-6.86.71A2.33,2.33,0,1,1,74,38.15l-3.77,2.72v0Zm-5.13,4.62A2.32,2.32,0,1,1,66.5,41.1l-1.45,4.42h0Zm-1.45,6.75a2.32,2.32,0,0,1-1.42-4.42l1.45,4.42h0Zm2.81,6.32a2.33,2.33,0,0,1-3.77-2.75l3.77,2.72v0Zm6,3.46a2.32,2.32,0,0,1-4.65,0h4.65Zm6.86-.71a2.33,2.33,0,1,1-3.77,2.75l3.77-2.72v0Zm5.13-4.62A2.32,2.32,0,0,1,83,61.14l1.45-4.42h0ZM85.86,50a2.32,2.32,0,1,1,1.42,4.42L85.83,50h0Zm-2.81-6.32a2.33,2.33,0,0,1,3.77,2.75l-3.77-2.72v0ZM67.24,51.14a7.51,7.51,0,1,1,7.51,7.51A7.51,7.51,0,0,1,67.24,51.14Z" style="fill: #fc0"/>
  </g>
</svg>
