<svg id="city_vnov" data-name="vnov" xmlns="http://www.w3.org/2000/svg" width="52.5mm" height="52.5mm" viewBox="0 0 148.82 148.82">
  <title>vnov</title>
  <g id="vnov">
    <path d="M88.33,99.41c-0.77.28-1.53,0.54-2.27,0.79a50.37,50.37,0,0,1-6.18,1.67H90.23v-1h0c1.22-.09.85-2,3.83-2.15h0v3.12h3.12V105H94.05v2.13H90.74c0.11,6.15,1,11.11,2.89,14.74a12,12,0,0,0,8.42,6.75l0.26,0.06v0.26l0,2.18H46.52l0-2.18v-0.26l0.26-.06a12,12,0,0,0,8.42-6.75c1.84-3.63,2.78-8.56,2.89-14.74H54.79V105H51.68v-3.15h3.12V98.73c3,0.2,2.61,2.07,3.83,2.15v1H69a57.73,57.73,0,0,1-8.48-2.47,3.35,3.35,0,0,0-1.11-3.32l0,0a31.17,31.17,0,0,1,10-5,21.16,21.16,0,0,1,2.15-.48l1.5-2.69-3.51-6.26L69,81.89c-1.64.57-2.61-1.5-.68-2.47a25.46,25.46,0,0,1-4.25-4.71A28,28,0,0,1,63,80.14,11.72,11.72,0,0,1,60,84.93c0.2,0.34.34,0.65,0.48,0.94A2.91,2.91,0,0,0,60,84.93c-0.57-1-2.21-1.25-4.59-1.11a11.35,11.35,0,0,0,1.13-.91A13.87,13.87,0,0,0,58,81.44c2.15-2.69,3.34-6.75,3.4-11.45C59,65.11,58.34,61.31,55,55.73a45.17,45.17,0,0,0-9.55-11.42l3-.37-1.3-2.24a0.86,0.86,0,0,1-.14.2c-0.06.09-.14,0.14-0.2,0.23a1.3,1.3,0,0,1-.37.23,1.68,1.68,0,0,1-1,.09,1.44,1.44,0,0,1-.85-0.62,0.71,0.71,0,0,1-.11-0.2,1.63,1.63,0,0,1-.11-1c0-.06,0-0.14,0-0.2l0.09-.28a3.85,3.85,0,0,1,1.08-1.39l-1.64-3a1.82,1.82,0,0,1-.28-0.37h0a1.6,1.6,0,0,1-.14-1.19,1.52,1.52,0,0,1,.74-0.94h0a1.73,1.73,0,0,1,.34-0.14,1.42,1.42,0,0,1,.34-0.06,1.57,1.57,0,0,1,1.47.82h0a1.34,1.34,0,0,1,.17.43l1.64,3a4.13,4.13,0,0,1,1.73-.17c0.09,0,.2,0,0.28.06l0.2,0.09a2,2,0,0,1,.77.6,0.71,0.71,0,0,1,.11.2,1.49,1.49,0,0,1,.06,1,1.67,1.67,0,0,1-.62.85,1.73,1.73,0,0,1-.4.2,1.25,1.25,0,0,1-.28.06H49.75L51,42.55l2-2.38c0.85,5.07,1.67,8.67,4.05,13.35A61.62,61.62,0,0,0,61.31,60V54.82H60.12V52.27h1.19V48h2.92v4.28h1.19v2.55H64.23v3.74a21.81,21.81,0,0,0,3.83,1.33,27,27,0,0,0,5.16.71v-10a1.77,1.77,0,0,1-1.19.45h0a1.82,1.82,0,0,1-1.3-.54h0a1.82,1.82,0,0,1-.54-1.3h0a1.82,1.82,0,0,1,.54-1.3h0a1.82,1.82,0,0,1,1.3-.54h0.2a3.3,3.3,0,0,0-.57-0.51,5.56,5.56,0,0,0-1.47-.65,19.81,19.81,0,0,0-2.32-.51h0c-2.38-.43-4-0.88-5-1.76a4.7,4.7,0,0,1-1.45-3.4H59.75V38.27h1.53V25.09h0.48a7.5,7.5,0,0,1-.6-1.3,6.1,6.1,0,0,1-.31-1.93h0a6.6,6.6,0,0,1,.31-2,1.38,1.38,0,0,1,.11-0.31,6.3,6.3,0,0,1,.82-1.47l0.26-.37,0.28,0.37h0a4.62,4.62,0,0,1,.31.48h0a4.59,4.59,0,0,1,.28.51,6.37,6.37,0,0,1,.65,2.81,6.24,6.24,0,0,1-.31,1.93,7.5,7.5,0,0,1-.6,1.3h0.48V38.3H65v2.27H63.61a4,4,0,0,0,1.25,1.84,6.92,6.92,0,0,0,3.37,1.33,15.2,15.2,0,0,1,3.88,1,4.49,4.49,0,0,1,1.16.74v-4.9H71.74V38.3h1.53V25.11h0.48a7.5,7.5,0,0,1-.6-1.3,6.1,6.1,0,0,1-.31-1.93h0a6.6,6.6,0,0,1,.31-2,1.38,1.38,0,0,1,.11-0.31,6.3,6.3,0,0,1,.82-1.47l0.26-.37,0.28,0.37h0a4.62,4.62,0,0,1,.31.48h0a4.59,4.59,0,0,1,.28.51,6.37,6.37,0,0,1,.65,2.81,6.24,6.24,0,0,1-.31,1.93,7.5,7.5,0,0,1-.6,1.3h0.48V38.32H77v2.27H75.46v4.9a5.4,5.4,0,0,1,1.16-.74,14.89,14.89,0,0,1,3.88-1,7,7,0,0,0,3.37-1.33,4,4,0,0,0,1.25-1.84H83.74V38.32h1.53V25.14h0.48a7.5,7.5,0,0,1-.6-1.3,6.1,6.1,0,0,1-.31-1.93,6.37,6.37,0,0,1,.65-2.81,4.59,4.59,0,0,1,.28-0.51h0a4.62,4.62,0,0,1,.31-0.48h0l0.28-.37,0.26,0.37a7.52,7.52,0,0,1,.82,1.47c0,0.11.09,0.2,0.11,0.31a6.6,6.6,0,0,1,.31,2h0a6.24,6.24,0,0,1-.31,1.93,7.5,7.5,0,0,1-.6,1.3h0.48V38.3H89v2.27H87.31A4.7,4.7,0,0,1,85.86,44c-1,.88-2.61,1.33-5,1.76h0a15.34,15.34,0,0,0-2.32.51,5.48,5.48,0,0,0-1.47.65,2.44,2.44,0,0,0-.57.51h0.2a1.82,1.82,0,0,1,1.3.54h0a1.82,1.82,0,0,1,.54,1.3h0a1.82,1.82,0,0,1-.54,1.3h0a1.82,1.82,0,0,1-1.3.54h0a1.77,1.77,0,0,1-1.19-.45v10a24.89,24.89,0,0,0,5.16-.71,21,21,0,0,0,3.83-1.33V54.85H83.31V52.3H84.5V48h2.92V52.3h1.19v2.55H87.42v7.4L99.84,39.83l-3.63-2-0.28-.17-0.28-.17,0.17-.28L96,36.91,96.49,36l0.17-.28,0.17-.28,0.28,0.17,0.28,0.17,3.63,2,2.83-5.1,0.17-.28,0.17-.28,0.28,0.17,0.28,0.17,0.48,0.26,0.48,0.26L106,33.11l0.28,0.17-0.17.28-0.17.28-2.83,5.1,3.63,2L107,41.13l0.28,0.17-0.17.28-0.17.28-0.51.94-0.17.28-0.17.28-0.28-.17L105.56,43l-3.63-2L87.39,67.24V70c0,4.93,1.19,8.79,3.43,11.57A11.61,11.61,0,0,0,92.24,83c0.37,0.31.74,0.62,1.13,0.91-2.38-.14-4,0.14-4.59,1.11h0a11.72,11.72,0,0,1-2.92-4.79,27.6,27.6,0,0,1-1.33-7.88L76.05,87.65c0.6,1,1.16,2.1,1.76,3.17A24,24,0,0,1,81,91.7a28.87,28.87,0,0,1,8.45,4.54h0a3.34,3.34,0,0,0-1.08,3.32h0Zm-44.7-64h0Zm0,0h0Zm0,0h0Zm0,0h0Zm0,0h0Zm0.62-2.15h0ZM57.74,131.1H91.08a12.82,12.82,0,0,1-6.58-6.18C82.74,121.52,82,117,82,111.71H77.16c0.06,0.2.11,0.43,0.17,0.65l0.11,0.51-0.51-.11a3.83,3.83,0,0,1-1.36-.68v0.14h0a3,3,0,0,1-.28,1.3,1,1,0,0,1-.88.65h0a1,1,0,0,1-.88-0.65,3,3,0,0,1-.28-1.3h0v-0.14a4.09,4.09,0,0,1-1.36.68l-0.51.11,0.11-.51c0.06-.23.11-0.45,0.17-0.65H66.78c0,5.33-.77,9.81-2.52,13.21a12.71,12.71,0,0,1-6.58,6.18h0.06ZM90.2,95.64V88.21h0a3.12,3.12,0,0,1,3-.48l-0.48,1.45L94,88.27h0v6L90.2,95.67v0Zm-0.34-7.26c-1,.45-1.53.37-1.73-0.06A1.47,1.47,0,0,0,89.86,88.38ZM88.3,85.89A2.91,2.91,0,0,1,88.78,85C88.58,85.29,88.44,85.61,88.3,85.89Zm-10.46,4.9c0.2,0,.37.09,0.57,0.11a8.12,8.12,0,0,1,.79.2c0.6,0.14,1.16.34,1.76,0.51a26.08,26.08,0,0,0-3.15-.88,24,24,0,0,1,3.15.88,26.08,26.08,0,0,0-3.15-.88,0,0,0,0,0,0,0v0ZM58.62,95.67V88.24a3.12,3.12,0,0,0-3-.48l0.48,1.45-1.33-.91v6l3.83,1.42v0ZM59,88.41c1,0.43,1.5.34,1.7-.09A1.46,1.46,0,0,1,59,88.41Zm15.56-3.12,7.26-13.07a24.39,24.39,0,0,1-3.83.54c-0.57,0-1.16.06-1.79,0.06s-1.22,0-1.81-.09-1.19.06-1.81,0.09-1.19,0-1.79-.06-1.19-.14-1.67-0.2A25.82,25.82,0,0,1,70.61,78a1.35,1.35,0,1,1,1.56,2.18l-0.31.2,2.66,4.88Z" style="fill: #fc0"/>
    <path d="M55.47,83.82c2.38-.14,4,0.14,4.59,1.11,0.2,0.34.34,0.65,0.48,0.94a1.81,1.81,0,0,1,.06.2,3.88,3.88,0,0,1,.11,2.24,1.46,1.46,0,0,1-1.7.09l-0.37-.17a3.12,3.12,0,0,0-3-.48l0.48,1.45-1.33-.91a6.08,6.08,0,0,0-1.93-.77C53,88,53,88.41,53.09,88.87a3.37,3.37,0,0,0-2.24-1,2.35,2.35,0,0,1-2.07-1.53c-0.17.31-.34,0.62-0.54,0.94A14.83,14.83,0,0,1,45,81.61c0.11,4.2,5.19,10.15,9.81,12.64l3.83,1.42a5.29,5.29,0,0,1,.79.45,3.35,3.35,0,0,1,1.11,3.32,2.71,2.71,0,0,1-1.9,1.5c-1.22-.09-0.85-2-3.83-2.15a1.39,1.39,0,0,1-.65-0.62c0,0.45-.06.91-0.11,1.36a15.53,15.53,0,0,0-3.69-2.41V98.7a16.38,16.38,0,0,0-3.69-2.58,7.25,7.25,0,0,1-3.49-3A4.23,4.23,0,0,0,44.87,96c1.3,0.77,2.27,2.44,1.93,5a11.45,11.45,0,0,0,.28,4.05c-0.4-.17-0.77-0.34-1.16-0.54a3.52,3.52,0,0,0-.54,3.37c-1.42-.34-1.87,0-1.56,1.64a11.47,11.47,0,0,1-2.58-3,7.5,7.5,0,0,0,1.9,4.28c1.62,1.76,2.18,4.62.91,8.19-0.62,1.79-5,4.59-4.34,7.23,1.13,4.14,3.69,1.7,4.68,2.72a2.22,2.22,0,0,1,.48,2.27H35l-3.57-7.26c2.18-4.08,2.41-6.72-1.7-6.15a7,7,0,0,0-1.16-2.86,6.26,6.26,0,0,1-1.25-2.21,9.77,9.77,0,0,1-5.07,1.7c1.33-.79,2.35-1.67,2.27-2.83a3.13,3.13,0,0,1,.79-1.84H24.21a7.51,7.51,0,0,1,.79-5.36,7.64,7.64,0,0,0-.79.11,8.62,8.62,0,0,1,1-5.47H24.09A18,18,0,0,1,26.19,92c-0.43,0-.85-0.06-1.3-0.11a12.62,12.62,0,0,1,2.58-6.75c-0.43,0-.85-0.06-1.3-0.11a12.38,12.38,0,0,1,4-6.94L29,77.9a11.19,11.19,0,0,1,4.76-6.26l-1-.31a5.84,5.84,0,0,1,2.35-3.17c1.16-.77,2.18-1.87,3.49-2.61a4,4,0,0,0-1-3.37,8.65,8.65,0,0,1,2.15.62,6.81,6.81,0,0,0,3.34.14c2.41-.28,4.88.09,6.6,2.38a0.91,0.91,0,0,0,.74.34,13.1,13.1,0,0,1,4.11.51,2.55,2.55,0,0,1-2.55,2.44c-2.21.2-1.45,0.62-1.42,1.19a3,3,0,0,1,2.49-.26c0,1.45-1.39,1.59-2.49,1.79-3.2.6-3,5.22-2.69,8.87,2.61,2,5,3.34,7.37,3.66ZM45.64,62.45a4.83,4.83,0,0,0-2.47,0,4.11,4.11,0,0,1,.51-1.84,6,6,0,0,0,.4-1.45,5,5,0,0,1,1.56,3.26v0Z"/>
    <path d="M93.34,83.82c-2.38-.14-4,0.14-4.59,1.11-0.2.34-.34,0.65-0.48,0.94a1.81,1.81,0,0,0-.06.2,3.88,3.88,0,0,0-.11,2.24,1.46,1.46,0,0,0,1.7.09l0.37-.17a3.12,3.12,0,0,1,3-.48l-0.48,1.45L94,88.27a6.08,6.08,0,0,1,1.93-.77c-0.06.45-.14,0.91-0.2,1.36a3.37,3.37,0,0,1,2.24-1A2.35,2.35,0,0,0,100,86.34c0.17,0.31.34,0.62,0.54,0.94a14.83,14.83,0,0,0,3.26-5.67c-0.11,4.2-5.19,10.15-9.81,12.64L90.2,95.67a5.29,5.29,0,0,0-.79.45,3.35,3.35,0,0,0-1.11,3.32,2.71,2.71,0,0,0,1.9,1.5c1.22-.09.85-2,3.83-2.15a1.39,1.39,0,0,0,.65-0.62c0,0.45.06,0.91,0.11,1.36a15.53,15.53,0,0,1,3.69-2.41V98.7a16.38,16.38,0,0,1,3.69-2.58,7.25,7.25,0,0,0,3.49-3,4.23,4.23,0,0,1-1.7,2.86c-1.3.77-2.27,2.44-1.93,5a11.45,11.45,0,0,1-.28,4.05c0.4-.17.77-0.34,1.16-0.54a3.52,3.52,0,0,1,.54,3.37c1.42-.34,1.87,0,1.56,1.64a11.47,11.47,0,0,0,2.58-3,7.5,7.5,0,0,1-1.9,4.28c-1.62,1.76-2.18,4.62-.91,8.19,0.62,1.79,5,4.59,4.34,7.23-1.13,4.14-3.69,1.7-4.68,2.72a2.22,2.22,0,0,0-.48,2.27h9.86l3.57-7.26c-2.18-4.08-2.41-6.72,1.7-6.15a7,7,0,0,1,1.16-2.86,6.26,6.26,0,0,0,1.25-2.21,9.77,9.77,0,0,0,5.07,1.7c-1.33-.79-2.35-1.67-2.27-2.83a3.13,3.13,0,0,0-.79-1.84h1.11a7.51,7.51,0,0,0-.79-5.36,7.64,7.64,0,0,1,.79.11,8.62,8.62,0,0,0-1-5.47h1.11a18,18,0,0,0-2.1-6.94c0.43,0,.85-0.06,1.3-0.11a12.62,12.62,0,0,0-2.58-6.75c0.43,0,.85-0.06,1.3-0.11a12.38,12.38,0,0,0-4-6.94l1.11-.2A11.19,11.19,0,0,0,115,71.63l1-.31a5.84,5.84,0,0,0-2.35-3.17c-1.16-.77-2.18-1.87-3.49-2.61a4,4,0,0,1,1-3.37,8.65,8.65,0,0,0-2.15.62,6.81,6.81,0,0,1-3.34.14c-2.41-.28-4.88.09-6.6,2.38a0.91,0.91,0,0,1-.74.34,13.1,13.1,0,0,0-4.11.51,2.55,2.55,0,0,0,2.55,2.44c2.21,0.2,1.45.62,1.42,1.19a3,3,0,0,0-2.49-.26c0,1.45,1.39,1.59,2.49,1.79,3.2,0.6,3,5.22,2.69,8.87-2.61,2-5,3.34-7.37,3.66Zm9.84-21.37a4.83,4.83,0,0,1,2.47,0,4.11,4.11,0,0,0-.51-1.84,6,6,0,0,1-.4-1.45,5,5,0,0,0-1.56,3.26v0Z" style="fill: #999"/>
  </g>
</svg>
