<?xml version="1.0" encoding="UTF-8" standalone="no"?>
<svg
    xmlns:dc="http://purl.org/dc/elements/1.1/"
    xmlns:cc="http://creativecommons.org/ns#"
    xmlns:rdf="http://www.w3.org/1999/02/22-rdf-syntax-ns#"
    xmlns:svg="http://www.w3.org/2000/svg"
    xmlns="http://www.w3.org/2000/svg"
    xml:space="preserve"
    version="1.1"
    id="background-gold"
    preserveAspectRatio="none"
    viewBox="0 0 180 20">
<path
    d="m 175.8897638,17.65685351 c -0.070866,-0.0944849 -0.2244095,-0.2716439 -0.2244095,-0.2716439 -0.3188976,0.18896967 -0.2125984,0.0118106 -0.2244094,0.0236213 0.082677,-0.059053 1.4055118,-0.86217412 1.2283464,-0.86217412 -0.1535433,-0.36612873 -0.9448819,-0.92122713 -1.4173228,-1.29916646 0.070866,-0.059053 0.1889764,-0.17715907 0.1889764,-0.17715907 l 0.507874,-0.36612873 c -0.1062992,0.33069692 -0.011811,0.2716439 0.6259842,0.60234082 -0.011811,-0.31888631 -0.047244,-0.48423477 0.3425197,-0.80312109 0.1653544,-0.0118106 0.472441,-0.0354318 0.472441,-0.0354318 -0.035433,-0.0236213 -0.1181103,-0.059053 -0.1181103,-0.059053 l 0.46063,-0.35431813 -0.059055,0.68501504 -0.3070866,0.22440149 0,0 c -0.5551181,0.21259087 -0.5551181,0.18896967 -0.5669291,0.17715906 -0.070866,0.0708637 -0.1889764,0.18896967 -0.1889764,0.18896967 0.2952756,0.15353785 0.9094488,0.47242417 0.9094488,0.47242417 0.082677,-0.20078028 0.5669292,-0.59053021 0.5669292,-0.59053021 -0.059055,-0.27164391 -0.1653544,-0.80312109 -0.1653544,-0.80312109 0.5314961,-0.74406808 0.496063,-0.75587868 0.5433071,-0.72044686 0.1653544,0.3070757 -0.070866,0.95665894 -0.070866,0.94484834 0.035433,-0.0118106 0.035433,0 0.035433,0 0,0.0472424 -0.059055,0.15353785 -0.059055,0.15353785 l 0,0 c -0.023622,0 -0.035433,0.0236213 -0.035433,0.0236213 0,-0.0118106 0,-0.0118106 0,-0.0118106 -0.011811,0 -0.035433,0 -0.035433,0 0.023622,-0.0236213 0.070866,-0.0708636 0.070866,-0.0708636 -0.4370078,-0.34250753 -0.094488,0.14172725 -0.070866,0.17715906 -0.011811,0.059053 -0.059055,0.18896967 -0.059055,0.18896967 0.3188976,-0.27164389 0.9448819,-0.81493169 0.9448819,-0.81493169 0,-0.42518176 -0.2244095,-1.25192405 -0.2244095,-1.25192405 -0.094488,-0.28345451 0.1535433,-0.43699237 -0.6850393,-0.67320445 -0.6614174,-0.20078027 -0.070866,-1.05114378 -0.035433,-1.0983862 -0.1417323,-0.0472424 -0.3779528,-0.12991665 -0.3779528,-0.12991665 0.1653544,-0.0236213 0.472441,-0.0472424 0.472441,-0.0472424 0.082677,-0.18896967 0.2480315,-0.59053021 0.2480315,-0.59053021 -0.035433,-0.12991665 -0.1889764,-0.17715907 -0.1181103,-0.33069693 -0.1535433,0.14172726 -0.4488189,0.42518176 -0.4370078,0.42518176 -0.8622048,0.31888631 -0.8622048,0.33069692 -0.8503937,0.30707571 0.070866,-0.20078027 0.8503937,-0.59053021 0.8503937,-0.57871961 0.035433,0.16534846 0.059055,0.0472424 0.082677,-0.059053 0.1181103,-0.059053 0.3543307,-0.17715906 0.3543307,-0.17715906 0.4015748,-0.307075707 0.4015748,-0.295265102 0.4370079,-0.283454498 0.047244,-0.129916647 0.1535433,-0.389749941 0.1535433,-0.389749941 -0.496063,0.16534846 -0.1889764,0 -0.1535433,-0.0118106 0.082677,0.07086362 0.082677,0.0118106 0.094488,-0.0118106 0.2952756,-0.236212086 0.2007874,-0.519666589 0.1889764,-0.755878674 C 179.6102362,8.208370088 179.8464567,7.759567122 180,7.346195972 c -0.3425197,0.259833294 -0.7795276,0.767689282 -0.7795276,0.767689282 0.1417323,0.04724241 0.2244095,0.09448484 -0.070866,0.129916647 0.023622,0.03543181 0.070866,0.106295439 0.070866,0.106295439 -0.035433,-0.02362121 -0.1299212,-0.07086362 -0.1299212,-0.07086362 0.011811,0.05905302 0.1299212,0.05905302 0.094488,0.177159064 -0.047244,-0.04724241 -0.1299213,-0.129916646 -0.1299213,-0.129916646 -1.1692913,0.744068069 -1.1574803,0.755878673 -1.1574803,0.708636256 0.047244,-0.236212086 -0.2125984,-0.543287797 -0.3425197,-0.791310487 -0.1535433,0.09448484 -0.507874,0.271643898 -0.507874,0.271643898 -0.9212598,0.791310487 -0.8858268,0.791310487 -0.9448819,0.767689279 0.070866,0.342507524 0.011811,0.354318129 0.070866,0.342507524 -0.094488,0.153537856 -0.2834645,0.460613562 -0.2834645,0.460613562 -0.023622,-0.0354318 -0.070866,-0.106295433 -0.070866,-0.106295433 -0.7204724,0.283454503 -0.070866,-0.153537856 -0.059055,-0.153537856 l -0.094488,-0.16534846 c -0.011811,0.02362121 -0.035433,0.07086362 -0.035433,0.07086362 -0.1771654,-0.212590878 -0.5314961,-0.649583236 -0.5314961,-0.649583236 0.9330709,-1.251924057 0.8740157,-1.275545267 0.980315,-1.216492245 0.2598425,0.271643904 0.2362204,0.590530218 0.2125984,0.862174117 0.4724409,-0.401560545 1.0984252,-1.216492245 1.0984252,-1.216492245 0.2244094,-0.401560545 -0.1299213,-0.791310487 -0.1181103,-1.192871032 0.070866,-0.224401482 0.1889764,-0.460613567 0.3070867,-0.685015048 -0.2007874,0.307075711 -0.6259843,0.921227133 -0.6259843,0.921227133 -0.4251968,0.295265107 -1.2874016,0.885795321 -1.2874016,0.885795321 -0.8976378,0.318886316 -0.8740157,0.33069692 -0.8858267,0.307075711 0.1771653,-0.224401482 0.8149606,-0.448802962 0.8858267,-0.649583235 -0.082677,-0.106295439 -0.2480315,-0.318886316 -0.2480315,-0.318886316 -0.1181102,0.04724241 -0.3543307,0.141727252 -0.3543307,0.141727252 -0.1417323,0.04724241 -0.094488,0.200780272 -0.094488,0.188969669 -0.2244094,-0.09448484 -0.3543307,-0.129916648 -0.3779527,-0.236212087 l -0.2480315,0.389749942 0,-0.0118106 C 174.2362209,7.393438393 174.0354335,7.6887035 174.0354335,7.6887035 173.811024,7.889483773 173.7283469,7.960347403 173.6220476,8.184748884 173.4921264,7.995779216 173.9645673,7.60602927 173.9645673,7.60602927 174,7.724135309 174.023622,7.546976245 174.0354331,7.53516564 174.011811,7.546976245 174,7.558786848 174,7.558786848 c 0.2244094,-0.295265106 0.6850394,-0.88579532 0.6850394,-0.88579532 0.094488,0.05905302 0.3188976,0.177159064 0.3188976,0.177159064 0.070866,-0.09448484 -0.2244094,-0.118106042 -0.2834646,-0.212590877 0.094488,-0.106295439 0.2480315,-0.342507524 0.2480315,-0.342507524 0.1299213,0.153537856 0.1299213,0.472424172 0.1299213,0.472424172 0.3070866,-0.212590878 0.1417323,-0.09448484 0.059055,-0.283454503 0.5314961,-0.484234776 0.5314961,-0.448802963 0.5669291,-0.41337115 0.1535434,-0.153537856 0.4488189,-0.472424171 0.4488189,-0.472424171 -0.4015748,-0.07086362 0.3425197,-0.74406807 0.3070867,-0.708636257 -0.1299213,-0.05905302 -0.3425197,-0.153537855 -0.3425197,-0.153537855 0.047244,-0.08267423 0.9212598,-1.381840701 0.8503937,-1.381840701 -0.047244,-0.295265107 -0.2716536,-0.625962026 -0.4251969,-0.921227134 -0.047244,-0.295265106 -0.3543307,-0.519666588 -1.0748031,-0.791310486 -0.7440945,-0.248022689 -1.5354331,-0.425181754 -2.8110236,-0.625962026 -1.3110237,-0.2007802733 -2.468504,-0.3188863161 -4.1338583,-0.4251817546 -1.7598425,-0.1062954385 -3.1653543,-0.1535378555 -5.0551181,-0.1535378555 0,0 -3.5433071,0.047242417 -3.507874,0.047242417 -1.8779528,-0.023621208 -5.468504,-0.047242417 -6.2007874,-0.047242417 0.3661417,0 0.9330708,0.011810605 0.9212598,0.011810605 -0.7795276,0.011810605 0.082677,0 0.1062992,0 l 0.6141732,0.011810605 -1.4527559,0 c -0.9448819,-0.023621208 -0.8622047,-0.023621208 -0.7913385,-0.023621208 -0.3779528,0 -1.0039371,0 -1.3582678,0 -0.094488,0.011810605 0.094488,0 0.2125985,0 l 0.519685,0.011810605 c -0.6732283,0 -1.984252,-0.011810605 -1.984252,-0.011810605 -1.1102362,0 -3.3070866,-0.011810605 -3.3070866,-0.011810605 0.8976378,0.023621208 2.6692914,0.059053021 2.6692914,0.059053021 0.7795275,0 2.3031496,0.023621208 2.3031496,0.023621208 -1.2401575,0.011810605 0.2244094,0 0.2716535,0 l 1.1929134,0.023621208 c -2.2559055,-0.011810605 -6.7440945,-0.059053021 -6.7440945,-0.059053021 -0.2480315,-0.011810605 -0.2007874,-0.011810605 -0.1653543,-0.011810605 -0.6259843,0 -1.8779528,-0.023621208 -1.8779528,-0.023621208 -0.519685,0.011810605 -5.3031496,0.023621208 -5.2913386,0 -6.2834645,-0.1062954385 -6.5433071,-0.2480226899 -13.03937,0.1181060427 0.2952755,0.011810605 -0.082677,0.011810605 -0.1535433,0.011810605 -0.2244095,0.011810605 -0.6850394,0.035431813 -0.6732284,0.035431813 0.3307087,0.011810605 0.992126,0.023621208 0.992126,0.023621208 -0.070866,-0.011810605 -0.2125984,-0.035431813 -0.2125984,-0.035431813 0.9566929,0 1.9842519,-0.023621208 2.9291338,0 l -0.2598425,-0.011810605 1.4173228,0.011810605 c 0.7677166,0.035431813 0.8031496,0.035431813 0.7322835,0.035431813 -0.4606299,0 -1.3582677,-0.023621208 -1.3582677,-0.023621208 -0.2716536,-0.023621208 0.059055,0.011810605 -0.3779528,0 0.4488189,0.023621208 -1.0984252,0.08267423 -1.1929134,0.094484834 1.9251969,0.059053021 1.6889764,0.059053021 1.6181103,0.059053021 -0.7913386,-0.011810605 -1.5708662,-0.011810605 -2.3503937,-0.023621208 -0.1062992,0 -0.3188977,0 -0.3188977,0 -0.035433,0 -0.1062992,-0.011810605 -0.1062992,-0.011810605 -0.4370078,-0.011810605 -1.3110236,-0.023621208 -1.3110236,-0.023621208 0.2362205,0.011810605 0.1771654,0.011810605 0.1535433,0.011810605 -0.3661417,0 -1.0984252,-0.023621208 -1.1456693,-0.023621208 l 0.2598425,0 c -0.1771653,0 -0.519685,-0.011810605 -0.519685,-0.011810605 -0.8976378,0.070863626 -2.6692913,0.2007802727 -2.6692913,0.2007802727 -0.5433071,-0.023621208 -1.6299213,-0.059053021 -1.6299213,-0.059053021 0.8622047,-0.011810605 0.2480315,0 -0.4133858,-0.035431813 0.047244,0.023621208 -0.7913386,0 -0.7913386,0 -0.1299213,0.023621208 -0.3661417,0.059053021 -0.3661417,0.059053021 0.070866,0 0.2007874,0 0.2125984,0 -0.1062992,0 -0.3070866,0 -0.3070866,0 l 0.9330708,0.011810605 -0.8858267,0 c 1.1811023,0.059053021 -0.472441,0.011810605 -0.2598426,0.023621208 -0.047244,0.011810605 -0.1653543,0.023621208 -0.1653543,0.023621208 l 1.8307087,0.035431813 -3.5905512,-0.011810605 0.094488,0 c -0.968504,-0.023621208 -1.7834646,-0.011810605 -2.9409449,-0.035431813 -0.5905512,-0.035431813 1.3700787,-0.011810605 1.1574803,-0.023621208 l -0.8385827,-0.023621208 0.047244,0 -0.7795275,-0.023621208 3.4015748,0.047242417 c -0.082677,0 -0.2362205,0 -0.2598425,0 l 0.2125984,0 -0.472441,-0.023621208 0.472441,0.011810605 c -0.1417323,-0.023621208 -0.4251969,-0.094484834 -0.4251969,-0.094484834 -0.6023622,0.011810605 -1.8307086,0.011810605 -1.8307086,0.011810605 0.3070866,0.035431813 -0.7795276,0.011810605 -0.7913386,0.011810605 l -1.1929134,0 1.1929134,0.011810605 -0.094488,0 c 0.2952756,0 0.8858268,0.011810605 0.8858268,0.011810605 -1.7598425,0 -5.2913386,0.023621208 -5.2913386,0.023621208 l 4.8661417,0.08267423 -1.003937,0 c 0.1771654,0 0.2244095,0 0.484252,0 -0.1417323,0.011810605 5.2086614,0.1535378547 5.0787401,0.1535378547 -0.1062992,0 -0.3070866,0 -0.3070866,0 -0.9212598,0.03543181 0.2716536,0.0118106 0.6732284,0.0118106 2.515748,0.07086362 7.5472441,0.224401481 7.5472441,0.224401481 -0.035433,0 -0.1062992,0 -0.1062992,0 0.1417322,0 0.4133858,0.0118106 0.4133858,0.0118106 -0.2716536,0 -0.8385827,0.0118106 -0.8385827,0.0118106 0.1653543,0 -0.1181102,0 -0.1062992,0 -1.2637795,0.0118106 -1.511811,-0.02362121 -2.7165354,-0.02362121 -1.9251969,0 -5.7637796,0.0118106 -5.7637796,0.0118106 -1.7244094,-0.0118106 -5.1850393,-0.03543181 -5.1850393,-0.03543181 -1.5826772,0.0118106 -4.7598426,0.03543181 -4.7598426,0.03543181 -0.3425196,0 -3.9803149,-0.05905302 -3.9803149,-0.05905302 -1.9015748,-0.02362121 -2.6574803,0 -4.50000002,0.04724241 -0.11811023,-0.0118106 -1.2519685,-0.02362121 -0.68503937,-0.04724241 -0.011811,0 -0.0472441,0 -0.0472441,0 0.81496063,0 2.45669289,-0.02362121 2.45669289,-0.02362121 -1.14566927,0 -3.40157478,-0.08267422 -3.40157478,-0.08267422 0.12992126,-0.0118106 0.38976378,-0.0118106 0.41338582,-0.0118106 -1.19291338,0.0118106 -3.61417322,-0.02362121 -3.6023622,-0.02362121 -0.66141732,0.0118106 -1.99606299,0.0118106 -1.99606299,0.0118106 1.46456693,0.03543181 2.3503937,0.05905302 3.82677165,0.07086362 -0.2480315,0 -0.57874016,0.0118106 -0.83858268,0.0118106 0.29527559,0.0118106 1.13385827,0 1.15748032,0 l 1.66535433,0.02362121 -2.3503937,0 c -0.0944882,0.0118106 -1.03937008,0 -1.31102362,-0.0118106 -2.52755906,-0.04724241 -2.33858268,-0.04724241 -2.1496063,-0.04724241 -1.18110236,-0.02362121 -3.55511811,-0.03543181 -3.55511811,-0.03543181 -2.82283465,0 -8.48031496,-0.08267422 -8.48031496,-0.08267422 1.33464567,0.05905302 1.18110236,0.05905302 1.09842519,0.05905302 -1.5,0.0118106 -3.30708661,-0.02362121 -4.81889763,-0.04724241 0.38976378,0 1.13385826,-0.0118106 1.20472441,-0.0118106 l -0.88582678,0 0.20078741,0 -1.51181103,0 c -0.12992126,0 -0.76771653,0.03543181 -0.79133858,-0.0118106 l -0.66141732,0 0.0944882,0 -0.0944882,0 -0.011811,0 -1.0511811,0 c -0.17716535,0 -0.77952756,-0.0118106 -0.77952756,-0.0118106 0.4015748,-0.0118106 1.26377953,0 1.2519685,0 -0.34251968,0.0118106 0.15354331,0 0.25984252,0 0.2952756,0 0.8976378,0 0.8976378,0 0.0472441,0 0.15354331,0 0.15354331,0 0.17716535,0.0118106 0.11811023,0.0118106 0.0472441,0 -0.0354331,0 -0.10629921,0 -0.10629921,0 0.0472441,0 0.0236221,0 0,0 0.0708661,0 0.21259842,0 0.21259842,0 l -0.62598425,-0.0118106 1.67716536,0 c -0.12992126,0 -0.4488189,0 -0.10629922,-0.0118106 1.22834646,0 3.66141733,0.03543181 3.66141733,0.03543181 -0.0944882,-0.0118106 0.22440945,-0.0118106 0.21259842,-0.0118106 1.28740158,-0.0118106 3.94488189,0.02362121 3.92125984,0.02362121 0.57874016,0 1.73622048,0 1.73622048,0 -0.37795276,0 -1.08661418,-0.0118106 -1.14566929,-0.02362121 l 3.70866141,0 c -1.86614173,0 -5.59842519,-0.02362121 -5.59842519,-0.02362121 -1.65354331,-0.011810604 0.61417322,0 0.36614173,0 -0.76771654,-0.023621208 -1.14566929,-0.011810604 -1.88976378,-0.011810604 -0.98031496,-0.023621208 -1.01574803,-0.023621208 -0.94488189,-0.023621208 0.41338583,-0.011810605 1.16929134,0 1.40551181,0 l -1.66535416,-0.023621228 c -4.85433071,-0.047242418 -4.96062992,-0.047242418 -4.65354331,-0.047242418 2.36220473,-0.023621208 7.25196851,0.011810605 7.21653544,0.011810605 -0.0236221,0 -0.10629922,0 -0.10629922,0 0.34251969,0 0.99212599,0 1.08661418,0.011810605 l -0.0354331,0 1.81889764,0 -0.0708661,0 0.86220473,0.011810605 -3.496063,0 c 0.21259843,0 -0.0354331,0.011810605 0,0.011810605 -0.17716535,0 0.25984252,0 0.36614174,0 l 0.25984252,0 -2.25590552,0 c 2.53937008,0.023621208 7.59448819,0.082674229 7.59448819,0.082674229 l 1.25196851,0 1.46456693,0 c -0.48425197,-0.0118106 -5.55118111,-0.02362121 -5.53937008,-0.035431812 0,0 -0.31889764,-0.011810605 -0.31889764,-0.011810605 -0.14173228,-0.011810605 -0.10629921,-0.011810605 -0.10629921,-0.011810605 -0.42519685,0 0.14173228,-0.011810605 0.0590551,-0.011810605 0.4488189,0 1.35826772,0.011810605 1.35826772,0.011810605 l -1.14566929,-0.023621208 8.31496063,0.035431813 c 0.6496063,0.011810605 1.93700787,0.023621208 1.93700787,0.023621208 -0.55511811,0.0118106 0.0826772,0 0.10629922,0 l 0.51968504,0.0118106 -1.1456693,0 c 0.96850394,0.0118106 1.07480315,0.0118106 2.04330709,0.0118106 -0.48425197,-0.02362121 -0.48425197,-0.02362121 -0.47244094,-0.02362121 -2.42125985,-0.035431813 -2.29133859,-0.035431813 -2.1968504,-0.035431813 -0.0236221,0 -0.0590551,-0.011810605 -0.0590551,-0.011810605 0.76771654,0 2.30314961,-0.011810605 2.30314961,-0.011810605 -0.33070866,-0.011810605 -0.99212598,-0.023621208 -0.99212598,-0.023621208 0.0472441,0 0.1535433,0 0.1535433,0 -0.33070866,0 -0.99212598,-0.011810605 -0.99212598,-0.011810605 l -1.66535433,-0.035431813 0.0944882,0 -0.77952756,-0.023621208 3.23622047,0.035431813 -0.0472441,0 c 0.83858267,0.011810605 2.51574803,0.035431813 2.51574803,0.035431813 0.0354331,-0.011810605 0.10629921,-0.011810605 0.10629921,-0.011810605 -1.2519685,-0.047242418 -0.0354331,-0.047242418 0.25984252,-0.047242418 0.0472441,0 0.15354331,-0.023621208 0.15354331,-0.023621208 -1.11023622,-0.011810605 -3.35433071,-0.070863626 -3.35433071,-0.070863626 -2.44488189,-0.035431813 -7.27559055,-0.1299166471 -7.42913386,-0.1299166471 0.17716535,0 0.51968504,0 0.51968504,0 0.61417323,0 1.79527559,0 1.97244094,0 l -0.0354331,0 c 0.28346457,0.011810605 0.83858268,0.011810605 0.83858268,0.011810605 2.72834646,-0.035431813 -0.011811,-0.011810605 -0.15354331,-0.011810605 -1.42913385,-0.011810594 -4.29921259,-0.011810594 -4.28740157,-0.011810594 -1.21653543,-0.023621209 -2.33858268,-0.070863626 -3.56692914,-0.08267423 -2.503937,-0.059053021 -2.66929133,-0.047242418 -2.51574803,-0.059053021 1.27559055,0 2.65748032,0.023621208 3.93307087,0.035431813 2.81102362,-0.011810605 8.42125984,0.023621208 8.42125984,0.023621208 -3.6023622,0.047242417 0.51968504,0 0.79133858,0 0.61417323,0 1.83070867,0.011810605 1.83070867,0.011810605 l -1.35826772,-0.023621208 c 0.35433071,0 1.0511811,-0.011810605 1.03937008,-0.011810605 -0.59055118,-0.011810605 -1.77165354,0 -1.77165354,0 l -3.56692914,-0.08267423 2.04330709,0.011810605 c -3.2480315,-0.059053021 -6.35433071,-0.1062954385 -9.62598425,-0.1181060427 0.57874015,0.035431813 0.59055118,0.035431813 0.56692913,0.035431813 0.0590551,0 0.16535433,0 0.16535433,0 -0.0590551,0.011810605 -0.16535433,0.011810605 -0.16535433,0.011810605 0.36614173,0 1.11023622,0 1.11023622,0 l 1.81889764,0.011810605 -0.0826772,0 0.87401575,0 c -3.42519685,0.011810605 -6.34251968,0.023621208 -9.79133858,0 -0.011811,0 -0.0472441,0.023621208 -0.0472441,0.023621208 -0.59055118,-0.011810605 -1.78346456,-0.035431813 -1.78346456,-0.035431813 -0.34251969,0 -1.05118111,0 -1.05118111,0 -0.70866141,-0.011810605 0.15354331,0 0.31889764,0 -0.77952756,-0.023621208 -0.0354331,-0.047242417 -0.0472441,-0.047242417 -3.79133859,-0.011810605 -11.36220473,-0.035431813 -11.36220473,-0.035431813 -3.35433071,-0.023621208 -6.2007874,-0.1299166471 -9.48425197,-0.1889696685 -0.0826772,0 -0.64960629,0 -0.56692913,-0.0236212085 C 51.59055118,0.0472425287 49.78346457,1.115907407e-7 48.73228346,1.115907407e-7 46.62992126,0.0354319244 44.56299213,0.0354319244 42.4488189,0.0354319244 c 0.35433071,0 1.0511811,0.0118106043 1.0511811,0.0118106043 2.03149606,0.08267423 2.16141732,0.08267423 1.98425197,0.08267423 -1.25196851,-0.011810605 -3.74409449,-0.08267423 -3.81496063,-0.08267423 1.93700787,0 -0.22440945,-0.0118106043 -0.25984252,-0.0118106043 C 40.19291339,0.0118107159 39.55511811,0.0236213202 38.37401575,0.0590531329 38.94094488,0.0708637373 40.0984252,0.10629555 40.0984252,0.10629555 c 0.22440945,0.011810605 -0.0590551,0.011810605 -0.0590551,0 -0.63779528,0 -1.34645669,-0.0118106042 -1.98425197,-0.0354318127 0.6496063,0 -0.11811024,0 -0.15354331,0 -2.46850393,0.0708636256 -7.33464567,0.2834545026 -7.33464567,0.2834545026 0.6968504,0.011810605 2.09055118,0.023621208 2.09055118,0.023621208 1.57086615,0.070863626 1.62992126,0.070863626 1.47637796,0.070863626 -1.0511811,-0.011810605 -2.11417323,-0.023621208 -3.14173229,-0.035431813 1.16929134,-0.070863626 -1.2519685,-0.023621208 -1.62992126,-0.011810605 0.76771654,0.035431813 0.70866142,0.035431813 0.68503937,0.035431813 -1.87795275,-0.011810605 -0.73228346,-0.035431813 -2.98818897,0.059053021 1.98425197,0.059053021 1.74803149,0.059053021 1.67716535,0.059053021 -0.8031496,0 -1.60629921,-0.011810605 -2.40944882,-0.023621208 -0.42519685,0.011810605 -7.64173228,0.3188863155 -7.64173228,0.2834545027 0.0236221,-0.070863626 4.03937008,-0.3070757112 4.60629921,-0.3425075241 -1.35826771,-0.023621208 -4.08661417,-0.082674229 -4.08661417,-0.082674229 -1.18110236,0.082674229 0.22440945,0.047242418 0.21259842,0.059053021 0.87401575,0.023621208 0.8976378,0.023621208 0.83858268,0.023621208 -0.43700787,0 -1.31102362,-0.011810605 -1.35826771,-0.011810605 0.3543307,0 -0.023622,0 -0.31889764,-0.011810605 -1.7480315,0.1653484599 -5.12598425,0.5078559839 -5.12598425,0.5078559839 0.37795275,0 1.14566929,0.011810605 1.14566929,0.011810605 -0.99212599,0.023621208 0.12992126,0 0.16535433,0 l 0.82677165,0.011810605 c -0.82677165,0 -1.5,0.011810605 -2.3503937,0 -0.17716535,0.023621209 -0.51968504,0.059053021 -0.51968504,0.059053021 2.25590551,0 6.74409449,0.02362121 6.74409449,0.02362121 -3.66141732,0.04724241 0.6023622,0 0.79133858,0 1.31102362,0.0118106 3.92125984,0.02362121 3.92125984,0.02362121 -4.11023622,0.0118106 -7.73622047,0.03543181 -11.88188976,0 -0.37795276,0.04724242 -4.216535433,0.519666589 -3.03543307,0.649583236 1.44094488,-0.02362121 14.18503937,-0.283454503 14.18503937,-0.283454503 0.10629921,0.04724241 2.07874016,0.03543181 2.51574803,0.03543181 -4.78346457,0.08267423 -14.33858268,0.24802269 -14.33858268,0.24802269 0.4488189,0 1.35826772,0.0118106 1.35826772,0.0118106 0.95669291,0.04724242 0.87401575,0.04724242 0.83858268,0.04724242 -0.67322835,0 -1.99606299,-0.04724242 -1.99606299,-0.04724242 1.07480315,0 -0.11811024,0 -0.15354331,0 -0.22440945,0 -0.68503937,0 -0.68503937,0 3.23622047,0.07086362 9.68503937,0.224401481 9.68503937,0.224401481 0.23622047,0 0.68503937,0 0.68503937,0 -1.03937008,-0.03543181 0.81496063,-0.07086362 0.94488189,-0.08267422 -0.8503937,-0.129916648 4.08661417,-0.05905302 4.08661417,-0.05905302 3.37795276,0.04724241 6.8503937,0.177159064 10.15748032,0.212590877 0.0708661,0.03543181 2.36220472,0.07086362 3.03543307,0.08267423 -0.0590551,0 -0.10629922,0 -0.16535433,0 0.88582677,0.0118106 2.82283464,0.08267423 2.77559055,0.08267423 0.12992126,-0.0118106 0.62598425,-0.03543181 0.68503937,-0.03543181 -0.98031496,-0.02362121 -0.54330709,-0.02362121 -0.47244095,-0.02362121 -0.36614173,-0.0118106 -1.09842519,-0.02362121 -1.09842519,-0.02362121 4.39370078,-0.03543181 -0.55511811,-0.0118106 -0.68503937,-0.0118106 l -3.55511811,-0.08267423 0.62598425,0.0118106 c -0.63779528,-0.02362121 0.0590551,-0.03543181 0.21259842,-0.03543181 -2.22047244,-0.0118106 -6.72047244,-0.09448484 -6.70866141,-0.09448484 2.90551181,-0.0118106 -0.43700788,-0.02362121 -0.56692914,-0.02362121 l -2.66929134,-0.05905302 5.96456693,0.07086362 4.39370079,0.106295439 c 2.3503937,0 4.80708661,0.02362121 7.07480315,0.02362121 0.59055118,0.0118106 1.77165354,0.0118106 1.77165354,0.0118106 0.28346457,0 0.83858268,0 0.83858268,0 -1.7480315,0.0118106 -5.23228346,0.02362121 -5.23228346,0.02362121 0.88582677,0 2.66929133,0.0118106 2.66929133,0.0118106 1.42913386,0.02362121 4.2992126,0.09448483 4.28740158,0.09448483 1.39370079,0.02362121 4.39370079,0.0118106 4.5,0.0118106 l -0.2007874,0.0118106 0.94488189,0 -1.51181103,0.0118106 c 1.57086615,-0.0118106 4.60629922,0.0118106 4.79527559,0.0118106 l -0.77952756,0 c -0.27165354,0.0118106 -0.37795275,0.0118106 -0.3543307,0.02362121 l -49.263779531,0 0,2.929029862 C 6.38976378,5.456499288 3.401574803,5.976165876 3.401574803,5.976165876 3.307086614,6.554885485 3.118110236,7.688703496 3.118110236,7.688703496 3.212598425,7.877673164 3.401574803,8.243801901 3.401574803,8.243801901 3.011811024,8.716226073 3.011811024,8.539067009 3,8.503635196 2.858267717,9.153218431 2.551181102,10.45238491 2.551181102,10.45238491 c 0.08267717,0.0708636 0.224409449,0.21259087 0.224409449,0.21259087 C 2.385826772,10.41695308 1.582677165,9.944528918 1.582677165,9.944528918 1.452755906,9.318566891 0.0354330709,2.432984592 0.0354330709,2.432984592 0.0590551181,2.23220432 0.2480314961,2.06685586 0.7440944882,1.889696796 1.251968504,1.700727128 1.795275591,1.582621085 2.669291339,1.440893833 3.578740157,1.299166582 4.37007874,1.216492352 5.527559055,1.145628727 6.744094488,1.062954496 7.75984252,1.027522683 9.070866142,1.027522683 c -1.33464567,0 -2.303149607,0.03543181 -3.543307087,0.106295439 C 4.37007874,1.216492352 3.566929134,1.299166582 2.657480315,1.440893833 1.75984252,1.582621085 1.228346457,1.700727128 0.7204724409,1.877886191 0.2244094488,2.06685586 0.0236220472,2.220393715 0,2.432984592 c 0,0 0.6377952756,9.235892548 0.6377952756,9.235892548 0.059055118,1.00390137 0.4606299214,1.9133179 1.1929133854,2.91721926 0.484251969,0.61415142 1.181102363,1.22830284 1.417322835,1.84245427 0.165354331,0.566909 -0.318897638,0.73225746 -0.696850394,1.25192405 -0.02362205,0.0354318 -0.04724409,0.42518175 -0.04724409,0.42518175 0.01181102,0.14172726 0.177165354,0.25983329 0.543307086,0.38974994 0.377952756,0.12991665 0.767716536,0.22440148 1.417322835,0.31888632 0.649606299,0.0944848 1.24015748,0.16534846 2.078740158,0.21259087 0.874015748,0.059053 1.582677165,0.0826743 2.527559055,0.0826743 0.01181102,0 3.047244094,-0.0472424 2.999999994,-0.0472424 0.70866142,0.0354319 1.31102362,0.0472424 2.04330709,0.0354319 1.12204724,-0.0354319 1.83070866,-0.0826743 3.03543307,-0.0944849 1.7480315,0.0354318 1.67716535,0.0354318 1.61811024,0.0354318 4.08661417,0.0236213 3.04724409,0.0944848 7.74803149,0.0236213 0.6496063,0 1.19291339,0.0118106 1.84251969,-0.0118106 -0.0354331,0 -0.10629922,0 -0.10629922,0 1.37007874,-0.0118106 1.00393701,0.0118106 2.13779528,-0.059053 -0.0708661,0 -0.2007874,0 -0.2007874,0 l 0.93307086,-0.0354318 c -1.29921259,0.0354318 -1.39370078,0.0354318 -2.71653543,0.0236213 0.37795276,-0.0118106 1.14566929,-0.0354318 1.14566929,-0.0354318 0.60236221,0 1.78346457,0 1.78346457,0 0.2480315,-0.0118106 0.73228346,-0.0236213 0.73228346,-0.0236213 0.0708662,0.0118106 0.21259843,0.0354318 0.21259843,0.0354318 4.24015748,0.0236213 -0.87401575,0.0354318 0.21259842,0.0354318 0.011811,0 0.0472441,0.0118106 0.0472441,0.0118106 0.57874016,0 1.79527559,0.0118106 1.78346457,0.0118106 0.25984252,-0.0118106 0.77952755,-0.0118106 0.77952755,-0.0118106 0.14173229,0 0.42519686,0.0118106 0.42519686,0.0118106 0.50787401,0.0118106 1.57086614,0.0354318 1.57086614,0.0354318 0.17716535,0 0.51968504,-0.0118106 0.51968504,-0.0118106 3.09448819,0.0826743 2.83464567,0.0826743 2.62204724,0.0944849 1.02755906,0.0236212 3.08267717,0.0826743 3.08267717,0.0826743 -3.11811024,0.0236213 0.14173228,0.0236213 1.31102362,0.0236213 -0.72047244,-0.059053 0.0590551,-0.0354318 0.21259842,-0.0354318 0.70866142,0 2.13779528,-0.0118106 2.13779528,-0.0118106 -1.07480315,-0.0472424 -1.11023622,-0.0472424 -1.03937008,-0.0472424 0.38976378,0 1.20472441,0.0354318 1.20472441,0.0354318 l 0.41338583,0.0118106 c -1.26377953,-0.11810605 -0.18897638,-0.0944848 0.16535433,-0.0944848 0.8031496,0.0118106 2.40944882,0.0472424 2.39763779,0.0472424 0.2007874,0 0.57874016,-0.0118106 0.57874016,-0.0118106 0.0590551,0 0.011811,0.0118106 0,0.0118106 0.0236221,0 0.0590551,0.0118106 0.0590551,0.0118106 0.83858267,0.0236213 0.33070866,0.0236213 0.1535433,0.0118106 -0.12992126,0 -0.38976377,0.0118106 -0.41338582,0.0118106 0.69685039,0 2.03149606,0.0354318 2.03149606,0.0354318 0.0944882,-0.0118106 0.27165354,-0.0118106 0.25984252,-0.0118106 -0.75590551,-0.0354318 -0.011811,-0.059053 0.10629921,0 0.21259843,0 0.59055118,0 0.67322835,0 -0.0708661,0 -0.2007874,0.0118106 -0.2007874,0.0118106 5.78740157,0.0708636 -4.40551181,0.0354318 -3.61417323,0.0354318 1.27559055,0.0708637 5.90551181,0.059053 5.5511811,0.059053 -0.35433071,-0.0236213 0.43700788,0 0.36614173,0 0.22440945,0 0.68503937,0 0.68503937,0 0.59055119,0.0354318 1.78346457,0.11810604 1.78346457,0.11810604 0.41338583,-0.0118106 1.25196851,-0.0236213 1.25196851,-0.0236213 -0.2952756,-0.0236213 -0.88582678,-0.0472424 -0.88582678,-0.0472424 -0.23622047,-0.0236213 -1.15748031,-0.0236213 -1.2519685,-0.0236213 0.6496063,-0.0354318 0.82677165,-0.059053 1.55905512,-0.059053 -0.8503937,-0.0118106 -2.56299213,-0.0354318 -2.56299213,-0.0354318 -0.90944882,-0.0236213 -2.72834645,-0.0472424 -2.71653543,-0.0472424 -1.35826772,-0.0354318 -1.84251969,-0.0472424 -3.30708662,-0.0708637 0.2952756,0 0.8976378,-0.0118106 0.8976378,-0.0118106 -0.46062992,-0.0118106 -1.37007874,-0.0472424 -1.37007874,-0.0472424 -1.18110236,0 -3.55511811,-0.0472424 -3.55511811,-0.0472424 -0.2480315,0 -0.73228347,0 -0.73228347,0 l 0.25984252,0.0236213 c -0.98031496,-0.0236213 -2.92913385,-0.0236213 -2.92913385,-0.0236213 0.10629921,0.0118106 0.31889763,0.0236213 0.30708661,0.0236213 -0.8503937,-0.0236213 -2.56299213,-0.0354318 -2.56299213,-0.0354318 0.22440945,0.0118106 0.66141733,0.0354318 0.68503937,0.0354318 -1.87795275,0 0.2480315,0.0118106 0.30708662,0.0118106 0.35433071,0.0118106 1.0511811,0.0472424 1.0511811,0.0472424 0.81496063,0.0236212 1.11023622,0 2.19685039,0.0354318 0.21259843,0 0.22440945,0.0118106 0.0590551,0.0118106 -0.61417323,0.0118106 -1.58267716,0 -2.19685039,-0.0118106 0.90944882,-0.0236213 0.30708661,-0.0236213 0.2007874,-0.0118106 0.0354331,0 0.10629921,0 0.10629921,0 -0.24803149,-0.0118106 -0.89763779,-0.0118106 -1.31102362,-0.0118106 0.2007874,0 0.57874016,-0.0118106 0.57874016,-0.0118106 -0.92125984,-0.0118106 -2.77559055,-0.059053 -2.77559055,-0.059053 -0.70866142,-0.0236213 -0.88582677,-0.0472424 -1.67716536,-0.0472424 0.011811,-0.0118106 0.28346457,-0.0118106 0.31889764,-0.0118106 -0.50787401,-0.0236213 -0.6023622,0 -1.0984252,0 -1.08661417,-0.0118106 -3.24803149,-0.0354318 -3.24803149,-0.0354318 0.17716535,0.0118106 0.54330708,0.0236213 0.57874016,0.0236213 l -2.1968504,-0.059053 c -1.2519685,-0.0354318 -2.19685039,-0.0354318 -3.46062992,-0.0826743 1.11023622,0 1.59448819,0 2.66929134,0.0354318 -0.95669291,0.0118106 -0.2480315,0 0.36614173,0.0118106 -0.0354331,-0.0118106 1.86614173,0.0354318 1.83070866,0.0354318 0.54330709,0 1.62992126,0 1.62992126,0 l -0.99212598,-0.0354318 c 0.46062992,0 1.41732283,0 1.40551181,0 -0.62598425,0.0236212 -0.34251969,0.0236212 -0.25984252,0.0236212 3.82677165,-0.0118106 7.20472441,-0.0118106 11.04330709,0.0236213 2.13779527,-0.0236213 6.38976378,-0.059053 6.38976378,-0.059053 0.33070866,-0.0354318 3.72047244,0 4.5,0.0118106 0.8031496,0 2.40944881,-0.0118106 2.40944881,-0.0118106 -0.93307086,-0.0236212 -2.76377952,-0.0708636 -2.82283464,-0.0708636 2.24409449,0.0118106 4.12204724,0.059053 6.38976378,0.059053 2.81102362,0 8.48031496,0.0826743 8.48031496,0.0826743 -0.30708661,-0.0118106 -1.41732284,-0.0472424 -1.41732284,-0.0472424 0.34251969,0 1.05118111,-0.0118106 1.05118111,-0.0118106 1.35826771,0 4.07480315,0.0472424 4.07480315,0.0472424 -0.38976378,0.0118106 -1.14566929,0.0118106 -1.24015748,0.0118106 l 0.72047244,0 c 0.50787401,0 1.52362204,0 1.52362204,0 2.66929134,0.0236212 1.01574804,0.0236212 0.56692914,0.0236212 -0.34251969,0 -1.03937008,0.0118106 -1.03937008,0.0118106 0.22440945,0.0118106 0.12992126,0.0118106 0.10629921,0.0118106 -1.2519685,0.0118106 -3.72047244,-0.0236213 -3.72047244,-0.0236213 0.34251969,0.0118106 -2.45669291,-0.0118106 -2.76377953,-0.0118106 0.0354331,0 0.0944882,0 0.0944882,0 -1.06299212,0 -3.2007874,-0.0118106 -3.2007874,-0.0118106 0.4015748,0.0118106 1.20472441,0.0236212 1.20472441,0.0236212 -3.93307087,0 0.54330709,0.0118106 0.68503937,0.0118106 0.37795276,0.0118106 1.14566929,0.0118106 1.14566929,0.0118106 0.21259843,0.0118106 0.2007874,0.0118106 0.11811024,0.0118106 l 1.4527559,0.0118106 c 0.98031496,0.0236212 1.01574804,0.0236212 0.94488189,0.0236212 -0.23622047,0 -0.67322834,0 -1.01574803,0 l 1.27559055,0.0118106 c 4.51181103,0.059053 2.7992126,0.059053 2.36220473,0.059053 0.61417323,0 1.83070866,0.0118106 1.83070866,0.0118106 2.62204724,0.059053 2.69291338,0.0472424 2.51574803,0.059053 -1.27559055,0 -2.65748031,-0.0236213 -3.93307087,-0.0354318 -1.13385826,0.0118106 -3.4015748,0.0236212 -3.4015748,0.0236212 -2.33858268,0.0236213 -7.26377953,-0.0118106 -7.21653543,-0.0118106 0.66141732,-0.0118106 1.98425197,-0.0236213 1.98425197,-0.0236213 -0.81496063,0 -2.5984252,0.0236213 -2.56299213,0.0236213 -0.99212598,-0.0118106 -2.98818898,-0.0236213 -2.98818898,-0.0236213 1.48818898,0 4.45275591,-0.0118106 4.45275591,-0.0118106 -1.12204724,-0.0118106 -3.35433071,-0.0236213 -3.35433071,-0.0236213 1.66535433,-0.0118106 4.97244095,-0.0236212 4.97244095,-0.0236212 l 0.0472441,0 -0.82677165,-0.0118106 c 3.54330708,0 3.56692913,0 3.44881889,-0.0118106 -0.023622,0 -0.25984251,0 -0.56692913,0 0.74409449,0 2.24409449,0 2.24409449,0 -2.42125984,-0.0236213 -7.27559055,-0.0826743 -7.27559055,-0.0826743 -0.6496063,-0.0118106 -1.93700788,-0.0354318 -1.93700788,-0.0354318 -0.56692913,0 -1.64173228,-0.0118106 -1.84251968,-0.0118106 0.0826772,0 0.22440945,0.0118106 0.22440945,0.0118106 -0.31889764,0 -0.94488189,0.0118106 -0.94488189,0.0118106 0.83858268,0.0236212 0.68503937,0 1.41732283,0 0.49606299,0 1.51181103,0.0236212 1.51181103,0.0236212 l -1.45275591,0.0118106 c 0.47244095,0 5.49212598,0.0118106 5.48031496,0.0236212 l 0.31889764,0.0118106 c 0.31889764,0.0236212 0.12992126,0.0236212 0.10629921,0.0236212 -0.4488189,0 -1.42913386,0 -1.41732283,0 l 1.20472441,0.0236213 -8.37401575,-0.0472424 c -0.68503937,-0.0118106 -1.37007874,-0.0236213 -2.04330709,-0.0236213 l -0.47244094,-0.0118106 1.15748031,0 c -0.67322834,-0.0118106 -2.04330708,0 -2.04330708,0 0.0944882,0 0.41338582,0.0118106 0.47244094,0.0118106 2.17322835,0.059053 0.30708661,0.059053 -0.0590551,0.059053 0.11811024,0.0118106 0.82677166,0.0236213 0.83858268,0.0236213 1.24015748,0.0236212 3.10629921,0.0354318 4.2992126,0.0708636 1.80708661,0.0472424 0.31889764,0.0354318 -0.31889764,0.0354318 l -0.43700787,0.0118106 -0.011811,0 c -0.38976378,0 0.70866142,0.0118106 0.60236221,0.0118106 1.22834645,0 1.92519685,-0.0118106 3.24803149,0 -0.011811,0 -0.0472441,0 -0.0472441,0 2.52755905,-0.0236213 3.21259842,-0.0236213 5.7519685,0.0118106 -0.86220472,0.0118106 -2.56299212,0.0354318 -2.65748031,0.0472424 1.00393701,0 2.97637795,-0.0354318 2.97637795,-0.0354318 0.25984252,0 0.77952756,0.0118106 0.77952756,0.0118106 0.68503937,0 2.04330709,0.0118106 2.04330709,0.0118106 -0.0708662,0 -0.34251969,-0.0118106 -0.20078741,-0.0236213 -0.23622047,0 -0.68503937,-0.0118106 -0.68503937,-0.0118106 0.55511811,0 0.18897638,0 -0.1535433,0 L 70.5,19.19223207 c 0.23622047,0 2.83464567,0 2.82283465,0.0118106 1.33464566,0.0236213 2.64566929,0.0354318 3.98031496,0.0472424 0.59055118,-0.0118106 1.78346456,-0.0118106 1.78346456,-0.0118106 l 5.43307087,0.0354319 -0.0472441,0 c 4.7952756,0 14.3976378,0.0236213 14.3976378,0.0236213 l 3.20078736,0 c 1.6889764,-0.0118106 5.1732284,-0.0118106 5.1732284,-0.0118106 0.1653543,0 0.4724409,-0.0118106 0.4724409,-0.0118106 0.082677,0 0.2125985,0.0118106 0.2125985,0.0118106 1.0866141,0 3.1889763,-0.0118106 3.3897637,-0.0118106 -0.3897637,0 -1.6181102,-0.0354318 -1.5,-0.0354318 0.4133859,-0.0118106 1.2519685,-0.0354318 1.2519685,-0.0354318 0.011811,0.0118106 0.047244,0.0118106 0.047244,0.0118106 1.3110237,0.0236213 2.0196851,0.0472424 3.3543307,0.0354318 -0.6141732,0 -1.8307086,-0.0118106 -1.8307086,-0.0118106 1.4291338,-0.0118106 4.2874016,-0.0472424 4.2874016,-0.0472424 3.2362204,0.0472424 3.2716535,0.0354318 3.1417322,0.0472424 0.094488,0 1.3582678,0 1.3582678,0 4.8543307,0 7.0984252,0.0236213 11.8937007,-0.0354318 0.5905512,0.0354318 1.7952756,0.11810605 1.8307087,0.11810605 l 0.047244,0 c 4.2401575,0.23621208 3.7322835,0.10629543 7.1220472,0.15353785 0.3897638,0.0118106 0.8267717,0.0236213 1.2047245,0.0472424 -0.3779528,-0.0118106 -1.1456693,-0.0118106 -1.1456693,-0.0118106 0,0.0118106 0,0.0118106 0,0.0118106 0.519685,0.0118106 0.9330708,0.0236212 1.4645669,0 0.8385827,0.0354318 2.503937,0.0944848 2.5629921,0.0944848 l -0.3661417,0 0.047244,0 c -0.3543307,-0.0118106 -1.7480315,0.0472424 -1.6181103,0.0472424 -0.035433,0.0118106 -0.1062992,0.0472424 -0.1062992,0.0472424 0.4370079,0 2.8110237,-0.0354318 3.0354331,-0.059053 1.0866142,0.0472424 4.5472441,0.18896966 5.2913386,0.2952651 1.1338583,0.12991665 6.7204724,-0.0236213 8.4212598,-0.0354318 -0.3070866,-0.0118106 -0.9330708,-0.0354318 -0.9330708,-0.0354318 0.3307086,0 3.3070866,-0.0118106 3.3070866,-0.0118106 0.8267716,0 1.535433,-0.0118106 2.3385827,-0.0354318 0.7677165,-0.0236213 1.4291338,-0.0472424 2.1496063,-0.0944849 1.4763779,-0.0944848 2.53937,-0.20078027 3.7086614,-0.36612873 1.1574803,-0.17715906 1.8661417,-0.33069692 2.5511811,-0.5550984 0.6732283,-0.24802269 0.9685039,-0.44880297 1.027559,-0.70863626 l 0.059055,-0.0472424 -0.011811,0.0472424 c -0.023622,0.27164391 -0.2952756,0.46061357 -0.9448819,0.70863626 -0.6614173,0.23621208 -1.3818897,0.40156054 -2.527559,0.57871961 -1.1811024,0.17715906 -2.2322835,0.2834545 -3.7440945,0.38974994 -1.5826772,0.0944849 -2.8937008,0.14172725 -4.6062992,0.14172725 0,0 -0.8503937,0 -0.8503937,0 l -0.3661418,0 1.2165355,0.0118106 c 1.7244094,0 3.035433,-0.0472424 4.6417323,-0.14172725 1.511811,-0.10629543 2.5866141,-0.21259088 3.7795275,-0.38974994 1.1574803,-0.17715906 1.8897638,-0.34250752 2.5629921,-0.57871961 0.6614174,-0.24802268 0.9212599,-0.44880295 0.956693,-0.72044686 0,0 0.047244,-0.15353785 0.047244,-0.15353785 0.1417322,-0.0944848 0.4133858,-0.29526511 0.4133858,-0.29526511 z M 57.53149606,2.244014924 c 0.40157481,-0.0118106 1.02755906,-0.0118106 1.51181103,-0.02362121 l 2.62204724,0.02362121 -4.13385827,0 z M 7.854330709,7.842241351 C 6.992125984,7.830430748 6.732283465,8.043021629 5.976377953,8.172938276 5.433070866,8.243801901 7.653543307,6.649370319 7.736220472,6.590317298 7.677165354,6.23599917 7.830708661,5.515552309 7.830708661,5.515552309 l 0.02362205,0.03543181 0,2.291257229 z M 178.2401575,11.25550599 c 0,0 0,0 0,0 l 0,0 z m 0.8503937,-2.976272276 0,0 0,0 z m -3.3307087,1.547189161 0,0 0,0 z m -21.9803149,-9.3894304051 -0.082677,0 -0.035433,0 -0.011811,0 m -1.8307087,0 -0.023622,0 0.023622,0 0,0 z m -0.023622,0 -0.2362205,0 0.2362205,0 z m -23.3740158,0.259833294 0,0 0,0 z m -14.7755905,0.08267423 0.011811,0 -0.011811,0 z m -0.6377953,0.129916647 -0.023622,0 -0.011811,0 m -15.29527555,0.2244014811 0.011811,0 -0.011811,0 z m -20.14960629,-0.08267423 0,0 0,0 z m 3.6023622,-0.08267423 0.011811,0 0.0354331,0 0.011811,0 0,0 m 3.53149606,-0.047242417 -0.0236221,0 0.0236221,0 z m 4.58267717,0.1062954376 0.10629921,0 c -0.0354331,0 -0.10629921,0 -0.10629921,0 z m 1.46456693,0 0.011811,0 -0.011811,0 z m -5.16141733,-0.63777263 -0.011811,0 0.011811,0 z M 22.2992126,1.889696796 c 0,0 0.011811,0 0,0 l 0,0 z m 20.57480315,0.283454503 0,0 0,0 z m 11.1496063,0.02362121 0,0 0,0 z m -0.56692914,0.0118106 -0.011811,0 0.011811,0 z M 7.736220472,6.590317298 c 0.01181102,-0.0118106 0.01181102,-0.0118106 0,0 l 0,0 z m 23.385826768,12.365702682 0,0 0,0 0,0 m 19.38188977,0.22440148 -0.011811,0 0.011811,0 z m 23.66929134,-0.24802268 -0.011811,0 0.011811,0 z m -4.60629922,0.0118106 c -0.0354331,0 -0.0354331,0 -0.011811,0 l 0.011811,0 z m 0.0472441,0.0472424 c -0.0944882,0 -0.2480315,0 -0.36614173,0 l 0.36614173,0 z m -0.36614173,0 -0.011811,0 -0.023622,0 -0.0236221,0 m 1.80708661,0.0354318 -0.0472441,0 -0.4488189,-0.0118106 0,0 m -3.51968504,0.0472424 0.011811,0 -0.011811,0 z m -6.75590551,-0.15353786 -0.011811,0 -0.011811,0 -0.011811,0 m 0.79133858,0.059053 -0.011811,0 0.011811,0 z m -1.2992126,0.21259087 0.011811,0 m 6.88582677,0.0708636 -0.011811,0 0.011811,0 z m 35.49212589,0.0472424 0.047244,0 c -0.023622,0 -0.047244,0 -0.047244,0 z m 9.2480315,-0.0236213 0.011811,0 -0.011811,0 z m 23.8346458,0.0472424 0,0 0,0 z m 27.1181102,0.60234081 0,0 0,0 z"
    style="fill:#FFCC00"
    id="background-gold-path" />
</svg>