<?xml version="1.0" encoding="UTF-8" standalone="no"?>
<svg
    xmlns:dc="http://purl.org/dc/elements/1.1/"
    xmlns:cc="http://creativecommons.org/ns#"
    xmlns:rdf="http://www.w3.org/1999/02/22-rdf-syntax-ns#"
    xmlns:svg="http://www.w3.org/2000/svg"
    xmlns="http://www.w3.org/2000/svg"
    version="1.1"
    style="fill-rule:evenodd"
    preserveAspectRatio="none"
    viewBox="0 0 365 40"
    id="banners-body">
<defs
    id="banners-body_defs" />
<g
    id="banners-body_g"
    transform="matrix(3.521852516e-4,0,0,3.559350333e-4,-354.5065632,-353.1372161)">
<path
    id="banners-body_path"
    d="m 2042116,1062265 c -3,-3767 -1413,-38004 -1413,-38004 -121,-1797 -251,-3593 -377,-5390 -299,-3279 -1249,-5744 -3538,-8772 -2247,-2808 -4617,-4811 -8411,-7081 -45,15 -5935,-3163 -6204,-2958 -1959,-750 -3728,-1304 -5874,-1877 -5148,-1269 -9190,-1836 -14818,-2004 -13,7 -12342,-345 -11574,-332 -24732,-390 -119497,1079 -119017,1066 -19250,476 -132433,-2 -132166,0 -3303,100 -9913,302 -9913,302 l -14415,-443 c -15343,277 -30592,672 -45946,301 -12432,-102 -137183,-301 -137180,-301 -4752,63 -50091,666 -50091,603 -19449,-364 -152679,-1929 -172126,-2293 -11964,7 -23889,39 -35854,162 -21993,417 -43995,1985 -65947,2433 -9290,111 -61314,-1084 -71127,-1971 -14984,-1226 -21492,-1181 -35671,-1365 -9085,-288 -30925,-911 -38742,-1990 -895,-181 15269,-212 15269,-212 -6803,121 -35172,859 -41221,2536 0,0 -7780,2579 -7524,2745 -2376,1084 -4205,2020 -6296,3278 -4200,2651 -6811,5008 -9224,8251 -2242,3283 -3250,5916 -3591,9394 37,0 -39,528 -39,528 166,33 -1959,12770 -1677,12770 214,5607 1114,11428 1708,17052 -282,2860 -855,8577 -855,8575 -557,521 -1671,1561 -1671,1561 372,2566 1114,7700 1114,7697 100,-1039 298,-3120 298,-3117 560,779 1674,2338 1674,2338 -446,4281 -858,6685 -1972,10915 3,30 37,370 32,370 327,3767 1420,6617 4015,10118 2587,3268 5351,5622 9808,8237 4477,2511 8577,4107 14438,5569 34,-24 3157,672 3157,672 4895,992 9296,1333 14536,1357 0,0 70948,-597 70948,-597 0,0 158331,2144 158331,2131 39600,-312 193055,-1088 232663,-1831 15143,-493 15901,-494 16218,-502 l 150514,-100 c 1281,0 28829,100 28829,100 12295,-226 24827,-1291 37298,-1427 6180,0 85269,-60 91447,-202 l 19100,-200 c 3881,0 42885,-116 42885,-99 7434,8 57718,105 65142,299 2220,34 6666,102 6666,102 l 12431,-804 c 1088,-4 14924,48 15318,-724 -6767,-889 -17237,-1929 -25590,-2713 l 25587,0 c 17421,0 31680,-8725 31680,-19386 l 0,-58161 c 0,-10110 -12822,-18480 -29008,-19317 3432,75 6362,457 9865,1194 4396,1026 7363,2160 10793,3976 3516,1965 5678,3737 7788,6228 2165,2727 3112,4953 3498,7919 -6,0 715,6261 707,6169 784,19879 864,19803 819,20173 34,6432 184,12967 554,19392 388,4126 1051,8305 1658,12427 280,3232 -156,5921 -1840,9016 -5,0 -37,65 -37,65 -1729,3042 -3804,5300 -7294,7864 -3710,2569 -7239,4265 -12424,5926 -5655,1677 -10325,2436 -16756,2725 6491,-135 11267,-796 17102,-2337 5488,-1579 9211,-3201 13271,-5742 3928,-2595 6299,-4889 8411,-8039 2038,-3320 2769,-5982 2709,-9478 -3,0 -861,-14786 -858,-14767 z m -822994,34153 -7509,443 c -3783,-102 -11349,-302 -11349,-302 l -459,-141 19317,0 z m -134324,0 -4665,443 c -282,-66 -990,-233 -1737,-443 l 6402,0 z m 35775,-2286 c -1457,-215 -76143,-512 -77701,-909 3,-12 -654,-178 -652,-178 -3424,-956 -5792,-1990 -8268,-3577 -2688,-1845 -4206,-3490 -5190,-5771 -858,-2415 -655,-4255 13,-6665 1233,-4884 1581,-9474 1711,-14403 l 37,-3419 0,17822 c 0,11724 3841,13567 90050,17100 z m -90050,-46544 c -72,-9572 -299,-19144 -510,-28717 l 557,-3471 c 82,-230 1265,-2571 1265,-2571 475,-698 961,-1328 1502,-1925 -1806,2433 -2814,5132 -2814,7967 l 0,28717 z"
    style="fill:#000000" />
</g>
</svg>