<?xml version="1.0" encoding="UTF-8" standalone="no"?>
<svg
    xmlns:dc="http://purl.org/dc/elements/1.1/"
    xmlns:cc="http://creativecommons.org/ns#"
    xmlns:rdf="http://www.w3.org/1999/02/22-rdf-syntax-ns#"
    xmlns:svg="http://www.w3.org/2000/svg"
    xmlns="http://www.w3.org/2000/svg"
    version="1.1"
    preserveAspectRatio="none"
    viewBox="0 0 210 297"
    id="header-left">
<path
    id="header-left-body"
    fill="#FFE57F"
    d="m 208.7453314,42.8590396 c -0.1327185,11.29356557 -0.6084174,29.74417095 -0.3906995,40.516122 0.074561,-1.4101795 0.2475423,-7.99404927 0.4324535,-8.5535721 0.2535072,-0.35785203 0.4041203,-7.3071554 0.4324536,-8.5535721 l 0.079035,-3.60126453 c 0.00298,-4.38671943 -0.055174,-10.09415516 0.053684,-14.38989514 0.034297,0.43366819 0.02535,4.04857961 0.02535,4.4852803 0.00745,7.35112887 0,14.70832275 -0.031316,22.05945147 0.00447,3.58155233 0.029824,13.80004588 0.064122,13.50436312 0.034298,-0.41547224 0.037281,-0.183475 0.041754,0 l 0.031316,1.12662707 c 0,2.86281592 0.00447,5.69227259 -0.047719,8.55357211 -0.076052,4.9932481 0.047719,9.1434212 0.053684,13.9547107 -0.143157,-0.4882557 -0.032807,0.4700598 0.01491,0.9006953 1.3271849,34.591852 -0.4264887,141.8215899 -0.4682428,179.7493503 -0.00299,0.4958373 -0.028334,0.876434 -0.092456,1.3358796 -0.065614,0.4351844 -0.1342095,0.7384487 -0.2460511,1.0796212 -0.117807,0.3381398 -0.2221917,0.5458759 -0.3713135,0.7414814 -0.1580692,0.1895402 -0.2848228,0.2653563 -0.4533306,0.2759706 -7.8035488,-0.053071 -15.6056065,-0.077332 -23.4091554,-0.078848 0.6158736,-0.019712 1.286922,0.00455 1.9013043,-0.09856 -0.741136,-0.4215374 -5.3102308,-0.2926501 -6.421189,-0.3669498 -2.7587551,-0.1940893 -5.5190014,-0.4321518 -8.2762652,-0.5413271 0.204297,-0.021228 0.6128909,-0.062169 0.6128909,-0.062169 -0.9454328,-0.00607 -2.8348072,-0.01668 -2.8348072,-0.01668 0.1521042,-0.00909 0.4592955,-0.030327 0.4592955,-0.030327 -0.9454329,-0.015161 -2.8348073,-0.047005 -2.8348073,-0.047005 1.8133223,-0.066718 5.4399667,-0.2001545 5.4399667,-0.2001545 -0.8947312,-0.021229 -2.6827029,-0.062169 -2.6827029,-0.062169 -1.0692039,0.053071 -2.1533201,0.2426115 -3.2180504,0.2471604 0.8932401,-0.1061423 2.6827028,-0.2471604 2.6827028,-0.2471604 -2.138408,-0.012126 -4.8867246,-0.2744543 -6.8968877,0.1228224 1.0468357,0.068235 3.1419984,0.2016708 3.1419984,0.2016708 -0.5577158,0.021229 -1.1288528,-0.028811 -0.7664864,0.062169 -0.020877,0.00304 3.3060323,0.1076584 3.2955938,0.109176 1.4554296,0.083398 4.3677803,0.2471604 4.3677803,0.2471604 -7.995916,-0.00304 -23.9847659,-0.2941664 -23.9847659,-0.2941664 -0.4831549,-0.015161 -5.2118103,-0.1667954 -5.2118103,-0.109176 -0.058158,0.081882 1.2630625,0.1880239 1.456921,0.2016708 l -0.077543,-0.015161 c 0.5070144,0.036391 1.3361322,0.00152 1.8371817,0.1728606 -0.8350826,0.1622464 -2.1995479,-0.021228 -3.0629637,-0.1410171 -0.5845579,-0.00152 -0.3638575,-0.00304 -0.1535956,-0.01668 -1.1497298,-0.1910566 -3.4476982,-0.5883328 -3.4476982,-0.5883328 4.1381326,0.087946 12.4143979,0.4655107 12.4129067,0.4655107 0.2371038,-0.1152404 -1.0870987,-0.1956055 -1.3018342,-0.216834 1.2257821,0.057621 3.6788373,0.015161 3.677346,0.015161 -0.8142055,-0.037909 -2.4515639,-0.094012 -2.4515639,-0.094012 -0.6382419,0 -1.9162164,0 -1.9162164,0 -0.817188,-0.087946 -2.4515641,-0.137985 -2.4515641,-0.137985 1.1750806,-0.01668 3.5252416,-0.047007 3.5252416,-0.047007 -1.1750805,-0.021229 -3.5252416,-0.062169 -3.5252416,-0.062169 -0.2430687,-0.039425 -1.225782,-0.031843 -1.225782,-0.031843 -1.225782,-0.010616 -3.6788372,-0.045489 -3.6788372,-0.045489 -1.2585888,-0.1956056 -2.567879,-0.2244157 -3.8309415,-0.2941665 -1.9654266,-0.081882 -5.9022447,-0.031843 -5.9007534,-0.031843 1.2779746,0.077333 3.8324327,0.2486769 3.8324327,0.2486769 0.4592955,0.019712 1.3778863,0.062169 1.3778863,0.062169 -0.551751,0.00455 -1.430079,-0.087946 -1.9758651,0.048523 0.8663982,0.145567 1.8625325,0.089462 2.7423517,0.1061422 1.2004313,0.2532259 3.602785,0.758161 3.602785,0.758161 -0.5368388,0.00152 -1.6105165,0.062169 -1.6105165,0.062169 0.089473,0.1334367 0.5129794,0.1834748 1.0185026,0.1986381 l -8.0674946,-0.1364688 c 3.0778759,0.2031872 5.9633846,0.2941665 9.0412606,0.2486767 0.00298,0.025777 0.4667515,0.047007 0.4607866,0.045489 -1.2526239,0.024261 -3.7548893,0.077332 -3.7548893,0.077332 0.6009612,0.040941 1.7894627,0.1061423 1.8371817,0.1091745 l -2.5276161,-0.062169 c -0.2356126,0.00909 -4.9180402,0.072784 -5.1968981,0.2820358 2.6961239,0.2729379 5.550317,0.1122082 8.2628443,0.1061423 -3.6534865,0.072784 -10.9589682,0.169828 -10.9589682,0.169828 -0.9230645,-0.042457 -9.8837993,-0.2759706 -9.8837993,-0.2319973 0,-0.054587 -98.16247094,0.7900039 -98.16247094,0.7900039 0,0 -21.275220996,0.1592137 -21.275220996,0.08643 -0.211753094,-0.00758 -0.375787181,-0.1046262 -0.572628084,-0.3381397 -0.192367247,-0.2441279 -0.3265769541,-0.5079679 -0.4756988508,-0.9340544 -0.14464824,-0.4321518 -0.2326301588,-0.8157812 -0.3176296401,-1.3677223 -0.083508263,-0.5943983 -0.1178062989,-1.078105 -0.120788737,-1.7210254 C 0.5562513136,292.4547268 -0.0044470181,6.852458999 2.663877397e-5,6.852458999 0.0045002956,6.048808304 0.0447632078,5.440763244 0.1476573165,4.696249314 0.2520426442,4.001773716 0.3653752856,3.496838588 0.5458127806,2.9509628 0.7381800273,2.403570453 0.9022141137,2.071495947 1.148265243,1.753068327 1.395807592,1.455869317 1.607560686,1.323949358 1.875980098,1.311818724 L 3.720617961,1.275426212 C 13.01389456,1.088918551 22.30717115,0.8720844585 31.60044776,0.6325056555 31.04869675,0.6036951708 29.95265079,0.4960367847 29.91537032,0.4930045837 c 2.1294607,0.071267399 4.15453606,0.012125753 6.28250552,-0.078849427 -0.89324018,0.1152404137 -2.68270294,0.1865076602 -2.68270294,0.1865076602 0.51148812,0.013651005 1.53297311,0.047005216 1.53297311,0.047005216 1.64928817,0.536777965 5.32365171,0.092495856 7.20258761,0.092495856 -0.17745505,0.021228457 -0.53534761,0.062169271 -0.53534761,0.062169271 l 2.48735324,0.021228457 C 52.07041051,0.8917968152 63.85998767,-0.9914755854 71.24152156,0.7219676329 68.61399372,1.402796192 65.4198027,1.377018823 62.78780123,1.592336358 59.06870114,1.546847243 55.16319865,1.25571294 51.75278086,1.654505629 49.12227061,1.680282387 43.8612501,1.73183743 43.8612501,1.73183743 l 1.18253665,0.01819626 c -0.22219163,0.0030353 -0.44140082,0.01819626 -0.64718905,0.05913707 l -6.36004887,-0.2016708 c 0.7724514,0.312362302 2.15182896,0.285068375 3.37164607,0.356335622 1.53297309,0.0060705 4.59742808,0.01668016 4.59742808,0.01668016 0.29227892,0.02274456 1.35104439,0.01819626 1.63884964,0.165279203 -0.42201496,0.0712674 -0.88280162,0.0075805 -0.94841527,0.08188163 -0.56218954,0.04094081 -1.68656864,0.124338542 -1.68656864,0.124338542 -1.04683573,-0.0682352 -3.14050715,-0.2016708 -3.14050715,-0.2016708 -0.18341994,-0.0030353 -2.36209085,0.02729438 -4.08295753,0.013651 l 6.30487378,0.218350346 c -2.01761924,-0.05913707 -6.05434898,-0.139501072 -6.05434898,-0.139501072 -3.14199837,0.03184269 -9.42450388,0.09401196 -9.42450388,0.09401196 -1.12587032,-0.03184269 -2.41875716,0.03639251 -3.52524163,-0.171344368 -0.41605011,-0.015161 -5.67110574,-0.139501072 -5.67110574,-0.139501072 0,0.09856026 -3.75488936,0.154664822 -3.75488936,0.154664822 0.93797674,0.03942471 1.93112856,-0.05458724 1.99226854,0.09401196 0.46078666,0.02274456 1.37937755,0.06216927 1.37937755,0.06216927 2.43217814,0.23806255 4.84944407,0.195605483 7.280131,0.354819369 2.65287855,0.0697513 5.68154425,-0.0697513 7.89302199,0.435184439 0.14017455,0.141017172 -2.58726491,0.253225843 -2.98840283,0.279003211 0.79780215,-0.01212575 1.58218334,-0.103110085 2.37551183,-0.124338542 0.53236518,-0.02122846 0.39666424,-0.01212575 0.30569989,-0.015161 0.63525927,-0.04548912 1.38235998,0.03335879 1.76262081,-0.139501072 0.72174998,-0.05003894 1.47630677,-0.125854642 2.19656555,-0.106142286 -0.49806714,0.04852284 -1.00955525,0.04245691 -1.50613116,0.05913707 0.41903252,0.01668016 4.21418479,0.09249586 4.21418479,0.09249586 -0.15657798,-0.04548912 -0.33552427,-0.08036553 -0.53087394,-0.104626185 1.50613115,0.06520147 4.36181546,0.05913707 4.36181546,0.05913707 -0.51148809,0.01819626 -1.50762236,0.08491383 -1.60156916,0.09249586 0.1371921,-0.0091058 0.299735,0 0.299735,0 0.55622469,0.02122846 2.52016007,0.01971236 3.01226232,0.404858006 -0.27885794,0.188023913 -0.81271432,0.166795456 -1.09753715,0.183475002 1.20043126,0.01212575 3.60278502,0.04700522 3.60278502,0.04700522 -0.40859399,0.03032659 -1.22727321,0.09249586 -1.22727321,0.09249586 -0.65464513,0.0091058 -1.2570976,-0.0060705 -1.91472515,0.109176012 -1.09008107,0.03032659 -2.18165335,0.0742996 -3.2702432,0.08339773 L 41.96889323,4.126117748 C 42.95309775,4.05636645 43.95072324,4.021491563 44.93343653,4.009361234 43.2483591,3.918381478 39.8752218,3.822853574 39.8752218,3.822853574 38.62558032,3.689416904 36.12033244,3.622699179 36.12182366,3.622699179 35.56261654,4.027557033 35.54770437,4.023008121 35.58498484,4.024524527 35.27779373,4.012398773 34.66490273,3.979035412 34.66490273,3.979035412 32.80087903,3.875925327 29.0713404,3.83953434 29.0713404,3.83953434 c 0.43692715,0.577718626 5.1506703,0.382113143 6.5896966,0.433668033 0.9200821,-0.06216927 2.75875509,-0.04700522 2.75875509,-0.04700522 -0.35789255,-0.02577828 -1.07218643,-0.0773318 -1.07218643,-0.0773318 0.612891,-0.04094081 1.83867298,-0.154664822 1.83867298,-0.154664822 0.56666321,0.04548912 1.12885275,0.08036553 1.6895511,0.107658387 -0.43245352,0.0060705 -0.8410475,0.03790861 -1.20341372,0.107658386 0.90964357,0.191056571 1.97139148,0.162246392 2.88550872,0.218350346 -0.15508678,0.03790861 0.0104385,0.01819626 0.15359554,0.015161 0.79183727,0.04094081 2.37551182,0.124338542 2.37551182,0.124338542 0.61289098,-0.02577676 1.83867298,-0.0773318 1.83867298,-0.0773318 -0.58754027,-0.04094081 -1.76262082,-0.124338542 -1.76262082,-0.124338542 0.23859504,-0.013651 2.5156864,-0.139501071 2.52910736,-0.169828267 0.43394473,-0.02577676 1.30332538,-0.0773318 1.30332538,-0.0773318 -0.15061311,-0.03032659 -0.45034813,-0.0773318 -0.46078666,-0.0788479 0.69043439,0.01971236 2.06981193,0.03184269 2.06981193,0.03184269 -0.15359556,0.206220017 -0.46078666,0.620175846 -0.46078666,0.620175846 0.92306453,-0.05610334 3.59831136,-0.01516101 3.52673284,-0.520098573 1.25113273,0.06368537 2.59919467,0.09249586 3.45664557,-0.159213733 -0.36683986,-0.204703459 -1.60902525,-0.166795304 -2.07875923,-0.204703459 2.22191626,0.03639099 6.66724,0.109174487 6.66724,0.109174487 -0.204297,0.02577676 -0.61289099,0.0773318 -0.61289099,0.0773318 1.52402578,0.227448474 3.13454226,-0.02426066 4.67348024,0 -0.38324329,-0.02577676 -1.14972982,-0.0773318 -1.14972982,-0.0773318 C 65.0962082,3.72126081 64.26410801,3.563563177 64.32077433,3.575693811 63.7839355,3.64847731 62.71174907,3.792527751 62.71174907,3.792527751 62.14955951,3.751586938 61.02518041,3.66818921 61.02518041,3.66818921 l -2.43963423,0.03487489 c -0.0849995,0 -4.43041156,0.08491383 -4.48856909,0.04094081 1.97586512,-0.08188163 3.95620391,-0.09856026 5.93206905,-0.137984971 -0.89324016,-0.05155504 -2.6812117,-0.139501072 -2.6812117,-0.139501072 0.47271641,-0.03942471 1.06622156,-0.04397302 1.53148187,-0.200154547 0.38175206,0.0075805 4.06208046,0.128886843 4.06208046,0.09249586 C 63.2888508,3.214809277 60.09913343,3.06014476 59.87545058,3.049530532 61.4337744,2.91002946 64.55042206,2.631025639 64.55042206,2.631025639 c 0.56218954,0.01971236 1.68656864,0.06065317 1.68656864,0.06065317 0.0342981,0.257774754 0.96929232,0.165279051 1.4554297,0.248676779 0.66359244,0.04094081 1.99226854,0.124338541 1.99226854,0.124338541 1.96691782,0.0045453 5.90075347,0.01516101 5.90075347,0.01516101 C 73.38887686,2.916092337 68.99425456,2.614344415 68.99425456,2.614344415 67.5895263,2.609799164 64.78006977,2.59918341 64.78006977,2.59918341 66.5680413,2.439969524 68.20390852,2.3216963 69.99188005,2.352022885 73.23528131,1.989621946 79.72357504,1.26633632 79.72357504,1.26633632 c 1.19894004,0.01819626 3.60129379,0.06216927 3.60129379,0.06216927 4.16050093,0.06823367 8.32696672,-0.151632926 12.49045007,-0.04548912 2.63051026,0.0727835 7.893022,0.511000444 7.893022,0.511000444 0.8425387,0.02122846 2.5276161,0.169828114 2.5276161,0.169828114 5.8947886,0.184991103 17.7082253,1.100849705 17.7022604,1.100849705 -2.2219163,0.015161 -4.4423413,-0.147083099 -6.66724,-0.154664822 -0.4935935,-0.02881048 -1.225782,-0.06216927 -1.225782,-0.06216927 -0.5278915,-0.04700674 -1.4822716,-0.212285029 -1.1497298,0.04548912 -0.6456978,0.04245691 -2.0548998,-0.05913707 -3.4476983,-0.107658386 -2.8020004,-0.137984972 -5.5622467,-0.630790075 -8.3523174,-0.697508105 0.3176296,0.212285029 1.1556947,0.210768776 1.838673,0.279003211 -1.3749039,-0.0727835 -3.6102411,-0.169828114 -5.08953035,-0.231997232 1.60156915,0.0788479 3.81155565,0.24564412 3.48050505,0.618659287 0.4071028,0.03790861 0.817188,0.05913707 1.225782,0.0788479 -1.5329731,0.01516101 -4.59742806,0.04548912 -4.59742806,0.04548912 1.09753716,0.02122846 3.29410266,0.06216927 3.29410266,0.06216927 1.8923569,0.233513486 3.7414684,0.283552123 5.624878,0.438217097 -1.9385847,0.265356172 -4.1306766,0.141017173 -6.0841734,0.212285029 1.0721864,0.0015163 2.1473553,0.0758157 3.2180505,0.06216927 2.1965656,0.0030353 4.3946223,0.04700674 6.5896966,-0.0773318 0.2669282,-0.153148416 -2.2084953,-0.180442343 -2.4515639,-0.18650766 -1.7238492,-0.181958444 -3.499891,-0.24564412 -5.2147928,-0.550424853 0.096929,-0.0758157 2.6155981,0.112208213 2.6856854,0.116756515 -0.5070145,0.0712674 -0.4742076,0.0742996 -0.4592955,0.0773318 1.5329731,0.01365101 4.5974281,0.0773318 4.5974281,0.0773318 0.3921906,0.01365101 1.7551647,0.184991408 1.225782,-0.03032659 3.4372597,0 6.7567131,0.215317688 10.1924816,0.448831173 -0.6397329,-0.01212575 -7.2801309,0.04245691 -7.2801309,0.04700522 -0.5010496,-0.01365101 -1.0095553,-0.08339773 -0.6889432,0.015161 -0.1535956,0 -0.4607867,0 -0.4607867,0 0.5621896,0.015161 1.6865687,0.04700522 1.6865687,0.04700522 0.5875403,0.01061575 1.7626208,0.03032659 1.7626208,0.03032659 5.7218072,0.141017172 17.1639303,0.433668186 17.1639303,0.433668186 0.2878053,0.204703458 1.1363089,0.118272614 1.7626208,0.109174486 0.5875403,0.02577676 1.7626208,0.0773318 1.7626208,0.0773318 -1.4554297,0.05610334 -4.3677803,0.169827962 -4.3677803,0.169827962 0.8947314,0.01668016 2.6827029,0.04700522 2.6827029,0.04700522 1.096046,-0.03790861 2.2010392,-0.241095056 3.2941027,-0.247160373 -0.9170997,0.121306341 -2.7587551,0.262323665 -2.7587551,0.262323665 1.6865687,0.01819626 5.0582148,-0.015161 5.0582148,-0.015161 0.8619245,0.368466409 2.8452458,0.269905388 3.8309415,0.326009342 1.9669178,0.0090905 5.9007534,0.03032659 5.9007534,0.03032659 -0.7918371,-0.05610334 -2.3755117,-0.169828115 -2.3755117,-0.169828115 -1.2570977,0.04094081 -2.5156865,0.09401196 -3.7742753,0.115240414 0.016403,-0.02274456 2.9749818,-0.13343667 3.3149798,-0.147083099 -1.6358672,-0.08642993 -3.6549777,0.127370742 -5.0582148,-0.262323666 -1.0468357,-0.0727835 -3.1419983,-0.216834093 -3.1419983,-0.216834093 0.2296477,-0.0015163 0.6904344,-0.03184269 0.6904344,-0.03184269 -0.3683311,-0.275970552 -2.2457758,-0.07884943 -2.9884028,-0.124338541 0.09842,-0.03032659 -0.064122,-0.01516101 -0.077543,-0.01516101 l -2.8377897,-0.265356324 c -1.5911307,-0.1485992 -3.2404188,-0.244127715 -4.8330407,-0.51251685 2.8288424,-0.291133693 6.3615401,0.395760183 9.2798556,0.561039234 1.5657799,-0.04852284 3.2568223,-0.22289941 4.8181285,-0.115240414 -0.6233295,0.238062397 -2.124987,0.13343667 -2.8258599,0.162246392 -0.5606984,0.0045453 -1.6850774,0.015161 -1.6850774,0.015161 1.8133222,0.04094081 5.4399667,0.124338541 5.4399667,0.124338541 0.2072795,0 0.9961343,0.01516101 0.9961343,0.01516101 2.0191106,0.02729438 6.0543491,0.06216927 6.0543491,0.06216927 1.9147251,0.159213734 5.7471579,0.386662055 5.7471579,0.386662055 1.1750805,0.02122846 3.5252417,0.06216927 3.5252417,0.06216927 -2.3248104,0.02122846 -6.9729399,0.06216927 -6.9729399,0.06216927 l 1.1467472,0.03032659 -0.1506131,0 c 0.817188,0.01668016 2.4515641,0.04700522 2.4515641,0.04700522 0.4473657,0.01061575 1.307799,0.015161 1.4390262,0.015161 l -0.1357005,0 c 2.731913,0.05003894 8.1987218,0.0773318 8.1987218,0.0773318 0.138684,0.13343667 4.1873429,0.353303117 5.5413698,0.429119122 -0.00894,-0.0030353 -0.016404,-0.0075805 -0.023859,-0.01061575 1.3540268,-0.013651 2.7080536,0.0075805 4.0605892,0.01516101 -3.0137535,-0.188023913 -9.0412605,-0.448831326 -9.0412605,-0.448831326 0.3772783,0 0.9454328,0.06065317 0.3056998,-0.09249586 -1.3018341,-0.103110085 -3.9084849,-0.310845897 -3.9069936,-0.310845897 -2.3009509,0.03335879 -4.603393,0.08339773 -6.9043439,0.0788479 1.9922686,-0.08339773 3.990502,-0.100077883 5.9842617,-0.139501071 -0.2132444,-0.01365101 -1.6507794,-0.06520147 -1.8163047,-0.206219712 0.6158736,-0.286584782 3.4998909,0.109174486 4.1918165,0.159213733 -0.1535955,0 -0.4592954,0 -0.4592954,0 l 0.6099086,0.01516101 c -0.077544,0 -0.2281566,0.01516101 -0.2281566,0.01516101 1.4777981,0.0682352 3.3164711,-0.0060705 4.0620806,0.37301532 0.3832433,0.0045453 1.1497298,0.01516101 1.1497298,0.01516101 -0.102894,0.01061575 -0.3071912,0.015161 -0.3071912,0.015161 4.2410268,0.213801434 8.4775799,0.63382258 12.7200979,0.821846493 0.3728048,0.01365101 5.3833004,0.285068529 5.4414579,-0.248676778 0.093947,-0.0091058 1.6000779,-0.104626185 2.2219163,-0.309329644 3.4998908,0.256258348 10.4996728,0.914342045 10.4981816,0.914342045 l -14.6780685,0.880983106 11.9014186,0 c 2.8780528,-0.344205141 5.6263692,-0.724801879 7.5276735,-0.850656674 0.01491,0.288101187 -0.1655253,0.576202374 -0.456313,0.850656674 l 0.7575391,0 0,18.247418011 c 0.2714019,-5.56490139 0.8738544,-18.095785848 0.8544684,-18.100334912 -0.00149,-0.389694713 -0.020877,-0.676279495 -0.070087,-1.038680434 -0.050702,-0.341172482 -0.104385,-0.582267691 -0.1923673,-0.850656521 -0.090965,-0.260807413 -0.1699991,-0.423053957 -0.286314,-0.577718779 -0.123771,-0.1485992 -0.2221917,-0.210768776 -0.3564014,-0.219866751 0.1327185,0.0060705 0.2326302,0.06671757 0.3549102,0.212285181 0.1163145,0.1485992 0.1968408,0.307813391 0.2878052,0.565587992 0.090964,0.269905389 0.146139,0.509484192 0.1983321,0.853689332 0.050702,0.360884687 0.070087,0.653534785 0.07307,1.041713246 0,0 -0.01491,6.615712456 -0.01491,6.533831136 l -0.020877,29.4879126 z M 71.54722145,6.703859494 c -2.5544581,-0.13343667 -4.95382942,-0.259291007 -5.33409026,-0.300231821 0.70534659,0.115240414 1.42560534,0.213801434 2.15630263,0.300231821 l 3.17778763,0 z m -48.71215878,0 c 0.11780625,-0.03032658 0.23263016,-0.06216927 0.34447159,-0.09704416 C 17.71719917,6.197408419 12.16091731,6.264126601 6.6955998,6.147369782 c -0.08798192,0.02729438 0.04026291,0.03942471 0.07605216,0.04700522 l -4.774883132,0.509484191 20.838293842,0 z M 1.834225968,15.31050274 c -0.03429804,9.9076475 -0.08947314,26.70242925 -0.120788732,26.69939659 -0.23263016,26.68574955 0.007456,55.18350395 0.120788732,83.32037367 l 0,-110.01977026 z m 0,114.00314776 c -0.03280681,5.0357052 -0.07306973,11.5103998 -0.07306973,11.5103998 0,-2.4003375 -0.0044736,-7.2025292 -0.0044736,-7.2025292 l -0.08499948,13.2602353 c -0.181928715,28.5053359 -0.08947314,55.2305099 0.05815754,83.5296262 0.0119298,-5.1767231 0.03728048,-15.5316855 0.03728048,-15.5316855 -0.01491225,-5.0614827 -0.04921023,-10.1775529 -0.04473657,-15.2344865 0.02535072,4.0971018 0.03429804,8.2093669 0.04921023,12.307985 0.0059649,-2.1410465 0.0014912,-21.295225 0.01640342,-21.3831718 0,-3.9773124 0.0104385,-11.930421 0.0104385,-11.930421 0.0089473,-3.8256802 0.02684194,-11.478557 0.02684194,-11.478557 0.0014912,-0.1061423 0.0059649,-0.241095 0.0089473,-0.3805967 l 0,-7.4830487 -0.06710486,8.9887564 c -0.0044736,2.025806 -0.0059649,6.0774182 -0.0059649,6.0774182 -0.04771901,-8.4853375 -0.07754339,-16.7068349 0.0104385,-25.2103684 -0.0059649,1.8696251 -0.04026291,4.2093098 -0.0044736,6.0698367 0.03877169,-0.6596 0.05815754,-2.0273224 0.06710486,-3.499671 l 0,-22.4097218 z m 0,132.6296466 -0.0089473,2.4564415 c -0.0014912,2.9143706 -0.06710486,6.9629502 0,9.6786828 l 0.0089473,-0.4230538 0,-11.7120705 z m 0,19.6742769 -0.0089473,0.1152404 c -0.01342095,0.5943982 -0.05219267,1.0144193 -0.105876542,1.5754584 0.03131559,2.1016223 0.06412242,4.2017282 0.09991167,6.3018341 -0.0014912,0.1849912 -0.02684195,3.000801 -0.02684195,3.000801 0,0.039425 0.0014912,0.071267 0.0059649,0.1076584 0.0059649,0.034875 0.0104385,0.062169 0.01938585,0.089464 0.0104385,0.028811 0.01789462,0.043973 0.02982438,0.060653 0.01342095,0.01668 0.02385951,0.024261 0.03728048,0.025777 0.254998443,0.1106921 0.09394679,0.101594 0,0.1091745 -0.0059649,0 0,0 0,0.00152 0.219209189,0.00909 0.442892033,0 0.662101221,0 1.546394069,-0.1167565 3.817520555,-0.1956055 5.793385686,-0.2456441 l -6.506188352,0 0,-11.1419336 z m 10.744232652,11.1419336 c 0.27587551,0.057621 0.85148603,0.071267 0.92604698,0.075816 -0.79183727,0.039425 -0.62332953,0.045489 -0.61289099,0.045489 0.15359555,0.010616 0.46078666,0.031843 0.46078666,0.031843 0.35640133,0.013651 1.07218644,0.045489 1.07218644,0.045489 -0.0969292,0.080366 0.0656136,0.1667954 0.0760522,0.1713443 -0.50403201,-0.075816 -1.15718592,-0.1364688 -1.82823446,-0.1849912 -0.5428037,0.062169 -1.15122104,0.013651 -1.69551596,0.013651 1.27648343,0.1106921 3.83094152,0.2638401 3.83094152,0.2638401 0.76648655,-0.050039 1.51507847,-0.2623237 2.29945965,-0.2790032 -0.0268419,0 -0.0775434,0 -0.0775434,0 0.10289415,-0.015161 0.30719113,-0.045489 0.30719113,-0.045489 1.27648343,0.048523 3.83094152,0.1698282 3.83094152,0.1698282 -0.35789256,0.015161 -1.07218644,0.047005 -1.07218644,0.047005 0.58754027,0.00455 1.76262082,0.015161 1.76262082,0.015161 0.76499532,0.012126 2.29796843,0.030327 2.29796843,0.030327 -0.63824172,0.02881 -1.91621638,0.094012 -1.91621638,0.094012 1.4852541,0.071267 3.71164401,0.4139558 5.12531959,0.1243386 -0.92306453,-0.1849914 -1.97586512,-0.1622466 -2.9019121,-0.2183505 0.26692818,-0.00607 2.03700511,0.025778 2.12647824,-0.060653 -0.96929233,-0.2456441 -2.14586409,-0.221383 -3.12261251,-0.2956828 l 0.0447366,-0.043973 -10.93361746,0 z m 35.31504757,0 c 0.73964462,0.072784 1.48078043,0.1485992 2.23981089,0.1986381 l -0.30122624,0 c 0.0521927,0.00152 0.1491219,0.01668 0.1491219,0.01668 0.2281565,0.027294 0.9036787,0.1167565 0.53534761,-0.01668 5.34154634,-0.1501153 10.3699367,0.6383716 15.63244843,0.7141877 -0.43394473,0 -1.30183416,0 -1.30183416,0 0.5353476,0.025777 1.60902527,0.092496 1.60902527,0.092496 0.0507015,-0.010616 0.15210434,-0.031843 0.15210434,-0.031843 0.89174894,0.010616 1.79393641,-0.02881 2.68270291,0.077332 l -1.99226853,0 c -0.33254183,-0.00455 -0.99613427,-0.015161 -0.99613427,-0.015161 -2.55445811,-0.047007 -7.66337427,-0.1076584 -7.66337427,-0.1076584 -4.41997302,-0.221383 -8.83398116,-0.4791577 -13.25693663,-0.635339 l 0.99613428,0.077332 -0.0760521,0 2.22042503,0.1395011 -0.0745609,0 c 0.45183935,0.022745 1.35104438,0.075816 1.37788633,0.077332 l -0.15210434,0 c 0.26841941,0.01668 3.70418792,0.1713444 3.88015175,0.3305583 -0.34447159,0.1288868 -1.13481763,0.033359 -1.50463993,0.025777 0.004473,-0.1713443 -1.60753405,-0.062169 -1.68656864,-0.062169 -1.86402372,-0.089464 -5.59356235,-0.3866621 -5.59356235,-0.3866621 -3.67734597,-0.062169 -11.03352914,-0.1865077 -11.03352914,-0.1865077 1.5568326,0.1031101 4.67348024,0.3093297 4.67348024,0.3093297 2.1697236,0.028811 4.34690329,-0.1425348 6.51364444,-0.062169 -1.86402371,0.062169 -5.59356235,0.1243386 -5.59356235,0.1243386 0.68745195,0.047007 2.13989924,0 2.84077214,0.2441277 -3.26576953,0.2198667 -6.67618731,-0.1592138 -9.96730758,-0.1516314 4.37672768,1.1584699 12.07738242,0.2426116 17.54717358,0.3730151 2.38744159,0.1106922 4.6779539,0.024261 7.05048328,0 0.3295594,0.013651 4.13813265,0.1576975 4.13813265,0.092496 0.42350618,-0.066718 0.31912085,-0.075816 0.30569988,-0.077332 1.32867611,-0.010616 3.9860283,-0.031843 3.9860283,-0.031843 0.76499533,0.059137 2.29796842,0.1243386 2.29796842,0.1243386 0.19833212,-0.025777 0.0939468,-0.042457 0.0760523,-0.045489 -0.28034918,-0.031843 -0.84253873,-0.094012 -0.84253873,-0.094012 0.46078666,-0.00455 1.37937753,-0.015161 1.37937753,-0.015161 2.29945965,0.1379849 6.89688773,0.3411725 6.89688773,0.3411725 -0.15657799,0.1956054 -0.0342979,0.2335136 0,0.2471605 -2.01761926,-0.075816 -6.05434901,-0.2623237 -6.05434901,-0.2623237 l 0.69043439,0.062169 -3.44769825,-0.1091745 c 1.20043128,0.077332 3.60129381,0.2319972 3.60129381,0.2319972 l 2.14437287,0.062169 c -0.86938066,-0.00758 -2.60515953,0.031843 -2.60515953,0.031843 3.89804638,1.4253426 11.39440413,0.7778732 15.55639625,0.8354934 0.44587449,-0.09856 -4.60935783,-0.3987927 -5.1342669,-0.4336682 -1.08262498,-0.306297 -2.52314249,-0.3366234 -3.75488936,-0.4185048 0.28034917,-0.036391 0.84253873,-0.1076583 0.84253873,-0.1076583 0.94543283,0.069751 2.59919465,0.3760478 3.48945238,0.1728606 -0.69341682,-0.2456441 -1.78349788,-0.2274483 -2.49331811,-0.297199 0.22964771,-0.030327 0.69043437,-0.092496 0.69043437,-0.092496 -0.89174893,-0.083398 -1.79095398,-0.1228224 -2.68270291,-0.062169 -0.35192767,-0.02881 -1.04981817,-0.075816 -1.07218645,-0.077332 l 1.14972982,0 -1.29736048,-0.015161 c 0.18043749,-0.00152 0.53087395,-0.01668 0.53087395,-0.01668 -0.40859401,-0.018196 -1.225782,-0.030327 -1.225782,-0.030327 -0.612891,-0.068234 -1.8401642,-0.1865077 -1.8401642,-0.1865077 -1.53148188,-0.071267 -4.59742808,-0.2168339 -4.59742808,-0.2168339 0.15359555,-0.019712 0.45929543,-0.062169 0.45929543,-0.062169 0.24605114,0.024261 0.2356126,0.027294 0.23113895,0.031843 0.60543491,-0.031843 0.39069937,-0.025777 0.30569989,-0.031843 -0.17894628,-0.00455 -0.53683884,-0.015161 -0.53683884,-0.015161 2.75875509,-0.092496 8.27626526,-0.2790033 8.27626526,-0.2790033 2.29945966,0.068235 6.89688774,0.139501 6.89688774,0.139501 0.52490908,0.00304 6.66724,-0.09098 6.66724,-0.062169 l 4.00690537,0.084914 c 1.1243791,0.024261 8.09881025,0.5489084 9.21125955,-0.00152 -1.6254287,-0.4139558 -3.44024216,-0.2562584 -5.0954952,-0.4700598 -0.0462278,-0.047007 -0.0253508,-0.072784 0.0328068,-0.09098 l -12.50088859,0 c 0.45482179,0.033359 0.90815234,0.066718 1.35700925,0.1061423 -1.53297308,-0.047007 -4.59891928,-0.092496 -4.59891928,-0.092496 l -0.1371921,-0.013651 -34.2100543,0 z m 146.97454151,0 c -1.722358,0.1986381 -4.3498858,0.5094842 -4.3498858,0.5094842 1.9922685,-0.1546649 5.9768056,-0.4655109 5.9768056,-0.4655109 0.334033,-0.00455 1.3063079,-0.021229 2.5529669,-0.043973 l -4.1798867,0 z m 13.049657,-89.0899787 c 0.011925,-3.9151431 0.020877,-7.7499213 0.020877,-7.7499213 0.1148235,14.7811061 0.347454,44.3433185 0.347454,44.3433185 -0.028334,-4.9386605 -0.029825,-9.9167455 -0.031316,-14.855406 0.02535,2.6581125 0.031316,5.5239609 0.08649,8.1744916 0.017895,-4.0303838 -0.052193,-8.3852602 -0.082017,-12.4520358 0.00745,-3.2252167 0.022368,-9.6786828 0.022368,-9.6786828 -0.062631,-6.5277659 -0.184911,-19.5832977 -0.184911,-19.5832977 0.080526,3.6315909 0.1655253,-0.5443596 0.14763,0.2259319 -0.04921,-3.076617 -0.14763,-9.2283352 -0.14763,-9.2283352 -0.025351,2.0985896 -0.026842,6.3018339 -0.026842,6.3018339 -0.038772,-4.0516121 -0.1163145,-12.1548365 -0.1163145,-12.1548365 -0.00894,-7.7286929 -0.025351,-23.1845623 -0.025351,-23.1845623 -0.00447,1.6163991 -0.00745,3.6740481 -0.01044,5.812062 l 0,44.0294397 z m -63.3007539,91.3963044 0,0 0,0 z m -2.5067391,0.4306354 c 0.1043853,0.00304 0.2132443,0.00455 0.3221033,0.00455 l -0.3221033,-0.00455 z m 0.3221033,0.00455 c 0.5771018,0.00304 1.1855191,-0.022744 1.4956927,-0.01668 l 0.2296477,0.047005 -1.7253404,-0.030327 z m 1.7253404,0.030327 0,0 0,0 z m -2.5305986,0.3093298 0.00149,0 -0.00149,0 z M 29.91537032,0.4930047362 l -0.001491,0 0.001491,0 z m 15.12841643,1.2570309328 0.63525927,0.0091058 c -0.20727942,-0.0045453 -0.42201496,-0.01212575 -0.63525927,-0.0091058 z m 0.63525927,0.0091058 0.24605112,0.0030353 c -0.0805259,0 -0.16254286,-0.0015163 -0.24605112,-0.0030353 z m 0.24605112,0.0030353 0.004473,0 -0.004473,0 z M 35.78928183,2.091218523 c -0.0521927,-0.0091058 -0.0879819,-0.01819626 -0.1043853,-0.02881049 1.72832279,-0.015161 3.45962802,0.01061575 5.18795079,0.02577676 C 36.86295953,1.844057082 28.8416927,1.515015081 28.8416927,1.515015081 c 1.23771174,0.671730736 4.75997094,0.4761251 6.94758916,0.576202374 z m 4.24550041,0.976511315 -0.0298243,-0.0030353 -0.0521927,0 0.082017,0.0030353 z m -0.0298243,-0.0030353 c -0.73069729,-0.08794603 -1.6671828,-0.04700522 -2.42770448,-0.06216927 -0.0507013,-0.01061575 -0.15359555,-0.015161 -0.15359555,-0.015161 0.65762757,-0.05003894 2.52910738,-0.124338542 2.52910738,-0.124338542 0.9200821,0.0091058 2.07577678,0.165279051 2.45156398,-0.03032659 -0.71429388,-0.02577676 -2.14586409,-0.04700521 -2.14586409,-0.04700521 1.49121895,-0.118272615 2.95261356,-0.233513639 4.44532374,-0.216834093 0.48464617,0.01365101 5.28786245,0.1501153 5.28786245,0.107658386 -1.23323809,-0.324492784 -3.00182378,-0.200154395 -4.5213759,-0.294166352 1.16762444,-0.08946366 2.12647823,-0.08491383 3.29410269,-0.015161 -0.2281565,0.03184268 0.28034917,0.01668015 0.30719111,0.015161 0.79183727,0.04094081 2.3755118,0.124338542 2.3755118,0.124338542 0.612891,-0.02577676 1.838673,-0.0773318 1.838673,-0.0773318 -0.61289099,-0.04094081 -1.838673,-0.124338541 -1.838673,-0.124338541 -0.8425387,-0.01365101 -2.52910734,0.06216927 -2.52910734,0.06216927 0.71578509,-0.03639251 2.14586407,-0.09249586 2.14586407,-0.09249586 -0.86788943,-0.04397301 -2.60515954,-0.109174486 -2.60515954,-0.109174486 2.26217918,-0.06823367 4.55418274,0.153148416 6.81934435,0.216834093 0.34298036,-0.01819626 3.99050196,-0.294166504 4.18436041,0.327525442 -0.28780525,0.303264327 -1.18999272,0.242611614 -1.50165749,0.245644273 -1.25262394,-0.0045453 -3.75488935,-0.015161 -3.75488935,-0.015161 1.19446638,0.03942471 2.39042398,-0.01061575 3.58339918,0.03184269 -0.51297934,0.0682352 -1.07666011,0.04397301 -1.59113064,0.06065317 0.38920814,0.015161 0.78139873,0.01819626 1.17060688,0.04700522 -0.73666217,0.02274456 -1.50463994,-0.04094081 -2.24428454,-0.07733333 -4.30962282,0.215317687 -8.70573633,0.05913707 -13.02579768,0.06216927 l -2.09367144,0 z m 2.19507432,1.075072336 c -0.11780625,0.0015163 -0.23561259,0.0015163 -0.35192766,0.0015163 0.22666529,0.0090905 0.45183935,0.01516101 0.67850461,0.02122846 -0.1088589,-0.0075805 -0.21771795,-0.015161 -0.32657695,-0.02274456 z m -0.35192766,0.0015163 -0.0864908,0 0.0268419,-0.0015163 0.0596487,0.0015163 z m -0.0596487,-0.0015163 0.1804375,-0.013651 c -0.37131352,-0.01971236 -0.7396446,-0.03032659 -1.09306349,-0.02426066 0.30569988,0.01516101 0.60990854,0.02729438 0.91262599,0.03790861 z m 0.73815338,0.02274456 c 0.79929338,0.01971236 1.59858674,0.02881049 2.40682742,0.03335879 -0.0715785,0.08339773 -0.0104385,0.128886843 0,0.169828115 -0.76648655,0.03184268 -2.29945965,0.06216927 -2.29945965,0.06216927 0.71578512,-0.03184269 2.1458641,-0.09249586 2.1458641,-0.09249586 -0.66210123,-0.03335879 -1.45244727,-0.115240413 -2.25323187,-0.17286062 z m 6.00812123,-0.122822441 0,0 0,0 z m 5.13575811,0.131920569 c -0.001491,-0.0015164 -0.001491,-0.0045453 -0.001491,-0.0075805 -0.12526245,-0.0030353 -0.27140186,-0.0090905 -0.42947105,-0.01516101 l 0.43096226,0.02274456 z m -0.43096226,-0.02274456 c -0.72622365,-0.02881048 -1.67613013,-0.0758157 -1.71490181,-0.07733333 0.46675152,0.0030353 1.06771277,0.04094081 1.71490181,0.07733333 z m -1.71490181,-0.07733333 -0.001491,0 0.001491,0 z M 98.64565266,2.085150003 98.34442644,2.073024249 c 0.0626312,0.0030353 0.16701653,0.0075805 0.30122622,0.01212575 z m 58.31710014,2.512545459 0.00149,0 -0.00149,0 z m 3.7399773,0.06216927 0.016404,0 -0.016404,0 z m 16.127533,0.598947084 5.8053156,0.191056572 c -1.2004313,-0.0773318 -3.6012938,-0.231997233 -3.6012938,-0.231997233 -0.1938585,-0.0015163 -1.178063,0.02881048 -2.2040218,0.04094081 z m -9.5229242,-1.032615117 0.00298,0 -0.00298,0 z m -152.80669903,288.9032934 0,0 0,0 z m -3.21208565,-0.2668726 c -1.10648448,-0.053071 -1.998233418,-0.0743 -1.998233418,-0.0743 0.662101221,0.047007 1.331658538,0.054587 1.998233418,0.0743 z m 56.01018439,0.9477011 -0.15359557,0 c 0.0507015,0 0.15359557,0 0.15359557,0 z m -20.92031089,-0.6808285 0,0 0,0 z m 2.14437287,0.139501 0.001491,0 -0.001491,0 z m 1.30332538,0.077332 0.001491,0 -0.001491,0 z m 19.84812444,0.8991789 0,0 0,0 z m 2.29796843,0.1849913 0.001491,0 -0.001491,0 z m 2.83629847,-0.4488313 0,0 0,0 z m -0.1476306,-0.015161 -0.005966,0 0.005966,0 z" />
</svg>