<?xml version="1.0" encoding="UTF-8" standalone="no"?>
<svg
    xmlns:dc="http://purl.org/dc/elements/1.1/"
    xmlns:cc="http://creativecommons.org/ns#"
    xmlns:rdf="http://www.w3.org/1999/02/22-rdf-syntax-ns#"
    xmlns:svg="http://www.w3.org/2000/svg"
    xmlns="http://www.w3.org/2000/svg"
    xml:space="preserve"
    version="1.1"
    preserveAspectRatio="none"
    viewBox="0 0 50 45"
    id="event-description"
    width="50"
    height="45">
<defs id="defs7" />
<g
    id="event-description-g"
    transform="matrix(0.0035501702,0,0,0.0034657516,-0.4945980316,0.5784736357)">
    <path
        id="event-description-path"
        d="m 13973.8647,1912 c -26,472 -148.06539,1243 -105.06539,1693 15,-59 20.74371,-334 57.74371,-358 50,-15 51.96577,-305 57.96577,-357 l 17.18228,-150 c 1,-184 37.69901,-396.280345 24.04985,-593.140173 0,0 13.64916,178.859828 13.64916,196.859828 2,307 -2.42895,614 -8.42895,921 1,150 -72.84237,559.280345 -65.84237,547.280345 7,-18 8,-8 9,0 l 6,47 c 0,119 57.27878,237 47.27878,357 -47.73176,232.415666 -28.91458,462.224691 -15.22482,620 107.31527,-272.806497 -91.36965,5969.29914 -64.77305,7509 0,21 -6,37 -18,56 -13,18 -27,31 -49,45 -23,15 -44,23 -74,31 -31,8 -56,11 -90,12 -1549,-2 -3295.06329,-3 -4844.063295,-3 123,-1 256,-57.56886 378,-62.56886 -148,-17 -1055,45.70358 -1275,42.70358 C -696.9550315,12374.0409 18054.98231,12492.95339 5019,12524 c 0,0 -4223,7 -4223,4 -43,0 -75,-4 -114,-14 -38,-10 -205.7503644,-21 -235.7503644,-39 -28,-18 -46,-34 -63,-57 -16,-25 -23,-45 -24,-72 32,-7 -80,-11938 -79,-11938 1,-34 9,-59 30,-90 21,-29 43,-50 79,-73 C 427.2496356,222 601,208 649,195 c 50,-12 92,-18 145,-18 l 366,-2 c 1845,-8 3690,-17 5534,-27 -109,-1 -327,-6 -334,-6 5475.82123,34.9121485 4635.97232,68.6932684 -259,77 -223,-1 -480,2 -700,-7 -82,0 -1125,-6 -1125,-6 0,4 -746,7 -746,7 187,1 384,-3 396,4 91,1 274,2 274,2 483,10 962,8 1445,15 438.185834,-1.8459325 2279.765021,14.8828371 973,30 2681.043328,-36.1050236 2987.513972,29.5178742 -426,18 11556.44738,28.8876066 -18478.75098,-29.7362627 1465.336375,56 -5013.067416,-83.9922154 -2822.271407,-28.3767243 1263,12 74,1 1068,12 1080.000005,-10 19,-1 318,-5 441,-13 695,10 2084,38 2084,38 l -2914.000005,37 2363.000005,0 c 571,-15 1314.06116,-31 1691.06116,-36 3,12 -32,24 -90,36 l 150,0 108.19219,903.757237 c 14.91629,-64.08478 -3.65925,-303.903269 18.59066,-433.4779527 15.11049,-87.9975231 12.49286,-59.0066297 31.70268,-120.4106824 C 13938.7886,576.363465 13953.9098,408 13951.76508,408 c -1,-16 -4,-28 -14,-44 -10,-14 -21,-24 -38,-35 -18,-11 -90.36754,-18 -113.36754,-24 -25,-6 -44,-9 -71,-9 26,0 46,2 71,8 23,7 95.36754,13 113.36754,24 18,11 29,21 39,36 10,15 14,27 15,43 0,0 -4,277 -3,273 z M 4954,402 c 24,-2 47,-3 69,-4 -1084,-17 -2187,-15 -3272,-20 -18,2 8,-26.9862793 15,-26.9862793 L 818,402 Z M 617.0402849,761 c -7,414 -41.8850282,1146.961772 -47.8850282,1146.961772 -47,1114 -31.4187336,2274.038228 -8.4187336,3449.038228 z m -28.1688802,4763 c -7,210 -15,481 -15,481 0,-101 -1,-301 -1,-301 l -17,554 c -36,1190 -17,2307 12,3489 2,-216 7,-649 7,-649 -3,-211 18.071396,-425 19.071396,-636 5,171 -21.071396,343 -18.071396,514 1,-89 29.0285213,-890 31.0285213,-893 0,-166 3.098443,-498.923183 3.098443,-498.923183 1,-159 -23.1269643,-479.076817 -23.1269643,-479.076817 0,-5 1,-10 2,-16 l 28.2139303,-313 -42.2139303,376 c -1,84 -1,254 -1,254 -9,-355 -15,-698 2,-1053 -1,78 -8.0375652,175 -1.0375652,253 8,-27 40.2514955,-85 42.2514955,-146 z m -28.2960301,5540.05132 -2,103 c 0,122 -14,291 0,404 l 2,-17 z m 0,822 -2,5 c -3,25 -10,42 -21,66 6,88 13,175 20,263 -1,8 -6,125 -6,125 0,2 1,3 2,5 1,1 2,3 3,4 2,1 4,2 6,2 3,1 5,1 8,1 50,5 18,5 0,5 -2,0 0,0 0,0 l 131,0 C 1008.575375,12357.05132 1685,12354 2077,12352 l -1516.4246254,0.0513 z M 2918,12352 c 55,2 169,3 184,3 -157,1 -123,2 -121,2 30,0 91,1 91,1 71,1 213,2 213,2 -19,3 13,7 15,7 -100,-3 -230,-6 -363,-8 -108,3 -228,1 -337,1 254,5 761,11 761,11 152,-2 301,-11 456,-12 l -15,0 c 20,0 61,-2 61,-2 254,2 761,8 761,8 -71,0 -213,1 -213,1 116,1 350,1 350,1 152,1 456,1 456,1 -127,2 -380,4 -380,4 294,3 736,18 1017,6 -183,-8 -393,-7 -576,-10 53,0 404,2 422,-2 -193,-10 -426,-9 -620,-12 l 9,-30.97998 z m 8019.39056,-28.97998 c -341,8 -863.05418,49.97998 -863.05418,49.97998 396,-7 1187,-19 1187,-19 66,-1 259,-1 506,-2 z M 13669.12183,8630 c 2,-164 4,-324 4,-324 23,618 69,1853 69,1853 -5,-207 -6,-415 -6,-621 5,111 6,231 17,342 4,-169 -10,-351 -16,-521 1,-134 4,-404 4,-404 -12,-273 -36,-818 -36,-818 16,152 33,-23 29,9 -10,-128 -29,-385 -29,-385 -5,88 -6,263 -6,263 -7,-169 -23,-508 -23,-508 -1,-322 -5,-968 -5,-968 -1,67 -1,153 -2,243 z M 6147,185 c 2589.424937,138.7940957 2338.572944,137.2882717 0,0 z m 1210.336375,156 1152,8 c -238,-3 -715,-9 -715,-9 -38,0 -234,1 -437,1 z M 2662.012664,12355.91332 C 2443.012664,12353.91332 2266,12353 2266,12353 c 131,2 264.012664,1.91332 396.012664,2.91332 z"
        style="fill:#ffe57f" />
    </g>
</svg>