<?xml version="1.0" encoding="UTF-8" standalone="no"?>
<svg
    xmlns:dc="http://purl.org/dc/elements/1.1/"
    xmlns:cc="http://creativecommons.org/ns#"
    xmlns:rdf="http://www.w3.org/1999/02/22-rdf-syntax-ns#"
    xmlns:svg="http://www.w3.org/2000/svg"
    xmlns="http://www.w3.org/2000/svg"
    xml:space="preserve"
    version="1.1"
    viewBox="0 0 233 185"
    id="svg2">
<g  id="g1">
    <g  id="g2">
        <path
            d="m 0,0 0,185 233,0 0,-159.4315087 c -0.028147,0.70536653 -0.1904496,1.2554444 -0.5513014,1.53662852 -1.3524839,0.73974114 -2.9046123,4.18685503 -3.4331039,5.26484207 0.2614045,0.22824726 0.6254528,2.5686903 0.6765972,2.99768518 0,0 -0.4190601,-0.0677629 -0.6264789,-0.10076251 0.043871,0.12207101 -0.5815871,-1.15759962 -0.5763605,-1.56181917 l 0,-0.0251906 c 5.121e-4,-0.006735 -9.447e-4,-0.0190788 0,-0.0251907 l 0.075177,-0.3022876 c -0.025572,0.0604993 -0.7536294,1.70551391 -1.0775436,2.54425384 0.1534331,0.52799365 0.014207,0.93856291 0,1.46105663 l -0.175414,0 c 0,0 -0.00955,-0.77652368 0.050118,-1.15876906 -0.1619572,0.37674546 -0.3658242,0.8296549 -0.4510648,1.20915035 -0.5512224,3.37420942 0.9404877,2.86836815 -1.804259,7.07856751 l 0,0.0503813 c -0.028413,0.0357496 -0.9590354,1.21973261 -1.4534308,1.81372549 0.7359103,4.76294275 0.4794783,6.97677351 0.4510647,11.78921566 l 0,1.36029415 c -0.076717,-0.12374855 -0.039345,-0.0855731 -0.5763605,3.12363834 l 0.6264789,4.25721674 c 0,0 0.088358,-1.20873276 0.1252957,-1.81372548 0.093765,1.32273407 -0.1452247,2.02717901 -0.4009464,3.3251634 0,0 -0.088358,0.0311315 -0.1252958,0.0503813 0,-0.00275 0.2872923,0.84153659 0.4009465,1.25953156 -0.028414,0.10999868 0.3753742,-1.1291925 0.4009464,-1.51143791 0.011365,0.19524766 0.1327938,2.30030761 0.175414,3.37554469 0,0 -0.1857534,0.12452598 -0.2255323,0.20152502 0,0 0.1516572,0.32462387 0.2255323,0.47862201 0,0 -0.024492,3.38862123 0.050118,5.08850763 l 0,0.0503813 0,3.17401963 c 0,0 -0.2353599,9.49371487 -0.2756507,14.25789758 l 0,0.0251906 -0.3508281,5.36560455 c 0,0 0.030229,1.1748514 0.050118,1.7633443 -0.1221782,1.325484 -0.2852403,2.634945 -0.5011831,3.9549291 -0.1363849,-0.0055 -0.111602,2.559663 -0.1002366,2.7961602 l 0.1503549,-0.8312908 c -0.048303,-0.3437459 -0.1136541,-0.7038872 0,-0.1511438 0,0 0.075177,-0.4546499 0.075177,-0.6801471 0.1562744,0.1292484 0.2358717,-0.1300259 0.2756506,-0.2015251 l -0.175414,2.0404412 c 0,0 -0.063299,0.5224127 -0.1002366,0.7809096 0,0 0.3986181,1.9463159 0.3758873,2.9473039 -0.022731,-0.1017488 -0.3743482,-1.7897766 -0.4510648,-2.6450163 -0.4943953,2.5217197 -0.3988548,3.2075536 -0.2255324,5.7182734 0,0 0.055288,-0.031132 0.075177,-0.050381 -0.1307022,1.3117343 -0.045462,2.0089155 0,3.2244009 0.017048,-0.1072487 -0.16689,0.9895706 -0.1754141,0.6045752 l -0.050118,-0.4534314 c -0.00284,-0.6269925 -0.011957,-2.1062659 -0.5262422,-0.3022876 -0.3722172,1.1742359 -0.5608909,3.0307315 -0.7768337,4.2572168 0,0.00825 -0.1857534,0.7212922 -0.2255324,0.8312908 -0.014207,-0.3602457 -0.04041,-2.2118552 -0.8018929,-0.050381 0,0.057749 -0.080347,0.3599325 -0.1002366,0.4534314 0,0 -0.1146801,-1.3442587 0.050118,-2.0152506 l 0,1.1335784 0.1252958,-0.4534313 c -0.036938,-0.665492 0.1544985,-1.3639493 0.2255324,-2.0404412 l 0.5513013,-8.3129085 -0.2756507,1.2091503 c 0,0.0165 0.068192,-0.9651807 0,-1.4106753 0,-0.0275 0.022691,-0.2209837 -0.2756506,0.1007625 l -0.075177,0.3022875 c -0.2074187,-0.011 -0.3229276,4.9933728 -0.325769,5.4663672 l -0.1252957,-1.4610567 c 0,0 -0.229163,1.008194 -0.325769,1.5114379 0.025572,0.7259913 0.2774266,0.5719354 0.050118,1.4106754 0,0 -0.1185871,-0.6213072 -0.1754141,-0.9320534 0,0 -0.038753,0.1359668 -0.050118,0.2267157 0.00852,-0.2089974 0.050118,-1.2779229 0.050118,-1.8389161 0,0 0.3614438,-1.2961864 0.5262422,-1.9396787 l 0.9021295,-7.2297113 c 0,0 -0.055288,1.4967252 -0.075177,2.2419663 0.079558,-0.3107463 0.099724,-0.5266944 0.1252958,-0.554194 0.0049,-0.00846 0.021215,-0.019724 0.025059,-0.025191 0.021044,0.1249086 0.013378,0.8152732 0.075177,3.4511165 l 0.075177,-0.7809095 c 0,-0.00275 0.2149562,3.2901336 0.325769,4.9373638 0,0 0.1488158,-2.2169267 0.2255323,-3.3251634 0,-0.00275 0.1185871,2.9343783 0.1754141,4.4083606 0,0 0.1488158,-1.9600658 0.2255324,-2.947304 0,0.0275 -0.2766767,-1.766454 -0.2255324,-2.5694444 0,-0.00275 0.1790447,1.3300679 0.2756507,1.9900599 0,0.04125 0.3923829,-4.8501081 0.1252958,-7.17933 0,0 -0.1289265,-2.2508082 -0.2255324,-3.3755447 0.1733225,-1.2649848 0.3655479,-2.6395632 0.325769,-3.9045479 -0.034096,-0.1814978 -0.00888,-0.1158461 -0.6765972,2.4938725 0,0 -0.1157456,1.2087328 -0.175414,1.8137255 0,-0.4317448 0.067837,-2.1342174 -0.6765972,2.3427288 l -0.075177,0.7305283 c 0.00355,-0.179779 -0.00659,-0.3338078 -0.025059,-0.4534314 -0.022731,-0.071499 0.0028,-0.038685 -0.2756506,0.9320534 l -0.1252958,1.435866 c -0.00284,-0.087999 -0.02352,-0.080294 -0.1002366,0.1259532 0,0 -0.088358,0.751333 -0.1252958,1.1335784 -0.00369,0.089374 -0.086758,1.9889442 -0.1503549,2.2419662 -0.024063,-0.1307523 -0.056709,-0.5835184 -0.075177,-1.5618191 0,0 -0.1317678,0.7852144 -0.2255324,1.1839596 0,0 0.1185871,-2.0928416 0.175414,-3.1488289 0,-0.00275 -0.018863,0.037072 -0.050118,0.075572 0.048303,-0.3107462 0.3190208,-3.0895247 0.1002367,-2.7457788 0,0 0.4616409,-2.445847 0.3508281,-3.6778322 0,-0.03025 7.498e-4,-0.1247348 -0.1754141,0.1007625 0,0 -0.088358,-0.6863201 -0.1252957,-1.0328159 -0.00852,-0.4454947 0.059629,-2.1050242 -0.2756507,0.5541939 0,0 0.030229,1.0081939 0.050118,1.5114379 l 0,0.7305283 c -0.011365,-0.090749 -0.082162,-0.8690363 -0.1503549,-1.2595316 0,0 -0.5252162,2.702708 -0.5763605,4.0556918 0,0 0.1157457,0.7115106 0.175414,1.0580065 -0.00284,0 0.4244665,-1.105429 0.5011831,-1.4106754 0,0 -0.8907641,5.6142047 -0.9021295,8.413671 0.00284,2.246723 -0.6853974,4.117816 -0.8018929,6.3480392 0.01989,-0.060499 0.6657843,-1.8666712 0.9271887,-2.7961601 0,0 0.063299,1.5956196 0.1002366,2.39311 -0.1278609,0.7782407 -0.5804253,4.1314958 -0.1002366,4.4587418 0,0 0.3940009,4.2333147 0.6014196,6.3480393 -0.3892653,3.8142041 -0.3335037,7.1574705 -0.2255323,10.9579248 -0.014207,0.079749 -0.035162,0.3668362 -0.2255324,-0.2519063 0.00284,-0.00825 -0.097395,0.948681 -0.1002366,1.4106754 l 0.4009464,-0.9824347 0,1.5870098 c 0.00568,-0.03575 -0.4740323,1.8746658 -0.3007098,1.8389162 -0.082399,0.3052462 -0.1117994,0.621658 -0.1252958,0.7557189 -0.0057,-0.063632 -0.010348,-0.1778278 -0.025059,-0.4030501 -0.4063135,1.0642372 -0.5130615,1.5422796 -0.4761239,2.6450163 0.5370156,-1.2567349 0.5975917,-2.1884408 0.9271886,-3.4259259 l 0.7768337,-2.1663943 c -0.014207,0.03025 -0.1790447,0.3726961 -0.2756507,0.5541939 0,0 0.2674029,-2.1491638 0.4009465,-3.2244009 -0.065351,-0.4922441 -0.2585631,-0.5799532 0,-1.0831972 0.011365,0.0385 0.047277,0.2967877 0.050118,0.3022876 0.1051301,-0.7837405 0.3110887,-0.9585902 0.6264788,-1.6625817 l 0.7267154,-2.7457788 c 0,0 0.030229,0.3868868 0.050118,0.5793845 0.1022888,-0.4042452 0.098698,-1.0651658 0.1754141,-1.3099129 0,0 -0.030229,0.065013 -0.050118,0.1007625 -0.00937,-0.083903 -0.085434,-0.4647036 0.050118,-0.1007625 0.02883,0.077405 0.049905,0.143128 0.1002366,0.3022876 0.1505917,-0.6214925 0.2947509,-1.5614016 0.1754141,-2.1663943 -0.048303,-0.167748 -0.093015,-0.1613662 -0.1754141,0.050381 -0.3892653,1.077987 -0.1524465,1.3858446 -0.325769,2.1915849 0,-0.00275 -0.41906,0.6835702 -0.6264788,1.0328159 -0.00284,0.063249 -0.1513809,2.1667651 -0.1002366,0.3022876 -0.017048,0.0275 -0.284451,0.4601497 -0.4009464,0.680147 0,0 0.1126676,-1.7000139 0.3257689,-2.5442538 0,-0.00275 -0.1516571,0.1977889 -0.2255323,0.3022876 0,0 0.060734,-1.9289343 0.2255323,-2.8969226 l -0.1503549,0.2519063 0,-0.7305284 c 0,0 0.4983418,-2.3469526 0.5011831,-3.5266884 0,0.00275 0.4063923,-0.9037996 0.5513013,-1.3602941 0,0 0.1157458,0.5874256 0.1754141,0.8816721 0.1761638,-1.4547325 0.3488156,-1.9300483 0.7267154,-3.2747822 0,0 0.3888313,-1.7934084 0.5763605,-2.6953975 0,0 0.3004731,-1.697264 0.4510648,-2.5442538 0.028413,0.7287412 0.2759664,0.8876362 0.6765971,1.5366285 -0.00568,-0.096249 0.03232,-1.0033438 0.2255324,-1.234341 0,0 0.363772,-0.5874256 0.5513013,-0.8816721 0,0 0.2097866,0.8415367 0.3007099,1.2595316 0,-0.00275 -0.9042605,1.1748513 -1.3531943,1.7633442 l 0,0.6549565 c 0.031255,-0.063249 -0.3337405,0.7353551 -0.075177,0.3778594 0,-0.3464958 0.1760849,4.2627635 -0.5513014,5.5167484 -0.051144,0.7919905 0.3995258,-9.3469413 -0.501183,-3.6022604 0,0 -0.069495,-0.1020853 -0.075177,-0.1763344 -0.00568,0.076999 -0.018863,0.4542089 -0.050118,0.6549565 -0.627939,0.1154986 -0.4034721,0.8515035 0,0.1007625 -0.00284,0 0.088358,0.1639074 0.1252958,0.2519063 0,-0.00275 -0.3508282,1.3501995 -0.3508282,2.0404412 -0.011365,-0.0275 -0.1002366,-0.3044923 -0.1002366,-0.4282408 0.1250195,-0.1814978 0.075651,-0.6848462 -0.2255323,0.1511438 0,0 -0.1299525,0.056322 -0.1754141,0.075572 -0.00852,-0.0055 -0.044436,-0.057749 -0.050118,0 0,0 0.063299,0.3644462 0.1002366,0.5541939 0,0 -0.3903703,1.5928697 -0.5011831,2.3931101 -0.065351,0.3437458 -0.2777816,1.4051287 1.0775436,0.1511437 l -0.1252958,0.4282408 c 0,-0.00825 -0.3857136,0.7907144 -0.4510647,1.1839597 0,0.074249 0.00241,0.042421 0.5763605,-1.0328159 0,0 0.063299,1.4289622 0.1002366,2.1412037 -0.019889,0.1484982 -0.2223359,0.9137665 0.4510648,0.2015251 -0.031255,1.157736 -0.051184,4.4036256 -0.2756507,1.3099128 0,0 -0.7234005,2.0250787 -1.0274253,3.0480664 -0.073875,-0.2172474 -0.0779,-0.474328 -1.0524844,2.5946351 l 0.1002366,0.5290033 c 0.00284,-0.0055 -0.2604178,1.0475753 -0.325769,1.5618192 0,0 -0.174388,0.2852424 -0.2255323,0.4282407 0,0 0.063299,0.5196627 0.1002366,0.7809096 0,-0.011 -0.097395,1.1858512 -0.1002366,1.7633442 0,0 -0.088358,0.033881 -0.1252958,0.050381 0.04262,1.0752371 -0.1839776,-4.0114244 -0.4510647,0.201525 0,0 -0.2702442,0.1327759 -0.4009465,0.2015251 0,0 0.2201259,0.4912812 0.3508281,0.7305283 0,0 -0.050118,1.1721013 -0.050118,1.7633442 0,0 0.3004731,0.7765237 0.4510648,1.1587691 0.093765,-1.3117343 0.116969,-1.4084131 -0.3007098,-2.6953976 l 0.4009464,0.9320534 0,-0.2267157 c 0.7665745,1.0982533 0.5715699,0.8309622 0.7267154,2.0404411 0.2699286,0.6324925 0.075967,1.1757332 0.1754141,1.8137255 0.7245449,4.6749438 0.00848,3.6548821 -0.2756507,7.7083334 -0.031255,-0.063249 -0.036227,-0.1202787 -0.4510647,1.6122004 0.059668,1.1907357 0.6730454,1.8811987 1.1276618,2.9976852 0.1591158,0.7259913 -0.079874,1.3419496 -0.4009464,2.0404412 -0.00852,-0.049499 0.4629432,2.9614947 0.4260056,2.9724945 -0.00284,0.9377388 -0.2548141,1.6473237 -0.8770704,2.5190632 -0.6393043,0.8277401 -1.3363039,1.4138897 -2.4557969,2.0656318 -1.1706373,0.6407423 -2.2113617,1.0366799 -3.7087546,1.4106754 -1.5769507,0.3629956 -2.8781719,0.5152534 -4.5858249,0.5290032 0,0 -4.5122654,-0.022882 -4.9867713,-0.050381 -6.0037783,-0.3739955 -7.8878715,-0.8675858 -14.5593676,-0.7053377 -7.1914638,0.2337472 -14.3074739,0.9349311 -21.4506346,1.4106754 -11.7035318,0.7314912 -22.275653,1.1262103 -34.0303291,1.1839597 0.048303,0 -107.65411912,0.6297658 -107.65411912,0.6297658 -2.36400546,-0.0165 -4.15212401,-0.2130936 -6.33996559,-0.7053377 -2.102601,-0.5142438 -3.53641865,-1.0317486 -5.18724457,-1.914488 -0.7927374,-0.4509947 -1.41921623,-0.8779215 -1.97967305,-1.3351035 -0.56045682,-0.457182 -1.04325002,-0.9591356 -1.50354915,-1.5366286 -0.13274414,-0.1811615 -0.21587214,-0.3574046 -0.32576898,-0.5290032 0.11314534,0.1751872 0.21431771,0.3464527 0.35082813,0.5290032 0.46314049,0.5761181 0.91803318,1.0818528 1.47849,1.5366286 0.56045682,0.4547758 1.20915344,0.8589182 2.0047322,1.3099128 1.63377781,0.8717395 3.10453305,1.4139941 5.18724457,1.9144881 2.18500023,0.4839941 3.98164284,0.6943378 6.33996558,0.7053376 0,0 80.23502598,-1.41013 87.53161968,-1.5366285 -0.00284,0 5.5710245,-0.8017143 8.369757,-1.1839597 0,0 -1.6431701,0.1524666 -2.455797,0.2267157 0,0 -14.517824,-0.3121921 -22.25252743,-0.4534314 0.52129945,-0.023718 0.68563413,-0.1101786 -3.40804471,-0.4030501 l -6.49032051,0.277097 c 0.002841,0 -13.27894363,-0.1863481 -19.92202623,-0.277097 0,0 -6.05291006,-2.956378 -9.39718219,-4.4083606 l -34.18068403,0 0,-48.9202069 c -0.0284135,0.022 -0.0896605,-0.072172 -0.20047322,-0.3526689 l -0.0501183,-0.7809096 c -0.0113654,0.1869978 -0.21803436,3.2100482 -0.17541407,4.7610295 l -0.12529576,-1.4862473 0,0.9320534 -0.0501183,-0.2015251 c 0.002841,0.1072487 0.0518941,3.0837583 -0.17541407,4.4587418 0,0 -0.78954088,2.8354839 -1.12766186,4.2572168 0,0 -0.0935279,1.7874676 -0.15035491,2.670207 0,0 -0.12142837,-3.4819817 -0.17541407,-5.2144608 0,0 -0.0302288,0.5562942 -0.0501183,0.8312909 0,0 -0.0883582,1.1748513 -0.12529577,1.7633442 0.0198895,2.2522229 -0.33247773,4.6962143 -0.27565067,7.0281862 l -1.30307593,4.3579793 -0.72671543,5.9449892 0.67659712,-2.670207 c 0.003765,-0.085627 0.0513428,-1.55626 0.10023661,-1.712963 0.018602,0.091308 0.0588397,0.4396527 0.0751775,1.1587691 -0.005683,0.01925 1.04139523,-4.4503532 1.17778017,-6.6503268 0.0142068,0.1457482 0.035951,0.8340174 0.32576898,0.201525 l -0.0501183,0.6045752 0.90212949,-3.5266885 c -0.008524,-0.1264984 -0.29909183,-5.0498445 0.17541407,-0.680147 0,0 0.13460908,-0.7202015 0.22553237,-1.0831972 0,0.063249 -0.0350828,0.4866164 0.32576898,-0.478622 0.0227308,0.057749 0.26740287,0.5563986 0.40094644,0.6801471 0.0198895,-0.049499 -0.80552349,1.89923 -0.90212948,2.7709695 l 0,-0.1511438 c -0.14206764,0.662742 -0.63145119,2.9206861 -1.07754356,2.9976852 -0.36937586,3.2807106 -1.81751863,6.7409837 -2.40567864,10.1014433 -0.0340962,-0.00275 -0.8758075,4.8944317 0.72671542,4.0556917 0.0284135,0.1264985 0.54798644,1.9632911 0.85201118,0.9320534 l 0,0.6549564 c 0,0 -1.7121518,6.41636 -2.55603355,9.6228214 l 0,-0.6801471 c 0,-0.032999 -0.0152328,-1.209881 0.0501183,-0.1511438 0,0.00275 0.44822338,-1.3048772 0.45106474,-1.9648692 -0.0339061,0.024175 -0.15001493,0.1668565 -0.55130136,0.8312908 0,-0.00275 -0.0883582,0.9092995 -0.12529576,1.3602941 0,0 -1.86613733,-9.5114546 -2.80662508,-14.2578975 0.0227308,0.4372448 0.0849249,2.3866237 -0.40094644,2.4938725 0,0 2.92473854,12.6488304 3.28274898,14.0815632 -1.53433046,1.1769858 -7.02516569,-2.6264396 -7.56786405,-2.9976852 0.32959691,-4.1084506 0.15343304,-7.7307054 0,-11.8144064 0,0 -0.18188605,2.6038137 -0.27565068,3.904548 0.0170481,0.1814978 0.48973871,4.4273658 -0.0501183,0.7809096 0,0 -0.25524819,4.4594849 -0.30070983,6.700708 0,0 -0.40820768,-0.3250648 -0.60141966,-0.5038126 0.13070222,-0.8442399 0.0113654,-1.5122388 0,-2.3427288 l -0.17541407,0.8312909 c 0.005683,0.02475 0.20741875,1.1411319 0,0.1511438 0,-0.00275 -0.12245441,0.754083 -0.12529576,1.1335784 0,0.00275 -4.069922087,-3.3450285 -5.913959991,-5.0885076 0.01713554,-0.1077988 0.03914966,-0.2122473 0.0501183,-0.3022876 0.01136542,-0.052249 0.225532377,-0.9285493 0.225532377,-1.3602941 0,-0.063249 0.0084846,-0.032199 -0.27565068,0.8312908 -0.159115754,-0.00825 0.2837801,1.375761 -0.676597115,0.2015251 0,0 0.60276141,-2.7082079 0.952247795,-4.0556917 0.394948024,0.5582433 3.10694028,4.5571953 3.959346094,4.5846949 0.41199614,0 -3.125448532,-7.1616352 -3.332867282,-7.5823801 0.142067632,-0.7974904 0.246211103,-1.5956196 0.325768983,-2.39311 0.0028414,-0.076999 0.04044981,-0.3063946 -0.726715422,1.6625817 -1.082555382,-2.2357232 -0.798775282,-1.108017 -0.676597119,-2.9724946 -0.0028414,-0.03025 0.0025256,-0.078844 -0.40094644,0.6801471 -0.144908988,-0.3684956 -0.755523578,-2.7781864 0.12529576,-1.6122005 0.159115758,-1.0284876 0.270244224,-2.0924007 0.40094644,-3.1236383 0,-0.1649981 -0.01018152,-0.089925 -0.751774573,1.4610567 0,0 -0.24234371,1.3726401 -0.375887289,2.0656318 0,0 -2.393405581,-4.8046815 -3.2827489761,-7.254902 0,-0.0385 -0.015232805,-0.8170767 0.050118305,-0.1763344 0.2102600981,-0.6379924 0.4283339191,-1.3213771 0.4510647441,-1.9648693 0.0028414,0 0.02194155,-0.2786285 -0.10023661,-0.050381 0,-0.00275 -0.3307018899,1.1409698 -0.5011830492,1.712963 -0.3636931432,-1.1797358 -0.5153503483,-1.8238903 -0.2255323727,-3.0228758 0,-0.0385 0.1126280684,-2.1741333 0.050118305,-0.2519063 0.025572172,-0.074249 0.8773465809,-2.5580504 1.0023660999,-3.8037855 0.0028414,-0.1704979 0.03472764,-0.028416 -1.0023660999,1.99006 0,0 -0.1185870141,0.68632 -0.1754140674,1.0328159 -0.00284135,-2.0927248 0.00564324,-4.1573019 -0.2756506774,-6.2472767 -0.0909232899,-1.0449875 0.545145095,-2.8375608 0.8520111849,-3.9045479 0.3153901478,0.074249 0.3588391728,-0.4716949 0.3758872868,-0.554194 0.573953251,-3.2532108 1.866295186,-6.0883363 2.104968814,-9.4212963 0,0.00275 0.354458751,-7.5234482 0.451064743,-11.285403 -0.01136542,-0.01925 0.245461304,0.7251094 0.50118305,-0.050381 -0.01988947,0.1594981 -0.110023487,1.0369697 0.100236609,0.3274783 l 0,-1.032816 c 0,0 0.206945195,-1.2000419 0.30070983,-1.7885348 0,0 -0.148815853,-0.033881 -0.225532373,-0.050381 0.346645028,-3.41820894 0.212075407,-6.32187477 0.05011831,-9.72358384 l -0.05011831,0.88167209 -0.125295763,1.73815362 c 0,0 -0.04556156,0.65438925 -0.0501183,1.0328159 -0.0074586,-0.0326559 -0.02312545,-0.0746379 -0.05011831,-0.10076251 l 0,0.15114376 c -0.01704811,-0.0192498 -0.01452247,-0.003608 -0.400946439,0.57938453 0.04546164,-3.25871083 0.594553066,-6.34672891 1.353194234,-9.57244011 L 5.03688911,89.57788672 5.939018599,86.05119827 c 0,0 -0.03381999,-1.17210132 0.125295763,-1.76334423 0,0 0.05011831,0.68082013 0.05011831,1.0328159 l 0.275650677,-1.36029411 c 0,-0.00275 -0.06329903,1.23392341 -0.10023661,1.83891612 0.02031567,0.17696038 0.235708673,1.94380918 0.225532373,2.19158496 -0.03747034,-0.11588528 -0.142304417,-0.51556114 -0.30070983,-1.41067537 0,0 -0.324979718,5.57207336 -0.225532373,8.36328976 -0.173322512,1.26773478 -0.365547923,2.63681311 -0.325768983,3.90454792 0.02628785,-0.11916056 0.141169272,-0.67813947 0.676597119,-2.49387255 0.08808193,-1.21823539 0.601972146,-2.34739356 0.852011182,-3.5518791 0,0.00825 0.02249404,-2.84373374 0.150354917,-4.25721675 -0.01136541,-0.13749838 -0.237608116,-2.85161139 0.225532373,-0.1511438 0,0 -0.09469969,0.52153224 -0.150354913,0.80610023 l 0,0.0251906 c -0.0094172,0.20144509 -0.07517746,1.31462613 -0.07517746,1.91448803 0,-0.00275 0.07517746,0.3530054 0.07517746,0.52900327 0.03409623,-0.14849826 1.112468515,-4.94988434 1.453430841,-7.38085512 -0.0028414,0.0109999 0.721308966,-2.21967668 0.852011189,-3.32516339 0,0 0.237174029,0.0988944 0.350828136,0.1511438 0.002841,0.29149646 -0.0376479,1.49214138 0.45106474,0.25190627 0,-0.00275 0.063299,0.0677629 0.10023661,0.10076255 0,0 -0.23615908,1.62764992 -0.35082813,2.46868191 l 0,0.0251906 -0.375887293,3.17401959 0.225532373,-0.78090958 0,0.10076254 0.40094644,-1.66258171 c 0,0 0.13176774,-0.65518859 0.22553237,-0.98243465 0,0 -0.0684687,0.10164441 -0.12529576,0.15114381 0,0 0.21029957,-0.65243859 0.27565068,-0.98243465 -0.002841,-0.00275 0.1516572,1.52785672 0.22553237,2.2923475 l 0.0751775,-0.0503813 c 0.02838,-0.067404 0.13448772,-0.47031317 0.50118305,-2.19158495 0.0142068,0.00825 0.013457,0.0195629 0.17541407,-0.45343137 0.0511444,0.95423853 0.090647,1.05276213 -0.12529577,2.01525054 l 0,-1.13357841 -0.0501183,0.50381263 c 0.002841,0.0274997 0.041318,0.67594655 -0.0751775,0.12595315 0.002841,0 -0.12659805,1.27374572 -0.20047322,1.914488 l -0.5262422,8.26252725 0.30070983,-1.13357845 c 0,0 -0.0751775,0.8841089 -0.0751775,1.3351035 -0.0170481,-0.082499 0.0589186,0.47112615 0.17541407,0.0503813 0,0.0055 0.0088,0.0422358 0.12529576,-0.10076251 l 0.0501183,-0.30228757 c 0.20741875,0.0109999 0.38958102,-5.03550421 0.40094644,-5.51674838 l 0.10023661,1.46105662 0,1.23434096 c 0,0 -0.68930428,5.04371975 -1.02742526,7.55718956 l 0.0751775,-2.24196624 -0.0751775,0.25190631 c 0,0.0989988 0.0265982,0.54560749 -0.0501183,0.37785951 0.005683,0.0302496 -0.0405682,-0.21724742 -0.10023661,0 l 0,-3.4763072 -0.0501183,0.78090958 0,0.0755719 -0.12529576,1.68777232 c -0.008524,0.0989988 -0.047277,0.74770114 -0.0501183,1.08319715 0,0.00275 -0.0160221,-0.0705129 -0.0501183,-0.10076251 0,-0.0302496 -0.32987316,4.80291765 -0.12529576,7.15413945 0.006748,0.037468 0.0196539,0.084349 0.0250592,0.1007625 0.0412884,-0.1289047 0.1517756,-1.095129 0.60141966,-4.71064814 l 0.20047322,-1.66258171 0.0250592,-0.0503813 0,0.0503813 -0.0250592,0 c -0.0284135,0.23099722 -0.0875689,0.98123962 -0.0250591,1.38548476 0.0190416,-0.05093 0.0812269,-0.26110191 0.27565068,-0.93205336 -0.005683,-0.73424114 -0.0787686,-1.11061579 0.10023661,-1.86410677 0.0255722,-0.24749706 -0.0862666,2.01408982 0.0501183,0.37785947 0,0 0.23717403,-3.71365193 0.35082814,-5.56712964 l 0,3.67783226 c 0.0170481,-0.0659992 0.1630226,-0.76508284 0.22553237,-1.13357841 0,0 -0.0123915,1.14371978 0.0501183,1.71296294 0.002841,-0.0137498 -0.39396144,2.62306333 -0.32576898,3.90454792 0,-0.0137498 -0.0105762,0.30327388 0.10023661,0.20152505 0,-0.00275 -0.45777349,2.41196563 -0.40094644,3.62745103 0.0852406,0.335496 0.14700054,0.022986 0.17541407,-0.1007626 l 0,1.6625817 0.12529576,-0.6045751 0,0.201525 c 0,0 0.0302288,-0.065013 0.0501183,-0.1007625 -0.002951,0.017871 0.006011,0.016536 0,0.050381 0,0 -0.0330702,0.098894 -0.0501183,0.1511438 0,0 0.0302288,0.5874256 0.0501183,0.8816721 0.005683,0.1127486 0.0464877,0.5929022 -0.0501183,0.2519063 0,-0.00825 -0.10978671,0.8580364 -0.0501183,1.2595316 0,0 0.12478274,-0.6021618 0.15035491,-0.7809096 l 0,-1.0328159 0,-0.025191 0,-0.075572 0.0751775,-0.5793846 c 0.45177508,-0.01925 0.1485396,-0.659911 0.10023661,-0.7809096 l 0,-1.5114379 -0.0501183,0.2015251 0,-0.8816721 c 0.0113654,0.068749 0.13847649,0.8269049 0.17541407,1.2091503 0.34380367,-1.495982 0.64222464,-3.29298797 0.55130136,-4.78622005 -0.0113654,-0.082499 0.002486,-0.24778679 -0.67659712,1.08319719 0,0 0.89360543,-5.61695463 0.90212949,-8.41367102 0,0 0.23919684,-2.24561996 0.45106474,-3.45111659 0.0255722,0.0170154 0.14700055,-0.32961071 0.62647882,-2.21677556 0.0710338,-0.26949681 0.26321976,-1.21641395 0.0501183,-1.30991289 l 0,-2.31753811 -0.27565068,1.63739107 c 0.0142068,0.0164998 0.18366189,0.86452256 0.0501183,1.15876906 -0.0312549,-0.25849683 -0.0917126,-0.58104379 -0.10023661,-0.83129084 -0.2102601,1.46023248 -0.41909953,2.33486211 -0.90212949,3.77859476 0,0.00275 -0.055288,-1.30487725 -0.0751775,-1.96486928 0,0.00825 0.32213837,-2.39183396 0.22553237,-3.57706971 0.008524,0.0329996 0.0798341,0.27655161 0.12529576,0.40305008 -0.002841,0 0.94553905,-2.22880838 1.00236611,-3.37554465 0,0 0.20523203,1.56414028 0.30070983,2.39311004 0.27276986,0.57199316 0.42549257,-0.56189845 0.45106474,-0.68014707 -0.4801886,-1.82872799 -0.83310829,-2.56951451 -0.5262422,-4.4587418 0,0 0.68642346,-3.61118336 0.75177458,-3.95492922 0,0 -0.30047306,-3.15735776 -0.45106475,-4.73583879 0,0 0.32888658,-3.42015953 0.45106475,-5.13888888 0,0 -0.15165721,-3.81254631 -0.22553238,-5.71827341 -0.002841,-1.1934857 0.50761556,-1.46110339 0.32576899,-2.72058825 -0.002841,0.0219997 0.0568271,-0.26026058 0,-0.10076252 0,0 -0.11858702,-0.55629417 -0.17541407,-0.83129087 0,0 -0.0330702,0.28799245 -0.0501183,0.42824076 0,0 -0.0160221,-0.0705129 -0.0501183,-0.10076251 0,0 -1.81522977,4.98464766 -2.65627017,7.48161763 0.0653511,0.39874521 0.33914702,1.58763613 -0.0501183,0.68014704 0,0 -0.0330702,-0.2202295 -0.0501183,-0.32747822 0.0426203,-0.12374851 -1.68310685,5.18662463 -1.75414067,5.0381264 0.0397789,0.26399683 -0.0330702,0.33056472 -0.0501183,0.50381263 l 0.0501183,-1.00762525 -1.027425256,4.83660127 c 0,0 -0.179044687,-3.51311308 -0.27565068,-5.26484203 0.0026027,0 -0.08611074,0.49488129 -0.125295759,0.80610019 l 0,0.0755719 -0.10023661,1.1083878 -0.05011831,-1.20915035 c 0.01704811,-0.0109999 0.257260814,-1.07790604 -0.07517746,-0.78090958 0,0 -0.06329903,-1.2087328 -0.10023661,-1.81372552 0,0 0.719533118,-0.29074237 1.077543555,-0.42824072 l -0.12529576,0.47862201 0.175414067,-0.47862201 0,0.2267157 c 0.01136541,-0.0192498 0.09688224,-0.19459796 0.125295763,-0.27709696 l -0.626478813,3.37554465 0.27565068,-0.75571894 0,0.0503813 0.350828133,-0.83129084 c 0.0312549,-0.20899747 -0.179241997,1.72482132 0.15035491,1.13357841 0.38358261,-1.1467362 0.14704,-1.95962487 0.45106474,-2.92211328 l 0.17541407,-3.4763072 -0.45106474,1.81372552 c 0.002841,0 -0.17620333,-0.10439437 -0.27565068,-0.15114381 -0.0710338,0.21174743 0.45224864,-1.42339222 -0.300709823,-0.25190631 l 0.07517745,-0.88167213 -0.12529576,0.93205339 c 0,0 -0.0501183,-0.19778886 -0.0501183,-0.30228761 -0.0085241,0.0164998 -0.05011831,0.13827586 -0.05011831,0.2015251 0,0 -0.422927461,-0.24036116 -0.576360509,-0.37785951 0,0 0.218784155,-0.79971838 0,-0.75571894 0.165650863,-0.36148315 0.229209284,-0.70777757 0.250591526,-0.80610023 0.0064374,0.0521205 0.03235985,0.16473703 0.0501183,0.37785951 0,0 0.50793127,-1.07320694 0.726715426,-1.61220046 0,0 -1.580384075,-1.75677699 -2.330501184,-2.64501632 -0.0028414,0 0.08835818,-0.35575537 0.125295763,-0.52900328 l 0,0.25190632 c 0.01988947,-0.0439995 0.268941928,-0.76508291 0.32576898,-1.13357845 -0.02173004,0.0162306 -0.06952679,0.0426333 -0.150354913,0.1511438 0,0 0.171546674,-0.85022747 0.225532373,-1.28472221 -0.0028414,0 0.148815849,-0.0929536 0.225532373,-0.12595315 0,0 -0.09688224,-0.19778885 -0.125295764,-0.30228761 0.144908989,-0.77824066 0.280820362,-1.5589882 0.30070983,-2.34272875 0,-0.0742491 0.0058406,-0.30177655 -0.701656269,1.61220043 -0.04262029,-0.10174876 -0.768349135,-1.62395439 -1.052484409,-1.1839597 0.144908989,-0.42899485 -0.275611203,-0.11386265 0,-0.37785947 0,0 0.32292763,-0.8841089 0.325768983,-1.33510351 -0.02372148,0.0359136 -0.12161961,0.17607487 -0.400946439,0.70533772 l -0.150354913,1.41067537 0.10023661,-0.25190631 c -0.224466865,0.94048869 -0.06148372,1.9454341 -0.05011831,2.89692267 l 0.451064746,-0.20152506 c 0,0 -0.151657206,0.65243863 -0.225532373,0.98243464 0.0028414,0.00275 -0.328886583,-0.43220908 -0.451064746,-0.65495643 0.0085241,-0.0714992 -2.76236e-4,-0.46783091 -0.12529576,-0.17633441 C 2.186696729,46.58035747 3.82260554,46.34591077 5.087007494,40.10348584 c 0.286976619,0.0137498 0.02375686,-4.74784824 -0.05011831,-5.26484204 0,0 0.246496898,-1.20712641 0.350828136,-1.83891613 0.01314126,-0.0137498 0.04198888,-0.0553359 0.10023661,-0.17633441 0,0 0.586699872,-4.45673505 0.626478812,-6.70070804 l -0.225532373,1.18395966 c 0,0.0439995 0.09479068,1.4866415 -0.05011831,0.25190635 0,0 -0.182912076,1.52510672 -0.22553237,2.2923475 0,0 -0.496052829,1.76227694 -0.751774579,2.64501632 0,0 0.125295767,-2.18304526 0.125295767,-3.27478214 0,0 0.225532369,-1.29937729 0.225532369,-1.96486928 l -0.125295759,0.50381262 c 0.01420676,0.11549863 0.04932904,0.32296454 -0.05011831,0.2267157 0.0028414,-0.35199577 0.01033937,-0.98629861 0.05011831,-1.36029411 0.0028414,0.0742491 0.01373321,0.15132919 0.300709829,-0.78090958 L 5.312539856,24.3845316 5.212303242,25.01429738 c 0,0.00231 -0.0047515,0.0724127 0,0.10076255 0,-0.0164998 -0.119100032,0.55211701 -0.150354916,0.90686274 0.04546164,-0.72874126 0.261483383,-4.27653663 0.551301359,-6.14651416 0.0028414,0.0384996 -0.556984058,-3.49874785 -0.551301359,-3.50149781 0.03125488,-1.87547746 0.523321936,-3.26945669 1.779199831,-5.01293576 C 8.136804988,9.702744904 9.502390706,8.561136264 11.75274204,7.254901963 14.0741272,5.995417099 16.14807795,5.220923628 19.12013288,4.483932485 22.25698626,3.760691179 24.86846571,3.439234851 28.26672354,3.400735296 31.74453925,3.243987187 35.62014443,3.041684657 39.09227743,2.997685217 c 0,-0.07699907 15.06145832,0.779041446 15.98773931,0.83129084 0,0 1.19672251,-0.220670432 1.77919981,-0.35266886 -0.40063074,-0.03849952 7.42563859,0.720723502 8.26952032,0.327478214 l 5.56313187,0.428240761 c -0.37505852,0.03574956 -0.83673889,0.03720012 4.78629811,0.554193881 2.28728897,-0.07424911 0.82860959,-0.229674435 3.3829856,0.0755719 0,0 -3.71108297,-5.45315e-4 -5.53807268,0.125953157 0,0 2.69340507,0.155657479 4.03452351,0.251906313 1.03425243,-0.05499932 1.37529371,-0.345846116 2.35556038,-0.277096959 0.008524,-0.00275 -1.32616196,0.217038613 -1.97967308,0.302287604 0,0 6.57018141,0.420071064 10.04872018,0.654956428 0.144909,0.00275 2.11073037,0.02013162 0.85201118,0.05038125 0,0 4.4324314,0.484667253 6.66573454,0.35266886 -2.65666477,-0.09899883 -3.37868413,-0.185802731 -5.81372337,-0.403050115 0.002841,0 -3.32458002,-0.197788853 -4.98677133,-0.302287604 L 79.98881431,5.36560458 c 1.31270499,-0.01374984 1.63882913,-0.155112164 2.80662507,-0.377859469 0.0994473,0 -1.68756621,0.0394858 -2.23026454,-0.100762511 0,0 -1.06961151,-0.237170231 -1.60378578,-0.35266886 0,0 2.43401327,-0.144216672 3.65863628,-0.226715703 2.31854381,0.06599923 5.02382736,0.688733499 7.61798234,0.856481486 0.32675556,0 0.0705208,0.04000776 -3.58345879,-0.856481486 0.002841,0 -6.87780997,-0.858477324 -10.32437082,-1.28472221 0,0 -7.15373694,-0.420768316 -10.72531728,-0.629765783 2.64245805,0.115498594 5.34572889,0.222538534 7.99386967,0.302287569 4.7024387,0.00275 9.20254953,-0.343200541 13.90782961,-0.125953157 -0.002841,0 9.43427767,0.646393353 14.10830283,1.108387799 -3.15390143,-0.02199972 -6.86510281,-0.06522172 -9.97354267,0.201525057 -0.0916337,0.0127186 -0.16520605,0.04048781 -0.20047323,0.05038126 0.18698163,0.06645239 2.71866754,0.196454408 14.3087761,0.932053386 -0.00284,0 5.0806544,-0.353005403 7.6179824,-0.529003271 0,0 -0.567876,-0.01419077 -0.8520113,-0.02519065 l 1.9546139,-0.100762511 c -0.022731,0.01374984 5.1022802,0.636669527 1.7040224,-0.0755719 -0.00284,0 0.8877254,-0.02838154 1.3281351,-0.05038125 0,0 -3.6472709,-0.183598086 -5.4628952,-0.277096959 0.2557929,0.04896907 0.024549,-0.0176389 -3.7839321,0.05038126 0.039313,-0.04304877 -1.0312927,-0.130781763 -9.09647231,-0.932053351 0,0 -2.07308249,-0.358064395 -3.10733491,-0.503812662 2.8896557,-0.131998392 6.38041532,-0.37422765 9.22176812,-0.327478214 0.084797,-8.59358e-4 0.1314024,-0.02060511 0.1503549,-0.02519061 -0.2352108,-0.05362437 -1.9885523,-0.263213891 -8.52011184,-1.1335784436 0,0 1.06961147,-0.084703641 1.60378574,-0.1259531565 -1.34395978,-0.035749559 -1.38661961,0.084262712 -2.07990962,0.1007625465 0.0312549,-0.00549996 0.50741822,-0.092953558 0.75177456,-0.125953192 0.002841,0 -0.79368455,0.031131496 -1.20283932,0.050381291 -0.38358266,-0.2859965765 -0.931135,-0.1988794827 -1.42837171,-0.050381291 0,0 -6.02650919,-0.44266365 -9.02129488,-0.7809095844 L -4.771999329e-7,0 z m 85.52688751,0 c 4.87576123,0.1484982272 10.02693649,0.3826053395 14.86007739,0.8061002299 2.7930497,-0.00824988 6.1044886,-0.1151620857 8.8208217,0.176334412 0.1420677,0.00275 0.3855558,0.012815787 0.4761239,0.025190645 -0.027918,0.01309188 -0.1192776,0.04979094 -0.3758872,0.0755719 0.2329909,0.0329996 2.1269103,0.346600202 0.2004731,-0.1511438016 -0.00284,0 3.0075719,0.098894409 4.5106475,0.1511438016 -0.1591158,0.0329996 -0.2738353,0.02949552 3.3829856,0.428240725 0,0 1.3672431,0.239920227 2.0548505,0.35266886 0.58816,0.0164998 1.2355543,0.03697515 1.47849,0.05038126 -0.1321229,0.0083788 -0.4048928,0.03869391 -0.9021295,0.05038126 -0.019889,-0.00275 4.5070958,0.759791722 6.7659712,0.831290875 0.3523277,0.0054999 0.201223,0.0211989 -3.5834588,-0.831290875 0,0.00275 -3.3023623,-0.307683104 -4.9617122,-0.453431371 1.7900521,0.06324924 2.3232399,-0.08470364 3.9342869,-0.125953156 0,0 4.5760775,0.169407317 6.8662078,0.251906313 0,0 0.3198495,0.321873907 0.4761239,0.478622016 0,0 1.0530763,-0.243111081 1.5787266,-0.37785947 l 0.025059,0 c 0.6517737,0.04185333 10.4889565,0.624441184 12.7801678,-0.02519064 2.707809,-0.8332399779 4.5059513,-0.578398283 7.7933964,-0.680147038 -0.00284,0 9.7063371,-0.2267157031 14.5593676,-0.2267157031 0,0 6.3321518,0.6213071291 9.4974188,0.9320533861 0,0 -1.4362249,-0.05357218 -2.1550872,-0.0755719 -0.4119961,0.02474972 -6.0805342,0.378613592 -2.0799096,-0.05038126 0,0 0.5678759,0.0311315 0.8520112,0.05038126 l 0,-0.02519064 c -0.037092,-0.0034663 -0.054821,-0.02008974 -0.1002366,-0.02519061 -0.099447,-0.0082499 -1.2222947,-0.05038129 -1.7791999,-0.05038129 0.00852,0 -0.1940012,-0.005059 -0.1002366,0.02519064 0.1335436,0.00275 -7.4399637,-0.246069848 -10.9007313,-0.0755719 -0.5256502,0.03849956 -0.3389891,0.01200951 8.3697569,0.529003272 0,0 6.1941885,-0.09889441 9.2969456,-0.151143802 -0.00284,0 4.5448226,0.471694921 6.8662078,0.554193917 0,0 -3.6193704,0.604366365 -5.4378361,0.906862741 0,0 -1.4584427,-0.115835137 -2.1801463,-0.176334412 0.1534331,-0.01374984 0.4220198,-0.0042005 -2.1550871,-0.554193917 l -2.5309744,-0.327478214 -7.9938696,-0.05038126 4.0345235,0.453431371 c 0,0 0.5017356,-0.08195368 0.7517746,-0.125953157 l 0.4761239,0.478622016 c 3.6909172,0.384995371 5.6259179,0.360918741 9.2969456,0.352668824 -3.8017299,0.632492393 -3.2057958,0.709073924 -7.0416219,0.604575173 l 4.3352334,0.503812626 c 0,0 1.2982614,0.138275821 1.9546139,0.201525057 4.4325102,-0.470244327 10.9256327,-1.259427179 15.2359647,-1.410675367 0,-0.173247908 9.2774113,1.129401275 9.9735427,1.20915031 -0.144909,-0.0054999 1.9475894,0.111971196 -0.2004732,-0.201525058 0,0 2.0702412,-0.15796651 3.1073349,-0.226715667 -0.00284,0 2.3239503,0.268301726 3.4832222,0.403050115 -0.056827,0 1.7763585,0.05313122 1.7791998,0.05038125 3.125488,0.03849955 5.4829426,0.300001923 8.369757,0.957243997 2.7191745,0.670991947 4.646322,1.392017693 6.7659711,2.54425381 2.0713461,1.18248579 3.3423385,2.246422273 4.5357066,3.753404153 1.1535893,1.59223084 1.6226492,2.89665622 1.6539041,4.60988564 l -0.075177,1.18395967 -0.1252957,-0.35266883 c 0,0 0.05296,-0.83129084 0.050118,-0.83129084 -0.034096,-1.69397963 -0.525374,-3.01446387 -1.6789632,-4.58469499 -1.1876855,-1.49873201 -2.4563495,-2.551227678 -4.5106475,-3.728213512 -2.1253318,-1.141236274 -3.9829846,-1.831130525 -6.6907937,-2.493872555 -2.8726075,-0.646242231 -5.2031877,-0.929744355 -8.2945795,-0.957244032 l -0.5513013,0 0.5513013,0.0755719 c 3.0430888,0.04949943 5.3899278,0.344883257 8.1943429,1.007625287 2.6538234,0.684741751 4.4553989,1.392017659 6.5153796,2.544253811 1.9690575,1.163235995 3.2020467,2.20659993 4.3101743,3.67783225 0.5114435,0.71499139 0.8383568,1.36252211 1.1026027,2.11601306 0.2955007,0.8057403 0.4117988,1.52323861 0.4260056,2.34272878 0,0 0.048579,2.93928613 0.1252957,3.27478211 0,0.00275 0.2172846,-0.62130713 0.3508282,-0.93205335 0.07423,1.16272037 0.9686853,4.15245224 1.0524844,6.27246728 L 233,0 85.52688751,0 z m -59.46536891,117.5142974 -0.20047322,2.594635 c 0.0596684,0.4839943 0.15501158,1.1099428 0.20047322,1.511438 l 0,-4.106073 z m 38.54097657,53.42933 -0.32576899,0.025191 c -0.0113654,0 8.28147774,0.1388212 12.40428048,0.075572 0.7472758,0.090749 19.36827814,2.3133376 18.51871369,1.7633442 -1.50023419,-0.7424911 -4.00918813,-1.011617 -3.8841686,-1.8641068 l -26.71305658,0 z"
            id="polygon" />
        </g>
    </g>
</svg>