<?xml version="1.0" encoding="UTF-8" standalone="no"?>
<svg
    xmlns:dc="http://purl.org/dc/elements/1.1/"
    xmlns:cc="http://creativecommons.org/ns#"
    xmlns:rdf="http://www.w3.org/1999/02/22-rdf-syntax-ns#"
    xmlns:svg="http://www.w3.org/2000/svg"
    xmlns="http://www.w3.org/2000/svg"
    version="1.1"
    style="fill-rule:evenodd"
    preserveAspectRatio="none"
    viewBox="0 0 172 212"
    id="pic-bottom-left">
<g
    id="pic-bottom-left_g"
    transform="matrix(3.538963577e-4,0,0,3.51568595e-4,-446.5080886,-236.715725)">
<path
    style="fill:#999999"
    d="m 1665037,995665 c -3102,-226 -6049,1786 -8847,2044 497,-3922 1109,-32641 -163,-35912 0,-12849 1382,-26326 -335,-38553 1691,-5233 1081,-43984 -3212,-45041 -2798,-6340 1830,-9267 3103,-15124 1356,-229 3101,-8758 5371,-10436 6977,-256 28633,-4037 28633,3811 -20104,110 -35529,-826 -24591,3981 1328,-681 18774,-485 18774,-285 4126,1278 6371,-1222 5817,2929 -33233,-826 -27997,-8615 -27997,26042 1579,6798 -31,62099 1108,62244 332,3181 278,30593 306,30593 -243,5013 -837,11810 2033,13707 z m -360765,280660 c -1357,-37 -2705,-73 -4043,-108 2426,-12584 13465,-67876 14996,-67876 -445,-6967 7060,-31590 11294,-35628 669,-3098 15453,-21980 18142,-23599 139,-1420 18027,-25050 19797,-25847 1526,-3381 22790,-28745 23735,-28745 1686,-3183 35166,-27723 37410,-28062 471,-2443 21820,-13420 15812,-7507 -5233,2502 -24480,15382 -27193,20158 -5345,3870 -11935,7451 -16617,11915 -6062,1903 -21321,19106 -23648,25874 -4651,2561 -17416,19391 -18830,23346 -1630,0 -4013,5598 -5897,6281 -584,1961 -17832,29314 -20381,30283 -8003,21380 -11022,40460 -15784,63062 -1310,439 -5923,22151 -8793,36453 z m -41301,-252789 c 48,-17671 83,-29529 83,-29529 16,-3111 177,-33562 116,-33561 -131,-125 -196,7942 -215,9377 l 17,-489 c -42,3553 14,8299 -184,11822 -187,-5873 12,-13743 151,-19723 2,-3756 3,-2354 16,-987 134,-4857 362,-12898 503,-17857 l 108,-100 c -116,27672 -479,75701 -479,75701 200,909 199,-6493 231,-8390 -42,5417 -34,14547 -25,19749 l -121,-38 -201,-5975 z m 358,6024 c 35,-5341 72,-11864 72,-11863 0,-4113 0,-12339 0,-12339 94,-5263 148,-15793 148,-15793 17,7568 49,22703 49,22702 22,-7567 67,-22702 67,-22702 41,-1565 33,-7896 33,-7897 12,-7896 49,-23690 49,-23690 135,-4192 214,-10639 259,-15892 5316,-4830 12316,-9716 14332,-8236 3382,-2589 10467,3752 12961,-4693 6700,-5430 9468,-3865 16779,-2870 9112,-5433 10581,1136 18860,2186 12626,-5829 11462,9129 18912,11856 721,1650 8864,5005 11131,5972 1607,3840 18113,27496 13459,31220 0,5686 251,5884 251,8361 5703,17572 2076,1845 -4929,7450 -663,2074 330,14556 -3159,14868 -577,1935 -7141,13735 -4707,13279 5957,-7648 13211,-15384 15455,-24395 3099,-483 9190,27353 4150,31872 -469,1252 -3654,8817 -4320,9157 -799,5772 -8003,45351 -10880,45748 -2907,18203 -34557,6390 -35832,48280 -2578,3126 -6039,10491 -10306,11572 1552,-5091 5209,-33324 -469,-32157 -1330,4291 -55,35711 -3239,36564 57,-1990 1024,-33835 -1411,-33409 -1442,4720 -3241,28435 942,35228 -26,1136 -4627,6370 -6013,6682 -246,-938 1442,-9212 1442,-9212 0,-2872 111,-32984 -2353,-33210 -5038,2387 1577,42563 -3935,41512 113,-852 -4264,-257 -5372,-340 694,-10491 3102,-31561 -359,-40860 -3765,-628 -13596,-1819 -15175,-5743 -1663,-453 -5146,-1606 -8975,-3135 l -5516,2833 -257,-8152 c 2502,1735 5121,3050 7024,2313 -638,-3527 -10080,-7450 4430,-3243 6756,0 8280,2758 8862,-3866 -5264,-3554 -14567,-2558 -18664,-7676 357,-370 20405,6253 9912,-1821 -1605,-4862 -8725,-9238 -9166,-12567 -1953,-838 -2747,-2425 -3384,-4034 l -199,-6172 c 2201,2880 4403,6906 5274,8160 4483,2134 6506,1024 5175,-4009 9612,966 -4510,-12997 -6727,-13164 -503,1404 -2441,437 -4048,-997 l -121,-3590 c 408,139 881,330 1426,576 1830,6938 12076,-11773 10277,-12679 -1187,-2337 -7815,-6580 -12215,-7985 z m 720,-93728 11,-2531 c 38,-5376 49,-13039 50,-20078 7249,-295 23705,3429 25606,-1637 -136,-6112 6233,-3809 8092,-11431 4095,-2191 2267,8444 7364,3212 0,-6112 3270,-5715 4985,-569 2298,2221 23399,1850 26223,312 6396,-13132 1328,3387 10826,-1305 1746,-9612 2189,938 5733,1935 1687,10520 6037,6680 15925,8699 13624,-6994 -6648,-23944 3683,-30452 4760,-9781 -251,-33098 -251,-44269 3045,-7935 -8057,-13109 3518,-19620 304,-568 1884,-11289 2990,-7051 7700,6396 8058,-28433 4126,-29003 0,-3471 -4791,-2983 -968,-9011 6811,-1055 -695,-8189 10799,-8189 5843,-1821 2354,-10410 6175,-10948 2770,-10435 -6261,-7279 5623,-13364 1825,-3356 3182,-29997 4265,-30139 165,-7991 -2633,-9979 2378,-15126 -608,-4664 -4653,-13990 638,-16065 1497,-13192 10410,-1504 9582,8588 -4819,9467 2878,5458 3655,12055 -4762,5826 0,25304 -277,32325 2437,6060 7170,6544 7420,13651 -2132,9470 1773,5600 5567,11573 0,6707 -3351,9269 3793,9438 1303,-7021 10412,2927 6730,13336 0,712 747,32698 3488,32698 4181,-12255 3129,5574 5207,-1307 3377,-3241 415,4604 4736,7477 7560,2073 -1578,21267 1880,22605 -358,9584 -1741,25362 804,33720 8278,5859 -8056,26101 5568,34832 3518,0 29877,2584 30184,4834 553,-31 41537,7589 42284,9351 9665,0 26001,6686 34948,10722 6148,0 6258,-3327 8499,-7194 3492,-512 4683,-1278 8088,-2476 4457,-7845 39569,-1052 44999,1848 389,1991 638,2191 1107,7167 6867,6738 -222,35286 3875,47456 890,14528 5929,19137 -8721,23768 -971,2306 -25587,15582 -22762,5433 -666,-7507 -2519,-36992 -831,-39438 4789,-2900 6645,-8472 4901,-13622 -8087,0 -20242,-10458 -28994,-12365 -1580,-3641 -26197,-9953 -30350,-12142 -16558,-2955 -32978,-10148 -49845,-11059 -8335,-4266 -66653,-10037 -66653,-4749 14872,4579 35473,-997 51481,4181 4760,-87 49593,10206 49707,11086 18054,2818 36301,10523 52583,18881 2078,2390 15951,7281 15951,9581 -12933,-2245 -26390,-14984 -38993,-16263 -4924,-2447 -27742,-10748 -30541,-9924 -332,-2103 -64189,-15694 -66377,-12793 -12378,-1224 -22264,-682 -33089,880 -1746,12339 -581,9267 8252,11601 -111,2758 -388,5403 -306,8531 -3598,-426 -8750,-4921 -9665,-7819 -3877,-655 4015,-18144 -6425,-15013 -969,4064 -1882,8443 -2354,13477 -5623,-598 1524,-56355 -4401,-57349 -7976,2871 2407,55330 -4348,55330 -885,-8220 -84,-53368 -2437,-54392 -5427,2729 -5234,-5602 -6394,8387 0,10662 2904,43107 -2799,50555 -2022,853 -9387,6936 -3213,6624 10688,-6710 10243,-7648 23013,-3414 10465,-1792 9882,6314 17167,8957 1937,3870 5455,24795 8366,25222 53,2930 -1609,18624 1021,21327 969,7588 1386,28002 -5898,31727 -6064,10519 -7309,11318 -17252,17940 -387,3300 1385,15725 -3239,15725 -4430,-1933 2133,-9097 -3518,-11230 -194,-794 -9469,-10436 -3987,-11231 -222,-11941 5953,-17515 4403,-29059 -3654,-5798 -940,-19335 -4793,-27919 418,-9384 -829,-16352 -5092,-23487 -5068,-4066 -6785,-6881 -10275,-11771 -3294,-543 -8058,-7792 -11797,-8787 -1662,-1989 -13568,-3184 -17140,-3726 -7007,-6480 -26803,7338 -30099,542 -2135,-114 -10717,-10436 -13265,-12539 -9746,543 -17168,-2816 -25891,0 -7563,0 -10081,-4409 -15756,624 -3322,484 -6400,6229 -9557,5603 0,1081 -6534,681 -7448,681 -1267,607 -8494,5399 -12268,7359 z m -145,-22599 -75,6742 c -22,2962 -66,8884 -66,8884 -5,-3843 107,-8915 -52,-12732 -158,5724 -93,11895 -113,17667 l -80,2306 c -370,181 -692,323 -958,421 l 64,-23156 c 380,-65 810,-108 1280,-132 z m -618,29516 -496,14242 c 0,-3455 -66,-10364 -66,-10364 -100,591 -163,1667 -200,3029 l 17,-6199 c 243,-235 491,-471 745,-708 z m -746,-29367 c -66,7766 -112,15467 -137,23192 -73,24 -140,42 -202,57 l 12,-2837 c -11,-1836 27,-11727 -19,-20338 110,-27 226,-52 346,-74 z m -153,30224 c -8,5252 -6,10526 7,15853 -29,17 -50,3029 -49,2961 -16,-5055 -44,-13280 -63,-18711 l 105,-103 z m -181,177 -59,6291 25,-6258 34,-33 z m -435,-30203 c -37,6545 -32,13130 -16,19702 l -15,-315 -49,-19355 80,-32 z m 14,30620 c 7,3124 14,6238 16,9336 l -30,-9323 14,-13 z m 485060,-132057 c 5,715 9,1424 11,2111 l -156,5 -13,-2117 158,1 z m -294,-1 -6,2122 -535,18 3,-205 270,-1937 268,2 z m 121,15134 c 28,2051 57,3952 81,5459 l -12,-10 c -30,-1725 -60,-3613 -88,-5438 l 19,-11 z m -151,93 2,5046 c -250,-553 -152,-1368 -727,-1582 l 37,-2838 c 234,-238 468,-472 688,-626 z m -308,42318 c 0,2115 0,4114 -16,5871 l -9,9534 c -192,-779 -448,-1034 -795,-480 l -159,-10289 60,-4651 c 299,7 603,14 919,15 z m -49,42965 -1,909 11,-912 c 186,-59 382,-85 596,-68 -42,1012 -202,17644 -554,25110 -117,-8295 -245,-16590 -376,-24883 104,-64 211,-119 324,-156 z m 107,-27170 c -21,-3842 -39,-7685 -50,-11528 17,69 59,6123 96,11797 -14,-94 -30,-183 -46,-269 z m 129,862 c -7,-5652 -31,-11378 56,-16657 216,-2 437,-7 666,-17 l -18,4900 c -1,1333 -17,6416 -17,6416 -12,5385 -26,13000 -38,20073 -288,-2324 -171,-10787 -649,-14715 z m 666,-53443 c -16,-1924 -27,-3735 -11,-5217 36,558 19,-282 16,-473 135,40 257,159 363,383 -30,1797 -56,3581 -80,5351 -108,-5 -204,-20 -288,-44 z m 204,-18658 32,-2096 407,4 -38,2082 -401,10 z m 197,-10617 138,166 -160,-7 22,-159 z m -704,185248 32,21 12,3632 c 8,-817 7,-2134 11,-3612 124,107 248,333 363,699 -16,2373 -57,4880 -105,7321 -107,-179 -206,-362 -297,-550 l 13,-2255 -29,-5256 z m -483791,-19540 0,-4 0,4 z m -448,-19678 c -71,2561 -52,6136 -27,9423 l 27,-9423 z m -27,9423 c 16,2194 34,4261 30,5809 l -50,1477 20,-7286 z m -20,7286 0,3 0,-3 z m -330,-16291 0,7 0,-7 z m 324512,113855 c 1078,-4322 16946,-17060 13456,-11374 -387,2219 -10770,10864 -13456,11374 z m -4958,16065 c -914,-2332 11574,-10607 13595,-11033 0,2647 -11435,9953 -13595,11033 z m 5563,6939 c 1052,-2447 3215,-5746 5374,-5486 0,2669 -2825,4832 -5374,5486 z m 24428,10405 c -1387,-2388 -3767,1991 -141,-4208 4209,-1166 1246,-3780 1246,-6313 1688,-1620 3130,882 4762,882 7200,-5004 -5204,9241 -5867,9639 z m -8670,-11345 c -1550,-1960 7780,-10294 10523,-11032 -249,3470 -7256,9015 -10523,11032 z m 1248,-21125 c -388,-1593 10354,-14701 10632,-8703 -3461,3359 -6953,7566 -10632,8703 z m 13289,-22378 c 527,-3155 10135,-9751 13293,-10718 -776,3269 -10328,10208 -13293,10718 z m 6176,16379 c 1358,-1993 16561,-14160 12077,-14813 -253,-11719 10963,1192 994,5742 -192,909 -11242,8474 -13071,9071 z m 6508,6937 c -278,-3640 15810,-16264 19192,-17542 2686,1081 -17032,16489 -19192,17542 z m -4652,19562 c -832,-2190 15397,-16919 17944,-17345 -833,3356 -14785,16660 -17944,17345 z m 8032,17971 c 1274,-2617 15118,-15980 18055,-15896 0,2273 -15341,15441 -18055,15896 z m 11463,-66533 c 0,-2676 12657,-10752 15894,-12455 775,1336 -13485,11858 -15894,12455 z m -5261,-6312 c 332,-4864 11242,-11915 15175,-13425 195,2360 -12238,12313 -15175,13425 z m 22569,-12599 c 1136,-3497 16807,-16546 16061,-11034 -6013,3075 -9086,8817 -16061,11034 z m 2772,15440 c -557,-1450 3568,-4665 4925,-5230 1107,-15439 1854,-1933 8364,-6626 995,-1793 5597,-3469 7838,-3412 0,1362 -18252,14330 -21127,15268 z m -9583,27437 c 0,-1391 9329,-9722 12044,-10720 -1217,3755 -8417,9527 -12044,10720 z m 15450,13877 c -2188,-3131 12270,-14417 16504,-14331 -582,2389 -14538,13988 -16504,14331 z m 34005,-41314 c -3490,-1534 16588,-14701 15258,-10606 -5344,3555 -8778,9213 -15258,10606 z m -2770,18939 c -192,-2648 15702,-13849 19163,-13565 0,1933 -12157,8674 -14123,11145 -2325,399 -2961,1365 -5040,2420 z m -4013,18906 c -2326,-6627 17335,-10836 3544,-2815 -1303,2274 -1526,1536 -3544,2815 z m -17334,23971 c -2246,-996 15035,-15413 19189,-15785 -1719,4184 -15728,14901 -19189,15785 z m -27502,11031 c 2520,-5176 -4013,-9837 3409,-9467 1994,5712 3239,536 7338,-1026 1744,-6655 8722,-1703 1438,428 -635,2020 -9885,9638 -12185,10065 z m 43895,17972 c -2912,-1285 12654,-19736 10938,-10610 -3879,1850 -6120,9300 -10938,10610 z m 9883,-35630 c -444,-2617 11604,-15383 14541,-15780 0,2845 -11687,15268 -14541,15780 z m 304,39096 c 2383,-7220 8974,-9554 11937,-15271 7476,-5003 -331,6486 -3905,7877 -2188,4352 -3710,6026 -8032,7394 z m -78808,-173102 c -5290,-2615 -2906,-22147 1301,-11744 7228,655 7257,11177 -1301,11744 z m 4930,19221 c -2440,-4178 -8779,1480 -7090,-6311 4319,-738 -6591,-7564 6178,-7764 3791,-4434 3181,13053 912,14075 z m -14510,-21126 c -5041,-2046 -5457,-6025 -5070,-11801 10024,-3636 8613,1821 7836,10863 -1053,628 -1053,628 -2766,938 z m 8028,42877 c -498,-3210 -2684,-12908 -663,-14981 10661,0 10744,5656 7893,14468 -5042,0 -3463,-1278 -7230,513 z m -27193,-47594 c -246,-116 -14233,-8845 -14233,-8845 4098,86 17086,-5402 18055,115 -3461,3385 3408,8102 -3822,8730 z m 6176,5031 c -995,-2559 3711,-25164 -3378,-21299 -8141,0 -18419,4067 -5345,-1874 2963,0 6369,-538 9277,-1905 3820,396 3074,24225 -554,25078 z m 10192,43531 c -1802,-483 -2244,-19989 -998,-23427 2824,0 4126,22375 998,23427 z m 329,14189 c -1411,-1707 -801,-9586 -746,-12115 2882,-4634 2990,12115 746,12115 z M 1456506,875674 c -2769,-1478 -8309,-1138 -8668,-4093 2465,369 16061,3553 8668,4093 z m -13290,-3783 c -6370,-1762 -22543,-3466 -25755,-6538 -220,-3498 -4927,-51235 3186,-47682 471,4889 7366,30 6645,6000 1855,6027 -4153,11001 -6343,2501 -1909,0 1774,32614 -469,37219 832,2416 7533,3725 9804,3526 -3102,-19733 1603,-9213 -7783,-11401 0,-3839 -3017,-10575 3711,-10575 10135,7223 -4570,-31335 6315,-24768 1440,3725 11630,-909 11630,3186 1468,-399 5262,-4095 6479,-340 6422,0 6451,40003 3765,47367 -4789,598 -1330,-14275 -4872,-10803 -6205,507 -4959,15209 -7726,4432 -940,-22972 -584,2021 -6951,-6482 -1799,-10151 -1218,7081 -2160,10267 778,86 14620,2700 10524,4091 z m 15451,0 c -2934,-13306 -1358,-30505 -1358,-44270 7033,-6512 2549,21668 4154,21895 -195,4579 1690,21808 -2796,22375 z m -46358,-8500 c -2961,-3041 -2019,-46375 -1686,-47427 6838,-4834 3348,36852 4288,41145 -1243,2558 1084,5714 -2602,6282 z m 42037,-41625 c -6756,-2302 -43419,-6453 -43061,-12679 3739,-2705 33038,6538 39351,7163 2905,795 15453,4833 3710,5516 z m -9276,-10719 c -2325,-598 -15009,-2729 -15009,-3810 166,0 17194,2301 15009,3810 z m -13598,-6314 c -9746,-6313 1108,-13619 2768,-7875 -6176,995 3241,6341 -2768,7875 z m -5869,-16378 c -1579,-11968 3017,-13733 969,-253 -306,83 -637,169 -969,253 z m -12988,10720 c -775,-4607 -775,-33122 1855,-33748 -54,2983 501,33748 -1855,33748 z m 24120,7564 c -553,-7564 4735,-16320 -8338,-13420 -2961,1393 -3903,11544 -3903,1365 6344,-9557 12267,3100 11714,-15383 -4709,-8076 -2712,13053 -5262,5944 139,-12539 -6725,-7024 -6725,-11431 17747,3012 11935,2502 14202,17743 223,341 3239,8925 4295,8217 0,-14670 4069,-25960 -12298,-28858 -1327,-1594 -6673,-1281 -8694,-1057 -1773,3814 1799,32387 -2437,32899 -3794,-4974 -2187,-34235 -942,-36821 3075,-2103 26695,5829 27332,6541 1551,5147 2546,46943 -3156,28661 -4265,1076 -2688,4946 -5788,5600 z m -6203,-43190 c 109,-1736 -471,-3072 -471,-4491 1775,-3384 3435,2871 471,4491 z m -3379,-1591 c 0,-1363 0,-2729 0,-4094 1799,0 1109,4094 0,4094 z m 7087,1902 c 0,-5543 806,-5571 1246,0 -414,0 -830,0 -1246,0 z m -10493,-3155 c 114,-2388 775,-5488 1689,-1449 -804,966 -804,966 -1689,1449 z m -3100,-1904 c 0,-712 0,-1449 0,-2189 302,0 608,0 940,0 0,710 0,1448 0,2189 -304,0 -610,0 -940,0 z m 11741,-1250 c -2632,-3043 -10716,-3213 -14207,-3468 583,-2761 15894,-1535 15564,3269 -445,53 -888,113 -1357,199 z m -26585,-5686 c 0,-3272 19494,-3613 23206,-1424 -1660,1593 -12155,-1222 -17003,1254 -2050,55 -4126,110 -6203,170 z m 21017,-5972 c 1053,-6851 2383,-1507 1302,-256 -414,87 -856,168 -1302,256 z m -2769,-655 c -471,-2189 -471,-2189 -606,-5658 3598,-169 1713,5658 606,5658 z m -5870,1904 c -912,-12650 6535,-3666 1717,-2842 -722,1424 -277,2842 -1717,2842 z m -940,-9464 c -1634,-86 -7451,197 -3629,-1512 1137,-4403 637,-27319 2548,-12680 -3268,6741 2129,21097 2463,3156 -858,-11402 2467,-28148 2467,-5997 2159,5741 4513,16606 -3849,17033 z m -17613,50125 c -386,-4920 -139,-9270 -139,-13989 3379,-3213 2327,13476 139,13989 z m 1552,-20157 c 1052,-2190 3543,-2447 5982,-2335 0,1509 -4901,2191 -5982,2335 z m 6479,30250 c -110,-6368 -2189,-28545 637,-30109 193,0 2741,29483 -637,30109 z m -12987,-9751 c -141,-200 -306,-399 -471,-626 -2328,-24168 5066,-1879 471,626 z m -3380,16688 c -7504,-9011 10220,-13421 10881,-8585 3047,881 3047,7277 1275,5460 611,-6286 -6865,-4379 -10634,-3301 -967,1822 306,5802 -1522,6426 z m -3403,8219 c 0,-2360 19964,-8985 22871,-9154 -417,1731 -20352,8299 -22871,9154 z m -10525,9440 c 0,-1735 29410,-12657 32563,-12424 113,795 -28993,12108 -32563,12424 z m 25668,39751 c -1022,-1481 -1546,-44731 -439,-45865 2599,0 1438,45634 439,45865 z m -4320,1562 c -468,-14391 -995,-29173 -412,-43275 2741,113 2353,43275 412,43275 z m -12378,8841 c -1411,-7591 -799,-18282 0,-25871 2966,0 1359,25871 0,25871 z m 0,-27436 c -689,-6683 -799,-13534 -744,-19989 1439,0 2406,19418 744,19989 z m -4318,29626 c -249,-3045 -691,-51350 2575,-49615 360,8556 57,49615 -2575,49615 z m 44804,71251 c -5843,-2644 -17831,-5003 -3681,-3951 665,171 8224,2901 3681,3951 z m 1551,18315 c -498,-3129 3350,-7508 6093,-7993 -6175,-16631 1524,-3725 3682,2647 -940,1167 -1024,2328 -2464,1990 -830,-5233 -5178,2075 -7311,3356 z m 5263,8186 c -4266,-6055 692,-18480 1993,-1874 -416,1362 -747,1591 -1993,1874 z m -1246,20501 c 1634,-8445 14263,-7450 7970,-18225 -3067,881 -2239,4434 -5616,4777 0,-1563 7337,-8901 4486,-10066 -6978,5801 11379,-16319 1354,-7988 -5039,8982 915,-5603 915,-7253 -10634,-14529 4819,-3154 4819,7222 -912,257 -8641,6910 -2796,6741 3404,-3614 1495,14754 -304,19418 -2439,-255 -4102,-3300 -4628,0 -2296,369 -3542,4579 -6200,5374 z m 16696,-6936 c -2103,-914 -2244,-16010 -1051,-18739 5014,0 9527,17825 1051,18739 z m 1552,20497 c -5954,-2246 1607,-17030 -2158,-17030 0,4124 -6233,-3184 3074,0 1050,4207 6506,16065 -916,17030 z m -11132,7564 c -610,-1564 5676,-6595 914,-5486 -5122,7165 -6065,1960 -693,-285 251,-1281 5926,-8077 3491,-7620 -1693,2731 -7368,7735 -10191,8957 1186,-3442 8888,-11317 12350,-11971 1135,4919 3295,13248 -2438,15924 -1357,0 -2491,-259 -3433,481 z m 1246,19533 c -6340,-2446 1136,-7505 3407,-11968 940,0 1911,-9782 5622,-11601 2326,-6028 9496,-1766 5176,879 -358,3698 -1772,4609 -2769,8190 -5235,2191 -2990,13278 -11436,14500 z m -11131,1593 c 1744,-10263 6229,-1648 -2353,-2815 1911,-5941 4733,-483 5065,-9043 11907,-6937 9748,-8103 6869,173 -9029,4122 -334,7419 -9581,11685 z m 2769,-120782 c -1525,-1707 -5816,-40346 3212,-34178 -224,6172 2988,34178 -3212,34178 z m 13928,-5348 c -3934,-3326 -6228,-25559 2162,-27747 -139,5060 2215,26982 -2162,27747 z m 12045,315 c -3073,-851 -1770,-22862 -1800,-26588 -5564,-1988 471,22123 -2160,25706 -8111,2758 -3736,-21213 -3016,-26415 -5208,-4660 -38076,-5998 -39710,-12737 3904,-767 45137,5998 45137,9124 12126,1481 1549,5146 4790,14332 -360,4550 1385,15809 -3241,16578 z m -83157,-18595 c 1025,-2788 32455,-18880 36165,-18624 -332,2133 -30988,17686 -36165,18624 z m -609,-5062 c -969,-2502 32399,-17372 36274,-17144 0,1108 -27554,13051 -28242,13248 -1912,2558 -5183,3498 -8032,3896 z m 26891,50155 c -2686,-14813 26,-36166 442,-51406 1687,-8245 828,22774 1245,23655 -223,2504 111,27751 -1687,27751 z m -3408,-38469 c -1026,-2985 -332,-8959 -473,-12057 1662,-10575 4211,12057 473,12057 z m -13904,14815 c -1440,-6569 57,-14559 1110,-21268 1660,-371 1162,21268 -1110,21268 z m -3708,1875 c -1081,-2246 -858,-22347 1691,-21496 828,3497 1273,19393 -1691,21496 z m -88114,1593 c -58,-853 -111,-1705 -165,-2587 1632,-4805 51728,256 53830,-4805 1995,-454 1967,11515 -859,3753 -17778,908 -36192,55 -52806,3639 z m 2186,17029 c -5870,-4007 13846,-6339 5899,-1450 -2491,0 -3766,1083 -5899,1450 z m 98276,942 c -634,-4239 -1189,-7564 -1382,-11631 -1357,-3269 -19523,-1107 -24316,-2416 -15643,0 -22149,1021 -21711,-1536 2855,-1963 47052,-229 48019,883 140,1419 501,14330 -610,14700 z m 4654,310 c -167,-7107 -1885,-31247 1162,-35399 110,0 1414,30964 -1162,35399 z m -67706,6311 c -5178,-2644 -10801,-764 -14845,-2843 946,-5429 -10020,-2272 -12958,-2074 -6093,2618 -691,-4633 1771,-4407 3961,-1593 18084,-4180 18694,2301 2576,1565 10579,-82 10579,5461 -1050,1535 -1523,1421 -3241,1562 z m -42978,1567 c -2354,-1024 2272,-4350 2992,-4863 4819,-484 -29,4493 -2992,4863 z m 5898,3157 c -495,-1850 7283,-7708 6898,-2420 -1189,1111 -5207,1904 -6898,2420 z m 75737,624 c 555,-2417 3074,-5574 5538,-5972 -359,2219 -3543,5348 -5538,5972 z m 4016,2843 c 502,-2191 5095,-9441 2769,-2843 -1692,769 -251,2361 -2769,2843 z m -103870,2529 c -859,-4946 13206,-19221 14372,-7846 -29,57 -12630,7421 -14372,7846 z m 105392,2531 c 362,-767 5013,-10063 5402,-5970 -1384,2047 -3075,4776 -5402,5970 z m -38932,0 c -4987,-2157 -6291,-7704 -12437,-8701 -16778,-9267 11354,-2843 11877,1025 3102,2304 7479,7078 560,7676 z m -61837,4407 c 0,-4974 14870,-16034 15037,-8584 -387,1022 -13183,7420 -15037,8584 z m 129542,2531 c -6372,-5457 -17085,-20501 -22875,-6000 -7392,3783 6536,-7365 1107,-9666 -304,-2645 2217,-2161 4405,-2161 6645,-2162 25086,17004 17363,17827 z m -52558,626 c -2772,-3157 -2552,-8986 -7118,-10719 -694,-1618 -2768,-2984 -3821,-4322 0,-6796 26141,8986 14677,14870 -1248,57 -2494,114 -3738,171 z m -50069,312 c -583,-2390 9583,-11288 12046,-11684 -998,2757 -9139,11201 -12046,11684 z m -7421,0 c -1136,-1935 167,-10717 2769,-10717 749,2015 -1133,8869 -2769,10717 z m 46968,312 c -2798,-3835 -6926,-6112 -807,-6424 2630,1591 7370,6000 807,6424 z m 42668,943 c -715,-1852 4186,-5350 4626,-7569 6814,-3496 -2988,6883 -4626,7569 z m -71109,310 c 470,-3955 6759,-16180 -1523,-15297 -2437,1679 -5621,6482 -8363,6482 0,-2672 5844,-5317 6812,-9153 -9637,-5433 13541,-3445 12046,8186 -4514,-595 -5564,7874 -8972,9782 z m -23483,1592 c -471,-2021 746,-10407 3711,-10407 167,2617 -1358,9298 -3711,10407 z m -4623,1251 c -250,-3584 774,-6738 1521,-10092 3934,-654 306,8103 -1521,10092 z m 40788,312 c -221,-2274 1470,-6708 3240,-7620 4238,-6910 583,6253 -3240,7620 z m -9886,314 c 1024,-3072 4350,-13987 7836,-13363 -386,3696 -4097,12653 -7836,13363 z m 68313,1591 c 581,-1905 9307,-12623 11135,-12623 -470,2957 -8194,11089 -11135,12623 z m -81910,314 c -443,-1848 7699,-11089 10607,-10860 0,4461 -7118,8781 -10607,10860 z m 87481,1248 c -364,-3695 4013,-5627 6366,-8327 4875,0 -4843,7389 -6366,8327 z m -86566,4410 c 1053,-3356 5896,-9411 9276,-9128 -498,3526 -6039,8560 -9276,9128 z m 103264,2845 c -585,-4125 -1276,-8334 -3187,-11601 -10577,-5829 -4655,-10494 1468,-2334 694,2730 7088,13363 1719,13935 z m -20107,623 c 2162,-3638 4846,-5826 8362,-8074 388,2502 -6424,7618 -8362,8074 z m 6812,315 c -249,-2077 11522,-13053 3684,-2020 -1218,653 -2438,1336 -3684,2020 z m 22570,1591 c -5098,-5860 -7894,-8303 -6618,-16520 193,0 7311,2873 1105,2074 -1467,5488 9416,13166 2218,2078 692,-3669 8946,11768 3295,12368 z m -109740,314 c -306,-5432 14145,-15356 5260,-3955 -2133,1426 -2799,2702 -5260,3955 z m 52529,312 c 3569,-15698 -555,-4353 -2771,-3784 1274,-11796 -1577,1422 -2019,-5684 2602,-12056 3487,-4550 9749,-2814 718,2240 7115,5486 -87,6850 -109,484 -4542,5318 -4872,5432 z m 35557,1905 c 690,-2644 12541,-13480 6616,-4636 -2079,1052 -4927,4180 -6616,4636 z m -106032,1562 c -1966,-1139 -2215,-2332 -3210,-3979 -3657,-14673 5563,736 3930,3783 -224,53 -469,112 -720,196 z m 20407,1252 c -222,-940 3518,-8815 5707,-6027 -390,1619 -4319,5570 -5707,6027 z m 86565,1593 c 610,-2759 7530,-8787 9358,-8646 0,2079 -7530,8646 -9358,8646 z m -84099,4719 c -220,-2873 7587,-11486 7114,-16066 1858,-313 2439,-6768 1858,-8528 885,-143 9388,-21582 9998,-12794 -3961,3467 -6260,11342 -5848,16832 2578,13959 -7254,11258 -8996,17199 -1772,912 -2518,2417 -4126,3357 z m 83765,1593 c 969,-3356 4544,-5605 7450,-7138 167,1988 -5620,6198 -7450,7138 z m -30903,0 c -7809,-3497 1913,-8533 -1246,-9610 -6951,8898 -496,-4381 1246,-4579 332,4010 3239,-1990 3239,6965 -1134,3186 1332,6341 -3239,7224 z m -64603,3467 c -6784,-3864 -6647,-29030 -1442,-17485 0,5231 8694,15211 1442,17485 z m 18555,1875 c -112,-2754 6394,-13788 8362,-15325 2272,456 -6092,15325 -8362,15325 z m 75429,626 c 1634,-2699 4377,-5342 7420,-6284 -800,2647 -5092,5888 -7420,6284 z m -110680,655 c -4960,-2472 -7866,-8075 -9057,-13192 -2021,0 -3186,-27837 4872,-427 1718,3327 11326,12851 4185,13619 z m 51006,311 c -442,-2329 1856,-4121 1356,-7587 -8447,-3725 4433,-14731 -54,-14731 -1551,4238 -7892,6851 -2242,29 1024,-2644 2433,-5117 3653,-7591 -3486,-884 -13596,19989 -7339,4008 3352,-1534 -81,-18226 4457,-12026 0,7450 3520,-2216 3102,4493 -2576,5289 1110,0 2385,3355 4180,710 691,28005 -5318,30050 z m 59978,4719 c 1330,-1590 1330,-1590 1857,-2838 4847,-2646 554,2838 -1857,2838 z m -90273,3786 c 1800,-6683 9886,-12170 4761,-3043 -1495,1165 -3043,2644 -4761,3043 z m -30904,1252 c -1993,-2306 -3600,-1792 -3211,-5516 -3213,-4865 9995,3440 3211,5516 z m 77287,2529 c 443,-2418 4956,-12286 7421,-12597 -306,2900 -4345,11745 -7421,12597 z m -42977,1249 c -4626,-934 12519,-17797 6286,-8358 0,854 -4844,7678 -6286,8358 z m -18553,654 c -4348,-2188 -8945,-7589 -9582,-12308 2548,253 17057,11370 9582,12308 z m 68951,2817 c 0,-1024 5703,-16235 4626,-12910 -5429,542 -6314,15014 -7672,9838 -3517,1336 -1551,4010 -1161,-1962 1187,-881 12710,-25902 10384,-10091 1551,-885 1080,-2105 2769,-2531 -363,1988 -5928,17656 -8946,17656 z m 8030,4434 c 639,-3096 2301,-5715 3712,-8529 3182,569 -1994,7593 -3712,8529 z m -25035,1252 c -634,-2617 2884,-5829 4185,-7705 7865,-512 359,7307 -4185,7705 z m -37714,1252 c 0,-2900 11327,-13962 13514,-14588 2327,-5032 14150,-27552 12212,-10718 5705,396 -11354,24168 -15033,22918 0,-229 7307,-10694 7669,-10891 1743,-4434 9773,-11032 4513,-11941 -56,-339 -17530,24194 -22875,25220 z m -11768,1591 c -2548,-767 -19163,-7703 -7394,-5999 0,1082 25227,4235 7394,5999 z m 30625,938 c -218,-4605 11772,-13020 6563,-12539 -24,400 -4928,5403 -5759,5403 720,-2585 8280,-18566 10384,-12481 8004,-2387 14565,-17968 17167,-25390 -2351,0 -8333,11284 -9716,13274 -3074,0 11019,-23283 7143,-19303 -472,3440 -6784,-115 -941,-4777 0,-14103 10163,-3498 2158,2986 307,1165 803,-172 1691,-628 5733,114 -2105,20387 -4514,20729 2851,12397 10747,-19561 12739,-9583 -942,4240 -555,16522 -6288,17857 -2825,1620 -6920,7534 -8805,7534 -191,-7505 525,-2616 -3295,-1819 -1938,2132 -6532,3896 -6783,6767 -388,0 -9221,10748 -11744,11970 z m 68317,3469 c -664,-1706 7504,-5457 8532,-8958 4427,-3040 10660,-9493 9910,-14926 -360,0 -11465,13989 -6700,4664 5594,-940 -224,-7167 -1552,1564 -3545,0 7920,-19762 7920,-8986 1329,-567 3656,-5827 4319,-7222 1635,-257 3159,11689 1191,13704 -1689,8502 -13790,14758 -21070,18343 -779,1136 -1332,1620 -2550,1817 z m 9582,1905 c -165,-453 9385,-10067 10440,-10890 7612,0 -10192,10778 -10440,10890 z m -79143,1253 c -388,-1622 14814,-17999 16394,-18597 -1608,10208 -11852,11915 -16394,18597 z m 37106,1904 c -164,-1735 2273,-9979 3629,-10889 7061,141 -1468,10889 -3629,10889 z m -55658,0 c -3793,-2133 -19940,-4040 -21018,-8843 54,0 22263,7220 22263,8843 -416,0 -833,0 -1245,0 z m 98915,1249 c 636,-1762 8527,-9125 10519,-9465 0,3352 -7723,8957 -10519,9465 z m -12962,1254 c -163,-2789 7834,-6172 8031,-7565 6423,-737 -5981,7309 -8031,7565 z m -64633,310 c 1246,-3129 9222,-15125 11439,-15125 -471,5032 -7118,12910 -11439,15125 z m 65545,3471 c 832,-1962 9390,-9496 9085,-5233 -3075,2531 -5263,4040 -9085,5233 z m -57791,967 c -4844,-3498 9775,-16720 6482,-6002 -1135,0 -2797,5316 -6482,6002 z m -17001,0 c 941,-5060 10134,-4181 5923,-3098 0,1446 -4814,2953 -5923,3098 z m -11770,0 c -1410,-1733 -10025,-4295 -12489,-4636 -2186,-3355 -12241,-5143 -13152,-9241 8914,2445 19467,11346 28135,12596 -249,1679 -1165,1136 -2494,1281 z m 35253,310 c -747,-1903 17694,-14440 11822,-14440 -3628,5287 -14815,11227 -4181,2360 473,-853 7810,-7279 2077,-4608 -139,1679 -6175,3780 -2186,596 3073,-7705 14481,-8641 9774,3159 -5760,3439 -10688,10403 -17306,12933 z m 21626,628 c -610,-1564 2244,-2274 3323,-2614 526,-2705 14788,-21438 7032,-17860 -8083,15098 -331,-5487 4903,-9494 2382,-8073 8170,3581 2048,4607 -3820,3125 7339,7762 471,10575 -1907,5459 -12402,12029 -17777,14786 z m 42673,1565 c 0,-1565 11935,-12113 14317,-12113 0,1905 -11825,11682 -14317,12113 z m -62140,2216 c 443,-2788 12156,-11631 14842,-12312 -969,3186 -12433,11743 -14842,12312 z m 48238,939 c -220,-1877 5428,-5149 7035,-6796 7448,0 -6812,6679 -7035,6796 z m -72967,0 c 830,-2648 10940,-8442 11631,-6994 -4072,2186 -6508,5341 -11631,6994 z m -9584,313 c -2682,-399 -29183,-10152 -26138,-13564 5430,3042 27389,11827 27389,13564 -420,0 -837,0 -1251,0 z m 94597,2215 c 1136,-3095 13348,-12737 16728,-14386 302,2474 -14429,14386 -16728,14386 z m -82851,2222 c 0,-4322 21847,-11375 13679,-7197 -251,1622 -11717,6342 -13679,7197 z m -10193,938 c -6645,-1537 -12987,-2419 -18552,-5858 -1495,-171 -7699,-3157 -4960,-3469 2411,1220 30656,8300 23512,9327 z m 80363,624 c 580,-4095 11545,-10067 7421,-3924 -2716,1395 -4599,3128 -7421,3924 z m 12985,1564 c -720,-1850 14181,-13734 15869,-13679 0,2278 -13625,13253 -15869,13679 z m -102928,967 c -2657,-1652 -12681,-3441 -12681,-6315 415,86 16915,4862 12681,6315 z m 17611,2190 c -469,-3897 18831,-8476 13291,-7053 -2659,3953 -9220,5263 -13291,7053 z m 72332,1279 c 2047,-5859 12155,-6796 5092,-2502 -164,1336 -3818,2331 -5092,2502 z m 12681,936 c 0,-2814 18943,-18111 11601,-9154 -109,739 -10357,8844 -11601,9154 z m -12046,2843 c -913,-2329 2825,-2953 4321,-3468 -692,2587 -1579,3101 -4321,3468 z m -85319,0 c -968,-396 -17582,-8331 -7751,-7248 579,3581 9747,-2390 10631,6738 -689,341 -689,341 -2880,510 z m -11769,3784 c -1883,-1649 -4985,-2901 -5648,-4975 -3018,-514 -15145,-17772 -5483,-13621 501,5233 22709,16691 11131,18596 z m 14238,3781 c 0,-3012 29073,-5686 14203,-2957 -4544,2247 -9388,2330 -14203,2957 z m 17305,5685 c 1079,-3695 6451,-6881 9885,-8217 -860,3496 -6563,7763 -9885,8217 z m -14538,937 c -387,-4860 21735,-6508 11130,-3607 -3073,2188 -7503,3268 -11130,3607 z m 34947,2843 c -1939,-8046 15367,-6508 15367,-11285 -2381,56 -7780,3499 -7476,1365 9276,-4436 -7558,-145 1218,-4010 1911,-5943 4073,-4719 -1908,-1733 -9805,2076 2711,-8446 912,-9184 -165,1021 -17554,12567 -7087,1817 -391,-1988 -3852,2617 -4516,-1193 -886,0 -387,1821 -1913,2759 -1217,3156 -12320,12453 -15145,11801 0,-2874 15701,-10551 4016,-7563 -4240,-5090 -4736,27 -10911,1534 -192,1336 -6229,1365 -2631,143 4625,-8160 14733,-1307 18498,-13905 1690,-1053 1552,-2560 4152,-1139 1357,7310 20273,-14498 24119,-14498 -526,2243 -7947,8727 -10076,9493 -1192,3725 -10194,5407 -9030,9331 6011,-1681 10328,-8076 16313,-10635 -969,3752 -15649,12110 -5265,9469 500,1307 1691,-4012 3021,-4181 2877,-4467 4071,4692 9054,-2132 3156,-230 1468,-4435 -1745,-825 -6785,1333 4047,-3527 4710,-5601 11546,0 -612,14558 -110,18309 8027,571 -2688,16662 -6565,14619 -1330,-3074 -14842,7244 -17002,7244 z m -23511,2505 c 720,-2360 9167,-7818 11768,-8501 -386,2188 -9496,8501 -11768,8501 z m -22874,0 c -3601,-1932 -8278,-4946 -9662,-8106 -1028,-168 -2133,-5370 -2076,-6396 2434,229 22038,13535 11738,14502 z m 10221,314 c 79,-229 19632,-11060 13428,-4693 -139,1024 -10967,4238 -13428,4693 z m 25944,4122 c 249,-1051 5760,-23145 5870,-23202 13514,257 640,21609 -5870,23202 z m 18552,625 c -1713,-3328 8806,-10805 28,-6485 -10991,1255 9499,-6906 11107,-6452 -1745,6738 -3350,12256 -11135,12937 z m -53470,4092 c -6231,-3496 -13428,-2357 -16893,-9465 -10857,-10434 19496,-885 19496,7593 -802,2044 -556,1872 -2603,1872 z m 21627,2529 c -3710,-4944 5482,-8356 9220,-11541 5899,-310 -6203,11145 -9220,11541 z m 8666,1566 c 971,-2188 6675,-7900 9389,-7701 0,2586 -6924,7391 -9389,7701 z m 4625,4720 c -473,-3465 -9440,-1876 1467,-4803 7949,-12765 19413,-6480 4486,2045 -1109,2419 -3461,2163 -5953,2758 z m -25032,1283 c -3103,-1453 -13651,-4264 -2522,-4264 9113,-2189 9667,3497 2522,4264 z m -11742,9124 c -6092,-712 -21209,-5319 -5566,-7732 3628,-937 32259,654 20716,5998 -5042,256 -10276,1335 -15150,1734 z m 137876,-105940 c 0,-2957 7282,-5203 6398,-11572 -526,83 -6867,7960 -5178,2757 5786,-964 8252,-18651 9691,-824 -1216,1791 -8918,9299 -10911,9639 z m -29988,33750 c 1798,-3722 10715,-8841 10962,-11172 -5841,-1338 4848,-23544 6039,-18144 -2382,0 -6453,23173 166,797 3489,-595 -2462,20273 -8805,22037 -2768,1762 -5121,5915 -8362,6482 z m 324667,-76746 c -5368,-2831 -3281,-3899 -9,-3739 l 9,3739 z m -29781,19993 c -275,-2900 -332,-13877 3712,-13877 0,486 -1442,13877 -3712,13877 z m 10825,18596 c -5257,-4322 -6225,-3182 -8332,-11034 1437,542 10410,10322 8332,11034 z m 16700,6626 c -3324,-9566 -265,-3539 2361,-5893 l 9,3392 c -678,711 -1182,1391 -1347,1989 -329,169 -664,339 -1023,512 z m -4623,-943 c -6452,-3295 -3239,-6535 1634,-5800 -859,3358 2243,5800 -1634,5800 z m -4349,-26497 c 223,-3723 7451,-15781 4129,-2074 -2467,2529 -1553,-2841 -3079,1874 -327,58 -690,113 -1050,200 z m -5869,-1250 c -443,-6029 5482,-9698 1050,-199 -330,58 -692,112 -1050,199 z m 6506,11970 c 165,-1281 2576,-7419 3212,-7735 2023,1394 -81,7337 -3212,7735 z m -6506,-3783 c 138,-455 138,-455 -471,-1536 1411,-7248 5704,-2587 471,1536 z m 14538,-109098 c -664,-1702 -9444,-6847 -6068,-7048 1499,1793 8751,5798 6068,7048 z m -635,-3778 c -748,-1283 -11026,-9156 -6482,-9156 190,2190 11297,8017 6482,9156 z m 938,-5034 c -1272,-653 -9084,-8134 -3712,-6000 764,1786 5329,3713 5813,4923 l 0,373 c -158,319 -781,563 -2101,704 z m 1857,-3468 c -498,-1563 -15925,-11431 -6480,-9159 776,1421 5145,4789 6722,7045 l 1,2039 c -74,28 -154,54 -243,75 z m 240,-5818 c -3094,-1304 -12192,-9235 -12619,-12153 547,227 9987,6759 12619,10286 l 0,1867 z m -544,-6182 c -1938,-1083 -12101,-7563 -10969,-10208 1270,0 10114,6574 11511,9170 l 0,925 c -119,74 -297,113 -542,113 z m -1553,-9439 c -195,-769 -14622,-11629 -3903,-6140 719,1250 9997,5371 3903,6140 z m 2095,-4074 c -3008,-2076 -12256,-7166 -11067,-10455 127,0 8417,6159 11067,9139 l 0,1316 z m -2398,-5395 c -1275,-3951 -7312,-5460 -9912,-8329 -1472,-4581 17304,8329 9912,8329 z m -224442,111940 c 1219,-3355 471,-3240 471,-6993 1495,-5576 3020,6993 -471,6993 z m 12684,2817 c -1606,-714 -1383,-1138 54,-1510 390,-14582 2658,825 -54,1510 z m -7420,58344 c 0,-2021 -3933,-12001 607,-11032 -665,2074 276,10492 -607,11032 z m 33394,-54223 c -583,-5685 1995,-9098 2299,-1876 -469,1024 -1303,1876 -2299,1876 z m 14206,1879 c 609,-2335 -1910,-8788 2241,-2931 1636,257 -1244,2931 -2241,2931 z m 4956,1279 c -969,-3214 85,-8446 1246,0 -416,0 -830,0 -1246,0 z m 4627,1564 c -2080,-573 -279,-8247 1244,-940 -1050,0 -497,455 -1244,940 z m 7420,1561 c -637,-1591 940,-5432 940,-312 -306,87 -607,199 -940,312 z m 7726,1906 c 304,-4547 1136,-3411 2160,0 -718,0 -1440,0 -2160,0 z m 4652,1251 c -2105,-569 -82,-5768 665,-255 -222,85 -444,169 -665,255 z m 3073,655 c 443,-1224 2327,-5601 2327,-1253 -554,1650 -832,1253 -2327,1253 z m 4957,2502 c -1024,-2135 915,-7164 915,0 -304,0 -612,0 -915,0 z m 4319,1281 c -2216,-3445 641,-6370 641,0 -196,0 -417,0 -641,0 z m -83155,42562 c -2965,-7450 4569,-2358 1245,-1081 -276,969 -276,938 -1245,1081 z m 0,-20189 c 0,-708 -2657,-5232 1299,-3552 830,1707 720,3128 -1299,3552 z m -157954,115414 c -4319,-12457 10438,-11062 11130,-16096 6618,-1109 7034,-22604 13598,-18909 442,2789 6561,2363 5568,8813 -7286,5436 -18499,12827 -23486,20190 -2296,1310 -5205,5457 -6810,6002 z m 80998,-254480 c -1330,-6934 1024,-13932 -304,-20157 9940,2330 4377,-3923 7199,-3923 84,1961 2798,19447 -1385,19817 -4984,-2387 -4071,4263 -5510,4263 z m 102319,118565 c -3542,-17968 6038,-8101 3074,-310 -1413,-142 -1966,169 -3074,310 z m 914,40690 c -2410,-8074 7119,-6453 4126,-543 -1772,0 -2214,543 -4126,543 z m 305,-20501 c -527,-1621 -4319,-6113 2300,-3922 1882,1933 -222,3638 -2300,3922 z m -3709,-36593 c -2217,-1138 1216,-18368 2490,-626 -1549,200 -1549,200 -2490,626 z m -8945,-2190 c -612,-2242 -2604,-6937 914,-6937 194,1279 1938,6567 -914,6937 z m 4930,1564 c -1995,-4122 -416,-14583 1741,-4775 -801,1844 2303,4263 -1741,4775 z m -10496,-2188 c -2107,-912 1440,-2901 -308,-3157 0,-10121 5238,1819 308,3157 z m 24423,4717 c 0,-1761 -1301,-3862 251,-7079 -2521,-851 5150,6057 -251,7079 z m 4016,630 c -526,-6316 2074,-9326 2187,-483 -610,310 -610,310 -2187,483 z m 30295,19873 c -195,-2216 -445,-2417 -638,-5374 3655,-1933 3822,5374 638,5374 z m 304,13563 c -5956,-2616 5513,-8360 1244,0 -414,0 -828,0 -1244,0 z m 304,17653 c -2603,-9636 3185,-11683 1968,-847 -638,283 -1303,564 -1968,847 z m 147459,-176252 c -2189,-940 -13180,-6796 -6370,-7107 1385,-711 3625,-4067 5427,1107 -9474,-556 514,2974 1185,5225 l 0,432 c -41,120 -119,235 -242,343 z m -274508,19219 c -664,-1138 -4956,-939 -5760,-1934 1027,-2558 -1631,-12792 -165,-13988 4293,1054 4348,1109 5621,-2673 1024,0 2104,18595 304,18595 z m 225661,44781 c -4130,-1619 -4349,-22575 -2332,-23713 1084,-5601 11496,12201 10610,5177 -2102,0 -3378,-6483 747,-1110 3989,683 2686,8445 1636,3328 -140,851 -1081,396 -1636,314 306,5713 4818,3666 5345,4263 0,8815 -9470,-4436 -11353,-7422 -8195,-3298 13539,16323 8113,16323 -220,-2305 -8697,-10039 -10441,-10322 84,654 10802,12053 6427,10948 -82,-1026 -3380,-3641 -4183,-3443 84,4038 6675,4493 -2933,5657 z m 2462,34036 c -3462,-2218 -7310,-2672 -4678,-8701 913,112 -4680,-18768 4070,-14925 995,2443 8917,14099 10521,14813 -583,3638 -10827,-11374 -12375,-11801 -669,2617 16808,20614 11739,20614 -444,-2815 -9026,-13678 -11435,-13987 -86,1591 -304,1279 1355,2216 2881,7651 10635,11118 803,11771 z m -3378,35002 c -667,-1850 -415,-1879 -1854,-1565 248,-6483 -943,-28491 4760,-21582 971,-140 14485,16604 13487,19195 -3350,340 -10746,-15951 -15395,-17090 0,2390 7309,8274 2324,8274 -5427,-1307 12158,16235 2993,12480 -778,-1393 -4293,59 -6315,288 z m -126438,50153 c -3740,-1648 -3242,-45522 -2852,-52203 830,-26 1688,-83 2545,-141 112,3353 3822,52344 307,52344 z m 5563,-654 c -2103,-3041 -2189,-28743 -2020,-34001 -915,-2589 -1827,-13080 -775,-16124 11740,1138 8198,2161 8528,17032 305,252 0,5429 -330,5857 526,3495 2461,29228 -1191,25473 -223,-15180 -223,-32238 -2106,-46315 -5288,880 2407,46858 -2106,48078 z m 50065,-624 c 0,-1534 -1245,-25988 1361,-25988 0,969 2103,25988 -1361,25988 z m -108493,7250 c -3075,-8872 1524,-24311 -2019,-32128 302,-11770 -2106,-23885 -1081,-34405 7974,-257 3958,20299 4485,29059 -3655,7505 5484,35002 -1385,37474 z m 7728,-23628 c -641,-283 -2854,-40800 -196,-40800 1440,2331 196,40800 196,40800 z m 6175,-28716 c 29,-114 -2769,-15665 1077,-11403 0,1540 416,10891 -1077,11403 z m 12378,28062 c 304,-6537 -2382,-35568 1246,-36875 53,2387 1106,35255 -1246,36875 z m -5567,3155 c -831,-3751 -2687,-17628 911,-18592 -25,1705 -302,18592 -911,18592 z m 6481,17033 c -1523,-652 -196,-15808 -914,-18908 3018,0 3653,18908 914,18908 z m -53168,-938 c -388,-4267 -4320,-25956 4181,-17970 0,6058 3044,17090 -4181,17970 z m 17640,6939 c 1660,-14387 -1275,-28747 -889,-42026 -664,-539 -2242,-23685 -1908,-26414 2048,571 2019,198 2629,2533 -443,6939 5289,65907 168,65907 z m -7116,1248 c -1638,-3381 -1499,-27637 301,-28062 527,4408 2827,28062 -301,28062 z m 3708,-75659 c -4595,-3156 2935,-23686 2353,-1648 -802,1195 -1026,1221 -2353,1648 z m -15452,-313 c -2686,-1021 -251,-10036 0,-11998 8197,342 6425,11372 0,11998 z m -10216,0 c -7561,-2160 2323,-28489 2323,-654 -776,199 -1548,428 -2323,654 z m 302,20159 c -3628,-6196 -3820,-2389 -4402,-11570 -4957,-483 4043,-3641 7200,-3241 -831,1877 5066,14927 -2188,14387 -196,142 -387,281 -610,424 z m 12074,-624 c -4736,-1622 -1609,-5831 -3128,-10263 0,-14619 12128,10263 3128,10263 z m -306,21439 c -1493,-3838 -2187,-7450 -1994,-12113 2798,-1364 5374,-30 5374,2984 -1522,0 2382,10748 -2323,8617 -337,170 -696,339 -1057,512 z m -9912,2529 c -1189,-3326 -887,-8586 -416,-12140 -248,-10291 8500,10918 416,12140 z m 1856,24594 c -1495,-1737 -641,-16520 1050,-16520 -277,3072 1471,15668 -1050,16520 z m -77261,69064 c 637,-3837 1053,-7081 1053,-10715 -1495,-3645 -20907,-15272 -10632,-18941 1246,-3127 1217,-19247 3212,-16375 0,-1650 192,-3384 469,-4920 2631,-1223 5842,-33778 2713,-36025 -1493,-4920 -4236,-8388 -5509,-13164 -691,-25934 -4819,-17486 -13903,-35938 -1991,-7480 -6784,-7226 1248,-10097 10330,-5770 17556,4297 25062,626 7670,1594 25915,21155 28577,28861 553,4635 1715,5800 607,10748 166,6994 3796,13589 2326,20469 -6616,-1279 -718,-11259 -6868,-14755 -52,-395 -3987,-4550 -4347,-4550 -1993,4096 972,4325 -1081,2220 -7975,0 -10547,23173 -5315,6055 8446,0 0,-10351 0,7563 6510,-3696 4872,-17630 10829,5061 6480,0 -1499,7108 -2327,11487 1634,1679 4789,-4748 6037,-5176 5454,-10375 5844,4495 5844,10550 -6289,11513 -3019,28035 -13987,36648 -2240,4436 -8167,14617 -13818,16179 -4899,10777 -1521,9358 -10190,14189 z m 13598,-8216 c -2215,-3413 6535,-9384 9883,-10294 3576,-3668 8280,-25673 15287,-10891 2492,11772 -8609,8847 -14646,15041 -3824,1281 -6759,3698 -10524,6144 z m 39570,-21752 c -6037,-2644 34283,-13506 30348,-12851 -330,1762 -26997,12567 -30348,12851 z m -160749,184445 c -2105,-1846 -2964,-2020 -5371,-2702 0,-4121 21211,-49561 21986,-49701 1024,-3696 14259,-25733 16919,-26783 1439,-7479 15065,-16064 16531,-23600 4071,-1137 10828,-7731 12877,-11145 6233,-4889 15287,-19932 21129,-22578 -248,2477 -24618,31247 -24949,31279 -1802,6538 -16061,15751 -16782,21069 -5590,3356 -17004,24648 -17614,31531 -1688,486 -15836,37786 -16999,42565 -1995,0 -2687,9382 -7727,10065 z m 389814,-94569 c -2938,-1818 -18168,-5344 -18332,-6567 -1190,-342 -44637,-14272 -44833,-15751 -6341,-1961 -15370,-5002 -18331,-11116 -10357,-3527 -1993,-6456 3657,2440 17472,9641 38406,15785 57543,22352 5372,5829 8223,-4893 8416,2617 582,595 17475,4719 11880,6025 z m 57756,-339989 c -13007,-2832 -5393,26 -5393,-12211 -1159,-4603 -1325,-5145 2966,-5231 452,75 1310,152 2456,230 l -16,9417 -13,7795 z m -25937,157733 c -1662,-2729 -2050,-35624 -914,-35624 0,1193 2546,-3641 302,-3157 -4650,-10748 1304,-30339 -2322,-44441 -168,-7138 -1609,-13874 -527,-20130 -2965,0 1354,-26332 -2215,-27694 0,-2105 -361,-3269 -997,-653 -3767,0 -1027,-8960 -555,-10322 5924,-5800 13982,-31873 13569,-2759 1521,3128 1688,29402 913,30511 247,10322 1469,89477 -358,89734 495,7475 2020,21664 -6896,24535 z m -434835,121767 c 1221,-1593 1042,-4277 -261,-8131 l 261,8131 z m 311155,-65587 c -748,1165 -24776,2962 -28266,2905 -12848,4834 -28881,6143 -42145,9469 -1857,1278 -2881,1479 -4957,1905 -8031,-738 -18551,7251 -26197,7251 5040,-3667 27444,-8248 9445,-7878 -4100,-1051 -30795,7278 -30880,8046 -8250,970 5431,-5942 5790,-6083 415,-2645 66765,-13989 69754,-13905 1082,1252 34558,-2358 40319,-3523 1525,0 6941,-234 7137,1813 z"
    id="pic-bottom-left_path1" />
<path
    style="fill:#bfbfbf"
    d="m 1593683,1024018 c -30336,15782 -51937,25104 -47731,57519 3633,27979 49429,103727 160610,162149 -4979,679 -9967,1219 -15024,1193 l -10386,2443 -40532,2278 -2,0 -29,-8 -28,-13 -29,-7 -28,-9 -9,-2 -17,-8 -27,-10 -29,-8 -27,-9 -28,-9 -2,0 -26,-9 -29,-8 -28,-11 -32,-5 -9,-6 -17,-4 -28,-8 -27,-8 -29,-9 -30,-8 -2,-2 -26,-6 -31,-8 -28,-8 -25,-11 -20,-4 -9,-1 -28,-10 -31,-7 -30,-8 -29,-7 -8,-1 -18,-4 -27,-11 -31,-7 -30,-7 -25,-6 -3,0 -29,-11 -29,-6 -28,-6 -33,-7 -10,-4 -19,-4 -26,-7 -31,-6 -29,-11 -27,-3 -3,0 -28,-8 -31,-7 -31,-6 -28,-6 -16,-6 -15,-2 -28,-8 -31,-6 -26,-5 -31,-5 -8,0 -23,-8 -28,-7 -31,-6 -32,-6 -23,-4 -4,-2 -30,-6 -31,-8 -30,-5 -31,-6 -13,-2 -20,-4 -27,-4 -28,-6 -32,-8 -29,-4 c -1411,-881 -2874,-1536 -4540,-2073 -2254,-719 -4356,-1025 -6720,-1045 l -6606,-70 -16,71 c -3935,-26 -7873,-93 -11789,-124 -12482,-94 -24970,-204 -37453,-322 -8032,-76 -16063,-159 -24095,-249 -626,-2304 -1262,-4610 -1889,-6916 -534,-1960 -1546,-3639 -3031,-5026 -1384,-1290 -2973,-2151 -4794,-2632 -1732,-459 -3458,-512 -5217,-159 -1773,357 -3337,1074 -4762,2186 l -3721,2900 c -3728,2660 -7519,4442 -11902,5745 -824,-28 -1653,41 -2472,202 -1171,227 -2287,614 -3302,1163 -3384,533 -6647,486 -10124,236 -2835,-203 -5805,193 -8197,1576 -23750,-231 -57449,-79 -61832,-115 l -748,-8 -745,-8 -742,-7 -710,-4 -28,0 -732,-10 -733,-6 -728,-6 -671,-7 -52,0 -721,-6 -718,-8 -713,-3 -633,-9 -73,0 -710,-6 -704,-6 -697,-8 -598,-4 -97,-3 -696,-5 -687,-6 -688,-7 -560,-4 -120,0 -680,-8 -675,-6 -675,-6 -524,-4 -143,0 -663,-7 -667,-8 -657,-4 -491,-8 -163,0 -653,-6 -644,-4 -647,-7 -459,-1 -184,-5 -638,-5 -634,-7 -632,-4 -426,-4 -202,0 -626,-6 -618,-4 -620,-10 -398,-2 -218,-2 -614,-4 -608,-6 -604,-4 -365,-2 -237,-4 -599,-9 -596,-4 -591,-3 -339,-5 -250,0 -586,-6 -583,-4 -577,-4 -313,-6 -265,-2 -573,-4 -567,-6 -569,-2 -281,-2 -281,-5 -559,-4 -555,-6 -554,-6 -257,-2 -292,-2 -547,-4 -544,-7 -545,-1 -230,-3 -304,-4 c -296,-9393 -133,-18259 599,-26012 3223,-30558 10632,-48567 23989,-82116 3026,-7599 41453,-46089 50604,-52509 4326,-16540 60311,-42078 74832,-44414 3296,-3512 51742,-14630 58387,-15032 z"
    id="pic-bottom-left_path2" />
</g>
</svg>