<?xml version="1.0" encoding="UTF-8" standalone="no"?>
<svg
    xmlns:dc="http://purl.org/dc/elements/1.1/"
    xmlns:cc="http://creativecommons.org/ns#"
    xmlns:rdf="http://www.w3.org/1999/02/22-rdf-syntax-ns#"
    xmlns:svg="http://www.w3.org/2000/svg"
    xmlns="http://www.w3.org/2000/svg"
    version="1.1"
    style="fill-rule:evenodd"
    preserveAspectRatio="none"
    viewBox="0 0 500 500"
    id="pic-top-left">
<g
    id="pic-top-left_g"
    transform="matrix(3.140409597e-4,0,0,3.365020611e-4,-273.5112838,-73.42340376)">
<path
    d="m 888910,798101 342,16 c -364,36514 -28,73708 -10,110018 -108,-29344 -235,-73528 -332,-110034 z m 1319,57 1151,41 c -435,41718 -625,82478 -508,124540 -80,43 -137,7471 -136,7302 -68,-19878 -227,-59632 -227,-59631 -118,9566 -310,28528 -316,29188 l 180,-40142 c -34,-5354 119,-38458 -144,-61298 z m 1308,46 c 1203,39 2403,64 3603,74 l -330,27103 c -62,7302 -182,21906 -182,21906 -16,-9477 293,-21984 -144,-31396 -433,14114 -254,29330 -308,43565 -740,19066 -2218,57199 -2218,57199 -1,-8520 -181,-25557 -181,-25557 -277,1459 -448,4112 -551,7470 l 311,-100364 z m 4039,77 c 2949,19 5892,-57 8825,-272 l 1452,-152 c 2175,-7066 6751,-11531 13975,-15585 3007,-1629 6348,-2955 8127,-5609 1657,-2914 2345,-6257 3352,-9330 l 8909,-3414 3512,-871 4003,-371 c 4165,315 6897,727 10525,2425 5702,-4589 12157,-5542 19809,-4100 5643,1802 9017,4040 12607,7942 1004,1222 1909,2432 2761,3732 8556,1040 17343,1160 25989,1190 9312,-46 18873,-180 28110,-1239 2411,-3720 4687,-6918 8084,-10132 l 3288,-2274 5737,-2181 8019,-56 6532,2750 2287,2019 945,-1036 5154,-3155 8033,-1297 7062,1813 3978,2509 c 1660,1598 2962,2990 4212,4811 1501,2430 2681,4990 4274,7373 l 6684,2082 c 878,4182 1580,8404 2833,12525 356,1004 705,2004 1300,2943 1126,195 2276,279 3445,366 7170,405 14238,563 21372,1362 3735,-2999 1478,-9130 392,-12647 -3357,-9461 -7950,-18378 -10252,-28114 -565,-3699 -705,-6914 -459,-10645 l 832,-3839 1551,-3899 2338,-3794 3135,-3532 3952,-3589 c 1718,-5094 2388,-10044 2815,-15307 1230,-25379 -4130,-50600 -6177,-75865 -247,-3755 -360,-7468 -422,-11233 1240,-3103 1988,-4429 1357,-7532 -820,-3025 -2220,-5887 -3486,-8810 -2604,-6136 -3851,-11180 -3003,-17734 829,-3093 1843,-5489 3510,-8360 l 4271,-5042 c 2948,-2588 5946,-4927 9533,-6941 1614,-6556 3074,-13208 7478,-18968 l 2562,-2425 5243,-2871 8441,-940 c 2305,-9224 2797,-18642 2714,-28048 -194,-5688 -419,-11670 -1982,-17253 l -4806,-1710 -583,-7179 c -703,-697 -1385,-1392 -2059,-2106 -7644,-8984 -5639,-17590 450,-26685 l 4784,-6560 4885,-797 c 1219,-5764 3828,-9887 8960,-14060 2725,-1737 5100,-2912 8244,-4110 4868,-1410 9394,-2181 14557,-2461 381,-1163 586,-2356 798,-3542 1011,-6423 1983,-13955 8276,-18573 203,-2136 -26,-3454 -1045,-5381 -1967,-3644 -2658,-6324 -2522,-10387 l 819,-3012 c 1476,-2733 2782,-4489 5207,-6746 4559,-3450 9573,-5815 14995,-8271 2429,-10683 3469,-21728 4744,-32529 1199,-10167 2216,-20401 4039,-30514 512,-2442 1406,-4597 1300,-7066 -371,-5962 -1759,-11837 -1798,-17805 296,-6925 2679,-12801 7738,-18433 -3127,-10959 -6800,-21539 -3528,-32821 1381,-3448 2932,-5903 5582,-8842 l 2256,-1955 c 502,-2114 1206,-4057 2115,-5920 l 46696,0 c 5306,7281 8226,15030 9844,23623 629,4931 577,9342 271,14297 -1123,1916 -2382,3827 -3312,5810 7617,4114 11637,9583 13717,16734 l 1336,7099 c -2136,2493 -4300,4457 -5441,7292 -697,2232 -1057,4389 -1333,6682 -1527,19595 4042,39042 5163,58559 46,2316 2030,4133 3733,5916 2627,2612 5418,5062 7977,7704 6138,6702 9036,13159 10031,21472 l 244,3568 c -651,2544 -1468,5200 -1737,7804 5817,3056 10138,6499 14196,11072 l 3937,4903 c -59,2742 -34,5491 -268,8232 l 3307,18 4058,699 c 3477,1127 5939,2223 8943,4014 l 4305,3399 c 7005,7036 10516,14385 12461,23223 l 663,5784 c 82,5567 -434,11027 -2472,16382 515,18216 1476,36572 3622,54715 l 7541,2413 4262,3620 1931,103 5568,2031 3765,2920 c 2088,2726 3252,4721 4073,7814 607,3007 662,6288 1783,9194 l 4269,2174 3605,2667 2832,3000 3513,6217 1529,5975 c 1047,10016 -1041,19465 -3291,29267 -715,3125 -1448,6233 -1972,9384 l 2431,1249 c -757,15694 -1920,31388 -2338,47090 -209,12013 -242,24354 2701,36173 l 2578,2526 2584,3612 2971,7392 c 814,4823 869,9019 397,13850 -1417,9478 -4228,18712 -6111,28128 -1282,7670 -2471,15825 3209,22556 l 2200,1889 c 22423,1251 45135,3454 67216,6729 7894,1263 16133,2498 23157,5785 30642,4504 61278,9624 91595,15330 10239,1974 20860,3827 30608,7069 9193,447 18095,1898 27006,3670 25628,5433 50365,13537 74412,22475 1322,-155 1275,-266 1936,-1178 1901,-2813 3440,-5800 5272,-8647 l 4479,-6603 c 4474,-563 9058,-981 13459,-1919 3682,-834 7184,-2087 10751,-3196 l 3424,-2590 4483,-2401 9371,-3176 c 6814,-1455 13149,-2230 20163,-2723 26323,-996 52512,1970 78238,6303 10796,1956 21538,4041 31782,7455 l 9435,3753 c 1584,6737 3417,13307 4351,20132 l 184,1347 16334,-4643 c -470,-6300 -1260,-12469 -2250,-18749 943,-3040 1483,-5570 1859,-8696 l 477332,-14406 -242434,15820 c -111,7274 -163880,13616 -154936,16831 26494,9526 144210,9415 144210,9415 215006,-3743 15014,13475 15014,13475 -67311,4718 -6053,206 -6053,74152 l 0,-1911 c -115,33892 -189,94247 -215,119076 -7638,87458 -12869,155304 -12869,155304 l -5402,167734 -3891,1972 2795,-34514 c 1508,-37051 4507,-111138 4507,-111117 -3671,47990 -7213,97298 -10137,147026 -25617,12401 -49357,19100 -68994,13469 -20201,-5776 -40393,-11723 -60749,-17137 -15390,-2312 -30736,-5763 -45765,-9289 -8254,-1992 -16424,-4093 -24543,-6412 -11343,-3367 -23012,-6926 -32450,-13191 -10693,-2363 -21223,-5407 -31703,-8339 -38699,-10963 -77333,-22386 -115444,-34619 -4772,-1565 -9514,-3199 -14275,-4792 -9031,-3435 -15661,-8449 -20016,-15752 l -21156,-5305 c 10388,10065 21156,19909 32433,29323 3112,2554 6278,5229 9753,7465 l 5468,1345 3482,5375 c 8167,5222 17768,9147 26976,13028 35317,14446 72085,27046 108976,38589 5699,1752 11379,3380 17145,4977 1491,2090 1334,1901 3959,2612 15246,3860 31318,6074 45545,12158 2930,1453 6027,3039 8234,5196 9927,2635 19869,5643 29356,9160 4143,1600 6853,3111 10382,5589 l 6388,10075 -7479,7379 c 16627,6434 33362,12660 50266,18611 10081,3481 20200,6950 30610,9728 6864,-6134 14778,-8804 24936,-8400 5514,616 11102,2059 14971,5516 3289,744 6493,1635 9638,2640 -2240,52382 -3529,104717 -3297,155961 -2661,145 -5308,260 -7959,306 -5260,-25127 -10235,-49393 -10507,-50738 1188,11774 3735,35137 3735,35137 -9164,-44457 -27455,-133353 -27455,-133353 -983,-1821 -2753,-5553 -2753,-5553 -3999,28294 -9744,85201 -9744,85186 -1337,-13578 -3998,-40744 -3998,-40744 -2113,31897 -3751,71616 -5008,113878 -17974,2374 -35941,4705 -54223,4629 l -28500,6024 -111219,5617 c -1640,-496 -3322,-875 -5108,-1176 -3860,-2176 -7888,-3787 -12444,-5113 -6191,-1774 -11964,-2527 -18448,-2577 l -18129,-173 -39,176 c -10795,-65 -21604,-231 -32348,-305 -34248,-233 -68515,-505 -102770,-797 -22039,-184 -44075,-391 -66113,-614 -1720,-5676 -3464,-11365 -5179,-17057 -1470,-4828 -4247,-8968 -8326,-12393 -3796,-3176 -8154,-5301 -13152,-6487 -4750,-1134 -9492,-1263 -14313,-393 -4865,881 -9153,2649 -13065,5387 l -10209,7155 c -10236,6558 -20635,10958 -32661,14172 -2260,-75 -4537,97 -6786,493 -3211,559 -6271,1514 -9061,2865 -9281,1316 -18236,1206 -27780,588 -7777,-504 -15923,472 -22487,3888 -65172,-574 -157635,-198 -169665,-289 -174087,-1450 -244164,-1847 -253109,-1943 -38410,-508 -78392,-1898 -116582,1734 -1524,144 -3041,295 -4562,450 l 0,-328 c 0,-4975 -4078,-9126 -9387,-9882 3035,-12028 6124,-24062 9273,-36089 3792,-14291 7441,-28726 12457,-42774 668,-1609 1495,-2965 1571,-4630 1424,-15567 6654,-31110 12115,-46020 5201,-13681 10900,-27737 19768,-40179 1095,-1383 2893,-3045 3638,-4503 4491,-7439 10541,-14295 16425,-21039 10817,-12203 22111,-24530 34738,-35556 1243,-1036 2818,-2052 3699,-3310 6621,-8783 14238,-17145 21673,-25467 10622,-11776 21342,-23726 33107,-34776 1294,-1166 2906,-2252 3883,-3581 7844,-9805 17028,-19040 25925,-28207 13614,-13910 27384,-28384 42499,-41225 l -48103,31705 c -4273,7161 -10412,13535 -16262,19882 -18131,19437 -37006,38568 -56443,57163 -1446,1353 -1584,1490 -2432,3152 -10292,16612 -29569,27421 -43686,41619 -1138,1222 -2370,2491 -3135,3899 l -1394,5596 c -3561,2025 -6509,3537 -9414,6041 -8928,8395 -15879,18297 -22353,28008 -6922,10707 -13752,21936 -17774,33624 -895,3055 -1249,6115 -1723,9243 l -3555,2310 c -3750,5864 -6758,12120 -9844,18235 -12039,24283 -23481,48937 -33676,73778 -2038,5084 -3653,10176 -5338,15363 l -3719,466 c -993,2039 -1982,4078 -3063,6106 -2056,3709 -4244,6963 -7031,9814 l -1705,-52663 c -161,-20201 -397,-40398 -710,-60576 2725,-4740 5477,-9478 8248,-14207 2775,-4647 5872,-9152 8370,-13886 3119,-5503 6620,-10840 10202,-16165 7212,-10513 14708,-20972 22839,-31043 l -1167,-5945 -15643,525 -56,-1360 -17399,-783 c 1569,-19056 3600,-38119 4775,-57179 726,-13795 1127,-27627 -1031,-41339 l -612,-3034 c -8093,-1180 -16435,-2587 -24152,-5079 -2364,-68822 -4836,-137616 -7395,-206407 111,-13033 271,-38720 271,-38719 0,-10142 0,-30425 0,-30425 258,-12979 408,-38943 408,-38943 44,18660 135,55982 135,55981 61,-18661 181,-55981 181,-55981 115,-3859 91,-19471 91,-19472 33,-19471 136,-58415 136,-58415 714,-20047 861,-61000 860,-60848 122,-15984 141,-40163 132,-59959 z m 1324687,240094 -60,675 0,-4347 -22,4584 -709,8053 415,-28459 c -384,-121037 -317,-148155 181,-14603 69,-6079 -95,-23394 604,-28961 1049,14985 -73,45424 -409,63058 z m -1326903,66609 -905,-24277 c 130,-43555 227,-72779 227,-72779 45,-7672 486,-82757 318,-82755 -359,-307 -538,19585 -589,23123 l 45,-1207 c -115,8762 39,20465 -502,29153 -516,-14484 31,-33888 411,-48635 7,-9263 9,-5804 46,-2434 559,-18255 1720,-54764 1720,-54763 -256,65720 -1358,197150 -1358,197150 549,2240 546,-16010 634,-20689 -163,18479 -58,54485 -47,58113 z m -904,-157895 0,-10 0,10 z m -1230,-48521 c -193,6315 -140,15131 -72,23233 l 72,-23233 z m -72,23233 c 43,5413 93,10507 80,14326 l -136,3643 56,-17969 z m -56,17969 0,7 0,-7 z m -905,-40172 0,19 0,-19 z m 1300618,562615 c 2317,762 4606,1586 6859,2456 l -3594,111887 -3265,-114343 z m -22951,105140 0,-60 0,60 z"
    id="pic-top-left_path1"
    style="fill:#999999" />
<path
    d="m 987780,1704071 c -3720,-92 -7420,-181 -11091,-266 6656,-31030 36945,-167370 41146,-167370 -1220,-17178 19374,-77894 30991,-87852 1837,-7639 42403,-54199 49780,-58192 380,-3500 49464,-61767 54323,-63732 4187,-8338 62532,-70880 65124,-70880 4627,-7850 96496,-68359 102652,-69195 1293,-6025 59874,-33091 43388,-18510 -14359,6169 -67172,37928 -74615,49706 -14669,9540 -32750,18371 -45598,29380 -16633,4692 -58504,47111 -64889,63798 -12761,6317 -47787,47816 -51667,57567 -4474,0 -11011,13804 -16183,15489 -1601,4834 -48929,72282 -55924,74672 -21959,52719 -30242,99766 -43309,155498 -3594,1084 -16250,54621 -24128,89887 z M 874455,1080742 c 130,-43575 227,-72814 227,-72814 45,-7672 486,-82757 318,-82755 -359,-307 -538,19585 -589,23123 l 45,-1207 c -115,8762 39,20465 -502,29153 -516,-14484 31,-33888 411,-48635 7,-9263 9,-5804 46,-2434 367,-11975 992,-31804 1380,-44030 l 294,-247 c -318,68233 -1312,186664 -1312,186664 549,2240 546,-16010 634,-20689 -117,13357 -95,35871 -70,48697 l -331,-94 -551,-14732 z m 981,14854 c 97,-13172 197,-29254 197,-29253 0,-10142 0,-30425 0,-30425 258,-12979 408,-38943 408,-38943 44,18660 135,55982 135,55981 61,-18661 181,-55981 181,-55981 115,-3859 91,-19471 91,-19472 33,-19471 136,-58415 136,-58415 368,-10337 586,-26234 710,-39186 14586,-11911 33795,-23959 39325,-20310 9280,-6383 28721,9253 35566,-11572 18384,-13388 25977,-9530 46041,-7076 25003,-13398 29032,2801 51748,5391 34647,-14373 31452,22510 51894,29233 1980,4070 24322,12342 30545,14726 4409,9469 49700,67801 36930,76984 0,14021 687,14509 687,20614 15648,43330 5697,4552 -13525,18371 -1819,5114 906,35894 -8669,36662 -1582,4773 -19592,33867 -12914,32744 16344,-18859 36251,-37934 42406,-60152 8506,-1193 25218,67445 11389,78589 -1287,3087 -10028,21740 -11853,22579 -2193,14234 -21960,111827 -29855,112807 -7976,44884 -94824,15756 -98321,119048 -7074,7709 -16572,25869 -28279,28536 4259,-12555 14293,-82170 -1288,-79294 -3648,10581 -150,88058 -8887,90160 158,-4907 2809,-83432 -3872,-82380 -3956,11637 -8892,70114 2586,86866 -72,2801 -12697,15706 -16499,16476 -676,-2314 3957,-22717 3957,-22717 0,-7080 304,-81329 -6457,-81888 -13823,5885 4326,104952 -10797,102361 308,-2102 -11700,-633 -14739,-839 1902,-25869 8510,-77824 -986,-100752 -10331,-1549 -37309,-4486 -41641,-14163 -4561,-1116 -14119,-3957 -24624,-7728 l -15139,6985 -704,-20101 c 6866,4279 14052,7519 19274,5702 -1752,-8694 -27658,-18369 12155,-7995 18539,0 22722,6799 24316,-9535 -14444,-8761 -39969,-6306 -51212,-18925 980,-914 55991,15419 27198,-4490 -4404,-11990 -23941,-22782 -25150,-30990 -5360,-2067 -7537,-5979 -9285,-9948 l -547,-15217 c 6038,7101 12081,17028 14472,20120 12300,5261 17851,2525 14199,-9886 26373,2384 -12376,-32045 -18459,-32457 -1380,3460 -6697,1076 -11108,-2460 l -330,-8851 c 1120,342 2417,811 3912,1418 5021,17109 33135,-29028 28199,-31264 -3256,-5762 -21444,-16224 -33517,-19688 z m 1977,-231115 31,-6241 c 101,-13258 132,-32154 135,-49510 19891,-725 65045,8456 70263,-4035 -375,-15073 17101,-9395 22201,-28188 11237,-5402 6222,20820 20208,7921 0,-15072 8971,-14093 13678,-1403 6305,5476 64204,4560 71955,768 17551,-32381 3643,8354 29706,-3218 4790,-23701 6004,2315 15731,4773 4628,25939 16565,16471 43696,21449 37382,-17245 -18240,-59040 10108,-75088 13060,-24119 -691,-81613 -691,-109160 8356,-19564 -22109,-32323 9654,-48380 834,-1400 5167,-27836 8204,-17386 21128,15772 22112,-70109 11322,-71513 0,-8560 -13145,-7357 -2658,-22223 18692,-2600 -1904,-20191 29632,-20191 16033,-4491 6460,-25669 16946,-26997 7599,-25729 -17181,-17948 15428,-32950 5009,-8278 8730,-73968 11703,-74320 453,-19703 -7225,-24606 6525,-37295 -1668,-11501 -12766,-34497 1751,-39614 942,-7464 2957,-11691 5473,-13484 l 6751,0 c 7551,4145 15400,20075 14068,34658 -13223,23344 7896,13462 10029,29726 -13068,14367 0,62396 -761,79710 6687,14942 19675,16134 20363,33659 -5853,23351 4864,13810 15274,28536 0,16540 -9196,22856 10409,23273 3574,-17313 28568,7218 18466,32885 0,1755 2049,80627 9570,80627 11472,-30220 8586,13744 14289,-3225 9266,-7991 1136,11355 12992,18438 20746,5113 -4330,52442 5162,55741 -985,23632 -4779,62537 2204,83145 22715,14449 -22105,64362 15279,85890 9653,0 81979,6373 82824,11919 1516,-75 113974,18714 116022,23058 26520,0 71346,16487 95897,26439 16868,0 17170,-8204 23320,-17738 9581,-1262 12850,-3153 22191,-6105 12232,-19347 108578,-2596 123475,4555 1069,4910 1751,5402 3038,17673 18843,16615 -609,87008 10633,117017 2442,35825 16268,47187 -23929,58607 -2664,5687 -70211,38422 -62460,13398 -1826,-18512 -6911,-91216 -2278,-97247 13140,-7151 18233,-20891 13448,-33589 -22189,0 -55543,-25789 -79557,-30491 -4336,-8978 -71883,-24542 -83278,-29937 -45436,-7288 -90491,-25026 -136774,-27272 -22871,-10518 -182890,-24749 -182890,-11710 40807,11292 97335,-2458 141260,10310 13062,-216 136079,25165 136393,27337 49539,6946 99608,25946 144285,46555 5700,5895 43767,17954 43767,23626 -35487,-5537 -72411,-36948 -106991,-40101 -13514,-6034 -76126,-26503 -83803,-24471 -913,-5185 -176132,-38699 -182137,-31546 -33963,-3019 -61089,-1680 -90794,2170 -4789,30427 -1594,22853 22643,28606 -303,6800 -1064,13323 -839,21037 -9872,-1051 -24009,-12135 -26521,-19280 -10639,-1616 11017,-44740 -17629,-37020 -2657,10022 -5165,20820 -6458,33232 -15429,-1473 4181,-138963 -12076,-141412 -21886,7080 6602,136432 -11932,136432 -2429,-20267 -229,-131594 -6687,-134119 -14891,6730 -14361,-13815 -17544,20681 0,26290 7968,106292 -7679,124659 -5550,2103 -25759,17103 -8818,16334 29328,-16546 28108,-18859 63147,-8419 28716,-4420 27114,15569 47104,22088 5316,9539 14969,61137 22955,62190 146,7226 -4414,45924 2804,52588 2658,18712 3801,69049 -16184,78235 -16639,25937 -20057,27908 -47339,44237 -1064,8137 3800,38774 -8886,38774 -12156,-4767 5852,-22431 -9654,-27691 -532,-1960 -25983,-25732 -10941,-27694 -610,-29445 16335,-43189 12083,-71653 -10029,-14299 -2580,-47677 -13153,-68844 1148,-23138 -2275,-40322 -13972,-57914 -13907,-10027 -18618,-16968 -28196,-29026 -9037,-1339 -22110,-19213 -32368,-21666 -4562,-4904 -37231,-7851 -47032,-9188 -19227,-15978 -73544,18094 -82589,1337 -5860,-282 -29409,-25733 -36397,-30919 -26745,1339 -47110,-6945 -71046,0 -20751,0 -27662,-10873 -43231,1539 -9115,1192 -17562,15359 -26223,13815 0,2665 -17931,1680 -20438,1680 -3479,1497 -23307,13311 -33662,18146 z m -400,-55726 -203,16626 c -62,7302 -182,21906 -182,21906 -16,-9477 293,-21984 -144,-31396 -433,14114 -254,29330 -308,43565 l -221,5686 c -1015,446 -1900,797 -2629,1036 l 177,-57097 c 1042,-161 2221,-265 3510,-326 z m -1694,72780 -1361,35120 c -1,-8520 -181,-25557 -181,-25557 -277,1459 -448,4112 -551,7470 l 48,-15285 c 668,-580 1349,-1162 2045,-1748 z m -2046,-72413 c -182,19150 -309,38139 -377,57189 -201,57 -384,103 -554,139 l 31,-6994 c -28,-4529 75,-28918 -51,-50152 303,-66 619,-127 951,-182 z m -423,74528 c -21,12949 -15,25955 22,39089 -80,43 -137,7471 -136,7302 -43,-12465 -121,-32745 -173,-46138 l 287,-253 z m -495,435 -162,15513 69,-15431 93,-82 z m -1195,-74473 c -100,16138 -86,32374 -43,48580 l -40,-777 -136,-47725 219,-78 z m 38,75502 c 23,7703 41,15382 44,23021 l -80,-22989 36,-32 z m 3258,61975 0,-10 0,10 z m -1230,-48521 c -193,6315 -140,15131 -72,23233 l 72,-23233 z m -72,23233 c 43,5413 93,10507 80,14326 l -136,3643 56,-17969 z m -56,17969 0,7 0,-7 z m -905,-40172 0,19 0,-19 z m 890439,280746 c 2960,-10657 46500,-42069 36924,-28047 -1063,5472 -29554,26790 -36924,28047 z m -13605,39613 c -2507,-5753 31760,-26155 37305,-27208 0,6529 -31378,24543 -37305,27208 z m 15266,17109 c 2888,-6035 8821,-14167 14747,-13527 0,6582 -7751,11914 -14747,13527 z m 67028,25658 c -3806,-5888 -10336,4910 -387,-10378 11551,-2873 3420,-9320 3420,-15567 4633,-3993 8589,2177 13067,2177 19755,-12341 -14281,22787 -16100,23768 z m -23790,-27976 c -4254,-4834 21349,-25383 28876,-27202 -683,8554 -19911,22228 -28876,27202 z m 3425,-52091 c -1063,-3927 28412,-36249 29173,-21459 -9496,8283 -19078,18657 -29173,21459 z m 36465,-55179 c 1444,-7780 27808,-24043 36475,-26428 -2130,8062 -28339,25171 -36475,26428 z m 16945,40388 c 3728,-4913 45442,-34915 33137,-36524 -691,-28899 30085,2937 2731,14156 -528,2242 -30847,20896 -35868,22368 z m 17858,17104 c -761,-8976 43382,-40102 52661,-43254 7370,2665 -46735,40659 -52661,43254 z m -12765,48238 c -2283,-5400 42247,-41720 49236,-42771 -2284,8278 -40566,41082 -49236,42771 z m 22039,44312 c 3497,-6453 41484,-39403 49543,-39196 0,5606 -42095,38075 -49543,39196 z m -13528,-366963 c -14515,-6449 -7973,-54611 3572,-28958 19832,1614 19911,27559 -3572,28958 z m 13528,47393 c -6694,-10300 -24087,3651 -19452,-15561 11850,-1819 -18089,-18652 16950,-19144 10403,-10933 8730,32186 2502,34705 z m -39813,-52090 c -13833,-5046 -14975,-14856 -13913,-29099 27505,-8967 23635,4490 21502,26784 -2888,1550 -2888,1550 -7589,2315 z m 22027,105725 c -1365,-7916 -7365,-31829 -1819,-36940 29253,0 29481,13946 21659,35677 -13834,0 -9504,-3153 -19840,1263 z m -74614,-117358 c -678,-286 -39056,-21811 -39056,-21811 11247,215 46884,-13318 49542,285 -9496,8345 9353,19977 -10486,21526 z m 16945,12406 c -2730,-6311 10184,-62048 -9268,-52519 -22340,0 -50540,10029 -14667,-4621 8131,0 17476,-1328 25456,-4697 10483,976 8434,59734 -1521,61837 z m 27965,107340 c -4943,-1191 -6156,-49289 -2736,-57768 7748,0 11321,55172 2736,57768 z m 905,34987 c -3872,-4210 -2198,-23637 -2047,-29872 7906,-11427 8204,29872 2047,29872 z M 1405500,716142 c -7595,-3645 -22798,-2806 -23784,-10092 6765,910 44071,8761 23784,10092 z m -36466,-9327 c -17477,-4345 -61855,-8549 -70670,-16122 -603,-8626 -13519,-126336 8743,-117575 1293,12054 20212,74 18232,14796 5092,14860 -11395,27125 -17405,6165 -5236,0 4870,80420 -1287,91775 2283,5959 20672,9186 26902,8694 -8512,-48656 4398,-22716 -21356,-28112 0,-9465 -8277,-26075 10186,-26075 27807,17808 -12542,-77267 17326,-61073 3951,9183 31910,-2243 31910,7855 4029,-984 14438,-10098 17780,-839 17621,0 17700,98639 10330,116799 -13140,1473 -3649,-35200 -13370,-26639 -17024,1252 -13604,37501 -21198,10928 -2580,-56642 -1602,4985 -19072,-15982 -4936,-25030 -3342,17460 -5928,25315 2134,213 40115,6659 28877,10090 z m 42398,0 c -8053,-32810 -3727,-75220 -3727,-109162 19296,-16057 6994,53430 11400,53988 -537,11291 4634,53776 -7673,55174 z m -127204,-20961 c -8126,-7498 -5540,-114352 -4627,-116946 18763,-11919 9188,90870 11767,101457 -3411,6306 2973,14090 -7140,15489 z m 115346,-102638 c -18536,-5678 -119139,-15912 -118155,-31266 10258,-6668 90654,16123 107976,17662 7973,1961 42401,11919 10179,13604 z m -25453,-26433 c -6380,-1473 -41182,-6729 -41182,-9394 453,0 47176,5673 41182,9394 z m -37310,-15569 c -26745,-15566 3039,-33581 7594,-19417 -16946,2453 8893,15635 -7594,19417 z m -16106,-40384 c -4331,-29511 8278,-33861 2659,-623 -840,205 -1746,416 -2659,623 z m -35637,26433 c -2127,-11361 -2127,-81672 5088,-83216 -146,7357 1376,83216 -5088,83216 z m 66182,18652 c -1516,-18652 12995,-40242 -22877,-33091 -8126,3435 -10711,28465 -10711,3364 17410,-23565 33661,7645 32143,-37929 -12922,-19914 -7442,32186 -14438,14656 381,-30919 -18455,-17321 -18455,-28188 48697,7426 32749,6170 38971,43752 611,841 8887,22007 11785,20262 0,-36174 11166,-64014 -33744,-71160 -3643,-3928 -18311,-3158 -23858,-2605 -4863,9404 4936,79860 -6686,81123 -10410,-12266 -6000,-84417 -2586,-90794 8439,-5185 73250,14372 75000,16128 4255,12693 6985,115753 -8661,70674 -11703,2654 -7377,12194 -15883,13808 z m -17018,-106499 c 297,-4280 -1293,-7575 -1293,-11074 4869,-8343 9424,7081 1293,11074 z m -9273,-3923 c 0,-3359 0,-6728 0,-10094 4934,0 3043,10094 0,10094 z m 19446,4692 c 0,-13669 2211,-13740 3420,0 -1136,0 -2278,0 -3420,0 z m -28792,-7781 c 312,-5888 2125,-13533 4634,-3574 -2206,2383 -2206,2383 -4634,3574 z m -8506,-4696 c 0,-1755 0,-3571 0,-5396 827,0 1668,0 2579,0 0,1750 0,3570 0,5396 -834,0 -1674,0 -2579,0 z m 32217,-3082 c -7225,-7504 -29403,-7923 -38984,-8551 1600,-6809 43612,-3786 42706,8062 -1221,130 -2435,277 -3722,489 z m -72948,-14021 c 0,-8067 53489,-8908 63675,-3511 -4556,3927 -33354,-3013 -46656,3093 -5625,135 -11322,271 -17019,418 z m 57670,-14725 c 2888,-16894 6537,-3717 3571,-630 -1136,212 -2351,412 -3571,630 z m -7599,-1615 c -1293,-5396 -1293,-5396 -1662,-13952 9871,-417 4700,13952 1662,13952 z m -16107,4696 c -2502,-31194 17930,-9042 4713,-7010 -1982,3511 -761,7010 -4713,7010 z m -2579,-23338 c -4483,-213 -20444,486 -9957,-3727 3118,-10858 1746,-67364 6990,-31267 -8965,16622 5843,52021 6760,7782 -2356,-28114 6767,-69407 6767,-14787 5926,14156 12384,40946 -10560,41999 z m -48330,123598 c -1057,-12130 -380,-22857 -380,-34494 9272,-7921 6384,33231 380,34494 z m 4259,-49702 c 2887,-5401 9721,-6035 16414,-5759 0,3723 -13448,5403 -16414,5759 z m 17779,74590 c -303,-15701 -6006,-70386 1747,-74243 531,0 7521,72700 -1747,74243 z m -35637,-24043 c -386,-494 -838,-986 -1293,-1545 -6385,-59593 13901,-4631 1293,1545 z m -9274,41148 c -20589,-22218 28043,-33092 29857,-21168 8361,2173 8361,17944 3498,13463 1678,-15499 -18837,-10798 -29179,-8138 -2653,4491 840,14303 -4176,15843 z m -9339,20267 c 0,-5819 54781,-22155 62758,-22572 -1143,4270 -55845,20464 -62758,22572 z m -28877,23278 c 0,-4279 80698,-31209 89349,-30637 310,1963 -79555,29859 -89349,30637 z m 70430,98016 c -2805,-3650 -4242,-110296 -1205,-113092 7131,0 3946,112524 1205,113092 z m -11855,3853 c -1281,-35484 -2730,-71935 -1129,-106707 7522,278 6458,106707 1129,106707 z m -33962,21802 c -3872,-18719 -2194,-45082 0,-63795 8136,0 3726,63795 0,63795 z m 0,-67652 c -1892,-16481 -2194,-33373 -2044,-49289 3951,0 6605,47881 2044,49289 z m -11849,73052 c -682,-7510 -1896,-126622 7064,-122341 989,21096 156,122341 -7064,122341 z m 122940,175689 c -16034,-6517 -48928,-12336 -10102,-9742 1825,424 22565,7153 10102,9742 z m 4254,45162 c -1366,-7715 9194,-18513 16721,-19709 -16945,-41007 4181,-9184 10102,6528 -2580,2876 -2810,5741 -6762,4907 -2276,-12903 -14208,5115 -20061,8274 z m 14443,20185 c -11707,-14931 1897,-45567 5468,-4621 -1142,3360 -2050,3923 -5468,4621 z m -3419,50553 c 4483,-20825 39136,-18371 21869,-44939 -8416,2172 -6145,10933 -15411,11777 0,-3852 20130,-21947 12311,-24818 -19150,14303 31222,-40242 3716,-19699 -13827,22148 2509,-13814 2509,-17884 -29180,-35825 13223,-7778 13223,17808 -2502,634 -23711,17039 -7672,16622 9340,-8912 4102,36381 -835,47881 -6693,-629 -11253,-8137 -12698,0 -6300,911 -9720,11290 -17012,13252 z m 45811,-17104 c -5770,-2252 -6156,-39477 -2882,-46207 13756,0 26140,43955 2882,46207 z m 4260,50541 c -16338,-5537 4408,-41992 -5923,-41992 0,10170 -17103,-7850 8436,0 2881,10375 17851,39614 -2513,41992 z m -30545,18653 c -1674,-3858 15574,-16262 2507,-13528 -14053,17668 -16644,4834 -1903,-704 689,-3158 16262,-19914 9580,-18789 -4645,6734 -20219,19075 -27964,22087 3257,-8487 24389,-27905 33890,-29519 3113,12129 9039,32669 -6692,39266 -3721,0 -6832,-638 -9418,1187 z m 3418,48163 c -17399,-6028 3118,-18506 9347,-29510 2579,0 5244,-24119 15428,-28605 6381,-14865 26057,-4355 14202,2168 -982,9116 -4862,11365 -7598,20196 -14365,5401 -8204,32740 -31379,35751 z m -30544,3929 c 4785,-25306 17091,-4064 -6458,-6940 5244,-14650 12989,-1193 13902,-22299 32670,-17104 26744,-19981 18848,426 -24775,10164 -919,18296 -26292,28813 z m 7600,-297826 c -4186,-4208 -15960,-99484 8814,-84276 -616,15219 8198,84276 -8814,84276 z m 38217,-13186 c -10796,-8201 -17091,-63024 5931,-68420 -380,12478 6078,66534 -5931,68420 z m 33050,775 c -8432,-2097 -4857,-56371 -4939,-65558 -15269,-4904 1292,54549 -5927,63386 -22256,6799 -10252,-52308 -8276,-65137 -14289,-11491 -104479,-14790 -108961,-31406 10711,-1892 123852,14790 123852,22500 33274,3651 4251,12688 13144,35339 -989,11220 3800,38980 -8893,40876 z m -228177,-45850 c 2812,-6875 89055,-46554 99235,-45924 -912,5258 -85031,43611 -99235,45924 z m -1671,-12481 c -2659,-6171 88901,-42838 99534,-42276 0,2732 -75607,32181 -77496,32669 -5245,6306 -14221,8625 -22038,9607 z m 73787,123673 c -7371,-36526 71,-89180 1214,-126757 4627,-20332 2271,56154 3414,58327 -609,6175 307,68430 -4628,68430 z m -9352,-94859 c -2815,-7361 -911,-22090 -1298,-29730 4560,-26077 11555,29730 1298,29730 z m -38149,36532 c -3952,-16198 155,-35901 3044,-52442 4554,-916 3188,52442 -3044,52442 z m -10175,4622 c -2967,-5537 -2356,-55103 4639,-53006 2272,8625 3492,47820 -4639,53006 z m -241780,3929 c -159,-2103 -304,-4206 -455,-6378 4478,-11849 141939,629 147708,-11849 5473,-1121 5396,28394 -2356,9254 -48783,2238 -99310,136 -144897,8973 z m 5999,41990 c -16107,-9881 37991,-15630 16184,-3574 -6834,0 -10332,2670 -16184,3574 z m 269661,2324 c -1739,-10455 -3264,-18652 -3793,-28680 -3723,-8061 -53568,-2731 -66720,-5959 -42925,0 -60776,2519 -59573,-3787 7834,-4839 129107,-564 131760,2177 385,3500 1376,35334 -1674,36249 z m 12770,765 c -458,-17526 -5170,-77051 3190,-87289 302,0 3878,76351 -3190,87289 z m -185779,15559 c -14209,-6518 -29639,-1885 -40735,-7010 2596,-13387 -27494,-5603 -35554,-5114 -16720,6458 -1897,-11422 4858,-10867 10868,-3929 49622,-10306 51296,5676 7067,3858 29027,-205 29027,13464 -2882,3786 -4179,3505 -8892,3851 z m -117930,3863 c -6459,-2524 6234,-10726 8209,-11988 13224,-1194 -78,11078 -8209,11988 z m 16184,7786 c -1360,-4563 19985,-19006 18927,-5966 -3262,2737 -14288,4693 -18927,5966 z m 207818,1538 c 1523,-5959 8434,-13744 15194,-14724 -985,5471 -9720,13186 -15194,14724 z m 11019,7010 c 1377,-5401 13980,-23278 7598,-7010 -4643,1896 -688,5824 -7598,7010 z m -285012,6237 c -2357,-12196 36235,-47395 39435,-19348 -78,142 -34655,18301 -39435,19348 z m 289187,6240 c 995,-1889 13756,-24813 14823,-14719 -3798,5048 -8438,11777 -14823,14719 z m -106827,0 c -13683,-5320 -17260,-18994 -34126,-21453 -46036,-22853 31155,-7012 32592,2525 8511,5683 20522,17456 1534,18928 z m -169675,10868 c 0,-12265 40803,-39539 41261,-21166 -1063,2519 -36173,18295 -41261,21166 z m 355454,6242 c -17483,-13459 -46880,-50553 -62768,-14795 -20281,9329 17936,-18161 3039,-23835 -834,-6521 6083,-5329 12088,-5329 18232,-5332 68834,41927 47641,43959 z m -144216,1543 c -7604,-7785 -7002,-22158 -19531,-26432 -1903,-3988 -7594,-7357 -10483,-10657 0,-16757 71728,22158 40271,36667 -3424,141 -6844,281 -10257,422 z m -137384,769 c -1599,-5894 26293,-27835 33053,-28811 -2738,6799 -25077,27620 -33053,28811 z m -20364,0 c -3117,-4773 459,-26427 7599,-26427 2054,4969 -3110,21871 -7599,26427 z m 128876,769 c -7677,-9457 -19003,-15071 -2214,-15841 7218,3924 20223,14796 2214,15841 z m 117080,2324 c -1963,-4565 11485,-13191 12692,-18662 18698,-8620 -8198,16973 -12692,18662 z m -195119,765 c 1288,-9752 18546,-39896 -4180,-37717 -6687,4139 -15424,15982 -22946,15982 0,-6589 16033,-13111 18692,-22570 -26443,-13398 37155,-8494 33051,20185 -12384,-1467 -15266,19417 -24617,24120 z m -64435,3927 c -1293,-4983 2048,-25662 10179,-25662 460,6452 -3722,22927 -10179,25662 z m -12687,3084 c -684,-8837 2125,-16616 4175,-24885 10794,-1613 838,19981 -4175,24885 z m 111920,770 c -606,-5609 4034,-16541 8892,-18790 11629,-17038 1599,15420 -8892,18790 z m -27126,774 c 2809,-7575 11937,-34490 21501,-32950 -1058,9112 -11243,31199 -21501,32950 z m 187447,3923 c 1595,-4697 25535,-31126 30551,-31126 -1288,7292 -22481,27344 -30551,31126 z m -224757,774 c -1214,-4556 21125,-27344 29106,-26780 0,11003 -19531,21655 -29106,26780 z m 240041,3076 c -996,-9111 11014,-13874 17470,-20532 13376,0 -13290,18220 -17470,20532 z m -237529,10875 c 2889,-8274 16179,-23204 25452,-22506 -1366,8694 -16571,21106 -25452,22506 z m 283347,7015 c -1603,-10170 -3500,-20549 -8743,-28605 -29022,-14373 -12772,-25875 4029,-5755 1903,6731 19447,32951 4714,34360 z m -55170,1538 c 5932,-8971 13297,-14367 22944,-19909 1065,6170 -17627,18784 -22944,19909 z m 18691,775 c -682,-5119 31615,-32186 10108,-4979 -3341,1610 -6688,3294 -10108,4979 z m 61930,3923 c -13986,-14448 -21659,-20474 -18160,-40735 531,0 20062,7085 3033,5114 -4023,13533 25837,32468 6088,5125 1897,-9047 24547,29017 9039,30496 z m -301119,774 c -839,-13392 38815,-37864 14432,-9751 -5852,3516 -7677,6663 -14432,9751 z m 144138,770 c 9793,-38709 -1523,-10733 -7606,-9329 3497,-29088 -4325,3505 -5540,-14017 7141,-29727 9569,-11219 26750,-6939 1970,5525 19525,13527 -236,16892 -301,1192 -12462,13112 -13368,13393 z m 97564,4697 c 1893,-6518 34412,-33238 18155,-11431 -5704,2594 -13521,10309 -18155,11431 z m -290944,3853 c -5395,-2808 -6079,-5750 -8808,-9813 -10035,-36179 15265,1816 10782,9329 -614,130 -1284,277 -1974,484 z m 55997,3087 c -610,-2319 9652,-21736 15658,-14860 -1069,3992 -11853,13733 -15658,14860 z m 237528,3927 c 1673,-6803 20660,-21664 25675,-21318 0,5125 -20661,21318 -25675,21318 z m -230764,11637 c -603,-7085 20819,-28322 19521,-39614 5100,-774 6693,-16690 5100,-21030 2427,-352 25758,-53217 27431,-31547 -10868,8548 -17175,27965 -16046,41504 7075,34419 -19904,27761 -24684,42410 -4862,2248 -6911,5960 -11322,8277 z m 229846,3928 c 2659,-8277 12468,-13819 20444,-17601 458,4903 -15423,15283 -20444,17601 z m -84795,0 c -21428,-8624 5249,-21041 -3419,-23696 -19072,21941 -1361,-10803 3419,-11291 912,9888 8886,-4908 8886,17175 -3111,7855 3656,15635 -8886,17812 z m -177268,8549 c -18613,-9529 -18237,-71583 -3955,-43114 0,12899 23855,37507 3955,43114 z m 50915,4623 c -308,-6791 17544,-33998 22946,-37789 6232,1127 -16717,37789 -22946,37789 z m 206972,1542 c 4484,-6653 12011,-13169 20359,-15493 -2192,6528 -13972,14519 -20359,15493 z m -303698,1616 c -13610,-6095 -21584,-19910 -24853,-32527 -5545,0 -8741,-68642 13370,-1053 4712,8204 31077,31689 11483,33580 z m 139958,769 c -1215,-5744 5092,-10163 3721,-18708 -23180,-9188 12161,-36325 -151,-36325 -4253,10450 -21653,16893 -6150,71 2809,-6518 6675,-12618 10022,-18718 -9564,-2178 -37305,49290 -20135,9882 9195,-3782 -223,-44940 12228,-29652 0,18371 9660,-5465 8512,11080 -7068,13040 3044,0 6543,8272 11471,1750 1896,69054 -14590,74098 z m 164574,11636 c 3650,-3921 3650,-3921 5094,-6998 13302,-6524 1521,6998 -5094,6998 z m -247702,9335 c 4938,-16480 27126,-30009 13062,-7503 -4101,2872 -8350,6519 -13062,7503 z m -84800,3088 c -5466,-5688 -9879,-4421 -8809,-13603 -8818,-11996 27422,8483 8809,13603 z m 212071,6236 c 1215,-5965 13599,-30295 20363,-31064 -838,7152 -11923,28962 -20363,31064 z m -117925,3078 c -12693,-2304 34350,-43883 17248,-20609 0,2107 -13291,18934 -17248,20609 z m -50909,1614 c -11931,-5396 -24545,-18714 -26292,-30349 6991,622 46803,28036 26292,30349 z m 189197,6945 c 0,-2524 15649,-40031 12693,-31833 -14896,1337 -17326,37022 -21052,24259 -9649,3294 -4254,9886 -3185,-4838 3258,-2173 34876,-63869 28492,-24882 4258,-2184 2964,-5192 7600,-6242 -997,4903 -16268,43536 -24548,43536 z m 22035,10933 c 1752,-7633 6313,-14092 10184,-21031 8730,1403 -5473,18723 -10184,21031 z m -68695,3089 c -1740,-6453 7913,-14373 11484,-19001 21579,-1262 985,18019 -11484,19001 z m -103486,3086 c 0,-7151 31081,-34427 37081,-35972 6385,-12406 38828,-67938 33510,-26427 15653,974 -31154,59593 -41249,56511 0,-564 20050,-26368 21041,-26855 4785,-10933 26818,-27202 12384,-29445 -151,-835 -48100,59660 -62767,62188 z m -32290,3924 c -6991,-1892 -52584,-18995 -20288,-14791 0,2666 69221,10441 20288,14791 z m 84033,2312 c -599,-11355 32302,-32105 18009,-30918 -67,986 -13521,13323 -15803,13323 1975,-6374 22720,-45780 28494,-30778 21960,-5884 39965,-44306 47104,-62607 -6452,0 -22865,27826 -26660,32734 -8434,0 30236,-57412 19599,-47599 -1293,8483 -18613,-282 -2580,-11779 0,-34775 27886,-8625 5920,7362 844,2873 2205,-422 4640,-1549 15730,282 -5776,50271 -12385,51116 7823,30567 29488,-48234 34954,-23631 -2584,10454 -1522,40740 -17253,44034 -7751,3994 -18987,18576 -24159,18576 -527,-18507 1438,-6452 -9043,-4485 -5317,5255 -17925,9606 -18613,16686 -1064,0 -25302,26504 -32224,29515 z m 187458,8555 c -1825,-4209 20590,-13457 23410,-22088 12149,-7499 29251,-23409 27192,-36807 -986,0 -31458,34494 -18384,11501 15350,-2317 -615,-17671 -4258,3858 -9727,0 21730,-48731 21730,-22158 3648,-1397 10033,-14368 11854,-17808 4487,-634 8667,28822 3267,33791 -4633,20965 -37837,36390 -57815,45230 -2137,2801 -3655,3993 -6996,4481 z m 26292,4697 c -454,-1116 25753,-24823 28647,-26854 20885,0 -27965,26578 -28647,26854 z m -217162,3088 c -1066,-3998 40649,-44381 44981,-45855 -4409,25171 -32520,29381 -44981,45855 z m 101815,4697 c -450,-4279 6237,-24607 9957,-26850 19375,347 -4028,26850 -9957,26850 z m -152721,0 c -10409,-5260 -54716,-9962 -57674,-21806 149,0 61089,17803 61089,21806 -1143,0 -2285,0 -3415,0 z m 271415,3078 c 1745,-4345 23397,-22500 28864,-23339 0,8267 -21192,22088 -28864,23339 z m -35566,3092 c -447,-6875 21496,-15218 22034,-18652 17627,-1819 -16408,18020 -22034,18652 z m -177350,765 c 3419,-7714 25305,-37294 31390,-37294 -1293,12406 -19532,31832 -31390,37294 z m 179853,8560 c 2282,-4837 25765,-23415 24926,-12905 -8435,6242 -14440,9963 -24926,12905 z m -158576,2384 c -13292,-8625 26823,-41228 17785,-14801 -3112,0 -7672,13110 -17785,14801 z m -46651,0 c 2585,-12478 27809,-10310 16256,-7639 0,3566 -13212,7282 -16256,7639 z m -32296,0 c -3867,-4275 -27506,-10592 -34267,-11432 -5998,-8272 -33588,-12682 -36090,-22786 24461,6030 53416,27976 77200,31059 -682,4139 -3195,2802 -6843,3159 z m 96732,764 c -2049,-4691 48552,-35606 32440,-35606 -9954,13036 -40650,27685 -11471,5819 1298,-2103 21428,-17948 5697,-11361 -381,4139 -16944,9320 -5999,1468 8432,-18999 39738,-21307 26822,7790 -15805,8481 -29329,25653 -47489,31890 z m 59343,1548 c -1674,-3856 6156,-5606 9116,-6446 1443,-6669 40578,-52860 19296,-44040 -22179,37230 -907,-13528 13454,-23409 6537,-19906 22417,8831 5618,11360 -10481,7705 20140,19140 1293,26076 -5232,13461 -34030,29661 -48777,36459 z m 117090,3859 c 0,-3859 32749,-29868 39286,-29868 0,4697 -32448,28806 -39286,29868 z m -170507,5466 c 1214,-6875 33354,-28681 40724,-30360 -2658,7855 -34114,28956 -40724,30360 z m 132362,2313 c -603,-4627 14893,-12695 19303,-16756 20437,0 -18692,16469 -19303,16756 z m -200218,0 c 2279,-6528 30019,-20814 31916,-17244 -11175,5390 -17857,13170 -31916,17244 z m -26296,774 c -7360,-985 -80076,-25034 -71722,-33447 14898,7502 75153,29164 75153,33447 -1153,0 -2295,0 -3431,0 z m 259566,5462 c 3117,-7633 36628,-31407 45902,-35475 827,6101 -39594,35475 -45902,35475 z m -227337,5477 c 0,-10657 59948,-28047 37534,-17747 -687,4002 -32150,15640 -37534,17747 z m -27969,2312 c -18234,-3787 -35638,-5964 -50906,-14442 -4101,-422 -21124,-7785 -13609,-8554 6616,3007 84117,20467 64515,22996 z m 220510,1541 c 1594,-10098 31680,-24824 20363,-9675 -7453,3438 -12619,7712 -20363,9675 z m 35631,3857 c -1976,-4562 38911,-33866 43544,-33730 0,5616 -37388,32678 -43544,33730 z m -282428,2383 c -7292,-4073 -34797,-8484 -34797,-15570 1141,211 46415,11988 34797,15570 z m 48323,5401 c -1286,-9610 51672,-20900 36471,-17391 -7298,9747 -25299,12977 -36471,17391 z m 198474,3154 c 5618,-14449 33352,-16758 13972,-6171 -447,3295 -10476,5748 -13972,6171 z m 34796,2308 c 0,-6939 51978,-44658 31833,-22574 -297,1823 -28420,21809 -31833,22574 z m -33052,7010 c -2507,-5742 7752,-7282 11855,-8553 -1898,6381 -4333,7648 -11855,8553 z m -234109,0 c -2657,-975 -48244,-20543 -21269,-17873 1589,8830 26744,-5894 29171,16616 -1892,840 -1892,840 -7902,1257 z m -32295,9329 c -5166,-4064 -13678,-7151 -15497,-12266 -8282,-1267 -41557,-43823 -15048,-33588 1377,12904 62314,41158 30545,45854 z m 39067,9325 c 0,-7429 79775,-14021 38974,-7293 -12469,5541 -25761,5748 -38974,7293 z m 47485,14018 c 2961,-9111 17701,-16966 27125,-20261 -2362,8620 -18009,19141 -27125,20261 z m -39890,2311 c -1064,-11986 59639,-16048 30538,-8896 -8432,5396 -20587,8060 -30538,8896 z m 95892,7010 c -5322,-19840 42167,-16049 42167,-27826 -6536,136 -21348,8625 -20516,3364 25453,-10939 -20738,-357 3341,-9886 5244,-14655 11177,-11638 -5233,-4275 -26905,5120 7439,-20825 2503,-22646 -454,2520 -48168,30989 -19448,4481 -1074,-4903 -10571,6452 -12390,-2942 -2433,0 -1063,4490 -5250,6804 -3338,7780 -33806,30707 -41557,29098 0,-7087 43081,-26016 11019,-18647 -11634,-12553 -12994,65 -29940,3781 -526,3293 -17091,3365 -7218,352 12691,-20120 40427,-3222 50757,-34288 4639,-2595 4259,-6310 11394,-2806 3723,18024 55627,-35751 66182,-35751 -1444,5532 -21809,21519 -27651,23410 -3268,9183 -27971,13331 -24775,23008 16492,-4145 28339,-19915 44760,-26226 -2659,9253 -42941,29862 -14446,23348 1372,3225 4641,-9891 8288,-10308 7897,-11014 11171,11570 24844,-5256 8662,-568 4028,-10938 -4786,-2036 -18619,3288 11103,-8695 12923,-13810 31679,0 -1679,35897 -304,45145 22028,1409 -7374,41088 -18013,36049 -3649,-7579 -40725,17863 -46651,17863 z m -64513,6175 c 1974,-5818 25154,-19277 32290,-20961 -1058,5397 -26057,20961 -32290,20961 z m -62764,0 c -9883,-4762 -22715,-12194 -26514,-19986 -2821,-416 -5854,-13240 -5697,-15771 6681,565 60473,33373 32211,35757 z m 28044,775 c 218,-563 53869,-27272 36846,-11572 -381,2524 -30091,10450 -36846,11572 z m 71189,10164 c 683,-2590 15804,-57070 16106,-57211 37082,635 1758,53283 -16106,57211 z m 50905,1543 c -4701,-8207 24166,-26643 77,-15992 -30157,3093 26064,-17029 30477,-15911 -4789,16615 -9193,30223 -30554,31903 z m -146718,10088 c -17096,-8618 -36846,-5812 -46354,-23339 -29788,-25728 53495,-2182 53495,18723 -2199,5039 -1523,4616 -7141,4616 z m 59344,6236 c -10181,-12190 15041,-20603 25300,-28458 16184,-765 -17023,27483 -25300,28458 z m 23778,3864 c 2663,-5398 18316,-19483 25764,-18991 0,6377 -18999,18225 -25764,18991 z m 12691,11637 c -1297,-8545 -25904,-4627 4025,-11844 21812,-31475 53270,-15977 12311,5044 -3045,5965 -9497,5332 -16336,6800 z m -68687,3163 c -8512,-3582 -37457,-10515 -6918,-10515 25005,-5397 26526,8624 6918,10515 z m -32218,22499 c -16717,-1755 -58196,-13117 -15272,-19066 9955,-2312 88516,1611 56841,14791 -13833,630 -28194,3291 -41569,4275 z m 378324,-261228 c 0,-7293 19979,-12829 17555,-28535 -1443,206 -18842,19628 -14208,6799 15877,-2378 22642,-45990 26588,-2032 -3335,4416 -24467,22928 -29935,23768 z m -82287,83220 c 4935,-9178 29402,-21800 30079,-27548 -16027,-3300 13302,-58055 16571,-44740 -6536,0 -17706,57142 454,1966 9575,-1467 -6755,49990 -24160,54341 -7594,4344 -14051,14584 -22944,15981 z m 267989,-227790 c 3346,-8273 1293,-7990 1293,-17244 4102,-13750 8288,17244 -1293,17244 z m 34804,6945 c -4406,-1761 -3795,-2806 150,-3721 1067,-35958 7293,2031 -150,3721 z m -20360,143866 c 0,-4984 -10790,-29591 1667,-27202 -1824,5114 757,25869 -1667,27202 z m 91633,-133703 c -1601,-14019 5474,-22434 6308,-4626 -1289,2524 -3577,4626 -6308,4626 z m 38978,4632 c 1673,-5758 -5239,-21669 6151,-7227 4488,635 -3414,7227 -6151,7227 z m 13600,3154 c -2659,-7925 234,-20826 3418,0 -1141,0 -2277,0 -3418,0 z m 12696,3858 c -5709,-1414 -765,-20338 3414,-2319 -2882,0 -1366,1122 -3414,2319 z m 20360,3847 c -1747,-3923 2580,-13394 2580,-770 -839,217 -1667,492 -2580,770 z m 21199,4701 c 834,-11214 3118,-8412 5927,0 -1971,0 -3952,0 -5927,0 z m 12764,3083 c -5774,-1403 -223,-14222 1827,-628 -611,211 -1221,417 -1827,628 z m 8434,1616 c 1214,-3019 6386,-13811 6386,-3089 -1522,4068 -2284,3089 -6386,3089 z m 13601,6170 c -2811,-5266 2510,-17667 2510,0 -832,0 -1677,0 -2510,0 z m 11852,3158 c -6083,-8495 1757,-15706 1757,0 -537,0 -1143,0 -1757,0 z m -228171,104950 c -8138,-18370 12535,-5814 3414,-2664 -758,2388 -758,2312 -3414,2664 z m 0,-49781 c 0,-1745 -7292,-12901 3564,-8760 2277,4208 1975,7714 -3564,8760 z m -433416,284587 c -11853,-30717 28642,-27276 30539,-39688 18160,-2737 19302,-55737 37311,-46625 1214,6875 18002,5824 15278,21730 -19991,13403 -50760,31628 -64442,49783 -6302,3230 -14283,13457 -18686,14800 z m 222251,-627498 c -3649,-17099 2809,-34354 -834,-49703 27277,5745 12010,-9675 19755,-9675 229,4838 7678,47953 -3800,48867 -13678,-5888 -11170,10511 -15121,10511 z m 280760,292357 c -9721,-44305 16565,-19974 8433,-763 -3878,-351 -5395,416 -8433,763 z m 2507,100335 c -6615,-19910 19532,-15911 11321,-1337 -4864,0 -6077,1337 -11321,1337 z m 834,-50551 c -1445,-3998 -11849,-15073 6312,-9671 5164,4767 -609,8971 -6312,9671 z m -10175,-90232 c -6082,-2805 3336,-45291 6834,-1542 -4253,493 -4253,493 -6834,1542 z m -24546,-5400 c -1677,-5527 -7145,-17104 2508,-17104 532,3152 5317,16194 -2508,17104 z m 13528,3858 c -5474,-10165 -1142,-35958 4779,-11775 -2200,4548 6318,10512 -4779,11775 z m -28799,-5397 c -5782,-2248 3951,-7153 -846,-7785 0,-24955 14373,4485 846,7785 z m 67015,11632 c 0,-4341 -3570,-9524 689,-17456 -6918,-2098 14131,14937 -689,17456 z m 11020,1553 c -1444,-15574 5690,-22997 5999,-1191 -1673,764 -1673,764 -5999,1191 z m 83126,49004 c -536,-5466 -1219,-5959 -1751,-13252 10029,-4766 10488,13252 1751,13252 z m 834,33442 c -16341,-6450 15127,-20613 3415,0 -1137,0 -2273,0 -3415,0 z m 833,43531 c -7139,-23760 8743,-28809 5401,-2090 -1751,698 -3576,1392 -5401,2090 z M 1390228,652411 c -1820,-2807 -13599,-2315 -15804,-4769 2816,-6306 -4476,-31542 -453,-34493 11779,2599 11931,2736 15424,-6589 2809,0 5773,45851 833,45851 z m 269746,404324 c -10259,-4064 -8893,-112248 -7825,-128724 2279,-64 4635,-205 6984,-347 309,8269 10489,129071 841,129071 z m 15266,-1614 c -5769,-7498 -6004,-70873 -5540,-83840 -2514,-6382 -5014,-32252 -2127,-39759 32214,2807 22493,5331 23399,41998 838,623 0,13387 -906,14443 1443,8619 6753,72070 -3268,62812 -611,-37431 -611,-79494 -5777,-114205 -14511,2169 6605,115543 -5781,118551 z m 137377,-1539 c 0,-3782 -3417,-64081 3734,-64081 0,2389 5770,64081 -3734,64081 z m -297698,17878 c -8439,-21876 4180,-59946 -5542,-79222 831,-29023 -5779,-58895 -2965,-84836 21881,-632 10862,50055 12307,71654 -10030,18507 15047,86309 -3800,92404 z m 21204,-58262 c -1758,-698 -7830,-100606 -538,-100606 3951,5749 538,100606 538,100606 z m 16946,-70809 c 78,-281 -7600,-38627 2953,-28117 0,3797 1143,26855 -2953,28117 z m 33962,69196 c 834,-16118 -6537,-87703 3420,-90925 146,5884 3033,86931 -3420,90925 z m -15277,7778 c -2278,-9247 -7370,-43466 2502,-45843 -67,4204 -828,45843 -2502,45843 z m 17786,42003 c -4181,-1609 -538,-38980 -2509,-46624 8283,0 10024,46624 2509,46624 z m -145889,-2312 c -1065,-10522 -11855,-64005 11471,-44312 0,14938 8355,42139 -11471,44312 z m 48400,17108 c 4556,-35475 -3497,-70884 -2439,-103628 -1819,-1328 -6149,-58402 -5233,-65132 5620,1409 5541,488 7213,6246 -1214,17109 14512,162514 459,162514 z m -19524,3077 c -4493,-8337 -4114,-68148 828,-69194 1444,10868 7756,69194 -828,69194 z m 10174,-186561 c -12609,-7780 8054,-58403 6457,-4064 -2199,2947 -2814,3012 -6457,4064 z m -42398,-770 c -7371,-2519 -689,-24748 0,-29586 22492,845 17630,28042 0,29586 z m -28032,0 c -20746,-5326 6374,-70250 6374,-1614 -2131,492 -4247,1056 -6374,1614 z m 829,49707 c -9956,-15278 -10483,-5889 -12078,-28530 -13603,-1192 11094,-8977 19755,-7990 -2282,4627 13902,36807 -6005,35475 -538,351 -1061,693 -1672,1045 z m 33129,-1538 c -12994,-3999 -4414,-14378 -8583,-25306 0,-36048 33279,25306 8583,25306 z m -839,52865 c -4096,-9465 -6000,-18372 -5473,-29868 7677,-3364 14747,-75 14747,7358 -4176,0 6536,26502 -6375,21248 -922,417 -1909,834 -2899,1262 z m -27197,6236 c -3263,-8202 -2434,-21173 -1142,-29934 -683,-25376 23324,26921 1142,29934 z m 5091,60644 c -4102,-4283 -1757,-40734 2882,-40734 -760,7573 4037,38632 -2882,40734 z m -211998,170299 c 1747,-9464 2889,-17461 2889,-26422 -4102,-8987 -57368,-37657 -29174,-46705 3419,-7710 3341,-47460 8813,-40377 0,-4070 528,-8344 1287,-12132 7220,-3017 16030,-83291 7445,-88833 -4097,-12130 -11624,-20679 -15116,-32457 -1897,-63949 -13223,-43118 -38150,-88616 -5462,-18446 -18613,-17818 3426,-24899 28344,-14227 48172,10596 68767,1544 21046,3931 71110,52166 78415,71165 1517,11431 4705,14304 1666,26503 453,17246 10415,33509 6380,50471 -18153,-3151 -1969,-27760 -18843,-36380 -144,-974 -10941,-11219 -11931,-11219 -5468,10099 2670,10662 -2965,5472 -21883,0 -28939,57140 -14585,14931 23176,0 0,-25522 0,18649 17864,-9114 13371,-43473 29717,12480 17780,0 -4114,17527 -6386,28325 4483,4139 13141,-11709 16566,-12765 14964,-25581 16033,11085 16033,26016 -17254,28389 -8283,69129 -38380,90366 -6145,10939 -22407,36044 -37914,39897 -13443,26572 -4174,23072 -27960,34986 z m 37311,-20261 c -6078,-8415 17932,-23139 27119,-25383 9811,-9042 22721,-63305 41946,-26854 6837,29027 -23623,21815 -40188,37089 -10493,3158 -18546,9117 -28877,15148 z m 108579,-53636 c -16565,-6518 94068,-33301 83273,-31687 -908,4346 -74080,30989 -83273,31687 z m -441087,454808 c -5775,-4553 -8132,-4981 -14735,-6665 0,-10159 58200,-122205 60328,-122553 2809,-9112 39124,-63452 46422,-66041 3949,-18441 41339,-39609 45362,-58191 11170,-2806 29710,-19066 35335,-27483 17102,-12056 41943,-49149 57976,-55673 -682,6106 -67550,77050 -68459,77127 -4946,16123 -44070,38838 -46050,51955 -15340,8273 -46656,60775 -48330,77748 -4633,1198 -43455,93173 -46646,104956 -5473,0 -7374,23134 -21203,24820 z m 1019323,-249382 c -3264,-844 -122480,-35193 -123018,-38839 -17399,-4836 -42173,-12335 -50299,-27412 -28419,-8697 -5468,-15918 10034,6019 47943,23772 105383,38921 157893,55113 61538,60006 5444,5481 5390,5119 z M 879863,1228687 c 3353,-3927 2862,-10545 -715,-20049 l 715,20049 z m 853792,-161723 c -2054,2871 -67985,7303 -77560,7161 -35256,11920 -79248,15148 -115645,23351 -5095,3152 -7904,3646 -13601,4696 -22037,-1820 -50903,17878 -71884,17878 13830,-9041 75305,-20337 25917,-19422 -11249,-2595 -84499,17945 -84732,19839 -22638,2390 14902,-14653 15886,-15001 1141,-6522 183200,-34495 191403,-34288 2967,3089 94824,-5813 110633,-8684 4182,0 19045,-579 19583,4470 z"
    id="pic-top-left_path2"
    style="fill:#000000" />
<path
    d="m 1785906,1086931 c -83239,38914 -142510,61901 -130971,141828 9969,68993 135632,255772 440703,399829 -13661,1676 -27350,3008 -41224,2943 l -28500,6024 -111216,5618 -6,0 -78,-22 -78,-30 -79,-19 -78,-21 -23,-5 -49,-20 -73,-24 -80,-20 -72,-21 -79,-24 -5,0 -71,-20 -79,-21 -79,-25 -85,-15 -26,-15 -46,-10 -79,-19 -72,-22 -78,-19 -84,-20 -5,-6 -74,-15 -83,-20 -79,-21 -67,-24 -56,-10 -22,-5 -78,-22 -85,-18 -83,-20 -79,-16 -22,-5 -49,-9 -74,-27 -85,-18 -84,-16 -68,-14 -9,0 -79,-27 -79,-15 -77,-15 -90,-19 -28,-10 -50,-10 -73,-17 -85,-14 -78,-26 -77,-9 -7,0 -77,-19 -85,-17 -84,-15 -77,-15 -44,-15 -41,-5 -79,-20 -83,-15 -73,-10 -83,-15 -24,0 -61,-19 -79,-16 -83,-15 -90,-16 -62,-10 -12,-4 -83,-15 -83,-20 -84,-10 -84,-16 -34,-5 -56,-10 -73,-10 -79,-15 -88,-19 -79,-10 c -3872,-2174 -7886,-3789 -12458,-5111 -6184,-1774 -11953,-2530 -18439,-2579 l -18126,-172 -44,176 c -10797,-65 -21603,-231 -32348,-307 -34248,-231 -68515,-502 -102770,-794 -22039,-186 -44075,-392 -66113,-613 -1718,-5683 -3465,-11367 -5183,-17054 -1466,-4834 -4243,-8972 -8316,-12393 -3799,-3182 -8160,-5305 -13157,-6490 -4751,-1131 -9487,-1264 -14315,-394 -4863,881 -9156,2650 -13067,5392 l -10208,7152 c -10230,6558 -20634,10953 -32659,14166 -2260,-71 -4535,100 -6784,497 -3211,559 -6274,1515 -9060,2867 -9284,1313 -18238,1198 -27780,583 -7779,-502 -15927,474 -22491,3887 -65170,-571 -157636,-196 -169662,-285 l -2055,-20 -2043,-21 -2036,-16 -1948,-9 -77,0 -2009,-25 -2010,-15 -1998,-15 -1842,-16 -144,0 -1976,-15 -1970,-20 -1958,-9 -1736,-20 -201,0 -1948,-16 -1931,-15 -1913,-20 -1640,-9 -268,-7 -1908,-14 -1887,-15 -1885,-16 -1540,-10 -329,0 -1864,-20 -1853,-14 -1852,-16 -1438,-11 -392,0 -1819,-15 -1829,-19 -1803,-11 -1348,-19 -449,0 -1790,-15 -1769,-11 -1774,-16 -1259,-4 -504,-10 -1751,-14 -1741,-16 -1735,-9 -1169,-12 -554,0 -1717,-14 -1696,-10 -1701,-24 -1092,-6 -599,-4 -1684,-11 -1669,-16 -1655,-9 -1002,-6 -650,-9 -1644,-21 -1636,-9 -1622,-10 -929,-11 -688,0 -1607,-15 -1600,-10 -1584,-10 -856,-15 -728,-5 -1572,-10 -1556,-15 -1562,-5 -771,-5 -773,-11 -1532,-9 -1524,-15 -1521,-15 -706,-6 -799,-4 -1501,-10 -1493,-17 -1495,-4 -632,-5 -834,-10 c -812,-23162 -365,-45025 1644,-64140 8843,-75352 29175,-119758 65825,-202484 8304,-18738 113744,-113647 138854,-129478 11870,-40785 165489,-103755 205333,-109517 9044,-8660 141979,-36074 160211,-37064 z"
    id="pic-top-left_path3"
    style="fill:#000000" />
</g>
</svg>