<?xml version="1.0" encoding="UTF-8" standalone="no"?>
<svg
    xmlns:dc="http://purl.org/dc/elements/1.1/"
    xmlns:cc="http://creativecommons.org/ns#"
    xmlns:rdf="http://www.w3.org/1999/02/22-rdf-syntax-ns#"
    xmlns:svg="http://www.w3.org/2000/svg"
    xmlns="http://www.w3.org/2000/svg"
    version="1.1"
    style="fill-rule:evenodd"
    preserveAspectRatio="none"
    viewBox="0 0 32 32"
    id="posters-level1-choose-button-active">
<g
    id="posters-level1-choose-button-active_g1"
    transform="matrix(9.846199203e-4,0,0,9.845850897e-4,-1494.001889,-797.9028338)">
<g
    id="posters-level1-choose-button-active_g2">
<path
    d="m 1519477,817762 387,1143 c -407,-214 -460,-520 -887,-483 -355,27 -662,-221 -886,-482 -157,330 -176,-203 -162,-203 -160,-794 -159,-599 -162,-559 -16,418 4,831 64,1244 -6,137 -26,702 -129,762 -88,-6 -24,-74 -87,0 l -65,63 c 0,191 -9,319 98,483 226,410 -99,592 -109,787 293,-28 23,37 -32,51 -698,528 1006,12965 1016,14027 126,-291 284,602 325,749 130,437 302,925 378,1371 14,-34 43,-102 43,-101 4,156 11,469 11,469 7,-25 22,-76 22,-76 10,157 32,470 32,470 47,-301 141,-901 141,-901 14,148 43,444 43,444 -31,152 -171,426 -173,533 64,-128 177,-454 173,-444 l -87,1142 c -47,-173 -140,-520 -140,-520 -22,264 -40,144 -43,127 -32,46 -76,-548 -76,-546 -58,-237 -170,-709 -173,-723 10,1049 122,2074 181,3120 5,259 45,458 142,697 100,228 206,387 377,565 175,172 332,279 555,378 237,98 425,135 681,139 187,-7 373,-11 560,-12 74,-10 850,-118 845,-77 11,51 -190,128 -236,143 4,-3 13,-11 13,-11 -233,178 112,75 199,22 118,13 39,-7 24,-11 189,-137 560,-419 560,-419 -815,80 -1290,238 -1965,326 -173,0 -313,-19 -481,-66 -15,-4 -186,-67 -186,-66 -228,-164 -104,-89 17,-42 225,79 411,106 650,98 1,3 155,-70 162,-73 -14,3 -162,29 -162,25 -231,-1 -405,-36 -619,-124 -204,-91 -344,-187 -503,-346 -154,-163 -249,-307 -337,-515 -85,-218 -119,-396 -120,-631 -7,-4 11,-163 11,-163 2,14 31,163 31,163 8,226 46,399 134,607 90,197 183,331 334,484 154,147 289,238 483,322 96,39 169,59 266,87 126,19 182,33 320,35 0,0 275,0 274,0 129,-61 398,-99 398,-99 -191,-11 -572,-33 -572,-33 191,-15 572,-44 572,-44 226,-23 203,-22 199,-22 199,-8 597,-34 597,-34 105,-89 664,-220 621,-209 285,-52 980,-22 958,-22 -209,54 -622,176 -622,176 -75,15 -224,45 -224,45 265,76 -38,102 -124,110 -195,180 -585,541 -585,541 88,0 262,44 262,44 232,79 -411,130 -461,132 l -37,33 c 547,-40 1642,-121 1641,-121 -841,243 -602,234 -1467,177 0,18 -75,33 -74,33 203,16 609,55 609,55 -97,28 -291,75 -298,77 l 410,-44 c 629,296 -217,279 -497,276 591,52 1778,121 1777,121 149,-29 1606,-196 1605,-165 1,-39 15927,563 15927,563 5,3 3276,58 3452,62 453,-7 798,-78 1218,-252 400,-179 676,-369 990,-679 304,-319 493,-603 669,-1010 172,-429 242,-782 250,-1246 168,-7012 551,-13802 1285,-20784 16,76 101,293 97,280 -82,-588 -47,-471 54,-1041 -74,137 -130,444 -130,444 -9,-85 -32,-254 -32,-254 -69,29 -65,-1209 -65,-1193 -15,29 -43,89 -43,89 -49,-776 10,-1616 59,-2393 -8,-647 -104,-1135 -341,-1735 -244,-569 -504,-966 -927,-1412 -435,-434 -823,-704 -1379,-956 -590,-246 -1068,-347 -1705,-359 -2009,267 -1062,550 -801,642 91,-1 800,-51 801,-43 550,8 967,93 1477,304 483,216 823,449 1201,823 369,386 598,732 812,1225 209,522 294,946 303,1511 -77,776 -79,759 -95,730 -18,435 -54,1307 -54,1307 l -22,-342 c 1,70 13,199 -32,253 80,338 167,705 141,1054 -100,72 -227,-467 -249,-559 -4,-253 -11,-761 -11,-761 -165,-89 -155,-68 -173,-114 -29,93 -86,279 -86,279 47,173 140,520 140,520 70,757 53,439 43,165 156,616 344,1369 400,1993 -103,46 -361,-1002 -410,-1193 l -195,-1331 c 42,334 97,1001 97,1001 -21,520 -65,1561 -65,1561 9,69 74,582 119,584 45,292 106,646 98,940 -49,264 -110,181 -108,622 -53,-451 -62,-355 -65,-330 -16,-76 -44,-229 -44,-229 -200,-484 -119,-739 -248,-1206 -297,-1350 -285,-1369 -303,-1307 -32,-197 -176,402 -194,489 14,-219 70,-243 86,-388 4,-97 10,-57 11,-51 90,-326 91,-310 97,-291 12,-68 21,-115 28,-145 -34,-199 -72,-480 -60,-668 47,9 112,415 119,495 5,7 10,26 10,25 l 87,-419 c 10,-468 14,-432 21,-406 26,163 42,189 33,356 96,-289 166,-419 151,-737 -9,-77 -105,-878 -75,-875 73,27 168,608 205,749 107,-333 96,-207 11,-546 -21,122 -9,-70 -11,-51 -28,-132 -86,-394 -86,-394 18,-101 54,-304 54,-304 28,101 86,304 86,304 5,152 -60,300 -43,419 25,-117 65,-355 65,-355 30,143 75,432 75,431 28,-100 -109,-996 -151,-1129 3,-11 37,-145 33,-146 -3,-480 -72,-842 -246,-1287 -181,-424 -373,-718 -687,-1050 -324,-321 -612,-520 -1026,-704 -437,-180 -794,-252 -1264,-254 -367,104 -335,442 -18,446 2,0 18,0 18,0 403,5 715,69 1089,225 355,159 606,331 885,607 272,285 441,540 598,903 154,383 217,700 223,1114 0,0 6,329 6,323 -6,-31 -32,-323 -22,-323 -6,-413 -67,-724 -220,-1107 -156,-362 -323,-616 -593,-899 -277,-275 -527,-450 -880,-608 -908,-213 -100,-21 -8,15 349,159 596,335 869,610 264,282 428,536 580,895 132,338 191,619 207,984 -22,-363 -85,-642 -224,-976 -157,-352 -322,-601 -590,-874 -500,-334 -349,-314 -6,4 265,274 431,522 587,873 153,371 216,680 226,1083 -3,3 33,179 31,171 -44,43 -44,2312 -44,2158 0,119 0,356 0,356 -51,-286 -18,-463 -43,-737 -15,99 -61,237 -65,267 4,-85 1,-54 0,-51 -46,-287 -294,-784 -411,-317 -8,-200 -32,-597 -32,-597 -22,68 -65,203 -65,203 -9,156 29,175 -76,318 -29,518 27,191 33,88 63,275 130,838 130,838 85,188 141,627 140,622 l -281,89 c 9,51 33,153 33,153 67,297 126,621 97,926 -127,53 -278,-923 -303,-1091 55,-200 43,-256 33,-458 18,60 54,178 54,178 29,-103 108,-304 108,-304 -149,-442 -132,-505 -141,-953 -41,10 -119,0 -119,0 -19,111 -64,274 -43,381 22,-118 65,-355 65,-355 24,775 -42,457 -65,368 -19,40 -12,-15 -11,-25 -28,-132 -86,-394 -86,-394 18,-101 54,-305 54,-305 29,98 86,292 86,292 l 119,-419 c 18,-72 54,-215 54,-215 21,24 54,76 54,76 -13,-110 -21,-345 -21,-343 -145,25 -433,76 -433,76 27,-108 243,-1033 368,-584 15,117 63,348 65,356 -10,-248 -21,-521 -4,-768 -2,-300 -45,-524 -151,-803 -115,-270 -228,-448 -419,-664 -117,-166 -3,-66 32,-35 215,200 349,392 476,659 126,288 180,528 193,843 0,1 55,176 56,184 l -12,-184 c -6,-323 -56,-569 -178,-867 -124,-283 -255,-480 -468,-701 -218,-214 -413,-348 -690,-470 -291,-120 -533,-168 -847,-171 0,0 -633,45 -627,45 33,18 100,55 100,55 -202,132 -488,-19 -759,0 62,-19 187,-55 187,-55 -74,-135 49,-243 49,-243 87,51 262,154 262,154 91,-29 273,-88 273,-88 37,2 515,32 515,31 329,7 577,59 881,187 288,132 487,269 712,495 218,230 354,437 479,731 122,310 171,563 175,897 4,315 28,45 32,0 -2,-337 -52,-597 -174,-910 -127,-300 -263,-509 -484,-744 -228,-230 -431,-373 -724,-507 -308,-131 -563,-185 -897,-192 -1,1 -371,-34 -353,-32 42,-11 352,-84 353,-82 351,0 620,51 948,182 -1,3 156,71 156,71 -13,-7 -152,-77 -152,-77 -329,-147 -594,-210 -952,-226 -52,-23 -135,-61 -167,-111 -58,6 -661,92 -659,66 -56,-99 431,-205 498,-221 -253,-99 -759,-298 -759,-298 -91,15 -273,45 -273,45 l -237,176 c -107,30 -323,89 -323,89 -319,3 -957,11 -957,11 291,-97 787,-294 1069,-332 228,-3 684,-11 684,-11 -451,-176 -375,-211 -846,-176 -526,-258 -1579,-773 -1579,-773 -184,12 -584,44 -584,44 -629,45 -1362,-107 -2027,-33 -430,53 -1287,366 -1280,364 -147,17 -411,122 -411,122 -855,148 -2013,529 -2872,784 360,10 673,-104 1082,-111 287,-52 234,-46 199,-44 126,-49 499,-79 186,33 -468,93 667,-93 560,-77 781,-170 761,-434 1355,-497 208,-11 -243,178 -296,198 339,-78 724,-173 1067,-209 -181,37 -1178,192 -808,486 17,1 -212,57 -199,55 248,11 746,33 746,33 -178,15 -535,44 -535,44 -902,319 33,457 75,464 -143,4 -382,23 -522,44 -359,2 -719,33 -1070,-55 -230,-84 361,-131 399,-133 220,-122 354,-202 432,-252 -252,6 -428,-3 -694,54 -318,9 -235,-12 -199,-22 -861,0 -820,71 -1653,320 362,-18 867,72 1181,33 238,-39 125,5 112,11 25,0 74,0 74,0 -91,11 -273,33 -273,33 -96,7 -286,22 -286,22 -957,100 -1827,151 -2785,309 l -286,77 c -96,19 -286,56 -286,56 236,40 709,121 708,121 -145,11 -435,33 -435,33 -172,-26 -405,-173 -534,-177 115,68 431,182 447,188 -273,13 -820,-11 -820,-11 -7,81 -632,234 -622,232 -319,7 -957,22 -957,22 128,-41 385,-122 385,-122 1202,178 283,15 75,-22 840,-177 849,-167 820,-187 l 510,-155 c -38,0 -112,-22 -112,-22 -19,-47 395,-64 485,-88 -13,-19 8,-13 12,-11 1142,-600 -40,-210 -261,-155 -752,-43 -387,22 -323,33 91,4 274,11 274,11 -295,30 -883,89 -883,89 -190,11 -175,11 -162,11 -309,15 -684,-1 -982,44 -304,111 -933,276 -933,276 -190,15 -572,44 -571,44 377,15 1131,44 1131,44 l -186,22 24,0 c -132,11 -398,33 -398,33 -70,8 -207,11 -232,11 l 21,0 c -442,36 -1330,56 -1330,56 52,47 -983,327 -958,320 -431,62 -1293,187 -1293,187 195,-55 585,-165 585,-165 1838,-85 -259,-23 112,-33 453,-124 1006,-270 1467,-321 -198,-50 -74,-62 -50,-66 211,-73 634,-220 634,-220 2687,169 -403,-92 149,-45 236,-248 -308,-57 -385,-33 25,0 74,0 74,0 -33,4 -99,11 -99,11 13,0 37,11 37,11 -750,272 -688,264 -659,265 -62,4 -186,11 -186,11 15,7 50,11 50,11 -689,153 -1319,441 -2064,585 -128,22 -1059,220 -883,-176 -280,-224 -334,-221 -361,-221 -519,170 -1303,536 -1703,651 l 2382,628 -1010,0 c -936,-255 -2220,-628 -2143,-606 -87,120 -57,348 26,606 l -242,0 0,932 c -453,-255 -1319,-748 -1310,-753 -41,-231 -37,-409 8,-639 55,-235 129,-402 262,-602 148,-207 289,-342 501,-481 237,-147 440,-221 714,-266 -282,7 -496,52 -757,163 -246,113 -420,235 -611,428 -186,198 -302,376 -408,628 -104,265 -145,484 -147,769 0,0 9,101 9,100 l 456,2805 z m 23439,-3084 c 384,-96 774,-184 1012,-219 -77,62 -239,139 -440,219 l -572,0 z m 2535,7960 c 253,-1507 343,-91 388,413 -1,40 -14,9 -32,-13 l -356,791 0,-1191 z m 0,1702 c 73,565 191,1527 247,1504 9,27 -138,1475 -247,3064 l 0,-4568 z m 0,8118 139,507 c 10,115 11,343 11,343 115,-562 197,-845 -21,-1422 -43,218 -98,109 -129,-5 l 0,-1113 c 69,283 150,649 150,649 0,-136 11,-407 11,-407 813,3498 582,2657 54,5459 -25,-292 -76,-876 -76,-876 47,-664 17,-366 -10,-165 -15,-239 -56,-1010 -33,-1206 2,-254 29,-415 -21,-673 -18,-215 -54,-647 -54,-647 l -21,-22 0,-422 z m 0,5829 21,99 0,546 -21,-24 0,-621 z m 0,1070 21,6 c 24,42 216,89 216,89 -49,85 -94,172 -145,257 -15,38 -31,61 -61,89 0,0 -31,22 -31,22 l 0,0 0,-463 z m -35,531 c -13,18 -27,32 -46,48 -35,25 -55,34 -94,48 -88,46 -64,56 0,78 0,1 0,1 0,1 -21,4 -121,0 -108,0 -303,-96 -543,-145 -785,-175 l 1033,0 z m -1862,0 c -48,37 -164,54 -164,54 129,26 108,30 100,33 -25,7 -75,22 -75,22 -58,10 -174,33 -174,33 11,41 -12,122 -12,122 320,-204 485,-192 845,-243 -519,126 -306,121 -274,121 -181,71 -433,158 -621,188 -89,-27 -188,-182 -373,-199 4,0 12,0 12,0 -16,-11 -50,-33 -49,-33 -209,35 -622,122 -622,122 58,10 174,33 174,33 -95,3 -286,11 -286,11 -120,7 -259,-1 -373,22 104,20 311,66 311,66 -759,24 -451,-42 -361,-66 -270,-127 60,-221 162,-254 -10,-11 -18,-22 -24,-32 l 1804,0 z m -5819,0 c -70,48 -143,100 -288,142 17,0 50,0 50,0 -9,0 -25,11 -25,11 -157,18 -111,0 -87,-11 -1700,-210 -1443,439 -2537,508 71,0 212,0 212,0 -88,20 -261,66 -261,66 -9,-7 -25,-22 -25,-22 -142,7 -307,-12 -435,55 l 323,0 c 54,-3 162,-11 162,-11 414,-33 1243,-77 1243,-77 760,-164 1346,-327 2151,-453 -54,19 -162,56 -162,56 4,0 13,0 13,0 l -361,99 12,0 c -74,17 -219,54 -223,55 l 25,0 c -598,281 -434,258 -386,254 0,-108 107,-47 274,-44 303,-73 594,-209 907,-276 597,-44 1791,-132 1791,-132 -253,73 -759,220 -759,220 -317,19 -773,-91 -1057,-44 298,43 911,89 908,88 -282,227 822,62 1157,67 103,63 -2578,236 -2848,265 -772,157 -584,25 -1144,0 -212,41 -455,87 -671,66 -29,-5 -106,-18 -50,-56 -215,-7 -646,-22 -646,-22 -116,38 -252,84 -373,89 -45,-1 -43,-7 -13,-33 46,-22 137,-67 137,-66 -75,-4 -224,-12 -224,-12 -369,97 -1119,243 -1119,243 43,64 34,112 0,177 331,-57 650,-141 982,-188 l -111,44 559,-77 c -195,55 -584,166 -584,166 l -348,44 c 157,-5 259,21 422,22 -192,494 -2581,599 -2524,596 44,-94 655,-257 833,-309 54,-90 490,-264 610,-298 -46,-26 -137,-78 -137,-78 -522,54 -234,-56 -162,-88 -37,-22 -112,-66 -112,-66 136,-57 293,-87 435,-44 58,-20 175,-55 175,-55 -63,0 -187,0 -187,0 l 210,-11 c -30,-1 -86,-11 -86,-11 66,-13 199,-23 199,-23 98,-47 299,-132 299,-132 248,-51 746,-154 746,-154 -25,-15 -75,-45 -75,-45 -29,22 -48,-10 -37,23 -105,-8 -62,-19 -50,-23 29,-3 87,-11 87,-11 -448,-66 -1343,-198 -1343,-198 -371,48 -1119,99 -1119,99 -88,2 -1083,-65 -1081,-44 -1980,-113 -1507,-168 -1318,-276 97,-10 55,-30 -2,-65 l 2006,0 -201,76 c 246,-34 746,-66 745,-66 l 18,-10 5480,0 z m -16975,-7016 c -139,286 -356,720 -356,720 108,-330 325,-990 325,-990 7,-142 18,-308 31,-485 l 0,755 z m 0,-7184 c -25,-220 -42,-436 -42,-436 -238,834 -714,2501 -714,2501 43,-200 63,-631 65,-838 -190,392 -40,-131 -11,-241 -14,-182 -43,-546 -43,-546 126,-368 378,-1105 378,-1104 -148,184 -302,12 -302,12 101,-173 302,-520 302,-520 47,111 65,235 55,355 79,-228 237,-685 237,-685 18,-436 54,-1308 54,-1308 6,68 13,136 21,203 l 0,2607 z m -1761,10901 0,-1 0,1 z m 2098,4711 0,0 0,0 z m 1131,529 c -4,1 -4,1 1,0 l -1,0 z m 374,254 0,0 0,0 z m 26296,-25531 0,-1 0,1 z m -432,306 0,-2 0,2 z m -491,1250 c 24,-118 9,0 5,30 l -5,-30 z m 156,-567 c 11,-53 4,-16 0,1 l 0,-1 z m -843,-1916 0,0 0,0 z m 183,-584 0,0 0,0 z m -9832,-3453 c -5,2 -7,3 -2,1 l 2,-1 z m -847,729 c 2,0 2,0 -1,0 l 1,0 z m 432,-252 c 22,-14 39,-26 52,-36 14,9 19,20 0,34 l -52,2 z m 52,-36 c 96,-70 -3,-40 -74,-21 7,1 52,8 74,21 z m -5570,851 0,0 0,0 z m -2511,298 -1,0 1,0 z m -606,44 -4,0 4,0 z m 6073,27415 25,0 c -9,0 -25,0 -25,0 z m 3046,-386 0,0 0,0 z m -211,55 0,0 0,0 z m -3220,640 0,0 0,0 z m -373,133 0,0 0,0 z m -437,-331 1,0 -1,0 z"
    id="posters-level1-choose-button-active_path1"
    style="fill:#000000;fill-rule:nonzero" />
<path
    d="m 1525244,833180 c 52,-72 1126,-1483 887,-1480 -439,135 -515,336 -983,312 -351,-15 -695,114 -983,313 -176,-216 -193,131 -180,131 -4,141 -117,857 -180,362 -18,-272 5,-541 72,-806 -8,-110 -30,-455 -144,-493 -95,4 -27,47 -96,0 l -72,-41 c 0,-143 -3,-213 108,-313 252,-266 -109,-382 -120,-509 324,17 24,-24 -36,-33 -594,-263 1119,-8578 1127,-9085 143,188 300,-358 360,-485 136,-265 338,-606 420,-888 16,22 48,66 48,66 4,-102 12,-304 12,-304 8,16 24,49 24,49 12,-102 36,-304 36,-304 52,194 156,583 156,583 16,-96 47,-287 47,-287 -36,-103 -189,-278 -191,-346 61,72 185,276 191,288 l -96,-740 c -51,112 -155,337 -155,337 -25,-170 -43,-97 -48,-82 -37,1 -89,309 -84,353 -64,154 -188,459 -192,469 18,-881 211,-1688 228,-2573 2,-8 18,-76 18,-76 10,-280 58,-493 167,-750 111,-242 228,-410 415,-598 188,-180 359,-291 597,-393 251,-99 453,-137 723,-138 0,0 169,14 168,5 31,-15 -12,-74 -153,-159 2,4 8,12 8,12 -2,-1 -23,-12 -23,-12 -292,-10 -519,24 -794,121 -276,108 -456,217 -682,406 -131,83 -48,-5 -27,-28 205,-213 406,-342 675,-459 287,-112 520,-154 828,-149 55,22 114,48 151,96 160,-48 41,4 17,13 123,154 362,465 362,465 -37,-6 -530,-102 -530,-102 -240,-3 -422,29 -646,115 -216,89 -367,187 -539,346 -169,166 -277,317 -379,533 -103,231 -149,424 -163,676 -78,203 -127,245 -169,479 -14,131 158,-124 167,-140 -56,178 -27,221 -11,395 13,-42 82,-229 71,-264 0,-68 0,-205 0,-205 84,-112 69,-141 109,-263 12,126 35,378 35,378 17,-126 48,-378 48,-378 1,0 2,-2 2,-2 14,-226 41,-369 128,-582 214,-324 232,-363 214,-344 36,-41 107,-121 107,-121 145,-142 277,-229 462,-311 193,-78 355,-109 564,-110 0,-1 210,22 208,22 63,92 421,241 402,233 169,52 643,24 620,24 -136,-61 -402,-196 -402,-196 -48,-16 -145,-49 -145,-49 172,-83 -19,-113 -81,-122 -126,-200 -378,-600 -378,-600 61,-1 116,-18 169,-49 161,-94 -312,-149 -298,-147 -8,-12 -24,-36 -24,-36 354,44 1063,134 1063,134 -546,-270 -364,-262 -950,-196 -1,-21 -49,-36 -49,-36 132,-19 395,-62 395,-62 -63,-31 -193,-85 -193,-85 88,16 265,49 265,49 412,-326 -134,-310 -322,-306 382,-58 1152,-135 1152,-135 95,32 1042,218 1039,184 3,42 10315,-625 10315,-625 3,-4 2119,-64 2235,-68 503,6 887,84 1352,277 442,198 754,411 1100,754 338,352 547,669 743,1120 192,476 270,868 279,1383 193,4581 605,8810 1420,13331 14,-38 117,-198 108,-181 -94,392 -55,298 60,674 -86,-97 -104,-168 -144,-288 -10,56 -36,165 -36,165 -76,-19 -72,774 -72,773 -16,-19 -48,-58 -48,-58 -66,660 63,1509 133,2177 -9,729 -115,1278 -381,1954 -272,637 -569,1091 -1042,1590 -488,489 -928,794 -1553,1077 -660,277 -1204,393 -1918,405 -1076,71 -683,-225 -1,-656 620,-26 1085,-135 1653,-389 532,-257 900,-525 1310,-955 371,-410 604,-774 822,-1286 4,-10 37,-86 37,-86 233,-562 320,-1039 336,-1653 -34,-1127 -15,-1137 -56,-1101 -20,-282 -60,-847 -60,-847 l -23,222 c 1,-53 13,-129 -36,-164 84,-209 186,-453 155,-683 -110,-46 -242,280 -275,362 -4,165 -12,494 -12,493 -173,35 -182,58 -192,75 -32,-61 -96,-181 -96,-181 52,-113 156,-338 156,-338 76,-508 58,-270 48,-106 159,-371 383,-901 443,-1291 -115,-29 -392,629 -455,773 l -216,862 c 46,-215 108,-649 108,-649 -24,-337 -72,-1011 -72,-1011 11,-54 81,-377 132,-378 47,-180 117,-423 108,-608 -39,-123 -122,-72 -120,-403 -58,292 -67,233 -72,213 -18,49 -48,148 -48,148 -239,338 -120,453 -276,782 -327,875 -315,889 -336,846 -37,136 -205,-290 -215,-319 18,177 76,152 96,254 4,63 10,38 12,32 26,54 54,280 107,190 l 31,93 c -37,125 -80,312 -67,433 51,-5 124,-262 132,-321 5,-3 12,-16 12,-16 129,362 103,289 96,271 9,305 15,284 24,263 30,-112 48,-113 36,-230 99,173 185,266 168,477 -10,46 -117,571 -84,567 80,-17 183,-386 228,-485 118,213 108,132 12,353 -21,-66 -16,12 -12,33 -31,86 -96,255 -96,255 20,66 60,198 60,198 32,-66 96,-198 96,-198 7,-112 -67,-190 -48,-271 27,75 72,230 72,230 33,-91 84,-279 84,-279 31,66 -127,655 -168,731 203,540 -425,547 -444,288 5,-134 12,-403 12,-403 -39,369 -67,234 -72,214 -42,96 12,-80 24,-115 -41,-24 -48,-1444 -48,-1398 0,-77 0,-230 0,-230 -64,210 -17,280 -48,477 -22,-85 -72,-173 -72,-173 4,55 1,36 0,33 -68,247 -339,478 -455,206 -9,129 -36,386 -36,386 -24,-44 -72,-131 -72,-131 -12,-113 31,-115 -84,-206 -39,-349 31,-113 36,-58 66,-165 122,-366 144,-542 89,-115 156,-403 156,-403 -36,-8 -302,-78 -312,-58 10,-33 36,-98 36,-98 71,-185 141,-400 108,-601 -50,-308 -311,635 -335,709 60,128 47,158 35,295 20,-39 60,-116 60,-115 34,69 120,197 120,197 -166,287 -145,304 -156,616 -44,-6 -132,0 -132,0 -21,-71 -71,-177 -48,-246 25,76 72,230 72,230 29,-503 -41,-310 -72,-238 -27,-92 -8,36 -12,16 -31,85 -96,255 -96,255 20,66 60,197 60,197 32,-63 96,-189 96,-189 15,34 110,270 132,271 20,47 60,140 60,140 21,-14 60,-49 60,-49 -14,67 -24,224 -24,222 -160,-17 -480,-50 -480,-50 50,117 277,654 408,379 17,-77 70,-226 72,-230 -22,414 -87,866 204,378 -28,238 -84,715 -84,715 -20,-22 -60,-66 -60,-66 -35,27 -52,53 -60,97 -9,333 -56,580 -174,891 -122,295 -251,500 -464,736 -222,231 -419,375 -705,512 -306,136 -555,193 -888,202 -35,5 -57,6 -91,-1 8,4 90,46 90,46 130,4 245,0 373,-15 -296,136 -251,311 462,160 16,-7 180,-86 180,-86 317,-172 534,-346 771,-621 222,-272 357,-512 471,-847 -1,0 15,-46 15,-46 137,-319 197,-584 216,-931 0,0 57,-108 56,-105 -151,-1457 12,-354 48,-107 39,-95 108,-288 108,-288 36,61 89,138 156,165 -6,33 -76,335 -68,335 -11,415 -73,726 -226,1109 l -127,269 c -132,402 128,-65 214,-231 178,-390 252,-716 274,-1146 39,-77 70,-149 100,-229 14,21 148,228 148,228 11,476 -46,836 -204,1284 -166,430 -351,734 -653,1078 -316,340 -604,555 -1017,760 -212,100 -402,168 -628,227 -58,11 -682,87 -668,58 0,0 -140,-39 -139,-38 1394,-344 1368,-401 1351,-448 -1600,206 -1657,180 -1714,154 -206,-5 -620,-13 -620,-13 165,94 532,331 693,368 36,1 428,11 428,11 86,0 169,-3 254,-9 -46,5 -253,19 -253,19 -275,185 -227,226 -534,187 -341,285 -1022,857 -1022,857 -111,-13 -379,-49 -379,-49 -362,-45 -896,116 -1312,37 -277,-59 -845,-412 -830,-405 -104,-20 -266,-134 -266,-134 -455,-108 -1998,-940 -1860,-869 245,-13 388,113 701,122 189,57 147,51 129,49 188,125 297,72 120,-37 -303,-103 431,103 363,86 633,235 419,468 877,551 137,12 -166,-203 -192,-220 206,81 478,193 692,232 -216,-75 -745,-238 -524,-539 13,-1 -136,-63 -129,-61 162,-12 484,-37 484,-36 -116,-17 -347,-49 -347,-49 -587,-351 22,-507 49,-515 -85,0 -287,-53 -339,-49 -239,-2 -465,-35 -692,62 -157,98 268,148 258,147 143,136 229,224 279,280 -174,-7 -265,7 -448,-60 -207,-12 -156,11 -129,24 -587,-1 -534,-81 -1071,-355 220,19 601,-72 765,-36 154,44 84,-3 72,-13 16,0 49,0 49,0 -60,-12 -178,-36 -178,-36 -61,-9 -185,-25 -185,-25 -648,-116 -1154,-159 -1804,-342 l -185,-86 c -61,-21 -185,-62 -185,-62 153,-44 459,-134 459,-134 -94,-12 -282,-37 -282,-37 -117,31 -264,192 -346,196 66,-66 277,-200 290,-208 -176,-14 -532,12 -532,12 -4,-90 -411,-261 -402,-257 -207,-8 -620,-25 -620,-25 83,45 249,135 249,135 308,-48 148,-5 49,25 117,46 614,106 531,208 l 330,171 c -26,0 -72,25 -72,25 -11,57 235,62 314,98 -8,21 5,13 8,12 519,554 115,292 -169,171 -977,237 -231,-26 -209,-36 l 177,-13 c -191,-32 -572,-98 -572,-98 -123,-12 -113,-12 -105,-12 -188,-16 -464,-5 -636,-49 -191,-120 -604,-306 -604,-306 -123,-16 -370,-49 -370,-49 244,-16 733,-49 732,-49 l -120,-24 16,0 c -86,-13 -258,-37 -258,-37 -45,-9 -134,-12 -150,-12 l 13,0 c -284,-39 -862,-62 -862,-62 35,-52 -620,-355 -620,-355 l -837,-207 378,183 c 1194,94 -172,25 73,37 271,127 664,301 950,355 -108,2 -229,23 -32,73 137,82 411,245 411,245 1426,-153 342,13 97,49 302,141 278,323 -250,37 16,0 48,0 48,0 -21,-4 -64,-12 -64,-12 8,-1 24,-13 24,-13 -488,-297 -464,-290 -427,-294 -40,-4 -121,-12 -121,-12 9,-7 32,-12 32,-12 -446,-169 -812,-475 -1336,-649 -206,-60 -674,-201 -572,196 -181,248 -215,245 -234,245 -306,-171 -941,-643 -1103,-722 l 1542,-697 -656,0 c -609,285 -1444,702 -1385,672 -56,-133 -37,-386 16,-672 l -237,0 0,-556 c -405,132 -1079,355 -1076,357 -86,205 -115,376 -112,599 13,246 61,422 165,645 124,243 254,404 461,580 242,195 458,301 757,381 -313,-9 -551,-61 -839,-185 -272,-128 -460,-260 -672,-477 -204,-219 -330,-417 -446,-695 2,-1 -51,-141 -51,-141 -85,-245 -124,-447 -131,-706 l 63,-1012 z m 17292,-4645 c 273,976 380,51 430,-278 -1,-26 -18,-4 -36,8 l -394,-512 0,782 z m 0,-1115 c 83,-372 221,-1009 274,-972 8,-15 -155,-976 -274,-2018 l 0,2990 z m 0,-4161 c 77,-183 167,-420 167,-420 0,88 12,263 12,263 985,-2476 584,-1913 60,-3535 -28,189 -84,567 -84,567 62,457 13,213 -12,107 -10,73 -34,780 -36,781 2,175 33,262 -24,435 -20,140 -60,420 -60,420 l -23,14 0,167 0,1 0,105 155,-328 c 10,-74 12,-222 12,-222 128,367 217,549 -24,921 -43,-145 -108,-78 -143,-1 l 0,725 z m 0,-4870 23,-64 0,-354 -23,16 0,402 z m 0,-693 23,-4 c 30,-29 242,-56 240,-58 -1,0 -32,-34 -34,-36 -26,-58 -54,-98 -104,-138 -40,-30 -76,-48 -125,-56 l 0,292 z m -70,-297 -28,-35 c -30,-32 -58,-50 -97,-71 -53,-47 -46,-59 0,-87 1,0 0,0 0,0 -14,-3 -77,-1 -69,-1 -199,108 -347,162 -498,194 l 692,0 z m -1239,0 c -21,-29 -68,-43 -107,-59 24,0 126,3 65,-37 -16,-8 -48,-25 -48,-25 -38,-11 -113,-36 -113,-36 7,-45 -8,-135 -8,-135 200,217 280,204 547,269 -337,-139 -200,-134 -177,-134 -103,-70 -286,-176 -402,-208 -52,26 -124,202 -242,220 3,0 8,0 8,0 -11,12 -32,37 -32,37 -136,-39 -403,-135 -403,-135 38,-12 113,-37 113,-37 -62,-4 -185,-12 -185,-12 -77,-8 -172,-1 -242,-24 68,-23 201,-74 201,-74 -492,-29 -304,41 -233,74 -257,43 -402,-6 104,281 -6,12 -11,24 -15,35 l 1169,0 z m -3774,0 c -48,-55 -94,-113 -182,-157 11,0 33,0 32,0 -8,0 -16,-13 -16,-13 -102,-20 -74,-2 -56,13 -1117,236 -928,-486 -1643,-563 46,0 137,0 137,0 -58,-22 -169,-74 -169,-74 -5,8 -16,25 -16,25 -106,-9 -200,13 -282,-62 l 210,0 c 34,4 104,13 104,13 268,37 805,85 805,85 525,193 794,342 1393,502 -34,-20 -104,-61 -104,-61 3,0 8,0 8,0 l -234,-110 8,0 c -49,-19 -145,-61 -145,-61 6,0 17,0 17,0 -50,-23 -715,-351 -250,-282 -1,108 16,54 177,49 197,81 377,228 588,306 386,49 1159,147 1159,147 -163,-82 -491,-245 -491,-245 -195,-19 -518,96 -684,49 187,-47 592,-98 588,-98 -185,-250 532,-69 749,-73 66,-72 -1645,-258 -1844,-294 -551,-192 -417,-25 -741,0 -134,-44 -294,-97 -435,-73 -33,9 -64,26 -32,61 -140,8 -419,24 -419,24 -70,-39 -162,-92 -242,-98 -33,1 -23,14 -8,37 30,24 89,74 89,73 -48,5 -145,13 -145,13 -235,-106 -725,-270 -725,-270 28,-71 22,-124 0,-196 217,65 416,155 636,209 l -72,-49 362,85 c -126,-61 -378,-183 -378,-183 l -225,-49 c 118,6 142,-23 273,-25 -123,-541 -1636,-661 -1634,-661 -222,-21 459,307 539,344 -23,64 332,299 395,329 -30,29 -89,86 -89,86 -339,-63 -164,54 -105,98 -24,24 -72,74 -72,74 80,59 188,96 282,48 36,23 112,62 112,62 -40,0 -120,0 -120,0 l 136,12 c -20,0 -56,12 -56,12 41,14 129,25 129,25 62,51 193,147 193,147 161,57 483,171 483,171 -16,16 -48,49 -48,49 -19,-24 -31,12 -24,-25 -32,-13 -124,-25 -32,25 18,4 56,12 56,12 -290,74 -870,221 -870,221 -238,-53 -724,-111 -724,-111 -259,-5 -438,65 -701,49 -2272,-362 -1305,-137 -854,306 62,11 36,34 0,72 l 1299,0 c -59,-38 -110,-70 -131,-84 158,37 484,74 483,74 l 12,10 3544,0 z m -10328,5255 c -155,-186 -394,-466 -394,-466 120,213 359,641 359,641 9,91 21,199 35,314 l 0,-489 z m 0,4654 c -27,141 -47,281 -47,281 -263,-540 -791,-1620 -791,-1620 40,117 69,419 72,543 -210,-256 -42,91 -12,156 -16,118 -48,354 -48,354 140,238 420,715 420,715 -107,-68 -228,-76 -336,-8 112,112 336,337 336,337 48,-69 72,-146 60,-230 88,148 263,444 263,444 20,282 60,847 60,847 7,-44 15,-88 23,-132 l 0,-1687 z m 14479,7082 564,0 43,244 c 0,-1 -299,-118 -607,-244 z m -16432,-14143 0,0 0,0 z m 419,-2310 1,0 -1,0 z m 596,-1265 -12,15 -2,2 -2,3 -2,1 0,1 m 20191,15772 0,0 0,0 z m -480,-198 0,1 0,-1 z m -545,-810 c 27,79 10,0 5,-19 l -5,19 z m -762,1609 0,0 0,0 z m -6436,4750 c -1,-1 -2,-2 -1,-1 l 1,1 z m -269,-528 34,40 c 10,-10 14,-23 1,-39 l -35,-1 z m 34,40 c 60,75 -5,42 -47,22 13,-2 35,-10 47,-22 z m -3607,-945 0,0 0,0 z m -128,270 c 1,-1 1,-1 -1,0 l 1,0 z m -1498,-600 0,0 0,0 z m -392,-49 -3,0 3,0 z m 3191,-19437 16,0 c -6,0 -17,0 -16,0 z m 1972,429 0,0 0,0 z m -2222,-771 0,0 0,0 z m -241,-147 -1,0 1,0 z m -822,-342 c 9,4 10,4 0,-1 l 0,1 z m 539,709 1,0 -1,0 z"
    id="posters-level1-choose-button-active_path2"
    style="fill:#FFCC00;fill-rule:nonzero" />
</g>
</g>
</svg>