<?xml version="1.0" encoding="UTF-8" standalone="no"?>
<svg
    xmlns:dc="http://purl.org/dc/elements/1.1/"
    xmlns:cc="http://creativecommons.org/ns#"
    xmlns:rdf="http://www.w3.org/1999/02/22-rdf-syntax-ns#"
    xmlns:svg="http://www.w3.org/2000/svg"
    xmlns="http://www.w3.org/2000/svg"
    version="1.1"
    style="fill-rule:evenodd"
    preserveAspectRatio="none"
    viewBox="0 0 360 32"
    id="search-input">
<g
    id="search-input_g"
    transform="matrix(3.201662469e-4,0,0,3.199998484e-4,-303.6111412,-321.5934476)">
    <path
        d="m 949763,1067381 c 4,-3352 2410,-33817 2410,-33817 207,-1599 428,-3198 644,-4796 510,-2918 2132,-5112 6038,-7806 3834,-2499 7880,-4281 14355,-6301 76,13 10128,-2815 10588,-2632 3343,-667 6362,-1160 10025,-1671 8785,-1128 15683,-1633 25289,-1782 23,5 21064,-308 19753,-297 42208,-346 130594,961 129774,949 32854,424 101010,-1 100555,0 5636,89 16918,269 16918,269 l 24601,-394 c 26186,246 52210,598 78415,268 21216,-91 63659,-268 63654,-268 8110,56 85489,592 85489,536 33192,-323 67376,-1716 100564,-2039 20419,5 40771,34 61190,143 37536,371 75085,1767 112549,2165 15855,99 22316,-964 39063,-1754 25574,-1091 36680,-1050 60880,-1214 15503,-256 52778,-811 66119,-1771 1527,-161 13688,-189 13688,-189 11611,108 20279,765 30602,2257 0,0 13277,2295 12840,2443 4055,964 7178,1797 10746,2917 7169,2359 11625,4456 15743,7341 3825,2921 5546,5265 6127,8360 -63,0 68,470 68,470 -284,29 3343,11362 2861,11362 -365,4990 -1902,10170 -2915,15174 482,2545 1460,7632 1460,7631 950,463 2852,1388 2852,1388 -636,2283 -1902,6852 -1902,6849 -171,-924 -509,-2776 -509,-2773 -955,693 -2856,2080 -2856,2080 761,3810 1464,5949 3365,9712 -4,28 -63,330 -54,330 -559,3352 -2424,5888 -6853,9003 -4415,2908 -9133,5003 -16738,7330 -7641,2234 -14639,3655 -24641,4956 -59,-22 -5389,598 -5389,598 -8353,882 -15864,1186 -24807,1207 0,0 -121083,-532 -121083,-532 0,0 -187891,1908 -187891,1897 -67583,-278 -136284,-968 -203881,-1629 -25844,-439 -27137,-440 -27678,-447 l -86412,-89 c -2186,0 -49201,89 -49201,89 -20983,-202 -42370,-1149 -63655,-1270 -10547,0 -20518,-53 -31061,-179 l -32598,-179 c -6623,0 -73188,-103 -73188,-87 -12688,7 -25159,93 -37829,266 -3789,30 -11377,90 -11377,90 l -21216,-716 c -1857,-3 -25470,43 -26142,-644 11548,-790 29417,-1716 43673,-2413 l -43668,0 c -29737,0 -54067,-7763 -54067,-17251 l 0,-51753 c 0,-8998 21884,-16445 49507,-17189 -5857,66 -10858,407 -16837,1062 -7502,913 -12566,1922 -18419,3538 -6001,1748 -9691,3325 -13291,5542 -3695,2426 -5312,4407 -5970,7047 9,0 -1221,5570 -1208,5488 -1338,17690 -1473,17622 -1396,17952 -59,5723 -316,11538 -947,17255 -662,3671 -1793,7390 -2829,11058 -478,2876 266,5268 3140,8023 9,0 63,57 63,57 2952,2707 6493,4717 12449,6998 6331,2286 12355,3796 21204,5273 9650,1493 17621,2168 28596,2426 -11079,-121 -19229,-709 -29187,-2081 -9367,-1404 -15720,-2847 -22649,-5109 -6704,-2309 -10750,-4350 -14355,-7153 -3478,-2954 -4726,-5323 -4623,-8434 5,0 1469,-13157 1465,-13140 z m 842554,30391 12814,393 c 6456,-90 19369,-268 19369,-268 l 784,-125 -32967,0 z m 146918,0 7961,393 c 482,-59 1690,-207 2965,-393 l -10926,0 z m 63952,-2035 c 2487,-191 4942,-455 7601,-809 -5,-10 1117,-158 1112,-158 5844,-851 9886,-1771 14112,-3183 4587,-1642 7177,-3105 8858,-5135 1464,-2149 1117,-3787 -23,-5931 -2104,-4346 -2699,-8430 -2919,-12816 l -63,-3042 0,15858 c 0,6565 -11647,12304 -28678,15216 z m 28678,-41416 c 121,-8518 509,-17036 869,-25553 l -951,-3090 c -139,-204 -2158,-2287 -2158,-2287 -811,-621 -1640,-1181 -2563,-1713 3081,2165 4803,4567 4803,7090 l 0,25553 z"
        id="search-input_path1"
        style="fill:#FFFFFF" />
<!--
<path
    d="m 2098452,1053045 c 0,2436 -500,25930 -500,25930 -174,2707 -1270,4759 -3908,7252 -2699,2363 -5564,4013 -10155,5849 -4679,1768 -8860,2866 -14791,3867 -4629,729 -8562,1098 -13517,1269 7,24 -4343,73 -4327,49 -25,33 -72325,-833 -72328,-710 -17531,-65 -33850,197 -51240,380 -42704,325 -129844,-881 -129484,-877 -33157,-398 -100526,1 -100331,0 -5626,-82 -16878,-247 -16875,-247 l -24548,363 c -26102,-228 -52132,-550 -78240,-248 -21171,82 -63514,248 -63514,248 -8090,-52 -85298,-547 -85298,-495 -33297,294 -67028,1583 -100334,1883 -20361,0 -40700,-30 -61058,-132 -37434,-337 -74890,-1636 -112300,-1999 -14990,-87 -23421,941 -38966,1620 -22840,902 -38597,976 -60753,1124 -18279,274 -48935,503 -65969,1636 -1525,149 -13653,173 -13653,173 -7543,-73 -13290,-592 -20203,-1807 -6508,-1235 -11115,-2552 -16104,-4622 40,-23 -3175,-1378 -3060,-1414 -3343,-1710 -5542,-3173 -7729,-5176 -2799,-2758 -3930,-5002 -4082,-7986 52,-5 -311,-12287 -386,-12287 -444,-5516 -1730,-11150 -1892,-16627 221,-7115 1168,-14429 1892,-21557 -49,-575 -602,-6899 -602,-6899 -66,-2006 357,-3589 1506,-5542 10,-960 516,-2872 516,-2872 6,-6 90,-77 90,-77 3284,-2725 6723,-4625 12169,-6717 3619,-1328 6906,-2276 11205,-3222 -4122,1044 -7232,2047 -10624,3455 0,0 -118,49 -118,49 12,-4 139,-39 139,-40 2980,-813 5574,-1402 8867,-1992 2842,-802 5352,-1384 8493,-1972 7030,-1203 12399,-1709 19923,-1936 133,41 11454,-421 12358,-461 l 73931,876 c 13007,16 138405,792 138380,579 0,0 187471,-1755 187471,-1753 67647,249 135774,896 203430,1504 25875,407 26956,407 27615,413 l 71231,84 c 2178,0 49094,-84 49094,-84 21084,200 42315,1063 63511,1174 10417,1 20575,52 30992,166 l 32523,164 c 6607,0 73023,99 73023,84 12616,-13 25136,-85 37743,-248 3783,-28 26337,-83 26337,-83 l 21172,661 c 1416,3 25626,-37 26080,595 -21883,1387 -80955,3206 -80955,3206 -20147,260 -60445,777 -60445,777 6750,78 20252,231 20252,231 5930,-192 17797,-579 17794,-577 6139,-100 18413,-298 18410,-298 -22691,693 -47155,1317 -69958,1123 4915,427 14676,1227 15027,1256 -1951,-78 -5822,-247 -5822,-247 7366,606 22094,1817 22094,1817 302,65 920,182 920,182 -4688,265 -14117,645 -14113,645 2249,89 6750,264 6750,264 -23097,613 -70930,614 -70572,612 -19022,106 -57072,49 -57069,49 2147,-192 6443,-578 6443,-578 -9773,-58 -15225,376 -23318,446 -8288,-87 -24856,-396 -24856,-396 -4150,-143 -12274,-860 -12271,-860 -5318,0 -15955,0 -15955,0 -5216,-308 -15648,-925 -15648,-925 4343,582 8931,882 13501,925 714,0 1432,0 2147,0 l 2755,182 c -10736,-316 -32212,-843 -32212,-843 l -180463,-2991 c -76512,356 -148188,-578 -224598,-1504 -7363,-210 -22094,-629 -22091,-629 -6443,84 -19332,248 -19329,248 -4322,727 -12629,852 -17183,877 -10538,-33 -21594,-481 -31911,-364 -13669,206 -41517,116 -41423,116 4911,164 14731,495 14728,495 820,293 2457,877 2454,877 -16362,-750 -49093,-2249 -49090,-2249 -886,101 -6847,759 -7059,1257 -1475,35 -12277,346 -12274,363 0,0 -48786,264 -48783,264 -30746,-31 -51411,1128 -80768,1887 -4098,137 -7158,455 -10914,1136 -3532,688 -6005,1397 -8791,2511 27,17 -1352,554 -1299,571 -2032,973 -3389,1843 -4641,3011 -1523,1501 -2097,2708 -2172,4328 208,18 -658,50011 -690,50011 -52,2453 -111,4906 -205,7359 -6,1677 553,2936 2042,4503 1571,1521 3268,2568 6042,3778 2867,1177 5480,1928 9189,2631 3933,695 7145,989 11439,1059 49,-21 52619,459 52619,349 0,227 60756,-248 60753,-248 3681,66 11047,198 11047,198 3840,-304 11659,-414 11659,-414 2249,45 6751,132 6751,132 3069,-32 9205,-98 9205,-98 1534,22 4604,66 4601,66 410,203 1230,612 1227,611 -603,444 1295,121 1227,132 3700,-671 1830,-789 6139,-98 6,5 689,-714 612,-711 -1119,-117 -513,-104 0,-100 3970,157 5243,1474 7365,1125 3039,-908 72,-955 7363,-1125 2069,55 1047,954 3069,761 5008,-738 5365,-1356 10432,-727 1056,157 4452,16 5524,-34 1186,-47 7176,-122 7978,282 -174,342 -1119,910 612,760 4144,-574 3261,-862 8592,-1108 1815,717 4437,1378 7055,1224 5036,-531 4949,-887 8593,-1438 3682,303 11047,909 11044,909 1007,-145 2933,-467 3685,-744 1982,-396 11333,-293 13498,33 -1445,1156 997,946 1842,893 11389,-1141 12824,-1156 12886,-1158 3057,-39 9594,166 9513,166 1258,14 15965,414 15955,281 6440,-86 11035,-306 17795,-248 932,10 11047,211 11047,182 37018,-92 74055,-207 111070,-248 56842,-297 108918,61 165996,1256 58009,29 50205,-327 46639,-512 15437,60 46332,379 46329,379 20342,407 61060,1009 61060,1009 6204,152 65966,752 65969,744 42150,513 84763,-135 127026,248 40404,515 80719,1137 121114,1788 -3,86 6642,-120 6642,-120 3488,-190 6253,-470 9549,-961 5449,-881 9302,-1847 13635,-3433 4294,-1663 6981,-3148 9550,-5303 2519,-2296 3635,-4171 3861,-6671 -1025,-4078 -991,-3925 -1022,-4375 56,-8156 212,-16358 619,-24512 727,-8474 1982,-17023 3128,-25496 37,-249 457,-2987 457,-2987 217,-2735 -569,-4806 -2834,-7388 -2389,-2494 -5119,-4282 -9528,-6284 -4659,-2000 -8860,-3252 -14964,-4476 -6521,-1213 -11914,-1756 -19093,-1923 7226,85 12684,561 19329,1700 6297,1162 10677,2392 15570,4361 4716,2003 7643,3806 10324,6343 2578,2654 3575,4818 3578,7667 0,0 -1606,31506 -1603,31440 z M 988721,1000278 c 77,-2 77,-3 -13,0 l 13,0 z m 922658,9850 9,0 -9,0 z m -185014,2116 6,0 -6,0 z"
    id="search-input_path2"
    style="fill:#000000" />
-->
   </g>
</svg>