<?xml version="1.0" encoding="UTF-8" standalone="no"?>
<svg
    xmlns:dc="http://purl.org/dc/elements/1.1/"
    xmlns:cc="http://creativecommons.org/ns#"
    xmlns:rdf="http://www.w3.org/1999/02/22-rdf-syntax-ns#"
    xmlns:svg="http://www.w3.org/2000/svg"
    xmlns="http://www.w3.org/2000/svg"
    version="1.1"
    style="fill-rule:evenodd"
    preserveAspectRatio="none"
    viewBox="0 0 100 32"
    id="search-button">
<g
    id="search-button_g"
    transform="matrix(3.193065587e-4,0,0,3.199998196e-4,-420.3333468,-320.8138991)">
<path
    d="m 1316804,1064945 c 1,-3352 671,-33818 671,-33818 58,-1598 119,-3197 180,-4795 142,-2919 593,-5113 1681,-7807 1068,-2498 2195,-4281 3998,-6301 22,13 2822,-2814 2950,-2632 931,-667 1771,-1160 2792,-1670 2447,-1129 4368,-1633 7044,-1783 6,6 5866,-307 5501,-296 11756,-346 36374,960 36146,949 9150,424 28134,-2 28007,0 1570,89 4712,269 4712,269 l 6852,-394 c 7293,246 14542,598 21840,267 5910,-90 17731,-267 17730,-267 2259,56 23811,592 23811,536 9245,-323 18766,-1717 28010,-2040 5687,6 11355,35 17043,144 10454,371 20913,1767 31347,2165 4417,99 6216,-965 10881,-1754 7123,-1091 10216,-1051 16956,-1215 4318,-256 14700,-811 18416,-1771 425,-161 3812,-188 3812,-188 3234,108 5649,765 8524,2257 0,0 3698,2294 3576,2442 1130,965 1999,1797 2993,2917 1997,2359 3238,4457 4385,7342 1065,2921 1545,5264 1707,8359 -18,0 19,471 19,471 -80,28 931,11362 796,11362 -101,4990 -529,10170 -812,15174 135,2545 407,7632 407,7631 265,463 794,1389 794,1389 -177,2282 -529,6851 -529,6848 -48,-924 -142,-2776 -142,-2773 -266,693 -796,2080 -796,2080 213,3810 408,5949 938,9713 -1,27 -18,329 -15,329 -156,3352 -675,5888 -1909,9003 -1230,2909 -2544,5003 -4662,7331 -2128,2234 -4077,3654 -6863,4955 -16,-21 -1501,598 -1501,598 -2327,883 -4419,1186 -6910,1208 0,0 -33724,-532 -33724,-532 0,0 -52333,1908 -52333,1896 -18824,-277 -37959,-967 -56786,-1629 -7198,-438 -7559,-440 -7709,-447 l -24068,-89 c -609,0 -13704,89 -13704,89 -5844,-201 -11801,-1149 -17729,-1269 -2938,0 -5715,-53 -8652,-180 l -9079,-178 c -1845,0 -20385,-104 -20385,-88 -3534,7 -7007,94 -10536,266 -1056,30 -3169,91 -3169,91 l -5909,-716 c -517,-3 -7094,43 -7281,-644 3216,-791 8193,-1717 12163,-2414 l -12162,0 c -8283,0 -15059,-7763 -15059,-17251 l 0,-51753 c 0,-8998 6095,-16445 13789,-17190 -1632,66 -3025,407 -4690,1063 -2089,913 -3500,1922 -5130,3538 -1671,1748 -2699,3325 -3702,5541 -1029,2427 -1479,4408 -1663,7048 3,0 -340,5570 -336,5488 -373,17690 -410,17622 -389,17951 -16,5724 -88,11539 -264,17256 -184,3671 -499,7391 -788,11058 -133,2876 74,5269 875,8023 3,0 18,58 18,58 822,2707 1808,4716 3467,6998 1763,2286 3441,3795 5906,5273 2688,1492 4908,2168 7965,2425 -3086,-121 -5356,-709 -8130,-2080 -2609,-1405 -4378,-2848 -6308,-5109 -1868,-2309 -2995,-4351 -3998,-7154 -969,-2954 -1317,-5323 -1288,-8434 1,0 409,-13157 408,-13140 z m 234673,30391 3569,394 c 1799,-91 5395,-269 5395,-269 l 219,-125 -9183,0 z m 40921,0 2217,394 c 134,-59 471,-207 826,-394 l -3043,0 z m 17812,-2034 c 693,-191 1377,-456 2117,-810 -1,-10 311,-158 310,-158 1628,-851 2753,-1771 3930,-3183 1278,-1641 2000,-3105 2468,-5135 407,-2149 311,-3786 -7,-5931 -586,-4346 -751,-8430 -813,-12816 l -17,-3042 0,15858 c 0,6565 -3244,12304 -7988,15217 z m 7988,-41417 c 33,-8518 141,-17036 242,-25553 l -265,-3090 c -39,-204 -601,-2287 -601,-2287 -226,-621 -457,-1182 -714,-1714 858,2165 1338,4568 1338,7091 l 0,25553 z"
    id="search-button_path"
    style="fill:#FFE57F;fill-rule:nonzero" />
</g>
</svg>