<?xml version="1.0" encoding="UTF-8" standalone="no"?>
<!-- Generator: Adobe Illustrator 16.0.0, SVG Export Plug-In . SVG Version: 6.00 Build 0)  -->

<svg
    xmlns:dc="http://purl.org/dc/elements/1.1/"
    xmlns:cc="http://creativecommons.org/ns#"
    xmlns:rdf="http://www.w3.org/1999/02/22-rdf-syntax-ns#"
    xmlns:svg="http://www.w3.org/2000/svg"
    xmlns="http://www.w3.org/2000/svg"
    xmlns:sodipodi="http://sodipodi.sourceforge.net/DTD/sodipodi-0.dtd"
    xmlns:inkscape="http://www.inkscape.org/namespaces/inkscape"
    version="1.1"
    id="Capa_1"
    x="0px"
    y="0px"
    width="400"
    height="400"
    viewBox="0 0 400.000014 400.0000141"
    xml:space="preserve"
    inkscape:version="0.91 r13725"
    sodipodi:docname="sector_button.svg"
    inkscape:export-filename="/home/vmm/www/belcanto/!.bezantrakta-django/trunk/bezantrakta/simsim/static/ckeditor/ckeditor/plugins/bezantrakta_scheme/icons/sectorbutton.png"
    inkscape:export-xdpi="5.400000095"
    inkscape:export-ydpi="5.400000095"><metadata
       id="metadata41"><rdf:RDF><cc:Work
             rdf:about=""><dc:format>image/svg+xml</dc:format><dc:type
                rdf:resource="http://purl.org/dc/dcmitype/StillImage" /><dc:title /></cc:Work></rdf:RDF></metadata><defs
       id="defs39" /><sodipodi:namedview
       pagecolor="#ffffff"
       bordercolor="#666666"
       borderopacity="1"
       objecttolerance="10"
       gridtolerance="10"
       guidetolerance="10"
       inkscape:pageopacity="0"
       inkscape:pageshadow="2"
       inkscape:window-width="640"
       inkscape:window-height="480"
       id="namedview37"
       showgrid="false"
       units="px"
       inkscape:zoom="0.3605295035"
       inkscape:cx="520.0449163"
       inkscape:cy="310.6094239"
       inkscape:current-layer="Capa_1" /><flowRoot
       xml:space="preserve"
       id="flowRoot3377"
       style="font-style:normal;font-weight:normal;font-size:10px;line-height:125%;font-family:Sans;letter-spacing:0px;word-spacing:0px;fill:#000000;fill-opacity:1;stroke:none;stroke-width:1px;stroke-linecap:butt;stroke-linejoin:miter;stroke-opacity:1"><flowRegion
          id="flowRegion3379"><rect
             id="rect3381"
             width="262.3207092"
             height="32.36424637"
             x="1.7033813"
             y="67.84064484" /></flowRegion><flowPara
          id="flowPara3383" /></flowRoot><path
       style="fill:#ffcc00;fill-rule:evenodd;stroke:#000000;stroke-width:1px;stroke-linecap:butt;stroke-linejoin:miter;stroke-opacity:1"
       d="m 13.86849052,67.15622762 47.15286775,-49.92656586 291.23830083,2.7736981 27.736981,38.83177345 0,277.36981029 -38.8317734,47.1528678 -280.14350843,0 -47.15286775,-49.9265659 z"
       id="path3373"
       inkscape:connector-curvature="0" /><g
       id="g3"
       transform="matrix(0.9983402593,0,0,0.9950273508,-0.0019966805,5.750734999e-9)"><path
          d="M 376.54,24.126 C 360.456,8.042 341.087,0 318.439,0 L 82.227,0 C 59.579,0 40.211,8.042 24.125,24.126 8.044,40.212 0.002,59.576 0.002,82.228 l 0,237.543 c 0,22.647 8.042,42.014 24.123,58.101 16.086,16.085 35.454,24.127 58.102,24.127 l 236.212,0 c 22.648,0 42.011,-8.042 58.102,-24.127 16.085,-16.087 24.126,-35.453 24.126,-58.101 l 0,-237.543 C 400.663,59.58 392.621,40.212 376.54,24.126 Z m -12.422,295.645 c 0,12.559 -4.47,23.314 -13.415,32.264 -8.945,8.945 -19.698,13.411 -32.265,13.411 l -236.211,0 c -12.563,0 -23.317,-4.466 -32.264,-13.411 -8.945,-8.949 -13.418,-19.705 -13.418,-32.264 l 0,-237.543 c 0,-12.562 4.473,-23.316 13.418,-32.264 8.947,-8.946 19.701,-13.418 32.264,-13.418 l 236.212,0 c 12.566,0 23.319,4.473 32.265,13.418 8.945,8.947 13.9442784,19.71222864 13.415,32.264 l 0,237.543 z"
          id="path5"
          inkscape:connector-curvature="0"
          sodipodi:nodetypes="csscsscsscsccccsscsscsscscc" /></g><flowRoot
       xml:space="preserve"
       id="flowRoot3369"
       style="font-style:normal;font-weight:normal;font-size:10px;line-height:125%;font-family:Sans;letter-spacing:0px;word-spacing:0px;fill:#000000;fill-opacity:1;stroke:none;stroke-width:1px;stroke-linecap:butt;stroke-linejoin:miter;stroke-opacity:1"
       transform="translate(-63.2314453,245)"><flowRegion
          id="flowRegion3371"><rect
             id="rect3373"
             width="395.5457153"
             height="55.8199234"
             x="63.02510834"
             y="64.43388367" /></flowRegion><flowPara
          id="flowPara3375"
          style="font-style:normal;font-variant:normal;font-weight:normal;font-stretch:normal;font-size:300px;line-height:0%;font-family:HeliosBlack;-inkscape-font-specification:HeliosBlack;text-align:center;letter-spacing:10px;baseline-shift:baseline;text-anchor:middle">ะก</flowPara></flowRoot></svg>