<svg id="city_yar" data-name="yar" xmlns="http://www.w3.org/2000/svg" width="52.5mm" height="52.5mm" viewBox="0 0 148.82 148.82">
  <title>yar</title>
  <g id="yar">
    <path d="M65.08,29.82h0c1.3-1.5,2.32-.91,3.32,0H65.08Zm9-5.87h0c1.81-3.74,5-3.09,5.44,2.3,1.33,1.53,2.66,3.06,4,4.59A13.5,13.5,0,0,0,86.68,36c-0.91-.43-1.76-0.71-2,0l2.86,4.31a0.53,0.53,0,0,1,.06.23l1.19,3.51h0a14.2,14.2,0,0,1,.51,2.52c1,1.64.09,3.43,0.68,5.39,1.3,2.13.4,5.67,1.87,7.88a1.84,1.84,0,0,0-1.45-.43c0.43,0.28.88,1.84,1.13,2.72-0.68-.57-0.85-1.47-1.53-0.91,0.62,0.48.48,2.27,0.94,2.92a1,1,0,0,0-1.45,0,6,6,0,0,1,.85,3.71c-2.61-3.15-2-2-2,7.74-1,8.19,4.42,12.73,1.45,22.05-2.72-2.49-3.29-2.32-1.73.57,2.32,3.66,1.67,4.59,3.32,6.77-2.32-1-2-.91-0.17,2.13-0.82-.14-1.3-0.2.51,3.2-2.81-1,.26,1.28-0.23,4.54-1.25,4.2-2.49,8.42-3.71,12.61a8.56,8.56,0,0,1-8.31,2.3c-4.54-1.13-8.53-.65-9.16,1.45-0.79-.85-0.48-1.73,0-2.58a2.61,2.61,0,0,0-2.86,1.73c-0.14-1.45.54-2.86,2-4.31-0.57.2-1.13,0.37-1.73,0.57,0.65-2.52,1.64-4.68,4.88-4.31,3.8-.06,5-1.39,3.71-4-1.22-1.3-2.52-4.54-3.2-5.44-0.37-.48-0.51,1.64-0.88,1-2.13-3.17-2.86-8-4.37-11.48,0,2.38-.28,4.9,1.28,7.29-0.77,1.45-2,2.75-2.78,4.17,0,1-.23,2.86-0.23,3.83-1-.57-1.19-2-2.15-2.55a6.76,6.76,0,0,1-1.45,5.73,2.21,2.21,0,0,0-.57-1.73c-1.36,5.24-3.6,9.58-9.47,10.32-3.26.74-7.26-1.64-10.89,0.85,0.48-1,.6-2.21,1.08-3.26-3.09,1.9-2.86,1.7-4.25,2.21,1.9-2.55,2.38-4.2-.57-3.54,1.7-1.5,2.86-4.11,4-3.43,1.47-1.76,3.83-1.93,6.6-1.76,2.69-.28,3.54-3.66,3.8-7.37-0.34-2.89-.71-6.41.17-9.35,0.11-1.56.34-2.75,0.88-3.29-0.77,1-1.64,2-2.41,3,0.28-2.86.68-5.84,1-8.73,1.81-2.75,3.74-5.33,4-10.32l1.73,1.73c0.26-4.2.4-8.36-2-12.33A34.52,34.52,0,0,1,60,75c-0.17-.74-0.57-0.79-1.19-1.3,1.67,0.34,3,.28,4.05,1.08-0.17-.54-0.34-1.08-0.48-1.59a5.65,5.65,0,0,0,4.22.4L61.14,71A3.19,3.19,0,0,1,62,73.36a5,5,0,0,0-2.44-1.11c-1.33,0-.6.57-0.17,1.19a9.35,9.35,0,0,0-3.06-.74c-2.3-2.41-4.85-5.19-3.15-1.11a8.85,8.85,0,0,1-6.32-4.11l-7.94.79c0.28-1.08-.37-0.94-2,0.43A15.34,15.34,0,0,1,38,64.63c-0.65,0-1.28-.09-1.93-0.11,3.23-5.5,7.74-8.7,15.76-5.53C51,56.89,50,57.63,47.08,56.58a10.62,10.62,0,0,1-2.3-4.22A3.71,3.71,0,0,0,44.56,55,9,9,0,0,1,43,50.54c-0.11.85-.26,1.67-0.37,2.52-1.11-3-2.15-6.24-1.33-13.49Q41,31.79,35.52,30.3a5.35,5.35,0,0,1,3.86.23A22.43,22.43,0,0,0,36.85,27a14.32,14.32,0,0,1,5,2.41c-0.06-.79-1-1.62-1.67-2.41a12.07,12.07,0,0,1,9.27,7.23c1,3.77,2.1,7.54,3.12,11.31,4.73,6.69,14.94,1.84,8.53-5.67a3.67,3.67,0,0,1-3.12-2c-1.28-.88-1.28-1.47,0-2a2.37,2.37,0,0,1-2-2.41c-0.85-1.28-1.42-2.52,0-3.49a5.38,5.38,0,0,0,3.86-.37c0.14,0.68,2.27-1.28,5.3-4.45a2.6,2.6,0,0,1,2.64-.6c0.79-2.78,2.41-4.71,4.22-.71,0.68,0.06,1.33.11,2,.2Z"/>
    <path d="M122.09,22.17c-4.54,1.25-8.08,4.39-12.5,3.83-0.88.77-1.79,2-1.67,3-1.67-1.28-3.26-.71-3.09,1.56,0,0.45-.79.4-1.11,0.54-1.87-3.49-2.07-7.11,2-8.14,2,0.11,2.18-.6,1.5-1.7-5.84-6.49-20-4.73-18.09,9.78,0.28,1.5.91,1.64,1.93,0.43,2.32-2,4.88-3.2,8.93,1.93L26.76,75.15,28,77.92,102.76,36.2c2,3.51.82,5.56-2.55,6.6,3.06,2.13,9.72-1.76,4.79-8.9,0.26-.48.68-1,1.22-0.57a1.84,1.84,0,0,0,2.89-2,3.59,3.59,0,0,0,3.23-.2c2.49-3.74,6.35-5.87,9.78-8.93h0Z" style="fill: #fc0"/>
  </g>
</svg>
