<svg id="city_kal" data-name="kal" xmlns="http://www.w3.org/2000/svg" width="52.5mm" height="52.5mm" viewBox="0 0 148.82 148.82">
  <title>kal</title>
  <g id="kal">
    <path d="M131.1,81.38a19.66,19.66,0,0,1-5.44,1c-4.05,0-7.37-2.15-11.42-2.15s-7.37,2.15-11.42,2.15-7.48-2.15-11.54-2.15S83.91,82.4,79.85,82.4s-7.23-2.15-11.28-2.15S61.2,82.4,57,82.4s-7.34-2.15-11.42-2.15S38.27,82.4,34.19,82.4s-7.37-2.15-11.42-2.15a32.38,32.38,0,0,0-5.07.51v1.79A27.81,27.81,0,0,1,22.39,82c4.05,0,7.34,2.3,11.42,2.3S41.16,82,45.24,82s7.34,2.3,11.42,2.3S64.15,82,68.2,82s7.23,2.3,11.28,2.3S86.85,82,90.91,82s7.48,2.3,11.54,2.3,7.37-2.3,11.42-2.3,7.37,2.3,11.42,2.3a22.44,22.44,0,0,0,5.84-1.13V81.41Zm0-17.49V65a16,16,0,0,1-3.54.51c-4.05,0-7.37-2.3-11.42-2.3s-7.37,2.3-11.54,2.3-7.34-2.3-11.42-2.3-7.34,2.3-11.42,2.3-7.37-2.3-11.28-2.3c-4.2,0-7.48,2.3-11.54,2.3s-7.37-2.3-11.42-2.3-7.37,2.3-11.42,2.3-7.48-2.3-11.54-2.3a25.55,25.55,0,0,0-6.86,1.13V63.24a26.49,26.49,0,0,1,7.11-1.13c4.05,0,7.37,2.3,11.42,2.3s7.37-2.3,11.42-2.3,7.48,2.3,11.54,2.3,7.34-2.3,11.42-2.3,7.23,2.3,11.28,2.3,7.48-2.3,11.54-2.3,7.34,2.3,11.42,2.3,7.37-2.3,11.42-2.3,7.48,2.3,11.54,2.3A14.69,14.69,0,0,0,131.1,63.89Zm0,2a16,16,0,0,1-3.54.51c-4.05,0-7.37-2.3-11.42-2.3s-7.37,2.3-11.54,2.3-7.34-2.3-11.42-2.3-7.34,2.3-11.42,2.3-7.37-2.3-11.28-2.3c-4.2,0-7.48,2.3-11.54,2.3s-7.37-2.3-11.42-2.3-7.37,2.3-11.42,2.3-7.48-2.3-11.54-2.3a25.55,25.55,0,0,0-6.86,1.13v2.3a22.64,22.64,0,0,1,6.46-1c4.05,0,7.48,2.15,11.54,2.15s7.37-2.15,11.42-2.15,7.37,2.15,11.42,2.15S66,66.56,70.07,66.56s7.23,2.15,11.28,2.15,7.34-2.15,11.42-2.15,7.34,2.15,11.54,2.15,7.37-2.15,11.42-2.15,7.37,2.15,11.42,2.15a19.71,19.71,0,0,0,3.94-.51V65.93Zm0,3.17v2.78a18.78,18.78,0,0,1-4.45.77c-4.05,0-7.48-2.15-11.54-2.15s-7.37,2.15-11.42,2.15S96.32,70.5,92.27,70.5s-7.37,2.15-11.54,2.15S73.5,70.5,69.45,70.5,62.08,72.65,58,72.65,50.66,70.5,46.6,70.5s-7.48,2.15-11.54,2.15S27.69,70.5,23.64,70.5a29.24,29.24,0,0,0-6,.77V68.49a22.64,22.64,0,0,1,6.46-1c4.05,0,7.48,2.15,11.54,2.15s7.37-2.15,11.42-2.15,7.37,2.15,11.42,2.15S66,67.46,70.07,67.46s7.23,2.15,11.28,2.15,7.34-2.15,11.42-2.15,7.34,2.15,11.54,2.15,7.37-2.15,11.42-2.15,7.37,2.15,11.42,2.15A19.71,19.71,0,0,0,131.1,69.11Zm0,3.69a13.61,13.61,0,0,1-4.45.77c-4.05,0-7.48-2.15-11.54-2.15s-7.37,2.15-11.42,2.15S96.32,71.4,92.27,71.4s-7.37,2.15-11.54,2.15S73.5,71.4,69.45,71.4,62.08,73.56,58,73.56,50.66,71.4,46.6,71.4s-7.48,2.15-11.54,2.15S27.69,71.4,23.64,71.4a23.07,23.07,0,0,0-6,.88v3.94a27.9,27.9,0,0,1,5.58-.77c4.05,0,7.37,2.3,11.42,2.3s7.34-2.3,11.54-2.3,7.37,2.3,11.42,2.3,7.37-2.3,11.42-2.3,7.23,2.3,11.42,2.3,7.37-2.3,11.42-2.3,7.37,2.3,11.42,2.3,7.37-2.3,11.42-2.3,7.48,2.3,11.54,2.3a16,16,0,0,0,4.82-.88V72.82Zm0,5v2.92a26.6,26.6,0,0,1-5.44.88c-4.05,0-7.37-2.15-11.42-2.15s-7.37,2.15-11.42,2.15S95.33,79.4,91.28,79.4s-7.37,2.15-11.42,2.15S72.62,79.4,68.57,79.4,61.2,81.55,57,81.55,49.69,79.4,45.61,79.4s-7.34,2.15-11.42,2.15S26.82,79.4,22.76,79.4a22.81,22.81,0,0,0-5.07.62V77.1a27.9,27.9,0,0,1,5.58-.77c4.05,0,7.37,2.3,11.42,2.3s7.34-2.3,11.54-2.3,7.37,2.3,11.42,2.3,7.37-2.3,11.42-2.3,7.23,2.3,11.42,2.3,7.37-2.3,11.42-2.3,7.37,2.3,11.42,2.3,7.37-2.3,11.42-2.3,7.48,2.3,11.54,2.3a16,16,0,0,0,4.82-.88h0Zm0,6.35v1.53a19.43,19.43,0,0,1-6,1.13c-4.05,0-7.37-2.15-11.42-2.15s-7.48,2.15-11.54,2.15-7.37-2.15-11.42-2.15-7.37,2.15-11.42,2.15S72,84.61,67.92,84.61s-7.34,2.15-11.42,2.15-7.34-2.15-11.42-2.15-7.48,2.15-11.54,2.15-7.37-2.15-11.42-2.15a17,17,0,0,0-4.45.51V83.48A27.81,27.81,0,0,1,22.37,83c4.05,0,7.34,2.3,11.42,2.3S41.13,83,45.21,83s7.34,2.3,11.42,2.3S64.12,83,68.17,83s7.23,2.3,11.28,2.3S86.83,83,90.88,83s7.48,2.3,11.54,2.3,7.37-2.3,11.42-2.3,7.37,2.3,11.42,2.3a22.44,22.44,0,0,0,5.84-1.13v0Z" style="fill: #eceded"/>
    <path d="M131.1,81.38a19.66,19.66,0,0,1-5.44,1c-4.05,0-7.37-2.15-11.42-2.15s-7.37,2.15-11.42,2.15-7.48-2.15-11.54-2.15S83.91,82.4,79.85,82.4s-7.23-2.15-11.28-2.15S61.2,82.4,57,82.4s-7.34-2.15-11.42-2.15S38.27,82.4,34.19,82.4s-7.37-2.15-11.42-2.15a32.38,32.38,0,0,0-5.07.51v1.79A27.81,27.81,0,0,1,22.39,82c4.05,0,7.34,2.3,11.42,2.3S41.16,82,45.24,82s7.34,2.3,11.42,2.3S64.15,82,68.2,82s7.23,2.3,11.28,2.3S86.85,82,90.91,82s7.48,2.3,11.54,2.3,7.37-2.3,11.42-2.3,7.37,2.3,11.42,2.3a22.44,22.44,0,0,0,5.84-1.13V81.41Zm0-17.49V65a16,16,0,0,1-3.54.51c-4.05,0-7.37-2.3-11.42-2.3s-7.37,2.3-11.54,2.3-7.34-2.3-11.42-2.3-7.34,2.3-11.42,2.3-7.37-2.3-11.28-2.3c-4.2,0-7.48,2.3-11.54,2.3s-7.37-2.3-11.42-2.3-7.37,2.3-11.42,2.3-7.48-2.3-11.54-2.3a25.55,25.55,0,0,0-6.86,1.13V63.24a26.49,26.49,0,0,1,7.11-1.13c4.05,0,7.37,2.3,11.42,2.3s7.37-2.3,11.42-2.3,7.48,2.3,11.54,2.3,7.34-2.3,11.42-2.3,7.23,2.3,11.28,2.3,7.48-2.3,11.54-2.3,7.34,2.3,11.42,2.3,7.37-2.3,11.42-2.3,7.48,2.3,11.54,2.3A14.69,14.69,0,0,0,131.1,63.89Zm0,2a16,16,0,0,1-3.54.51c-4.05,0-7.37-2.3-11.42-2.3s-7.37,2.3-11.54,2.3-7.34-2.3-11.42-2.3-7.34,2.3-11.42,2.3-7.37-2.3-11.28-2.3c-4.2,0-7.48,2.3-11.54,2.3s-7.37-2.3-11.42-2.3-7.37,2.3-11.42,2.3-7.48-2.3-11.54-2.3a25.55,25.55,0,0,0-6.86,1.13v2.3a22.64,22.64,0,0,1,6.46-1c4.05,0,7.48,2.15,11.54,2.15s7.37-2.15,11.42-2.15,7.37,2.15,11.42,2.15S66,66.56,70.07,66.56s7.23,2.15,11.28,2.15,7.34-2.15,11.42-2.15,7.34,2.15,11.54,2.15,7.37-2.15,11.42-2.15,7.37,2.15,11.42,2.15a19.71,19.71,0,0,0,3.94-.51V65.93Zm0,3.17v2.78a18.78,18.78,0,0,1-4.45.77c-4.05,0-7.48-2.15-11.54-2.15s-7.37,2.15-11.42,2.15S96.32,70.5,92.27,70.5s-7.37,2.15-11.54,2.15S73.5,70.5,69.45,70.5,62.08,72.65,58,72.65,50.66,70.5,46.6,70.5s-7.48,2.15-11.54,2.15S27.69,70.5,23.64,70.5a29.24,29.24,0,0,0-6,.77V68.49a22.64,22.64,0,0,1,6.46-1c4.05,0,7.48,2.15,11.54,2.15s7.37-2.15,11.42-2.15,7.37,2.15,11.42,2.15S66,67.46,70.07,67.46s7.23,2.15,11.28,2.15,7.34-2.15,11.42-2.15,7.34,2.15,11.54,2.15,7.37-2.15,11.42-2.15,7.37,2.15,11.42,2.15A19.71,19.71,0,0,0,131.1,69.11Zm0,3.69a13.61,13.61,0,0,1-4.45.77c-4.05,0-7.48-2.15-11.54-2.15s-7.37,2.15-11.42,2.15S96.32,71.4,92.27,71.4s-7.37,2.15-11.54,2.15S73.5,71.4,69.45,71.4,62.08,73.56,58,73.56,50.66,71.4,46.6,71.4s-7.48,2.15-11.54,2.15S27.69,71.4,23.64,71.4a23.07,23.07,0,0,0-6,.88v3.94a27.9,27.9,0,0,1,5.58-.77c4.05,0,7.37,2.3,11.42,2.3s7.34-2.3,11.54-2.3,7.37,2.3,11.42,2.3,7.37-2.3,11.42-2.3,7.23,2.3,11.42,2.3,7.37-2.3,11.42-2.3,7.37,2.3,11.42,2.3,7.37-2.3,11.42-2.3,7.48,2.3,11.54,2.3a16,16,0,0,0,4.82-.88V72.82Zm0,5v2.92a26.6,26.6,0,0,1-5.44.88c-4.05,0-7.37-2.15-11.42-2.15s-7.37,2.15-11.42,2.15S95.33,79.4,91.28,79.4s-7.37,2.15-11.42,2.15S72.62,79.4,68.57,79.4,61.2,81.55,57,81.55,49.69,79.4,45.61,79.4s-7.34,2.15-11.42,2.15S26.82,79.4,22.76,79.4a22.81,22.81,0,0,0-5.07.62V77.1a27.9,27.9,0,0,1,5.58-.77c4.05,0,7.37,2.3,11.42,2.3s7.34-2.3,11.54-2.3,7.37,2.3,11.42,2.3,7.37-2.3,11.42-2.3,7.23,2.3,11.42,2.3,7.37-2.3,11.42-2.3,7.37,2.3,11.42,2.3,7.37-2.3,11.42-2.3,7.48,2.3,11.54,2.3a16,16,0,0,0,4.82-.88h0Zm0,6.35v1.53a19.43,19.43,0,0,1-6,1.13c-4.05,0-7.37-2.15-11.42-2.15s-7.48,2.15-11.54,2.15-7.37-2.15-11.42-2.15-7.37,2.15-11.42,2.15S72,84.61,67.92,84.61s-7.34,2.15-11.42,2.15-7.34-2.15-11.42-2.15-7.48,2.15-11.54,2.15-7.37-2.15-11.42-2.15a17,17,0,0,0-4.45.51V83.48A27.81,27.81,0,0,1,22.37,83c4.05,0,7.34,2.3,11.42,2.3S41.13,83,45.21,83s7.34,2.3,11.42,2.3S64.12,83,68.17,83s7.23,2.3,11.28,2.3S86.83,83,90.88,83s7.48,2.3,11.54,2.3,7.37-2.3,11.42-2.3,7.37,2.3,11.42,2.3a22.44,22.44,0,0,0,5.84-1.13v0Z" style="fill: #fc0"/>
  </g>
</svg>
