<?xml version="1.0" encoding="UTF-8" standalone="no"?>
<svg
    xmlns:dc="http://purl.org/dc/elements/1.1/"
    xmlns:cc="http://creativecommons.org/ns#"
    xmlns:rdf="http://www.w3.org/1999/02/22-rdf-syntax-ns#"
    xmlns:svg="http://www.w3.org/2000/svg"
    xmlns="http://www.w3.org/2000/svg"
    version="1.1"
    style="fill-rule:evenodd"
    preserveAspectRatio="none"
    viewBox="0 0 200 32"
    id="left-menu">
<defs
    id="left-menu_defs" />
<g
    id="left-menu_g"
    transform="matrix(4.562655609e-4,0,0,4.571380625e-4,-584.5163405,-298.827224)">
<path
    d="m 1560007,666599 c -664,1533 -914,2786 -903,4386 121,3316 357,6584 684,9894 42,-2 930,8473 880,8474 88,2262 -210,3582 -450,5729 -96,1174 726,11800 726,11800 116,1112 343,2006 827,3068 113,238 1185,2209 1185,2209 1148,1721 2377,2952 4307,4319 1985,1311 3672,2137 6164,2929 16,4 190,42 190,42 973,204 1845,345 2849,461 1379,562 2962,718 4545,719 152,-4 301,-8 453,-13 4200,-185 8358,-419 12563,-183 3503,66 10509,199 10509,199 1337,-42 14114,-438 14114,-396 5344,229 11248,1272 16600,1505 3377,0 6727,-24 10103,-105 6194,-270 12420,-1310 18580,-1599 2838,-79 3097,589 6448,1296 5256,1003 5311,746 10052,898 2153,157 9291,788 10914,1308 502,197 1688,153 2260,139 2771,-89 4816,-435 7376,-1113 0,0 2074,-564 2074,-564 3095,-931 5318,-1908 7819,-3448 -16,-18 837,-547 837,-547 2156,-1426 3766,-2655 5218,-4464 -8,-4 544,-738 507,-748 955,-1877 1147,-3946 968,-5912 -103,-604 -208,-1211 -307,-1815 151,-1006 450,-3019 450,-3019 292,-184 880,-550 880,-550 -196,-903 -588,-2710 -588,-2710 -51,366 -156,1099 -156,1098 -292,-274 -879,-824 -879,-823 286,-1835 343,-2070 1035,-3843 -345,-2756 -1035,-8268 -1035,-8267 -20,-1455 -936,-15496 -685,-15473 0,0 74,-495 71,-495 183,-2305 -276,-4148 -1383,-6338 -1224,-2159 -2575,-3659 -4837,-5397 -2368,-1714 -4518,-2800 -7625,-3843 -3319,-1033 -6100,-1512 -9740,-1634 0,1 -2487,-95 -2487,-80 -10999,196 -22645,724 -33657,1203 -4265,322 -4480,326 -4570,330 -4614,139 -9621,67 -14266,67 -2719,-3 -5415,-55 -8123,-67 -3391,154 -6979,849 -10509,938 -1816,1 -3309,37 -5126,133 -1943,106 -3427,131 -5381,131 -4028,7 -8055,61 -12083,67 -2131,-10 -4128,-68 -6245,-198 -626,-22 -1878,-66 -1878,-66 l -3503,528 c -399,3 -4263,-15 -4315,476 3688,1111 6999,1907 10915,2564 3333,207 10001,621 10001,621 -1117,62 -3351,184 -3351,184 -981,-153 -2945,-462 -2944,-461 -1015,-80 -3047,-239 -3047,-239 3413,505 8044,1042 11576,899 -804,337 -2424,981 -2486,1004 l 963,-197 c -1218,484 -3656,1453 -3656,1452 -47,50 -152,146 -152,146 758,206 2336,515 2336,515 -373,71 -1117,212 -1117,212 3358,430 11705,494 11686,488 3151,85 9433,40 9432,40 -354,-153 -1065,-462 -1065,-462 2971,-84 2545,303 3858,357 1377,-70 4113,-317 4113,-317 746,-124 2030,-687 2030,-687 879,0 2640,0 2640,0 863,-247 2589,-740 2589,-740 -625,396 -1363,700 -2234,740 -118,0 -237,0 -355,0 l -456,145 c 1770,-253 5330,-674 5330,-674 13111,-1425 18065,-2607 32338,-2392 8576,198 14680,161 23199,-355 2387,-138 4212,-2 6516,456 2290,516 3885,1119 5763,2151 0,0 49,28 47,27 1039,465 2872,1605 2872,1604 516,668 894,1268 1244,1984 0,0 23,52 23,52 -445,591 -323,1353 -127,1973 329,892 743,1742 890,2660 34,258 53,511 9,769 -227,1429 -137,4709 -137,4632 -195,-549 -588,-1647 -586,-1647 -347,-91 -1037,-274 -1037,-274 886,1829 2660,5489 2660,5489 -263,218 -1000,794 -1487,789 -42,166 -411,1376 -430,1372 -363,1358 -315,3982 -313,5455 23,5414 -2334,7170 -2660,12591 -50,2245 -37,4476 4,6721 3,1305 -252,2279 -929,3501 -720,1185 -1498,2007 -2779,2948 -19,-8 -643,429 -643,429 -1154,708 -2178,1205 -3569,1687 -1811,603 -3320,886 -5331,1008 -8,-7 -8706,359 -8706,279 0,181 -10053,-199 -10053,-199 -610,53 -1828,159 -1827,159 -637,-245 -1180,-220 -1930,-331 -372,35 -1117,106 -1117,105 -508,-25 -1523,-78 -1523,-78 -254,18 -761,53 -761,53 -68,162 -204,489 -202,488 100,360 -204,106 -204,106 -592,-522 -292,-640 -1015,-79 -40,-167 -89,-402 -102,-568 213,-92 58,-82 0,-80 -733,141 -837,1204 -1219,899 -367,-530 31,-758 -1217,-899 -353,45 -167,767 -508,608 -845,-599 -881,-1089 -1726,-581 -183,124 -720,16 -915,-27 -379,-73 -1203,-50 -1319,225 9,115 209,739 -102,608 -623,-418 -475,-675 -1421,-886 -141,267 -625,1132 -1168,978 -664,-322 -1421,-1149 -1421,-1149 -610,242 -1829,727 -1829,727 -234,-197 -469,-346 -608,-595 -273,-261 -1813,-280 -2234,26 -219,444 1184,1172 -305,714 -1883,-911 -2114,-924 -2132,-925 -418,-26 -1640,135 -1573,132 -190,10 -2653,331 -2640,225 -1363,-89 -1287,-267 -2945,-199 -154,8 -1828,169 -1827,146 -6118,-74 -12262,-166 -18378,-199 -10580,-267 -16694,-85 -27464,1005 -7929,115 -11631,-75 -13410,-292 l -1440,-33 c -995,-31 -1926,-154 -2885,-333 -2255,-465 -3437,-943 -5364,-1790 -12,-5 -127,-59 -127,-59 -1728,-883 -2976,-2070 -3985,-3352 -590,-798 -970,-1478 -1362,-2325 -310,-673 -409,-1376 -440,-2077 61,-12 36,-12084 -133,-12075 -640,-4763 -1415,-9447 -2229,-14203 l 25,-12488 c -434,4729 -487,3802 -521,2869 -18,-1823 305,-3132 1090,-4859 17,3 226,-503 226,-503 888,-1885 1938,-3258 3702,-4843 623,-531 1690,-1379 2469,-1814 1254,-799 2410,-1384 3879,-1990 2934,-1154 5393,-1715 8753,-2040 -3433,133 -5954,557 -9076,1526 -2902,976 -4905,1976 -7124,3574 -2113,1607 -3397,3023 -4551,5028 20,8 -706,1535 -706,1535 z m 42121,-4792 -2,0 2,0 z m 30612,1692 -2,0 2,0 z m -52934,53352 c -1172,-142 -1510,-295 -1668,-379 6379,244 4847,320 3326,370 2,32 -848,24 -1658,9 z"
    id="left-menu_path1"
    style="fill:#999999;fill-rule:nonzero" />
<path
    d="m 1281644,695761 c 1,-1694 911,-17096 911,-17096 78,-809 161,-1617 243,-2425 193,-1475 806,-2584 2282,-3946 1449,-1264 2979,-2165 5426,-3186 29,7 3828,-1423 4002,-1331 1264,-337 2405,-586 3789,-844 3321,-571 5928,-826 9559,-901 9,3 7962,-156 7466,-150 15954,-175 49361,485 49051,480 12418,214 38180,-1 38008,0 2130,45 6394,136 6394,136 l 9299,-200 c 9898,125 19734,303 29639,136 8019,-46 24061,-136 24060,-136 3065,29 32312,300 32312,271 12546,-163 25467,-867 38011,-1031 7718,3 15410,18 23128,73 14188,187 28381,893 42541,1094 5993,51 8435,-487 14765,-886 9666,-552 13864,-532 23011,-614 5860,-130 19949,-410 24991,-896 578,-81 5174,-95 5174,-95 4389,54 7665,387 11567,1141 0,0 5018,1160 4853,1235 1533,488 2713,908 4062,1474 2709,1193 4394,2254 5950,3712 1446,1477 2096,2662 2316,4226 -24,0 26,238 26,238 -108,15 1263,5745 1081,5745 -138,2522 -719,5141 -1102,7671 183,1286 552,3858 552,3858 359,234 1078,702 1078,702 -240,1154 -719,3463 -719,3462 -64,-467 -192,-1403 -192,-1402 -361,350 -1080,1052 -1080,1052 288,1926 554,3007 1272,4910 -1,14 -23,166 -20,166 -211,1695 -916,2977 -2590,4552 -1669,1470 -3452,2529 -6327,3706 -2888,1129 -5533,1847 -9314,2505 -22,-11 -2036,303 -2036,303 -3158,446 -5997,599 -9377,610 0,0 -45766,-269 -45766,-269 0,0 -71019,965 -71019,959 -25544,-140 -51512,-489 -77062,-824 -9768,-221 -10257,-222 -10461,-226 l -32662,-45 c -826,0 -18597,45 -18597,45 -7930,-101 -16014,-580 -24059,-641 -3987,0 -7756,-27 -11741,-91 l -12321,-90 c -2503,0 -27663,-53 -27663,-45 -4796,4 -9510,48 -14299,135 -1432,15 -4300,46 -4300,46 l -8019,-362 c -702,-2 -9627,21 -9881,-326 4365,-400 11119,-868 16507,-1220 l -16505,0 c -11240,0 -20436,-3925 -20436,-8722 l 0,-26164 c 0,-4549 8271,-8314 18712,-8690 -2214,33 -4104,206 -6364,537 -2835,462 -4749,972 -6962,1789 -2268,883 -3663,1681 -5023,2801 -1397,1227 -2008,2229 -2257,3563 3,0 -461,2816 -456,2775 -506,8943 -557,8909 -528,9075 -22,2894 -119,5833 -358,8724 -250,1856 -678,3736 -1069,5590 -181,1455 100,2664 1187,4056 3,0 23,30 23,30 1116,1368 2454,2384 4706,3538 2393,1155 4669,1918 8014,2665 3648,755 6661,1096 10809,1226 -4188,-61 -7268,-358 -11032,-1051 -3540,-710 -5942,-1440 -8561,-2583 -2534,-1167 -4063,-2199 -5426,-3617 -1314,-1493 -1786,-2691 -1747,-4264 2,0 555,-6651 554,-6643 z m 318464,15365 4844,199 c 2440,-46 7321,-136 7321,-136 l 296,-63 -12461,0 z m 55532,0 3009,199 c 182,-30 638,-105 1120,-199 l -4129,0 z m 24172,-1029 c 940,-96 1868,-230 2873,-409 -2,-5 422,-80 420,-80 2209,-430 3737,-895 5334,-1609 1734,-830 2713,-1570 3348,-2596 554,-1087 423,-1914 -8,-2999 -795,-2197 -1020,-4262 -1104,-6479 l -24,-1538 0,8017 c 0,3320 -4402,6221 -10839,7693 z m 10839,-20938 c 46,-4307 193,-8613 329,-12919 l -359,-1562 c -53,-103 -816,-1156 -816,-1156 -307,-314 -620,-598 -969,-866 1165,1094 1815,2309 1815,3584 l 0,12919 z"
    id="left-menu_path2"
    style="fill:#ffffff;fill-rule:nonzero" />
</g>
</svg>