<svg id="city_bel" data-name="bel" xmlns="http://www.w3.org/2000/svg" width="52.5mm" height="52.5mm" viewBox="0 0 148.82 148.82">
  <title>bel</title>
  <g id="bel">
    <path id="_331458808" data-name=" 331458808" d="M97.48,18.37c-3.2,0-6.41,0-9.61-.06-2.61,0-6,.09-8.31,1.39A3.44,3.44,0,0,0,77.87,24a2.37,2.37,0,0,0,1.22,1.3,4.88,4.88,0,0,1-.88.68,22.37,22.37,0,0,0-5.3-2.58,1.15,1.15,0,0,0,0-.31,1.79,1.79,0,0,0-.71-0.2,4,4,0,0,1-.88-0.17c-0.14-.09,0-0.2.09-0.28s0.14-.17-0.09-0.28-0.71-.23-1.19-0.4a11.47,11.47,0,0,1-1.67-.65c-0.74-.34-1.73-0.88-2.47-1.16a4.05,4.05,0,0,0-1.56-.34,3.2,3.2,0,0,0-1.08.14,4.47,4.47,0,0,0-.74.37c-0.23.11-.45,0.17-0.62,0.26a6.07,6.07,0,0,0-.54.37,1.58,1.58,0,0,0-.57.4,1.67,1.67,0,0,0-.31.82,2.66,2.66,0,0,0,.11,1,2.55,2.55,0,0,0,.45.79,0.35,0.35,0,0,0,.31.2,0.31,0.31,0,0,0,.06-0.26,0.25,0.25,0,0,1,.11-0.26,0.37,0.37,0,0,1,.31.14c0.11,0.11.23,0.28,0.34,0.43a7,7,0,0,0,.62.6c0.4,0.31,1,.82,1.62,1.3a16.91,16.91,0,0,1,2,2.24,16.77,16.77,0,0,1-4.39-1.67,12.35,12.35,0,0,1-2.3-1.76,2.44,2.44,0,0,0,.45-2.15A4,4,0,0,0,58.22,20a8.61,8.61,0,0,0-3.43-.94A53.24,53.24,0,0,0,48.42,19a31,31,0,0,1-6.26-.54,5.22,5.22,0,0,0,.74,1.76,34.47,34.47,0,0,1-3.83,0,26.7,26.7,0,0,1-4.51-.45,17.42,17.42,0,0,1-3.32-1.08,4.42,4.42,0,0,0,2,2.81,4.49,4.49,0,0,0,2.69,3.66,6.92,6.92,0,0,0,2.83,2.27,11.11,11.11,0,0,0,3.57.82c-1.11,1.3-.34,3.12,1,3.88A1.92,1.92,0,0,0,45,33.59,1.82,1.82,0,0,0,46.6,34.7a4.69,4.69,0,0,0,.14,1.62,5.15,5.15,0,0,1,1.84-1.9,9.51,9.51,0,0,1,3.83-1.13,36,36,0,0,1,5.24-.17c0.23,1.5.82,2.49,2.52,2.49a2.36,2.36,0,0,0,1.79,1,2.5,2.5,0,0,0,2.49.6,2.84,2.84,0,0,0,2.13.31,2,2,0,0,0,1.93,0,2.41,2.41,0,0,0,1.84.26,1.94,1.94,0,0,0,1.19.26,1.48,1.48,0,0,0,.88-0.34,2.07,2.07,0,0,0,.6-1,22.59,22.59,0,0,0,2.07,1.22,6.27,6.27,0,0,0,1.28.54A9.1,9.1,0,0,0,77.16,40a10.65,10.65,0,0,0,1.08,1.45c0.31,0.37.48,0.57,0.62,0.77a2.4,2.4,0,0,1,.28.51,0.62,0.62,0,0,1,.06.28,7.64,7.64,0,0,0-3.74-.45A3.25,3.25,0,0,0,72.57,46a1.56,1.56,0,0,0,.4.94,2.92,2.92,0,0,0,.91.68,7.59,7.59,0,0,0,1.33.51,4.45,4.45,0,0,0,1.16.11,8.72,8.72,0,0,0,.94-0.06c0.26,0,.43-0.09.6-0.11A0.94,0.94,0,0,1,78.38,48a2.17,2.17,0,0,1,.54.31,3.33,3.33,0,0,0,.77.34,6.58,6.58,0,0,0,1.5.26,6.48,6.48,0,0,0,1.56-.11,5.28,5.28,0,0,0,.85-0.26,5.52,5.52,0,0,1,.62-0.28,2.83,2.83,0,0,1,.45-0.06,1.3,1.3,0,0,0,.45-0.2,1.85,1.85,0,0,0,.23-0.2,0.38,0.38,0,0,1,.28-0.11,2.41,2.41,0,0,1,.62.23,6,6,0,0,1,.68.4c0.28,0.14.62,0.34,1,.51a3.33,3.33,0,0,0,.94.37,0.29,0.29,0,0,0,.37-0.26,1.49,1.49,0,0,0-.06-0.48,3.12,3.12,0,0,1-.06-0.51,2.45,2.45,0,0,1,0-.43,0.31,0.31,0,0,1,0-.2c0.54,0.17,1.08.34,1.47,0.43a2.45,2.45,0,0,0,.82.09c0.2,0,.34-0.11.26-0.28a3.8,3.8,0,0,0-.82-0.68,7,7,0,0,1-1-.88,13.19,13.19,0,0,1-.91-1.13,6.37,6.37,0,0,1-.85-1.7A12,12,0,0,1,91,45.41a8.9,8.9,0,0,1,2,3.29c0.06,0.23.17,0.57,0.2,0.71a0.58,0.58,0,0,0,.37-0.23,1.65,1.65,0,0,0,.31-0.43,2,2,0,0,1,.28-0.4A2.44,2.44,0,0,1,94.68,48a2.65,2.65,0,0,0,.51-0.34,1.19,1.19,0,0,0,.23-0.34,1.11,1.11,0,0,1,.23-0.28,3.61,3.61,0,0,1,.34-0.2,1.41,1.41,0,0,0,.31-0.28c0.11-.14.26-0.31,0.37-0.48a1,1,0,0,1,.45-0.45c0.23-.09.6-0.14,0.88-0.23A2.86,2.86,0,0,0,98.7,45l0.71-.51c0.23-.17.45-0.28,0.65-0.45a4.4,4.4,0,0,1,.65-0.54c0.28-.17.65-0.34,1-0.62A6.33,6.33,0,0,0,103,41.78a2.52,2.52,0,0,0-.65-0.14,14.85,14.85,0,0,1-1.56-.28c-0.77-.17-1.87-0.51-2.78-0.82a25,25,0,0,1-2.38-1,22.47,22.47,0,0,1-2.1-1.13c-0.77-.51-1.7-1.16-2.3-1.64s-0.91-.74-1.25-1a12,12,0,0,1-1.39-1.28c1,0.06,2.21-1.62,1.9-2.58a15.64,15.64,0,0,1,2.38-.28c0.54,0,1.25,0,1.79,0a12.08,12.08,0,0,1,1.42.17,17.65,17.65,0,0,1,1.76.43,5.47,5.47,0,0,1,1.13.51,3.28,3.28,0,0,1,.82.74,4.7,4.7,0,0,1,.57,1.13,3,3,0,0,1,.14.45,0.27,0.27,0,0,0,.14.2,0.35,0.35,0,0,0,.28-0.17,2.68,2.68,0,0,0,.57-1.13c0.62,0.23,1.81-.62,2.1-1.08a2.25,2.25,0,0,0,2.52-1.3,2.27,2.27,0,0,0,1.79-1.62c1.45-.71,2-1.62,1.53-3.26a9.52,9.52,0,0,0,4.22-1.7,5.78,5.78,0,0,0,1.62-2.55,4.43,4.43,0,0,0,1.39-2.78,4.27,4.27,0,0,0,1.11-1.9,15.94,15.94,0,0,1-4.14.94,54.19,54.19,0,0,1-8,.48,7.5,7.5,0,0,1,.77-1.5l-2.21.31a50.87,50.87,0,0,1-6.58.37l0,0ZM82.18,47a0.91,0.91,0,0,0,0,.37,0.13,0.13,0,0,0,.2.09,0.57,0.57,0,0,0,.2-0.37,3.43,3.43,0,0,0,0-.54,0.42,0.42,0,0,0,0-.31,0.23,0.23,0,0,0-.31.11,2,2,0,0,0-.11.62v0Z" style="fill: #999"/>
    <path id="_331459960" data-name=" 331459960" d="M78,53.06c-0.48,0-1-.09-1.45-0.14a7.17,7.17,0,0,0-1.56,0,10.88,10.88,0,0,0-1.45.28,7.14,7.14,0,0,0-1.25.45,4.24,4.24,0,0,0-1,.71c-0.26.26-.45,0.51-0.62,0.65a0.91,0.91,0,0,1-.54.2,3.19,3.19,0,0,1-.51-0.09,2.27,2.27,0,0,0-.62,0,2.66,2.66,0,0,0-.79.28,3,3,0,0,0-.54.48,2.41,2.41,0,0,1-.54.54,10.24,10.24,0,0,1-1,.57,10.63,10.63,0,0,0-1,.6,4.49,4.49,0,0,0-.62.45,1.38,1.38,0,0,1-.51.31,4,4,0,0,1-.62.17,1.43,1.43,0,0,0-.6.28,1.18,1.18,0,0,0-.43.62,1.37,1.37,0,0,0,.2.74,3.31,3.31,0,0,1,.28.74c0.06,0.28.06,0.6,0.09,0.88a2.84,2.84,0,0,0,.17.82,2.26,2.26,0,0,0,.68.94,4.55,4.55,0,0,0,1,.6,0.61,0.61,0,0,1,.34.23,0.13,0.13,0,0,1,0,.17,0.58,0.58,0,0,1-.37.09,2.13,2.13,0,0,1-.57-0.06,4,4,0,0,1-.68-0.17,1.82,1.82,0,0,1-.77-0.45,3.55,3.55,0,0,1-.65-1,7.21,7.21,0,0,0-.4-0.88q-0.13-.21-0.17.09a4.75,4.75,0,0,0,0,.91A5.52,5.52,0,0,0,62,65.4a2.79,2.79,0,0,0,.54.77,2.83,2.83,0,0,0,1.39.88c0.26,0.09.51,0.17,0.74,0.23a6.32,6.32,0,0,0,.65.11,0.59,0.59,0,0,1,.43.14,1,1,0,0,1,.11.48,2.21,2.21,0,0,0,.2.74,2.1,2.1,0,0,0,.65.91,2.19,2.19,0,0,0,1.13.45A1.66,1.66,0,0,0,68.66,70a1.25,1.25,0,0,1,.51-0.14c0.11,0,.11.11-0.06,0.23a5.13,5.13,0,0,1-.82.43,8.9,8.9,0,0,0-1.19.68,11.65,11.65,0,0,0-2.86,2.66,19.06,19.06,0,0,0-1.64,2.75c-0.6-.62-1.16-1.28-1.64-1.87a19.71,19.71,0,0,1-1.25-1.59A10.6,10.6,0,0,1,59,71.89a8.88,8.88,0,0,0-.62-1c-0.23-.31-0.48-0.57-0.68-0.85a2.17,2.17,0,0,1-.43-0.94,5,5,0,0,1,.06-1.42c0.09-.57.2-1.19,0.23-1.7a3.48,3.48,0,0,0-.17-1.28,3.79,3.79,0,0,0-.43-1,1.94,1.94,0,0,0-.54-0.54A3.76,3.76,0,0,1,56,62.73a2.66,2.66,0,0,1-.28-0.4A1,1,0,0,0,55.39,62a1.14,1.14,0,0,0-.6-0.23,1.93,1.93,0,0,0-1,.14,8.16,8.16,0,0,0-1.42.68,5.34,5.34,0,0,0-.77.57,1.91,1.91,0,0,0-.48.48c-0.06.14,0.06,0.2,0.2,0.23a1.18,1.18,0,0,1,.37,0,0.78,0.78,0,0,1-.23.37,2.12,2.12,0,0,1-.4.34l-0.4.31a2,2,0,0,0-.34.37,0.43,0.43,0,0,0-.14.28,0.31,0.31,0,0,0,.26.09c0.11,0,.26,0,0.23.06a2,2,0,0,1-.37.43c-0.17.17-.31,0.34-0.48,0.51s-0.28.31-.37,0.43a0.53,0.53,0,0,0-.14.28c0,0.09,0,.14.06,0.17a1.75,1.75,0,0,0,.43,0,3.47,3.47,0,0,1,.54-0.06,0.47,0.47,0,0,1,.45.17,4.47,4.47,0,0,1,.26.74,3.2,3.2,0,0,0,.31.62,2.88,2.88,0,0,1,.28.68,13.85,13.85,0,0,0,.09,1.53,2.8,2.8,0,0,0,.34.65,3.83,3.83,0,0,0,.26.31,1,1,0,0,1,.11.34c0,0.14,0,.37,0,0.54a1.51,1.51,0,0,0,.14.57,3.61,3.61,0,0,0,.45.71c0.23,0.26.51,0.51,0.79,0.82s0.6,0.62.94,1A7.62,7.62,0,0,1,55.9,77.9c0.45,0.94,1,2.38,1.39,3.23a11.26,11.26,0,0,0,.6,1.3A10,10,0,0,0,59,84c0.23,0.28.48,0.6,0.62,0.82a1.31,1.31,0,0,1,.2.51,0.72,0.72,0,0,0,.23.4,5,5,0,0,0,.57.45,2,2,0,0,1,.43.37c0.09,0.11.11,0.26,0,.28a1,1,0,0,1-.51,0,5.25,5.25,0,0,1-.94-0.23c-0.45-.14-1-0.34-1.5-0.45A3.12,3.12,0,0,0,57,86.09a5.57,5.57,0,0,0-1.25.28c-0.43.14-.85,0.34-1.25,0.45a3.2,3.2,0,0,1-1.42.06c-0.62-.11-1.53-0.34-2.13-0.48a3.44,3.44,0,0,0-1.19-.14,5.73,5.73,0,0,0-1,.17,2.67,2.67,0,0,0-.74.28,3.33,3.33,0,0,0-.43.31,1.56,1.56,0,0,1-.4.26,2.43,2.43,0,0,1-.48.09,1.31,1.31,0,0,0-.51.2,2,2,0,0,0-.6.68,2,2,0,0,0-.09.88,4.23,4.23,0,0,1,.06.48,2.22,2.22,0,0,1-.06.4,1.7,1.7,0,0,0,0,.57,3.62,3.62,0,0,0,.28.91,2.5,2.5,0,0,0,.54.79c0.14,0.09.23-.17,0.28-0.34s0.11-.31.17-0.26a1.51,1.51,0,0,1,.28.51,4.51,4.51,0,0,0,.4.74,3.67,3.67,0,0,0,.43.48,1.25,1.25,0,0,0,.34.28,0.35,0.35,0,0,0,.23-0.23,0.76,0.76,0,0,1,.17-0.34,0.21,0.21,0,0,1,.26.09,1,1,0,0,1,.2.4,6.25,6.25,0,0,0,.31.6,3.7,3.7,0,0,0,.51.6l0.31,0.31a0.34,0.34,0,0,0,.28.14,0.47,0.47,0,0,0,.11-0.45,2.72,2.72,0,0,1,.2-1A3.15,3.15,0,0,1,51.59,93a1.84,1.84,0,0,1,.71-0.57,3.14,3.14,0,0,1,1,.06c0.31,0.06.51,0.06,0.57,0.09a0.25,0.25,0,0,1-.06.23c-0.06.09-.09,0.11,0,0.17a0.65,0.65,0,0,0,.26.17,0.92,0.92,0,0,0,.45.09,3.24,3.24,0,0,0,1-.17c0.45-.14,1-0.43,1.53-0.54a3.25,3.25,0,0,1,1.28,0,7.75,7.75,0,0,1,1.25.28c0.45,0.14,1,.34,1.56.54s1.19,0.43,1.76.65a9,9,0,0,1,1.47.57,1.63,1.63,0,0,1,.54.57,2.35,2.35,0,0,0,.51.62,11.94,11.94,0,0,0,1.11.91c0.48,0.37,1.08.77,1.59,1.22a11.24,11.24,0,0,1,1.45,1.39c0.06-.28.14-0.57,0.2-0.79A0.36,0.36,0,0,1,70,98.14a3.6,3.6,0,0,1,.88.2,11.49,11.49,0,0,1,1.56.57,1.9,1.9,0,0,1,.85.77,12.25,12.25,0,0,0-1.59.28,4.72,4.72,0,0,0-1.19.48,3.37,3.37,0,0,0-.82.71,5.23,5.23,0,0,1-.82.74c-0.34.23-.77,0.43-1,0.6a3.18,3.18,0,0,0-.74.62c-0.23.26-.51,0.57-0.74,0.79a7.08,7.08,0,0,0-.65.65,3.76,3.76,0,0,0-.51.85,6.05,6.05,0,0,0-.17.88c-0.09.37-.23,0.88-0.28,1.25a2.08,2.08,0,0,0,0,.74,1.71,1.71,0,0,1,0,.54c0,0.17-.09.37-0.14,0.6a2.89,2.89,0,0,0-.09.82c0,0.4.09,1,.14,1.5s0.14,1,.23,1.5a17,17,0,0,1,.2,1.73,10,10,0,0,1,0,1.59,4.34,4.34,0,0,0,.68-0.26,7,7,0,0,0,1-.54,1.53,1.53,0,0,0,.6-0.62L68,115.88c0.23,0.28.51,0.57,0.79,0.91a11.43,11.43,0,0,1,.82.94,0.91,0.91,0,0,1,.23.77,2.68,2.68,0,0,1-.65,1.22,23.69,23.69,0,0,1-1.64,1.73,14.69,14.69,0,0,1-1.19,1c-0.4.31-.88,0.71-1.28,1a2.93,2.93,0,0,1-.94.48,1.1,1.1,0,0,1-.88-0.2c-0.34-.23-0.79-0.62-1.22-0.91a3.46,3.46,0,0,0-1.08-.54,2.31,2.31,0,0,0-.88,0,2.35,2.35,0,0,0-.88.31,3.76,3.76,0,0,0-.91.88c-0.28.4-.57,0.85-0.85,1.19s-0.57.51-.77,0.79a1.67,1.67,0,0,0-.43,1,1.78,1.78,0,0,0,.14,1,1.25,1.25,0,0,0,.37.51,4.94,4.94,0,0,1,.4.34,3.7,3.7,0,0,1,.31.34,5.18,5.18,0,0,0,.37.45,2.61,2.61,0,0,0,.43.4c0.14,0.09.23,0.11,0.31,0a0.72,0.72,0,0,1,.2-0.28,0.65,0.65,0,0,1,.4.26l0.4,0.4a0.57,0.57,0,0,0,.31.2,0.25,0.25,0,0,0,.17-0.17c0.06-.09.09-0.2,0.17-0.17a1.53,1.53,0,0,1,.4.31,1,1,0,0,0,.4.34c0.11,0,.17-0.11.23-0.26a2.74,2.74,0,0,0,.09-0.51,0.72,0.72,0,0,1,.17-0.43,1.3,1.3,0,0,1,.4-0.2,1.7,1.7,0,0,0,.37-0.26,0.71,0.71,0,0,1,.23-0.14,0.26,0.26,0,0,1,.2,0l0.34,0.11a1.62,1.62,0,0,0,.4.11,1.37,1.37,0,0,0,.48,0l0.4-.09a0.54,0.54,0,0,1,.37,0,1.5,1.5,0,0,1,.45.26,2,2,0,0,1,.62.4,2.89,2.89,0,0,1,.57,1c0.51-.51,1-1,1.47-1.36a8.77,8.77,0,0,1,1.22-.85c0.43-.23.88-0.45,1.19-0.65a2.08,2.08,0,0,0,.68-0.62,4.6,4.6,0,0,0,.51-1,4.44,4.44,0,0,1,.51-1.19,3.62,3.62,0,0,1,.94-0.82,2,2,0,0,1,.74-0.34,3.69,3.69,0,0,1,.62-0.09c0.23-.06.51-0.17,0.77-0.26a2.12,2.12,0,0,0,.57-0.26,1.21,1.21,0,0,0,.34-0.31,1.86,1.86,0,0,0,.26-0.43,3,3,0,0,0,.34-0.68,7,7,0,0,0,.26-0.82,3.69,3.69,0,0,0,.17-1,4.16,4.16,0,0,0-.37-1.45c-0.26-.57-0.62-1.19-0.85-1.81a4.61,4.61,0,0,1-.37-1.7,3.47,3.47,0,0,1,.17-1.11A1,1,0,0,1,75.8,113a4.91,4.91,0,0,1,.68-0.37c0.28-.11.57-0.26,0.79-0.34a3.22,3.22,0,0,1,.54-0.23,0.27,0.27,0,0,1,.28.14l0.26,0.43c0.14,0.26.37,0.65,0.57,0.94a3.83,3.83,0,0,0,.51.68c0.17,0.2.34,0.37,0.51,0.54s0.28,0.34.62,0.74,0.85,1,1.25,1.47,0.74,0.77,1,1.11a11.88,11.88,0,0,1,.79,1c0.23,0.31.4,0.57,0.51,0.74a3,3,0,0,0,.28.4,2.42,2.42,0,0,0,.31-0.4c0.09-.17.17-0.4,0.26-0.6a2.88,2.88,0,0,0,.17-0.71,4.2,4.2,0,0,0,0-.85,17.75,17.75,0,0,1,3,.94,2.36,2.36,0,0,1,1.11.82,1.92,1.92,0,0,1,.31.82,6.36,6.36,0,0,1,.06,1.36c-0.06.6-.17,1.33-0.26,1.81a2.73,2.73,0,0,1-.23.85,0.56,0.56,0,0,1-.31.31,0.62,0.62,0,0,1-.45,0,1.35,1.35,0,0,1-.51-0.23c-0.17-.09-0.34-0.2-0.62-0.37a3.68,3.68,0,0,0-1.11-.57,2,2,0,0,0-1.28.14,3.5,3.5,0,0,0-1,.79,3.31,3.31,0,0,0-.6.77,3.2,3.2,0,0,1-.31.62,3.3,3.3,0,0,1-.57.45,2,2,0,0,0-.57.65,1.07,1.07,0,0,0-.17.6,1.34,1.34,0,0,0,.11.48,1.61,1.61,0,0,0,.23.37,4.63,4.63,0,0,1,.4.51c0.17,0.23.34,0.51,0.48,0.74s0.28,0.37.4,0.54a1.33,1.33,0,0,0,.4.34,0.15,0.15,0,0,0,.23-0.09c0-.09,0-0.17.06-0.26s0.06-.17.17-0.14a1.65,1.65,0,0,1,.43.34,1.45,1.45,0,0,0,.45.34,0.23,0.23,0,0,0,.28-0.11,0.83,0.83,0,0,0,.06-0.26,0.19,0.19,0,0,1,.11-0.2,0.38,0.38,0,0,1,.28.17c0.11,0.14.26,0.31,0.4,0.51a2.67,2.67,0,0,0,.37.4c0.09,0.06.14,0,.2-0.09a0.79,0.79,0,0,0,.11-0.34,4.46,4.46,0,0,1,.11-0.65,0.7,0.7,0,0,1,.34-0.31,0.6,0.6,0,0,1,.43-0.14,2.51,2.51,0,0,1,.54.28,2.84,2.84,0,0,0,.6.28,1,1,0,0,0,.65,0c0.26-.06.57-0.26,0.82-0.34a1.6,1.6,0,0,1,.57-0.09c0.14,0,.26,0,0.37,0a0.87,0.87,0,0,0,.37-0.09,0.89,0.89,0,0,0,.28-0.14,0.3,0.3,0,0,1,.31-0.09,4.09,4.09,0,0,1,.6.43,5.23,5.23,0,0,0,.71.48,2.23,2.23,0,0,0,.62.26c0-.17,0-0.31,0-0.57s0-.54,0-0.85,0-.6.06-1a9.78,9.78,0,0,1,.28-1.36c0.17-.57.4-1.3,0.54-1.87a3.59,3.59,0,0,0,.14-1.22,1.46,1.46,0,0,0-.2-0.62,0.85,0.85,0,0,1-.17-0.57,4.42,4.42,0,0,1,.43-1.13c0.2-.45.4-0.91,0.62-1.36a13,13,0,0,0,.51-1.25,2.44,2.44,0,0,0,.11-1,5.43,5.43,0,0,0-.2-1,1.66,1.66,0,0,0-.28-0.6,4.81,4.81,0,0,0-.28-0.4,3.1,3.1,0,0,0-.57-0.45c-0.34-.23-0.91-0.6-1.28-0.82s-0.57-.34-0.77-0.43a1.41,1.41,0,0,1-.54-0.37,4.71,4.71,0,0,1-.45-0.68,4.05,4.05,0,0,0-.54-0.74,5.23,5.23,0,0,0-.65-0.71,7,7,0,0,0-.57-0.51c-0.14-.14-0.2-0.23-0.14-0.34a1.41,1.41,0,0,1,.34-0.4,0.78,0.78,0,0,1,.37-0.26,0.34,0.34,0,0,1,.2.2,1.33,1.33,0,0,0,.28.26,2.7,2.7,0,0,0,.6.4,1.55,1.55,0,0,0,.68.14,1.51,1.51,0,0,0,.51-0.14,0.9,0.9,0,0,1,.43-0.17,1.57,1.57,0,0,1,.51.06,2.07,2.07,0,0,0,.85-0.17,1.14,1.14,0,0,1,.43-0.09,2.81,2.81,0,0,1,.43.09,1.34,1.34,0,0,0,.57,0,6,6,0,0,0,.94-0.31c0.28-.11.43-0.2,0.6-0.26a4.36,4.36,0,0,0,.54-0.23,1.94,1.94,0,0,0,.65-0.71,2,2,0,0,1,.31-0.37,2.29,2.29,0,0,0,.4-0.34,1.36,1.36,0,0,0,.23-0.45,3.38,3.38,0,0,1,.23-0.45,2.94,2.94,0,0,0,.34-0.48,1.23,1.23,0,0,0,.11-0.54,3.15,3.15,0,0,1,.11-0.65c0.09-.26.28-0.57,0.37-0.91a3.63,3.63,0,0,0,.09-1.19c0-.54-0.09-1.25-0.14-2S101,100.49,101,100c-0.31-3.71-3-6.8-4.48-9.92a9.35,9.35,0,0,1-1-4.17,4.15,4.15,0,0,1,.85-2.58A1.3,1.3,0,0,1,96.77,83a2.33,2.33,0,0,1,.45-0.17,1.44,1.44,0,0,1,.26-0.06c0,0.34-.06.71-0.06,1a1.27,1.27,0,0,0,.14.68,1.49,1.49,0,0,0,.62.54,1.54,1.54,0,0,0,.88.17,1.9,1.9,0,0,0,1-.4,2.42,2.42,0,0,0,.6-0.88,1.56,1.56,0,0,0,.14-0.6,0.35,0.35,0,0,1,.06-0.31,1.19,1.19,0,0,1,.43-0.23,2.38,2.38,0,0,0,.54-0.34,7.41,7.41,0,0,0,.48-0.57,1,1,0,0,0,.2-0.28,0.28,0.28,0,0,0,0-.26,1.17,1.17,0,0,0-.34-0.23c-0.17-.09-0.31-0.17-0.45-0.26a1.5,1.5,0,0,1-.31-0.26,0.68,0.68,0,0,1-.2-0.34,1,1,0,0,1,.06-0.4,1.18,1.18,0,0,0,.09-0.45,1.93,1.93,0,0,0-.14-0.65,2.87,2.87,0,0,1-.11-0.65c0-.2.06-0.34,0.06-0.45a0.64,0.64,0,0,0,0-.4c-0.06-.14-0.14-0.34-0.2-0.51a4,4,0,0,1-.14-0.45c0-.14,0-0.28,0-0.43a2.48,2.48,0,0,0-.17-0.79c0-.14-0.06-0.28-0.09-0.45s0-.4-0.06-0.57a0.74,0.74,0,0,0-.17-0.37,0.94,0.94,0,0,1-.17-0.28,1.38,1.38,0,0,1,0-.34,1.21,1.21,0,0,0-.06-0.31,1.73,1.73,0,0,0-.14-0.34,1.26,1.26,0,0,0-.23-0.31,3.54,3.54,0,0,0-.34-0.26,1.27,1.27,0,0,1-.28-0.37C99,71.29,98.9,71.12,98.82,71a1.86,1.86,0,0,0-.43-0.48,9.81,9.81,0,0,0-1.13-.79,2.46,2.46,0,0,0-1.11-.43,2.51,2.51,0,0,0-1.62.57,1.68,1.68,0,0,0-.43.77,2.1,2.1,0,0,0,0,.94,1.64,1.64,0,0,0,.43.68,1,1,0,0,0,.57.31,1.55,1.55,0,0,0,.79-0.17c0.23-.09.4-0.2,0.51-0.23a0.2,0.2,0,0,1,.23.2,3.83,3.83,0,0,1,0,.65,10.12,10.12,0,0,1-.06,1.19A7.71,7.71,0,0,1,96.09,76a12.21,12.21,0,0,1-1,1.93,5.68,5.68,0,0,1-.79,1,6.2,6.2,0,0,0-.62.77,1.23,1.23,0,0,0-.2.48,0.93,0.93,0,0,1-.2.37,2.91,2.91,0,0,0-.4.51,3,3,0,0,0-.34.82,3.16,3.16,0,0,0-.68,1.3,2,2,0,0,0-.54,1.39,2.9,2.9,0,0,0-.43,1.93,8.39,8.39,0,0,0-.31.88,1.25,1.25,0,0,0,0,.57,1.87,1.87,0,0,1,0,.4,4,4,0,0,1-.14.45,1.61,1.61,0,0,0-.09.51,1.93,1.93,0,0,0,.09.54,4,4,0,0,0,.11.57c0,0.2-.09.43-0.11,0.62a2.05,2.05,0,0,0,0,.6,1.44,1.44,0,0,0,.2.48,0.9,0.9,0,0,1,.17.48,2.22,2.22,0,0,1-.06.6,1.13,1.13,0,0,0,.06.54,2.51,2.51,0,0,0,.23.48,0.84,0.84,0,0,1,.14.43,2.26,2.26,0,0,1-.09.43c0,0.14-.06.28-0.09,0.48v0.82c0,0.37,0,.88,0,1.19s0,0.48-.06.62a0.57,0.57,0,0,0,.06.26,0.18,0.18,0,0,0,.2.06,1.78,1.78,0,0,0,.34-0.09,2.17,2.17,0,0,1,.77-0.11,1.94,1.94,0,0,1,.71.31,3.17,3.17,0,0,0,.82.4,1.7,1.7,0,0,0,1-.06,1.67,1.67,0,0,0,.74-0.57,1,1,0,0,0,.26-0.68,1.7,1.7,0,0,0-.2-0.77,0.91,0.91,0,0,0-.45-0.37A0.48,0.48,0,0,1,95,96.38a0.39,0.39,0,0,1,.4-0.14,1.68,1.68,0,0,1,.88.26,2.5,2.5,0,0,1,.91,1,8.09,8.09,0,0,1,.68,1.76,10.35,10.35,0,0,1,.34,1.62,4.78,4.78,0,0,1,0,1.28,5.71,5.71,0,0,1-.28,1,3.32,3.32,0,0,1-.57,1,2.58,2.58,0,0,1-1,.71,1.91,1.91,0,0,1-1,.14,2.67,2.67,0,0,1-1-.31,3.47,3.47,0,0,1-.88-0.68,5.64,5.64,0,0,1-.74-1c-0.23-.4-0.45-0.91-0.71-1.45s-0.54-1.11-.77-1.53a6.41,6.41,0,0,0-.71-1.08c-1.11-1.33-2.32-2.58-3.49-3.86a20.38,20.38,0,0,1-4.17-7.29,4.47,4.47,0,0,1-.17-1.13A2,2,0,0,1,82.83,86a2.26,2.26,0,0,1,.23-0.45,7.93,7.93,0,0,1,.54-1.22,1.56,1.56,0,0,0,1.33-.06A1.79,1.79,0,0,0,86,83a1.47,1.47,0,0,0,0-.79,0.59,0.59,0,0,0-.31-0.37,0.4,0.4,0,0,1-.23-0.31A1.48,1.48,0,0,1,85.95,81a10.77,10.77,0,0,0,1-.82,12.45,12.45,0,0,0,.85-1c0.23-.28.4-0.51,0.51-0.62a0.3,0.3,0,0,1,.37-0.09l0.6,0.23a1.41,1.41,0,0,0,.54.11,0.28,0.28,0,0,0,.28-0.14,0.54,0.54,0,0,0-.14-0.34,3.86,3.86,0,0,1-.17-0.68,8.14,8.14,0,0,1-.14-1.42,14.32,14.32,0,0,1,.17-1.9c0.09-.6.2-1,0.23-1.45a6.11,6.11,0,0,0,0-1,1.35,1.35,0,0,1,.06-0.57,0.43,0.43,0,0,1,.37-0.06,3,3,0,0,0,.71,0,13.8,13.8,0,0,1-.82-1.79A6.07,6.07,0,0,1,90,68.14c0-.37,0-0.71,0-1a7.1,7.1,0,0,0-.06-0.85c0-.23-0.09-0.43-0.11-0.6a1.09,1.09,0,0,1-.06-0.51A0.47,0.47,0,0,1,90,64.89c0.11-.09.26-0.11,0.4-0.2a0.52,0.52,0,0,0,.31-0.28,1.32,1.32,0,0,0-.4-0.43,3.86,3.86,0,0,1-1.11-1.28,9.67,9.67,0,0,1-.6-1.39L88.1,59.84a4.17,4.17,0,0,0-.2-0.48,0.33,0.33,0,0,1,0-.28,0.89,0.89,0,0,1,.26-0.34,0.4,0.4,0,0,0,.2-0.34,1.14,1.14,0,0,0-.51-0.28A3.26,3.26,0,0,1,87,57.69a7.33,7.33,0,0,1-1.22-1.08c-0.48-.51-1-1.13-1.56-1.62A6.83,6.83,0,0,0,83,54a9.75,9.75,0,0,0-1.11-.54A4.18,4.18,0,0,1,81,53.09a1.91,1.91,0,0,0-.31-0.34,1.35,1.35,0,0,0-.62.09,4.4,4.4,0,0,1-.82.14A9.94,9.94,0,0,1,78,53l0,0Z" style="fill: #fc0"/>
  </g>
</svg>
