<svg id="city_smol" data-name="smol" xmlns="http://www.w3.org/2000/svg" width="52.5mm" height="52.5mm" viewBox="0 0 148.82 148.82">
    <g
        transform="matrix(0.0283466687,0,0,0.0283466716,-742.6112356,-892.8162298)"
        style="clip-rule:evenodd;fill-rule:evenodd;image-rendering:optimizeQuality;shape-rendering:geometricPrecision;text-rendering:geometricPrecision"
        id="smol">
        <path
            class="fil2"
            d="m 27055,34094 c -13,-8 -28,-12 -45,-12 l 45,12 z m 3570,266 c -89,-69 -112,-164 -112,-164 -10,-41 -57,-77 -57,-77 -49,-47 -93,10 -93,10 l -378,0 c -7,24 -30,30 -45,32 -11,-3 -20,-6 -28,-7 -41,-19 -55,23 -55,23 -73,47 -52,-27 -52,-27 l -59,-11 c -20,0 -19,16 -19,16 -10,15 -48,2 -48,2 -48,-38 -109,31 -109,31 -31,26 -36,-31 -36,-31 -36,-4 -133,-6 -257,-6 -4,-4 -6,-6 -6,-6 l -1,-2 5,2 23,-5 1,5 166,0 7,-35 c 0,0 -70,14 -87,-35 0,0 -55,-134 -190,-159 0,0 -97,-26 -196,13 -19,-7 -28,-9 -28,-9 -228,-58 -298,121 -298,121 -13,28 -51,34 -51,34 -132,-3 -159,76 -159,76 l 221,0 10,-13 c 52,-107 142,-128 142,-128 0,0 -5,2 7,0 18,-4 36,-6 54,-6 -9,11 -19,23 -27,33 0,0 -14,35 -45,42 0,0 -107,-24 -121,72 l 204,0 c 0,0 51,-75 130,-109 45,21 74,44 74,44 46,30 55,52 55,52 l 14,-1 c -6,8 -10,14 -10,14 l 0,1 c -324,2 -754,11 -843,13 -4,-6 -55,-75 -109,2 l -634,14 -8,0 c -44,-85 -85,-11 -85,-11 l 1,6 c -165,-15 -354,-60 -438,-82 -29,-7 -45,-12 -45,-12 -146,37 -135,374 -135,374 26,352 202,264 202,264 42,-19 223,-31 390,-39 31,58 82,3 82,3 l 2,-7 c 28,-1 54,-2 78,-3 l -30,27 c 0,0 -450,542 100,1123 0,0 345,294 701,197 0,0 -221,-48 -473,-321 0,0 -477,-338 -128,-861 7,-11 14,-21 20,-31 l 1,263 -4,0 c 0,0 -107,774 643,957 0,0 558,138 884,-374 l 253,372 1166,-5 0,-145 -114,-21 -129,-197 -63,-52 -114,37 -46,-146 -94,-119 -197,21 -509,-880 c 40,0 65,-1 65,-1 l 113,209 158,2 -1,1 c 22,107 116,5 116,5 l 2,-5 5,0 409,26 c 0,0 30,36 66,17 45,-17 71,-88 71,-88 34,-92 128,-157 128,-157 0,0 -50,-91 -3,-168 z m -2234,761 -28,-5 -13,24 -60,0 c -45,-85 -90,-1 -90,-1 l -73,1 -11,-37 -49,-4 c -19,184 5,238 5,238 l 49,-13 7,-45 78,0 -1,-143 1,143 c 63,85 91,-19 91,-19 l -2,-120 2,120 59,-1 -1,-122 1,122 11,26 23,-3 c -37,-65 1,-161 1,-161 z m -269,3 1,176 -1,-176 z m 396,316 -14,19 -26,-11 -41,43 c 0,0 56,93 -49,79 l -54,56 27,36 -25,45 c 0,0 -55,-21 -174,-163 l 37,-32 34,18 50,-53 c 0,0 -28,-91 64,-64 l 41,-43 -8,-26 24,-17 c 0,0 42,95 114,113 z m -81,51 -86,-82 86,82 z m -49,79 -103,-98 103,98 z m -42,74 -128,-121 128,121 z m 132,-196 -88,-84 88,84 z m 236,14 3,24 -25,10 1,60 c 0,0 104,27 20,90 l 1,78 44,7 14,49 c 0,0 -54,24 -238,7 l 4,-49 36,-11 -1,-73 c 0,0 -84,-45 1,-90 l -2,-60 -23,-12 4,-29 c 0,0 97,37 161,-1 z m -21,94 -119,3 119,-3 z m 20,90 -143,3 143,-3 z m 22,83 -176,4 176,-4 z m -43,-233 -122,3 122,-3 z m 179,-171 19,13 -10,26 45,40 c 0,0 90,-59 80,46 l 58,52 35,-28 46,23 c 0,0 -19,56 -156,180 l -34,-36 17,-34 -55,-48 c 0,0 -90,31 -66,-62 l -45,-40 -25,9 -18,-23 c 0,0 93,-46 109,-118 z m 54,79 -79,89 79,-89 z m 80,46 -94,107 94,-107 z m 76,40 -117,132 117,-132 z m -201,-126 -80,92 80,-92 z m 6,-241 23,-3 11,26 60,-1 c 0,0 2,-8 6,-17 l -28,-40 -83,0 -11,8 c 0,0 -1,-3 -4,-8 l -28,0 45,124 -41,125 -114,100 -156,0 -117,-86 -42,-135 35,-128 -400,0 c -114,565 459,726 459,726 491,57 653,-268 693,-379 l -115,-170 -1,0 c 0,0 -45,84 -91,-1 l -59,1 -13,24 -29,-5 c 0,0 37,-96 0,-161 z m 94,22 2,119 -2,-119 z m 93,111 0,12 0,-12 z m -153,-110 2,122 -2,-122 z m -1159,-6 -11,-37 -49,-4 c -19,184 5,238 5,238 l 49,-13 7,-45 16,-1 c 0,-41 0,-100 0,-138 l -17,0 z m 14,-596 0,-19 22,0 -22,19 z m 1521,-419 c -26,-24 -28,-29 -28,-29 -40,-16 -42,-24 -42,-24 -14,-12 -28,-23 -42,-33 36,14 73,41 111,85 l 1,1 z m 1579,313 c 0,74 -60,134 -134,134 -74,0 -134,-60 -134,-134 0,-74 60,-134 134,-134 74,0 134,60 134,134 z"
            id="path576"
            style="fill:#000000" />
        <path
            class="fil3"
            d="m 30491,32900 c 0,0 -65,-343 250,-471 0,0 -132,-107 -277,83 0,0 -48,41 -117,318 0,0 155,-716 452,-532 0,0 -41,-180 -290,-94 0,0 -269,138 -256,760 0,0 72,468 -239,637 188,-188 153,-261 133,-282 23,-62 -1,-89 -11,-98 61,-114 6,-137 6,-137 l -8,8 c 43,-119 -35,-181 -35,-181 l -3,5 c 0,-41 -5,-88 -19,-142 0,0 24,170 -117,266 0,0 -180,156 -187,401 0,0 0,73 55,31 0,0 94,-3 70,87 0,0 -42,117 -187,-7 0,0 -87,-55 -38,-287 0,0 59,-193 -135,-148 0,0 -47,20 -129,21 0,0 160,23 88,203 0,0 -45,100 -52,159 -7,57 -85,293 207,427 16,9 28,16 38,21 -6,16 -54,141 -123,150 0,0 -50,-2 -78,9 0,0 -59,51 45,38 0,0 31,-7 3,17 0,0 -19,63 49,19 0,0 27,-64 100,-30 0,0 52,0 3,-34 0,0 -31,-10 -14,-52 l 65,-102 2,0 0,0 c 0,0 54,12 100,14 15,1 39,-1 56,-3 l -38,95 c 0,0 0,0 -27,21 0,0 -36,11 -60,8 0,0 -75,19 0,39 l 46,4 c 0,0 -34,69 21,45 24,-10 13,-59 58,-41 l 28,5 c 0,0 73,5 14,-40 0,0 -52,-3 -35,-35 0,0 47,-103 52,-112 -16,6 -32,9 -57,10 12,-1 20,-2 20,-2 16,-2 90,-34 86,-31 93,-49 362,-116 514,-654 0,0 31,-180 96,-328 0,0 45,-97 149,-170 0,0 -152,-57 -274,112 z m -892,205 c 0,0 152,-67 103,-134 0,0 35,30 45,72 1,3 1,5 2,8 0,0 4,-2 8,-8 8,-8 17,-25 20,-54 0,0 86,121 -88,173 0,0 -28,-59 -90,-57 z m 407,501 c -22,11 -45,21 -71,29 0,0 40,-18 64,-40 l 7,11 z"
            id="path578"
            style="fill:#ffcc00" />
        <path
            class="fil4"
            d="m 28432,35044 0,0 c -9,11 -15,23 -20,36 l -18,-15 10,-21 -322,2 c -9,33 -10,40 -12,53 l 46,4 11,37 73,-1 c 0,0 45,-84 90,1 l 60,0 13,-24 25,5 c 37,-62 21,-33 44,-77 z m -650,-508 0,277 c -84,107 -135,242 -135,389 0,232 126,434 312,544 l 2,-10 c 157,202 401,332 676,332 472,0 855,-383 855,-856 0,-472 -383,-855 -855,-855 -472,0 -855,383 -855,855 0,167 47,322 129,453 -134,-107 -221,-272 -221,-458 0,-116 34,-224 92,-315 l 0,245 c 2,-78 59,-251 59,-251 l 0,-293 195,0 70,-57 -324,0 z m 855,1490 c -449,0 -814,-364 -814,-814 0,-449 365,-813 814,-813 450,0 814,364 814,813 0,450 -364,814 -814,814 z m 586,-814 c 0,324 -262,586 -586,586 -323,0 -586,-262 -586,-586 0,-323 263,-585 586,-585 324,0 586,262 586,585 z m -586,-632 c -349,0 -632,283 -632,632 0,350 283,633 632,633 349,0 632,-283 632,-633 0,-349 -283,-632 -632,-632 z m 254,632 c 0,141 -114,254 -254,254 -140,0 -254,-113 -254,-254 0,-140 114,-254 254,-254 140,0 254,114 254,254 z m -254,-207 c -114,0 -207,93 -207,207 0,115 93,208 207,208 115,0 207,-93 207,-208 0,-114 -92,-207 -207,-207 z m 1930,646 c -59,-138 -162,-83 -162,-83 -42,45 -45,-3 -45,-3 -35,-294 -294,-221 -294,-221 -52,38 -66,-18 -66,-18 l -442,-794 -392,-1 c 45,24 54,34 78,70 l 266,0 456,822 c 0,0 24,59 72,14 0,0 208,-107 256,166 0,0 -3,128 86,69 0,0 94,-66 135,48 0,0 83,218 204,194 l 0,76 -1099,0 -231,-353 c -12,28 -31,56 -49,80 l 232,352 1230,0 2,-255 c -113,96 -237,-163 -237,-163 z m -2225,370 c -38,-7 -19,-4 -66,-4 -449,0 -831,-361 -831,-810 0,-198 74,-381 195,-524 -26,5 -40,-7 -66,4 -98,140 -168,328 -168,512 0,472 383,855 855,855 73,0 93,8 160,-9 -40,-7 -60,-15 -79,-24 z m 653,-975 -107,0 -7,8 7,25 -12,8 c 6,11 11,23 12,36 l 21,-3 11,26 11,0 49,-1 c 0,0 13,-53 44,-53 l -29,-46 z m -107,81 c 0,6 -1,12 -2,18 l 10,0 c -2,-6 -5,-12 -8,-18 z m 170,163 105,159 c 9,-25 27,-63 36,-88 l -63,-97 -58,1 c 0,0 -8,14 -20,25 z m -994,-154 -2,9 1,0 1,-9 z"
            id="path580"
            style="fill:#999999" />
    </g>
</svg>
