<svg id="city_tyu" data-name="tyu" xmlns="http://www.w3.org/2000/svg" width="52.5mm" height="52.5mm" viewBox="0 0 148.82 148.82">
  <title>tyu</title>
  <g id="tyu">
    <path d="M71.46,80.42c-3.51,0-7,.17-10.46.48l9.24-38.78Zm40.11-7.11h0.14l12-.37-4,3.43,4.2,3.17-12.13.4,0.17,5.73,2.44-.2,0.74,1.5L110.78,99.3l0.17,0.31-4.37,2.18,0-.43h-0.09l0,0.09c-0.85.2-1.73,0.37-2.64,0.54a52.8,52.8,0,0,1-10,2.07c-0.85.11-1.79,0.2-2.75,0.26-4.68-1.28-8.62-3.51-14.31-3.51-6,0-10,2.47-15,3.69l-0.4,0c-2.3-.17-4.45-0.4-6.46-0.71h0a97.88,97.88,0,0,1-14.29-3.23c-0.48.17-1,.37-1.47,0.57a21.08,21.08,0,0,0-3.37-.28L31.92,87.28c-0.28,0-.82.11-1.11,0.11l1,13.78a34.64,34.64,0,0,0-5.19,1.45l-1.42.11-0.37-7L28,92.44l-0.06-5.92,1.53-2.41,16.67-1.76,0.74,0.06L70,38.18h0L69.7,28.63,71,28.57h0c4.2-.11,8.79-0.2,12.93-0.31,0.28,0,.31.09,0.34,0.26v0.77l9.64-.23-6.43,3.43,6.66,3-11.85.28A0.26,0.26,0,0,1,82,35.55V35.38h0V34.75L71.26,35l0.14,4v-0.4l0-.62,0.09-.06L97.54,83.28c3.37,0.77,6.72,1.64,10,2.61l2.78-.23L109.93,73l1.59-.06v0.31ZM60.07,81c-0.45.06-.94,0.09-1.39,0.14l7.51-25.71L60.09,81h0Zm-2.35.23-1.47.17,9-26Zm-2.44.28c-0.54.06-1,.14-1.59,0.2L64.77,54.06Zm9.5-27.41,3.15-7.82M52.7,81.81l-1.79.26L64.12,53.32,52.7,81.78v0ZM70.16,40.2h0v0Zm0,0.37v0ZM49.86,82.23l-1.47.26-0.45,0L63.27,53.12,49.89,82.23h0Zm46.57,0.88L78.15,51.31l16,31.32C94.9,82.77,95.67,82.94,96.43,83.11Zm-3.37-.68L78,52.92,91.08,82.09Zm-3-.54L77.33,53.55l11,28.09ZM71.46,39.49l0-.48,0,0.65V39.49Zm0,0.17v0h0ZM87.31,81.5L76.65,54.23,85.72,81.3l1.62,0.2h0Zm-2.55-.34L76.17,55.5,83.28,81Zm-2.41-.26L71.55,42.26l1.22,38.13c3.2,0,6.38.2,9.55,0.51h0Z" style="fill: #fc0"/>
    <path d="M131.1,113.61c-4.9-1.25-8.84-3.66-15-3.66-8.62,0-10.57,4.39-18.62,4.39S84.93,110,76.9,110s-12.47,4.39-20.52,4.39S43.94,110,35.83,110c-7.34,0-11.57,3.57-18.11,4.28v-5.1c6.55-.71,10.77-4.28,18.11-4.28,8.11,0,12.44,4.39,20.55,4.39s12.44-4.39,20.52-4.39,12.59,4.39,20.58,4.39,10-4.39,18.62-4.39c6.15,0,10.09,2.44,15,3.69v5.07Z" style="fill: #999"/>
    <path d="M131.1,119.76c-4.9-1.25-8.84-3.69-15-3.69-8.62,0-10.57,4.39-18.62,4.39s-12.56-4.39-20.58-4.39-12.47,4.39-20.52,4.39-12.44-4.39-20.55-4.39c-7.34,0-11.57,3.57-18.11,4.28v-5.1c6.55-.71,10.77-4.28,18.11-4.28,8.11,0,12.44,4.39,20.55,4.39S68.83,111,76.9,111s12.59,4.39,20.58,4.39,10-4.39,18.62-4.39c6.15,0,10.09,2.44,15,3.69v5.1Z" style="fill: #999"/>
    <path d="M131.1,107.46c-4.9-1.25-8.84-3.66-15-3.66-8.62,0-10.57,4.39-18.62,4.39S84.93,103.8,76.9,103.8s-12.47,4.39-20.52,4.39-12.44-4.39-20.55-4.39c-7.34,0-11.57,3.57-18.11,4.28V103c6.55-.71,10.77-4.28,18.11-4.28,8.11,0,12.44,4.39,20.55,4.39S68.83,98.7,76.9,98.7s12.59,4.39,20.58,4.39,10-4.39,18.62-4.39c6.15,0,10.09,2.44,15,3.69v5.07Z" style="fill: #999"/>
  </g>
</svg>
