<?xml version="1.0" encoding="UTF-8" standalone="no"?>
<svg
    xmlns:dc="http://purl.org/dc/elements/1.1/"
    xmlns:cc="http://creativecommons.org/ns#"
    xmlns:rdf="http://www.w3.org/1999/02/22-rdf-syntax-ns#"
    xmlns:svg="http://www.w3.org/2000/svg"
    xmlns="http://www.w3.org/2000/svg"
    version="1.1"
    id="order-poster-body"
    preserveAspectRatio="none"
    viewBox="0 0 220 300"
    xml:space="preserve">
<path
    d="M 1.363006077,36.07843422 C 1.500006687,46.76737613 1.910008515,61.08529832 1.691007539,71.53724153 1.636007294,70.27524838 1.500006687,64.59527925 1.336005956,64.04328225 1.11700498,63.72728397 0.9810043736,57.61431719 0.9530042488,56.54932297 l -0.055000245,-3.15598285 c 0,-3.98397835 0.055000245,-8.63795305 -0.055000245,-12.58193162 -0.02700012,0.59199678 -0.02700012,3.31298199 -0.02700012,3.94397857 0,6.42896506 0,12.85793012 0.02700012,19.28789518 0,3.0369835 0,11.99093484 -0.055000245,11.79393591 -0.02700012,-0.35499807 -0.02700012,-0.15799914 -0.02700012,0 l -0.02700012,0.98599464 c 0,2.52398628 0,5.00897278 0.055000245,7.49395928 0.055000245,4.06297792 -0.055000245,12.22693355 -0.055000245,12.22693355 0.1640007311,-0.74899593 0,0.59199679 -0.02700012,0.78899571 C -1.09700489,147.819827 1.11700498,244.1403036 1.1440051,297.0730159 c 0,0.3159983 0.02700012,0.5919968 0.08200037,0.8679953 0.05500024,0.2759985 0.109000486,0.5129972 0.191000851,0.7099961 0.109000486,0.2369987 0.191000852,0.3549981 0.328001462,0.5129972 0.137000611,0.1179994 0.246001097,0.1579992 0.383001708,0.1579992 h 7.817034848 c -0.71100317,0 -1.44900646,0 -2.159009625,-0.079 1.339005969,-0.4339976 5.685025336,-0.1579991 7.325032646,-0.2369987 3.14301402,-0.1179994 6.28702803,-0.2759985 9.43004204,-0.3549981 -0.21900097,0 -0.68300304,-0.039 -0.68300304,-0.039 1.06600475,0 3.22501437,0 3.22501437,0 -0.16400073,0 -0.51900231,0 -0.51900231,0 1.06600475,-0.039 3.22501438,-0.039 3.22501438,-0.039 -2.07700926,-0.039 -6.20502766,-0.1179994 -6.20502766,-0.1179994 1.0110045,-0.039 3.06101364,-0.039 3.06101364,-0.039 1.20300537,0 3.58101597,0.1579991 3.66301633,0.1579991 -1.01100451,-0.079 -3.06101364,-0.1579991 -3.06101364,-0.1579991 2.54201133,-0.039 5.46702437,-0.1969989 7.87203509,0.079 -1.17500524,0.039 -3.58101597,0.1179993 -3.58101597,0.1179993 0.62900281,0 1.28500573,-0.039 0.87500391,0.039 0.0270001,0 -3.77201682,0.079 -3.7450167,0.079 -1.64000731,0.039 -4.89302181,0.1579991 -5.0020223,0.1579991 9.1290407,0 27.38712209,-0.1969989 27.38712209,-0.1969989 0.54700244,0 5.93102644,-0.1179994 5.93102644,-0.079 0.0270001,0.079 -1.39400621,0.1179994 -1.66700743,0.1179994 h 0.0830004 c -0.6290028,0.039 -1.44900646,0 -2.07700926,0.1179994 1.03900463,0.1179993 2.43301085,0 3.4990156,-0.079 0.65600292,0 0.41000183,0 0.16400073,-0.039 1.31200585,-0.1179994 3.93601755,-0.3549981 3.93601755,-0.3549981 -4.72902108,0.039 -14.15806312,0.2759985 -14.15806312,0.2759985 -0.16400073,-0.1179993 1.14800512,-0.1179993 1.47600658,-0.1179993 -1.39400621,0.039 -4.18201864,0 -4.18201864,0 0.92900414,-0.039 2.78801243,-0.039 2.78801243,-0.039 0.73800329,0 2.18700975,0 2.18700975,0 0.92900414,-0.079 2.78801243,-0.1179994 2.78801243,-0.1179994 -1.33900597,0 -4.01801792,0 -4.01801792,0 1.33900597,-0.039 4.01801792,-0.079 4.01801792,-0.079 0.27300121,0 1.42100633,0 1.42100633,0 1.39400621,0 4.18201864,-0.039 4.18201864,-0.039 1.44900646,-0.1579992 4.3730195,-0.196999 4.3730195,-0.196999 2.24100999,-0.039 6.72402997,0 6.72402997,0 -1.44900646,0.039 -4.37301949,0.1579992 -4.37301949,0.1579992 -0.51900232,0 -1.55800695,0.039 -1.55800695,0.039 0.68300305,0 1.58500707,-0.079 2.24100999,0.039 -1.0110045,0.079 -2.10500938,0.039 -3.11601389,0.079 -1.36700609,0.1579992 -4.1270184,0.4729974 -4.1270184,0.4729974 0.62900281,0 1.85900829,0.039 1.85900829,0.039 -0.10900048,0.079 -0.30100134,0.1179994 -0.54700244,0.1179994 l 8.58203826,-0.079 c -3.47101547,0.1179994 -6.83303046,0.196999 -10.33204606,0.1579992 0,0.039 -0.51900231,0.039 -0.51900231,0.039 1.44900646,0 4.29101913,0.039 4.29101913,0.039 -0.68300305,0.039 -2.05000914,0.079 -2.10500939,0.079 l 2.89701292,-0.039 c 0.54700244,0 5.35702388,-0.079 5.93102644,0.196999 -3.11601389,0.1579991 -6.31402815,0.079 -9.43004204,0.039 4.15501852,0.079 12.49105568,0.1179994 12.49105568,0.1179994 1.06600476,0 11.28805032,-0.1579991 11.28805032,-0.1579991 0,-0.039 112.00949935,0.5129972 112.00949935,0.5129972 0,0 24.2711082,0.1179993 24.2711082,0.079 0.1910008,0 0.3280014,-0.079 0.4920021,-0.2369987 0.1640008,-0.1579991 0.3010014,-0.354998 0.4100019,-0.6309965 0.1370006,-0.2759985 0.219001,-0.551997 0.3010013,-0.9069951 0.055,-0.3939979 0.082,-0.7099962 0.082,-1.1439938 -0.2460011,-0.1969989 0.4920022,-292.431410846 0.4370019,-292.431410846 0,-0.591996783 -0.027,-0.985994641 -0.1370006,-1.537991642 -0.082,-0.472997429 -0.1910008,-0.8279955 -0.3550016,-1.222993354 -0.1640007,-0.393997859 -0.3280014,-0.630996571 -0.5470024,-0.8279955 -0.2460011,-0.2369987122 -0.437002,-0.3159982829 -0.683003,-0.3159982829 -5.0020223,-0.078999571 -10.0040446,-0.1579991414 -15.0060669,-0.2369987121 0.6290028,0 1.8860084,-0.078999571 1.9130085,-0.078999571 -2.4050107,0.038999788 -4.7560212,0 -7.1610319,-0.038999788 1.0110045,0.078999571 3.0610136,0.1179993588 3.0610136,0.1179993588 -0.5740026,0 -1.7490078,0.038999788 -1.7490078,0.038999788 -2.2140099,0.3939978589 -5.8490261,0.038999788 -8.2270367,0.038999788 0.219001,0 0.6290028,0.038999788 0.6290028,0.038999788 -10.4410465,0.038999788 -23.6701055,-1.3799925008 -33.7011502,-0.038999788 3.0890138,0.4339976419 6.5600292,0.4339976419 9.648043,0.5519969999 4.264019,-0.03899979 8.6640386,-0.196998929 12.6000562,0.03899979 2.9790133,0.03899979 8.9920401,0.03899979 8.9920401,0.03899979 l -2.3510105,0.03899979 c 0.5740025,0 1.7490078,0.03899979 1.7490078,0.03899979 L 195.914873,1.12762415 c -0.902004,0.236998712 -2.4330109,0.19699893 -3.8540172,0.236998712 -1.7490078,0 -5.2210233,0.03899979 -5.2210233,0.03899979 -0.4650021,0 -1.4490064,-0.03899979 -1.8860084,0.07899957 0.1640007,0.03899979 1.5030067,0.03899979 1.0930049,0.07899957 0.6290028,0 1.9130085,0.07899957 1.9130085,0.07899957 1.2030054,-0.03899979 3.581016,-0.157999142 3.581016,-0.157999142 0.3280014,0 1.2850057,0.03899979 2.3780106,0.07899957 l -4.920022,0.07899957 c 1.6130072,0 4.3460194,-0.03899979 5.8490261,-0.07899957 0.902004,0.03899979 1.8310082,0.03899979 2.5420113,0 l 9.2930415,0.03899979 c 1.3120058,0 2.706012,0.03899979 4.0180179,-0.07899957 0.4650021,-0.03899979 6.4780289,-0.117999359 6.4780289,-0.117999359 l 1.0930048,0.07899957 c 0.1910009,0 0.3550016,0.07899957 0.5470025,0.236998712 0.1640007,0.19699893 0.3010013,0.354998071 0.4370019,0.670996354 0.1370006,0.315998283 0.219001,0.591996783 0.3010014,0.985994642 0.082,0.433997641 0.1090005,0.788995712 0.1090005,1.222993354 0,0 -0.027,7.099961417 -0.027,6.941962277 0,-0.63099657 0,-6.902962489 0,-6.902962489 0,-0.47299743 -0.027,-0.788995713 -0.1090005,-1.222993354 -0.082,-0.354998071 -0.1640007,-0.670996354 -0.3010013,-0.946994854 -0.1370006,-0.315998283 -0.2460011,-0.512997212 -0.4100018,-0.670996354 -0.1910009,-0.157999141 -0.3550016,-0.236998712 -0.5470025,-0.236998712 -0.082,0 0,0 0,0 0.1910009,0 0.3550016,0.07899957 0.5190024,0.236998712 0.1910008,0.157999142 0.3010013,0.354998071 0.4370019,0.670996354 0.1370006,0.2759985 0.219001,0.551997 0.3010013,0.946994854 0.082,0.433997641 0.1090005,0.74899593 0.1090005,1.182993571 0,0 -0.027,1.853989925 0,1.813990142 -0.027,-0.236998712 -0.027,-1.774990354 -0.027,-1.774990354 0,-0.433997641 -0.027,-0.788995712 -0.1090005,-1.182993571 -0.055,-0.393997859 -0.1370006,-0.670996354 -0.2730012,-0.946994854 -0.1370006,-0.315998283 -0.2460011,-0.47299743 -0.4370019,-0.670996354 -0.1640008,-0.157999141 -0.3280015,-0.236998712 -0.5190024,-0.236998712 -0.2190009,0 -0.4370019,0 -0.6560029,0 -2.7850124,0.201998903 -8.306037,0.241998685 -8.306037,0.241998685 -3.0890138,0.07899957 -6.4230286,-0.03899979 -9.0200402,0.315998283 0,0.03899979 0.1640007,0.03899979 0.4650021,0.07899957 -0.3010014,0 -0.1910009,0 -0.1090005,0 -0.7380033,-0.03899979 -1.558007,0 -2.0230091,-0.07899957 -0.8200036,-0.03899979 -1.6670074,-0.117999359 -2.487011,-0.07899957 0.5740025,0.03899979 1.1480051,0 1.7220076,0.03899979 -0.4920022,0 -4.8110214,0.03899979 -4.8110214,0.03899979 0.1640007,0 0.3550016,-0.03899979 0.5740026,-0.03899979 -1.7220077,0.03899979 -4.9470221,0.03899979 -4.9470221,0.03899979 0.5740026,0 1.6950076,0.03899979 1.8310082,0.03899979 -0.1640008,0 -0.3550016,0 -0.3550016,0 -0.7650034,0 -2.7330122,-0.03899979 -2.1870098,0.393997858 -1.3670061,0 -4.1000182,0.03899979 -4.1000182,0.03899979 0.465002,0 1.3940062,0.03899979 1.3940062,0.03899979 0.7380033,0 1.4490064,0 2.1870097,0.07899957 0.2730012,0 0.9290042,0.03899979 1.6670074,0.07899957 -0.6290028,0 -1.0660047,0 -1.0660047,0 0.082,0.07899957 0.027,0.07899957 0,0.117999359 0.8750039,0 2.6240117,0.03899979 2.6240117,0.03899979 -0.8200037,-0.03899979 -2.4330109,-0.07899957 -2.4330109,-0.07899957 0.4920022,0 1.0390047,-0.03899979 1.6130072,-0.03899979 0.7930036,0 1.558007,0 1.8310082,-0.07899957 h -0.1640007 -0.5470025 0.3830017 c -1.0930048,-0.03899979 -2.2140098,-0.07899957 -3.3070147,-0.07899957 1.9410086,-0.03899979 5.7670257,-0.117999359 5.7670257,-0.117999359 1.4490065,-0.07899957 4.2910191,-0.117999359 4.2910191,-0.117999359 0.6290028,0.236998712 0.656003,0.236998712 0.6290028,0.236998712 0.3280015,0 1.0390047,0 1.0390047,0 2.1320095,-0.07899957 6.3680284,-0.117999359 6.3680284,-0.117999359 -1.0110046,0.551997001 -5.4940245,0.236998713 -7.5160336,0.275998501 -1.0390046,-0.03899979 -3.143014,0 -3.143014,0 0.4100019,-0.03899979 1.2300055,-0.07899957 1.2300055,-0.07899957 -0.7110031,0 -2.1050094,-0.07899957 -2.1050094,-0.07899957 -0.5470024,0 -1.2300054,0.03899979 -1.9680087,0.03899979 0.4920022,0.03899979 0.9840044,0.03899979 1.4210063,0.07899957 -1.0660048,0.157999141 -2.2140099,0.117999359 -3.3070147,0.157999141 0.1910008,0.03899979 0,0 -0.1640008,0 -0.902004,0.03899979 -2.706012,0.07899957 -2.706012,0.07899957 -0.7110032,0 -2.1050094,-0.03899979 -2.1050094,-0.03899979 0.683003,-0.03899979 2.023009,-0.07899957 2.023009,-0.07899957 -0.2730012,0 -2.8700128,-0.07899957 -2.8970129,-0.117999358 -0.4920022,0 -1.4760066,-0.03899979 -1.4760066,-0.03899979 0.1640007,-0.03899979 0.5190023,-0.03899979 0.5190023,-0.03899979 -0.7930035,0 -2.3510105,0 -2.3510105,0 0.1640008,0.157999142 0.5190023,0.393997859 0.5190023,0.393997859 -1.2300054,-0.03899979 -3.827017,0.07899957 -4.0180179,-0.315998282 -1.3940062,0.03899979 -2.8430126,0.07899957 -3.9630176,-0.117999359 0.5470024,-0.157999142 1.7490078,-0.117999359 2.3780106,-0.117999359 -2.5420114,0 -7.5980339,0.07899957 -7.5980339,0.07899957 0.219001,0 0.683003,0.03899979 0.683003,0.03899979 -1.7490078,0.157999141 -3.5530158,-0.03899979 -5.3300237,0 0.4370019,-0.03899979 1.3120058,-0.03899979 1.3120058,-0.03899979 -0.5190023,-0.157999142 0.4100019,-0.236998712 0.3550016,-0.236998712 0.6010027,0.03899979 1.8310082,0.157999141 1.8310082,0.157999141 0.6560029,-0.03899979 1.9410086,-0.117999359 1.9410086,-0.117999359 l 2.7610123,0.03899979 c 0.082,0 4.920022,0.117999359 5.1390229,0.03899979 -2.2690101,-0.07899957 -4.5100201,-0.07899957 -6.7790302,-0.117999358 1.0110045,0 3.0610137,-0.07899957 3.0610137,-0.07899957 -0.5740026,-0.03899979 -1.7490078,-0.117999359 -1.7490078,-0.117999359 -0.437002,0 -4.6190206,0.07899957 -4.6190206,0.03899979 -0.4100018,-0.07899957 3.2250144,-0.196998929 3.4990156,-0.196998929 -1.804008,-0.07899957 -5.3570238,-0.2759985 -5.3570238,-0.2759985 -0.6290028,0.03899979 -1.9130085,0.03899979 -1.9130085,0.03899979 -0.1090005,0.196998929 -1.0660048,0.117999358 -1.6670075,0.157999141 -0.7650034,0.03899979 -2.2690101,0.07899957 -2.2690101,0.07899957 -2.24101,0.03899979 -6.7240299,0.03899979 -6.7240299,0.03899979 2.487011,-0.117999359 7.5160335,-0.315998283 7.5160335,-0.315998283 1.585007,0 4.8110214,0 4.8110214,0 -2.023009,-0.117999359 -3.9360175,-0.196998929 -5.9590266,-0.157999141 C 155.7656944,1.40562264 148.3586614,0.93262521 148.3586614,0.93262521 c -1.3670061,0 -4.1000183,0.038999788 -4.1000183,0.038999788 -4.7560212,0.038999788 -9.5120424,-0.1179993587 -14.2680636,-0.038999788 -3.0070134,0.038999788 -8.9920401,0.354998071 -8.9920401,0.354998071 -0.9570043,0 -2.8970129,0.07899957 -2.8970129,0.07899957 -6.72403,0.117999358 -20.19909006,0.709996141 -20.19909006,0.709996141 2.54201136,0.03899979 7.59803386,-0.07899957 7.59803386,-0.07899957 0.5740026,-0.03899979 1.4210063,-0.03899979 1.4210063,-0.03899979 0.656003,-0.03899979 1.6130072,-0.157999141 1.3120059,0.03899979 0.7380033,0 2.3230104,-0.03899979 3.9360175,-0.07899957 3.1710142,-0.07899957 6.3410283,-0.433997642 9.5120424,-0.47299743 -0.3830017,0.157999142 -1.2850057,0.157999142 -2.0770092,0.19699893 1.6400073,-0.03899979 4.3730195,-0.117999359 6.0410269,-0.157999142 -1.8310081,0.03899979 -4.6190206,0.157999142 -4.2090187,0.393997859 l -1.3940063,0.07899957 c 1.7220077,0 5.2210233,0 5.2210233,0 -1.2300055,0.03899979 -3.7450167,0.03899979 -3.7450167,0.03899979 -2.1590096,0.157999141 -4.264019,0.196998929 -6.4230286,0.315998283 2.2690101,0.157999141 4.6740208,0.07899957 6.9420309,0.117999358 -1.2300054,0 -2.4600109,0.03899979 -3.6630163,0.03899979 -2.5150112,0 -7.5160335,-0.03899979 -7.5160335,-0.03899979 -0.3010013,-0.117999358 2.5150112,-0.117999358 2.7880124,-0.117999358 1.9680088,-0.117999359 3.9910178,-0.157999142 5.9590266,-0.354998071 -0.1910009,-0.07899957 -2.925013,0.07899957 -3.0610137,0.07899957 0.5740026,0.03899979 0.5190024,0.03899979 0.5190024,0.03899979 -1.7490078,0 -5.2480234,0.03899979 -5.2480234,0.03899979 -0.6010027,0.03899979 -1.8590083,0.157999141 -1.3940062,0 -3.9090175,0 -7.7350345,0.117999358 -11.64405196,0.2759985 0.73800329,0 8.30903706,0.03899979 8.30903706,0.03899979 0.5740025,0 1.1480051,-0.03899979 0.7930035,0 0.1640007,0 0.5190023,0 0.5190023,0 -0.6290028,0 -1.9130085,0.03899979 -1.9130085,0.03899979 -0.683003,0 -2.023009,0 -2.023009,0 -6.53302914,0.117999359 -19.57008726,0.315998283 -19.57008726,0.315998283 -0.3830017,0.117999359 -1.28500572,0.07899957 -2.02300901,0.03899979 -0.68300305,0.03899979 -2.02300902,0.07899957 -2.02300902,0.07899957 1.66700743,0.03899979 5.0020223,0.07899957 5.0020223,0.07899957 -1.03900464,0.03899979 -3.06101365,0.03899979 -3.06101365,0.03899979 -1.23000548,0 -3.66301633,-0.157999141 -3.77201682,-0.157999141 1.06600476,0.07899957 3.14301402,0.196998929 3.14301402,0.196998929 -1.91300853,0 -5.76702571,-0.03899979 -5.76702571,-0.03899979 -1.14800512,0.2759985 -3.11601389,0.19699893 -4.3730195,0.236998712 -2.24100999,0 -6.72402997,0 -6.72402997,0 0.90200402,-0.0359998 2.70601206,-0.114999375 2.70601206,-0.114999375 1.44900646,0.03899979 2.87001279,0.07899957 4.31901925,0.07899957 -0.0270001,0 -3.3890151,-0.07899957 -3.79901693,-0.07899957 1.94100865,-0.07899957 4.10001828,0.07899957 5.76702571,-0.196998929 l 3.60801608,-0.117999359 c -0.27300122,0 -0.79300353,-0.03899979 -0.79300353,-0.03899979 0.6290028,-0.196998929 2.43301084,-0.03899979 3.41701523,-0.07899957 -0.10900049,0 0.0550002,0 0.0820004,0 L 83.82637369,2.551616412 C 85.65738185,2.433617053 87.51639014,2.393617271 89.3473983,2.196618341 85.98538332,1.999619412 82.18636638,2.472616841 78.76935115,2.5906162 76.96534311,2.551616412 75.05233458,2.432617059 73.27532666,2.511616629 c 0.84700377,0.157999142 2.29601023,0.07899957 3.19801425,0.07899957 0.65600293,0 1.94100866,0.03899979 1.94100866,0.03899979 -2.07700926,0 -6.20502767,0.07899957 -6.20502767,0.07899957 -0.24600109,0 -1.14800511,0 -1.14800511,0 -2.29601024,0 -6.91503083,0.03899979 -6.91503083,0.03899979 -2.18700975,0.07899957 -6.56002924,0.236998712 -6.56002924,0.236998712 -1.33900597,0.03899979 -4.01801792,0.03899979 -4.01801792,0.03899979 2.65101182,0.03899979 7.95403546,0.03899979 7.95403546,0.03899979 l -1.28500573,0.03899979 h 0.16400073 c -0.92900414,0 -2.81501254,0.03899979 -2.81501254,0.03899979 -0.4920022,0 -1.42100634,0 -1.6130072,0 h 0.13700062 c -3.1160139,0.03899979 -9.34804168,0.03899979 -9.34804168,0.03899979 -0.3830017,0.19699893 -4.78302132,0.236998712 -6.34102827,0.2759985 h 0.0270001 c -1.53100683,0 -3.08901378,0 -4.6190206,0 3.44401536,-0.117999358 10.30404594,-0.2759985 10.30404594,-0.2759985 -0.43700195,0 -1.03900463,0.03899979 -0.32800146,-0.07899957 1.47600658,-0.03899979 4.45501986,-0.19699893 4.45501986,-0.19699893 0.10900048,0 7.87203509,0.03899979 7.87203509,0.03899979 -2.26901012,-0.03899979 -4.56502035,-0.03899979 -6.83303046,-0.07899957 0.43700195,0 1.69500755,0.03899979 2.07700926,-0.117999358 -1.14800512,-0.2759985 -3.58101597,0.03899979 -4.78302132,0.07899957 0.16400073,0 0.51900231,0 0.51900231,0 L 48.4302159,2.8666147 c 0.0820004,0 0.2460011,0 0.2460011,0 -1.72200768,0.03899979 -3.71701658,0 -4.6190206,0.236998712 -0.43700194,0 -1.31200585,0 -1.31200585,0 0.10900049,0 0.32800147,0.03899979 0.32800147,0.03899979 -4.83802157,0.118999354 -14.51406471,0.512997213 -14.51406471,0.512997213 -0.41000182,0 -6.12302729,0.196998929 -6.20502766,-0.157999142 -0.0820004,0 -1.83100816,-0.07899957 -2.51501121,-0.196998929 C 15.82207053,3.458611483 7.841034955,3.892609125 7.841034955,3.892609125 L 24.59610965,4.484605908 H 10.30104592 C 7.431033127,4.247607195 4.698020944,4.010608483 2.429010829,3.931608913 c -0.02700012,0.2759985 0.465002073,0.551997 1.121004997,0.788995712 -0.875003901,0.670996354 -1.47600658,2.523986284 -1.47600658,4.653974709 V 20.41851932 C 1.828008149,15.56754568 1.336005956,4.641605054 1.336005956,4.641605054 c 0,-0.2759985 0.02700012,-0.472997429 0.08200037,-0.709996141 0.02700012,-0.235998718 0.08200036,-0.393997859 0.164000727,-0.590996789 0.08200036,-0.157999141 0.137000611,-0.2759985 0.246001096,-0.393997859 0.109000486,-0.07899957 0.191000852,-0.117999358 0.301001342,-0.117999358 -0.109000486,0 -0.191000851,0.03899979 -0.301001342,0.117999358 -0.11000049,0.116999365 -0.164000731,0.235998718 -0.246001096,0.393997859 -0.08200037,0.19699893 -0.137000611,0.354998071 -0.192000856,0.590996789 -0.02700012,0.236998712 -0.05400024,0.433997641 -0.05400024,0.709996141 0,0 0,5.718968926 0,5.639969356 l 0.02700012,25.79685981 z M 157.6797029,4.483605913 c 2.9250131,-0.117999359 5.6580252,-0.196998929 6.0950272,-0.196998929 -0.8200037,0.07899957 -1.6130072,0.117999358 -2.460011,0.196998929 h -3.6350162 z m 60.6782705,23.153874177 c 0,-4.33897642 0,-9.54494813 0,-13.92392433 V 9.374579334 c 0,-0.07899957 0,-0.196998929 0,-0.2759985 -0.027,-2.681985425 -0.027,-4.45697578 -0.027,-4.45697578 0,-0.03899979 0,-0.03899979 0,-0.07899957 v -0.03899979 c -0.027,0 -0.027,0 -0.027,-0.03899979 h -0.027 c -0.437002,0 -1.0660048,0.03899979 -1.7490078,0.03899979 -0.1090005,-0.03899979 -0.2460011,-0.03899979 -0.3550016,-0.03899979 h -3.061014 c -0.1090004,-0.03899979 -0.1910008,-0.03899979 -0.2730012,-0.07899957 1.6950076,-0.236998712 3.7450167,-0.117999359 5.4390243,-0.117999359 0.027,0 0.027,0 0.055,0 0.027,0.03899979 0.055,0.07899957 0.055,0.07899957 0.027,0.03899979 0.027,0.07899957 0.027,0.117999359 0.027,0.03899979 0.027,0.07899957 0.027,0.157999141 0.027,9.978945771 0.055,19.957891541 0.082,29.937837311 -0.027,0.19699893 -0.027,-0.0789996 -0.027,-0.19699893 l -0.1370006,12.26693334 V 27.63748009 z m 0,26.89985382 c 0.027,8.67695285 0.055,23.34987311 0.082,23.34987311 0.219001,23.82387058 0,48.55473618 -0.082,73.08860278 V 54.53733391 z m 0,99.75145789 c 0.027,4.3779762 0.055,10.0579454 0.055,10.0579454 0,-2.0899887 0,-6.3109657 0,-6.3109657 l 0.082,11.595937 c 0.1370006,24.6918658 0.055,48.5147363 -0.055,73.0886028 0,-4.5359754 -0.027,-13.6079261 -0.027,-13.6079261 0,-4.417976 0.027,-8.8749517 0.027,-13.3319275 -0.027,3.5889805 -0.027,7.178961 -0.027,10.7679415 -0.027,-6.1929664 -0.055,-12.4639323 -0.027,-18.6958984 0,-3.4709812 0,-10.4129435 0,-10.4129435 0,-3.3529817 -0.027,-10.0579453 -0.027,-10.0579453 0,-0.079 0,-0.1969989 0,-0.3549981 v -6.5479644 l 0.055,7.8889571 c 0,1.7749904 0,5.3249711 0,5.3249711 0.027,-7.4149597 0.055,-14.6729203 0,-22.0488802 0,1.656991 0.027,3.5889805 0,5.2849713 -0.027,-0.5129972 -0.055,-1.2619931 -0.055,-2.0509889 v -20.5888881 z m 0,116.0023696 v 2.1689883 c 0,2.6429856 0.055,5.9169678 0,8.4409541 v -0.3549981 -10.2549443 z m 0,17.2369064 v 0.079 c 0,0.5129973 0.055,0.9069951 0.082,1.3809925 -0.027,1.85399 -0.055,3.6679801 -0.082,5.52197 0,0.1579992 0.027,2.5639861 0.027,2.5639861 0,0.039 0,0.079 0,0.079 -0.027,0.039 -0.027,0.079 -0.027,0.079 -0.027,0.039 -0.027,0.039 -0.027,0.079 -0.027,0 -0.027,0 -0.055,0 -0.2730013,0.079 -0.1090005,0.079 0,0.079 l 0,0 c -0.2460011,0 -0.4920022,0 -0.7650035,0 -1.7490078,-0.079 -4.3460193,-0.1179994 -6.5870293,-0.1579992 h 5.2480234 c 2.2140098,0 2.1870097,1.2619932 2.1870097,-4.8909734 v -4.8129738 z m -12.2720547,9.7029472 c -0.3280014,0.039 -0.9840044,0.039 -1.0660047,0.039 0.902004,0.039 0.7110031,0.039 0.7110031,0.039 -0.1910008,0 -0.5470024,0.039 -0.5470024,0.039 -0.4100018,0 -1.2030054,0 -1.2030054,0 0.1090005,0.079 -0.082,0.1179994 -0.1090005,0.1179994 0.5740026,-0.039 1.339006,-0.079 2.1050094,-0.1179994 0.6290028,0.039 1.2850058,0 1.9130086,0 -1.4490065,0.079 -4.3460194,0.1969989 -4.3460194,0.1969989 -0.8750039,-0.039 -1.7490078,-0.1969989 -2.6240117,-0.1969989 0.027,0 0.082,0 0.082,0 -0.1370007,0 -0.3550016,-0.039 -0.3550016,-0.039 -1.4490065,0.039 -4.3730195,0.1179994 -4.3730195,0.1179994 0.4100018,0 1.2300055,0.039 1.2300055,0.039 -0.6830031,0 -2.0230091,0 -2.0230091,0 -0.8750039,0 -2.6240117,0.039 -2.6240117,0.039 0.7380033,0 2.1870098,0.039 2.1870098,0.039 -1.8040081,0.079 -4.1000183,0.3159983 -5.8490261,0.079 1.0930049,-0.1179993 2.24101,-0.079 3.3070148,-0.1179993 -0.2730013,0 -2.3510105,0 -2.4050108,-0.039 1.121005,-0.1579992 2.4050108,-0.1579992 3.5530159,-0.196999 l -0.055,-0.039 h 12.4910557 z m -40.3161797,0 c -0.8470038,0.039 -1.6950076,0.1179994 -2.5420113,0.1179994 h 0.3280014 c -0.055,0 -0.1640007,0.039 -0.1640007,0.039 -1.0390046,0 -0.8200037,0 -0.6010027,-0.039 -6.0410269,-0.079 -11.8620529,0.4339976 -17.8480796,0.4729974 0.4920022,0 1.5030067,0 1.5030067,0 -0.6290028,0.039 -1.8590082,0.079 -1.8590082,0.079 -0.055,0 -0.1640008,-0.039 -0.1640008,-0.039 -1.0110045,0 -3.0070134,0.039 -3.0610136,0.079 h 2.2690101 c 0.3830017,-0.039 1.1480051,-0.039 1.1480051,-0.039 2.8970129,-0.039 8.746039,-0.079 8.746039,-0.079 5.0290224,-0.1179993 10.086045,-0.2759985 15.1150674,-0.3939978 l -1.121005,0.039 h 0.082 l -2.5420114,0.1179993 h 0.082 c -0.5190023,0 -1.5310068,0.039 -1.558007,0.039 h 0.1640008 c -0.7650034,0.039 -3.7450167,-0.079 -4.4280198,0.1969989 0.4920022,0.1179994 1.2030054,0.039 1.7220077,0.039 0,-0.1179993 0.6290028,-0.039 1.9130085,-0.039 2.1320095,-0.079 6.3960285,-0.2759985 6.3960285,-0.2759985 4.1820187,-0.039 12.5730561,-0.1179993 12.5730561,-0.1179993 -1.7770079,0.079 -5.3300238,0.1969989 -5.3300238,0.1969989 -2.4600109,0.039 -7.4340331,-0.039 -7.4340331,-0.039 2.1320095,0.039 6.3960285,0.079 6.3960285,0.079 -0.902004,0.039 -2.3230103,0 -3.2530145,0.1579991 3.7720168,0.1579992 7.5980339,-0.079 11.3700507,-0.079 -5.4390243,0.7889957 -13.44806,0.1579991 -20.0080892,0.2369987 -2.7060121,0.078999 -5.3570239,0 -8.0630359,0 -0.3550016,0 -4.701021,0.1179993 -4.701021,0.078999 -0.4920022,-0.078999 -0.3830017,-0.078999 -0.3550016,-0.078999 -1.5030067,0 -4.5370202,0 -4.5370202,0 -0.8750039,0.039 -2.6240117,0.078999 -2.6240117,0.078999 -0.2460011,-0.039 -0.1090005,-0.039 -0.1090005,-0.039 0.3280015,0 0.9840044,-0.039 0.9840044,-0.039 -0.5470024,-0.039 -1.5850071,-0.039 -1.5850071,-0.039 -2.6240117,0.1179993 -7.8720351,0.2369987 -7.8720351,0.2369987 0.1910009,0.1179993 0.027,0.1579991 0,0.1579991 2.2960103,-0.039 6.9150309,-0.1579991 6.9150309,-0.1579991 l -0.7930036,0.039 3.9360176,-0.079 c -1.3670061,0.039 -4.1000183,0.1579991 -4.1000183,0.1579991 l -2.460011,0.039 c 1.0110045,0 2.9790133,0 2.9790133,0 -5.0290224,1.0649942 -12.5460559,0.5129972 -17.7660792,0.551997 -0.4920022,-0.079 5.2750235,-0.2759985 5.8770262,-0.2759985 1.2850057,-0.1969989 2.8430127,-0.2369987 4.2910191,-0.2759985 -0.3280014,-0.039 -0.9840043,-0.079 -0.9840043,-0.079 -1.1750053,0.039 -2.8150126,0.2759985 -3.9630177,0.1179993 0.8470038,-0.1579991 1.9680088,-0.1579991 2.8430127,-0.1969989 -0.2730013,0 -0.7930036,-0.039 -0.7930036,-0.039 1.0110045,-0.079 3.0610137,-0.039 3.0610137,-0.039 0.4100018,-0.039 1.2030053,-0.079 1.2300055,-0.079 h -1.3120059 1.4760066 c -0.219001,0 -0.6010027,0 -0.6010027,0 0.4650021,0 1.3940062,-0.039 1.3940062,-0.039 0.7110032,-0.039 2.1050094,-0.1179994 2.1050094,-0.1179994 1.7490078,-0.039 5.2480234,-0.1179994 5.2480234,-0.1179994 -0.1910009,-0.039 -0.5470024,-0.039 -0.5470024,-0.039 -0.2730013,0 -0.2460011,0 -0.2460011,0 -0.6830031,0 -0.4650021,0 -0.3550016,0 0.219001,0 0.6010027,-0.039 0.6010027,-0.039 -3.1430141,-0.039 -9.4300421,-0.1579992 -9.4300421,-0.1579992 -2.6240117,0.039 -7.8720351,0.079 -7.8720351,0.079 -0.6010027,0 -7.5980338,-0.039 -7.5980338,-0.039 -3.0070134,0.039 -12.2450546,0.8679953 -15.0880673,0.039 1.8860084,-0.2759985 3.9090174,-0.1579991 5.8220259,-0.2759985 0.027,-0.039 0.027,-0.079 -0.055,-0.079 h 14.2680636 c -0.5190023,0.039 -1.0390046,0.039 -1.5310068,0.079 1.7220077,-0.039 5.2210233,-0.079 5.2210233,-0.079 h 0.1640007 39.031174 z M 2.074009246,288.1590643 1.96500876,297.0730159 c 0,0.079 0,0.1179994 0,0.1579991 0,0.079 0.02700012,0.1179994 0.02700012,0.1579992 0.02700012,0.039 0.05500024,0.039 0.08200037,0.079 0.02700012,0.039 0.02700012,0.039 0.05500024,0.039 0.301001342,0.039 0.60100268,0.039 0.902004021,0.079 -0.05500024,-0.039 -0.902004021,-0.039 -0.902004021,-0.039 -0.02700012,0 -0.02700012,-0.039 -0.05500024,-0.039 -0.02700012,-0.039 -0.05500024,-0.079 -0.08200037,-0.1179993 0,-0.039 -0.02700012,-0.079 -0.02700012,-0.1579992 -0.02700012,-0.039 -0.02700012,-0.079 -0.02700012,-0.1579991 0,0 0.109000486,-12.7799306 0.109000486,-13.0949288 0,-2.208988 0.02700012,-4.7729741 0.02700012,-7.5339591 v 11.7139363 z m 0,-111.4263944 c -0.02700012,-3.3919816 -0.02700012,-6.7449634 -0.02700012,-6.7449634 -0.08200037,12.9369297 -0.301001342,38.7727893 -0.301001342,38.7727893 0.02700012,-4.2989766 0.02700012,-8.6779528 0.02700012,-12.9769295 0,2.3269874 -0.02700012,4.8119739 -0.05500024,7.1389612 -0.02700012,-3.5499807 0.02700012,-7.2969603 0.05500024,-10.8859408 0,-2.8399846 -0.02700012,-8.4799539 -0.02700012,-8.4799539 0.05500024,-5.7189689 0.164000731,-17.117907 0.164000731,-17.117907 -0.11000049,1.1429938 -0.11000049,0.4329977 -0.11000049,0.1959989 0.02700012,-2.6819854 0.109000486,-8.085956 0.109000486,-8.085956 0.02700012,1.8539899 0.02700012,5.52197 0.02700012,5.52197 0.02700012,-3.5499807 0.109000486,-10.6499422 0.109000486,-10.6499422 0,-6.7449633 0,-20.2738898 0,-20.2738898 0.02700012,1.4199923 0.02700012,3.2339824 0.02700012,5.0879724 v 38.4977908 z m 28.234125864,121.8393379 0,0 0,0 z m -6.6410296,0.3159982 0,0 0,0 z m 31.73314146,-0.1579991 0,0 0,0 z m 3.49801559,0.2759985 c -0.46500207,0.039 -1.09300487,0.039 -1.66700743,0.039 l 1.66700743,-0.039 z m -1.66700743,0.039 c -0.3830017,-0.039 -0.76500341,-0.039 -1.03900463,-0.039 l -0.2460011,0.039 h 1.28500573 z m -1.28500573,0 0,0 0,0 z m 2.8700128,0.1979989 0,0 0,0 z M 205.1839147,0.4216279869 l 0,0 0,0 z m -18.2580814,0.8279955001 0,0 0,0 z m 11.6160518,0.19699893 c 0.027,0 0.055,0 0.055,0 -1.9680087,0 -3.9360175,0 -5.9040263,0 4.5650204,-0.157999142 13.7210612,-0.354998071 13.7210612,-0.354998071 -1.6950076,0.473997424 -5.2210233,0.315998283 -7.8720351,0.354998071 l 0,0 z m 5.0290224,0.867995283 c -0.5470024,0 -2.5690114,-0.07899957 -2.5690114,-0.07899957 m -7.3800329,-0.117999359 0.027,-0.03899979 h 0.082 l -0.1090004,0.03899979 z m 0.027,-0.03999978 c 0.8470037,-0.03899979 1.8860084,0 2.7880124,-0.03899979 0.082,0 0.1910009,0 0.1910009,0 -0.7650035,-0.03899979 -2.897013,-0.07899957 -2.897013,-0.07899957 -1.0660047,0 -2.3230103,0.117999359 -2.7880124,0 0.8200037,-0.03899979 2.4330109,-0.03899979 2.4330109,-0.03899979 -1.6950076,-0.07899957 -3.362015,-0.157999141 -5.0570226,-0.157999141 -0.5470024,0.03899979 -6.0410269,0.117999358 -6.0410269,0.07899957 1.4760066,-0.196998929 3.3890151,-0.117999359 5.166023,-0.196998929 -1.3120058,-0.03899979 -2.460011,-0.03899979 -3.7720168,0 0.2730012,0 -0.3010013,0 -0.3280015,0 -0.9290041,0.03899979 -2.7330122,0.07899957 -2.7330122,0.07899957 -0.683003,0 -2.0770092,-0.03899979 -2.0770092,-0.03899979 0.683003,-0.03899979 2.0770092,-0.07899957 2.0770092,-0.07899957 0.9290042,0 2.7880125,0.03899979 2.897013,0.03899979 -0.8200037,-0.03899979 -2.460011,-0.07899957 -2.460011,-0.07899957 1.0110045,0 2.9790133,-0.03899979 2.9790133,-0.03899979 -2.5970116,-0.03899979 -5.1930232,0.07899957 -7.7900348,0.117999359 -0.3010013,0 -4.6190205,-0.157999142 -4.7560212,0.236998712 0.3280015,0.196998929 1.3670061,0.157999141 1.6950076,0.157999141 1.4490065,0 4.2910191,-0.03899979 4.2910191,-0.03899979 -1.3670061,0.03899979 -2.7330122,0 -4.0730181,0.03899979 0.5740025,0.03899979 1.2030053,0.03899979 1.804008,0.03899979 -0.4920022,0.03899979 0.3830017,0 1.2300055,-0.03899979 4.9200219,0.157999142 9.9220442,0.03899979 14.8690663,0.03899979 h 2.3520105 z m -10.1400452,-0.432997647 0,0 0,0 m 8.0080357,1.142993788 h -0.1640008 c 0.437002,0 0.8750039,-0.03899979 1.2850058,-0.03899979 -0.3830017,0.03899979 -0.7650034,0.03899979 -1.121005,0.03899979 l 0,0 z m 7.2160321,-0.07899957 0,0 0,0 z m -14.7870659,0.03999978 0,0 0,0 z m -5.8490261,0.07899957 0,0 c 0.2460011,0 0.5740026,-0.03899979 0.9020041,-0.03899979 -0.3010014,-9.99995e-4 -0.6010027,0.03899979 -0.9020041,0.03899979 l 0,0 z m 0.9020041,-0.03999978 c 0.7380033,0 1.5030067,-0.03899979 1.5310068,-0.03899979 -0.4650021,0 -0.9840044,0.03899979 -1.5310068,0.03899979 l 0,0 z m 1.5310068,-0.03899979 0,0 0,0 z M 79.01535214,2.8666147 l 0,0 0,0 z m -1.12000499,-0.03899979 0,0 0,0 z m -17.65707861,0.2759985 h -0.0280001 0.0280001 z M 55.97424953,3.1426132 h -0.0270001 0.0270001 z M 36.62216326,3.537611054 30.93713792,3.655610413 c 1.36700609,-0.03899979 4.10001827,-0.157999142 4.10001827,-0.157999142 0.30100135,0 0.90200402,0.03999978 1.58500707,0.03999978 l 0,0 z M 48.4302159,2.8666147 l 0,0 0,0 z m 155.4416929,294.6013991 0,0 0,0 z m 3.6900165,-0.1579992 c 1.2570056,-0.039 2.2690101,-0.039 2.2690101,-0.039 -0.7660034,-10e-4 -1.5310068,0.039 -2.2690101,0.039 l 0,0 z m -66.2002951,0.6309966 0,0 0,0 z m 2.2690101,0 h 0.1910008 c -0.055,0 -0.1910008,0 -0.1910008,0 l 0,0 z m 23.8881065,-0.4729974 0,0 0,0 z m -2.460011,0.1179993 0,0 0,0 z m -1.4760066,0.039 0,0 0,0 z m -22.658101,0.5919968 0,0 0,0 z m -2.6240117,0.1179993 0,0 0,0 z m -3.2260143,-0.3149982 0,0 0,0 z m 0.1640007,0 0,0 0,0 z M 2.046009121,283.9780871 l 0,0 0,0 z"
    id="order-poster-body-path"
    style="fill:#999999" />
</svg>