<svg id="city_ysah" data-name="ysah" xmlns="http://www.w3.org/2000/svg" width="52.5mm" height="52.5mm" viewBox="0 0 148.82 148.82">
    <g
       transform="matrix(0.0283466687,0,0,0.0283466716,-1190.097095,-1190.443683)"
       style="clip-rule:evenodd;fill-rule:evenodd;image-rendering:optimizeQuality;shape-rendering:geometricPrecision;text-rendering:geometricPrecision"
       id="ysah">
        <path
            class="fil2"
            d="m 44152,44149 30,-107 c -161,-122 -21,-364 -34,-520 25,0 62,-11 71,-18 81,-40 152,-136 237,-203 l 76,39 -55,11 -58,91 c 71,181 63,288 46,384 17,154 39,327 -9,329 l -147,120 c -9,-39 -5,-86 -64,-120 -37,7 -63,0 -93,-6 z m 1216,-777 c 6,28 13,60 21,95 l 54,46 35,-9 c 32,5 127,-51 193,-93 -50,-15 -66,-24 -87,-24 -44,18 -23,40 -10,64 -85,-5 -172,-51 -206,-79 z m -1442,-34 c -34,30 -161,108 -237,104 19,-21 35,-51 -6,-65 -18,0 -39,10 -90,28 72,41 161,96 196,91 l 37,8 84,-53 c 10,-48 5,-87 16,-113 z m -87,1123 c -5,-9 -11,-22 -13,-34 -21,-77 -106,-127 -116,-143 5,-106 -21,-152 -45,-256 13,10 34,19 50,14 -50,-87 -76,-186 -157,-272 l -91,-71 c -21,-16 -15,-85 -5,-119 94,-8 151,5 221,55 -10,14 -15,14 -31,19 58,29 113,29 160,16 20,115 61,310 43,427 -50,121 76,268 187,203 l -16,81 101,90 c 105,59 207,29 253,142 76,-87 105,-142 69,-223 41,-11 92,0 126,21 l 242,-157 11,-368 -43,-39 -49,-207 55,-28 -18,-166 10,-64 c -111,-66 -47,-131 45,-76 92,50 100,172 242,177 l -39,21 c 106,174 145,318 65,580 l 30,48 c -97,71 -208,218 -279,218 l -124,31 -42,145 -69,-69 0,90 c -25,-47 -37,-42 -80,-55 80,198 -136,411 59,517 l 10,0 0,147 c -258,-34 -393,-140 -538,-297 71,-90 220,-98 182,-190 -21,-56 -208,-196 -406,-208 z m -345,2 c -63,5 -129,10 -191,16 0,-16 -5,-32 -7,-43 -5,-5 -37,-92 -108,-113 18,-32 32,-124 37,-214 43,-33 61,-36 97,-83 43,21 64,106 89,139 l -46,0 c 46,55 57,190 76,255 9,25 32,41 53,43 z m 1943,-2 c 0,-4 5,-14 6,-25 17,-76 102,-126 108,-138 -1,-111 23,-154 54,-260 -18,9 -39,16 -55,14 55,-90 75,-187 156,-272 l 92,-71 c 23,-16 13,-86 5,-121 -92,-8 -153,10 -219,56 6,14 16,14 30,16 -53,26 -109,33 -148,28 -6,50 -27,60 -48,101 -29,142 -5,239 -18,379 l -58,35 c -26,60 -39,141 -81,199 l -43,-7 c -10,25 -16,55 -37,71 l -47,-14 c 0,108 -285,180 -351,180 45,135 26,317 -26,354 l -45,28 0,135 c 218,-43 342,-147 478,-290 -74,-90 -220,-96 -182,-190 21,-56 207,-195 400,-208 10,0 21,-3 29,0 z m 351,2 c 63,5 116,10 176,11 0,-13 3,-22 3,-29 5,-5 37,-95 111,-116 -20,-29 -34,-121 -38,-211 -42,-34 -63,-37 -97,-82 -42,18 -65,108 -90,137 l 48,0 c -48,56 -60,192 -79,254 -3,18 -19,31 -34,36 z m -1182,1442 -31,-37 -166,4 -59,71 -7,-71 -127,0 -6,435 -21,30 0,186 156,-4 0,-89 45,43 3,46 160,0 25,-46 28,0 0,147 108,5 -2,-281 c 34,18 61,138 55,175 l 151,-10 c 12,-36 58,-95 90,-129 -6,-59 21,-169 21,-224 l -53,0 23,-45 c 3,-45 9,-87 26,-147 l -23,-96 -193,4 c -26,60 -61,143 -100,163 l -2,-538 c 479,-27 851,-533 859,-693 8,-51 -31,-55 -86,-101 242,-13 739,288 1109,152 l -161,-199 106,-195 c -50,21 -124,32 -209,32 14,-11 23,-30 23,-62 19,5 35,14 53,9 -39,-117 -163,-584 -46,-681 l -27,-124 -37,9 c -19,0 -26,-32 -19,-67 l 76,-172 c 39,-70 35,-168 14,-226 18,0 18,9 29,21 5,-55 0,-92 -79,-177 19,16 13,0 55,11 -19,-55 -55,-126 -102,-147 21,-35 26,-80 -27,-116 -49,-16 -79,13 -92,26 -26,-13 -97,-13 -116,0 -26,10 -32,18 -63,30 -34,-12 -79,-20 -114,-30 -5,-7 -5,-13 -7,-29 -14,-3 -30,0 -30,3 -9,5 5,100 0,107 5,4 6,0 21,0 l 4,4 c 12,26 36,44 76,63 -40,0 -59,-3 -96,-19 l 0,16 c 25,16 62,118 112,127 -38,9 -40,50 -71,81 21,8 42,3 65,0 -5,21 -23,38 -44,40 -46,-2 -161,-19 -203,-50 -80,55 -262,39 -312,18 l -24,-24 8,-26 -15,26 -4,16 -30,-26 0,34 -30,-23 c -28,47 -28,88 -18,123 l -279,-168 c -71,55 -113,-37 -164,-67 -98,-10 -161,41 -206,148 -157,-63 -86,-102 -35,-163 l -251,66 c -23,156 -131,126 -138,60 l -168,105 c 2,-34 -3,-71 -23,-113 l -30,24 0,-35 -30,25 -5,-21 -11,-21 5,21 -18,31 c -56,21 -234,38 -314,-16 -46,24 -157,45 -207,48 -21,-3 -40,-24 -41,-42 20,5 41,10 62,0 -30,-30 -35,-71 -72,-80 51,-7 90,-111 116,-127 l 0,-17 c -39,17 -52,21 -100,21 48,-21 65,-39 76,-64 l 9,-2 c 10,0 15,2 19,0 -4,-9 7,-103 0,-106 0,-5 -14,-10 -30,-5 -7,11 -7,21 -9,30 -34,7 -81,17 -115,28 -28,-11 -37,-21 -63,-28 -18,-19 -89,-19 -110,0 -16,-19 -46,-43 -99,-25 -50,32 -46,80 -21,113 -50,20 -87,94 -105,149 44,-14 34,2 55,-14 -81,85 -85,122 -81,177 18,-11 18,-19 31,-19 -21,59 -26,156 13,220 l 74,178 c 13,34 0,66 -16,66 l -37,-12 -26,126 c 113,98 -8,564 -48,682 19,5 35,-4 53,-7 0,42 11,58 32,69 -97,0 -177,-9 -232,-32 l 106,194 -161,200 c 372,136 870,-165 1109,-152 -55,46 -92,48 -86,101 10,163 408,711 922,695 l 0,406 z m 232,-2317 117,-40 39,16 21,29 30,37 c 5,85 20,171 -9,175 l -66,-67 -111,-108 -21,-42 z m 25,332 113,35 44,-24 43,24 c 12,67 -9,134 -32,173 l -29,27 -42,-66 -97,-169 z m -628,-5 115,-38 59,103 -16,148 -177,-166 -61,-69 18,-16 62,38 z m -42,-356 c 55,-11 104,-63 178,-63 14,47 14,97 38,134 l 5,100 -90,-44 c -41,-32 -89,-46 -131,-72 l 0,-55 z m 284,-934 90,32 50,55 81,35 69,-21 -28,223 -235,0 -27,-324 z"
            id="path1072"
            style="fill:#000000" />
        <polygon
            class="fil3"
            points="44675,42800 44730,42771 44699,42900 44559,42898 44527,42707 44583,42718 44614,42758 "
            id="polygon1074"
            style="fill:#ffcc00" />
        <path
            class="fil12"
            d="m 43462,43778 c 11,92 -35,161 -90,229 69,26 85,150 127,201 l -49,-6 c 35,38 44,185 73,200 42,29 139,41 164,29 l 37,27 14,-24 30,18 -3,-21 30,5 c -19,-30 -57,-104 -124,-118 10,-110 -3,-184 -40,-260 -6,17 -11,51 -40,67 6,-20 22,-147 -8,-195 30,11 30,4 53,41 -39,-106 -29,-124 -147,-225 15,24 7,39 18,64 -11,0 -34,-11 -45,-32 z m 11,-311 c 7,39 7,23 2,48 85,5 164,39 263,108 l -12,-25 c 44,24 69,35 100,24 l 45,-111 -42,30 -91,-21 c -5,-24 -155,-93 -196,-104 14,21 14,21 33,42 -28,9 -60,14 -102,9 z m -27,-6 c -24,-5 -42,-13 -55,-15 -5,21 13,63 20,83 -81,-4 -92,-113 -326,-159 98,-14 197,18 256,54 -13,-21 -16,-58 -6,-81 25,29 117,64 140,68 -11,-8 -37,-24 -32,-36 48,23 83,9 127,0 58,-7 174,-69 188,-51 2,26 10,32 -4,60 40,-7 249,-97 235,-216 l -23,22 -10,-27 -11,-11 -11,22 c -72,21 -237,72 -327,31 -42,20 -166,38 -232,27 0,0 -40,-32 -40,-80 0,-18 -23,38 -81,54 0,0 -5,-56 -18,-77 0,0 -58,48 -56,39 0,-16 -32,-94 -59,-134 25,8 88,58 99,71 7,-15 21,-29 29,-36 19,32 36,39 40,68 12,-18 18,-16 36,-39 l 35,21 c -19,-14 -46,-50 -71,-61 71,-24 55,-63 105,-90 8,-26 -75,8 -77,-19 18,-9 85,-49 110,-78 l 4,-5 c 7,-6 -1,-41 -1,-74 l -8,16 c 0,10 0,-11 -2,-4 -64,19 -90,32 -122,40 -9,-3 -52,-26 -89,-26 -8,0 -53,2 -84,11 -11,5 -22,18 -18,26 5,0 46,-14 44,5 -5,11 -64,43 -79,3 -8,-6 3,-50 24,-55 -21,-22 -40,-13 -48,-4 -26,21 -21,59 2,80 -12,5 -60,40 -72,88 23,-4 65,-23 81,-19 -21,17 -81,79 -90,132 -2,5 50,-25 90,-7 -19,14 -46,39 -63,74 17,-23 60,-15 95,-28 -25,37 -99,42 -104,152 0,0 -44,-14 -41,-76 -59,127 163,370 152,398 11,25 0,62 -48,85 -33,7 -49,-2 -67,-9 l 0,58 c 140,73 -9,510 -37,612 30,-2 44,-10 67,-49 l 6,53 c 24,-4 35,-9 50,-25 -5,37 -36,79 -55,97 -50,-44 -31,-30 -45,-9 2,34 21,25 39,44 l 133,-8 c 33,11 52,30 52,56 l 8,-37 35,23 -9,-37 48,14 c -23,-39 -23,-81 -106,-101 -7,-15 -18,-21 -29,-36 22,-71 45,-161 45,-256 35,0 88,-32 124,-109 14,9 14,28 16,23 37,-37 58,-127 61,-152 16,9 29,32 27,48 12,-23 9,-45 9,-61 0,-70 -29,-74 -20,-139 2,12 9,16 16,16 -32,-117 39,-166 28,-238 z m -305,-477 21,-39 c -11,7 2,-5 -22,7 -5,1 -17,32 1,32 z m 95,21 c -6,-10 7,-26 10,-42 -8,0 -19,0 -24,11 0,-14 -11,-16 -18,-6 l -3,13 -5,-18 c -6,7 -11,7 -16,16 l 8,-23 c -8,4 -26,4 -30,18 -12,7 0,28 14,21 2,12 11,12 18,13 l 9,-22 2,27 16,-32 -6,27 c 4,5 19,-1 25,-3 z m 26,-132 6,-32 c -16,9 -30,-5 -69,9 26,5 31,23 63,23 z"
            id="path1076"
            style="fill:#ffffff" />
        <path
            class="fil3"
            d="m 44364,44291 190,-92 c -13,-46 -19,-235 15,-380 l -50,9 c 22,-111 24,-258 19,-403 l 63,-92 -129,-85 c -34,26 -71,58 -116,50 -75,82 -142,155 -211,123 l -92,140 c 5,188 5,359 -19,525 l 227,198 20,37 83,-30 z m 21,38 -10,61 -78,23 -20,-23 c -69,-35 -84,-62 -161,-67 l -19,-94 -42,-16 c -124,64 -213,-161 -131,-187 16,-90 -19,-232 -25,-348 0,-24 -28,-16 -30,-37 138,-119 149,-271 207,-324 16,-38 76,-117 116,-90 48,39 130,58 156,-82 l 131,-51 c -46,56 0,104 140,161 45,-94 88,-184 175,-177 79,46 115,157 187,62 l 37,115 248,109 c 44,105 10,255 104,347 -46,196 -78,288 -70,439 l -145,226 -53,-11 -167,183 -157,47 -55,74 c 37,71 39,55 49,132 6,91 -26,100 -60,148 l -77,5 -48,-48 c -44,-65 56,-150 4,-341 39,11 28,35 54,75 11,-32 9,-64 0,-103 l 62,69 66,-193 42,42 c 99,-58 161,-74 255,-178 l 0,-53 106,-71 31,-463 c -33,-36 -76,-168 -118,-195 l 26,-5 29,-90 c -145,0 -224,-41 -300,-126 -151,-137 -243,77 -114,122 l 0,173 -92,32 119,303 -69,267 35,71 -338,87 z"
            id="path1078"
            style="fill:#ffcc00" />
        <path
            class="fil3"
            d="m 44619,45009 37,0 0,1508 -37,0 0,-184 -44,89 -149,0 c -7,-26 -51,-71 -67,-89 l 0,84 -127,0 5,-116 26,-358 82,-1 8,172 40,66 127,0 15,-135 -35,-2 -12,62 -119,9 0,-172 202,0 c 19,37 19,77 48,93 l 0,-1026 z m 93,1065 c 39,-11 113,-87 126,-140 l 119,0 c -18,74 -3,85 -3,185 l -61,0 0,-56 -30,7 -4,86 18,24 109,0 c -13,49 -29,137 -13,205 -40,8 -50,21 -89,42 l -88,0 c 3,-60 -43,-142 -84,-150 l 0,-203 z"
            id="path1080"
            style="fill:#ffcc00" />
        <path
            class="fil12"
            d="m 45807,43483 c -7,39 -7,23 -4,50 -84,5 -164,39 -261,107 l 9,-23 c -43,23 -66,34 -98,21 l -45,-111 42,32 92,-21 c 5,-25 154,-95 193,-106 -11,21 -11,24 -32,45 26,6 67,6 104,6 z m 7,320 c -14,16 -32,23 -42,25 10,-27 3,-42 16,-66 -114,100 -106,119 -145,225 23,-37 23,-27 53,-41 -30,48 -14,175 -6,198 -30,-16 -35,-53 -42,-69 -37,75 -48,149 -39,259 -67,14 -106,88 -124,121 l 30,-5 -2,18 29,-16 14,22 34,-27 c 28,11 124,0 164,-27 30,-14 41,-163 73,-200 l -45,6 c 42,-53 58,-177 124,-200 -53,-71 -103,-133 -92,-223 z m 48,-200 c -11,-44 -37,-76 -32,-125 26,7 39,-6 58,-16 7,23 -11,65 -19,83 81,-2 92,-113 327,-158 -99,-15 -200,20 -260,53 16,-21 18,-58 9,-81 -28,29 -118,66 -142,68 13,-8 38,-22 32,-34 -47,21 -81,7 -124,0 -61,-9 -176,-69 -190,-50 -5,23 -8,29 5,60 -39,-7 -248,-100 -234,-219 l 21,25 11,-27 11,-14 12,22 c 71,21 237,74 327,31 40,21 166,39 232,30 0,0 37,-35 37,-83 0,-16 23,38 82,57 0,0 3,-59 16,-78 0,0 58,48 58,37 -2,-16 32,-94 60,-131 -26,5 -90,57 -101,68 -4,-16 -18,-29 -28,-36 -18,32 -37,39 -39,68 -14,-18 -21,-16 -37,-36 l -37,18 c 19,-14 49,-48 74,-61 -71,-21 -55,-63 -108,-88 -5,-26 78,6 81,-21 -21,-7 -86,-49 -111,-78 l -5,-5 c -7,-6 3,-41 3,-74 l 5,17 c 2,9 0,-10 3,-5 63,19 91,35 123,42 6,-2 51,-28 90,-28 6,0 50,2 80,13 15,5 26,19 18,24 -2,0 -43,-14 -43,5 6,11 64,43 80,5 8,-8 -2,-52 -22,-56 20,-21 38,-12 48,-5 25,21 21,61 -3,80 12,5 61,42 72,90 -26,-4 -64,-25 -80,-18 20,17 80,78 90,131 1,5 -52,-27 -90,-6 18,13 45,37 61,71 -16,-21 -60,-15 -94,-28 26,39 97,42 104,155 0,0 43,-16 38,-79 60,129 -161,371 -151,398 -10,26 0,63 50,85 30,10 48,-2 64,-9 l 0,59 c -140,74 13,509 40,611 -30,-2 -46,-10 -67,-47 l -7,52 c -22,-2 -34,-10 -50,-26 5,40 36,79 52,97 53,-41 32,-28 47,-9 0,36 -21,28 -37,46 l -136,-10 c -32,11 -48,30 -48,58 l -10,-39 -34,26 10,-40 -51,14 c 25,-37 25,-79 106,-101 8,-15 21,-21 32,-33 -24,-73 -46,-164 -46,-259 -37,0 -88,-31 -128,-109 -11,9 -11,27 -13,25 -37,-38 -58,-127 -59,-151 -17,8 -31,32 -28,45 -14,-22 -9,-43 -9,-61 0,-70 30,-74 20,-136 -9,20 -20,13 -20,20 20,-60 11,-84 4,-119 l 0,0 z m 274,-606 -19,-41 c 13,7 -2,-4 24,7 5,2 16,34 -5,34 z m -92,19 c 5,-9 -9,-26 -11,-40 8,0 21,0 25,13 0,-15 11,-19 16,-10 l 4,13 5,-16 c 5,5 12,5 16,14 l -6,-22 c 6,6 22,6 29,21 11,3 0,24 -13,18 -3,11 -12,11 -21,16 l -7,-23 -3,26 -18,-34 9,31 c -7,3 -20,-5 -25,-7 z m -21,-129 -9,-32 c 19,8 30,-5 71,8 -27,5 -31,24 -62,24 z"
            id="path1082"
            style="fill:#ffffff" />
        <path
            class="fil4"
            d="m 43839,44489 c 132,19 246,74 322,180 -80,21 -69,36 -129,95 -138,-346 -1061,145 -1187,-3 l 71,-113 -69,-103 c 99,3 204,-5 313,-13 l -9,40 c 21,-14 58,-19 60,-51 3,0 3,0 4,0 26,14 21,44 42,55 -3,-25 2,-41 5,-60 18,14 41,32 60,42 -8,-7 -8,-26 -13,-47 118,-13 233,-29 346,-29 37,16 66,63 71,78 18,-9 18,-34 23,-60 26,26 40,37 58,47 l 0,-63 c 19,26 35,45 51,53 -5,-13 -10,-27 -19,-48 z m 2276,41 c 100,7 197,17 288,12 l -67,101 71,115 c -126,148 -1049,-343 -1189,5 -58,-60 -47,-76 -127,-97 80,-110 198,-161 336,-179 -3,21 -4,32 -11,50 16,-7 39,-34 55,-60 l 0,70 c 23,-10 34,-17 60,-47 4,30 4,51 20,58 15,-21 47,-71 86,-79 103,3 209,16 315,32 4,24 4,42 0,52 17,-15 39,-33 65,-44 0,23 11,41 2,69 22,-14 19,-46 50,-53 0,28 40,37 56,50 l -10,-55 z m -796,289 c 23,-55 108,-98 152,-90 l -16,-21 c -60,4 -124,21 -173,77 -30,40 5,72 37,34 z m -605,598 c 391,-36 707,-390 741,-472 69,-108 43,-152 3,-150 -58,-12 -77,83 -139,119 -56,31 -78,14 -106,-24 -80,71 -206,248 -501,298 0,24 -5,229 2,229 z m -108,0 c -419,-7 -767,-385 -806,-472 -72,-110 -46,-155 -5,-147 60,-15 78,77 141,116 55,31 80,13 106,-29 85,80 222,271 564,311 l 0,221 z m -670,-595 c -23,-53 -107,-96 -152,-89 l 16,-21 c 60,7 124,21 173,78 30,40 -5,72 -37,32 z"
            id="path1084"
            style="fill:#999999" />
    </g>
</svg>