<?xml version="1.0" encoding="UTF-8" standalone="no"?>
<svg
    xmlns:dc="http://purl.org/dc/elements/1.1/"
    xmlns:cc="http://creativecommons.org/ns#"
    xmlns:rdf="http://www.w3.org/1999/02/22-rdf-syntax-ns#"
    xmlns:svg="http://www.w3.org/2000/svg"
    xmlns="http://www.w3.org/2000/svg"
    xml:space="preserve"
    width="765"
    height="164"
    version="1.1"
    style="clip-rule:evenodd;fill-rule:evenodd;image-rendering:optimizeQuality;shape-rendering:geometricPrecision;text-rendering:geometricPrecision"
    viewBox="0 0 21590.00122 4628.444677"
    id="svg2">
<defs
    id="defs4"></defs>
<g
    id="Слой_x0020_1"
    transform="translate(0,22.43658578)">
    <path
        id="bzlogo-body"
        class="fil0"
        d="m 21561.88693,2865.563245 c 0,-154.750147 -46.99976,-1564.584275 -46.99976,-1564.584275 -2.99998,-74.36046 -7.99995,-148.72092 -11.99993,-222.076509 -9.99995,-135.6575964 -40.99979,-237.1495758 -115.99939,-361.75359 -73.99962,-115.5601744 -150.99921,-197.9596032 -275.99856,-291.4126138 -0.99999,0 -193.99898,-130.6332407 -202.99893,-121.589401 -63.99967,-31.1510035 -121.99936,-54.2630384 -191.999,-77.3750733 -168.99911,-52.2532963 -300.99842,-75.3653312 -485.99745,-82.3994288 0,0 -403.99788,-15.0730662 -378.99801,-14.0681951 -810.99575,-16.0779374 -2507.98685,44.2143276 -2491.98693,44.2143276 -630.99669,19.0925505 -1938.98983,0 -1930.98988,0 -107.99943,4.0194843 -324.99829,12.058453 -324.99829,12.058453 l -471.99753,-18.0876795 c -502.99736,11.0535819 -1001.99474,28.1363903 -1505.9921,12.058453 -406.99786,-4.0194844 -1221.99359,-12.058453 -1221.99359,-12.058453 -155.99918,3.0146132 -1640.99139,27.1315192 -1640.99139,25.121777 -637.996659,-15.0730662 -1293.993219,-79.3848155 -1930.989878,-94.45788169 -391.997945,0 -782.995894,1.00487109 -1174.993838,6.02922649 -720.99622,17.0828084 -1441.992439,82.3994288 -2160.988668,100.4871082 -304.998401,5.0243554 -428.99775,-44.2143276 -749.996067,-81.3945576 C 3753.980314,74.03137835 3540.981431,76.04112052 3075.983869,68.00215186 2777.985432,55.94369887 2061.989187,30.82192181 1805.990529,-13.39240581 c -28.999848,-8.03896866 -262.998621,-9.04383974 -262.998621,-9.04383974 -221.998835,5.02435541 -388.99796,35.17048788 -586.9969213,104.50659256 0,0 -254.9986628,106.51633469 -246.9987047,113.55043229 -77.999591,44.2143276 -136.9992816,82.3994288 -205.9989198,134.652725 C 364.9980859,439.8044523 279.9985317,536.2720762 200.9989459,669.9199302 126.999334,805.5775263 93.99950706,913.0987321 82.99956474,1056.795297 c 0.99999476,0 -0.99999475,22.107164 -0.99999475,22.107164 4.99997378,1.004871 -63.99966438,525.547576 -54.99971158,525.547576 6.99996329,231.120349 35.99981121,470.279666 55.99970633,702.404886 -8.9999528,117.569917 -27.99985316,352.70975 -27.99985316,352.70975 C 36.99980597,2681.671837 0,2723.876422 0,2723.876422 c 11.99993707,105.511464 36.99980597,317.539262 36.99980597,317.539262 2.99998427,-43.209456 8.9999528,-128.623498 8.9999528,-128.623498 18.99990037,32.155875 54.99971163,96.467624 54.99971163,96.467624 -14.99992139,175.852439 -27.99985322,275.334676 -63.99966443,449.177374 0,1.004871 0.99999476,15.073066 0.99999476,15.073066 9.99994756,155.755018 45.99975877,273.324934 130.99931307,417.021499 84.9995542,134.652725 175.999077,231.120349 321.9983114,339.646426 145.9992343,103.501721 280.9985264,168.818342 472.9975195,229.110607 0.9999948,-1.004871 102.9994603,28.13639 102.9994603,28.13639 160.999155,40.194843 304.9984,54.263038 475.997503,55.267909 0,0 2324.987808,-24.116906 2324.987808,-24.116906 0,0 3607.981079,88.428656 3607.981079,87.423785 1297.993194,-13.063324 2616.986275,-45.219199 3914.979465,-75.365332 495.9974,-20.097421 520.99727,-20.097421 530.99722,-21.102292 l 1659.9913,-4.019485 c 40.99978,0 943.99504,4.019485 943.99504,4.019485 402.99789,-9.04384 813.99574,-53.258168 1221.9936,-58.282523 202.99893,0 393.99793,-3.014613 596.99687,-8.038969 l 625.99671,-9.043839 c 126.99934,0 1404.99264,-4.019485 1404.99264,-4.019485 243.99872,1.004871 482.99746,5.024356 725.99619,13.063324 72.99962,1.004871 218.99885,4.019485 218.99885,4.019485 l 406.99787,-33.160746 c 35.99981,0 488.99743,2.009742 501.99736,-30.146133 -221.99883,-36.175359 -564.99703,-79.384815 -837.9956,-111.54069 l 837.9956,0 c 570.99701,0 1037.99456,-359.743847 1037.99456,-798.87251 l 0,-2394.607789 c 0,-417.0214995 -419.9978,-761.6922807 -949.99502,-795.8578975 111.99941,3.0146132 207.99891,19.0925505 322.99831,49.238683 143.99924,42.2045855 240.99873,88.4286553 353.99814,163.7939864 114.9994,80.3896866 185.99903,153.7452756 254.99866,256.242126 70.99963,112.5455612 101.99947,203.9888297 113.99941,326.5831021 0,0 23.99987,257.246997 23.99987,253.227512 24.99987,818.969933 27.99985,815.955319 25.99986,831.028385 1,265.285966 5.99997,534.591416 18.9999,798.872511 11.99994,169.823213 33.99983,341.656168 53.99972,511.479381 8.99995,133.647854 -4.99997,244.183673 -59.99968,371.8023 -1,0 -1.99999,3.014614 -1.99999,3.014614 -55.99971,124.604014 -123.99935,218.057024 -238.99875,323.568488 -120.99937,105.511464 -236.99876,175.852439 -406.99787,244.183673 -184.99903,69.336105 -337.99822,100.487108 -548.99712,112.545561 212.99889,-6.029226 368.99807,-33.160745 560.99706,-96.467624 178.99906,-65.31662 300.99842,-132.642982 434.99772,-237.149575 127.99933,-106.516335 205.99892,-200.974217 274.99856,-330.602586 66.99965,-136.662467 90.99952,-246.193415 88.99953,-390.894851 0,0 -27.99985,-608.951876 -27.99985,-607.947005 l 0,0 z M 5383.971766,4272.38276 l -245.99871,18.08768 c -123.99935,-4.019485 -371.998049,-12.058453 -371.998049,-12.058453 l -14.999922,-6.029227 632.996681,0 z m -2820.985207,0 -152.999197,18.08768 c -8.999953,-3.014613 -31.999832,-9.04384 -56.999701,-18.08768 l 209.998898,0 z m -1227.99356,-94.457881 c -47.999748,-9.04384 -94.999502,-21.102293 -145.999234,-37.18023 0,0 -20.99989,-7.034098 -20.99989,-7.034098 -112.999407,-40.194843 -189.9990037,-82.399429 -270.9985789,-147.716049 -87.9995385,-76.370202 -137.9992763,-143.696565 -169.9991085,-237.149576 -27.9998532,-99.482237 -21.9998847,-175.852439 0,-275.334676 39.9997902,-200.974217 51.9997273,-389.88998 55.9997063,-592.873939 l 0.9999948,-140.681951 0,733.55589 c 0,304.475938 223.9988253,569.761904 550.9971103,704.414629 l 0,0 z M 783.9958887,2261.635725 c -1.9999896,-394.914336 -9.9999476,-788.8238 -15.9999161,-1182.733264 l 17.9999056,-143.6965651 c 1.9999895,-9.0438397 40.999785,-105.5114636 40.999785,-105.5114636 15.9999161,-29.1412614 31.9998322,-54.2630385 48.999743,-79.3848155 -58.9996906,100.4871082 -91.9995175,212.0277983 -91.9995175,328.5928442 l 0,1182.733264 0,0 z"
        style="fill:#ffffff" />
<g
    id="_1954322401136">
    <path
        class="fil1"
        d="m 12803,1066 c 712,164 1455,-87 2111,-618 l 768,3015 c -210,183 -442,297 -685,361 -361,82 -736,84 -1133,11 -151,-26 -297,-61 -437,-98 l -624,-2671 z"
        id="path63"
        style="fill:#ffcc00" />
    <path
        class="fil2"
        d="m 11391,2695 c -52,17 -106,31 -157,54 -3,1 -39,18 -37,20 l 0,0 c -8,9 -15,19 -19,30 -5,13 -8,29 -8,48 0,22 3,42 8,59 5,16 13,31 23,45 21,28 46,28 77,14 32,-16 67,-51 84,-83 12,-25 14,-42 21,-66 2,-14 4,-35 6,-63 1,-16 2,-35 2,-58 z m 2841,-1150 162,758 c 11,55 22,111 33,167 2,9 4,20 6,30 15,-9 29,-19 37,-26 l 52,-39 c 26,-19 56,-24 86,-14 29,10 50,33 59,63 l 123,459 c 9,35 -1,69 -28,93 l -21,18 c -93,82 -204,132 -326,155 -83,16 -167,11 -247,-17 -78,-28 -145,-74 -195,-139 -49,-64 -81,-144 -105,-221 -35,-109 -57,-240 -79,-353 l -160,-820 -67,13 c -47,9 -94,-21 -106,-68 l -1,-5 -373,579 c 26,116 52,236 78,356 l 341,822 1,0 c 27,65 -4,139 -69,166 -16,7 -33,10 -50,10 29,124 47,199 50,200 0,0 0,0 0,0 0,0 0,0 0,0 169,45 316,85 471,108 302,34 573,43 840,-14 277,-50 504,-137 738,-302 l -4,-1 c -72,-35 -135,-86 -187,-154 -49,-65 -86,-137 -110,-217 l 0,0 c -1,-2 -1,-5 -2,-7 -22,-76 -33,-158 -33,-247 0,-59 5,-117 16,-172 11,-56 27,-109 49,-159 23,-52 50,-97 82,-137 24,-30 50,-56 79,-80 l -49,-180 -44,-11 c -70,-18 -112,-91 -91,-160 12,-58 27,-111 44,-161 -117,-424 -229,-854 -354,-1275 -159,138 -323,269 -504,388 -7,4 -13,9 -20,13 l 112,440 c 7,25 3,50 -11,72 -14,22 -35,36 -61,41 l -162,28 z m -822,-122 -52,-204 c -175,8 -383,-2 -512,-101 9,31 18,64 25,92 -4,-17 15,67 46,213 l 1,0 492,0 z m 77,-454 -1,-5 525,-615 80,459 c 213,-83 496,-251 589,-321 93,-69 111,-87 137,-109 19,-14 37,-22 62,-28 25,-5 45,-4 70,2 25,7 42,16 60,32 17,17 26,32 32,53 107,389 212,777 315,1166 16,-20 33,-39 50,-56 l 0,-1 c 59,-58 136,-101 214,-127 78,-26 167,-39 267,-39 87,0 164,8 233,23 75,17 138,43 189,77 9,-6 116,101 126,113 36,43 64,91 85,144 19,50 34,118 43,203 8,79 13,173 13,283 0,260 -13,518 0,779 4,97 17,187 44,281 l 0,-369 c 0,-70 57,-127 127,-127 l 352,0 c 71,0 128,57 128,127 l 0,491 c 0,70 -57,127 -128,127 l -352,0 c -48,0 -89,-26 -111,-65 -23,41 -67,66 -114,65 l -346,0 c -52,0 -97,-31 -117,-77 -60,46 -122,78 -195,99 -67,18 -134,23 -203,17 -137,105 -273,187 -418,250 -496,212 -1096,268 -1876,19 -15,-6 -28,-14 -41,-26 -18,-18 -28,-34 -34,-57 l -48,-225 -240,0 c -57,0 -105,-37 -121,-89 l -244,-605 -8,12 0,555 c 0,70 -57,127 -127,127 l -353,0 c -43,0 -81,-21 -104,-54 -25,35 -65,55 -107,54 l -347,0 c -52,0 -97,-31 -117,-77 -17,14 -46,35 -66,44 -41,24 -84,42 -129,55 -49,13 -98,20 -147,20 -88,0 -168,-17 -239,-51 -72,-35 -135,-86 -187,-154 -49,-65 -86,-137 -110,-217 -23,-78 -35,-162 -35,-254 0,-59 6,-117 16,-172 11,-56 27,-109 49,-159 23,-52 50,-97 82,-137 33,-42 72,-77 115,-106 40,-27 87,-52 142,-74 12,-4 24,-9 37,-14 l -308,-77 0,0 c -20,-5 -37,-14 -51,-27 -30,21 -67,29 -105,19 -24,-6 -44,-18 -60,-35 -18,-15 -34,-26 -49,-33 -10,-5 -18,-7 -25,-7 -7,0 -13,0 -17,2 -4,2 -9,6 -14,12 l 0,0 c -2,2 -3,4 -5,6 -5,7 -11,19 -17,35 -11,26 -20,61 -29,104 -9,45 -15,115 -20,211 -4,96 -7,225 -7,386 l 0,573 c 0,70 -57,127 -127,127 l -353,0 c -38,0 -72,-17 -96,-44 -48,28 -99,49 -154,63 -58,15 -118,23 -180,23 -41,0 -81,-5 -121,-16 -41,-10 -79,-25 -114,-45 l 0,0 c -1,-1 -3,-2 -4,-3 -34,-20 -63,-43 -90,-70 -28,-29 -51,-61 -68,-96 -16,-30 -29,-67 -40,-109 -10,-38 -18,-80 -23,-125 l 0,0 c 0,-3 -1,-7 -1,-11 -3,-32 -6,-75 -8,-130 -2,-68 -3,-141 -3,-219 l 0,-682 -35,0 c -14,0 -27,-2 -40,-6 3,58 5,122 5,190 l 0,1153 c 0,70 -57,127 -127,127 l -353,0 c -70,0 -127,-57 -127,-127 l 0,-947 c 0,-101 -2,-181 -5,-240 -3,-47 0,-207 -86,-207 -15,0 -27,2 -38,7 -30,12 -61,48 -77,77 -11,21 -20,45 -26,72 -8,32 -14,80 -18,144 -4,65 -6,150 -6,254 l 0,840 c 0,70 -57,127 -127,127 l -353,0 c -46,0 -87,-25 -109,-62 -15,25 -38,45 -68,55 -14,5 -29,7 -44,7 l -347,0 c -52,0 -97,-31 -117,-77 -18,15 -38,28 -57,40 l 0,0 c -3,2 -6,3 -9,4 -86,50 -178,75 -276,75 -88,0 -168,-17 -239,-51 -66,-32 -123,-77 -172,-136 l 0,18 c 0,70 -57,127 -127,127 l -1191,0 c -70,0 -127,-57 -127,-127 l 0,-149 c -34,54 -72,101 -114,142 l 0,0 c -2,2 -4,4 -7,6 -59,56 -126,98 -200,126 -76,29 -158,44 -247,44 -139,0 -262,-33 -368,-98 -106,-65 -192,-160 -259,-286 l 0,0 c -2,-4 -4,-8 -5,-12 -32,-62 -58,-130 -79,-202 -30,107 -71,202 -122,282 -64,101 -136,178 -218,231 -87,57 -182,85 -284,85 -51,0 -103,-9 -155,-27 -49,-18 -97,-43 -144,-76 -26,18 -42,61 -118,61 l -327,0 c -70,0 -127,-57 -127,-127 l 0,-2561 c 0,-70 57,-127 127,-127 l 353,0 c 70,0 127,57 127,127 l 0,611 c 80,-50 167,-75 259,-75 105,0 201,27 289,81 83,51 157,125 221,223 l 0,0 c 2,3 4,6 6,9 50,80 90,174 118,281 32,-104 74,-195 127,-275 68,-103 147,-181 238,-235 93,-56 195,-84 306,-84 245,0 437,111 577,334 28,45 53,94 75,148 l 0,-312 c 0,-70 57,-127 127,-127 l 1103,0 c 70,0 127,57 127,127 l 0,201 1,-3 c 38,-81 84,-148 138,-201 l 0,-1 c 3,-3 6,-5 9,-8 57,-53 125,-92 205,-119 78,-26 167,-39 267,-39 87,0 164,8 233,23 75,17 138,43 190,77 l 0,0 c 2,1 4,3 6,4 46,32 86,68 119,109 36,43 64,91 85,144 19,50 34,118 43,203 9,79 13,173 13,282 0,191 -3,383 -5,573 l 1,0 0,1 c 0,84 1,153 4,206 2,54 6,99 12,135 l 0,0 c 0,3 0,5 1,8 4,31 11,64 20,99 3,10 5,20 8,30 l 0,-1724 c 0,-70 57,-127 127,-127 l 328,0 c 48,0 91,27 112,67 97,-73 206,-110 328,-110 48,0 97,7 144,20 48,13 93,32 134,57 l 1,0 c 3,2 6,4 9,6 37,24 71,51 100,81 33,33 60,70 82,111 5,8 9,16 13,24 l 0,-129 c 0,-70 57,-127 127,-127 l 54,0 c 9,-15 21,-28 36,-37 l 347,-281 -1,0 c 55,-44 135,-36 179,19 19,23 28,52 28,80 l 0,0 0,219 114,0 c 35,0 67,14 90,37 23,-23 55,-37 90,-37 l 328,0 c 33,0 64,13 86,34 29,-23 59,-40 91,-53 40,-16 83,-24 127,-24 56,0 111,11 165,33 51,20 100,50 148,90 l 0,0 c 21,17 35,40 42,64 6,-7 13,-14 19,-20 l 0,-1 c 3,-3 6,-5 9,-8 57,-53 125,-92 205,-119 78,-26 167,-39 267,-39 87,0 164,8 233,23 75,17 138,43 190,77 l 0,0 c 2,1 4,3 6,4 46,32 86,68 119,109 36,43 64,91 85,144 19,50 34,118 43,203 9,79 13,173 13,282 0,191 -3,383 -5,573 l 1,0 0,1 c 0,84 1,153 4,206 2,54 6,99 12,135 l 0,0 c 0,3 0,5 1,8 4,28 10,58 18,89 l 0,-1686 c 0,-71 57,-128 127,-128 l 353,0 c 70,0 127,57 127,128 l 0,217 179,-283 0,0 c 10,-17 24,-30 40,-40 -15,-98 -28,-195 -41,-292 -2,-22 -5,-44 -6,-68 -5,-10 -12,-18 -18,-27 -46,-85 123,-85 180,-82 188,17 353,17 522,-4 z m -2337,1221 c 57,-13 137,-37 193,-57 18,-6 34,-12 48,-18 -1,-29 -1,-89 -36,-96 -24,-5 -51,-9 -76,-8 -46,0 -60,8 -80,49 -18,39 -27,99 -49,130 z M 9690,2057 c -16,7 -34,11 -53,11 l -114,0 0,621 c 0,86 1,146 2,177 0,15 0,28 1,38 14,-6 32,-14 54,-25 l 0,0 c 36,-18 76,-17 110,-1 l 0,-821 z m -2958,638 c -52,17 -106,31 -157,54 -3,1 -37,20 -37,20 l 0,0 c -21,23 -27,48 -27,78 0,41 18,126 69,126 13,0 26,-3 39,-8 32,-16 67,-51 84,-83 20,-39 25,-86 27,-129 1,-16 2,-35 2,-58 z m -38,-677 c -21,-4 -47,-8 -74,-7 -17,0 -31,1 -41,5 -7,2 -13,6 -17,10 l 0,0 c -1,1 -3,3 -4,4 -5,6 -11,16 -18,30 -10,22 -20,51 -29,87 l 0,0 c -4,16 -11,31 -20,43 74,-19 141,-39 193,-57 18,-6 34,-12 48,-18 -1,-33 1,-88 -38,-97 z m -750,46 -448,718 0,0 c -13,22 -29,43 -42,64 l 452,0 c 2,-41 7,-81 14,-120 11,-56 27,-109 49,-159 23,-52 50,-97 82,-137 34,-42 72,-77 115,-106 40,-27 87,-52 142,-74 12,-4 24,-9 37,-14 l -308,-77 0,0 c -48,-12 -83,-50 -93,-95 z m -1782,127 c -8,-43 -21,-90 -46,-126 -18,-27 -43,-54 -78,-54 -41,0 -64,26 -84,58 l 0,1 c -2,2 -3,4 -5,7 -21,34 -33,75 -40,114 l 253,0 z m 11,555 -268,0 c 2,13 5,25 8,36 16,66 62,171 142,171 40,0 59,-35 73,-68 18,-42 23,-105 45,-139 z m 374,0 113,26 0,0 c 28,7 51,21 68,41 l 411,-656 c 18,-28 34,-54 48,-77 l -391,3 0,1 c -24,0 -47,-7 -66,-18 3,12 5,24 8,37 29,147 42,320 39,517 0,42 -18,126 -126,126 l 0,0 -104,0 z M 2449,2437 c 0,90 5,167 15,231 9,60 22,107 38,142 22,47 46,81 71,101 17,14 37,21 58,21 13,0 25,-4 35,-12 18,-12 36,-34 55,-65 20,-33 35,-79 46,-137 12,-64 18,-143 18,-236 0,-100 -6,-183 -18,-251 -11,-60 -27,-108 -47,-142 l 0,0 c -2,-3 -4,-6 -5,-9 -16,-25 -33,-44 -50,-56 -14,-9 -30,-13 -48,-13 -18,0 -33,4 -47,13 -19,12 -38,33 -56,62 l 0,1 0,0 0,0 c -1,2 -2,4 -4,6 -18,33 -33,74 -43,125 -12,60 -18,133 -18,219 z m 15300,1095 -353,0 c -70,0 -127,-57 -127,-127 l 0,-1855 c 0,-70 57,-127 127,-127 l 328,0 c 33,0 63,13 86,34 29,-23 59,-40 91,-53 40,-15 82,-24 127,-24 56,0 111,11 165,33 27,11 53,24 79,40 22,-19 51,-30 82,-30 l 353,0 c 70,0 127,57 127,127 l 0,852 c 0,135 2,239 5,311 3,72 7,119 12,141 l 0,0 0,1 c 10,43 26,91 77,91 71,0 122,-83 138,-145 l -1,0 c 1,-3 2,-5 3,-8 5,-28 10,-76 14,-144 4,-77 6,-182 6,-317 l 0,-782 c 0,-70 57,-127 127,-127 l 353,0 c 70,0 127,57 127,127 l 0,1855 c 0,70 -57,127 -127,127 l -328,0 c -50,0 -93,-29 -114,-70 -4,3 -8,6 -13,9 -47,32 -96,57 -146,75 -56,18 -112,28 -169,28 -59,0 -115,-9 -168,-28 -53,-18 -103,-45 -150,-80 l 0,0 c -3,-2 -7,-5 -9,-8 -43,-34 -80,-75 -111,-121 -33,-49 -59,-103 -79,-164 l 0,0 c -1,-3 -2,-7 -3,-11 -17,-55 -29,-119 -38,-190 -8,-75 -13,-157 -13,-249 l 0,-593 c -29,22 -69,31 -108,21 -24,-6 -44,-18 -60,-35 -27,-23 -74,-61 -105,-26 l 0,0 c -2,2 -3,4 -5,6 -23,32 -38,101 -46,139 -34,170 -27,422 -27,597 l 0,573 c 0,70 -57,127 -127,127 z m -1775,-837 c -16,5 -33,11 -51,16 l 0,0 0,0 0,0 c -2,1 -4,1 -6,2 -40,12 -74,24 -100,36 -18,8 -30,14 -36,19 l -1,1 0,0 0,0 c -8,9 -15,19 -19,30 -12,30 -9,77 0,107 15,49 45,85 100,59 32,-16 67,-51 84,-83 20,-39 24,-86 27,-129 1,-16 2,-35 2,-58 z m -112,-684 c -43,-3 -62,11 -80,49 -10,22 -20,51 -29,87 l -20,44 c 80,-22 164,-45 241,-76 -4,-104 -17,-98 -112,-104 z m -2401,-224 c 73,-14 144,29 157,96 13,68 -36,134 -110,148 -73,14 -143,-29 -156,-96 -13,-68 36,-134 109,-148 z m 995,-194 c 74,-14 144,29 157,96 13,68 -36,134 -109,148 -74,14 -144,-29 -157,-96 -13,-67 36,-134 109,-148 z m -813,1654 c 8,-21 23,-39 47,-50 l 1,0 0,0 c 23,-11 49,-12 72,-5 23,7 30,23 42,44 l 0,0 c 7,13 27,24 35,35 24,36 56,67 90,94 l 0,0 c 65,52 144,92 228,117 150,45 288,37 430,-30 l 0,0 c 80,-38 156,-91 216,-154 58,-59 103,-127 125,-197 l 0,0 c 8,-23 26,-42 47,-52 22,-11 47,-14 72,-7 l 0,0 c 2,0 4,1 6,2 l 0,0 c 22,7 40,22 51,40 12,19 15,42 9,64 0,2 0,3 -1,5 l 0,0 c -30,92 -88,182 -163,260 -87,95 -302,256 -546,272 -98,8 -202,-5 -301,-34 -144,-42 -288,-122 -387,-236 -5,-5 -25,-31 -44,-57 -23,-34 -45,-68 -29,-111 z"
        id="path65"
        style="fill:#ffffff;fill-rule:nonzero" />
    <path
        class="fil3"
        d="m 1972,3405 0,-2561 353,0 0,922 c 108,-172 237,-258 386,-258 163,0 297,82 404,245 106,164 159,399 159,705 0,317 -54,561 -163,732 -108,171 -240,257 -395,257 -76,0 -151,-27 -225,-80 -74,-53 -138,-131 -192,-235 l 0,273 -327,0 z m 13658,-1289 -320,-81 c 36,-179 97,-311 185,-398 89,-86 219,-129 392,-129 158,0 275,26 352,78 77,52 131,117 162,197 32,80 48,226 48,440 l -4,573 c 0,162 5,283 17,360 11,77 32,161 63,249 l -349,0 c -9,-33 -21,-81 -34,-145 -5,-29 -10,-48 -12,-58 -61,82 -125,143 -194,184 -68,40 -142,61 -220,61 -137,0 -245,-52 -324,-155 -79,-104 -119,-235 -119,-394 0,-104 18,-198 54,-280 36,-82 87,-145 152,-189 64,-43 158,-81 280,-114 165,-43 279,-84 343,-120 l 0,-49 c 0,-95 -17,-162 -50,-202 -34,-40 -97,-61 -190,-61 -63,0 -112,18 -147,52 -35,34 -63,94 -85,181 z m 472,398 c -45,21 -117,46 -215,75 -98,29 -162,58 -192,85 -46,46 -69,104 -69,173 0,70 18,129 55,179 37,50 84,75 141,75 64,0 124,-29 182,-87 43,-44 71,-99 84,-163 10,-42 14,-122 14,-239 l 0,-98 z m 645,891 0,-491 352,0 0,491 -352,0 z m 1002,0 -353,0 0,-1855 328,0 0,264 c 56,-125 106,-207 151,-247 45,-39 96,-59 153,-59 80,0 157,31 232,93 l -109,427 c -59,-53 -115,-80 -166,-80 -50,0 -91,19 -125,57 -35,38 -62,106 -81,205 -20,99 -30,306 -30,622 l 0,573 z m 1491,0 0,-278 c -49,99 -113,177 -192,234 -79,57 -162,86 -250,86 -90,0 -170,-28 -241,-82 -71,-55 -123,-132 -155,-231 -32,-99 -48,-236 -48,-411 l 0,-1173 353,0 0,852 c 0,261 7,421 20,480 13,58 36,105 71,139 34,35 78,52 130,52 61,0 115,-23 162,-69 48,-46 81,-103 98,-171 18,-69 27,-235 27,-501 l 0,-782 353,0 0,1855 -328,0 z M 2322,2437 c 0,192 22,334 65,426 61,131 142,196 244,196 78,0 144,-46 199,-139 55,-92 82,-238 82,-438 0,-211 -28,-364 -83,-458 -55,-94 -126,-141 -212,-141 -85,0 -155,46 -211,137 -56,92 -84,231 -84,417 z m 1958,378 352,81 c -46,180 -117,316 -215,410 -97,94 -219,141 -366,141 -232,0 -403,-105 -514,-316 -88,-169 -133,-383 -133,-640 0,-307 58,-548 174,-722 115,-174 262,-261 438,-261 199,0 355,91 470,273 114,183 169,462 165,838 l -885,0 c 3,145 31,259 86,339 54,81 122,122 203,122 56,0 102,-21 140,-63 37,-42 66,-109 85,-202 z m 20,-497 c -3,-142 -29,-250 -79,-324 -50,-74 -111,-111 -183,-111 -78,0 -141,40 -191,118 -50,77 -75,183 -74,317 l 527,0 z m 446,1087 0,-383 500,-798 c 82,-130 143,-223 182,-278 -41,4 -95,6 -162,7 l -471,4 0,-407 1103,0 0,348 -510,817 -179,271 c 97,-9 158,-13 182,-13 l 546,0 0,432 -1191,0 z m 1642,-1289 -320,-81 c 36,-179 97,-312 185,-398 89,-86 219,-129 392,-129 158,0 275,26 352,78 77,52 131,117 163,197 31,80 47,226 47,439 l -4,573 c 0,163 5,284 17,361 11,77 33,161 63,249 l -349,0 c -9,-33 -21,-81 -34,-145 -5,-29 -10,-48 -12,-58 -61,82 -125,143 -194,184 -68,40 -141,61 -219,61 -138,0 -246,-52 -325,-155 -79,-104 -119,-235 -119,-394 0,-104 18,-198 54,-280 36,-82 87,-145 152,-189 64,-43 158,-81 280,-114 165,-43 279,-84 343,-121 l 0,-48 c 0,-95 -17,-162 -50,-203 -34,-39 -97,-60 -190,-60 -63,0 -112,18 -147,52 -35,34 -63,94 -85,181 z m 472,398 c -45,21 -117,46 -215,75 -98,29 -161,58 -192,85 -46,46 -69,104 -69,173 0,70 19,129 55,179 37,50 84,75 141,75 64,0 124,-29 182,-87 43,-44 71,-99 84,-163 10,-42 14,-122 14,-239 l 0,-98 z m 1858,891 -353,0 0,-947 c 0,-200 -8,-330 -23,-389 -15,-58 -39,-104 -73,-137 -34,-32 -75,-49 -122,-49 -62,0 -117,24 -165,70 -49,47 -82,109 -100,185 -18,77 -27,219 -27,427 l 0,840 -353,0 0,-1855 328,0 0,272 c 116,-209 263,-314 440,-314 77,0 149,19 213,58 64,39 113,89 146,150 33,61 56,129 69,206 14,77 20,187 20,330 l 0,1153 z m 919,-1855 0,391 -241,0 0,748 c 0,151 2,239 7,264 5,26 15,46 31,62 17,17 37,25 60,25 33,0 80,-16 142,-47 l 30,380 c -82,49 -175,74 -279,74 -63,0 -121,-15 -172,-45 -51,-29 -88,-68 -112,-115 -24,-47 -40,-111 -50,-192 -7,-56 -11,-172 -11,-345 l 0,-809 -162,0 0,-391 162,0 0,-60 354,-286 0,346 241,0 z m 533,1855 -353,0 0,-1855 328,0 0,264 c 56,-125 107,-207 151,-247 45,-39 96,-59 153,-59 80,0 158,31 232,93 l -109,427 c -59,-53 -115,-80 -166,-80 -49,0 -91,19 -125,57 -35,37 -62,106 -81,205 -20,99 -30,306 -30,622 l 0,573 z m 877,-1289 -320,-81 c 36,-179 97,-312 185,-398 89,-86 219,-129 392,-129 158,0 275,26 352,78 77,52 131,117 163,197 31,80 47,226 47,439 l -4,573 c 0,163 5,284 17,361 11,77 33,161 63,249 l -349,0 c -9,-33 -20,-81 -34,-145 -5,-29 -10,-48 -12,-58 -61,82 -125,143 -194,184 -68,40 -141,61 -219,61 -138,0 -246,-52 -325,-155 -79,-104 -119,-235 -119,-394 0,-104 18,-198 54,-280 36,-82 87,-145 152,-189 64,-43 158,-81 280,-114 165,-43 279,-84 343,-121 l 0,-48 c 0,-95 -17,-162 -50,-203 -34,-39 -97,-60 -190,-60 -63,0 -112,18 -147,52 -35,34 -63,94 -85,181 z m 472,398 c -45,21 -117,46 -215,75 -98,29 -161,58 -192,85 -46,46 -69,104 -69,173 0,70 19,129 55,179 37,50 84,75 141,75 64,0 124,-29 182,-87 43,-44 71,-99 84,-163 10,-42 14,-122 14,-239 l 0,-98 z m 632,891 0,-1857 353,0 0,655 413,-653 435,0 -456,677 488,1178 -380,0 -336,-833 -164,239 0,594 -353,0 z m 2113,-2293 58,287 -236,48 181,888 c 30,149 50,235 59,258 10,24 24,42 43,55 20,13 41,17 64,12 32,-7 75,-32 130,-74 l 105,366 c -71,65 -157,107 -259,128 -62,12 -121,9 -177,-9 -56,-19 -100,-50 -133,-91 -33,-41 -62,-101 -87,-178 -19,-54 -45,-166 -80,-336 l -193,-949 -159,33 -58,-287 159,-32 -45,-218 290,-351 102,498 236,-48 z"
        id="path67"
        style="fill:#000000;fill-rule:nonzero" />
    </g>
</g>
</svg>