<?xml version="1.0" encoding="UTF-8" standalone="no"?>
<svg
    xmlns:dc="http://purl.org/dc/elements/1.1/"
    xmlns:cc="http://creativecommons.org/ns#"
    xmlns:rdf="http://www.w3.org/1999/02/22-rdf-syntax-ns#"
    xmlns:svg="http://www.w3.org/2000/svg"
    xmlns="http://www.w3.org/2000/svg"
    version="1.1"
    id="Capa_1"
    x="0px"
    y="0px"
    width="64"
    height="32"
    viewBox="0 0 64 32"
    xml:space="preserve">
    <g
        id="g3"
        transform="matrix(0.1063617379,0,0,0.1087038085,-2.630412173,-17.26303342)">
        <g 
            id="g5">
            <path
                d="m 626.450882,430.7422378 -0.00786,-51.2426305 c -0.2211106,2.148e-4 -0.4414865,0.016815 -0.6592381,0.01572 -40.633578,0.014084 -73.5747302,-32.9251836 -73.5821788,-73.5577776 -0.01089,-40.627679 32.9268219,-73.5735828 73.5590878,-73.5788196 0.2211107,-2.148e-4 0.4363207,0.014971 0.6557108,0.017213 l -0.010477,-51.237142 c -1.651e-4,-12.3433675 -10.0132263,-22.3503692 -22.3574129,-22.3507777 l -141.9647047,0.027334 0.00685,44.3591981 -33.6767394,-0.00633 -0.00546,-44.347237 -381.33030698,0.067121 c -12.34484093,-0.00819 -22.35487375,10.0039684 -22.34733625,22.3524981 l 0.0449508,249.5834371 c 1.6507e-4,12.3433674 10.0140455,22.3509428 22.35512032,22.3418478 l 381.32235941,-0.059258 -0.00561,-43.8065441 33.6814105,-0.00383 6.165e-4,43.806707 141.9721596,-0.025776 c 12.3400101,-0.011061 22.3515164,-10.0148646 22.3490584,-22.3549536 z m -197.2722315,-194.4397314 33.6788706,-0.00195 0.016643,57.5553054 -33.692961,-5.964e-4 z m -0.7352925,141.9886019 -0.013661,-53.0876235 33.6796899,-0.00137 0.010384,53.0853292 z"
                id="path7"
                style="fill:#999999" />
        </g>
    </g>
</svg>